{"accessors":[{"name":"polygon0_1_0_positions","componentType":5126,"count":16,"min":[-2.1225979328155518,2.3212521076202393,3.070267915725708],"max":[2.1225979328155518,3.836822032928467,4.358870983123779],"type":"VEC3","bufferView":0,"byteOffset":0},{"name":"polygon0_1_0_normals","componentType":5126,"count":16,"min":[-0.8466241955757141,0.11969099193811417,0.46020811796188354],"max":[0.8466241955757141,0.46752509474754333,0.8977532386779785],"type":"VEC3","bufferView":1,"byteOffset":0},{"name":"polygon0_1_0_texcoords","componentType":5126,"count":16,"min":[0.015625,0.0039059999398887157],"max":[0.4726560115814209,0.2460940033197403],"type":"VEC2","bufferView":2,"byteOffset":0},{"name":"polygon0_1_0_indices","componentType":5123,"count":42,"min":[0],"max":[15],"type":"SCALAR","bufferView":3,"byteOffset":0},{"name":"polygon1_1_0_positions","componentType":5126,"count":1155,"min":[-2.7848598957061768,0.0018110000528395176,-3.719836950302124],"max":[2.7848598957061768,7.150382995605469,4.735857009887695],"type":"VEC3","bufferView":0,"byteOffset":192},{"name":"polygon1_1_0_normals","componentType":5126,"count":1155,"min":[-0.9996296167373657,-0.9991143345832825,-0.9966291785240173],"max":[0.9996296167373657,0.9989347457885742,0.9980530142784119],"type":"VEC3","bufferView":1,"byteOffset":192},{"name":"polygon1_1_0_texcoords","componentType":5126,"count":1155,"min":[0.009429999627172947,0.008545000106096268],"max":[0.9894409775733948,0.9965519905090332],"type":"VEC2","bufferView":2,"byteOffset":128},{"name":"polygon1_1_0_indices","componentType":5123,"count":4674,"min":[0],"max":[1154],"type":"SCALAR","bufferView":3,"byteOffset":84}],"asset":{"generator":"obj2gltf","version":"2.0"},"buffers":[{"name":"Bulbasaur","byteLength":341852,"uri":"data:application/octet-stream;base64,"}],"bufferViews":[{"name":"bufferView_0","buffer":0,"byteLength":14052,"byteOffset":0,"byteStride":12,"target":34962},{"name":"bufferView_1","buffer":0,"byteLength":14052,"byteOffset":14052,"byteStride":12,"target":34962},{"name":"bufferView_2","buffer":0,"byteLength":9368,"byteOffset":28104,"byteStride":8,"target":34962},{"name":"bufferView_3","buffer":0,"byteLength":9432,"byteOffset":37472,"target":34963},{"buffer":0,"byteOffset":46904,"byteLength":98322},{"buffer":0,"byteOffset":145226,"byteLength":196626}],"images":[{"name":"FushigidaneEyeDh","mimeType":"image/x-tga","bufferView":4},{"name":"FushigidaneDh","mimeType":"image/x-tga","bufferView":5}],"materials":[{"name":"mat2","pbrMetallicRoughness":{"baseColorTexture":{"index":0},"baseColorFactor":[1,1,1,1],"metallicFactor":0,"roughnessFactor":0.99},"emissiveFactor":[0,0,0],"alphaMode":"OPAQUE","doubleSided":false},{"name":"mat1","pbrMetallicRoughness":{"baseColorTexture":{"index":1},"baseColorFactor":[1,1,1,1],"metallicFactor":0,"roughnessFactor":0.99},"emissiveFactor":[0,0,0],"alphaMode":"OPAQUE","doubleSided":false}],"meshes":[{"name":"polygon0_1","primitives":[{"attributes":{"POSITION":0,"NORMAL":1,"TEXCOORD_0":2},"indices":3,"material":0,"mode":4}]},{"name":"polygon1_1","primitives":[{"attributes":{"POSITION":4,"NORMAL":5,"TEXCOORD_0":6},"indices":7,"material":1,"mode":4}]}],"nodes":[{"name":"polygon0","mesh":0},{"name":"polygon1","mesh":1}],"samplers":[{"wrapS":10497,"wrapT":10497}],"scene":0,"scenes":[{"nodes":[0,1]}],"textures":[{"name":"FushigidaneEyeDh","sampler":0,"source":0},{"name":"FushigidaneDh","sampler":0,"source":1}]}