{"accessors":[{"name":"fushigisou_c-Mesh_0_positions","componentType":5126,"count":657,"min":[-5.134130001068115,-6.8137288093566895,-12.632001876831055],"max":[5.129693984985352,6.12693977355957,0.02261899970471859],"type":"VEC3","bufferView":0,"byteOffset":0},{"name":"fushigisou_c-Mesh_0_texcoords","componentType":5126,"count":657,"min":[0.0017999999690800905,-0.002242000075057149],"max":[0.7503160238265991,0.9982519745826721],"type":"VEC2","bufferView":1,"byteOffset":0},{"name":"fushigisou_c-Mesh_0_indices","componentType":5123,"count":2352,"min":[0],"max":[656],"type":"SCALAR","bufferView":2,"byteOffset":0},{"name":"fushigisou_c-Mesh_1_positions","componentType":5126,"count":14,"min":[-3.001270055770874,3.5586938858032227,-6.094018936157227],"max":[2.9968349933624268,5.676116943359375,-3.4025819301605225],"type":"VEC3","bufferView":0,"byteOffset":7884},{"name":"fushigisou_c-Mesh_1_texcoords","componentType":5126,"count":14,"min":[0.740896999835968,0.0016949999844655395],"max":[0.9921349883079529,0.24801500141620636],"type":"VEC2","bufferView":1,"byteOffset":5256},{"name":"fushigisou_c-Mesh_1_indices","componentType":5123,"count":30,"min":[0],"max":[13],"type":"SCALAR","bufferView":2,"byteOffset":4704}],"asset":{"generator":"obj2gltf","version":"2.0"},"buffers":[{"name":"BR_Ivysaur-Shiny01","byteLength":1066780,"uri":"data:application/octet-stream;base64,"}],"bufferViews":[{"name":"bufferView_0","buffer":0,"byteLength":8052,"byteOffset":0,"byteStride":12,"target":34962},{"name":"bufferView_1","buffer":0,"byteLength":5368,"byteOffset":8052,"byteStride":8,"target":34962},{"name":"bufferView_2","buffer":0,"byteLength":4764,"byteOffset":13420,"target":34963},{"buffer":0,"byteOffset":18184,"byteLength":1048594}],"images":[{"name":"fushigisou_c_1_0","mimeType":"image/x-tga","bufferView":3}],"materials":[{"name":"mat_0","pbrMetallicRoughness":{"baseColorTexture":{"index":0},"baseColorFactor":[1,1,1,1],"metallicFactor":0,"roughnessFactor":0.903921569},"emissiveFactor":[0,0,0],"alphaMode":"BLEND","doubleSided":true},{"name":"mat_1","pbrMetallicRoughness":{"baseColorTexture":{"index":0},"baseColorFactor":[1,1,1,1],"metallicFactor":0,"roughnessFactor":0.903921569},"emissiveFactor":[0,0,0],"alphaMode":"BLEND","doubleSided":true}],"meshes":[{"name":"fushigisou_c-Mesh","primitives":[{"attributes":{"POSITION":0,"TEXCOORD_0":1},"indices":2,"material":0,"mode":4},{"attributes":{"POSITION":3,"TEXCOORD_0":4},"indices":5,"material":1,"mode":4}]}],"nodes":[{"name":"fushigisou_c","mesh":0}],"samplers":[{"wrapS":10497,"wrapT":10497}],"scene":0,"scenes":[{"nodes":[0]}],"textures":[{"name":"fushigisou_c_1_0","sampler":0,"source":0}]}