{"accessors":[{"name":"polygon0_1_0_positions","componentType":5126,"count":1085,"min":[-11.577590942382812,-0.41823700070381165,-9.577590942382812],"max":[11.577590942382812,16.62335777282715,15.488191604614258],"type":"VEC3","bufferView":0,"byteOffset":0},{"name":"polygon0_1_0_normals","componentType":5126,"count":1085,"min":[-0.999993085861206,-0.9999916553497314,-0.9999953508377075],"max":[0.999993085861206,0.9998854398727417,0.9999916553497314],"type":"VEC3","bufferView":1,"byteOffset":0},{"name":"polygon0_1_0_texcoords","componentType":5126,"count":1085,"min":[0.010100999847054482,0.006134000141173601],"max":[0.9964600205421448,0.9865109920501709],"type":"VEC2","bufferView":2,"byteOffset":0},{"name":"polygon0_1_0_indices","componentType":5123,"count":4230,"min":[0],"max":[1084],"type":"SCALAR","bufferView":3,"byteOffset":0},{"name":"polygon2_1_0_positions","componentType":5126,"count":192,"min":[-13.36996078491211,10.09798526763916,-11.36996078491211],"max":[13.369961738586426,17.825611114501953,15.369959831237793],"type":"VEC3","bufferView":0,"byteOffset":13020},{"name":"polygon2_1_0_normals","componentType":5126,"count":192,"min":[-0.9954506158828735,-0.9948301911354065,-0.995675802230835],"max":[0.9954506158828735,0.9948301911354065,0.9957834482192993],"type":"VEC3","bufferView":1,"byteOffset":13020},{"name":"polygon2_1_0_texcoords","componentType":5126,"count":192,"min":[0.043212998658418655,0.007842999882996082],"max":[0.9516909718513489,0.9872130155563354],"type":"VEC2","bufferView":2,"byteOffset":8680},{"name":"polygon2_1_0_indices","componentType":5123,"count":528,"min":[0],"max":[191],"type":"SCALAR","bufferView":3,"byteOffset":8460},{"name":"polygon3_1_0_positions","componentType":5126,"count":36,"min":[-4.4452290534973145,6.1283650398254395,10.93033218383789],"max":[4.445230007171631,9.176380157470703,13.456083297729492],"type":"VEC3","bufferView":0,"byteOffset":15324},{"name":"polygon3_1_0_normals","componentType":5126,"count":36,"min":[-0.8719578981399536,-0.005187998525798321,0.3402779698371887],"max":[0.8719578981399536,0.7926189303398132,0.8562650084495544],"type":"VEC3","bufferView":1,"byteOffset":15324},{"name":"polygon3_1_0_texcoords","componentType":5126,"count":36,"min":[0.007813000120222569,0.011718999594449997],"max":[0.484375,0.234375],"type":"VEC2","bufferView":2,"byteOffset":10216},{"name":"polygon3_1_0_indices","componentType":5123,"count":162,"min":[0],"max":[35],"type":"SCALAR","bufferView":3,"byteOffset":9516}],"asset":{"generator":"obj2gltf","version":"2.0"},"buffers":[{"name":"Venusaur","byteLength":781000,"uri":"data:application/octet-stream;base64,"}],"bufferViews":[{"name":"bufferView_0","buffer":0,"byteLength":15756,"byteOffset":0,"byteStride":12,"target":34962},{"name":"bufferView_1","buffer":0,"byteLength":15756,"byteOffset":15756,"byteStride":12,"target":34962},{"name":"bufferView_2","buffer":0,"byteLength":10504,"byteOffset":31512,"byteStride":8,"target":34962},{"name":"bufferView_3","buffer":0,"byteLength":9840,"byteOffset":42016,"target":34963},{"buffer":0,"byteOffset":51856,"byteLength":442386},{"buffer":0,"byteOffset":494242,"byteLength":65554},{"buffer":0,"byteOffset":559796,"byteLength":221202}],"images":[{"name":"FushigibanaDh","mimeType":"image/x-tga","bufferView":4},{"name":"FushigibanaLeafDh","mimeType":"image/x-tga","bufferView":5},{"name":"FushigibanaEyeDh","mimeType":"image/x-tga","bufferView":6}],"materials":[{"name":"mat1","pbrMetallicRoughness":{"baseColorTexture":{"index":0},"baseColorFactor":[1,1,1,1],"metallicFactor":0,"roughnessFactor":0.99},"emissiveFactor":[0,0,0],"alphaMode":"OPAQUE","doubleSided":false},{"name":"mat3","pbrMetallicRoughness":{"baseColorTexture":{"index":1},"baseColorFactor":[1,1,1,1],"metallicFactor":0,"roughnessFactor":0.99},"emissiveFactor":[0,0,0],"alphaMode":"OPAQUE","doubleSided":false},{"name":"mat2","pbrMetallicRoughness":{"baseColorTexture":{"index":2},"baseColorFactor":[1,1,1,1],"metallicFactor":0,"roughnessFactor":0.99},"emissiveFactor":[0,0,0],"alphaMode":"OPAQUE","doubleSided":false}],"meshes":[{"name":"polygon0_1","primitives":[{"attributes":{"POSITION":0,"NORMAL":1,"TEXCOORD_0":2},"indices":3,"material":0,"mode":4}]},{"name":"polygon2_1","primitives":[{"attributes":{"POSITION":4,"NORMAL":5,"TEXCOORD_0":6},"indices":7,"material":1,"mode":4}]},{"name":"polygon3_1","primitives":[{"attributes":{"POSITION":8,"NORMAL":9,"TEXCOORD_0":10},"indices":11,"material":2,"mode":4}]}],"nodes":[{"name":"polygon0","mesh":0},{"name":"polygon2","mesh":1},{"name":"polygon3","mesh":2}],"samplers":[{"wrapS":10497,"wrapT":10497}],"scene":0,"scenes":[{"nodes":[0,1,2]}],"textures":[{"name":"FushigibanaDh","sampler":0,"source":0},{"name":"FushigibanaLeafDh","sampler":0,"source":1},{"name":"FushigibanaEyeDh","sampler":0,"source":2}]}