{"accessors":[{"name":"polygon0_1_0_positions","componentType":5126,"count":30,"min":[-0.9028030037879944,4.063790798187256,0.6310549974441528],"max":[0.9028030037879944,4.967874050140381,1.36006498336792],"type":"VEC3","bufferView":0,"byteOffset":0},{"name":"polygon0_1_0_normals","componentType":5126,"count":30,"min":[-0.9478439688682556,0.0018920007860288024,0.3030489981174469],"max":[0.9478439688682556,0.4656451940536499,0.6344192624092102],"type":"VEC3","bufferView":1,"byteOffset":0},{"name":"polygon0_1_0_texcoords","componentType":5126,"count":30,"min":[0.015625,0.0039059999398887157],"max":[0.4726560115814209,0.2460940033197403],"type":"VEC2","bufferView":2,"byteOffset":0},{"name":"polygon0_1_0_indices","componentType":5123,"count":108,"min":[0],"max":[29],"type":"SCALAR","bufferView":3,"byteOffset":0},{"name":"polygon1_1_0_positions","componentType":5126,"count":832,"min":[-2.4508769512176514,0,-3.9005889892578125],"max":[2.4508779048919678,5.484295845031738,1.880653977394104],"type":"VEC3","bufferView":0,"byteOffset":360},{"name":"polygon1_1_0_normals","componentType":5126,"count":832,"min":[-0.9993178248405457,-1,-0.9999999403953552],"max":[0.9993178248405457,0.9990580081939697,0.9996376633644104],"type":"VEC3","bufferView":1,"byteOffset":360},{"name":"polygon1_1_0_texcoords","componentType":5126,"count":832,"min":[0.009643999859690666,0.009337999857962132],"max":[0.9930109977722168,0.9916989803314209],"type":"VEC2","bufferView":2,"byteOffset":240},{"name":"polygon1_1_0_indices","componentType":5123,"count":4014,"min":[0],"max":[831],"type":"SCALAR","bufferView":3,"byteOffset":216}],"asset":{"generator":"obj2gltf","version":"2.0"},"buffers":[{"name":"Charmander","byteLength":330776,"uri":"data:application/octet-stream;base64,"}],"bufferViews":[{"name":"bufferView_0","buffer":0,"byteLength":10344,"byteOffset":0,"byteStride":12,"target":34962},{"name":"bufferView_1","buffer":0,"byteLength":10344,"byteOffset":10344,"byteStride":12,"target":34962},{"name":"bufferView_2","buffer":0,"byteLength":6896,"byteOffset":20688,"byteStride":8,"target":34962},{"name":"bufferView_3","buffer":0,"byteLength":8244,"byteOffset":27584,"target":34963},{"buffer":0,"byteOffset":35828,"byteLength":98322},{"buffer":0,"byteOffset":134150,"byteLength":196626}],"images":[{"name":"HitokageEyeDh","mimeType":"image/x-tga","bufferView":4},{"name":"HitokageDh","mimeType":"image/x-tga","bufferView":5}],"materials":[{"name":"mat2","pbrMetallicRoughness":{"baseColorTexture":{"index":0},"baseColorFactor":[1,1,1,1],"metallicFactor":0,"roughnessFactor":0.99},"emissiveFactor":[0,0,0],"alphaMode":"OPAQUE","doubleSided":false},{"name":"mat1","pbrMetallicRoughness":{"baseColorTexture":{"index":1},"baseColorFactor":[1,1,1,1],"metallicFactor":0,"roughnessFactor":0.99},"emissiveFactor":[0,0,0],"alphaMode":"OPAQUE","doubleSided":false}],"meshes":[{"name":"polygon0_1","primitives":[{"attributes":{"POSITION":0,"NORMAL":1,"TEXCOORD_0":2},"indices":3,"material":0,"mode":4}]},{"name":"polygon1_1","primitives":[{"attributes":{"POSITION":4,"NORMAL":5,"TEXCOORD_0":6},"indices":7,"material":1,"mode":4}]}],"nodes":[{"name":"polygon0","mesh":0},{"name":"polygon1","mesh":1}],"samplers":[{"wrapS":10497,"wrapT":10497}],"scene":0,"scenes":[{"nodes":[0,1]}],"textures":[{"name":"HitokageEyeDh","sampler":0,"source":0},{"name":"HitokageDh","sampler":0,"source":1}]}