{"accessors":[{"name":"lizardo_c-Mesh_0_positions","componentType":5126,"count":1004,"min":[-5.52698278427124,-8.90977954864502,-10.777532577514648],"max":[5.52698278427124,5.110997200012207,0.16981999576091766],"type":"VEC3","bufferView":0,"byteOffset":0},{"name":"lizardo_c-Mesh_0_texcoords","componentType":5126,"count":1004,"min":[0.0013000000035390258,0.00006399999983841553],"max":[0.37542200088500977,0.9839310050010681],"type":"VEC2","bufferView":1,"byteOffset":0},{"name":"lizardo_c-Mesh_0_indices","componentType":5123,"count":4884,"min":[0],"max":[1003],"type":"SCALAR","bufferView":2,"byteOffset":0},{"name":"lizardo_c-Mesh_1_positions","componentType":5126,"count":22,"min":[-1.2751410007476807,2.6335179805755615,-8.69741153717041],"max":[1.2764229774475098,4.054083824157715,-7.8606648445129395],"type":"VEC3","bufferView":0,"byteOffset":12048},{"name":"lizardo_c-Mesh_1_texcoords","componentType":5126,"count":22,"min":[0,0.0007319999858736992],"max":[1,0.25103700160980225],"type":"VEC2","bufferView":1,"byteOffset":8032},{"name":"lizardo_c-Mesh_1_indices","componentType":5123,"count":72,"min":[0],"max":[21],"type":"SCALAR","bufferView":2,"byteOffset":9768}],"asset":{"generator":"obj2gltf","version":"2.0"},"buffers":[{"name":"BR_Charmeleon-Shiny01","byteLength":2127620,"uri":"data:application/octet-stream;base64,"}],"bufferViews":[{"name":"bufferView_0","buffer":0,"byteLength":12312,"byteOffset":0,"byteStride":12,"target":34962},{"name":"bufferView_1","buffer":0,"byteLength":8208,"byteOffset":12312,"byteStride":8,"target":34962},{"name":"bufferView_2","buffer":0,"byteLength":9912,"byteOffset":20520,"target":34963},{"buffer":0,"byteOffset":30432,"byteLength":1048594},{"buffer":0,"byteOffset":1079026,"byteLength":1048594}],"images":[{"name":"lizardo_c_1_0","mimeType":"image/x-tga","bufferView":3},{"name":"lizardo_c_1_1","mimeType":"image/x-tga","bufferView":4}],"materials":[{"name":"mat_0","pbrMetallicRoughness":{"baseColorTexture":{"index":0},"baseColorFactor":[1,1,1,1],"metallicFactor":0,"roughnessFactor":0.903921569},"emissiveFactor":[0,0,0],"alphaMode":"BLEND","doubleSided":true},{"name":"mat_1","pbrMetallicRoughness":{"baseColorTexture":{"index":1},"baseColorFactor":[1,1,1,1],"metallicFactor":0,"roughnessFactor":0.903921569},"emissiveFactor":[0,0,0],"alphaMode":"BLEND","doubleSided":true}],"meshes":[{"name":"lizardo_c-Mesh","primitives":[{"attributes":{"POSITION":0,"TEXCOORD_0":1},"indices":2,"material":0,"mode":4},{"attributes":{"POSITION":3,"TEXCOORD_0":4},"indices":5,"material":1,"mode":4}]}],"nodes":[{"name":"lizardo_c","mesh":0}],"samplers":[{"wrapS":10497,"wrapT":10497}],"scene":0,"scenes":[{"nodes":[0]}],"textures":[{"name":"lizardo_c_1_0","sampler":0,"source":0},{"name":"lizardo_c_1_1","sampler":0,"source":1}]}