{"accessors":[{"name":"polygon0_1_0_positions","componentType":5126,"count":22,"min":[-1.46343195438385,15.213794708251953,7.770970821380615],"max":[1.4634310007095337,16.137977600097656,9.450404167175293],"type":"VEC3","bufferView":0,"byteOffset":0},{"name":"polygon0_1_0_normals","componentType":5126,"count":22,"min":[-0.9669132232666016,-0.36656811833381653,0.11474502086639404],"max":[0.9669132232666016,0.7427430748939514,0.8104169964790344],"type":"VEC3","bufferView":1,"byteOffset":0},{"name":"polygon0_1_0_texcoords","componentType":5126,"count":22,"min":[0.011718999594449997,0.0078119998797774315],"max":[0.4882810115814209,0.2421869933605194],"type":"VEC2","bufferView":2,"byteOffset":0},{"name":"polygon0_1_0_indices","componentType":5123,"count":66,"min":[0],"max":[21],"type":"SCALAR","bufferView":3,"byteOffset":0},{"name":"polygon1_1_0_positions","componentType":5126,"count":986,"min":[-13.663575172424316,-0.06080799922347069,-24.00391960144043],"max":[13.663575172424316,19.33237648010254,10.82068920135498],"type":"VEC3","bufferView":0,"byteOffset":264},{"name":"polygon1_1_0_normals","componentType":5126,"count":986,"min":[-0.9981427192687988,-0.9998740553855896,-0.9986755847930908],"max":[0.9981427192687988,0.9998987317085266,0.9997100830078125],"type":"VEC3","bufferView":1,"byteOffset":264},{"name":"polygon1_1_0_texcoords","componentType":5126,"count":986,"min":[0.006591999903321266,0.005553999915719032],"max":[0.9909060001373291,0.9817500114440918],"type":"VEC2","bufferView":2,"byteOffset":176},{"name":"polygon1_1_0_indices","componentType":5123,"count":4650,"min":[0],"max":[985],"type":"SCALAR","bufferView":3,"byteOffset":132},{"name":"polygon2_1_0_positions","componentType":5126,"count":4,"min":[0,5.375491142272949,-23.632173538208008],"max":[0,5.679618835449219,-23.328046798706055],"type":"VEC3","bufferView":0,"byteOffset":12096},{"name":"polygon2_1_0_normals","componentType":5126,"count":4,"min":[1,0,0],"max":[1,0,0],"type":"VEC3","bufferView":1,"byteOffset":12096},{"name":"polygon2_1_0_texcoords","componentType":5126,"count":4,"min":[0,0],"max":[0.5,0.25],"type":"VEC2","bufferView":2,"byteOffset":8064},{"name":"polygon2_1_0_indices","componentType":5123,"count":6,"min":[0],"max":[3],"type":"SCALAR","bufferView":3,"byteOffset":9432},{"name":"polygon3_1_0_positions","componentType":5126,"count":4,"min":[0.5298910140991211,4.191761016845703,-25.91424560546875],"max":[0.5298910140991211,12.645306587219238,-21.045974731445312],"type":"VEC3","bufferView":0,"byteOffset":12144},{"name":"polygon3_1_0_normals","componentType":5126,"count":4,"min":[1,0,0],"max":[1,0,0],"type":"VEC3","bufferView":1,"byteOffset":12144},{"name":"polygon3_1_0_texcoords","componentType":5126,"count":4,"min":[0,0],"max":[0.3320310115814209,0.25],"type":"VEC2","bufferView":2,"byteOffset":8096},{"name":"polygon3_1_0_indices","componentType":5123,"count":6,"min":[0],"max":[3],"type":"SCALAR","bufferView":3,"byteOffset":9444}],"asset":{"generator":"obj2gltf","version":"2.0"},"buffers":[{"name":"P2_CharizardWP","byteLength":41968,"uri":"data:application/octet-stream;base64,"}],"bufferViews":[{"name":"bufferView_0","buffer":0,"byteLength":12192,"byteOffset":0,"byteStride":12,"target":34962},{"name":"bufferView_1","buffer":0,"byteLength":12192,"byteOffset":12192,"byteStride":12,"target":34962},{"name":"bufferView_2","buffer":0,"byteLength":8128,"byteOffset":24384,"byteStride":8,"target":34962},{"name":"bufferView_3","buffer":0,"byteLength":9456,"byteOffset":32512,"target":34963}],"materials":[{"name":"mat2","pbrMetallicRoughness":{"baseColorFactor":[0.5,0.5,0.5,1],"metallicFactor":0,"roughnessFactor":1},"emissiveFactor":[0,0,0],"alphaMode":"OPAQUE","doubleSided":false},{"name":"mat1","pbrMetallicRoughness":{"baseColorFactor":[0.5,0.5,0.5,1],"metallicFactor":0,"roughnessFactor":1},"emissiveFactor":[0,0,0],"alphaMode":"OPAQUE","doubleSided":false},{"name":"mat3","pbrMetallicRoughness":{"baseColorFactor":[0.5,0.5,0.5,1],"metallicFactor":0,"roughnessFactor":1},"emissiveFactor":[0,0,0],"alphaMode":"OPAQUE","doubleSided":false}],"meshes":[{"name":"polygon0_1","primitives":[{"attributes":{"POSITION":0,"NORMAL":1,"TEXCOORD_0":2},"indices":3,"material":0,"mode":4}]},{"name":"polygon1_1","primitives":[{"attributes":{"POSITION":4,"NORMAL":5,"TEXCOORD_0":6},"indices":7,"material":1,"mode":4}]},{"name":"polygon2_1","primitives":[{"attributes":{"POSITION":8,"NORMAL":9,"TEXCOORD_0":10},"indices":11,"material":2,"mode":4}]},{"name":"polygon3_1","primitives":[{"attributes":{"POSITION":12,"NORMAL":13,"TEXCOORD_0":14},"indices":15,"material":2,"mode":4}]}],"nodes":[{"name":"polygon0","mesh":0},{"name":"polygon1","mesh":1},{"name":"polygon2","mesh":2},{"name":"polygon3","mesh":3}],"scene":0,"scenes":[{"nodes":[0,1,2,3]}]}