{"accessors":[{"name":"polygon0_1_0_positions","componentType":5126,"count":60,"min":[-0.9291269779205322,3.081212043762207,1.6124850511550903],"max":[0.9291260242462158,4.010551929473877,2.2374930381774902],"type":"VEC3","bufferView":0,"byteOffset":0},{"name":"polygon0_1_0_normals","componentType":5126,"count":60,"min":[-0.8720206618309021,-0.2500889003276825,0.4207558333873749],"max":[0.8720206618309021,0.5072769522666931,0.9196231365203857],"type":"VEC3","bufferView":1,"byteOffset":0},{"name":"polygon0_1_0_texcoords","componentType":5126,"count":60,"min":[1.0809329748153687,0.00802600011229515],"max":[1.417145013809204,0.24185200035572052],"type":"VEC2","bufferView":2,"byteOffset":0},{"name":"polygon0_1_0_indices","componentType":5123,"count":240,"min":[0],"max":[59],"type":"SCALAR","bufferView":3,"byteOffset":0},{"name":"polygon1_1_0_positions","componentType":5126,"count":889,"min":[-1.5929540395736694,0,-2.5539419651031494],"max":[1.5929540395736694,4.44580078125,2.3491790294647217],"type":"VEC3","bufferView":0,"byteOffset":720},{"name":"polygon1_1_0_normals","componentType":5126,"count":889,"min":[-0.9956228137016296,-1,-0.9993234872817993],"max":[0.9956228137016296,0.9999964237213135,0.9999544620513916],"type":"VEC3","bufferView":1,"byteOffset":720},{"name":"polygon1_1_0_texcoords","componentType":5126,"count":889,"min":[0.013031000271439552,0.010986000299453735],"max":[0.9894710183143616,0.9863889813423157],"type":"VEC2","bufferView":2,"byteOffset":480},{"name":"polygon1_1_0_indices","componentType":5123,"count":4356,"min":[0],"max":[888],"type":"SCALAR","bufferView":3,"byteOffset":480}],"asset":{"generator":"obj2gltf","version":"2.0"},"buffers":[{"name":"Squirtle","byteLength":334508,"uri":"data:application/octet-stream;base64,"}],"bufferViews":[{"name":"bufferView_0","buffer":0,"byteLength":11388,"byteOffset":0,"byteStride":12,"target":34962},{"name":"bufferView_1","buffer":0,"byteLength":11388,"byteOffset":11388,"byteStride":12,"target":34962},{"name":"bufferView_2","buffer":0,"byteLength":7592,"byteOffset":22776,"byteStride":8,"target":34962},{"name":"bufferView_3","buffer":0,"byteLength":9192,"byteOffset":30368,"target":34963},{"buffer":0,"byteOffset":39560,"byteLength":98322},{"buffer":0,"byteOffset":137882,"byteLength":196626}],"images":[{"name":"ZenigameEyeDh","mimeType":"image/x-tga","bufferView":4},{"name":"ZenigameDh","mimeType":"image/x-tga","bufferView":5}],"materials":[{"name":"mat2","pbrMetallicRoughness":{"baseColorTexture":{"index":0},"baseColorFactor":[1,1,1,1],"metallicFactor":0,"roughnessFactor":0.99},"emissiveFactor":[0,0,0],"alphaMode":"OPAQUE","doubleSided":false},{"name":"mat1","pbrMetallicRoughness":{"baseColorTexture":{"index":1},"baseColorFactor":[1,1,1,1],"metallicFactor":0,"roughnessFactor":0.99},"emissiveFactor":[0,0,0],"alphaMode":"OPAQUE","doubleSided":false}],"meshes":[{"name":"polygon0_1","primitives":[{"attributes":{"POSITION":0,"NORMAL":1,"TEXCOORD_0":2},"indices":3,"material":0,"mode":4}]},{"name":"polygon1_1","primitives":[{"attributes":{"POSITION":4,"NORMAL":5,"TEXCOORD_0":6},"indices":7,"material":1,"mode":4}]}],"nodes":[{"name":"polygon0","mesh":0},{"name":"polygon1","mesh":1}],"samplers":[{"wrapS":10497,"wrapT":10497}],"scene":0,"scenes":[{"nodes":[0,1]}],"textures":[{"name":"ZenigameEyeDh","sampler":0,"source":0},{"name":"ZenigameDh","sampler":0,"source":1}]}