{"accessors":[{"name":"kameil-Mesh_0_positions","componentType":5126,"count":818,"min":[-4.385156154632568,-5.803767204284668,-9.887839317321777],"max":[4.385155200958252,3.462385892868042,-0.006572000216692686],"type":"VEC3","bufferView":0,"byteOffset":0},{"name":"kameil-Mesh_0_texcoords","componentType":5126,"count":818,"min":[0.009455000050365925,0.008557000197470188],"max":[0.6402919888496399,0.9867990016937256],"type":"VEC2","bufferView":1,"byteOffset":0},{"name":"kameil-Mesh_0_indices","componentType":5123,"count":3246,"min":[0],"max":[817],"type":"SCALAR","bufferView":2,"byteOffset":0},{"name":"kameil-Mesh_1_positions","componentType":5126,"count":15,"min":[-1.4399449825286865,2.6052091121673584,-7.974667072296143],"max":[1.4399429559707642,3.271610975265503,-6.664577007293701],"type":"VEC3","bufferView":0,"byteOffset":9816},{"name":"kameil-Mesh_1_texcoords","componentType":5126,"count":15,"min":[0.6829130053520203,0.0016629999736323953],"max":[0.9791749715805054,0.2560819983482361],"type":"VEC2","bufferView":1,"byteOffset":6544},{"name":"kameil-Mesh_1_indices","componentType":5123,"count":48,"min":[0],"max":[14],"type":"SCALAR","bufferView":2,"byteOffset":6492}],"asset":{"generator":"obj2gltf","version":"2.0"},"buffers":[{"name":"BR_Wartortle-Shiny01","byteLength":1071844,"uri":"data:application/octet-stream;base64,"}],"bufferViews":[{"name":"bufferView_0","buffer":0,"byteLength":9996,"byteOffset":0,"byteStride":12,"target":34962},{"name":"bufferView_1","buffer":0,"byteLength":6664,"byteOffset":9996,"byteStride":8,"target":34962},{"name":"bufferView_2","buffer":0,"byteLength":6588,"byteOffset":16660,"target":34963},{"buffer":0,"byteOffset":23248,"byteLength":1048594}],"images":[{"name":"kameil_1_0","mimeType":"image/x-tga","bufferView":3}],"materials":[{"name":"mat_0","pbrMetallicRoughness":{"baseColorTexture":{"index":0},"baseColorFactor":[1,1,1,1],"metallicFactor":0,"roughnessFactor":0.903921569},"emissiveFactor":[0,0,0],"alphaMode":"BLEND","doubleSided":true},{"name":"mat_1","pbrMetallicRoughness":{"baseColorTexture":{"index":0},"baseColorFactor":[1,1,1,1],"metallicFactor":0,"roughnessFactor":0.903921569},"emissiveFactor":[0,0,0],"alphaMode":"BLEND","doubleSided":true}],"meshes":[{"name":"kameil-Mesh","primitives":[{"attributes":{"POSITION":0,"TEXCOORD_0":1},"indices":2,"material":0,"mode":4},{"attributes":{"POSITION":3,"TEXCOORD_0":4},"indices":5,"material":1,"mode":4}]}],"nodes":[{"name":"kameil","mesh":0}],"samplers":[{"wrapS":10497,"wrapT":10497}],"scene":0,"scenes":[{"nodes":[0]}],"textures":[{"name":"kameil_1_0","sampler":0,"source":0}]}