{"accessors":[{"name":"polygon0_1_0_positions","componentType":5126,"count":12,"min":[-1.969892978668213,12.417458534240723,4.480830192565918],"max":[1.9698920249938965,13.57099723815918,6.396310806274414],"type":"VEC3","bufferView":0,"byteOffset":0},{"name":"polygon0_1_0_normals","componentType":5126,"count":12,"min":[-0.8131650686264038,0.17550304532051086,0.31793901324272156],"max":[0.8131160140037537,0.7568180561065674,0.8980732560157776],"type":"VEC3","bufferView":1,"byteOffset":0},{"name":"polygon0_1_0_texcoords","componentType":5126,"count":12,"min":[0.046875,0.05078100040555],"max":[0.4609380066394806,0.2460940033197403],"type":"VEC2","bufferView":2,"byteOffset":0},{"name":"polygon0_1_0_indices","componentType":5123,"count":24,"min":[0],"max":[11],"type":"SCALAR","bufferView":3,"byteOffset":0},{"name":"polygon1_1_0_positions","componentType":5126,"count":1075,"min":[-7.2793989181518555,-0.04075799882411957,-7.168136119842529],"max":[7.364011764526367,13.799318313598633,7.601906776428223],"type":"VEC3","bufferView":0,"byteOffset":144},{"name":"polygon1_1_0_normals","componentType":5126,"count":1075,"min":[-0.9993159174919128,-1,-0.9969098567962646],"max":[0.999147891998291,0.9998663067817688,0.998556911945343],"type":"VEC3","bufferView":1,"byteOffset":144},{"name":"polygon1_1_0_texcoords","componentType":5126,"count":1075,"min":[0.007903999648988247,0.0041809999383986],"max":[0.9936519861221313,0.997344970703125],"type":"VEC2","bufferView":2,"byteOffset":96},{"name":"polygon1_1_0_indices","componentType":5123,"count":4536,"min":[0],"max":[1074],"type":"SCALAR","bufferView":3,"byteOffset":48}],"asset":{"generator":"obj2gltf","version":"2.0"},"buffers":[{"name":"Blastoise","byteLength":584612,"uri":"data:application/octet-stream;base64,"}],"bufferViews":[{"name":"bufferView_0","buffer":0,"byteLength":13044,"byteOffset":0,"byteStride":12,"target":34962},{"name":"bufferView_1","buffer":0,"byteLength":13044,"byteOffset":13044,"byteStride":12,"target":34962},{"name":"bufferView_2","buffer":0,"byteLength":8696,"byteOffset":26088,"byteStride":8,"target":34962},{"name":"bufferView_3","buffer":0,"byteLength":9120,"byteOffset":34784,"target":34963},{"buffer":0,"byteOffset":43904,"byteLength":98322},{"buffer":0,"byteOffset":142226,"byteLength":442386}],"images":[{"name":"KamexEyeDh","mimeType":"image/x-tga","bufferView":4},{"name":"KamexDh","mimeType":"image/x-tga","bufferView":5}],"materials":[{"name":"mat2","pbrMetallicRoughness":{"baseColorTexture":{"index":0},"baseColorFactor":[1,1,1,1],"metallicFactor":0,"roughnessFactor":0.99},"emissiveFactor":[0,0,0],"alphaMode":"OPAQUE","doubleSided":false},{"name":"mat1","pbrMetallicRoughness":{"baseColorTexture":{"index":1},"baseColorFactor":[1,1,1,1],"metallicFactor":0,"roughnessFactor":0.99},"emissiveFactor":[0,0,0],"alphaMode":"OPAQUE","doubleSided":false}],"meshes":[{"name":"polygon0_1","primitives":[{"attributes":{"POSITION":0,"NORMAL":1,"TEXCOORD_0":2},"indices":3,"material":0,"mode":4}]},{"name":"polygon1_1","primitives":[{"attributes":{"POSITION":4,"NORMAL":5,"TEXCOORD_0":6},"indices":7,"material":1,"mode":4}]}],"nodes":[{"name":"polygon0","mesh":0},{"name":"polygon1","mesh":1}],"samplers":[{"wrapS":10497,"wrapT":10497}],"scene":0,"scenes":[{"nodes":[0,1]}],"textures":[{"name":"KamexEyeDh","sampler":0,"source":0},{"name":"KamexDh","sampler":0,"source":1}]}