{"accessors":[{"name":"polygon0_1_0_positions","componentType":5126,"count":80,"min":[-0.4945249855518341,1.1046710014343262,0.9175829887390137],"max":[0.4945249855518341,1.5630309581756592,1.2291799783706665],"type":"VEC3","bufferView":0,"byteOffset":0},{"name":"polygon0_1_0_normals","componentType":5126,"count":80,"min":[-0.9997478127479553,-0.8316019773483276,-0.9541436433792114],"max":[0.9997478127479553,0.953419029712677,0.951249897480011],"type":"VEC3","bufferView":1,"byteOffset":0},{"name":"polygon0_1_0_texcoords","componentType":5126,"count":80,"min":[0.5207210183143616,0.10790999978780746],"max":[0.6967769861221313,0.2409060001373291],"type":"VEC2","bufferView":2,"byteOffset":0},{"name":"polygon0_1_0_indices","componentType":5123,"count":444,"min":[0],"max":[79],"type":"SCALAR","bufferView":3,"byteOffset":0},{"name":"polygon1_1_0_positions","componentType":5126,"count":729,"min":[-0.57082200050354,-0.0014140000566840172,-1.0970849990844727],"max":[0.57082200050354,1.7846759557724,1.054738998413086],"type":"VEC3","bufferView":0,"byteOffset":960},{"name":"polygon1_1_0_normals","componentType":5126,"count":729,"min":[-0.9996243119239807,-0.9998682141304016,-0.9995979070663452],"max":[0.9996243119239807,0.9999753832817078,0.9996498227119446],"type":"VEC3","bufferView":1,"byteOffset":960},{"name":"polygon1_1_0_texcoords","componentType":5126,"count":729,"min":[0.013031000271439552,0.012450999580323696],"max":[0.9930419921875,0.9882199764251709],"type":"VEC2","bufferView":2,"byteOffset":640},{"name":"polygon1_1_0_indices","componentType":5123,"count":3918,"min":[0],"max":[728],"type":"SCALAR","bufferView":3,"byteOffset":888},{"name":"polygon2_1_0_positions","componentType":5126,"count":40,"min":[-0.5807660222053528,0.9950940012931824,0.3788740038871765],"max":[0.5807660222053528,1.539273977279663,0.891959011554718],"type":"VEC3","bufferView":0,"byteOffset":9708},{"name":"polygon2_1_0_normals","componentType":5126,"count":40,"min":[-0.9999849200248718,-0.5977501273155212,-0.3697522282600403],"max":[0.9999849200248718,0.5585749745368958,0.717858076095581],"type":"VEC3","bufferView":1,"byteOffset":9708},{"name":"polygon2_1_0_texcoords","componentType":5126,"count":40,"min":[1.0645140409469604,0.06750500202178955],"max":[1.907593011856079,0.9217529892921448],"type":"VEC2","bufferView":2,"byteOffset":6472},{"name":"polygon2_1_0_indices","componentType":5123,"count":144,"min":[0],"max":[39],"type":"SCALAR","bufferView":3,"byteOffset":8724}],"asset":{"generator":"obj2gltf","version":"2.0"},"buffers":[{"name":"Caterpie","byteLength":245112,"uri":"data:application/octet-stream;base64,"}],"bufferViews":[{"name":"bufferView_0","buffer":0,"byteLength":10188,"byteOffset":0,"byteStride":12,"target":34962},{"name":"bufferView_1","buffer":0,"byteLength":10188,"byteOffset":10188,"byteStride":12,"target":34962},{"name":"bufferView_2","buffer":0,"byteLength":6792,"byteOffset":20376,"byteStride":8,"target":34962},{"name":"bufferView_3","buffer":0,"byteLength":9012,"byteOffset":27168,"target":34963},{"buffer":0,"byteOffset":36180,"byteLength":196626},{"buffer":0,"byteOffset":232806,"byteLength":12306}],"images":[{"name":"CaterpieDh","mimeType":"image/x-tga","bufferView":4},{"name":"CaterpieEyeDh","mimeType":"image/x-tga","bufferView":5}],"materials":[{"name":"mat3","pbrMetallicRoughness":{"baseColorTexture":{"index":0},"baseColorFactor":[1,1,1,1],"metallicFactor":0,"roughnessFactor":0.99},"emissiveFactor":[0,0,0],"alphaMode":"OPAQUE","doubleSided":false},{"name":"mat1","pbrMetallicRoughness":{"baseColorTexture":{"index":0},"baseColorFactor":[1,1,1,1],"metallicFactor":0,"roughnessFactor":0.99},"emissiveFactor":[0,0,0],"alphaMode":"OPAQUE","doubleSided":false},{"name":"mat2","pbrMetallicRoughness":{"baseColorTexture":{"index":1},"baseColorFactor":[1,1,1,1],"metallicFactor":0,"roughnessFactor":0.99},"emissiveFactor":[0,0,0],"alphaMode":"OPAQUE","doubleSided":false}],"meshes":[{"name":"polygon0_1","primitives":[{"attributes":{"POSITION":0,"NORMAL":1,"TEXCOORD_0":2},"indices":3,"material":0,"mode":4}]},{"name":"polygon1_1","primitives":[{"attributes":{"POSITION":4,"NORMAL":5,"TEXCOORD_0":6},"indices":7,"material":1,"mode":4}]},{"name":"polygon2_1","primitives":[{"attributes":{"POSITION":8,"NORMAL":9,"TEXCOORD_0":10},"indices":11,"material":2,"mode":4}]}],"nodes":[{"name":"polygon0","mesh":0},{"name":"polygon1","mesh":1},{"name":"polygon2","mesh":2}],"samplers":[{"wrapS":10497,"wrapT":10497}],"scene":0,"scenes":[{"nodes":[0,1,2]}],"textures":[{"name":"CaterpieDh","sampler":0,"source":0},{"name":"CaterpieEyeDh","sampler":0,"source":1}]}