{"accessors":[{"name":"polygon0_1_0_positions","componentType":5126,"count":695,"min":[-1.466101050376892,0.0038789999671280384,-3.860624074935913],"max":[1.466101050376892,13.433606147766113,3.1362791061401367],"type":"VEC3","bufferView":0,"byteOffset":0},{"name":"polygon0_1_0_normals","componentType":5126,"count":695,"min":[-0.9901927709579468,-0.9999048709869385,-0.9951477646827698],"max":[0.9901927709579468,0.9999718070030212,1],"type":"VEC3","bufferView":1,"byteOffset":0},{"name":"polygon0_1_0_texcoords","componentType":5126,"count":695,"min":[0.006897000130265951,0.008545000106096268],"max":[0.9860230088233948,0.9899600148200989],"type":"VEC2","bufferView":2,"byteOffset":0},{"name":"polygon0_1_0_indices","componentType":5123,"count":3387,"min":[0],"max":[694],"type":"SCALAR","bufferView":3,"byteOffset":0},{"name":"polygon1_1_0_positions","componentType":5126,"count":148,"min":[-1.081030011177063,3.3547229766845703,1.4418820142745972],"max":[1.081030011177063,4.188661098480225,2.2781710624694824],"type":"VEC3","bufferView":0,"byteOffset":8340},{"name":"polygon1_1_0_normals","componentType":5126,"count":148,"min":[-0.9944483041763306,-0.6082048416137695,-0.5886028409004211],"max":[0.9944483041763306,0.8376407623291016,0.860727071762085],"type":"VEC3","bufferView":1,"byteOffset":8340},{"name":"polygon1_1_0_texcoords","componentType":5126,"count":148,"min":[1.0357969999313354,0.0171509999781847],"max":[1.4504090547561646,0.22326700389385223],"type":"VEC2","bufferView":2,"byteOffset":5560},{"name":"polygon1_1_0_indices","componentType":5123,"count":762,"min":[0],"max":[147],"type":"SCALAR","bufferView":3,"byteOffset":6776}],"asset":{"generator":"obj2gltf","version":"2.0"},"buffers":[{"name":"Transel","byteLength":330224,"uri":"data:application/octet-stream;base64,"}],"bufferViews":[{"name":"bufferView_0","buffer":0,"byteLength":10116,"byteOffset":0,"byteStride":12,"target":34962},{"name":"bufferView_1","buffer":0,"byteLength":10116,"byteOffset":10116,"byteStride":12,"target":34962},{"name":"bufferView_2","buffer":0,"byteLength":6744,"byteOffset":20232,"byteStride":8,"target":34962},{"name":"bufferView_3","buffer":0,"byteLength":8300,"byteOffset":26976,"target":34963},{"buffer":0,"byteOffset":35276,"byteLength":196626},{"buffer":0,"byteOffset":231902,"byteLength":98322}],"images":[{"name":"TranselDh","mimeType":"image/x-tga","bufferView":4},{"name":"TranselEyeDh","mimeType":"image/x-tga","bufferView":5}],"materials":[{"name":"mat1","pbrMetallicRoughness":{"baseColorTexture":{"index":0},"baseColorFactor":[1,1,1,1],"metallicFactor":0,"roughnessFactor":0.99},"emissiveFactor":[0,0,0],"alphaMode":"OPAQUE","doubleSided":false},{"name":"mat2","pbrMetallicRoughness":{"baseColorTexture":{"index":1},"baseColorFactor":[1,1,1,1],"metallicFactor":0,"roughnessFactor":0.99},"emissiveFactor":[0,0,0],"alphaMode":"OPAQUE","doubleSided":false}],"meshes":[{"name":"polygon0_1","primitives":[{"attributes":{"POSITION":0,"NORMAL":1,"TEXCOORD_0":2},"indices":3,"material":0,"mode":4}]},{"name":"polygon1_1","primitives":[{"attributes":{"POSITION":4,"NORMAL":5,"TEXCOORD_0":6},"indices":7,"material":1,"mode":4}]}],"nodes":[{"name":"polygon0","mesh":0},{"name":"polygon1","mesh":1}],"samplers":[{"wrapS":10497,"wrapT":10497}],"scene":0,"scenes":[{"nodes":[0,1]}],"textures":[{"name":"TranselDh","sampler":0,"source":0},{"name":"TranselEyeDh","sampler":0,"source":1}]}