{"accessors":[{"name":"polygon0_1_0_positions","componentType":5126,"count":114,"min":[-1.0954899787902832,4.528605937957764,0.48476698994636536],"max":[1.0954899787902832,5.81220006942749,1.3061200380325317],"type":"VEC3","bufferView":0,"byteOffset":0},{"name":"polygon0_1_0_normals","componentType":5126,"count":114,"min":[-0.9954589605331421,-0.8940910696983337,-0.5026922225952148],"max":[0.9954589605331421,0.995389461517334,0.9861767888069153],"type":"VEC3","bufferView":1,"byteOffset":0},{"name":"polygon0_1_0_texcoords","componentType":5126,"count":114,"min":[-0.9387819766998291,0.007201999891549349],"max":[-0.05981399863958359,0.2400510013103485],"type":"VEC2","bufferView":2,"byteOffset":0},{"name":"polygon0_1_0_indices","componentType":5123,"count":552,"min":[0],"max":[113],"type":"SCALAR","bufferView":3,"byteOffset":0},{"name":"polygon1_1_0_positions","componentType":5126,"count":920,"min":[-6.032468795776367,-0.16990600526332855,-1.0507960319519043],"max":[6.032468795776367,9.545970916748047,2.8025550842285156],"type":"VEC3","bufferView":0,"byteOffset":1368},{"name":"polygon1_1_0_normals","componentType":5126,"count":920,"min":[-0.9917964339256287,-0.9985942244529724,-1],"max":[0.9917964339256287,0.9998988509178162,1],"type":"VEC3","bufferView":1,"byteOffset":1368},{"name":"polygon1_1_0_texcoords","componentType":5126,"count":920,"min":[0.012633999809622765,0.006957999896258116],"max":[0.9918820261955261,0.9904789924621582],"type":"VEC2","bufferView":2,"byteOffset":912},{"name":"polygon1_1_0_indices","componentType":5123,"count":4260,"min":[0],"max":[919],"type":"SCALAR","bufferView":3,"byteOffset":1104}],"asset":{"generator":"obj2gltf","version":"2.0"},"buffers":[{"name":"Butterfree","byteLength":288508,"uri":"data:application/octet-stream;base64,"}],"bufferViews":[{"name":"bufferView_0","buffer":0,"byteLength":12408,"byteOffset":0,"byteStride":12,"target":34962},{"name":"bufferView_1","buffer":0,"byteLength":12408,"byteOffset":12408,"byteStride":12,"target":34962},{"name":"bufferView_2","buffer":0,"byteLength":8272,"byteOffset":24816,"byteStride":8,"target":34962},{"name":"bufferView_3","buffer":0,"byteLength":9624,"byteOffset":33088,"target":34963},{"buffer":0,"byteOffset":42712,"byteLength":49170},{"buffer":0,"byteOffset":91882,"byteLength":196626}],"images":[{"name":"ButterfreeEyeDh","mimeType":"image/x-tga","bufferView":4},{"name":"ButterfreeDh","mimeType":"image/x-tga","bufferView":5}],"materials":[{"name":"mat2","pbrMetallicRoughness":{"baseColorTexture":{"index":0},"baseColorFactor":[1,1,1,1],"metallicFactor":0,"roughnessFactor":0.99},"emissiveFactor":[0,0,0],"alphaMode":"OPAQUE","doubleSided":false},{"name":"mat1","pbrMetallicRoughness":{"baseColorTexture":{"index":1},"baseColorFactor":[1,1,1,1],"metallicFactor":0,"roughnessFactor":0.99},"emissiveFactor":[0,0,0],"alphaMode":"OPAQUE","doubleSided":false}],"meshes":[{"name":"polygon0_1","primitives":[{"attributes":{"POSITION":0,"NORMAL":1,"TEXCOORD_0":2},"indices":3,"material":0,"mode":4}]},{"name":"polygon1_1","primitives":[{"attributes":{"POSITION":4,"NORMAL":5,"TEXCOORD_0":6},"indices":7,"material":1,"mode":4}]}],"nodes":[{"name":"polygon0","mesh":0},{"name":"polygon1","mesh":1}],"samplers":[{"wrapS":10497,"wrapT":10497}],"scene":0,"scenes":[{"nodes":[0,1]}],"textures":[{"name":"ButterfreeEyeDh","sampler":0,"source":0},{"name":"ButterfreeDh","sampler":0,"source":1}]}