{"accessors":[{"name":"polygon0_1_0_positions","componentType":5126,"count":8,"min":[-0.5614519715309143,-0.4219619929790497,1.9796780347824097],"max":[0.5614519715309143,-0.08906099945306778,2.243773937225342],"type":"VEC3","bufferView":0,"byteOffset":0},{"name":"polygon0_1_0_normals","componentType":5126,"count":8,"min":[-0.7856011390686035,-0.9235261678695679,0.23889203369617462],"max":[0.7856011390686035,-0.42396417260169983,0.6926502585411072],"type":"VEC3","bufferView":1,"byteOffset":0},{"name":"polygon0_1_0_texcoords","componentType":5126,"count":8,"min":[0.0039059999398887157,0.03515600040555],"max":[0.4960939884185791,0.2304690033197403],"type":"VEC2","bufferView":2,"byteOffset":0},{"name":"polygon0_1_0_indices","componentType":5123,"count":12,"min":[0],"max":[7],"type":"SCALAR","bufferView":3,"byteOffset":0},{"name":"polygon1_1_0_positions","componentType":5126,"count":912,"min":[-0.6939929723739624,-0.77252197265625,-2.145627975463867],"max":[0.693992018699646,0.8980910181999207,3.0979790687561035],"type":"VEC3","bufferView":0,"byteOffset":96},{"name":"polygon1_1_0_normals","componentType":5126,"count":912,"min":[-1,-1,-1],"max":[1,1,1],"type":"VEC3","bufferView":1,"byteOffset":96},{"name":"polygon1_1_0_texcoords","componentType":5126,"count":912,"min":[0.014159999787807465,0.008484000340104103],"max":[0.993927001953125,0.9948729872703552],"type":"VEC2","bufferView":2,"byteOffset":64},{"name":"polygon1_1_0_indices","componentType":5123,"count":4194,"min":[0],"max":[911],"type":"SCALAR","bufferView":3,"byteOffset":24}],"asset":{"generator":"obj2gltf","version":"2.0"},"buffers":[{"name":"Weedle","byteLength":332800,"uri":"data:application/octet-stream;base64,"}],"bufferViews":[{"name":"bufferView_0","buffer":0,"byteLength":11040,"byteOffset":0,"byteStride":12,"target":34962},{"name":"bufferView_1","buffer":0,"byteLength":11040,"byteOffset":11040,"byteStride":12,"target":34962},{"name":"bufferView_2","buffer":0,"byteLength":7360,"byteOffset":22080,"byteStride":8,"target":34962},{"name":"bufferView_3","buffer":0,"byteLength":8412,"byteOffset":29440,"target":34963},{"buffer":0,"byteOffset":37852,"byteLength":98322},{"buffer":0,"byteOffset":136174,"byteLength":196626}],"images":[{"name":"BeedleEyeDh","mimeType":"image/x-tga","bufferView":4},{"name":"BeedleDh","mimeType":"image/x-tga","bufferView":5}],"materials":[{"name":"mat2","pbrMetallicRoughness":{"baseColorTexture":{"index":0},"baseColorFactor":[1,1,1,1],"metallicFactor":0,"roughnessFactor":0.99},"emissiveFactor":[0,0,0],"alphaMode":"OPAQUE","doubleSided":false},{"name":"mat1","pbrMetallicRoughness":{"baseColorTexture":{"index":1},"baseColorFactor":[1,1,1,1],"metallicFactor":0,"roughnessFactor":0.99},"emissiveFactor":[0,0,0],"alphaMode":"OPAQUE","doubleSided":false}],"meshes":[{"name":"polygon0_1","primitives":[{"attributes":{"POSITION":0,"NORMAL":1,"TEXCOORD_0":2},"indices":3,"material":0,"mode":4}]},{"name":"polygon1_1","primitives":[{"attributes":{"POSITION":4,"NORMAL":5,"TEXCOORD_0":6},"indices":7,"material":1,"mode":4}]}],"nodes":[{"name":"polygon0","mesh":0},{"name":"polygon1","mesh":1}],"samplers":[{"wrapS":10497,"wrapT":10497}],"scene":0,"scenes":[{"nodes":[0,1]}],"textures":[{"name":"BeedleEyeDh","sampler":0,"source":0},{"name":"BeedleDh","sampler":0,"source":1}]}