{"accessors":[{"name":"polygon0_1_0_positions","componentType":5126,"count":36,"min":[-1.0635199546813965,4.384778022766113,-0.3236829936504364],"max":[1.0635199546813965,5.229118824005127,0.3237619996070862],"type":"VEC3","bufferView":0,"byteOffset":0},{"name":"polygon0_1_0_normals","componentType":5126,"count":36,"min":[-0.7690579295158386,-0.08007597923278809,0.5795938372612],"max":[0.7690579295158386,0.5081871151924133,0.9455253481864929],"type":"VEC3","bufferView":1,"byteOffset":0},{"name":"polygon0_1_0_texcoords","componentType":5126,"count":36,"min":[0.027130000293254852,0.016022000461816788],"max":[0.9751279950141907,0.22924800217151642],"type":"VEC2","bufferView":2,"byteOffset":0},{"name":"polygon0_1_0_indices","componentType":5123,"count":150,"min":[0],"max":[35],"type":"SCALAR","bufferView":3,"byteOffset":0},{"name":"polygon1_1_0_positions","componentType":5126,"count":853,"min":[-1.5126579999923706,0.09815700352191925,-2.627376079559326],"max":[1.5126579999923706,5.971768856048584,0.38280799984931946],"type":"VEC3","bufferView":0,"byteOffset":432},{"name":"polygon1_1_0_normals","componentType":5126,"count":853,"min":[-0.9950398802757263,-0.9995919466018677,-0.9997122883796692],"max":[0.9950398802757263,0.995315432548523,0.9999957084655762],"type":"VEC3","bufferView":1,"byteOffset":432},{"name":"polygon1_1_0_texcoords","componentType":5126,"count":853,"min":[0.0148930000141263,0.011901999823749065],"max":[0.9905700087547302,0.9956049919128418],"type":"VEC2","bufferView":2,"byteOffset":288},{"name":"polygon1_1_0_indices","componentType":5123,"count":4176,"min":[0],"max":[852],"type":"SCALAR","bufferView":3,"byteOffset":300}],"asset":{"generator":"obj2gltf","version":"2.0"},"buffers":[{"name":"Kakuna","byteLength":282896,"uri":"data:application/octet-stream;base64,"}],"bufferViews":[{"name":"bufferView_0","buffer":0,"byteLength":10668,"byteOffset":0,"byteStride":12,"target":34962},{"name":"bufferView_1","buffer":0,"byteLength":10668,"byteOffset":10668,"byteStride":12,"target":34962},{"name":"bufferView_2","buffer":0,"byteLength":7112,"byteOffset":21336,"byteStride":8,"target":34962},{"name":"bufferView_3","buffer":0,"byteLength":8652,"byteOffset":28448,"target":34963},{"buffer":0,"byteOffset":37100,"byteLength":49170},{"buffer":0,"byteOffset":86270,"byteLength":196626}],"images":[{"name":"CocoonEyeDh","mimeType":"image/x-tga","bufferView":4},{"name":"CocoonDh","mimeType":"image/x-tga","bufferView":5}],"materials":[{"name":"mat2","pbrMetallicRoughness":{"baseColorTexture":{"index":0},"baseColorFactor":[1,1,1,1],"metallicFactor":0,"roughnessFactor":0.99},"emissiveFactor":[0,0,0],"alphaMode":"OPAQUE","doubleSided":false},{"name":"mat1","pbrMetallicRoughness":{"baseColorTexture":{"index":1},"baseColorFactor":[1,1,1,1],"metallicFactor":0,"roughnessFactor":0.99},"emissiveFactor":[0,0,0],"alphaMode":"OPAQUE","doubleSided":false}],"meshes":[{"name":"polygon0_1","primitives":[{"attributes":{"POSITION":0,"NORMAL":1,"TEXCOORD_0":2},"indices":3,"material":0,"mode":4}]},{"name":"polygon1_1","primitives":[{"attributes":{"POSITION":4,"NORMAL":5,"TEXCOORD_0":6},"indices":7,"material":1,"mode":4}]}],"nodes":[{"name":"polygon0","mesh":0},{"name":"polygon1","mesh":1}],"samplers":[{"wrapS":10497,"wrapT":10497}],"scene":0,"scenes":[{"nodes":[0,1]}],"textures":[{"name":"CocoonEyeDh","sampler":0,"source":0},{"name":"CocoonDh","sampler":0,"source":1}]}