{"accessors":[{"name":"spear-Mesh_0_positions","componentType":5126,"count":120,"min":[-1.3312100172042847,-1.4025800228118896,-3.9755699634552],"max":[1.3312100172042847,2.553410053253174,0.8148639798164368],"type":"VEC3","bufferView":0,"byteOffset":0},{"name":"spear-Mesh_0_texcoords","componentType":5126,"count":120,"min":[0,0],"max":[1,1],"type":"VEC2","bufferView":1,"byteOffset":0},{"name":"spear-Mesh_0_indices","componentType":5123,"count":588,"min":[0],"max":[119],"type":"SCALAR","bufferView":2,"byteOffset":0},{"name":"spear-Mesh_1_positions","componentType":5126,"count":32,"min":[-1.841040015220642,-2.35903000831604,-0.022172000259160995],"max":[1.841040015220642,1.0704699754714966,3.34335994720459],"type":"VEC3","bufferView":0,"byteOffset":1440},{"name":"spear-Mesh_1_texcoords","componentType":5126,"count":32,"min":[0,0.03684199973940849],"max":[1,1.0337879657745361],"type":"VEC2","bufferView":1,"byteOffset":960},{"name":"spear-Mesh_1_indices","componentType":5123,"count":96,"min":[0],"max":[31],"type":"SCALAR","bufferView":2,"byteOffset":1176},{"name":"spear-Mesh_2_positions","componentType":5126,"count":32,"min":[-1.841040015220642,-2.35903000831604,0.9641749858856201],"max":[1.841040015220642,1.0704699754714966,4.303599834442139],"type":"VEC3","bufferView":0,"byteOffset":1824},{"name":"spear-Mesh_2_texcoords","componentType":5126,"count":32,"min":[0,-0.09766999632120132],"max":[1,0.8181310296058655],"type":"VEC2","bufferView":1,"byteOffset":1216},{"name":"spear-Mesh_2_indices","componentType":5123,"count":96,"min":[0],"max":[31],"type":"SCALAR","bufferView":2,"byteOffset":1368},{"name":"spear-Mesh_3_positions","componentType":5126,"count":24,"min":[-1.3833600282669067,-1.6007399559020996,4.017549991607666],"max":[1.3833600282669067,0.9790809750556946,5.00098991394043],"type":"VEC3","bufferView":0,"byteOffset":2208},{"name":"spear-Mesh_3_texcoords","componentType":5126,"count":24,"min":[0,-0.7320700287818909],"max":[1,0.9603350162506104],"type":"VEC2","bufferView":1,"byteOffset":1472},{"name":"spear-Mesh_3_indices","componentType":5123,"count":96,"min":[0],"max":[23],"type":"SCALAR","bufferView":2,"byteOffset":1560},{"name":"spear-Mesh_4_positions","componentType":5126,"count":9,"min":[-0.5029690265655518,-0.2340250015258789,4.724309921264648],"max":[0.5029680132865906,1.2165600061416626,6.080309867858887],"type":"VEC3","bufferView":0,"byteOffset":2496},{"name":"spear-Mesh_4_texcoords","componentType":5126,"count":9,"min":[0.15490500628948212,0.04457800090312958],"max":[0.8602619767189026,1.0188419818878174],"type":"VEC2","bufferView":1,"byteOffset":1664},{"name":"spear-Mesh_4_indices","componentType":5123,"count":24,"min":[0],"max":[8],"type":"SCALAR","bufferView":2,"byteOffset":1752},{"name":"spear-Mesh_5_positions","componentType":5126,"count":12,"min":[-6.0345001220703125,-3.3208398818969727,-6.581520080566406],"max":[6.0345001220703125,1.5478999614715576,0.2806519865989685],"type":"VEC3","bufferView":0,"byteOffset":2604},{"name":"spear-Mesh_5_texcoords","componentType":5126,"count":12,"min":[0,0],"max":[1,1],"type":"VEC2","bufferView":1,"byteOffset":1736},{"name":"spear-Mesh_5_indices","componentType":5123,"count":24,"min":[0],"max":[11],"type":"SCALAR","bufferView":2,"byteOffset":1800},{"name":"spear-Mesh_6_positions","componentType":5126,"count":12,"min":[-5.459670066833496,-4.010980129241943,-4.352069854736328],"max":[5.459670066833496,0.23052899539470673,2.280280113220215],"type":"VEC3","bufferView":0,"byteOffset":2748},{"name":"spear-Mesh_6_texcoords","componentType":5126,"count":12,"min":[0,0],"max":[1,1],"type":"VEC2","bufferView":1,"byteOffset":1832},{"name":"spear-Mesh_6_indices","componentType":5123,"count":24,"min":[0],"max":[11],"type":"SCALAR","bufferView":2,"byteOffset":1848},{"name":"spear-Mesh_7_positions","componentType":5126,"count":164,"min":[-4.41165018081665,0.002360000042244792,-4.42080020904541],"max":[4.413569927215576,3.6042098999023438,5.349890232086182],"type":"VEC3","bufferView":0,"byteOffset":2892},{"name":"spear-Mesh_7_texcoords","componentType":5126,"count":164,"min":[0,0],"max":[1,1],"type":"VEC2","bufferView":1,"byteOffset":1928},{"name":"spear-Mesh_7_indices","componentType":5123,"count":738,"min":[0],"max":[163],"type":"SCALAR","bufferView":2,"byteOffset":1896},{"name":"spear-Mesh_8_positions","componentType":5126,"count":18,"min":[-3.2968499660491943,2.911910057067871,-2.196619987487793],"max":[3.4687600135803223,6.213170051574707,1.2919100522994995],"type":"VEC3","bufferView":0,"byteOffset":4860},{"name":"spear-Mesh_8_texcoords","componentType":5126,"count":18,"min":[0,0],"max":[1,1],"type":"VEC2","bufferView":1,"byteOffset":3240},{"name":"spear-Mesh_8_indices","componentType":5123,"count":78,"min":[0],"max":[17],"type":"SCALAR","bufferView":2,"byteOffset":3372},{"name":"spear-Mesh_9_positions","componentType":5126,"count":68,"min":[-1.3852299451828003,1.3302500247955322,-3.802989959716797],"max":[1.3852299451828003,2.4705100059509277,-2.418879985809326],"type":"VEC3","bufferView":0,"byteOffset":5076},{"name":"spear-Mesh_9_texcoords","componentType":5126,"count":68,"min":[0.006101999897509813,0.009917999617755413],"max":[0.9277679920196533,0.3307499885559082],"type":"VEC2","bufferView":1,"byteOffset":3384},{"name":"spear-Mesh_9_indices","componentType":5123,"count":342,"min":[0],"max":[67],"type":"SCALAR","bufferView":2,"byteOffset":3528}],"asset":{"generator":"obj2gltf","version":"2.0"},"buffers":[{"name":"BR_Beedrill-Shiny01","byteLength":567940,"uri":"data:application/octet-stream;base64,"}],"bufferViews":[{"name":"bufferView_0","buffer":0,"byteLength":5892,"byteOffset":0,"byteStride":12,"target":34962},{"name":"bufferView_1","buffer":0,"byteLength":3928,"byteOffset":5892,"byteStride":8,"target":34962},{"name":"bufferView_2","buffer":0,"byteLength":4212,"byteOffset":9820,"target":34963},{"buffer":0,"byteOffset":14032,"byteLength":274},{"buffer":0,"byteOffset":14306,"byteLength":4114},{"buffer":0,"byteOffset":18420,"byteLength":4114},{"buffer":0,"byteOffset":22534,"byteLength":4114},{"buffer":0,"byteOffset":26648,"byteLength":4114},{"buffer":0,"byteOffset":30762,"byteLength":262162},{"buffer":0,"byteOffset":292924,"byteLength":262162},{"buffer":0,"byteOffset":555086,"byteLength":274},{"buffer":0,"byteOffset":555360,"byteLength":274},{"buffer":0,"byteOffset":555634,"byteLength":12306}],"images":[{"name":"spear_1_0","mimeType":"image/x-tga","bufferView":3},{"name":"spear_1_1","mimeType":"image/x-tga","bufferView":4},{"name":"spear_1_2","mimeType":"image/x-tga","bufferView":5},{"name":"spear_1_3","mimeType":"image/x-tga","bufferView":6},{"name":"spear_1_4","mimeType":"image/x-tga","bufferView":7},{"name":"spear_1_5","mimeType":"image/x-tga","bufferView":8},{"name":"spear_1_6","mimeType":"image/x-tga","bufferView":9},{"name":"spear_1_7","mimeType":"image/x-tga","bufferView":10},{"name":"spear_1_8","mimeType":"image/x-tga","bufferView":11},{"name":"spear_1_9","mimeType":"image/x-tga","bufferView":12}],"materials":[{"name":"mat_0","pbrMetallicRoughness":{"baseColorTexture":{"index":0},"baseColorFactor":[1,1,1,1],"metallicFactor":0,"roughnessFactor":0.903921569},"emissiveFactor":[0,0,0],"alphaMode":"BLEND","doubleSided":true},{"name":"mat_1","pbrMetallicRoughness":{"baseColorTexture":{"index":1},"baseColorFactor":[1,1,1,1],"metallicFactor":0,"roughnessFactor":0.903921569},"emissiveFactor":[0,0,0],"alphaMode":"BLEND","doubleSided":true},{"name":"mat_2","pbrMetallicRoughness":{"baseColorTexture":{"index":2},"baseColorFactor":[1,1,1,1],"metallicFactor":0,"roughnessFactor":0.903921569},"emissiveFactor":[0,0,0],"alphaMode":"BLEND","doubleSided":true},{"name":"mat_3","pbrMetallicRoughness":{"baseColorTexture":{"index":3},"baseColorFactor":[1,1,1,1],"metallicFactor":0,"roughnessFactor":0.903921569},"emissiveFactor":[0,0,0],"alphaMode":"BLEND","doubleSided":true},{"name":"mat_4","pbrMetallicRoughness":{"baseColorTexture":{"index":4},"baseColorFactor":[1,1,1,1],"metallicFactor":0,"roughnessFactor":0.903921569},"emissiveFactor":[0,0,0],"alphaMode":"BLEND","doubleSided":true},{"name":"mat_5","pbrMetallicRoughness":{"baseColorTexture":{"index":5},"baseColorFactor":[1,1,1,1],"metallicFactor":0,"roughnessFactor":0.903921569},"emissiveFactor":[0,0,0],"alphaMode":"BLEND","doubleSided":true},{"name":"mat_6","pbrMetallicRoughness":{"baseColorTexture":{"index":6},"baseColorFactor":[1,1,1,1],"metallicFactor":0,"roughnessFactor":0.903921569},"emissiveFactor":[0,0,0],"alphaMode":"BLEND","doubleSided":true},{"name":"mat_7","pbrMetallicRoughness":{"baseColorTexture":{"index":7},"baseColorFactor":[1,1,1,1],"metallicFactor":0,"roughnessFactor":0.903921569},"emissiveFactor":[0,0,0],"alphaMode":"BLEND","doubleSided":true},{"name":"mat_8","pbrMetallicRoughness":{"baseColorTexture":{"index":8},"baseColorFactor":[1,1,1,1],"metallicFactor":0,"roughnessFactor":0.903921569},"emissiveFactor":[0,0,0],"alphaMode":"BLEND","doubleSided":true},{"name":"mat_9","pbrMetallicRoughness":{"baseColorTexture":{"index":9},"baseColorFactor":[1,1,1,1],"metallicFactor":0,"roughnessFactor":0.903921569},"emissiveFactor":[0,0,0],"alphaMode":"BLEND","doubleSided":true}],"meshes":[{"name":"spear-Mesh","primitives":[{"attributes":{"POSITION":0,"TEXCOORD_0":1},"indices":2,"material":0,"mode":4},{"attributes":{"POSITION":3,"TEXCOORD_0":4},"indices":5,"material":1,"mode":4},{"attributes":{"POSITION":6,"TEXCOORD_0":7},"indices":8,"material":2,"mode":4},{"attributes":{"POSITION":9,"TEXCOORD_0":10},"indices":11,"material":3,"mode":4},{"attributes":{"POSITION":12,"TEXCOORD_0":13},"indices":14,"material":4,"mode":4},{"attributes":{"POSITION":15,"TEXCOORD_0":16},"indices":17,"material":5,"mode":4},{"attributes":{"POSITION":18,"TEXCOORD_0":19},"indices":20,"material":6,"mode":4},{"attributes":{"POSITION":21,"TEXCOORD_0":22},"indices":23,"material":7,"mode":4},{"attributes":{"POSITION":24,"TEXCOORD_0":25},"indices":26,"material":8,"mode":4},{"attributes":{"POSITION":27,"TEXCOORD_0":28},"indices":29,"material":9,"mode":4}]}],"nodes":[{"name":"spear","mesh":0}],"samplers":[{"wrapS":10497,"wrapT":10497}],"scene":0,"scenes":[{"nodes":[0]}],"textures":[{"name":"spear_1_0","sampler":0,"source":0},{"name":"spear_1_1","sampler":0,"source":1},{"name":"spear_1_2","sampler":0,"source":2},{"name":"spear_1_3","sampler":0,"source":3},{"name":"spear_1_4","sampler":0,"source":4},{"name":"spear_1_5","sampler":0,"source":5},{"name":"spear_1_6","sampler":0,"source":6},{"name":"spear_1_7","sampler":0,"source":7},{"name":"spear_1_8","sampler":0,"source":8},{"name":"spear_1_9","sampler":0,"source":9}]}