{"accessors":[{"name":"polygon0_1_0_positions","componentType":5126,"count":8,"min":[-1.1172339916229248,8.543331146240234,4.641732215881348],"max":[1.1172339916229248,9.192710876464844,5.462094783782959],"type":"VEC3","bufferView":0,"byteOffset":0},{"name":"polygon0_1_0_normals","componentType":5126,"count":8,"min":[-0.845817506313324,-0.1092279702425003,0.5325517058372498],"max":[0.845817506313324,0.15669097006320953,0.7333908081054688],"type":"VEC3","bufferView":1,"byteOffset":0},{"name":"polygon0_1_0_texcoords","componentType":5126,"count":8,"min":[0.007813000120222569,0.011718999594449997],"max":[0.4765630066394806,0.2421869933605194],"type":"VEC2","bufferView":2,"byteOffset":0},{"name":"polygon0_1_0_indices","componentType":5123,"count":12,"min":[0],"max":[7],"type":"SCALAR","bufferView":3,"byteOffset":0},{"name":"polygon1_1_0_positions","componentType":5126,"count":1199,"min":[-11.794415473937988,-0.21292899549007416,-7.816926002502441],"max":[11.794415473937988,11.666472434997559,6.494211196899414],"type":"VEC3","bufferView":0,"byteOffset":96},{"name":"polygon1_1_0_normals","componentType":5126,"count":1199,"min":[-0.9986171722412109,-0.9967688918113708,-0.9926443099975586],"max":[0.9986171722412109,0.9998878240585327,0.9996882677078247],"type":"VEC3","bufferView":1,"byteOffset":96},{"name":"polygon1_1_0_texcoords","componentType":5126,"count":1199,"min":[0.007934999652206898,0.008422999642789364],"max":[0.9980769753456116,0.9969180226325989],"type":"VEC2","bufferView":2,"byteOffset":64},{"name":"polygon1_1_0_indices","componentType":5123,"count":4974,"min":[0],"max":[1198],"type":"SCALAR","bufferView":3,"byteOffset":24}],"asset":{"generator":"obj2gltf","version":"2.0"},"buffers":[{"name":"Pidgeotto","byteLength":343544,"uri":"data:application/octet-stream;base64,"}],"bufferViews":[{"name":"bufferView_0","buffer":0,"byteLength":14484,"byteOffset":0,"byteStride":12,"target":34962},{"name":"bufferView_1","buffer":0,"byteLength":14484,"byteOffset":14484,"byteStride":12,"target":34962},{"name":"bufferView_2","buffer":0,"byteLength":9656,"byteOffset":28968,"byteStride":8,"target":34962},{"name":"bufferView_3","buffer":0,"byteLength":9972,"byteOffset":38624,"target":34963},{"buffer":0,"byteOffset":48596,"byteLength":98322},{"buffer":0,"byteOffset":146918,"byteLength":196626}],"images":[{"name":"PigeonEyeDh","mimeType":"image/x-tga","bufferView":4},{"name":"PigeonDh","mimeType":"image/x-tga","bufferView":5}],"materials":[{"name":"mat2","pbrMetallicRoughness":{"baseColorTexture":{"index":0},"baseColorFactor":[1,1,1,1],"metallicFactor":0,"roughnessFactor":0.99},"emissiveFactor":[0,0,0],"alphaMode":"OPAQUE","doubleSided":false},{"name":"mat1","pbrMetallicRoughness":{"baseColorTexture":{"index":1},"baseColorFactor":[1,1,1,1],"metallicFactor":0,"roughnessFactor":0.99},"emissiveFactor":[0,0,0],"alphaMode":"OPAQUE","doubleSided":false}],"meshes":[{"name":"polygon0_1","primitives":[{"attributes":{"POSITION":0,"NORMAL":1,"TEXCOORD_0":2},"indices":3,"material":0,"mode":4}]},{"name":"polygon1_1","primitives":[{"attributes":{"POSITION":4,"NORMAL":5,"TEXCOORD_0":6},"indices":7,"material":1,"mode":4}]}],"nodes":[{"name":"polygon0","mesh":0},{"name":"polygon1","mesh":1}],"samplers":[{"wrapS":10497,"wrapT":10497}],"scene":0,"scenes":[{"nodes":[0,1]}],"textures":[{"name":"PigeonEyeDh","sampler":0,"source":0},{"name":"PigeonDh","sampler":0,"source":1}]}