{"accessors":[{"name":"pigeot-Mesh_0_positions","componentType":5126,"count":2005,"min":[-7.718021869659424,-10.325931549072266,-16.080900192260742],"max":[7.718021869659424,7.215763092041016,1.0379170179367065],"type":"VEC3","bufferView":0,"byteOffset":0},{"name":"pigeot-Mesh_0_texcoords","componentType":5126,"count":2005,"min":[0.005218000151216984,0.01256600022315979],"max":[0.7370070219039917,0.9962009787559509],"type":"VEC2","bufferView":1,"byteOffset":0},{"name":"pigeot-Mesh_0_indices","componentType":5123,"count":8268,"min":[0],"max":[2004],"type":"SCALAR","bufferView":2,"byteOffset":0},{"name":"pigeot-Mesh_1_positions","componentType":5126,"count":20,"min":[-1.3681379556655884,4.815701961517334,-11.800472259521484],"max":[1.3681379556655884,5.980100154876709,-10.971092224121094],"type":"VEC3","bufferView":0,"byteOffset":24060},{"name":"pigeot-Mesh_1_texcoords","componentType":5126,"count":20,"min":[0.762723982334137,0.0648379996418953],"max":[0.9861699938774109,0.18402999639511108],"type":"VEC2","bufferView":1,"byteOffset":16040},{"name":"pigeot-Mesh_1_indices","componentType":5123,"count":54,"min":[0],"max":[19],"type":"SCALAR","bufferView":2,"byteOffset":16536}],"asset":{"generator":"obj2gltf","version":"2.0"},"buffers":[{"name":"BR_Pidgeot-Shiny01","byteLength":1105740,"uri":"data:application/octet-stream;base64,"}],"bufferViews":[{"name":"bufferView_0","buffer":0,"byteLength":24300,"byteOffset":0,"byteStride":12,"target":34962},{"name":"bufferView_1","buffer":0,"byteLength":16200,"byteOffset":24300,"byteStride":8,"target":34962},{"name":"bufferView_2","buffer":0,"byteLength":16644,"byteOffset":40500,"target":34963},{"buffer":0,"byteOffset":57144,"byteLength":1048594}],"images":[{"name":"pigeot_1_0","mimeType":"image/x-tga","bufferView":3}],"materials":[{"name":"mat_0","pbrMetallicRoughness":{"baseColorTexture":{"index":0},"baseColorFactor":[1,1,1,1],"metallicFactor":0,"roughnessFactor":0.903921569},"emissiveFactor":[0,0,0],"alphaMode":"BLEND","doubleSided":true},{"name":"mat_1","pbrMetallicRoughness":{"baseColorTexture":{"index":0},"baseColorFactor":[1,1,1,1],"metallicFactor":0,"roughnessFactor":0.903921569},"emissiveFactor":[0,0,0],"alphaMode":"BLEND","doubleSided":true}],"meshes":[{"name":"pigeot-Mesh","primitives":[{"attributes":{"POSITION":0,"TEXCOORD_0":1},"indices":2,"material":0,"mode":4},{"attributes":{"POSITION":3,"TEXCOORD_0":4},"indices":5,"material":1,"mode":4}]}],"nodes":[{"name":"pigeot","mesh":0}],"samplers":[{"wrapS":10497,"wrapT":10497}],"scene":0,"scenes":[{"nodes":[0]}],"textures":[{"name":"pigeot_1_0","sampler":0,"source":0}]}