{"accessors":[{"name":"koratta-Mesh_0_positions","componentType":5126,"count":18,"min":[-0.9162949919700623,2.006848096847534,-2.532186985015869],"max":[0.9162949919700623,2.714262008666992,-1.7792210578918457],"type":"VEC3","bufferView":0,"byteOffset":0},{"name":"koratta-Mesh_0_texcoords","componentType":5126,"count":18,"min":[-0.008426999673247337,-0.05680299922823906],"max":[0.13743700087070465,0.9012619853019714],"type":"VEC2","bufferView":1,"byteOffset":0},{"name":"koratta-Mesh_0_indices","componentType":5123,"count":48,"min":[0],"max":[17],"type":"SCALAR","bufferView":2,"byteOffset":0},{"name":"koratta-Mesh_1_positions","componentType":5126,"count":785,"min":[-2.273366928100586,-1.6823699474334717,-5.378993034362793],"max":[2.273366928100586,3.2327771186828613,0.17024099826812744],"type":"VEC3","bufferView":0,"byteOffset":216},{"name":"koratta-Mesh_1_texcoords","componentType":5126,"count":785,"min":[0.0399320013821125,0.02344599924981594],"max":[0.9691050052642822,0.9890890121459961],"type":"VEC2","bufferView":1,"byteOffset":144},{"name":"koratta-Mesh_1_indices","componentType":5123,"count":3729,"min":[0],"max":[784],"type":"SCALAR","bufferView":2,"byteOffset":96}],"asset":{"generator":"obj2gltf","version":"2.0"},"buffers":[{"name":"BR_Rattata-Shiny01","byteLength":1203300,"uri":"data:application/octet-stream;base64,"}],"bufferViews":[{"name":"bufferView_0","buffer":0,"byteLength":9636,"byteOffset":0,"byteStride":12,"target":34962},{"name":"bufferView_1","buffer":0,"byteLength":6424,"byteOffset":9636,"byteStride":8,"target":34962},{"name":"bufferView_2","buffer":0,"byteLength":7556,"byteOffset":16060,"target":34963},{"buffer":0,"byteOffset":23616,"byteLength":131090},{"buffer":0,"byteOffset":154706,"byteLength":1048594}],"images":[{"name":"koratta_1_0","mimeType":"image/x-tga","bufferView":3},{"name":"koratta_1_1","mimeType":"image/x-tga","bufferView":4}],"materials":[{"name":"mat_0","pbrMetallicRoughness":{"baseColorTexture":{"index":0},"baseColorFactor":[1,1,1,1],"metallicFactor":0,"roughnessFactor":0.903921569},"emissiveFactor":[0,0,0],"alphaMode":"BLEND","doubleSided":true},{"name":"mat_1","pbrMetallicRoughness":{"baseColorTexture":{"index":1},"baseColorFactor":[1,1,1,1],"metallicFactor":0,"roughnessFactor":0.903921569},"emissiveFactor":[0,0,0],"alphaMode":"BLEND","doubleSided":true}],"meshes":[{"name":"koratta-Mesh","primitives":[{"attributes":{"POSITION":0,"TEXCOORD_0":1},"indices":2,"material":0,"mode":4},{"attributes":{"POSITION":3,"TEXCOORD_0":4},"indices":5,"material":1,"mode":4}]}],"nodes":[{"name":"koratta","mesh":0}],"samplers":[{"wrapS":10497,"wrapT":10497}],"scene":0,"scenes":[{"nodes":[0]}],"textures":[{"name":"koratta_1_0","sampler":0,"source":0},{"name":"koratta_1_1","sampler":0,"source":1}]}