{"accessors":[{"name":"ratta-Mesh_0_positions","componentType":5126,"count":261,"min":[-3.62601900100708,2.526516914367676,-4.823075771331787],"max":[3.429637908935547,3.416579008102417,-3.0387089252471924],"type":"VEC3","bufferView":0,"byteOffset":0},{"name":"ratta-Mesh_0_texcoords","componentType":5126,"count":261,"min":[0.39065098762512207,0.762408971786499],"max":[0.4923369884490967,0.8628619909286499],"type":"VEC2","bufferView":1,"byteOffset":0},{"name":"ratta-Mesh_0_indices","componentType":5123,"count":972,"min":[0],"max":[260],"type":"SCALAR","bufferView":2,"byteOffset":0}],"asset":{"generator":"obj2gltf","version":"2.0"},"buffers":[{"name":"BR_Raticate-Shiny01","byteLength":1055760,"uri":"data:application/octet-stream;base64,"}],"bufferViews":[{"name":"bufferView_0","buffer":0,"byteLength":3132,"byteOffset":0,"byteStride":12,"target":34962},{"name":"bufferView_1","buffer":0,"byteLength":2088,"byteOffset":3132,"byteStride":8,"target":34962},{"name":"bufferView_2","buffer":0,"byteLength":1944,"byteOffset":5220,"target":34963},{"buffer":0,"byteOffset":7164,"byteLength":1048594}],"images":[{"name":"ratta_1_0","mimeType":"image/x-tga","bufferView":3}],"materials":[{"name":"mat_0","pbrMetallicRoughness":{"baseColorTexture":{"index":0},"baseColorFactor":[1,1,1,1],"metallicFactor":0,"roughnessFactor":0.903921569},"emissiveFactor":[0,0,0],"alphaMode":"BLEND","doubleSided":true}],"meshes":[{"name":"ratta-Mesh","primitives":[{"attributes":{"POSITION":0,"TEXCOORD_0":1},"indices":2,"material":0,"mode":4}]}],"nodes":[{"name":"ratta","mesh":0}],"samplers":[{"wrapS":10497,"wrapT":10497}],"scene":0,"scenes":[{"nodes":[0]}],"textures":[{"name":"ratta_1_0","sampler":0,"source":0}]}