{"accessors":[{"name":"polygon0_1_0_positions","componentType":5126,"count":1029,"min":[-3.3690130710601807,-0.01948300004005432,-2.1801490783691406],"max":[3.3690130710601807,3.114129066467285,1.7456810474395752],"type":"VEC3","bufferView":0,"byteOffset":0},{"name":"polygon0_1_0_normals","componentType":5126,"count":1029,"min":[-0.9912828803062439,-0.9999790787696838,-0.9855657815933228],"max":[0.9912828803062439,0.9996099472045898,0.9967688918113708],"type":"VEC3","bufferView":1,"byteOffset":0},{"name":"polygon0_1_0_texcoords","componentType":5126,"count":1029,"min":[0.004639000166207552,0.0038759999442845583],"max":[0.9857180118560791,0.990447998046875],"type":"VEC2","bufferView":2,"byteOffset":0},{"name":"polygon0_1_0_indices","componentType":5123,"count":4512,"min":[0],"max":[1028],"type":"SCALAR","bufferView":3,"byteOffset":0},{"name":"polygon1_1_0_positions","componentType":5126,"count":10,"min":[-0.3386499881744385,2.4886419773101807,1.1619809865951538],"max":[0.3386499881744385,2.7205119132995605,1.396988034248352],"type":"VEC3","bufferView":0,"byteOffset":12348},{"name":"polygon1_1_0_normals","componentType":5126,"count":10,"min":[-0.7844780683517456,-0.2108800858259201,0.4948752224445343],"max":[0.7844780683517456,0.3992931842803955,0.8441709876060486],"type":"VEC3","bufferView":1,"byteOffset":12348},{"name":"polygon1_1_0_texcoords","componentType":5126,"count":10,"min":[0.023437999188899994,0.015625],"max":[0.4765630066394806,0.234375],"type":"VEC2","bufferView":2,"byteOffset":8232},{"name":"polygon1_1_0_indices","componentType":5123,"count":18,"min":[0],"max":[9],"type":"SCALAR","bufferView":3,"byteOffset":9024}],"asset":{"generator":"obj2gltf","version":"2.0"},"buffers":[{"name":"Spearow","byteLength":337256,"uri":"data:application/octet-stream;base64,"}],"bufferViews":[{"name":"bufferView_0","buffer":0,"byteLength":12468,"byteOffset":0,"byteStride":12,"target":34962},{"name":"bufferView_1","buffer":0,"byteLength":12468,"byteOffset":12468,"byteStride":12,"target":34962},{"name":"bufferView_2","buffer":0,"byteLength":8312,"byteOffset":24936,"byteStride":8,"target":34962},{"name":"bufferView_3","buffer":0,"byteLength":9060,"byteOffset":33248,"target":34963},{"buffer":0,"byteOffset":42308,"byteLength":196626},{"buffer":0,"byteOffset":238934,"byteLength":98322}],"images":[{"name":"OnisuzumeDh","mimeType":"image/x-tga","bufferView":4},{"name":"OnisuzumeEyeDh","mimeType":"image/x-tga","bufferView":5}],"materials":[{"name":"mat1","pbrMetallicRoughness":{"baseColorTexture":{"index":0},"baseColorFactor":[1,1,1,1],"metallicFactor":0,"roughnessFactor":0.99},"emissiveFactor":[0,0,0],"alphaMode":"OPAQUE","doubleSided":false},{"name":"mat2","pbrMetallicRoughness":{"baseColorTexture":{"index":1},"baseColorFactor":[1,1,1,1],"metallicFactor":0,"roughnessFactor":0.99},"emissiveFactor":[0,0,0],"alphaMode":"OPAQUE","doubleSided":false}],"meshes":[{"name":"polygon0_1","primitives":[{"attributes":{"POSITION":0,"NORMAL":1,"TEXCOORD_0":2},"indices":3,"material":0,"mode":4}]},{"name":"polygon1_1","primitives":[{"attributes":{"POSITION":4,"NORMAL":5,"TEXCOORD_0":6},"indices":7,"material":1,"mode":4}]}],"nodes":[{"name":"polygon0","mesh":0},{"name":"polygon1","mesh":1}],"samplers":[{"wrapS":10497,"wrapT":10497}],"scene":0,"scenes":[{"nodes":[0,1]}],"textures":[{"name":"OnisuzumeDh","sampler":0,"source":0},{"name":"OnisuzumeEyeDh","sampler":0,"source":1}]}