{"accessors":[{"name":"onidrill-Mesh_0_positions","componentType":5126,"count":380,"min":[-8.302330017089844,-5.078780174255371,-5.060850143432617],"max":[8.320480346679688,5.0352702140808105,1.949429988861084],"type":"VEC3","bufferView":0,"byteOffset":0},{"name":"onidrill-Mesh_0_texcoords","componentType":5126,"count":380,"min":[-0.008929000236093998,0],"max":[1.0022300481796265,1.004464030265808],"type":"VEC2","bufferView":1,"byteOffset":0},{"name":"onidrill-Mesh_0_indices","componentType":5123,"count":915,"min":[0],"max":[379],"type":"SCALAR","bufferView":2,"byteOffset":0},{"name":"onidrill-Mesh_1_positions","componentType":5126,"count":114,"min":[-5.859910011291504,-2.2227799892425537,-5.069379806518555],"max":[5.856299877166748,2.661520004272461,0.6490669846534729],"type":"VEC3","bufferView":0,"byteOffset":4560},{"name":"onidrill-Mesh_1_texcoords","componentType":5126,"count":114,"min":[0.0025160000659525394,-0.009999999776482582],"max":[1.1958999633789062,1.0032349824905396],"type":"VEC2","bufferView":1,"byteOffset":3040},{"name":"onidrill-Mesh_1_indices","componentType":5123,"count":147,"min":[0],"max":[113],"type":"SCALAR","bufferView":2,"byteOffset":1832},{"name":"onidrill-Mesh_2_positions","componentType":5126,"count":38,"min":[-5.859910011291504,-1.5465500354766846,-5.069379806518555],"max":[5.856299877166748,0.7261090278625488,-0.15051999688148499],"type":"VEC3","bufferView":0,"byteOffset":5928},{"name":"onidrill-Mesh_2_texcoords","componentType":5126,"count":38,"min":[0,0.04130300134420395],"max":[1,0.9483529925346375],"type":"VEC2","bufferView":1,"byteOffset":3952},{"name":"onidrill-Mesh_2_indices","componentType":5123,"count":84,"min":[0],"max":[37],"type":"SCALAR","bufferView":2,"byteOffset":2128},{"name":"onidrill-Mesh_3_positions","componentType":5126,"count":35,"min":[-0.48647698760032654,2.393359899520874,-7.225369930267334],"max":[0.5509920120239258,5.5778398513793945,-4.380630016326904],"type":"VEC3","bufferView":0,"byteOffset":6384},{"name":"onidrill-Mesh_3_texcoords","componentType":5126,"count":35,"min":[-0.22749100625514984,-1.8773599863052368],"max":[0.9879649877548218,1.1051080226898193],"type":"VEC2","bufferView":1,"byteOffset":4256},{"name":"onidrill-Mesh_3_indices","componentType":5123,"count":84,"min":[0],"max":[34],"type":"SCALAR","bufferView":2,"byteOffset":2296},{"name":"onidrill-Mesh_4_positions","componentType":5126,"count":10,"min":[-0.5714010000228882,4.030179977416992,-4.933350086212158],"max":[0.6346909999847412,5.175950050354004,-3.7611100673675537],"type":"VEC3","bufferView":0,"byteOffset":6804},{"name":"onidrill-Mesh_4_texcoords","componentType":5126,"count":10,"min":[0.0044639999978244305,0],"max":[0.3404020071029663,1.2678569555282593],"type":"VEC2","bufferView":1,"byteOffset":4536},{"name":"onidrill-Mesh_4_indices","componentType":5123,"count":18,"min":[0],"max":[9],"type":"SCALAR","bufferView":2,"byteOffset":2464},{"name":"onidrill-Mesh_5_positions","componentType":5126,"count":30,"min":[-0.3287709951400757,4.865670204162598,-4.381800174713135],"max":[0.386106014251709,8.130189895629883,-1.649839997291565],"type":"VEC3","bufferView":0,"byteOffset":6924},{"name":"onidrill-Mesh_5_texcoords","componentType":5126,"count":30,"min":[-0.002604000037536025,0.008105999790132046],"max":[0.9926009774208069,1.0042879581451416],"type":"VEC2","bufferView":1,"byteOffset":4616},{"name":"onidrill-Mesh_5_indices","componentType":5123,"count":48,"min":[0],"max":[29],"type":"SCALAR","bufferView":2,"byteOffset":2500},{"name":"onidrill-Mesh_6_positions","componentType":5126,"count":14,"min":[-0.3287709951400757,5.017600059509277,-3.767270088195801],"max":[0.386106014251709,8.130189895629883,-1.649839997291565],"type":"VEC3","bufferView":0,"byteOffset":7284},{"name":"onidrill-Mesh_6_texcoords","componentType":5126,"count":14,"min":[0.014120999723672867,-0.41874998807907104],"max":[0.9858790040016174,0.9994159936904907],"type":"VEC2","bufferView":1,"byteOffset":4856},{"name":"onidrill-Mesh_6_indices","componentType":5123,"count":24,"min":[0],"max":[13],"type":"SCALAR","bufferView":2,"byteOffset":2596},{"name":"onidrill-Mesh_7_positions","componentType":5126,"count":17,"min":[-0.12151999771595001,4.95334005355835,-3.826200008392334],"max":[0.1839749962091446,5.872189998626709,-2.8495700359344482],"type":"VEC3","bufferView":0,"byteOffset":7452},{"name":"onidrill-Mesh_7_texcoords","componentType":5126,"count":17,"min":[0.008929000236093998,0],"max":[1,1.3991069793701172],"type":"VEC2","bufferView":1,"byteOffset":4968},{"name":"onidrill-Mesh_7_indices","componentType":5123,"count":27,"min":[0],"max":[16],"type":"SCALAR","bufferView":2,"byteOffset":2644},{"name":"onidrill-Mesh_8_positions","componentType":5126,"count":48,"min":[-12.665399551391602,-0.8183169960975647,-5.247330188751221],"max":[12.533900260925293,2.7249200344085693,0.1117430031299591],"type":"VEC3","bufferView":0,"byteOffset":7656},{"name":"onidrill-Mesh_8_texcoords","componentType":5126,"count":48,"min":[-0.012625999748706818,-0.005330000072717667],"max":[1.1362600326538086,3.931180000305176],"type":"VEC2","bufferView":1,"byteOffset":5104},{"name":"onidrill-Mesh_8_indices","componentType":5123,"count":99,"min":[0],"max":[47],"type":"SCALAR","bufferView":2,"byteOffset":2700},{"name":"onidrill-Mesh_9_positions","componentType":5126,"count":50,"min":[-11.261699676513672,-0.8247680068016052,-5.549079895019531],"max":[12.724800109863281,3.411410093307495,0.044957999140024185],"type":"VEC3","bufferView":0,"byteOffset":8232},{"name":"onidrill-Mesh_9_texcoords","componentType":5126,"count":50,"min":[-0.010327000170946121,-0.10344000160694122],"max":[1.0106300115585327,1.4500000476837158],"type":"VEC2","bufferView":1,"byteOffset":5488},{"name":"onidrill-Mesh_9_indices","componentType":5123,"count":96,"min":[0],"max":[49],"type":"SCALAR","bufferView":2,"byteOffset":2900},{"name":"onidrill-Mesh_10_positions","componentType":5126,"count":35,"min":[-11.854900360107422,-0.8781409859657288,-6.02347993850708],"max":[11.249899864196777,2.9237899780273438,0.022123999893665314],"type":"VEC3","bufferView":0,"byteOffset":8832},{"name":"onidrill-Mesh_10_texcoords","componentType":5126,"count":35,"min":[-0.012500000186264515,-0.011730000376701355],"max":[1.0123499631881714,1.420822024345398],"type":"VEC2","bufferView":1,"byteOffset":5888},{"name":"onidrill-Mesh_10_indices","componentType":5123,"count":75,"min":[0],"max":[34],"type":"SCALAR","bufferView":2,"byteOffset":3092},{"name":"onidrill-Mesh_11_positions","componentType":5126,"count":32,"min":[-12.481100082397461,-0.9052079916000366,-4.0340399742126465],"max":[11.858499526977539,1.5315799713134766,-0.022034000605344772],"type":"VEC3","bufferView":0,"byteOffset":9252},{"name":"onidrill-Mesh_11_texcoords","componentType":5126,"count":32,"min":[-0.007813000120222569,-0.002959999954327941],"max":[1.0059900283813477,1.4421030282974243],"type":"VEC2","bufferView":1,"byteOffset":6168},{"name":"onidrill-Mesh_11_indices","componentType":5123,"count":63,"min":[0],"max":[31],"type":"SCALAR","bufferView":2,"byteOffset":3244},{"name":"onidrill-Mesh_12_positions","componentType":5126,"count":10,"min":[-3.1839001178741455,-0.8277620077133179,-1.8405100107192993],"max":[-2.270430088043213,0.058664001524448395,-0.1861809939146042],"type":"VEC3","bufferView":0,"byteOffset":9636},{"name":"onidrill-Mesh_12_texcoords","componentType":5126,"count":10,"min":[-0.09533300250768661,0.006696000229567289],"max":[1.0008800029754639,1.519997000694275],"type":"VEC2","bufferView":1,"byteOffset":6424},{"name":"onidrill-Mesh_12_indices","componentType":5123,"count":21,"min":[0],"max":[9],"type":"SCALAR","bufferView":2,"byteOffset":3372},{"name":"onidrill-Mesh_13_positions","componentType":5126,"count":32,"min":[-1.0101799964904785,1.0478700399398804,1.3955800533294678],"max":[1.0101900100708008,2.2918899059295654,1.949429988861084],"type":"VEC3","bufferView":0,"byteOffset":9756},{"name":"onidrill-Mesh_13_texcoords","componentType":5126,"count":32,"min":[-0.001803999999538064,-0.00026000000070780516],"max":[1.0071200132369995,1],"type":"VEC2","bufferView":1,"byteOffset":6504},{"name":"onidrill-Mesh_13_indices","componentType":5123,"count":48,"min":[0],"max":[31],"type":"SCALAR","bufferView":2,"byteOffset":3416},{"name":"onidrill-Mesh_14_positions","componentType":5126,"count":262,"min":[-1.929110050201416,2.2551300525665283,-0.5183410048484802],"max":[1.9291199445724487,3.309720039367676,2.703670024871826],"type":"VEC3","bufferView":0,"byteOffset":10140},{"name":"onidrill-Mesh_14_texcoords","componentType":5126,"count":262,"min":[0,-0.0017399999778717756],"max":[1,1.0066959857940674],"type":"VEC2","bufferView":1,"byteOffset":6760},{"name":"onidrill-Mesh_14_indices","componentType":5123,"count":432,"min":[0],"max":[261],"type":"SCALAR","bufferView":2,"byteOffset":3512},{"name":"onidrill-Mesh_15_positions","componentType":5126,"count":54,"min":[-1.929110050201416,2.896980047225952,-0.5183410048484802],"max":[1.9291199445724487,3.8287699222564697,2.703670024871826],"type":"VEC3","bufferView":0,"byteOffset":13284},{"name":"onidrill-Mesh_15_texcoords","componentType":5126,"count":54,"min":[0.003157000057399273,0.0066720000468194485],"max":[0.9950929880142212,1.004464030265808],"type":"VEC2","bufferView":1,"byteOffset":8856},{"name":"onidrill-Mesh_15_indices","componentType":5123,"count":72,"min":[0],"max":[53],"type":"SCALAR","bufferView":2,"byteOffset":4376}],"asset":{"generator":"obj2gltf","version":"2.0"},"buffers":[{"name":"BR_Fearow-Shiny01","byteLength":97624,"uri":"data:application/octet-stream;base64,"}],"bufferViews":[{"name":"bufferView_0","buffer":0,"byteLength":13932,"byteOffset":0,"byteStride":12,"target":34962},{"name":"bufferView_1","buffer":0,"byteLength":9288,"byteOffset":13932,"byteStride":8,"target":34962},{"name":"bufferView_2","buffer":0,"byteLength":4520,"byteOffset":23220,"target":34963},{"buffer":0,"byteOffset":27740,"byteLength":4114},{"buffer":0,"byteOffset":31854,"byteLength":4114},{"buffer":0,"byteOffset":35968,"byteLength":4114},{"buffer":0,"byteOffset":40082,"byteLength":4114},{"buffer":0,"byteOffset":44196,"byteLength":16402},{"buffer":0,"byteOffset":60598,"byteLength":4114},{"buffer":0,"byteOffset":64712,"byteLength":4114},{"buffer":0,"byteOffset":68826,"byteLength":4114},{"buffer":0,"byteOffset":72940,"byteLength":4114},{"buffer":0,"byteOffset":77054,"byteLength":4114},{"buffer":0,"byteOffset":81168,"byteLength":4114},{"buffer":0,"byteOffset":85282,"byteLength":4114},{"buffer":0,"byteOffset":89396,"byteLength":4114},{"buffer":0,"byteOffset":93510,"byteLength":4114}],"images":[{"name":"onidrill_1_0","mimeType":"image/x-tga","bufferView":3},{"name":"onidrill_1_1","mimeType":"image/x-tga","bufferView":4},{"name":"onidrill_1_2","mimeType":"image/x-tga","bufferView":5},{"name":"onidrill_1_3","mimeType":"image/x-tga","bufferView":6},{"name":"onidrill_1_4","mimeType":"image/x-tga","bufferView":7},{"name":"onidrill_1_5","mimeType":"image/x-tga","bufferView":8},{"name":"onidrill_1_6","mimeType":"image/x-tga","bufferView":9},{"name":"onidrill_1_7","mimeType":"image/x-tga","bufferView":10},{"name":"onidrill_1_8","mimeType":"image/x-tga","bufferView":11},{"name":"onidrill_1_9","mimeType":"image/x-tga","bufferView":12},{"name":"onidrill_1_10","mimeType":"image/x-tga","bufferView":13},{"name":"onidrill_1_11","mimeType":"image/x-tga","bufferView":14},{"name":"onidrill_1_13","mimeType":"image/x-tga","bufferView":15},{"name":"onidrill_1_14","mimeType":"image/x-tga","bufferView":16}],"materials":[{"name":"mat_0","pbrMetallicRoughness":{"baseColorTexture":{"index":0},"baseColorFactor":[1,1,1,1],"metallicFactor":0,"roughnessFactor":0.903921569},"emissiveFactor":[0,0,0],"alphaMode":"BLEND","doubleSided":true},{"name":"mat_1","pbrMetallicRoughness":{"baseColorTexture":{"index":1},"baseColorFactor":[1,1,1,1],"metallicFactor":0,"roughnessFactor":0.903921569},"emissiveFactor":[0,0,0],"alphaMode":"BLEND","doubleSided":true},{"name":"mat_2","pbrMetallicRoughness":{"baseColorTexture":{"index":2},"baseColorFactor":[1,1,1,1],"metallicFactor":0,"roughnessFactor":0.903921569},"emissiveFactor":[0,0,0],"alphaMode":"BLEND","doubleSided":true},{"name":"mat_3","pbrMetallicRoughness":{"baseColorTexture":{"index":3},"baseColorFactor":[1,1,1,1],"metallicFactor":0,"roughnessFactor":0.903921569},"emissiveFactor":[0,0,0],"alphaMode":"BLEND","doubleSided":true},{"name":"mat_4","pbrMetallicRoughness":{"baseColorTexture":{"index":4},"baseColorFactor":[1,1,1,1],"metallicFactor":0,"roughnessFactor":0.903921569},"emissiveFactor":[0,0,0],"alphaMode":"BLEND","doubleSided":true},{"name":"mat_5","pbrMetallicRoughness":{"baseColorTexture":{"index":5},"baseColorFactor":[1,1,1,1],"metallicFactor":0,"roughnessFactor":0.903921569},"emissiveFactor":[0,0,0],"alphaMode":"BLEND","doubleSided":true},{"name":"mat_6","pbrMetallicRoughness":{"baseColorTexture":{"index":6},"baseColorFactor":[1,1,1,1],"metallicFactor":0,"roughnessFactor":0.903921569},"emissiveFactor":[0,0,0],"alphaMode":"BLEND","doubleSided":true},{"name":"mat_7","pbrMetallicRoughness":{"baseColorTexture":{"index":7},"baseColorFactor":[1,1,1,1],"metallicFactor":0,"roughnessFactor":0.903921569},"emissiveFactor":[0,0,0],"alphaMode":"BLEND","doubleSided":true},{"name":"mat_8","pbrMetallicRoughness":{"baseColorTexture":{"index":8},"baseColorFactor":[1,1,1,1],"metallicFactor":0,"roughnessFactor":0.903921569},"emissiveFactor":[0,0,0],"alphaMode":"BLEND","doubleSided":true},{"name":"mat_9","pbrMetallicRoughness":{"baseColorTexture":{"index":9},"baseColorFactor":[1,1,1,1],"metallicFactor":0,"roughnessFactor":0.903921569},"emissiveFactor":[0,0,0],"alphaMode":"BLEND","doubleSided":true},{"name":"mat_10","pbrMetallicRoughness":{"baseColorTexture":{"index":10},"baseColorFactor":[1,1,1,1],"metallicFactor":0,"roughnessFactor":0.903921569},"emissiveFactor":[0,0,0],"alphaMode":"BLEND","doubleSided":true},{"name":"mat_11","pbrMetallicRoughness":{"baseColorTexture":{"index":11},"baseColorFactor":[1,1,1,1],"metallicFactor":0,"roughnessFactor":0.903921569},"emissiveFactor":[0,0,0],"alphaMode":"BLEND","doubleSided":true},{"name":"mat_12","pbrMetallicRoughness":{"baseColorTexture":{"index":10},"baseColorFactor":[1,1,1,1],"metallicFactor":0,"roughnessFactor":0.903921569},"emissiveFactor":[0,0,0],"alphaMode":"BLEND","doubleSided":true},{"name":"mat_13","pbrMetallicRoughness":{"baseColorTexture":{"index":12},"baseColorFactor":[1,1,1,1],"metallicFactor":0,"roughnessFactor":0.903921569},"emissiveFactor":[0,0,0],"alphaMode":"BLEND","doubleSided":true},{"name":"mat_14","pbrMetallicRoughness":{"baseColorTexture":{"index":13},"baseColorFactor":[1,1,1,1],"metallicFactor":0,"roughnessFactor":0.903921569},"emissiveFactor":[0,0,0],"alphaMode":"BLEND","doubleSided":true},{"name":"mat_14_NONE","pbrMetallicRoughness":{"baseColorTexture":{"index":13},"baseColorFactor":[1,1,1,1],"metallicFactor":0,"roughnessFactor":0.903921569},"emissiveFactor":[0,0,0],"alphaMode":"BLEND","doubleSided":true}],"meshes":[{"name":"onidrill-Mesh","primitives":[{"attributes":{"POSITION":0,"TEXCOORD_0":1},"indices":2,"material":0,"mode":4},{"attributes":{"POSITION":3,"TEXCOORD_0":4},"indices":5,"material":1,"mode":4},{"attributes":{"POSITION":6,"TEXCOORD_0":7},"indices":8,"material":2,"mode":4},{"attributes":{"POSITION":9,"TEXCOORD_0":10},"indices":11,"material":3,"mode":4},{"attributes":{"POSITION":12,"TEXCOORD_0":13},"indices":14,"material":4,"mode":4},{"attributes":{"POSITION":15,"TEXCOORD_0":16},"indices":17,"material":5,"mode":4},{"attributes":{"POSITION":18,"TEXCOORD_0":19},"indices":20,"material":6,"mode":4},{"attributes":{"POSITION":21,"TEXCOORD_0":22},"indices":23,"material":7,"mode":4},{"attributes":{"POSITION":24,"TEXCOORD_0":25},"indices":26,"material":8,"mode":4},{"attributes":{"POSITION":27,"TEXCOORD_0":28},"indices":29,"material":9,"mode":4},{"attributes":{"POSITION":30,"TEXCOORD_0":31},"indices":32,"material":10,"mode":4},{"attributes":{"POSITION":33,"TEXCOORD_0":34},"indices":35,"material":11,"mode":4},{"attributes":{"POSITION":36,"TEXCOORD_0":37},"indices":38,"material":12,"mode":4},{"attributes":{"POSITION":39,"TEXCOORD_0":40},"indices":41,"material":13,"mode":4},{"attributes":{"POSITION":42,"TEXCOORD_0":43},"indices":44,"material":14,"mode":4},{"attributes":{"POSITION":45,"TEXCOORD_0":46},"indices":47,"material":15,"mode":4}]}],"nodes":[{"name":"onidrill","mesh":0}],"samplers":[{"wrapS":10497,"wrapT":10497}],"scene":0,"scenes":[{"nodes":[0]}],"textures":[{"name":"onidrill_1_0","sampler":0,"source":0},{"name":"onidrill_1_1","sampler":0,"source":1},{"name":"onidrill_1_2","sampler":0,"source":2},{"name":"onidrill_1_3","sampler":0,"source":3},{"name":"onidrill_1_4","sampler":0,"source":4},{"name":"onidrill_1_5","sampler":0,"source":5},{"name":"onidrill_1_6","sampler":0,"source":6},{"name":"onidrill_1_7","sampler":0,"source":7},{"name":"onidrill_1_8","sampler":0,"source":8},{"name":"onidrill_1_9","sampler":0,"source":9},{"name":"onidrill_1_10","sampler":0,"source":10},{"name":"onidrill_1_11","sampler":0,"source":11},{"name":"onidrill_1_13","sampler":0,"source":12},{"name":"onidrill_1_14","sampler":0,"source":13}]}