{"accessors":[{"name":"arbo-Mesh_0_positions","componentType":5126,"count":224,"min":[-1.9205299615859985,-4.312339782714844,-4.245850086212158],"max":[2.6511800289154053,1.6742500066757202,-0.001512999995611608],"type":"VEC3","bufferView":0,"byteOffset":0},{"name":"arbo-Mesh_0_texcoords","componentType":5126,"count":224,"min":[0,0],"max":[1,1],"type":"VEC2","bufferView":1,"byteOffset":0},{"name":"arbo-Mesh_0_indices","componentType":5123,"count":612,"min":[0],"max":[223],"type":"SCALAR","bufferView":2,"byteOffset":0},{"name":"arbo-Mesh_1_positions","componentType":5126,"count":348,"min":[-1.9205299615859985,-2.961869955062866,-3.653749942779541],"max":[2.5004100799560547,1.8426599502563477,-0.2628290057182312],"type":"VEC3","bufferView":0,"byteOffset":2688},{"name":"arbo-Mesh_1_texcoords","componentType":5126,"count":348,"min":[0,0],"max":[1.000730037689209,1],"type":"VEC2","bufferView":1,"byteOffset":1792},{"name":"arbo-Mesh_1_indices","componentType":5123,"count":951,"min":[0],"max":[347],"type":"SCALAR","bufferView":2,"byteOffset":1224},{"name":"arbo-Mesh_2_positions","componentType":5126,"count":50,"min":[-1.9205299615859985,-1.1792900562286377,-2.424139976501465],"max":[2.0554299354553223,1.1212999820709229,-0.3127880096435547],"type":"VEC3","bufferView":0,"byteOffset":6864},{"name":"arbo-Mesh_2_texcoords","componentType":5126,"count":50,"min":[-0.008929000236093998,0],"max":[1,1],"type":"VEC2","bufferView":1,"byteOffset":4576},{"name":"arbo-Mesh_2_indices","componentType":5123,"count":120,"min":[0],"max":[49],"type":"SCALAR","bufferView":2,"byteOffset":3128},{"name":"arbo-Mesh_3_positions","componentType":5126,"count":6,"min":[-1.4033199548721313,-2.082979917526245,-1.5246299505233765],"max":[0.3298240005970001,-0.9542109966278076,-0.9975450038909912],"type":"VEC3","bufferView":0,"byteOffset":7464},{"name":"arbo-Mesh_3_texcoords","componentType":5126,"count":6,"min":[0.07205300033092499,0.00033999999868683517],"max":[1.000730037689209,1.0078439712524414],"type":"VEC2","bufferView":1,"byteOffset":4976},{"name":"arbo-Mesh_3_indices","componentType":5123,"count":12,"min":[0],"max":[5],"type":"SCALAR","bufferView":2,"byteOffset":3368},{"name":"arbo-Mesh_4_positions","componentType":5126,"count":19,"min":[0.7297829985618591,0.615917980670929,-3.531670093536377],"max":[2.2757699489593506,1.5406299829483032,-2.544980049133301],"type":"VEC3","bufferView":0,"byteOffset":7536},{"name":"arbo-Mesh_4_texcoords","componentType":5126,"count":19,"min":[-0.2661829888820648,0.11134999990463257],"max":[1.2615900039672852,1.2225300073623657],"type":"VEC2","bufferView":1,"byteOffset":5024},{"name":"arbo-Mesh_4_indices","componentType":5123,"count":66,"min":[0],"max":[18],"type":"SCALAR","bufferView":2,"byteOffset":3392},{"name":"arbo-Mesh_5_positions","componentType":5126,"count":9,"min":[1.142449975013733,1.485319972038269,-2.829740047454834],"max":[1.8151600360870361,1.8426599502563477,-2.3705599308013916],"type":"VEC3","bufferView":0,"byteOffset":7764},{"name":"arbo-Mesh_5_texcoords","componentType":5126,"count":9,"min":[-0.2972469925880432,-0.8575199842453003],"max":[1.345170021057129,1.4072320461273193],"type":"VEC2","bufferView":1,"byteOffset":5176},{"name":"arbo-Mesh_5_indices","componentType":5123,"count":21,"min":[0],"max":[8],"type":"SCALAR","bufferView":2,"byteOffset":3524},{"name":"arbo-Mesh_6_positions","componentType":5126,"count":31,"min":[0.6883739829063416,0.7749339938163757,-2.519819974899292],"max":[2.3297600746154785,1.7996699810028076,-2.211639881134033],"type":"VEC3","bufferView":0,"byteOffset":7872},{"name":"arbo-Mesh_6_texcoords","componentType":5126,"count":31,"min":[-0.1603900045156479,0.022352000698447227],"max":[1.1560300588607788,1.1907670497894287],"type":"VEC2","bufferView":1,"byteOffset":5248},{"name":"arbo-Mesh_6_indices","componentType":5123,"count":81,"min":[0],"max":[30],"type":"SCALAR","bufferView":2,"byteOffset":3568},{"name":"arbo-Mesh_7_positions","componentType":5126,"count":7,"min":[0.9328110218048096,0.7749339938163757,-2.519819974899292],"max":[2.0898499488830566,1.5583100318908691,-2.3139100074768066],"type":"VEC3","bufferView":0,"byteOffset":8244},{"name":"arbo-Mesh_7_texcoords","componentType":5126,"count":7,"min":[0.002076999982818961,0.029839999973773956],"max":[0.9979230165481567,1.0827440023422241],"type":"VEC2","bufferView":1,"byteOffset":5496},{"name":"arbo-Mesh_7_indices","componentType":5123,"count":21,"min":[0],"max":[6],"type":"SCALAR","bufferView":2,"byteOffset":3732},{"name":"arbo-Mesh_8_positions","componentType":5126,"count":30,"min":[0.6805790066719055,0.1859620064496994,-3.3250200748443604],"max":[2.338710069656372,0.9679549932479858,-2.722939968109131],"type":"VEC3","bufferView":0,"byteOffset":8328},{"name":"arbo-Mesh_8_texcoords","componentType":5126,"count":30,"min":[0.007796999998390675,0.005828999914228916],"max":[0.8239799737930298,0.13668900728225708],"type":"VEC2","bufferView":1,"byteOffset":5552},{"name":"arbo-Mesh_8_indices","componentType":5123,"count":120,"min":[0],"max":[29],"type":"SCALAR","bufferView":2,"byteOffset":3776}],"asset":{"generator":"obj2gltf","version":"2.0"},"buffers":[{"name":"BR_Ekans-Shiny01","byteLength":137508,"uri":"data:application/octet-stream;base64,"}],"bufferViews":[{"name":"bufferView_0","buffer":0,"byteLength":8688,"byteOffset":0,"byteStride":12,"target":34962},{"name":"bufferView_1","buffer":0,"byteLength":5792,"byteOffset":8688,"byteStride":8,"target":34962},{"name":"bufferView_2","buffer":0,"byteLength":4016,"byteOffset":14480,"target":34963},{"buffer":0,"byteOffset":18496,"byteLength":4114},{"buffer":0,"byteOffset":22610,"byteLength":82},{"buffer":0,"byteOffset":22692,"byteLength":8210},{"buffer":0,"byteOffset":30902,"byteLength":4114},{"buffer":0,"byteOffset":35016,"byteLength":4114},{"buffer":0,"byteOffset":39130,"byteLength":8210},{"buffer":0,"byteOffset":47340,"byteLength":16402},{"buffer":0,"byteOffset":63742,"byteLength":8210},{"buffer":0,"byteOffset":71952,"byteLength":65554}],"images":[{"name":"arbo_1_0","mimeType":"image/x-tga","bufferView":3},{"name":"arbo_1_1","mimeType":"image/x-tga","bufferView":4},{"name":"arbo_1_2","mimeType":"image/x-tga","bufferView":5},{"name":"arbo_1_3","mimeType":"image/x-tga","bufferView":6},{"name":"arbo_1_4","mimeType":"image/x-tga","bufferView":7},{"name":"arbo_1_5","mimeType":"image/x-tga","bufferView":8},{"name":"arbo_1_6","mimeType":"image/x-tga","bufferView":9},{"name":"arbo_1_7","mimeType":"image/x-tga","bufferView":10},{"name":"arbo_1_8","mimeType":"image/x-tga","bufferView":11}],"materials":[{"name":"mat_0","pbrMetallicRoughness":{"baseColorTexture":{"index":0},"baseColorFactor":[1,1,1,1],"metallicFactor":0,"roughnessFactor":0.903921569},"emissiveFactor":[0,0,0],"alphaMode":"BLEND","doubleSided":true},{"name":"mat_1","pbrMetallicRoughness":{"baseColorTexture":{"index":1},"baseColorFactor":[1,1,1,1],"metallicFactor":0,"roughnessFactor":0.903921569},"emissiveFactor":[0,0,0],"alphaMode":"BLEND","doubleSided":true},{"name":"mat_2","pbrMetallicRoughness":{"baseColorTexture":{"index":2},"baseColorFactor":[1,1,1,1],"metallicFactor":0,"roughnessFactor":0.903921569},"emissiveFactor":[0,0,0],"alphaMode":"BLEND","doubleSided":true},{"name":"mat_3","pbrMetallicRoughness":{"baseColorTexture":{"index":3},"baseColorFactor":[1,1,1,1],"metallicFactor":0,"roughnessFactor":0.903921569},"emissiveFactor":[0,0,0],"alphaMode":"BLEND","doubleSided":true},{"name":"mat_4","pbrMetallicRoughness":{"baseColorTexture":{"index":4},"baseColorFactor":[1,1,1,1],"metallicFactor":0,"roughnessFactor":0.903921569},"emissiveFactor":[0,0,0],"alphaMode":"BLEND","doubleSided":true},{"name":"mat_5","pbrMetallicRoughness":{"baseColorTexture":{"index":5},"baseColorFactor":[1,1,1,1],"metallicFactor":0,"roughnessFactor":0.903921569},"emissiveFactor":[0,0,0],"alphaMode":"BLEND","doubleSided":true},{"name":"mat_6","pbrMetallicRoughness":{"baseColorTexture":{"index":6},"baseColorFactor":[1,1,1,1],"metallicFactor":0,"roughnessFactor":0.903921569},"emissiveFactor":[0,0,0],"alphaMode":"BLEND","doubleSided":true},{"name":"mat_7","pbrMetallicRoughness":{"baseColorTexture":{"index":7},"baseColorFactor":[1,1,1,1],"metallicFactor":0,"roughnessFactor":0.903921569},"emissiveFactor":[0,0,0],"alphaMode":"BLEND","doubleSided":true},{"name":"mat_8","pbrMetallicRoughness":{"baseColorTexture":{"index":8},"baseColorFactor":[1,1,1,1],"metallicFactor":0,"roughnessFactor":0.903921569},"emissiveFactor":[0,0,0],"alphaMode":"BLEND","doubleSided":true}],"meshes":[{"name":"arbo-Mesh","primitives":[{"attributes":{"POSITION":0,"TEXCOORD_0":1},"indices":2,"material":0,"mode":4},{"attributes":{"POSITION":3,"TEXCOORD_0":4},"indices":5,"material":1,"mode":4},{"attributes":{"POSITION":6,"TEXCOORD_0":7},"indices":8,"material":2,"mode":4},{"attributes":{"POSITION":9,"TEXCOORD_0":10},"indices":11,"material":3,"mode":4},{"attributes":{"POSITION":12,"TEXCOORD_0":13},"indices":14,"material":4,"mode":4},{"attributes":{"POSITION":15,"TEXCOORD_0":16},"indices":17,"material":5,"mode":4},{"attributes":{"POSITION":18,"TEXCOORD_0":19},"indices":20,"material":6,"mode":4},{"attributes":{"POSITION":21,"TEXCOORD_0":22},"indices":23,"material":7,"mode":4},{"attributes":{"POSITION":24,"TEXCOORD_0":25},"indices":26,"material":8,"mode":4}]}],"nodes":[{"name":"arbo","mesh":0}],"samplers":[{"wrapS":10497,"wrapT":10497}],"scene":0,"scenes":[{"nodes":[0]}],"textures":[{"name":"arbo_1_0","sampler":0,"source":0},{"name":"arbo_1_1","sampler":0,"source":1},{"name":"arbo_1_2","sampler":0,"source":2},{"name":"arbo_1_3","sampler":0,"source":3},{"name":"arbo_1_4","sampler":0,"source":4},{"name":"arbo_1_5","sampler":0,"source":5},{"name":"arbo_1_6","sampler":0,"source":6},{"name":"arbo_1_7","sampler":0,"source":7},{"name":"arbo_1_8","sampler":0,"source":8}]}