{"accessors":[{"name":"arbok-Mesh_0_positions","componentType":5126,"count":275,"min":[-3.3325700759887695,-16.555999755859375,-6.278079986572266],"max":[2.08705997467041,6.63484001159668,-0.005140000022947788],"type":"VEC3","bufferView":0,"byteOffset":0},{"name":"arbok-Mesh_0_texcoords","componentType":5126,"count":275,"min":[-0.2984269857406616,-0.011429999954998493],"max":[1.0711899995803833,1.595721960067749],"type":"VEC2","bufferView":1,"byteOffset":0},{"name":"arbok-Mesh_0_indices","componentType":5123,"count":702,"min":[0],"max":[274],"type":"SCALAR","bufferView":2,"byteOffset":0},{"name":"arbok-Mesh_1_positions","componentType":5126,"count":47,"min":[-6.394700050354004,3.8972699642181396,-12.155799865722656],"max":[4.198379993438721,12.079099655151367,-5.384990215301514],"type":"VEC3","bufferView":0,"byteOffset":3300},{"name":"arbok-Mesh_1_texcoords","componentType":5126,"count":47,"min":[0,0],"max":[1,1],"type":"VEC2","bufferView":1,"byteOffset":2200},{"name":"arbok-Mesh_1_indices","componentType":5123,"count":210,"min":[0],"max":[46],"type":"SCALAR","bufferView":2,"byteOffset":1404},{"name":"arbok-Mesh_2_positions","componentType":5126,"count":84,"min":[-6.394700050354004,4.988580226898193,-11.132399559020996],"max":[4.198379993438721,12.079099655151367,-5.201000213623047],"type":"VEC3","bufferView":0,"byteOffset":3864},{"name":"arbok-Mesh_2_texcoords","componentType":5126,"count":84,"min":[-0.0722929984331131,-0.09255000203847885],"max":[1.0722899436950684,1.161452054977417],"type":"VEC2","bufferView":1,"byteOffset":2576},{"name":"arbok-Mesh_2_indices","componentType":5123,"count":399,"min":[0],"max":[83],"type":"SCALAR","bufferView":2,"byteOffset":1824},{"name":"arbok-Mesh_3_positions","componentType":5126,"count":26,"min":[-2.6826798915863037,12.164400100708008,-9.811659812927246],"max":[0.589713990688324,14.546199798583984,-7.371150016784668],"type":"VEC3","bufferView":0,"byteOffset":4872},{"name":"arbok-Mesh_3_texcoords","componentType":5126,"count":26,"min":[0.010599000379443169,0.018696999177336693],"max":[0.9843569993972778,1.007835030555725],"type":"VEC2","bufferView":1,"byteOffset":3248},{"name":"arbok-Mesh_3_indices","componentType":5123,"count":81,"min":[0],"max":[25],"type":"SCALAR","bufferView":2,"byteOffset":2624},{"name":"arbok-Mesh_4_positions","componentType":5126,"count":69,"min":[-2.709059953689575,10.669500350952148,-11.038999557495117],"max":[0.613286018371582,14.502300262451172,-7.2998199462890625],"type":"VEC3","bufferView":0,"byteOffset":5184},{"name":"arbok-Mesh_4_texcoords","componentType":5126,"count":69,"min":[0.3479290008544922,0.12348499894142151],"max":[0.6615620255470276,0.4587010145187378],"type":"VEC2","bufferView":1,"byteOffset":3456},{"name":"arbok-Mesh_4_indices","componentType":5123,"count":237,"min":[0],"max":[68],"type":"SCALAR","bufferView":2,"byteOffset":2788},{"name":"arbok-Mesh_5_positions","componentType":5126,"count":16,"min":[-2.6826798915863037,11.992199897766113,-11.038999557495117],"max":[0.589713990688324,13.688199996948242,-9.67236042022705],"type":"VEC3","bufferView":0,"byteOffset":6012},{"name":"arbok-Mesh_5_texcoords","componentType":5126,"count":16,"min":[-0.19011199474334717,-0.07566999644041061],"max":[1.2358800172805786,0.15494400262832642],"type":"VEC2","bufferView":1,"byteOffset":4008},{"name":"arbok-Mesh_5_indices","componentType":5123,"count":42,"min":[0],"max":[15],"type":"SCALAR","bufferView":2,"byteOffset":3264},{"name":"arbok-Mesh_6_positions","componentType":5126,"count":5,"min":[-1.5463299751281738,14.46500015258789,-9.940400123596191],"max":[-0.5468149781227112,14.546199798583984,-9.572830200195312],"type":"VEC3","bufferView":0,"byteOffset":6204},{"name":"arbok-Mesh_6_texcoords","componentType":5126,"count":5,"min":[-0.1137240007519722,0.10082899779081345],"max":[1.1055500507354736,1.3500629663467407],"type":"VEC2","bufferView":1,"byteOffset":4136},{"name":"arbok-Mesh_6_indices","componentType":5123,"count":9,"min":[0],"max":[4],"type":"SCALAR","bufferView":2,"byteOffset":3348},{"name":"arbok-Mesh_7_positions","componentType":5126,"count":3,"min":[-0.8611029982566833,13.034700393676758,-7.574090003967285],"max":[-0.8479509949684143,13.192299842834473,-7.433650016784668],"type":"VEC3","bufferView":0,"byteOffset":6264},{"name":"arbok-Mesh_7_texcoords","componentType":5126,"count":3,"min":[0.686244010925293,0.2605369985103607],"max":[1.02701997756958,0.3802430033683777],"type":"VEC2","bufferView":1,"byteOffset":4176},{"name":"arbok-Mesh_7_indices","componentType":5123,"count":3,"min":[0],"max":[2],"type":"SCALAR","bufferView":2,"byteOffset":3368},{"name":"arbok-Mesh_8_positions","componentType":5126,"count":24,"min":[-1.1586799621582031,12.344900131225586,-9.755350112915039],"max":[-0.9311360120773315,13.264200210571289,-8.430419921875],"type":"VEC3","bufferView":0,"byteOffset":6300},{"name":"arbok-Mesh_8_texcoords","componentType":5126,"count":24,"min":[0.725832998752594,0.8789240121841431],"max":[0.868664026260376,0.9078249931335449],"type":"VEC2","bufferView":1,"byteOffset":4200},{"name":"arbok-Mesh_8_indices","componentType":5123,"count":129,"min":[0],"max":[23],"type":"SCALAR","bufferView":2,"byteOffset":3376}],"asset":{"generator":"obj2gltf","version":"2.0"},"buffers":[{"name":"BR_Arbok-Shiny01","byteLength":154664,"uri":"data:application/octet-stream;base64,"}],"bufferViews":[{"name":"bufferView_0","buffer":0,"byteLength":6588,"byteOffset":0,"byteStride":12,"target":34962},{"name":"bufferView_1","buffer":0,"byteLength":4392,"byteOffset":6588,"byteStride":8,"target":34962},{"name":"bufferView_2","buffer":0,"byteLength":3636,"byteOffset":10980,"target":34963},{"buffer":0,"byteOffset":14616,"byteLength":530},{"buffer":0,"byteOffset":15146,"byteLength":2578},{"buffer":0,"byteOffset":17724,"byteLength":65554},{"buffer":0,"byteOffset":83278,"byteLength":4114},{"buffer":0,"byteOffset":87392,"byteLength":82},{"buffer":0,"byteOffset":87474,"byteLength":65554},{"buffer":0,"byteOffset":153028,"byteLength":1554},{"buffer":0,"byteOffset":154582,"byteLength":82}],"images":[{"name":"arbok_1_0","mimeType":"image/x-tga","bufferView":3},{"name":"arbok_1_1","mimeType":"image/x-tga","bufferView":4},{"name":"arbok_1_2","mimeType":"image/x-tga","bufferView":5},{"name":"arbok_1_3","mimeType":"image/x-tga","bufferView":6},{"name":"arbok_1_4","mimeType":"image/x-tga","bufferView":7},{"name":"arbok_1_5","mimeType":"image/x-tga","bufferView":8},{"name":"arbok_1_6","mimeType":"image/x-tga","bufferView":9},{"name":"arbok_1_7","mimeType":"image/x-tga","bufferView":10}],"materials":[{"name":"mat_0","pbrMetallicRoughness":{"baseColorTexture":{"index":0},"baseColorFactor":[1,1,1,1],"metallicFactor":0,"roughnessFactor":0.903921569},"emissiveFactor":[0,0,0],"alphaMode":"BLEND","doubleSided":true},{"name":"mat_1","pbrMetallicRoughness":{"baseColorTexture":{"index":1},"baseColorFactor":[1,1,1,1],"metallicFactor":0,"roughnessFactor":0.903921569},"emissiveFactor":[0,0,0],"alphaMode":"BLEND","doubleSided":true},{"name":"mat_2","pbrMetallicRoughness":{"baseColorTexture":{"index":2},"baseColorFactor":[1,1,1,1],"metallicFactor":0,"roughnessFactor":0.903921569},"emissiveFactor":[0,0,0],"alphaMode":"BLEND","doubleSided":true},{"name":"mat_3","pbrMetallicRoughness":{"baseColorTexture":{"index":3},"baseColorFactor":[1,1,1,1],"metallicFactor":0,"roughnessFactor":0.903921569},"emissiveFactor":[0,0,0],"alphaMode":"BLEND","doubleSided":true},{"name":"mat_4","pbrMetallicRoughness":{"baseColorTexture":{"index":4},"baseColorFactor":[1,1,1,1],"metallicFactor":0,"roughnessFactor":0.903921569},"emissiveFactor":[0,0,0],"alphaMode":"BLEND","doubleSided":true},{"name":"mat_5","pbrMetallicRoughness":{"baseColorTexture":{"index":5},"baseColorFactor":[1,1,1,1],"metallicFactor":0,"roughnessFactor":0.903921569},"emissiveFactor":[0,0,0],"alphaMode":"BLEND","doubleSided":true},{"name":"mat_6","pbrMetallicRoughness":{"baseColorTexture":{"index":6},"baseColorFactor":[1,1,1,1],"metallicFactor":0,"roughnessFactor":0.903921569},"emissiveFactor":[0,0,0],"alphaMode":"BLEND","doubleSided":true},{"name":"mat_7","pbrMetallicRoughness":{"baseColorFactor":[0.8,0.8,0.8,1],"metallicFactor":0,"roughnessFactor":0.903921569},"emissiveFactor":[0,0,0],"alphaMode":"OPAQUE","doubleSided":false},{"name":"mat_8","pbrMetallicRoughness":{"baseColorTexture":{"index":7},"baseColorFactor":[1,1,1,1],"metallicFactor":0,"roughnessFactor":0.903921569},"emissiveFactor":[0,0,0],"alphaMode":"BLEND","doubleSided":true}],"meshes":[{"name":"arbok-Mesh","primitives":[{"attributes":{"POSITION":0,"TEXCOORD_0":1},"indices":2,"material":0,"mode":4},{"attributes":{"POSITION":3,"TEXCOORD_0":4},"indices":5,"material":1,"mode":4},{"attributes":{"POSITION":6,"TEXCOORD_0":7},"indices":8,"material":2,"mode":4},{"attributes":{"POSITION":9,"TEXCOORD_0":10},"indices":11,"material":3,"mode":4},{"attributes":{"POSITION":12,"TEXCOORD_0":13},"indices":14,"material":4,"mode":4},{"attributes":{"POSITION":15,"TEXCOORD_0":16},"indices":17,"material":5,"mode":4},{"attributes":{"POSITION":18,"TEXCOORD_0":19},"indices":20,"material":6,"mode":4},{"attributes":{"POSITION":21,"TEXCOORD_0":22},"indices":23,"material":7,"mode":4},{"attributes":{"POSITION":24,"TEXCOORD_0":25},"indices":26,"material":8,"mode":4}]}],"nodes":[{"name":"arbok","mesh":0}],"samplers":[{"wrapS":10497,"wrapT":10497}],"scene":0,"scenes":[{"nodes":[0]}],"textures":[{"name":"arbok_1_0","sampler":0,"source":0},{"name":"arbok_1_1","sampler":0,"source":1},{"name":"arbok_1_2","sampler":0,"source":2},{"name":"arbok_1_3","sampler":0,"source":3},{"name":"arbok_1_4","sampler":0,"source":4},{"name":"arbok_1_5","sampler":0,"source":5},{"name":"arbok_1_6","sampler":0,"source":6},{"name":"arbok_1_7","sampler":0,"source":7}]}