{"accessors":[{"name":"polygon0_1_0_positions","componentType":5126,"count":28,"min":[-0.43558600544929504,3.1851460933685303,1.2463469505310059],"max":[0.43558499217033386,3.7534210681915283,1.442162036895752],"type":"VEC3","bufferView":0,"byteOffset":0},{"name":"polygon0_1_0_normals","componentType":5126,"count":28,"min":[-0.575007975101471,-0.24477709829807281,0.4739818572998047],"max":[0.575007975101471,0.8288017511367798,0.9978825449943542],"type":"VEC3","bufferView":1,"byteOffset":0},{"name":"polygon0_1_0_texcoords","componentType":5126,"count":28,"min":[-0.0191040001809597,0.005675999913364649],"max":[0.3523859977722168,0.2321780025959015],"type":"VEC2","bufferView":2,"byteOffset":0},{"name":"polygon0_1_0_indices","componentType":5123,"count":114,"min":[0],"max":[27],"type":"SCALAR","bufferView":3,"byteOffset":0},{"name":"polygon1_1_0_positions","componentType":5126,"count":837,"min":[-1.7303730249404907,0.0038449999410659075,-1.5352720022201538],"max":[1.7303730249404907,4.669928073883057,1.6357840299606323],"type":"VEC3","bufferView":0,"byteOffset":336},{"name":"polygon1_1_0_normals","componentType":5126,"count":837,"min":[-0.9976517558097839,-0.9922013282775879,-0.9997757077217102],"max":[0.9976517558097839,0.996811032295227,0.9993667006492615],"type":"VEC3","bufferView":1,"byteOffset":336},{"name":"polygon1_1_0_texcoords","componentType":5126,"count":837,"min":[0.0032649999484419823,0.003539999946951866],"max":[0.9933170080184937,0.9912109971046448],"type":"VEC2","bufferView":2,"byteOffset":224},{"name":"polygon1_1_0_indices","componentType":5123,"count":4212,"min":[0],"max":[836],"type":"SCALAR","bufferView":3,"byteOffset":228},{"name":"polygon2_1_0_positions","componentType":5126,"count":40,"min":[-1.0107860565185547,2.943718910217285,0.5521079897880554],"max":[1.0107860565185547,3.6379001140594482,1.186918020248413],"type":"VEC3","bufferView":0,"byteOffset":10380},{"name":"polygon2_1_0_normals","componentType":5126,"count":40,"min":[-0.9912897348403931,-0.34821411967277527,0.09024596959352493],"max":[0.9912897348403931,0.5082942843437195,0.8148968815803528],"type":"VEC3","bufferView":1,"byteOffset":10380},{"name":"polygon2_1_0_texcoords","componentType":5126,"count":40,"min":[0.18075600266456604,0.0399480015039444],"max":[0.8610529899597168,0.22375500202178955],"type":"VEC2","bufferView":2,"byteOffset":6920},{"name":"polygon2_1_0_indices","componentType":5123,"count":144,"min":[0],"max":[39],"type":"SCALAR","bufferView":3,"byteOffset":8652},{"name":"polygon3_1_0_positions","componentType":5126,"count":26,"min":[-0.8101570010185242,3.622243881225586,0.702593982219696],"max":[0.810155987739563,4.017340183258057,1.1991360187530518],"type":"VEC3","bufferView":0,"byteOffset":10860},{"name":"polygon3_1_0_normals","componentType":5126,"count":26,"min":[-0.8079779744148254,0.4123019874095917,0.42092597484588623],"max":[0.8079779744148254,0.7568700313568115,0.7801812291145325],"type":"VEC3","bufferView":1,"byteOffset":10860},{"name":"polygon3_1_0_texcoords","componentType":5126,"count":26,"min":[0.9963380098342896,0.05630499869585037],"max":[1.2578129768371582,0.20715300738811493],"type":"VEC2","bufferView":2,"byteOffset":7240},{"name":"polygon3_1_0_indices","componentType":5123,"count":84,"min":[0],"max":[25],"type":"SCALAR","bufferView":3,"byteOffset":8940},{"name":"polygon4_1_0_positions","componentType":5126,"count":76,"min":[-0.03999999910593033,0.9236289858818054,-3.028580904006958],"max":[0.04016600176692009,4.723803997039795,-0.7170140147209167],"type":"VEC3","bufferView":0,"byteOffset":11172},{"name":"polygon4_1_0_normals","componentType":5126,"count":76,"min":[-0.9999259114265442,-0.9549371600151062,-0.9760943651199341],"max":[0.9999271631240845,0.9235109686851501,0.9964934587478638],"type":"VEC3","bufferView":1,"byteOffset":11172},{"name":"polygon4_1_0_texcoords","componentType":5126,"count":76,"min":[0.00494399992749095,0.4578549861907959],"max":[0.31445300579071045,0.7294620275497437],"type":"VEC2","bufferView":2,"byteOffset":7448},{"name":"polygon4_1_0_indices","componentType":5123,"count":150,"min":[0],"max":[75],"type":"SCALAR","bufferView":3,"byteOffset":9108}],"asset":{"generator":"obj2gltf","version":"2.0"},"buffers":[{"name":"P2_Pikachu","byteLength":1860328,"uri":"data:application/octet-stream;base64,"}],"bufferViews":[{"name":"bufferView_0","buffer":0,"byteLength":12084,"byteOffset":0,"byteStride":12,"target":34962},{"name":"bufferView_1","buffer":0,"byteLength":12084,"byteOffset":12084,"byteStride":12,"target":34962},{"name":"bufferView_2","buffer":0,"byteLength":8056,"byteOffset":24168,"byteStride":8,"target":34962},{"name":"bufferView_3","buffer":0,"byteLength":9408,"byteOffset":32224,"target":34963},{"buffer":0,"byteOffset":41632,"byteLength":786450},{"buffer":0,"byteOffset":828082,"byteLength":196626},{"buffer":0,"byteOffset":1024708,"byteLength":49170},{"buffer":0,"byteOffset":1073878,"byteLength":786450}],"images":[{"name":"PikachuMouthDh","mimeType":"image/x-tga","bufferView":4},{"name":"PikachuDh","mimeType":"image/x-tga","bufferView":5},{"name":"PikachuHohoDh","mimeType":"image/x-tga","bufferView":6},{"name":"PikachuEyeDh","mimeType":"image/x-tga","bufferView":7}],"materials":[{"name":"mat4","pbrMetallicRoughness":{"baseColorTexture":{"index":0},"baseColorFactor":[1,1,1,1],"metallicFactor":0,"roughnessFactor":0.99},"emissiveFactor":[0,0,0],"alphaMode":"OPAQUE","doubleSided":false},{"name":"mat1","pbrMetallicRoughness":{"baseColorTexture":{"index":1},"baseColorFactor":[1,1,1,1],"metallicFactor":0,"roughnessFactor":0.99},"emissiveFactor":[0,0,0],"alphaMode":"OPAQUE","doubleSided":false},{"name":"mat3","pbrMetallicRoughness":{"baseColorTexture":{"index":2},"baseColorFactor":[1,1,1,1],"metallicFactor":0,"roughnessFactor":0.99},"emissiveFactor":[0,0,0],"alphaMode":"OPAQUE","doubleSided":false},{"name":"mat2","pbrMetallicRoughness":{"baseColorTexture":{"index":3},"baseColorFactor":[1,1,1,1],"metallicFactor":0,"roughnessFactor":0.99},"emissiveFactor":[0,0,0],"alphaMode":"OPAQUE","doubleSided":false},{"name":"mat5","pbrMetallicRoughness":{"baseColorTexture":{"index":1},"baseColorFactor":[1,1,1,1],"metallicFactor":0,"roughnessFactor":0.99},"emissiveFactor":[0,0,0],"alphaMode":"OPAQUE","doubleSided":false}],"meshes":[{"name":"polygon0_1","primitives":[{"attributes":{"POSITION":0,"NORMAL":1,"TEXCOORD_0":2},"indices":3,"material":0,"mode":4}]},{"name":"polygon1_1","primitives":[{"attributes":{"POSITION":4,"NORMAL":5,"TEXCOORD_0":6},"indices":7,"material":1,"mode":4}]},{"name":"polygon2_1","primitives":[{"attributes":{"POSITION":8,"NORMAL":9,"TEXCOORD_0":10},"indices":11,"material":2,"mode":4}]},{"name":"polygon3_1","primitives":[{"attributes":{"POSITION":12,"NORMAL":13,"TEXCOORD_0":14},"indices":15,"material":3,"mode":4}]},{"name":"polygon4_1","primitives":[{"attributes":{"POSITION":16,"NORMAL":17,"TEXCOORD_0":18},"indices":19,"material":4,"mode":4}]}],"nodes":[{"name":"polygon0","mesh":0},{"name":"polygon1","mesh":1},{"name":"polygon2","mesh":2},{"name":"polygon3","mesh":3},{"name":"polygon4","mesh":4}],"samplers":[{"wrapS":10497,"wrapT":10497}],"scene":0,"scenes":[{"nodes":[0,1,2,3,4]}],"textures":[{"name":"PikachuMouthDh","sampler":0,"source":0},{"name":"PikachuDh","sampler":0,"source":1},{"name":"PikachuHohoDh","sampler":0,"source":2},{"name":"PikachuEyeDh","sampler":0,"source":3}]}