{"accessors":[{"name":"PikachuF_1_0_positions","componentType":5126,"count":13086,"min":[-17.045299530029297,-0.014678999781608582,-31.50410270690918],"max":[17.045307159423828,51.32350540161133,16.36220359802246],"type":"VEC3","bufferView":0,"byteOffset":0},{"name":"PikachuF_1_0_normals","componentType":5126,"count":13086,"min":[-1,-0.9197583198547363,-0.9998873472213745],"max":[1,0.999998927116394,0.9996623396873474],"type":"VEC3","bufferView":1,"byteOffset":0},{"name":"PikachuF_1_0_texcoords","componentType":5126,"count":13086,"min":[0,0.0055680000223219395],"max":[1,0.9955329895019531],"type":"VEC2","bufferView":2,"byteOffset":0},{"name":"PikachuF_1_0_indices","componentType":5123,"count":13086,"min":[0],"max":[13085],"type":"SCALAR","bufferView":3,"byteOffset":0},{"name":"PikachuF_1_1_positions","componentType":5126,"count":390,"min":[-10.081500053405762,29.907697677612305,4.784550189971924],"max":[10.081500053405762,36.518699645996094,12.145899772644043],"type":"VEC3","bufferView":0,"byteOffset":157032},{"name":"PikachuF_1_1_normals","componentType":5126,"count":390,"min":[-1,-0.6505361795425415,-0.9586905241012573],"max":[0.9999812245368958,0.916214644908905,0.9849263429641724],"type":"VEC3","bufferView":1,"byteOffset":157032},{"name":"PikachuF_1_1_texcoords","componentType":5126,"count":390,"min":[0.012439999729394913,-2.9727299213409424],"max":[0.987559974193573,-2.777240037918091],"type":"VEC2","bufferView":2,"byteOffset":104688},{"name":"PikachuF_1_1_indices","componentType":5123,"count":390,"min":[0],"max":[389],"type":"SCALAR","bufferView":3,"byteOffset":26172},{"name":"PikachuF_1_2_positions","componentType":5126,"count":336,"min":[-5.833209991455078,29.852197647094727,11.14789867401123],"max":[5.833209991455078,37.851898193359375,14.44119930267334],"type":"VEC3","bufferView":0,"byteOffset":161712},{"name":"PikachuF_1_2_normals","componentType":5126,"count":336,"min":[-1,-0.6515944004058838,-0.9586905241012573],"max":[0.9887121915817261,0.999998927116394,0.9942370653152466],"type":"VEC3","bufferView":1,"byteOffset":161712},{"name":"PikachuF_1_2_texcoords","componentType":5126,"count":336,"min":[0.07423300296068192,-1.9943499565124512],"max":[0.42577001452445984,-1.7560499906539917],"type":"VEC2","bufferView":2,"byteOffset":107808},{"name":"PikachuF_1_2_indices","componentType":5123,"count":336,"min":[0],"max":[335],"type":"SCALAR","bufferView":3,"byteOffset":26952},{"name":"PikachuF_1_3_positions","componentType":5126,"count":192,"min":[-7.729869842529297,36.14569854736328,6.803328037261963],"max":[7.729869842529297,41.566497802734375,12.263998985290527],"type":"VEC3","bufferView":0,"byteOffset":165744},{"name":"PikachuF_1_3_normals","componentType":5126,"count":192,"min":[-0.999994158744812,-0.9186200499534607,-0.9061441421508789],"max":[0.999456524848938,0.7242334485054016,0.9849263429641724],"type":"VEC3","bufferView":1,"byteOffset":165744},{"name":"PikachuF_1_3_texcoords","componentType":5126,"count":192,"min":[0.006175999995321035,-0.9858599901199341],"max":[0.4938200116157532,-0.7662799954414368],"type":"VEC2","bufferView":2,"byteOffset":110496},{"name":"PikachuF_1_3_indices","componentType":5123,"count":192,"min":[0],"max":[191],"type":"SCALAR","bufferView":3,"byteOffset":27624}],"asset":{"generator":"obj2gltf","version":"2.0"},"buffers":[{"name":"XY_PikachuF","byteLength":554260,"uri":"data:application/octet-stream;base64,"}],"bufferViews":[{"name":"bufferView_0","buffer":0,"byteLength":168048,"byteOffset":0,"byteStride":12,"target":34962},{"name":"bufferView_1","buffer":0,"byteLength":168048,"byteOffset":168048,"byteStride":12,"target":34962},{"name":"bufferView_2","buffer":0,"byteLength":112032,"byteOffset":336096,"byteStride":8,"target":34962},{"name":"bufferView_3","buffer":0,"byteLength":28008,"byteOffset":448128,"target":34963},{"buffer":0,"byteOffset":476136,"byteLength":21288},{"buffer":0,"byteOffset":497424,"byteLength":15290},{"buffer":0,"byteOffset":512714,"byteLength":12516},{"buffer":0,"byteOffset":525230,"byteLength":29029}],"images":[{"name":"pm0025_00_BodyA1","mimeType":"image/png","bufferView":4},{"name":"pm0025_00_BodyB1","mimeType":"image/png","bufferView":5},{"name":"pm0025_00_Mouth1","mimeType":"image/png","bufferView":6},{"name":"pm0025_00_Eye1","mimeType":"image/png","bufferView":7}],"materials":[{"name":"Material__160","pbrMetallicRoughness":{"baseColorTexture":{"index":0},"baseColorFactor":[1,1,1,1],"metallicFactor":0,"roughnessFactor":0.998},"emissiveFactor":[0,0,0],"alphaMode":"OPAQUE","doubleSided":false},{"name":"Material__161","pbrMetallicRoughness":{"baseColorTexture":{"index":1},"baseColorFactor":[1,1,1,1],"metallicFactor":0,"roughnessFactor":0.998},"emissiveFactor":[0,0,0],"alphaMode":"OPAQUE","doubleSided":false},{"name":"Material__162","pbrMetallicRoughness":{"baseColorTexture":{"index":2},"baseColorFactor":[1,1,1,1],"metallicFactor":0,"roughnessFactor":0.998},"emissiveFactor":[0,0,0],"alphaMode":"OPAQUE","doubleSided":false},{"name":"Material__163","pbrMetallicRoughness":{"baseColorTexture":{"index":3},"baseColorFactor":[1,1,1,1],"metallicFactor":0,"roughnessFactor":0.998},"emissiveFactor":[0,0,0],"alphaMode":"OPAQUE","doubleSided":false}],"meshes":[{"name":"PikachuF_1","primitives":[{"attributes":{"POSITION":0,"NORMAL":1,"TEXCOORD_0":2},"indices":3,"material":0,"mode":4},{"attributes":{"POSITION":4,"NORMAL":5,"TEXCOORD_0":6},"indices":7,"material":1,"mode":4},{"attributes":{"POSITION":8,"NORMAL":9,"TEXCOORD_0":10},"indices":11,"material":2,"mode":4},{"attributes":{"POSITION":12,"NORMAL":13,"TEXCOORD_0":14},"indices":15,"material":3,"mode":4}]}],"nodes":[{"name":"PikachuF","mesh":0}],"samplers":[{"wrapS":10497,"wrapT":10497}],"scene":0,"scenes":[{"nodes":[0]}],"textures":[{"name":"pm0025_00_BodyA1","sampler":0,"source":0},{"name":"pm0025_00_BodyB1","sampler":0,"source":1},{"name":"pm0025_00_Mouth1","sampler":0,"source":2},{"name":"pm0025_00_Eye1","sampler":0,"source":3}]}