{"accessors":[{"name":"polygon0_1_0_positions","componentType":5126,"count":22,"min":[-1.200543999671936,5.877693176269531,1.5329960584640503],"max":[1.2005419731140137,6.5174407958984375,2.1422839164733887],"type":"VEC3","bufferView":0,"byteOffset":0},{"name":"polygon0_1_0_normals","componentType":5126,"count":22,"min":[-0.7260220050811768,0.3931199908256531,0.5438989996910095],"max":[0.7260220050811768,0.6424687504768372,0.824907124042511],"type":"VEC3","bufferView":1,"byteOffset":0},{"name":"polygon0_1_0_texcoords","componentType":5126,"count":22,"min":[0.007294000126421452,0.026611000299453735],"max":[0.5658869743347168,0.21841399371623993],"type":"VEC2","bufferView":2,"byteOffset":0},{"name":"polygon0_1_0_indices","componentType":5123,"count":66,"min":[0],"max":[21],"type":"SCALAR","bufferView":3,"byteOffset":0},{"name":"polygon1_1_0_positions","componentType":5126,"count":15,"min":[-0.6972960233688354,5.035679817199707,2.189517021179199],"max":[0.6972939968109131,5.918745994567871,2.449198007583618],"type":"VEC3","bufferView":0,"byteOffset":264},{"name":"polygon1_1_0_normals","componentType":5126,"count":15,"min":[-0.519108772277832,-0.3984450697898865,0.6445227861404419],"max":[0.519108772277832,0.670170783996582,0.9854133129119873],"type":"VEC3","bufferView":1,"byteOffset":264},{"name":"polygon1_1_0_texcoords","componentType":5126,"count":15,"min":[0.49884000420570374,-0.015502999536693096],"max":[1.035094976425171,0.2854610085487366],"type":"VEC2","bufferView":2,"byteOffset":176},{"name":"polygon1_1_0_indices","componentType":5123,"count":48,"min":[0],"max":[14],"type":"SCALAR","bufferView":3,"byteOffset":132},{"name":"polygon2_1_0_positions","componentType":5126,"count":1020,"min":[-2.663666009902954,-0.016975000500679016,-19.846927642822266],"max":[2.6636641025543213,8.439337730407715,2.50423002243042],"type":"VEC3","bufferView":0,"byteOffset":444},{"name":"polygon2_1_0_normals","componentType":5126,"count":1020,"min":[-0.9998691082000732,-1,-0.9995329976081848],"max":[0.9998691082000732,1,0.9997380375862122],"type":"VEC3","bufferView":1,"byteOffset":444},{"name":"polygon2_1_0_texcoords","componentType":5126,"count":1020,"min":[0.009247000329196453,0.0018309999722987413],"max":[0.9984740018844604,0.9972839951515198],"type":"VEC2","bufferView":2,"byteOffset":296},{"name":"polygon2_1_0_indices","componentType":5123,"count":4722,"min":[0],"max":[1019],"type":"SCALAR","bufferView":3,"byteOffset":228}],"asset":{"generator":"obj2gltf","version":"2.0"},"buffers":[{"name":"Raichu","byteLength":387616,"uri":"data:application/octet-stream;base64,"}],"bufferViews":[{"name":"bufferView_0","buffer":0,"byteLength":12684,"byteOffset":0,"byteStride":12,"target":34962},{"name":"bufferView_1","buffer":0,"byteLength":12684,"byteOffset":12684,"byteStride":12,"target":34962},{"name":"bufferView_2","buffer":0,"byteLength":8456,"byteOffset":25368,"byteStride":8,"target":34962},{"name":"bufferView_3","buffer":0,"byteLength":9672,"byteOffset":33824,"target":34963},{"buffer":0,"byteOffset":43496,"byteLength":98322},{"buffer":0,"byteOffset":141818,"byteLength":49170},{"buffer":0,"byteOffset":190988,"byteLength":196626}],"images":[{"name":"RaichuEyeDh","mimeType":"image/x-tga","bufferView":4},{"name":"RaichuMouthDh","mimeType":"image/x-tga","bufferView":5},{"name":"RaichuDh","mimeType":"image/x-tga","bufferView":6}],"materials":[{"name":"mat2","pbrMetallicRoughness":{"baseColorTexture":{"index":0},"baseColorFactor":[1,1,1,1],"metallicFactor":0,"roughnessFactor":0.99},"emissiveFactor":[0,0,0],"alphaMode":"OPAQUE","doubleSided":false},{"name":"mat3","pbrMetallicRoughness":{"baseColorTexture":{"index":1},"baseColorFactor":[1,1,1,1],"metallicFactor":0,"roughnessFactor":0.99},"emissiveFactor":[0,0,0],"alphaMode":"OPAQUE","doubleSided":false},{"name":"mat1","pbrMetallicRoughness":{"baseColorTexture":{"index":2},"baseColorFactor":[1,1,1,1],"metallicFactor":0,"roughnessFactor":0.99},"emissiveFactor":[0,0,0],"alphaMode":"OPAQUE","doubleSided":false}],"meshes":[{"name":"polygon0_1","primitives":[{"attributes":{"POSITION":0,"NORMAL":1,"TEXCOORD_0":2},"indices":3,"material":0,"mode":4}]},{"name":"polygon1_1","primitives":[{"attributes":{"POSITION":4,"NORMAL":5,"TEXCOORD_0":6},"indices":7,"material":1,"mode":4}]},{"name":"polygon2_1","primitives":[{"attributes":{"POSITION":8,"NORMAL":9,"TEXCOORD_0":10},"indices":11,"material":2,"mode":4}]}],"nodes":[{"name":"polygon0","mesh":0},{"name":"polygon1","mesh":1},{"name":"polygon2","mesh":2}],"samplers":[{"wrapS":10497,"wrapT":10497}],"scene":0,"scenes":[{"nodes":[0,1,2]}],"textures":[{"name":"RaichuEyeDh","sampler":0,"source":0},{"name":"RaichuMouthDh","sampler":0,"source":1},{"name":"RaichuDh","sampler":0,"source":2}]}