{"accessors":[{"name":"RaichuF_1_0_positions","componentType":5126,"count":15444,"min":[-26.756601333618164,-0.000007000000096013537,-204.5290069580078],"max":[26.75660514831543,84.3934097290039,25.34140396118164],"type":"VEC3","bufferView":0,"byteOffset":0},{"name":"RaichuF_1_0_normals","componentType":5126,"count":15444,"min":[-0.9999895095825195,-1,-0.9999016523361206],"max":[0.9999895095825195,1,0.9999949336051941],"type":"VEC3","bufferView":1,"byteOffset":0},{"name":"RaichuF_1_0_texcoords","componentType":5126,"count":15444,"min":[0.004449999891221523,0.004486999940127134],"max":[0.9955499768257141,0.9955390095710754],"type":"VEC2","bufferView":2,"byteOffset":0},{"name":"RaichuF_1_0_indices","componentType":5123,"count":15444,"min":[0],"max":[15443],"type":"SCALAR","bufferView":3,"byteOffset":0},{"name":"RaichuF_1_1_positions","componentType":5126,"count":96,"min":[-11.701600074768066,58.8358039855957,14.223505020141602],"max":[11.701600074768066,65.19670867919922,21.19330406188965],"type":"VEC3","bufferView":0,"byteOffset":185328},{"name":"RaichuF_1_1_normals","componentType":5126,"count":96,"min":[-0.8728776574134827,-0.9916496872901917,-0.9851645231246948],"max":[0.9381760954856873,1,0.0657069981098175],"type":"VEC3","bufferView":1,"byteOffset":185328},{"name":"RaichuF_1_1_texcoords","componentType":5126,"count":96,"min":[0.00825599953532219,-0.955269992351532],"max":[0.49173998832702637,-0.7866100072860718],"type":"VEC2","bufferView":2,"byteOffset":123552},{"name":"RaichuF_1_1_indices","componentType":5123,"count":96,"min":[0],"max":[95],"type":"SCALAR","bufferView":3,"byteOffset":30888},{"name":"RaichuF_1_2_positions","componentType":5126,"count":210,"min":[-6.6767401695251465,50.73140335083008,21.5304012298584],"max":[6.6767401695251465,60.080501556396484,24.499799728393555],"type":"VEC3","bufferView":0,"byteOffset":186480},{"name":"RaichuF_1_2_normals","componentType":5126,"count":210,"min":[-0.8704766035079956,-1,-0.9659810066223145],"max":[0.9888563752174377,1,0.053499992936849594],"type":"VEC3","bufferView":1,"byteOffset":186480},{"name":"RaichuF_1_2_texcoords","componentType":5126,"count":210,"min":[0.10455299913883209,-1.9809499979019165],"max":[0.39544999599456787,-1.7793200016021729],"type":"VEC2","bufferView":2,"byteOffset":124320},{"name":"RaichuF_1_2_indices","componentType":5123,"count":210,"min":[0],"max":[209],"type":"SCALAR","bufferView":3,"byteOffset":31080},{"name":"RaichuF_1_3_positions","componentType":5126,"count":408,"min":[-16.151899337768555,48.785804748535156,8.204503059387207],"max":[16.151899337768555,62.15990447998047,21.288002014160156],"type":"VEC3","bufferView":0,"byteOffset":189000},{"name":"RaichuF_1_3_normals","componentType":5126,"count":408,"min":[-0.4938989281654358,-0.8066797852516174,0.4517531394958496],"max":[0.47545212507247925,0.018133001402020454,0.99294114112854],"type":"VEC3","bufferView":1,"byteOffset":189000},{"name":"RaichuF_1_3_texcoords","componentType":5126,"count":408,"min":[0.03872999921441078,0.020093999803066254],"max":[0.9612699747085571,0.22990599274635315],"type":"VEC2","bufferView":2,"byteOffset":126000},{"name":"RaichuF_1_3_indices","componentType":5123,"count":408,"min":[0],"max":[407],"type":"SCALAR","bufferView":3,"byteOffset":31500}],"asset":{"generator":"obj2gltf","version":"2.0"},"buffers":[{"name":"XY_RaichuF","byteLength":672088,"uri":"data:application/octet-stream;base64,"}],"bufferViews":[{"name":"bufferView_0","buffer":0,"byteLength":193896,"byteOffset":0,"byteStride":12,"target":34962},{"name":"bufferView_1","buffer":0,"byteLength":193896,"byteOffset":193896,"byteStride":12,"target":34962},{"name":"bufferView_2","buffer":0,"byteLength":129264,"byteOffset":387792,"byteStride":8,"target":34962},{"name":"bufferView_3","buffer":0,"byteLength":32316,"byteOffset":517056,"target":34963},{"buffer":0,"byteOffset":549372,"byteLength":62028},{"buffer":0,"byteOffset":611400,"byteLength":31205},{"buffer":0,"byteOffset":642605,"byteLength":18684},{"buffer":0,"byteOffset":661289,"byteLength":10797}],"images":[{"name":"pm0026_00_Body1","mimeType":"image/png","bufferView":4},{"name":"pm0026_00_Eye1","mimeType":"image/png","bufferView":5},{"name":"pm0026_00_Mouth1","mimeType":"image/png","bufferView":6},{"name":"pm0026_00_BodyBInc","mimeType":"image/png","bufferView":7}],"materials":[{"name":"Material__146","pbrMetallicRoughness":{"baseColorTexture":{"index":0},"baseColorFactor":[1,1,1,1],"metallicFactor":0,"roughnessFactor":0.998},"emissiveFactor":[0,0,0],"alphaMode":"OPAQUE","doubleSided":false},{"name":"Material__147","pbrMetallicRoughness":{"baseColorTexture":{"index":1},"baseColorFactor":[1,1,1,1],"metallicFactor":0,"roughnessFactor":0.998},"emissiveFactor":[0,0,0],"alphaMode":"OPAQUE","doubleSided":false},{"name":"Material__148","pbrMetallicRoughness":{"baseColorTexture":{"index":2},"baseColorFactor":[1,1,1,1],"metallicFactor":0,"roughnessFactor":0.998},"emissiveFactor":[0,0,0],"alphaMode":"OPAQUE","doubleSided":false},{"name":"Material__149","pbrMetallicRoughness":{"baseColorTexture":{"index":3},"baseColorFactor":[1,1,1,1],"metallicFactor":0,"roughnessFactor":0.998},"emissiveFactor":[0,0,0],"alphaMode":"OPAQUE","doubleSided":false}],"meshes":[{"name":"RaichuF_1","primitives":[{"attributes":{"POSITION":0,"NORMAL":1,"TEXCOORD_0":2},"indices":3,"material":0,"mode":4},{"attributes":{"POSITION":4,"NORMAL":5,"TEXCOORD_0":6},"indices":7,"material":1,"mode":4},{"attributes":{"POSITION":8,"NORMAL":9,"TEXCOORD_0":10},"indices":11,"material":2,"mode":4},{"attributes":{"POSITION":12,"NORMAL":13,"TEXCOORD_0":14},"indices":15,"material":3,"mode":4}]}],"nodes":[{"name":"RaichuF","mesh":0}],"samplers":[{"wrapS":10497,"wrapT":10497}],"scene":0,"scenes":[{"nodes":[0]}],"textures":[{"name":"pm0026_00_Body1","sampler":0,"source":0},{"name":"pm0026_00_Eye1","sampler":0,"source":1},{"name":"pm0026_00_Mouth1","sampler":0,"source":2},{"name":"pm0026_00_BodyBInc","sampler":0,"source":3}]}