{"accessors":[{"name":"sand_c-Mesh_0_positions","componentType":5126,"count":12,"min":[-1.7802300453186035,-1.7924799919128418,-1.8217799663543701],"max":[1.7802300453186035,1.7924799919128418,-0.0000019999999949504854],"type":"VEC3","bufferView":0,"byteOffset":0},{"name":"sand_c-Mesh_0_texcoords","componentType":5126,"count":12,"min":[0,-0.010420000180602074],"max":[1,1],"type":"VEC2","bufferView":1,"byteOffset":0},{"name":"sand_c-Mesh_0_indices","componentType":5123,"count":24,"min":[0],"max":[11],"type":"SCALAR","bufferView":2,"byteOffset":0},{"name":"sand_c-Mesh_1_positions","componentType":5126,"count":12,"min":[-1.7802300453186035,-1.7924799919128418,-0.000003000000106112566],"max":[1.7802300453186035,1.7924799919128418,1.8217699527740479],"type":"VEC3","bufferView":0,"byteOffset":144},{"name":"sand_c-Mesh_1_texcoords","componentType":5126,"count":12,"min":[0.001740999985486269,0.004184999968856573],"max":[1.0052000284194946,0.9973490238189697],"type":"VEC2","bufferView":1,"byteOffset":96},{"name":"sand_c-Mesh_1_indices","componentType":5123,"count":24,"min":[0],"max":[11],"type":"SCALAR","bufferView":2,"byteOffset":48},{"name":"sand_c-Mesh_2_positions","componentType":5126,"count":13,"min":[-0.9456189870834351,-2.016900062561035,-2.004309892654419],"max":[0.9456139802932739,1.255429983139038,-0.8321340084075928],"type":"VEC3","bufferView":0,"byteOffset":288},{"name":"sand_c-Mesh_2_texcoords","componentType":5126,"count":13,"min":[-0.008929000236093998,0.012679999694228172],"max":[0.9774789810180664,0.8345490097999573],"type":"VEC2","bufferView":1,"byteOffset":192},{"name":"sand_c-Mesh_2_indices","componentType":5123,"count":24,"min":[0],"max":[12],"type":"SCALAR","bufferView":2,"byteOffset":96},{"name":"sand_c-Mesh_3_positions","componentType":5126,"count":38,"min":[-1.3560199737548828,-2.052769899368286,-2.004309892654419],"max":[1.3560199737548828,2.052769899368286,2.1390199661254883],"type":"VEC3","bufferView":0,"byteOffset":444},{"name":"sand_c-Mesh_3_texcoords","componentType":5126,"count":38,"min":[-0.003973999992012978,-0.018300000578165054],"max":[1.002560019493103,1.0186530351638794],"type":"VEC2","bufferView":1,"byteOffset":296},{"name":"sand_c-Mesh_3_indices","componentType":5123,"count":60,"min":[0],"max":[37],"type":"SCALAR","bufferView":2,"byteOffset":144},{"name":"sand_c-Mesh_4_positions","componentType":5126,"count":6,"min":[-1.3560199737548828,-0.8581140041351318,1.2881900072097778],"max":[1.3560199737548828,1.279520034790039,2.1390199661254883],"type":"VEC3","bufferView":0,"byteOffset":900},{"name":"sand_c-Mesh_4_texcoords","componentType":5126,"count":6,"min":[-0.010320000350475311,0.0053079999051988125],"max":[0.9955360293388367,1.00142502784729],"type":"VEC2","bufferView":1,"byteOffset":600},{"name":"sand_c-Mesh_4_indices","componentType":5123,"count":12,"min":[0],"max":[5],"type":"SCALAR","bufferView":2,"byteOffset":264}],"asset":{"generator":"obj2gltf","version":"2.0"},"buffers":[{"name":"BR_Sandshrew-Shiny01","byteLength":28624,"uri":"data:application/octet-stream;base64,"}],"bufferViews":[{"name":"bufferView_0","buffer":0,"byteLength":972,"byteOffset":0,"byteStride":12,"target":34962},{"name":"bufferView_1","buffer":0,"byteLength":648,"byteOffset":972,"byteStride":8,"target":34962},{"name":"bufferView_2","buffer":0,"byteLength":288,"byteOffset":1620,"target":34963},{"buffer":0,"byteOffset":1908,"byteLength":8210},{"buffer":0,"byteOffset":10118,"byteLength":8210},{"buffer":0,"byteOffset":18328,"byteLength":4114},{"buffer":0,"byteOffset":22442,"byteLength":4114},{"buffer":0,"byteOffset":26556,"byteLength":2066}],"images":[{"name":"sand_c_1_0","mimeType":"image/x-tga","bufferView":3},{"name":"sand_c_1_1","mimeType":"image/x-tga","bufferView":4},{"name":"sand_c_1_2","mimeType":"image/x-tga","bufferView":5},{"name":"sand_c_1_3","mimeType":"image/x-tga","bufferView":6},{"name":"sand_c_1_4","mimeType":"image/x-tga","bufferView":7}],"materials":[{"name":"mat_0","pbrMetallicRoughness":{"baseColorTexture":{"index":0},"baseColorFactor":[1,1,1,1],"metallicFactor":0,"roughnessFactor":0.903921569},"emissiveFactor":[0,0,0],"alphaMode":"BLEND","doubleSided":true},{"name":"mat_1","pbrMetallicRoughness":{"baseColorTexture":{"index":1},"baseColorFactor":[1,1,1,1],"metallicFactor":0,"roughnessFactor":0.903921569},"emissiveFactor":[0,0,0],"alphaMode":"BLEND","doubleSided":true},{"name":"mat_2","pbrMetallicRoughness":{"baseColorTexture":{"index":2},"baseColorFactor":[1,1,1,1],"metallicFactor":0,"roughnessFactor":0.903921569},"emissiveFactor":[0,0,0],"alphaMode":"BLEND","doubleSided":true},{"name":"mat_3","pbrMetallicRoughness":{"baseColorTexture":{"index":3},"baseColorFactor":[1,1,1,1],"metallicFactor":0,"roughnessFactor":0.903921569},"emissiveFactor":[0,0,0],"alphaMode":"BLEND","doubleSided":true},{"name":"mat_4","pbrMetallicRoughness":{"baseColorTexture":{"index":4},"baseColorFactor":[1,1,1,1],"metallicFactor":0,"roughnessFactor":0.903921569},"emissiveFactor":[0,0,0],"alphaMode":"BLEND","doubleSided":true}],"meshes":[{"name":"sand_c-Mesh","primitives":[{"attributes":{"POSITION":0,"TEXCOORD_0":1},"indices":2,"material":0,"mode":4},{"attributes":{"POSITION":3,"TEXCOORD_0":4},"indices":5,"material":1,"mode":4},{"attributes":{"POSITION":6,"TEXCOORD_0":7},"indices":8,"material":2,"mode":4},{"attributes":{"POSITION":9,"TEXCOORD_0":10},"indices":11,"material":3,"mode":4},{"attributes":{"POSITION":12,"TEXCOORD_0":13},"indices":14,"material":4,"mode":4}]}],"nodes":[{"name":"sand_c","mesh":0}],"samplers":[{"wrapS":10497,"wrapT":10497}],"scene":0,"scenes":[{"nodes":[0]}],"textures":[{"name":"sand_c_1_0","sampler":0,"source":0},{"name":"sand_c_1_1","sampler":0,"source":1},{"name":"sand_c_1_2","sampler":0,"source":2},{"name":"sand_c_1_3","sampler":0,"source":3},{"name":"sand_c_1_4","sampler":0,"source":4}]}