{"accessors":[{"name":"sandpan-Mesh_0_positions","componentType":5126,"count":507,"min":[-4.5958170890808105,-6.324490070343018,-10.439056396484375],"max":[4.5958170890808105,1.621006965637207,-1.6742219924926758],"type":"VEC3","bufferView":0,"byteOffset":0},{"name":"sandpan-Mesh_0_texcoords","componentType":5126,"count":507,"min":[0.23387399315834045,0.7524279952049255],"max":[0.3559640049934387,0.972786009311676],"type":"VEC2","bufferView":1,"byteOffset":0},{"name":"sandpan-Mesh_0_indices","componentType":5123,"count":2676,"min":[0],"max":[506],"type":"SCALAR","bufferView":2,"byteOffset":0}],"asset":{"generator":"obj2gltf","version":"2.0"},"buffers":[{"name":"BR_Sandslash-Shiny01","byteLength":1064088,"uri":"data:application/octet-stream;base64,"}],"bufferViews":[{"name":"bufferView_0","buffer":0,"byteLength":6084,"byteOffset":0,"byteStride":12,"target":34962},{"name":"bufferView_1","buffer":0,"byteLength":4056,"byteOffset":6084,"byteStride":8,"target":34962},{"name":"bufferView_2","buffer":0,"byteLength":5352,"byteOffset":10140,"target":34963},{"buffer":0,"byteOffset":15492,"byteLength":1048594}],"images":[{"name":"sandpan_1_0","mimeType":"image/x-tga","bufferView":3}],"materials":[{"name":"mat_0","pbrMetallicRoughness":{"baseColorTexture":{"index":0},"baseColorFactor":[1,1,1,1],"metallicFactor":0,"roughnessFactor":0.903921569},"emissiveFactor":[0,0,0],"alphaMode":"BLEND","doubleSided":true}],"meshes":[{"name":"sandpan-Mesh","primitives":[{"attributes":{"POSITION":0,"TEXCOORD_0":1},"indices":2,"material":0,"mode":4}]}],"nodes":[{"name":"sandpan","mesh":0}],"samplers":[{"wrapS":10497,"wrapT":10497}],"scene":0,"scenes":[{"nodes":[0]}],"textures":[{"name":"sandpan_1_0","sampler":0,"source":0}]}