{"accessors":[{"name":"NidoranF_1_0_positions","componentType":5126,"count":13158,"min":[-21.354997634887695,-0.000039999998989515007,-19.85169792175293],"max":[21.35500144958496,41.3905029296875,26.7804012298584],"type":"VEC3","bufferView":0,"byteOffset":0},{"name":"NidoranF_1_0_normals","componentType":5126,"count":13158,"min":[-0.9985190629959106,-0.9995636940002441,-0.9991053342819214],"max":[0.9985193014144897,0.9999889135360718,0.9830259084701538],"type":"VEC3","bufferView":1,"byteOffset":0},{"name":"NidoranF_1_0_texcoords","componentType":5126,"count":13158,"min":[0,0.0044559999369084835],"max":[1,0.9953460097312927],"type":"VEC2","bufferView":2,"byteOffset":0},{"name":"NidoranF_1_0_indices","componentType":5123,"count":13158,"min":[0],"max":[13157],"type":"SCALAR","bufferView":3,"byteOffset":0},{"name":"NidoranF_1_1_positions","componentType":5126,"count":276,"min":[-8.793780326843262,25.272300720214844,12.558704376220703],"max":[8.793780326843262,33.169700622558594,23.209901809692383],"type":"VEC3","bufferView":0,"byteOffset":157896},{"name":"NidoranF_1_1_normals","componentType":5126,"count":276,"min":[-0.9597108364105225,-0.8007909655570984,-0.9991053342819214],"max":[0,0.9999889135360718,0.04595298320055008],"type":"VEC3","bufferView":1,"byteOffset":157896},{"name":"NidoranF_1_1_texcoords","componentType":5126,"count":276,"min":[0.006087000016123056,-0.9711199998855591],"max":[0.493910014629364,-0.8077899813652039],"type":"VEC2","bufferView":2,"byteOffset":105264},{"name":"NidoranF_1_1_indices","componentType":5123,"count":276,"min":[0],"max":[275],"type":"SCALAR","bufferView":3,"byteOffset":26316}],"asset":{"generator":"obj2gltf","version":"2.0"},"buffers":[{"name":"XY_NidoranF","byteLength":554300,"uri":"data:application/octet-stream;base64,"}],"bufferViews":[{"name":"bufferView_0","buffer":0,"byteLength":161208,"byteOffset":0,"byteStride":12,"target":34962},{"name":"bufferView_1","buffer":0,"byteLength":161208,"byteOffset":161208,"byteStride":12,"target":34962},{"name":"bufferView_2","buffer":0,"byteLength":107472,"byteOffset":322416,"byteStride":8,"target":34962},{"name":"bufferView_3","buffer":0,"byteLength":26868,"byteOffset":429888,"target":34963},{"buffer":0,"byteOffset":456756,"byteLength":69650},{"buffer":0,"byteOffset":526406,"byteLength":27893}],"images":[{"name":"pm0029_00_Body1","mimeType":"image/png","bufferView":4},{"name":"pm0029_00_Eye1","mimeType":"image/png","bufferView":5}],"materials":[{"name":"Material__10","pbrMetallicRoughness":{"baseColorTexture":{"index":0},"baseColorFactor":[1,1,1,1],"metallicFactor":0,"roughnessFactor":0.998},"emissiveFactor":[0,0,0],"alphaMode":"OPAQUE","doubleSided":false},{"name":"Material__11","pbrMetallicRoughness":{"baseColorTexture":{"index":1},"baseColorFactor":[1,1,1,1],"metallicFactor":0,"roughnessFactor":0.998},"emissiveFactor":[0,0,0],"alphaMode":"OPAQUE","doubleSided":false}],"meshes":[{"name":"NidoranF_1","primitives":[{"attributes":{"POSITION":0,"NORMAL":1,"TEXCOORD_0":2},"indices":3,"material":0,"mode":4},{"attributes":{"POSITION":4,"NORMAL":5,"TEXCOORD_0":6},"indices":7,"material":1,"mode":4}]}],"nodes":[{"name":"NidoranF","mesh":0}],"samplers":[{"wrapS":10497,"wrapT":10497}],"scene":0,"scenes":[{"nodes":[0]}],"textures":[{"name":"pm0029_00_Body1","sampler":0,"source":0},{"name":"pm0029_00_Eye1","sampler":0,"source":1}]}