{"accessors":[{"name":"nidoran_f_c-Mesh_0_positions","componentType":5126,"count":72,"min":[-1.311519980430603,-2.1045100688934326,-2.620889902114868],"max":[1.2715200185775757,-0.10432299971580505,-0.16946299374103546],"type":"VEC3","bufferView":0,"byteOffset":0},{"name":"nidoran_f_c-Mesh_0_texcoords","componentType":5126,"count":72,"min":[-1.193619966506958,-0.5273299813270569],"max":[2.0765600204467773,1.9332380294799805],"type":"VEC2","bufferView":1,"byteOffset":0},{"name":"nidoran_f_c-Mesh_0_indices","componentType":5123,"count":204,"min":[0],"max":[71],"type":"SCALAR","bufferView":2,"byteOffset":0},{"name":"nidoran_f_c-Mesh_1_positions","componentType":5126,"count":40,"min":[-1.050719976425171,-1.8890000581741333,-2.324460029602051],"max":[1.2715200185775757,0.6696599721908569,-0.4134640097618103],"type":"VEC3","bufferView":0,"byteOffset":864},{"name":"nidoran_f_c-Mesh_1_texcoords","componentType":5126,"count":40,"min":[-1.3877400159835815,-1.8297200202941895],"max":[2.9758400917053223,2.5470399856567383],"type":"VEC2","bufferView":1,"byteOffset":576},{"name":"nidoran_f_c-Mesh_1_indices","componentType":5123,"count":132,"min":[0],"max":[39],"type":"SCALAR","bufferView":2,"byteOffset":408},{"name":"nidoran_f_c-Mesh_2_positions","componentType":5126,"count":292,"min":[-1.7208800315856934,-2.477370023727417,-3.6686699390411377],"max":[1.7208800315856934,2.2179698944091797,0.011568999849259853],"type":"VEC3","bufferView":0,"byteOffset":1344},{"name":"nidoran_f_c-Mesh_2_texcoords","componentType":5126,"count":292,"min":[-0.6760460138320923,-0.05057999864220619],"max":[1.2889000177383423,1.0737260580062866],"type":"VEC2","bufferView":1,"byteOffset":896},{"name":"nidoran_f_c-Mesh_2_indices","componentType":5123,"count":1236,"min":[0],"max":[291],"type":"SCALAR","bufferView":2,"byteOffset":672},{"name":"nidoran_f_c-Mesh_3_positions","componentType":5126,"count":12,"min":[-0.9296690225601196,0.7436069846153259,-3.3102099895477295],"max":[0.8963900208473206,1.8119299411773682,-2.45674991607666],"type":"VEC3","bufferView":0,"byteOffset":4848},{"name":"nidoran_f_c-Mesh_3_texcoords","componentType":5126,"count":12,"min":[0.005113999824970961,-0.4203599989414215],"max":[0.24063900113105774,1.247607946395874],"type":"VEC2","bufferView":1,"byteOffset":3232},{"name":"nidoran_f_c-Mesh_3_indices","componentType":5123,"count":30,"min":[0],"max":[11],"type":"SCALAR","bufferView":2,"byteOffset":3144},{"name":"nidoran_f_c-Mesh_4_positions","componentType":5126,"count":14,"min":[-0.4117070138454437,1.7736400365829468,-2.5131399631500244],"max":[0.37842801213264465,2.0792899131774902,-1.8997000455856323],"type":"VEC3","bufferView":0,"byteOffset":4992},{"name":"nidoran_f_c-Mesh_4_texcoords","componentType":5126,"count":14,"min":[-0.12926800549030304,-0.5050100088119507],"max":[1.1028800010681152,1.300279974937439],"type":"VEC2","bufferView":1,"byteOffset":3328},{"name":"nidoran_f_c-Mesh_4_indices","componentType":5123,"count":36,"min":[0],"max":[13],"type":"SCALAR","bufferView":2,"byteOffset":3204},{"name":"nidoran_f_c-Mesh_5_positions","componentType":5126,"count":5,"min":[-0.18344800174236298,2.047339916229248,-2.6178500652313232],"max":[0.1168069988489151,2.1892600059509277,-2.2907299995422363],"type":"VEC3","bufferView":0,"byteOffset":5160},{"name":"nidoran_f_c-Mesh_5_texcoords","componentType":5126,"count":5,"min":[0.0729999989271164,0.9430000185966492],"max":[0.0729999989271164,0.9430000185966492],"type":"VEC2","bufferView":1,"byteOffset":3440},{"name":"nidoran_f_c-Mesh_5_indices","componentType":5123,"count":9,"min":[0],"max":[4],"type":"SCALAR","bufferView":2,"byteOffset":3276},{"name":"nidoran_f_c-Mesh_6_positions","componentType":5126,"count":12,"min":[-0.30375999212265015,2.091789960861206,-3.038680076599121],"max":[0.2704809904098511,2.269279956817627,-2.6202900409698486],"type":"VEC3","bufferView":0,"byteOffset":5220},{"name":"nidoran_f_c-Mesh_6_texcoords","componentType":5126,"count":12,"min":[0.015487000346183777,0.03125],"max":[0.984237015247345,1.151790976524353],"type":"VEC2","bufferView":1,"byteOffset":3480},{"name":"nidoran_f_c-Mesh_6_indices","componentType":5123,"count":24,"min":[0],"max":[11],"type":"SCALAR","bufferView":2,"byteOffset":3296},{"name":"nidoran_f_c-Mesh_7_positions","componentType":5126,"count":132,"min":[-2.2498700618743896,-1.3337899446487427,-4.000539779663086],"max":[2.2498700618743896,0.7436069846153259,-2.2564399242401123],"type":"VEC3","bufferView":0,"byteOffset":5364},{"name":"nidoran_f_c-Mesh_7_texcoords","componentType":5126,"count":132,"min":[0.06840799748897552,-0.043800000101327896],"max":[0.9829279780387878,1.0220240354537964],"type":"VEC2","bufferView":1,"byteOffset":3576},{"name":"nidoran_f_c-Mesh_7_indices","componentType":5123,"count":348,"min":[0],"max":[131],"type":"SCALAR","bufferView":2,"byteOffset":3344}],"asset":{"generator":"obj2gltf","version":"2.0"},"buffers":[{"name":"BR_Nidoran-Shiny01","byteLength":82288,"uri":"data:application/octet-stream;base64,"}],"bufferViews":[{"name":"bufferView_0","buffer":0,"byteLength":6948,"byteOffset":0,"byteStride":12,"target":34962},{"name":"bufferView_1","buffer":0,"byteLength":4632,"byteOffset":6948,"byteStride":8,"target":34962},{"name":"bufferView_2","buffer":0,"byteLength":4040,"byteOffset":11580,"target":34963},{"buffer":0,"byteOffset":15620,"byteLength":4114},{"buffer":0,"byteOffset":19734,"byteLength":8210},{"buffer":0,"byteOffset":27944,"byteLength":32786},{"buffer":0,"byteOffset":60730,"byteLength":5138},{"buffer":0,"byteOffset":65868,"byteLength":8210},{"buffer":0,"byteOffset":74078,"byteLength":8210}],"images":[{"name":"nidoran_f_c_1_0","mimeType":"image/x-tga","bufferView":3},{"name":"nidoran_f_c_1_2","mimeType":"image/x-tga","bufferView":4},{"name":"nidoran_f_c_1_3","mimeType":"image/x-tga","bufferView":5},{"name":"nidoran_f_c_1_4","mimeType":"image/x-tga","bufferView":6},{"name":"nidoran_f_c_1_5","mimeType":"image/x-tga","bufferView":7},{"name":"nidoran_f_c_1_6","mimeType":"image/x-tga","bufferView":8}],"materials":[{"name":"mat_0","pbrMetallicRoughness":{"baseColorTexture":{"index":0},"baseColorFactor":[1,1,1,1],"metallicFactor":0,"roughnessFactor":0.903921569},"emissiveFactor":[0,0,0],"alphaMode":"BLEND","doubleSided":true},{"name":"mat_1","pbrMetallicRoughness":{"baseColorTexture":{"index":0},"baseColorFactor":[1,1,1,1],"metallicFactor":0,"roughnessFactor":0.903921569},"emissiveFactor":[0,0,0],"alphaMode":"BLEND","doubleSided":true},{"name":"mat_2","pbrMetallicRoughness":{"baseColorTexture":{"index":1},"baseColorFactor":[1,1,1,1],"metallicFactor":0,"roughnessFactor":0.903921569},"emissiveFactor":[0,0,0],"alphaMode":"BLEND","doubleSided":true},{"name":"mat_3","pbrMetallicRoughness":{"baseColorTexture":{"index":2},"baseColorFactor":[1,1,1,1],"metallicFactor":0,"roughnessFactor":0.903921569},"emissiveFactor":[0,0,0],"alphaMode":"BLEND","doubleSided":true},{"name":"mat_4","pbrMetallicRoughness":{"baseColorTexture":{"index":3},"baseColorFactor":[1,1,1,1],"metallicFactor":0,"roughnessFactor":0.903921569},"emissiveFactor":[0,0,0],"alphaMode":"BLEND","doubleSided":true},{"name":"mat_5","pbrMetallicRoughness":{"baseColorFactor":[0.8,0.8,0.8,1],"metallicFactor":0,"roughnessFactor":0.903921569},"emissiveFactor":[0,0,0],"alphaMode":"OPAQUE","doubleSided":false},{"name":"mat_6","pbrMetallicRoughness":{"baseColorTexture":{"index":4},"baseColorFactor":[1,1,1,1],"metallicFactor":0,"roughnessFactor":0.903921569},"emissiveFactor":[0,0,0],"alphaMode":"BLEND","doubleSided":true},{"name":"mat_7","pbrMetallicRoughness":{"baseColorTexture":{"index":5},"baseColorFactor":[1,1,1,1],"metallicFactor":0,"roughnessFactor":0.903921569},"emissiveFactor":[0,0,0],"alphaMode":"BLEND","doubleSided":true}],"meshes":[{"name":"nidoran_f_c-Mesh","primitives":[{"attributes":{"POSITION":0,"TEXCOORD_0":1},"indices":2,"material":0,"mode":4},{"attributes":{"POSITION":3,"TEXCOORD_0":4},"indices":5,"material":1,"mode":4},{"attributes":{"POSITION":6,"TEXCOORD_0":7},"indices":8,"material":2,"mode":4},{"attributes":{"POSITION":9,"TEXCOORD_0":10},"indices":11,"material":3,"mode":4},{"attributes":{"POSITION":12,"TEXCOORD_0":13},"indices":14,"material":4,"mode":4},{"attributes":{"POSITION":15,"TEXCOORD_0":16},"indices":17,"material":5,"mode":4},{"attributes":{"POSITION":18,"TEXCOORD_0":19},"indices":20,"material":6,"mode":4},{"attributes":{"POSITION":21,"TEXCOORD_0":22},"indices":23,"material":7,"mode":4}]}],"nodes":[{"name":"nidoran_f_c","mesh":0}],"samplers":[{"wrapS":10497,"wrapT":10497}],"scene":0,"scenes":[{"nodes":[0]}],"textures":[{"name":"nidoran_f_c_1_0","sampler":0,"source":0},{"name":"nidoran_f_c_1_2","sampler":0,"source":1},{"name":"nidoran_f_c_1_3","sampler":0,"source":2},{"name":"nidoran_f_c_1_4","sampler":0,"source":3},{"name":"nidoran_f_c_1_5","sampler":0,"source":4},{"name":"nidoran_f_c_1_6","sampler":0,"source":5}]}