{"accessors":[{"name":"nidorina-Mesh_0_positions","componentType":5126,"count":434,"min":[-3.2104101181030273,-6.09181022644043,-8.02023983001709],"max":[3.2104101181030273,4.2464399337768555,-0.005274000111967325],"type":"VEC3","bufferView":0,"byteOffset":0},{"name":"nidorina-Mesh_0_texcoords","componentType":5126,"count":434,"min":[0,0],"max":[1,1],"type":"VEC2","bufferView":1,"byteOffset":0},{"name":"nidorina-Mesh_0_indices","componentType":5123,"count":1398,"min":[0],"max":[433],"type":"SCALAR","bufferView":2,"byteOffset":0},{"name":"nidorina-Mesh_1_positions","componentType":5126,"count":10,"min":[-2.5915000438690186,-1.245300054550171,-4.542089939117432],"max":[2.5915000438690186,-0.24265600740909576,-2.820230007171631],"type":"VEC3","bufferView":0,"byteOffset":5208},{"name":"nidorina-Mesh_1_texcoords","componentType":5126,"count":10,"min":[-1.8542200326919556,-0.8842200040817261],"max":[2.0843300819396973,2.0157299041748047],"type":"VEC2","bufferView":1,"byteOffset":3472},{"name":"nidorina-Mesh_1_indices","componentType":5123,"count":18,"min":[0],"max":[9],"type":"SCALAR","bufferView":2,"byteOffset":2796},{"name":"nidorina-Mesh_2_positions","componentType":5126,"count":26,"min":[-2.5915000438690186,-1.9730099439620972,-3.891479969024658],"max":[2.5915000438690186,1.6161799430847168,-0.6247000098228455],"type":"VEC3","bufferView":0,"byteOffset":5328},{"name":"nidorina-Mesh_2_texcoords","componentType":5126,"count":26,"min":[-0.13790400326251984,0.032618001103401184],"max":[1.1440600156784058,1.0240399837493896],"type":"VEC2","bufferView":1,"byteOffset":3552},{"name":"nidorina-Mesh_2_indices","componentType":5123,"count":102,"min":[0],"max":[25],"type":"SCALAR","bufferView":2,"byteOffset":2832},{"name":"nidorina-Mesh_3_positions","componentType":5126,"count":16,"min":[-1.9425100088119507,2.188159942626953,-6.773950099945068],"max":[1.9425100088119507,3.7617499828338623,-4.863999843597412],"type":"VEC3","bufferView":0,"byteOffset":5640},{"name":"nidorina-Mesh_3_texcoords","componentType":5126,"count":16,"min":[-0.011749999597668648,-0.546999990940094],"max":[0.2567499876022339,1.3359999656677246],"type":"VEC2","bufferView":1,"byteOffset":3760},{"name":"nidorina-Mesh_3_indices","componentType":5123,"count":48,"min":[0],"max":[15],"type":"SCALAR","bufferView":2,"byteOffset":3036},{"name":"nidorina-Mesh_4_positions","componentType":5126,"count":9,"min":[-1.8473700284957886,2.7423999309539795,-4.990940093994141],"max":[1.8473700284957886,4.466149806976318,-4.487239837646484],"type":"VEC3","bufferView":0,"byteOffset":5832},{"name":"nidorina-Mesh_4_texcoords","componentType":5126,"count":9,"min":[-0.049049001187086105,-0.08483999967575073],"max":[1.0402300357818604,0.953918993473053],"type":"VEC2","bufferView":1,"byteOffset":3888},{"name":"nidorina-Mesh_4_indices","componentType":5123,"count":24,"min":[0],"max":[8],"type":"SCALAR","bufferView":2,"byteOffset":3132},{"name":"nidorina-Mesh_5_positions","componentType":5126,"count":32,"min":[-3.2410800457000732,-1.4634300470352173,-4.633339881896973],"max":[3.2410800457000732,3.33951997756958,-0.01410599984228611],"type":"VEC3","bufferView":0,"byteOffset":5940},{"name":"nidorina-Mesh_5_texcoords","componentType":5126,"count":32,"min":[-0.02450600080192089,0.16471900045871735],"max":[1.0524250268936157,1.0285190343856812],"type":"VEC2","bufferView":1,"byteOffset":3960},{"name":"nidorina-Mesh_5_indices","componentType":5123,"count":72,"min":[0],"max":[31],"type":"SCALAR","bufferView":2,"byteOffset":3180},{"name":"nidorina-Mesh_6_positions","componentType":5126,"count":7,"min":[-1.8473700284957886,2.7423999309539795,-4.665669918060303],"max":[1.8473700284957886,4.2464399337768555,-4.440340042114258],"type":"VEC3","bufferView":0,"byteOffset":6324},{"name":"nidorina-Mesh_6_texcoords","componentType":5126,"count":7,"min":[-0.0303179994225502,0.6182550191879272],"max":[1.03534996509552,0.9956690073013306],"type":"VEC2","bufferView":1,"byteOffset":4216},{"name":"nidorina-Mesh_6_indices","componentType":5123,"count":18,"min":[0],"max":[6],"type":"SCALAR","bufferView":2,"byteOffset":3324},{"name":"nidorina-Mesh_7_positions","componentType":5126,"count":48,"min":[-3.2104101181030273,-2.11299991607666,-8.02023983001709],"max":[3.2104101181030273,1.8328800201416016,-4.740640163421631],"type":"VEC3","bufferView":0,"byteOffset":6408},{"name":"nidorina-Mesh_7_texcoords","componentType":5126,"count":48,"min":[0.06326600164175034,-0.24632999300956726],"max":[1.1127099990844727,1.044273018836975],"type":"VEC2","bufferView":1,"byteOffset":4272},{"name":"nidorina-Mesh_7_indices","componentType":5123,"count":102,"min":[0],"max":[47],"type":"SCALAR","bufferView":2,"byteOffset":3360},{"name":"nidorina-Mesh_8_positions","componentType":5126,"count":26,"min":[-1.0535999536514282,3.4513299465179443,-5.608429908752441],"max":[1.0535999536514282,4.697500228881836,-4.369309902191162],"type":"VEC3","bufferView":0,"byteOffset":6984},{"name":"nidorina-Mesh_8_texcoords","componentType":5126,"count":26,"min":[0.034244999289512634,0.013195999898016453],"max":[0.9470779895782471,1.2446630001068115],"type":"VEC2","bufferView":1,"byteOffset":4656},{"name":"nidorina-Mesh_8_indices","componentType":5123,"count":54,"min":[0],"max":[25],"type":"SCALAR","bufferView":2,"byteOffset":3564},{"name":"nidorina-Mesh_9_positions","componentType":5126,"count":42,"min":[-2.244070053100586,1.1817100048065186,-1.753350019454956],"max":[2.244070053100586,1.8444499969482422,-0.7894799709320068],"type":"VEC3","bufferView":0,"byteOffset":7296},{"name":"nidorina-Mesh_9_texcoords","componentType":5126,"count":42,"min":[-0.05784200131893158,-0.6152499914169312],"max":[1.0177600383758545,1.9088950157165527],"type":"VEC2","bufferView":1,"byteOffset":4864},{"name":"nidorina-Mesh_9_indices","componentType":5123,"count":90,"min":[0],"max":[41],"type":"SCALAR","bufferView":2,"byteOffset":3672},{"name":"nidorina-Mesh_10_positions","componentType":5126,"count":50,"min":[-3.260930061340332,-3.164370059967041,-4.316440105438232],"max":[3.260930061340332,-0.18653999269008636,0.0039029999170452356],"type":"VEC3","bufferView":0,"byteOffset":7800},{"name":"nidorina-Mesh_10_texcoords","componentType":5126,"count":50,"min":[-0.4788709878921509,-0.12177000194787979],"max":[1.8116799592971802,1.3311409950256348],"type":"VEC2","bufferView":1,"byteOffset":5200},{"name":"nidorina-Mesh_10_indices","componentType":5123,"count":150,"min":[0],"max":[49],"type":"SCALAR","bufferView":2,"byteOffset":3852},{"name":"nidorina-Mesh_11_positions","componentType":5126,"count":12,"min":[-2.87893009185791,-2.054460048675537,-0.02252900041639805],"max":[2.87893009185791,-0.7350209951400757,0.0039029999170452356],"type":"VEC3","bufferView":0,"byteOffset":8400},{"name":"nidorina-Mesh_11_texcoords","componentType":5126,"count":12,"min":[0.0015910000074654818,-0.14872999489307404],"max":[0.9920139908790588,1.0856430530548096],"type":"VEC2","bufferView":1,"byteOffset":5600},{"name":"nidorina-Mesh_11_indices","componentType":5123,"count":24,"min":[0],"max":[11],"type":"SCALAR","bufferView":2,"byteOffset":4152}],"asset":{"generator":"obj2gltf","version":"2.0"},"buffers":[{"name":"BR_Nidorina-Shiny01","byteLength":100896,"uri":"data:application/octet-stream;base64,"}],"bufferViews":[{"name":"bufferView_0","buffer":0,"byteLength":8544,"byteOffset":0,"byteStride":12,"target":34962},{"name":"bufferView_1","buffer":0,"byteLength":5696,"byteOffset":8544,"byteStride":8,"target":34962},{"name":"bufferView_2","buffer":0,"byteLength":4200,"byteOffset":14240,"target":34963},{"buffer":0,"byteOffset":18440,"byteLength":82},{"buffer":0,"byteOffset":18522,"byteLength":4114},{"buffer":0,"byteOffset":22636,"byteLength":4114},{"buffer":0,"byteOffset":26750,"byteLength":32786},{"buffer":0,"byteOffset":59536,"byteLength":5138},{"buffer":0,"byteOffset":64674,"byteLength":274},{"buffer":0,"byteOffset":64948,"byteLength":5138},{"buffer":0,"byteOffset":70086,"byteLength":8210},{"buffer":0,"byteOffset":78296,"byteLength":8210},{"buffer":0,"byteOffset":86506,"byteLength":2066},{"buffer":0,"byteOffset":88572,"byteLength":8210},{"buffer":0,"byteOffset":96782,"byteLength":4114}],"images":[{"name":"nidorina_1_0","mimeType":"image/x-tga","bufferView":3},{"name":"nidorina_1_1","mimeType":"image/x-tga","bufferView":4},{"name":"nidorina_1_2","mimeType":"image/x-tga","bufferView":5},{"name":"nidorina_1_3","mimeType":"image/x-tga","bufferView":6},{"name":"nidorina_1_4","mimeType":"image/x-tga","bufferView":7},{"name":"nidorina_1_5","mimeType":"image/x-tga","bufferView":8},{"name":"nidorina_1_6","mimeType":"image/x-tga","bufferView":9},{"name":"nidorina_1_7","mimeType":"image/x-tga","bufferView":10},{"name":"nidorina_1_8","mimeType":"image/x-tga","bufferView":11},{"name":"nidorina_1_9","mimeType":"image/x-tga","bufferView":12},{"name":"nidorina_1_10","mimeType":"image/x-tga","bufferView":13},{"name":"nidorina_1_11","mimeType":"image/x-tga","bufferView":14}],"materials":[{"name":"mat_0","pbrMetallicRoughness":{"baseColorTexture":{"index":0},"baseColorFactor":[1,1,1,1],"metallicFactor":0,"roughnessFactor":0.903921569},"emissiveFactor":[0,0,0],"alphaMode":"BLEND","doubleSided":true},{"name":"mat_1","pbrMetallicRoughness":{"baseColorTexture":{"index":1},"baseColorFactor":[1,1,1,1],"metallicFactor":0,"roughnessFactor":0.903921569},"emissiveFactor":[0,0,0],"alphaMode":"BLEND","doubleSided":true},{"name":"mat_2","pbrMetallicRoughness":{"baseColorTexture":{"index":2},"baseColorFactor":[1,1,1,1],"metallicFactor":0,"roughnessFactor":0.903921569},"emissiveFactor":[0,0,0],"alphaMode":"BLEND","doubleSided":true},{"name":"mat_3","pbrMetallicRoughness":{"baseColorTexture":{"index":3},"baseColorFactor":[1,1,1,1],"metallicFactor":0,"roughnessFactor":0.903921569},"emissiveFactor":[0,0,0],"alphaMode":"BLEND","doubleSided":true},{"name":"mat_4","pbrMetallicRoughness":{"baseColorTexture":{"index":4},"baseColorFactor":[1,1,1,1],"metallicFactor":0,"roughnessFactor":0.903921569},"emissiveFactor":[0,0,0],"alphaMode":"BLEND","doubleSided":true},{"name":"mat_5","pbrMetallicRoughness":{"baseColorTexture":{"index":5},"baseColorFactor":[1,1,1,1],"metallicFactor":0,"roughnessFactor":0.903921569},"emissiveFactor":[0,0,0],"alphaMode":"BLEND","doubleSided":true},{"name":"mat_6","pbrMetallicRoughness":{"baseColorTexture":{"index":6},"baseColorFactor":[1,1,1,1],"metallicFactor":0,"roughnessFactor":0.903921569},"emissiveFactor":[0,0,0],"alphaMode":"BLEND","doubleSided":true},{"name":"mat_7","pbrMetallicRoughness":{"baseColorTexture":{"index":7},"baseColorFactor":[1,1,1,1],"metallicFactor":0,"roughnessFactor":0.903921569},"emissiveFactor":[0,0,0],"alphaMode":"BLEND","doubleSided":true},{"name":"mat_8","pbrMetallicRoughness":{"baseColorTexture":{"index":8},"baseColorFactor":[1,1,1,1],"metallicFactor":0,"roughnessFactor":0.903921569},"emissiveFactor":[0,0,0],"alphaMode":"BLEND","doubleSided":true},{"name":"mat_9","pbrMetallicRoughness":{"baseColorTexture":{"index":9},"baseColorFactor":[1,1,1,1],"metallicFactor":0,"roughnessFactor":0.903921569},"emissiveFactor":[0,0,0],"alphaMode":"BLEND","doubleSided":true},{"name":"mat_10","pbrMetallicRoughness":{"baseColorTexture":{"index":10},"baseColorFactor":[1,1,1,1],"metallicFactor":0,"roughnessFactor":0.903921569},"emissiveFactor":[0,0,0],"alphaMode":"BLEND","doubleSided":true},{"name":"mat_11","pbrMetallicRoughness":{"baseColorTexture":{"index":11},"baseColorFactor":[1,1,1,1],"metallicFactor":0,"roughnessFactor":0.903921569},"emissiveFactor":[0,0,0],"alphaMode":"BLEND","doubleSided":true}],"meshes":[{"name":"nidorina-Mesh","primitives":[{"attributes":{"POSITION":0,"TEXCOORD_0":1},"indices":2,"material":0,"mode":4},{"attributes":{"POSITION":3,"TEXCOORD_0":4},"indices":5,"material":1,"mode":4},{"attributes":{"POSITION":6,"TEXCOORD_0":7},"indices":8,"material":2,"mode":4},{"attributes":{"POSITION":9,"TEXCOORD_0":10},"indices":11,"material":3,"mode":4},{"attributes":{"POSITION":12,"TEXCOORD_0":13},"indices":14,"material":4,"mode":4},{"attributes":{"POSITION":15,"TEXCOORD_0":16},"indices":17,"material":5,"mode":4},{"attributes":{"POSITION":18,"TEXCOORD_0":19},"indices":20,"material":6,"mode":4},{"attributes":{"POSITION":21,"TEXCOORD_0":22},"indices":23,"material":7,"mode":4},{"attributes":{"POSITION":24,"TEXCOORD_0":25},"indices":26,"material":8,"mode":4},{"attributes":{"POSITION":27,"TEXCOORD_0":28},"indices":29,"material":9,"mode":4},{"attributes":{"POSITION":30,"TEXCOORD_0":31},"indices":32,"material":10,"mode":4},{"attributes":{"POSITION":33,"TEXCOORD_0":34},"indices":35,"material":11,"mode":4}]}],"nodes":[{"name":"nidorina","mesh":0}],"samplers":[{"wrapS":10497,"wrapT":10497}],"scene":0,"scenes":[{"nodes":[0]}],"textures":[{"name":"nidorina_1_0","sampler":0,"source":0},{"name":"nidorina_1_1","sampler":0,"source":1},{"name":"nidorina_1_2","sampler":0,"source":2},{"name":"nidorina_1_3","sampler":0,"source":3},{"name":"nidorina_1_4","sampler":0,"source":4},{"name":"nidorina_1_5","sampler":0,"source":5},{"name":"nidorina_1_6","sampler":0,"source":6},{"name":"nidorina_1_7","sampler":0,"source":7},{"name":"nidorina_1_8","sampler":0,"source":8},{"name":"nidorina_1_9","sampler":0,"source":9},{"name":"nidorina_1_10","sampler":0,"source":10},{"name":"nidorina_1_11","sampler":0,"source":11}]}