{"accessors":[{"name":"Nidorina_1_0_positions","componentType":5126,"count":468,"min":[-12.829400062561035,42.85380172729492,21.127099990844727],"max":[12.829400062561035,55.702999114990234,35.31899642944336],"type":"VEC3","bufferView":0,"byteOffset":0},{"name":"Nidorina_1_0_normals","componentType":5126,"count":468,"min":[0.5777260661125183,-0.3449290990829468,0.0768509954214096],"max":[0.9854219555854797,0.5825138688087463,0.8103960752487183],"type":"VEC3","bufferView":1,"byteOffset":0},{"name":"Nidorina_1_0_texcoords","componentType":5126,"count":468,"min":[0.005200999788939953,-0.9870700240135193],"max":[0.49480000138282776,-0.7920399904251099],"type":"VEC2","bufferView":2,"byteOffset":0},{"name":"Nidorina_1_0_indices","componentType":5123,"count":468,"min":[0],"max":[467],"type":"SCALAR","bufferView":3,"byteOffset":0},{"name":"Nidorina_1_1_positions","componentType":5126,"count":14478,"min":[-31.089801788330078,-0.000011000000085914508,-52.045196533203125],"max":[31.08979606628418,70.87550354003906,39.996891021728516],"type":"VEC3","bufferView":0,"byteOffset":5616},{"name":"Nidorina_1_1_normals","componentType":5126,"count":14478,"min":[-0.999376118183136,-0.9999781250953674,-0.9896121025085449],"max":[0.9993760585784912,0.9990453124046326,0.9952008128166199],"type":"VEC3","bufferView":1,"byteOffset":5616},{"name":"Nidorina_1_1_texcoords","componentType":5126,"count":14478,"min":[0,0.004809999838471413],"max":[1,0.9950590133666992],"type":"VEC2","bufferView":2,"byteOffset":3744},{"name":"Nidorina_1_1_indices","componentType":5123,"count":14478,"min":[0],"max":[14477],"type":"SCALAR","bufferView":3,"byteOffset":936},{"name":"Nidorina_1_2_positions","componentType":5126,"count":468,"min":[-12.917799949645996,42.89070129394531,21.15589714050293],"max":[12.917799949645996,55.738399505615234,35.339393615722656],"type":"VEC3","bufferView":0,"byteOffset":179352},{"name":"Nidorina_1_2_normals","componentType":5126,"count":468,"min":[-0.9993760585784912,-0.9953855872154236,-0.45524904131889343],"max":[0.6777540445327759,0.7465962171554565,0.6771643161773682],"type":"VEC3","bufferView":1,"byteOffset":179352},{"name":"Nidorina_1_2_texcoords","componentType":5126,"count":468,"min":[0.020800000056624413,-0.9482799768447876],"max":[0.9790080189704895,-0.16816000640392303],"type":"VEC2","bufferView":2,"byteOffset":119568},{"name":"Nidorina_1_2_indices","componentType":5123,"count":468,"min":[0],"max":[467],"type":"SCALAR","bufferView":3,"byteOffset":29892}],"asset":{"generator":"obj2gltf","version":"2.0"},"buffers":[{"name":"XY_Nidorina","byteLength":628536,"uri":"data:application/octet-stream;base64,"}],"bufferViews":[{"name":"bufferView_0","buffer":0,"byteLength":184968,"byteOffset":0,"byteStride":12,"target":34962},{"name":"bufferView_1","buffer":0,"byteLength":184968,"byteOffset":184968,"byteStride":12,"target":34962},{"name":"bufferView_2","buffer":0,"byteLength":123312,"byteOffset":369936,"byteStride":8,"target":34962},{"name":"bufferView_3","buffer":0,"byteLength":30828,"byteOffset":493248,"target":34963},{"buffer":0,"byteOffset":524076,"byteLength":28932},{"buffer":0,"byteOffset":553008,"byteLength":72507},{"buffer":0,"byteOffset":625515,"byteLength":3020}],"images":[{"name":"pm0030_00_Eye1","mimeType":"image/png","bufferView":4},{"name":"pm0030_00_Body1","mimeType":"image/png","bufferView":5},{"name":"pm0030_00_Iris1","mimeType":"image/png","bufferView":6}],"materials":[{"name":"Material__10","pbrMetallicRoughness":{"baseColorTexture":{"index":0},"baseColorFactor":[1,1,1,1],"metallicFactor":0,"roughnessFactor":0.998},"emissiveFactor":[0,0,0],"alphaMode":"OPAQUE","doubleSided":false},{"name":"Material__11","pbrMetallicRoughness":{"baseColorTexture":{"index":1},"baseColorFactor":[1,1,1,1],"metallicFactor":0,"roughnessFactor":0.998},"emissiveFactor":[0,0,0],"alphaMode":"OPAQUE","doubleSided":false},{"name":"Material__12","pbrMetallicRoughness":{"baseColorTexture":{"index":2},"baseColorFactor":[1,1,1,1],"metallicFactor":0,"roughnessFactor":0.998},"emissiveFactor":[0,0,0],"alphaMode":"OPAQUE","doubleSided":false}],"meshes":[{"name":"Nidorina_1","primitives":[{"attributes":{"POSITION":0,"NORMAL":1,"TEXCOORD_0":2},"indices":3,"material":0,"mode":4},{"attributes":{"POSITION":4,"NORMAL":5,"TEXCOORD_0":6},"indices":7,"material":1,"mode":4},{"attributes":{"POSITION":8,"NORMAL":9,"TEXCOORD_0":10},"indices":11,"material":2,"mode":4}]}],"nodes":[{"name":"Nidorina","mesh":0}],"samplers":[{"wrapS":10497,"wrapT":10497}],"scene":0,"scenes":[{"nodes":[0]}],"textures":[{"name":"pm0030_00_Eye1","sampler":0,"source":0},{"name":"pm0030_00_Body1","sampler":0,"source":1},{"name":"pm0030_00_Iris1","sampler":0,"source":2}]}