{"accessors":[{"name":"nidoqueen_c-Mesh_0_positions","componentType":5126,"count":27,"min":[-2.469630002975464,-1.5396499633789062,-3.491849899291992],"max":[2.5264699459075928,3.196500062942505,-0.19264499843120575],"type":"VEC3","bufferView":0,"byteOffset":0},{"name":"nidoqueen_c-Mesh_0_texcoords","componentType":5126,"count":27,"min":[0.11313600093126297,0.09318699687719345],"max":[0.8895159959793091,1.0920000076293945],"type":"VEC2","bufferView":1,"byteOffset":0},{"name":"nidoqueen_c-Mesh_0_indices","componentType":5123,"count":66,"min":[0],"max":[26],"type":"SCALAR","bufferView":2,"byteOffset":0},{"name":"nidoqueen_c-Mesh_1_positions","componentType":5126,"count":10,"min":[-3.0380499362945557,-2.447920083999634,-4.230279922485352],"max":[2.2699201107025146,0.6931290030479431,-1.0674999952316284],"type":"VEC3","bufferView":0,"byteOffset":324},{"name":"nidoqueen_c-Mesh_1_texcoords","componentType":5126,"count":10,"min":[0.16159699857234955,0.054166000336408615],"max":[0.9339110255241394,0.9676629900932312],"type":"VEC2","bufferView":1,"byteOffset":216},{"name":"nidoqueen_c-Mesh_1_indices","componentType":5123,"count":18,"min":[0],"max":[9],"type":"SCALAR","bufferView":2,"byteOffset":132},{"name":"nidoqueen_c-Mesh_2_positions","componentType":5126,"count":164,"min":[-4.511209964752197,-2.447920083999634,-8.823410034179688],"max":[5.204520225524902,6.68271017074585,-1.7790700197219849],"type":"VEC3","bufferView":0,"byteOffset":444},{"name":"nidoqueen_c-Mesh_2_texcoords","componentType":5126,"count":164,"min":[0,0.019999999552965164],"max":[1,1.0199999809265137],"type":"VEC2","bufferView":1,"byteOffset":296},{"name":"nidoqueen_c-Mesh_2_indices","componentType":5123,"count":573,"min":[0],"max":[163],"type":"SCALAR","bufferView":2,"byteOffset":168},{"name":"nidoqueen_c-Mesh_3_positions","componentType":5126,"count":12,"min":[-2.7683401107788086,-4.684410095214844,-4.104579925537109],"max":[1.102329969406128,-0.7189850211143494,-0.19264499843120575],"type":"VEC3","bufferView":0,"byteOffset":2412},{"name":"nidoqueen_c-Mesh_3_texcoords","componentType":5126,"count":12,"min":[0.03333299979567528,0.031817998737096786],"max":[0.9761899709701538,1],"type":"VEC2","bufferView":1,"byteOffset":1608},{"name":"nidoqueen_c-Mesh_3_indices","componentType":5123,"count":36,"min":[0],"max":[11],"type":"SCALAR","bufferView":2,"byteOffset":1316},{"name":"nidoqueen_c-Mesh_4_positions","componentType":5126,"count":12,"min":[-3.143699884414673,-6.74901008605957,-3.6802101135253906],"max":[-0.4424290060997009,-3.785569906234741,-1.1047999858856201],"type":"VEC3","bufferView":0,"byteOffset":2556},{"name":"nidoqueen_c-Mesh_4_texcoords","componentType":5126,"count":12,"min":[0.023809999227523804,0.03409099951386452],"max":[0.9742890000343323,1],"type":"VEC2","bufferView":1,"byteOffset":1704},{"name":"nidoqueen_c-Mesh_4_indices","componentType":5123,"count":36,"min":[0],"max":[11],"type":"SCALAR","bufferView":2,"byteOffset":1388},{"name":"nidoqueen_c-Mesh_5_positions","componentType":5126,"count":7,"min":[-3.547379970550537,-8.371230125427246,-3.4389100074768066],"max":[-1.949049949645996,-6.10306978225708,-1.7916100025177002],"type":"VEC3","bufferView":0,"byteOffset":2700},{"name":"nidoqueen_c-Mesh_5_texcoords","componentType":5126,"count":7,"min":[0.08333300054073334,0.04666699841618538],"max":[0.9166669845581055,0.9936360120773315],"type":"VEC2","bufferView":1,"byteOffset":1800},{"name":"nidoqueen_c-Mesh_5_indices","componentType":5123,"count":18,"min":[0],"max":[6],"type":"SCALAR","bufferView":2,"byteOffset":1460},{"name":"nidoqueen_c-Mesh_6_positions","componentType":5126,"count":80,"min":[-1.9365999698638916,-4.095139980316162,-12.49590015411377],"max":[0.9150609970092773,5.978789806365967,-2.952929973602295],"type":"VEC3","bufferView":0,"byteOffset":2784},{"name":"nidoqueen_c-Mesh_6_texcoords","componentType":5126,"count":80,"min":[-0.006000000052154064,0.020646000280976295],"max":[1,1.0181820392608643],"type":"VEC2","bufferView":1,"byteOffset":1856},{"name":"nidoqueen_c-Mesh_6_indices","componentType":5123,"count":126,"min":[0],"max":[79],"type":"SCALAR","bufferView":2,"byteOffset":1496},{"name":"nidoqueen_c-Mesh_7_positions","componentType":5126,"count":15,"min":[-2.0657799243927,2.7577099800109863,-6.148799896240234],"max":[2.7481000423431396,4.418580055236816,-3.2097299098968506],"type":"VEC3","bufferView":0,"byteOffset":3744},{"name":"nidoqueen_c-Mesh_7_texcoords","componentType":5126,"count":15,"min":[0.009739999659359455,-0.020190000534057617],"max":[0.9971140027046204,0.9940850138664246],"type":"VEC2","bufferView":1,"byteOffset":2496},{"name":"nidoqueen_c-Mesh_7_indices","componentType":5123,"count":48,"min":[0],"max":[14],"type":"SCALAR","bufferView":2,"byteOffset":1748},{"name":"nidoqueen_c-Mesh_8_positions","componentType":5126,"count":17,"min":[-1.9642599821090698,1.7922099828720093,-8.31011962890625],"max":[2.2121400833129883,4.335619926452637,-4.051990032196045],"type":"VEC3","bufferView":0,"byteOffset":3924},{"name":"nidoqueen_c-Mesh_8_texcoords","componentType":5126,"count":17,"min":[-0.22794699668884277,-0.25084999203681946],"max":[1.2272700071334839,1.3210229873657227],"type":"VEC2","bufferView":1,"byteOffset":2616},{"name":"nidoqueen_c-Mesh_8_indices","componentType":5123,"count":36,"min":[0],"max":[16],"type":"SCALAR","bufferView":2,"byteOffset":1844},{"name":"nidoqueen_c-Mesh_9_positions","componentType":5126,"count":186,"min":[-4.791250228881836,-2.106110095977783,-11.563699722290039],"max":[4.820980072021484,7.096169948577881,0.034999001771211624],"type":"VEC3","bufferView":0,"byteOffset":4128},{"name":"nidoqueen_c-Mesh_9_texcoords","componentType":5126,"count":186,"min":[0,0],"max":[1,1],"type":"VEC2","bufferView":1,"byteOffset":2752},{"name":"nidoqueen_c-Mesh_9_indices","componentType":5123,"count":669,"min":[0],"max":[185],"type":"SCALAR","bufferView":2,"byteOffset":1916},{"name":"nidoqueen_c-Mesh_10_positions","componentType":5126,"count":10,"min":[-1.6712900400161743,3.2517099380493164,-9.935680389404297],"max":[2.2252399921417236,7.096169948577881,-8.865300178527832],"type":"VEC3","bufferView":0,"byteOffset":6360},{"name":"nidoqueen_c-Mesh_10_texcoords","componentType":5126,"count":10,"min":[0.0014230000087991357,0.0034719998948276043],"max":[0.994970977306366,0.7591710090637207],"type":"VEC2","bufferView":1,"byteOffset":4240},{"name":"nidoqueen_c-Mesh_10_indices","componentType":5123,"count":27,"min":[0],"max":[9],"type":"SCALAR","bufferView":2,"byteOffset":3256},{"name":"nidoqueen_c-Mesh_11_positions","componentType":5126,"count":12,"min":[-1.3931599855422974,3.3178300857543945,-11.136199951171875],"max":[2.004309892654419,5.830210208892822,-9.377559661865234],"type":"VEC3","bufferView":0,"byteOffset":6480},{"name":"nidoqueen_c-Mesh_11_texcoords","componentType":5126,"count":12,"min":[0.25699999928474426,0.03571400046348572],"max":[0.7645090222358704,0.29776498675346375],"type":"VEC2","bufferView":1,"byteOffset":4320},{"name":"nidoqueen_c-Mesh_11_indices","componentType":5123,"count":24,"min":[0],"max":[11],"type":"SCALAR","bufferView":2,"byteOffset":3312},{"name":"nidoqueen_c-Mesh_12_positions","componentType":5126,"count":7,"min":[-0.23529599606990814,5.531610012054443,-10.62969970703125],"max":[1.505139946937561,7.096169948577881,-9.81758975982666],"type":"VEC3","bufferView":0,"byteOffset":6624},{"name":"nidoqueen_c-Mesh_12_texcoords","componentType":5126,"count":7,"min":[0.009042000398039818,0.22356200218200684],"max":[0.7194380164146423,0.9627339839935303],"type":"VEC2","bufferView":1,"byteOffset":4416},{"name":"nidoqueen_c-Mesh_12_indices","componentType":5123,"count":12,"min":[0],"max":[6],"type":"SCALAR","bufferView":2,"byteOffset":3360},{"name":"nidoqueen_c-Mesh_13_positions","componentType":5126,"count":5,"min":[-0.5714870095252991,1.1931999921798706,-11.658499717712402],"max":[0.3758220076560974,2.5508298873901367,-10.4266996383667],"type":"VEC3","bufferView":0,"byteOffset":6708},{"name":"nidoqueen_c-Mesh_13_texcoords","componentType":5126,"count":5,"min":[0.18515700101852417,0.05428599938750267],"max":[0.5348330140113831,0.7117980122566223],"type":"VEC2","bufferView":1,"byteOffset":4472},{"name":"nidoqueen_c-Mesh_13_indices","componentType":5123,"count":12,"min":[0],"max":[4],"type":"SCALAR","bufferView":2,"byteOffset":3384},{"name":"nidoqueen_c-Mesh_14_positions","componentType":5126,"count":16,"min":[-1.6712900400161743,3.074280023574829,-9.297789573669434],"max":[2.2245500087738037,6.954790115356445,-7.3561601638793945],"type":"VEC3","bufferView":0,"byteOffset":6768},{"name":"nidoqueen_c-Mesh_14_texcoords","componentType":5126,"count":16,"min":[0,0],"max":[1,1],"type":"VEC2","bufferView":1,"byteOffset":4512},{"name":"nidoqueen_c-Mesh_14_indices","componentType":5123,"count":54,"min":[0],"max":[15],"type":"SCALAR","bufferView":2,"byteOffset":3408},{"name":"nidoqueen_c-Mesh_15_positions","componentType":5126,"count":163,"min":[-4.821139812469482,-2.106110095977783,-11.148200035095215],"max":[5.143449783325195,6.954790115356445,0.034999001771211624],"type":"VEC3","bufferView":0,"byteOffset":6960},{"name":"nidoqueen_c-Mesh_15_texcoords","componentType":5126,"count":163,"min":[-0.09101700037717819,-0.048980001360177994],"max":[1.002810001373291,1.133694052696228],"type":"VEC2","bufferView":1,"byteOffset":4640},{"name":"nidoqueen_c-Mesh_15_indices","componentType":5123,"count":324,"min":[0],"max":[162],"type":"SCALAR","bufferView":2,"byteOffset":3516}],"asset":{"generator":"obj2gltf","version":"2.0"},"buffers":[{"name":"BR_Nidoqueen-Shiny01","byteLength":88160,"uri":"data:application/octet-stream;base64,"}],"bufferViews":[{"name":"bufferView_0","buffer":0,"byteLength":8916,"byteOffset":0,"byteStride":12,"target":34962},{"name":"bufferView_1","buffer":0,"byteLength":5944,"byteOffset":8916,"byteStride":8,"target":34962},{"name":"bufferView_2","buffer":0,"byteLength":4164,"byteOffset":14860,"target":34963},{"buffer":0,"byteOffset":19024,"byteLength":2066},{"buffer":0,"byteOffset":21090,"byteLength":4114},{"buffer":0,"byteOffset":25204,"byteLength":4114},{"buffer":0,"byteOffset":29318,"byteLength":4114},{"buffer":0,"byteOffset":33432,"byteLength":4114},{"buffer":0,"byteOffset":37546,"byteLength":4114},{"buffer":0,"byteOffset":41660,"byteLength":4114},{"buffer":0,"byteOffset":45774,"byteLength":4114},{"buffer":0,"byteOffset":49888,"byteLength":1042},{"buffer":0,"byteOffset":50930,"byteLength":274},{"buffer":0,"byteOffset":51204,"byteLength":2066},{"buffer":0,"byteOffset":53270,"byteLength":24594},{"buffer":0,"byteOffset":77864,"byteLength":4114},{"buffer":0,"byteOffset":81978,"byteLength":2066},{"buffer":0,"byteOffset":84044,"byteLength":4114}],"images":[{"name":"nidoqueen_c_1_0","mimeType":"image/x-tga","bufferView":3},{"name":"nidoqueen_c_1_1","mimeType":"image/x-tga","bufferView":4},{"name":"nidoqueen_c_1_2","mimeType":"image/x-tga","bufferView":5},{"name":"nidoqueen_c_1_3","mimeType":"image/x-tga","bufferView":6},{"name":"nidoqueen_c_1_4","mimeType":"image/x-tga","bufferView":7},{"name":"nidoqueen_c_1_5","mimeType":"image/x-tga","bufferView":8},{"name":"nidoqueen_c_1_6","mimeType":"image/x-tga","bufferView":9},{"name":"nidoqueen_c_1_7","mimeType":"image/x-tga","bufferView":10},{"name":"nidoqueen_c_1_8","mimeType":"image/x-tga","bufferView":11},{"name":"nidoqueen_c_1_9","mimeType":"image/x-tga","bufferView":12},{"name":"nidoqueen_c_1_10","mimeType":"image/x-tga","bufferView":13},{"name":"nidoqueen_c_1_11","mimeType":"image/x-tga","bufferView":14},{"name":"nidoqueen_c_1_12","mimeType":"image/x-tga","bufferView":15},{"name":"nidoqueen_c_1_13","mimeType":"image/x-tga","bufferView":16},{"name":"nidoqueen_c_1_14","mimeType":"image/x-tga","bufferView":17}],"materials":[{"name":"mat_0","pbrMetallicRoughness":{"baseColorTexture":{"index":0},"baseColorFactor":[1,1,1,1],"metallicFactor":0,"roughnessFactor":0.903921569},"emissiveFactor":[0,0,0],"alphaMode":"BLEND","doubleSided":true},{"name":"mat_1","pbrMetallicRoughness":{"baseColorTexture":{"index":1},"baseColorFactor":[1,1,1,1],"metallicFactor":0,"roughnessFactor":0.903921569},"emissiveFactor":[0,0,0],"alphaMode":"BLEND","doubleSided":true},{"name":"mat_2","pbrMetallicRoughness":{"baseColorTexture":{"index":2},"baseColorFactor":[1,1,1,1],"metallicFactor":0,"roughnessFactor":0.903921569},"emissiveFactor":[0,0,0],"alphaMode":"BLEND","doubleSided":true},{"name":"mat_3","pbrMetallicRoughness":{"baseColorTexture":{"index":3},"baseColorFactor":[1,1,1,1],"metallicFactor":0,"roughnessFactor":0.903921569},"emissiveFactor":[0,0,0],"alphaMode":"BLEND","doubleSided":true},{"name":"mat_4","pbrMetallicRoughness":{"baseColorTexture":{"index":4},"baseColorFactor":[1,1,1,1],"metallicFactor":0,"roughnessFactor":0.903921569},"emissiveFactor":[0,0,0],"alphaMode":"BLEND","doubleSided":true},{"name":"mat_5","pbrMetallicRoughness":{"baseColorTexture":{"index":5},"baseColorFactor":[1,1,1,1],"metallicFactor":0,"roughnessFactor":0.903921569},"emissiveFactor":[0,0,0],"alphaMode":"BLEND","doubleSided":true},{"name":"mat_6","pbrMetallicRoughness":{"baseColorTexture":{"index":6},"baseColorFactor":[1,1,1,1],"metallicFactor":0,"roughnessFactor":0.903921569},"emissiveFactor":[0,0,0],"alphaMode":"BLEND","doubleSided":true},{"name":"mat_7","pbrMetallicRoughness":{"baseColorTexture":{"index":7},"baseColorFactor":[1,1,1,1],"metallicFactor":0,"roughnessFactor":0.903921569},"emissiveFactor":[0,0,0],"alphaMode":"BLEND","doubleSided":true},{"name":"mat_8","pbrMetallicRoughness":{"baseColorTexture":{"index":8},"baseColorFactor":[1,1,1,1],"metallicFactor":0,"roughnessFactor":0.903921569},"emissiveFactor":[0,0,0],"alphaMode":"BLEND","doubleSided":true},{"name":"mat_9","pbrMetallicRoughness":{"baseColorTexture":{"index":9},"baseColorFactor":[1,1,1,1],"metallicFactor":0,"roughnessFactor":0.903921569},"emissiveFactor":[0,0,0],"alphaMode":"BLEND","doubleSided":true},{"name":"mat_10","pbrMetallicRoughness":{"baseColorTexture":{"index":10},"baseColorFactor":[1,1,1,1],"metallicFactor":0,"roughnessFactor":0.903921569},"emissiveFactor":[0,0,0],"alphaMode":"BLEND","doubleSided":true},{"name":"mat_11","pbrMetallicRoughness":{"baseColorTexture":{"index":11},"baseColorFactor":[1,1,1,1],"metallicFactor":0,"roughnessFactor":0.903921569},"emissiveFactor":[0,0,0],"alphaMode":"BLEND","doubleSided":true},{"name":"mat_12","pbrMetallicRoughness":{"baseColorTexture":{"index":12},"baseColorFactor":[1,1,1,1],"metallicFactor":0,"roughnessFactor":0.903921569},"emissiveFactor":[0,0,0],"alphaMode":"BLEND","doubleSided":true},{"name":"mat_13","pbrMetallicRoughness":{"baseColorTexture":{"index":13},"baseColorFactor":[1,1,1,1],"metallicFactor":0,"roughnessFactor":0.903921569},"emissiveFactor":[0,0,0],"alphaMode":"BLEND","doubleSided":true},{"name":"mat_14","pbrMetallicRoughness":{"baseColorTexture":{"index":14},"baseColorFactor":[1,1,1,1],"metallicFactor":0,"roughnessFactor":0.903921569},"emissiveFactor":[0,0,0],"alphaMode":"BLEND","doubleSided":true},{"name":"mat_14_NONE","pbrMetallicRoughness":{"baseColorTexture":{"index":14},"baseColorFactor":[1,1,1,1],"metallicFactor":0,"roughnessFactor":0.903921569},"emissiveFactor":[0,0,0],"alphaMode":"BLEND","doubleSided":true}],"meshes":[{"name":"nidoqueen_c-Mesh","primitives":[{"attributes":{"POSITION":0,"TEXCOORD_0":1},"indices":2,"material":0,"mode":4},{"attributes":{"POSITION":3,"TEXCOORD_0":4},"indices":5,"material":1,"mode":4},{"attributes":{"POSITION":6,"TEXCOORD_0":7},"indices":8,"material":2,"mode":4},{"attributes":{"POSITION":9,"TEXCOORD_0":10},"indices":11,"material":3,"mode":4},{"attributes":{"POSITION":12,"TEXCOORD_0":13},"indices":14,"material":4,"mode":4},{"attributes":{"POSITION":15,"TEXCOORD_0":16},"indices":17,"material":5,"mode":4},{"attributes":{"POSITION":18,"TEXCOORD_0":19},"indices":20,"material":6,"mode":4},{"attributes":{"POSITION":21,"TEXCOORD_0":22},"indices":23,"material":7,"mode":4},{"attributes":{"POSITION":24,"TEXCOORD_0":25},"indices":26,"material":8,"mode":4},{"attributes":{"POSITION":27,"TEXCOORD_0":28},"indices":29,"material":9,"mode":4},{"attributes":{"POSITION":30,"TEXCOORD_0":31},"indices":32,"material":10,"mode":4},{"attributes":{"POSITION":33,"TEXCOORD_0":34},"indices":35,"material":11,"mode":4},{"attributes":{"POSITION":36,"TEXCOORD_0":37},"indices":38,"material":12,"mode":4},{"attributes":{"POSITION":39,"TEXCOORD_0":40},"indices":41,"material":13,"mode":4},{"attributes":{"POSITION":42,"TEXCOORD_0":43},"indices":44,"material":14,"mode":4},{"attributes":{"POSITION":45,"TEXCOORD_0":46},"indices":47,"material":15,"mode":4}]}],"nodes":[{"name":"nidoqueen_c","mesh":0}],"samplers":[{"wrapS":10497,"wrapT":10497}],"scene":0,"scenes":[{"nodes":[0]}],"textures":[{"name":"nidoqueen_c_1_0","sampler":0,"source":0},{"name":"nidoqueen_c_1_1","sampler":0,"source":1},{"name":"nidoqueen_c_1_2","sampler":0,"source":2},{"name":"nidoqueen_c_1_3","sampler":0,"source":3},{"name":"nidoqueen_c_1_4","sampler":0,"source":4},{"name":"nidoqueen_c_1_5","sampler":0,"source":5},{"name":"nidoqueen_c_1_6","sampler":0,"source":6},{"name":"nidoqueen_c_1_7","sampler":0,"source":7},{"name":"nidoqueen_c_1_8","sampler":0,"source":8},{"name":"nidoqueen_c_1_9","sampler":0,"source":9},{"name":"nidoqueen_c_1_10","sampler":0,"source":10},{"name":"nidoqueen_c_1_11","sampler":0,"source":11},{"name":"nidoqueen_c_1_12","sampler":0,"source":12},{"name":"nidoqueen_c_1_13","sampler":0,"source":13},{"name":"nidoqueen_c_1_14","sampler":0,"source":14}]}