{"accessors":[{"name":"Nidoqueen_1_0_positions","componentType":5126,"count":14526,"min":[-88.15809631347656,-0.04511500149965286,-86.35320281982422],"max":[88.15811157226562,128.010009765625,55.47432327270508],"type":"VEC3","bufferView":0,"byteOffset":0},{"name":"Nidoqueen_1_0_normals","componentType":5126,"count":14526,"min":[-0.9791064858436584,-0.9990437030792236,-0.9990870356559753],"max":[0.9791064858436584,0.9986166954040527,0.9981372356414795],"type":"VEC3","bufferView":1,"byteOffset":0},{"name":"Nidoqueen_1_0_texcoords","componentType":5126,"count":14526,"min":[0.004951999988406897,0.004561000037938356],"max":[0.9950479865074158,0.9946370124816895],"type":"VEC2","bufferView":2,"byteOffset":0},{"name":"Nidoqueen_1_0_indices","componentType":5123,"count":14526,"min":[0],"max":[14525],"type":"SCALAR","bufferView":3,"byteOffset":0},{"name":"Nidoqueen_1_1_positions","componentType":5126,"count":432,"min":[-19.0487003326416,90.09850311279297,27.183305740356445],"max":[19.0487003326416,109.00300598144531,50.33431625366211],"type":"VEC3","bufferView":0,"byteOffset":174312},{"name":"Nidoqueen_1_1_normals","componentType":5126,"count":432,"min":[-0.8380907773971558,-0.9746575355529785,-0.9887097477912903],"max":[0.960898220539093,0.9856475591659546,0.9901511073112488],"type":"VEC3","bufferView":1,"byteOffset":174312},{"name":"Nidoqueen_1_1_texcoords","componentType":5126,"count":432,"min":[0.00672800000756979,-0.9660599827766418],"max":[0.49327000975608826,-0.7918599843978882],"type":"VEC2","bufferView":2,"byteOffset":116208},{"name":"Nidoqueen_1_1_indices","componentType":5123,"count":432,"min":[0],"max":[431],"type":"SCALAR","bufferView":3,"byteOffset":29052}],"asset":{"generator":"obj2gltf","version":"2.0"},"buffers":[{"name":"XY_Nidoqueen","byteLength":623884,"uri":"data:application/octet-stream;base64,"}],"bufferViews":[{"name":"bufferView_0","buffer":0,"byteLength":179496,"byteOffset":0,"byteStride":12,"target":34962},{"name":"bufferView_1","buffer":0,"byteLength":179496,"byteOffset":179496,"byteStride":12,"target":34962},{"name":"bufferView_2","buffer":0,"byteLength":119664,"byteOffset":358992,"byteStride":8,"target":34962},{"name":"bufferView_3","buffer":0,"byteLength":29916,"byteOffset":478656,"target":34963},{"buffer":0,"byteOffset":508572,"byteLength":85238},{"buffer":0,"byteOffset":593810,"byteLength":30072}],"images":[{"name":"pm0031_00_Body1","mimeType":"image/png","bufferView":4},{"name":"pm0031_00_Eye1","mimeType":"image/png","bufferView":5}],"materials":[{"name":"Material__127","pbrMetallicRoughness":{"baseColorTexture":{"index":0},"baseColorFactor":[1,1,1,1],"metallicFactor":0,"roughnessFactor":0.998},"emissiveFactor":[0,0,0],"alphaMode":"OPAQUE","doubleSided":false},{"name":"Material__128","pbrMetallicRoughness":{"baseColorTexture":{"index":1},"baseColorFactor":[1,1,1,1],"metallicFactor":0,"roughnessFactor":0.998},"emissiveFactor":[0,0,0],"alphaMode":"OPAQUE","doubleSided":false}],"meshes":[{"name":"Nidoqueen_1","primitives":[{"attributes":{"POSITION":0,"NORMAL":1,"TEXCOORD_0":2},"indices":3,"material":0,"mode":4},{"attributes":{"POSITION":4,"NORMAL":5,"TEXCOORD_0":6},"indices":7,"material":1,"mode":4}]}],"nodes":[{"name":"Nidoqueen","mesh":0}],"samplers":[{"wrapS":10497,"wrapT":10497}],"scene":0,"scenes":[{"nodes":[0]}],"textures":[{"name":"pm0031_00_Body1","sampler":0,"source":0},{"name":"pm0031_00_Eye1","sampler":0,"source":1}]}