{"accessors":[{"name":"NidoranM_1_0_positions","componentType":5126,"count":228,"min":[-11.075499534606934,15.136801719665527,19.84830093383789],"max":[11.075499534606934,27.945405960083008,30.50009536743164],"type":"VEC3","bufferView":0,"byteOffset":0},{"name":"NidoranM_1_0_normals","componentType":5126,"count":228,"min":[0.7996578812599182,-0.09681205451488495,0.209896057844162],"max":[0.9600752592086792,0.4280352294445038,0.5211859345436096],"type":"VEC3","bufferView":1,"byteOffset":0},{"name":"NidoranM_1_0_texcoords","componentType":5126,"count":228,"min":[0.009538999758660793,-0.9825699925422668],"max":[0.49046000838279724,-0.7732399702072144],"type":"VEC2","bufferView":2,"byteOffset":0},{"name":"NidoranM_1_0_indices","componentType":5123,"count":228,"min":[0],"max":[227],"type":"SCALAR","bufferView":3,"byteOffset":0},{"name":"NidoranM_1_1_positions","componentType":5126,"count":13392,"min":[-37.7848014831543,-0.02191999927163124,-27.187902450561523],"max":[37.78480529785156,45.585201263427734,41.43660354614258],"type":"VEC3","bufferView":0,"byteOffset":2736},{"name":"NidoranM_1_1_normals","componentType":5126,"count":13392,"min":[-0.9998794198036194,-0.9999000430107117,-0.9993982315063477],"max":[0.9998794198036194,0.9999938607215881,0.7344012260437012],"type":"VEC3","bufferView":1,"byteOffset":2736},{"name":"NidoranM_1_1_texcoords","componentType":5126,"count":13392,"min":[0.0039059999398887157,0.008191999979317188],"max":[0.9960939884185791,0.9960939884185791],"type":"VEC2","bufferView":2,"byteOffset":1824},{"name":"NidoranM_1_1_indices","componentType":5123,"count":13392,"min":[0],"max":[13391],"type":"SCALAR","bufferView":3,"byteOffset":456},{"name":"NidoranM_1_2_positions","componentType":5126,"count":228,"min":[-11.102898597717285,15.1347017288208,19.86039924621582],"max":[11.102898597717285,27.951505661010742,30.51669692993164],"type":"VEC3","bufferView":0,"byteOffset":163440},{"name":"NidoranM_1_2_normals","componentType":5126,"count":228,"min":[-0.04158198460936546,-0.22650696337223053,-0.9969968199729919],"max":[0.8808308243751526,0.8601797819137573,0.04036599025130272],"type":"VEC3","bufferView":1,"byteOffset":163440},{"name":"NidoranM_1_2_texcoords","componentType":5126,"count":228,"min":[0.03815599903464317,-1.9302799701690674],"max":[0.957535982131958,-1.092960000038147],"type":"VEC2","bufferView":2,"byteOffset":108960},{"name":"NidoranM_1_2_indices","componentType":5123,"count":228,"min":[0],"max":[227],"type":"SCALAR","bufferView":3,"byteOffset":27240}],"asset":{"generator":"obj2gltf","version":"2.0"},"buffers":[{"name":"XY_NidoranM","byteLength":568052,"uri":"data:application/octet-stream;base64,"}],"bufferViews":[{"name":"bufferView_0","buffer":0,"byteLength":166176,"byteOffset":0,"byteStride":12,"target":34962},{"name":"bufferView_1","buffer":0,"byteLength":166176,"byteOffset":166176,"byteStride":12,"target":34962},{"name":"bufferView_2","buffer":0,"byteLength":110784,"byteOffset":332352,"byteStride":8,"target":34962},{"name":"bufferView_3","buffer":0,"byteLength":27696,"byteOffset":443136,"target":34963},{"buffer":0,"byteOffset":470832,"byteLength":27699},{"buffer":0,"byteOffset":498531,"byteLength":66530},{"buffer":0,"byteOffset":565061,"byteLength":2991}],"images":[{"name":"pm0032_00_Eye1","mimeType":"image/png","bufferView":4},{"name":"pm0032_00_Body1","mimeType":"image/png","bufferView":5},{"name":"pm0032_00_Iris1","mimeType":"image/png","bufferView":6}],"materials":[{"name":"Material__139","pbrMetallicRoughness":{"baseColorTexture":{"index":0},"baseColorFactor":[1,1,1,1],"metallicFactor":0,"roughnessFactor":0.998},"emissiveFactor":[0,0,0],"alphaMode":"OPAQUE","doubleSided":false},{"name":"Material__140","pbrMetallicRoughness":{"baseColorTexture":{"index":1},"baseColorFactor":[1,1,1,1],"metallicFactor":0,"roughnessFactor":0.998},"emissiveFactor":[0,0,0],"alphaMode":"OPAQUE","doubleSided":false},{"name":"Material__141","pbrMetallicRoughness":{"baseColorTexture":{"index":2},"baseColorFactor":[1,1,1,1],"metallicFactor":0,"roughnessFactor":0.998},"emissiveFactor":[0,0,0],"alphaMode":"OPAQUE","doubleSided":false}],"meshes":[{"name":"NidoranM_1","primitives":[{"attributes":{"POSITION":0,"NORMAL":1,"TEXCOORD_0":2},"indices":3,"material":0,"mode":4},{"attributes":{"POSITION":4,"NORMAL":5,"TEXCOORD_0":6},"indices":7,"material":1,"mode":4},{"attributes":{"POSITION":8,"NORMAL":9,"TEXCOORD_0":10},"indices":11,"material":2,"mode":4}]}],"nodes":[{"name":"NidoranM","mesh":0}],"samplers":[{"wrapS":10497,"wrapT":10497}],"scene":0,"scenes":[{"nodes":[0]}],"textures":[{"name":"pm0032_00_Eye1","sampler":0,"source":0},{"name":"pm0032_00_Body1","sampler":0,"source":1},{"name":"pm0032_00_Iris1","sampler":0,"source":2}]}