{"accessors":[{"name":"Nidorino_1_0_positions","componentType":5126,"count":288,"min":[-17.431045532226562,26.8001651763916,45.33082580566406],"max":[17.431154251098633,38.616878509521484,60.56611633300781],"type":"VEC3","bufferView":0,"byteOffset":0},{"name":"Nidorino_1_0_normals","componentType":5126,"count":288,"min":[-0.9475442171096802,-0.6799346804618835,0.04620499163866043],"max":[-0.554038941860199,0.47078511118888855,0.6522239446640015],"type":"VEC3","bufferView":1,"byteOffset":0},{"name":"Nidorino_1_0_texcoords","componentType":5126,"count":288,"min":[0.006196000147610903,-0.956849992275238],"max":[0.49380001425743103,-0.7925500273704529],"type":"VEC2","bufferView":2,"byteOffset":0},{"name":"Nidorino_1_0_indices","componentType":5123,"count":288,"min":[0],"max":[287],"type":"SCALAR","bufferView":3,"byteOffset":0},{"name":"Nidorino_1_1_positions","componentType":5126,"count":14730,"min":[-52.47491455078125,-0.00006399999983841553,-43.62620162963867],"max":[52.47489929199219,89.05818939208984,86.48779296875],"type":"VEC3","bufferView":0,"byteOffset":3456},{"name":"Nidorino_1_1_normals","componentType":5126,"count":14730,"min":[-0.999994695186615,-1,-0.995428204536438],"max":[0.9993167519569397,0.9721598029136658,0.9971094727516174],"type":"VEC3","bufferView":1,"byteOffset":3456},{"name":"Nidorino_1_1_texcoords","componentType":5126,"count":14730,"min":[0.0039059999398887157,0.0039059999398887157],"max":[0.9960939884185791,0.9960939884185791],"type":"VEC2","bufferView":2,"byteOffset":2304},{"name":"Nidorino_1_1_indices","componentType":5123,"count":14730,"min":[0],"max":[14729],"type":"SCALAR","bufferView":3,"byteOffset":576}],"asset":{"generator":"obj2gltf","version":"2.0"},"buffers":[{"name":"XY_Nidorino","byteLength":615156,"uri":"data:application/octet-stream;base64,"}],"bufferViews":[{"name":"bufferView_0","buffer":0,"byteLength":180216,"byteOffset":0,"byteStride":12,"target":34962},{"name":"bufferView_1","buffer":0,"byteLength":180216,"byteOffset":180216,"byteStride":12,"target":34962},{"name":"bufferView_2","buffer":0,"byteLength":120144,"byteOffset":360432,"byteStride":8,"target":34962},{"name":"bufferView_3","buffer":0,"byteLength":30036,"byteOffset":480576,"target":34963},{"buffer":0,"byteOffset":510612,"byteLength":26600},{"buffer":0,"byteOffset":537212,"byteLength":77944}],"images":[{"name":"pm0033_00_Eye1","mimeType":"image/png","bufferView":4},{"name":"pm0033_00_Body1","mimeType":"image/png","bufferView":5}],"materials":[{"name":"Material__152","pbrMetallicRoughness":{"baseColorTexture":{"index":0},"baseColorFactor":[1,1,1,1],"metallicFactor":0,"roughnessFactor":0.998},"emissiveFactor":[0,0,0],"alphaMode":"OPAQUE","doubleSided":false},{"name":"Material__153","pbrMetallicRoughness":{"baseColorTexture":{"index":1},"baseColorFactor":[1,1,1,1],"metallicFactor":0,"roughnessFactor":0.998},"emissiveFactor":[0,0,0],"alphaMode":"OPAQUE","doubleSided":false}],"meshes":[{"name":"Nidorino_1","primitives":[{"attributes":{"POSITION":0,"NORMAL":1,"TEXCOORD_0":2},"indices":3,"material":0,"mode":4},{"attributes":{"POSITION":4,"NORMAL":5,"TEXCOORD_0":6},"indices":7,"material":1,"mode":4}]}],"nodes":[{"name":"Nidorino","mesh":0}],"samplers":[{"wrapS":10497,"wrapT":10497}],"scene":0,"scenes":[{"nodes":[0]}],"textures":[{"name":"pm0033_00_Eye1","sampler":0,"source":0},{"name":"pm0033_00_Body1","sampler":0,"source":1}]}