{"accessors":[{"name":"nidorino-Mesh_0_positions","componentType":5126,"count":61,"min":[-2.6045498847961426,-4.441359996795654,-4.6770501136779785],"max":[2.6629600524902344,6.283299922943115,-1.0190000534057617],"type":"VEC3","bufferView":0,"byteOffset":0},{"name":"nidorino-Mesh_0_texcoords","componentType":5126,"count":61,"min":[-0.3488819897174835,-0.10474999994039536],"max":[1.272070050239563,1.0499540567398071],"type":"VEC2","bufferView":1,"byteOffset":0},{"name":"nidorino-Mesh_0_indices","componentType":5123,"count":153,"min":[0],"max":[60],"type":"SCALAR","bufferView":2,"byteOffset":0},{"name":"nidorino-Mesh_1_positions","componentType":5126,"count":64,"min":[-2.91513991355896,-3.745069980621338,-3.983649969100952],"max":[2.91513991355896,0.7123709917068481,-0.5781779885292053],"type":"VEC3","bufferView":0,"byteOffset":732},{"name":"nidorino-Mesh_1_texcoords","componentType":5126,"count":64,"min":[-0.6046370267868042,-0.7731199860572815],"max":[1.2750799655914307,1.8951059579849243],"type":"VEC2","bufferView":1,"byteOffset":488},{"name":"nidorino-Mesh_1_indices","componentType":5123,"count":108,"min":[0],"max":[63],"type":"SCALAR","bufferView":2,"byteOffset":308},{"name":"nidorino-Mesh_2_positions","componentType":5126,"count":379,"min":[-3.80403995513916,-4.045040130615234,-6.474629878997803],"max":[3.8040499687194824,7.293389797210693,0.020728999748826027],"type":"VEC3","bufferView":0,"byteOffset":1500},{"name":"nidorino-Mesh_2_texcoords","componentType":5126,"count":379,"min":[-9.999999974752427e-7,-0.00571999978274107],"max":[1.0000100135803223,1],"type":"VEC2","bufferView":1,"byteOffset":1000},{"name":"nidorino-Mesh_2_indices","componentType":5123,"count":1164,"min":[0],"max":[378],"type":"SCALAR","bufferView":2,"byteOffset":524},{"name":"nidorino-Mesh_3_positions","componentType":5126,"count":36,"min":[-3.342639923095703,0.9107800126075745,-1.8803000450134277],"max":[3.3183999061584473,2.3907198905944824,-0.2342360019683838],"type":"VEC3","bufferView":0,"byteOffset":6048},{"name":"nidorino-Mesh_3_texcoords","componentType":5126,"count":36,"min":[-0.6344889998435974,-0.15950000286102295],"max":[1.8317899703979492,1.0630279779434204],"type":"VEC2","bufferView":1,"byteOffset":4032},{"name":"nidorino-Mesh_3_indices","componentType":5123,"count":66,"min":[0],"max":[35],"type":"SCALAR","bufferView":2,"byteOffset":2852},{"name":"nidorino-Mesh_4_positions","componentType":5126,"count":48,"min":[-3.6682400703430176,-3.4654200077056885,-2.3203999996185303],"max":[3.710890054702759,3.8176400661468506,0],"type":"VEC3","bufferView":0,"byteOffset":6480},{"name":"nidorino-Mesh_4_texcoords","componentType":5126,"count":48,"min":[0,0],"max":[1,1.0000009536743164],"type":"VEC2","bufferView":1,"byteOffset":4320},{"name":"nidorino-Mesh_4_indices","componentType":5123,"count":108,"min":[0],"max":[47],"type":"SCALAR","bufferView":2,"byteOffset":2984},{"name":"nidorino-Mesh_5_positions","componentType":5126,"count":30,"min":[-1.6514099836349487,3.5306100845336914,-4.513130187988281],"max":[1.6514099836349487,6.283299922943115,-2.2440199851989746],"type":"VEC3","bufferView":0,"byteOffset":7056},{"name":"nidorino-Mesh_5_texcoords","componentType":5126,"count":30,"min":[-0.3206000030040741,0.051215000450611115],"max":[1.1153000593185425,0.2840070128440857],"type":"VEC2","bufferView":1,"byteOffset":4704},{"name":"nidorino-Mesh_5_indices","componentType":5123,"count":60,"min":[0],"max":[29],"type":"SCALAR","bufferView":2,"byteOffset":3200},{"name":"nidorino-Mesh_6_positions","componentType":5126,"count":19,"min":[-2.2036399841308594,2.0388600826263428,-3.2737200260162354],"max":[2.3906900882720947,6.058469772338867,-1.6973999738693237],"type":"VEC3","bufferView":0,"byteOffset":7416},{"name":"nidorino-Mesh_6_texcoords","componentType":5126,"count":19,"min":[-0.0008709999965503812,0.02894899994134903],"max":[0.9889649748802185,1.006422996520996],"type":"VEC2","bufferView":1,"byteOffset":4944},{"name":"nidorino-Mesh_6_indices","componentType":5123,"count":42,"min":[0],"max":[18],"type":"SCALAR","bufferView":2,"byteOffset":3320},{"name":"nidorino-Mesh_7_positions","componentType":5126,"count":13,"min":[-1.5101200342178345,1.1428600549697876,-5.25862979888916],"max":[1.5101200342178345,3.9943900108337402,-4.411349773406982],"type":"VEC3","bufferView":0,"byteOffset":7644},{"name":"nidorino-Mesh_7_texcoords","componentType":5126,"count":13,"min":[0.0004889999981969595,-0.07267999649047852],"max":[1.5776699781417847,1.8259530067443848],"type":"VEC2","bufferView":1,"byteOffset":5096},{"name":"nidorino-Mesh_7_indices","componentType":5123,"count":42,"min":[0],"max":[12],"type":"SCALAR","bufferView":2,"byteOffset":3404},{"name":"nidorino-Mesh_8_positions","componentType":5126,"count":13,"min":[-2.2036399841308594,2.53902006149292,-2.3591198921203613],"max":[2.2036399841308594,6.327559947967529,-1.4756499528884888],"type":"VEC3","bufferView":0,"byteOffset":7800},{"name":"nidorino-Mesh_8_texcoords","componentType":5126,"count":13,"min":[-0.15869799256324768,0.07338900119066238],"max":[1.1586999893188477,1.0476020574569702],"type":"VEC2","bufferView":1,"byteOffset":5200},{"name":"nidorino-Mesh_8_indices","componentType":5123,"count":36,"min":[0],"max":[12],"type":"SCALAR","bufferView":2,"byteOffset":3488},{"name":"nidorino-Mesh_9_positions","componentType":5126,"count":13,"min":[-0.6301230192184448,5.834939956665039,-2.322240114212036],"max":[0.6301220059394836,6.327559947967529,-1.4756499528884888],"type":"VEC3","bufferView":0,"byteOffset":7956},{"name":"nidorino-Mesh_9_texcoords","componentType":5126,"count":13,"min":[0.013154000043869019,0.46875],"max":[1.0027799606323242,1.2925150394439697],"type":"VEC2","bufferView":1,"byteOffset":5304},{"name":"nidorino-Mesh_9_indices","componentType":5123,"count":15,"min":[0],"max":[12],"type":"SCALAR","bufferView":2,"byteOffset":3560},{"name":"nidorino-Mesh_10_positions","componentType":5126,"count":26,"min":[-3.80403995513916,-2.111829996109009,-6.406010150909424],"max":[3.8040499687194824,3.8046600818634033,-3.1607699394226074],"type":"VEC3","bufferView":0,"byteOffset":8112},{"name":"nidorino-Mesh_10_texcoords","componentType":5126,"count":26,"min":[-0.17174500226974487,0],"max":[1.054129958152771,0.96875],"type":"VEC2","bufferView":1,"byteOffset":5408},{"name":"nidorino-Mesh_10_indices","componentType":5123,"count":66,"min":[0],"max":[25],"type":"SCALAR","bufferView":2,"byteOffset":3592},{"name":"nidorino-Mesh_11_positions","componentType":5126,"count":8,"min":[-2.2036399841308594,2.53902006149292,-2.2522599697113037],"max":[2.2036399841308594,6.05964994430542,-1.8055299520492554],"type":"VEC3","bufferView":0,"byteOffset":8424},{"name":"nidorino-Mesh_11_texcoords","componentType":5126,"count":8,"min":[-0.02196500077843666,-0.28703001141548157],"max":[1.0219700336456299,1.0248279571533203],"type":"VEC2","bufferView":1,"byteOffset":5616},{"name":"nidorino-Mesh_11_indices","componentType":5123,"count":18,"min":[0],"max":[7],"type":"SCALAR","bufferView":2,"byteOffset":3724},{"name":"nidorino-Mesh_12_positions","componentType":5126,"count":62,"min":[-0.32748299837112427,-4.650300025939941,-8.007610321044922],"max":[0.3253459930419922,2.3929998874664307,-2.8257999420166016],"type":"VEC3","bufferView":0,"byteOffset":8520},{"name":"nidorino-Mesh_12_texcoords","componentType":5126,"count":62,"min":[0.041388001292943954,0.004288999829441309],"max":[0.9345679879188538,0.9962379932403564],"type":"VEC2","bufferView":1,"byteOffset":5680},{"name":"nidorino-Mesh_12_indices","componentType":5123,"count":216,"min":[0],"max":[61],"type":"SCALAR","bufferView":2,"byteOffset":3760}],"asset":{"generator":"obj2gltf","version":"2.0"},"buffers":[{"name":"BR_Nidorino-Shiny01","byteLength":160668,"uri":"data:application/octet-stream;base64,"}],"bufferViews":[{"name":"bufferView_0","buffer":0,"byteLength":9264,"byteOffset":0,"byteStride":12,"target":34962},{"name":"bufferView_1","buffer":0,"byteLength":6176,"byteOffset":9264,"byteStride":8,"target":34962},{"name":"bufferView_2","buffer":0,"byteLength":4192,"byteOffset":15440,"target":34963},{"buffer":0,"byteOffset":19632,"byteLength":8210},{"buffer":0,"byteOffset":27842,"byteLength":8210},{"buffer":0,"byteOffset":36052,"byteLength":274},{"buffer":0,"byteOffset":36326,"byteLength":8210},{"buffer":0,"byteOffset":44536,"byteLength":274},{"buffer":0,"byteOffset":44810,"byteLength":49170},{"buffer":0,"byteOffset":93980,"byteLength":4114},{"buffer":0,"byteOffset":98094,"byteLength":8210},{"buffer":0,"byteOffset":106304,"byteLength":4114},{"buffer":0,"byteOffset":110418,"byteLength":5138},{"buffer":0,"byteOffset":115556,"byteLength":32786},{"buffer":0,"byteOffset":148342,"byteLength":4114},{"buffer":0,"byteOffset":152456,"byteLength":8210}],"images":[{"name":"nidorino_1_0","mimeType":"image/x-tga","bufferView":3},{"name":"nidorino_1_1","mimeType":"image/x-tga","bufferView":4},{"name":"nidorino_1_2","mimeType":"image/x-tga","bufferView":5},{"name":"nidorino_1_3","mimeType":"image/x-tga","bufferView":6},{"name":"nidorino_1_4","mimeType":"image/x-tga","bufferView":7},{"name":"nidorino_1_5","mimeType":"image/x-tga","bufferView":8},{"name":"nidorino_1_6","mimeType":"image/x-tga","bufferView":9},{"name":"nidorino_1_7","mimeType":"image/x-tga","bufferView":10},{"name":"nidorino_1_8","mimeType":"image/x-tga","bufferView":11},{"name":"nidorino_1_9","mimeType":"image/x-tga","bufferView":12},{"name":"nidorino_1_10","mimeType":"image/x-tga","bufferView":13},{"name":"nidorino_1_11","mimeType":"image/x-tga","bufferView":14},{"name":"nidorino_1_12","mimeType":"image/x-tga","bufferView":15}],"materials":[{"name":"mat_0","pbrMetallicRoughness":{"baseColorTexture":{"index":0},"baseColorFactor":[1,1,1,1],"metallicFactor":0,"roughnessFactor":0.903921569},"emissiveFactor":[0,0,0],"alphaMode":"BLEND","doubleSided":true},{"name":"mat_1","pbrMetallicRoughness":{"baseColorTexture":{"index":1},"baseColorFactor":[1,1,1,1],"metallicFactor":0,"roughnessFactor":0.903921569},"emissiveFactor":[0,0,0],"alphaMode":"BLEND","doubleSided":true},{"name":"mat_2","pbrMetallicRoughness":{"baseColorTexture":{"index":2},"baseColorFactor":[1,1,1,1],"metallicFactor":0,"roughnessFactor":0.903921569},"emissiveFactor":[0,0,0],"alphaMode":"BLEND","doubleSided":true},{"name":"mat_3","pbrMetallicRoughness":{"baseColorTexture":{"index":3},"baseColorFactor":[1,1,1,1],"metallicFactor":0,"roughnessFactor":0.903921569},"emissiveFactor":[0,0,0],"alphaMode":"BLEND","doubleSided":true},{"name":"mat_4","pbrMetallicRoughness":{"baseColorTexture":{"index":4},"baseColorFactor":[1,1,1,1],"metallicFactor":0,"roughnessFactor":0.903921569},"emissiveFactor":[0,0,0],"alphaMode":"BLEND","doubleSided":true},{"name":"mat_5","pbrMetallicRoughness":{"baseColorTexture":{"index":5},"baseColorFactor":[1,1,1,1],"metallicFactor":0,"roughnessFactor":0.903921569},"emissiveFactor":[0,0,0],"alphaMode":"BLEND","doubleSided":true},{"name":"mat_6","pbrMetallicRoughness":{"baseColorTexture":{"index":6},"baseColorFactor":[1,1,1,1],"metallicFactor":0,"roughnessFactor":0.903921569},"emissiveFactor":[0,0,0],"alphaMode":"BLEND","doubleSided":true},{"name":"mat_7","pbrMetallicRoughness":{"baseColorTexture":{"index":7},"baseColorFactor":[1,1,1,1],"metallicFactor":0,"roughnessFactor":0.903921569},"emissiveFactor":[0,0,0],"alphaMode":"BLEND","doubleSided":true},{"name":"mat_8","pbrMetallicRoughness":{"baseColorTexture":{"index":8},"baseColorFactor":[1,1,1,1],"metallicFactor":0,"roughnessFactor":0.903921569},"emissiveFactor":[0,0,0],"alphaMode":"BLEND","doubleSided":true},{"name":"mat_9","pbrMetallicRoughness":{"baseColorTexture":{"index":9},"baseColorFactor":[1,1,1,1],"metallicFactor":0,"roughnessFactor":0.903921569},"emissiveFactor":[0,0,0],"alphaMode":"BLEND","doubleSided":true},{"name":"mat_10","pbrMetallicRoughness":{"baseColorTexture":{"index":10},"baseColorFactor":[1,1,1,1],"metallicFactor":0,"roughnessFactor":0.903921569},"emissiveFactor":[0,0,0],"alphaMode":"BLEND","doubleSided":true},{"name":"mat_11","pbrMetallicRoughness":{"baseColorTexture":{"index":11},"baseColorFactor":[1,1,1,1],"metallicFactor":0,"roughnessFactor":0.903921569},"emissiveFactor":[0,0,0],"alphaMode":"BLEND","doubleSided":true},{"name":"mat_12","pbrMetallicRoughness":{"baseColorTexture":{"index":12},"baseColorFactor":[1,1,1,1],"metallicFactor":0,"roughnessFactor":0.903921569},"emissiveFactor":[0,0,0],"alphaMode":"BLEND","doubleSided":true}],"meshes":[{"name":"nidorino-Mesh","primitives":[{"attributes":{"POSITION":0,"TEXCOORD_0":1},"indices":2,"material":0,"mode":4},{"attributes":{"POSITION":3,"TEXCOORD_0":4},"indices":5,"material":1,"mode":4},{"attributes":{"POSITION":6,"TEXCOORD_0":7},"indices":8,"material":2,"mode":4},{"attributes":{"POSITION":9,"TEXCOORD_0":10},"indices":11,"material":3,"mode":4},{"attributes":{"POSITION":12,"TEXCOORD_0":13},"indices":14,"material":4,"mode":4},{"attributes":{"POSITION":15,"TEXCOORD_0":16},"indices":17,"material":5,"mode":4},{"attributes":{"POSITION":18,"TEXCOORD_0":19},"indices":20,"material":6,"mode":4},{"attributes":{"POSITION":21,"TEXCOORD_0":22},"indices":23,"material":7,"mode":4},{"attributes":{"POSITION":24,"TEXCOORD_0":25},"indices":26,"material":8,"mode":4},{"attributes":{"POSITION":27,"TEXCOORD_0":28},"indices":29,"material":9,"mode":4},{"attributes":{"POSITION":30,"TEXCOORD_0":31},"indices":32,"material":10,"mode":4},{"attributes":{"POSITION":33,"TEXCOORD_0":34},"indices":35,"material":11,"mode":4},{"attributes":{"POSITION":36,"TEXCOORD_0":37},"indices":38,"material":12,"mode":4}]}],"nodes":[{"name":"nidorino","mesh":0}],"samplers":[{"wrapS":10497,"wrapT":10497}],"scene":0,"scenes":[{"nodes":[0]}],"textures":[{"name":"nidorino_1_0","sampler":0,"source":0},{"name":"nidorino_1_1","sampler":0,"source":1},{"name":"nidorino_1_2","sampler":0,"source":2},{"name":"nidorino_1_3","sampler":0,"source":3},{"name":"nidorino_1_4","sampler":0,"source":4},{"name":"nidorino_1_5","sampler":0,"source":5},{"name":"nidorino_1_6","sampler":0,"source":6},{"name":"nidorino_1_7","sampler":0,"source":7},{"name":"nidorino_1_8","sampler":0,"source":8},{"name":"nidorino_1_9","sampler":0,"source":9},{"name":"nidorino_1_10","sampler":0,"source":10},{"name":"nidorino_1_11","sampler":0,"source":11},{"name":"nidorino_1_12","sampler":0,"source":12}]}