{"accessors":[{"name":"nidoking-Mesh_0_positions","componentType":5126,"count":113,"min":[-3.3419198989868164,-3.7667999267578125,-10.981499671936035],"max":[3.3418900966644287,6.172669887542725,-0.7717130184173584],"type":"VEC3","bufferView":0,"byteOffset":0},{"name":"nidoking-Mesh_0_texcoords","componentType":5126,"count":113,"min":[0,0],"max":[1,1],"type":"VEC2","bufferView":1,"byteOffset":0},{"name":"nidoking-Mesh_0_indices","componentType":5123,"count":342,"min":[0],"max":[112],"type":"SCALAR","bufferView":2,"byteOffset":0},{"name":"nidoking-Mesh_1_positions","componentType":5126,"count":18,"min":[-2.2290101051330566,2.131510019302368,-4.423480033874512],"max":[2.2252399921417236,4.066989898681641,-0.8422300219535828],"type":"VEC3","bufferView":0,"byteOffset":1356},{"name":"nidoking-Mesh_1_texcoords","componentType":5126,"count":18,"min":[0.12864600121974945,0.13006100058555603],"max":[0.8707259893417358,0.841804027557373],"type":"VEC2","bufferView":1,"byteOffset":904},{"name":"nidoking-Mesh_1_indices","componentType":5123,"count":48,"min":[0],"max":[17],"type":"SCALAR","bufferView":2,"byteOffset":684},{"name":"nidoking-Mesh_2_positions","componentType":5126,"count":34,"min":[-1.8262499570846558,-8.878100395202637,-6.580249786376953],"max":[1.8215700387954712,-0.344539999961853,-0.7717130184173584],"type":"VEC3","bufferView":0,"byteOffset":1572},{"name":"nidoking-Mesh_2_texcoords","componentType":5126,"count":34,"min":[-0.15625,0],"max":[1.012660026550293,1],"type":"VEC2","bufferView":1,"byteOffset":1048},{"name":"nidoking-Mesh_2_indices","componentType":5123,"count":102,"min":[0],"max":[33],"type":"SCALAR","bufferView":2,"byteOffset":780},{"name":"nidoking-Mesh_3_positions","componentType":5126,"count":5,"min":[-0.4091489911079407,-9.99977970123291,-8.508740425109863],"max":[0.4074159860610962,-7.8577399253845215,-5.413320064544678],"type":"VEC3","bufferView":0,"byteOffset":1980},{"name":"nidoking-Mesh_3_texcoords","componentType":5126,"count":5,"min":[0.12666699290275574,0],"max":[1.0537500381469727,1],"type":"VEC2","bufferView":1,"byteOffset":1320},{"name":"nidoking-Mesh_3_indices","componentType":5123,"count":12,"min":[0],"max":[4],"type":"SCALAR","bufferView":2,"byteOffset":984},{"name":"nidoking-Mesh_4_positions","componentType":5126,"count":14,"min":[-0.4098379909992218,-3.9220499992370605,-8.026519775390625],"max":[0.40420299768447876,-0.24521000683307648,-3.988960027694702],"type":"VEC3","bufferView":0,"byteOffset":2040},{"name":"nidoking-Mesh_4_texcoords","componentType":5126,"count":14,"min":[0,0],"max":[1,0.53125],"type":"VEC2","bufferView":1,"byteOffset":1360},{"name":"nidoking-Mesh_4_indices","componentType":5123,"count":45,"min":[0],"max":[13],"type":"SCALAR","bufferView":2,"byteOffset":1008},{"name":"nidoking-Mesh_5_positions","componentType":5126,"count":19,"min":[-2.5880300998687744,2.7949299812316895,-6.300300121307373],"max":[2.582170009613037,4.833469867706299,-3.3544199466705322],"type":"VEC3","bufferView":0,"byteOffset":2208},{"name":"nidoking-Mesh_5_texcoords","componentType":5126,"count":19,"min":[0.04613199830055237,0.01926499977707863],"max":[0.9538779854774475,1.107692003250122],"type":"VEC2","bufferView":1,"byteOffset":1472},{"name":"nidoking-Mesh_5_indices","componentType":5123,"count":72,"min":[0],"max":[18],"type":"SCALAR","bufferView":2,"byteOffset":1100},{"name":"nidoking-Mesh_6_positions","componentType":5126,"count":62,"min":[-2.1164801120758057,1.9510799646377563,-11.334199905395508],"max":[2.133579969406128,7.33351993560791,-5.239950180053711],"type":"VEC3","bufferView":0,"byteOffset":2436},{"name":"nidoking-Mesh_6_texcoords","componentType":5126,"count":62,"min":[0,0.08025000244379044],"max":[1,1],"type":"VEC2","bufferView":1,"byteOffset":1624},{"name":"nidoking-Mesh_6_indices","componentType":5123,"count":255,"min":[0],"max":[61],"type":"SCALAR","bufferView":2,"byteOffset":1244},{"name":"nidoking-Mesh_7_positions","componentType":5126,"count":9,"min":[-1.6908299922943115,4.953050136566162,-6.703740119934082],"max":[1.6858799457550049,6.805089950561523,-5.239950180053711],"type":"VEC3","bufferView":0,"byteOffset":3180},{"name":"nidoking-Mesh_7_texcoords","componentType":5126,"count":9,"min":[0.0001880000054370612,0.050551000982522964],"max":[0.9933260083198547,0.7993159890174866],"type":"VEC2","bufferView":1,"byteOffset":2120},{"name":"nidoking-Mesh_7_indices","componentType":5123,"count":24,"min":[0],"max":[8],"type":"SCALAR","bufferView":2,"byteOffset":1756},{"name":"nidoking-Mesh_8_positions","componentType":5126,"count":14,"min":[-1.5887399911880493,5.5030198097229,-8.187829971313477],"max":[1.5908000469207764,7.087969779968262,-6.248479843139648],"type":"VEC3","bufferView":0,"byteOffset":3288},{"name":"nidoking-Mesh_8_texcoords","componentType":5126,"count":14,"min":[-0.109375,-0.009309999644756317],"max":[1.1093800067901611,0.15922600030899048],"type":"VEC2","bufferView":1,"byteOffset":2192},{"name":"nidoking-Mesh_8_indices","componentType":5123,"count":36,"min":[0],"max":[13],"type":"SCALAR","bufferView":2,"byteOffset":1804},{"name":"nidoking-Mesh_9_positions","componentType":5126,"count":5,"min":[-0.37307101488113403,6.763919830322266,-8.49740982055664],"max":[0.36785298585891724,10.328499794006348,-7.164529800415039],"type":"VEC3","bufferView":0,"byteOffset":3456},{"name":"nidoking-Mesh_9_texcoords","componentType":5126,"count":5,"min":[0.0215000007301569,0.039218999445438385],"max":[0.987625002861023,0.9754340052604675],"type":"VEC2","bufferView":1,"byteOffset":2304},{"name":"nidoking-Mesh_9_indices","componentType":5123,"count":12,"min":[0],"max":[4],"type":"SCALAR","bufferView":2,"byteOffset":1876},{"name":"nidoking-Mesh_10_positions","componentType":5126,"count":6,"min":[-1.1644400358200073,6.088029861450195,-5.922140121459961],"max":[1.1579400300979614,7.135960102081299,-5.239950180053711],"type":"VEC3","bufferView":0,"byteOffset":3516},{"name":"nidoking-Mesh_10_texcoords","componentType":5126,"count":6,"min":[-0.5315889716148376,0.25243398547172546],"max":[0.8783149719238281,1.0359870195388794],"type":"VEC2","bufferView":1,"byteOffset":2344},{"name":"nidoking-Mesh_10_indices","componentType":5123,"count":6,"min":[0],"max":[5],"type":"SCALAR","bufferView":2,"byteOffset":1900},{"name":"nidoking-Mesh_11_positions","componentType":5126,"count":22,"min":[-3.3419198989868164,2.949460029602051,-10.981499671936035],"max":[3.3418900966644287,5.524819850921631,-7.879930019378662],"type":"VEC3","bufferView":0,"byteOffset":3588},{"name":"nidoking-Mesh_11_texcoords","componentType":5126,"count":22,"min":[0.008929000236093998,0.015302999876439571],"max":[0.986607015132904,0.9955360293388367],"type":"VEC2","bufferView":1,"byteOffset":2392},{"name":"nidoking-Mesh_11_indices","componentType":5123,"count":42,"min":[0],"max":[21],"type":"SCALAR","bufferView":2,"byteOffset":1912},{"name":"nidoking-Mesh_12_positions","componentType":5126,"count":80,"min":[-4.657050132751465,2.563119888305664,-7.058839797973633],"max":[4.657040119171143,7.078289985656738,-0.002283999929204583],"type":"VEC3","bufferView":0,"byteOffset":3852},{"name":"nidoking-Mesh_12_texcoords","componentType":5126,"count":80,"min":[-9.999999974752427e-7,0],"max":[1,1],"type":"VEC2","bufferView":1,"byteOffset":2568},{"name":"nidoking-Mesh_12_indices","componentType":5123,"count":192,"min":[0],"max":[79],"type":"SCALAR","bufferView":2,"byteOffset":1996},{"name":"nidoking-Mesh_13_positions","componentType":5126,"count":7,"min":[-1.6908299922943115,4.953050136566162,-6.703740119934082],"max":[1.6858799457550049,6.172669887542725,-4.919539928436279],"type":"VEC3","bufferView":0,"byteOffset":4812},{"name":"nidoking-Mesh_13_texcoords","componentType":5126,"count":7,"min":[0.006943999789655209,-0.023150000721216202],"max":[0.9907410144805908,0.9930559992790222],"type":"VEC2","bufferView":1,"byteOffset":3208},{"name":"nidoking-Mesh_13_indices","componentType":5123,"count":15,"min":[0],"max":[6],"type":"SCALAR","bufferView":2,"byteOffset":2380},{"name":"nidoking-Mesh_14_positions","componentType":5126,"count":14,"min":[-1.4384700059890747,4.626910209655762,-7.187349796295166],"max":[1.3987499475479126,6.111609935760498,-5.196690082550049],"type":"VEC3","bufferView":0,"byteOffset":4896},{"name":"nidoking-Mesh_14_texcoords","componentType":5126,"count":14,"min":[0,0],"max":[1,1],"type":"VEC2","bufferView":1,"byteOffset":3264},{"name":"nidoking-Mesh_14_indices","componentType":5123,"count":30,"min":[0],"max":[13],"type":"SCALAR","bufferView":2,"byteOffset":2412},{"name":"nidoking-Mesh_15_positions","componentType":5126,"count":249,"min":[-5.206729888916016,-2.117460012435913,-11.525199890136719],"max":[5.206739902496338,6.788400173187256,0.02459999918937683],"type":"VEC3","bufferView":0,"byteOffset":5064},{"name":"nidoking-Mesh_15_texcoords","componentType":5126,"count":249,"min":[0,0],"max":[1.009559988975525,1.0331310033798218],"type":"VEC2","bufferView":1,"byteOffset":3376},{"name":"nidoking-Mesh_15_indices","componentType":5123,"count":909,"min":[0],"max":[248],"type":"SCALAR","bufferView":2,"byteOffset":2472}],"asset":{"generator":"obj2gltf","version":"2.0"},"buffers":[{"name":"BR_Nidoking-Shiny01","byteLength":182876,"uri":"data:application/octet-stream;base64,"}],"bufferViews":[{"name":"bufferView_0","buffer":0,"byteLength":8052,"byteOffset":0,"byteStride":12,"target":34962},{"name":"bufferView_1","buffer":0,"byteLength":5368,"byteOffset":8052,"byteStride":8,"target":34962},{"name":"bufferView_2","buffer":0,"byteLength":4292,"byteOffset":13420,"target":34963},{"buffer":0,"byteOffset":17712,"byteLength":82},{"buffer":0,"byteOffset":17794,"byteLength":8210},{"buffer":0,"byteOffset":26004,"byteLength":4114},{"buffer":0,"byteOffset":30118,"byteLength":4114},{"buffer":0,"byteOffset":34232,"byteLength":16402},{"buffer":0,"byteOffset":50634,"byteLength":2066},{"buffer":0,"byteOffset":52700,"byteLength":98322},{"buffer":0,"byteOffset":151022,"byteLength":4114},{"buffer":0,"byteOffset":155136,"byteLength":4114},{"buffer":0,"byteOffset":159250,"byteLength":16402},{"buffer":0,"byteOffset":175652,"byteLength":2066},{"buffer":0,"byteOffset":177718,"byteLength":1042},{"buffer":0,"byteOffset":178760,"byteLength":4114}],"images":[{"name":"nidoking_1_0","mimeType":"image/x-tga","bufferView":3},{"name":"nidoking_1_1","mimeType":"image/x-tga","bufferView":4},{"name":"nidoking_1_2","mimeType":"image/x-tga","bufferView":5},{"name":"nidoking_1_4","mimeType":"image/x-tga","bufferView":6},{"name":"nidoking_1_5","mimeType":"image/x-tga","bufferView":7},{"name":"nidoking_1_7","mimeType":"image/x-tga","bufferView":8},{"name":"nidoking_1_8","mimeType":"image/x-tga","bufferView":9},{"name":"nidoking_1_9","mimeType":"image/x-tga","bufferView":10},{"name":"nidoking_1_10","mimeType":"image/x-tga","bufferView":11},{"name":"nidoking_1_11","mimeType":"image/x-tga","bufferView":12},{"name":"nidoking_1_12","mimeType":"image/x-tga","bufferView":13},{"name":"nidoking_1_13","mimeType":"image/x-tga","bufferView":14},{"name":"nidoking_1_14","mimeType":"image/x-tga","bufferView":15}],"materials":[{"name":"mat_0","pbrMetallicRoughness":{"baseColorTexture":{"index":0},"baseColorFactor":[1,1,1,1],"metallicFactor":0,"roughnessFactor":0.903921569},"emissiveFactor":[0,0,0],"alphaMode":"BLEND","doubleSided":true},{"name":"mat_1","pbrMetallicRoughness":{"baseColorTexture":{"index":1},"baseColorFactor":[1,1,1,1],"metallicFactor":0,"roughnessFactor":0.903921569},"emissiveFactor":[0,0,0],"alphaMode":"BLEND","doubleSided":true},{"name":"mat_2","pbrMetallicRoughness":{"baseColorTexture":{"index":2},"baseColorFactor":[1,1,1,1],"metallicFactor":0,"roughnessFactor":0.903921569},"emissiveFactor":[0,0,0],"alphaMode":"BLEND","doubleSided":true},{"name":"mat_3","pbrMetallicRoughness":{"baseColorTexture":{"index":2},"baseColorFactor":[1,1,1,1],"metallicFactor":0,"roughnessFactor":0.903921569},"emissiveFactor":[0,0,0],"alphaMode":"BLEND","doubleSided":true},{"name":"mat_4","pbrMetallicRoughness":{"baseColorTexture":{"index":3},"baseColorFactor":[1,1,1,1],"metallicFactor":0,"roughnessFactor":0.903921569},"emissiveFactor":[0,0,0],"alphaMode":"BLEND","doubleSided":true},{"name":"mat_5","pbrMetallicRoughness":{"baseColorTexture":{"index":4},"baseColorFactor":[1,1,1,1],"metallicFactor":0,"roughnessFactor":0.903921569},"emissiveFactor":[0,0,0],"alphaMode":"BLEND","doubleSided":true},{"name":"mat_6","pbrMetallicRoughness":{"baseColorTexture":{"index":0},"baseColorFactor":[1,1,1,1],"metallicFactor":0,"roughnessFactor":0.903921569},"emissiveFactor":[0,0,0],"alphaMode":"BLEND","doubleSided":true},{"name":"mat_7","pbrMetallicRoughness":{"baseColorTexture":{"index":5},"baseColorFactor":[1,1,1,1],"metallicFactor":0,"roughnessFactor":0.903921569},"emissiveFactor":[0,0,0],"alphaMode":"BLEND","doubleSided":true},{"name":"mat_8","pbrMetallicRoughness":{"baseColorTexture":{"index":6},"baseColorFactor":[1,1,1,1],"metallicFactor":0,"roughnessFactor":0.903921569},"emissiveFactor":[0,0,0],"alphaMode":"BLEND","doubleSided":true},{"name":"mat_9","pbrMetallicRoughness":{"baseColorTexture":{"index":7},"baseColorFactor":[1,1,1,1],"metallicFactor":0,"roughnessFactor":0.903921569},"emissiveFactor":[0,0,0],"alphaMode":"BLEND","doubleSided":true},{"name":"mat_10","pbrMetallicRoughness":{"baseColorTexture":{"index":8},"baseColorFactor":[1,1,1,1],"metallicFactor":0,"roughnessFactor":0.903921569},"emissiveFactor":[0,0,0],"alphaMode":"BLEND","doubleSided":true},{"name":"mat_11","pbrMetallicRoughness":{"baseColorTexture":{"index":9},"baseColorFactor":[1,1,1,1],"metallicFactor":0,"roughnessFactor":0.903921569},"emissiveFactor":[0,0,0],"alphaMode":"BLEND","doubleSided":true},{"name":"mat_12","pbrMetallicRoughness":{"baseColorTexture":{"index":10},"baseColorFactor":[1,1,1,1],"metallicFactor":0,"roughnessFactor":0.903921569},"emissiveFactor":[0,0,0],"alphaMode":"BLEND","doubleSided":true},{"name":"mat_13","pbrMetallicRoughness":{"baseColorTexture":{"index":11},"baseColorFactor":[1,1,1,1],"metallicFactor":0,"roughnessFactor":0.903921569},"emissiveFactor":[0,0,0],"alphaMode":"BLEND","doubleSided":true},{"name":"mat_14","pbrMetallicRoughness":{"baseColorTexture":{"index":12},"baseColorFactor":[1,1,1,1],"metallicFactor":0,"roughnessFactor":0.903921569},"emissiveFactor":[0,0,0],"alphaMode":"BLEND","doubleSided":true},{"name":"mat_14_NONE","pbrMetallicRoughness":{"baseColorTexture":{"index":12},"baseColorFactor":[1,1,1,1],"metallicFactor":0,"roughnessFactor":0.903921569},"emissiveFactor":[0,0,0],"alphaMode":"BLEND","doubleSided":true}],"meshes":[{"name":"nidoking-Mesh","primitives":[{"attributes":{"POSITION":0,"TEXCOORD_0":1},"indices":2,"material":0,"mode":4},{"attributes":{"POSITION":3,"TEXCOORD_0":4},"indices":5,"material":1,"mode":4},{"attributes":{"POSITION":6,"TEXCOORD_0":7},"indices":8,"material":2,"mode":4},{"attributes":{"POSITION":9,"TEXCOORD_0":10},"indices":11,"material":3,"mode":4},{"attributes":{"POSITION":12,"TEXCOORD_0":13},"indices":14,"material":4,"mode":4},{"attributes":{"POSITION":15,"TEXCOORD_0":16},"indices":17,"material":5,"mode":4},{"attributes":{"POSITION":18,"TEXCOORD_0":19},"indices":20,"material":6,"mode":4},{"attributes":{"POSITION":21,"TEXCOORD_0":22},"indices":23,"material":7,"mode":4},{"attributes":{"POSITION":24,"TEXCOORD_0":25},"indices":26,"material":8,"mode":4},{"attributes":{"POSITION":27,"TEXCOORD_0":28},"indices":29,"material":9,"mode":4},{"attributes":{"POSITION":30,"TEXCOORD_0":31},"indices":32,"material":10,"mode":4},{"attributes":{"POSITION":33,"TEXCOORD_0":34},"indices":35,"material":11,"mode":4},{"attributes":{"POSITION":36,"TEXCOORD_0":37},"indices":38,"material":12,"mode":4},{"attributes":{"POSITION":39,"TEXCOORD_0":40},"indices":41,"material":13,"mode":4},{"attributes":{"POSITION":42,"TEXCOORD_0":43},"indices":44,"material":14,"mode":4},{"attributes":{"POSITION":45,"TEXCOORD_0":46},"indices":47,"material":15,"mode":4}]}],"nodes":[{"name":"nidoking","mesh":0}],"samplers":[{"wrapS":10497,"wrapT":10497}],"scene":0,"scenes":[{"nodes":[0]}],"textures":[{"name":"nidoking_1_0","sampler":0,"source":0},{"name":"nidoking_1_1","sampler":0,"source":1},{"name":"nidoking_1_2","sampler":0,"source":2},{"name":"nidoking_1_4","sampler":0,"source":3},{"name":"nidoking_1_5","sampler":0,"source":4},{"name":"nidoking_1_7","sampler":0,"source":5},{"name":"nidoking_1_8","sampler":0,"source":6},{"name":"nidoking_1_9","sampler":0,"source":7},{"name":"nidoking_1_10","sampler":0,"source":8},{"name":"nidoking_1_11","sampler":0,"source":9},{"name":"nidoking_1_12","sampler":0,"source":10},{"name":"nidoking_1_13","sampler":0,"source":11},{"name":"nidoking_1_14","sampler":0,"source":12}]}