{"accessors":[{"name":"Nidoking_1_0_positions","componentType":5126,"count":9834,"min":[-103.91400146484375,12.18039608001709,-18.900806427001953],"max":[103.91400146484375,138.71800231933594,101.36500549316406],"type":"VEC3","bufferView":0,"byteOffset":0},{"name":"Nidoking_1_0_normals","componentType":5126,"count":9834,"min":[-0.9999926686286926,-0.9870238304138184,-0.9997493624687195],"max":[0.9999927282333374,0.9983643293380737,0.9998924136161804],"type":"VEC3","bufferView":1,"byteOffset":0},{"name":"Nidoking_1_0_texcoords","componentType":5126,"count":9834,"min":[0.006955000106245279,0.007038000039756298],"max":[0.9930449724197388,0.9960939884185791],"type":"VEC2","bufferView":2,"byteOffset":0},{"name":"Nidoking_1_0_indices","componentType":5123,"count":9834,"min":[0],"max":[9833],"type":"SCALAR","bufferView":3,"byteOffset":0},{"name":"Nidoking_1_1_positions","componentType":5126,"count":312,"min":[-18.864099502563477,92.22881317138672,81.62480163574219],"max":[18.864099502563477,107.18101501464844,93.3705062866211],"type":"VEC3","bufferView":0,"byteOffset":118008},{"name":"Nidoking_1_1_normals","componentType":5126,"count":312,"min":[-0.9999926686286926,-0.9575915932655334,-0.7539999485015869],"max":[0.9384561777114868,0.8751318454742432,0.9571554064750671],"type":"VEC3","bufferView":1,"byteOffset":118008},{"name":"Nidoking_1_1_texcoords","componentType":5126,"count":312,"min":[0.005102999974042177,-1.9938700199127197],"max":[0.4948999881744385,-1.7561299800872803],"type":"VEC2","bufferView":2,"byteOffset":78672},{"name":"Nidoking_1_1_indices","componentType":5123,"count":312,"min":[0],"max":[311],"type":"SCALAR","bufferView":3,"byteOffset":19668},{"name":"Nidoking_1_2_positions","componentType":5126,"count":6996,"min":[-54.53099822998047,-0.000007000000096013537,-123.06999206542969],"max":[54.53099822998047,119.24503326416016,125.0059814453125],"type":"VEC3","bufferView":0,"byteOffset":121752},{"name":"Nidoking_1_2_normals","componentType":5126,"count":6996,"min":[-0.9999927282333374,-0.9870238304138184,-0.9997493624687195],"max":[0.9414915442466736,0.9983643293380737,0.9998924136161804],"type":"VEC3","bufferView":1,"byteOffset":121752},{"name":"Nidoking_1_2_texcoords","componentType":5126,"count":6996,"min":[0.0078119998797774315,-0.9935899972915649],"max":[0.9921879768371582,-0.003909999970346689],"type":"VEC2","bufferView":2,"byteOffset":81168},{"name":"Nidoking_1_2_indices","componentType":5123,"count":6996,"min":[0],"max":[6995],"type":"SCALAR","bufferView":3,"byteOffset":20292}],"asset":{"generator":"obj2gltf","version":"2.0"},"buffers":[{"name":"XY_Nidoking","byteLength":743576,"uri":"data:application/octet-stream;base64,"}],"bufferViews":[{"name":"bufferView_0","buffer":0,"byteLength":205704,"byteOffset":0,"byteStride":12,"target":34962},{"name":"bufferView_1","buffer":0,"byteLength":205704,"byteOffset":205704,"byteStride":12,"target":34962},{"name":"bufferView_2","buffer":0,"byteLength":137136,"byteOffset":411408,"byteStride":8,"target":34962},{"name":"bufferView_3","buffer":0,"byteLength":34284,"byteOffset":548544,"target":34963},{"buffer":0,"byteOffset":582828,"byteLength":60324},{"buffer":0,"byteOffset":643152,"byteLength":32398},{"buffer":0,"byteOffset":675550,"byteLength":68026}],"images":[{"name":"pm0034_00_BodyA1","mimeType":"image/png","bufferView":4},{"name":"pm0034_00_Eye1","mimeType":"image/png","bufferView":5},{"name":"pm0034_00_BodyB1","mimeType":"image/png","bufferView":6}],"materials":[{"name":"Material__164","pbrMetallicRoughness":{"baseColorTexture":{"index":0},"baseColorFactor":[1,1,1,1],"metallicFactor":0,"roughnessFactor":0.998},"emissiveFactor":[0,0,0],"alphaMode":"OPAQUE","doubleSided":false},{"name":"Material__165","pbrMetallicRoughness":{"baseColorTexture":{"index":1},"baseColorFactor":[1,1,1,1],"metallicFactor":0,"roughnessFactor":0.998},"emissiveFactor":[0,0,0],"alphaMode":"OPAQUE","doubleSided":false},{"name":"Material__166","pbrMetallicRoughness":{"baseColorTexture":{"index":2},"baseColorFactor":[1,1,1,1],"metallicFactor":0,"roughnessFactor":0.998},"emissiveFactor":[0,0,0],"alphaMode":"OPAQUE","doubleSided":false}],"meshes":[{"name":"Nidoking_1","primitives":[{"attributes":{"POSITION":0,"NORMAL":1,"TEXCOORD_0":2},"indices":3,"material":0,"mode":4},{"attributes":{"POSITION":4,"NORMAL":5,"TEXCOORD_0":6},"indices":7,"material":1,"mode":4},{"attributes":{"POSITION":8,"NORMAL":9,"TEXCOORD_0":10},"indices":11,"material":2,"mode":4}]}],"nodes":[{"name":"Nidoking","mesh":0}],"samplers":[{"wrapS":10497,"wrapT":10497}],"scene":0,"scenes":[{"nodes":[0]}],"textures":[{"name":"pm0034_00_BodyA1","sampler":0,"source":0},{"name":"pm0034_00_Eye1","sampler":0,"source":1},{"name":"pm0034_00_BodyB1","sampler":0,"source":2}]}