{"accessors":[{"name":"pippi-Mesh_0_positions","componentType":5126,"count":32,"min":[-1.2599879503250122,1.7204079627990723,-4.109457969665527],"max":[1.2599879503250122,2.1042261123657227,-3.3217151165008545],"type":"VEC3","bufferView":0,"byteOffset":0},{"name":"pippi-Mesh_0_texcoords","componentType":5126,"count":32,"min":[0.09030000120401382,0.01003200002014637],"max":[0.38903599977493286,0.1441659927368164],"type":"VEC2","bufferView":1,"byteOffset":0},{"name":"pippi-Mesh_0_indices","componentType":5123,"count":132,"min":[0],"max":[31],"type":"SCALAR","bufferView":2,"byteOffset":0},{"name":"pippi-Mesh_1_positions","componentType":5126,"count":1417,"min":[-2.930316925048828,-5.0926690101623535,-5.995563983917236],"max":[2.930316925048828,2.7709720134735107,-0.024948999285697937],"type":"VEC3","bufferView":0,"byteOffset":384},{"name":"pippi-Mesh_1_texcoords","componentType":5126,"count":1417,"min":[0.006812000181525946,0.008821000345051289],"max":[1.0054810047149658,0.9965289831161499],"type":"VEC2","bufferView":1,"byteOffset":256},{"name":"pippi-Mesh_1_indices","componentType":5123,"count":6912,"min":[0],"max":[1416],"type":"SCALAR","bufferView":2,"byteOffset":264},{"name":"pippi-Mesh_2_positions","componentType":5126,"count":12,"min":[-0.35436201095581055,2.0696730613708496,-3.337636947631836],"max":[0.35436201095581055,2.145587921142578,-2.352591037750244],"type":"VEC3","bufferView":0,"byteOffset":17388},{"name":"pippi-Mesh_2_texcoords","componentType":5126,"count":12,"min":[0.0239499993622303,0.18892699480056763],"max":[0.16892899572849274,0.9860950112342834],"type":"VEC2","bufferView":1,"byteOffset":11592},{"name":"pippi-Mesh_2_indices","componentType":5123,"count":36,"min":[0],"max":[11],"type":"SCALAR","bufferView":2,"byteOffset":14088}],"asset":{"generator":"obj2gltf","version":"2.0"},"buffers":[{"name":"BR_Clefairy-Shiny01","byteLength":1878444,"uri":"data:application/octet-stream;base64,"}],"bufferViews":[{"name":"bufferView_0","buffer":0,"byteLength":17532,"byteOffset":0,"byteStride":12,"target":34962},{"name":"bufferView_1","buffer":0,"byteLength":11688,"byteOffset":17532,"byteStride":8,"target":34962},{"name":"bufferView_2","buffer":0,"byteLength":14160,"byteOffset":29220,"target":34963},{"buffer":0,"byteOffset":43380,"byteLength":524306},{"buffer":0,"byteOffset":567686,"byteLength":1048594},{"buffer":0,"byteOffset":1616280,"byteLength":262162}],"images":[{"name":"pippi_1_0","mimeType":"image/x-tga","bufferView":3},{"name":"pippi_1_1","mimeType":"image/x-tga","bufferView":4},{"name":"pippi_1_2","mimeType":"image/x-tga","bufferView":5}],"materials":[{"name":"mat_0","pbrMetallicRoughness":{"baseColorTexture":{"index":0},"baseColorFactor":[1,1,1,1],"metallicFactor":0,"roughnessFactor":0.903921569},"emissiveFactor":[0,0,0],"alphaMode":"BLEND","doubleSided":true},{"name":"mat_1","pbrMetallicRoughness":{"baseColorTexture":{"index":1},"baseColorFactor":[1,1,1,1],"metallicFactor":0,"roughnessFactor":0.903921569},"emissiveFactor":[0,0,0],"alphaMode":"BLEND","doubleSided":true},{"name":"mat_2","pbrMetallicRoughness":{"baseColorTexture":{"index":2},"baseColorFactor":[1,1,1,1],"metallicFactor":0,"roughnessFactor":0.903921569},"emissiveFactor":[0,0,0],"alphaMode":"BLEND","doubleSided":true}],"meshes":[{"name":"pippi-Mesh","primitives":[{"attributes":{"POSITION":0,"TEXCOORD_0":1},"indices":2,"material":0,"mode":4},{"attributes":{"POSITION":3,"TEXCOORD_0":4},"indices":5,"material":1,"mode":4},{"attributes":{"POSITION":6,"TEXCOORD_0":7},"indices":8,"material":2,"mode":4}]}],"nodes":[{"name":"pippi","mesh":0}],"samplers":[{"wrapS":10497,"wrapT":10497}],"scene":0,"scenes":[{"nodes":[0]}],"textures":[{"name":"pippi_1_0","sampler":0,"source":0},{"name":"pippi_1_1","sampler":0,"source":1},{"name":"pippi_1_2","sampler":0,"source":2}]}