{"accessors":[{"name":"pixy-Mesh_0_positions","componentType":5126,"count":7,"min":[-1.386504054069519,3.8878591060638428,-9.206778526306152],"max":[1.3386199474334717,4.411187171936035,-7.43290901184082],"type":"VEC3","bufferView":0,"byteOffset":0},{"name":"pixy-Mesh_0_texcoords","componentType":5126,"count":7,"min":[0.5,0.0007609999738633633],"max":[0.9904739856719971,0.12940199673175812],"type":"VEC2","bufferView":1,"byteOffset":0},{"name":"pixy-Mesh_0_indices","componentType":5123,"count":18,"min":[0],"max":[6],"type":"SCALAR","bufferView":2,"byteOffset":0},{"name":"pixy-Mesh_1_positions","componentType":5126,"count":14,"min":[-2.4977149963378906,2.8276329040527344,-10.243062019348145],"max":[2.449831008911133,3.9858620166778564,-8.154086112976074],"type":"VEC3","bufferView":0,"byteOffset":84},{"name":"pixy-Mesh_1_texcoords","componentType":5126,"count":14,"min":[-0.0002500000118743628,0.06743799895048141],"max":[0.09110700339078903,0.8072879910469055],"type":"VEC2","bufferView":1,"byteOffset":56},{"name":"pixy-Mesh_1_indices","componentType":5123,"count":42,"min":[0],"max":[13],"type":"SCALAR","bufferView":2,"byteOffset":36},{"name":"pixy-Mesh_2_positions","componentType":5126,"count":1270,"min":[-8.888824462890625,-10.625663757324219,-13.667987823486328],"max":[8.888824462890625,4.646183967590332,0],"type":"VEC3","bufferView":0,"byteOffset":252},{"name":"pixy-Mesh_2_texcoords","componentType":5126,"count":1270,"min":[0,0],"max":[0.9999079704284668,0.9896969795227051],"type":"VEC2","bufferView":1,"byteOffset":168},{"name":"pixy-Mesh_2_indices","componentType":5123,"count":6336,"min":[0],"max":[1269],"type":"SCALAR","bufferView":2,"byteOffset":120}],"asset":{"generator":"obj2gltf","version":"2.0"},"buffers":[{"name":"BR_Clefable-Shiny01","byteLength":2135820,"uri":"data:application/octet-stream;base64,"}],"bufferViews":[{"name":"bufferView_0","buffer":0,"byteLength":15492,"byteOffset":0,"byteStride":12,"target":34962},{"name":"bufferView_1","buffer":0,"byteLength":10328,"byteOffset":15492,"byteStride":8,"target":34962},{"name":"bufferView_2","buffer":0,"byteLength":12792,"byteOffset":25820,"target":34963},{"buffer":0,"byteOffset":38612,"byteLength":524306},{"buffer":0,"byteOffset":562918,"byteLength":524306},{"buffer":0,"byteOffset":1087224,"byteLength":1048594}],"images":[{"name":"pixy_1_0","mimeType":"image/x-tga","bufferView":3},{"name":"pixy_1_1","mimeType":"image/x-tga","bufferView":4},{"name":"pixy_1_2","mimeType":"image/x-tga","bufferView":5}],"materials":[{"name":"mat_0","pbrMetallicRoughness":{"baseColorTexture":{"index":0},"baseColorFactor":[1,1,1,1],"metallicFactor":0,"roughnessFactor":0.903921569},"emissiveFactor":[0,0,0],"alphaMode":"BLEND","doubleSided":true},{"name":"mat_1","pbrMetallicRoughness":{"baseColorTexture":{"index":1},"baseColorFactor":[1,1,1,1],"metallicFactor":0,"roughnessFactor":0.903921569},"emissiveFactor":[0,0,0],"alphaMode":"BLEND","doubleSided":true},{"name":"mat_2","pbrMetallicRoughness":{"baseColorTexture":{"index":2},"baseColorFactor":[1,1,1,1],"metallicFactor":0,"roughnessFactor":0.903921569},"emissiveFactor":[0,0,0],"alphaMode":"BLEND","doubleSided":true}],"meshes":[{"name":"pixy-Mesh","primitives":[{"attributes":{"POSITION":0,"TEXCOORD_0":1},"indices":2,"material":0,"mode":4},{"attributes":{"POSITION":3,"TEXCOORD_0":4},"indices":5,"material":1,"mode":4},{"attributes":{"POSITION":6,"TEXCOORD_0":7},"indices":8,"material":2,"mode":4}]}],"nodes":[{"name":"pixy","mesh":0}],"samplers":[{"wrapS":10497,"wrapT":10497}],"scene":0,"scenes":[{"nodes":[0]}],"textures":[{"name":"pixy_1_0","sampler":0,"source":0},{"name":"pixy_1_1","sampler":0,"source":1},{"name":"pixy_1_2","sampler":0,"source":2}]}