{"accessors":[{"name":"polygon0_1_0_positions","componentType":5126,"count":12,"min":[-0.8733000159263611,3.4055960178375244,2.0656609535217285],"max":[0.8733000159263611,4.071656227111816,2.604175090789795],"type":"VEC3","bufferView":0,"byteOffset":0},{"name":"polygon0_1_0_normals","componentType":5126,"count":12,"min":[-0.8215102553367615,-0.08245803415775299,0.5701131820678711],"max":[0.8215102553367615,0.1640070229768753,0.7359662652015686],"type":"VEC3","bufferView":1,"byteOffset":0},{"name":"polygon0_1_0_texcoords","componentType":5126,"count":12,"min":[-0.012268000282347202,0.018126999959349632],"max":[0.50177001953125,0.2525629997253418],"type":"VEC2","bufferView":2,"byteOffset":0},{"name":"polygon0_1_0_indices","componentType":5123,"count":24,"min":[0],"max":[11],"type":"SCALAR","bufferView":3,"byteOffset":0},{"name":"polygon1_1_0_positions","componentType":5126,"count":1094,"min":[-3.6477479934692383,-0.0004140000091865659,-4.922317028045654],"max":[3.6246039867401123,5.7417120933532715,3.0805869102478027],"type":"VEC3","bufferView":0,"byteOffset":144},{"name":"polygon1_1_0_normals","componentType":5126,"count":1094,"min":[-0.9993146061897278,-0.9987258315086365,-0.9999900460243225],"max":[0.9996124505996704,0.9976397156715393,0.9939998388290405],"type":"VEC3","bufferView":1,"byteOffset":144},{"name":"polygon1_1_0_texcoords","componentType":5126,"count":1094,"min":[0.014526000246405602,0.015045000240206718],"max":[0.9996340274810791,0.9822080135345459],"type":"VEC2","bufferView":2,"byteOffset":96},{"name":"polygon1_1_0_indices","componentType":5123,"count":4743,"min":[0],"max":[1093],"type":"SCALAR","bufferView":3,"byteOffset":48},{"name":"polygon2_1_0_positions","componentType":5126,"count":6,"min":[-0.2700450122356415,2.5822110176086426,2.3963539600372314],"max":[0.2700450122356415,2.761526107788086,2.7893919944763184],"type":"VEC3","bufferView":0,"byteOffset":13272},{"name":"polygon2_1_0_normals","componentType":5126,"count":6,"min":[-0.4725337624549866,-0.9873673319816589,0.15844805538654327],"max":[0.4725337624549866,-0.7091666460037231,0.5679399967193604],"type":"VEC3","bufferView":1,"byteOffset":13272},{"name":"polygon2_1_0_texcoords","componentType":5126,"count":6,"min":[0.028289999812841415,0.026611000299453735],"max":[0.9656980037689209,0.21588100492954254],"type":"VEC2","bufferView":2,"byteOffset":8848},{"name":"polygon2_1_0_indices","componentType":5123,"count":12,"min":[0],"max":[5],"type":"SCALAR","bufferView":3,"byteOffset":9536}],"asset":{"generator":"obj2gltf","version":"2.0"},"buffers":[{"name":"Vulpix","byteLength":389264,"uri":"data:application/octet-stream;base64,"}],"bufferViews":[{"name":"bufferView_0","buffer":0,"byteLength":13344,"byteOffset":0,"byteStride":12,"target":34962},{"name":"bufferView_1","buffer":0,"byteLength":13344,"byteOffset":13344,"byteStride":12,"target":34962},{"name":"bufferView_2","buffer":0,"byteLength":8896,"byteOffset":26688,"byteStride":8,"target":34962},{"name":"bufferView_3","buffer":0,"byteLength":9560,"byteOffset":35584,"target":34963},{"buffer":0,"byteOffset":45144,"byteLength":98322},{"buffer":0,"byteOffset":143466,"byteLength":196626},{"buffer":0,"byteOffset":340092,"byteLength":49170}],"images":[{"name":"RokonEyeDh","mimeType":"image/x-tga","bufferView":4},{"name":"RokonDh","mimeType":"image/x-tga","bufferView":5},{"name":"RokonMouthDh","mimeType":"image/x-tga","bufferView":6}],"materials":[{"name":"mat2","pbrMetallicRoughness":{"baseColorTexture":{"index":0},"baseColorFactor":[1,1,1,1],"metallicFactor":0,"roughnessFactor":0.99},"emissiveFactor":[0,0,0],"alphaMode":"OPAQUE","doubleSided":false},{"name":"mat1","pbrMetallicRoughness":{"baseColorTexture":{"index":1},"baseColorFactor":[1,1,1,1],"metallicFactor":0,"roughnessFactor":0.99},"emissiveFactor":[0,0,0],"alphaMode":"OPAQUE","doubleSided":false},{"name":"mat3","pbrMetallicRoughness":{"baseColorTexture":{"index":2},"baseColorFactor":[1,1,1,1],"metallicFactor":0,"roughnessFactor":0.99},"emissiveFactor":[0,0,0],"alphaMode":"OPAQUE","doubleSided":false}],"meshes":[{"name":"polygon0_1","primitives":[{"attributes":{"POSITION":0,"NORMAL":1,"TEXCOORD_0":2},"indices":3,"material":0,"mode":4}]},{"name":"polygon1_1","primitives":[{"attributes":{"POSITION":4,"NORMAL":5,"TEXCOORD_0":6},"indices":7,"material":1,"mode":4}]},{"name":"polygon2_1","primitives":[{"attributes":{"POSITION":8,"NORMAL":9,"TEXCOORD_0":10},"indices":11,"material":2,"mode":4}]}],"nodes":[{"name":"polygon0","mesh":0},{"name":"polygon1","mesh":1},{"name":"polygon2","mesh":2}],"samplers":[{"wrapS":10497,"wrapT":10497}],"scene":0,"scenes":[{"nodes":[0,1,2]}],"textures":[{"name":"RokonEyeDh","sampler":0,"source":0},{"name":"RokonDh","sampler":0,"source":1},{"name":"RokonMouthDh","sampler":0,"source":2}]}