{"accessors":[{"name":"polygon0_1_0_positions","componentType":5126,"count":18,"min":[-0.7887150049209595,7.203165054321289,3.9179599285125732],"max":[0.7887529730796814,7.961769104003906,4.792133808135986],"type":"VEC3","bufferView":0,"byteOffset":0},{"name":"polygon0_1_0_normals","componentType":5126,"count":18,"min":[-0.9998786449432373,-0.06542900204658508,0.015014994889497757],"max":[0.9998786449432373,0.3422848880290985,0.6941542029380798],"type":"VEC3","bufferView":1,"byteOffset":0},{"name":"polygon0_1_0_texcoords","componentType":5126,"count":18,"min":[0.019531000405550003,0.011718999594449997],"max":[0.46875,0.234375],"type":"VEC2","bufferView":2,"byteOffset":0},{"name":"polygon0_1_0_indices","componentType":5123,"count":48,"min":[0],"max":[17],"type":"SCALAR","bufferView":3,"byteOffset":0},{"name":"polygon1_1_0_positions","componentType":5126,"count":96,"min":[-1.4698619842529297,2.8607499599456787,0.349947988986969],"max":[1.4698619842529297,6.748362064361572,3.1902270317077637],"type":"VEC3","bufferView":0,"byteOffset":216},{"name":"polygon1_1_0_normals","componentType":5126,"count":96,"min":[-0.9866399765014648,-0.9761353135108948,-0.8584878444671631],"max":[0.9866399765014648,0.9455182552337646,0.8584878444671631],"type":"VEC3","bufferView":1,"byteOffset":216},{"name":"polygon1_1_0_texcoords","componentType":5126,"count":96,"min":[1.0682979822158813,0.016479000449180603],"max":[1.8681639432907104,0.9624019861221313],"type":"VEC2","bufferView":2,"byteOffset":144},{"name":"polygon1_1_0_indices","componentType":5123,"count":336,"min":[0],"max":[95],"type":"SCALAR","bufferView":3,"byteOffset":96},{"name":"polygon2_1_0_positions","componentType":5126,"count":994,"min":[-6.7741827964782715,0,-22.281906127929688],"max":[6.7741827964782715,10.252634048461914,5.518102169036865],"type":"VEC3","bufferView":0,"byteOffset":1368},{"name":"polygon2_1_0_normals","componentType":5126,"count":994,"min":[-0.9998786449432373,-0.9999862313270569,-0.9995635747909546],"max":[0.9998786449432373,0.9999960660934448,0.9988890290260315],"type":"VEC3","bufferView":1,"byteOffset":1368},{"name":"polygon2_1_0_texcoords","componentType":5126,"count":994,"min":[0.005156999919563532,0.012268000282347202],"max":[0.985260009765625,0.9818419814109802],"type":"VEC2","bufferView":2,"byteOffset":912},{"name":"polygon2_1_0_indices","componentType":5123,"count":4398,"min":[0],"max":[993],"type":"SCALAR","bufferView":3,"byteOffset":768}],"asset":{"generator":"obj2gltf","version":"2.0"},"buffers":[{"name":"Ninetales","byteLength":405524,"uri":"data:application/octet-stream;base64,"}],"bufferViews":[{"name":"bufferView_0","buffer":0,"byteLength":13296,"byteOffset":0,"byteStride":12,"target":34962},{"name":"bufferView_1","buffer":0,"byteLength":13296,"byteOffset":13296,"byteStride":12,"target":34962},{"name":"bufferView_2","buffer":0,"byteLength":8864,"byteOffset":26592,"byteStride":8,"target":34962},{"name":"bufferView_3","buffer":0,"byteLength":9564,"byteOffset":35456,"target":34963},{"buffer":0,"byteOffset":45020,"byteLength":98322},{"buffer":0,"byteOffset":143342,"byteLength":65554},{"buffer":0,"byteOffset":208896,"byteLength":196626}],"images":[{"name":"KyukonEyeDh","mimeType":"image/x-tga","bufferView":4},{"name":"KyukonChestDh","mimeType":"image/x-tga","bufferView":5},{"name":"KyukonDh","mimeType":"image/x-tga","bufferView":6}],"materials":[{"name":"mat3","pbrMetallicRoughness":{"baseColorTexture":{"index":0},"baseColorFactor":[1,1,1,1],"metallicFactor":0,"roughnessFactor":0.99},"emissiveFactor":[0,0,0],"alphaMode":"OPAQUE","doubleSided":false},{"name":"mat2","pbrMetallicRoughness":{"baseColorTexture":{"index":1},"baseColorFactor":[1,1,1,1],"metallicFactor":0,"roughnessFactor":0.99},"emissiveFactor":[0,0,0],"alphaMode":"OPAQUE","doubleSided":false},{"name":"mat1","pbrMetallicRoughness":{"baseColorTexture":{"index":2},"baseColorFactor":[1,1,1,1],"metallicFactor":0,"roughnessFactor":0.99},"emissiveFactor":[0,0,0],"alphaMode":"OPAQUE","doubleSided":false}],"meshes":[{"name":"polygon0_1","primitives":[{"attributes":{"POSITION":0,"NORMAL":1,"TEXCOORD_0":2},"indices":3,"material":0,"mode":4}]},{"name":"polygon1_1","primitives":[{"attributes":{"POSITION":4,"NORMAL":5,"TEXCOORD_0":6},"indices":7,"material":1,"mode":4}]},{"name":"polygon2_1","primitives":[{"attributes":{"POSITION":8,"NORMAL":9,"TEXCOORD_0":10},"indices":11,"material":2,"mode":4}]}],"nodes":[{"name":"polygon0","mesh":0},{"name":"polygon1","mesh":1},{"name":"polygon2","mesh":2}],"samplers":[{"wrapS":10497,"wrapT":10497}],"scene":0,"scenes":[{"nodes":[0,1,2]}],"textures":[{"name":"KyukonEyeDh","sampler":0,"source":0},{"name":"KyukonChestDh","sampler":0,"source":1},{"name":"KyukonDh","sampler":0,"source":2}]}