{"accessors":[{"name":"purin_c-Mesh_0_positions","componentType":5126,"count":10,"min":[-0.625,2.2309980392456055,-2.5],"max":[0.625,2.5,-1.5432909727096558],"type":"VEC3","bufferView":0,"byteOffset":0},{"name":"purin_c-Mesh_0_texcoords","componentType":5126,"count":10,"min":[0.5482379794120789,0.028699999675154686],"max":[0.7017620205879211,0.20759500563144684],"type":"VEC2","bufferView":1,"byteOffset":0},{"name":"purin_c-Mesh_0_indices","componentType":5123,"count":30,"min":[0],"max":[9],"type":"SCALAR","bufferView":2,"byteOffset":0},{"name":"purin_c-Mesh_1_positions","componentType":5126,"count":1386,"min":[-2.582024097442627,-2.5,-5.133220195770264],"max":[2.582024097442627,2.9312570095062256,0],"type":"VEC3","bufferView":0,"byteOffset":120},{"name":"purin_c-Mesh_1_texcoords","componentType":5126,"count":1386,"min":[0.009479999542236328,0.027904000133275986],"max":[0.4572719931602478,0.49382999539375305],"type":"VEC2","bufferView":1,"byteOffset":80},{"name":"purin_c-Mesh_1_indices","componentType":5123,"count":7482,"min":[0],"max":[1385],"type":"SCALAR","bufferView":2,"byteOffset":60},{"name":"purin_c-Mesh_2_positions","componentType":5126,"count":68,"min":[-2.16506290435791,1.0825320482254028,-3.75],"max":[2.16506290435791,2.5,-1.852952003479004],"type":"VEC3","bufferView":0,"byteOffset":16752},{"name":"purin_c-Mesh_2_texcoords","componentType":5126,"count":68,"min":[0.7882030010223389,0.04520900174975395],"max":[0.9617969989776611,0.20279499888420105],"type":"VEC2","bufferView":1,"byteOffset":11168},{"name":"purin_c-Mesh_2_indices","componentType":5123,"count":282,"min":[0],"max":[67],"type":"SCALAR","bufferView":2,"byteOffset":15024}],"asset":{"generator":"obj2gltf","version":"2.0"},"buffers":[{"name":"BR_Jigglypuff-Shiny01","byteLength":1093464,"uri":"data:application/octet-stream;base64,"}],"bufferViews":[{"name":"bufferView_0","buffer":0,"byteLength":17568,"byteOffset":0,"byteStride":12,"target":34962},{"name":"bufferView_1","buffer":0,"byteLength":11712,"byteOffset":17568,"byteStride":8,"target":34962},{"name":"bufferView_2","buffer":0,"byteLength":15588,"byteOffset":29280,"target":34963},{"buffer":0,"byteOffset":44868,"byteLength":1048594}],"images":[{"name":"purin_c_1_0","mimeType":"image/x-tga","bufferView":3}],"materials":[{"name":"mat_0","pbrMetallicRoughness":{"baseColorTexture":{"index":0},"baseColorFactor":[1,1,1,1],"metallicFactor":0,"roughnessFactor":0.903921569},"emissiveFactor":[0,0,0],"alphaMode":"BLEND","doubleSided":true},{"name":"mat_1","pbrMetallicRoughness":{"baseColorTexture":{"index":0},"baseColorFactor":[1,1,1,1],"metallicFactor":0,"roughnessFactor":0.903921569},"emissiveFactor":[0,0,0],"alphaMode":"BLEND","doubleSided":true},{"name":"mat_2","pbrMetallicRoughness":{"baseColorTexture":{"index":0},"baseColorFactor":[1,1,1,1],"metallicFactor":0,"roughnessFactor":0.903921569},"emissiveFactor":[0,0,0],"alphaMode":"BLEND","doubleSided":true}],"meshes":[{"name":"purin_c-Mesh","primitives":[{"attributes":{"POSITION":0,"TEXCOORD_0":1},"indices":2,"material":0,"mode":4},{"attributes":{"POSITION":3,"TEXCOORD_0":4},"indices":5,"material":1,"mode":4},{"attributes":{"POSITION":6,"TEXCOORD_0":7},"indices":8,"material":2,"mode":4}]}],"nodes":[{"name":"purin_c","mesh":0}],"samplers":[{"wrapS":10497,"wrapT":10497}],"scene":0,"scenes":[{"nodes":[0]}],"textures":[{"name":"purin_c_1_0","sampler":0,"source":0}]}