{"accessors":[{"name":"pukurin-Mesh_0_positions","componentType":5126,"count":54,"min":[-3.2666690349578857,1.6222599744796753,-9.066390037536621],"max":[3.2666690349578857,3.481790065765381,-6.134580135345459],"type":"VEC3","bufferView":0,"byteOffset":0},{"name":"pukurin-Mesh_0_texcoords","componentType":5126,"count":54,"min":[0.7647590041160583,0.03656100109219551],"max":[0.9852409958839417,0.22897599637508392],"type":"VEC2","bufferView":1,"byteOffset":0},{"name":"pukurin-Mesh_0_indices","componentType":5123,"count":204,"min":[0],"max":[53],"type":"SCALAR","bufferView":2,"byteOffset":0},{"name":"pukurin-Mesh_1_positions","componentType":5126,"count":1947,"min":[-6.299959182739258,-3.0476601123809814,-12.047761917114258],"max":[6.299959182739258,4.296901226043701,0.003700000001117587],"type":"VEC3","bufferView":0,"byteOffset":648},{"name":"pukurin-Mesh_1_texcoords","componentType":5126,"count":1947,"min":[0.0192440003156662,-0.0021639999467879534],"max":[0.4805600047111511,0.9480310082435608],"type":"VEC2","bufferView":1,"byteOffset":432},{"name":"pukurin-Mesh_1_indices","componentType":5123,"count":7926,"min":[0],"max":[1946],"type":"SCALAR","bufferView":2,"byteOffset":408},{"name":"pukurin-Mesh_2_positions","componentType":5126,"count":15,"min":[-1.6326689720153809,3.307229995727539,-7.3472700119018555],"max":[1.6326689720153809,3.8167099952697754,-5.759990215301514],"type":"VEC3","bufferView":0,"byteOffset":24012},{"name":"pukurin-Mesh_2_texcoords","componentType":5126,"count":15,"min":[0.5068979859352112,-0.016499999910593033],"max":[0.7431020140647888,0.2265619933605194],"type":"VEC2","bufferView":1,"byteOffset":16008},{"name":"pukurin-Mesh_2_indices","componentType":5123,"count":48,"min":[0],"max":[14],"type":"SCALAR","bufferView":2,"byteOffset":16260}],"asset":{"generator":"obj2gltf","version":"2.0"},"buffers":[{"name":"BR_Wigglytuff-Shiny01","byteLength":1105272,"uri":"data:application/octet-stream;base64,"}],"bufferViews":[{"name":"bufferView_0","buffer":0,"byteLength":24192,"byteOffset":0,"byteStride":12,"target":34962},{"name":"bufferView_1","buffer":0,"byteLength":16128,"byteOffset":24192,"byteStride":8,"target":34962},{"name":"bufferView_2","buffer":0,"byteLength":16356,"byteOffset":40320,"target":34963},{"buffer":0,"byteOffset":56676,"byteLength":1048594}],"images":[{"name":"pukurin_1_0","mimeType":"image/x-tga","bufferView":3}],"materials":[{"name":"mat_0","pbrMetallicRoughness":{"baseColorTexture":{"index":0},"baseColorFactor":[1,1,1,1],"metallicFactor":0,"roughnessFactor":0.903921569},"emissiveFactor":[0,0,0],"alphaMode":"BLEND","doubleSided":true},{"name":"mat_1","pbrMetallicRoughness":{"baseColorTexture":{"index":0},"baseColorFactor":[1,1,1,1],"metallicFactor":0,"roughnessFactor":0.903921569},"emissiveFactor":[0,0,0],"alphaMode":"BLEND","doubleSided":true},{"name":"mat_2","pbrMetallicRoughness":{"baseColorTexture":{"index":0},"baseColorFactor":[1,1,1,1],"metallicFactor":0,"roughnessFactor":0.903921569},"emissiveFactor":[0,0,0],"alphaMode":"BLEND","doubleSided":true}],"meshes":[{"name":"pukurin-Mesh","primitives":[{"attributes":{"POSITION":0,"TEXCOORD_0":1},"indices":2,"material":0,"mode":4},{"attributes":{"POSITION":3,"TEXCOORD_0":4},"indices":5,"material":1,"mode":4},{"attributes":{"POSITION":6,"TEXCOORD_0":7},"indices":8,"material":2,"mode":4}]}],"nodes":[{"name":"pukurin","mesh":0}],"samplers":[{"wrapS":10497,"wrapT":10497}],"scene":0,"scenes":[{"nodes":[0]}],"textures":[{"name":"pukurin_1_0","sampler":0,"source":0}]}