{"accessors":[{"name":"polygon0_1_0_positions","componentType":5126,"count":81,"min":[-0.7979320287704468,17.179250717163086,0.00037399999564513564],"max":[0.7979320287704468,18.244211196899414,1.192870020866394],"type":"VEC3","bufferView":0,"byteOffset":0},{"name":"polygon0_1_0_normals","componentType":5126,"count":81,"min":[-0.8851370215415955,-0.979867696762085,-0.39679014682769775],"max":[0.8851370215415955,0.9999995231628418,0.9749538898468018],"type":"VEC3","bufferView":1,"byteOffset":0},{"name":"polygon0_1_0_texcoords","componentType":5126,"count":81,"min":[0.8800659775733948,0.5317080020904541],"max":[0.9836729764938354,0.7932739853858948],"type":"VEC2","bufferView":2,"byteOffset":0},{"name":"polygon0_1_0_indices","componentType":5123,"count":384,"min":[0],"max":[80],"type":"SCALAR","bufferView":3,"byteOffset":0},{"name":"polygon1_1_0_positions","componentType":5126,"count":921,"min":[-6.710655212402344,10.960565567016602,-0.9162319898605347],"max":[6.710655212402344,19.90831756591797,1.2507920265197754],"type":"VEC3","bufferView":0,"byteOffset":972},{"name":"polygon1_1_0_normals","componentType":5126,"count":921,"min":[-0.9987794756889343,-0.999823272228241,-0.9999998807907104],"max":[0.9987794756889343,0.9991179704666138,0.9999998807907104],"type":"VEC3","bufferView":1,"byteOffset":972},{"name":"polygon1_1_0_texcoords","componentType":5126,"count":921,"min":[0.010010000318288803,0.007873999886214733],"max":[0.9916380047798157,0.9917910099029541],"type":"VEC2","bufferView":2,"byteOffset":648},{"name":"polygon1_1_0_indices","componentType":5123,"count":4326,"min":[0],"max":[920],"type":"SCALAR","bufferView":3,"byteOffset":768}],"asset":{"generator":"obj2gltf","version":"2.0"},"buffers":[{"name":"Zubat","byteLength":238112,"uri":"data:application/octet-stream;base64,"}],"bufferViews":[{"name":"bufferView_0","buffer":0,"byteLength":12024,"byteOffset":0,"byteStride":12,"target":34962},{"name":"bufferView_1","buffer":0,"byteLength":12024,"byteOffset":12024,"byteStride":12,"target":34962},{"name":"bufferView_2","buffer":0,"byteLength":8016,"byteOffset":24048,"byteStride":8,"target":34962},{"name":"bufferView_3","buffer":0,"byteLength":9420,"byteOffset":32064,"target":34963},{"buffer":0,"byteOffset":41484,"byteLength":196626}],"images":[{"name":"ZubatDh","mimeType":"image/x-tga","bufferView":4}],"materials":[{"name":"mat2","pbrMetallicRoughness":{"baseColorTexture":{"index":0},"baseColorFactor":[1,1,1,1],"metallicFactor":0,"roughnessFactor":0.99},"emissiveFactor":[0,0,0],"alphaMode":"OPAQUE","doubleSided":false},{"name":"mat1","pbrMetallicRoughness":{"baseColorTexture":{"index":0},"baseColorFactor":[1,1,1,1],"metallicFactor":0,"roughnessFactor":0.99},"emissiveFactor":[0,0,0],"alphaMode":"OPAQUE","doubleSided":false}],"meshes":[{"name":"polygon0_1","primitives":[{"attributes":{"POSITION":0,"NORMAL":1,"TEXCOORD_0":2},"indices":3,"material":0,"mode":4}]},{"name":"polygon1_1","primitives":[{"attributes":{"POSITION":4,"NORMAL":5,"TEXCOORD_0":6},"indices":7,"material":1,"mode":4}]}],"nodes":[{"name":"polygon0","mesh":0},{"name":"polygon1","mesh":1}],"samplers":[{"wrapS":10497,"wrapT":10497}],"scene":0,"scenes":[{"nodes":[0,1]}],"textures":[{"name":"ZubatDh","sampler":0,"source":0}]}