{"accessors":[{"name":"polygon0_1_0_positions","componentType":5126,"count":40,"min":[-1.9906460046768188,10.091180801391602,2.0926740169525146],"max":[1.9906460046768188,11.304838180541992,3.277017116546631],"type":"VEC3","bufferView":0,"byteOffset":0},{"name":"polygon0_1_0_normals","componentType":5126,"count":40,"min":[-0.6425032615661621,0.07843198627233505,0.292417049407959],"max":[0.6425032615661621,0.9260702729225159,0.9592472910881042],"type":"VEC3","bufferView":1,"byteOffset":0},{"name":"polygon0_1_0_texcoords","componentType":5126,"count":40,"min":[1.0183720588684082,0.015991000458598137],"max":[1.4677729606628418,0.2408140003681183],"type":"VEC2","bufferView":2,"byteOffset":0},{"name":"polygon0_1_0_indices","componentType":5123,"count":144,"min":[0],"max":[39],"type":"SCALAR","bufferView":3,"byteOffset":0},{"name":"polygon1_1_0_positions","componentType":5126,"count":822,"min":[-23.111696243286133,0.05362600088119507,-2.676119089126587],"max":[23.111690521240234,19.529541015625,3.3403289318084717],"type":"VEC3","bufferView":0,"byteOffset":480},{"name":"polygon1_1_0_normals","componentType":5126,"count":822,"min":[-0.9999912977218628,-0.9999186396598816,-0.9999815821647644],"max":[0.9999912977218628,0.9998757243156433,0.9999962449073792],"type":"VEC3","bufferView":1,"byteOffset":480},{"name":"polygon1_1_0_texcoords","componentType":5126,"count":822,"min":[0.005859000142663717,0.008849999867379665],"max":[0.9946900010108948,0.992156982421875],"type":"VEC2","bufferView":2,"byteOffset":320},{"name":"polygon1_1_0_indices","componentType":5123,"count":4032,"min":[0],"max":[821],"type":"SCALAR","bufferView":3,"byteOffset":288},{"name":"polygon2_1_0_positions","componentType":5126,"count":103,"min":[-2.7718629837036133,1.5145360231399536,-0.4191420078277588],"max":[2.7718629837036133,10.559870719909668,3.135037899017334],"type":"VEC3","bufferView":0,"byteOffset":10344},{"name":"polygon2_1_0_normals","componentType":5126,"count":103,"min":[-0.9984873533248901,-0.999980628490448,-0.6605287790298462],"max":[0.9984873533248901,0.9961676001548767,0.9998255968093872],"type":"VEC3","bufferView":1,"byteOffset":10344},{"name":"polygon2_1_0_texcoords","componentType":5126,"count":103,"min":[0.1523440033197403,0.011718999594449997],"max":[0.2890630066394806,0.4726560115814209],"type":"VEC2","bufferView":2,"byteOffset":6896},{"name":"polygon2_1_0_indices","componentType":5123,"count":504,"min":[0],"max":[102],"type":"SCALAR","bufferView":3,"byteOffset":8352}],"asset":{"generator":"obj2gltf","version":"2.0"},"buffers":[{"name":"Golbat","byteLength":335188,"uri":"data:application/octet-stream;base64,"}],"bufferViews":[{"name":"bufferView_0","buffer":0,"byteLength":11580,"byteOffset":0,"byteStride":12,"target":34962},{"name":"bufferView_1","buffer":0,"byteLength":11580,"byteOffset":11580,"byteStride":12,"target":34962},{"name":"bufferView_2","buffer":0,"byteLength":7720,"byteOffset":23160,"byteStride":8,"target":34962},{"name":"bufferView_3","buffer":0,"byteLength":9360,"byteOffset":30880,"target":34963},{"buffer":0,"byteOffset":40240,"byteLength":98322},{"buffer":0,"byteOffset":138562,"byteLength":196626}],"images":[{"name":"GolbatEyeDh","mimeType":"image/x-tga","bufferView":4},{"name":"GolbatDh","mimeType":"image/x-tga","bufferView":5}],"materials":[{"name":"mat2","pbrMetallicRoughness":{"baseColorTexture":{"index":0},"baseColorFactor":[1,1,1,1],"metallicFactor":0,"roughnessFactor":0.99},"emissiveFactor":[0,0,0],"alphaMode":"OPAQUE","doubleSided":false},{"name":"mat1","pbrMetallicRoughness":{"baseColorTexture":{"index":1},"baseColorFactor":[1,1,1,1],"metallicFactor":0,"roughnessFactor":0.99},"emissiveFactor":[0,0,0],"alphaMode":"OPAQUE","doubleSided":false},{"name":"mat3","pbrMetallicRoughness":{"baseColorTexture":{"index":1},"baseColorFactor":[1,1,1,1],"metallicFactor":0,"roughnessFactor":0.99},"emissiveFactor":[0,0,0],"alphaMode":"OPAQUE","doubleSided":false}],"meshes":[{"name":"polygon0_1","primitives":[{"attributes":{"POSITION":0,"NORMAL":1,"TEXCOORD_0":2},"indices":3,"material":0,"mode":4}]},{"name":"polygon1_1","primitives":[{"attributes":{"POSITION":4,"NORMAL":5,"TEXCOORD_0":6},"indices":7,"material":1,"mode":4}]},{"name":"polygon2_1","primitives":[{"attributes":{"POSITION":8,"NORMAL":9,"TEXCOORD_0":10},"indices":11,"material":2,"mode":4}]}],"nodes":[{"name":"polygon0","mesh":0},{"name":"polygon1","mesh":1},{"name":"polygon2","mesh":2}],"samplers":[{"wrapS":10497,"wrapT":10497}],"scene":0,"scenes":[{"nodes":[0,1,2]}],"textures":[{"name":"GolbatEyeDh","sampler":0,"source":0},{"name":"GolbatDh","sampler":0,"source":1}]}