{"accessors":[{"name":"polygon0_1_0_positions","componentType":5126,"count":7,"min":[-0.2745940089225769,0.8101040124893188,0.9366980195045471],"max":[0.2745940089225769,1.2564899921417236,1.0312399864196777],"type":"VEC3","bufferView":0,"byteOffset":0},{"name":"polygon0_1_0_normals","componentType":5126,"count":7,"min":[-0.2418200522661209,-0.49670401215553284,0.8679199814796448],"max":[0.2418200522661209,0.1472209393978119,0.9891036152839661],"type":"VEC3","bufferView":1,"byteOffset":0},{"name":"polygon0_1_0_texcoords","componentType":5126,"count":7,"min":[0.04855300113558769,0.010344999842345715],"max":[0.9515079855918884,0.20935100317001343],"type":"VEC2","bufferView":2,"byteOffset":0},{"name":"polygon0_1_0_indices","componentType":5123,"count":18,"min":[0],"max":[6],"type":"SCALAR","bufferView":3,"byteOffset":0},{"name":"polygon1_1_0_positions","componentType":5126,"count":548,"min":[-3.0225698947906494,-0.015468000434339046,-2.063380002975464],"max":[3.0225698947906494,4.958427906036377,1.0107200145721436],"type":"VEC3","bufferView":0,"byteOffset":84},{"name":"polygon1_1_0_normals","componentType":5126,"count":548,"min":[-0.9991941452026367,-0.9903469681739807,-0.9999023079872131],"max":[0.9991941452026367,1,0.9994231462478638],"type":"VEC3","bufferView":1,"byteOffset":84},{"name":"polygon1_1_0_texcoords","componentType":5126,"count":548,"min":[0.010192999616265297,0.018859999254345894],"max":[0.9898679852485657,0.9864199757575989],"type":"VEC2","bufferView":2,"byteOffset":56},{"name":"polygon1_1_0_indices","componentType":5123,"count":2154,"min":[0],"max":[547],"type":"SCALAR","bufferView":3,"byteOffset":36},{"name":"polygon2_1_0_positions","componentType":5126,"count":6,"min":[-0.5382599830627441,1.2564899921417236,0.8058680295944214],"max":[0.5382599830627441,1.4834669828414917,1.0107200145721436],"type":"VEC3","bufferView":0,"byteOffset":6660},{"name":"polygon2_1_0_normals","componentType":5126,"count":6,"min":[-0.4704568386077881,0.1472209393978119,0.7757477760314941],"max":[0.4704568386077881,0.4637398421764374,0.9891036152839661],"type":"VEC3","bufferView":1,"byteOffset":6660},{"name":"polygon2_1_0_texcoords","componentType":5126,"count":6,"min":[0.007813000120222569,0.0859370008111],"max":[0.4804689884185791,0.1914059966802597],"type":"VEC2","bufferView":2,"byteOffset":4440},{"name":"polygon2_1_0_indices","componentType":5123,"count":12,"min":[0],"max":[5],"type":"SCALAR","bufferView":3,"byteOffset":4344}],"asset":{"generator":"obj2gltf","version":"2.0"},"buffers":[{"name":"Oddish","byteLength":366440,"uri":"data:application/octet-stream;base64,"}],"bufferViews":[{"name":"bufferView_0","buffer":0,"byteLength":6732,"byteOffset":0,"byteStride":12,"target":34962},{"name":"bufferView_1","buffer":0,"byteLength":6732,"byteOffset":6732,"byteStride":12,"target":34962},{"name":"bufferView_2","buffer":0,"byteLength":4488,"byteOffset":13464,"byteStride":8,"target":34962},{"name":"bufferView_3","buffer":0,"byteLength":4368,"byteOffset":17952,"target":34963},{"buffer":0,"byteOffset":22320,"byteLength":49170},{"buffer":0,"byteOffset":71490,"byteLength":196626},{"buffer":0,"byteOffset":268116,"byteLength":98322}],"images":[{"name":"NazonokusaMouthDh","mimeType":"image/x-tga","bufferView":4},{"name":"NazonokusaDh","mimeType":"image/x-tga","bufferView":5},{"name":"NazonokusaEyeDh","mimeType":"image/x-tga","bufferView":6}],"materials":[{"name":"mat3","pbrMetallicRoughness":{"baseColorTexture":{"index":0},"baseColorFactor":[1,1,1,1],"metallicFactor":0,"roughnessFactor":0.99},"emissiveFactor":[0,0,0],"alphaMode":"OPAQUE","doubleSided":false},{"name":"mat1","pbrMetallicRoughness":{"baseColorTexture":{"index":1},"baseColorFactor":[1,1,1,1],"metallicFactor":0,"roughnessFactor":0.99},"emissiveFactor":[0,0,0],"alphaMode":"OPAQUE","doubleSided":false},{"name":"mat2","pbrMetallicRoughness":{"baseColorTexture":{"index":2},"baseColorFactor":[1,1,1,1],"metallicFactor":0,"roughnessFactor":0.99},"emissiveFactor":[0,0,0],"alphaMode":"OPAQUE","doubleSided":false}],"meshes":[{"name":"polygon0_1","primitives":[{"attributes":{"POSITION":0,"NORMAL":1,"TEXCOORD_0":2},"indices":3,"material":0,"mode":4}]},{"name":"polygon1_1","primitives":[{"attributes":{"POSITION":4,"NORMAL":5,"TEXCOORD_0":6},"indices":7,"material":1,"mode":4}]},{"name":"polygon2_1","primitives":[{"attributes":{"POSITION":8,"NORMAL":9,"TEXCOORD_0":10},"indices":11,"material":2,"mode":4}]}],"nodes":[{"name":"polygon0","mesh":0},{"name":"polygon1","mesh":1},{"name":"polygon2","mesh":2}],"samplers":[{"wrapS":10497,"wrapT":10497}],"scene":0,"scenes":[{"nodes":[0,1,2]}],"textures":[{"name":"NazonokusaMouthDh","sampler":0,"source":0},{"name":"NazonokusaDh","sampler":0,"source":1},{"name":"NazonokusaEyeDh","sampler":0,"source":2}]}