{"accessors":[{"name":"kusaihana-Mesh_0_positions","componentType":5126,"count":252,"min":[-1.237766981124878,1.941970944404602,-3.370255947113037],"max":[1.237766981124878,2.633315086364746,-2.1663730144500732],"type":"VEC3","bufferView":0,"byteOffset":0},{"name":"kusaihana-Mesh_0_texcoords","componentType":5126,"count":252,"min":[0.8174009919166565,0.8389790058135986],"max":[0.9856839776039124,0.9848499894142151],"type":"VEC2","bufferView":1,"byteOffset":0},{"name":"kusaihana-Mesh_0_indices","componentType":5123,"count":1206,"min":[0],"max":[251],"type":"SCALAR","bufferView":2,"byteOffset":0}],"asset":{"generator":"obj2gltf","version":"2.0"},"buffers":[{"name":"BR_Gloom-Shiny01","byteLength":1056048,"uri":"data:application/octet-stream;base64,"}],"bufferViews":[{"name":"bufferView_0","buffer":0,"byteLength":3024,"byteOffset":0,"byteStride":12,"target":34962},{"name":"bufferView_1","buffer":0,"byteLength":2016,"byteOffset":3024,"byteStride":8,"target":34962},{"name":"bufferView_2","buffer":0,"byteLength":2412,"byteOffset":5040,"target":34963},{"buffer":0,"byteOffset":7452,"byteLength":1048594}],"images":[{"name":"kusaihana_1_0","mimeType":"image/x-tga","bufferView":3}],"materials":[{"name":"mat_0","pbrMetallicRoughness":{"baseColorTexture":{"index":0},"baseColorFactor":[1,1,1,1],"metallicFactor":0,"roughnessFactor":0.903921569},"emissiveFactor":[0,0,0],"alphaMode":"BLEND","doubleSided":true}],"meshes":[{"name":"kusaihana-Mesh","primitives":[{"attributes":{"POSITION":0,"TEXCOORD_0":1},"indices":2,"material":0,"mode":4}]}],"nodes":[{"name":"kusaihana","mesh":0}],"samplers":[{"wrapS":10497,"wrapT":10497}],"scene":0,"scenes":[{"nodes":[0]}],"textures":[{"name":"kusaihana_1_0","sampler":0,"source":0}]}