{"accessors":[{"name":"ruffresia_c-Mesh_0_positions","componentType":5126,"count":253,"min":[-6.032979965209961,-4.2858500480651855,-9.382729530334473],"max":[6.032979965209961,4.032219886779785,0.06743700057268143],"type":"VEC3","bufferView":0,"byteOffset":0},{"name":"ruffresia_c-Mesh_0_texcoords","componentType":5126,"count":253,"min":[0.05989599972963333,0.234375],"max":[0.20334400236606598,0.956013023853302],"type":"VEC2","bufferView":1,"byteOffset":0},{"name":"ruffresia_c-Mesh_0_indices","componentType":5123,"count":1368,"min":[0],"max":[252],"type":"SCALAR","bufferView":2,"byteOffset":0},{"name":"ruffresia_c-Mesh_1_positions","componentType":5126,"count":6,"min":[-1.532349944114685,3.4640400409698486,-6.315159797668457],"max":[1.532349944114685,4.032219886779785,-4.402810096740723],"type":"VEC3","bufferView":0,"byteOffset":3036},{"name":"ruffresia_c-Mesh_1_texcoords","componentType":5126,"count":6,"min":[0.03767000138759613,0.0028009999077767134],"max":[0.9560120105743408,0.24111999571323395],"type":"VEC2","bufferView":1,"byteOffset":2024},{"name":"ruffresia_c-Mesh_1_indices","componentType":5123,"count":12,"min":[0],"max":[5],"type":"SCALAR","bufferView":2,"byteOffset":2736},{"name":"ruffresia_c-Mesh_2_positions","componentType":5126,"count":305,"min":[-11.26039981842041,-10.50979995727539,-12.166999816894531],"max":[11.403499603271484,11.70740032196045,-7.1027398109436035],"type":"VEC3","bufferView":0,"byteOffset":3108},{"name":"ruffresia_c-Mesh_2_texcoords","componentType":5126,"count":305,"min":[0.016604000702500343,0.07915200293064117],"max":[0.9174960255622864,0.9768400192260742],"type":"VEC2","bufferView":1,"byteOffset":2072},{"name":"ruffresia_c-Mesh_2_indices","componentType":5123,"count":1050,"min":[0],"max":[304],"type":"SCALAR","bufferView":2,"byteOffset":2760},{"name":"ruffresia_c-Mesh_3_positions","componentType":5126,"count":24,"min":[-1.808519959449768,-1.0330100059509277,-11.537300109863281],"max":[1.8085299730300903,2.405869960784912,-11.175800323486328],"type":"VEC3","bufferView":0,"byteOffset":6768},{"name":"ruffresia_c-Mesh_3_texcoords","componentType":5126,"count":24,"min":[0.141292005777359,0.844353973865509],"max":[0.184689000248909,0.8877519965171814],"type":"VEC2","bufferView":1,"byteOffset":4512},{"name":"ruffresia_c-Mesh_3_indices","componentType":5123,"count":36,"min":[0],"max":[23],"type":"SCALAR","bufferView":2,"byteOffset":4860},{"name":"ruffresia_c-Mesh_4_positions","componentType":5126,"count":168,"min":[-2.6445400714874268,-2.076539993286133,-12.015899658203125],"max":[2.6445400714874268,3.0851199626922607,-8.726110458374023],"type":"VEC3","bufferView":0,"byteOffset":7056},{"name":"ruffresia_c-Mesh_4_texcoords","componentType":5126,"count":168,"min":[0.014635000377893448,0.01064400002360344],"max":[0.9872440099716187,0.9832509756088257],"type":"VEC2","bufferView":1,"byteOffset":4704},{"name":"ruffresia_c-Mesh_4_indices","componentType":5123,"count":360,"min":[0],"max":[167],"type":"SCALAR","bufferView":2,"byteOffset":4932}],"asset":{"generator":"obj2gltf","version":"2.0"},"buffers":[{"name":"BR_Vileplume-Shiny01","byteLength":1071488,"uri":"data:application/octet-stream;base64,"}],"bufferViews":[{"name":"bufferView_0","buffer":0,"byteLength":9072,"byteOffset":0,"byteStride":12,"target":34962},{"name":"bufferView_1","buffer":0,"byteLength":6048,"byteOffset":9072,"byteStride":8,"target":34962},{"name":"bufferView_2","buffer":0,"byteLength":5652,"byteOffset":15120,"target":34963},{"buffer":0,"byteOffset":20772,"byteLength":524306},{"buffer":0,"byteOffset":545078,"byteLength":262162},{"buffer":0,"byteOffset":807240,"byteLength":262162},{"buffer":0,"byteOffset":1069402,"byteLength":1042},{"buffer":0,"byteOffset":1070444,"byteLength":1042}],"images":[{"name":"ruffresia_c_1_0","mimeType":"image/x-tga","bufferView":3},{"name":"ruffresia_c_1_1","mimeType":"image/x-tga","bufferView":4},{"name":"ruffresia_c_1_2","mimeType":"image/x-tga","bufferView":5},{"name":"ruffresia_c_1_3","mimeType":"image/x-tga","bufferView":6},{"name":"ruffresia_c_1_4","mimeType":"image/x-tga","bufferView":7}],"materials":[{"name":"mat_0","pbrMetallicRoughness":{"baseColorTexture":{"index":0},"baseColorFactor":[1,1,1,1],"metallicFactor":0,"roughnessFactor":0.903921569},"emissiveFactor":[0,0,0],"alphaMode":"BLEND","doubleSided":true},{"name":"mat_1","pbrMetallicRoughness":{"baseColorTexture":{"index":1},"baseColorFactor":[1,1,1,1],"metallicFactor":0,"roughnessFactor":0.903921569},"emissiveFactor":[0,0,0],"alphaMode":"BLEND","doubleSided":true},{"name":"mat_2","pbrMetallicRoughness":{"baseColorTexture":{"index":2},"baseColorFactor":[1,1,1,1],"metallicFactor":0,"roughnessFactor":0.903921569},"emissiveFactor":[0,0,0],"alphaMode":"BLEND","doubleSided":true},{"name":"mat_3","pbrMetallicRoughness":{"baseColorTexture":{"index":3},"baseColorFactor":[1,1,1,1],"metallicFactor":0,"roughnessFactor":0.903921569},"emissiveFactor":[0,0,0],"alphaMode":"BLEND","doubleSided":true},{"name":"mat_4","pbrMetallicRoughness":{"baseColorTexture":{"index":4},"baseColorFactor":[1,1,1,1],"metallicFactor":0,"roughnessFactor":0.903921569},"emissiveFactor":[0,0,0],"alphaMode":"BLEND","doubleSided":true}],"meshes":[{"name":"ruffresia_c-Mesh","primitives":[{"attributes":{"POSITION":0,"TEXCOORD_0":1},"indices":2,"material":0,"mode":4},{"attributes":{"POSITION":3,"TEXCOORD_0":4},"indices":5,"material":1,"mode":4},{"attributes":{"POSITION":6,"TEXCOORD_0":7},"indices":8,"material":2,"mode":4},{"attributes":{"POSITION":9,"TEXCOORD_0":10},"indices":11,"material":3,"mode":4},{"attributes":{"POSITION":12,"TEXCOORD_0":13},"indices":14,"material":4,"mode":4}]}],"nodes":[{"name":"ruffresia_c","mesh":0}],"samplers":[{"wrapS":10497,"wrapT":10497}],"scene":0,"scenes":[{"nodes":[0]}],"textures":[{"name":"ruffresia_c_1_0","sampler":0,"source":0},{"name":"ruffresia_c_1_1","sampler":0,"source":1},{"name":"ruffresia_c_1_2","sampler":0,"source":2},{"name":"ruffresia_c_1_3","sampler":0,"source":3},{"name":"ruffresia_c_1_4","sampler":0,"source":4}]}