{"accessors":[{"name":"paras_c-Mesh_0_positions","componentType":5126,"count":60,"min":[-1.5399999618530273,-2.1700000762939453,-2.994999885559082],"max":[1.5399999618530273,1.75,-1.036910057067871],"type":"VEC3","bufferView":0,"byteOffset":0},{"name":"paras_c-Mesh_0_texcoords","componentType":5126,"count":60,"min":[0,0],"max":[1,1],"type":"VEC2","bufferView":1,"byteOffset":0},{"name":"paras_c-Mesh_0_indices","componentType":5123,"count":246,"min":[0],"max":[59],"type":"SCALAR","bufferView":2,"byteOffset":0},{"name":"paras_c-Mesh_1_positions","componentType":5126,"count":11,"min":[0.27097201347351074,1.4768400192260742,-1.7985199689865112],"max":[0.5049999952316284,1.816249966621399,-1.5877000093460083],"type":"VEC3","bufferView":0,"byteOffset":720},{"name":"paras_c-Mesh_1_texcoords","componentType":5126,"count":11,"min":[0.015625,0.0031250000465661287],"max":[0.984375,0.1373489946126938],"type":"VEC2","bufferView":1,"byteOffset":480},{"name":"paras_c-Mesh_1_indices","componentType":5123,"count":15,"min":[0],"max":[10],"type":"SCALAR","bufferView":2,"byteOffset":492},{"name":"paras_c-Mesh_2_positions","componentType":5126,"count":4,"min":[-0.414000004529953,1.4768400192260742,-1.7310400009155273],"max":[-0.27097201347351074,1.7696199417114258,-1.5877000093460083],"type":"VEC3","bufferView":0,"byteOffset":852},{"name":"paras_c-Mesh_2_texcoords","componentType":5126,"count":4,"min":[0.14644700288772583,0.0031250000465661287],"max":[1.0078500509262085,0.5740960240364075],"type":"VEC2","bufferView":1,"byteOffset":568},{"name":"paras_c-Mesh_2_indices","componentType":5123,"count":6,"min":[0],"max":[3],"type":"SCALAR","bufferView":2,"byteOffset":524},{"name":"paras_c-Mesh_3_positions","componentType":5126,"count":11,"min":[-0.41999998688697815,1.5509999990463257,-2.114000082015991],"max":[0.41999998688697815,1.8589999675750732,-1.4500000476837158],"type":"VEC3","bufferView":0,"byteOffset":900},{"name":"paras_c-Mesh_3_texcoords","componentType":5126,"count":11,"min":[-0.054016999900341034,-0.20000000298023224],"max":[1.0540200471878052,0.800000011920929],"type":"VEC2","bufferView":1,"byteOffset":600},{"name":"paras_c-Mesh_3_indices","componentType":5123,"count":36,"min":[0],"max":[10],"type":"SCALAR","bufferView":2,"byteOffset":536},{"name":"paras_c-Mesh_4_positions","componentType":5126,"count":23,"min":[0.2957499921321869,0.9185240268707275,-2.639270067214966],"max":[1.1042499542236328,1.641759991645813,-1.960729956626892],"type":"VEC3","bufferView":0,"byteOffset":1032},{"name":"paras_c-Mesh_4_texcoords","componentType":5126,"count":23,"min":[0,0.0031250000465661287],"max":[1,0.1909089982509613],"type":"VEC2","bufferView":1,"byteOffset":688},{"name":"paras_c-Mesh_4_indices","componentType":5123,"count":90,"min":[0],"max":[22],"type":"SCALAR","bufferView":2,"byteOffset":608},{"name":"paras_c-Mesh_5_positions","componentType":5126,"count":23,"min":[-1.1042499542236328,0.9173439741134644,-2.638159990310669],"max":[-0.2957499921321869,1.6404800415039062,-1.961840033531189],"type":"VEC3","bufferView":0,"byteOffset":1308},{"name":"paras_c-Mesh_5_texcoords","componentType":5126,"count":23,"min":[0,0.0031250000465661287],"max":[1,0.1909089982509613],"type":"VEC2","bufferView":1,"byteOffset":872},{"name":"paras_c-Mesh_5_indices","componentType":5123,"count":90,"min":[0],"max":[22],"type":"SCALAR","bufferView":2,"byteOffset":788},{"name":"paras_c-Mesh_6_positions","componentType":5126,"count":16,"min":[-1.5861799716949463,-0.5910000205039978,-3.4270899295806885],"max":[1.6599400043487549,0.29100000858306885,-2.0709400177001953],"type":"VEC3","bufferView":0,"byteOffset":1584},{"name":"paras_c-Mesh_6_texcoords","componentType":5126,"count":16,"min":[0.011160999536514282,0.2924109995365143],"max":[0.986607015132904,0.984375],"type":"VEC2","bufferView":1,"byteOffset":1056},{"name":"paras_c-Mesh_6_indices","componentType":5123,"count":18,"min":[0],"max":[15],"type":"SCALAR","bufferView":2,"byteOffset":968},{"name":"paras_c-Mesh_7_positions","componentType":5126,"count":144,"min":[-2.7090799808502197,-1.5153800249099731,-1.9328700304031372],"max":[2.699739933013916,1.485260009765625,0],"type":"VEC3","bufferView":0,"byteOffset":1776},{"name":"paras_c-Mesh_7_texcoords","componentType":5126,"count":144,"min":[0,0],"max":[1,1],"type":"VEC2","bufferView":1,"byteOffset":1184},{"name":"paras_c-Mesh_7_indices","componentType":5123,"count":630,"min":[0],"max":[143],"type":"SCALAR","bufferView":2,"byteOffset":1004},{"name":"paras_c-Mesh_8_positions","componentType":5126,"count":70,"min":[-1.933150053024292,-1.1086599826812744,-3.444540023803711],"max":[2.006920099258423,0.8086649775505066,-2.210520029067993],"type":"VEC3","bufferView":0,"byteOffset":3504},{"name":"paras_c-Mesh_8_texcoords","componentType":5126,"count":70,"min":[0.011076999828219414,0.00725199980661273],"max":[0.990801990032196,0.9888389706611633],"type":"VEC2","bufferView":1,"byteOffset":2336},{"name":"paras_c-Mesh_8_indices","componentType":5123,"count":150,"min":[0],"max":[69],"type":"SCALAR","bufferView":2,"byteOffset":2264},{"name":"paras_c-Mesh_9_positions","componentType":5126,"count":42,"min":[-2.003429889678955,-1.1086599826812744,-3.6474499702453613],"max":[2.077199935913086,0.8086649775505066,-2.210520029067993],"type":"VEC3","bufferView":0,"byteOffset":4344},{"name":"paras_c-Mesh_9_texcoords","componentType":5126,"count":42,"min":[0.09090899676084518,0],"max":[1,1],"type":"VEC2","bufferView":1,"byteOffset":2896},{"name":"paras_c-Mesh_9_indices","componentType":5123,"count":210,"min":[0],"max":[41],"type":"SCALAR","bufferView":2,"byteOffset":2564},{"name":"paras_c-Mesh_10_positions","componentType":5126,"count":62,"min":[-1.8481999635696411,1.1005200147628784,-1.933650016784668],"max":[1.8481999635696411,2.5,-9.999999974752427e-7],"type":"VEC3","bufferView":0,"byteOffset":4848},{"name":"paras_c-Mesh_10_texcoords","componentType":5126,"count":62,"min":[-3.3299999237060547,0],"max":[1.6699999570846558,1],"type":"VEC2","bufferView":1,"byteOffset":3232},{"name":"paras_c-Mesh_10_indices","componentType":5123,"count":336,"min":[0],"max":[61],"type":"SCALAR","bufferView":2,"byteOffset":2984}],"asset":{"generator":"obj2gltf","version":"2.0"},"buffers":[{"name":"BR_Paras-Shiny01","byteLength":60208,"uri":"data:application/octet-stream;base64,"}],"bufferViews":[{"name":"bufferView_0","buffer":0,"byteLength":5592,"byteOffset":0,"byteStride":12,"target":34962},{"name":"bufferView_1","buffer":0,"byteLength":3728,"byteOffset":5592,"byteStride":8,"target":34962},{"name":"bufferView_2","buffer":0,"byteLength":3656,"byteOffset":9320,"target":34963},{"buffer":0,"byteOffset":12976,"byteLength":8210},{"buffer":0,"byteOffset":21186,"byteLength":4114},{"buffer":0,"byteOffset":25300,"byteLength":20498},{"buffer":0,"byteOffset":45798,"byteLength":4114},{"buffer":0,"byteOffset":49912,"byteLength":4114},{"buffer":0,"byteOffset":54026,"byteLength":4114},{"buffer":0,"byteOffset":58140,"byteLength":2066}],"images":[{"name":"paras_c_1_0","mimeType":"image/x-tga","bufferView":3},{"name":"paras_c_1_1","mimeType":"image/x-tga","bufferView":4},{"name":"paras_c_1_2","mimeType":"image/x-tga","bufferView":5},{"name":"paras_c_1_4","mimeType":"image/x-tga","bufferView":6},{"name":"paras_c_1_5","mimeType":"image/x-tga","bufferView":7},{"name":"paras_c_1_7","mimeType":"image/x-tga","bufferView":8},{"name":"paras_c_1_8","mimeType":"image/x-tga","bufferView":9}],"materials":[{"name":"mat_0","pbrMetallicRoughness":{"baseColorTexture":{"index":0},"baseColorFactor":[1,1,1,1],"metallicFactor":0,"roughnessFactor":0.903921569},"emissiveFactor":[0,0,0],"alphaMode":"BLEND","doubleSided":true},{"name":"mat_1","pbrMetallicRoughness":{"baseColorFactor":[0.8,0.8,0.8,1],"metallicFactor":0,"roughnessFactor":0.903921569},"emissiveFactor":[0,0,0],"alphaMode":"OPAQUE","doubleSided":false},{"name":"mat_2","pbrMetallicRoughness":{"baseColorFactor":[0.8,0.8,0.8,1],"metallicFactor":0,"roughnessFactor":0.903921569},"emissiveFactor":[0,0,0],"alphaMode":"OPAQUE","doubleSided":false},{"name":"mat_3","pbrMetallicRoughness":{"baseColorTexture":{"index":1},"baseColorFactor":[1,1,1,1],"metallicFactor":0,"roughnessFactor":0.903921569},"emissiveFactor":[0,0,0],"alphaMode":"BLEND","doubleSided":true},{"name":"mat_4","pbrMetallicRoughness":{"baseColorTexture":{"index":2},"baseColorFactor":[1,1,1,1],"metallicFactor":0,"roughnessFactor":0.903921569},"emissiveFactor":[0,0,0],"alphaMode":"BLEND","doubleSided":true},{"name":"mat_5","pbrMetallicRoughness":{"baseColorTexture":{"index":2},"baseColorFactor":[1,1,1,1],"metallicFactor":0,"roughnessFactor":0.903921569},"emissiveFactor":[0,0,0],"alphaMode":"BLEND","doubleSided":true},{"name":"mat_6","pbrMetallicRoughness":{"baseColorTexture":{"index":3},"baseColorFactor":[1,1,1,1],"metallicFactor":0,"roughnessFactor":0.903921569},"emissiveFactor":[0,0,0],"alphaMode":"BLEND","doubleSided":true},{"name":"mat_7","pbrMetallicRoughness":{"baseColorTexture":{"index":4},"baseColorFactor":[1,1,1,1],"metallicFactor":0,"roughnessFactor":0.903921569},"emissiveFactor":[0,0,0],"alphaMode":"BLEND","doubleSided":true},{"name":"mat_8","pbrMetallicRoughness":{"baseColorTexture":{"index":3},"baseColorFactor":[1,1,1,1],"metallicFactor":0,"roughnessFactor":0.903921569},"emissiveFactor":[0,0,0],"alphaMode":"BLEND","doubleSided":true},{"name":"mat_9","pbrMetallicRoughness":{"baseColorTexture":{"index":5},"baseColorFactor":[1,1,1,1],"metallicFactor":0,"roughnessFactor":0.903921569},"emissiveFactor":[0,0,0],"alphaMode":"BLEND","doubleSided":true},{"name":"mat_10","pbrMetallicRoughness":{"baseColorTexture":{"index":6},"baseColorFactor":[1,1,1,1],"metallicFactor":0,"roughnessFactor":0.903921569},"emissiveFactor":[0,0,0],"alphaMode":"BLEND","doubleSided":true}],"meshes":[{"name":"paras_c-Mesh","primitives":[{"attributes":{"POSITION":0,"TEXCOORD_0":1},"indices":2,"material":0,"mode":4},{"attributes":{"POSITION":3,"TEXCOORD_0":4},"indices":5,"material":1,"mode":4},{"attributes":{"POSITION":6,"TEXCOORD_0":7},"indices":8,"material":2,"mode":4},{"attributes":{"POSITION":9,"TEXCOORD_0":10},"indices":11,"material":3,"mode":4},{"attributes":{"POSITION":12,"TEXCOORD_0":13},"indices":14,"material":4,"mode":4},{"attributes":{"POSITION":15,"TEXCOORD_0":16},"indices":17,"material":5,"mode":4},{"attributes":{"POSITION":18,"TEXCOORD_0":19},"indices":20,"material":6,"mode":4},{"attributes":{"POSITION":21,"TEXCOORD_0":22},"indices":23,"material":7,"mode":4},{"attributes":{"POSITION":24,"TEXCOORD_0":25},"indices":26,"material":8,"mode":4},{"attributes":{"POSITION":27,"TEXCOORD_0":28},"indices":29,"material":9,"mode":4},{"attributes":{"POSITION":30,"TEXCOORD_0":31},"indices":32,"material":10,"mode":4}]}],"nodes":[{"name":"paras_c","mesh":0}],"samplers":[{"wrapS":10497,"wrapT":10497}],"scene":0,"scenes":[{"nodes":[0]}],"textures":[{"name":"paras_c_1_0","sampler":0,"source":0},{"name":"paras_c_1_1","sampler":0,"source":1},{"name":"paras_c_1_2","sampler":0,"source":2},{"name":"paras_c_1_4","sampler":0,"source":3},{"name":"paras_c_1_5","sampler":0,"source":4},{"name":"paras_c_1_7","sampler":0,"source":5},{"name":"paras_c_1_8","sampler":0,"source":6}]}