{"accessors":[{"name":"parasect_c-Mesh_0_positions","componentType":5126,"count":35,"min":[-3.1371500492095947,-3.295069932937622,-5.558629989624023],"max":[3.16129994392395,3.563730001449585,-1.413599967956543],"type":"VEC3","bufferView":0,"byteOffset":0},{"name":"parasect_c-Mesh_0_texcoords","componentType":5126,"count":35,"min":[0,-3],"max":[1,1],"type":"VEC2","bufferView":1,"byteOffset":0},{"name":"parasect_c-Mesh_0_indices","componentType":5123,"count":144,"min":[0],"max":[34],"type":"SCALAR","bufferView":2,"byteOffset":0},{"name":"parasect_c-Mesh_1_positions","componentType":5126,"count":25,"min":[-1.7724599838256836,2.5441598892211914,-4.057819843292236],"max":[1.797510027885437,4.669539928436279,-2.2066400051116943],"type":"VEC3","bufferView":0,"byteOffset":420},{"name":"parasect_c-Mesh_1_texcoords","componentType":5126,"count":25,"min":[2,-0.7777799963951111],"max":[3,1],"type":"VEC2","bufferView":1,"byteOffset":280},{"name":"parasect_c-Mesh_1_indices","componentType":5123,"count":126,"min":[0],"max":[24],"type":"SCALAR","bufferView":2,"byteOffset":288},{"name":"parasect_c-Mesh_2_positions","componentType":5126,"count":8,"min":[-1.2229599952697754,4.302020072937012,-4.146100044250488],"max":[-0.04792800173163414,4.7915802001953125,-3.1347200870513916],"type":"VEC3","bufferView":0,"byteOffset":720},{"name":"parasect_c-Mesh_2_texcoords","componentType":5126,"count":8,"min":[0,0],"max":[0.6928809881210327,1.2832280397415161],"type":"VEC2","bufferView":1,"byteOffset":480},{"name":"parasect_c-Mesh_2_indices","componentType":5123,"count":21,"min":[0],"max":[7],"type":"SCALAR","bufferView":2,"byteOffset":540},{"name":"parasect_c-Mesh_3_positions","componentType":5126,"count":8,"min":[0.07703100144863129,4.302020072937012,-4.140900135040283],"max":[1.252060055732727,4.7915802001953125,-3.1295199394226074],"type":"VEC3","bufferView":0,"byteOffset":816},{"name":"parasect_c-Mesh_3_texcoords","componentType":5126,"count":8,"min":[0.024785000830888748,0.06179000064730644],"max":[0.9725980162620544,0.5134040117263794],"type":"VEC2","bufferView":1,"byteOffset":544},{"name":"parasect_c-Mesh_3_indices","componentType":5123,"count":21,"min":[0],"max":[7],"type":"SCALAR","bufferView":2,"byteOffset":584},{"name":"parasect_c-Mesh_4_positions","componentType":5126,"count":9,"min":[-1.179479956626892,3.660290002822876,-2.8673999309539795],"max":[1.2005000114440918,4.466969966888428,-2.6121599674224854],"type":"VEC3","bufferView":0,"byteOffset":912},{"name":"parasect_c-Mesh_4_texcoords","componentType":5126,"count":9,"min":[-0.040123000741004944,0.05851399898529053],"max":[1.040120005607605,1.2832280397415161],"type":"VEC2","bufferView":1,"byteOffset":608},{"name":"parasect_c-Mesh_4_indices","componentType":5123,"count":24,"min":[0],"max":[8],"type":"SCALAR","bufferView":2,"byteOffset":628},{"name":"parasect_c-Mesh_5_positions","componentType":5126,"count":95,"min":[-5.762979984283447,-4.468470096588135,-4.5107598304748535],"max":[5.780200004577637,4.466969966888428,0.01583999954164028],"type":"VEC3","bufferView":0,"byteOffset":1020},{"name":"parasect_c-Mesh_5_texcoords","componentType":5126,"count":95,"min":[0,0],"max":[1,1],"type":"VEC2","bufferView":1,"byteOffset":680},{"name":"parasect_c-Mesh_5_indices","componentType":5123,"count":414,"min":[0],"max":[94],"type":"SCALAR","bufferView":2,"byteOffset":676},{"name":"parasect_c-Mesh_6_positions","componentType":5126,"count":97,"min":[-4.888440132141113,-4.485559940338135,-5.292699813842773],"max":[4.882070064544678,4.921820163726807,-2.3686399459838867],"type":"VEC3","bufferView":0,"byteOffset":2160},{"name":"parasect_c-Mesh_6_texcoords","componentType":5126,"count":97,"min":[0.01724099926650524,0.011823000386357307],"max":[0.982142984867096,0.9918419718742371],"type":"VEC2","bufferView":1,"byteOffset":1440},{"name":"parasect_c-Mesh_6_indices","componentType":5123,"count":168,"min":[0],"max":[96],"type":"SCALAR","bufferView":2,"byteOffset":1504},{"name":"parasect_c-Mesh_7_positions","componentType":5126,"count":33,"min":[-4.888440132141113,-4.485559940338135,-9.742170333862305],"max":[4.882070064544678,4.881199836730957,-3.12716007232666],"type":"VEC3","bufferView":0,"byteOffset":3324},{"name":"parasect_c-Mesh_7_texcoords","componentType":5126,"count":33,"min":[0,0],"max":[1,1],"type":"VEC2","bufferView":1,"byteOffset":2216},{"name":"parasect_c-Mesh_7_indices","componentType":5123,"count":168,"min":[0],"max":[32],"type":"SCALAR","bufferView":2,"byteOffset":1840},{"name":"parasect_c-Mesh_8_positions","componentType":5126,"count":56,"min":[-4.304580211639404,-2.9583001136779785,-3.1470398902893066],"max":[4.3272600173950195,1.4997199773788452,-1.5969300270080566],"type":"VEC3","bufferView":0,"byteOffset":3720},{"name":"parasect_c-Mesh_8_texcoords","componentType":5126,"count":56,"min":[0,0],"max":[1,1],"type":"VEC2","bufferView":1,"byteOffset":2480},{"name":"parasect_c-Mesh_8_indices","componentType":5123,"count":288,"min":[0],"max":[55],"type":"SCALAR","bufferView":2,"byteOffset":2176},{"name":"parasect_c-Mesh_9_positions","componentType":5126,"count":17,"min":[4.111340045928955,1.0797699689865112,-3.225529909133911],"max":[5.51485013961792,1.9089200496673584,-2.0502400398254395],"type":"VEC3","bufferView":0,"byteOffset":4392},{"name":"parasect_c-Mesh_9_texcoords","componentType":5126,"count":17,"min":[0,0.05592099949717522],"max":[0.7302629947662354,0.956367015838623],"type":"VEC2","bufferView":1,"byteOffset":2928},{"name":"parasect_c-Mesh_9_indices","componentType":5123,"count":54,"min":[0],"max":[16],"type":"SCALAR","bufferView":2,"byteOffset":2752},{"name":"parasect_c-Mesh_10_positions","componentType":5126,"count":17,"min":[-5.497509956359863,1.080649971961975,-3.2569398880004883],"max":[-4.087900161743164,1.909850001335144,-2.086940050125122],"type":"VEC3","bufferView":0,"byteOffset":4596},{"name":"parasect_c-Mesh_10_texcoords","componentType":5126,"count":17,"min":[0,0.03618500009179115],"max":[0.734375,0.9432100057601929],"type":"VEC2","bufferView":1,"byteOffset":3064},{"name":"parasect_c-Mesh_10_indices","componentType":5123,"count":54,"min":[0],"max":[16],"type":"SCALAR","bufferView":2,"byteOffset":2860},{"name":"parasect_c-Mesh_11_positions","componentType":5126,"count":34,"min":[-4.182370185852051,-4.1209797859191895,-3.0503299236297607],"max":[4.20182991027832,-2.7570600509643555,-2.008970022201538],"type":"VEC3","bufferView":0,"byteOffset":4800},{"name":"parasect_c-Mesh_11_texcoords","componentType":5126,"count":34,"min":[0,0.03664100170135498],"max":[0.736020028591156,0.956367015838623],"type":"VEC2","bufferView":1,"byteOffset":3200},{"name":"parasect_c-Mesh_11_indices","componentType":5123,"count":108,"min":[0],"max":[33],"type":"SCALAR","bufferView":2,"byteOffset":2968},{"name":"parasect_c-Mesh_12_positions","componentType":5126,"count":42,"min":[-4.414060115814209,2.0792500972747803,-4.847549915313721],"max":[4.353529930114746,6.070789813995361,-0.9919919967651367],"type":"VEC3","bufferView":0,"byteOffset":5208},{"name":"parasect_c-Mesh_12_texcoords","componentType":5126,"count":42,"min":[0,0],"max":[1,1],"type":"VEC2","bufferView":1,"byteOffset":3472},{"name":"parasect_c-Mesh_12_indices","componentType":5123,"count":228,"min":[0],"max":[41],"type":"SCALAR","bufferView":2,"byteOffset":3184}],"asset":{"generator":"obj2gltf","version":"2.0"},"buffers":[{"name":"BR_Parasect-Shiny01","byteLength":48104,"uri":"data:application/octet-stream;base64,"}],"bufferViews":[{"name":"bufferView_0","buffer":0,"byteLength":5712,"byteOffset":0,"byteStride":12,"target":34962},{"name":"bufferView_1","buffer":0,"byteLength":3808,"byteOffset":5712,"byteStride":8,"target":34962},{"name":"bufferView_2","buffer":0,"byteLength":3640,"byteOffset":9520,"target":34963},{"buffer":0,"byteOffset":13160,"byteLength":8210},{"buffer":0,"byteOffset":21370,"byteLength":3090},{"buffer":0,"byteOffset":24460,"byteLength":4114},{"buffer":0,"byteOffset":28574,"byteLength":2066},{"buffer":0,"byteOffset":30640,"byteLength":8210},{"buffer":0,"byteOffset":38850,"byteLength":1042},{"buffer":0,"byteOffset":39892,"byteLength":8210}],"images":[{"name":"parasect_c_1_0","mimeType":"image/x-tga","bufferView":3},{"name":"parasect_c_1_2","mimeType":"image/x-tga","bufferView":4},{"name":"parasect_c_1_3","mimeType":"image/x-tga","bufferView":5},{"name":"parasect_c_1_4","mimeType":"image/x-tga","bufferView":6},{"name":"parasect_c_1_5","mimeType":"image/x-tga","bufferView":7},{"name":"parasect_c_1_6","mimeType":"image/x-tga","bufferView":8},{"name":"parasect_c_1_10","mimeType":"image/x-tga","bufferView":9}],"materials":[{"name":"mat_0","pbrMetallicRoughness":{"baseColorTexture":{"index":0},"baseColorFactor":[1,1,1,1],"metallicFactor":0,"roughnessFactor":0.903921569},"emissiveFactor":[0,0,0],"alphaMode":"BLEND","doubleSided":true},{"name":"mat_1","pbrMetallicRoughness":{"baseColorTexture":{"index":0},"baseColorFactor":[1,1,1,1],"metallicFactor":0,"roughnessFactor":0.903921569},"emissiveFactor":[0,0,0],"alphaMode":"BLEND","doubleSided":true},{"name":"mat_2","pbrMetallicRoughness":{"baseColorFactor":[0.8,0.8,0.8,1],"metallicFactor":0,"roughnessFactor":0.903921569},"emissiveFactor":[0,0,0],"alphaMode":"OPAQUE","doubleSided":false},{"name":"mat_3","pbrMetallicRoughness":{"baseColorFactor":[0.8,0.8,0.8,1],"metallicFactor":0,"roughnessFactor":0.903921569},"emissiveFactor":[0,0,0],"alphaMode":"OPAQUE","doubleSided":false},{"name":"mat_4","pbrMetallicRoughness":{"baseColorTexture":{"index":1},"baseColorFactor":[1,1,1,1],"metallicFactor":0,"roughnessFactor":0.903921569},"emissiveFactor":[0,0,0],"alphaMode":"BLEND","doubleSided":true},{"name":"mat_5","pbrMetallicRoughness":{"baseColorTexture":{"index":2},"baseColorFactor":[1,1,1,1],"metallicFactor":0,"roughnessFactor":0.903921569},"emissiveFactor":[0,0,0],"alphaMode":"BLEND","doubleSided":true},{"name":"mat_6","pbrMetallicRoughness":{"baseColorTexture":{"index":3},"baseColorFactor":[1,1,1,1],"metallicFactor":0,"roughnessFactor":0.903921569},"emissiveFactor":[0,0,0],"alphaMode":"BLEND","doubleSided":true},{"name":"mat_7","pbrMetallicRoughness":{"baseColorTexture":{"index":4},"baseColorFactor":[1,1,1,1],"metallicFactor":0,"roughnessFactor":0.903921569},"emissiveFactor":[0,0,0],"alphaMode":"BLEND","doubleSided":true},{"name":"mat_8","pbrMetallicRoughness":{"baseColorTexture":{"index":5},"baseColorFactor":[1,1,1,1],"metallicFactor":0,"roughnessFactor":0.903921569},"emissiveFactor":[0,0,0],"alphaMode":"BLEND","doubleSided":true},{"name":"mat_9","pbrMetallicRoughness":{"baseColorTexture":{"index":5},"baseColorFactor":[1,1,1,1],"metallicFactor":0,"roughnessFactor":0.903921569},"emissiveFactor":[0,0,0],"alphaMode":"BLEND","doubleSided":true},{"name":"mat_10","pbrMetallicRoughness":{"baseColorTexture":{"index":5},"baseColorFactor":[1,1,1,1],"metallicFactor":0,"roughnessFactor":0.903921569},"emissiveFactor":[0,0,0],"alphaMode":"BLEND","doubleSided":true},{"name":"mat_11","pbrMetallicRoughness":{"baseColorTexture":{"index":5},"baseColorFactor":[1,1,1,1],"metallicFactor":0,"roughnessFactor":0.903921569},"emissiveFactor":[0,0,0],"alphaMode":"BLEND","doubleSided":true},{"name":"mat_12","pbrMetallicRoughness":{"baseColorTexture":{"index":6},"baseColorFactor":[1,1,1,1],"metallicFactor":0,"roughnessFactor":0.903921569},"emissiveFactor":[0,0,0],"alphaMode":"BLEND","doubleSided":true}],"meshes":[{"name":"parasect_c-Mesh","primitives":[{"attributes":{"POSITION":0,"TEXCOORD_0":1},"indices":2,"material":0,"mode":4},{"attributes":{"POSITION":3,"TEXCOORD_0":4},"indices":5,"material":1,"mode":4},{"attributes":{"POSITION":6,"TEXCOORD_0":7},"indices":8,"material":2,"mode":4},{"attributes":{"POSITION":9,"TEXCOORD_0":10},"indices":11,"material":3,"mode":4},{"attributes":{"POSITION":12,"TEXCOORD_0":13},"indices":14,"material":4,"mode":4},{"attributes":{"POSITION":15,"TEXCOORD_0":16},"indices":17,"material":5,"mode":4},{"attributes":{"POSITION":18,"TEXCOORD_0":19},"indices":20,"material":6,"mode":4},{"attributes":{"POSITION":21,"TEXCOORD_0":22},"indices":23,"material":7,"mode":4},{"attributes":{"POSITION":24,"TEXCOORD_0":25},"indices":26,"material":8,"mode":4},{"attributes":{"POSITION":27,"TEXCOORD_0":28},"indices":29,"material":9,"mode":4},{"attributes":{"POSITION":30,"TEXCOORD_0":31},"indices":32,"material":10,"mode":4},{"attributes":{"POSITION":33,"TEXCOORD_0":34},"indices":35,"material":11,"mode":4},{"attributes":{"POSITION":36,"TEXCOORD_0":37},"indices":38,"material":12,"mode":4}]}],"nodes":[{"name":"parasect_c","mesh":0}],"samplers":[{"wrapS":10497,"wrapT":10497}],"scene":0,"scenes":[{"nodes":[0]}],"textures":[{"name":"parasect_c_1_0","sampler":0,"source":0},{"name":"parasect_c_1_2","sampler":0,"source":1},{"name":"parasect_c_1_3","sampler":0,"source":2},{"name":"parasect_c_1_4","sampler":0,"source":3},{"name":"parasect_c_1_5","sampler":0,"source":4},{"name":"parasect_c_1_6","sampler":0,"source":5},{"name":"parasect_c_1_10","sampler":0,"source":6}]}