{"accessors":[{"name":"kongpang-Mesh_0_positions","componentType":5126,"count":142,"min":[-4.827939987182617,-5.2116899490356445,-9.918709754943848],"max":[5.0794501304626465,4.3543500900268555,-1.209589958190918],"type":"VEC3","bufferView":0,"byteOffset":0},{"name":"kongpang-Mesh_0_texcoords","componentType":5126,"count":142,"min":[-0.007772000040858984,-0.05451999977231026],"max":[1.0154000520706177,1.024306058883667],"type":"VEC2","bufferView":1,"byteOffset":0},{"name":"kongpang-Mesh_0_indices","componentType":5123,"count":249,"min":[0],"max":[141],"type":"SCALAR","bufferView":2,"byteOffset":0},{"name":"kongpang-Mesh_1_positions","componentType":5126,"count":149,"min":[-4.975100040435791,-4.70665979385376,-12.046899795532227],"max":[4.970469951629639,4.7865400314331055,-1.9436299800872803],"type":"VEC3","bufferView":0,"byteOffset":1704},{"name":"kongpang-Mesh_1_texcoords","componentType":5126,"count":149,"min":[-0.05161000043153763,-0.013290000148117542],"max":[2.017859935760498,1.0159770250320435],"type":"VEC2","bufferView":1,"byteOffset":1136},{"name":"kongpang-Mesh_1_indices","componentType":5123,"count":303,"min":[0],"max":[148],"type":"SCALAR","bufferView":2,"byteOffset":500},{"name":"kongpang-Mesh_2_positions","componentType":5126,"count":108,"min":[-5.076149940490723,-5.027589797973633,-9.815500259399414],"max":[4.8821001052856445,4.969870090484619,-0.661516010761261],"type":"VEC3","bufferView":0,"byteOffset":3492},{"name":"kongpang-Mesh_2_texcoords","componentType":5126,"count":108,"min":[-0.004143999889492989,-0.007040000054985285],"max":[1.0070699453353882,1.018784999847412],"type":"VEC2","bufferView":1,"byteOffset":2328},{"name":"kongpang-Mesh_2_indices","componentType":5123,"count":231,"min":[0],"max":[107],"type":"SCALAR","bufferView":2,"byteOffset":1108},{"name":"kongpang-Mesh_3_positions","componentType":5126,"count":73,"min":[-3.0283501148223877,3.7388200759887695,-8.188480377197266],"max":[3.115609884262085,5.064469814300537,-5.379449844360352],"type":"VEC3","bufferView":0,"byteOffset":4788},{"name":"kongpang-Mesh_3_texcoords","componentType":5126,"count":73,"min":[-0.009045000188052654,-0.001970000099390745],"max":[0.7796599864959717,0.3071889877319336],"type":"VEC2","bufferView":1,"byteOffset":3192},{"name":"kongpang-Mesh_3_indices","componentType":5123,"count":180,"min":[0],"max":[72],"type":"SCALAR","bufferView":2,"byteOffset":1572},{"name":"kongpang-Mesh_4_positions","componentType":5126,"count":11,"min":[-1.6685500144958496,-4.490729808807373,-9.852930068969727],"max":[1.5501799583435059,0.17985500395298004,-7.079110145568848],"type":"VEC3","bufferView":0,"byteOffset":5664},{"name":"kongpang-Mesh_4_texcoords","componentType":5126,"count":11,"min":[0.0736590027809143,0.00829899962991476],"max":[0.9665160179138184,0.9918709993362427],"type":"VEC2","bufferView":1,"byteOffset":3776},{"name":"kongpang-Mesh_4_indices","componentType":5123,"count":12,"min":[0],"max":[10],"type":"SCALAR","bufferView":2,"byteOffset":1932},{"name":"kongpang-Mesh_5_positions","componentType":5126,"count":95,"min":[-5.076149940490723,-5.2116899490356445,-9.287130355834961],"max":[5.0794501304626465,4.969870090484619,-0.29236799478530884],"type":"VEC3","bufferView":0,"byteOffset":5796},{"name":"kongpang-Mesh_5_texcoords","componentType":5126,"count":95,"min":[-0.006628999952226877,-0.03051000088453293],"max":[1.0012500286102295,1.017096996307373],"type":"VEC2","bufferView":1,"byteOffset":3864},{"name":"kongpang-Mesh_5_indices","componentType":5123,"count":177,"min":[0],"max":[94],"type":"SCALAR","bufferView":2,"byteOffset":1956},{"name":"kongpang-Mesh_6_positions","componentType":5126,"count":29,"min":[-0.859188973903656,4.501220226287842,-5.883790016174316],"max":[1.7842199802398682,5.280640125274658,-4.160470008850098],"type":"VEC3","bufferView":0,"byteOffset":6936},{"name":"kongpang-Mesh_6_texcoords","componentType":5126,"count":29,"min":[0.30658501386642456,0.39203599095344543],"max":[0.8788459897041321,0.839838981628418],"type":"VEC2","bufferView":1,"byteOffset":4624},{"name":"kongpang-Mesh_6_indices","componentType":5123,"count":123,"min":[0],"max":[28],"type":"SCALAR","bufferView":2,"byteOffset":2312},{"name":"kongpang-Mesh_7_positions","componentType":5126,"count":5,"min":[1.5879499912261963,5.030779838562012,-11.578399658203125],"max":[3.25334095954895,8.510009765625,-10.301300048828125],"type":"VEC3","bufferView":0,"byteOffset":7284},{"name":"kongpang-Mesh_7_texcoords","componentType":5126,"count":5,"min":[-0.027891000732779503,-0.01116000022739172],"max":[0.6171650290489197,0.59135502576828],"type":"VEC2","bufferView":1,"byteOffset":4856},{"name":"kongpang-Mesh_7_indices","componentType":5123,"count":9,"min":[0],"max":[4],"type":"SCALAR","bufferView":2,"byteOffset":2560},{"name":"kongpang-Mesh_8_positions","componentType":5126,"count":28,"min":[-1.747630000114441,3.5764501094818115,-10.30370044708252],"max":[1.7682199478149414,5.198860168457031,-8.130169868469238],"type":"VEC3","bufferView":0,"byteOffset":7344},{"name":"kongpang-Mesh_8_texcoords","componentType":5126,"count":28,"min":[-0.0019529999699443579,0],"max":[1.0022799968719482,1.0033080577850342],"type":"VEC2","bufferView":1,"byteOffset":4896},{"name":"kongpang-Mesh_8_indices","componentType":5123,"count":42,"min":[0],"max":[27],"type":"SCALAR","bufferView":2,"byteOffset":2580},{"name":"kongpang-Mesh_9_positions","componentType":5126,"count":70,"min":[-4.246449947357178,-2.059880018234253,-4.791470050811768],"max":[4.246449947357178,5.351150035858154,-0.254269003868103],"type":"VEC3","bufferView":0,"byteOffset":7680},{"name":"kongpang-Mesh_9_texcoords","componentType":5126,"count":70,"min":[0.14202600717544556,0.10948500037193298],"max":[0.8920260071754456,0.8594849705696106],"type":"VEC2","bufferView":1,"byteOffset":5120},{"name":"kongpang-Mesh_9_indices","componentType":5123,"count":267,"min":[0],"max":[69],"type":"SCALAR","bufferView":2,"byteOffset":2664},{"name":"kongpang-Mesh_10_positions","componentType":5126,"count":66,"min":[-5.7740302085876465,-1.3696199655532837,-1.6892199516296387],"max":[5.774040222167969,3.017210006713867,0.46028000116348267],"type":"VEC3","bufferView":0,"byteOffset":8520},{"name":"kongpang-Mesh_10_texcoords","componentType":5126,"count":66,"min":[-0.0020759999752044678,-0.004339999984949827],"max":[1.0029699802398682,1],"type":"VEC2","bufferView":1,"byteOffset":5680},{"name":"kongpang-Mesh_10_indices","componentType":5123,"count":150,"min":[0],"max":[65],"type":"SCALAR","bufferView":2,"byteOffset":3200}],"asset":{"generator":"obj2gltf","version":"2.0"},"buffers":[{"name":"BR_Venonat-Shiny01","byteLength":88192,"uri":"data:application/octet-stream;base64,"}],"bufferViews":[{"name":"bufferView_0","buffer":0,"byteLength":9312,"byteOffset":0,"byteStride":12,"target":34962},{"name":"bufferView_1","buffer":0,"byteLength":6208,"byteOffset":9312,"byteStride":8,"target":34962},{"name":"bufferView_2","buffer":0,"byteLength":3500,"byteOffset":15520,"target":34963},{"buffer":0,"byteOffset":19020,"byteLength":8210},{"buffer":0,"byteOffset":27230,"byteLength":8210},{"buffer":0,"byteOffset":35440,"byteLength":8210},{"buffer":0,"byteOffset":43650,"byteLength":26642},{"buffer":0,"byteOffset":70292,"byteLength":1042},{"buffer":0,"byteOffset":71334,"byteLength":8210},{"buffer":0,"byteOffset":79544,"byteLength":82},{"buffer":0,"byteOffset":79626,"byteLength":274},{"buffer":0,"byteOffset":79900,"byteLength":82},{"buffer":0,"byteOffset":79982,"byteLength":8210}],"images":[{"name":"kongpang_1_0","mimeType":"image/x-tga","bufferView":3},{"name":"kongpang_1_1","mimeType":"image/x-tga","bufferView":4},{"name":"kongpang_1_2","mimeType":"image/x-tga","bufferView":5},{"name":"kongpang_1_3","mimeType":"image/x-tga","bufferView":6},{"name":"kongpang_1_4","mimeType":"image/x-tga","bufferView":7},{"name":"kongpang_1_5","mimeType":"image/x-tga","bufferView":8},{"name":"kongpang_1_6","mimeType":"image/x-tga","bufferView":9},{"name":"kongpang_1_7","mimeType":"image/x-tga","bufferView":10},{"name":"kongpang_1_8","mimeType":"image/x-tga","bufferView":11},{"name":"kongpang_1_9","mimeType":"image/x-tga","bufferView":12}],"materials":[{"name":"mat_0","pbrMetallicRoughness":{"baseColorTexture":{"index":0},"baseColorFactor":[1,1,1,1],"metallicFactor":0,"roughnessFactor":0.903921569},"emissiveFactor":[0,0,0],"alphaMode":"BLEND","doubleSided":true},{"name":"mat_1","pbrMetallicRoughness":{"baseColorTexture":{"index":1},"baseColorFactor":[1,1,1,1],"metallicFactor":0,"roughnessFactor":0.903921569},"emissiveFactor":[0,0,0],"alphaMode":"BLEND","doubleSided":true},{"name":"mat_2","pbrMetallicRoughness":{"baseColorTexture":{"index":2},"baseColorFactor":[1,1,1,1],"metallicFactor":0,"roughnessFactor":0.903921569},"emissiveFactor":[0,0,0],"alphaMode":"BLEND","doubleSided":true},{"name":"mat_3","pbrMetallicRoughness":{"baseColorTexture":{"index":3},"baseColorFactor":[1,1,1,1],"metallicFactor":0,"roughnessFactor":0.903921569},"emissiveFactor":[0,0,0],"alphaMode":"BLEND","doubleSided":true},{"name":"mat_4","pbrMetallicRoughness":{"baseColorTexture":{"index":4},"baseColorFactor":[1,1,1,1],"metallicFactor":0,"roughnessFactor":0.903921569},"emissiveFactor":[0,0,0],"alphaMode":"BLEND","doubleSided":true},{"name":"mat_5","pbrMetallicRoughness":{"baseColorTexture":{"index":5},"baseColorFactor":[1,1,1,1],"metallicFactor":0,"roughnessFactor":0.903921569},"emissiveFactor":[0,0,0],"alphaMode":"BLEND","doubleSided":true},{"name":"mat_6","pbrMetallicRoughness":{"baseColorTexture":{"index":6},"baseColorFactor":[1,1,1,1],"metallicFactor":0,"roughnessFactor":0.903921569},"emissiveFactor":[0,0,0],"alphaMode":"BLEND","doubleSided":true},{"name":"mat_7","pbrMetallicRoughness":{"baseColorFactor":[0.8,0.8,0.8,1],"metallicFactor":0,"roughnessFactor":0.903921569},"emissiveFactor":[0,0,0],"alphaMode":"OPAQUE","doubleSided":false},{"name":"mat_8","pbrMetallicRoughness":{"baseColorTexture":{"index":7},"baseColorFactor":[1,1,1,1],"metallicFactor":0,"roughnessFactor":0.903921569},"emissiveFactor":[0,0,0],"alphaMode":"BLEND","doubleSided":true},{"name":"mat_9","pbrMetallicRoughness":{"baseColorTexture":{"index":8},"baseColorFactor":[1,1,1,1],"metallicFactor":0,"roughnessFactor":0.903921569},"emissiveFactor":[0,0,0],"alphaMode":"BLEND","doubleSided":true},{"name":"mat_10","pbrMetallicRoughness":{"baseColorTexture":{"index":9},"baseColorFactor":[1,1,1,1],"metallicFactor":0,"roughnessFactor":0.903921569},"emissiveFactor":[0,0,0],"alphaMode":"BLEND","doubleSided":true}],"meshes":[{"name":"kongpang-Mesh","primitives":[{"attributes":{"POSITION":0,"TEXCOORD_0":1},"indices":2,"material":0,"mode":4},{"attributes":{"POSITION":3,"TEXCOORD_0":4},"indices":5,"material":1,"mode":4},{"attributes":{"POSITION":6,"TEXCOORD_0":7},"indices":8,"material":2,"mode":4},{"attributes":{"POSITION":9,"TEXCOORD_0":10},"indices":11,"material":3,"mode":4},{"attributes":{"POSITION":12,"TEXCOORD_0":13},"indices":14,"material":4,"mode":4},{"attributes":{"POSITION":15,"TEXCOORD_0":16},"indices":17,"material":5,"mode":4},{"attributes":{"POSITION":18,"TEXCOORD_0":19},"indices":20,"material":6,"mode":4},{"attributes":{"POSITION":21,"TEXCOORD_0":22},"indices":23,"material":7,"mode":4},{"attributes":{"POSITION":24,"TEXCOORD_0":25},"indices":26,"material":8,"mode":4},{"attributes":{"POSITION":27,"TEXCOORD_0":28},"indices":29,"material":9,"mode":4},{"attributes":{"POSITION":30,"TEXCOORD_0":31},"indices":32,"material":10,"mode":4}]}],"nodes":[{"name":"kongpang","mesh":0}],"samplers":[{"wrapS":10497,"wrapT":10497}],"scene":0,"scenes":[{"nodes":[0]}],"textures":[{"name":"kongpang_1_0","sampler":0,"source":0},{"name":"kongpang_1_1","sampler":0,"source":1},{"name":"kongpang_1_2","sampler":0,"source":2},{"name":"kongpang_1_3","sampler":0,"source":3},{"name":"kongpang_1_4","sampler":0,"source":4},{"name":"kongpang_1_5","sampler":0,"source":5},{"name":"kongpang_1_6","sampler":0,"source":6},{"name":"kongpang_1_7","sampler":0,"source":7},{"name":"kongpang_1_8","sampler":0,"source":8},{"name":"kongpang_1_9","sampler":0,"source":9}]}