{"accessors":[{"name":"polygon0_1_0_positions","componentType":5126,"count":361,"min":[-0.7714059948921204,0.10083899646997452,-0.7714059948921204],"max":[0.7714059948921204,2.013089895248413,0.9358959794044495],"type":"VEC3","bufferView":0,"byteOffset":0},{"name":"polygon0_1_0_normals","componentType":5126,"count":361,"min":[-1,-1,-1],"max":[1,0.9999685287475586,1],"type":"VEC3","bufferView":1,"byteOffset":0},{"name":"polygon0_1_0_texcoords","componentType":5126,"count":361,"min":[0.035613998770713806,0.005249000154435635],"max":[0.9902650117874146,0.3920289874076843],"type":"VEC2","bufferView":2,"byteOffset":0},{"name":"polygon0_1_0_indices","componentType":5123,"count":2052,"min":[0],"max":[360],"type":"SCALAR","bufferView":3,"byteOffset":0},{"name":"polygon1_1_0_positions","componentType":5126,"count":20,"min":[-0.5454660058021545,1.2416839599609375,0.45353901386260986],"max":[0.5454670190811157,1.6702539920806885,0.7714059948921204],"type":"VEC3","bufferView":0,"byteOffset":4332},{"name":"polygon1_1_0_normals","componentType":5126,"count":20,"min":[-0.7062548398971558,0.04907200112938881,0.5878728032112122],"max":[0.7062548398971558,0.5557280778884888,0.998795211315155],"type":"VEC3","bufferView":1,"byteOffset":4332},{"name":"polygon1_1_0_texcoords","componentType":5126,"count":20,"min":[0.011382999829947948,0.03613299876451492],"max":[0.9880980253219604,0.2286680042743683],"type":"VEC2","bufferView":2,"byteOffset":2888},{"name":"polygon1_1_0_indices","componentType":5123,"count":72,"min":[0],"max":[19],"type":"SCALAR","bufferView":3,"byteOffset":4104},{"name":"polygon2_1_0_positions","componentType":5126,"count":77,"min":[-1.433150053024292,0,-1.5119999647140503],"max":[1.4982600212097168,0.48770299553871155,1.4385499954223633],"type":"VEC3","bufferView":0,"byteOffset":4572},{"name":"polygon2_1_0_normals","componentType":5126,"count":77,"min":[-0.9132668972015381,-1,-0.8866013884544373],"max":[0.8308035135269165,0.9989653825759888,0.9775887727737427],"type":"VEC3","bufferView":1,"byteOffset":4572},{"name":"polygon2_1_0_texcoords","componentType":5126,"count":77,"min":[0.011749000288546085,0.41375699639320374],"max":[0.5765380263328552,0.9926450252532959],"type":"VEC2","bufferView":2,"byteOffset":3048},{"name":"polygon2_1_0_indices","componentType":5123,"count":348,"min":[0],"max":[76],"type":"SCALAR","bufferView":3,"byteOffset":4248}],"asset":{"generator":"obj2gltf","version":"2.0"},"buffers":[{"name":"Diglett","byteLength":265396,"uri":"data:application/octet-stream;base64,"}],"bufferViews":[{"name":"bufferView_0","buffer":0,"byteLength":5496,"byteOffset":0,"byteStride":12,"target":34962},{"name":"bufferView_1","buffer":0,"byteLength":5496,"byteOffset":5496,"byteStride":12,"target":34962},{"name":"bufferView_2","buffer":0,"byteLength":3664,"byteOffset":10992,"byteStride":8,"target":34962},{"name":"bufferView_3","buffer":0,"byteLength":4944,"byteOffset":14656,"target":34963},{"buffer":0,"byteOffset":19600,"byteLength":196626},{"buffer":0,"byteOffset":216226,"byteLength":49170}],"images":[{"name":"DigdaDh","mimeType":"image/x-tga","bufferView":4},{"name":"DigdaEyeDh","mimeType":"image/x-tga","bufferView":5}],"materials":[{"name":"mat1","pbrMetallicRoughness":{"baseColorTexture":{"index":0},"baseColorFactor":[1,1,1,1],"metallicFactor":0,"roughnessFactor":0.99},"emissiveFactor":[0,0,0],"alphaMode":"OPAQUE","doubleSided":false},{"name":"mat2","pbrMetallicRoughness":{"baseColorTexture":{"index":1},"baseColorFactor":[1,1,1,1],"metallicFactor":0,"roughnessFactor":0.99},"emissiveFactor":[0,0,0],"alphaMode":"OPAQUE","doubleSided":false},{"name":"mat3","pbrMetallicRoughness":{"baseColorTexture":{"index":0},"baseColorFactor":[1,1,1,1],"metallicFactor":0,"roughnessFactor":0.99},"emissiveFactor":[0,0,0],"alphaMode":"OPAQUE","doubleSided":false}],"meshes":[{"name":"polygon0_1","primitives":[{"attributes":{"POSITION":0,"NORMAL":1,"TEXCOORD_0":2},"indices":3,"material":0,"mode":4}]},{"name":"polygon1_1","primitives":[{"attributes":{"POSITION":4,"NORMAL":5,"TEXCOORD_0":6},"indices":7,"material":1,"mode":4}]},{"name":"polygon2_1","primitives":[{"attributes":{"POSITION":8,"NORMAL":9,"TEXCOORD_0":10},"indices":11,"material":2,"mode":4}]}],"nodes":[{"name":"polygon0","mesh":0},{"name":"polygon1","mesh":1},{"name":"polygon2","mesh":2}],"samplers":[{"wrapS":10497,"wrapT":10497}],"scene":0,"scenes":[{"nodes":[0,1,2]}],"textures":[{"name":"DigdaDh","sampler":0,"source":0},{"name":"DigdaEyeDh","sampler":0,"source":1}]}