{"accessors":[{"name":"polygon0_1_0_positions","componentType":5126,"count":54,"min":[-3.517251968383789,1.824200987815857,-1.3056060075759888],"max":[3.517254114151001,6.419373035430908,3.444883108139038],"type":"VEC3","bufferView":0,"byteOffset":0},{"name":"polygon0_1_0_normals","componentType":5126,"count":54,"min":[-0.7774370312690735,0.13769495487213135,0.3835442066192627],"max":[0.7774370312690735,0.7013543844223022,0.9904747009277344],"type":"VEC3","bufferView":1,"byteOffset":0},{"name":"polygon0_1_0_texcoords","componentType":5126,"count":54,"min":[0.007538000121712685,0.015807999297976494],"max":[0.9877319931983948,0.22631800174713135],"type":"VEC2","bufferView":2,"byteOffset":0},{"name":"polygon0_1_0_indices","componentType":5123,"count":198,"min":[0],"max":[53],"type":"SCALAR","bufferView":3,"byteOffset":0},{"name":"polygon1_1_0_positions","componentType":5126,"count":180,"min":[-5.098886966705322,-9.999999974752427e-7,-5.2245869636535645],"max":[5.111036777496338,1.0973320007324219,4.71757698059082],"type":"VEC3","bufferView":0,"byteOffset":648},{"name":"polygon1_1_0_normals","componentType":5126,"count":180,"min":[-0.9414352774620056,0.03840501233935356,-0.9414352774620056],"max":[0.8909141421318054,0.9999761581420898,0.9414382576942444],"type":"VEC3","bufferView":1,"byteOffset":648},{"name":"polygon1_1_0_texcoords","componentType":5126,"count":180,"min":[0.017548000440001488,0.5092470049858093],"max":[0.9686279892921448,0.9934080243110657],"type":"VEC2","bufferView":2,"byteOffset":432},{"name":"polygon1_1_0_indices","componentType":5123,"count":927,"min":[0],"max":[179],"type":"SCALAR","bufferView":3,"byteOffset":396},{"name":"polygon2_1_0_positions","componentType":5126,"count":630,"min":[-3.838340997695923,0.09822399914264679,-3.964042901992798],"max":[3.8383429050445557,6.994627952575684,3.9222960472106934],"type":"VEC3","bufferView":0,"byteOffset":2808},{"name":"polygon2_1_0_normals","componentType":5126,"count":630,"min":[-1,-0.9830713868141174,-1],"max":[1,0.9999977350234985,1],"type":"VEC3","bufferView":1,"byteOffset":2808},{"name":"polygon2_1_0_texcoords","componentType":5126,"count":630,"min":[0.010742000304162502,0.004883000161498785],"max":[0.9855960011482239,0.49249300360679626],"type":"VEC2","bufferView":2,"byteOffset":1872},{"name":"polygon2_1_0_indices","componentType":5123,"count":3420,"min":[0],"max":[629],"type":"SCALAR","bufferView":3,"byteOffset":2252}],"asset":{"generator":"obj2gltf","version":"2.0"},"buffers":[{"name":"Dugtrio","byteLength":184232,"uri":"data:application/octet-stream;base64,"}],"bufferViews":[{"name":"bufferView_0","buffer":0,"byteLength":10368,"byteOffset":0,"byteStride":12,"target":34962},{"name":"bufferView_1","buffer":0,"byteLength":10368,"byteOffset":10368,"byteStride":12,"target":34962},{"name":"bufferView_2","buffer":0,"byteLength":6912,"byteOffset":20736,"byteStride":8,"target":34962},{"name":"bufferView_3","buffer":0,"byteLength":9092,"byteOffset":27648,"target":34963},{"buffer":0,"byteOffset":36740,"byteLength":49170},{"buffer":0,"byteOffset":85910,"byteLength":98322}],"images":[{"name":"DugtrioEyeDh","mimeType":"image/x-tga","bufferView":4},{"name":"DugtrioDh","mimeType":"image/x-tga","bufferView":5}],"materials":[{"name":"mat2","pbrMetallicRoughness":{"baseColorTexture":{"index":0},"baseColorFactor":[1,1,1,1],"metallicFactor":0,"roughnessFactor":0.99},"emissiveFactor":[0,0,0],"alphaMode":"OPAQUE","doubleSided":false},{"name":"mat3","pbrMetallicRoughness":{"baseColorTexture":{"index":1},"baseColorFactor":[1,1,1,1],"metallicFactor":0,"roughnessFactor":0.99},"emissiveFactor":[0,0,0],"alphaMode":"OPAQUE","doubleSided":false},{"name":"mat1","pbrMetallicRoughness":{"baseColorTexture":{"index":1},"baseColorFactor":[1,1,1,1],"metallicFactor":0,"roughnessFactor":0.99},"emissiveFactor":[0,0,0],"alphaMode":"OPAQUE","doubleSided":false}],"meshes":[{"name":"polygon0_1","primitives":[{"attributes":{"POSITION":0,"NORMAL":1,"TEXCOORD_0":2},"indices":3,"material":0,"mode":4}]},{"name":"polygon1_1","primitives":[{"attributes":{"POSITION":4,"NORMAL":5,"TEXCOORD_0":6},"indices":7,"material":1,"mode":4}]},{"name":"polygon2_1","primitives":[{"attributes":{"POSITION":8,"NORMAL":9,"TEXCOORD_0":10},"indices":11,"material":2,"mode":4}]}],"nodes":[{"name":"polygon0","mesh":0},{"name":"polygon1","mesh":1},{"name":"polygon2","mesh":2}],"samplers":[{"wrapS":10497,"wrapT":10497}],"scene":0,"scenes":[{"nodes":[0,1,2]}],"textures":[{"name":"DugtrioEyeDh","sampler":0,"source":0},{"name":"DugtrioDh","sampler":0,"source":1}]}