{"accessors":[{"name":"polygon0_1_0_positions","componentType":5126,"count":51,"min":[-0.7342560291290283,2.055177927017212,0.33747899532318115],"max":[0.7342560291290283,2.8115639686584473,1.1141339540481567],"type":"VEC3","bufferView":0,"byteOffset":0},{"name":"polygon0_1_0_normals","componentType":5126,"count":51,"min":[-0.6014931797981262,-0.900640070438385,0.2447720170021057],"max":[0.6014931797981262,0.5342109203338623,0.996332049369812],"type":"VEC3","bufferView":1,"byteOffset":0},{"name":"polygon0_1_0_texcoords","componentType":5126,"count":51,"min":[0.011718999594449997,0],"max":[0.421875,0.2460940033197403],"type":"VEC2","bufferView":2,"byteOffset":0},{"name":"polygon0_1_0_indices","componentType":5123,"count":240,"min":[0],"max":[50],"type":"SCALAR","bufferView":3,"byteOffset":0},{"name":"polygon1_1_0_positions","componentType":5126,"count":49,"min":[-0.9612089991569519,2.771476984024048,0.47915399074554443],"max":[0.9612089991569519,3.4915831089019775,1.0482980012893677],"type":"VEC3","bufferView":0,"byteOffset":612},{"name":"polygon1_1_0_normals","componentType":5126,"count":49,"min":[-0.7269273400306702,0.12067299336194992,0.3601359724998474],"max":[0.7269273400306702,0.8621364235877991,0.9245660305023193],"type":"VEC3","bufferView":1,"byteOffset":612},{"name":"polygon1_1_0_texcoords","componentType":5126,"count":49,"min":[-0.01193199958652258,-0.005493000149726868],"max":[0.4955750107765198,0.21542400121688843],"type":"VEC2","bufferView":2,"byteOffset":408},{"name":"polygon1_1_0_indices","componentType":5123,"count":222,"min":[0],"max":[48],"type":"SCALAR","bufferView":3,"byteOffset":480},{"name":"polygon2_1_0_positions","componentType":5126,"count":926,"min":[-2.340169906616211,-0.023344000801444054,-2.1646430492401123],"max":[2.3401710987091064,4.415947914123535,1.184412956237793],"type":"VEC3","bufferView":0,"byteOffset":1200},{"name":"polygon2_1_0_normals","componentType":5126,"count":926,"min":[-0.9999998211860657,-0.9999868273735046,-0.9995404481887817],"max":[1,0.9994707107543945,0.9998008012771606],"type":"VEC3","bufferView":1,"byteOffset":1200},{"name":"polygon2_1_0_texcoords","componentType":5126,"count":926,"min":[0.020935000851750374,0.003386999946087599],"max":[0.9928280115127563,0.9935610294342041],"type":"VEC2","bufferView":2,"byteOffset":800},{"name":"polygon2_1_0_indices","componentType":5123,"count":4392,"min":[0],"max":[925],"type":"SCALAR","bufferView":3,"byteOffset":924}],"asset":{"generator":"obj2gltf","version":"2.0"},"buffers":[{"name":"Meowth","byteLength":435812,"uri":"data:application/octet-stream;base64,"}],"bufferViews":[{"name":"bufferView_0","buffer":0,"byteLength":12312,"byteOffset":0,"byteStride":12,"target":34962},{"name":"bufferView_1","buffer":0,"byteLength":12312,"byteOffset":12312,"byteStride":12,"target":34962},{"name":"bufferView_2","buffer":0,"byteLength":8208,"byteOffset":24624,"byteStride":8,"target":34962},{"name":"bufferView_3","buffer":0,"byteLength":9708,"byteOffset":32832,"target":34963},{"buffer":0,"byteOffset":42540,"byteLength":98322},{"buffer":0,"byteOffset":140862,"byteLength":98322},{"buffer":0,"byteOffset":239184,"byteLength":196626}],"images":[{"name":"NyarthMouthDh","mimeType":"image/x-tga","bufferView":4},{"name":"NyarthEyeDh","mimeType":"image/x-tga","bufferView":5},{"name":"NyarthDh","mimeType":"image/x-tga","bufferView":6}],"materials":[{"name":"mat3","pbrMetallicRoughness":{"baseColorTexture":{"index":0},"baseColorFactor":[1,1,1,1],"metallicFactor":0,"roughnessFactor":0.99},"emissiveFactor":[0,0,0],"alphaMode":"OPAQUE","doubleSided":false},{"name":"mat2","pbrMetallicRoughness":{"baseColorTexture":{"index":1},"baseColorFactor":[1,1,1,1],"metallicFactor":0,"roughnessFactor":0.99},"emissiveFactor":[0,0,0],"alphaMode":"OPAQUE","doubleSided":false},{"name":"mat1","pbrMetallicRoughness":{"baseColorTexture":{"index":2},"baseColorFactor":[1,1,1,1],"metallicFactor":0,"roughnessFactor":0.99},"emissiveFactor":[0,0,0],"alphaMode":"OPAQUE","doubleSided":false}],"meshes":[{"name":"polygon0_1","primitives":[{"attributes":{"POSITION":0,"NORMAL":1,"TEXCOORD_0":2},"indices":3,"material":0,"mode":4}]},{"name":"polygon1_1","primitives":[{"attributes":{"POSITION":4,"NORMAL":5,"TEXCOORD_0":6},"indices":7,"material":1,"mode":4}]},{"name":"polygon2_1","primitives":[{"attributes":{"POSITION":8,"NORMAL":9,"TEXCOORD_0":10},"indices":11,"material":2,"mode":4}]}],"nodes":[{"name":"polygon0","mesh":0},{"name":"polygon1","mesh":1},{"name":"polygon2","mesh":2}],"samplers":[{"wrapS":10497,"wrapT":10497}],"scene":0,"scenes":[{"nodes":[0,1,2]}],"textures":[{"name":"NyarthMouthDh","sampler":0,"source":0},{"name":"NyarthEyeDh","sampler":0,"source":1},{"name":"NyarthDh","sampler":0,"source":2}]}