{"accessors":[{"name":"persian-Mesh_0_positions","componentType":5126,"count":478,"min":[-2.9466099739074707,-8.252579689025879,-7.768199920654297],"max":[2.9066200256347656,7.214759826660156,0.013574999757111073],"type":"VEC3","bufferView":0,"byteOffset":0},{"name":"persian-Mesh_0_texcoords","componentType":5126,"count":478,"min":[-1.108489990234375,0],"max":[1,1.3403680324554443],"type":"VEC2","bufferView":1,"byteOffset":0},{"name":"persian-Mesh_0_indices","componentType":5123,"count":1461,"min":[0],"max":[477],"type":"SCALAR","bufferView":2,"byteOffset":0},{"name":"persian-Mesh_1_positions","componentType":5126,"count":22,"min":[-1.3114099502563477,6.45290994644165,-6.5599799156188965],"max":[1.3358399868011475,7.814239978790283,-4.857170104980469],"type":"VEC3","bufferView":0,"byteOffset":5736},{"name":"persian-Mesh_1_texcoords","componentType":5126,"count":22,"min":[-0.20624999701976776,-0.03369000181555748],"max":[1.3174500465393066,0.1365630030632019],"type":"VEC2","bufferView":1,"byteOffset":3824},{"name":"persian-Mesh_1_indices","componentType":5123,"count":66,"min":[0],"max":[21],"type":"SCALAR","bufferView":2,"byteOffset":2924},{"name":"persian-Mesh_2_positions","componentType":5126,"count":22,"min":[-0.9943699836730957,6.579209804534912,-5.189539909362793],"max":[0.9668350219726562,7.890620231628418,-4.312990188598633],"type":"VEC3","bufferView":0,"byteOffset":6000},{"name":"persian-Mesh_2_texcoords","componentType":5126,"count":22,"min":[-0.777180016040802,-0.29374998807907104],"max":[1.7771400213241577,0.9739580154418945],"type":"VEC2","bufferView":1,"byteOffset":4000},{"name":"persian-Mesh_2_indices","componentType":5123,"count":66,"min":[0],"max":[21],"type":"SCALAR","bufferView":2,"byteOffset":3056},{"name":"persian-Mesh_3_positions","componentType":5126,"count":9,"min":[-0.7167389988899231,7.214759826660156,-6.520959854125977],"max":[0.6769269704818726,7.5204901695251465,-5.739840030670166],"type":"VEC3","bufferView":0,"byteOffset":6264},{"name":"persian-Mesh_3_texcoords","componentType":5126,"count":9,"min":[-0.8010939955711365,-0.312389999628067],"max":[1.801110029220581,1.113226056098938],"type":"VEC2","bufferView":1,"byteOffset":4176},{"name":"persian-Mesh_3_indices","componentType":5123,"count":36,"min":[0],"max":[8],"type":"SCALAR","bufferView":2,"byteOffset":3188},{"name":"persian-Mesh_4_positions","componentType":5126,"count":20,"min":[-0.7682099938392639,5.946320056915283,-5.333920001983643],"max":[0.7878440022468567,7.264560222625732,-4.02485990524292],"type":"VEC3","bufferView":0,"byteOffset":6372},{"name":"persian-Mesh_4_texcoords","componentType":5126,"count":20,"min":[-0.01692800037562847,-0.009080000221729279],"max":[1.0051599740982056,1.0390069484710693],"type":"VEC2","bufferView":1,"byteOffset":4248},{"name":"persian-Mesh_4_indices","componentType":5123,"count":33,"min":[0],"max":[19],"type":"SCALAR","bufferView":2,"byteOffset":3260},{"name":"persian-Mesh_5_positions","componentType":5126,"count":22,"min":[-0.5418090224266052,5.814620018005371,-5.451630115509033],"max":[0.5017060041427612,7.018959999084473,-4.344699859619141],"type":"VEC3","bufferView":0,"byteOffset":6612},{"name":"persian-Mesh_5_texcoords","componentType":5126,"count":22,"min":[0.13812899589538574,0.10220500081777573],"max":[0.8551200032234192,0.9310129880905151],"type":"VEC2","bufferView":1,"byteOffset":4408},{"name":"persian-Mesh_5_indices","componentType":5123,"count":72,"min":[0],"max":[21],"type":"SCALAR","bufferView":2,"byteOffset":3328},{"name":"persian-Mesh_6_positions","componentType":5126,"count":16,"min":[-2.178570032119751,5.047969818115234,-7.667660236358643],"max":[2.1403799057006836,7.168970108032227,-6.361519813537598],"type":"VEC3","bufferView":0,"byteOffset":6876},{"name":"persian-Mesh_6_texcoords","componentType":5126,"count":16,"min":[-0.011966000311076641,0.000387999985832721],"max":[0.9938520193099976,0.7871689796447754],"type":"VEC2","bufferView":1,"byteOffset":4584},{"name":"persian-Mesh_6_indices","componentType":5123,"count":42,"min":[0],"max":[15],"type":"SCALAR","bufferView":2,"byteOffset":3472},{"name":"persian-Mesh_7_positions","componentType":5126,"count":14,"min":[-2.178570032119751,5.047969818115234,-7.667660236358643],"max":[2.1403799057006836,7.168970108032227,-6.361519813537598],"type":"VEC3","bufferView":0,"byteOffset":7068},{"name":"persian-Mesh_7_texcoords","componentType":5126,"count":14,"min":[-0.05023699998855591,-0.038669999688863754],"max":[1.0342700481414795,0.8486739993095398],"type":"VEC2","bufferView":1,"byteOffset":4712},{"name":"persian-Mesh_7_indices","componentType":5123,"count":30,"min":[0],"max":[13],"type":"SCALAR","bufferView":2,"byteOffset":3556},{"name":"persian-Mesh_8_positions","componentType":5126,"count":38,"min":[-2.5681400299072266,-3.219860076904297,-1.0763100385665894],"max":[2.5281500816345215,3.9517900943756104,-0.023643000051379204],"type":"VEC3","bufferView":0,"byteOffset":7236},{"name":"persian-Mesh_8_texcoords","componentType":5126,"count":38,"min":[-0.026316000148653984,0.10284499824047089],"max":[1.026319980621338,1],"type":"VEC2","bufferView":1,"byteOffset":4824},{"name":"persian-Mesh_8_indices","componentType":5123,"count":108,"min":[0],"max":[37],"type":"SCALAR","bufferView":2,"byteOffset":3616},{"name":"persian-Mesh_9_positions","componentType":5126,"count":28,"min":[-2.506040096282959,-3.967210054397583,-0.5042650103569031],"max":[2.466059923171997,3.730380058288574,0.013574999757111073],"type":"VEC3","bufferView":0,"byteOffset":7692},{"name":"persian-Mesh_9_texcoords","componentType":5126,"count":28,"min":[-0.004672999959439039,-0.058139998465776443],"max":[1.0052200555801392,1.058590054512024],"type":"VEC2","bufferView":1,"byteOffset":5128},{"name":"persian-Mesh_9_indices","componentType":5123,"count":48,"min":[0],"max":[27],"type":"SCALAR","bufferView":2,"byteOffset":3832},{"name":"persian-Mesh_10_positions","componentType":5126,"count":56,"min":[-2.4016098976135254,-2.606920003890991,-4.698520183563232],"max":[2.3616299629211426,6.99901008605957,0.03316200152039528],"type":"VEC3","bufferView":0,"byteOffset":8028},{"name":"persian-Mesh_10_texcoords","componentType":5126,"count":56,"min":[0,0.008929000236093998],"max":[0.9823369979858398,1.0089290142059326],"type":"VEC2","bufferView":1,"byteOffset":5352},{"name":"persian-Mesh_10_indices","componentType":5123,"count":126,"min":[0],"max":[55],"type":"SCALAR","bufferView":2,"byteOffset":3928}],"asset":{"generator":"obj2gltf","version":"2.0"},"buffers":[{"name":"BR_Persian-Shiny01","byteLength":93120,"uri":"data:application/octet-stream;base64,"}],"bufferViews":[{"name":"bufferView_0","buffer":0,"byteLength":8700,"byteOffset":0,"byteStride":12,"target":34962},{"name":"bufferView_1","buffer":0,"byteLength":5800,"byteOffset":8700,"byteStride":8,"target":34962},{"name":"bufferView_2","buffer":0,"byteLength":4180,"byteOffset":14500,"target":34963},{"buffer":0,"byteOffset":18680,"byteLength":274},{"buffer":0,"byteOffset":18954,"byteLength":40978},{"buffer":0,"byteOffset":59932,"byteLength":4114},{"buffer":0,"byteOffset":64046,"byteLength":4114},{"buffer":0,"byteOffset":68160,"byteLength":4114},{"buffer":0,"byteOffset":72274,"byteLength":4114},{"buffer":0,"byteOffset":76388,"byteLength":4114},{"buffer":0,"byteOffset":80502,"byteLength":4114},{"buffer":0,"byteOffset":84616,"byteLength":4114},{"buffer":0,"byteOffset":88730,"byteLength":4114},{"buffer":0,"byteOffset":92844,"byteLength":274}],"images":[{"name":"persian_1_0","mimeType":"image/x-tga","bufferView":3},{"name":"persian_1_1","mimeType":"image/x-tga","bufferView":4},{"name":"persian_1_2","mimeType":"image/x-tga","bufferView":5},{"name":"persian_1_3","mimeType":"image/x-tga","bufferView":6},{"name":"persian_1_4","mimeType":"image/x-tga","bufferView":7},{"name":"persian_1_5","mimeType":"image/x-tga","bufferView":8},{"name":"persian_1_6","mimeType":"image/x-tga","bufferView":9},{"name":"persian_1_7","mimeType":"image/x-tga","bufferView":10},{"name":"persian_1_8","mimeType":"image/x-tga","bufferView":11},{"name":"persian_1_9","mimeType":"image/x-tga","bufferView":12},{"name":"persian_1_10","mimeType":"image/x-tga","bufferView":13}],"materials":[{"name":"mat_0","pbrMetallicRoughness":{"baseColorTexture":{"index":0},"baseColorFactor":[1,1,1,1],"metallicFactor":0,"roughnessFactor":0.903921569},"emissiveFactor":[0,0,0],"alphaMode":"BLEND","doubleSided":true},{"name":"mat_1","pbrMetallicRoughness":{"baseColorTexture":{"index":1},"baseColorFactor":[1,1,1,1],"metallicFactor":0,"roughnessFactor":0.903921569},"emissiveFactor":[0,0,0],"alphaMode":"BLEND","doubleSided":true},{"name":"mat_2","pbrMetallicRoughness":{"baseColorTexture":{"index":2},"baseColorFactor":[1,1,1,1],"metallicFactor":0,"roughnessFactor":0.903921569},"emissiveFactor":[0,0,0],"alphaMode":"BLEND","doubleSided":true},{"name":"mat_3","pbrMetallicRoughness":{"baseColorTexture":{"index":3},"baseColorFactor":[1,1,1,1],"metallicFactor":0,"roughnessFactor":0.903921569},"emissiveFactor":[0,0,0],"alphaMode":"BLEND","doubleSided":true},{"name":"mat_4","pbrMetallicRoughness":{"baseColorTexture":{"index":4},"baseColorFactor":[1,1,1,1],"metallicFactor":0,"roughnessFactor":0.903921569},"emissiveFactor":[0,0,0],"alphaMode":"BLEND","doubleSided":true},{"name":"mat_5","pbrMetallicRoughness":{"baseColorTexture":{"index":5},"baseColorFactor":[1,1,1,1],"metallicFactor":0,"roughnessFactor":0.903921569},"emissiveFactor":[0,0,0],"alphaMode":"BLEND","doubleSided":true},{"name":"mat_6","pbrMetallicRoughness":{"baseColorTexture":{"index":6},"baseColorFactor":[1,1,1,1],"metallicFactor":0,"roughnessFactor":0.903921569},"emissiveFactor":[0,0,0],"alphaMode":"BLEND","doubleSided":true},{"name":"mat_7","pbrMetallicRoughness":{"baseColorTexture":{"index":7},"baseColorFactor":[1,1,1,1],"metallicFactor":0,"roughnessFactor":0.903921569},"emissiveFactor":[0,0,0],"alphaMode":"BLEND","doubleSided":true},{"name":"mat_8","pbrMetallicRoughness":{"baseColorTexture":{"index":8},"baseColorFactor":[1,1,1,1],"metallicFactor":0,"roughnessFactor":0.903921569},"emissiveFactor":[0,0,0],"alphaMode":"BLEND","doubleSided":true},{"name":"mat_9","pbrMetallicRoughness":{"baseColorTexture":{"index":9},"baseColorFactor":[1,1,1,1],"metallicFactor":0,"roughnessFactor":0.903921569},"emissiveFactor":[0,0,0],"alphaMode":"BLEND","doubleSided":true},{"name":"mat_10","pbrMetallicRoughness":{"baseColorTexture":{"index":10},"baseColorFactor":[1,1,1,1],"metallicFactor":0,"roughnessFactor":0.903921569},"emissiveFactor":[0,0,0],"alphaMode":"BLEND","doubleSided":true}],"meshes":[{"name":"persian-Mesh","primitives":[{"attributes":{"POSITION":0,"TEXCOORD_0":1},"indices":2,"material":0,"mode":4},{"attributes":{"POSITION":3,"TEXCOORD_0":4},"indices":5,"material":1,"mode":4},{"attributes":{"POSITION":6,"TEXCOORD_0":7},"indices":8,"material":2,"mode":4},{"attributes":{"POSITION":9,"TEXCOORD_0":10},"indices":11,"material":3,"mode":4},{"attributes":{"POSITION":12,"TEXCOORD_0":13},"indices":14,"material":4,"mode":4},{"attributes":{"POSITION":15,"TEXCOORD_0":16},"indices":17,"material":5,"mode":4},{"attributes":{"POSITION":18,"TEXCOORD_0":19},"indices":20,"material":6,"mode":4},{"attributes":{"POSITION":21,"TEXCOORD_0":22},"indices":23,"material":7,"mode":4},{"attributes":{"POSITION":24,"TEXCOORD_0":25},"indices":26,"material":8,"mode":4},{"attributes":{"POSITION":27,"TEXCOORD_0":28},"indices":29,"material":9,"mode":4},{"attributes":{"POSITION":30,"TEXCOORD_0":31},"indices":32,"material":10,"mode":4}]}],"nodes":[{"name":"persian","mesh":0}],"samplers":[{"wrapS":10497,"wrapT":10497}],"scene":0,"scenes":[{"nodes":[0]}],"textures":[{"name":"persian_1_0","sampler":0,"source":0},{"name":"persian_1_1","sampler":0,"source":1},{"name":"persian_1_2","sampler":0,"source":2},{"name":"persian_1_3","sampler":0,"source":3},{"name":"persian_1_4","sampler":0,"source":4},{"name":"persian_1_5","sampler":0,"source":5},{"name":"persian_1_6","sampler":0,"source":6},{"name":"persian_1_7","sampler":0,"source":7},{"name":"persian_1_8","sampler":0,"source":8},{"name":"persian_1_9","sampler":0,"source":9},{"name":"persian_1_10","sampler":0,"source":10}]}