{"accessors":[{"name":"polygon0_1_0_positions","componentType":5126,"count":26,"min":[-1.8813589811325073,6.641739845275879,1.3050589561462402],"max":[1.8813589811325073,7.908392906188965,2.323883056640625],"type":"VEC3","bufferView":0,"byteOffset":0},{"name":"polygon0_1_0_normals","componentType":5126,"count":26,"min":[-0.7344340682029724,-0.02807600237429142,0.5763989090919495],"max":[0.7344340682029724,0.42082494497299194,0.9025042057037354],"type":"VEC3","bufferView":1,"byteOffset":0},{"name":"polygon0_1_0_texcoords","componentType":5126,"count":26,"min":[0.007813000120222569,0.039062000811100006],"max":[0.4960939884185791,0.2226559966802597],"type":"VEC2","bufferView":2,"byteOffset":0},{"name":"polygon0_1_0_indices","componentType":5123,"count":78,"min":[0],"max":[25],"type":"SCALAR","bufferView":3,"byteOffset":0},{"name":"polygon1_1_0_positions","componentType":5126,"count":836,"min":[-5.455843925476074,0.0031950001139193773,-5.188782215118408],"max":[5.455843925476074,10.325678825378418,5.103294849395752],"type":"VEC3","bufferView":0,"byteOffset":312},{"name":"polygon1_1_0_normals","componentType":5126,"count":836,"min":[-0.9926016330718994,-1,-0.9999889731407166],"max":[0.9926016330718994,0.9999583959579468,0.9998570680618286],"type":"VEC3","bufferView":1,"byteOffset":312},{"name":"polygon1_1_0_texcoords","componentType":5126,"count":836,"min":[0.003967000171542168,0.006409000139683485],"max":[0.9918209910392761,0.9894710183143616],"type":"VEC2","bufferView":2,"byteOffset":208},{"name":"polygon1_1_0_indices","componentType":5123,"count":4122,"min":[0],"max":[835],"type":"SCALAR","bufferView":3,"byteOffset":156}],"asset":{"generator":"obj2gltf","version":"2.0"},"buffers":[{"name":"Psyduck","byteLength":330932,"uri":"data:application/octet-stream;base64,"}],"bufferViews":[{"name":"bufferView_0","buffer":0,"byteLength":10344,"byteOffset":0,"byteStride":12,"target":34962},{"name":"bufferView_1","buffer":0,"byteLength":10344,"byteOffset":10344,"byteStride":12,"target":34962},{"name":"bufferView_2","buffer":0,"byteLength":6896,"byteOffset":20688,"byteStride":8,"target":34962},{"name":"bufferView_3","buffer":0,"byteLength":8400,"byteOffset":27584,"target":34963},{"buffer":0,"byteOffset":35984,"byteLength":98322},{"buffer":0,"byteOffset":134306,"byteLength":196626}],"images":[{"name":"KoduckEyeDh","mimeType":"image/x-tga","bufferView":4},{"name":"KoduckDh","mimeType":"image/x-tga","bufferView":5}],"materials":[{"name":"mat2","pbrMetallicRoughness":{"baseColorTexture":{"index":0},"baseColorFactor":[1,1,1,1],"metallicFactor":0,"roughnessFactor":0.99},"emissiveFactor":[0,0,0],"alphaMode":"OPAQUE","doubleSided":false},{"name":"mat1","pbrMetallicRoughness":{"baseColorTexture":{"index":1},"baseColorFactor":[1,1,1,1],"metallicFactor":0,"roughnessFactor":0.99},"emissiveFactor":[0,0,0],"alphaMode":"OPAQUE","doubleSided":false}],"meshes":[{"name":"polygon0_1","primitives":[{"attributes":{"POSITION":0,"NORMAL":1,"TEXCOORD_0":2},"indices":3,"material":0,"mode":4}]},{"name":"polygon1_1","primitives":[{"attributes":{"POSITION":4,"NORMAL":5,"TEXCOORD_0":6},"indices":7,"material":1,"mode":4}]}],"nodes":[{"name":"polygon0","mesh":0},{"name":"polygon1","mesh":1}],"samplers":[{"wrapS":10497,"wrapT":10497}],"scene":0,"scenes":[{"nodes":[0,1]}],"textures":[{"name":"KoduckEyeDh","sampler":0,"source":0},{"name":"KoduckDh","sampler":0,"source":1}]}