{"accessors":[{"name":"polygon0_1_0_positions","componentType":5126,"count":14,"min":[-1.3814500570297241,11.683121681213379,3.300374984741211],"max":[1.3814500570297241,12.857873916625977,4.120872974395752],"type":"VEC3","bufferView":0,"byteOffset":0},{"name":"polygon0_1_0_normals","componentType":5126,"count":14,"min":[-0.8738501667976379,-0.14245599508285522,0.485723078250885],"max":[0.8738501667976379,0.2612299919128418,0.9047501087188721],"type":"VEC3","bufferView":1,"byteOffset":0},{"name":"polygon0_1_0_texcoords","componentType":5126,"count":14,"min":[-0.9796140193939209,0.0262449998408556],"max":[-0.5214840173721313,0.22418199479579926],"type":"VEC2","bufferView":2,"byteOffset":0},{"name":"polygon0_1_0_indices","componentType":5123,"count":30,"min":[0],"max":[13],"type":"SCALAR","bufferView":3,"byteOffset":0},{"name":"polygon1_1_0_positions","componentType":5126,"count":1189,"min":[-9.441859245300293,-0.0017810000572353601,-8.337623596191406],"max":[9.441858291625977,15.453216552734375,5.9766130447387695],"type":"VEC3","bufferView":0,"byteOffset":168},{"name":"polygon1_1_0_normals","componentType":5126,"count":1189,"min":[-0.9995191693305969,-0.9998174905776978,-0.9999992251396179],"max":[0.9995191693305969,0.9999992251396179,0.9976940155029297],"type":"VEC3","bufferView":1,"byteOffset":168},{"name":"polygon1_1_0_texcoords","componentType":5126,"count":1189,"min":[0.013946999795734882,0.013640999794006348],"max":[0.9911800026893616,0.9926450252532959],"type":"VEC2","bufferView":2,"byteOffset":112},{"name":"polygon1_1_0_indices","componentType":5123,"count":4632,"min":[0],"max":[1188],"type":"SCALAR","bufferView":3,"byteOffset":60}],"asset":{"generator":"obj2gltf","version":"2.0"},"buffers":[{"name":"Golduck","byteLength":342768,"uri":"data:application/octet-stream;base64,"}],"bufferViews":[{"name":"bufferView_0","buffer":0,"byteLength":14436,"byteOffset":0,"byteStride":12,"target":34962},{"name":"bufferView_1","buffer":0,"byteLength":14436,"byteOffset":14436,"byteStride":12,"target":34962},{"name":"bufferView_2","buffer":0,"byteLength":9624,"byteOffset":28872,"byteStride":8,"target":34962},{"name":"bufferView_3","buffer":0,"byteLength":9324,"byteOffset":38496,"target":34963},{"buffer":0,"byteOffset":47820,"byteLength":98322},{"buffer":0,"byteOffset":146142,"byteLength":196626}],"images":[{"name":"GolduckEyeDh","mimeType":"image/x-tga","bufferView":4},{"name":"GolduckDh","mimeType":"image/x-tga","bufferView":5}],"materials":[{"name":"mat2","pbrMetallicRoughness":{"baseColorTexture":{"index":0},"baseColorFactor":[1,1,1,1],"metallicFactor":0,"roughnessFactor":0.99},"emissiveFactor":[0,0,0],"alphaMode":"OPAQUE","doubleSided":false},{"name":"mat1","pbrMetallicRoughness":{"baseColorTexture":{"index":1},"baseColorFactor":[1,1,1,1],"metallicFactor":0,"roughnessFactor":0.99},"emissiveFactor":[0,0,0],"alphaMode":"OPAQUE","doubleSided":false}],"meshes":[{"name":"polygon0_1","primitives":[{"attributes":{"POSITION":0,"NORMAL":1,"TEXCOORD_0":2},"indices":3,"material":0,"mode":4}]},{"name":"polygon1_1","primitives":[{"attributes":{"POSITION":4,"NORMAL":5,"TEXCOORD_0":6},"indices":7,"material":1,"mode":4}]}],"nodes":[{"name":"polygon0","mesh":0},{"name":"polygon1","mesh":1}],"samplers":[{"wrapS":10497,"wrapT":10497}],"scene":0,"scenes":[{"nodes":[0,1]}],"textures":[{"name":"GolduckEyeDh","sampler":0,"source":0},{"name":"GolduckDh","sampler":0,"source":1}]}