{"accessors":[{"name":"polygon0_1_0_positions","componentType":5126,"count":961,"min":[-5.114051818847656,-1.5139750242233276,-7.973755836486816],"max":[5.114052772521973,4.840840816497803,1.7450579404830933],"type":"VEC3","bufferView":0,"byteOffset":0},{"name":"polygon0_1_0_normals","componentType":5126,"count":961,"min":[-0.9970585703849792,-0.9999970197677612,-0.9989234805107117],"max":[0.9970592856407166,0.9999960660934448,0.9998806118965149],"type":"VEC3","bufferView":1,"byteOffset":0},{"name":"polygon0_1_0_texcoords","componentType":5126,"count":961,"min":[0.0055240001529455185,0.005493000149726868],"max":[0.9923099875450134,0.9919739961624146],"type":"VEC2","bufferView":2,"byteOffset":0},{"name":"polygon0_1_0_indices","componentType":5123,"count":4392,"min":[0],"max":[960],"type":"SCALAR","bufferView":3,"byteOffset":0},{"name":"polygon1_1_0_positions","componentType":5126,"count":28,"min":[-1.1692980527877808,2.4410080909729004,1.0246989727020264],"max":[1.1692980527877808,3.583590030670166,1.582152009010315],"type":"VEC3","bufferView":0,"byteOffset":11532},{"name":"polygon1_1_0_normals","componentType":5126,"count":28,"min":[-0.5864789485931396,-0.159358948469162,0.7095299959182739],"max":[0.5864789485931396,0.4953502118587494,0.9999163150787354],"type":"VEC3","bufferView":1,"byteOffset":11532},{"name":"polygon1_1_0_texcoords","componentType":5126,"count":28,"min":[-0.9910889863967896,0.009277000091969967],"max":[-0.5069580078125,0.23980699479579926],"type":"VEC2","bufferView":2,"byteOffset":7688},{"name":"polygon1_1_0_indices","componentType":5123,"count":108,"min":[0],"max":[27],"type":"SCALAR","bufferView":3,"byteOffset":8784}],"asset":{"generator":"obj2gltf","version":"2.0"},"buffers":[{"name":"Mankey","byteLength":335596,"uri":"data:application/octet-stream;base64,"}],"bufferViews":[{"name":"bufferView_0","buffer":0,"byteLength":11868,"byteOffset":0,"byteStride":12,"target":34962},{"name":"bufferView_1","buffer":0,"byteLength":11868,"byteOffset":11868,"byteStride":12,"target":34962},{"name":"bufferView_2","buffer":0,"byteLength":7912,"byteOffset":23736,"byteStride":8,"target":34962},{"name":"bufferView_3","buffer":0,"byteLength":9000,"byteOffset":31648,"target":34963},{"buffer":0,"byteOffset":40648,"byteLength":196626},{"buffer":0,"byteOffset":237274,"byteLength":98322}],"images":[{"name":"MankeyDh","mimeType":"image/x-tga","bufferView":4},{"name":"MankeyEyeDh","mimeType":"image/x-tga","bufferView":5}],"materials":[{"name":"mat1","pbrMetallicRoughness":{"baseColorTexture":{"index":0},"baseColorFactor":[1,1,1,1],"metallicFactor":0,"roughnessFactor":0.99},"emissiveFactor":[0,0,0],"alphaMode":"OPAQUE","doubleSided":false},{"name":"mat2","pbrMetallicRoughness":{"baseColorTexture":{"index":1},"baseColorFactor":[1,1,1,1],"metallicFactor":0,"roughnessFactor":0.99},"emissiveFactor":[0,0,0],"alphaMode":"OPAQUE","doubleSided":false}],"meshes":[{"name":"polygon0_1","primitives":[{"attributes":{"POSITION":0,"NORMAL":1,"TEXCOORD_0":2},"indices":3,"material":0,"mode":4}]},{"name":"polygon1_1","primitives":[{"attributes":{"POSITION":4,"NORMAL":5,"TEXCOORD_0":6},"indices":7,"material":1,"mode":4}]}],"nodes":[{"name":"polygon0","mesh":0},{"name":"polygon1","mesh":1}],"samplers":[{"wrapS":10497,"wrapT":10497}],"scene":0,"scenes":[{"nodes":[0,1]}],"textures":[{"name":"MankeyDh","sampler":0,"source":0},{"name":"MankeyEyeDh","sampler":0,"source":1}]}