{"accessors":[{"name":"polygon0_1_0_positions","componentType":5126,"count":52,"min":[-3.033376932144165,6.763628005981445,1.8422670364379883],"max":[3.033376932144165,9.1875,3.468935966491699],"type":"VEC3","bufferView":0,"byteOffset":0},{"name":"polygon0_1_0_normals","componentType":5126,"count":52,"min":[-0.8170568943023682,-0.20568297803401947,0.5057351589202881],"max":[0.8170568943023682,0.5566039085388184,0.9999916553497314],"type":"VEC3","bufferView":1,"byteOffset":0},{"name":"polygon0_1_0_texcoords","componentType":5126,"count":52,"min":[-0.9954220056533813,0.011474999599158764],"max":[-0.5130000114440918,0.23663300275802612],"type":"VEC2","bufferView":2,"byteOffset":0},{"name":"polygon0_1_0_indices","componentType":5123,"count":228,"min":[0],"max":[51],"type":"SCALAR","bufferView":3,"byteOffset":0},{"name":"polygon1_1_0_positions","componentType":5126,"count":1049,"min":[-10.191675186157227,-9.999999974752427e-7,-5.158083915710449],"max":[10.19167423248291,12.873437881469727,3.626826047897339],"type":"VEC3","bufferView":0,"byteOffset":624},{"name":"polygon1_1_0_normals","componentType":5126,"count":1049,"min":[-1,-1,-0.9960885047912598],"max":[0.9999403357505798,1,1],"type":"VEC3","bufferView":1,"byteOffset":624},{"name":"polygon1_1_0_texcoords","componentType":5126,"count":1049,"min":[0.009398999623954296,0.010863999836146832],"max":[0.9932559728622437,0.9869080185890198],"type":"VEC2","bufferView":2,"byteOffset":416},{"name":"polygon1_1_0_indices","componentType":5123,"count":4296,"min":[0],"max":[1048],"type":"SCALAR","bufferView":3,"byteOffset":456}],"asset":{"generator":"obj2gltf","version":"2.0"},"buffers":[{"name":"Primeape","byteLength":339228,"uri":"data:application/octet-stream;base64,"}],"bufferViews":[{"name":"bufferView_0","buffer":0,"byteLength":13212,"byteOffset":0,"byteStride":12,"target":34962},{"name":"bufferView_1","buffer":0,"byteLength":13212,"byteOffset":13212,"byteStride":12,"target":34962},{"name":"bufferView_2","buffer":0,"byteLength":8808,"byteOffset":26424,"byteStride":8,"target":34962},{"name":"bufferView_3","buffer":0,"byteLength":9048,"byteOffset":35232,"target":34963},{"buffer":0,"byteOffset":44280,"byteLength":98322},{"buffer":0,"byteOffset":142602,"byteLength":196626}],"images":[{"name":"OkorizaruEyeDh","mimeType":"image/x-tga","bufferView":4},{"name":"OkorizaruDh","mimeType":"image/x-tga","bufferView":5}],"materials":[{"name":"mat2","pbrMetallicRoughness":{"baseColorTexture":{"index":0},"baseColorFactor":[1,1,1,1],"metallicFactor":0,"roughnessFactor":0.99},"emissiveFactor":[0,0,0],"alphaMode":"OPAQUE","doubleSided":false},{"name":"mat1","pbrMetallicRoughness":{"baseColorTexture":{"index":1},"baseColorFactor":[1,1,1,1],"metallicFactor":0,"roughnessFactor":0.99},"emissiveFactor":[0,0,0],"alphaMode":"OPAQUE","doubleSided":false}],"meshes":[{"name":"polygon0_1","primitives":[{"attributes":{"POSITION":0,"NORMAL":1,"TEXCOORD_0":2},"indices":3,"material":0,"mode":4}]},{"name":"polygon1_1","primitives":[{"attributes":{"POSITION":4,"NORMAL":5,"TEXCOORD_0":6},"indices":7,"material":1,"mode":4}]}],"nodes":[{"name":"polygon0","mesh":0},{"name":"polygon1","mesh":1}],"samplers":[{"wrapS":10497,"wrapT":10497}],"scene":0,"scenes":[{"nodes":[0,1]}],"textures":[{"name":"OkorizaruEyeDh","sampler":0,"source":0},{"name":"OkorizaruDh","sampler":0,"source":1}]}