{"accessors":[{"name":"gardie-Mesh_0_positions","componentType":5126,"count":21,"min":[-0.25598999857902527,2.5301249027252197,-5.734519004821777],"max":[0.25598999857902527,2.823291063308716,-5.437989234924316],"type":"VEC3","bufferView":0,"byteOffset":0},{"name":"gardie-Mesh_0_texcoords","componentType":5126,"count":21,"min":[0.008724999614059925,0.006757999770343304],"max":[0.01844099909067154,0.023269999772310257],"type":"VEC2","bufferView":1,"byteOffset":0},{"name":"gardie-Mesh_0_indices","componentType":5123,"count":78,"min":[0],"max":[20],"type":"SCALAR","bufferView":2,"byteOffset":0},{"name":"gardie-Mesh_1_positions","componentType":5126,"count":18,"min":[-0.9572100043296814,1.566776990890503,-6.071335792541504],"max":[0.9572100043296814,2.1816189289093018,-5.440433025360107],"type":"VEC3","bufferView":0,"byteOffset":252},{"name":"gardie-Mesh_1_texcoords","componentType":5126,"count":18,"min":[0,0.000598000013269484],"max":[1,0.2820979952812195],"type":"VEC2","bufferView":1,"byteOffset":168},{"name":"gardie-Mesh_1_indices","componentType":5123,"count":48,"min":[0],"max":[17],"type":"SCALAR","bufferView":2,"byteOffset":156},{"name":"gardie-Mesh_2_positions","componentType":5126,"count":1681,"min":[-2.0975561141967773,-6.746362209320068,-7.762587070465088],"max":[2.0975561141967773,2.823291063308716,0.13609600067138672],"type":"VEC3","bufferView":0,"byteOffset":468},{"name":"gardie-Mesh_2_texcoords","componentType":5126,"count":1681,"min":[0.0037769998889416456,0.002635000040754676],"max":[0.9819409847259521,0.9940009713172913],"type":"VEC2","bufferView":1,"byteOffset":312},{"name":"gardie-Mesh_2_indices","componentType":5123,"count":7860,"min":[0],"max":[1680],"type":"SCALAR","bufferView":2,"byteOffset":252}],"asset":{"generator":"obj2gltf","version":"2.0"},"buffers":[{"name":"BR_Growlithe-Shiny01","byteLength":1230056,"uri":"data:application/octet-stream;base64,"}],"bufferViews":[{"name":"bufferView_0","buffer":0,"byteLength":20640,"byteOffset":0,"byteStride":12,"target":34962},{"name":"bufferView_1","buffer":0,"byteLength":13760,"byteOffset":20640,"byteStride":8,"target":34962},{"name":"bufferView_2","buffer":0,"byteLength":15972,"byteOffset":34400,"target":34963},{"buffer":0,"byteOffset":50372,"byteLength":1048594},{"buffer":0,"byteOffset":1098966,"byteLength":131090}],"images":[{"name":"gardie_1_0","mimeType":"image/x-tga","bufferView":3},{"name":"gardie_1_1","mimeType":"image/x-tga","bufferView":4}],"materials":[{"name":"mat_0","pbrMetallicRoughness":{"baseColorTexture":{"index":0},"baseColorFactor":[1,1,1,1],"metallicFactor":0,"roughnessFactor":0.903921569},"emissiveFactor":[0,0,0],"alphaMode":"BLEND","doubleSided":true},{"name":"mat_1","pbrMetallicRoughness":{"baseColorTexture":{"index":1},"baseColorFactor":[1,1,1,1],"metallicFactor":0,"roughnessFactor":0.903921569},"emissiveFactor":[0,0,0],"alphaMode":"BLEND","doubleSided":true},{"name":"mat_2","pbrMetallicRoughness":{"baseColorTexture":{"index":0},"baseColorFactor":[1,1,1,1],"metallicFactor":0,"roughnessFactor":0.903921569},"emissiveFactor":[0,0,0],"alphaMode":"BLEND","doubleSided":true}],"meshes":[{"name":"gardie-Mesh","primitives":[{"attributes":{"POSITION":0,"TEXCOORD_0":1},"indices":2,"material":0,"mode":4},{"attributes":{"POSITION":3,"TEXCOORD_0":4},"indices":5,"material":1,"mode":4},{"attributes":{"POSITION":6,"TEXCOORD_0":7},"indices":8,"material":2,"mode":4}]}],"nodes":[{"name":"gardie","mesh":0}],"samplers":[{"wrapS":10497,"wrapT":10497}],"scene":0,"scenes":[{"nodes":[0]}],"textures":[{"name":"gardie_1_0","sampler":0,"source":0},{"name":"gardie_1_1","sampler":0,"source":1}]}