{"accessors":[{"name":"polygon0_1_0_positions","componentType":5126,"count":26,"min":[-2.359231948852539,14.693275451660156,7.4228692054748535],"max":[2.359234094619751,16.256040573120117,9.275500297546387],"type":"VEC3","bufferView":0,"byteOffset":0},{"name":"polygon0_1_0_normals","componentType":5126,"count":26,"min":[-0.8288170099258423,-0.18310408294200897,0.37188494205474854],"max":[0.8288170099258423,0.7239338755607605,0.8499298691749573],"type":"VEC3","bufferView":1,"byteOffset":0},{"name":"polygon0_1_0_texcoords","componentType":5126,"count":26,"min":[0.0039059999398887157,0.027343999594449997],"max":[0.4921880066394806,0.2109369933605194],"type":"VEC2","bufferView":2,"byteOffset":0},{"name":"polygon0_1_0_indices","componentType":5123,"count":78,"min":[0],"max":[25],"type":"SCALAR","bufferView":3,"byteOffset":0},{"name":"polygon1_1_0_positions","componentType":5126,"count":113,"min":[-6.223010063171387,4.626498222351074,2.5944199562072754],"max":[6.22300910949707,21.165790557861328,9.22934341430664],"type":"VEC3","bufferView":0,"byteOffset":312},{"name":"polygon1_1_0_normals","componentType":5126,"count":113,"min":[-0.9269537329673767,-0.6117001175880432,-0.5612042546272278],"max":[0.9269537329673767,0.8779818415641785,0.9762029647827148],"type":"VEC3","bufferView":1,"byteOffset":312},{"name":"polygon1_1_0_texcoords","componentType":5126,"count":113,"min":[-0.014038000255823135,0.08691400289535522],"max":[0.9913330078125,1.8682860136032104],"type":"VEC2","bufferView":2,"byteOffset":208},{"name":"polygon1_1_0_indices","componentType":5123,"count":258,"min":[0],"max":[112],"type":"SCALAR","bufferView":3,"byteOffset":156},{"name":"polygon2_1_0_positions","componentType":5126,"count":1084,"min":[-5.5252580642700195,-9.999999974752427e-7,-24.77103042602539],"max":[5.5252580642700195,20.00620460510254,10.930244445800781],"type":"VEC3","bufferView":0,"byteOffset":1668},{"name":"polygon2_1_0_normals","componentType":5126,"count":1084,"min":[-0.9979950189590454,-0.9996474385261536,-0.999607503414154],"max":[0.9979950189590454,0.9999163150787354,0.9988757371902466],"type":"VEC3","bufferView":1,"byteOffset":1668},{"name":"polygon2_1_0_texcoords","componentType":5126,"count":1084,"min":[0.0001829999964684248,0.0007319999858736992],"max":[0.9980469942092896,0.9968870282173157],"type":"VEC2","bufferView":2,"byteOffset":1112},{"name":"polygon2_1_0_indices","componentType":5123,"count":4902,"min":[0],"max":[1083],"type":"SCALAR","bufferView":3,"byteOffset":672}],"asset":{"generator":"obj2gltf","version":"2.0"},"buffers":[{"name":"Arcanine","byteLength":606724,"uri":"data:application/octet-stream;base64,"}],"bufferViews":[{"name":"bufferView_0","buffer":0,"byteLength":14676,"byteOffset":0,"byteStride":12,"target":34962},{"name":"bufferView_1","buffer":0,"byteLength":14676,"byteOffset":14676,"byteStride":12,"target":34962},{"name":"bufferView_2","buffer":0,"byteLength":9784,"byteOffset":29352,"byteStride":8,"target":34962},{"name":"bufferView_3","buffer":0,"byteLength":10476,"byteOffset":39136,"target":34963},{"buffer":0,"byteOffset":49612,"byteLength":98322},{"buffer":0,"byteOffset":147934,"byteLength":262162},{"buffer":0,"byteOffset":410096,"byteLength":196626}],"images":[{"name":"WindieEyeDh","mimeType":"image/x-tga","bufferView":4},{"name":"WindieHairDh","mimeType":"image/x-tga","bufferView":5},{"name":"WindieDh","mimeType":"image/x-tga","bufferView":6}],"materials":[{"name":"mat3","pbrMetallicRoughness":{"baseColorTexture":{"index":0},"baseColorFactor":[1,1,1,1],"metallicFactor":0,"roughnessFactor":0.99},"emissiveFactor":[0,0,0],"alphaMode":"OPAQUE","doubleSided":false},{"name":"mat2","pbrMetallicRoughness":{"baseColorTexture":{"index":1},"baseColorFactor":[1,1,1,1],"metallicFactor":0,"roughnessFactor":0.99},"emissiveFactor":[0,0,0],"alphaMode":"OPAQUE","doubleSided":false},{"name":"mat1","pbrMetallicRoughness":{"baseColorTexture":{"index":2},"baseColorFactor":[1,1,1,1],"metallicFactor":0,"roughnessFactor":0.99},"emissiveFactor":[0,0,0],"alphaMode":"OPAQUE","doubleSided":false}],"meshes":[{"name":"polygon0_1","primitives":[{"attributes":{"POSITION":0,"NORMAL":1,"TEXCOORD_0":2},"indices":3,"material":0,"mode":4}]},{"name":"polygon1_1","primitives":[{"attributes":{"POSITION":4,"NORMAL":5,"TEXCOORD_0":6},"indices":7,"material":1,"mode":4}]},{"name":"polygon2_1","primitives":[{"attributes":{"POSITION":8,"NORMAL":9,"TEXCOORD_0":10},"indices":11,"material":2,"mode":4}]}],"nodes":[{"name":"polygon0","mesh":0},{"name":"polygon1","mesh":1},{"name":"polygon2","mesh":2}],"samplers":[{"wrapS":10497,"wrapT":10497}],"scene":0,"scenes":[{"nodes":[0,1,2]}],"textures":[{"name":"WindieEyeDh","sampler":0,"source":0},{"name":"WindieHairDh","sampler":0,"source":1},{"name":"WindieDh","sampler":0,"source":2}]}