{"accessors":[{"name":"nyoromo-Mesh_0_positions","componentType":5126,"count":202,"min":[-2.6951398849487305,-6.582980155944824,-5.29026985168457],"max":[2.6951301097869873,2.5963499546051025,0.009442999958992004],"type":"VEC3","bufferView":0,"byteOffset":0},{"name":"nyoromo-Mesh_0_texcoords","componentType":5126,"count":202,"min":[0.02529500052332878,-0.001990000018849969],"max":[0.9736369848251343,0.9725069999694824],"type":"VEC2","bufferView":1,"byteOffset":0},{"name":"nyoromo-Mesh_0_indices","componentType":5123,"count":804,"min":[0],"max":[201],"type":"SCALAR","bufferView":2,"byteOffset":0},{"name":"nyoromo-Mesh_1_positions","componentType":5126,"count":12,"min":[-0.000003000000106112566,1.869070053100586,-4.549540042877197],"max":[1.7035900354385376,2.9547998905181885,-1.124959945678711],"type":"VEC3","bufferView":0,"byteOffset":2424},{"name":"nyoromo-Mesh_1_texcoords","componentType":5126,"count":12,"min":[0.0044639999978244305,0.003746999893337488],"max":[0.9958109855651855,0.9969589710235596],"type":"VEC2","bufferView":1,"byteOffset":1616},{"name":"nyoromo-Mesh_1_indices","componentType":5123,"count":36,"min":[0],"max":[11],"type":"SCALAR","bufferView":2,"byteOffset":1608},{"name":"nyoromo-Mesh_2_positions","componentType":5126,"count":12,"min":[-1.7035900354385376,1.8690799474716187,-4.549540042877197],"max":[0.000003999999989900971,2.9547998905181885,-1.124959945678711],"type":"VEC3","bufferView":0,"byteOffset":2568},{"name":"nyoromo-Mesh_2_texcoords","componentType":5126,"count":12,"min":[0.00164899998344481,-0.002739999908953905],"max":[1.0044599771499634,0.9962559938430786],"type":"VEC2","bufferView":1,"byteOffset":1712},{"name":"nyoromo-Mesh_2_indices","componentType":5123,"count":36,"min":[0],"max":[11],"type":"SCALAR","bufferView":2,"byteOffset":1680},{"name":"nyoromo-Mesh_3_positions","componentType":5126,"count":65,"min":[-2.0416500568389893,-1.0624099969863892,-6.004439830780029],"max":[2.0249099731445312,2.9392099380493164,0.03455200046300888],"type":"VEC3","bufferView":0,"byteOffset":2712},{"name":"nyoromo-Mesh_3_texcoords","componentType":5126,"count":65,"min":[-0.05343399941921234,-0.02631000056862831],"max":[1.0584800243377686,1.041090965270996],"type":"VEC2","bufferView":1,"byteOffset":1808},{"name":"nyoromo-Mesh_3_indices","componentType":5123,"count":252,"min":[0],"max":[64],"type":"SCALAR","bufferView":2,"byteOffset":1752},{"name":"nyoromo-Mesh_4_positions","componentType":5126,"count":48,"min":[-1.5633800029754639,1.220170021057129,-5.764810085296631],"max":[1.5633699893951416,2.284749984741211,-4.717010021209717],"type":"VEC3","bufferView":0,"byteOffset":3492},{"name":"nyoromo-Mesh_4_texcoords","componentType":5126,"count":48,"min":[0.09205099940299988,0.1077980026602745],"max":[0.9031569957733154,0.25081300735473633],"type":"VEC2","bufferView":1,"byteOffset":2328},{"name":"nyoromo-Mesh_4_indices","componentType":5123,"count":204,"min":[0],"max":[47],"type":"SCALAR","bufferView":2,"byteOffset":2256},{"name":"nyoromo-Mesh_5_positions","componentType":5126,"count":21,"min":[-1.2618499994277954,-7.945710182189941,-1.1707500219345093],"max":[1.2618600130081177,-1.132099986076355,-1.1641099452972412],"type":"VEC3","bufferView":0,"byteOffset":4068},{"name":"nyoromo-Mesh_5_texcoords","componentType":5126,"count":21,"min":[-0.002876000013202429,0],"max":[1,1.0026040077209473],"type":"VEC2","bufferView":1,"byteOffset":2712},{"name":"nyoromo-Mesh_5_indices","componentType":5123,"count":78,"min":[0],"max":[20],"type":"SCALAR","bufferView":2,"byteOffset":2664},{"name":"nyoromo-Mesh_6_positions","componentType":5126,"count":20,"min":[-2.0416500568389893,-0.11796999722719193,-0.3607049882411957],"max":[2.0249099731445312,2.9392099380493164,0.03455200046300888],"type":"VEC3","bufferView":0,"byteOffset":4320},{"name":"nyoromo-Mesh_6_texcoords","componentType":5126,"count":20,"min":[0.2792080044746399,0.3302460014820099],"max":[0.6859480142593384,0.6709660291671753],"type":"VEC2","bufferView":1,"byteOffset":2880},{"name":"nyoromo-Mesh_6_indices","componentType":5123,"count":48,"min":[0],"max":[19],"type":"SCALAR","bufferView":2,"byteOffset":2820},{"name":"nyoromo-Mesh_7_positions","componentType":5126,"count":8,"min":[-0.1904439926147461,2.691070079803467,-4.635009765625],"max":[0.22139699757099152,2.7135798931121826,-4.528079986572266],"type":"VEC3","bufferView":0,"byteOffset":4560},{"name":"nyoromo-Mesh_7_texcoords","componentType":5126,"count":8,"min":[0.22898699343204498,0.2638010084629059],"max":[0.771012008190155,0.71977698802948],"type":"VEC2","bufferView":1,"byteOffset":3040},{"name":"nyoromo-Mesh_7_indices","componentType":5123,"count":18,"min":[0],"max":[7],"type":"SCALAR","bufferView":2,"byteOffset":2916},{"name":"nyoromo-Mesh_8_positions","componentType":5126,"count":66,"min":[-0.6436100006103516,2.360830068588257,-5.04325008392334],"max":[0.669996976852417,3.077320098876953,-4.1951799392700195],"type":"VEC3","bufferView":0,"byteOffset":4656},{"name":"nyoromo-Mesh_8_texcoords","componentType":5126,"count":66,"min":[0.3805980086326599,0.15916399657726288],"max":[0.6242979764938354,0.29959601163864136],"type":"VEC2","bufferView":1,"byteOffset":3104},{"name":"nyoromo-Mesh_8_indices","componentType":5123,"count":366,"min":[0],"max":[65],"type":"SCALAR","bufferView":2,"byteOffset":2952}],"asset":{"generator":"obj2gltf","version":"2.0"},"buffers":[{"name":"BR_Poliwag-Shiny01","byteLength":123776,"uri":"data:application/octet-stream;base64,"}],"bufferViews":[{"name":"bufferView_0","buffer":0,"byteLength":5448,"byteOffset":0,"byteStride":12,"target":34962},{"name":"bufferView_1","buffer":0,"byteLength":3632,"byteOffset":5448,"byteStride":8,"target":34962},{"name":"bufferView_2","buffer":0,"byteLength":3684,"byteOffset":9080,"target":34963},{"buffer":0,"byteOffset":12764,"byteLength":82},{"buffer":0,"byteOffset":12846,"byteLength":8210},{"buffer":0,"byteOffset":21056,"byteLength":8210},{"buffer":0,"byteOffset":29266,"byteLength":4114},{"buffer":0,"byteOffset":33380,"byteLength":24594},{"buffer":0,"byteOffset":57974,"byteLength":65554},{"buffer":0,"byteOffset":123528,"byteLength":82},{"buffer":0,"byteOffset":123610,"byteLength":82},{"buffer":0,"byteOffset":123692,"byteLength":82}],"images":[{"name":"nyoromo_1_0","mimeType":"image/x-tga","bufferView":3},{"name":"nyoromo_1_1","mimeType":"image/x-tga","bufferView":4},{"name":"nyoromo_1_2","mimeType":"image/x-tga","bufferView":5},{"name":"nyoromo_1_3","mimeType":"image/x-tga","bufferView":6},{"name":"nyoromo_1_4","mimeType":"image/x-tga","bufferView":7},{"name":"nyoromo_1_5","mimeType":"image/x-tga","bufferView":8},{"name":"nyoromo_1_6","mimeType":"image/x-tga","bufferView":9},{"name":"nyoromo_1_7","mimeType":"image/x-tga","bufferView":10},{"name":"nyoromo_1_8","mimeType":"image/x-tga","bufferView":11}],"materials":[{"name":"mat_0","pbrMetallicRoughness":{"baseColorTexture":{"index":0},"baseColorFactor":[1,1,1,1],"metallicFactor":0,"roughnessFactor":0.903921569},"emissiveFactor":[0,0,0],"alphaMode":"BLEND","doubleSided":true},{"name":"mat_1","pbrMetallicRoughness":{"baseColorTexture":{"index":1},"baseColorFactor":[1,1,1,1],"metallicFactor":0,"roughnessFactor":0.903921569},"emissiveFactor":[0,0,0],"alphaMode":"BLEND","doubleSided":true},{"name":"mat_2","pbrMetallicRoughness":{"baseColorTexture":{"index":2},"baseColorFactor":[1,1,1,1],"metallicFactor":0,"roughnessFactor":0.903921569},"emissiveFactor":[0,0,0],"alphaMode":"BLEND","doubleSided":true},{"name":"mat_3","pbrMetallicRoughness":{"baseColorTexture":{"index":3},"baseColorFactor":[1,1,1,1],"metallicFactor":0,"roughnessFactor":0.903921569},"emissiveFactor":[0,0,0],"alphaMode":"BLEND","doubleSided":true},{"name":"mat_4","pbrMetallicRoughness":{"baseColorTexture":{"index":4},"baseColorFactor":[1,1,1,1],"metallicFactor":0,"roughnessFactor":0.903921569},"emissiveFactor":[0,0,0],"alphaMode":"BLEND","doubleSided":true},{"name":"mat_5","pbrMetallicRoughness":{"baseColorTexture":{"index":5},"baseColorFactor":[1,1,1,1],"metallicFactor":0,"roughnessFactor":0.903921569},"emissiveFactor":[0,0,0],"alphaMode":"BLEND","doubleSided":true},{"name":"mat_6","pbrMetallicRoughness":{"baseColorTexture":{"index":6},"baseColorFactor":[1,1,1,1],"metallicFactor":0,"roughnessFactor":0.903921569},"emissiveFactor":[0,0,0],"alphaMode":"BLEND","doubleSided":true},{"name":"mat_7","pbrMetallicRoughness":{"baseColorTexture":{"index":7},"baseColorFactor":[1,1,1,1],"metallicFactor":0,"roughnessFactor":0.903921569},"emissiveFactor":[0,0,0],"alphaMode":"BLEND","doubleSided":true},{"name":"mat_8","pbrMetallicRoughness":{"baseColorTexture":{"index":8},"baseColorFactor":[1,1,1,1],"metallicFactor":0,"roughnessFactor":0.903921569},"emissiveFactor":[0,0,0],"alphaMode":"BLEND","doubleSided":true}],"meshes":[{"name":"nyoromo-Mesh","primitives":[{"attributes":{"POSITION":0,"TEXCOORD_0":1},"indices":2,"material":0,"mode":4},{"attributes":{"POSITION":3,"TEXCOORD_0":4},"indices":5,"material":1,"mode":4},{"attributes":{"POSITION":6,"TEXCOORD_0":7},"indices":8,"material":2,"mode":4},{"attributes":{"POSITION":9,"TEXCOORD_0":10},"indices":11,"material":3,"mode":4},{"attributes":{"POSITION":12,"TEXCOORD_0":13},"indices":14,"material":4,"mode":4},{"attributes":{"POSITION":15,"TEXCOORD_0":16},"indices":17,"material":5,"mode":4},{"attributes":{"POSITION":18,"TEXCOORD_0":19},"indices":20,"material":6,"mode":4},{"attributes":{"POSITION":21,"TEXCOORD_0":22},"indices":23,"material":7,"mode":4},{"attributes":{"POSITION":24,"TEXCOORD_0":25},"indices":26,"material":8,"mode":4}]}],"nodes":[{"name":"nyoromo","mesh":0}],"samplers":[{"wrapS":10497,"wrapT":10497}],"scene":0,"scenes":[{"nodes":[0]}],"textures":[{"name":"nyoromo_1_0","sampler":0,"source":0},{"name":"nyoromo_1_1","sampler":0,"source":1},{"name":"nyoromo_1_2","sampler":0,"source":2},{"name":"nyoromo_1_3","sampler":0,"source":3},{"name":"nyoromo_1_4","sampler":0,"source":4},{"name":"nyoromo_1_5","sampler":0,"source":5},{"name":"nyoromo_1_6","sampler":0,"source":6},{"name":"nyoromo_1_7","sampler":0,"source":7},{"name":"nyoromo_1_8","sampler":0,"source":8}]}