{"accessors":[{"name":"nyorozo-Mesh_0_positions","componentType":5126,"count":214,"min":[-5.7268900871276855,-3.0820701122283936,-10.354499816894531],"max":[5.422619819641113,3.021630048751831,0.09036800265312195],"type":"VEC3","bufferView":0,"byteOffset":0},{"name":"nyorozo-Mesh_0_texcoords","componentType":5126,"count":214,"min":[0.4629009962081909,0.43032699823379517],"max":[0.4629009962081909,0.43032699823379517],"type":"VEC2","bufferView":1,"byteOffset":0},{"name":"nyorozo-Mesh_0_indices","componentType":5123,"count":1146,"min":[0],"max":[213],"type":"SCALAR","bufferView":2,"byteOffset":0},{"name":"nyorozo-Mesh_1_positions","componentType":5126,"count":15,"min":[-0.022624999284744263,1.670699954032898,-8.762109756469727],"max":[3.71655011177063,4.163809776306152,-2.775290012359619],"type":"VEC3","bufferView":0,"byteOffset":2568},{"name":"nyorozo-Mesh_1_texcoords","componentType":5126,"count":15,"min":[0.0037479999009519815,-0.036309998482465744],"max":[1.1423900127410889,1.0112839937210083],"type":"VEC2","bufferView":1,"byteOffset":1712},{"name":"nyorozo-Mesh_1_indices","componentType":5123,"count":48,"min":[0],"max":[14],"type":"SCALAR","bufferView":2,"byteOffset":2292},{"name":"nyorozo-Mesh_2_positions","componentType":5126,"count":15,"min":[-3.3198399543762207,2.0875298976898193,-8.762109756469727],"max":[0.4218969941139221,4.163809776306152,-2.670799970626831],"type":"VEC3","bufferView":0,"byteOffset":2748},{"name":"nyorozo-Mesh_2_texcoords","componentType":5126,"count":15,"min":[-0.1460770070552826,-0.034529998898506165],"max":[0.9989550113677979,1.0091869831085205],"type":"VEC2","bufferView":1,"byteOffset":1832},{"name":"nyorozo-Mesh_2_indices","componentType":5123,"count":48,"min":[0],"max":[14],"type":"SCALAR","bufferView":2,"byteOffset":2388},{"name":"nyorozo-Mesh_3_positions","componentType":5126,"count":22,"min":[-4.232190132141113,-1.1451900005340576,-0.4943459928035736],"max":[4.177110195159912,2.4798200130462646,0.09036800265312195],"type":"VEC3","bufferView":0,"byteOffset":2928},{"name":"nyorozo-Mesh_3_texcoords","componentType":5126,"count":22,"min":[0.3906309902667999,0.2202260047197342],"max":[0.3906309902667999,0.2202260047197342],"type":"VEC2","bufferView":1,"byteOffset":1952},{"name":"nyorozo-Mesh_3_indices","componentType":5123,"count":54,"min":[0],"max":[21],"type":"SCALAR","bufferView":2,"byteOffset":2484},{"name":"nyorozo-Mesh_4_positions","componentType":5126,"count":28,"min":[-4.232190132141113,-0.4172529876232147,-1.062980055809021],"max":[4.177110195159912,2.4798200130462646,0.09036800265312195],"type":"VEC3","bufferView":0,"byteOffset":3192},{"name":"nyorozo-Mesh_4_texcoords","componentType":5126,"count":28,"min":[-0.24127599596977234,-0.09410999715328217],"max":[0.9885749816894531,1.0666120052337646],"type":"VEC2","bufferView":1,"byteOffset":2128},{"name":"nyorozo-Mesh_4_indices","componentType":5123,"count":96,"min":[0],"max":[27],"type":"SCALAR","bufferView":2,"byteOffset":2592},{"name":"nyorozo-Mesh_5_positions","componentType":5126,"count":8,"min":[-1.6692399978637695,2.006350040435791,-9.329580307006836],"max":[1.6531399488449097,3.021630048751831,-8.196060180664062],"type":"VEC3","bufferView":0,"byteOffset":3528},{"name":"nyorozo-Mesh_5_texcoords","componentType":5126,"count":8,"min":[-0.13681599497795105,-0.08027999848127365],"max":[3.0212600231170654,1.5246920585632324],"type":"VEC2","bufferView":1,"byteOffset":2352},{"name":"nyorozo-Mesh_5_indices","componentType":5123,"count":12,"min":[0],"max":[7],"type":"SCALAR","bufferView":2,"byteOffset":2784},{"name":"nyorozo-Mesh_6_positions","componentType":5126,"count":22,"min":[-3.273940086364746,1.3229700326919556,-10.220600128173828],"max":[2.8675100803375244,2.470410108566284,-7.99862003326416],"type":"VEC3","bufferView":0,"byteOffset":3624},{"name":"nyorozo-Mesh_6_texcoords","componentType":5126,"count":22,"min":[-0.040320999920368195,0.05225199833512306],"max":[0.9901760220527649,0.20645500719547272],"type":"VEC2","bufferView":1,"byteOffset":2416},{"name":"nyorozo-Mesh_6_indices","componentType":5123,"count":78,"min":[0],"max":[21],"type":"SCALAR","bufferView":2,"byteOffset":2808},{"name":"nyorozo-Mesh_7_positions","componentType":5126,"count":98,"min":[-7.346889972686768,-3.408560037612915,-7.1699299812316895],"max":[7.763510227203369,4.287879943847656,-2.6533899307250977],"type":"VEC3","bufferView":0,"byteOffset":3888},{"name":"nyorozo-Mesh_7_texcoords","componentType":5126,"count":98,"min":[-0.01139300037175417,-0.017009999603033066],"max":[0.9130370020866394,0.9718449711799622],"type":"VEC2","bufferView":1,"byteOffset":2592},{"name":"nyorozo-Mesh_7_indices","componentType":5123,"count":228,"min":[0],"max":[97],"type":"SCALAR","bufferView":2,"byteOffset":2964},{"name":"nyorozo-Mesh_8_positions","componentType":5126,"count":76,"min":[-7.346889972686768,-3.408560037612915,-7.36460018157959],"max":[8.166259765625,4.463379859924316,-2.5724000930786133],"type":"VEC3","bufferView":0,"byteOffset":5064},{"name":"nyorozo-Mesh_8_texcoords","componentType":5126,"count":76,"min":[0.541737973690033,0.4933690130710602],"max":[0.541737973690033,0.4933690130710602],"type":"VEC2","bufferView":1,"byteOffset":3376},{"name":"nyorozo-Mesh_8_indices","componentType":5123,"count":300,"min":[0],"max":[75],"type":"SCALAR","bufferView":2,"byteOffset":3420},{"name":"nyorozo-Mesh_9_positions","componentType":5126,"count":16,"min":[-5.9794697761535645,-2.1294898986816406,-7.36460018157959],"max":[5.428890228271484,2.4601099491119385,-4.801199913024902],"type":"VEC3","bufferView":0,"byteOffset":5976},{"name":"nyorozo-Mesh_9_texcoords","componentType":5126,"count":16,"min":[-0.0016270000487565994,-0.008940000087022781],"max":[1.009660005569458,0.9755409955978394],"type":"VEC2","bufferView":1,"byteOffset":3984},{"name":"nyorozo-Mesh_9_indices","componentType":5123,"count":36,"min":[0],"max":[15],"type":"SCALAR","bufferView":2,"byteOffset":4020}],"asset":{"generator":"obj2gltf","version":"2.0"},"buffers":[{"name":"BR_Poliwhirl-Shiny01","byteLength":68760,"uri":"data:application/octet-stream;base64,"}],"bufferViews":[{"name":"bufferView_0","buffer":0,"byteLength":6168,"byteOffset":0,"byteStride":12,"target":34962},{"name":"bufferView_1","buffer":0,"byteLength":4112,"byteOffset":6168,"byteStride":8,"target":34962},{"name":"bufferView_2","buffer":0,"byteLength":4092,"byteOffset":10280,"target":34963},{"buffer":0,"byteOffset":14372,"byteLength":82},{"buffer":0,"byteOffset":14454,"byteLength":8210},{"buffer":0,"byteOffset":22664,"byteLength":8210},{"buffer":0,"byteOffset":30874,"byteLength":82},{"buffer":0,"byteOffset":30956,"byteLength":4114},{"buffer":0,"byteOffset":35070,"byteLength":530},{"buffer":0,"byteOffset":35600,"byteLength":30738},{"buffer":0,"byteOffset":66338,"byteLength":2066},{"buffer":0,"byteOffset":68404,"byteLength":82},{"buffer":0,"byteOffset":68486,"byteLength":274}],"images":[{"name":"nyorozo_1_0","mimeType":"image/x-tga","bufferView":3},{"name":"nyorozo_1_1","mimeType":"image/x-tga","bufferView":4},{"name":"nyorozo_1_2","mimeType":"image/x-tga","bufferView":5},{"name":"nyorozo_1_3","mimeType":"image/x-tga","bufferView":6},{"name":"nyorozo_1_4","mimeType":"image/x-tga","bufferView":7},{"name":"nyorozo_1_5","mimeType":"image/x-tga","bufferView":8},{"name":"nyorozo_1_6","mimeType":"image/x-tga","bufferView":9},{"name":"nyorozo_1_7","mimeType":"image/x-tga","bufferView":10},{"name":"nyorozo_1_8","mimeType":"image/x-tga","bufferView":11},{"name":"nyorozo_1_9","mimeType":"image/x-tga","bufferView":12}],"materials":[{"name":"mat_0","pbrMetallicRoughness":{"baseColorTexture":{"index":0},"baseColorFactor":[1,1,1,1],"metallicFactor":0,"roughnessFactor":0.903921569},"emissiveFactor":[0,0,0],"alphaMode":"BLEND","doubleSided":true},{"name":"mat_1","pbrMetallicRoughness":{"baseColorTexture":{"index":1},"baseColorFactor":[1,1,1,1],"metallicFactor":0,"roughnessFactor":0.903921569},"emissiveFactor":[0,0,0],"alphaMode":"BLEND","doubleSided":true},{"name":"mat_2","pbrMetallicRoughness":{"baseColorTexture":{"index":2},"baseColorFactor":[1,1,1,1],"metallicFactor":0,"roughnessFactor":0.903921569},"emissiveFactor":[0,0,0],"alphaMode":"BLEND","doubleSided":true},{"name":"mat_3","pbrMetallicRoughness":{"baseColorTexture":{"index":3},"baseColorFactor":[1,1,1,1],"metallicFactor":0,"roughnessFactor":0.903921569},"emissiveFactor":[0,0,0],"alphaMode":"BLEND","doubleSided":true},{"name":"mat_4","pbrMetallicRoughness":{"baseColorTexture":{"index":4},"baseColorFactor":[1,1,1,1],"metallicFactor":0,"roughnessFactor":0.903921569},"emissiveFactor":[0,0,0],"alphaMode":"BLEND","doubleSided":true},{"name":"mat_5","pbrMetallicRoughness":{"baseColorTexture":{"index":5},"baseColorFactor":[1,1,1,1],"metallicFactor":0,"roughnessFactor":0.903921569},"emissiveFactor":[0,0,0],"alphaMode":"BLEND","doubleSided":true},{"name":"mat_6","pbrMetallicRoughness":{"baseColorTexture":{"index":6},"baseColorFactor":[1,1,1,1],"metallicFactor":0,"roughnessFactor":0.903921569},"emissiveFactor":[0,0,0],"alphaMode":"BLEND","doubleSided":true},{"name":"mat_7","pbrMetallicRoughness":{"baseColorTexture":{"index":7},"baseColorFactor":[1,1,1,1],"metallicFactor":0,"roughnessFactor":0.903921569},"emissiveFactor":[0,0,0],"alphaMode":"BLEND","doubleSided":true},{"name":"mat_8","pbrMetallicRoughness":{"baseColorTexture":{"index":8},"baseColorFactor":[1,1,1,1],"metallicFactor":0,"roughnessFactor":0.903921569},"emissiveFactor":[0,0,0],"alphaMode":"BLEND","doubleSided":true},{"name":"mat_9","pbrMetallicRoughness":{"baseColorTexture":{"index":9},"baseColorFactor":[1,1,1,1],"metallicFactor":0,"roughnessFactor":0.903921569},"emissiveFactor":[0,0,0],"alphaMode":"BLEND","doubleSided":true}],"meshes":[{"name":"nyorozo-Mesh","primitives":[{"attributes":{"POSITION":0,"TEXCOORD_0":1},"indices":2,"material":0,"mode":4},{"attributes":{"POSITION":3,"TEXCOORD_0":4},"indices":5,"material":1,"mode":4},{"attributes":{"POSITION":6,"TEXCOORD_0":7},"indices":8,"material":2,"mode":4},{"attributes":{"POSITION":9,"TEXCOORD_0":10},"indices":11,"material":3,"mode":4},{"attributes":{"POSITION":12,"TEXCOORD_0":13},"indices":14,"material":4,"mode":4},{"attributes":{"POSITION":15,"TEXCOORD_0":16},"indices":17,"material":5,"mode":4},{"attributes":{"POSITION":18,"TEXCOORD_0":19},"indices":20,"material":6,"mode":4},{"attributes":{"POSITION":21,"TEXCOORD_0":22},"indices":23,"material":7,"mode":4},{"attributes":{"POSITION":24,"TEXCOORD_0":25},"indices":26,"material":8,"mode":4},{"attributes":{"POSITION":27,"TEXCOORD_0":28},"indices":29,"material":9,"mode":4}]}],"nodes":[{"name":"nyorozo","mesh":0}],"samplers":[{"wrapS":10497,"wrapT":10497}],"scene":0,"scenes":[{"nodes":[0]}],"textures":[{"name":"nyorozo_1_0","sampler":0,"source":0},{"name":"nyorozo_1_1","sampler":0,"source":1},{"name":"nyorozo_1_2","sampler":0,"source":2},{"name":"nyorozo_1_3","sampler":0,"source":3},{"name":"nyorozo_1_4","sampler":0,"source":4},{"name":"nyorozo_1_5","sampler":0,"source":5},{"name":"nyorozo_1_6","sampler":0,"source":6},{"name":"nyorozo_1_7","sampler":0,"source":7},{"name":"nyorozo_1_8","sampler":0,"source":8},{"name":"nyorozo_1_9","sampler":0,"source":9}]}