{"accessors":[{"name":"nyorobon-Mesh_0_positions","componentType":5126,"count":887,"min":[-16.201818466186523,-4.41096305847168,-14.082267761230469],"max":[16.201820373535156,4.003232955932617,0],"type":"VEC3","bufferView":0,"byteOffset":0},{"name":"nyorobon-Mesh_0_texcoords","componentType":5126,"count":887,"min":[0.002440999960526824,0.010607000440359116],"max":[0.7842720150947571,0.9796350002288818],"type":"VEC2","bufferView":1,"byteOffset":0},{"name":"nyorobon-Mesh_0_indices","componentType":5123,"count":3324,"min":[0],"max":[886],"type":"SCALAR","bufferView":2,"byteOffset":0},{"name":"nyorobon-Mesh_1_positions","componentType":5126,"count":24,"min":[-3.649862051010132,0.4261299967765808,-13.94425106048584],"max":[3.6498630046844482,1.0840250253677368,-11.851550102233887],"type":"VEC3","bufferView":0,"byteOffset":10644},{"name":"nyorobon-Mesh_1_texcoords","componentType":5126,"count":24,"min":[0.8190630078315735,0.011490000411868095],"max":[0.997107982635498,0.18017800152301788],"type":"VEC2","bufferView":1,"byteOffset":7096},{"name":"nyorobon-Mesh_1_indices","componentType":5123,"count":72,"min":[0],"max":[23],"type":"SCALAR","bufferView":2,"byteOffset":6648},{"name":"nyorobon-Mesh_2_positions","componentType":5126,"count":6,"min":[-1.1136640310287476,1.951922059059143,-12.478384017944336],"max":[1.1136640310287476,2.896151065826416,-11.835000038146973],"type":"VEC3","bufferView":0,"byteOffset":10932},{"name":"nyorobon-Mesh_2_texcoords","componentType":5126,"count":6,"min":[0.7022799849510193,0.4531190097332001],"max":[0.7971889972686768,0.5480279922485352],"type":"VEC2","bufferView":1,"byteOffset":7288},{"name":"nyorobon-Mesh_2_indices","componentType":5123,"count":12,"min":[0],"max":[5],"type":"SCALAR","bufferView":2,"byteOffset":6792}],"asset":{"generator":"obj2gltf","version":"2.0"},"buffers":[{"name":"BR_Poliwrath-Shiny01","byteLength":1073752,"uri":"data:application/octet-stream;base64,"}],"bufferViews":[{"name":"bufferView_0","buffer":0,"byteLength":11004,"byteOffset":0,"byteStride":12,"target":34962},{"name":"bufferView_1","buffer":0,"byteLength":7336,"byteOffset":11004,"byteStride":8,"target":34962},{"name":"bufferView_2","buffer":0,"byteLength":6816,"byteOffset":18340,"target":34963},{"buffer":0,"byteOffset":25156,"byteLength":1048594}],"images":[{"name":"nyorobon_1_0","mimeType":"image/x-tga","bufferView":3}],"materials":[{"name":"mat_0","pbrMetallicRoughness":{"baseColorTexture":{"index":0},"baseColorFactor":[1,1,1,1],"metallicFactor":0,"roughnessFactor":0.903921569},"emissiveFactor":[0,0,0],"alphaMode":"BLEND","doubleSided":true},{"name":"mat_1","pbrMetallicRoughness":{"baseColorTexture":{"index":0},"baseColorFactor":[1,1,1,1],"metallicFactor":0,"roughnessFactor":0.903921569},"emissiveFactor":[0,0,0],"alphaMode":"BLEND","doubleSided":true},{"name":"mat_2","pbrMetallicRoughness":{"baseColorTexture":{"index":0},"baseColorFactor":[1,1,1,1],"metallicFactor":0,"roughnessFactor":0.903921569},"emissiveFactor":[0,0,0],"alphaMode":"BLEND","doubleSided":true}],"meshes":[{"name":"nyorobon-Mesh","primitives":[{"attributes":{"POSITION":0,"TEXCOORD_0":1},"indices":2,"material":0,"mode":4},{"attributes":{"POSITION":3,"TEXCOORD_0":4},"indices":5,"material":1,"mode":4},{"attributes":{"POSITION":6,"TEXCOORD_0":7},"indices":8,"material":2,"mode":4}]}],"nodes":[{"name":"nyorobon","mesh":0}],"samplers":[{"wrapS":10497,"wrapT":10497}],"scene":0,"scenes":[{"nodes":[0]}],"textures":[{"name":"nyorobon_1_0","sampler":0,"source":0}]}