{"accessors":[{"name":"polygon0_1_0_positions","componentType":5126,"count":10,"min":[-1.1004379987716675,6.675000190734863,1.1387569904327393],"max":[1.1004379987716675,7.52458381652832,1.6460449695587158],"type":"VEC3","bufferView":0,"byteOffset":0},{"name":"polygon0_1_0_normals","componentType":5126,"count":10,"min":[-0.6767055988311768,-0.020692000165581703,0.7104585766792297],"max":[0.6767055988311768,0.19317889213562012,0.9114266037940979],"type":"VEC3","bufferView":1,"byteOffset":0},{"name":"polygon0_1_0_texcoords","componentType":5126,"count":10,"min":[0.010375999845564365,0.012481999583542347],"max":[0.9866330027580261,0.23785400390625],"type":"VEC2","bufferView":2,"byteOffset":0},{"name":"polygon0_1_0_indices","componentType":5123,"count":18,"min":[0],"max":[9],"type":"SCALAR","bufferView":3,"byteOffset":0},{"name":"polygon1_1_0_positions","componentType":5126,"count":1012,"min":[-3.4857869148254395,-0.31132999062538147,-8.64984130859375],"max":[3.4857869148254395,8.966200828552246,2.2522130012512207],"type":"VEC3","bufferView":0,"byteOffset":120},{"name":"polygon1_1_0_normals","componentType":5126,"count":1012,"min":[-0.9993471503257751,-0.9996442198753357,-0.9996393322944641],"max":[0.9993472099304199,0.9995229840278625,0.9996227622032166],"type":"VEC3","bufferView":1,"byteOffset":120},{"name":"polygon1_1_0_texcoords","componentType":5126,"count":1012,"min":[0.020447000861167908,0.01620499975979328],"max":[0.9958500266075134,0.9940490126609802],"type":"VEC2","bufferView":2,"byteOffset":80},{"name":"polygon1_1_0_indices","componentType":5123,"count":4806,"min":[0],"max":[1011],"type":"SCALAR","bufferView":3,"byteOffset":36}],"asset":{"generator":"obj2gltf","version":"2.0"},"buffers":[{"name":"Abra","byteLength":288148,"uri":"data:application/octet-stream;base64,"}],"bufferViews":[{"name":"bufferView_0","buffer":0,"byteLength":12264,"byteOffset":0,"byteStride":12,"target":34962},{"name":"bufferView_1","buffer":0,"byteLength":12264,"byteOffset":12264,"byteStride":12,"target":34962},{"name":"bufferView_2","buffer":0,"byteLength":8176,"byteOffset":24528,"byteStride":8,"target":34962},{"name":"bufferView_3","buffer":0,"byteLength":9648,"byteOffset":32704,"target":34963},{"buffer":0,"byteOffset":42352,"byteLength":49170},{"buffer":0,"byteOffset":91522,"byteLength":196626}],"images":[{"name":"CaseyEyeDh","mimeType":"image/x-tga","bufferView":4},{"name":"CaseyDh","mimeType":"image/x-tga","bufferView":5}],"materials":[{"name":"mat2","pbrMetallicRoughness":{"baseColorTexture":{"index":0},"baseColorFactor":[1,1,1,1],"metallicFactor":0,"roughnessFactor":0.99},"emissiveFactor":[0,0,0],"alphaMode":"OPAQUE","doubleSided":false},{"name":"mat1","pbrMetallicRoughness":{"baseColorTexture":{"index":1},"baseColorFactor":[1,1,1,1],"metallicFactor":0,"roughnessFactor":0.99},"emissiveFactor":[0,0,0],"alphaMode":"OPAQUE","doubleSided":false}],"meshes":[{"name":"polygon0_1","primitives":[{"attributes":{"POSITION":0,"NORMAL":1,"TEXCOORD_0":2},"indices":3,"material":0,"mode":4}]},{"name":"polygon1_1","primitives":[{"attributes":{"POSITION":4,"NORMAL":5,"TEXCOORD_0":6},"indices":7,"material":1,"mode":4}]}],"nodes":[{"name":"polygon0","mesh":0},{"name":"polygon1","mesh":1}],"samplers":[{"wrapS":10497,"wrapT":10497}],"scene":0,"scenes":[{"nodes":[0,1]}],"textures":[{"name":"CaseyEyeDh","sampler":0,"source":0},{"name":"CaseyDh","sampler":0,"source":1}]}