{"accessors":[{"name":"yungerer-Mesh_0_positions","componentType":5126,"count":102,"min":[6.001252174377441,-2.4111270904541016,-4.9816741943359375],"max":[7.690070152282715,1.194280982017517,-2.9726951122283936],"type":"VEC3","bufferView":0,"byteOffset":0},{"name":"yungerer-Mesh_0_texcoords","componentType":5126,"count":102,"min":[0.05445599928498268,0.9043499827384949],"max":[0.28076300024986267,0.9964990019798279],"type":"VEC2","bufferView":1,"byteOffset":0},{"name":"yungerer-Mesh_0_indices","componentType":5123,"count":456,"min":[0],"max":[101],"type":"SCALAR","bufferView":2,"byteOffset":0}],"asset":{"generator":"obj2gltf","version":"2.0"},"buffers":[{"name":"BR_Kadabra-Shiny01","byteLength":1051548,"uri":"data:application/octet-stream;base64,"}],"bufferViews":[{"name":"bufferView_0","buffer":0,"byteLength":1224,"byteOffset":0,"byteStride":12,"target":34962},{"name":"bufferView_1","buffer":0,"byteLength":816,"byteOffset":1224,"byteStride":8,"target":34962},{"name":"bufferView_2","buffer":0,"byteLength":912,"byteOffset":2040,"target":34963},{"buffer":0,"byteOffset":2952,"byteLength":1048594}],"images":[{"name":"yungerer_1_0","mimeType":"image/x-tga","bufferView":3}],"materials":[{"name":"mat_0","pbrMetallicRoughness":{"baseColorTexture":{"index":0},"baseColorFactor":[1,1,1,1],"metallicFactor":0,"roughnessFactor":0.903921569},"emissiveFactor":[0,0,0],"alphaMode":"BLEND","doubleSided":true}],"meshes":[{"name":"yungerer-Mesh","primitives":[{"attributes":{"POSITION":0,"TEXCOORD_0":1},"indices":2,"material":0,"mode":4}]}],"nodes":[{"name":"yungerer","mesh":0}],"samplers":[{"wrapS":10497,"wrapT":10497}],"scene":0,"scenes":[{"nodes":[0]}],"textures":[{"name":"yungerer_1_0","sampler":0,"source":0}]}