{"accessors":[{"name":"foodin-Mesh_0_positions","componentType":5126,"count":55,"min":[5.6895952224731445,-2.293905019760132,-1.9513720273971558],"max":[7.120776176452637,3.4441440105438232,-1.0377930402755737],"type":"VEC3","bufferView":0,"byteOffset":0},{"name":"foodin-Mesh_0_texcoords","componentType":5126,"count":55,"min":[0.4166339933872223,0.9126669764518738],"max":[0.6740580201148987,0.9838340282440186],"type":"VEC2","bufferView":1,"byteOffset":0},{"name":"foodin-Mesh_0_indices","componentType":5123,"count":288,"min":[0],"max":[54],"type":"SCALAR","bufferView":2,"byteOffset":0}],"asset":{"generator":"obj2gltf","version":"2.0"},"buffers":[{"name":"BR_Alakazam-Shiny01","byteLength":5792,"uri":"data:application/octet-stream;base64,"}],"bufferViews":[{"name":"bufferView_0","buffer":0,"byteLength":660,"byteOffset":0,"byteStride":12,"target":34962},{"name":"bufferView_1","buffer":0,"byteLength":440,"byteOffset":660,"byteStride":8,"target":34962},{"name":"bufferView_2","buffer":0,"byteLength":576,"byteOffset":1100,"target":34963},{"buffer":0,"byteOffset":1676,"byteLength":4114}],"images":[{"name":"foodin_1_0","mimeType":"image/x-tga","bufferView":3}],"materials":[{"name":"mat_0","pbrMetallicRoughness":{"baseColorTexture":{"index":0},"baseColorFactor":[1,1,1,1],"metallicFactor":0,"roughnessFactor":0.903921569},"emissiveFactor":[0,0,0],"alphaMode":"BLEND","doubleSided":true}],"meshes":[{"name":"foodin-Mesh","primitives":[{"attributes":{"POSITION":0,"TEXCOORD_0":1},"indices":2,"material":0,"mode":4}]}],"nodes":[{"name":"foodin","mesh":0}],"samplers":[{"wrapS":10497,"wrapT":10497}],"scene":0,"scenes":[{"nodes":[0]}],"textures":[{"name":"foodin_1_0","sampler":0,"source":0}]}