{"accessors":[{"name":"AlakazamF_1_0_positions","componentType":5126,"count":14706,"min":[-75.4292984008789,-0.000004999999873689376,-22.519800186157227],"max":[75.4292984008789,150.04299926757812,52.48299789428711],"type":"VEC3","bufferView":0,"byteOffset":0},{"name":"AlakazamF_1_0_normals","componentType":5126,"count":14706,"min":[-0.9980464577674866,-0.984437882900238,-0.997917652130127],"max":[0.9980465173721313,0.999860942363739,0.9996798634529114],"type":"VEC3","bufferView":1,"byteOffset":0},{"name":"AlakazamF_1_0_texcoords","componentType":5126,"count":14706,"min":[0,0.0054060001857578754],"max":[1,0.9943230152130127],"type":"VEC2","bufferView":2,"byteOffset":0},{"name":"AlakazamF_1_0_indices","componentType":5123,"count":14706,"min":[0],"max":[14705],"type":"SCALAR","bufferView":3,"byteOffset":0},{"name":"AlakazamF_1_1_positions","componentType":5126,"count":336,"min":[-13.469900131225586,95.10749053955078,35.16069030761719],"max":[13.469900131225586,117.8010025024414,48.367103576660156],"type":"VEC3","bufferView":0,"byteOffset":176472},{"name":"AlakazamF_1_1_normals","componentType":5126,"count":336,"min":[-0.9544118642807007,-0.7682062983512878,-0.9970924854278564],"max":[0.9891558289527893,0.9923193454742432,0.998968780040741],"type":"VEC3","bufferView":1,"byteOffset":176472},{"name":"AlakazamF_1_1_texcoords","componentType":5126,"count":336,"min":[0.09727200120687485,-0.9900699853897095],"max":[0.40272998809814453,-0.758840024471283],"type":"VEC2","bufferView":2,"byteOffset":117648},{"name":"AlakazamF_1_1_indices","componentType":5123,"count":336,"min":[0],"max":[335],"type":"SCALAR","bufferView":3,"byteOffset":29412},{"name":"AlakazamF_1_2_positions","componentType":5126,"count":336,"min":[-13.646499633789062,95.16728973388672,35.24469757080078],"max":[13.646499633789062,117.80599212646484,48.555992126464844],"type":"VEC3","bufferView":0,"byteOffset":180504},{"name":"AlakazamF_1_2_normals","componentType":5126,"count":336,"min":[-0.9193260073661804,-0.5967690944671631,-0.271014928817749],"max":[0.19669009745121002,0.999860942363739,0.9707831740379333],"type":"VEC3","bufferView":1,"byteOffset":180504},{"name":"AlakazamF_1_2_texcoords","componentType":5126,"count":336,"min":[0.3890799880027771,-1.960279941558838],"max":[1,-1.0353599786758423],"type":"VEC2","bufferView":2,"byteOffset":120336},{"name":"AlakazamF_1_2_indices","componentType":5123,"count":336,"min":[0],"max":[335],"type":"SCALAR","bufferView":3,"byteOffset":30084}],"asset":{"generator":"obj2gltf","version":"2.0"},"buffers":[{"name":"XY_AlakazamF","byteLength":626676,"uri":"data:application/octet-stream;base64,"}],"bufferViews":[{"name":"bufferView_0","buffer":0,"byteLength":184536,"byteOffset":0,"byteStride":12,"target":34962},{"name":"bufferView_1","buffer":0,"byteLength":184536,"byteOffset":184536,"byteStride":12,"target":34962},{"name":"bufferView_2","buffer":0,"byteLength":123024,"byteOffset":369072,"byteStride":8,"target":34962},{"name":"bufferView_3","buffer":0,"byteLength":30756,"byteOffset":492096,"target":34963},{"buffer":0,"byteOffset":522852,"byteLength":78224},{"buffer":0,"byteOffset":601076,"byteLength":24130},{"buffer":0,"byteOffset":625206,"byteLength":1468}],"images":[{"name":"pm0065_00_Body1","mimeType":"image/png","bufferView":4},{"name":"pm0065_00_Eye1","mimeType":"image/png","bufferView":5},{"name":"pm0065_00_Iris1","mimeType":"image/png","bufferView":6}],"materials":[{"name":"Material__91","pbrMetallicRoughness":{"baseColorTexture":{"index":0},"baseColorFactor":[1,1,1,1],"metallicFactor":0,"roughnessFactor":0.998},"emissiveFactor":[0,0,0],"alphaMode":"OPAQUE","doubleSided":false},{"name":"Material__92","pbrMetallicRoughness":{"baseColorTexture":{"index":1},"baseColorFactor":[1,1,1,1],"metallicFactor":0,"roughnessFactor":0.998},"emissiveFactor":[0,0,0],"alphaMode":"OPAQUE","doubleSided":false},{"name":"Material__93","pbrMetallicRoughness":{"baseColorTexture":{"index":2},"baseColorFactor":[1,1,1,1],"metallicFactor":0,"roughnessFactor":0.998},"emissiveFactor":[0,0,0],"alphaMode":"OPAQUE","doubleSided":false}],"meshes":[{"name":"AlakazamF_1","primitives":[{"attributes":{"POSITION":0,"NORMAL":1,"TEXCOORD_0":2},"indices":3,"material":0,"mode":4},{"attributes":{"POSITION":4,"NORMAL":5,"TEXCOORD_0":6},"indices":7,"material":1,"mode":4},{"attributes":{"POSITION":8,"NORMAL":9,"TEXCOORD_0":10},"indices":11,"material":2,"mode":4}]}],"nodes":[{"name":"AlakazamF","mesh":0}],"samplers":[{"wrapS":10497,"wrapT":10497}],"scene":0,"scenes":[{"nodes":[0]}],"textures":[{"name":"pm0065_00_Body1","sampler":0,"source":0},{"name":"pm0065_00_Eye1","sampler":0,"source":1},{"name":"pm0065_00_Iris1","sampler":0,"source":2}]}