{"accessors":[{"name":"Machop_1_0_positions","componentType":5126,"count":480,"min":[-11.400629997253418,55.32997131347656,9.005586624145508],"max":[11.4005708694458,67.4769287109375,19.059595108032227],"type":"VEC3","bufferView":0,"byteOffset":0},{"name":"Machop_1_0_normals","componentType":5126,"count":480,"min":[0.20812496542930603,0.03956501930952072,0.3299071490764618],"max":[0.9406346082687378,0.5410247445106506,0.9426298141479492],"type":"VEC3","bufferView":1,"byteOffset":0},{"name":"Machop_1_0_texcoords","componentType":5126,"count":480,"min":[0.012060999870300293,-0.9905499815940857],"max":[0.4879400134086609,-0.7748900055885315],"type":"VEC2","bufferView":2,"byteOffset":0},{"name":"Machop_1_0_indices","componentType":5123,"count":480,"min":[0],"max":[479],"type":"SCALAR","bufferView":3,"byteOffset":0},{"name":"Machop_1_1_positions","componentType":5126,"count":13302,"min":[-52.789703369140625,0.27590200304985046,-26.525598526000977],"max":[52.78970718383789,79.18240356445312,20.030302047729492],"type":"VEC3","bufferView":0,"byteOffset":5760},{"name":"Machop_1_1_normals","componentType":5126,"count":13302,"min":[-0.9839016199111938,-0.9999368786811829,-0.9998685717582703],"max":[0.9839016199111938,0.9983011484146118,0.9996424913406372],"type":"VEC3","bufferView":1,"byteOffset":5760},{"name":"Machop_1_1_texcoords","componentType":5126,"count":13302,"min":[0,0.0078119998797774315],"max":[1,0.9924179911613464],"type":"VEC2","bufferView":2,"byteOffset":3840},{"name":"Machop_1_1_indices","componentType":5123,"count":13302,"min":[0],"max":[13301],"type":"SCALAR","bufferView":3,"byteOffset":960},{"name":"Machop_1_2_positions","componentType":5126,"count":480,"min":[-11.571330070495605,55.4527702331543,9.079848289489746],"max":[11.571269989013672,67.57122802734375,19.185094833374023],"type":"VEC3","bufferView":0,"byteOffset":165384},{"name":"Machop_1_2_normals","componentType":5126,"count":480,"min":[-0.28624895215034485,-0.8797414302825928,-0.979241132736206],"max":[0.1028759777545929,0.9983012676239014,0.9897151589393616],"type":"VEC3","bufferView":1,"byteOffset":165384},{"name":"Machop_1_2_texcoords","componentType":5126,"count":480,"min":[0.048239998519420624,-1.9622000455856323],"max":[0.9517599940299988,-1.099560022354126],"type":"VEC2","bufferView":2,"byteOffset":110256},{"name":"Machop_1_2_indices","componentType":5123,"count":480,"min":[0],"max":[479],"type":"SCALAR","bufferView":3,"byteOffset":27564}],"asset":{"generator":"obj2gltf","version":"2.0"},"buffers":[{"name":"XY_Machop","byteLength":574108,"uri":"data:application/octet-stream;base64,"}],"bufferViews":[{"name":"bufferView_0","buffer":0,"byteLength":171144,"byteOffset":0,"byteStride":12,"target":34962},{"name":"bufferView_1","buffer":0,"byteLength":171144,"byteOffset":171144,"byteStride":12,"target":34962},{"name":"bufferView_2","buffer":0,"byteLength":114096,"byteOffset":342288,"byteStride":8,"target":34962},{"name":"bufferView_3","buffer":0,"byteLength":28524,"byteOffset":456384,"target":34963},{"buffer":0,"byteOffset":484908,"byteLength":31063},{"buffer":0,"byteOffset":515971,"byteLength":54334},{"buffer":0,"byteOffset":570305,"byteLength":3800}],"images":[{"name":"pm0066_00_Eye1","mimeType":"image/png","bufferView":4},{"name":"pm0066_00_Body1","mimeType":"image/png","bufferView":5},{"name":"pm0066_00_Iris1","mimeType":"image/png","bufferView":6}],"materials":[{"name":"Material__76","pbrMetallicRoughness":{"baseColorTexture":{"index":0},"baseColorFactor":[1,1,1,1],"metallicFactor":0,"roughnessFactor":0.998},"emissiveFactor":[0,0,0],"alphaMode":"OPAQUE","doubleSided":false},{"name":"Material__77","pbrMetallicRoughness":{"baseColorTexture":{"index":1},"baseColorFactor":[1,1,1,1],"metallicFactor":0,"roughnessFactor":0.998},"emissiveFactor":[0,0,0],"alphaMode":"OPAQUE","doubleSided":false},{"name":"Material__78","pbrMetallicRoughness":{"baseColorTexture":{"index":2},"baseColorFactor":[1,1,1,1],"metallicFactor":0,"roughnessFactor":0.998},"emissiveFactor":[0,0,0],"alphaMode":"OPAQUE","doubleSided":false}],"meshes":[{"name":"Machop_1","primitives":[{"attributes":{"POSITION":0,"NORMAL":1,"TEXCOORD_0":2},"indices":3,"material":0,"mode":4},{"attributes":{"POSITION":4,"NORMAL":5,"TEXCOORD_0":6},"indices":7,"material":1,"mode":4},{"attributes":{"POSITION":8,"NORMAL":9,"TEXCOORD_0":10},"indices":11,"material":2,"mode":4}]}],"nodes":[{"name":"Machop","mesh":0}],"samplers":[{"wrapS":10497,"wrapT":10497}],"scene":0,"scenes":[{"nodes":[0]}],"textures":[{"name":"pm0066_00_Eye1","sampler":0,"source":0},{"name":"pm0066_00_Body1","sampler":0,"source":1},{"name":"pm0066_00_Iris1","sampler":0,"source":2}]}