{"accessors":[{"name":"wanriky-Mesh_0_positions","componentType":5126,"count":18,"min":[-1.2445679903030396,0.7833619713783264,-7.050790786743164],"max":[1.2445679903030396,1.78187096118927,-5.801018238067627],"type":"VEC3","bufferView":0,"byteOffset":0},{"name":"wanriky-Mesh_0_texcoords","componentType":5126,"count":18,"min":[0.00406799977645278,0.026000000536441803],"max":[0.9870759844779968,0.19499999284744263],"type":"VEC2","bufferView":1,"byteOffset":0},{"name":"wanriky-Mesh_0_indices","componentType":5123,"count":48,"min":[0],"max":[17],"type":"SCALAR","bufferView":2,"byteOffset":0},{"name":"wanriky-Mesh_1_positions","componentType":5126,"count":799,"min":[-5.585649013519287,-3.1791090965270996,-8.073603630065918],"max":[5.585649013519287,2.2119269371032715,0.0800430029630661],"type":"VEC3","bufferView":0,"byteOffset":216},{"name":"wanriky-Mesh_1_texcoords","componentType":5126,"count":799,"min":[0.003217000048607588,0.004075999837368727],"max":[0.9966390132904053,0.9971150159835815],"type":"VEC2","bufferView":1,"byteOffset":144},{"name":"wanriky-Mesh_1_indices","componentType":5123,"count":3024,"min":[0],"max":[798],"type":"SCALAR","bufferView":2,"byteOffset":96}],"asset":{"generator":"obj2gltf","version":"2.0"},"buffers":[{"name":"BR_Machop-Shiny01","byteLength":1398776,"uri":"data:application/octet-stream;base64,"}],"bufferViews":[{"name":"bufferView_0","buffer":0,"byteLength":9804,"byteOffset":0,"byteStride":12,"target":34962},{"name":"bufferView_1","buffer":0,"byteLength":6536,"byteOffset":9804,"byteStride":8,"target":34962},{"name":"bufferView_2","buffer":0,"byteLength":6144,"byteOffset":16340,"target":34963},{"buffer":0,"byteOffset":22484,"byteLength":327698},{"buffer":0,"byteOffset":350182,"byteLength":1048594}],"images":[{"name":"wanriky_1_0","mimeType":"image/x-tga","bufferView":3},{"name":"wanriky_1_1","mimeType":"image/x-tga","bufferView":4}],"materials":[{"name":"mat_0","pbrMetallicRoughness":{"baseColorTexture":{"index":0},"baseColorFactor":[1,1,1,1],"metallicFactor":0,"roughnessFactor":0.903921569},"emissiveFactor":[0,0,0],"alphaMode":"BLEND","doubleSided":true},{"name":"mat_1","pbrMetallicRoughness":{"baseColorTexture":{"index":1},"baseColorFactor":[1,1,1,1],"metallicFactor":0,"roughnessFactor":0.903921569},"emissiveFactor":[0,0,0],"alphaMode":"BLEND","doubleSided":true}],"meshes":[{"name":"wanriky-Mesh","primitives":[{"attributes":{"POSITION":0,"TEXCOORD_0":1},"indices":2,"material":0,"mode":4},{"attributes":{"POSITION":3,"TEXCOORD_0":4},"indices":5,"material":1,"mode":4}]}],"nodes":[{"name":"wanriky","mesh":0}],"samplers":[{"wrapS":10497,"wrapT":10497}],"scene":0,"scenes":[{"nodes":[0]}],"textures":[{"name":"wanriky_1_0","sampler":0,"source":0},{"name":"wanriky_1_1","sampler":0,"source":1}]}