{"accessors":[{"name":"Machoke_1_0_positions","componentType":5126,"count":16602,"min":[-118.89501190185547,-0.00003199999991920777,-27.818002700805664],"max":[118.8949966430664,150.406982421875,31.13520050048828],"type":"VEC3","bufferView":0,"byteOffset":0},{"name":"Machoke_1_0_normals","componentType":5126,"count":16602,"min":[-0.9370109438896179,-0.9999661445617676,-0.9999158978462219],"max":[0.9609878063201904,0.9936256408691406,0.9994804859161377],"type":"VEC3","bufferView":1,"byteOffset":0},{"name":"Machoke_1_0_texcoords","componentType":5126,"count":16602,"min":[0,0.0078119998797774315],"max":[1,0.9910690188407898],"type":"VEC2","bufferView":2,"byteOffset":0},{"name":"Machoke_1_0_indices","componentType":5123,"count":16602,"min":[0],"max":[16601],"type":"SCALAR","bufferView":3,"byteOffset":0},{"name":"Machoke_1_1_positions","componentType":5126,"count":264,"min":[-13.457200050354004,130.79998779296875,8.547576904296875],"max":[13.457200050354004,138.052978515625,21.5552978515625],"type":"VEC3","bufferView":0,"byteOffset":199224},{"name":"Machoke_1_1_normals","componentType":5126,"count":264,"min":[-0.22044605016708374,-0.9532123804092407,-0.9950605630874634],"max":[0.9609878063201904,0.7458507418632507,0.17608505487442017],"type":"VEC3","bufferView":1,"byteOffset":199224},{"name":"Machoke_1_1_texcoords","componentType":5126,"count":264,"min":[0.004645999986678362,-0.9571200013160706],"max":[0.4953500032424927,-0.7716299891471863],"type":"VEC2","bufferView":2,"byteOffset":132816},{"name":"Machoke_1_1_indices","componentType":5123,"count":264,"min":[0],"max":[263],"type":"SCALAR","bufferView":3,"byteOffset":33204}],"asset":{"generator":"obj2gltf","version":"2.0"},"buffers":[{"name":"XY_Machoke","byteLength":693316,"uri":"data:application/octet-stream;base64,"}],"bufferViews":[{"name":"bufferView_0","buffer":0,"byteLength":202392,"byteOffset":0,"byteStride":12,"target":34962},{"name":"bufferView_1","buffer":0,"byteLength":202392,"byteOffset":202392,"byteStride":12,"target":34962},{"name":"bufferView_2","buffer":0,"byteLength":134928,"byteOffset":404784,"byteStride":8,"target":34962},{"name":"bufferView_3","buffer":0,"byteLength":33732,"byteOffset":539712,"target":34963},{"buffer":0,"byteOffset":573444,"byteLength":84812},{"buffer":0,"byteOffset":658256,"byteLength":35058}],"images":[{"name":"pm0067_00_Body1","mimeType":"image/png","bufferView":4},{"name":"pm0067_00_Eye1","mimeType":"image/png","bufferView":5}],"materials":[{"name":"Material__89","pbrMetallicRoughness":{"baseColorTexture":{"index":0},"baseColorFactor":[1,1,1,1],"metallicFactor":0,"roughnessFactor":0.998},"emissiveFactor":[0,0,0],"alphaMode":"OPAQUE","doubleSided":false},{"name":"Material__90","pbrMetallicRoughness":{"baseColorTexture":{"index":1},"baseColorFactor":[1,1,1,1],"metallicFactor":0,"roughnessFactor":0.998},"emissiveFactor":[0,0,0],"alphaMode":"OPAQUE","doubleSided":false}],"meshes":[{"name":"Machoke_1","primitives":[{"attributes":{"POSITION":0,"NORMAL":1,"TEXCOORD_0":2},"indices":3,"material":0,"mode":4},{"attributes":{"POSITION":4,"NORMAL":5,"TEXCOORD_0":6},"indices":7,"material":1,"mode":4}]}],"nodes":[{"name":"Machoke","mesh":0}],"samplers":[{"wrapS":10497,"wrapT":10497}],"scene":0,"scenes":[{"nodes":[0]}],"textures":[{"name":"pm0067_00_Body1","sampler":0,"source":0},{"name":"pm0067_00_Eye1","sampler":0,"source":1}]}