{"accessors":[{"name":"goriky-Mesh_0_positions","componentType":5126,"count":1439,"min":[-7.006939888000488,-2.3937408924102783,-13.311558723449707],"max":[7.006939888000488,5.353759765625,1.4125030040740967],"type":"VEC3","bufferView":0,"byteOffset":0},{"name":"goriky-Mesh_0_texcoords","componentType":5126,"count":1439,"min":[0.0014570000348612666,0.0011470000026747584],"max":[0.9943119883537292,0.991096019744873],"type":"VEC2","bufferView":1,"byteOffset":0},{"name":"goriky-Mesh_0_indices","componentType":5123,"count":5886,"min":[0],"max":[1438],"type":"SCALAR","bufferView":2,"byteOffset":0},{"name":"goriky-Mesh_1_positions","componentType":5126,"count":16,"min":[-1.4051580429077148,3.1736910343170166,-11.993682861328125],"max":[1.4051580429077148,4.346850872039795,-10.93913459777832],"type":"VEC3","bufferView":0,"byteOffset":17268},{"name":"goriky-Mesh_1_texcoords","componentType":5126,"count":16,"min":[0.019632000476121902,0.06346700340509415],"max":[0.9241650104522705,0.25426599383354187],"type":"VEC2","bufferView":1,"byteOffset":11512},{"name":"goriky-Mesh_1_indices","componentType":5123,"count":42,"min":[0],"max":[15],"type":"SCALAR","bufferView":2,"byteOffset":11772}],"asset":{"generator":"obj2gltf","version":"2.0"},"buffers":[{"name":"BR_Machoke-Shiny01","byteLength":1351712,"uri":"data:application/octet-stream;base64,"}],"bufferViews":[{"name":"bufferView_0","buffer":0,"byteLength":17460,"byteOffset":0,"byteStride":12,"target":34962},{"name":"bufferView_1","buffer":0,"byteLength":11640,"byteOffset":17460,"byteStride":8,"target":34962},{"name":"bufferView_2","buffer":0,"byteLength":11856,"byteOffset":29100,"target":34963},{"buffer":0,"byteOffset":40956,"byteLength":1048594},{"buffer":0,"byteOffset":1089550,"byteLength":262162}],"images":[{"name":"goriky_1_0","mimeType":"image/x-tga","bufferView":3},{"name":"goriky_1_1","mimeType":"image/x-tga","bufferView":4}],"materials":[{"name":"mat_0","pbrMetallicRoughness":{"baseColorTexture":{"index":0},"baseColorFactor":[1,1,1,1],"metallicFactor":0,"roughnessFactor":0.903921569},"emissiveFactor":[0,0,0],"alphaMode":"BLEND","doubleSided":true},{"name":"mat_1","pbrMetallicRoughness":{"baseColorTexture":{"index":1},"baseColorFactor":[1,1,1,1],"metallicFactor":0,"roughnessFactor":0.903921569},"emissiveFactor":[0,0,0],"alphaMode":"BLEND","doubleSided":true}],"meshes":[{"name":"goriky-Mesh","primitives":[{"attributes":{"POSITION":0,"TEXCOORD_0":1},"indices":2,"material":0,"mode":4},{"attributes":{"POSITION":3,"TEXCOORD_0":4},"indices":5,"material":1,"mode":4}]}],"nodes":[{"name":"goriky","mesh":0}],"samplers":[{"wrapS":10497,"wrapT":10497}],"scene":0,"scenes":[{"nodes":[0]}],"textures":[{"name":"goriky_1_0","sampler":0,"source":0},{"name":"goriky_1_1","sampler":0,"source":1}]}