{"accessors":[{"name":"polygon0_1_0_positions","componentType":5126,"count":12,"min":[-1.23260498046875,13.661178588867188,2.139549970626831],"max":[1.23260498046875,14.601552963256836,3.2315480709075928],"type":"VEC3","bufferView":0,"byteOffset":0},{"name":"polygon0_1_0_normals","componentType":5126,"count":12,"min":[-0.8831261396408081,0.23858903348445892,0.29266297817230225],"max":[0.8831261396408081,0.663145899772644,0.7345420718193054],"type":"VEC3","bufferView":1,"byteOffset":0},{"name":"polygon0_1_0_texcoords","componentType":5126,"count":12,"min":[-0.9705809950828552,0.021239999681711197],"max":[-0.5050050020217896,0.22473099827766418],"type":"VEC2","bufferView":2,"byteOffset":0},{"name":"polygon0_1_0_indices","componentType":5123,"count":24,"min":[0],"max":[11],"type":"SCALAR","bufferView":3,"byteOffset":0},{"name":"polygon1_1_0_positions","componentType":5126,"count":1167,"min":[-11.258404731750488,-9.999999974752427e-7,-2.710063934326172],"max":[11.258404731750488,15.709489822387695,3.762381076812744],"type":"VEC3","bufferView":0,"byteOffset":144},{"name":"polygon1_1_0_normals","componentType":5126,"count":1167,"min":[-1,-0.9996326565742493,-0.9971364736557007],"max":[1,0.9998508095741272,0.9981567859649658],"type":"VEC3","bufferView":1,"byteOffset":144},{"name":"polygon1_1_0_texcoords","componentType":5126,"count":1167,"min":[0.0050050001591444016,0.004211000166833401],"max":[0.9960330128669739,0.9971619844436646],"type":"VEC2","bufferView":2,"byteOffset":96},{"name":"polygon1_1_0_indices","componentType":5123,"count":4824,"min":[0],"max":[1166],"type":"SCALAR","bufferView":3,"byteOffset":48}],"asset":{"generator":"obj2gltf","version":"2.0"},"buffers":[{"name":"Machamp","byteLength":342372,"uri":"data:application/octet-stream;base64,"}],"bufferViews":[{"name":"bufferView_0","buffer":0,"byteLength":14148,"byteOffset":0,"byteStride":12,"target":34962},{"name":"bufferView_1","buffer":0,"byteLength":14148,"byteOffset":14148,"byteStride":12,"target":34962},{"name":"bufferView_2","buffer":0,"byteLength":9432,"byteOffset":28296,"byteStride":8,"target":34962},{"name":"bufferView_3","buffer":0,"byteLength":9696,"byteOffset":37728,"target":34963},{"buffer":0,"byteOffset":47424,"byteLength":98322},{"buffer":0,"byteOffset":145746,"byteLength":196626}],"images":[{"name":"KairikyEyeDh","mimeType":"image/x-tga","bufferView":4},{"name":"KairikyDh","mimeType":"image/x-tga","bufferView":5}],"materials":[{"name":"mat2","pbrMetallicRoughness":{"baseColorTexture":{"index":0},"baseColorFactor":[1,1,1,1],"metallicFactor":0,"roughnessFactor":0.99},"emissiveFactor":[0,0,0],"alphaMode":"OPAQUE","doubleSided":false},{"name":"mat1","pbrMetallicRoughness":{"baseColorTexture":{"index":1},"baseColorFactor":[1,1,1,1],"metallicFactor":0,"roughnessFactor":0.99},"emissiveFactor":[0,0,0],"alphaMode":"OPAQUE","doubleSided":false}],"meshes":[{"name":"polygon0_1","primitives":[{"attributes":{"POSITION":0,"NORMAL":1,"TEXCOORD_0":2},"indices":3,"material":0,"mode":4}]},{"name":"polygon1_1","primitives":[{"attributes":{"POSITION":4,"NORMAL":5,"TEXCOORD_0":6},"indices":7,"material":1,"mode":4}]}],"nodes":[{"name":"polygon0","mesh":0},{"name":"polygon1","mesh":1}],"samplers":[{"wrapS":10497,"wrapT":10497}],"scene":0,"scenes":[{"nodes":[0,1]}],"textures":[{"name":"KairikyEyeDh","sampler":0,"source":0},{"name":"KairikyDh","sampler":0,"source":1}]}