{"accessors":[{"name":"Machamp_1_0_positions","componentType":5126,"count":9354,"min":[-40.02629852294922,-0.29690200090408325,-29.237699508666992],"max":[40.02629852294922,156.9960174560547,37.59870910644531],"type":"VEC3","bufferView":0,"byteOffset":0},{"name":"Machamp_1_0_normals","componentType":5126,"count":9354,"min":[-0.9981814622879028,-0.998171329498291,-0.9930940270423889],"max":[0.9981743693351746,0.9999771118164062,0.9401781558990479],"type":"VEC3","bufferView":1,"byteOffset":0},{"name":"Machamp_1_0_texcoords","componentType":5126,"count":9354,"min":[0,0.006173000205308199],"max":[1,0.9934769868850708],"type":"VEC2","bufferView":2,"byteOffset":0},{"name":"Machamp_1_0_indices","componentType":5123,"count":9354,"min":[0],"max":[9353],"type":"SCALAR","bufferView":3,"byteOffset":0},{"name":"Machamp_1_1_positions","componentType":5126,"count":8892,"min":[-117.74800872802734,95.28900146484375,-29.48379898071289],"max":[117.74800109863281,140.61900329589844,27.575700759887695],"type":"VEC3","bufferView":0,"byteOffset":112248},{"name":"Machamp_1_1_normals","componentType":5126,"count":8892,"min":[-0.9981814622879028,-0.998171329498291,-0.8881860971450806],"max":[0.8348098993301392,0.9999771118164062,0.9998692870140076],"type":"VEC3","bufferView":1,"byteOffset":112248},{"name":"Machamp_1_1_texcoords","componentType":5126,"count":8892,"min":[0.005630000028759241,-0.9928299784660339],"max":[0.9943699836730957,-0.010590000078082085],"type":"VEC2","bufferView":2,"byteOffset":74832},{"name":"Machamp_1_1_indices","componentType":5123,"count":8892,"min":[0],"max":[8891],"type":"SCALAR","bufferView":3,"byteOffset":18708},{"name":"Machamp_1_2_positions","componentType":5126,"count":276,"min":[-12.326000213623047,136.29901123046875,20.238693237304688],"max":[12.326000213623047,148.75302124023438,33.762603759765625],"type":"VEC3","bufferView":0,"byteOffset":218952},{"name":"Machamp_1_2_normals","componentType":5126,"count":276,"min":[-0.3166898488998413,-0.966029167175293,-0.7026078701019287],"max":[0.9095664620399475,0.9960259795188904,0.9188022017478943],"type":"VEC3","bufferView":1,"byteOffset":218952},{"name":"Machamp_1_2_texcoords","componentType":5126,"count":276,"min":[0.005807999987155199,-1.981719970703125],"max":[0.4941900074481964,-1.7790100574493408],"type":"VEC2","bufferView":2,"byteOffset":145968},{"name":"Machamp_1_2_indices","componentType":5123,"count":276,"min":[0],"max":[275],"type":"SCALAR","bufferView":3,"byteOffset":36492}],"asset":{"generator":"obj2gltf","version":"2.0"},"buffers":[{"name":"XY_Machamp","byteLength":797128,"uri":"data:application/octet-stream;base64,"}],"bufferViews":[{"name":"bufferView_0","buffer":0,"byteLength":222264,"byteOffset":0,"byteStride":12,"target":34962},{"name":"bufferView_1","buffer":0,"byteLength":222264,"byteOffset":222264,"byteStride":12,"target":34962},{"name":"bufferView_2","buffer":0,"byteLength":148176,"byteOffset":444528,"byteStride":8,"target":34962},{"name":"bufferView_3","buffer":0,"byteLength":37044,"byteOffset":592704,"target":34963},{"buffer":0,"byteOffset":629748,"byteLength":86063},{"buffer":0,"byteOffset":715811,"byteLength":48595},{"buffer":0,"byteOffset":764406,"byteLength":32722}],"images":[{"name":"pm0068_00_BodyA1","mimeType":"image/png","bufferView":4},{"name":"pm0068_00_BodyB1","mimeType":"image/png","bufferView":5},{"name":"pm0068_00_Eye1","mimeType":"image/png","bufferView":6}],"materials":[{"name":"Material__101","pbrMetallicRoughness":{"baseColorTexture":{"index":0},"baseColorFactor":[1,1,1,1],"metallicFactor":0,"roughnessFactor":0.998},"emissiveFactor":[0,0,0],"alphaMode":"OPAQUE","doubleSided":false},{"name":"Material__102","pbrMetallicRoughness":{"baseColorTexture":{"index":1},"baseColorFactor":[1,1,1,1],"metallicFactor":0,"roughnessFactor":0.998},"emissiveFactor":[0,0,0],"alphaMode":"OPAQUE","doubleSided":false},{"name":"Material__103","pbrMetallicRoughness":{"baseColorTexture":{"index":2},"baseColorFactor":[1,1,1,1],"metallicFactor":0,"roughnessFactor":0.998},"emissiveFactor":[0,0,0],"alphaMode":"OPAQUE","doubleSided":false}],"meshes":[{"name":"Machamp_1","primitives":[{"attributes":{"POSITION":0,"NORMAL":1,"TEXCOORD_0":2},"indices":3,"material":0,"mode":4},{"attributes":{"POSITION":4,"NORMAL":5,"TEXCOORD_0":6},"indices":7,"material":1,"mode":4},{"attributes":{"POSITION":8,"NORMAL":9,"TEXCOORD_0":10},"indices":11,"material":2,"mode":4}]}],"nodes":[{"name":"Machamp","mesh":0}],"samplers":[{"wrapS":10497,"wrapT":10497}],"scene":0,"scenes":[{"nodes":[0]}],"textures":[{"name":"pm0068_00_BodyA1","sampler":0,"source":0},{"name":"pm0068_00_BodyB1","sampler":0,"source":1},{"name":"pm0068_00_Eye1","sampler":0,"source":2}]}