{"accessors":[{"name":"madatsubomi-Mesh_0_positions","componentType":5126,"count":255,"min":[-1.1918400526046753,-1.2074400186538696,-5.327829837799072],"max":[1.1906800270080566,-0.38033899664878845,-0.08356700092554092],"type":"VEC3","bufferView":0,"byteOffset":0},{"name":"madatsubomi-Mesh_0_texcoords","componentType":5126,"count":255,"min":[0,0],"max":[1,1],"type":"VEC2","bufferView":1,"byteOffset":0},{"name":"madatsubomi-Mesh_0_indices","componentType":5123,"count":777,"min":[0],"max":[254],"type":"SCALAR","bufferView":2,"byteOffset":0},{"name":"madatsubomi-Mesh_1_positions","componentType":5126,"count":64,"min":[-0.7654719948768616,-1.1138099431991577,-6.612199783325195],"max":[0.6412490010261536,0.7473189830780029,-4.752620220184326],"type":"VEC3","bufferView":0,"byteOffset":3060},{"name":"madatsubomi-Mesh_1_texcoords","componentType":5126,"count":64,"min":[0,0],"max":[1,1],"type":"VEC2","bufferView":1,"byteOffset":2040},{"name":"madatsubomi-Mesh_1_indices","componentType":5123,"count":252,"min":[0],"max":[63],"type":"SCALAR","bufferView":2,"byteOffset":1556},{"name":"madatsubomi-Mesh_2_positions","componentType":5126,"count":11,"min":[-0.7509040236473083,-0.3406299948692322,-6.126910209655762],"max":[0.625128984451294,0.2273859977722168,-5.454170227050781],"type":"VEC3","bufferView":0,"byteOffset":3828},{"name":"madatsubomi-Mesh_2_texcoords","componentType":5126,"count":11,"min":[-1.9385499954223633,0.03119399957358837],"max":[1.0661300420761108,0.2491620033979416],"type":"VEC2","bufferView":1,"byteOffset":2552},{"name":"madatsubomi-Mesh_2_indices","componentType":5123,"count":36,"min":[0],"max":[10],"type":"SCALAR","bufferView":2,"byteOffset":2060},{"name":"madatsubomi-Mesh_3_positions","componentType":5126,"count":4,"min":[-0.10416799783706665,-1.0141700506210327,-5.7677202224731445],"max":[-0.017020000144839287,-0.32616400718688965,-5.256649971008301],"type":"VEC3","bufferView":0,"byteOffset":3960},{"name":"madatsubomi-Mesh_3_texcoords","componentType":5126,"count":4,"min":[0.46902400255203247,0.4685879945755005],"max":[0.5309759974479675,1],"type":"VEC2","bufferView":1,"byteOffset":2640},{"name":"madatsubomi-Mesh_3_indices","componentType":5123,"count":9,"min":[0],"max":[3],"type":"SCALAR","bufferView":2,"byteOffset":2132},{"name":"madatsubomi-Mesh_4_positions","componentType":5126,"count":24,"min":[-0.5306450128555298,0.22571299970149994,-5.153059959411621],"max":[0.3985289931297302,1.0056500434875488,-4.4659600257873535],"type":"VEC3","bufferView":0,"byteOffset":4008},{"name":"madatsubomi-Mesh_4_texcoords","componentType":5126,"count":24,"min":[0,0],"max":[1,1],"type":"VEC2","bufferView":1,"byteOffset":2672},{"name":"madatsubomi-Mesh_4_indices","componentType":5123,"count":114,"min":[0],"max":[23],"type":"SCALAR","bufferView":2,"byteOffset":2152},{"name":"madatsubomi-Mesh_5_positions","componentType":5126,"count":17,"min":[-0.4241830110549927,0.4593830108642578,-4.911799907684326],"max":[0.2910560071468353,1.0091500282287598,-4.432529926300049],"type":"VEC3","bufferView":0,"byteOffset":4296},{"name":"madatsubomi-Mesh_5_texcoords","componentType":5126,"count":17,"min":[-0.05980600044131279,-0.05981000140309334],"max":[1.0598100423812866,1.059805989265442],"type":"VEC2","bufferView":1,"byteOffset":2864},{"name":"madatsubomi-Mesh_5_indices","componentType":5123,"count":72,"min":[0],"max":[16],"type":"SCALAR","bufferView":2,"byteOffset":2380},{"name":"madatsubomi-Mesh_6_positions","componentType":5126,"count":16,"min":[-0.5226050019264221,0.3041749894618988,-5.045310020446777],"max":[0.39000698924064636,1.0091500282287598,-4.432529926300049],"type":"VEC3","bufferView":0,"byteOffset":4500},{"name":"madatsubomi-Mesh_6_texcoords","componentType":5126,"count":16,"min":[0,0],"max":[1,1],"type":"VEC2","bufferView":1,"byteOffset":3000},{"name":"madatsubomi-Mesh_6_indices","componentType":5123,"count":48,"min":[0],"max":[15],"type":"SCALAR","bufferView":2,"byteOffset":2524},{"name":"madatsubomi-Mesh_7_positions","componentType":5126,"count":161,"min":[-2.5303900241851807,-1.154919981956482,-3.691809892654419],"max":[2.6859099864959717,-0.07481899857521057,-2.6174099445343018],"type":"VEC3","bufferView":0,"byteOffset":4692},{"name":"madatsubomi-Mesh_7_texcoords","componentType":5126,"count":161,"min":[0,0],"max":[1.001039981842041,1],"type":"VEC2","bufferView":1,"byteOffset":3128},{"name":"madatsubomi-Mesh_7_indices","componentType":5123,"count":360,"min":[0],"max":[160],"type":"SCALAR","bufferView":2,"byteOffset":2620}],"asset":{"generator":"obj2gltf","version":"2.0"},"buffers":[{"name":"BR_Bellsprout-Shiny01","byteLength":71896,"uri":"data:application/octet-stream;base64,"}],"bufferViews":[{"name":"bufferView_0","buffer":0,"byteLength":6624,"byteOffset":0,"byteStride":12,"target":34962},{"name":"bufferView_1","buffer":0,"byteLength":4416,"byteOffset":6624,"byteStride":8,"target":34962},{"name":"bufferView_2","buffer":0,"byteLength":3340,"byteOffset":11040,"target":34963},{"buffer":0,"byteOffset":14380,"byteLength":4114},{"buffer":0,"byteOffset":18494,"byteLength":82},{"buffer":0,"byteOffset":18576,"byteLength":40978},{"buffer":0,"byteOffset":59554,"byteLength":4114},{"buffer":0,"byteOffset":63668,"byteLength":4114},{"buffer":0,"byteOffset":67782,"byteLength":4114}],"images":[{"name":"madatsubomi_1_0","mimeType":"image/x-tga","bufferView":3},{"name":"madatsubomi_1_1","mimeType":"image/x-tga","bufferView":4},{"name":"madatsubomi_1_2","mimeType":"image/x-tga","bufferView":5},{"name":"madatsubomi_1_4","mimeType":"image/x-tga","bufferView":6},{"name":"madatsubomi_1_5","mimeType":"image/x-tga","bufferView":7},{"name":"madatsubomi_1_7","mimeType":"image/x-tga","bufferView":8}],"materials":[{"name":"mat_0","pbrMetallicRoughness":{"baseColorTexture":{"index":0},"baseColorFactor":[1,1,1,1],"metallicFactor":0,"roughnessFactor":0.903921569},"emissiveFactor":[0,0,0],"alphaMode":"BLEND","doubleSided":true},{"name":"mat_1","pbrMetallicRoughness":{"baseColorTexture":{"index":1},"baseColorFactor":[1,1,1,1],"metallicFactor":0,"roughnessFactor":0.903921569},"emissiveFactor":[0,0,0],"alphaMode":"BLEND","doubleSided":true},{"name":"mat_2","pbrMetallicRoughness":{"baseColorTexture":{"index":2},"baseColorFactor":[1,1,1,1],"metallicFactor":0,"roughnessFactor":0.903921569},"emissiveFactor":[0,0,0],"alphaMode":"BLEND","doubleSided":true},{"name":"mat_3","pbrMetallicRoughness":{"baseColorTexture":{"index":0},"baseColorFactor":[1,1,1,1],"metallicFactor":0,"roughnessFactor":0.903921569},"emissiveFactor":[0,0,0],"alphaMode":"BLEND","doubleSided":true},{"name":"mat_4","pbrMetallicRoughness":{"baseColorTexture":{"index":3},"baseColorFactor":[1,1,1,1],"metallicFactor":0,"roughnessFactor":0.903921569},"emissiveFactor":[0,0,0],"alphaMode":"BLEND","doubleSided":true},{"name":"mat_5","pbrMetallicRoughness":{"baseColorTexture":{"index":4},"baseColorFactor":[1,1,1,1],"metallicFactor":0,"roughnessFactor":0.903921569},"emissiveFactor":[0,0,0],"alphaMode":"BLEND","doubleSided":true},{"name":"mat_6","pbrMetallicRoughness":{"baseColorTexture":{"index":3},"baseColorFactor":[1,1,1,1],"metallicFactor":0,"roughnessFactor":0.903921569},"emissiveFactor":[0,0,0],"alphaMode":"BLEND","doubleSided":true},{"name":"mat_7","pbrMetallicRoughness":{"baseColorTexture":{"index":5},"baseColorFactor":[1,1,1,1],"metallicFactor":0,"roughnessFactor":0.903921569},"emissiveFactor":[0,0,0],"alphaMode":"BLEND","doubleSided":true}],"meshes":[{"name":"madatsubomi-Mesh","primitives":[{"attributes":{"POSITION":0,"TEXCOORD_0":1},"indices":2,"material":0,"mode":4},{"attributes":{"POSITION":3,"TEXCOORD_0":4},"indices":5,"material":1,"mode":4},{"attributes":{"POSITION":6,"TEXCOORD_0":7},"indices":8,"material":2,"mode":4},{"attributes":{"POSITION":9,"TEXCOORD_0":10},"indices":11,"material":3,"mode":4},{"attributes":{"POSITION":12,"TEXCOORD_0":13},"indices":14,"material":4,"mode":4},{"attributes":{"POSITION":15,"TEXCOORD_0":16},"indices":17,"material":5,"mode":4},{"attributes":{"POSITION":18,"TEXCOORD_0":19},"indices":20,"material":6,"mode":4},{"attributes":{"POSITION":21,"TEXCOORD_0":22},"indices":23,"material":7,"mode":4}]}],"nodes":[{"name":"madatsubomi","mesh":0}],"samplers":[{"wrapS":10497,"wrapT":10497}],"scene":0,"scenes":[{"nodes":[0]}],"textures":[{"name":"madatsubomi_1_0","sampler":0,"source":0},{"name":"madatsubomi_1_1","sampler":0,"source":1},{"name":"madatsubomi_1_2","sampler":0,"source":2},{"name":"madatsubomi_1_4","sampler":0,"source":3},{"name":"madatsubomi_1_5","sampler":0,"source":4},{"name":"madatsubomi_1_7","sampler":0,"source":5}]}