{"accessors":[{"name":"Weepinbell_1_0_positions","componentType":5126,"count":9408,"min":[-78.41740417480469,-14.028302192687988,-21.571500778198242],"max":[78.41739654541016,104.08099365234375,43.10539245605469],"type":"VEC3","bufferView":0,"byteOffset":0},{"name":"Weepinbell_1_0_normals","componentType":5126,"count":9408,"min":[-0.9999133348464966,-0.7753162384033203,-0.9997703433036804],"max":[0.998742401599884,1,0.9987425208091736],"type":"VEC3","bufferView":1,"byteOffset":0},{"name":"Weepinbell_1_0_texcoords","componentType":5126,"count":9408,"min":[0.005499999970197678,0.006829999852925539],"max":[0.9944999814033508,0.9940090179443359],"type":"VEC2","bufferView":2,"byteOffset":0},{"name":"Weepinbell_1_0_indices","componentType":5123,"count":9408,"min":[0],"max":[9407],"type":"SCALAR","bufferView":3,"byteOffset":0},{"name":"Weepinbell_1_1_positions","componentType":5126,"count":576,"min":[-18.04509925842285,32.568695068359375,18.69249725341797],"max":[18.04509925842285,46.28010940551758,26.837106704711914],"type":"VEC3","bufferView":0,"byteOffset":112896},{"name":"Weepinbell_1_1_normals","componentType":5126,"count":576,"min":[0,0.05378498136997223,-0.9981978535652161],"max":[0.9981979131698608,0.13577502965927124,0.9984877109527588],"type":"VEC3","bufferView":1,"byteOffset":112896},{"name":"Weepinbell_1_1_texcoords","componentType":5126,"count":576,"min":[0.005392999853938818,-0.994979977607727],"max":[0.4946100115776062,-0.755020022392273],"type":"VEC2","bufferView":2,"byteOffset":75264},{"name":"Weepinbell_1_1_indices","componentType":5123,"count":576,"min":[0],"max":[575],"type":"SCALAR","bufferView":3,"byteOffset":18816}],"asset":{"generator":"obj2gltf","version":"2.0"},"buffers":[{"name":"XY_Weepinbell","byteLength":394316,"uri":"data:application/octet-stream;base64,"}],"bufferViews":[{"name":"bufferView_0","buffer":0,"byteLength":119808,"byteOffset":0,"byteStride":12,"target":34962},{"name":"bufferView_1","buffer":0,"byteLength":119808,"byteOffset":119808,"byteStride":12,"target":34962},{"name":"bufferView_2","buffer":0,"byteLength":79872,"byteOffset":239616,"byteStride":8,"target":34962},{"name":"bufferView_3","buffer":0,"byteLength":19968,"byteOffset":319488,"target":34963},{"buffer":0,"byteOffset":339456,"byteLength":39498},{"buffer":0,"byteOffset":378954,"byteLength":15359}],"images":[{"name":"pm0070_00_Body1","mimeType":"image/png","bufferView":4},{"name":"pm0070_00_Eye1","mimeType":"image/png","bufferView":5}],"materials":[{"name":"Material__64","pbrMetallicRoughness":{"baseColorTexture":{"index":0},"baseColorFactor":[1,1,1,1],"metallicFactor":0,"roughnessFactor":0.998},"emissiveFactor":[0,0,0],"alphaMode":"OPAQUE","doubleSided":false},{"name":"Material__65","pbrMetallicRoughness":{"baseColorTexture":{"index":1},"baseColorFactor":[1,1,1,1],"metallicFactor":0,"roughnessFactor":0.998},"emissiveFactor":[0,0,0],"alphaMode":"OPAQUE","doubleSided":false}],"meshes":[{"name":"Weepinbell_1","primitives":[{"attributes":{"POSITION":0,"NORMAL":1,"TEXCOORD_0":2},"indices":3,"material":0,"mode":4},{"attributes":{"POSITION":4,"NORMAL":5,"TEXCOORD_0":6},"indices":7,"material":1,"mode":4}]}],"nodes":[{"name":"Weepinbell","mesh":0}],"samplers":[{"wrapS":10497,"wrapT":10497}],"scene":0,"scenes":[{"nodes":[0]}],"textures":[{"name":"pm0070_00_Body1","sampler":0,"source":0},{"name":"pm0070_00_Eye1","sampler":0,"source":1}]}