{"accessors":[{"name":"utsudon-Mesh_0_positions","componentType":5126,"count":109,"min":[-2.5,-2.5,-3.5999999046325684],"max":[2.5,2.5,2.799999952316284],"type":"VEC3","bufferView":0,"byteOffset":0},{"name":"utsudon-Mesh_0_texcoords","componentType":5126,"count":109,"min":[0,0],"max":[1,1],"type":"VEC2","bufferView":1,"byteOffset":0},{"name":"utsudon-Mesh_0_indices","componentType":5123,"count":336,"min":[0],"max":[108],"type":"SCALAR","bufferView":2,"byteOffset":0},{"name":"utsudon-Mesh_1_positions","componentType":5126,"count":11,"min":[-1.4735499620437622,0.7286549806594849,-3.364799976348877],"max":[1.4735499620437622,2.0839099884033203,-1.7534899711608887],"type":"VEC3","bufferView":0,"byteOffset":1308},{"name":"utsudon-Mesh_1_texcoords","componentType":5126,"count":11,"min":[-0.33388298749923706,-0.09077999740839005],"max":[1.4338799715042114,1],"type":"VEC2","bufferView":1,"byteOffset":872},{"name":"utsudon-Mesh_1_indices","componentType":5123,"count":24,"min":[0],"max":[10],"type":"SCALAR","bufferView":2,"byteOffset":672},{"name":"utsudon-Mesh_2_positions","componentType":5126,"count":17,"min":[-0.8987150192260742,-0.6820610165596008,-4.064509868621826],"max":[0.8987150192260742,1.108530044555664,-3.1799399852752686],"type":"VEC3","bufferView":0,"byteOffset":1440},{"name":"utsudon-Mesh_2_texcoords","componentType":5126,"count":17,"min":[0.007813000120222569,0],"max":[0.984375,1.109375],"type":"VEC2","bufferView":1,"byteOffset":960},{"name":"utsudon-Mesh_2_indices","componentType":5123,"count":72,"min":[0],"max":[16],"type":"SCALAR","bufferView":2,"byteOffset":720},{"name":"utsudon-Mesh_3_positions","componentType":5126,"count":55,"min":[-0.25760701298713684,0.038120999932289124,-7.356369972229004],"max":[0.25760701298713684,0.6910560131072998,-3.728300094604492],"type":"VEC3","bufferView":0,"byteOffset":1644},{"name":"utsudon-Mesh_3_texcoords","componentType":5126,"count":55,"min":[0,0],"max":[1,1],"type":"VEC2","bufferView":1,"byteOffset":1096},{"name":"utsudon-Mesh_3_indices","componentType":5123,"count":159,"min":[0],"max":[54],"type":"SCALAR","bufferView":2,"byteOffset":864},{"name":"utsudon-Mesh_4_positions","componentType":5126,"count":98,"min":[-1.677899956703186,1.4938299655914307,-0.6837499737739563],"max":[1.7515699863433838,2.559959888458252,0.8837500214576721],"type":"VEC3","bufferView":0,"byteOffset":2304},{"name":"utsudon-Mesh_4_texcoords","componentType":5126,"count":98,"min":[-0.5,-0.125],"max":[1.5,0.29166701436042786],"type":"VEC2","bufferView":1,"byteOffset":1536},{"name":"utsudon-Mesh_4_indices","componentType":5123,"count":504,"min":[0],"max":[97],"type":"SCALAR","bufferView":2,"byteOffset":1184},{"name":"utsudon-Mesh_5_positions","componentType":5126,"count":88,"min":[-7.778019905090332,-0.7263870239257812,-1.4682799577713013],"max":[7.777959823608398,0.8531200289726257,1.675469994544983],"type":"VEC3","bufferView":0,"byteOffset":3480},{"name":"utsudon-Mesh_5_texcoords","componentType":5126,"count":88,"min":[0,0],"max":[1,1],"type":"VEC2","bufferView":1,"byteOffset":2320},{"name":"utsudon-Mesh_5_indices","componentType":5123,"count":360,"min":[0],"max":[87],"type":"SCALAR","bufferView":2,"byteOffset":2192},{"name":"utsudon-Mesh_6_positions","componentType":5126,"count":17,"min":[-2.5,-2.5,2.799999952316284],"max":[2.5,2.5,2.799999952316284],"type":"VEC3","bufferView":0,"byteOffset":4536},{"name":"utsudon-Mesh_6_texcoords","componentType":5126,"count":17,"min":[0.0022319999989122152,0.0035890000872313976],"max":[0.9941779971122742,0.9933040142059326],"type":"VEC2","bufferView":1,"byteOffset":3024},{"name":"utsudon-Mesh_6_indices","componentType":5123,"count":24,"min":[0],"max":[16],"type":"SCALAR","bufferView":2,"byteOffset":2912},{"name":"utsudon-Mesh_7_positions","componentType":5126,"count":124,"min":[-2.897779941558838,-2.897779941558838,2.4744699001312256],"max":[2.897779941558838,2.897779941558838,3.425529956817627],"type":"VEC3","bufferView":0,"byteOffset":4740},{"name":"utsudon-Mesh_7_texcoords","componentType":5126,"count":124,"min":[-0.008824000135064125,-0.003909999970346689],"max":[1,1],"type":"VEC2","bufferView":1,"byteOffset":3160},{"name":"utsudon-Mesh_7_indices","componentType":5123,"count":390,"min":[0],"max":[123],"type":"SCALAR","bufferView":2,"byteOffset":2960}],"asset":{"generator":"obj2gltf","version":"2.0"},"buffers":[{"name":"BR_Weepinbell-Shiny01","byteLength":39160,"uri":"data:application/octet-stream;base64,"}],"bufferViews":[{"name":"bufferView_0","buffer":0,"byteLength":6228,"byteOffset":0,"byteStride":12,"target":34962},{"name":"bufferView_1","buffer":0,"byteLength":4152,"byteOffset":6228,"byteStride":8,"target":34962},{"name":"bufferView_2","buffer":0,"byteLength":3740,"byteOffset":10380,"target":34963},{"buffer":0,"byteOffset":14120,"byteLength":82},{"buffer":0,"byteOffset":14202,"byteLength":4114},{"buffer":0,"byteOffset":18316,"byteLength":82},{"buffer":0,"byteOffset":18398,"byteLength":82},{"buffer":0,"byteOffset":18480,"byteLength":16402},{"buffer":0,"byteOffset":34882,"byteLength":82},{"buffer":0,"byteOffset":34964,"byteLength":4114},{"buffer":0,"byteOffset":39078,"byteLength":82}],"images":[{"name":"utsudon_1_0","mimeType":"image/x-tga","bufferView":3},{"name":"utsudon_1_1","mimeType":"image/x-tga","bufferView":4},{"name":"utsudon_1_2","mimeType":"image/x-tga","bufferView":5},{"name":"utsudon_1_3","mimeType":"image/x-tga","bufferView":6},{"name":"utsudon_1_4","mimeType":"image/x-tga","bufferView":7},{"name":"utsudon_1_5","mimeType":"image/x-tga","bufferView":8},{"name":"utsudon_1_6","mimeType":"image/x-tga","bufferView":9},{"name":"utsudon_1_7","mimeType":"image/x-tga","bufferView":10}],"materials":[{"name":"mat_0","pbrMetallicRoughness":{"baseColorTexture":{"index":0},"baseColorFactor":[1,1,1,1],"metallicFactor":0,"roughnessFactor":0.903921569},"emissiveFactor":[0,0,0],"alphaMode":"BLEND","doubleSided":true},{"name":"mat_1","pbrMetallicRoughness":{"baseColorTexture":{"index":1},"baseColorFactor":[1,1,1,1],"metallicFactor":0,"roughnessFactor":0.903921569},"emissiveFactor":[0,0,0],"alphaMode":"BLEND","doubleSided":true},{"name":"mat_2","pbrMetallicRoughness":{"baseColorTexture":{"index":2},"baseColorFactor":[1,1,1,1],"metallicFactor":0,"roughnessFactor":0.903921569},"emissiveFactor":[0,0,0],"alphaMode":"BLEND","doubleSided":true},{"name":"mat_3","pbrMetallicRoughness":{"baseColorTexture":{"index":3},"baseColorFactor":[1,1,1,1],"metallicFactor":0,"roughnessFactor":0.903921569},"emissiveFactor":[0,0,0],"alphaMode":"BLEND","doubleSided":true},{"name":"mat_4","pbrMetallicRoughness":{"baseColorTexture":{"index":4},"baseColorFactor":[1,1,1,1],"metallicFactor":0,"roughnessFactor":0.903921569},"emissiveFactor":[0,0,0],"alphaMode":"BLEND","doubleSided":true},{"name":"mat_5","pbrMetallicRoughness":{"baseColorTexture":{"index":5},"baseColorFactor":[1,1,1,1],"metallicFactor":0,"roughnessFactor":0.903921569},"emissiveFactor":[0,0,0],"alphaMode":"BLEND","doubleSided":true},{"name":"mat_6","pbrMetallicRoughness":{"baseColorTexture":{"index":6},"baseColorFactor":[1,1,1,1],"metallicFactor":0,"roughnessFactor":0.903921569},"emissiveFactor":[0,0,0],"alphaMode":"BLEND","doubleSided":true},{"name":"mat_7","pbrMetallicRoughness":{"baseColorTexture":{"index":7},"baseColorFactor":[1,1,1,1],"metallicFactor":0,"roughnessFactor":0.903921569},"emissiveFactor":[0,0,0],"alphaMode":"BLEND","doubleSided":true}],"meshes":[{"name":"utsudon-Mesh","primitives":[{"attributes":{"POSITION":0,"TEXCOORD_0":1},"indices":2,"material":0,"mode":4},{"attributes":{"POSITION":3,"TEXCOORD_0":4},"indices":5,"material":1,"mode":4},{"attributes":{"POSITION":6,"TEXCOORD_0":7},"indices":8,"material":2,"mode":4},{"attributes":{"POSITION":9,"TEXCOORD_0":10},"indices":11,"material":3,"mode":4},{"attributes":{"POSITION":12,"TEXCOORD_0":13},"indices":14,"material":4,"mode":4},{"attributes":{"POSITION":15,"TEXCOORD_0":16},"indices":17,"material":5,"mode":4},{"attributes":{"POSITION":18,"TEXCOORD_0":19},"indices":20,"material":6,"mode":4},{"attributes":{"POSITION":21,"TEXCOORD_0":22},"indices":23,"material":7,"mode":4}]}],"nodes":[{"name":"utsudon","mesh":0}],"samplers":[{"wrapS":10497,"wrapT":10497}],"scene":0,"scenes":[{"nodes":[0]}],"textures":[{"name":"utsudon_1_0","sampler":0,"source":0},{"name":"utsudon_1_1","sampler":0,"source":1},{"name":"utsudon_1_2","sampler":0,"source":2},{"name":"utsudon_1_3","sampler":0,"source":3},{"name":"utsudon_1_4","sampler":0,"source":4},{"name":"utsudon_1_5","sampler":0,"source":5},{"name":"utsudon_1_6","sampler":0,"source":6},{"name":"utsudon_1_7","sampler":0,"source":7}]}