{"accessors":[{"name":"utsubot-Mesh_0_positions","componentType":5126,"count":29,"min":[-3.4424099922180176,0.07117900252342224,-5.459270000457764],"max":[3.4424099922180176,6.219510078430176,-0.5395600199699402],"type":"VEC3","bufferView":0,"byteOffset":0},{"name":"utsubot-Mesh_0_texcoords","componentType":5126,"count":29,"min":[0.10456699877977371,0.4417079985141754],"max":[0.7287430167198181,0.9555280208587646],"type":"VEC2","bufferView":1,"byteOffset":0},{"name":"utsubot-Mesh_0_indices","componentType":5123,"count":60,"min":[0],"max":[28],"type":"SCALAR","bufferView":2,"byteOffset":0},{"name":"utsubot-Mesh_1_positions","componentType":5126,"count":144,"min":[-4.072879791259766,-6.875309944152832,-4.690110206604004],"max":[4.072879791259766,3.9454898834228516,6.979229927062988],"type":"VEC3","bufferView":0,"byteOffset":348},{"name":"utsubot-Mesh_1_texcoords","componentType":5126,"count":144,"min":[-0.5624319911003113,-0.13689999282360077],"max":[1.8285599946975708,1.1908479928970337],"type":"VEC2","bufferView":1,"byteOffset":232},{"name":"utsubot-Mesh_1_indices","componentType":5123,"count":252,"min":[0],"max":[143],"type":"SCALAR","bufferView":2,"byteOffset":120},{"name":"utsubot-Mesh_2_positions","componentType":5126,"count":42,"min":[-13.674799919128418,-5.2617998123168945,0.7834219932556152],"max":[13.674300193786621,-2.6858699321746826,6.110990047454834],"type":"VEC3","bufferView":0,"byteOffset":2076},{"name":"utsubot-Mesh_2_texcoords","componentType":5126,"count":42,"min":[0.08482100069522858,0],"max":[0.877232015132904,1],"type":"VEC2","bufferView":1,"byteOffset":1384},{"name":"utsubot-Mesh_2_indices","componentType":5123,"count":204,"min":[0],"max":[41],"type":"SCALAR","bufferView":2,"byteOffset":624},{"name":"utsubot-Mesh_3_positions","componentType":5126,"count":9,"min":[-3.4424099922180176,0.21206900477409363,-5.459270000457764],"max":[3.4424099922180176,6.219510078430176,-2.472640037536621],"type":"VEC3","bufferView":0,"byteOffset":2580},{"name":"utsubot-Mesh_3_texcoords","componentType":5126,"count":9,"min":[0.483038991689682,-0.030009999871253967],"max":[0.49061599373817444,0.8393499851226807],"type":"VEC2","bufferView":1,"byteOffset":1720},{"name":"utsubot-Mesh_3_indices","componentType":5123,"count":24,"min":[0],"max":[8],"type":"SCALAR","bufferView":2,"byteOffset":1032},{"name":"utsubot-Mesh_4_positions","componentType":5126,"count":121,"min":[-4.191810131072998,-0.6190639734268188,-6.493889808654785],"max":[4.191810131072998,7.318490028381348,-1.809999942779541],"type":"VEC3","bufferView":0,"byteOffset":2688},{"name":"utsubot-Mesh_4_texcoords","componentType":5126,"count":121,"min":[-0.011718999594449997,-0.015629999339580536],"max":[0.2421880066394806,1.046875],"type":"VEC2","bufferView":1,"byteOffset":1792},{"name":"utsubot-Mesh_4_indices","componentType":5123,"count":390,"min":[0],"max":[120],"type":"SCALAR","bufferView":2,"byteOffset":1080},{"name":"utsubot-Mesh_5_positions","componentType":5126,"count":48,"min":[-5.59876012802124,-1.3038500547409058,-7.776490211486816],"max":[5.59876012802124,6.429269790649414,-4.663660049438477],"type":"VEC3","bufferView":0,"byteOffset":4140},{"name":"utsubot-Mesh_5_texcoords","componentType":5126,"count":48,"min":[0.002015999983996153,0.36707499623298645],"max":[1.000499963760376,1.0013060569763184],"type":"VEC2","bufferView":1,"byteOffset":2760},{"name":"utsubot-Mesh_5_indices","componentType":5123,"count":144,"min":[0],"max":[47],"type":"SCALAR","bufferView":2,"byteOffset":1860},{"name":"utsubot-Mesh_6_positions","componentType":5126,"count":65,"min":[-0.3932420015335083,-17.045400619506836,-15.84570026397705],"max":[0.4102410078048706,-0.36246201395988464,-6.967700004577637],"type":"VEC3","bufferView":0,"byteOffset":4716},{"name":"utsubot-Mesh_6_texcoords","componentType":5126,"count":65,"min":[0,0],"max":[1,1],"type":"VEC2","bufferView":1,"byteOffset":3144},{"name":"utsubot-Mesh_6_indices","componentType":5123,"count":300,"min":[0],"max":[64],"type":"SCALAR","bufferView":2,"byteOffset":2148},{"name":"utsubot-Mesh_7_positions","componentType":5126,"count":17,"min":[-1.0792100429534912,-19.74370002746582,-17.357200622558594],"max":[1.1148500442504883,-16.51799964904785,-15.196200370788574],"type":"VEC3","bufferView":0,"byteOffset":5496},{"name":"utsubot-Mesh_7_texcoords","componentType":5126,"count":17,"min":[-0.027928000316023827,0.6857950091362],"max":[1.0111299753189087,1.0357710123062134],"type":"VEC2","bufferView":1,"byteOffset":3664},{"name":"utsubot-Mesh_7_indices","componentType":5123,"count":90,"min":[0],"max":[16],"type":"SCALAR","bufferView":2,"byteOffset":2748},{"name":"utsubot-Mesh_8_positions","componentType":5126,"count":16,"min":[-3.228909969329834,4.6681599617004395,-5.378530025482178],"max":[3.1772000789642334,5.470640182495117,-3.523289918899536],"type":"VEC3","bufferView":0,"byteOffset":5700},{"name":"utsubot-Mesh_8_texcoords","componentType":5126,"count":16,"min":[0,0],"max":[1,1],"type":"VEC2","bufferView":1,"byteOffset":3800},{"name":"utsubot-Mesh_8_indices","componentType":5123,"count":72,"min":[0],"max":[15],"type":"SCALAR","bufferView":2,"byteOffset":2928},{"name":"utsubot-Mesh_9_positions","componentType":5126,"count":94,"min":[-2.604379892349243,3.5673599243164062,-3.5752100944519043],"max":[2.604379892349243,5.326330184936523,-1.3250600099563599],"type":"VEC3","bufferView":0,"byteOffset":5892},{"name":"utsubot-Mesh_9_texcoords","componentType":5126,"count":94,"min":[-0.0410659983754158,-0.026440000161528587],"max":[0.12147799879312515,1.1432640552520752],"type":"VEC2","bufferView":1,"byteOffset":3928},{"name":"utsubot-Mesh_9_indices","componentType":5123,"count":360,"min":[0],"max":[93],"type":"SCALAR","bufferView":2,"byteOffset":3072}],"asset":{"generator":"obj2gltf","version":"2.0"},"buffers":[{"name":"BR_Victreebel-Shiny01","byteLength":77432,"uri":"data:application/octet-stream;base64,"}],"bufferViews":[{"name":"bufferView_0","buffer":0,"byteLength":7020,"byteOffset":0,"byteStride":12,"target":34962},{"name":"bufferView_1","buffer":0,"byteLength":4680,"byteOffset":7020,"byteStride":8,"target":34962},{"name":"bufferView_2","buffer":0,"byteLength":3792,"byteOffset":11700,"target":34963},{"buffer":0,"byteOffset":15492,"byteLength":4114},{"buffer":0,"byteOffset":19606,"byteLength":8210},{"buffer":0,"byteOffset":27816,"byteLength":4114},{"buffer":0,"byteOffset":31930,"byteLength":4114},{"buffer":0,"byteOffset":36044,"byteLength":146},{"buffer":0,"byteOffset":36190,"byteLength":4114},{"buffer":0,"byteOffset":40304,"byteLength":82},{"buffer":0,"byteOffset":40386,"byteLength":82},{"buffer":0,"byteOffset":40468,"byteLength":82},{"buffer":0,"byteOffset":40550,"byteLength":36882}],"images":[{"name":"utsubot_1_0","mimeType":"image/x-tga","bufferView":3},{"name":"utsubot_1_1","mimeType":"image/x-tga","bufferView":4},{"name":"utsubot_1_2","mimeType":"image/x-tga","bufferView":5},{"name":"utsubot_1_3","mimeType":"image/x-tga","bufferView":6},{"name":"utsubot_1_4","mimeType":"image/x-tga","bufferView":7},{"name":"utsubot_1_5","mimeType":"image/x-tga","bufferView":8},{"name":"utsubot_1_6","mimeType":"image/x-tga","bufferView":9},{"name":"utsubot_1_7","mimeType":"image/x-tga","bufferView":10},{"name":"utsubot_1_8","mimeType":"image/x-tga","bufferView":11},{"name":"utsubot_1_9","mimeType":"image/x-tga","bufferView":12}],"materials":[{"name":"mat_0","pbrMetallicRoughness":{"baseColorTexture":{"index":0},"baseColorFactor":[1,1,1,1],"metallicFactor":0,"roughnessFactor":0.903921569},"emissiveFactor":[0,0,0],"alphaMode":"BLEND","doubleSided":true},{"name":"mat_1","pbrMetallicRoughness":{"baseColorTexture":{"index":1},"baseColorFactor":[1,1,1,1],"metallicFactor":0,"roughnessFactor":0.903921569},"emissiveFactor":[0,0,0],"alphaMode":"BLEND","doubleSided":true},{"name":"mat_2","pbrMetallicRoughness":{"baseColorTexture":{"index":2},"baseColorFactor":[1,1,1,1],"metallicFactor":0,"roughnessFactor":0.903921569},"emissiveFactor":[0,0,0],"alphaMode":"BLEND","doubleSided":true},{"name":"mat_3","pbrMetallicRoughness":{"baseColorTexture":{"index":3},"baseColorFactor":[1,1,1,1],"metallicFactor":0,"roughnessFactor":0.903921569},"emissiveFactor":[0,0,0],"alphaMode":"BLEND","doubleSided":true},{"name":"mat_4","pbrMetallicRoughness":{"baseColorTexture":{"index":4},"baseColorFactor":[1,1,1,1],"metallicFactor":0,"roughnessFactor":0.903921569},"emissiveFactor":[0,0,0],"alphaMode":"BLEND","doubleSided":true},{"name":"mat_5","pbrMetallicRoughness":{"baseColorTexture":{"index":5},"baseColorFactor":[1,1,1,1],"metallicFactor":0,"roughnessFactor":0.903921569},"emissiveFactor":[0,0,0],"alphaMode":"BLEND","doubleSided":true},{"name":"mat_6","pbrMetallicRoughness":{"baseColorTexture":{"index":6},"baseColorFactor":[1,1,1,1],"metallicFactor":0,"roughnessFactor":0.903921569},"emissiveFactor":[0,0,0],"alphaMode":"BLEND","doubleSided":true},{"name":"mat_7","pbrMetallicRoughness":{"baseColorTexture":{"index":7},"baseColorFactor":[1,1,1,1],"metallicFactor":0,"roughnessFactor":0.903921569},"emissiveFactor":[0,0,0],"alphaMode":"BLEND","doubleSided":true},{"name":"mat_8","pbrMetallicRoughness":{"baseColorTexture":{"index":8},"baseColorFactor":[1,1,1,1],"metallicFactor":0,"roughnessFactor":0.903921569},"emissiveFactor":[0,0,0],"alphaMode":"BLEND","doubleSided":true},{"name":"mat_9","pbrMetallicRoughness":{"baseColorTexture":{"index":9},"baseColorFactor":[1,1,1,1],"metallicFactor":0,"roughnessFactor":0.903921569},"emissiveFactor":[0,0,0],"alphaMode":"BLEND","doubleSided":true}],"meshes":[{"name":"utsubot-Mesh","primitives":[{"attributes":{"POSITION":0,"TEXCOORD_0":1},"indices":2,"material":0,"mode":4},{"attributes":{"POSITION":3,"TEXCOORD_0":4},"indices":5,"material":1,"mode":4},{"attributes":{"POSITION":6,"TEXCOORD_0":7},"indices":8,"material":2,"mode":4},{"attributes":{"POSITION":9,"TEXCOORD_0":10},"indices":11,"material":3,"mode":4},{"attributes":{"POSITION":12,"TEXCOORD_0":13},"indices":14,"material":4,"mode":4},{"attributes":{"POSITION":15,"TEXCOORD_0":16},"indices":17,"material":5,"mode":4},{"attributes":{"POSITION":18,"TEXCOORD_0":19},"indices":20,"material":6,"mode":4},{"attributes":{"POSITION":21,"TEXCOORD_0":22},"indices":23,"material":7,"mode":4},{"attributes":{"POSITION":24,"TEXCOORD_0":25},"indices":26,"material":8,"mode":4},{"attributes":{"POSITION":27,"TEXCOORD_0":28},"indices":29,"material":9,"mode":4}]}],"nodes":[{"name":"utsubot","mesh":0}],"samplers":[{"wrapS":10497,"wrapT":10497}],"scene":0,"scenes":[{"nodes":[0]}],"textures":[{"name":"utsubot_1_0","sampler":0,"source":0},{"name":"utsubot_1_1","sampler":0,"source":1},{"name":"utsubot_1_2","sampler":0,"source":2},{"name":"utsubot_1_3","sampler":0,"source":3},{"name":"utsubot_1_4","sampler":0,"source":4},{"name":"utsubot_1_5","sampler":0,"source":5},{"name":"utsubot_1_6","sampler":0,"source":6},{"name":"utsubot_1_7","sampler":0,"source":7},{"name":"utsubot_1_8","sampler":0,"source":8},{"name":"utsubot_1_9","sampler":0,"source":9}]}