{"accessors":[{"name":"menokurage-Mesh_0_positions","componentType":5126,"count":21,"min":[-1.9973000288009644,-1.49753999710083,1.0277899503707886],"max":[2.0640900135040283,1.7346899509429932,2.1855900287628174],"type":"VEC3","bufferView":0,"byteOffset":0},{"name":"menokurage-Mesh_0_texcoords","componentType":5126,"count":21,"min":[0.21491199731826782,0.3922710120677948],"max":[0.794622004032135,0.47702598571777344],"type":"VEC2","bufferView":1,"byteOffset":0},{"name":"menokurage-Mesh_0_indices","componentType":5123,"count":57,"min":[0],"max":[20],"type":"SCALAR","bufferView":2,"byteOffset":0},{"name":"menokurage-Mesh_1_positions","componentType":5126,"count":237,"min":[-3.5029399394989014,-2.8620100021362305,-3.877880096435547],"max":[3.5029399394989014,3.05499005317688,2.070080041885376],"type":"VEC3","bufferView":0,"byteOffset":252},{"name":"menokurage-Mesh_1_texcoords","componentType":5126,"count":237,"min":[0,0],"max":[1,1],"type":"VEC2","bufferView":1,"byteOffset":168},{"name":"menokurage-Mesh_1_indices","componentType":5123,"count":1059,"min":[0],"max":[236],"type":"SCALAR","bufferView":2,"byteOffset":116},{"name":"menokurage-Mesh_2_positions","componentType":5126,"count":20,"min":[-1.4746099710464478,1.8511500358581543,0.8584319949150085],"max":[1.5087900161743164,2.3449900150299072,1.5102499723434448],"type":"VEC3","bufferView":0,"byteOffset":3096},{"name":"menokurage-Mesh_2_texcoords","componentType":5126,"count":20,"min":[0.03777499869465828,-0.049479998648166656],"max":[0.9317770004272461,0.1902559995651245],"type":"VEC2","bufferView":1,"byteOffset":2064},{"name":"menokurage-Mesh_2_indices","componentType":5123,"count":60,"min":[0],"max":[19],"type":"SCALAR","bufferView":2,"byteOffset":2236},{"name":"menokurage-Mesh_3_positions","componentType":5126,"count":9,"min":[-0.6817079782485962,1.8528300523757935,1.2319300174713135],"max":[0.6946730017662048,2.610599994659424,2.3364100456237793],"type":"VEC3","bufferView":0,"byteOffset":3336},{"name":"menokurage-Mesh_3_texcoords","componentType":5126,"count":9,"min":[-1.9891599416732788,0.3094150125980377],"max":[3.0364999771118164,1],"type":"VEC2","bufferView":1,"byteOffset":2224},{"name":"menokurage-Mesh_3_indices","componentType":5123,"count":27,"min":[0],"max":[8],"type":"SCALAR","bufferView":2,"byteOffset":2356},{"name":"menokurage-Mesh_4_positions","componentType":5126,"count":32,"min":[-3.5029399394989014,-2.8620100021362305,1.1346900463104248],"max":[3.5029399394989014,1.7905800342559814,1.987820029258728],"type":"VEC3","bufferView":0,"byteOffset":3444},{"name":"menokurage-Mesh_4_texcoords","componentType":5126,"count":32,"min":[-0.03890800103545189,0.14183999598026276],"max":[1.0389100313186646,1.1393860578536987],"type":"VEC2","bufferView":1,"byteOffset":2296},{"name":"menokurage-Mesh_4_indices","componentType":5123,"count":102,"min":[0],"max":[31],"type":"SCALAR","bufferView":2,"byteOffset":2412},{"name":"menokurage-Mesh_5_positions","componentType":5126,"count":10,"min":[-0.5908600091934204,2.65024995803833,-0.4123069941997528],"max":[0.590857982635498,2.874069929122925,0.10689400136470795],"type":"VEC3","bufferView":0,"byteOffset":3828},{"name":"menokurage-Mesh_5_texcoords","componentType":5126,"count":10,"min":[-0.07349800318479538,0.5100409984588623],"max":[1.0215599536895752,0.9802889823913574],"type":"VEC2","bufferView":1,"byteOffset":2552},{"name":"menokurage-Mesh_5_indices","componentType":5123,"count":27,"min":[0],"max":[9],"type":"SCALAR","bufferView":2,"byteOffset":2616},{"name":"menokurage-Mesh_6_positions","componentType":5126,"count":18,"min":[-1.783079981803894,0.45289498567581177,-3.8723700046539307],"max":[1.7830699682235718,2.350800037384033,-1.9510999917984009],"type":"VEC3","bufferView":0,"byteOffset":3948},{"name":"menokurage-Mesh_6_texcoords","componentType":5126,"count":18,"min":[-0.10900499671697617,0.12538200616836548],"max":[0.9885889887809753,1.0326759815216064],"type":"VEC2","bufferView":1,"byteOffset":2632},{"name":"menokurage-Mesh_6_indices","componentType":5123,"count":48,"min":[0],"max":[17],"type":"SCALAR","bufferView":2,"byteOffset":2672},{"name":"menokurage-Mesh_7_positions","componentType":5126,"count":17,"min":[-1.4155399799346924,-1.3335599899291992,-4.330860137939453],"max":[1.4155399799346924,2.0334300994873047,-3.3780999183654785],"type":"VEC3","bufferView":0,"byteOffset":4164},{"name":"menokurage-Mesh_7_texcoords","componentType":5126,"count":17,"min":[-0.18085600435733795,0.02991900034248829],"max":[1.1420400142669678,0.9511979818344116],"type":"VEC2","bufferView":1,"byteOffset":2776},{"name":"menokurage-Mesh_7_indices","componentType":5123,"count":60,"min":[0],"max":[16],"type":"SCALAR","bufferView":2,"byteOffset":2768},{"name":"menokurage-Mesh_8_positions","componentType":5126,"count":60,"min":[-2.40910005569458,-1.1558899879455566,-3.8685200214385986],"max":[2.40910005569458,2.000309944152832,-0.37912899255752563],"type":"VEC3","bufferView":0,"byteOffset":4368},{"name":"menokurage-Mesh_8_texcoords","componentType":5126,"count":60,"min":[0.0027409999165683985,-0.4907200038433075],"max":[1.2761199474334717,0.9049980044364929],"type":"VEC2","bufferView":1,"byteOffset":2912},{"name":"menokurage-Mesh_8_indices","componentType":5123,"count":90,"min":[0],"max":[59],"type":"SCALAR","bufferView":2,"byteOffset":2888},{"name":"menokurage-Mesh_9_positions","componentType":5126,"count":4,"min":[1.7377500534057617,-1.1558899879455566,-2.0782299041748047],"max":[2.1137800216674805,-0.5772110223770142,-0.7945160269737244],"type":"VEC3","bufferView":0,"byteOffset":5088},{"name":"menokurage-Mesh_9_texcoords","componentType":5126,"count":4,"min":[-0.11832500249147415,-0.2097799926996231],"max":[1.3660999536514282,0.8252530097961426],"type":"VEC2","bufferView":1,"byteOffset":3392},{"name":"menokurage-Mesh_9_indices","componentType":5123,"count":6,"min":[0],"max":[3],"type":"SCALAR","bufferView":2,"byteOffset":3068},{"name":"menokurage-Mesh_10_positions","componentType":5126,"count":16,"min":[-0.2928619980812073,2.852479934692383,-1.2336699962615967],"max":[0.2928580045700073,3.102220058441162,-0.2907460033893585],"type":"VEC3","bufferView":0,"byteOffset":5136},{"name":"menokurage-Mesh_10_texcoords","componentType":5126,"count":16,"min":[0.06794799864292145,0.21852700412273407],"max":[0.9320470094680786,0.9987620115280151],"type":"VEC2","bufferView":1,"byteOffset":3424},{"name":"menokurage-Mesh_10_indices","componentType":5123,"count":69,"min":[0],"max":[15],"type":"SCALAR","bufferView":2,"byteOffset":3080},{"name":"menokurage-Mesh_11_positions","componentType":5126,"count":34,"min":[-2.565469980239868,-0.9267669916152954,-3.666759967803955],"max":[2.565469980239868,1.8122700452804565,-0.6711699962615967],"type":"VEC3","bufferView":0,"byteOffset":5328},{"name":"menokurage-Mesh_11_texcoords","componentType":5126,"count":34,"min":[-0.20016899704933167,0.0297240000218153],"max":[1.3407399654388428,1.0891309976577759],"type":"VEC2","bufferView":1,"byteOffset":3552},{"name":"menokurage-Mesh_11_indices","componentType":5123,"count":144,"min":[0],"max":[33],"type":"SCALAR","bufferView":2,"byteOffset":3220},{"name":"menokurage-Mesh_12_positions","componentType":5126,"count":100,"min":[-2.5915699005126953,0.3672749996185303,1.3212599754333496],"max":[2.584320068359375,1.1453100442886353,9.08965015411377],"type":"VEC3","bufferView":0,"byteOffset":5736},{"name":"menokurage-Mesh_12_texcoords","componentType":5126,"count":100,"min":[-0.0437140017747879,-0.3968299925327301],"max":[1.0000100135803223,1],"type":"VEC2","bufferView":1,"byteOffset":3824},{"name":"menokurage-Mesh_12_indices","componentType":5123,"count":288,"min":[0],"max":[99],"type":"SCALAR","bufferView":2,"byteOffset":3508},{"name":"menokurage-Mesh_13_positions","componentType":5126,"count":20,"min":[-2.5915699005126953,0.3649959862232208,8.373290061950684],"max":[2.584320068359375,1.1453100442886353,9.329730033874512],"type":"VEC3","bufferView":0,"byteOffset":6936},{"name":"menokurage-Mesh_13_texcoords","componentType":5126,"count":20,"min":[-0.5402539968490601,-0.8917499780654907],"max":[1.5401699542999268,1.0039869546890259],"type":"VEC2","bufferView":1,"byteOffset":4624},{"name":"menokurage-Mesh_13_indices","componentType":5123,"count":30,"min":[0],"max":[19],"type":"SCALAR","bufferView":2,"byteOffset":4084},{"name":"menokurage-Mesh_14_positions","componentType":5126,"count":12,"min":[-2.2171900272369385,0.3649959862232208,7.0630998611450195],"max":[2.2203500270843506,0.7195960283279419,9.329730033874512],"type":"VEC3","bufferView":0,"byteOffset":7176},{"name":"menokurage-Mesh_14_texcoords","componentType":5126,"count":12,"min":[-0.29856398701667786,-0.294869989156723],"max":[0.4666379988193512,0.9571710228919983],"type":"VEC2","bufferView":1,"byteOffset":4784},{"name":"menokurage-Mesh_14_indices","componentType":5123,"count":24,"min":[0],"max":[11],"type":"SCALAR","bufferView":2,"byteOffset":4144}],"asset":{"generator":"obj2gltf","version":"2.0"},"buffers":[{"name":"BR_Tentacool-Shiny01","byteLength":119828,"uri":"data:application/octet-stream;base64,"}],"bufferViews":[{"name":"bufferView_0","buffer":0,"byteLength":7320,"byteOffset":0,"byteStride":12,"target":34962},{"name":"bufferView_1","buffer":0,"byteLength":4880,"byteOffset":7320,"byteStride":8,"target":34962},{"name":"bufferView_2","buffer":0,"byteLength":4192,"byteOffset":12200,"target":34963},{"buffer":0,"byteOffset":16392,"byteLength":418},{"buffer":0,"byteOffset":16810,"byteLength":40978},{"buffer":0,"byteOffset":57788,"byteLength":8210},{"buffer":0,"byteOffset":65998,"byteLength":4114},{"buffer":0,"byteOffset":70112,"byteLength":4114},{"buffer":0,"byteOffset":74226,"byteLength":8210},{"buffer":0,"byteOffset":82436,"byteLength":4114},{"buffer":0,"byteOffset":86550,"byteLength":8210},{"buffer":0,"byteOffset":94760,"byteLength":8210},{"buffer":0,"byteOffset":102970,"byteLength":4114},{"buffer":0,"byteOffset":107084,"byteLength":418},{"buffer":0,"byteOffset":107502,"byteLength":4114},{"buffer":0,"byteOffset":111616,"byteLength":8210}],"images":[{"name":"menokurage_1_0","mimeType":"image/x-tga","bufferView":3},{"name":"menokurage_1_2","mimeType":"image/x-tga","bufferView":4},{"name":"menokurage_1_3","mimeType":"image/x-tga","bufferView":5},{"name":"menokurage_1_4","mimeType":"image/x-tga","bufferView":6},{"name":"menokurage_1_5","mimeType":"image/x-tga","bufferView":7},{"name":"menokurage_1_6","mimeType":"image/x-tga","bufferView":8},{"name":"menokurage_1_7","mimeType":"image/x-tga","bufferView":9},{"name":"menokurage_1_8","mimeType":"image/x-tga","bufferView":10},{"name":"menokurage_1_10","mimeType":"image/x-tga","bufferView":11},{"name":"menokurage_1_11","mimeType":"image/x-tga","bufferView":12},{"name":"menokurage_1_12","mimeType":"image/x-tga","bufferView":13},{"name":"menokurage_1_13","mimeType":"image/x-tga","bufferView":14},{"name":"menokurage_1_14","mimeType":"image/x-tga","bufferView":15}],"materials":[{"name":"mat_0","pbrMetallicRoughness":{"baseColorTexture":{"index":0},"baseColorFactor":[1,1,1,1],"metallicFactor":0,"roughnessFactor":0.903921569},"emissiveFactor":[0,0,0],"alphaMode":"BLEND","doubleSided":true},{"name":"mat_1","pbrMetallicRoughness":{"baseColorTexture":{"index":0},"baseColorFactor":[1,1,1,1],"metallicFactor":0,"roughnessFactor":0.903921569},"emissiveFactor":[0,0,0],"alphaMode":"BLEND","doubleSided":true},{"name":"mat_2","pbrMetallicRoughness":{"baseColorTexture":{"index":1},"baseColorFactor":[1,1,1,1],"metallicFactor":0,"roughnessFactor":0.903921569},"emissiveFactor":[0,0,0],"alphaMode":"BLEND","doubleSided":true},{"name":"mat_3","pbrMetallicRoughness":{"baseColorTexture":{"index":2},"baseColorFactor":[1,1,1,1],"metallicFactor":0,"roughnessFactor":0.903921569},"emissiveFactor":[0,0,0],"alphaMode":"BLEND","doubleSided":true},{"name":"mat_4","pbrMetallicRoughness":{"baseColorTexture":{"index":3},"baseColorFactor":[1,1,1,1],"metallicFactor":0,"roughnessFactor":0.903921569},"emissiveFactor":[0,0,0],"alphaMode":"BLEND","doubleSided":true},{"name":"mat_5","pbrMetallicRoughness":{"baseColorTexture":{"index":4},"baseColorFactor":[1,1,1,1],"metallicFactor":0,"roughnessFactor":0.903921569},"emissiveFactor":[0,0,0],"alphaMode":"BLEND","doubleSided":true},{"name":"mat_6","pbrMetallicRoughness":{"baseColorTexture":{"index":5},"baseColorFactor":[1,1,1,1],"metallicFactor":0,"roughnessFactor":0.903921569},"emissiveFactor":[0,0,0],"alphaMode":"BLEND","doubleSided":true},{"name":"mat_7","pbrMetallicRoughness":{"baseColorTexture":{"index":6},"baseColorFactor":[1,1,1,1],"metallicFactor":0,"roughnessFactor":0.903921569},"emissiveFactor":[0,0,0],"alphaMode":"BLEND","doubleSided":true},{"name":"mat_8","pbrMetallicRoughness":{"baseColorTexture":{"index":7},"baseColorFactor":[1,1,1,1],"metallicFactor":0,"roughnessFactor":0.903921569},"emissiveFactor":[0,0,0],"alphaMode":"BLEND","doubleSided":true},{"name":"mat_9","pbrMetallicRoughness":{"baseColorTexture":{"index":7},"baseColorFactor":[1,1,1,1],"metallicFactor":0,"roughnessFactor":0.903921569},"emissiveFactor":[0,0,0],"alphaMode":"BLEND","doubleSided":true},{"name":"mat_10","pbrMetallicRoughness":{"baseColorTexture":{"index":8},"baseColorFactor":[1,1,1,1],"metallicFactor":0,"roughnessFactor":0.903921569},"emissiveFactor":[0,0,0],"alphaMode":"BLEND","doubleSided":true},{"name":"mat_11","pbrMetallicRoughness":{"baseColorTexture":{"index":9},"baseColorFactor":[1,1,1,1],"metallicFactor":0,"roughnessFactor":0.903921569},"emissiveFactor":[0,0,0],"alphaMode":"BLEND","doubleSided":true},{"name":"mat_12","pbrMetallicRoughness":{"baseColorTexture":{"index":10},"baseColorFactor":[1,1,1,1],"metallicFactor":0,"roughnessFactor":0.903921569},"emissiveFactor":[0,0,0],"alphaMode":"BLEND","doubleSided":true},{"name":"mat_13","pbrMetallicRoughness":{"baseColorTexture":{"index":11},"baseColorFactor":[1,1,1,1],"metallicFactor":0,"roughnessFactor":0.903921569},"emissiveFactor":[0,0,0],"alphaMode":"BLEND","doubleSided":true},{"name":"mat_14","pbrMetallicRoughness":{"baseColorTexture":{"index":12},"baseColorFactor":[1,1,1,1],"metallicFactor":0,"roughnessFactor":0.903921569},"emissiveFactor":[0,0,0],"alphaMode":"BLEND","doubleSided":true}],"meshes":[{"name":"menokurage-Mesh","primitives":[{"attributes":{"POSITION":0,"TEXCOORD_0":1},"indices":2,"material":0,"mode":4},{"attributes":{"POSITION":3,"TEXCOORD_0":4},"indices":5,"material":1,"mode":4},{"attributes":{"POSITION":6,"TEXCOORD_0":7},"indices":8,"material":2,"mode":4},{"attributes":{"POSITION":9,"TEXCOORD_0":10},"indices":11,"material":3,"mode":4},{"attributes":{"POSITION":12,"TEXCOORD_0":13},"indices":14,"material":4,"mode":4},{"attributes":{"POSITION":15,"TEXCOORD_0":16},"indices":17,"material":5,"mode":4},{"attributes":{"POSITION":18,"TEXCOORD_0":19},"indices":20,"material":6,"mode":4},{"attributes":{"POSITION":21,"TEXCOORD_0":22},"indices":23,"material":7,"mode":4},{"attributes":{"POSITION":24,"TEXCOORD_0":25},"indices":26,"material":8,"mode":4},{"attributes":{"POSITION":27,"TEXCOORD_0":28},"indices":29,"material":9,"mode":4},{"attributes":{"POSITION":30,"TEXCOORD_0":31},"indices":32,"material":10,"mode":4},{"attributes":{"POSITION":33,"TEXCOORD_0":34},"indices":35,"material":11,"mode":4},{"attributes":{"POSITION":36,"TEXCOORD_0":37},"indices":38,"material":12,"mode":4},{"attributes":{"POSITION":39,"TEXCOORD_0":40},"indices":41,"material":13,"mode":4},{"attributes":{"POSITION":42,"TEXCOORD_0":43},"indices":44,"material":14,"mode":4}]}],"nodes":[{"name":"menokurage","mesh":0}],"samplers":[{"wrapS":10497,"wrapT":10497}],"scene":0,"scenes":[{"nodes":[0]}],"textures":[{"name":"menokurage_1_0","sampler":0,"source":0},{"name":"menokurage_1_2","sampler":0,"source":1},{"name":"menokurage_1_3","sampler":0,"source":2},{"name":"menokurage_1_4","sampler":0,"source":3},{"name":"menokurage_1_5","sampler":0,"source":4},{"name":"menokurage_1_6","sampler":0,"source":5},{"name":"menokurage_1_7","sampler":0,"source":6},{"name":"menokurage_1_8","sampler":0,"source":7},{"name":"menokurage_1_10","sampler":0,"source":8},{"name":"menokurage_1_11","sampler":0,"source":9},{"name":"menokurage_1_12","sampler":0,"source":10},{"name":"menokurage_1_13","sampler":0,"source":11},{"name":"menokurage_1_14","sampler":0,"source":12}]}