{"accessors":[{"name":"dokukurage-Mesh_0_positions","componentType":5126,"count":43,"min":[-4.7238898277282715,-1.1507600545883179,-3.555340051651001],"max":[4.725399971008301,4.003271102905273,0.19244599342346191],"type":"VEC3","bufferView":0,"byteOffset":0},{"name":"dokukurage-Mesh_0_texcoords","componentType":5126,"count":43,"min":[0.08859699964523315,0.005929999984800816],"max":[1.0465699434280396,0.9743760228157043],"type":"VEC2","bufferView":1,"byteOffset":0},{"name":"dokukurage-Mesh_0_indices","componentType":5123,"count":144,"min":[0],"max":[42],"type":"SCALAR","bufferView":2,"byteOffset":0},{"name":"dokukurage-Mesh_1_positions","componentType":5126,"count":64,"min":[-4.971469879150391,-1.9679700136184692,-3.698460102081299],"max":[4.971469879150391,4.167541027069092,0.2781890034675598],"type":"VEC3","bufferView":0,"byteOffset":516},{"name":"dokukurage-Mesh_1_texcoords","componentType":5126,"count":64,"min":[-0.21256500482559204,-0.20371000468730927],"max":[1.30826997756958,0.7058870196342468],"type":"VEC2","bufferView":1,"byteOffset":344},{"name":"dokukurage-Mesh_1_indices","componentType":5123,"count":84,"min":[0],"max":[63],"type":"SCALAR","bufferView":2,"byteOffset":288},{"name":"dokukurage-Mesh_2_positions","componentType":5126,"count":56,"min":[-6.982550144195557,-2.4623000621795654,-1.286620020866394],"max":[6.982550144195557,4.534571170806885,1.7521799802780151],"type":"VEC3","bufferView":0,"byteOffset":1284},{"name":"dokukurage-Mesh_2_texcoords","componentType":5126,"count":56,"min":[-0.3214370012283325,-0.23582999408245087],"max":[1.7300399541854858,1.064784049987793],"type":"VEC2","bufferView":1,"byteOffset":856},{"name":"dokukurage-Mesh_2_indices","componentType":5123,"count":153,"min":[0],"max":[55],"type":"SCALAR","bufferView":2,"byteOffset":456},{"name":"dokukurage-Mesh_3_positions","componentType":5126,"count":138,"min":[-6.982550144195557,-5.8076701164245605,-3.8398499488830566],"max":[6.982550144195557,6.74167013168335,6.341391086578369],"type":"VEC3","bufferView":0,"byteOffset":1956},{"name":"dokukurage-Mesh_3_texcoords","componentType":5126,"count":138,"min":[-1.0262900590896606,0],"max":[1,0.9279279708862305],"type":"VEC2","bufferView":1,"byteOffset":1304},{"name":"dokukurage-Mesh_3_indices","componentType":5123,"count":534,"min":[0],"max":[137],"type":"SCALAR","bufferView":2,"byteOffset":764},{"name":"dokukurage-Mesh_4_positions","componentType":5126,"count":48,"min":[-1.9083600044250488,3.864180088043213,-2.322240114212036],"max":[1.9085999727249146,6.997990131378174,2.093319892883301],"type":"VEC3","bufferView":0,"byteOffset":3612},{"name":"dokukurage-Mesh_4_texcoords","componentType":5126,"count":48,"min":[-11.041600227355957,0.013016999699175358],"max":[12.043000221252441,1.1164050102233887],"type":"VEC2","bufferView":1,"byteOffset":2408},{"name":"dokukurage-Mesh_4_indices","componentType":5123,"count":129,"min":[0],"max":[47],"type":"SCALAR","bufferView":2,"byteOffset":1832},{"name":"dokukurage-Mesh_5_positions","componentType":5126,"count":66,"min":[-6.788390159606934,-5.79511022567749,0.30933600664138794],"max":[6.788390159606934,6.195419788360596,4.438000202178955],"type":"VEC3","bufferView":0,"byteOffset":4188},{"name":"dokukurage-Mesh_5_texcoords","componentType":5126,"count":66,"min":[-0.21345800161361694,0.29704299569129944],"max":[1.0640900135040283,1.3356519937515259],"type":"VEC2","bufferView":1,"byteOffset":2792},{"name":"dokukurage-Mesh_5_indices","componentType":5123,"count":147,"min":[0],"max":[65],"type":"SCALAR","bufferView":2,"byteOffset":2092},{"name":"dokukurage-Mesh_6_positions","componentType":5126,"count":13,"min":[-0.7005829811096191,4.561299800872803,-1.751420021057129],"max":[0.7005839943885803,5.395549774169922,-0.4474950134754181],"type":"VEC3","bufferView":0,"byteOffset":4980},{"name":"dokukurage-Mesh_6_texcoords","componentType":5126,"count":13,"min":[0.00991700030863285,0.17513899505138397],"max":[0.9900829792022705,0.9238839745521545],"type":"VEC2","bufferView":1,"byteOffset":3320},{"name":"dokukurage-Mesh_6_indices","componentType":5123,"count":54,"min":[0],"max":[12],"type":"SCALAR","bufferView":2,"byteOffset":2388},{"name":"dokukurage-Mesh_7_positions","componentType":5126,"count":15,"min":[-3.385540008544922,-2.6061599254608154,0.30933600664138794],"max":[3.385540008544922,4.569469928741455,4.122610092163086],"type":"VEC3","bufferView":0,"byteOffset":5136},{"name":"dokukurage-Mesh_7_texcoords","componentType":5126,"count":15,"min":[0.2575719952583313,0.517283022403717],"max":[0.7424280047416687,1],"type":"VEC2","bufferView":1,"byteOffset":3424},{"name":"dokukurage-Mesh_7_indices","componentType":5123,"count":57,"min":[0],"max":[14],"type":"SCALAR","bufferView":2,"byteOffset":2496},{"name":"dokukurage-Mesh_8_positions","componentType":5126,"count":6,"min":[-3.385540008544922,3.0153698921203613,0.30933600664138794],"max":[3.385540008544922,5.077589988708496,2.8015499114990234],"type":"VEC3","bufferView":0,"byteOffset":5316},{"name":"dokukurage-Mesh_8_texcoords","componentType":5126,"count":6,"min":[0.10195200145244598,-0.12148000299930573],"max":[1.2845300436019897,0.2634649872779846],"type":"VEC2","bufferView":1,"byteOffset":3544},{"name":"dokukurage-Mesh_8_indices","componentType":5123,"count":12,"min":[0],"max":[5],"type":"SCALAR","bufferView":2,"byteOffset":2612},{"name":"dokukurage-Mesh_9_positions","componentType":5126,"count":54,"min":[-2.8236899375915527,-2.156860113143921,2.250699996948242],"max":[2.7180399894714355,3.3404700756073,5.8678998947143555],"type":"VEC3","bufferView":0,"byteOffset":5388},{"name":"dokukurage-Mesh_9_texcoords","componentType":5126,"count":54,"min":[0,0],"max":[1,1],"type":"VEC2","bufferView":1,"byteOffset":3592},{"name":"dokukurage-Mesh_9_indices","componentType":5123,"count":162,"min":[0],"max":[53],"type":"SCALAR","bufferView":2,"byteOffset":2636},{"name":"dokukurage-Mesh_10_positions","componentType":5126,"count":148,"min":[-2.8202600479125977,-4.15201997756958,2.8829898834228516],"max":[2.8546900749206543,3.8518900871276855,14.569999694824219],"type":"VEC3","bufferView":0,"byteOffset":6036},{"name":"dokukurage-Mesh_10_texcoords","componentType":5126,"count":148,"min":[0,0],"max":[1,1],"type":"VEC2","bufferView":1,"byteOffset":4024},{"name":"dokukurage-Mesh_10_indices","componentType":5123,"count":504,"min":[0],"max":[147],"type":"SCALAR","bufferView":2,"byteOffset":2960},{"name":"dokukurage-Mesh_11_positions","componentType":5126,"count":26,"min":[-0.5692510008811951,-2.647550106048584,4.873439788818359],"max":[0.5692510008811951,4.311220169067383,11.732399940490723],"type":"VEC3","bufferView":0,"byteOffset":7812},{"name":"dokukurage-Mesh_11_texcoords","componentType":5126,"count":26,"min":[0.056067001074552536,-0.20322999358177185],"max":[0.943930983543396,1.5444530248641968],"type":"VEC2","bufferView":1,"byteOffset":5208},{"name":"dokukurage-Mesh_11_indices","componentType":5123,"count":120,"min":[0],"max":[25],"type":"SCALAR","bufferView":2,"byteOffset":3968}],"asset":{"generator":"obj2gltf","version":"2.0"},"buffers":[{"name":"BR_Tentacruel-Shiny01","byteLength":113036,"uri":"data:application/octet-stream;base64,"}],"bufferViews":[{"name":"bufferView_0","buffer":0,"byteLength":8124,"byteOffset":0,"byteStride":12,"target":34962},{"name":"bufferView_1","buffer":0,"byteLength":5416,"byteOffset":8124,"byteStride":8,"target":34962},{"name":"bufferView_2","buffer":0,"byteLength":4208,"byteOffset":13540,"target":34963},{"buffer":0,"byteOffset":17748,"byteLength":4114},{"buffer":0,"byteOffset":21862,"byteLength":8210},{"buffer":0,"byteOffset":30072,"byteLength":8210},{"buffer":0,"byteOffset":38282,"byteLength":418},{"buffer":0,"byteOffset":38700,"byteLength":8210},{"buffer":0,"byteOffset":46910,"byteLength":8210},{"buffer":0,"byteOffset":55120,"byteLength":8210},{"buffer":0,"byteOffset":63330,"byteLength":418},{"buffer":0,"byteOffset":63748,"byteLength":32786},{"buffer":0,"byteOffset":96534,"byteLength":8210},{"buffer":0,"byteOffset":104744,"byteLength":82},{"buffer":0,"byteOffset":104826,"byteLength":8210}],"images":[{"name":"dokukurage_1_0","mimeType":"image/x-tga","bufferView":3},{"name":"dokukurage_1_1","mimeType":"image/x-tga","bufferView":4},{"name":"dokukurage_1_2","mimeType":"image/x-tga","bufferView":5},{"name":"dokukurage_1_3","mimeType":"image/x-tga","bufferView":6},{"name":"dokukurage_1_4","mimeType":"image/x-tga","bufferView":7},{"name":"dokukurage_1_5","mimeType":"image/x-tga","bufferView":8},{"name":"dokukurage_1_6","mimeType":"image/x-tga","bufferView":9},{"name":"dokukurage_1_7","mimeType":"image/x-tga","bufferView":10},{"name":"dokukurage_1_8","mimeType":"image/x-tga","bufferView":11},{"name":"dokukurage_1_9","mimeType":"image/x-tga","bufferView":12},{"name":"dokukurage_1_10","mimeType":"image/x-tga","bufferView":13},{"name":"dokukurage_1_11","mimeType":"image/x-tga","bufferView":14}],"materials":[{"name":"mat_0","pbrMetallicRoughness":{"baseColorTexture":{"index":0},"baseColorFactor":[1,1,1,1],"metallicFactor":0,"roughnessFactor":0.903921569},"emissiveFactor":[0,0,0],"alphaMode":"BLEND","doubleSided":true},{"name":"mat_1","pbrMetallicRoughness":{"baseColorTexture":{"index":1},"baseColorFactor":[1,1,1,1],"metallicFactor":0,"roughnessFactor":0.903921569},"emissiveFactor":[0,0,0],"alphaMode":"BLEND","doubleSided":true},{"name":"mat_2","pbrMetallicRoughness":{"baseColorTexture":{"index":2},"baseColorFactor":[1,1,1,1],"metallicFactor":0,"roughnessFactor":0.903921569},"emissiveFactor":[0,0,0],"alphaMode":"BLEND","doubleSided":true},{"name":"mat_3","pbrMetallicRoughness":{"baseColorTexture":{"index":3},"baseColorFactor":[1,1,1,1],"metallicFactor":0,"roughnessFactor":0.903921569},"emissiveFactor":[0,0,0],"alphaMode":"BLEND","doubleSided":true},{"name":"mat_4","pbrMetallicRoughness":{"baseColorTexture":{"index":4},"baseColorFactor":[1,1,1,1],"metallicFactor":0,"roughnessFactor":0.903921569},"emissiveFactor":[0,0,0],"alphaMode":"BLEND","doubleSided":true},{"name":"mat_5","pbrMetallicRoughness":{"baseColorTexture":{"index":5},"baseColorFactor":[1,1,1,1],"metallicFactor":0,"roughnessFactor":0.903921569},"emissiveFactor":[0,0,0],"alphaMode":"BLEND","doubleSided":true},{"name":"mat_6","pbrMetallicRoughness":{"baseColorTexture":{"index":6},"baseColorFactor":[1,1,1,1],"metallicFactor":0,"roughnessFactor":0.903921569},"emissiveFactor":[0,0,0],"alphaMode":"BLEND","doubleSided":true},{"name":"mat_7","pbrMetallicRoughness":{"baseColorTexture":{"index":7},"baseColorFactor":[1,1,1,1],"metallicFactor":0,"roughnessFactor":0.903921569},"emissiveFactor":[0,0,0],"alphaMode":"BLEND","doubleSided":true},{"name":"mat_8","pbrMetallicRoughness":{"baseColorTexture":{"index":8},"baseColorFactor":[1,1,1,1],"metallicFactor":0,"roughnessFactor":0.903921569},"emissiveFactor":[0,0,0],"alphaMode":"BLEND","doubleSided":true},{"name":"mat_9","pbrMetallicRoughness":{"baseColorTexture":{"index":9},"baseColorFactor":[1,1,1,1],"metallicFactor":0,"roughnessFactor":0.903921569},"emissiveFactor":[0,0,0],"alphaMode":"BLEND","doubleSided":true},{"name":"mat_10","pbrMetallicRoughness":{"baseColorTexture":{"index":10},"baseColorFactor":[1,1,1,1],"metallicFactor":0,"roughnessFactor":0.903921569},"emissiveFactor":[0,0,0],"alphaMode":"BLEND","doubleSided":true},{"name":"mat_11","pbrMetallicRoughness":{"baseColorTexture":{"index":11},"baseColorFactor":[1,1,1,1],"metallicFactor":0,"roughnessFactor":0.903921569},"emissiveFactor":[0,0,0],"alphaMode":"BLEND","doubleSided":true}],"meshes":[{"name":"dokukurage-Mesh","primitives":[{"attributes":{"POSITION":0,"TEXCOORD_0":1},"indices":2,"material":0,"mode":4},{"attributes":{"POSITION":3,"TEXCOORD_0":4},"indices":5,"material":1,"mode":4},{"attributes":{"POSITION":6,"TEXCOORD_0":7},"indices":8,"material":2,"mode":4},{"attributes":{"POSITION":9,"TEXCOORD_0":10},"indices":11,"material":3,"mode":4},{"attributes":{"POSITION":12,"TEXCOORD_0":13},"indices":14,"material":4,"mode":4},{"attributes":{"POSITION":15,"TEXCOORD_0":16},"indices":17,"material":5,"mode":4},{"attributes":{"POSITION":18,"TEXCOORD_0":19},"indices":20,"material":6,"mode":4},{"attributes":{"POSITION":21,"TEXCOORD_0":22},"indices":23,"material":7,"mode":4},{"attributes":{"POSITION":24,"TEXCOORD_0":25},"indices":26,"material":8,"mode":4},{"attributes":{"POSITION":27,"TEXCOORD_0":28},"indices":29,"material":9,"mode":4},{"attributes":{"POSITION":30,"TEXCOORD_0":31},"indices":32,"material":10,"mode":4},{"attributes":{"POSITION":33,"TEXCOORD_0":34},"indices":35,"material":11,"mode":4}]}],"nodes":[{"name":"dokukurage","mesh":0}],"samplers":[{"wrapS":10497,"wrapT":10497}],"scene":0,"scenes":[{"nodes":[0]}],"textures":[{"name":"dokukurage_1_0","sampler":0,"source":0},{"name":"dokukurage_1_1","sampler":0,"source":1},{"name":"dokukurage_1_2","sampler":0,"source":2},{"name":"dokukurage_1_3","sampler":0,"source":3},{"name":"dokukurage_1_4","sampler":0,"source":4},{"name":"dokukurage_1_5","sampler":0,"source":5},{"name":"dokukurage_1_6","sampler":0,"source":6},{"name":"dokukurage_1_7","sampler":0,"source":7},{"name":"dokukurage_1_8","sampler":0,"source":8},{"name":"dokukurage_1_9","sampler":0,"source":9},{"name":"dokukurage_1_10","sampler":0,"source":10},{"name":"dokukurage_1_11","sampler":0,"source":11}]}