{"accessors":[{"name":"polygon0_1_0_positions","componentType":5126,"count":10,"min":[-1.4884450435638428,2.040041923522949,1.2251689434051514],"max":[1.4884450435638428,2.883697032928467,1.8455389738082886],"type":"VEC3","bufferView":0,"byteOffset":0},{"name":"polygon0_1_0_normals","componentType":5126,"count":10,"min":[-0.6757237315177917,-0.6428718566894531,0.5962321162223816],"max":[0.6757237315177917,0.6244901418685913,0.8919422030448914],"type":"VEC3","bufferView":1,"byteOffset":0},{"name":"polygon0_1_0_texcoords","componentType":5126,"count":10,"min":[0.023437999188899994,0.019531000405550003],"max":[0.4804689884185791,0.2304690033197403],"type":"VEC2","bufferView":2,"byteOffset":0},{"name":"polygon0_1_0_indices","componentType":5123,"count":18,"min":[0],"max":[9],"type":"SCALAR","bufferView":3,"byteOffset":0},{"name":"polygon1_1_0_positions","componentType":5126,"count":865,"min":[-7.271109104156494,0.03831100091338158,-1.9738620519638062],"max":[7.271109104156494,4.51700496673584,4.075211048126221],"type":"VEC3","bufferView":0,"byteOffset":120},{"name":"polygon1_1_0_normals","componentType":5126,"count":865,"min":[-0.9950737953186035,-0.998429000377655,-0.9975162744522095],"max":[0.9950729608535767,0.9998918175697327,0.9999563694000244],"type":"VEC3","bufferView":1,"byteOffset":120},{"name":"polygon1_1_0_texcoords","componentType":5126,"count":865,"min":[0.0070500001311302185,0.011138999834656715],"max":[0.9865109920501709,0.9884639978408813],"type":"VEC2","bufferView":2,"byteOffset":80},{"name":"polygon1_1_0_indices","componentType":5123,"count":3510,"min":[0],"max":[864],"type":"SCALAR","bufferView":3,"byteOffset":36}],"asset":{"generator":"obj2gltf","version":"2.0"},"buffers":[{"name":"Geodude","byteLength":330004,"uri":"data:application/octet-stream;base64,"}],"bufferViews":[{"name":"bufferView_0","buffer":0,"byteLength":10500,"byteOffset":0,"byteStride":12,"target":34962},{"name":"bufferView_1","buffer":0,"byteLength":10500,"byteOffset":10500,"byteStride":12,"target":34962},{"name":"bufferView_2","buffer":0,"byteLength":7000,"byteOffset":21000,"byteStride":8,"target":34962},{"name":"bufferView_3","buffer":0,"byteLength":7056,"byteOffset":28000,"target":34963},{"buffer":0,"byteOffset":35056,"byteLength":98322},{"buffer":0,"byteOffset":133378,"byteLength":196626}],"images":[{"name":"IsitsubuteEyeDh","mimeType":"image/x-tga","bufferView":4},{"name":"IsitsubuteDh","mimeType":"image/x-tga","bufferView":5}],"materials":[{"name":"mat2","pbrMetallicRoughness":{"baseColorTexture":{"index":0},"baseColorFactor":[1,1,1,1],"metallicFactor":0,"roughnessFactor":0.99},"emissiveFactor":[0,0,0],"alphaMode":"OPAQUE","doubleSided":false},{"name":"mat1","pbrMetallicRoughness":{"baseColorTexture":{"index":1},"baseColorFactor":[1,1,1,1],"metallicFactor":0,"roughnessFactor":0.99},"emissiveFactor":[0,0,0],"alphaMode":"OPAQUE","doubleSided":false}],"meshes":[{"name":"polygon0_1","primitives":[{"attributes":{"POSITION":0,"NORMAL":1,"TEXCOORD_0":2},"indices":3,"material":0,"mode":4}]},{"name":"polygon1_1","primitives":[{"attributes":{"POSITION":4,"NORMAL":5,"TEXCOORD_0":6},"indices":7,"material":1,"mode":4}]}],"nodes":[{"name":"polygon0","mesh":0},{"name":"polygon1","mesh":1}],"samplers":[{"wrapS":10497,"wrapT":10497}],"scene":0,"scenes":[{"nodes":[0,1]}],"textures":[{"name":"IsitsubuteEyeDh","sampler":0,"source":0},{"name":"IsitsubuteDh","sampler":0,"source":1}]}