{"accessors":[{"name":"golone-Mesh_0_positions","componentType":5126,"count":227,"min":[-4.099761009216309,0.7278339862823486,-7.910975933074951],"max":[4.09977912902832,4.913790225982666,-0.5960929989814758],"type":"VEC3","bufferView":0,"byteOffset":0},{"name":"golone-Mesh_0_texcoords","componentType":5126,"count":227,"min":[0.07446199655532837,0.0014189999783411622],"max":[0.9826340079307556,0.963487982749939],"type":"VEC2","bufferView":1,"byteOffset":0},{"name":"golone-Mesh_0_indices","componentType":5123,"count":381,"min":[0],"max":[226],"type":"SCALAR","bufferView":2,"byteOffset":0},{"name":"golone-Mesh_1_positions","componentType":5126,"count":26,"min":[-0.14308999478816986,-3.3181629180908203,-7.992588996887207],"max":[4.5512919425964355,2.725898027420044,-0.5960929989814758],"type":"VEC3","bufferView":0,"byteOffset":2724},{"name":"golone-Mesh_1_texcoords","componentType":5126,"count":26,"min":[0.02776000089943409,0.0022319999989122152],"max":[1,1],"type":"VEC2","bufferView":1,"byteOffset":1816},{"name":"golone-Mesh_1_indices","componentType":5123,"count":54,"min":[0],"max":[25],"type":"SCALAR","bufferView":2,"byteOffset":764},{"name":"golone-Mesh_2_positions","componentType":5126,"count":44,"min":[-4.549997806549072,-2.5791449546813965,-10.050406455993652],"max":[4.5512919425964355,3.650192975997925,-6.127895832061768],"type":"VEC3","bufferView":0,"byteOffset":3036},{"name":"golone-Mesh_2_texcoords","componentType":5126,"count":44,"min":[0,0],"max":[1,0.9999989867210388],"type":"VEC2","bufferView":1,"byteOffset":2024},{"name":"golone-Mesh_2_indices","componentType":5123,"count":138,"min":[0],"max":[43],"type":"SCALAR","bufferView":2,"byteOffset":872},{"name":"golone-Mesh_3_positions","componentType":5126,"count":29,"min":[-4.622470855712891,-2.9505929946899414,-9.037301063537598],"max":[-0.9477390050888062,2.725900888442993,-1.31951904296875],"type":"VEC3","bufferView":0,"byteOffset":3564},{"name":"golone-Mesh_3_texcoords","componentType":5126,"count":29,"min":[0,0.026785999536514282],"max":[0.9999989867210388,1],"type":"VEC2","bufferView":1,"byteOffset":2376},{"name":"golone-Mesh_3_indices","componentType":5123,"count":63,"min":[0],"max":[28],"type":"SCALAR","bufferView":2,"byteOffset":1148},{"name":"golone-Mesh_4_positions","componentType":5126,"count":38,"min":[-4.622470855712891,-4.439023971557617,-9.078421592712402],"max":[3.966291904449463,-1.3286889791488647,-1.604375958442688],"type":"VEC3","bufferView":0,"byteOffset":3912},{"name":"golone-Mesh_4_texcoords","componentType":5126,"count":38,"min":[0,0],"max":[1,1],"type":"VEC2","bufferView":1,"byteOffset":2608},{"name":"golone-Mesh_4_indices","componentType":5123,"count":90,"min":[0],"max":[37],"type":"SCALAR","bufferView":2,"byteOffset":1276},{"name":"golone-Mesh_5_positions","componentType":5126,"count":9,"min":[-3.135308027267456,-3.904046058654785,-2.8495779037475586],"max":[2.4664530754089355,1.9667479991912842,-0.5960929989814758],"type":"VEC3","bufferView":0,"byteOffset":4368},{"name":"golone-Mesh_5_texcoords","componentType":5126,"count":9,"min":[0,0],"max":[0.9999989867210388,1],"type":"VEC2","bufferView":1,"byteOffset":2912},{"name":"golone-Mesh_5_indices","componentType":5123,"count":21,"min":[0],"max":[8],"type":"SCALAR","bufferView":2,"byteOffset":1456},{"name":"golone-Mesh_6_positions","componentType":5126,"count":16,"min":[-1.720108985900879,3.961893081665039,-5.3134870529174805],"max":[1.7201310396194458,4.913790225982666,-4.2786760330200195],"type":"VEC3","bufferView":0,"byteOffset":4476},{"name":"golone-Mesh_6_texcoords","componentType":5126,"count":16,"min":[0.07865499705076218,0.0014619999565184116],"max":[0.9843739867210388,0.10143999755382538],"type":"VEC2","bufferView":1,"byteOffset":2984},{"name":"golone-Mesh_6_indices","componentType":5123,"count":24,"min":[0],"max":[15],"type":"SCALAR","bufferView":2,"byteOffset":1500},{"name":"golone-Mesh_7_positions","componentType":5126,"count":10,"min":[-1.749351978302002,3.5892510414123535,-4.189644813537598],"max":[1.7493679523468018,4.5030741691589355,-4.062228202819824],"type":"VEC3","bufferView":0,"byteOffset":4668},{"name":"golone-Mesh_7_texcoords","componentType":5126,"count":10,"min":[0.000028000000384054147,-0.0022100000642240047],"max":[1.0002199411392212,0.795149028301239],"type":"VEC2","bufferView":1,"byteOffset":3112},{"name":"golone-Mesh_7_indices","componentType":5123,"count":18,"min":[0],"max":[9],"type":"SCALAR","bufferView":2,"byteOffset":1548},{"name":"golone-Mesh_8_positions","componentType":5126,"count":582,"min":[-7.5258870124816895,0.4914120137691498,-7.193231105804443],"max":[8.279850006103516,7.048669815063477,-1.2015739679336548],"type":"VEC3","bufferView":0,"byteOffset":4788},{"name":"golone-Mesh_8_texcoords","componentType":5126,"count":582,"min":[0.008834999985992908,0.1150439977645874],"max":[0.9808599948883057,0.9857109785079956],"type":"VEC2","bufferView":1,"byteOffset":3192},{"name":"golone-Mesh_8_indices","componentType":5123,"count":999,"min":[0],"max":[581],"type":"SCALAR","bufferView":2,"byteOffset":1584},{"name":"golone-Mesh_9_positions","componentType":5126,"count":48,"min":[-7.5258870124816895,3.2623701095581055,-6.577054977416992],"max":[8.258889198303223,6.4829301834106445,-1.5990439653396606],"type":"VEC3","bufferView":0,"byteOffset":11772},{"name":"golone-Mesh_9_texcoords","componentType":5126,"count":48,"min":[0,0],"max":[1,1],"type":"VEC2","bufferView":1,"byteOffset":7848},{"name":"golone-Mesh_9_indices","componentType":5123,"count":96,"min":[0],"max":[47],"type":"SCALAR","bufferView":2,"byteOffset":3584},{"name":"golone-Mesh_10_positions","componentType":5126,"count":58,"min":[-3.6603400707244873,-1.432770013809204,-3.3755691051483154],"max":[3.6607398986816406,1.8896470069885254,0.004699000157415867],"type":"VEC3","bufferView":0,"byteOffset":12348},{"name":"golone-Mesh_10_texcoords","componentType":5126,"count":58,"min":[0.3110159933567047,0.3662300109863281],"max":[0.7509620189666748,0.9950460195541382],"type":"VEC2","bufferView":1,"byteOffset":8232},{"name":"golone-Mesh_10_indices","componentType":5123,"count":90,"min":[0],"max":[57],"type":"SCALAR","bufferView":2,"byteOffset":3776},{"name":"golone-Mesh_11_positions","componentType":5126,"count":10,"min":[-3.6603400707244873,-1.432770013809204,-0.004554999992251396],"max":[3.6607398986816406,1.9919780492782593,0.004772999789565802],"type":"VEC3","bufferView":0,"byteOffset":13044},{"name":"golone-Mesh_11_texcoords","componentType":5126,"count":10,"min":[-0.023701999336481094,0.05542600154876709],"max":[0.940218985080719,0.948390007019043],"type":"VEC2","bufferView":1,"byteOffset":8696},{"name":"golone-Mesh_11_indices","componentType":5123,"count":18,"min":[0],"max":[9],"type":"SCALAR","bufferView":2,"byteOffset":3956},{"name":"golone-Mesh_12_positions","componentType":5126,"count":24,"min":[-3.6603400707244873,-0.1311739981174469,-0.7136030197143555],"max":[3.6607398986816406,1.9919780492782593,0.004772999789565802],"type":"VEC3","bufferView":0,"byteOffset":13164},{"name":"golone-Mesh_12_texcoords","componentType":5126,"count":24,"min":[0.012152999639511108,0],"max":[1,1],"type":"VEC2","bufferView":1,"byteOffset":8776},{"name":"golone-Mesh_12_indices","componentType":5123,"count":42,"min":[0],"max":[23],"type":"SCALAR","bufferView":2,"byteOffset":3992}],"asset":{"generator":"obj2gltf","version":"2.0"},"buffers":[{"name":"BR_Graveler-Shiny01","byteLength":120940,"uri":"data:application/octet-stream;base64,"}],"bufferViews":[{"name":"bufferView_0","buffer":0,"byteLength":13452,"byteOffset":0,"byteStride":12,"target":34962},{"name":"bufferView_1","buffer":0,"byteLength":8968,"byteOffset":13452,"byteStride":8,"target":34962},{"name":"bufferView_2","buffer":0,"byteLength":4076,"byteOffset":22420,"target":34963},{"buffer":0,"byteOffset":26496,"byteLength":4114},{"buffer":0,"byteOffset":30610,"byteLength":4114},{"buffer":0,"byteOffset":34724,"byteLength":4114},{"buffer":0,"byteOffset":38838,"byteLength":4114},{"buffer":0,"byteOffset":42952,"byteLength":4114},{"buffer":0,"byteOffset":47066,"byteLength":4114},{"buffer":0,"byteOffset":51180,"byteLength":32786},{"buffer":0,"byteOffset":83966,"byteLength":8210},{"buffer":0,"byteOffset":92176,"byteLength":4114},{"buffer":0,"byteOffset":96290,"byteLength":4114},{"buffer":0,"byteOffset":100404,"byteLength":4114},{"buffer":0,"byteOffset":104518,"byteLength":8210},{"buffer":0,"byteOffset":112728,"byteLength":8210}],"images":[{"name":"golone_1_0","mimeType":"image/x-tga","bufferView":3},{"name":"golone_1_1","mimeType":"image/x-tga","bufferView":4},{"name":"golone_1_2","mimeType":"image/x-tga","bufferView":5},{"name":"golone_1_3","mimeType":"image/x-tga","bufferView":6},{"name":"golone_1_4","mimeType":"image/x-tga","bufferView":7},{"name":"golone_1_5","mimeType":"image/x-tga","bufferView":8},{"name":"golone_1_6","mimeType":"image/x-tga","bufferView":9},{"name":"golone_1_7","mimeType":"image/x-tga","bufferView":10},{"name":"golone_1_8","mimeType":"image/x-tga","bufferView":11},{"name":"golone_1_9","mimeType":"image/x-tga","bufferView":12},{"name":"golone_1_10","mimeType":"image/x-tga","bufferView":13},{"name":"golone_1_11","mimeType":"image/x-tga","bufferView":14},{"name":"golone_1_12","mimeType":"image/x-tga","bufferView":15}],"materials":[{"name":"mat_0","pbrMetallicRoughness":{"baseColorTexture":{"index":0},"baseColorFactor":[1,1,1,1],"metallicFactor":0,"roughnessFactor":0.903921569},"emissiveFactor":[0,0,0],"alphaMode":"BLEND","doubleSided":true},{"name":"mat_1","pbrMetallicRoughness":{"baseColorTexture":{"index":1},"baseColorFactor":[1,1,1,1],"metallicFactor":0,"roughnessFactor":0.903921569},"emissiveFactor":[0,0,0],"alphaMode":"BLEND","doubleSided":true},{"name":"mat_2","pbrMetallicRoughness":{"baseColorTexture":{"index":2},"baseColorFactor":[1,1,1,1],"metallicFactor":0,"roughnessFactor":0.903921569},"emissiveFactor":[0,0,0],"alphaMode":"BLEND","doubleSided":true},{"name":"mat_3","pbrMetallicRoughness":{"baseColorTexture":{"index":3},"baseColorFactor":[1,1,1,1],"metallicFactor":0,"roughnessFactor":0.903921569},"emissiveFactor":[0,0,0],"alphaMode":"BLEND","doubleSided":true},{"name":"mat_4","pbrMetallicRoughness":{"baseColorTexture":{"index":4},"baseColorFactor":[1,1,1,1],"metallicFactor":0,"roughnessFactor":0.903921569},"emissiveFactor":[0,0,0],"alphaMode":"BLEND","doubleSided":true},{"name":"mat_5","pbrMetallicRoughness":{"baseColorTexture":{"index":5},"baseColorFactor":[1,1,1,1],"metallicFactor":0,"roughnessFactor":0.903921569},"emissiveFactor":[0,0,0],"alphaMode":"BLEND","doubleSided":true},{"name":"mat_6","pbrMetallicRoughness":{"baseColorTexture":{"index":6},"baseColorFactor":[1,1,1,1],"metallicFactor":0,"roughnessFactor":0.903921569},"emissiveFactor":[0,0,0],"alphaMode":"BLEND","doubleSided":true},{"name":"mat_7","pbrMetallicRoughness":{"baseColorTexture":{"index":7},"baseColorFactor":[1,1,1,1],"metallicFactor":0,"roughnessFactor":0.903921569},"emissiveFactor":[0,0,0],"alphaMode":"BLEND","doubleSided":true},{"name":"mat_8","pbrMetallicRoughness":{"baseColorTexture":{"index":8},"baseColorFactor":[1,1,1,1],"metallicFactor":0,"roughnessFactor":0.903921569},"emissiveFactor":[0,0,0],"alphaMode":"BLEND","doubleSided":true},{"name":"mat_9","pbrMetallicRoughness":{"baseColorTexture":{"index":9},"baseColorFactor":[1,1,1,1],"metallicFactor":0,"roughnessFactor":0.903921569},"emissiveFactor":[0,0,0],"alphaMode":"BLEND","doubleSided":true},{"name":"mat_10","pbrMetallicRoughness":{"baseColorTexture":{"index":10},"baseColorFactor":[1,1,1,1],"metallicFactor":0,"roughnessFactor":0.903921569},"emissiveFactor":[0,0,0],"alphaMode":"BLEND","doubleSided":true},{"name":"mat_11","pbrMetallicRoughness":{"baseColorTexture":{"index":11},"baseColorFactor":[1,1,1,1],"metallicFactor":0,"roughnessFactor":0.903921569},"emissiveFactor":[0,0,0],"alphaMode":"BLEND","doubleSided":true},{"name":"mat_12","pbrMetallicRoughness":{"baseColorTexture":{"index":12},"baseColorFactor":[1,1,1,1],"metallicFactor":0,"roughnessFactor":0.903921569},"emissiveFactor":[0,0,0],"alphaMode":"BLEND","doubleSided":true}],"meshes":[{"name":"golone-Mesh","primitives":[{"attributes":{"POSITION":0,"TEXCOORD_0":1},"indices":2,"material":0,"mode":4},{"attributes":{"POSITION":3,"TEXCOORD_0":4},"indices":5,"material":1,"mode":4},{"attributes":{"POSITION":6,"TEXCOORD_0":7},"indices":8,"material":2,"mode":4},{"attributes":{"POSITION":9,"TEXCOORD_0":10},"indices":11,"material":3,"mode":4},{"attributes":{"POSITION":12,"TEXCOORD_0":13},"indices":14,"material":4,"mode":4},{"attributes":{"POSITION":15,"TEXCOORD_0":16},"indices":17,"material":5,"mode":4},{"attributes":{"POSITION":18,"TEXCOORD_0":19},"indices":20,"material":6,"mode":4},{"attributes":{"POSITION":21,"TEXCOORD_0":22},"indices":23,"material":7,"mode":4},{"attributes":{"POSITION":24,"TEXCOORD_0":25},"indices":26,"material":8,"mode":4},{"attributes":{"POSITION":27,"TEXCOORD_0":28},"indices":29,"material":9,"mode":4},{"attributes":{"POSITION":30,"TEXCOORD_0":31},"indices":32,"material":10,"mode":4},{"attributes":{"POSITION":33,"TEXCOORD_0":34},"indices":35,"material":11,"mode":4},{"attributes":{"POSITION":36,"TEXCOORD_0":37},"indices":38,"material":12,"mode":4}]}],"nodes":[{"name":"golone","mesh":0}],"samplers":[{"wrapS":10497,"wrapT":10497}],"scene":0,"scenes":[{"nodes":[0]}],"textures":[{"name":"golone_1_0","sampler":0,"source":0},{"name":"golone_1_1","sampler":0,"source":1},{"name":"golone_1_2","sampler":0,"source":2},{"name":"golone_1_3","sampler":0,"source":3},{"name":"golone_1_4","sampler":0,"source":4},{"name":"golone_1_5","sampler":0,"source":5},{"name":"golone_1_6","sampler":0,"source":6},{"name":"golone_1_7","sampler":0,"source":7},{"name":"golone_1_8","sampler":0,"source":8},{"name":"golone_1_9","sampler":0,"source":9},{"name":"golone_1_10","sampler":0,"source":10},{"name":"golone_1_11","sampler":0,"source":11},{"name":"golone_1_12","sampler":0,"source":12}]}