{"accessors":[{"name":"polygon0_1_0_positions","componentType":5126,"count":24,"min":[-1.4633129835128784,6.412333011627197,5.952390193939209],"max":[1.4633129835128784,7.203354835510254,7.486985206604004],"type":"VEC3","bufferView":0,"byteOffset":0},{"name":"polygon0_1_0_normals","componentType":5126,"count":24,"min":[-0.8281959891319275,0.16983802616596222,0.4500519931316376],"max":[0.8281959891319275,0.6049971580505371,0.6606401205062866],"type":"VEC3","bufferView":1,"byteOffset":0},{"name":"polygon0_1_0_texcoords","componentType":5126,"count":24,"min":[0.027343999594449997,0.027343999594449997],"max":[0.4882810115814209,0.2304690033197403],"type":"VEC2","bufferView":2,"byteOffset":0},{"name":"polygon0_1_0_indices","componentType":5123,"count":60,"min":[0],"max":[23],"type":"SCALAR","bufferView":3,"byteOffset":0},{"name":"polygon1_1_0_positions","componentType":5126,"count":934,"min":[-7.572526931762695,-9.999999974752427e-7,-2.294481039047241],"max":[7.532526969909668,7.779047012329102,8.419082641601562],"type":"VEC3","bufferView":0,"byteOffset":288},{"name":"polygon1_1_0_normals","componentType":5126,"count":934,"min":[-0.9981003403663635,-1,-0.9771491289138794],"max":[0.9981002807617188,0.9837386608123779,0.9999476671218872],"type":"VEC3","bufferView":1,"byteOffset":288},{"name":"polygon1_1_0_texcoords","componentType":5126,"count":934,"min":[0.0013119999784976244,0.016112999990582466],"max":[0.9891049861907959,0.98956298828125],"type":"VEC2","bufferView":2,"byteOffset":192},{"name":"polygon1_1_0_indices","componentType":5123,"count":3540,"min":[0],"max":[933],"type":"SCALAR","bufferView":3,"byteOffset":120},{"name":"polygon2_1_0_positions","componentType":5126,"count":928,"min":[-5.953094005584717,2.0565500259399414,-6.314947128295898],"max":[5.828199863433838,13.932299613952637,5.975649833679199],"type":"VEC3","bufferView":0,"byteOffset":11496},{"name":"polygon2_1_0_normals","componentType":5126,"count":928,"min":[-0.991985023021698,-0.9853367805480957,-0.9994727373123169],"max":[0.9962139129638672,0.9913114309310913,0.9994094371795654],"type":"VEC3","bufferView":1,"byteOffset":11496},{"name":"polygon2_1_0_texcoords","componentType":5126,"count":928,"min":[0.002959999954327941,0.5168759822845459],"max":[0.40432700514793396,0.9947509765625],"type":"VEC2","bufferView":2,"byteOffset":7664},{"name":"polygon2_1_0_indices","componentType":5123,"count":948,"min":[0],"max":[927],"type":"SCALAR","bufferView":3,"byteOffset":7200}],"asset":{"generator":"obj2gltf","version":"2.0"},"buffers":[{"name":"Golem","byteLength":364396,"uri":"data:application/octet-stream;base64,"}],"bufferViews":[{"name":"bufferView_0","buffer":0,"byteLength":22632,"byteOffset":0,"byteStride":12,"target":34962},{"name":"bufferView_1","buffer":0,"byteLength":22632,"byteOffset":22632,"byteStride":12,"target":34962},{"name":"bufferView_2","buffer":0,"byteLength":15088,"byteOffset":45264,"byteStride":8,"target":34962},{"name":"bufferView_3","buffer":0,"byteLength":9096,"byteOffset":60352,"target":34963},{"buffer":0,"byteOffset":69448,"byteLength":98322},{"buffer":0,"byteOffset":167770,"byteLength":196626}],"images":[{"name":"GolonyaEyeDh","mimeType":"image/x-tga","bufferView":4},{"name":"GolonyaDh","mimeType":"image/x-tga","bufferView":5}],"materials":[{"name":"mat2","pbrMetallicRoughness":{"baseColorTexture":{"index":0},"baseColorFactor":[1,1,1,1],"metallicFactor":0,"roughnessFactor":0.99},"emissiveFactor":[0,0,0],"alphaMode":"OPAQUE","doubleSided":false},{"name":"mat1","pbrMetallicRoughness":{"baseColorTexture":{"index":1},"baseColorFactor":[1,1,1,1],"metallicFactor":0,"roughnessFactor":0.99},"emissiveFactor":[0,0,0],"alphaMode":"OPAQUE","doubleSided":false}],"meshes":[{"name":"polygon0_1","primitives":[{"attributes":{"POSITION":0,"NORMAL":1,"TEXCOORD_0":2},"indices":3,"material":0,"mode":4}]},{"name":"polygon1_1","primitives":[{"attributes":{"POSITION":4,"NORMAL":5,"TEXCOORD_0":6},"indices":7,"material":1,"mode":4}]},{"name":"polygon2_1","primitives":[{"attributes":{"POSITION":8,"NORMAL":9,"TEXCOORD_0":10},"indices":11,"material":1,"mode":4}]}],"nodes":[{"name":"polygon0","mesh":0},{"name":"polygon1","mesh":1},{"name":"polygon2","mesh":2}],"samplers":[{"wrapS":10497,"wrapT":10497}],"scene":0,"scenes":[{"nodes":[0,1,2]}],"textures":[{"name":"GolonyaEyeDh","sampler":0,"source":0},{"name":"GolonyaDh","sampler":0,"source":1}]}