{"accessors":[{"name":"polygon0_1_0_positions","componentType":5126,"count":18,"min":[-0.9016960263252258,8.318744659423828,3.2187891006469727],"max":[0.9016939997673035,9.264201164245605,4.213613033294678],"type":"VEC3","bufferView":0,"byteOffset":0},{"name":"polygon0_1_0_normals","componentType":5126,"count":18,"min":[-0.9896596670150757,-0.29669809341430664,0.10448896139860153],"max":[0.9896596670150757,0.318850040435791,0.5897861123085022],"type":"VEC3","bufferView":1,"byteOffset":0},{"name":"polygon0_1_0_texcoords","componentType":5126,"count":18,"min":[0.015625,0.011718999594449997],"max":[0.4804689884185791,0.25],"type":"VEC2","bufferView":2,"byteOffset":0},{"name":"polygon0_1_0_indices","componentType":5123,"count":48,"min":[0],"max":[17],"type":"SCALAR","bufferView":3,"byteOffset":0},{"name":"polygon1_1_0_positions","componentType":5126,"count":569,"min":[-1.569314956665039,-9.999999974752427e-7,-4.376214981079102],"max":[1.569314956665039,10.433709144592285,5.162137031555176],"type":"VEC3","bufferView":0,"byteOffset":216},{"name":"polygon1_1_0_normals","componentType":5126,"count":569,"min":[-0.9994527697563171,-0.9998854398727417,-0.9987349510192871],"max":[0.9994527697563171,0.9996929168701172,0.9969531297683716],"type":"VEC3","bufferView":1,"byteOffset":216},{"name":"polygon1_1_0_texcoords","componentType":5126,"count":569,"min":[0.010803000070154667,0.006744000129401684],"max":[0.9924619793891907,0.9785159826278687],"type":"VEC2","bufferView":2,"byteOffset":144},{"name":"polygon1_1_0_indices","componentType":5123,"count":2676,"min":[0],"max":[568],"type":"SCALAR","bufferView":3,"byteOffset":96},{"name":"polygon2_1_0_positions","componentType":5126,"count":260,"min":[-1.3104350566864014,2.7514379024505615,-9.189801216125488],"max":[1.3173229694366455,11.792807579040527,4.369402885437012],"type":"VEC3","bufferView":0,"byteOffset":7044},{"name":"polygon2_1_0_normals","componentType":5126,"count":260,"min":[-0.9999718070030212,-0.9996543526649475,-0.9942414164543152],"max":[0.9999822378158569,0.9979422688484192,0.9966164231300354],"type":"VEC3","bufferView":1,"byteOffset":7044},{"name":"polygon2_1_0_texcoords","componentType":5126,"count":260,"min":[0.008330999873578548,0.3657529950141907],"max":[0.1584780067205429,1.0007319450378418],"type":"VEC2","bufferView":2,"byteOffset":4696},{"name":"polygon2_1_0_indices","componentType":5123,"count":1068,"min":[0],"max":[259],"type":"SCALAR","bufferView":3,"byteOffset":5448},{"name":"polygon3_1_0_positions","componentType":5126,"count":555,"min":[-1.8336989879608154,2.7677459716796875,-9.823330879211426],"max":[1.7814569473266602,12.581945419311523,4.353793144226074],"type":"VEC3","bufferView":0,"byteOffset":10164},{"name":"polygon3_1_0_normals","componentType":5126,"count":555,"min":[-0.9999694228172302,-0.9990423321723938,-0.5661720037460327],"max":[0.9999694228172302,0.9827172160148621,0.9111955761909485],"type":"VEC3","bufferView":1,"byteOffset":10164},{"name":"polygon3_1_0_texcoords","componentType":5126,"count":555,"min":[-0.1380620002746582,0],"max":[2.542479991912842,1],"type":"VEC2","bufferView":2,"byteOffset":6776},{"name":"polygon3_1_0_indices","componentType":5123,"count":1656,"min":[0],"max":[554],"type":"SCALAR","bufferView":3,"byteOffset":7584},{"name":"polygon4_1_0_positions","componentType":5126,"count":245,"min":[-1.363402009010315,5.873254776000977,-9.21359920501709],"max":[1.3701950311660767,11.840635299682617,4.409449100494385],"type":"VEC3","bufferView":0,"byteOffset":16824},{"name":"polygon4_1_0_normals","componentType":5126,"count":245,"min":[-0.9781858921051025,-0.9997397065162659,-0.9961637258529663],"max":[0.9835650324821472,0.9866021871566772,0.9974184036254883],"type":"VEC3","bufferView":1,"byteOffset":16824},{"name":"polygon4_1_0_texcoords","componentType":5126,"count":245,"min":[0.10058599710464478,-0.08154299855232239],"max":[2.988403081893921,1.031738042831421],"type":"VEC2","bufferView":2,"byteOffset":11216},{"name":"polygon4_1_0_indices","componentType":5123,"count":816,"min":[0],"max":[244],"type":"SCALAR","bufferView":3,"byteOffset":10896}],"asset":{"generator":"obj2gltf","version":"2.0"},"buffers":[{"name":"Ponyta","byteLength":214792,"uri":"data:application/octet-stream;base64,"}],"bufferViews":[{"name":"bufferView_0","buffer":0,"byteLength":19764,"byteOffset":0,"byteStride":12,"target":34962},{"name":"bufferView_1","buffer":0,"byteLength":19764,"byteOffset":19764,"byteStride":12,"target":34962},{"name":"bufferView_2","buffer":0,"byteLength":13176,"byteOffset":39528,"byteStride":8,"target":34962},{"name":"bufferView_3","buffer":0,"byteLength":12528,"byteOffset":52704,"target":34963},{"buffer":0,"byteOffset":65232,"byteLength":98322},{"buffer":0,"byteOffset":163554,"byteLength":49170},{"buffer":0,"byteOffset":212724,"byteLength":2066}],"images":[{"name":"PonytaEyeDh","mimeType":"image/x-tga","bufferView":4},{"name":"PonytaDh","mimeType":"image/x-tga","bufferView":5},{"name":"PonytaFire.001","mimeType":"image/x-tga","bufferView":6}],"materials":[{"name":"mat3","pbrMetallicRoughness":{"baseColorTexture":{"index":0},"baseColorFactor":[1,1,1,1],"metallicFactor":0,"roughnessFactor":0.99},"emissiveFactor":[0,0,0],"alphaMode":"OPAQUE","doubleSided":false},{"name":"mat1","pbrMetallicRoughness":{"baseColorTexture":{"index":1},"baseColorFactor":[1,1,1,1],"metallicFactor":0,"roughnessFactor":0.99},"emissiveFactor":[0,0,0],"alphaMode":"OPAQUE","doubleSided":false},{"name":"mat2","pbrMetallicRoughness":{"baseColorTexture":{"index":1},"baseColorFactor":[1,1,1,1],"metallicFactor":0,"roughnessFactor":0.99},"emissiveFactor":[0,0,0],"alphaMode":"OPAQUE","doubleSided":false},{"name":"mat4","pbrMetallicRoughness":{"baseColorTexture":{"index":2},"baseColorFactor":[1,1,1,1],"metallicFactor":0,"roughnessFactor":0.99},"emissiveFactor":[0,0,0],"alphaMode":"OPAQUE","doubleSided":false},{"name":"mat5","pbrMetallicRoughness":{"baseColorTexture":{"index":2},"baseColorFactor":[1,1,1,1],"metallicFactor":0,"roughnessFactor":0.99},"emissiveFactor":[0,0,0],"alphaMode":"OPAQUE","doubleSided":false}],"meshes":[{"name":"polygon0_1","primitives":[{"attributes":{"POSITION":0,"NORMAL":1,"TEXCOORD_0":2},"indices":3,"material":0,"mode":4}]},{"name":"polygon1_1","primitives":[{"attributes":{"POSITION":4,"NORMAL":5,"TEXCOORD_0":6},"indices":7,"material":1,"mode":4}]},{"name":"polygon2_1","primitives":[{"attributes":{"POSITION":8,"NORMAL":9,"TEXCOORD_0":10},"indices":11,"material":2,"mode":4}]},{"name":"polygon3_1","primitives":[{"attributes":{"POSITION":12,"NORMAL":13,"TEXCOORD_0":14},"indices":15,"material":3,"mode":4}]},{"name":"polygon4_1","primitives":[{"attributes":{"POSITION":16,"NORMAL":17,"TEXCOORD_0":18},"indices":19,"material":4,"mode":4}]}],"nodes":[{"name":"polygon0","mesh":0},{"name":"polygon1","mesh":1},{"name":"polygon2","mesh":2},{"name":"polygon3","mesh":3},{"name":"polygon4","mesh":4}],"samplers":[{"wrapS":10497,"wrapT":10497}],"scene":0,"scenes":[{"nodes":[0,1,2,3,4]}],"textures":[{"name":"PonytaEyeDh","sampler":0,"source":0},{"name":"PonytaDh","sampler":0,"source":1},{"name":"PonytaFire.001","sampler":0,"source":2}]}