{"accessors":[{"name":"gallop-Mesh_0_positions","componentType":5126,"count":571,"min":[-2.781873941421509,-5.794562816619873,-19.243370056152344],"max":[2.781873941421509,8.567466735839844,-0.00028300000121816993],"type":"VEC3","bufferView":0,"byteOffset":0},{"name":"gallop-Mesh_0_texcoords","componentType":5126,"count":571,"min":[0.044456999748945236,0.02034199982881546],"max":[0.9565349817276001,0.9738540053367615],"type":"VEC2","bufferView":1,"byteOffset":0},{"name":"gallop-Mesh_0_indices","componentType":5123,"count":2838,"min":[0],"max":[570],"type":"SCALAR","bufferView":2,"byteOffset":0},{"name":"gallop-Mesh_1_positions","componentType":5126,"count":19,"min":[-1.1485029458999634,6.187335968017578,-16.092538833618164],"max":[1.1485029458999634,7.58931303024292,-14.567967414855957],"type":"VEC3","bufferView":0,"byteOffset":6852},{"name":"gallop-Mesh_1_texcoords","componentType":5126,"count":19,"min":[0.7875059843063354,-0.051256000995635986],"max":[1.9506200551986694,0.22330500185489655],"type":"VEC2","bufferView":1,"byteOffset":4568},{"name":"gallop-Mesh_1_indices","componentType":5123,"count":36,"min":[0],"max":[18],"type":"SCALAR","bufferView":2,"byteOffset":5676}],"asset":{"generator":"obj2gltf","version":"2.0"},"buffers":[{"name":"BR_Rapidash-Shiny01","byteLength":1197232,"uri":"data:application/octet-stream;base64,"}],"bufferViews":[{"name":"bufferView_0","buffer":0,"byteLength":7080,"byteOffset":0,"byteStride":12,"target":34962},{"name":"bufferView_1","buffer":0,"byteLength":4720,"byteOffset":7080,"byteStride":8,"target":34962},{"name":"bufferView_2","buffer":0,"byteLength":5748,"byteOffset":11800,"target":34963},{"buffer":0,"byteOffset":17548,"byteLength":1048594},{"buffer":0,"byteOffset":1066142,"byteLength":131090}],"images":[{"name":"gallop_1_0","mimeType":"image/x-tga","bufferView":3},{"name":"gallop_1_1","mimeType":"image/x-tga","bufferView":4}],"materials":[{"name":"mat_0","pbrMetallicRoughness":{"baseColorTexture":{"index":0},"baseColorFactor":[1,1,1,1],"metallicFactor":0,"roughnessFactor":0.903921569},"emissiveFactor":[0,0,0],"alphaMode":"BLEND","doubleSided":true},{"name":"mat_1","pbrMetallicRoughness":{"baseColorTexture":{"index":1},"baseColorFactor":[1,1,1,1],"metallicFactor":0,"roughnessFactor":0.903921569},"emissiveFactor":[0,0,0],"alphaMode":"BLEND","doubleSided":true}],"meshes":[{"name":"gallop-Mesh","primitives":[{"attributes":{"POSITION":0,"TEXCOORD_0":1},"indices":2,"material":0,"mode":4},{"attributes":{"POSITION":3,"TEXCOORD_0":4},"indices":5,"material":1,"mode":4}]}],"nodes":[{"name":"gallop","mesh":0}],"samplers":[{"wrapS":10497,"wrapT":10497}],"scene":0,"scenes":[{"nodes":[0]}],"textures":[{"name":"gallop_1_0","sampler":0,"source":0},{"name":"gallop_1_1","sampler":0,"source":1}]}