{"accessors":[{"name":"polygon0_1_0_positions","componentType":5126,"count":931,"min":[-3.935137987136841,0.01943499967455864,-18.380096435546875],"max":[3.935137987136841,8.737112045288086,7.85406494140625],"type":"VEC3","bufferView":0,"byteOffset":0},{"name":"polygon0_1_0_normals","componentType":5126,"count":931,"min":[-0.9977552890777588,-0.9998682141304016,-0.9836463332176208],"max":[0.9977552890777588,0.9998301267623901,0.9999740123748779],"type":"VEC3","bufferView":1,"byteOffset":0},{"name":"polygon0_1_0_texcoords","componentType":5126,"count":931,"min":[0.01269499957561493,0.007385000120848417],"max":[0.9918820261955261,0.9926760196685791],"type":"VEC2","bufferView":2,"byteOffset":0},{"name":"polygon0_1_0_indices","componentType":5123,"count":4386,"min":[0],"max":[930],"type":"SCALAR","bufferView":3,"byteOffset":0},{"name":"polygon1_1_0_positions","componentType":5126,"count":20,"min":[-2.1705739498138428,3.634187936782837,5.305575847625732],"max":[2.1705739498138428,5.241735935211182,6.494973182678223],"type":"VEC3","bufferView":0,"byteOffset":11172},{"name":"polygon1_1_0_normals","componentType":5126,"count":20,"min":[-0.7926183938980103,0.33026814460754395,0.4711732268333435],"max":[0.7926183938980103,0.7266900539398193,0.6852146983146667],"type":"VEC3","bufferView":1,"byteOffset":11172},{"name":"polygon1_1_0_texcoords","componentType":5126,"count":20,"min":[0.007813000120222569,0.0078119998797774315],"max":[0.4882810115814209,0.2109369933605194],"type":"VEC2","bufferView":2,"byteOffset":7448},{"name":"polygon1_1_0_indices","componentType":5123,"count":60,"min":[0],"max":[19],"type":"SCALAR","bufferView":3,"byteOffset":8772}],"asset":{"generator":"obj2gltf","version":"2.0"},"buffers":[{"name":"Slowpoke","byteLength":334272,"uri":"data:application/octet-stream;base64,"}],"bufferViews":[{"name":"bufferView_0","buffer":0,"byteLength":11412,"byteOffset":0,"byteStride":12,"target":34962},{"name":"bufferView_1","buffer":0,"byteLength":11412,"byteOffset":11412,"byteStride":12,"target":34962},{"name":"bufferView_2","buffer":0,"byteLength":7608,"byteOffset":22824,"byteStride":8,"target":34962},{"name":"bufferView_3","buffer":0,"byteLength":8892,"byteOffset":30432,"target":34963},{"buffer":0,"byteOffset":39324,"byteLength":196626},{"buffer":0,"byteOffset":235950,"byteLength":98322}],"images":[{"name":"YadonDh","mimeType":"image/x-tga","bufferView":4},{"name":"YadonEyeDh","mimeType":"image/x-tga","bufferView":5}],"materials":[{"name":"mat1","pbrMetallicRoughness":{"baseColorTexture":{"index":0},"baseColorFactor":[1,1,1,1],"metallicFactor":0,"roughnessFactor":0.99},"emissiveFactor":[0,0,0],"alphaMode":"OPAQUE","doubleSided":false},{"name":"mat2","pbrMetallicRoughness":{"baseColorTexture":{"index":1},"baseColorFactor":[1,1,1,1],"metallicFactor":0,"roughnessFactor":0.99},"emissiveFactor":[0,0,0],"alphaMode":"OPAQUE","doubleSided":false}],"meshes":[{"name":"polygon0_1","primitives":[{"attributes":{"POSITION":0,"NORMAL":1,"TEXCOORD_0":2},"indices":3,"material":0,"mode":4}]},{"name":"polygon1_1","primitives":[{"attributes":{"POSITION":4,"NORMAL":5,"TEXCOORD_0":6},"indices":7,"material":1,"mode":4}]}],"nodes":[{"name":"polygon0","mesh":0},{"name":"polygon1","mesh":1}],"samplers":[{"wrapS":10497,"wrapT":10497}],"scene":0,"scenes":[{"nodes":[0,1]}],"textures":[{"name":"YadonDh","sampler":0,"source":0},{"name":"YadonEyeDh","sampler":0,"source":1}]}