{"accessors":[{"name":"Slowbro_1_0_positions","componentType":5126,"count":11220,"min":[-63.497196197509766,-0.003604999976232648,-99.49919128417969],"max":[63.49720764160156,147.8820037841797,76.13359832763672],"type":"VEC3","bufferView":0,"byteOffset":0},{"name":"Slowbro_1_0_normals","componentType":5126,"count":11220,"min":[-0.9965299963951111,-0.9979405403137207,-0.7791662812232971],"max":[0.9965304136276245,0.9918674826622009,0.9999331831932068],"type":"VEC3","bufferView":1,"byteOffset":0},{"name":"Slowbro_1_0_texcoords","componentType":5126,"count":11220,"min":[0.004540000110864639,0.004801999777555466],"max":[0.9954599738121033,0.9936670064926147],"type":"VEC2","bufferView":2,"byteOffset":0},{"name":"Slowbro_1_0_indices","componentType":5123,"count":11220,"min":[0],"max":[11219],"type":"SCALAR","bufferView":3,"byteOffset":0},{"name":"Slowbro_1_1_positions","componentType":5126,"count":384,"min":[-30.048200607299805,112.45999908447266,35.165496826171875],"max":[30.048200607299805,140.9340057373047,65.91019439697266],"type":"VEC3","bufferView":0,"byteOffset":134640},{"name":"Slowbro_1_1_normals","componentType":5126,"count":384,"min":[-0.9965299963951111,-0.9842383861541748,-0.9375532269477844],"max":[0.7145369052886963,0.9909898042678833,0.9706438183784485],"type":"VEC3","bufferView":1,"byteOffset":134640},{"name":"Slowbro_1_1_texcoords","componentType":5126,"count":384,"min":[0.004586999770253897,-1.9662699699401855],"max":[0.4954099953174591,-1.819540023803711],"type":"VEC2","bufferView":2,"byteOffset":89760},{"name":"Slowbro_1_1_indices","componentType":5123,"count":384,"min":[0],"max":[383],"type":"SCALAR","bufferView":3,"byteOffset":22440},{"name":"Slowbro_1_2_positions","componentType":5126,"count":4302,"min":[-43.968101501464844,8.097567558288574,-136.4739990234375],"max":[46.550899505615234,117.82698822021484,-26.75519561767578],"type":"VEC3","bufferView":0,"byteOffset":139248},{"name":"Slowbro_1_2_normals","componentType":5126,"count":4302,"min":[-0.9336759448051453,-0.9729840159416199,-0.9983183741569519],"max":[0.9790388345718384,0.9909898042678833,0.9999331831932068],"type":"VEC3","bufferView":1,"byteOffset":139248},{"name":"Slowbro_1_2_texcoords","componentType":5126,"count":4302,"min":[0.004920999985188246,-0.9944499731063843],"max":[0.9940569996833801,-0.005330000072717667],"type":"VEC2","bufferView":2,"byteOffset":92832},{"name":"Slowbro_1_2_indices","componentType":5123,"count":4302,"min":[0],"max":[4301],"type":"SCALAR","bufferView":3,"byteOffset":23208},{"name":"Slowbro_1_3_positions","componentType":5126,"count":48,"min":[-30.978700637817383,64.03899383544922,-58.679996490478516],"max":[30.978700637817383,87.17908477783203,-28.187095642089844],"type":"VEC3","bufferView":0,"byteOffset":190872},{"name":"Slowbro_1_3_normals","componentType":5126,"count":48,"min":[-0.4500250518321991,-0.4224679470062256,-0.9785926342010498],"max":[0.9790388345718384,0.09551000595092773,0.974298894405365],"type":"VEC3","bufferView":1,"byteOffset":190872},{"name":"Slowbro_1_3_texcoords","componentType":5126,"count":48,"min":[0.00938200019299984,-2.9786300659179688],"max":[0.4906199872493744,-2.7860898971557617],"type":"VEC2","bufferView":2,"byteOffset":127248},{"name":"Slowbro_1_3_indices","componentType":5123,"count":48,"min":[0],"max":[47],"type":"SCALAR","bufferView":3,"byteOffset":31812}],"asset":{"generator":"obj2gltf","version":"2.0"},"buffers":[{"name":"XY_Slowbro","byteLength":669800,"uri":"data:application/octet-stream;base64,"}],"bufferViews":[{"name":"bufferView_0","buffer":0,"byteLength":191448,"byteOffset":0,"byteStride":12,"target":34962},{"name":"bufferView_1","buffer":0,"byteLength":191448,"byteOffset":191448,"byteStride":12,"target":34962},{"name":"bufferView_2","buffer":0,"byteLength":127632,"byteOffset":382896,"byteStride":8,"target":34962},{"name":"bufferView_3","buffer":0,"byteLength":31908,"byteOffset":510528,"target":34963},{"buffer":0,"byteOffset":542436,"byteLength":57574},{"buffer":0,"byteOffset":600010,"byteLength":29589},{"buffer":0,"byteOffset":629599,"byteLength":17821},{"buffer":0,"byteOffset":647420,"byteLength":22378}],"images":[{"name":"pm0080_00_BodyA1","mimeType":"image/png","bufferView":4},{"name":"pm0080_00_EyeA1","mimeType":"image/png","bufferView":5},{"name":"pm0080_00_BodyB1","mimeType":"image/png","bufferView":6},{"name":"pm0080_00_EyeB1","mimeType":"image/png","bufferView":7}],"materials":[{"name":"Material__34","pbrMetallicRoughness":{"baseColorTexture":{"index":0},"baseColorFactor":[1,1,1,1],"metallicFactor":0,"roughnessFactor":0.998},"emissiveFactor":[0,0,0],"alphaMode":"OPAQUE","doubleSided":false},{"name":"Material__35","pbrMetallicRoughness":{"baseColorTexture":{"index":1},"baseColorFactor":[1,1,1,1],"metallicFactor":0,"roughnessFactor":0.998},"emissiveFactor":[0,0,0],"alphaMode":"OPAQUE","doubleSided":false},{"name":"Material__36","pbrMetallicRoughness":{"baseColorTexture":{"index":2},"baseColorFactor":[1,1,1,1],"metallicFactor":0,"roughnessFactor":0.998},"emissiveFactor":[0,0,0],"alphaMode":"OPAQUE","doubleSided":false},{"name":"Material__37","pbrMetallicRoughness":{"baseColorTexture":{"index":3},"baseColorFactor":[1,1,1,1],"metallicFactor":0,"roughnessFactor":0.998},"emissiveFactor":[0,0,0],"alphaMode":"OPAQUE","doubleSided":false}],"meshes":[{"name":"Slowbro_1","primitives":[{"attributes":{"POSITION":0,"NORMAL":1,"TEXCOORD_0":2},"indices":3,"material":0,"mode":4},{"attributes":{"POSITION":4,"NORMAL":5,"TEXCOORD_0":6},"indices":7,"material":1,"mode":4},{"attributes":{"POSITION":8,"NORMAL":9,"TEXCOORD_0":10},"indices":11,"material":2,"mode":4},{"attributes":{"POSITION":12,"NORMAL":13,"TEXCOORD_0":14},"indices":15,"material":3,"mode":4}]}],"nodes":[{"name":"Slowbro","mesh":0}],"samplers":[{"wrapS":10497,"wrapT":10497}],"scene":0,"scenes":[{"nodes":[0]}],"textures":[{"name":"pm0080_00_BodyA1","sampler":0,"source":0},{"name":"pm0080_00_EyeA1","sampler":0,"source":1},{"name":"pm0080_00_BodyB1","sampler":0,"source":2},{"name":"pm0080_00_EyeB1","sampler":0,"source":3}]}