{"accessors":[{"name":"yadoran-Mesh_0_positions","componentType":5126,"count":307,"min":[-6.412769794464111,-2.8761799335479736,-14.33549976348877],"max":[6.414589881896973,8.14076042175293,-0.031693000346422195],"type":"VEC3","bufferView":0,"byteOffset":0},{"name":"yadoran-Mesh_0_texcoords","componentType":5126,"count":307,"min":[0,0],"max":[1,1],"type":"VEC2","bufferView":1,"byteOffset":0},{"name":"yadoran-Mesh_0_indices","componentType":5123,"count":1029,"min":[0],"max":[306],"type":"SCALAR","bufferView":2,"byteOffset":0},{"name":"yadoran-Mesh_1_positions","componentType":5126,"count":20,"min":[-2.9331400394439697,-1.8095200061798096,-7.864840030670166],"max":[2.9250800609588623,6.105100154876709,-0.6197080016136169],"type":"VEC3","bufferView":0,"byteOffset":3684},{"name":"yadoran-Mesh_1_texcoords","componentType":5126,"count":20,"min":[0.13173000514507294,-0.03821999952197075],"max":[0.993183970451355,0.9931830167770386],"type":"VEC2","bufferView":1,"byteOffset":2456},{"name":"yadoran-Mesh_1_indices","componentType":5123,"count":60,"min":[0],"max":[19],"type":"SCALAR","bufferView":2,"byteOffset":2060},{"name":"yadoran-Mesh_2_positions","componentType":5126,"count":13,"min":[-2.392090082168579,-7.7917799949646,-6.585989952087402],"max":[3.391779899597168,-1.3472100496292114,-0.8169080018997192],"type":"VEC3","bufferView":0,"byteOffset":3924},{"name":"yadoran-Mesh_2_texcoords","componentType":5126,"count":13,"min":[0.078125,-0.15625],"max":[0.859375,0.9407550096511841],"type":"VEC2","bufferView":1,"byteOffset":2616},{"name":"yadoran-Mesh_2_indices","componentType":5123,"count":36,"min":[0],"max":[12],"type":"SCALAR","bufferView":2,"byteOffset":2180},{"name":"yadoran-Mesh_3_positions","componentType":5126,"count":12,"min":[-2.7685599327087402,-9.563790321350098,-6.020349979400635],"max":[5.315380096435547,-2.573580026626587,-1.9291199445724487],"type":"VEC3","bufferView":0,"byteOffset":4080},{"name":"yadoran-Mesh_3_texcoords","componentType":5126,"count":12,"min":[0.060885000973939896,0.0016850000247359276],"max":[0.9386910200119019,0.9542970061302185],"type":"VEC2","bufferView":1,"byteOffset":2720},{"name":"yadoran-Mesh_3_indices","componentType":5123,"count":24,"min":[0],"max":[11],"type":"SCALAR","bufferView":2,"byteOffset":2252},{"name":"yadoran-Mesh_4_positions","componentType":5126,"count":41,"min":[-3.9589500427246094,-13.095000267028809,-10.095199584960938],"max":[5.950809955596924,-3.44569993019104,-1.4802700281143188],"type":"VEC3","bufferView":0,"byteOffset":4224},{"name":"yadoran-Mesh_4_texcoords","componentType":5126,"count":41,"min":[-0.006180000025779009,-0.0022700000554323196],"max":[0.9965490102767944,0.20189400017261505],"type":"VEC2","bufferView":1,"byteOffset":2816},{"name":"yadoran-Mesh_4_indices","componentType":5123,"count":72,"min":[0],"max":[40],"type":"SCALAR","bufferView":2,"byteOffset":2300},{"name":"yadoran-Mesh_5_positions","componentType":5126,"count":26,"min":[-4.226940155029297,-10.92020034790039,-10.095199584960938],"max":[3.3214399814605713,-2.473949909210205,-1.4802700281143188],"type":"VEC3","bufferView":0,"byteOffset":4716},{"name":"yadoran-Mesh_5_texcoords","componentType":5126,"count":26,"min":[0.0005119999987073243,-0.00279999990016222],"max":[1.0040299892425537,0.20108799636363983],"type":"VEC2","bufferView":1,"byteOffset":3144},{"name":"yadoran-Mesh_5_indices","componentType":5123,"count":51,"min":[0],"max":[25],"type":"SCALAR","bufferView":2,"byteOffset":2444},{"name":"yadoran-Mesh_6_positions","componentType":5126,"count":91,"min":[-4.229219913482666,-13.445799827575684,-15.423100471496582],"max":[4.9534101486206055,-4.497859954833984,-1.4802700281143188],"type":"VEC3","bufferView":0,"byteOffset":5028},{"name":"yadoran-Mesh_6_texcoords","componentType":5126,"count":91,"min":[0,0],"max":[1,1.0055229663848877],"type":"VEC2","bufferView":1,"byteOffset":3352},{"name":"yadoran-Mesh_6_indices","componentType":5123,"count":228,"min":[0],"max":[90],"type":"SCALAR","bufferView":2,"byteOffset":2548},{"name":"yadoran-Mesh_7_positions","componentType":5126,"count":44,"min":[-7.268829822540283,-13.879300117492676,-14.152099609375],"max":[7.82853889465332,-5.8374199867248535,-2.2014100551605225],"type":"VEC3","bufferView":0,"byteOffset":6120},{"name":"yadoran-Mesh_7_texcoords","componentType":5126,"count":44,"min":[0.13808199763298035,0.13296400010585785],"max":[0.909716010093689,0.9105880260467529],"type":"VEC2","bufferView":1,"byteOffset":4080},{"name":"yadoran-Mesh_7_indices","componentType":5123,"count":99,"min":[0],"max":[43],"type":"SCALAR","bufferView":2,"byteOffset":3004},{"name":"yadoran-Mesh_8_positions","componentType":5126,"count":18,"min":[-3.758510112762451,4.489170074462891,-14.33549976348877],"max":[3.8726298809051514,5.710040092468262,-12.053099632263184],"type":"VEC3","bufferView":0,"byteOffset":6648},{"name":"yadoran-Mesh_8_texcoords","componentType":5126,"count":18,"min":[-0.15185900032520294,-0.06616000086069107],"max":[1.0053999423980713,1.0831389427185059],"type":"VEC2","bufferView":1,"byteOffset":4432},{"name":"yadoran-Mesh_8_indices","componentType":5123,"count":48,"min":[0],"max":[17],"type":"SCALAR","bufferView":2,"byteOffset":3204},{"name":"yadoran-Mesh_9_positions","componentType":5126,"count":16,"min":[-2.9551899433135986,6.058969974517822,-13.477899551391602],"max":[3.0112099647521973,8.14076042175293,-9.976090431213379],"type":"VEC3","bufferView":0,"byteOffset":6864},{"name":"yadoran-Mesh_9_texcoords","componentType":5126,"count":16,"min":[-0.5042470097541809,-0.09723000228404999],"max":[1.2038500308990479,0.33789101243019104],"type":"VEC2","bufferView":1,"byteOffset":4576},{"name":"yadoran-Mesh_9_indices","componentType":5123,"count":48,"min":[0],"max":[15],"type":"SCALAR","bufferView":2,"byteOffset":3300},{"name":"yadoran-Mesh_10_positions","componentType":5126,"count":16,"min":[-1.5630199909210205,5.35122013092041,-11.095800399780273],"max":[1.7030500173568726,7.235410213470459,-7.064390182495117],"type":"VEC3","bufferView":0,"byteOffset":7056},{"name":"yadoran-Mesh_10_texcoords","componentType":5126,"count":16,"min":[-0.10688100010156631,0],"max":[0.9623209834098816,1.3119100332260132],"type":"VEC2","bufferView":1,"byteOffset":4704},{"name":"yadoran-Mesh_10_indices","componentType":5123,"count":54,"min":[0],"max":[15],"type":"SCALAR","bufferView":2,"byteOffset":3396},{"name":"yadoran-Mesh_11_positions","componentType":5126,"count":37,"min":[-2.5548501014709473,5.48130989074707,-11.382399559020996],"max":[2.5804800987243652,9.614299774169922,-6.742249965667725],"type":"VEC3","bufferView":0,"byteOffset":7248},{"name":"yadoran-Mesh_11_texcoords","componentType":5126,"count":37,"min":[0,0],"max":[1,1],"type":"VEC2","bufferView":1,"byteOffset":4832},{"name":"yadoran-Mesh_11_indices","componentType":5123,"count":129,"min":[0],"max":[36],"type":"SCALAR","bufferView":2,"byteOffset":3504},{"name":"yadoran-Mesh_12_positions","componentType":5126,"count":16,"min":[-2.3914198875427246,5.842810153961182,-10.083100318908691],"max":[2.346369981765747,9.602310180664062,-6.980690002441406],"type":"VEC3","bufferView":0,"byteOffset":7692},{"name":"yadoran-Mesh_12_texcoords","componentType":5126,"count":16,"min":[0.07691299915313721,0],"max":[0.9230870008468628,1.0000020265579224],"type":"VEC2","bufferView":1,"byteOffset":5128},{"name":"yadoran-Mesh_12_indices","componentType":5123,"count":39,"min":[0],"max":[15],"type":"SCALAR","bufferView":2,"byteOffset":3764},{"name":"yadoran-Mesh_13_positions","componentType":5126,"count":6,"min":[-1.2445399761199951,9.420379638671875,-10.769599914550781],"max":[1.3321900367736816,9.614299774169922,-10.035400390625],"type":"VEC3","bufferView":0,"byteOffset":7884},{"name":"yadoran-Mesh_13_texcoords","componentType":5126,"count":6,"min":[0.007563999854028225,-0.1459600031375885],"max":[1.2198899984359741,1.0454740524291992],"type":"VEC2","bufferView":1,"byteOffset":5256},{"name":"yadoran-Mesh_13_indices","componentType":5123,"count":12,"min":[0],"max":[5],"type":"SCALAR","bufferView":2,"byteOffset":3844}],"asset":{"generator":"obj2gltf","version":"2.0"},"buffers":[{"name":"BR_Slowbro-Shiny01","byteLength":207716,"uri":"data:application/octet-stream;base64,"}],"bufferViews":[{"name":"bufferView_0","buffer":0,"byteLength":7956,"byteOffset":0,"byteStride":12,"target":34962},{"name":"bufferView_1","buffer":0,"byteLength":5304,"byteOffset":7956,"byteStride":8,"target":34962},{"name":"bufferView_2","buffer":0,"byteLength":3868,"byteOffset":13260,"target":34963},{"buffer":0,"byteOffset":17128,"byteLength":82},{"buffer":0,"byteOffset":17210,"byteLength":7954},{"buffer":0,"byteOffset":25164,"byteLength":2066},{"buffer":0,"byteOffset":27230,"byteLength":4114},{"buffer":0,"byteOffset":31344,"byteLength":40978},{"buffer":0,"byteOffset":72322,"byteLength":40978},{"buffer":0,"byteOffset":113300,"byteLength":8210},{"buffer":0,"byteOffset":121510,"byteLength":4114},{"buffer":0,"byteOffset":125624,"byteLength":4114},{"buffer":0,"byteOffset":129738,"byteLength":65554},{"buffer":0,"byteOffset":195292,"byteLength":4114},{"buffer":0,"byteOffset":199406,"byteLength":82},{"buffer":0,"byteOffset":199488,"byteLength":4114},{"buffer":0,"byteOffset":203602,"byteLength":4114}],"images":[{"name":"yadoran_1_0","mimeType":"image/x-tga","bufferView":3},{"name":"yadoran_1_1","mimeType":"image/x-tga","bufferView":4},{"name":"yadoran_1_2","mimeType":"image/x-tga","bufferView":5},{"name":"yadoran_1_3","mimeType":"image/x-tga","bufferView":6},{"name":"yadoran_1_4","mimeType":"image/x-tga","bufferView":7},{"name":"yadoran_1_5","mimeType":"image/x-tga","bufferView":8},{"name":"yadoran_1_6","mimeType":"image/x-tga","bufferView":9},{"name":"yadoran_1_7","mimeType":"image/x-tga","bufferView":10},{"name":"yadoran_1_8","mimeType":"image/x-tga","bufferView":11},{"name":"yadoran_1_9","mimeType":"image/x-tga","bufferView":12},{"name":"yadoran_1_10","mimeType":"image/x-tga","bufferView":13},{"name":"yadoran_1_11","mimeType":"image/x-tga","bufferView":14},{"name":"yadoran_1_12","mimeType":"image/x-tga","bufferView":15},{"name":"yadoran_1_13","mimeType":"image/x-tga","bufferView":16}],"materials":[{"name":"mat_0","pbrMetallicRoughness":{"baseColorTexture":{"index":0},"baseColorFactor":[1,1,1,1],"metallicFactor":0,"roughnessFactor":0.903921569},"emissiveFactor":[0,0,0],"alphaMode":"BLEND","doubleSided":true},{"name":"mat_1","pbrMetallicRoughness":{"baseColorTexture":{"index":1},"baseColorFactor":[1,1,1,1],"metallicFactor":0,"roughnessFactor":0.903921569},"emissiveFactor":[0,0,0],"alphaMode":"BLEND","doubleSided":true},{"name":"mat_2","pbrMetallicRoughness":{"baseColorTexture":{"index":2},"baseColorFactor":[1,1,1,1],"metallicFactor":0,"roughnessFactor":0.903921569},"emissiveFactor":[0,0,0],"alphaMode":"BLEND","doubleSided":true},{"name":"mat_3","pbrMetallicRoughness":{"baseColorTexture":{"index":3},"baseColorFactor":[1,1,1,1],"metallicFactor":0,"roughnessFactor":0.903921569},"emissiveFactor":[0,0,0],"alphaMode":"BLEND","doubleSided":true},{"name":"mat_4","pbrMetallicRoughness":{"baseColorTexture":{"index":4},"baseColorFactor":[1,1,1,1],"metallicFactor":0,"roughnessFactor":0.903921569},"emissiveFactor":[0,0,0],"alphaMode":"BLEND","doubleSided":true},{"name":"mat_5","pbrMetallicRoughness":{"baseColorTexture":{"index":5},"baseColorFactor":[1,1,1,1],"metallicFactor":0,"roughnessFactor":0.903921569},"emissiveFactor":[0,0,0],"alphaMode":"BLEND","doubleSided":true},{"name":"mat_6","pbrMetallicRoughness":{"baseColorTexture":{"index":6},"baseColorFactor":[1,1,1,1],"metallicFactor":0,"roughnessFactor":0.903921569},"emissiveFactor":[0,0,0],"alphaMode":"BLEND","doubleSided":true},{"name":"mat_8","pbrMetallicRoughness":{"baseColorTexture":{"index":7},"baseColorFactor":[1,1,1,1],"metallicFactor":0,"roughnessFactor":0.903921569},"emissiveFactor":[0,0,0],"alphaMode":"BLEND","doubleSided":true},{"name":"mat_9","pbrMetallicRoughness":{"baseColorTexture":{"index":8},"baseColorFactor":[1,1,1,1],"metallicFactor":0,"roughnessFactor":0.903921569},"emissiveFactor":[0,0,0],"alphaMode":"BLEND","doubleSided":true},{"name":"mat_10","pbrMetallicRoughness":{"baseColorTexture":{"index":9},"baseColorFactor":[1,1,1,1],"metallicFactor":0,"roughnessFactor":0.903921569},"emissiveFactor":[0,0,0],"alphaMode":"BLEND","doubleSided":true},{"name":"mat_11","pbrMetallicRoughness":{"baseColorTexture":{"index":10},"baseColorFactor":[1,1,1,1],"metallicFactor":0,"roughnessFactor":0.903921569},"emissiveFactor":[0,0,0],"alphaMode":"BLEND","doubleSided":true},{"name":"mat_12","pbrMetallicRoughness":{"baseColorTexture":{"index":11},"baseColorFactor":[1,1,1,1],"metallicFactor":0,"roughnessFactor":0.903921569},"emissiveFactor":[0,0,0],"alphaMode":"BLEND","doubleSided":true},{"name":"mat_13","pbrMetallicRoughness":{"baseColorTexture":{"index":12},"baseColorFactor":[1,1,1,1],"metallicFactor":0,"roughnessFactor":0.903921569},"emissiveFactor":[0,0,0],"alphaMode":"BLEND","doubleSided":true},{"name":"mat_14","pbrMetallicRoughness":{"baseColorTexture":{"index":13},"baseColorFactor":[1,1,1,1],"metallicFactor":0,"roughnessFactor":0.903921569},"emissiveFactor":[0,0,0],"alphaMode":"BLEND","doubleSided":true}],"meshes":[{"name":"yadoran-Mesh","primitives":[{"attributes":{"POSITION":0,"TEXCOORD_0":1},"indices":2,"material":0,"mode":4},{"attributes":{"POSITION":3,"TEXCOORD_0":4},"indices":5,"material":1,"mode":4},{"attributes":{"POSITION":6,"TEXCOORD_0":7},"indices":8,"material":2,"mode":4},{"attributes":{"POSITION":9,"TEXCOORD_0":10},"indices":11,"material":3,"mode":4},{"attributes":{"POSITION":12,"TEXCOORD_0":13},"indices":14,"material":4,"mode":4},{"attributes":{"POSITION":15,"TEXCOORD_0":16},"indices":17,"material":5,"mode":4},{"attributes":{"POSITION":18,"TEXCOORD_0":19},"indices":20,"material":6,"mode":4},{"attributes":{"POSITION":21,"TEXCOORD_0":22},"indices":23,"material":7,"mode":4},{"attributes":{"POSITION":24,"TEXCOORD_0":25},"indices":26,"material":8,"mode":4},{"attributes":{"POSITION":27,"TEXCOORD_0":28},"indices":29,"material":9,"mode":4},{"attributes":{"POSITION":30,"TEXCOORD_0":31},"indices":32,"material":10,"mode":4},{"attributes":{"POSITION":33,"TEXCOORD_0":34},"indices":35,"material":11,"mode":4},{"attributes":{"POSITION":36,"TEXCOORD_0":37},"indices":38,"material":12,"mode":4},{"attributes":{"POSITION":39,"TEXCOORD_0":40},"indices":41,"material":13,"mode":4}]}],"nodes":[{"name":"yadoran","mesh":0}],"samplers":[{"wrapS":10497,"wrapT":10497}],"scene":0,"scenes":[{"nodes":[0]}],"textures":[{"name":"yadoran_1_0","sampler":0,"source":0},{"name":"yadoran_1_1","sampler":0,"source":1},{"name":"yadoran_1_2","sampler":0,"source":2},{"name":"yadoran_1_3","sampler":0,"source":3},{"name":"yadoran_1_4","sampler":0,"source":4},{"name":"yadoran_1_5","sampler":0,"source":5},{"name":"yadoran_1_6","sampler":0,"source":6},{"name":"yadoran_1_7","sampler":0,"source":7},{"name":"yadoran_1_8","sampler":0,"source":8},{"name":"yadoran_1_9","sampler":0,"source":9},{"name":"yadoran_1_10","sampler":0,"source":10},{"name":"yadoran_1_11","sampler":0,"source":11},{"name":"yadoran_1_12","sampler":0,"source":12},{"name":"yadoran_1_13","sampler":0,"source":13}]}