{"accessors":[{"name":"polygon0_1_0_positions","componentType":5126,"count":116,"min":[-0.8356429934501648,6.672447204589844,1.0368000268936157],"max":[0.843500018119812,8.355513572692871,1.3365800380706787],"type":"VEC3","bufferView":0,"byteOffset":0},{"name":"polygon0_1_0_normals","componentType":5126,"count":116,"min":[-0.6251711845397949,-0.629569947719574,0.7757416367530823],"max":[0.6310379505157471,0.629569947719574,1],"type":"VEC3","bufferView":1,"byteOffset":0},{"name":"polygon0_1_0_texcoords","componentType":5126,"count":116,"min":[0.011718999594449997,0.0039059999398887157],"max":[0.4921880066394806,0.2460940033197403],"type":"VEC2","bufferView":2,"byteOffset":0},{"name":"polygon0_1_0_indices","componentType":5123,"count":621,"min":[0],"max":[115],"type":"SCALAR","bufferView":3,"byteOffset":0},{"name":"polygon1_1_0_positions","componentType":5126,"count":1010,"min":[-3.050640106201172,6.183623790740967,-1.3365800380706787],"max":[3.0506389141082764,9.93242359161377,1.5734390020370483],"type":"VEC3","bufferView":0,"byteOffset":1392},{"name":"polygon1_1_0_normals","componentType":5126,"count":1010,"min":[-0.9999985098838806,-0.997305691242218,-1],"max":[0.9999986290931702,0.9999903440475464,1],"type":"VEC3","bufferView":1,"byteOffset":1392},{"name":"polygon1_1_0_texcoords","componentType":5126,"count":1010,"min":[0.02761800028383732,0.0039369999431073666],"max":[0.9966740012168884,0.9919130206108093],"type":"VEC2","bufferView":2,"byteOffset":928},{"name":"polygon1_1_0_indices","componentType":5123,"count":3975,"min":[0],"max":[1009],"type":"SCALAR","bufferView":3,"byteOffset":1244}],"asset":{"generator":"obj2gltf","version":"2.0"},"buffers":[{"name":"Magnemite","byteLength":340176,"uri":"data:application/octet-stream;base64,"}],"bufferViews":[{"name":"bufferView_0","buffer":0,"byteLength":13512,"byteOffset":0,"byteStride":12,"target":34962},{"name":"bufferView_1","buffer":0,"byteLength":13512,"byteOffset":13512,"byteStride":12,"target":34962},{"name":"bufferView_2","buffer":0,"byteLength":9008,"byteOffset":27024,"byteStride":8,"target":34962},{"name":"bufferView_3","buffer":0,"byteLength":9196,"byteOffset":36032,"target":34963},{"buffer":0,"byteOffset":45228,"byteLength":98322},{"buffer":0,"byteOffset":143550,"byteLength":196626}],"images":[{"name":"CoilEyeDh","mimeType":"image/x-tga","bufferView":4},{"name":"CoilDh","mimeType":"image/x-tga","bufferView":5}],"materials":[{"name":"mat2","pbrMetallicRoughness":{"baseColorTexture":{"index":0},"baseColorFactor":[1,1,1,1],"metallicFactor":0,"roughnessFactor":0.99},"emissiveFactor":[0,0,0],"alphaMode":"OPAQUE","doubleSided":false},{"name":"mat1","pbrMetallicRoughness":{"baseColorTexture":{"index":1},"baseColorFactor":[1,1,1,1],"metallicFactor":0,"roughnessFactor":0.99},"emissiveFactor":[0,0,0],"alphaMode":"OPAQUE","doubleSided":false}],"meshes":[{"name":"polygon0_1","primitives":[{"attributes":{"POSITION":0,"NORMAL":1,"TEXCOORD_0":2},"indices":3,"material":0,"mode":4}]},{"name":"polygon1_1","primitives":[{"attributes":{"POSITION":4,"NORMAL":5,"TEXCOORD_0":6},"indices":7,"material":1,"mode":4}]}],"nodes":[{"name":"polygon0","mesh":0},{"name":"polygon1","mesh":1}],"samplers":[{"wrapS":10497,"wrapT":10497}],"scene":0,"scenes":[{"nodes":[0,1]}],"textures":[{"name":"CoilEyeDh","sampler":0,"source":0},{"name":"CoilDh","sampler":0,"source":1}]}