{"accessors":[{"name":"rarecoil-Mesh_0_positions","componentType":5126,"count":132,"min":[-4.724050045013428,-2.524049997329712,-3.2440500259399414],"max":[4.724050045013428,1.521090030670166,5.024050235748291],"type":"VEC3","bufferView":0,"byteOffset":0},{"name":"rarecoil-Mesh_0_texcoords","componentType":5126,"count":132,"min":[-0.0011159999994561076,0.09821400046348572],"max":[0.9787949919700623,1.0155659914016724],"type":"VEC2","bufferView":1,"byteOffset":0},{"name":"rarecoil-Mesh_0_indices","componentType":5123,"count":720,"min":[0],"max":[131],"type":"SCALAR","bufferView":2,"byteOffset":0},{"name":"rarecoil-Mesh_1_positions","componentType":5126,"count":423,"min":[-4.136769771575928,-1.374400019645691,-3.6127500534057617],"max":[4.566370010375977,2.0051400661468506,4.596499919891357],"type":"VEC3","bufferView":0,"byteOffset":1584},{"name":"rarecoil-Mesh_1_texcoords","componentType":5126,"count":423,"min":[0,0.007565000094473362],"max":[1,1],"type":"VEC2","bufferView":1,"byteOffset":1056},{"name":"rarecoil-Mesh_1_indices","componentType":5123,"count":1026,"min":[0],"max":[422],"type":"SCALAR","bufferView":2,"byteOffset":1440},{"name":"rarecoil-Mesh_2_positions","componentType":5126,"count":153,"min":[-4.136769771575928,-1.374400019645691,-3.7863199710845947],"max":[4.616469860076904,2.0160601139068604,4.42933988571167],"type":"VEC3","bufferView":0,"byteOffset":6660},{"name":"rarecoil-Mesh_2_texcoords","componentType":5126,"count":153,"min":[0,-0.003120000008493662],"max":[1.0028599500656128,1.009374976158142],"type":"VEC2","bufferView":1,"byteOffset":4440},{"name":"rarecoil-Mesh_2_indices","componentType":5123,"count":648,"min":[0],"max":[152],"type":"SCALAR","bufferView":2,"byteOffset":3492},{"name":"rarecoil-Mesh_3_positions","componentType":5126,"count":75,"min":[-3.900739908218384,0.4103280007839203,-2.3955399990081787],"max":[3.900739908218384,1.5960899591445923,4.198160171508789],"type":"VEC3","bufferView":0,"byteOffset":8496},{"name":"rarecoil-Mesh_3_texcoords","componentType":5126,"count":75,"min":[0,0],"max":[1,0.25],"type":"VEC2","bufferView":1,"byteOffset":5664},{"name":"rarecoil-Mesh_3_indices","componentType":5123,"count":216,"min":[0],"max":[74],"type":"SCALAR","bufferView":2,"byteOffset":4788},{"name":"rarecoil-Mesh_4_positions","componentType":5126,"count":122,"min":[-5.9374098777771,-1.952589988708496,-3.967010021209717],"max":[6.1014299392700195,-0.33759400248527527,3.9596400260925293],"type":"VEC3","bufferView":0,"byteOffset":9396},{"name":"rarecoil-Mesh_4_texcoords","componentType":5126,"count":122,"min":[0.003942000214010477,0.006696000229567289],"max":[0.9910709857940674,0.998071014881134],"type":"VEC2","bufferView":1,"byteOffset":6264},{"name":"rarecoil-Mesh_4_indices","componentType":5123,"count":180,"min":[0],"max":[121],"type":"SCALAR","bufferView":2,"byteOffset":5220},{"name":"rarecoil-Mesh_5_positions","componentType":5126,"count":408,"min":[-5.1939802169799805,-1.719230055809021,-3.425179958343506],"max":[5.21327018737793,-0.2152329981327057,4.562839984893799],"type":"VEC3","bufferView":0,"byteOffset":10860},{"name":"rarecoil-Mesh_5_texcoords","componentType":5126,"count":408,"min":[0,0],"max":[0.34099501371383667,1],"type":"VEC2","bufferView":1,"byteOffset":7240},{"name":"rarecoil-Mesh_5_indices","componentType":5123,"count":1080,"min":[0],"max":[407],"type":"SCALAR","bufferView":2,"byteOffset":5580},{"name":"rarecoil-Mesh_6_positions","componentType":5126,"count":124,"min":[-6.097300052642822,-1.9731500148773193,-3.255419969558716],"max":[5.871059894561768,-0.36924999952316284,4.803309917449951],"type":"VEC3","bufferView":0,"byteOffset":15756},{"name":"rarecoil-Mesh_6_texcoords","componentType":5126,"count":124,"min":[0.003942000214010477,0.006696000229567289],"max":[0.9910709857940674,0.998071014881134],"type":"VEC2","bufferView":1,"byteOffset":10504},{"name":"rarecoil-Mesh_6_indices","componentType":5123,"count":180,"min":[0],"max":[123],"type":"SCALAR","bufferView":2,"byteOffset":7740}],"asset":{"generator":"obj2gltf","version":"2.0"},"buffers":[{"name":"BR_Magneton-Shiny01","byteLength":155752,"uri":"data:application/octet-stream;base64,"}],"bufferViews":[{"name":"bufferView_0","buffer":0,"byteLength":17244,"byteOffset":0,"byteStride":12,"target":34962},{"name":"bufferView_1","buffer":0,"byteLength":11496,"byteOffset":17244,"byteStride":8,"target":34962},{"name":"bufferView_2","buffer":0,"byteLength":8100,"byteOffset":28740,"target":34963},{"buffer":0,"byteOffset":36840,"byteLength":16402},{"buffer":0,"byteOffset":53242,"byteLength":8210},{"buffer":0,"byteOffset":61452,"byteLength":16402},{"buffer":0,"byteOffset":77854,"byteLength":65554},{"buffer":0,"byteOffset":143408,"byteLength":4114},{"buffer":0,"byteOffset":147522,"byteLength":4114},{"buffer":0,"byteOffset":151636,"byteLength":4114}],"images":[{"name":"rarecoil_1_0","mimeType":"image/x-tga","bufferView":3},{"name":"rarecoil_1_1","mimeType":"image/x-tga","bufferView":4},{"name":"rarecoil_1_2","mimeType":"image/x-tga","bufferView":5},{"name":"rarecoil_1_3","mimeType":"image/x-tga","bufferView":6},{"name":"rarecoil_1_4","mimeType":"image/x-tga","bufferView":7},{"name":"rarecoil_1_5","mimeType":"image/x-tga","bufferView":8},{"name":"rarecoil_1_6","mimeType":"image/x-tga","bufferView":9}],"materials":[{"name":"mat_0","pbrMetallicRoughness":{"baseColorTexture":{"index":0},"baseColorFactor":[1,1,1,1],"metallicFactor":0,"roughnessFactor":0.903921569},"emissiveFactor":[0,0,0],"alphaMode":"BLEND","doubleSided":true},{"name":"mat_1","pbrMetallicRoughness":{"baseColorTexture":{"index":1},"baseColorFactor":[1,1,1,1],"metallicFactor":0,"roughnessFactor":0.903921569},"emissiveFactor":[0,0,0],"alphaMode":"BLEND","doubleSided":true},{"name":"mat_2","pbrMetallicRoughness":{"baseColorTexture":{"index":2},"baseColorFactor":[1,1,1,1],"metallicFactor":0,"roughnessFactor":0.903921569},"emissiveFactor":[0,0,0],"alphaMode":"BLEND","doubleSided":true},{"name":"mat_3","pbrMetallicRoughness":{"baseColorTexture":{"index":3},"baseColorFactor":[1,1,1,1],"metallicFactor":0,"roughnessFactor":0.903921569},"emissiveFactor":[0,0,0],"alphaMode":"BLEND","doubleSided":true},{"name":"mat_4","pbrMetallicRoughness":{"baseColorTexture":{"index":4},"baseColorFactor":[1,1,1,1],"metallicFactor":0,"roughnessFactor":0.903921569},"emissiveFactor":[0,0,0],"alphaMode":"BLEND","doubleSided":true},{"name":"mat_5","pbrMetallicRoughness":{"baseColorTexture":{"index":5},"baseColorFactor":[1,1,1,1],"metallicFactor":0,"roughnessFactor":0.903921569},"emissiveFactor":[0,0,0],"alphaMode":"BLEND","doubleSided":true},{"name":"mat_6","pbrMetallicRoughness":{"baseColorTexture":{"index":6},"baseColorFactor":[1,1,1,1],"metallicFactor":0,"roughnessFactor":0.903921569},"emissiveFactor":[0,0,0],"alphaMode":"BLEND","doubleSided":true}],"meshes":[{"name":"rarecoil-Mesh","primitives":[{"attributes":{"POSITION":0,"TEXCOORD_0":1},"indices":2,"material":0,"mode":4},{"attributes":{"POSITION":3,"TEXCOORD_0":4},"indices":5,"material":1,"mode":4},{"attributes":{"POSITION":6,"TEXCOORD_0":7},"indices":8,"material":2,"mode":4},{"attributes":{"POSITION":9,"TEXCOORD_0":10},"indices":11,"material":3,"mode":4},{"attributes":{"POSITION":12,"TEXCOORD_0":13},"indices":14,"material":4,"mode":4},{"attributes":{"POSITION":15,"TEXCOORD_0":16},"indices":17,"material":5,"mode":4},{"attributes":{"POSITION":18,"TEXCOORD_0":19},"indices":20,"material":6,"mode":4}]}],"nodes":[{"name":"rarecoil","mesh":0}],"samplers":[{"wrapS":10497,"wrapT":10497}],"scene":0,"scenes":[{"nodes":[0]}],"textures":[{"name":"rarecoil_1_0","sampler":0,"source":0},{"name":"rarecoil_1_1","sampler":0,"source":1},{"name":"rarecoil_1_2","sampler":0,"source":2},{"name":"rarecoil_1_3","sampler":0,"source":3},{"name":"rarecoil_1_4","sampler":0,"source":4},{"name":"rarecoil_1_5","sampler":0,"source":5},{"name":"rarecoil_1_6","sampler":0,"source":6}]}