{"accessors":[{"name":"polygon0_1_0_positions","componentType":5126,"count":972,"min":[-6.285458087921143,0.005189999938011169,-3.2664620876312256],"max":[6.285457134246826,7.700070858001709,4.525922775268555],"type":"VEC3","bufferView":0,"byteOffset":0},{"name":"polygon0_1_0_normals","componentType":5126,"count":972,"min":[-1,-0.9999529123306274,-0.9999998807907104],"max":[0.9999806880950928,0.9992576837539673,0.9999998807907104],"type":"VEC3","bufferView":1,"byteOffset":0},{"name":"polygon0_1_0_texcoords","componentType":5126,"count":972,"min":[0.003783999942243099,0.0026549999602138996],"max":[0.9921879768371582,0.9980469942092896],"type":"VEC2","bufferView":2,"byteOffset":0},{"name":"polygon0_1_0_indices","componentType":5123,"count":4674,"min":[0],"max":[971],"type":"SCALAR","bufferView":3,"byteOffset":0},{"name":"polygon1_1_0_positions","componentType":5126,"count":34,"min":[-1.0977519750595093,4.717306137084961,1.631371021270752],"max":[1.0977469682693481,5.935462951660156,2.2093560695648193],"type":"VEC3","bufferView":0,"byteOffset":11664},{"name":"polygon1_1_0_normals","componentType":5126,"count":34,"min":[-0.8282486200332642,-0.19531598687171936,0.5002409815788269],"max":[0.8282486200332642,0.5840391516685486,0.9426334500312805],"type":"VEC3","bufferView":1,"byteOffset":11664},{"name":"polygon1_1_0_texcoords","componentType":5126,"count":34,"min":[0.011718999594449997,0.0039059999398887157],"max":[0.4726560115814209,0.234375],"type":"VEC2","bufferView":2,"byteOffset":7776},{"name":"polygon1_1_0_indices","componentType":5123,"count":126,"min":[0],"max":[33],"type":"SCALAR","bufferView":3,"byteOffset":9348}],"asset":{"generator":"obj2gltf","version":"2.0"},"buffers":[{"name":"Farfetch'd","byteLength":336740,"uri":"data:application/octet-stream;base64,"}],"bufferViews":[{"name":"bufferView_0","buffer":0,"byteLength":12072,"byteOffset":0,"byteStride":12,"target":34962},{"name":"bufferView_1","buffer":0,"byteLength":12072,"byteOffset":12072,"byteStride":12,"target":34962},{"name":"bufferView_2","buffer":0,"byteLength":8048,"byteOffset":24144,"byteStride":8,"target":34962},{"name":"bufferView_3","buffer":0,"byteLength":9600,"byteOffset":32192,"target":34963},{"buffer":0,"byteOffset":41792,"byteLength":196626},{"buffer":0,"byteOffset":238418,"byteLength":98322}],"images":[{"name":"KamonegiDh","mimeType":"image/x-tga","bufferView":4},{"name":"KamonegiEyeDh","mimeType":"image/x-tga","bufferView":5}],"materials":[{"name":"mat1","pbrMetallicRoughness":{"baseColorTexture":{"index":0},"baseColorFactor":[1,1,1,1],"metallicFactor":0,"roughnessFactor":0.99},"emissiveFactor":[0,0,0],"alphaMode":"OPAQUE","doubleSided":false},{"name":"mat2","pbrMetallicRoughness":{"baseColorTexture":{"index":1},"baseColorFactor":[1,1,1,1],"metallicFactor":0,"roughnessFactor":0.99},"emissiveFactor":[0,0,0],"alphaMode":"OPAQUE","doubleSided":false}],"meshes":[{"name":"polygon0_1","primitives":[{"attributes":{"POSITION":0,"NORMAL":1,"TEXCOORD_0":2},"indices":3,"material":0,"mode":4}]},{"name":"polygon1_1","primitives":[{"attributes":{"POSITION":4,"NORMAL":5,"TEXCOORD_0":6},"indices":7,"material":1,"mode":4}]}],"nodes":[{"name":"polygon0","mesh":0},{"name":"polygon1","mesh":1}],"samplers":[{"wrapS":10497,"wrapT":10497}],"scene":0,"scenes":[{"nodes":[0,1]}],"textures":[{"name":"KamonegiDh","sampler":0,"source":0},{"name":"KamonegiEyeDh","sampler":0,"source":1}]}