{"accessors":[{"name":"dodo-Mesh_0_positions","componentType":5126,"count":263,"min":[-3.2764298915863037,-2.879770040512085,-12.336199760437012],"max":[2.732219934463501,1.9878499507904053,-3.0968799591064453],"type":"VEC3","bufferView":0,"byteOffset":0},{"name":"dodo-Mesh_0_texcoords","componentType":5126,"count":263,"min":[0.003703000023961067,-0.010089999996125698],"max":[0.8900910019874573,1.0066889524459839],"type":"VEC2","bufferView":1,"byteOffset":0},{"name":"dodo-Mesh_0_indices","componentType":5123,"count":900,"min":[0],"max":[262],"type":"SCALAR","bufferView":2,"byteOffset":0},{"name":"dodo-Mesh_1_positions","componentType":5126,"count":64,"min":[-1.7962100505828857,-0.5950829982757568,-10.812100410461426],"max":[1.945430040359497,1.8548099994659424,-5.955410003662109],"type":"VEC3","bufferView":0,"byteOffset":3156},{"name":"dodo-Mesh_1_texcoords","componentType":5126,"count":64,"min":[0,0],"max":[1,1],"type":"VEC2","bufferView":1,"byteOffset":2104},{"name":"dodo-Mesh_1_indices","componentType":5123,"count":192,"min":[0],"max":[63],"type":"SCALAR","bufferView":2,"byteOffset":1800},{"name":"dodo-Mesh_2_positions","componentType":5126,"count":28,"min":[-4.728509902954102,0.5037599802017212,-14.256600379943848],"max":[1.7547199726104736,2.6784300804138184,-11.138099670410156],"type":"VEC3","bufferView":0,"byteOffset":3924},{"name":"dodo-Mesh_2_texcoords","componentType":5126,"count":28,"min":[0,0],"max":[1,1],"type":"VEC2","bufferView":1,"byteOffset":2616},{"name":"dodo-Mesh_2_indices","componentType":5123,"count":60,"min":[0],"max":[27],"type":"SCALAR","bufferView":2,"byteOffset":2184},{"name":"dodo-Mesh_3_positions","componentType":5126,"count":56,"min":[-3.248699903488159,-0.38624998927116394,-12.356499671936035],"max":[2.159990072250366,0.4139690101146698,-10.809399604797363],"type":"VEC3","bufferView":0,"byteOffset":4260},{"name":"dodo-Mesh_3_texcoords","componentType":5126,"count":56,"min":[0,0],"max":[1,0.33333298563957214],"type":"VEC2","bufferView":1,"byteOffset":2840},{"name":"dodo-Mesh_3_indices","componentType":5123,"count":144,"min":[0],"max":[55],"type":"SCALAR","bufferView":2,"byteOffset":2304},{"name":"dodo-Mesh_4_positions","componentType":5126,"count":165,"min":[-2.8556699752807617,-1.913059949874878,-4.769820213317871],"max":[2.710710048675537,2.2399399280548096,0.012575999833643436],"type":"VEC3","bufferView":0,"byteOffset":4932},{"name":"dodo-Mesh_4_texcoords","componentType":5126,"count":165,"min":[0,0],"max":[1,1],"type":"VEC2","bufferView":1,"byteOffset":3288},{"name":"dodo-Mesh_4_indices","componentType":5123,"count":564,"min":[0],"max":[164],"type":"SCALAR","bufferView":2,"byteOffset":2592},{"name":"dodo-Mesh_5_positions","componentType":5126,"count":9,"min":[1.1429200172424316,0.5566700100898743,-13.44159984588623],"max":[1.7543200254440308,1.9134600162506104,-11.144800186157227],"type":"VEC3","bufferView":0,"byteOffset":6912},{"name":"dodo-Mesh_5_texcoords","componentType":5126,"count":9,"min":[0.03014799952507019,0.11436299979686737],"max":[0.4346590042114258,0.9569669961929321],"type":"VEC2","bufferView":1,"byteOffset":4608},{"name":"dodo-Mesh_5_indices","componentType":5123,"count":15,"min":[0],"max":[8],"type":"SCALAR","bufferView":2,"byteOffset":3720},{"name":"dodo-Mesh_6_positions","componentType":5126,"count":3,"min":[1.3055100440979004,0.5540400147438049,-11.543800354003906],"max":[1.619920015335083,0.666949987411499,-11.001799583435059],"type":"VEC3","bufferView":0,"byteOffset":7020},{"name":"dodo-Mesh_6_texcoords","componentType":5126,"count":3,"min":[0.06876900047063828,0.39833399653434753],"max":[0.47920700907707214,0.7563130259513855],"type":"VEC2","bufferView":1,"byteOffset":4680},{"name":"dodo-Mesh_6_indices","componentType":5123,"count":3,"min":[0],"max":[2],"type":"SCALAR","bufferView":2,"byteOffset":3752}],"asset":{"generator":"obj2gltf","version":"2.0"},"buffers":[{"name":"BR_Doduo-Shiny01","byteLength":48380,"uri":"data:application/octet-stream;base64,"}],"bufferViews":[{"name":"bufferView_0","buffer":0,"byteLength":7056,"byteOffset":0,"byteStride":12,"target":34962},{"name":"bufferView_1","buffer":0,"byteLength":4704,"byteOffset":7056,"byteStride":8,"target":34962},{"name":"bufferView_2","buffer":0,"byteLength":3760,"byteOffset":11760,"target":34963},{"buffer":0,"byteOffset":15520,"byteLength":8210},{"buffer":0,"byteOffset":23730,"byteLength":4114},{"buffer":0,"byteOffset":27844,"byteLength":4114},{"buffer":0,"byteOffset":31958,"byteLength":12306},{"buffer":0,"byteOffset":44264,"byteLength":4114}],"images":[{"name":"dodo_1_0","mimeType":"image/x-tga","bufferView":3},{"name":"dodo_1_1","mimeType":"image/x-tga","bufferView":4},{"name":"dodo_1_2","mimeType":"image/x-tga","bufferView":5},{"name":"dodo_1_3","mimeType":"image/x-tga","bufferView":6},{"name":"dodo_1_4","mimeType":"image/x-tga","bufferView":7}],"materials":[{"name":"mat_0","pbrMetallicRoughness":{"baseColorTexture":{"index":0},"baseColorFactor":[1,1,1,1],"metallicFactor":0,"roughnessFactor":0.903921569},"emissiveFactor":[0,0,0],"alphaMode":"BLEND","doubleSided":true},{"name":"mat_1","pbrMetallicRoughness":{"baseColorTexture":{"index":1},"baseColorFactor":[1,1,1,1],"metallicFactor":0,"roughnessFactor":0.903921569},"emissiveFactor":[0,0,0],"alphaMode":"BLEND","doubleSided":true},{"name":"mat_2","pbrMetallicRoughness":{"baseColorTexture":{"index":2},"baseColorFactor":[1,1,1,1],"metallicFactor":0,"roughnessFactor":0.903921569},"emissiveFactor":[0,0,0],"alphaMode":"BLEND","doubleSided":true},{"name":"mat_3","pbrMetallicRoughness":{"baseColorTexture":{"index":3},"baseColorFactor":[1,1,1,1],"metallicFactor":0,"roughnessFactor":0.903921569},"emissiveFactor":[0,0,0],"alphaMode":"BLEND","doubleSided":true},{"name":"mat_4","pbrMetallicRoughness":{"baseColorTexture":{"index":4},"baseColorFactor":[1,1,1,1],"metallicFactor":0,"roughnessFactor":0.903921569},"emissiveFactor":[0,0,0],"alphaMode":"BLEND","doubleSided":true},{"name":"mat_5","pbrMetallicRoughness":{"baseColorFactor":[0.8,0.8,0.8,1],"metallicFactor":0,"roughnessFactor":0.903921569},"emissiveFactor":[0,0,0],"alphaMode":"OPAQUE","doubleSided":false},{"name":"mat_6","pbrMetallicRoughness":{"baseColorFactor":[0.8,0.8,0.8,1],"metallicFactor":0,"roughnessFactor":0.903921569},"emissiveFactor":[0,0,0],"alphaMode":"OPAQUE","doubleSided":false}],"meshes":[{"name":"dodo-Mesh","primitives":[{"attributes":{"POSITION":0,"TEXCOORD_0":1},"indices":2,"material":0,"mode":4},{"attributes":{"POSITION":3,"TEXCOORD_0":4},"indices":5,"material":1,"mode":4},{"attributes":{"POSITION":6,"TEXCOORD_0":7},"indices":8,"material":2,"mode":4},{"attributes":{"POSITION":9,"TEXCOORD_0":10},"indices":11,"material":3,"mode":4},{"attributes":{"POSITION":12,"TEXCOORD_0":13},"indices":14,"material":4,"mode":4},{"attributes":{"POSITION":15,"TEXCOORD_0":16},"indices":17,"material":5,"mode":4},{"attributes":{"POSITION":18,"TEXCOORD_0":19},"indices":20,"material":6,"mode":4}]}],"nodes":[{"name":"dodo","mesh":0}],"samplers":[{"wrapS":10497,"wrapT":10497}],"scene":0,"scenes":[{"nodes":[0]}],"textures":[{"name":"dodo_1_0","sampler":0,"source":0},{"name":"dodo_1_1","sampler":0,"source":1},{"name":"dodo_1_2","sampler":0,"source":2},{"name":"dodo_1_3","sampler":0,"source":3},{"name":"dodo_1_4","sampler":0,"source":4}]}