{"accessors":[{"name":"dodorio-Mesh_0_positions","componentType":5126,"count":63,"min":[-5.321694850921631,-5.745266914367676,-9.0307035446167],"max":[5.3195319175720215,-5.093708038330078,-2.7289929389953613],"type":"VEC3","bufferView":0,"byteOffset":0},{"name":"dodorio-Mesh_0_texcoords","componentType":5126,"count":63,"min":[0,0],"max":[1,1],"type":"VEC2","bufferView":1,"byteOffset":0},{"name":"dodorio-Mesh_0_indices","componentType":5123,"count":216,"min":[0],"max":[62],"type":"SCALAR","bufferView":2,"byteOffset":0},{"name":"dodorio-Mesh_1_positions","componentType":5126,"count":28,"min":[-1.1223809719085693,5.497389793395996,-17.78868293762207],"max":[1.1223809719085693,6.172372817993164,-16.73015785217285],"type":"VEC3","bufferView":0,"byteOffset":756},{"name":"dodorio-Mesh_1_texcoords","componentType":5126,"count":28,"min":[0.023044999688863754,0.02914400026202202],"max":[0.9941239953041077,0.3296869993209839],"type":"VEC2","bufferView":1,"byteOffset":504},{"name":"dodorio-Mesh_1_indices","componentType":5123,"count":90,"min":[0],"max":[27],"type":"SCALAR","bufferView":2,"byteOffset":432},{"name":"dodorio-Mesh_2_positions","componentType":5126,"count":51,"min":[-3.0365190505981445,-2.4899508953094482,-10.44261646270752],"max":[3.0365190505981445,2.3786520957946777,-7.955417156219482],"type":"VEC3","bufferView":0,"byteOffset":1092},{"name":"dodorio-Mesh_2_texcoords","componentType":5126,"count":51,"min":[0.010080000385642052,0.005020999815315008],"max":[0.9852870106697083,1.0035890340805054],"type":"VEC2","bufferView":1,"byteOffset":728},{"name":"dodorio-Mesh_2_indices","componentType":5123,"count":192,"min":[0],"max":[50],"type":"SCALAR","bufferView":2,"byteOffset":612},{"name":"dodorio-Mesh_3_positions","componentType":5126,"count":28,"min":[-6.12637996673584,5.497389793395996,-17.78868293762207],"max":[-3.8816189765930176,6.172372817993164,-16.73015785217285],"type":"VEC3","bufferView":0,"byteOffset":1704},{"name":"dodorio-Mesh_3_texcoords","componentType":5126,"count":28,"min":[0.023044999688863754,0.02914400026202202],"max":[0.9941239953041077,0.3296869993209839],"type":"VEC2","bufferView":1,"byteOffset":1136},{"name":"dodorio-Mesh_3_indices","componentType":5123,"count":90,"min":[0],"max":[27],"type":"SCALAR","bufferView":2,"byteOffset":996},{"name":"dodorio-Mesh_4_positions","componentType":5126,"count":28,"min":[3.87362003326416,5.497389793395996,-17.78868293762207],"max":[6.118381023406982,6.172372817993164,-16.73015785217285],"type":"VEC3","bufferView":0,"byteOffset":2040},{"name":"dodorio-Mesh_4_texcoords","componentType":5126,"count":28,"min":[0.023044999688863754,0.02914400026202202],"max":[0.9941239953041077,0.3296869993209839],"type":"VEC2","bufferView":1,"byteOffset":1360},{"name":"dodorio-Mesh_4_indices","componentType":5123,"count":90,"min":[0],"max":[27],"type":"SCALAR","bufferView":2,"byteOffset":1176},{"name":"dodorio-Mesh_5_positions","componentType":5126,"count":1584,"min":[-6.407289028167725,-2.5017828941345215,-20.84144401550293],"max":[6.399289131164551,9.408038139343262,-0.7147629857063293],"type":"VEC3","bufferView":0,"byteOffset":2376},{"name":"dodorio-Mesh_5_texcoords","componentType":5126,"count":1584,"min":[0.5109220147132874,0.5120959877967834],"max":[0.9938849806785583,0.9846950173377991],"type":"VEC2","bufferView":1,"byteOffset":1584},{"name":"dodorio-Mesh_5_indices","componentType":5123,"count":7614,"min":[0],"max":[1583],"type":"SCALAR","bufferView":2,"byteOffset":1356}],"asset":{"generator":"obj2gltf","version":"2.0"},"buffers":[{"name":"BR_Dodrio-Shiny01","byteLength":1887340,"uri":"data:application/octet-stream;base64,"}],"bufferViews":[{"name":"bufferView_0","buffer":0,"byteLength":21384,"byteOffset":0,"byteStride":12,"target":34962},{"name":"bufferView_1","buffer":0,"byteLength":14256,"byteOffset":21384,"byteStride":8,"target":34962},{"name":"bufferView_2","buffer":0,"byteLength":16584,"byteOffset":35640,"target":34963},{"buffer":0,"byteOffset":52224,"byteLength":131090},{"buffer":0,"byteOffset":183314,"byteLength":131090},{"buffer":0,"byteOffset":314404,"byteLength":262162},{"buffer":0,"byteOffset":576566,"byteLength":131090},{"buffer":0,"byteOffset":707656,"byteLength":131090},{"buffer":0,"byteOffset":838746,"byteLength":1048594}],"images":[{"name":"dodorio_1_0","mimeType":"image/x-tga","bufferView":3},{"name":"dodorio_1_1","mimeType":"image/x-tga","bufferView":4},{"name":"dodorio_1_2","mimeType":"image/x-tga","bufferView":5},{"name":"dodorio_1_3","mimeType":"image/x-tga","bufferView":6},{"name":"dodorio_1_4","mimeType":"image/x-tga","bufferView":7},{"name":"dodorio_1_5","mimeType":"image/x-tga","bufferView":8}],"materials":[{"name":"mat_0","pbrMetallicRoughness":{"baseColorTexture":{"index":0},"baseColorFactor":[1,1,1,1],"metallicFactor":0,"roughnessFactor":0.903921569},"emissiveFactor":[0,0,0],"alphaMode":"BLEND","doubleSided":true},{"name":"mat_1","pbrMetallicRoughness":{"baseColorTexture":{"index":1},"baseColorFactor":[1,1,1,1],"metallicFactor":0,"roughnessFactor":0.903921569},"emissiveFactor":[0,0,0],"alphaMode":"BLEND","doubleSided":true},{"name":"mat_2","pbrMetallicRoughness":{"baseColorTexture":{"index":2},"baseColorFactor":[1,1,1,1],"metallicFactor":0,"roughnessFactor":0.903921569},"emissiveFactor":[0,0,0],"alphaMode":"BLEND","doubleSided":true},{"name":"mat_3","pbrMetallicRoughness":{"baseColorTexture":{"index":3},"baseColorFactor":[1,1,1,1],"metallicFactor":0,"roughnessFactor":0.903921569},"emissiveFactor":[0,0,0],"alphaMode":"BLEND","doubleSided":true},{"name":"mat_4","pbrMetallicRoughness":{"baseColorTexture":{"index":4},"baseColorFactor":[1,1,1,1],"metallicFactor":0,"roughnessFactor":0.903921569},"emissiveFactor":[0,0,0],"alphaMode":"BLEND","doubleSided":true},{"name":"mat_5","pbrMetallicRoughness":{"baseColorTexture":{"index":5},"baseColorFactor":[1,1,1,1],"metallicFactor":0,"roughnessFactor":0.903921569},"emissiveFactor":[0,0,0],"alphaMode":"BLEND","doubleSided":true}],"meshes":[{"name":"dodorio-Mesh","primitives":[{"attributes":{"POSITION":0,"TEXCOORD_0":1},"indices":2,"material":0,"mode":4},{"attributes":{"POSITION":3,"TEXCOORD_0":4},"indices":5,"material":1,"mode":4},{"attributes":{"POSITION":6,"TEXCOORD_0":7},"indices":8,"material":2,"mode":4},{"attributes":{"POSITION":9,"TEXCOORD_0":10},"indices":11,"material":3,"mode":4},{"attributes":{"POSITION":12,"TEXCOORD_0":13},"indices":14,"material":4,"mode":4},{"attributes":{"POSITION":15,"TEXCOORD_0":16},"indices":17,"material":5,"mode":4}]}],"nodes":[{"name":"dodorio","mesh":0}],"samplers":[{"wrapS":10497,"wrapT":10497}],"scene":0,"scenes":[{"nodes":[0]}],"textures":[{"name":"dodorio_1_0","sampler":0,"source":0},{"name":"dodorio_1_1","sampler":0,"source":1},{"name":"dodorio_1_2","sampler":0,"source":2},{"name":"dodorio_1_3","sampler":0,"source":3},{"name":"dodorio_1_4","sampler":0,"source":4},{"name":"dodorio_1_5","sampler":0,"source":5}]}