{"accessors":[{"name":"pawou_c-Mesh_0_positions","componentType":5126,"count":287,"min":[-3.138139009475708,-4.560254096984863,-5.390183925628662],"max":[3.171281099319458,6.069685935974121,0.06095200031995773],"type":"VEC3","bufferView":0,"byteOffset":0},{"name":"pawou_c-Mesh_0_texcoords","componentType":5126,"count":287,"min":[0,0],"max":[1,1],"type":"VEC2","bufferView":1,"byteOffset":0},{"name":"pawou_c-Mesh_0_indices","componentType":5123,"count":900,"min":[0],"max":[286],"type":"SCALAR","bufferView":2,"byteOffset":0},{"name":"pawou_c-Mesh_1_positions","componentType":5126,"count":56,"min":[-1.4504189491271973,-5.91033411026001,-2.3311541080474854],"max":[1.3108409643173218,-3.7116730213165283,-0.019027000293135643],"type":"VEC3","bufferView":0,"byteOffset":3444},{"name":"pawou_c-Mesh_1_texcoords","componentType":5126,"count":56,"min":[0,0],"max":[1,1],"type":"VEC2","bufferView":1,"byteOffset":2296},{"name":"pawou_c-Mesh_1_indices","componentType":5123,"count":276,"min":[0],"max":[55],"type":"SCALAR","bufferView":2,"byteOffset":1800},{"name":"pawou_c-Mesh_2_positions","componentType":5126,"count":8,"min":[-1.263429045677185,5.387405872344971,-4.598904132843018],"max":[1.2965710163116455,5.9638872146606445,-3.6180241107940674],"type":"VEC3","bufferView":0,"byteOffset":4116},{"name":"pawou_c-Mesh_2_texcoords","componentType":5126,"count":8,"min":[-0.015625,0.062109000980854034],"max":[1.4492199420928955,0.2529720067977905],"type":"VEC2","bufferView":1,"byteOffset":2744},{"name":"pawou_c-Mesh_2_indices","componentType":5123,"count":18,"min":[0],"max":[7],"type":"SCALAR","bufferView":2,"byteOffset":2352},{"name":"pawou_c-Mesh_3_positions","componentType":5126,"count":5,"min":[-1.1024789810180664,5.1291069984436035,-5.117373943328857],"max":[1.1356209516525269,5.800937175750732,-4.598904132843018],"type":"VEC3","bufferView":0,"byteOffset":4212},{"name":"pawou_c-Mesh_3_texcoords","componentType":5126,"count":5,"min":[-0.9107139706611633,-0.6452999711036682],"max":[1.0792399644851685,1.5674070119857788],"type":"VEC2","bufferView":1,"byteOffset":2808},{"name":"pawou_c-Mesh_3_indices","componentType":5123,"count":6,"min":[0],"max":[4],"type":"SCALAR","bufferView":2,"byteOffset":2388},{"name":"pawou_c-Mesh_4_positions","componentType":5126,"count":5,"min":[-0.44027701020240784,3.8615260124206543,-6.499393939971924],"max":[0.4734190106391907,4.775217056274414,-5.390183925628662],"type":"VEC3","bufferView":0,"byteOffset":4272},{"name":"pawou_c-Mesh_4_texcoords","componentType":5126,"count":5,"min":[0,-2.5539400577545166],"max":[1,0.36151599884033203],"type":"VEC2","bufferView":1,"byteOffset":2848},{"name":"pawou_c-Mesh_4_indices","componentType":5123,"count":12,"min":[0],"max":[4],"type":"SCALAR","bufferView":2,"byteOffset":2400},{"name":"pawou_c-Mesh_5_positions","componentType":5126,"count":60,"min":[-1.583428978919983,4.652575969696045,-3.678783893585205],"max":[1.6165709495544434,6.2138872146606445,-1.9680240154266357],"type":"VEC3","bufferView":0,"byteOffset":4332},{"name":"pawou_c-Mesh_5_texcoords","componentType":5126,"count":60,"min":[0,0],"max":[1,1],"type":"VEC2","bufferView":1,"byteOffset":2888},{"name":"pawou_c-Mesh_5_indices","componentType":5123,"count":288,"min":[0],"max":[59],"type":"SCALAR","bufferView":2,"byteOffset":2424},{"name":"pawou_c-Mesh_6_positions","componentType":5126,"count":11,"min":[-0.3334290087223053,5.912567138671875,-3.8391740322113037],"max":[0.36657100915908813,6.312567234039307,-3.2391738891601562],"type":"VEC3","bufferView":0,"byteOffset":5052},{"name":"pawou_c-Mesh_6_texcoords","componentType":5126,"count":11,"min":[0.16666699945926666,0.20000000298023224],"max":[0.8333330154418945,0.8666660189628601],"type":"VEC2","bufferView":1,"byteOffset":3368},{"name":"pawou_c-Mesh_6_indices","componentType":5123,"count":36,"min":[0],"max":[10],"type":"SCALAR","bufferView":2,"byteOffset":3000},{"name":"pawou_c-Mesh_7_positions","componentType":5126,"count":19,"min":[0.746828019618988,5.599307060241699,-3.3328840732574463],"max":[1.2334810495376587,6.156937122344971,-2.278503894805908],"type":"VEC3","bufferView":0,"byteOffset":5184},{"name":"pawou_c-Mesh_7_texcoords","componentType":5126,"count":19,"min":[0.10146500170230865,0.056127000600099564],"max":[1.4453099966049194,0.6259430050849915],"type":"VEC2","bufferView":1,"byteOffset":3456},{"name":"pawou_c-Mesh_7_indices","componentType":5123,"count":57,"min":[0],"max":[18],"type":"SCALAR","bufferView":2,"byteOffset":3072},{"name":"pawou_c-Mesh_8_positions","componentType":5126,"count":28,"min":[-0.8234289884567261,5.323885917663574,-3.1559739112854004],"max":[0.8565710186958313,6.415956020355225,-1.8602440357208252],"type":"VEC3","bufferView":0,"byteOffset":5412},{"name":"pawou_c-Mesh_8_texcoords","componentType":5126,"count":28,"min":[0,0],"max":[1,1],"type":"VEC2","bufferView":1,"byteOffset":3608},{"name":"pawou_c-Mesh_8_indices","componentType":5123,"count":111,"min":[0],"max":[27],"type":"SCALAR","bufferView":2,"byteOffset":3188},{"name":"pawou_c-Mesh_9_positions","componentType":5126,"count":48,"min":[-4.425979137420654,1.2473959922790527,-0.9750750064849854],"max":[4.459121227264404,3.4448869228363037,0.046778999269008636],"type":"VEC3","bufferView":0,"byteOffset":5748},{"name":"pawou_c-Mesh_9_texcoords","componentType":5126,"count":48,"min":[0,0.045455001294612885],"max":[1,0.9545450210571289],"type":"VEC2","bufferView":1,"byteOffset":3832},{"name":"pawou_c-Mesh_9_indices","componentType":5123,"count":234,"min":[0],"max":[47],"type":"SCALAR","bufferView":2,"byteOffset":3412}],"asset":{"generator":"obj2gltf","version":"2.0"},"buffers":[{"name":"BR_Seel-Shiny01","byteLength":79480,"uri":"data:application/octet-stream;base64,"}],"bufferViews":[{"name":"bufferView_0","buffer":0,"byteLength":6324,"byteOffset":0,"byteStride":12,"target":34962},{"name":"bufferView_1","buffer":0,"byteLength":4216,"byteOffset":6324,"byteStride":8,"target":34962},{"name":"bufferView_2","buffer":0,"byteLength":3880,"byteOffset":10540,"target":34963},{"buffer":0,"byteOffset":14420,"byteLength":1042},{"buffer":0,"byteOffset":15462,"byteLength":3090},{"buffer":0,"byteOffset":18552,"byteLength":38418},{"buffer":0,"byteOffset":56970,"byteLength":10258},{"buffer":0,"byteOffset":67228,"byteLength":530},{"buffer":0,"byteOffset":67758,"byteLength":1042},{"buffer":0,"byteOffset":68800,"byteLength":4114},{"buffer":0,"byteOffset":72914,"byteLength":3090},{"buffer":0,"byteOffset":76004,"byteLength":3474}],"images":[{"name":"pawou_c_1_0","mimeType":"image/x-tga","bufferView":3},{"name":"pawou_c_1_1","mimeType":"image/x-tga","bufferView":4},{"name":"pawou_c_1_2","mimeType":"image/x-tga","bufferView":5},{"name":"pawou_c_1_3","mimeType":"image/x-tga","bufferView":6},{"name":"pawou_c_1_4","mimeType":"image/x-tga","bufferView":7},{"name":"pawou_c_1_5","mimeType":"image/x-tga","bufferView":8},{"name":"pawou_c_1_6","mimeType":"image/x-tga","bufferView":9},{"name":"pawou_c_1_7","mimeType":"image/x-tga","bufferView":10},{"name":"pawou_c_1_8","mimeType":"image/x-tga","bufferView":11}],"materials":[{"name":"mat_0","pbrMetallicRoughness":{"baseColorTexture":{"index":0},"baseColorFactor":[1,1,1,1],"metallicFactor":0,"roughnessFactor":0.903921569},"emissiveFactor":[0,0,0],"alphaMode":"BLEND","doubleSided":true},{"name":"mat_1","pbrMetallicRoughness":{"baseColorTexture":{"index":1},"baseColorFactor":[1,1,1,1],"metallicFactor":0,"roughnessFactor":0.903921569},"emissiveFactor":[0,0,0],"alphaMode":"BLEND","doubleSided":true},{"name":"mat_2","pbrMetallicRoughness":{"baseColorTexture":{"index":2},"baseColorFactor":[1,1,1,1],"metallicFactor":0,"roughnessFactor":0.903921569},"emissiveFactor":[0,0,0],"alphaMode":"BLEND","doubleSided":true},{"name":"mat_3","pbrMetallicRoughness":{"baseColorTexture":{"index":3},"baseColorFactor":[1,1,1,1],"metallicFactor":0,"roughnessFactor":0.903921569},"emissiveFactor":[0,0,0],"alphaMode":"BLEND","doubleSided":true},{"name":"mat_4","pbrMetallicRoughness":{"baseColorTexture":{"index":4},"baseColorFactor":[1,1,1,1],"metallicFactor":0,"roughnessFactor":0.903921569},"emissiveFactor":[0,0,0],"alphaMode":"BLEND","doubleSided":true},{"name":"mat_5","pbrMetallicRoughness":{"baseColorTexture":{"index":5},"baseColorFactor":[1,1,1,1],"metallicFactor":0,"roughnessFactor":0.903921569},"emissiveFactor":[0,0,0],"alphaMode":"BLEND","doubleSided":true},{"name":"mat_6","pbrMetallicRoughness":{"baseColorTexture":{"index":6},"baseColorFactor":[1,1,1,1],"metallicFactor":0,"roughnessFactor":0.903921569},"emissiveFactor":[0,0,0],"alphaMode":"BLEND","doubleSided":true},{"name":"mat_7","pbrMetallicRoughness":{"baseColorFactor":[0.8,0.8,0.8,1],"metallicFactor":0,"roughnessFactor":0.903921569},"emissiveFactor":[0,0,0],"alphaMode":"OPAQUE","doubleSided":false},{"name":"mat_8","pbrMetallicRoughness":{"baseColorTexture":{"index":7},"baseColorFactor":[1,1,1,1],"metallicFactor":0,"roughnessFactor":0.903921569},"emissiveFactor":[0,0,0],"alphaMode":"BLEND","doubleSided":true},{"name":"mat_9","pbrMetallicRoughness":{"baseColorTexture":{"index":8},"baseColorFactor":[1,1,1,1],"metallicFactor":0,"roughnessFactor":0.903921569},"emissiveFactor":[0,0,0],"alphaMode":"BLEND","doubleSided":true}],"meshes":[{"name":"pawou_c-Mesh","primitives":[{"attributes":{"POSITION":0,"TEXCOORD_0":1},"indices":2,"material":0,"mode":4},{"attributes":{"POSITION":3,"TEXCOORD_0":4},"indices":5,"material":1,"mode":4},{"attributes":{"POSITION":6,"TEXCOORD_0":7},"indices":8,"material":2,"mode":4},{"attributes":{"POSITION":9,"TEXCOORD_0":10},"indices":11,"material":3,"mode":4},{"attributes":{"POSITION":12,"TEXCOORD_0":13},"indices":14,"material":4,"mode":4},{"attributes":{"POSITION":15,"TEXCOORD_0":16},"indices":17,"material":5,"mode":4},{"attributes":{"POSITION":18,"TEXCOORD_0":19},"indices":20,"material":6,"mode":4},{"attributes":{"POSITION":21,"TEXCOORD_0":22},"indices":23,"material":7,"mode":4},{"attributes":{"POSITION":24,"TEXCOORD_0":25},"indices":26,"material":8,"mode":4},{"attributes":{"POSITION":27,"TEXCOORD_0":28},"indices":29,"material":9,"mode":4}]}],"nodes":[{"name":"pawou_c","mesh":0}],"samplers":[{"wrapS":10497,"wrapT":10497}],"scene":0,"scenes":[{"nodes":[0]}],"textures":[{"name":"pawou_c_1_0","sampler":0,"source":0},{"name":"pawou_c_1_1","sampler":0,"source":1},{"name":"pawou_c_1_2","sampler":0,"source":2},{"name":"pawou_c_1_3","sampler":0,"source":3},{"name":"pawou_c_1_4","sampler":0,"source":4},{"name":"pawou_c_1_5","sampler":0,"source":5},{"name":"pawou_c_1_6","sampler":0,"source":6},{"name":"pawou_c_1_7","sampler":0,"source":7},{"name":"pawou_c_1_8","sampler":0,"source":8}]}