{"accessors":[{"name":"jugon-Mesh_0_positions","componentType":5126,"count":296,"min":[-1.4107400178909302,-2.5613598823547363,-1.3363699913024902],"max":[1.4107400178909302,8.277170181274414,1.368109941482544],"type":"VEC3","bufferView":0,"byteOffset":0},{"name":"jugon-Mesh_0_texcoords","componentType":5126,"count":296,"min":[0,0],"max":[1,1],"type":"VEC2","bufferView":1,"byteOffset":0},{"name":"jugon-Mesh_0_indices","componentType":5123,"count":1029,"min":[0],"max":[295],"type":"SCALAR","bufferView":2,"byteOffset":0},{"name":"jugon-Mesh_1_positions","componentType":5126,"count":146,"min":[-3.3030800819396973,-8.721799850463867,-0.375124990940094],"max":[3.3030800819396973,5.96707010269165,0.3176659941673279],"type":"VEC3","bufferView":0,"byteOffset":3552},{"name":"jugon-Mesh_1_texcoords","componentType":5126,"count":146,"min":[-0.0006859999848529696,-0.32624998688697815],"max":[0.9993129968643188,1.14472496509552],"type":"VEC2","bufferView":1,"byteOffset":2368},{"name":"jugon-Mesh_1_indices","componentType":5123,"count":738,"min":[0],"max":[145],"type":"SCALAR","bufferView":2,"byteOffset":2060},{"name":"jugon-Mesh_2_positions","componentType":5126,"count":8,"min":[-0.6377320289611816,5.937620162963867,0.6765519976615906],"max":[-0.4690369963645935,6.243969917297363,0.8713449835777283],"type":"VEC3","bufferView":0,"byteOffset":5304},{"name":"jugon-Mesh_2_texcoords","componentType":5126,"count":8,"min":[0.05236300081014633,-0.03849000111222267],"max":[0.5953549742698669,0.7234179973602295],"type":"VEC2","bufferView":1,"byteOffset":3536},{"name":"jugon-Mesh_2_indices","componentType":5123,"count":12,"min":[0],"max":[7],"type":"SCALAR","bufferView":2,"byteOffset":3536},{"name":"jugon-Mesh_3_positions","componentType":5126,"count":14,"min":[-0.8092749714851379,6.5737199783325195,0.2635610103607178],"max":[0.8092740178108215,7.609570026397705,0.9059169888496399],"type":"VEC3","bufferView":0,"byteOffset":5400},{"name":"jugon-Mesh_3_texcoords","componentType":5126,"count":14,"min":[0.04464799910783768,-0.6085699796676636],"max":[0.3423309922218323,0.9976480007171631],"type":"VEC2","bufferView":1,"byteOffset":3600},{"name":"jugon-Mesh_3_indices","componentType":5123,"count":42,"min":[0],"max":[13],"type":"SCALAR","bufferView":2,"byteOffset":3560},{"name":"jugon-Mesh_4_positions","componentType":5126,"count":13,"min":[-0.7629809975624084,6.179570198059082,0.3846069872379303],"max":[0.7629799842834473,6.320000171661377,1.0573999881744385],"type":"VEC3","bufferView":0,"byteOffset":5568},{"name":"jugon-Mesh_4_texcoords","componentType":5126,"count":13,"min":[-0.01886099949479103,-0.016860000789165497],"max":[1.0327999591827393,0.9308450222015381],"type":"VEC2","bufferView":1,"byteOffset":3712},{"name":"jugon-Mesh_4_indices","componentType":5123,"count":27,"min":[0],"max":[12],"type":"SCALAR","bufferView":2,"byteOffset":3644},{"name":"jugon-Mesh_5_positions","componentType":5126,"count":11,"min":[-0.7629809975624084,6.179570198059082,0.3846069872379303],"max":[0.7629799842834473,6.31289005279541,0.8380579948425293],"type":"VEC3","bufferView":0,"byteOffset":5724},{"name":"jugon-Mesh_5_texcoords","componentType":5126,"count":11,"min":[0.03533000126481056,-0.006339999847114086],"max":[0.9599999785423279,0.9950590133666992],"type":"VEC2","bufferView":1,"byteOffset":3816},{"name":"jugon-Mesh_5_indices","componentType":5123,"count":30,"min":[0],"max":[10],"type":"SCALAR","bufferView":2,"byteOffset":3700},{"name":"jugon-Mesh_6_positions","componentType":5126,"count":19,"min":[-0.11508099734783173,6.662459850311279,1.0358599424362183],"max":[0.11508099734783173,6.741049766540527,1.151039958000183],"type":"VEC3","bufferView":0,"byteOffset":5856},{"name":"jugon-Mesh_6_texcoords","componentType":5126,"count":19,"min":[0.08419399708509445,0.3059050142765045],"max":[0.9907310009002686,1.0800420045852661],"type":"VEC2","bufferView":1,"byteOffset":3904},{"name":"jugon-Mesh_6_indices","componentType":5123,"count":90,"min":[0],"max":[18],"type":"SCALAR","bufferView":2,"byteOffset":3760}],"asset":{"generator":"obj2gltf","version":"2.0"},"buffers":[{"name":"BR_Dewgong-Shiny01","byteLength":57196,"uri":"data:application/octet-stream;base64,"}],"bufferViews":[{"name":"bufferView_0","buffer":0,"byteLength":6084,"byteOffset":0,"byteStride":12,"target":34962},{"name":"bufferView_1","buffer":0,"byteLength":4056,"byteOffset":6084,"byteStride":8,"target":34962},{"name":"bufferView_2","buffer":0,"byteLength":3940,"byteOffset":10140,"target":34963},{"buffer":0,"byteOffset":14080,"byteLength":4114},{"buffer":0,"byteOffset":18194,"byteLength":8210},{"buffer":0,"byteOffset":26404,"byteLength":18450},{"buffer":0,"byteOffset":44854,"byteLength":4114},{"buffer":0,"byteOffset":48968,"byteLength":4114},{"buffer":0,"byteOffset":53082,"byteLength":4114}],"images":[{"name":"jugon_1_0","mimeType":"image/x-tga","bufferView":3},{"name":"jugon_1_1","mimeType":"image/x-tga","bufferView":4},{"name":"jugon_1_2","mimeType":"image/x-tga","bufferView":5},{"name":"jugon_1_3","mimeType":"image/x-tga","bufferView":6},{"name":"jugon_1_4","mimeType":"image/x-tga","bufferView":7},{"name":"jugon_1_5","mimeType":"image/x-tga","bufferView":8}],"materials":[{"name":"mat_0","pbrMetallicRoughness":{"baseColorTexture":{"index":0},"baseColorFactor":[1,1,1,1],"metallicFactor":0,"roughnessFactor":0.903921569},"emissiveFactor":[0,0,0],"alphaMode":"BLEND","doubleSided":true},{"name":"mat_1","pbrMetallicRoughness":{"baseColorTexture":{"index":1},"baseColorFactor":[1,1,1,1],"metallicFactor":0,"roughnessFactor":0.903921569},"emissiveFactor":[0,0,0],"alphaMode":"BLEND","doubleSided":true},{"name":"mat_2","pbrMetallicRoughness":{"baseColorFactor":[0.8,0.8,0.8,1],"metallicFactor":0,"roughnessFactor":0.903921569},"emissiveFactor":[0,0,0],"alphaMode":"OPAQUE","doubleSided":false},{"name":"mat_3","pbrMetallicRoughness":{"baseColorTexture":{"index":2},"baseColorFactor":[1,1,1,1],"metallicFactor":0,"roughnessFactor":0.903921569},"emissiveFactor":[0,0,0],"alphaMode":"BLEND","doubleSided":true},{"name":"mat_4","pbrMetallicRoughness":{"baseColorTexture":{"index":3},"baseColorFactor":[1,1,1,1],"metallicFactor":0,"roughnessFactor":0.903921569},"emissiveFactor":[0,0,0],"alphaMode":"BLEND","doubleSided":true},{"name":"mat_5","pbrMetallicRoughness":{"baseColorTexture":{"index":4},"baseColorFactor":[1,1,1,1],"metallicFactor":0,"roughnessFactor":0.903921569},"emissiveFactor":[0,0,0],"alphaMode":"BLEND","doubleSided":true},{"name":"mat_6","pbrMetallicRoughness":{"baseColorTexture":{"index":5},"baseColorFactor":[1,1,1,1],"metallicFactor":0,"roughnessFactor":0.903921569},"emissiveFactor":[0,0,0],"alphaMode":"BLEND","doubleSided":true}],"meshes":[{"name":"jugon-Mesh","primitives":[{"attributes":{"POSITION":0,"TEXCOORD_0":1},"indices":2,"material":0,"mode":4},{"attributes":{"POSITION":3,"TEXCOORD_0":4},"indices":5,"material":1,"mode":4},{"attributes":{"POSITION":6,"TEXCOORD_0":7},"indices":8,"material":2,"mode":4},{"attributes":{"POSITION":9,"TEXCOORD_0":10},"indices":11,"material":3,"mode":4},{"attributes":{"POSITION":12,"TEXCOORD_0":13},"indices":14,"material":4,"mode":4},{"attributes":{"POSITION":15,"TEXCOORD_0":16},"indices":17,"material":5,"mode":4},{"attributes":{"POSITION":18,"TEXCOORD_0":19},"indices":20,"material":6,"mode":4}]}],"nodes":[{"name":"jugon","mesh":0}],"samplers":[{"wrapS":10497,"wrapT":10497}],"scene":0,"scenes":[{"nodes":[0]}],"textures":[{"name":"jugon_1_0","sampler":0,"source":0},{"name":"jugon_1_1","sampler":0,"source":1},{"name":"jugon_1_2","sampler":0,"source":2},{"name":"jugon_1_3","sampler":0,"source":3},{"name":"jugon_1_4","sampler":0,"source":4},{"name":"jugon_1_5","sampler":0,"source":5}]}