{"accessors":[{"name":"betbeter-Mesh_0_positions","componentType":5126,"count":34,"min":[-0.9353079795837402,-0.8895300030708313,-0.06221099942922592],"max":[0.9353079795837402,0.8895300030708313,0.11778900027275085],"type":"VEC3","bufferView":0,"byteOffset":0},{"name":"betbeter-Mesh_0_texcoords","componentType":5126,"count":34,"min":[0,0],"max":[1,0.6666669845581055],"type":"VEC2","bufferView":1,"byteOffset":0},{"name":"betbeter-Mesh_0_indices","componentType":5123,"count":90,"min":[0],"max":[33],"type":"SCALAR","bufferView":2,"byteOffset":0}],"asset":{"generator":"obj2gltf","version":"2.0"},"buffers":[{"name":"BR_Grimer-Shiny01","byteLength":944,"uri":"data:application/octet-stream;base64,"}],"bufferViews":[{"name":"bufferView_0","buffer":0,"byteLength":408,"byteOffset":0,"byteStride":12,"target":34962},{"name":"bufferView_1","buffer":0,"byteLength":272,"byteOffset":408,"byteStride":8,"target":34962},{"name":"bufferView_2","buffer":0,"byteLength":180,"byteOffset":680,"target":34963},{"buffer":0,"byteOffset":860,"byteLength":82}],"images":[{"name":"betbeter_1_0","mimeType":"image/x-tga","bufferView":3}],"materials":[{"name":"mat_0","pbrMetallicRoughness":{"baseColorTexture":{"index":0},"baseColorFactor":[1,1,1,1],"metallicFactor":0,"roughnessFactor":0.903921569},"emissiveFactor":[0,0,0],"alphaMode":"BLEND","doubleSided":true}],"meshes":[{"name":"betbeter-Mesh","primitives":[{"attributes":{"POSITION":0,"TEXCOORD_0":1},"indices":2,"material":0,"mode":4}]}],"nodes":[{"name":"betbeter","mesh":0}],"samplers":[{"wrapS":10497,"wrapT":10497}],"scene":0,"scenes":[{"nodes":[0]}],"textures":[{"name":"betbeter_1_0","sampler":0,"source":0}]}