{"accessors":[{"name":"shellder-Mesh_0_positions","componentType":5126,"count":105,"min":[-1.8983800411224365,-1.6426299810409546,-1.5449999570846558],"max":[1.8983800411224365,2.062562942504883,0.02929599955677986],"type":"VEC3","bufferView":0,"byteOffset":0},{"name":"shellder-Mesh_0_texcoords","componentType":5126,"count":105,"min":[0,0.0006370000191964209],"max":[1,1],"type":"VEC2","bufferView":1,"byteOffset":0},{"name":"shellder-Mesh_0_indices","componentType":5123,"count":477,"min":[0],"max":[104],"type":"SCALAR","bufferView":2,"byteOffset":0},{"name":"shellder-Mesh_1_positions","componentType":5126,"count":86,"min":[-1.8929400444030762,-1.940958023071289,-2.7560720443725586],"max":[1.8995200395584106,2.027614116668701,-0.2669990062713623],"type":"VEC3","bufferView":0,"byteOffset":1260},{"name":"shellder-Mesh_1_texcoords","componentType":5126,"count":86,"min":[-0.0507970005273819,-0.09457000344991684],"max":[1.0506600141525269,0.9882310032844543],"type":"VEC2","bufferView":1,"byteOffset":840},{"name":"shellder-Mesh_1_indices","componentType":5123,"count":294,"min":[0],"max":[85],"type":"SCALAR","bufferView":2,"byteOffset":956},{"name":"shellder-Mesh_2_positions","componentType":5126,"count":201,"min":[-2.354569911956787,-1.940958023071289,-3.1776199340820312],"max":[2.36122989654541,2.062562942504883,-0.7685250043869019],"type":"VEC3","bufferView":0,"byteOffset":2292},{"name":"shellder-Mesh_2_texcoords","componentType":5126,"count":201,"min":[0,0],"max":[1,1],"type":"VEC2","bufferView":1,"byteOffset":1528},{"name":"shellder-Mesh_2_indices","componentType":5123,"count":675,"min":[0],"max":[200],"type":"SCALAR","bufferView":2,"byteOffset":1544},{"name":"shellder-Mesh_3_positions","componentType":5126,"count":48,"min":[-1.3046799898147583,-1.2075870037078857,-2.582326889038086],"max":[1.3035800457000732,1.4389870166778564,-0.6457359790802002],"type":"VEC3","bufferView":0,"byteOffset":4704},{"name":"shellder-Mesh_3_texcoords","componentType":5126,"count":48,"min":[0,0],"max":[1,1],"type":"VEC2","bufferView":1,"byteOffset":3136},{"name":"shellder-Mesh_3_indices","componentType":5123,"count":174,"min":[0],"max":[47],"type":"SCALAR","bufferView":2,"byteOffset":2896},{"name":"shellder-Mesh_4_positions","componentType":5126,"count":34,"min":[-1.1369099617004395,-1.4128079414367676,-3.1776199340820312],"max":[1.1435799598693848,1.86080002784729,-1.1199250221252441],"type":"VEC3","bufferView":0,"byteOffset":5280},{"name":"shellder-Mesh_4_texcoords","componentType":5126,"count":34,"min":[0.012117999605834484,0.02018900029361248],"max":[0.9945030212402344,0.9880809783935547],"type":"VEC2","bufferView":1,"byteOffset":3520},{"name":"shellder-Mesh_4_indices","componentType":5123,"count":114,"min":[0],"max":[33],"type":"SCALAR","bufferView":2,"byteOffset":3244},{"name":"shellder-Mesh_5_positions","componentType":5126,"count":32,"min":[-1.9841699600219727,-1.3999040126800537,-2.6792709827423096],"max":[1.9908299446105957,1.6489830017089844,-0.974524974822998],"type":"VEC3","bufferView":0,"byteOffset":5688},{"name":"shellder-Mesh_5_texcoords","componentType":5126,"count":32,"min":[0.004679999779909849,-0.034370001405477524],"max":[0.9956120252609253,0.9954320192337036],"type":"VEC2","bufferView":1,"byteOffset":3792},{"name":"shellder-Mesh_5_indices","componentType":5123,"count":96,"min":[0],"max":[31],"type":"SCALAR","bufferView":2,"byteOffset":3472},{"name":"shellder-Mesh_6_positions","componentType":5126,"count":16,"min":[-1.0402899980545044,1.4223229885101318,-2.43778395652771],"max":[1.0403300523757935,1.6508760452270508,-1.1162530183792114],"type":"VEC3","bufferView":0,"byteOffset":6072},{"name":"shellder-Mesh_6_texcoords","componentType":5126,"count":16,"min":[0.0905809998512268,0.005402999930083752],"max":[1.0005500316619873,0.1227789968252182],"type":"VEC2","bufferView":1,"byteOffset":4048},{"name":"shellder-Mesh_6_indices","componentType":5123,"count":36,"min":[0],"max":[15],"type":"SCALAR","bufferView":2,"byteOffset":3664},{"name":"shellder-Mesh_7_positions","componentType":5126,"count":12,"min":[-0.4259350001811981,1.4105169773101807,-1.5581239461898804],"max":[0.4287939965724945,2.173830986022949,-1.1307200193405151],"type":"VEC3","bufferView":0,"byteOffset":6264},{"name":"shellder-Mesh_7_texcoords","componentType":5126,"count":12,"min":[-0.0006249999860301614,0],"max":[1.0006300210952759,1],"type":"VEC2","bufferView":1,"byteOffset":4176},{"name":"shellder-Mesh_7_indices","componentType":5123,"count":36,"min":[0],"max":[11],"type":"SCALAR","bufferView":2,"byteOffset":3736},{"name":"shellder-Mesh_8_positions","componentType":5126,"count":12,"min":[-0.5852519869804382,2.108062982559204,-1.3857630491256714],"max":[0.5877739787101746,2.8227310180664062,-0.8702920079231262],"type":"VEC3","bufferView":0,"byteOffset":6408},{"name":"shellder-Mesh_8_texcoords","componentType":5126,"count":12,"min":[-0.0006249999860301614,0],"max":[1.0006200075149536,1],"type":"VEC2","bufferView":1,"byteOffset":4272},{"name":"shellder-Mesh_8_indices","componentType":5123,"count":36,"min":[0],"max":[11],"type":"SCALAR","bufferView":2,"byteOffset":3808},{"name":"shellder-Mesh_9_positions","componentType":5126,"count":12,"min":[-0.6022449731826782,2.719547986984253,-1.1500359773635864],"max":[0.6051049828529358,3.5461390018463135,-0.49669399857521057],"type":"VEC3","bufferView":0,"byteOffset":6552},{"name":"shellder-Mesh_9_texcoords","componentType":5126,"count":12,"min":[0,0],"max":[1.0015699863433838,1],"type":"VEC2","bufferView":1,"byteOffset":4368},{"name":"shellder-Mesh_9_indices","componentType":5123,"count":36,"min":[0],"max":[11],"type":"SCALAR","bufferView":2,"byteOffset":3880},{"name":"shellder-Mesh_10_positions","componentType":5126,"count":10,"min":[-0.6022449731826782,3.402941942214966,-0.7831159830093384],"max":[0.6051049828529358,4.005536079406738,-0.2219969928264618],"type":"VEC3","bufferView":0,"byteOffset":6696},{"name":"shellder-Mesh_10_texcoords","componentType":5126,"count":10,"min":[0,0],"max":[1,1],"type":"VEC2","bufferView":1,"byteOffset":4464},{"name":"shellder-Mesh_10_indices","componentType":5123,"count":36,"min":[0],"max":[9],"type":"SCALAR","bufferView":2,"byteOffset":3952}],"asset":{"generator":"obj2gltf","version":"2.0"},"buffers":[{"name":"BR_Shellder-Shiny01","byteLength":107488,"uri":"data:application/octet-stream;base64,"}],"bufferViews":[{"name":"bufferView_0","buffer":0,"byteLength":6816,"byteOffset":0,"byteStride":12,"target":34962},{"name":"bufferView_1","buffer":0,"byteLength":4544,"byteOffset":6816,"byteStride":8,"target":34962},{"name":"bufferView_2","buffer":0,"byteLength":4024,"byteOffset":11360,"target":34963},{"buffer":0,"byteOffset":15384,"byteLength":274},{"buffer":0,"byteOffset":15658,"byteLength":1042},{"buffer":0,"byteOffset":16700,"byteLength":274},{"buffer":0,"byteOffset":16974,"byteLength":274},{"buffer":0,"byteOffset":17248,"byteLength":8210},{"buffer":0,"byteOffset":25458,"byteLength":8210},{"buffer":0,"byteOffset":33668,"byteLength":40978},{"buffer":0,"byteOffset":74646,"byteLength":8210},{"buffer":0,"byteOffset":82856,"byteLength":8210},{"buffer":0,"byteOffset":91066,"byteLength":8210},{"buffer":0,"byteOffset":99276,"byteLength":8210}],"images":[{"name":"shellder_1_0","mimeType":"image/x-tga","bufferView":3},{"name":"shellder_1_1","mimeType":"image/x-tga","bufferView":4},{"name":"shellder_1_2","mimeType":"image/x-tga","bufferView":5},{"name":"shellder_1_3","mimeType":"image/x-tga","bufferView":6},{"name":"shellder_1_4","mimeType":"image/x-tga","bufferView":7},{"name":"shellder_1_5","mimeType":"image/x-tga","bufferView":8},{"name":"shellder_1_6","mimeType":"image/x-tga","bufferView":9},{"name":"shellder_1_7","mimeType":"image/x-tga","bufferView":10},{"name":"shellder_1_8","mimeType":"image/x-tga","bufferView":11},{"name":"shellder_1_9","mimeType":"image/x-tga","bufferView":12},{"name":"shellder_1_10","mimeType":"image/x-tga","bufferView":13}],"materials":[{"name":"mat_0","pbrMetallicRoughness":{"baseColorTexture":{"index":0},"baseColorFactor":[1,1,1,1],"metallicFactor":0,"roughnessFactor":0.903921569},"emissiveFactor":[0,0,0],"alphaMode":"BLEND","doubleSided":true},{"name":"mat_1","pbrMetallicRoughness":{"baseColorTexture":{"index":1},"baseColorFactor":[1,1,1,1],"metallicFactor":0,"roughnessFactor":0.903921569},"emissiveFactor":[0,0,0],"alphaMode":"BLEND","doubleSided":true},{"name":"mat_2","pbrMetallicRoughness":{"baseColorTexture":{"index":2},"baseColorFactor":[1,1,1,1],"metallicFactor":0,"roughnessFactor":0.903921569},"emissiveFactor":[0,0,0],"alphaMode":"BLEND","doubleSided":true},{"name":"mat_3","pbrMetallicRoughness":{"baseColorTexture":{"index":3},"baseColorFactor":[1,1,1,1],"metallicFactor":0,"roughnessFactor":0.903921569},"emissiveFactor":[0,0,0],"alphaMode":"BLEND","doubleSided":true},{"name":"mat_4","pbrMetallicRoughness":{"baseColorTexture":{"index":4},"baseColorFactor":[1,1,1,1],"metallicFactor":0,"roughnessFactor":0.903921569},"emissiveFactor":[0,0,0],"alphaMode":"BLEND","doubleSided":true},{"name":"mat_5","pbrMetallicRoughness":{"baseColorTexture":{"index":5},"baseColorFactor":[1,1,1,1],"metallicFactor":0,"roughnessFactor":0.903921569},"emissiveFactor":[0,0,0],"alphaMode":"BLEND","doubleSided":true},{"name":"mat_6","pbrMetallicRoughness":{"baseColorTexture":{"index":6},"baseColorFactor":[1,1,1,1],"metallicFactor":0,"roughnessFactor":0.903921569},"emissiveFactor":[0,0,0],"alphaMode":"BLEND","doubleSided":true},{"name":"mat_7","pbrMetallicRoughness":{"baseColorTexture":{"index":7},"baseColorFactor":[1,1,1,1],"metallicFactor":0,"roughnessFactor":0.903921569},"emissiveFactor":[0,0,0],"alphaMode":"BLEND","doubleSided":true},{"name":"mat_8","pbrMetallicRoughness":{"baseColorTexture":{"index":8},"baseColorFactor":[1,1,1,1],"metallicFactor":0,"roughnessFactor":0.903921569},"emissiveFactor":[0,0,0],"alphaMode":"BLEND","doubleSided":true},{"name":"mat_9","pbrMetallicRoughness":{"baseColorTexture":{"index":9},"baseColorFactor":[1,1,1,1],"metallicFactor":0,"roughnessFactor":0.903921569},"emissiveFactor":[0,0,0],"alphaMode":"BLEND","doubleSided":true},{"name":"mat_10","pbrMetallicRoughness":{"baseColorTexture":{"index":10},"baseColorFactor":[1,1,1,1],"metallicFactor":0,"roughnessFactor":0.903921569},"emissiveFactor":[0,0,0],"alphaMode":"BLEND","doubleSided":true}],"meshes":[{"name":"shellder-Mesh","primitives":[{"attributes":{"POSITION":0,"TEXCOORD_0":1},"indices":2,"material":0,"mode":4},{"attributes":{"POSITION":3,"TEXCOORD_0":4},"indices":5,"material":1,"mode":4},{"attributes":{"POSITION":6,"TEXCOORD_0":7},"indices":8,"material":2,"mode":4},{"attributes":{"POSITION":9,"TEXCOORD_0":10},"indices":11,"material":3,"mode":4},{"attributes":{"POSITION":12,"TEXCOORD_0":13},"indices":14,"material":4,"mode":4},{"attributes":{"POSITION":15,"TEXCOORD_0":16},"indices":17,"material":5,"mode":4},{"attributes":{"POSITION":18,"TEXCOORD_0":19},"indices":20,"material":6,"mode":4},{"attributes":{"POSITION":21,"TEXCOORD_0":22},"indices":23,"material":7,"mode":4},{"attributes":{"POSITION":24,"TEXCOORD_0":25},"indices":26,"material":8,"mode":4},{"attributes":{"POSITION":27,"TEXCOORD_0":28},"indices":29,"material":9,"mode":4},{"attributes":{"POSITION":30,"TEXCOORD_0":31},"indices":32,"material":10,"mode":4}]}],"nodes":[{"name":"shellder","mesh":0}],"samplers":[{"wrapS":10497,"wrapT":10497}],"scene":0,"scenes":[{"nodes":[0]}],"textures":[{"name":"shellder_1_0","sampler":0,"source":0},{"name":"shellder_1_1","sampler":0,"source":1},{"name":"shellder_1_2","sampler":0,"source":2},{"name":"shellder_1_3","sampler":0,"source":3},{"name":"shellder_1_4","sampler":0,"source":4},{"name":"shellder_1_5","sampler":0,"source":5},{"name":"shellder_1_6","sampler":0,"source":6},{"name":"shellder_1_7","sampler":0,"source":7},{"name":"shellder_1_8","sampler":0,"source":8},{"name":"shellder_1_9","sampler":0,"source":9},{"name":"shellder_1_10","sampler":0,"source":10}]}