{"accessors":[{"name":"parshen-Mesh_0_positions","componentType":5126,"count":18,"min":[-1.8843599557876587,1.7595399618148804,-11.49020004272461],"max":[1.8843599557876587,4.447559833526611,-10.502300262451172],"type":"VEC3","bufferView":0,"byteOffset":0},{"name":"parshen-Mesh_0_texcoords","componentType":5126,"count":18,"min":[0.4246479868888855,0.6204259991645813],"max":[0.5753520131111145,0.6765760183334351],"type":"VEC2","bufferView":1,"byteOffset":0},{"name":"parshen-Mesh_0_indices","componentType":5123,"count":45,"min":[0],"max":[17],"type":"SCALAR","bufferView":2,"byteOffset":0},{"name":"parshen-Mesh_1_positions","componentType":5126,"count":15,"min":[-2.574280023574829,3.3190500736236572,-13.131400108337402],"max":[2.574280023574829,5.667069911956787,-10.637499809265137],"type":"VEC3","bufferView":0,"byteOffset":216},{"name":"parshen-Mesh_1_texcoords","componentType":5126,"count":15,"min":[-0.20910300314426422,-0.060600001364946365],"max":[1.2021600008010864,0.2717280089855194],"type":"VEC2","bufferView":1,"byteOffset":144},{"name":"parshen-Mesh_1_indices","componentType":5123,"count":48,"min":[0],"max":[14],"type":"SCALAR","bufferView":2,"byteOffset":92},{"name":"parshen-Mesh_2_positions","componentType":5126,"count":25,"min":[-2.4412100315093994,2.157870054244995,-15.845600128173828],"max":[2.4412100315093994,5.730100154876709,-14.038399696350098],"type":"VEC3","bufferView":0,"byteOffset":396},{"name":"parshen-Mesh_2_texcoords","componentType":5126,"count":25,"min":[0.06527899950742722,0.01827000081539154],"max":[0.7576010227203369,0.662093997001648],"type":"VEC2","bufferView":1,"byteOffset":264},{"name":"parshen-Mesh_2_indices","componentType":5123,"count":87,"min":[0],"max":[24],"type":"SCALAR","bufferView":2,"byteOffset":188},{"name":"parshen-Mesh_3_positions","componentType":5126,"count":12,"min":[-2.574280023574829,3.5893800258636475,-14.168800354003906],"max":[2.574280023574829,5.730100154876709,-12.508899688720703],"type":"VEC3","bufferView":0,"byteOffset":696},{"name":"parshen-Mesh_3_texcoords","componentType":5126,"count":12,"min":[0.004730000160634518,0.03894000127911568],"max":[1.725000023841858,0.179734006524086],"type":"VEC2","bufferView":1,"byteOffset":464},{"name":"parshen-Mesh_3_indices","componentType":5123,"count":24,"min":[0],"max":[11],"type":"SCALAR","bufferView":2,"byteOffset":364},{"name":"parshen-Mesh_4_positions","componentType":5126,"count":202,"min":[-7.272779941558838,-10.488699913024902,-19.51449966430664],"max":[7.27278995513916,6.8720197677612305,-5.0571699142456055],"type":"VEC3","bufferView":0,"byteOffset":840},{"name":"parshen-Mesh_4_texcoords","componentType":5126,"count":202,"min":[0.0062500000931322575,0],"max":[1,1],"type":"VEC2","bufferView":1,"byteOffset":560},{"name":"parshen-Mesh_4_indices","componentType":5123,"count":990,"min":[0],"max":[201],"type":"SCALAR","bufferView":2,"byteOffset":412},{"name":"parshen-Mesh_5_positions","componentType":5126,"count":72,"min":[-12.503800392150879,-2.960520029067993,-22.40489959716797],"max":[12.503800392150879,3.0513501167297363,-4.812560081481934],"type":"VEC3","bufferView":0,"byteOffset":3264},{"name":"parshen-Mesh_5_texcoords","componentType":5126,"count":72,"min":[0.21357999742031097,0.3763119876384735],"max":[0.9897509813308716,0.9967210292816162],"type":"VEC2","bufferView":1,"byteOffset":2176},{"name":"parshen-Mesh_5_indices","componentType":5123,"count":276,"min":[0],"max":[71],"type":"SCALAR","bufferView":2,"byteOffset":2392},{"name":"parshen-Mesh_6_positions","componentType":5126,"count":66,"min":[-6.247859954833984,-10.488699913024902,-19.318599700927734],"max":[6.247859954833984,6.809770107269287,-5.252749919891357],"type":"VEC3","bufferView":0,"byteOffset":4128},{"name":"parshen-Mesh_6_texcoords","componentType":5126,"count":66,"min":[0.03528299927711487,0.021882999688386917],"max":[0.9755989909172058,0.8725129961967468],"type":"VEC2","bufferView":1,"byteOffset":2752},{"name":"parshen-Mesh_6_indices","componentType":5123,"count":210,"min":[0],"max":[65],"type":"SCALAR","bufferView":2,"byteOffset":2944},{"name":"parshen-Mesh_7_positions","componentType":5126,"count":16,"min":[-12.33489990234375,-1.024440050125122,-12.906800270080566],"max":[12.33489990234375,1.492550015449524,-10.807499885559082],"type":"VEC3","bufferView":0,"byteOffset":4920},{"name":"parshen-Mesh_7_texcoords","componentType":5126,"count":16,"min":[0.24880899488925934,0.24496300518512726],"max":[0.9801250100135803,1.0096149444580078],"type":"VEC2","bufferView":1,"byteOffset":3280},{"name":"parshen-Mesh_7_indices","componentType":5123,"count":60,"min":[0],"max":[15],"type":"SCALAR","bufferView":2,"byteOffset":3364},{"name":"parshen-Mesh_8_positions","componentType":5126,"count":8,"min":[-1.0235600471496582,1.8667000532150269,-18.092899322509766],"max":[1.0235600471496582,10.66469955444336,-15.51930046081543],"type":"VEC3","bufferView":0,"byteOffset":5112},{"name":"parshen-Mesh_8_texcoords","componentType":5126,"count":8,"min":[0,0.024305999279022217],"max":[0.9965280294418335,1],"type":"VEC2","bufferView":1,"byteOffset":3408},{"name":"parshen-Mesh_8_indices","componentType":5123,"count":18,"min":[0],"max":[7],"type":"SCALAR","bufferView":2,"byteOffset":3484},{"name":"parshen-Mesh_9_positions","componentType":5126,"count":27,"min":[-4.154550075531006,-5.6369099617004395,-18.20709991455078],"max":[0,5.326980113983154,-6.699190139770508],"type":"VEC3","bufferView":0,"byteOffset":5208},{"name":"parshen-Mesh_9_texcoords","componentType":5126,"count":27,"min":[0,0],"max":[1.010990023612976,1],"type":"VEC2","bufferView":1,"byteOffset":3472},{"name":"parshen-Mesh_9_indices","componentType":5123,"count":102,"min":[0],"max":[26],"type":"SCALAR","bufferView":2,"byteOffset":3520},{"name":"parshen-Mesh_10_positions","componentType":5126,"count":36,"min":[-3.0193099975585938,-5.636919975280762,-18.20709991455078],"max":[3.067610025405884,5.326980113983154,-6.352149963378906],"type":"VEC3","bufferView":0,"byteOffset":5532},{"name":"parshen-Mesh_10_texcoords","componentType":5126,"count":36,"min":[0.14508900046348572,0],"max":[1,0.8482139706611633],"type":"VEC2","bufferView":1,"byteOffset":3688},{"name":"parshen-Mesh_10_indices","componentType":5123,"count":120,"min":[0],"max":[35],"type":"SCALAR","bufferView":2,"byteOffset":3724},{"name":"parshen-Mesh_11_positions","componentType":5126,"count":27,"min":[-1.2526500225067139,-5.636919975280762,-18.20709991455078],"max":[4.221020221710205,5.326970100402832,-6.03872013092041],"type":"VEC3","bufferView":0,"byteOffset":5964},{"name":"parshen-Mesh_11_texcoords","componentType":5126,"count":27,"min":[0,0],"max":[1.0044599771499634,1],"type":"VEC2","bufferView":1,"byteOffset":3976},{"name":"parshen-Mesh_11_indices","componentType":5123,"count":114,"min":[0],"max":[26],"type":"SCALAR","bufferView":2,"byteOffset":3964}],"asset":{"generator":"obj2gltf","version":"2.0"},"buffers":[{"name":"BR_Cloyster-Shiny01","byteLength":113176,"uri":"data:application/octet-stream;base64,"}],"bufferViews":[{"name":"bufferView_0","buffer":0,"byteLength":6288,"byteOffset":0,"byteStride":12,"target":34962},{"name":"bufferView_1","buffer":0,"byteLength":4192,"byteOffset":6288,"byteStride":8,"target":34962},{"name":"bufferView_2","buffer":0,"byteLength":4192,"byteOffset":10480,"target":34963},{"buffer":0,"byteOffset":14672,"byteLength":4114},{"buffer":0,"byteOffset":18786,"byteLength":32786},{"buffer":0,"byteOffset":51572,"byteLength":4114},{"buffer":0,"byteOffset":55686,"byteLength":20498},{"buffer":0,"byteOffset":76184,"byteLength":8210},{"buffer":0,"byteOffset":84394,"byteLength":4114},{"buffer":0,"byteOffset":88508,"byteLength":4114},{"buffer":0,"byteOffset":92622,"byteLength":4114},{"buffer":0,"byteOffset":96736,"byteLength":8210},{"buffer":0,"byteOffset":104946,"byteLength":4114},{"buffer":0,"byteOffset":109060,"byteLength":4114}],"images":[{"name":"parshen_1_0","mimeType":"image/x-tga","bufferView":3},{"name":"parshen_1_1","mimeType":"image/x-tga","bufferView":4},{"name":"parshen_1_2","mimeType":"image/x-tga","bufferView":5},{"name":"parshen_1_3","mimeType":"image/x-tga","bufferView":6},{"name":"parshen_1_4","mimeType":"image/x-tga","bufferView":7},{"name":"parshen_1_5","mimeType":"image/x-tga","bufferView":8},{"name":"parshen_1_6","mimeType":"image/x-tga","bufferView":9},{"name":"parshen_1_7","mimeType":"image/x-tga","bufferView":10},{"name":"parshen_1_8","mimeType":"image/x-tga","bufferView":11},{"name":"parshen_1_9","mimeType":"image/x-tga","bufferView":12},{"name":"parshen_1_10","mimeType":"image/x-tga","bufferView":13}],"materials":[{"name":"mat_0","pbrMetallicRoughness":{"baseColorTexture":{"index":0},"baseColorFactor":[1,1,1,1],"metallicFactor":0,"roughnessFactor":0.903921569},"emissiveFactor":[0,0,0],"alphaMode":"BLEND","doubleSided":true},{"name":"mat_1","pbrMetallicRoughness":{"baseColorTexture":{"index":1},"baseColorFactor":[1,1,1,1],"metallicFactor":0,"roughnessFactor":0.903921569},"emissiveFactor":[0,0,0],"alphaMode":"BLEND","doubleSided":true},{"name":"mat_2","pbrMetallicRoughness":{"baseColorTexture":{"index":2},"baseColorFactor":[1,1,1,1],"metallicFactor":0,"roughnessFactor":0.903921569},"emissiveFactor":[0,0,0],"alphaMode":"BLEND","doubleSided":true},{"name":"mat_3","pbrMetallicRoughness":{"baseColorTexture":{"index":3},"baseColorFactor":[1,1,1,1],"metallicFactor":0,"roughnessFactor":0.903921569},"emissiveFactor":[0,0,0],"alphaMode":"BLEND","doubleSided":true},{"name":"mat_4","pbrMetallicRoughness":{"baseColorTexture":{"index":4},"baseColorFactor":[1,1,1,1],"metallicFactor":0,"roughnessFactor":0.903921569},"emissiveFactor":[0,0,0],"alphaMode":"BLEND","doubleSided":true},{"name":"mat_5","pbrMetallicRoughness":{"baseColorTexture":{"index":5},"baseColorFactor":[1,1,1,1],"metallicFactor":0,"roughnessFactor":0.903921569},"emissiveFactor":[0,0,0],"alphaMode":"BLEND","doubleSided":true},{"name":"mat_6","pbrMetallicRoughness":{"baseColorTexture":{"index":6},"baseColorFactor":[1,1,1,1],"metallicFactor":0,"roughnessFactor":0.903921569},"emissiveFactor":[0,0,0],"alphaMode":"BLEND","doubleSided":true},{"name":"mat_7","pbrMetallicRoughness":{"baseColorTexture":{"index":7},"baseColorFactor":[1,1,1,1],"metallicFactor":0,"roughnessFactor":0.903921569},"emissiveFactor":[0,0,0],"alphaMode":"BLEND","doubleSided":true},{"name":"mat_8","pbrMetallicRoughness":{"baseColorTexture":{"index":8},"baseColorFactor":[1,1,1,1],"metallicFactor":0,"roughnessFactor":0.903921569},"emissiveFactor":[0,0,0],"alphaMode":"BLEND","doubleSided":true},{"name":"mat_9","pbrMetallicRoughness":{"baseColorTexture":{"index":9},"baseColorFactor":[1,1,1,1],"metallicFactor":0,"roughnessFactor":0.903921569},"emissiveFactor":[0,0,0],"alphaMode":"BLEND","doubleSided":true},{"name":"mat_10","pbrMetallicRoughness":{"baseColorTexture":{"index":10},"baseColorFactor":[1,1,1,1],"metallicFactor":0,"roughnessFactor":0.903921569},"emissiveFactor":[0,0,0],"alphaMode":"BLEND","doubleSided":true},{"name":"mat_11","pbrMetallicRoughness":{"baseColorTexture":{"index":9},"baseColorFactor":[1,1,1,1],"metallicFactor":0,"roughnessFactor":0.903921569},"emissiveFactor":[0,0,0],"alphaMode":"BLEND","doubleSided":true}],"meshes":[{"name":"parshen-Mesh","primitives":[{"attributes":{"POSITION":0,"TEXCOORD_0":1},"indices":2,"material":0,"mode":4},{"attributes":{"POSITION":3,"TEXCOORD_0":4},"indices":5,"material":1,"mode":4},{"attributes":{"POSITION":6,"TEXCOORD_0":7},"indices":8,"material":2,"mode":4},{"attributes":{"POSITION":9,"TEXCOORD_0":10},"indices":11,"material":3,"mode":4},{"attributes":{"POSITION":12,"TEXCOORD_0":13},"indices":14,"material":4,"mode":4},{"attributes":{"POSITION":15,"TEXCOORD_0":16},"indices":17,"material":5,"mode":4},{"attributes":{"POSITION":18,"TEXCOORD_0":19},"indices":20,"material":6,"mode":4},{"attributes":{"POSITION":21,"TEXCOORD_0":22},"indices":23,"material":7,"mode":4},{"attributes":{"POSITION":24,"TEXCOORD_0":25},"indices":26,"material":8,"mode":4},{"attributes":{"POSITION":27,"TEXCOORD_0":28},"indices":29,"material":9,"mode":4},{"attributes":{"POSITION":30,"TEXCOORD_0":31},"indices":32,"material":10,"mode":4},{"attributes":{"POSITION":33,"TEXCOORD_0":34},"indices":35,"material":11,"mode":4}]}],"nodes":[{"name":"parshen","mesh":0}],"samplers":[{"wrapS":10497,"wrapT":10497}],"scene":0,"scenes":[{"nodes":[0]}],"textures":[{"name":"parshen_1_0","sampler":0,"source":0},{"name":"parshen_1_1","sampler":0,"source":1},{"name":"parshen_1_2","sampler":0,"source":2},{"name":"parshen_1_3","sampler":0,"source":3},{"name":"parshen_1_4","sampler":0,"source":4},{"name":"parshen_1_5","sampler":0,"source":5},{"name":"parshen_1_6","sampler":0,"source":6},{"name":"parshen_1_7","sampler":0,"source":7},{"name":"parshen_1_8","sampler":0,"source":8},{"name":"parshen_1_9","sampler":0,"source":9},{"name":"parshen_1_10","sampler":0,"source":10}]}