{"accessors":[{"name":"polygon0_1_0_positions","componentType":5126,"count":913,"min":[-4.194913864135742,0.0015879999846220016,-3.4219748973846436],"max":[4.194934844970703,6.872050762176514,3.7348899841308594],"type":"VEC3","bufferView":0,"byteOffset":0},{"name":"polygon0_1_0_normals","componentType":5126,"count":913,"min":[-0.9999662041664124,-0.9993531107902527,-1],"max":[0.9999662041664124,1,0.9999486804008484],"type":"VEC3","bufferView":1,"byteOffset":0},{"name":"polygon0_1_0_texcoords","componentType":5126,"count":913,"min":[0.01937899924814701,0.01577799953520298],"max":[0.9690250158309937,0.9890140295028687],"type":"VEC2","bufferView":2,"byteOffset":0},{"name":"polygon0_1_0_indices","componentType":5123,"count":4302,"min":[0],"max":[912],"type":"SCALAR","bufferView":3,"byteOffset":0},{"name":"polygon1_1_0_positions","componentType":5126,"count":16,"min":[-2.3704071044921875,3.2559781074523926,3.248307943344116],"max":[2.370429039001465,4.4559149742126465,3.6409289836883545],"type":"VEC3","bufferView":0,"byteOffset":10956},{"name":"polygon1_1_0_normals","componentType":5126,"count":16,"min":[-0.48166078329086304,-0.10070599615573883,0.875770628452301],"max":[0.48166078329086304,0.03713701292872429,0.9533347487449646],"type":"VEC3","bufferView":1,"byteOffset":10956},{"name":"polygon1_1_0_texcoords","componentType":5126,"count":16,"min":[0.015625,0.023437000811100006],"max":[0.4921880066394806,0.2460940033197403],"type":"VEC2","bufferView":2,"byteOffset":7304},{"name":"polygon1_1_0_indices","componentType":5123,"count":42,"min":[0],"max":[15],"type":"SCALAR","bufferView":3,"byteOffset":8604}],"asset":{"generator":"obj2gltf","version":"2.0"},"buffers":[{"name":"Gastly","byteLength":185908,"uri":"data:application/octet-stream;base64,"}],"bufferViews":[{"name":"bufferView_0","buffer":0,"byteLength":11148,"byteOffset":0,"byteStride":12,"target":34962},{"name":"bufferView_1","buffer":0,"byteLength":11148,"byteOffset":11148,"byteStride":12,"target":34962},{"name":"bufferView_2","buffer":0,"byteLength":7432,"byteOffset":22296,"byteStride":8,"target":34962},{"name":"bufferView_3","buffer":0,"byteLength":8688,"byteOffset":29728,"target":34963},{"buffer":0,"byteOffset":38416,"byteLength":49170},{"buffer":0,"byteOffset":87586,"byteLength":98322}],"images":[{"name":"GhosDh","mimeType":"image/x-tga","bufferView":4},{"name":"GhosEyeDh","mimeType":"image/x-tga","bufferView":5}],"materials":[{"name":"mat1","pbrMetallicRoughness":{"baseColorTexture":{"index":0},"baseColorFactor":[1,1,1,1],"metallicFactor":0,"roughnessFactor":0.99},"emissiveFactor":[0,0,0],"alphaMode":"OPAQUE","doubleSided":false},{"name":"mat2","pbrMetallicRoughness":{"baseColorTexture":{"index":1},"baseColorFactor":[1,1,1,1],"metallicFactor":0,"roughnessFactor":0.99},"emissiveFactor":[0,0,0],"alphaMode":"OPAQUE","doubleSided":false}],"meshes":[{"name":"polygon0_1","primitives":[{"attributes":{"POSITION":0,"NORMAL":1,"TEXCOORD_0":2},"indices":3,"material":0,"mode":4}]},{"name":"polygon1_1","primitives":[{"attributes":{"POSITION":4,"NORMAL":5,"TEXCOORD_0":6},"indices":7,"material":1,"mode":4}]}],"nodes":[{"name":"polygon0","mesh":0},{"name":"polygon1","mesh":1}],"samplers":[{"wrapS":10497,"wrapT":10497}],"scene":0,"scenes":[{"nodes":[0,1]}],"textures":[{"name":"GhosDh","sampler":0,"source":0},{"name":"GhosEyeDh","sampler":0,"source":1}]}