{"accessors":[{"name":"polygon0_1_0_positions","componentType":5126,"count":31,"min":[-4.644876956939697,7.7479071617126465,3.736495018005371],"max":[4.644877910614014,12.926176071166992,6.705900192260742],"type":"VEC3","bufferView":0,"byteOffset":0},{"name":"polygon0_1_0_normals","componentType":5126,"count":31,"min":[-0.815766453742981,-0.19531607627868652,0.5782868266105652],"max":[0.8157667517662048,0.28197506070137024,0.9997310042381287],"type":"VEC3","bufferView":1,"byteOffset":0},{"name":"polygon0_1_0_texcoords","componentType":5126,"count":31,"min":[0.0039059999398887157,0.03125],"max":[0.4960939884185791,0.2226559966802597],"type":"VEC2","bufferView":2,"byteOffset":0},{"name":"polygon0_1_0_indices","componentType":5123,"count":120,"min":[0],"max":[30],"type":"SCALAR","bufferView":3,"byteOffset":0},{"name":"polygon1_1_0_positions","componentType":5126,"count":844,"min":[-10.86356258392334,-0.010765999555587769,-14.285219192504883],"max":[10.86356258392334,18.65473175048828,11.850348472595215],"type":"VEC3","bufferView":0,"byteOffset":372},{"name":"polygon1_1_0_normals","componentType":5126,"count":844,"min":[-0.997995913028717,-0.9959391355514526,-0.9867846369743347],"max":[0.997995913028717,0.9999650120735168,0.9997310042381287],"type":"VEC3","bufferView":1,"byteOffset":372},{"name":"polygon1_1_0_texcoords","componentType":5126,"count":844,"min":[0.008880999870598316,0.011749000288546085],"max":[0.9925230145454407,0.9859309792518616],"type":"VEC2","bufferView":2,"byteOffset":248},{"name":"polygon1_1_0_indices","componentType":5123,"count":4188,"min":[0],"max":[843],"type":"SCALAR","bufferView":3,"byteOffset":240}],"asset":{"generator":"obj2gltf","version":"2.0"},"buffers":[{"name":"Haunter","byteLength":263308,"uri":"data:application/octet-stream;base64,"}],"bufferViews":[{"name":"bufferView_0","buffer":0,"byteLength":10500,"byteOffset":0,"byteStride":12,"target":34962},{"name":"bufferView_1","buffer":0,"byteLength":10500,"byteOffset":10500,"byteStride":12,"target":34962},{"name":"bufferView_2","buffer":0,"byteLength":7000,"byteOffset":21000,"byteStride":8,"target":34962},{"name":"bufferView_3","buffer":0,"byteLength":8616,"byteOffset":28000,"target":34963},{"buffer":0,"byteOffset":36616,"byteLength":177522},{"buffer":0,"byteOffset":214138,"byteLength":49170}],"images":[{"name":"GhostEyeDh","mimeType":"image/x-tga","bufferView":4},{"name":"GhostDh","mimeType":"image/x-tga","bufferView":5}],"materials":[{"name":"mat2","pbrMetallicRoughness":{"baseColorTexture":{"index":0},"baseColorFactor":[1,1,1,1],"metallicFactor":0,"roughnessFactor":0.99},"emissiveFactor":[0,0,0],"alphaMode":"OPAQUE","doubleSided":false},{"name":"mat1","pbrMetallicRoughness":{"baseColorTexture":{"index":1},"baseColorFactor":[1,1,1,1],"metallicFactor":0,"roughnessFactor":0.99},"emissiveFactor":[0,0,0],"alphaMode":"OPAQUE","doubleSided":false}],"meshes":[{"name":"polygon0_1","primitives":[{"attributes":{"POSITION":0,"NORMAL":1,"TEXCOORD_0":2},"indices":3,"material":0,"mode":4}]},{"name":"polygon1_1","primitives":[{"attributes":{"POSITION":4,"NORMAL":5,"TEXCOORD_0":6},"indices":7,"material":1,"mode":4}]}],"nodes":[{"name":"polygon0","mesh":0},{"name":"polygon1","mesh":1}],"samplers":[{"wrapS":10497,"wrapT":10497}],"scene":0,"scenes":[{"nodes":[0,1]}],"textures":[{"name":"GhostEyeDh","sampler":0,"source":0},{"name":"GhostDh","sampler":0,"source":1}]}