{"accessors":[{"name":"polygon0_1_0_positions","componentType":5126,"count":47,"min":[-3.635793924331665,7.731571197509766,3.788649082183838],"max":[3.6357951164245605,11.372899055480957,6.22531795501709],"type":"VEC3","bufferView":0,"byteOffset":0},{"name":"polygon0_1_0_normals","componentType":5126,"count":47,"min":[-0.6897639632225037,0.05798502638936043,0.5397279262542725],"max":[0.6897639632225037,0.5963678956031799,0.9983174800872803],"type":"VEC3","bufferView":1,"byteOffset":0},{"name":"polygon0_1_0_texcoords","componentType":5126,"count":47,"min":[0.023437999188899994,0.0039059999398887157],"max":[0.4765630066394806,0.2460940033197403],"type":"VEC2","bufferView":2,"byteOffset":0},{"name":"polygon0_1_0_indices","componentType":5123,"count":198,"min":[0],"max":[46],"type":"SCALAR","bufferView":3,"byteOffset":0},{"name":"polygon1_1_0_positions","componentType":5126,"count":815,"min":[-9.882086753845215,-0.0053010000847280025,-6.746476173400879],"max":[9.882086753845215,15.688643455505371,6.22531795501709],"type":"VEC3","bufferView":0,"byteOffset":564},{"name":"polygon1_1_0_normals","componentType":5126,"count":815,"min":[-0.9964129328727722,-0.9999889731407166,-0.99959796667099],"max":[0.9964129328727722,0.9987879395484924,0.9989739060401917],"type":"VEC3","bufferView":1,"byteOffset":564},{"name":"polygon1_1_0_texcoords","componentType":5126,"count":815,"min":[0.007996000349521637,0.0014949999749660492],"max":[0.9989929795265198,0.9947810173034668],"type":"VEC2","bufferView":2,"byteOffset":376},{"name":"polygon1_1_0_indices","componentType":5123,"count":3546,"min":[0],"max":[814],"type":"SCALAR","bufferView":3,"byteOffset":396}],"asset":{"generator":"obj2gltf","version":"2.0"},"buffers":[{"name":"Gengar","byteLength":409220,"uri":"data:application/octet-stream;base64,"}],"bufferViews":[{"name":"bufferView_0","buffer":0,"byteLength":10344,"byteOffset":0,"byteStride":12,"target":34962},{"name":"bufferView_1","buffer":0,"byteLength":10344,"byteOffset":10344,"byteStride":12,"target":34962},{"name":"bufferView_2","buffer":0,"byteLength":6896,"byteOffset":20688,"byteStride":8,"target":34962},{"name":"bufferView_3","buffer":0,"byteLength":7488,"byteOffset":27584,"target":34963},{"buffer":0,"byteOffset":35072,"byteLength":177522},{"buffer":0,"byteOffset":212594,"byteLength":196626}],"images":[{"name":"GangarEyeDh","mimeType":"image/x-tga","bufferView":4},{"name":"GangarDh","mimeType":"image/x-tga","bufferView":5}],"materials":[{"name":"mat2","pbrMetallicRoughness":{"baseColorTexture":{"index":0},"baseColorFactor":[1,1,1,1],"metallicFactor":0,"roughnessFactor":0.99},"emissiveFactor":[0,0,0],"alphaMode":"OPAQUE","doubleSided":false},{"name":"mat1","pbrMetallicRoughness":{"baseColorTexture":{"index":1},"baseColorFactor":[1,1,1,1],"metallicFactor":0,"roughnessFactor":0.99},"emissiveFactor":[0,0,0],"alphaMode":"OPAQUE","doubleSided":false}],"meshes":[{"name":"polygon0_1","primitives":[{"attributes":{"POSITION":0,"NORMAL":1,"TEXCOORD_0":2},"indices":3,"material":0,"mode":4}]},{"name":"polygon1_1","primitives":[{"attributes":{"POSITION":4,"NORMAL":5,"TEXCOORD_0":6},"indices":7,"material":1,"mode":4}]}],"nodes":[{"name":"polygon0","mesh":0},{"name":"polygon1","mesh":1}],"samplers":[{"wrapS":10497,"wrapT":10497}],"scene":0,"scenes":[{"nodes":[0,1]}],"textures":[{"name":"GangarEyeDh","sampler":0,"source":0},{"name":"GangarDh","sampler":0,"source":1}]}