{"accessors":[{"name":"iwark-Mesh_0_positions","componentType":5126,"count":12,"min":[5.963955879211426,17.521270751953125,-16.899459838867188],"max":[13.484289169311523,24.434982299804688,-13.732366561889648],"type":"VEC3","bufferView":0,"byteOffset":0},{"name":"iwark-Mesh_0_texcoords","componentType":5126,"count":12,"min":[0.023528000339865685,0.012570999562740326],"max":[0.976472020149231,0.9086610078811646],"type":"VEC2","bufferView":1,"byteOffset":0},{"name":"iwark-Mesh_0_indices","componentType":5123,"count":36,"min":[0],"max":[11],"type":"SCALAR","bufferView":2,"byteOffset":0},{"name":"iwark-Mesh_1_positions","componentType":5126,"count":985,"min":[-12.83828353881836,-21.652050018310547,-27.74738311767578],"max":[24.737245559692383,25.812517166137695,0.518930971622467],"type":"VEC3","bufferView":0,"byteOffset":144},{"name":"iwark-Mesh_1_texcoords","componentType":5126,"count":985,"min":[-0.006626000162214041,0],"max":[0.6926239728927612,1],"type":"VEC2","bufferView":1,"byteOffset":96},{"name":"iwark-Mesh_1_indices","componentType":5123,"count":1971,"min":[0],"max":[984],"type":"SCALAR","bufferView":2,"byteOffset":72},{"name":"iwark-Mesh_2_positions","componentType":5126,"count":12,"min":[5.770713806152344,21.557926177978516,-18.159116744995117],"max":[11.155474662780762,24.23998260498047,-16.779436111450195],"type":"VEC3","bufferView":0,"byteOffset":11964},{"name":"iwark-Mesh_2_texcoords","componentType":5126,"count":12,"min":[-1.9202300310134888,0.022929999977350235],"max":[2.80826997756958,0.25753000378608704],"type":"VEC2","bufferView":1,"byteOffset":7976},{"name":"iwark-Mesh_2_indices","componentType":5123,"count":24,"min":[0],"max":[11],"type":"SCALAR","bufferView":2,"byteOffset":4016},{"name":"iwark-Mesh_3_positions","componentType":5126,"count":12,"min":[5.551733016967773,17.01129722595215,-15.493624687194824],"max":[13.702310562133789,24.71142578125,-13.532926559448242],"type":"VEC3","bufferView":0,"byteOffset":12108},{"name":"iwark-Mesh_3_texcoords","componentType":5126,"count":12,"min":[-0.04262999817728996,0.009313000366091728],"max":[1.0266300439834595,0.9981110095977783],"type":"VEC2","bufferView":1,"byteOffset":8072},{"name":"iwark-Mesh_3_indices","componentType":5123,"count":24,"min":[0],"max":[11],"type":"SCALAR","bufferView":2,"byteOffset":4064},{"name":"iwark-Mesh_4_positions","componentType":5126,"count":7,"min":[6.571046829223633,16.460203170776367,-16.175046920776367],"max":[13.529783248901367,19.879030227661133,-13.398104667663574],"type":"VEC3","bufferView":0,"byteOffset":12252},{"name":"iwark-Mesh_4_texcoords","componentType":5126,"count":7,"min":[0.022213999181985855,0.5990340113639832],"max":[0.9777860045433044,1],"type":"VEC2","bufferView":1,"byteOffset":8168},{"name":"iwark-Mesh_4_indices","componentType":5123,"count":18,"min":[0],"max":[6],"type":"SCALAR","bufferView":2,"byteOffset":4112}],"asset":{"generator":"obj2gltf","version":"2.0"},"buffers":[{"name":"BR_Onix-Shiny01","byteLength":78028,"uri":"data:application/octet-stream;base64,"}],"bufferViews":[{"name":"bufferView_0","buffer":0,"byteLength":12336,"byteOffset":0,"byteStride":12,"target":34962},{"name":"bufferView_1","buffer":0,"byteLength":8224,"byteOffset":12336,"byteStride":8,"target":34962},{"name":"bufferView_2","buffer":0,"byteLength":4148,"byteOffset":20560,"target":34963},{"buffer":0,"byteOffset":24708,"byteLength":4114},{"buffer":0,"byteOffset":28822,"byteLength":4114},{"buffer":0,"byteOffset":32936,"byteLength":40978},{"buffer":0,"byteOffset":73914,"byteLength":4114}],"images":[{"name":"iwark_1_0","mimeType":"image/x-tga","bufferView":3},{"name":"iwark_1_2","mimeType":"image/x-tga","bufferView":4},{"name":"iwark_1_4","mimeType":"image/x-tga","bufferView":5},{"name":"iwark_1_5","mimeType":"image/x-tga","bufferView":6}],"materials":[{"name":"mat_0","pbrMetallicRoughness":{"baseColorTexture":{"index":0},"baseColorFactor":[1,1,1,1],"metallicFactor":0,"roughnessFactor":0.903921569},"emissiveFactor":[0,0,0],"alphaMode":"BLEND","doubleSided":true},{"name":"mat_1","pbrMetallicRoughness":{"baseColorTexture":{"index":1},"baseColorFactor":[1,1,1,1],"metallicFactor":0,"roughnessFactor":0.903921569},"emissiveFactor":[0,0,0],"alphaMode":"BLEND","doubleSided":true},{"name":"mat_2","pbrMetallicRoughness":{"baseColorTexture":{"index":2},"baseColorFactor":[1,1,1,1],"metallicFactor":0,"roughnessFactor":0.903921569},"emissiveFactor":[0,0,0],"alphaMode":"BLEND","doubleSided":true},{"name":"mat_3","pbrMetallicRoughness":{"baseColorTexture":{"index":3},"baseColorFactor":[1,1,1,1],"metallicFactor":0,"roughnessFactor":0.903921569},"emissiveFactor":[0,0,0],"alphaMode":"BLEND","doubleSided":true},{"name":"mat_4","pbrMetallicRoughness":{"baseColorTexture":{"index":1},"baseColorFactor":[1,1,1,1],"metallicFactor":0,"roughnessFactor":0.903921569},"emissiveFactor":[0,0,0],"alphaMode":"BLEND","doubleSided":true}],"meshes":[{"name":"iwark-Mesh","primitives":[{"attributes":{"POSITION":0,"TEXCOORD_0":1},"indices":2,"material":0,"mode":4},{"attributes":{"POSITION":3,"TEXCOORD_0":4},"indices":5,"material":1,"mode":4},{"attributes":{"POSITION":6,"TEXCOORD_0":7},"indices":8,"material":2,"mode":4},{"attributes":{"POSITION":9,"TEXCOORD_0":10},"indices":11,"material":3,"mode":4},{"attributes":{"POSITION":12,"TEXCOORD_0":13},"indices":14,"material":4,"mode":4}]}],"nodes":[{"name":"iwark","mesh":0}],"samplers":[{"wrapS":10497,"wrapT":10497}],"scene":0,"scenes":[{"nodes":[0]}],"textures":[{"name":"iwark_1_0","sampler":0,"source":0},{"name":"iwark_1_2","sampler":0,"source":1},{"name":"iwark_1_4","sampler":0,"source":2},{"name":"iwark_1_5","sampler":0,"source":3}]}