{"accessors":[{"name":"sleeper-Mesh_0_positions","componentType":5126,"count":22,"min":[-1.647297978401184,7.224764823913574,-11.739309310913086],"max":[1.647297978401184,8.080474853515625,-10.935032844543457],"type":"VEC3","bufferView":0,"byteOffset":0},{"name":"sleeper-Mesh_0_texcoords","componentType":5126,"count":22,"min":[0.06493200361728668,0.07039199769496918],"max":[0.9167240262031555,0.250247985124588],"type":"VEC2","bufferView":1,"byteOffset":0},{"name":"sleeper-Mesh_0_indices","componentType":5123,"count":66,"min":[0],"max":[21],"type":"SCALAR","bufferView":2,"byteOffset":0},{"name":"sleeper-Mesh_1_positions","componentType":5126,"count":1221,"min":[-9.712377548217773,-2.7615020275115967,-14.076183319091797],"max":[9.712377548217773,9.3989896774292,1.972005009651184],"type":"VEC3","bufferView":0,"byteOffset":264},{"name":"sleeper-Mesh_1_texcoords","componentType":5126,"count":1221,"min":[0.5124220252037048,0.6978939771652222],"max":[0.997389018535614,0.9961069822311401],"type":"VEC2","bufferView":1,"byteOffset":176},{"name":"sleeper-Mesh_1_indices","componentType":5123,"count":6780,"min":[0],"max":[1220],"type":"SCALAR","bufferView":2,"byteOffset":132}],"asset":{"generator":"obj2gltf","version":"2.0"},"buffers":[{"name":"BR_Hypno-Shiny01","byteLength":1152700,"uri":"data:application/octet-stream;base64,"}],"bufferViews":[{"name":"bufferView_0","buffer":0,"byteLength":14916,"byteOffset":0,"byteStride":12,"target":34962},{"name":"bufferView_1","buffer":0,"byteLength":9944,"byteOffset":14916,"byteStride":8,"target":34962},{"name":"bufferView_2","buffer":0,"byteLength":13692,"byteOffset":24860,"target":34963},{"buffer":0,"byteOffset":38552,"byteLength":65554},{"buffer":0,"byteOffset":104106,"byteLength":1048594}],"images":[{"name":"sleeper_1_0","mimeType":"image/x-tga","bufferView":3},{"name":"sleeper_1_1","mimeType":"image/x-tga","bufferView":4}],"materials":[{"name":"mat_0","pbrMetallicRoughness":{"baseColorTexture":{"index":0},"baseColorFactor":[1,1,1,1],"metallicFactor":0,"roughnessFactor":0.903921569},"emissiveFactor":[0,0,0],"alphaMode":"BLEND","doubleSided":true},{"name":"mat_1","pbrMetallicRoughness":{"baseColorTexture":{"index":1},"baseColorFactor":[1,1,1,1],"metallicFactor":0,"roughnessFactor":0.903921569},"emissiveFactor":[0,0,0],"alphaMode":"BLEND","doubleSided":true}],"meshes":[{"name":"sleeper-Mesh","primitives":[{"attributes":{"POSITION":0,"TEXCOORD_0":1},"indices":2,"material":0,"mode":4},{"attributes":{"POSITION":3,"TEXCOORD_0":4},"indices":5,"material":1,"mode":4}]}],"nodes":[{"name":"sleeper","mesh":0}],"samplers":[{"wrapS":10497,"wrapT":10497}],"scene":0,"scenes":[{"nodes":[0]}],"textures":[{"name":"sleeper_1_0","sampler":0,"source":0},{"name":"sleeper_1_1","sampler":0,"source":1}]}