{"accessors":[{"name":"polygon0_1_0_positions","componentType":5126,"count":88,"min":[-1.5635319948196411,3.573575973510742,1.4971710443496704],"max":[1.5635319948196411,4.54513692855835,2.2826309204101562],"type":"VEC3","bufferView":0,"byteOffset":0},{"name":"polygon0_1_0_normals","componentType":5126,"count":88,"min":[-0.9834949970245361,-0.7831312417984009,-0.5331379771232605],"max":[0.9834949970245361,0.9918836355209351,0.9858700633049011],"type":"VEC3","bufferView":1,"byteOffset":0},{"name":"polygon0_1_0_texcoords","componentType":5126,"count":88,"min":[-0.9797359704971313,0.005493000149726868],"max":[-0.5177000164985657,0.2409060001373291],"type":"VEC2","bufferView":2,"byteOffset":0},{"name":"polygon0_1_0_indices","componentType":5123,"count":450,"min":[0],"max":[87],"type":"SCALAR","bufferView":3,"byteOffset":0},{"name":"polygon1_1_0_positions","componentType":5126,"count":992,"min":[-9.43249797821045,-0.027559999376535416,-1.6869289875030518],"max":[9.432815551757812,5.827505111694336,2.4788169860839844],"type":"VEC3","bufferView":0,"byteOffset":1056},{"name":"polygon1_1_0_normals","componentType":5126,"count":992,"min":[-1,-0.9999984502792358,-0.9999240040779114],"max":[1,0.9999291896820068,0.9999247193336487],"type":"VEC3","bufferView":1,"byteOffset":1056},{"name":"polygon1_1_0_texcoords","componentType":5126,"count":992,"min":[0.006957999896258116,0.00891099963337183],"max":[0.9894099831581116,0.9822999835014343],"type":"VEC2","bufferView":2,"byteOffset":704},{"name":"polygon1_1_0_indices","componentType":5123,"count":4200,"min":[0],"max":[991],"type":"SCALAR","bufferView":3,"byteOffset":900}],"asset":{"generator":"obj2gltf","version":"2.0"},"buffers":[{"name":"Krabby","byteLength":338808,"uri":"data:application/octet-stream;base64,"}],"bufferViews":[{"name":"bufferView_0","buffer":0,"byteLength":12960,"byteOffset":0,"byteStride":12,"target":34962},{"name":"bufferView_1","buffer":0,"byteLength":12960,"byteOffset":12960,"byteStride":12,"target":34962},{"name":"bufferView_2","buffer":0,"byteLength":8640,"byteOffset":25920,"byteStride":8,"target":34962},{"name":"bufferView_3","buffer":0,"byteLength":9300,"byteOffset":34560,"target":34963},{"buffer":0,"byteOffset":43860,"byteLength":98322},{"buffer":0,"byteOffset":142182,"byteLength":196626}],"images":[{"name":"CrabEyeDh","mimeType":"image/x-tga","bufferView":4},{"name":"CrabDh","mimeType":"image/x-tga","bufferView":5}],"materials":[{"name":"mat2","pbrMetallicRoughness":{"baseColorTexture":{"index":0},"baseColorFactor":[1,1,1,1],"metallicFactor":0,"roughnessFactor":0.99},"emissiveFactor":[0,0,0],"alphaMode":"OPAQUE","doubleSided":false},{"name":"mat1","pbrMetallicRoughness":{"baseColorTexture":{"index":1},"baseColorFactor":[1,1,1,1],"metallicFactor":0,"roughnessFactor":0.99},"emissiveFactor":[0,0,0],"alphaMode":"OPAQUE","doubleSided":false}],"meshes":[{"name":"polygon0_1","primitives":[{"attributes":{"POSITION":0,"NORMAL":1,"TEXCOORD_0":2},"indices":3,"material":0,"mode":4}]},{"name":"polygon1_1","primitives":[{"attributes":{"POSITION":4,"NORMAL":5,"TEXCOORD_0":6},"indices":7,"material":1,"mode":4}]}],"nodes":[{"name":"polygon0","mesh":0},{"name":"polygon1","mesh":1}],"samplers":[{"wrapS":10497,"wrapT":10497}],"scene":0,"scenes":[{"nodes":[0,1]}],"textures":[{"name":"CrabEyeDh","sampler":0,"source":0},{"name":"CrabDh","sampler":0,"source":1}]}