{"accessors":[{"name":"kingler-Mesh_0_positions","componentType":5126,"count":206,"min":[-11.728099822998047,-5.265659809112549,-8.61338996887207],"max":[11.728099822998047,7.813799858093262,-0.19357800483703613],"type":"VEC3","bufferView":0,"byteOffset":0},{"name":"kingler-Mesh_0_texcoords","componentType":5126,"count":206,"min":[0.03175399824976921,0.01922300085425377],"max":[0.9933549761772156,1.0199999809265137],"type":"VEC2","bufferView":1,"byteOffset":0},{"name":"kingler-Mesh_0_indices","componentType":5123,"count":744,"min":[0],"max":[205],"type":"SCALAR","bufferView":2,"byteOffset":0},{"name":"kingler-Mesh_1_positions","componentType":5126,"count":111,"min":[-13.721799850463867,-6.589099884033203,-6.933499813079834],"max":[13.722000122070312,7.016900062561035,0.015509000048041344],"type":"VEC3","bufferView":0,"byteOffset":2472},{"name":"kingler-Mesh_1_texcoords","componentType":5126,"count":111,"min":[0,0],"max":[1,1],"type":"VEC2","bufferView":1,"byteOffset":1648},{"name":"kingler-Mesh_1_indices","componentType":5123,"count":405,"min":[0],"max":[110],"type":"SCALAR","bufferView":2,"byteOffset":1488},{"name":"kingler-Mesh_2_positions","componentType":5126,"count":55,"min":[-6.2818498611450195,-4.544879913330078,-13.059900283813477],"max":[6.305739879608154,6.471280097961426,-0.909492015838623],"type":"VEC3","bufferView":0,"byteOffset":3804},{"name":"kingler-Mesh_2_texcoords","componentType":5126,"count":55,"min":[0,-0.7864900231361389],"max":[1,0.44382399320602417],"type":"VEC2","bufferView":1,"byteOffset":2536},{"name":"kingler-Mesh_2_indices","componentType":5123,"count":165,"min":[0],"max":[54],"type":"SCALAR","bufferView":2,"byteOffset":2300},{"name":"kingler-Mesh_3_positions","componentType":5126,"count":51,"min":[-6.2818498611450195,-3.830049991607666,-13.059900283813477],"max":[6.305739879608154,5.212220191955566,-3.8815300464630127],"type":"VEC3","bufferView":0,"byteOffset":4464},{"name":"kingler-Mesh_3_texcoords","componentType":5126,"count":51,"min":[0,0],"max":[1,0.7083950042724609],"type":"VEC2","bufferView":1,"byteOffset":2976},{"name":"kingler-Mesh_3_indices","componentType":5123,"count":162,"min":[0],"max":[50],"type":"SCALAR","bufferView":2,"byteOffset":2632},{"name":"kingler-Mesh_4_positions","componentType":5126,"count":5,"min":[-1.64382004737854,1.678439974784851,-8.133790016174316],"max":[1.6922199726104736,3.6455299854278564,-6.7162299156188965],"type":"VEC3","bufferView":0,"byteOffset":5076},{"name":"kingler-Mesh_4_texcoords","componentType":5126,"count":5,"min":[0.00015700000221841037,0.0035089999437332153],"max":[1.0002299547195435,1.0017659664154053],"type":"VEC2","bufferView":1,"byteOffset":3384},{"name":"kingler-Mesh_4_indices","componentType":5123,"count":12,"min":[0],"max":[4],"type":"SCALAR","bufferView":2,"byteOffset":2956},{"name":"kingler-Mesh_5_positions","componentType":5126,"count":30,"min":[-3.5913798809051514,3.1171700954437256,-7.459080219268799],"max":[3.616919994354248,5.212220191955566,-6.007160186767578],"type":"VEC3","bufferView":0,"byteOffset":5136},{"name":"kingler-Mesh_5_texcoords","componentType":5126,"count":30,"min":[0.14761200547218323,0.10781099647283554],"max":[0.8416190147399902,0.22432099282741547],"type":"VEC2","bufferView":1,"byteOffset":3424},{"name":"kingler-Mesh_5_indices","componentType":5123,"count":132,"min":[0],"max":[29],"type":"SCALAR","bufferView":2,"byteOffset":2980},{"name":"kingler-Mesh_6_positions","componentType":5126,"count":58,"min":[-10.305800437927246,4.550710201263428,-14.860400199890137],"max":[8.762430191040039,10.541099548339844,-7.235869884490967],"type":"VEC3","bufferView":0,"byteOffset":5496},{"name":"kingler-Mesh_6_texcoords","componentType":5126,"count":58,"min":[0.029989000409841537,-0.0013200000394135714],"max":[1.00232994556427,1],"type":"VEC2","bufferView":1,"byteOffset":3664},{"name":"kingler-Mesh_6_indices","componentType":5123,"count":264,"min":[0],"max":[57],"type":"SCALAR","bufferView":2,"byteOffset":3244},{"name":"kingler-Mesh_7_positions","componentType":5126,"count":34,"min":[-8.6528902053833,6.012279987335205,-13.956700325012207],"max":[8.25862979888916,10.541099548339844,-6.534840106964111],"type":"VEC3","bufferView":0,"byteOffset":6192},{"name":"kingler-Mesh_7_texcoords","componentType":5126,"count":34,"min":[0.031206000596284866,0.1685519963502884],"max":[0.9879390001296997,1.006518006324768],"type":"VEC2","bufferView":1,"byteOffset":4128},{"name":"kingler-Mesh_7_indices","componentType":5123,"count":78,"min":[0],"max":[33],"type":"SCALAR","bufferView":2,"byteOffset":3772},{"name":"kingler-Mesh_8_positions","componentType":5126,"count":24,"min":[-9.088509559631348,6.086609840393066,-10.9375],"max":[8.25862979888916,10.150500297546387,-6.091400146484375],"type":"VEC3","bufferView":0,"byteOffset":6600},{"name":"kingler-Mesh_8_texcoords","componentType":5126,"count":24,"min":[0.027264000847935677,0.454241007566452],"max":[0.977728009223938,0.9921879768371582],"type":"VEC2","bufferView":1,"byteOffset":4400},{"name":"kingler-Mesh_8_indices","componentType":5123,"count":90,"min":[0],"max":[23],"type":"SCALAR","bufferView":2,"byteOffset":3928},{"name":"kingler-Mesh_9_positions","componentType":5126,"count":11,"min":[5.246099948883057,4.78341007232666,-10.37030029296875],"max":[9.61886978149414,9.333889961242676,-6.133080005645752],"type":"VEC3","bufferView":0,"byteOffset":6888},{"name":"kingler-Mesh_9_texcoords","componentType":5126,"count":11,"min":[0.000699999975040555,0.0033080000430345535],"max":[1.0031100511550903,0.9995149970054626],"type":"VEC2","bufferView":1,"byteOffset":4592},{"name":"kingler-Mesh_9_indices","componentType":5123,"count":42,"min":[0],"max":[10],"type":"SCALAR","bufferView":2,"byteOffset":4108}],"asset":{"generator":"obj2gltf","version":"2.0"},"buffers":[{"name":"BR_Kingler-Shiny01","byteLength":93000,"uri":"data:application/octet-stream;base64,"}],"bufferViews":[{"name":"bufferView_0","buffer":0,"byteLength":7020,"byteOffset":0,"byteStride":12,"target":34962},{"name":"bufferView_1","buffer":0,"byteLength":4680,"byteOffset":7020,"byteStride":8,"target":34962},{"name":"bufferView_2","buffer":0,"byteLength":4192,"byteOffset":11700,"target":34963},{"buffer":0,"byteOffset":15892,"byteLength":1042},{"buffer":0,"byteOffset":16934,"byteLength":82},{"buffer":0,"byteOffset":17016,"byteLength":2066},{"buffer":0,"byteOffset":19082,"byteLength":82},{"buffer":0,"byteOffset":19164,"byteLength":4114},{"buffer":0,"byteOffset":23278,"byteLength":49170},{"buffer":0,"byteOffset":72448,"byteLength":8210},{"buffer":0,"byteOffset":80658,"byteLength":4114},{"buffer":0,"byteOffset":84772,"byteLength":4114},{"buffer":0,"byteOffset":88886,"byteLength":4114}],"images":[{"name":"kingler_1_0","mimeType":"image/x-tga","bufferView":3},{"name":"kingler_1_1","mimeType":"image/x-tga","bufferView":4},{"name":"kingler_1_2","mimeType":"image/x-tga","bufferView":5},{"name":"kingler_1_3","mimeType":"image/x-tga","bufferView":6},{"name":"kingler_1_4","mimeType":"image/x-tga","bufferView":7},{"name":"kingler_1_5","mimeType":"image/x-tga","bufferView":8},{"name":"kingler_1_6","mimeType":"image/x-tga","bufferView":9},{"name":"kingler_1_7","mimeType":"image/x-tga","bufferView":10},{"name":"kingler_1_8","mimeType":"image/x-tga","bufferView":11},{"name":"kingler_1_9","mimeType":"image/x-tga","bufferView":12}],"materials":[{"name":"mat_0","pbrMetallicRoughness":{"baseColorTexture":{"index":0},"baseColorFactor":[1,1,1,1],"metallicFactor":0,"roughnessFactor":0.903921569},"emissiveFactor":[0,0,0],"alphaMode":"BLEND","doubleSided":true},{"name":"mat_1","pbrMetallicRoughness":{"baseColorTexture":{"index":1},"baseColorFactor":[1,1,1,1],"metallicFactor":0,"roughnessFactor":0.903921569},"emissiveFactor":[0,0,0],"alphaMode":"BLEND","doubleSided":true},{"name":"mat_2","pbrMetallicRoughness":{"baseColorTexture":{"index":2},"baseColorFactor":[1,1,1,1],"metallicFactor":0,"roughnessFactor":0.903921569},"emissiveFactor":[0,0,0],"alphaMode":"BLEND","doubleSided":true},{"name":"mat_3","pbrMetallicRoughness":{"baseColorTexture":{"index":3},"baseColorFactor":[1,1,1,1],"metallicFactor":0,"roughnessFactor":0.903921569},"emissiveFactor":[0,0,0],"alphaMode":"BLEND","doubleSided":true},{"name":"mat_4","pbrMetallicRoughness":{"baseColorTexture":{"index":4},"baseColorFactor":[1,1,1,1],"metallicFactor":0,"roughnessFactor":0.903921569},"emissiveFactor":[0,0,0],"alphaMode":"BLEND","doubleSided":true},{"name":"mat_5","pbrMetallicRoughness":{"baseColorTexture":{"index":5},"baseColorFactor":[1,1,1,1],"metallicFactor":0,"roughnessFactor":0.903921569},"emissiveFactor":[0,0,0],"alphaMode":"BLEND","doubleSided":true},{"name":"mat_6","pbrMetallicRoughness":{"baseColorTexture":{"index":6},"baseColorFactor":[1,1,1,1],"metallicFactor":0,"roughnessFactor":0.903921569},"emissiveFactor":[0,0,0],"alphaMode":"BLEND","doubleSided":true},{"name":"mat_7","pbrMetallicRoughness":{"baseColorTexture":{"index":7},"baseColorFactor":[1,1,1,1],"metallicFactor":0,"roughnessFactor":0.903921569},"emissiveFactor":[0,0,0],"alphaMode":"BLEND","doubleSided":true},{"name":"mat_8","pbrMetallicRoughness":{"baseColorTexture":{"index":8},"baseColorFactor":[1,1,1,1],"metallicFactor":0,"roughnessFactor":0.903921569},"emissiveFactor":[0,0,0],"alphaMode":"BLEND","doubleSided":true},{"name":"mat_9","pbrMetallicRoughness":{"baseColorTexture":{"index":9},"baseColorFactor":[1,1,1,1],"metallicFactor":0,"roughnessFactor":0.903921569},"emissiveFactor":[0,0,0],"alphaMode":"BLEND","doubleSided":true}],"meshes":[{"name":"kingler-Mesh","primitives":[{"attributes":{"POSITION":0,"TEXCOORD_0":1},"indices":2,"material":0,"mode":4},{"attributes":{"POSITION":3,"TEXCOORD_0":4},"indices":5,"material":1,"mode":4},{"attributes":{"POSITION":6,"TEXCOORD_0":7},"indices":8,"material":2,"mode":4},{"attributes":{"POSITION":9,"TEXCOORD_0":10},"indices":11,"material":3,"mode":4},{"attributes":{"POSITION":12,"TEXCOORD_0":13},"indices":14,"material":4,"mode":4},{"attributes":{"POSITION":15,"TEXCOORD_0":16},"indices":17,"material":5,"mode":4},{"attributes":{"POSITION":18,"TEXCOORD_0":19},"indices":20,"material":6,"mode":4},{"attributes":{"POSITION":21,"TEXCOORD_0":22},"indices":23,"material":7,"mode":4},{"attributes":{"POSITION":24,"TEXCOORD_0":25},"indices":26,"material":8,"mode":4},{"attributes":{"POSITION":27,"TEXCOORD_0":28},"indices":29,"material":9,"mode":4}]}],"nodes":[{"name":"kingler","mesh":0}],"samplers":[{"wrapS":10497,"wrapT":10497}],"scene":0,"scenes":[{"nodes":[0]}],"textures":[{"name":"kingler_1_0","sampler":0,"source":0},{"name":"kingler_1_1","sampler":0,"source":1},{"name":"kingler_1_2","sampler":0,"source":2},{"name":"kingler_1_3","sampler":0,"source":3},{"name":"kingler_1_4","sampler":0,"source":4},{"name":"kingler_1_5","sampler":0,"source":5},{"name":"kingler_1_6","sampler":0,"source":6},{"name":"kingler_1_7","sampler":0,"source":7},{"name":"kingler_1_8","sampler":0,"source":8},{"name":"kingler_1_9","sampler":0,"source":9}]}