{"accessors":[{"name":"polygon0_1_0_positions","componentType":5126,"count":642,"min":[-2.5247058868408203,0,-2.524707078933716],"max":[2.5247058868408203,5,2.594681978225708],"type":"VEC3","bufferView":0,"byteOffset":0},{"name":"polygon0_1_0_normals","componentType":5126,"count":642,"min":[-1,-1,-1],"max":[1,1,0.999505877494812],"type":"VEC3","bufferView":1,"byteOffset":0},{"name":"polygon0_1_0_texcoords","componentType":5126,"count":642,"min":[0.0110470000654459,0.020447000861167908],"max":[0.9816280007362366,0.9924619793891907],"type":"VEC2","bufferView":2,"byteOffset":0},{"name":"polygon0_1_0_indices","componentType":5123,"count":3390,"min":[0],"max":[641],"type":"SCALAR","bufferView":3,"byteOffset":0},{"name":"polygon1_1_0_positions","componentType":5126,"count":16,"min":[-1.4033119678497314,2.889256000518799,1.8065869808197021],"max":[1.4033119678497314,3.681873083114624,2.479552984237671],"type":"VEC3","bufferView":0,"byteOffset":7704},{"name":"polygon1_1_0_normals","componentType":5126,"count":16,"min":[-0.9873637557029724,0.12463497370481491,-0.13420793414115906],"max":[0.9873637557029724,0.35833993554115295,0.9818167090415955],"type":"VEC3","bufferView":1,"byteOffset":7704},{"name":"polygon1_1_0_texcoords","componentType":5126,"count":16,"min":[0.0010679999832063913,0.010344999842345715],"max":[0.9750059843063354,0.2370000034570694],"type":"VEC2","bufferView":2,"byteOffset":5136},{"name":"polygon1_1_0_indices","componentType":5123,"count":42,"min":[0],"max":[15],"type":"SCALAR","bufferView":3,"byteOffset":6780}],"asset":{"generator":"obj2gltf","version":"2.0"},"buffers":[{"name":"Voltorb","byteLength":89396,"uri":"data:application/octet-stream;base64,"}],"bufferViews":[{"name":"bufferView_0","buffer":0,"byteLength":7896,"byteOffset":0,"byteStride":12,"target":34962},{"name":"bufferView_1","buffer":0,"byteLength":7896,"byteOffset":7896,"byteStride":12,"target":34962},{"name":"bufferView_2","buffer":0,"byteLength":5264,"byteOffset":15792,"byteStride":8,"target":34962},{"name":"bufferView_3","buffer":0,"byteLength":6864,"byteOffset":21056,"target":34963},{"buffer":0,"byteOffset":27920,"byteLength":12306},{"buffer":0,"byteOffset":40226,"byteLength":49170}],"images":[{"name":"BiriridamaDh","mimeType":"image/x-tga","bufferView":4},{"name":"BiriridamaEyeDh","mimeType":"image/x-tga","bufferView":5}],"materials":[{"name":"mat1","pbrMetallicRoughness":{"baseColorTexture":{"index":0},"baseColorFactor":[1,1,1,1],"metallicFactor":0,"roughnessFactor":0.99},"emissiveFactor":[0,0,0],"alphaMode":"OPAQUE","doubleSided":false},{"name":"mat2","pbrMetallicRoughness":{"baseColorTexture":{"index":1},"baseColorFactor":[1,1,1,1],"metallicFactor":0,"roughnessFactor":0.99},"emissiveFactor":[0,0,0],"alphaMode":"OPAQUE","doubleSided":false}],"meshes":[{"name":"polygon0_1","primitives":[{"attributes":{"POSITION":0,"NORMAL":1,"TEXCOORD_0":2},"indices":3,"material":0,"mode":4}]},{"name":"polygon1_1","primitives":[{"attributes":{"POSITION":4,"NORMAL":5,"TEXCOORD_0":6},"indices":7,"material":1,"mode":4}]}],"nodes":[{"name":"polygon0","mesh":0},{"name":"polygon1","mesh":1}],"samplers":[{"wrapS":10497,"wrapT":10497}],"scene":0,"scenes":[{"nodes":[0,1]}],"textures":[{"name":"BiriridamaDh","sampler":0,"source":0},{"name":"BiriridamaEyeDh","sampler":0,"source":1}]}