{"accessors":[{"name":"polygon0_1_0_positions","componentType":5126,"count":35,"min":[-4.809878826141357,1.7573599815368652,2.4937620162963867],"max":[4.809878826141357,5.282511234283447,5.945336818695068],"type":"VEC3","bufferView":0,"byteOffset":0},{"name":"polygon0_1_0_normals","componentType":5126,"count":35,"min":[-0.8003092408180237,-0.7071678042411804,0.4155908226966858],"max":[0.8003092408180237,-0.1464260369539261,0.989221453666687],"type":"VEC3","bufferView":1,"byteOffset":0},{"name":"polygon0_1_0_texcoords","componentType":5126,"count":35,"min":[-0.9956049919128418,0.006775000132620335],"max":[-0.5056149959564209,0.23327599465847015],"type":"VEC2","bufferView":2,"byteOffset":0},{"name":"polygon0_1_0_indices","componentType":5123,"count":144,"min":[0],"max":[34],"type":"SCALAR","bufferView":3,"byteOffset":0},{"name":"polygon1_1_0_positions","componentType":5126,"count":766,"min":[-6.000000953674316,0,-6.000001907348633],"max":[6.000000953674316,12,6.000000953674316],"type":"VEC3","bufferView":0,"byteOffset":420},{"name":"polygon1_1_0_normals","componentType":5126,"count":766,"min":[-0.9974207878112793,-1,-0.9974207878112793],"max":[0.9974207878112793,1,0.9974207878112793],"type":"VEC3","bufferView":1,"byteOffset":420},{"name":"polygon1_1_0_texcoords","componentType":5126,"count":766,"min":[0.0231929998844862,0.013946999795734882],"max":[0.8777469992637634,0.9735109806060791],"type":"VEC2","bufferView":2,"byteOffset":280},{"name":"polygon1_1_0_indices","componentType":5123,"count":3168,"min":[0],"max":[765],"type":"SCALAR","bufferView":3,"byteOffset":288},{"name":"polygon2_1_0_positions","componentType":5126,"count":15,"min":[-3.494581937789917,6.671648979187012,4.325037002563477],"max":[3.494581937789917,8.723943710327148,5.945336818695068],"type":"VEC3","bufferView":0,"byteOffset":9612},{"name":"polygon2_1_0_normals","componentType":5126,"count":15,"min":[-0.5823967456817627,0.13524895906448364,0.7208309173583984],"max":[0.5823967456817627,0.45404884219169617,0.9908116459846497],"type":"VEC3","bufferView":1,"byteOffset":9612},{"name":"polygon2_1_0_texcoords","componentType":5126,"count":15,"min":[-0.9859009981155396,0.012450999580323696],"max":[-0.018859999254345894,0.238769993185997],"type":"VEC2","bufferView":2,"byteOffset":6408},{"name":"polygon2_1_0_indices","componentType":5123,"count":48,"min":[0],"max":[14],"type":"SCALAR","bufferView":3,"byteOffset":6624},{"name":"polygon3_1_0_positions","componentType":5126,"count":54,"min":[-3.768109083175659,7.626327991485596,4.466639041900635],"max":[3.7365610599517822,9.715675354003906,5.843400955200195],"type":"VEC3","bufferView":0,"byteOffset":9792},{"name":"polygon3_1_0_normals","componentType":5126,"count":54,"min":[-0.9999868273735046,-0.9082735776901245,-0.8777172565460205],"max":[0.9999868273735046,0.9741383790969849,0.896558403968811],"type":"VEC3","bufferView":1,"byteOffset":9792},{"name":"polygon3_1_0_texcoords","componentType":5126,"count":54,"min":[0.8453670144081116,0.019989000633358955],"max":[0.9787600040435791,0.9775390028953552],"type":"VEC2","bufferView":2,"byteOffset":6528},{"name":"polygon3_1_0_indices","componentType":5123,"count":276,"min":[0],"max":[53],"type":"SCALAR","bufferView":3,"byteOffset":6720}],"asset":{"generator":"obj2gltf","version":"2.0"},"buffers":[{"name":"Electrode","byteLength":293216,"uri":"data:application/octet-stream;base64,"}],"bufferViews":[{"name":"bufferView_0","buffer":0,"byteLength":10440,"byteOffset":0,"byteStride":12,"target":34962},{"name":"bufferView_1","buffer":0,"byteLength":10440,"byteOffset":10440,"byteStride":12,"target":34962},{"name":"bufferView_2","buffer":0,"byteLength":6960,"byteOffset":20880,"byteStride":8,"target":34962},{"name":"bufferView_3","buffer":0,"byteLength":7272,"byteOffset":27840,"target":34963},{"buffer":0,"byteOffset":35112,"byteLength":196626},{"buffer":0,"byteOffset":231738,"byteLength":12306},{"buffer":0,"byteOffset":244044,"byteLength":49170}],"images":[{"name":"MarumineMouthDh","mimeType":"image/x-tga","bufferView":4},{"name":"MarumineDh","mimeType":"image/x-tga","bufferView":5},{"name":"MarumineEyeDh","mimeType":"image/x-tga","bufferView":6}],"materials":[{"name":"mat4","pbrMetallicRoughness":{"baseColorTexture":{"index":0},"baseColorFactor":[1,1,1,1],"metallicFactor":0,"roughnessFactor":0.99},"emissiveFactor":[0,0,0],"alphaMode":"OPAQUE","doubleSided":false},{"name":"mat1","pbrMetallicRoughness":{"baseColorTexture":{"index":1},"baseColorFactor":[1,1,1,1],"metallicFactor":0,"roughnessFactor":0.99},"emissiveFactor":[0,0,0],"alphaMode":"OPAQUE","doubleSided":false},{"name":"mat2","pbrMetallicRoughness":{"baseColorTexture":{"index":2},"baseColorFactor":[1,1,1,1],"metallicFactor":0,"roughnessFactor":0.99},"emissiveFactor":[0,0,0],"alphaMode":"OPAQUE","doubleSided":false},{"name":"mat3","pbrMetallicRoughness":{"baseColorTexture":{"index":1},"baseColorFactor":[1,1,1,1],"metallicFactor":0,"roughnessFactor":0.99},"emissiveFactor":[0,0,0],"alphaMode":"OPAQUE","doubleSided":false}],"meshes":[{"name":"polygon0_1","primitives":[{"attributes":{"POSITION":0,"NORMAL":1,"TEXCOORD_0":2},"indices":3,"material":0,"mode":4}]},{"name":"polygon1_1","primitives":[{"attributes":{"POSITION":4,"NORMAL":5,"TEXCOORD_0":6},"indices":7,"material":1,"mode":4}]},{"name":"polygon2_1","primitives":[{"attributes":{"POSITION":8,"NORMAL":9,"TEXCOORD_0":10},"indices":11,"material":2,"mode":4}]},{"name":"polygon3_1","primitives":[{"attributes":{"POSITION":12,"NORMAL":13,"TEXCOORD_0":14},"indices":15,"material":3,"mode":4}]}],"nodes":[{"name":"polygon0","mesh":0},{"name":"polygon1","mesh":1},{"name":"polygon2","mesh":2},{"name":"polygon3","mesh":3}],"samplers":[{"wrapS":10497,"wrapT":10497}],"scene":0,"scenes":[{"nodes":[0,1,2,3]}],"textures":[{"name":"MarumineMouthDh","sampler":0,"source":0},{"name":"MarumineDh","sampler":0,"source":1},{"name":"MarumineEyeDh","sampler":0,"source":2}]}