{"accessors":[{"name":"tamatama-Mesh_0_positions","componentType":5126,"count":96,"min":[-4.905799865722656,-4.351240158081055,-1.156309962272644],"max":[3.678309917449951,4.262199878692627,0.017028000205755234],"type":"VEC3","bufferView":0,"byteOffset":0},{"name":"tamatama-Mesh_0_texcoords","componentType":5126,"count":96,"min":[-0.07085199654102325,-0.0553399994969368],"max":[1.0708500146865845,1.048583984375],"type":"VEC2","bufferView":1,"byteOffset":0},{"name":"tamatama-Mesh_0_indices","componentType":5123,"count":360,"min":[0],"max":[95],"type":"SCALAR","bufferView":2,"byteOffset":0},{"name":"tamatama-Mesh_1_positions","componentType":5126,"count":18,"min":[-1.0664499998092651,-4.559120178222656,-2.54653000831604],"max":[3.9069199562072754,3.2762300968170166,-0.8041149973869324],"type":"VEC3","bufferView":0,"byteOffset":1152},{"name":"tamatama-Mesh_1_texcoords","componentType":5126,"count":18,"min":[-0.749334990978241,-1.2097599506378174],"max":[1.8658100366592407,1.4618229866027832],"type":"VEC2","bufferView":1,"byteOffset":768},{"name":"tamatama-Mesh_1_indices","componentType":5123,"count":30,"min":[0],"max":[17],"type":"SCALAR","bufferView":2,"byteOffset":720},{"name":"tamatama-Mesh_2_positions","componentType":5126,"count":22,"min":[-0.47020700573921204,-2.2914299964904785,-3.609639883041382],"max":[3.8884201049804688,4.848289966583252,-1.2489299774169922],"type":"VEC3","bufferView":0,"byteOffset":1368},{"name":"tamatama-Mesh_2_texcoords","componentType":5126,"count":22,"min":[-0.4391840100288391,-1.3777199983596802],"max":[1.941499948501587,2.0232999324798584],"type":"VEC2","bufferView":1,"byteOffset":912},{"name":"tamatama-Mesh_2_indices","componentType":5123,"count":39,"min":[0],"max":[21],"type":"SCALAR","bufferView":2,"byteOffset":780},{"name":"tamatama-Mesh_3_positions","componentType":5126,"count":22,"min":[-1.1759799718856812,-3.547290086746216,-3.7623000144958496],"max":[4.035930156707764,-0.16270099580287933,-1.8306900262832642],"type":"VEC3","bufferView":0,"byteOffset":1632},{"name":"tamatama-Mesh_3_texcoords","componentType":5126,"count":22,"min":[-1.208709955215454,-0.2663300037384033],"max":[1.9914699792861938,1.3467930555343628],"type":"VEC2","bufferView":1,"byteOffset":1088},{"name":"tamatama-Mesh_3_indices","componentType":5123,"count":48,"min":[0],"max":[21],"type":"SCALAR","bufferView":2,"byteOffset":860},{"name":"tamatama-Mesh_4_positions","componentType":5126,"count":264,"min":[-4.905799865722656,-4.559120178222656,-4.062099933624268],"max":[4.175189971923828,4.91441011428833,-0.2906079888343811],"type":"VEC3","bufferView":0,"byteOffset":1896},{"name":"tamatama-Mesh_4_texcoords","componentType":5126,"count":264,"min":[0,0],"max":[1,1],"type":"VEC2","bufferView":1,"byteOffset":1264},{"name":"tamatama-Mesh_4_indices","componentType":5123,"count":1065,"min":[0],"max":[263],"type":"SCALAR","bufferView":2,"byteOffset":956},{"name":"tamatama-Mesh_5_positions","componentType":5126,"count":5,"min":[1.3739099502563477,-2.5334999561309814,-2.4999399185180664],"max":[2.4604899883270264,-1.6679099798202515,-1.1233099699020386],"type":"VEC3","bufferView":0,"byteOffset":5064},{"name":"tamatama-Mesh_5_texcoords","componentType":5126,"count":5,"min":[-0.01285799965262413,-0.7433900237083435],"max":[1.0128599405288696,1.3438800573349],"type":"VEC2","bufferView":1,"byteOffset":3376},{"name":"tamatama-Mesh_5_indices","componentType":5123,"count":12,"min":[0],"max":[4],"type":"SCALAR","bufferView":2,"byteOffset":3088},{"name":"tamatama-Mesh_6_positions","componentType":5126,"count":43,"min":[-2.7062900066375732,-4.2784600257873535,-3.913360118865967],"max":[4.175189971923828,4.959849834442139,-0.2906079888343811],"type":"VEC3","bufferView":0,"byteOffset":5124},{"name":"tamatama-Mesh_6_texcoords","componentType":5126,"count":43,"min":[-1.0514600276947021,-1.0583000183105469],"max":[2.7440199851989746,1.578484058380127],"type":"VEC2","bufferView":1,"byteOffset":3416},{"name":"tamatama-Mesh_6_indices","componentType":5123,"count":99,"min":[0],"max":[42],"type":"SCALAR","bufferView":2,"byteOffset":3112},{"name":"tamatama-Mesh_7_positions","componentType":5126,"count":6,"min":[1.8518600463867188,-2.659909963607788,-3.3159399032592773],"max":[3.0487899780273438,-1.6679099798202515,-1.8755500316619873],"type":"VEC3","bufferView":0,"byteOffset":5640},{"name":"tamatama-Mesh_7_texcoords","componentType":5126,"count":6,"min":[-0.02777799963951111,0.15241199731826782],"max":[0.9543150067329407,0.38050898909568787],"type":"VEC2","bufferView":1,"byteOffset":3760},{"name":"tamatama-Mesh_7_indices","componentType":5123,"count":12,"min":[0],"max":[5],"type":"SCALAR","bufferView":2,"byteOffset":3312},{"name":"tamatama-Mesh_8_positions","componentType":5126,"count":5,"min":[1.353909969329834,-3.1005899906158447,-3.3159399032592773],"max":[2.2295899391174316,-2.0941898822784424,-1.7784299850463867],"type":"VEC3","bufferView":0,"byteOffset":5712},{"name":"tamatama-Mesh_8_texcoords","componentType":5126,"count":5,"min":[0.04568500071763992,0.15241199731826782],"max":[1.0277800559997559,0.38050898909568787],"type":"VEC2","bufferView":1,"byteOffset":3808},{"name":"tamatama-Mesh_8_indices","componentType":5123,"count":9,"min":[0],"max":[4],"type":"SCALAR","bufferView":2,"byteOffset":3336},{"name":"tamatama-Mesh_9_positions","componentType":5126,"count":7,"min":[2.2967898845672607,2.2284700870513916,-1.9882999658584595],"max":[3.809540033340454,3.385349988937378,-0.5041019916534424],"type":"VEC3","bufferView":0,"byteOffset":5772},{"name":"tamatama-Mesh_9_texcoords","componentType":5126,"count":7,"min":[-0.08356399834156036,0.0953259989619255],"max":[1.0835599899291992,0.39480501413345337],"type":"VEC2","bufferView":1,"byteOffset":3848},{"name":"tamatama-Mesh_9_indices","componentType":5123,"count":18,"min":[0],"max":[6],"type":"SCALAR","bufferView":2,"byteOffset":3356},{"name":"tamatama-Mesh_10_positions","componentType":5126,"count":20,"min":[-1.6241400241851807,-2.577939987182617,-3.913360118865967],"max":[1.8534400463104248,4.197690010070801,-0.3248929977416992],"type":"VEC3","bufferView":0,"byteOffset":5856},{"name":"tamatama-Mesh_10_texcoords","componentType":5126,"count":20,"min":[-0.2661589980125427,-0.3077999949455261],"max":[1.1722400188446045,1.3315010070800781],"type":"VEC2","bufferView":1,"byteOffset":3904},{"name":"tamatama-Mesh_10_indices","componentType":5123,"count":36,"min":[0],"max":[19],"type":"SCALAR","bufferView":2,"byteOffset":3392},{"name":"tamatama-Mesh_11_positions","componentType":5126,"count":7,"min":[-1.2115299701690674,0.3815470039844513,-3.1558399200439453],"max":[-0.03378799930214882,1.4815700054168701,-1.8159699440002441],"type":"VEC3","bufferView":0,"byteOffset":6096},{"name":"tamatama-Mesh_11_texcoords","componentType":5126,"count":7,"min":[-0.058285001665353775,0.09515000134706497],"max":[1.085710048675537,0.2752310037612915],"type":"VEC2","bufferView":1,"byteOffset":4064},{"name":"tamatama-Mesh_11_indices","componentType":5123,"count":15,"min":[0],"max":[6],"type":"SCALAR","bufferView":2,"byteOffset":3464},{"name":"tamatama-Mesh_12_positions","componentType":5126,"count":7,"min":[-4.540380001068115,0.8961600065231323,-3.4699699878692627],"max":[-2.9632699489593506,1.7404999732971191,-1.7937099933624268],"type":"VEC3","bufferView":0,"byteOffset":6180},{"name":"tamatama-Mesh_12_texcoords","componentType":5126,"count":7,"min":[-0.08685699850320816,0.10510499775409698],"max":[1.0571399927139282,0.2822690010070801],"type":"VEC2","bufferView":1,"byteOffset":4120},{"name":"tamatama-Mesh_12_indices","componentType":5123,"count":15,"min":[0],"max":[6],"type":"SCALAR","bufferView":2,"byteOffset":3496},{"name":"tamatama-Mesh_13_positions","componentType":5126,"count":7,"min":[-2.1236300468444824,3.7111198902130127,-1.6036299467086792],"max":[-0.4972569942474365,4.970399856567383,-0.2711150050163269],"type":"VEC3","bufferView":0,"byteOffset":6264},{"name":"tamatama-Mesh_13_texcoords","componentType":5126,"count":7,"min":[-0.21038000285625458,0.006651999894529581],"max":[1.085379958152771,0.406343013048172],"type":"VEC2","bufferView":1,"byteOffset":4176},{"name":"tamatama-Mesh_13_indices","componentType":5123,"count":18,"min":[0],"max":[6],"type":"SCALAR","bufferView":2,"byteOffset":3528},{"name":"tamatama-Mesh_14_positions","componentType":5126,"count":7,"min":[-1.6024099588394165,4.511600017547607,-2.8217101097106934],"max":[-0.2607649862766266,4.970399856567383,-1.030400037765503],"type":"VEC3","bufferView":0,"byteOffset":6348},{"name":"tamatama-Mesh_14_texcoords","componentType":5126,"count":7,"min":[-0.05714299902319908,0.10856399685144424],"max":[1.086859941482544,0.30485400557518005],"type":"VEC2","bufferView":1,"byteOffset":4232},{"name":"tamatama-Mesh_14_indices","componentType":5123,"count":15,"min":[0],"max":[6],"type":"SCALAR","bufferView":2,"byteOffset":3564},{"name":"tamatama-Mesh_15_positions","componentType":5126,"count":114,"min":[-4.905799865722656,-4.399099826812744,-3.4975099563598633],"max":[3.8445498943328857,4.970399856567383,-0.6918309926986694],"type":"VEC3","bufferView":0,"byteOffset":6432},{"name":"tamatama-Mesh_15_texcoords","componentType":5126,"count":114,"min":[-0.25814300775527954,0.0053519997745752335],"max":[1.258139967918396,4.585939884185791],"type":"VEC2","bufferView":1,"byteOffset":4288},{"name":"tamatama-Mesh_15_indices","componentType":5123,"count":243,"min":[0],"max":[113],"type":"SCALAR","bufferView":2,"byteOffset":3596}],"asset":{"generator":"obj2gltf","version":"2.0"},"buffers":[{"name":"BR_Exeggcute-Shiny01","byteLength":242700,"uri":"data:application/octet-stream;base64,"}],"bufferViews":[{"name":"bufferView_0","buffer":0,"byteLength":7800,"byteOffset":0,"byteStride":12,"target":34962},{"name":"bufferView_1","buffer":0,"byteLength":5200,"byteOffset":7800,"byteStride":8,"target":34962},{"name":"bufferView_2","buffer":0,"byteLength":4084,"byteOffset":13000,"target":34963},{"buffer":0,"byteOffset":17084,"byteLength":4114},{"buffer":0,"byteOffset":21198,"byteLength":4114},{"buffer":0,"byteOffset":25312,"byteLength":4114},{"buffer":0,"byteOffset":29426,"byteLength":4114},{"buffer":0,"byteOffset":33540,"byteLength":82},{"buffer":0,"byteOffset":33622,"byteLength":4114},{"buffer":0,"byteOffset":37736,"byteLength":4114},{"buffer":0,"byteOffset":41850,"byteLength":24594},{"buffer":0,"byteOffset":66444,"byteLength":24594},{"buffer":0,"byteOffset":91038,"byteLength":24594},{"buffer":0,"byteOffset":115632,"byteLength":4114},{"buffer":0,"byteOffset":119746,"byteLength":32786},{"buffer":0,"byteOffset":152532,"byteLength":32786},{"buffer":0,"byteOffset":185318,"byteLength":24594},{"buffer":0,"byteOffset":209912,"byteLength":32786}],"images":[{"name":"tamatama_1_0","mimeType":"image/x-tga","bufferView":3},{"name":"tamatama_1_1","mimeType":"image/x-tga","bufferView":4},{"name":"tamatama_1_2","mimeType":"image/x-tga","bufferView":5},{"name":"tamatama_1_3","mimeType":"image/x-tga","bufferView":6},{"name":"tamatama_1_4","mimeType":"image/x-tga","bufferView":7},{"name":"tamatama_1_5","mimeType":"image/x-tga","bufferView":8},{"name":"tamatama_1_6","mimeType":"image/x-tga","bufferView":9},{"name":"tamatama_1_7","mimeType":"image/x-tga","bufferView":10},{"name":"tamatama_1_8","mimeType":"image/x-tga","bufferView":11},{"name":"tamatama_1_9","mimeType":"image/x-tga","bufferView":12},{"name":"tamatama_1_10","mimeType":"image/x-tga","bufferView":13},{"name":"tamatama_1_11","mimeType":"image/x-tga","bufferView":14},{"name":"tamatama_1_12","mimeType":"image/x-tga","bufferView":15},{"name":"tamatama_1_13","mimeType":"image/x-tga","bufferView":16},{"name":"tamatama_1_14","mimeType":"image/x-tga","bufferView":17}],"materials":[{"name":"mat_0","pbrMetallicRoughness":{"baseColorTexture":{"index":0},"baseColorFactor":[1,1,1,1],"metallicFactor":0,"roughnessFactor":0.903921569},"emissiveFactor":[0,0,0],"alphaMode":"BLEND","doubleSided":true},{"name":"mat_1","pbrMetallicRoughness":{"baseColorTexture":{"index":1},"baseColorFactor":[1,1,1,1],"metallicFactor":0,"roughnessFactor":0.903921569},"emissiveFactor":[0,0,0],"alphaMode":"BLEND","doubleSided":true},{"name":"mat_2","pbrMetallicRoughness":{"baseColorTexture":{"index":2},"baseColorFactor":[1,1,1,1],"metallicFactor":0,"roughnessFactor":0.903921569},"emissiveFactor":[0,0,0],"alphaMode":"BLEND","doubleSided":true},{"name":"mat_3","pbrMetallicRoughness":{"baseColorTexture":{"index":3},"baseColorFactor":[1,1,1,1],"metallicFactor":0,"roughnessFactor":0.903921569},"emissiveFactor":[0,0,0],"alphaMode":"BLEND","doubleSided":true},{"name":"mat_4","pbrMetallicRoughness":{"baseColorTexture":{"index":4},"baseColorFactor":[1,1,1,1],"metallicFactor":0,"roughnessFactor":0.903921569},"emissiveFactor":[0,0,0],"alphaMode":"BLEND","doubleSided":true},{"name":"mat_5","pbrMetallicRoughness":{"baseColorTexture":{"index":5},"baseColorFactor":[1,1,1,1],"metallicFactor":0,"roughnessFactor":0.903921569},"emissiveFactor":[0,0,0],"alphaMode":"BLEND","doubleSided":true},{"name":"mat_6","pbrMetallicRoughness":{"baseColorTexture":{"index":6},"baseColorFactor":[1,1,1,1],"metallicFactor":0,"roughnessFactor":0.903921569},"emissiveFactor":[0,0,0],"alphaMode":"BLEND","doubleSided":true},{"name":"mat_7","pbrMetallicRoughness":{"baseColorTexture":{"index":7},"baseColorFactor":[1,1,1,1],"metallicFactor":0,"roughnessFactor":0.903921569},"emissiveFactor":[0,0,0],"alphaMode":"BLEND","doubleSided":true},{"name":"mat_8","pbrMetallicRoughness":{"baseColorTexture":{"index":8},"baseColorFactor":[1,1,1,1],"metallicFactor":0,"roughnessFactor":0.903921569},"emissiveFactor":[0,0,0],"alphaMode":"BLEND","doubleSided":true},{"name":"mat_9","pbrMetallicRoughness":{"baseColorTexture":{"index":9},"baseColorFactor":[1,1,1,1],"metallicFactor":0,"roughnessFactor":0.903921569},"emissiveFactor":[0,0,0],"alphaMode":"BLEND","doubleSided":true},{"name":"mat_10","pbrMetallicRoughness":{"baseColorTexture":{"index":10},"baseColorFactor":[1,1,1,1],"metallicFactor":0,"roughnessFactor":0.903921569},"emissiveFactor":[0,0,0],"alphaMode":"BLEND","doubleSided":true},{"name":"mat_11","pbrMetallicRoughness":{"baseColorTexture":{"index":11},"baseColorFactor":[1,1,1,1],"metallicFactor":0,"roughnessFactor":0.903921569},"emissiveFactor":[0,0,0],"alphaMode":"BLEND","doubleSided":true},{"name":"mat_12","pbrMetallicRoughness":{"baseColorTexture":{"index":12},"baseColorFactor":[1,1,1,1],"metallicFactor":0,"roughnessFactor":0.903921569},"emissiveFactor":[0,0,0],"alphaMode":"BLEND","doubleSided":true},{"name":"mat_13","pbrMetallicRoughness":{"baseColorTexture":{"index":13},"baseColorFactor":[1,1,1,1],"metallicFactor":0,"roughnessFactor":0.903921569},"emissiveFactor":[0,0,0],"alphaMode":"BLEND","doubleSided":true},{"name":"mat_14","pbrMetallicRoughness":{"baseColorTexture":{"index":14},"baseColorFactor":[1,1,1,1],"metallicFactor":0,"roughnessFactor":0.903921569},"emissiveFactor":[0,0,0],"alphaMode":"BLEND","doubleSided":true},{"name":"mat_14_NONE","pbrMetallicRoughness":{"baseColorTexture":{"index":14},"baseColorFactor":[1,1,1,1],"metallicFactor":0,"roughnessFactor":0.903921569},"emissiveFactor":[0,0,0],"alphaMode":"BLEND","doubleSided":true}],"meshes":[{"name":"tamatama-Mesh","primitives":[{"attributes":{"POSITION":0,"TEXCOORD_0":1},"indices":2,"material":0,"mode":4},{"attributes":{"POSITION":3,"TEXCOORD_0":4},"indices":5,"material":1,"mode":4},{"attributes":{"POSITION":6,"TEXCOORD_0":7},"indices":8,"material":2,"mode":4},{"attributes":{"POSITION":9,"TEXCOORD_0":10},"indices":11,"material":3,"mode":4},{"attributes":{"POSITION":12,"TEXCOORD_0":13},"indices":14,"material":4,"mode":4},{"attributes":{"POSITION":15,"TEXCOORD_0":16},"indices":17,"material":5,"mode":4},{"attributes":{"POSITION":18,"TEXCOORD_0":19},"indices":20,"material":6,"mode":4},{"attributes":{"POSITION":21,"TEXCOORD_0":22},"indices":23,"material":7,"mode":4},{"attributes":{"POSITION":24,"TEXCOORD_0":25},"indices":26,"material":8,"mode":4},{"attributes":{"POSITION":27,"TEXCOORD_0":28},"indices":29,"material":9,"mode":4},{"attributes":{"POSITION":30,"TEXCOORD_0":31},"indices":32,"material":10,"mode":4},{"attributes":{"POSITION":33,"TEXCOORD_0":34},"indices":35,"material":11,"mode":4},{"attributes":{"POSITION":36,"TEXCOORD_0":37},"indices":38,"material":12,"mode":4},{"attributes":{"POSITION":39,"TEXCOORD_0":40},"indices":41,"material":13,"mode":4},{"attributes":{"POSITION":42,"TEXCOORD_0":43},"indices":44,"material":14,"mode":4},{"attributes":{"POSITION":45,"TEXCOORD_0":46},"indices":47,"material":15,"mode":4}]}],"nodes":[{"name":"tamatama","mesh":0}],"samplers":[{"wrapS":10497,"wrapT":10497}],"scene":0,"scenes":[{"nodes":[0]}],"textures":[{"name":"tamatama_1_0","sampler":0,"source":0},{"name":"tamatama_1_1","sampler":0,"source":1},{"name":"tamatama_1_2","sampler":0,"source":2},{"name":"tamatama_1_3","sampler":0,"source":3},{"name":"tamatama_1_4","sampler":0,"source":4},{"name":"tamatama_1_5","sampler":0,"source":5},{"name":"tamatama_1_6","sampler":0,"source":6},{"name":"tamatama_1_7","sampler":0,"source":7},{"name":"tamatama_1_8","sampler":0,"source":8},{"name":"tamatama_1_9","sampler":0,"source":9},{"name":"tamatama_1_10","sampler":0,"source":10},{"name":"tamatama_1_11","sampler":0,"source":11},{"name":"tamatama_1_12","sampler":0,"source":12},{"name":"tamatama_1_13","sampler":0,"source":13},{"name":"tamatama_1_14","sampler":0,"source":14}]}