{"accessors":[{"name":"nassy-Mesh_0_positions","componentType":5126,"count":274,"min":[-4.944389820098877,-3.629080057144165,-12.797800064086914],"max":[4.944389820098877,3.860729932785034,0.015376999974250793],"type":"VEC3","bufferView":0,"byteOffset":0},{"name":"nassy-Mesh_0_texcoords","componentType":5126,"count":274,"min":[-0.018884999677538872,-0.005210000090301037],"max":[1.0102100372314453,1.0302480459213257],"type":"VEC2","bufferView":1,"byteOffset":0},{"name":"nassy-Mesh_0_indices","componentType":5123,"count":678,"min":[0],"max":[273],"type":"SCALAR","bufferView":2,"byteOffset":0},{"name":"nassy-Mesh_1_positions","componentType":5126,"count":22,"min":[-4.944389820098877,-1.5689899921417236,-0.0032140000257641077],"max":[4.944389820098877,2.3330299854278564,0.015376999974250793],"type":"VEC3","bufferView":0,"byteOffset":3288},{"name":"nassy-Mesh_1_texcoords","componentType":5126,"count":22,"min":[0,0.00786300003528595],"max":[1,1.001636028289795],"type":"VEC2","bufferView":1,"byteOffset":2192},{"name":"nassy-Mesh_1_indices","componentType":5123,"count":36,"min":[0],"max":[21],"type":"SCALAR","bufferView":2,"byteOffset":1356},{"name":"nassy-Mesh_2_positions","componentType":5126,"count":16,"min":[-5.588039875030518,0.5227439999580383,-0.5343300104141235],"max":[5.588039875030518,2.9363410472869873,0.011610000394284725],"type":"VEC3","bufferView":0,"byteOffset":3552},{"name":"nassy-Mesh_2_texcoords","componentType":5126,"count":16,"min":[-0.0318479984998703,-0.02346000075340271],"max":[1.0249700546264648,1.0029040575027466],"type":"VEC2","bufferView":1,"byteOffset":2368},{"name":"nassy-Mesh_2_indices","componentType":5123,"count":36,"min":[0],"max":[15],"type":"SCALAR","bufferView":2,"byteOffset":1428},{"name":"nassy-Mesh_3_positions","componentType":5126,"count":90,"min":[-3.6299500465393066,-0.22534799575805664,-13.668499946594238],"max":[3.629960060119629,3.855449914932251,-8.939109802246094],"type":"VEC3","bufferView":0,"byteOffset":3744},{"name":"nassy-Mesh_3_texcoords","componentType":5126,"count":90,"min":[-0.001025000005029142,-0.041349999606609344],"max":[1,1],"type":"VEC2","bufferView":1,"byteOffset":2496},{"name":"nassy-Mesh_3_indices","componentType":5123,"count":315,"min":[0],"max":[89],"type":"SCALAR","bufferView":2,"byteOffset":1500},{"name":"nassy-Mesh_4_positions","componentType":5126,"count":17,"min":[-1.8503299951553345,2.776089906692505,-11.909000396728516],"max":[1.8485000133514404,4.9398298263549805,-8.939109802246094],"type":"VEC3","bufferView":0,"byteOffset":4824},{"name":"nassy-Mesh_4_texcoords","componentType":5126,"count":17,"min":[-0.0017740000039339066,0.11339200288057327],"max":[1.003749966621399,0.3349609971046448],"type":"VEC2","bufferView":1,"byteOffset":3216},{"name":"nassy-Mesh_4_indices","componentType":5123,"count":66,"min":[0],"max":[16],"type":"SCALAR","bufferView":2,"byteOffset":2132},{"name":"nassy-Mesh_5_positions","componentType":5126,"count":12,"min":[-4.2958598136901855,-0.2221270054578781,-13.011899948120117],"max":[-1.1958199739456177,3.28233003616333,-11.245400428771973],"type":"VEC3","bufferView":0,"byteOffset":5028},{"name":"nassy-Mesh_5_texcoords","componentType":5126,"count":12,"min":[-0.0021730000153183937,0.07149100303649902],"max":[0.997747004032135,0.24822600185871124],"type":"VEC2","bufferView":1,"byteOffset":3352},{"name":"nassy-Mesh_5_indices","componentType":5123,"count":27,"min":[0],"max":[11],"type":"SCALAR","bufferView":2,"byteOffset":2264},{"name":"nassy-Mesh_6_positions","componentType":5126,"count":11,"min":[1.1958199739456177,-0.2221270054578781,-13.011899948120117],"max":[4.2958598136901855,3.28233003616333,-11.245400428771973],"type":"VEC3","bufferView":0,"byteOffset":5172},{"name":"nassy-Mesh_6_texcoords","componentType":5126,"count":11,"min":[-0.006765999831259251,0.0836779996752739],"max":[0.9987220168113708,0.2516689896583557],"type":"VEC2","bufferView":1,"byteOffset":3448},{"name":"nassy-Mesh_6_indices","componentType":5123,"count":27,"min":[0],"max":[10],"type":"SCALAR","bufferView":2,"byteOffset":2320},{"name":"nassy-Mesh_7_positions","componentType":5126,"count":12,"min":[-1.8503299951553345,2.203360080718994,-13.011899948120117],"max":[1.8485000133514404,4.713580131530762,-11.245400428771973],"type":"VEC3","bufferView":0,"byteOffset":5304},{"name":"nassy-Mesh_7_texcoords","componentType":5126,"count":12,"min":[0.008441999554634094,0.07083900272846222],"max":[0.9959020018577576,0.2514849901199341],"type":"VEC2","bufferView":1,"byteOffset":3536},{"name":"nassy-Mesh_7_indices","componentType":5123,"count":27,"min":[0],"max":[11],"type":"SCALAR","bufferView":2,"byteOffset":2376},{"name":"nassy-Mesh_8_positions","componentType":5126,"count":150,"min":[-11.395500183105469,-11.342499732971191,-20.537599563598633],"max":[12.676400184631348,12.45110034942627,-9.560480117797852],"type":"VEC3","bufferView":0,"byteOffset":5448},{"name":"nassy-Mesh_8_texcoords","componentType":5126,"count":150,"min":[-0.0029460000805556774,0.015031999908387661],"max":[1.00068998336792,0.9991610050201416],"type":"VEC2","bufferView":1,"byteOffset":3632},{"name":"nassy-Mesh_8_indices","componentType":5123,"count":420,"min":[0],"max":[149],"type":"SCALAR","bufferView":2,"byteOffset":2432},{"name":"nassy-Mesh_9_positions","componentType":5126,"count":112,"min":[-11.395500183105469,-11.342499732971191,-20.537599563598633],"max":[12.676400184631348,12.45110034942627,-9.560480117797852],"type":"VEC3","bufferView":0,"byteOffset":7248},{"name":"nassy-Mesh_9_texcoords","componentType":5126,"count":112,"min":[0.0022539999336004257,0.00520299980416894],"max":[0.9987490177154541,0.9971749782562256],"type":"VEC2","bufferView":1,"byteOffset":4832},{"name":"nassy-Mesh_9_indices","componentType":5123,"count":255,"min":[0],"max":[111],"type":"SCALAR","bufferView":2,"byteOffset":3272},{"name":"nassy-Mesh_10_positions","componentType":5126,"count":17,"min":[-4.623770236968994,-0.2221270054578781,-11.909000396728516],"max":[-1.4873700141906738,3.392899990081787,-8.939120292663574],"type":"VEC3","bufferView":0,"byteOffset":8592},{"name":"nassy-Mesh_10_texcoords","componentType":5126,"count":17,"min":[-0.0022319999989122152,0.11184199899435043],"max":[1.003290057182312,0.3349609971046448],"type":"VEC2","bufferView":1,"byteOffset":5728},{"name":"nassy-Mesh_10_indices","componentType":5123,"count":66,"min":[0],"max":[16],"type":"SCALAR","bufferView":2,"byteOffset":3784},{"name":"nassy-Mesh_11_positions","componentType":5126,"count":17,"min":[1.4873700141906738,-0.2221270054578781,-11.909000396728516],"max":[4.623770236968994,3.392899990081787,-8.939120292663574],"type":"VEC3","bufferView":0,"byteOffset":8796},{"name":"nassy-Mesh_11_texcoords","componentType":5126,"count":17,"min":[-0.0022319999989122152,0.11184199899435043],"max":[1.003290057182312,0.3349609971046448],"type":"VEC2","bufferView":1,"byteOffset":5864},{"name":"nassy-Mesh_11_indices","componentType":5123,"count":66,"min":[0],"max":[16],"type":"SCALAR","bufferView":2,"byteOffset":3916}],"asset":{"generator":"obj2gltf","version":"2.0"},"buffers":[{"name":"BR_Exeggutor-Shiny01","byteLength":145180,"uri":"data:application/octet-stream;base64,"}],"bufferViews":[{"name":"bufferView_0","buffer":0,"byteLength":9000,"byteOffset":0,"byteStride":12,"target":34962},{"name":"bufferView_1","buffer":0,"byteLength":6000,"byteOffset":9000,"byteStride":8,"target":34962},{"name":"bufferView_2","buffer":0,"byteLength":4048,"byteOffset":15000,"target":34963},{"buffer":0,"byteOffset":19048,"byteLength":8210},{"buffer":0,"byteOffset":27258,"byteLength":4114},{"buffer":0,"byteOffset":31372,"byteLength":1042},{"buffer":0,"byteOffset":32414,"byteLength":4114},{"buffer":0,"byteOffset":36528,"byteLength":18450},{"buffer":0,"byteOffset":54978,"byteLength":24594},{"buffer":0,"byteOffset":79572,"byteLength":24594},{"buffer":0,"byteOffset":104166,"byteLength":24594},{"buffer":0,"byteOffset":128760,"byteLength":8210},{"buffer":0,"byteOffset":136970,"byteLength":8210}],"images":[{"name":"nassy_1_0","mimeType":"image/x-tga","bufferView":3},{"name":"nassy_1_1","mimeType":"image/x-tga","bufferView":4},{"name":"nassy_1_2","mimeType":"image/x-tga","bufferView":5},{"name":"nassy_1_3","mimeType":"image/x-tga","bufferView":6},{"name":"nassy_1_4","mimeType":"image/x-tga","bufferView":7},{"name":"nassy_1_5","mimeType":"image/x-tga","bufferView":8},{"name":"nassy_1_6","mimeType":"image/x-tga","bufferView":9},{"name":"nassy_1_7","mimeType":"image/x-tga","bufferView":10},{"name":"nassy_1_8","mimeType":"image/x-tga","bufferView":11},{"name":"nassy_1_9","mimeType":"image/x-tga","bufferView":12}],"materials":[{"name":"mat_0","pbrMetallicRoughness":{"baseColorTexture":{"index":0},"baseColorFactor":[1,1,1,1],"metallicFactor":0,"roughnessFactor":0.903921569},"emissiveFactor":[0,0,0],"alphaMode":"BLEND","doubleSided":true},{"name":"mat_1","pbrMetallicRoughness":{"baseColorTexture":{"index":1},"baseColorFactor":[1,1,1,1],"metallicFactor":0,"roughnessFactor":0.903921569},"emissiveFactor":[0,0,0],"alphaMode":"BLEND","doubleSided":true},{"name":"mat_2","pbrMetallicRoughness":{"baseColorTexture":{"index":2},"baseColorFactor":[1,1,1,1],"metallicFactor":0,"roughnessFactor":0.903921569},"emissiveFactor":[0,0,0],"alphaMode":"BLEND","doubleSided":true},{"name":"mat_3","pbrMetallicRoughness":{"baseColorTexture":{"index":3},"baseColorFactor":[1,1,1,1],"metallicFactor":0,"roughnessFactor":0.903921569},"emissiveFactor":[0,0,0],"alphaMode":"BLEND","doubleSided":true},{"name":"mat_4","pbrMetallicRoughness":{"baseColorTexture":{"index":4},"baseColorFactor":[1,1,1,1],"metallicFactor":0,"roughnessFactor":0.903921569},"emissiveFactor":[0,0,0],"alphaMode":"BLEND","doubleSided":true},{"name":"mat_5","pbrMetallicRoughness":{"baseColorTexture":{"index":5},"baseColorFactor":[1,1,1,1],"metallicFactor":0,"roughnessFactor":0.903921569},"emissiveFactor":[0,0,0],"alphaMode":"BLEND","doubleSided":true},{"name":"mat_6","pbrMetallicRoughness":{"baseColorTexture":{"index":6},"baseColorFactor":[1,1,1,1],"metallicFactor":0,"roughnessFactor":0.903921569},"emissiveFactor":[0,0,0],"alphaMode":"BLEND","doubleSided":true},{"name":"mat_7","pbrMetallicRoughness":{"baseColorTexture":{"index":7},"baseColorFactor":[1,1,1,1],"metallicFactor":0,"roughnessFactor":0.903921569},"emissiveFactor":[0,0,0],"alphaMode":"BLEND","doubleSided":true},{"name":"mat_8","pbrMetallicRoughness":{"baseColorTexture":{"index":8},"baseColorFactor":[1,1,1,1],"metallicFactor":0,"roughnessFactor":0.903921569},"emissiveFactor":[0,0,0],"alphaMode":"BLEND","doubleSided":true},{"name":"mat_9","pbrMetallicRoughness":{"baseColorTexture":{"index":9},"baseColorFactor":[1,1,1,1],"metallicFactor":0,"roughnessFactor":0.903921569},"emissiveFactor":[0,0,0],"alphaMode":"BLEND","doubleSided":true},{"name":"mat_10","pbrMetallicRoughness":{"baseColorTexture":{"index":4},"baseColorFactor":[1,1,1,1],"metallicFactor":0,"roughnessFactor":0.903921569},"emissiveFactor":[0,0,0],"alphaMode":"BLEND","doubleSided":true},{"name":"mat_11","pbrMetallicRoughness":{"baseColorTexture":{"index":4},"baseColorFactor":[1,1,1,1],"metallicFactor":0,"roughnessFactor":0.903921569},"emissiveFactor":[0,0,0],"alphaMode":"BLEND","doubleSided":true}],"meshes":[{"name":"nassy-Mesh","primitives":[{"attributes":{"POSITION":0,"TEXCOORD_0":1},"indices":2,"material":0,"mode":4},{"attributes":{"POSITION":3,"TEXCOORD_0":4},"indices":5,"material":1,"mode":4},{"attributes":{"POSITION":6,"TEXCOORD_0":7},"indices":8,"material":2,"mode":4},{"attributes":{"POSITION":9,"TEXCOORD_0":10},"indices":11,"material":3,"mode":4},{"attributes":{"POSITION":12,"TEXCOORD_0":13},"indices":14,"material":4,"mode":4},{"attributes":{"POSITION":15,"TEXCOORD_0":16},"indices":17,"material":5,"mode":4},{"attributes":{"POSITION":18,"TEXCOORD_0":19},"indices":20,"material":6,"mode":4},{"attributes":{"POSITION":21,"TEXCOORD_0":22},"indices":23,"material":7,"mode":4},{"attributes":{"POSITION":24,"TEXCOORD_0":25},"indices":26,"material":8,"mode":4},{"attributes":{"POSITION":27,"TEXCOORD_0":28},"indices":29,"material":9,"mode":4},{"attributes":{"POSITION":30,"TEXCOORD_0":31},"indices":32,"material":10,"mode":4},{"attributes":{"POSITION":33,"TEXCOORD_0":34},"indices":35,"material":11,"mode":4}]}],"nodes":[{"name":"nassy","mesh":0}],"samplers":[{"wrapS":10497,"wrapT":10497}],"scene":0,"scenes":[{"nodes":[0]}],"textures":[{"name":"nassy_1_0","sampler":0,"source":0},{"name":"nassy_1_1","sampler":0,"source":1},{"name":"nassy_1_2","sampler":0,"source":2},{"name":"nassy_1_3","sampler":0,"source":3},{"name":"nassy_1_4","sampler":0,"source":4},{"name":"nassy_1_5","sampler":0,"source":5},{"name":"nassy_1_6","sampler":0,"source":6},{"name":"nassy_1_7","sampler":0,"source":7},{"name":"nassy_1_8","sampler":0,"source":8},{"name":"nassy_1_9","sampler":0,"source":9}]}