{"accessors":[{"name":"polygon8-Mesh_0_positions","componentType":5126,"count":32,"min":[-5.71497917175293,1.4574379920959473,3.422576904296875],"max":[-2.3384780883789062,7.528141975402832,5.92600679397583],"type":"VEC3","bufferView":0,"byteOffset":0},{"name":"polygon8-Mesh_0_texcoords","componentType":5126,"count":32,"min":[0.05255600064992905,-0.0015699999639764428],"max":[0.9658510088920593,1.0064959526062012],"type":"VEC2","bufferView":1,"byteOffset":0},{"name":"polygon8-Mesh_0_indices","componentType":5123,"count":180,"min":[0],"max":[31],"type":"SCALAR","bufferView":2,"byteOffset":0},{"name":"polygon9-Mesh_0_positions","componentType":5126,"count":10,"min":[-4.005134105682373,-0.016979999840259552,-0.3757840096950531],"max":[4.641104221343994,0.2829050123691559,2.252300977706909],"type":"VEC3","bufferView":0,"byteOffset":384},{"name":"polygon9-Mesh_0_texcoords","componentType":5126,"count":10,"min":[0,0],"max":[0,0],"type":"VEC2","bufferView":1,"byteOffset":256},{"name":"polygon9-Mesh_0_indices","componentType":5123,"count":24,"min":[0],"max":[9],"type":"SCALAR","bufferView":2,"byteOffset":360},{"name":"polygon2-Mesh_0_positions","componentType":5126,"count":11,"min":[-2.1709139347076416,7.0840229988098145,1.4429839849472046],"max":[1.9247620105743408,9.395544052124023,4.656455039978027],"type":"VEC3","bufferView":0,"byteOffset":504},{"name":"polygon2-Mesh_0_texcoords","componentType":5126,"count":11,"min":[-0.10118400305509567,-0.08337000012397766],"max":[1.344599962234497,0.27628201246261597],"type":"VEC2","bufferView":1,"byteOffset":336},{"name":"polygon2-Mesh_0_indices","componentType":5123,"count":24,"min":[0],"max":[10],"type":"SCALAR","bufferView":2,"byteOffset":408},{"name":"polygon3-Mesh_0_positions","componentType":5126,"count":25,"min":[-2.901197910308838,3.897320032119751,2.276336908340454],"max":[1.6008909940719604,7.618084907531738,6.5626139640808105],"type":"VEC3","bufferView":0,"byteOffset":636},{"name":"polygon3-Mesh_0_texcoords","componentType":5126,"count":25,"min":[-0.11849500238895416,0.006940000224858522],"max":[0.9960349798202515,1.130439043045044],"type":"VEC2","bufferView":1,"byteOffset":424},{"name":"polygon3-Mesh_0_indices","componentType":5123,"count":93,"min":[0],"max":[24],"type":"SCALAR","bufferView":2,"byteOffset":456},{"name":"polygon0-Mesh_0_positions","componentType":5126,"count":389,"min":[-4.162113189697266,-0.013434000313282013,-5.889081001281738],"max":[4.641104221343994,9.769513130187988,5.819260120391846],"type":"VEC3","bufferView":0,"byteOffset":936},{"name":"polygon0-Mesh_0_texcoords","componentType":5126,"count":389,"min":[-9.999999974752427e-7,0],"max":[1,1.0000020265579224],"type":"VEC2","bufferView":1,"byteOffset":624},{"name":"polygon0-Mesh_0_indices","componentType":5123,"count":1521,"min":[0],"max":[388],"type":"SCALAR","bufferView":2,"byteOffset":644},{"name":"polygon1-Mesh_0_positions","componentType":5126,"count":33,"min":[-2.3792030811309814,0.28922200202941895,-1.0962779521942139],"max":[2.889878988265991,6.384484767913818,2.5383079051971436],"type":"VEC3","bufferView":0,"byteOffset":5604},{"name":"polygon1-Mesh_0_texcoords","componentType":5126,"count":33,"min":[0.015242000110447407,0.2796590030193329],"max":[0.6353340148925781,0.7609999775886536],"type":"VEC2","bufferView":1,"byteOffset":3736},{"name":"polygon1-Mesh_0_indices","componentType":5123,"count":138,"min":[0],"max":[32],"type":"SCALAR","bufferView":2,"byteOffset":3688},{"name":"polygon6-Mesh_0_positions","componentType":5126,"count":22,"min":[-3.061037063598633,7.333813190460205,0.34654098749160767],"max":[3.4316980838775635,9.995064735412598,3.7393620014190674],"type":"VEC3","bufferView":0,"byteOffset":6000},{"name":"polygon6-Mesh_0_texcoords","componentType":5126,"count":22,"min":[0.017009999603033066,0.003894000081345439],"max":[1.2376400232315063,1.0010459423065186],"type":"VEC2","bufferView":1,"byteOffset":4000},{"name":"polygon6-Mesh_0_indices","componentType":5123,"count":78,"min":[0],"max":[21],"type":"SCALAR","bufferView":2,"byteOffset":3964},{"name":"polygon7-Mesh_0_positions","componentType":5126,"count":13,"min":[-2.1260719299316406,4.392924785614014,-0.8029230237007141],"max":[2.3384969234466553,10.205022811889648,5.269964218139648],"type":"VEC3","bufferView":0,"byteOffset":6264},{"name":"polygon7-Mesh_0_texcoords","componentType":5126,"count":13,"min":[0.21392199397087097,0.1393669992685318],"max":[0.7860789895057678,1],"type":"VEC2","bufferView":1,"byteOffset":4176},{"name":"polygon7-Mesh_0_indices","componentType":5123,"count":36,"min":[0],"max":[12],"type":"SCALAR","bufferView":2,"byteOffset":4120},{"name":"polygon4-Mesh_0_positions","componentType":5126,"count":47,"min":[-2.9458489418029785,5.858569145202637,-0.8029230237007141],"max":[2.984740972518921,10.298829078674316,4.922372817993164],"type":"VEC3","bufferView":0,"byteOffset":6420},{"name":"polygon4-Mesh_0_texcoords","componentType":5126,"count":47,"min":[-0.017187999561429024,0.0028150000143796206],"max":[1.7020599842071533,1.004794955253601],"type":"VEC2","bufferView":1,"byteOffset":4280},{"name":"polygon4-Mesh_0_indices","componentType":5123,"count":114,"min":[0],"max":[46],"type":"SCALAR","bufferView":2,"byteOffset":4192},{"name":"polygon5-Mesh_0_positions","componentType":5126,"count":29,"min":[-2.930280923843384,7.07087516784668,-0.8029230237007141],"max":[3.4316980838775635,12.11938762664795,3.941127061843872],"type":"VEC3","bufferView":0,"byteOffset":6984},{"name":"polygon5-Mesh_0_texcoords","componentType":5126,"count":29,"min":[0.017031999304890633,0.1287190020084381],"max":[0.9746969938278198,0.9866549968719482],"type":"VEC2","bufferView":1,"byteOffset":4656},{"name":"polygon5-Mesh_0_indices","componentType":5123,"count":123,"min":[0],"max":[28],"type":"SCALAR","bufferView":2,"byteOffset":4420}],"asset":{"generator":"obj2gltf","version":"2.0"},"buffers":[{"name":"DolKarakara","byteLength":35324,"uri":"data:application/octet-stream;base64,"}],"bufferViews":[{"name":"bufferView_0","buffer":0,"byteLength":7332,"byteOffset":0,"byteStride":12,"target":34962},{"name":"bufferView_1","buffer":0,"byteLength":4888,"byteOffset":7332,"byteStride":8,"target":34962},{"name":"bufferView_2","buffer":0,"byteLength":4668,"byteOffset":12220,"target":34963},{"buffer":0,"byteOffset":16888,"byteLength":2143},{"buffer":0,"byteOffset":19031,"byteLength":105},{"buffer":0,"byteOffset":19136,"byteLength":6559},{"buffer":0,"byteOffset":25695,"byteLength":2269},{"buffer":0,"byteOffset":27964,"byteLength":140},{"buffer":0,"byteOffset":28104,"byteLength":717},{"buffer":0,"byteOffset":28821,"byteLength":2047},{"buffer":0,"byteOffset":30868,"byteLength":141},{"buffer":0,"byteOffset":31009,"byteLength":2351},{"buffer":0,"byteOffset":33360,"byteLength":1961}],"images":[{"name":"karakara__gc_hone_a","mimeType":"image/png","bufferView":3},{"name":"karakara_gc_hada_a","mimeType":"image/png","bufferView":4},{"name":"karakara_gc_me","mimeType":"image/png","bufferView":5},{"name":"karakara_gc_kara_a","mimeType":"image/png","bufferView":6},{"name":"karakara_gc_hada_a","mimeType":"image/png","bufferView":7},{"name":"karakara_gc_hara_a","mimeType":"image/png","bufferView":8},{"name":"karakara_gc_era_a","mimeType":"image/png","bufferView":9},{"name":"karakara_gc_ura_a","mimeType":"image/png","bufferView":10},{"name":"karakara_gc_kara_b","mimeType":"image/png","bufferView":11},{"name":"karakara_gc_kara_c","mimeType":"image/png","bufferView":12}],"materials":[{"name":"mat10","pbrMetallicRoughness":{"baseColorTexture":{"index":0},"baseColorFactor":[1,1,1,1],"metallicFactor":0,"roughnessFactor":0.9921568629999999},"emissiveFactor":[0,0,0],"alphaMode":"BLEND","doubleSided":true},{"name":"mat2","pbrMetallicRoughness":{"baseColorTexture":{"index":1},"baseColorFactor":[1,1,1,1],"metallicFactor":0,"roughnessFactor":0.9921568629999999},"emissiveFactor":[0,0,0],"alphaMode":"OPAQUE","doubleSided":false},{"name":"mat4","pbrMetallicRoughness":{"baseColorTexture":{"index":2},"baseColorFactor":[1,1,1,1],"metallicFactor":0,"roughnessFactor":0.9921568629999999},"emissiveFactor":[0,0,0],"alphaMode":"BLEND","doubleSided":true},{"name":"mat5","pbrMetallicRoughness":{"baseColorTexture":{"index":3},"baseColorFactor":[1,1,1,1],"metallicFactor":0,"roughnessFactor":0.9921568629999999},"emissiveFactor":[0,0,0],"alphaMode":"BLEND","doubleSided":true},{"name":"mat1","pbrMetallicRoughness":{"baseColorTexture":{"index":4},"baseColorFactor":[1,1,1,1],"metallicFactor":0,"roughnessFactor":0.9921568629999999},"emissiveFactor":[0,0,0],"alphaMode":"BLEND","doubleSided":true},{"name":"mat3","pbrMetallicRoughness":{"baseColorTexture":{"index":5},"baseColorFactor":[1,1,1,1],"metallicFactor":0,"roughnessFactor":0.9921568629999999},"emissiveFactor":[0,0,0],"alphaMode":"BLEND","doubleSided":true},{"name":"mat8","pbrMetallicRoughness":{"baseColorTexture":{"index":6},"baseColorFactor":[1,1,1,1],"metallicFactor":0,"roughnessFactor":0.9921568629999999},"emissiveFactor":[0,0,0],"alphaMode":"BLEND","doubleSided":true},{"name":"mat9","pbrMetallicRoughness":{"baseColorTexture":{"index":7},"baseColorFactor":[1,1,1,1],"metallicFactor":0,"roughnessFactor":0.9921568629999999},"emissiveFactor":[0,0,0],"alphaMode":"BLEND","doubleSided":true},{"name":"mat6","pbrMetallicRoughness":{"baseColorTexture":{"index":8},"baseColorFactor":[1,1,1,1],"metallicFactor":0,"roughnessFactor":0.9921568629999999},"emissiveFactor":[0,0,0],"alphaMode":"BLEND","doubleSided":true},{"name":"mat7","pbrMetallicRoughness":{"baseColorTexture":{"index":9},"baseColorFactor":[1,1,1,1],"metallicFactor":0,"roughnessFactor":0.9921568629999999},"emissiveFactor":[0,0,0],"alphaMode":"BLEND","doubleSided":true}],"meshes":[{"name":"polygon8-Mesh","primitives":[{"attributes":{"POSITION":0,"TEXCOORD_0":1},"indices":2,"material":0,"mode":4}]},{"name":"polygon9-Mesh","primitives":[{"attributes":{"POSITION":3,"TEXCOORD_0":4},"indices":5,"material":1,"mode":4}]},{"name":"polygon2-Mesh","primitives":[{"attributes":{"POSITION":6,"TEXCOORD_0":7},"indices":8,"material":2,"mode":4}]},{"name":"polygon3-Mesh","primitives":[{"attributes":{"POSITION":9,"TEXCOORD_0":10},"indices":11,"material":3,"mode":4}]},{"name":"polygon0-Mesh","primitives":[{"attributes":{"POSITION":12,"TEXCOORD_0":13},"indices":14,"material":4,"mode":4}]},{"name":"polygon1-Mesh","primitives":[{"attributes":{"POSITION":15,"TEXCOORD_0":16},"indices":17,"material":5,"mode":4}]},{"name":"polygon6-Mesh","primitives":[{"attributes":{"POSITION":18,"TEXCOORD_0":19},"indices":20,"material":6,"mode":4}]},{"name":"polygon7-Mesh","primitives":[{"attributes":{"POSITION":21,"TEXCOORD_0":22},"indices":23,"material":7,"mode":4}]},{"name":"polygon4-Mesh","primitives":[{"attributes":{"POSITION":24,"TEXCOORD_0":25},"indices":26,"material":8,"mode":4}]},{"name":"polygon5-Mesh","primitives":[{"attributes":{"POSITION":27,"TEXCOORD_0":28},"indices":29,"material":9,"mode":4}]}],"nodes":[{"name":"polygon8","mesh":0},{"name":"polygon9","mesh":1},{"name":"polygon2","mesh":2},{"name":"polygon3","mesh":3},{"name":"polygon0","mesh":4},{"name":"polygon1","mesh":5},{"name":"polygon6","mesh":6},{"name":"polygon7","mesh":7},{"name":"polygon4","mesh":8},{"name":"polygon5","mesh":9}],"samplers":[{"wrapS":10497,"wrapT":10497}],"scene":0,"scenes":[{"nodes":[0,1,2,3,4,5,6,7,8,9]}],"textures":[{"name":"karakara__gc_hone_a","sampler":0,"source":0},{"name":"karakara_gc_hada_a","sampler":0,"source":1},{"name":"karakara_gc_me","sampler":0,"source":2},{"name":"karakara_gc_kara_a","sampler":0,"source":3},{"name":"karakara_gc_hada_a","sampler":0,"source":4},{"name":"karakara_gc_hara_a","sampler":0,"source":5},{"name":"karakara_gc_era_a","sampler":0,"source":6},{"name":"karakara_gc_ura_a","sampler":0,"source":7},{"name":"karakara_gc_kara_b","sampler":0,"source":8},{"name":"karakara_gc_kara_c","sampler":0,"source":9}]}