{"accessors":[{"name":"Cubone_1_0_positions","componentType":5126,"count":240,"min":[-8.477923393249512,24.622875213623047,-0.7010210156440735],"max":[8.47791576385498,33.96872329711914,9.556929588317871],"type":"VEC3","bufferView":0,"byteOffset":0},{"name":"Cubone_1_0_normals","componentType":5126,"count":240,"min":[-0.9465457201004028,0.025811010971665382,0.2999911308288574],"max":[-0.7997469902038574,0.2625639736652374,0.559099018573761],"type":"VEC3","bufferView":1,"byteOffset":0},{"name":"Cubone_1_0_texcoords","componentType":5126,"count":240,"min":[0.004747999832034111,-0.9762300252914429],"max":[0.49524998664855957,-0.7626100182533264],"type":"VEC2","bufferView":2,"byteOffset":0},{"name":"Cubone_1_0_indices","componentType":5123,"count":240,"min":[0],"max":[239],"type":"SCALAR","bufferView":3,"byteOffset":0},{"name":"Cubone_1_1_positions","componentType":5126,"count":14754,"min":[-19.26279640197754,0,-17.440000534057617],"max":[19.226200103759766,40.00883483886719,18.56300163269043],"type":"VEC3","bufferView":0,"byteOffset":2880},{"name":"Cubone_1_1_normals","componentType":5126,"count":14754,"min":[-0.9939423203468323,-0.9998586773872375,-0.9986732602119446],"max":[0.9939425587654114,0.9870457649230957,0.9986306428909302],"type":"VEC3","bufferView":1,"byteOffset":2880},{"name":"Cubone_1_1_texcoords","componentType":5126,"count":14754,"min":[0.004519999958574772,0.005291000008583069],"max":[0.9954800009727478,0.9934849739074707],"type":"VEC2","bufferView":2,"byteOffset":1920},{"name":"Cubone_1_1_indices","componentType":5123,"count":14754,"min":[0],"max":[14753],"type":"SCALAR","bufferView":3,"byteOffset":480}],"asset":{"generator":"obj2gltf","version":"2.0"},"buffers":[{"name":"XY_Cubone","byteLength":579132,"uri":"data:application/octet-stream;base64,"}],"bufferViews":[{"name":"bufferView_0","buffer":0,"byteLength":179928,"byteOffset":0,"byteStride":12,"target":34962},{"name":"bufferView_1","buffer":0,"byteLength":179928,"byteOffset":179928,"byteStride":12,"target":34962},{"name":"bufferView_2","buffer":0,"byteLength":119952,"byteOffset":359856,"byteStride":8,"target":34962},{"name":"bufferView_3","buffer":0,"byteLength":29988,"byteOffset":479808,"target":34963},{"buffer":0,"byteOffset":509796,"byteLength":36598},{"buffer":0,"byteOffset":546394,"byteLength":32736}],"images":[{"name":"pm0104_00_Eye1","mimeType":"image/png","bufferView":4},{"name":"pm0104_00_Body1","mimeType":"image/png","bufferView":5}],"materials":[{"name":"Material__139","pbrMetallicRoughness":{"baseColorTexture":{"index":0},"baseColorFactor":[1,1,1,1],"metallicFactor":0,"roughnessFactor":0.998},"emissiveFactor":[0,0,0],"alphaMode":"OPAQUE","doubleSided":false},{"name":"Material__140","pbrMetallicRoughness":{"baseColorTexture":{"index":1},"baseColorFactor":[1,1,1,1],"metallicFactor":0,"roughnessFactor":0.998},"emissiveFactor":[0,0,0],"alphaMode":"OPAQUE","doubleSided":false}],"meshes":[{"name":"Cubone_1","primitives":[{"attributes":{"POSITION":0,"NORMAL":1,"TEXCOORD_0":2},"indices":3,"material":0,"mode":4},{"attributes":{"POSITION":4,"NORMAL":5,"TEXCOORD_0":6},"indices":7,"material":1,"mode":4}]}],"nodes":[{"name":"Cubone","mesh":0}],"samplers":[{"wrapS":10497,"wrapT":10497}],"scene":0,"scenes":[{"nodes":[0]}],"textures":[{"name":"pm0104_00_Eye1","sampler":0,"source":0},{"name":"pm0104_00_Body1","sampler":0,"source":1}]}