{"accessors":[{"name":"polygon0_1_0_positions","componentType":5126,"count":20,"min":[-1.7081589698791504,7.165852069854736,0.00024900000425986946],"max":[1.7081609964370728,8.332450866699219,1.7708849906921387],"type":"VEC3","bufferView":0,"byteOffset":0},{"name":"polygon0_1_0_normals","componentType":5126,"count":20,"min":[-0.9650914072990417,-0.7886929512023926,0.00738499965518713],"max":[0.9602499604225159,0.3246549367904663,0.6337938904762268],"type":"VEC3","bufferView":1,"byteOffset":0},{"name":"polygon0_1_0_texcoords","componentType":5126,"count":20,"min":[0.0039059999398887157,0.011718999594449997],"max":[0.484375,0.2460940033197403],"type":"VEC2","bufferView":2,"byteOffset":0},{"name":"polygon0_1_0_indices","componentType":5123,"count":48,"min":[0],"max":[19],"type":"SCALAR","bufferView":3,"byteOffset":0},{"name":"polygon1_1_0_positions","componentType":5126,"count":923,"min":[-4.909914016723633,-0.000007000000096013537,-5.157383918762207],"max":[4.754137992858887,10.099574089050293,3.268923044204712],"type":"VEC3","bufferView":0,"byteOffset":240},{"name":"polygon1_1_0_normals","componentType":5126,"count":923,"min":[-1,-0.9999999403953552,-1],"max":[1,1,1],"type":"VEC3","bufferView":1,"byteOffset":240},{"name":"polygon1_1_0_texcoords","componentType":5126,"count":923,"min":[0.011901999823749065,0.013915999792516232],"max":[0.9902650117874146,0.9932559728622437],"type":"VEC2","bufferView":2,"byteOffset":160},{"name":"polygon1_1_0_indices","componentType":5123,"count":4644,"min":[0],"max":[922],"type":"SCALAR","bufferView":3,"byteOffset":96}],"asset":{"generator":"obj2gltf","version":"2.0"},"buffers":[{"name":"Marowak","byteLength":334508,"uri":"data:application/octet-stream;base64,"}],"bufferViews":[{"name":"bufferView_0","buffer":0,"byteLength":11316,"byteOffset":0,"byteStride":12,"target":34962},{"name":"bufferView_1","buffer":0,"byteLength":11316,"byteOffset":11316,"byteStride":12,"target":34962},{"name":"bufferView_2","buffer":0,"byteLength":7544,"byteOffset":22632,"byteStride":8,"target":34962},{"name":"bufferView_3","buffer":0,"byteLength":9384,"byteOffset":30176,"target":34963},{"buffer":0,"byteOffset":39560,"byteLength":98322},{"buffer":0,"byteOffset":137882,"byteLength":196626}],"images":[{"name":"GaragaraEyeDh","mimeType":"image/x-tga","bufferView":4},{"name":"GaragaraDh","mimeType":"image/x-tga","bufferView":5}],"materials":[{"name":"mat2","pbrMetallicRoughness":{"baseColorTexture":{"index":0},"baseColorFactor":[1,1,1,1],"metallicFactor":0,"roughnessFactor":0.99},"emissiveFactor":[0,0,0],"alphaMode":"OPAQUE","doubleSided":false},{"name":"mat1","pbrMetallicRoughness":{"baseColorTexture":{"index":1},"baseColorFactor":[1,1,1,1],"metallicFactor":0,"roughnessFactor":0.99},"emissiveFactor":[0,0,0],"alphaMode":"OPAQUE","doubleSided":false}],"meshes":[{"name":"polygon0_1","primitives":[{"attributes":{"POSITION":0,"NORMAL":1,"TEXCOORD_0":2},"indices":3,"material":0,"mode":4}]},{"name":"polygon1_1","primitives":[{"attributes":{"POSITION":4,"NORMAL":5,"TEXCOORD_0":6},"indices":7,"material":1,"mode":4}]}],"nodes":[{"name":"polygon0","mesh":0},{"name":"polygon1","mesh":1}],"samplers":[{"wrapS":10497,"wrapT":10497}],"scene":0,"scenes":[{"nodes":[0,1]}],"textures":[{"name":"GaragaraEyeDh","sampler":0,"source":0},{"name":"GaragaraDh","sampler":0,"source":1}]}