{"accessors":[{"name":"Marowak_1_0_positions","componentType":5126,"count":14700,"min":[-47.541603088378906,-0.00001700000029813964,-51.868499755859375],"max":[46.4994010925293,101.35807800292969,36.5630989074707],"type":"VEC3","bufferView":0,"byteOffset":0},{"name":"Marowak_1_0_normals","componentType":5126,"count":14700,"min":[-0.9994170665740967,-0.9999666213989258,-0.999971330165863],"max":[0.9979341626167297,0.9995288848876953,0.9841933250427246],"type":"VEC3","bufferView":1,"byteOffset":0},{"name":"Marowak_1_0_texcoords","componentType":5126,"count":14700,"min":[0.005299000069499016,0.006430999841541052],"max":[0.9947010278701782,0.9948260188102722],"type":"VEC2","bufferView":2,"byteOffset":0},{"name":"Marowak_1_0_indices","componentType":5123,"count":14700,"min":[0],"max":[14699],"type":"SCALAR","bufferView":3,"byteOffset":0},{"name":"Marowak_1_1_positions","componentType":5126,"count":252,"min":[-15.805249214172363,70.02728271484375,5.374197006225586],"max":[15.805148124694824,85.74114990234375,23.90789794921875],"type":"VEC3","bufferView":0,"byteOffset":176400},{"name":"Marowak_1_1_normals","componentType":5126,"count":252,"min":[-0.9994170665740967,-0.7553887963294983,-0.9713487029075623],"max":[0.9538605809211731,0.18496297299861908,0.33521202206611633],"type":"VEC3","bufferView":1,"byteOffset":176400},{"name":"Marowak_1_1_texcoords","componentType":5126,"count":252,"min":[0.00496899988502264,-0.9160400032997131],"max":[0.4950299859046936,-0.8118399977684021],"type":"VEC2","bufferView":2,"byteOffset":117600},{"name":"Marowak_1_1_indices","componentType":5123,"count":252,"min":[0],"max":[251],"type":"SCALAR","bufferView":3,"byteOffset":29400},{"name":"Marowak_1_2_positions","componentType":5126,"count":252,"min":[-15.964749336242676,70.115478515625,5.494847774505615],"max":[15.964649200439453,85.72816467285156,24.00360107421875],"type":"VEC3","bufferView":0,"byteOffset":179424},{"name":"Marowak_1_2_normals","componentType":5126,"count":252,"min":[-0.9732255339622498,-0.3717988431453705,-0.9727786779403687],"max":[0.990962028503418,0.19866794347763062,0.015598995611071587],"type":"VEC3","bufferView":1,"byteOffset":179424},{"name":"Marowak_1_2_texcoords","componentType":5126,"count":252,"min":[0.01987599954009056,-1.6641600131988525],"max":[0.9687600135803223,-1.2473599910736084],"type":"VEC2","bufferView":2,"byteOffset":119616},{"name":"Marowak_1_2_indices","componentType":5123,"count":252,"min":[0],"max":[251],"type":"SCALAR","bufferView":3,"byteOffset":29904}],"asset":{"generator":"obj2gltf","version":"2.0"},"buffers":[{"name":"XY_Marowak","byteLength":598692,"uri":"data:application/octet-stream;base64,"}],"bufferViews":[{"name":"bufferView_0","buffer":0,"byteLength":182448,"byteOffset":0,"byteStride":12,"target":34962},{"name":"bufferView_1","buffer":0,"byteLength":182448,"byteOffset":182448,"byteStride":12,"target":34962},{"name":"bufferView_2","buffer":0,"byteLength":121632,"byteOffset":364896,"byteStride":8,"target":34962},{"name":"bufferView_3","buffer":0,"byteLength":30408,"byteOffset":486528,"target":34963},{"buffer":0,"byteOffset":516936,"byteLength":56232},{"buffer":0,"byteOffset":573168,"byteLength":23628},{"buffer":0,"byteOffset":596796,"byteLength":1896}],"images":[{"name":"pm0105_00_Body1","mimeType":"image/png","bufferView":4},{"name":"pm0105_00_Eye1","mimeType":"image/png","bufferView":5},{"name":"pm0105_00_Iris1","mimeType":"image/png","bufferView":6}],"materials":[{"name":"Material__151","pbrMetallicRoughness":{"baseColorTexture":{"index":0},"baseColorFactor":[1,1,1,1],"metallicFactor":0,"roughnessFactor":0.998},"emissiveFactor":[0,0,0],"alphaMode":"OPAQUE","doubleSided":false},{"name":"Material__152","pbrMetallicRoughness":{"baseColorTexture":{"index":1},"baseColorFactor":[1,1,1,1],"metallicFactor":0,"roughnessFactor":0.998},"emissiveFactor":[0,0,0],"alphaMode":"OPAQUE","doubleSided":false},{"name":"Material__153","pbrMetallicRoughness":{"baseColorTexture":{"index":2},"baseColorFactor":[1,1,1,1],"metallicFactor":0,"roughnessFactor":0.998},"emissiveFactor":[0,0,0],"alphaMode":"OPAQUE","doubleSided":false}],"meshes":[{"name":"Marowak_1","primitives":[{"attributes":{"POSITION":0,"NORMAL":1,"TEXCOORD_0":2},"indices":3,"material":0,"mode":4},{"attributes":{"POSITION":4,"NORMAL":5,"TEXCOORD_0":6},"indices":7,"material":1,"mode":4},{"attributes":{"POSITION":8,"NORMAL":9,"TEXCOORD_0":10},"indices":11,"material":2,"mode":4}]}],"nodes":[{"name":"Marowak","mesh":0}],"samplers":[{"wrapS":10497,"wrapT":10497}],"scene":0,"scenes":[{"nodes":[0]}],"textures":[{"name":"pm0105_00_Body1","sampler":0,"source":0},{"name":"pm0105_00_Eye1","sampler":0,"source":1},{"name":"pm0105_00_Iris1","sampler":0,"source":2}]}