{"accessors":[{"name":"polygon0_1_0_positions","componentType":5126,"count":21,"min":[-2.453674077987671,11.694113731384277,1.4532890319824219],"max":[2.453674077987671,13.407466888427734,2.5147790908813477],"type":"VEC3","bufferView":0,"byteOffset":0},{"name":"polygon0_1_0_normals","componentType":5126,"count":21,"min":[-0.696884036064148,-0.03521699085831642,0.544745147228241],"max":[0.696884036064148,0.7436002492904663,0.9993796944618225],"type":"VEC3","bufferView":1,"byteOffset":0},{"name":"polygon0_1_0_texcoords","componentType":5126,"count":21,"min":[-0.9761959910392761,0.04974399879574776],"max":[-0.5191649794578552,0.19696000218391418],"type":"VEC2","bufferView":2,"byteOffset":0},{"name":"polygon0_1_0_indices","componentType":5123,"count":84,"min":[0],"max":[20],"type":"SCALAR","bufferView":3,"byteOffset":0},{"name":"polygon1_1_0_positions","componentType":5126,"count":1163,"min":[-11.792142868041992,-0.009846000000834465,-2.721107006072998],"max":[11.792142868041992,14.32271671295166,3.4571409225463867],"type":"VEC3","bufferView":0,"byteOffset":252},{"name":"polygon1_1_0_normals","componentType":5126,"count":1163,"min":[-1,-1,-0.9982600212097168],"max":[1,0.9999938607215881,0.9993796944618225],"type":"VEC3","bufferView":1,"byteOffset":252},{"name":"polygon1_1_0_texcoords","componentType":5126,"count":1163,"min":[0.011566000059247017,0.011749000288546085],"max":[0.9819030165672302,0.9912409782409668],"type":"VEC2","bufferView":2,"byteOffset":168},{"name":"polygon1_1_0_indices","componentType":5123,"count":4620,"min":[0],"max":[1162],"type":"SCALAR","bufferView":3,"byteOffset":168}],"asset":{"generator":"obj2gltf","version":"2.0"},"buffers":[{"name":"Hitmonlee","byteLength":342244,"uri":"data:application/octet-stream;base64,"}],"bufferViews":[{"name":"bufferView_0","buffer":0,"byteLength":14208,"byteOffset":0,"byteStride":12,"target":34962},{"name":"bufferView_1","buffer":0,"byteLength":14208,"byteOffset":14208,"byteStride":12,"target":34962},{"name":"bufferView_2","buffer":0,"byteLength":9472,"byteOffset":28416,"byteStride":8,"target":34962},{"name":"bufferView_3","buffer":0,"byteLength":9408,"byteOffset":37888,"target":34963},{"buffer":0,"byteOffset":47296,"byteLength":98322},{"buffer":0,"byteOffset":145618,"byteLength":196626}],"images":[{"name":"SawamularEyeDh","mimeType":"image/x-tga","bufferView":4},{"name":"SawamularDh","mimeType":"image/x-tga","bufferView":5}],"materials":[{"name":"mat2","pbrMetallicRoughness":{"baseColorTexture":{"index":0},"baseColorFactor":[1,1,1,1],"metallicFactor":0,"roughnessFactor":0.99},"emissiveFactor":[0,0,0],"alphaMode":"OPAQUE","doubleSided":false},{"name":"mat1","pbrMetallicRoughness":{"baseColorTexture":{"index":1},"baseColorFactor":[1,1,1,1],"metallicFactor":0,"roughnessFactor":0.99},"emissiveFactor":[0,0,0],"alphaMode":"OPAQUE","doubleSided":false}],"meshes":[{"name":"polygon0_1","primitives":[{"attributes":{"POSITION":0,"NORMAL":1,"TEXCOORD_0":2},"indices":3,"material":0,"mode":4}]},{"name":"polygon1_1","primitives":[{"attributes":{"POSITION":4,"NORMAL":5,"TEXCOORD_0":6},"indices":7,"material":1,"mode":4}]}],"nodes":[{"name":"polygon0","mesh":0},{"name":"polygon1","mesh":1}],"samplers":[{"wrapS":10497,"wrapT":10497}],"scene":0,"scenes":[{"nodes":[0,1]}],"textures":[{"name":"SawamularEyeDh","sampler":0,"source":0},{"name":"SawamularDh","sampler":0,"source":1}]}