{"accessors":[{"name":"polygon0_1_0_positions","componentType":5126,"count":21,"min":[-1.1196520328521729,9.22260856628418,1.3772690296173096],"max":[1.1196520328521729,10.4817533493042,2.300463914871216],"type":"VEC3","bufferView":0,"byteOffset":0},{"name":"polygon0_1_0_normals","componentType":5126,"count":21,"min":[-0.8662109971046448,-0.19897504150867462,0.47918811440467834],"max":[0.8662109971046448,0.4284639358520508,0.9910678267478943],"type":"VEC3","bufferView":1,"byteOffset":0},{"name":"polygon0_1_0_texcoords","componentType":5126,"count":21,"min":[-0.9836429953575134,0.030944999307394028],"max":[-0.5231320261955261,0.2309570014476776],"type":"VEC2","bufferView":2,"byteOffset":0},{"name":"polygon0_1_0_indices","componentType":5123,"count":72,"min":[0],"max":[20],"type":"SCALAR","bufferView":3,"byteOffset":0},{"name":"polygon1_1_0_positions","componentType":5126,"count":182,"min":[-8.19231128692627,7.32839298248291,-0.7293940186500549],"max":[8.19231128692627,9.062591552734375,1.1097990274429321],"type":"VEC3","bufferView":0,"byteOffset":252},{"name":"polygon1_1_0_normals","componentType":5126,"count":182,"min":[-1,-0.9854232668876648,-0.9684799909591675],"max":[1,0.9797589182853699,0.9966819286346436],"type":"VEC3","bufferView":1,"byteOffset":252},{"name":"polygon1_1_0_texcoords","componentType":5126,"count":182,"min":[0.38653600215911865,0.490447998046875],"max":[0.9888610243797302,0.9862980246543884],"type":"VEC2","bufferView":2,"byteOffset":168},{"name":"polygon1_1_0_indices","componentType":5123,"count":768,"min":[0],"max":[181],"type":"SCALAR","bufferView":3,"byteOffset":144},{"name":"polygon2_1_0_positions","componentType":5126,"count":901,"min":[-5.97805118560791,-9.999999974752427e-7,-1.6565940380096436],"max":[5.97805118560791,12.493295669555664,2.326986074447632],"type":"VEC3","bufferView":0,"byteOffset":2436},{"name":"polygon2_1_0_normals","componentType":5126,"count":901,"min":[-0.9977149367332458,-0.9996682405471802,-0.9993331432342529],"max":[0.9977149367332458,0.9999376535415649,0.9997782707214355],"type":"VEC3","bufferView":1,"byteOffset":2436},{"name":"polygon2_1_0_texcoords","componentType":5126,"count":901,"min":[0.010955999605357647,0.005950999911874533],"max":[0.9860529899597168,0.9890440106391907],"type":"VEC2","bufferView":2,"byteOffset":1624},{"name":"polygon2_1_0_indices","componentType":5123,"count":3756,"min":[0],"max":[900],"type":"SCALAR","bufferView":3,"byteOffset":1680}],"asset":{"generator":"obj2gltf","version":"2.0"},"buffers":[{"name":"Hitmonchan","byteLength":339468,"uri":"data:application/octet-stream;base64,"}],"bufferViews":[{"name":"bufferView_0","buffer":0,"byteLength":13248,"byteOffset":0,"byteStride":12,"target":34962},{"name":"bufferView_1","buffer":0,"byteLength":13248,"byteOffset":13248,"byteStride":12,"target":34962},{"name":"bufferView_2","buffer":0,"byteLength":8832,"byteOffset":26496,"byteStride":8,"target":34962},{"name":"bufferView_3","buffer":0,"byteLength":9192,"byteOffset":35328,"target":34963},{"buffer":0,"byteOffset":44520,"byteLength":98322},{"buffer":0,"byteOffset":142842,"byteLength":196626}],"images":[{"name":"EbiwalarEyeDh","mimeType":"image/x-tga","bufferView":4},{"name":"EbiwalarDh","mimeType":"image/x-tga","bufferView":5}],"materials":[{"name":"mat2","pbrMetallicRoughness":{"baseColorTexture":{"index":0},"baseColorFactor":[1,1,1,1],"metallicFactor":0,"roughnessFactor":0.99},"emissiveFactor":[0,0,0],"alphaMode":"OPAQUE","doubleSided":false},{"name":"mat3","pbrMetallicRoughness":{"baseColorTexture":{"index":1},"baseColorFactor":[1,1,1,1],"metallicFactor":0,"roughnessFactor":0.99},"emissiveFactor":[0,0,0],"alphaMode":"OPAQUE","doubleSided":false},{"name":"mat1","pbrMetallicRoughness":{"baseColorTexture":{"index":1},"baseColorFactor":[1,1,1,1],"metallicFactor":0,"roughnessFactor":0.99},"emissiveFactor":[0,0,0],"alphaMode":"OPAQUE","doubleSided":false}],"meshes":[{"name":"polygon0_1","primitives":[{"attributes":{"POSITION":0,"NORMAL":1,"TEXCOORD_0":2},"indices":3,"material":0,"mode":4}]},{"name":"polygon1_1","primitives":[{"attributes":{"POSITION":4,"NORMAL":5,"TEXCOORD_0":6},"indices":7,"material":1,"mode":4}]},{"name":"polygon2_1","primitives":[{"attributes":{"POSITION":8,"NORMAL":9,"TEXCOORD_0":10},"indices":11,"material":2,"mode":4}]}],"nodes":[{"name":"polygon0","mesh":0},{"name":"polygon1","mesh":1},{"name":"polygon2","mesh":2}],"samplers":[{"wrapS":10497,"wrapT":10497}],"scene":0,"scenes":[{"nodes":[0,1,2]}],"textures":[{"name":"EbiwalarEyeDh","sampler":0,"source":0},{"name":"EbiwalarDh","sampler":0,"source":1}]}