{"accessors":[{"name":"beroringa-Mesh_0_positions","componentType":5126,"count":21,"min":[-3.3466598987579346,-2.1892099380493164,-2.5290400981903076],"max":[3.3306000232696533,1.7315900325775146,-0.6543020009994507],"type":"VEC3","bufferView":0,"byteOffset":0},{"name":"beroringa-Mesh_0_texcoords","componentType":5126,"count":21,"min":[-0.14237500727176666,-0.8197600245475769],"max":[1.170009970664978,1.7814550399780273],"type":"VEC2","bufferView":1,"byteOffset":0},{"name":"beroringa-Mesh_0_indices","componentType":5123,"count":45,"min":[0],"max":[20],"type":"SCALAR","bufferView":2,"byteOffset":0},{"name":"beroringa-Mesh_1_positions","componentType":5126,"count":43,"min":[-3.623260021209717,0.629984974861145,-7.64169979095459],"max":[3.6344099044799805,4.086309909820557,-0.7119560241699219],"type":"VEC3","bufferView":0,"byteOffset":252},{"name":"beroringa-Mesh_1_texcoords","componentType":5126,"count":43,"min":[0.21632300317287445,-0.004459999967366457],"max":[0.9283080101013184,0.8988190293312073],"type":"VEC2","bufferView":1,"byteOffset":168},{"name":"beroringa-Mesh_1_indices","componentType":5123,"count":171,"min":[0],"max":[42],"type":"SCALAR","bufferView":2,"byteOffset":92},{"name":"beroringa-Mesh_2_positions","componentType":5126,"count":296,"min":[-6.219069957733154,-8.734199523925781,-11.943599700927734],"max":[6.165480136871338,4.099380016326904,-0.0026809999253600836],"type":"VEC3","bufferView":0,"byteOffset":768},{"name":"beroringa-Mesh_2_texcoords","componentType":5126,"count":296,"min":[0,-0.008799999952316284],"max":[1,1],"type":"VEC2","bufferView":1,"byteOffset":512},{"name":"beroringa-Mesh_2_indices","componentType":5123,"count":948,"min":[0],"max":[295],"type":"SCALAR","bufferView":2,"byteOffset":436},{"name":"beroringa-Mesh_3_positions","componentType":5126,"count":16,"min":[-2.6221399307250977,1.7361600399017334,-8.894709587097168],"max":[2.6515300273895264,3.9122400283813477,-7.782750129699707],"type":"VEC3","bufferView":0,"byteOffset":4320},{"name":"beroringa-Mesh_3_texcoords","componentType":5126,"count":16,"min":[0.015588999725878239,0.6920530200004578],"max":[0.9844120144844055,1],"type":"VEC2","bufferView":1,"byteOffset":2880},{"name":"beroringa-Mesh_3_indices","componentType":5123,"count":36,"min":[0],"max":[15],"type":"SCALAR","bufferView":2,"byteOffset":2332},{"name":"beroringa-Mesh_4_positions","componentType":5126,"count":9,"min":[-0.9213359951972961,3.8666000366210938,-9.484519958496094],"max":[0.9140340089797974,4.115190029144287,-8.625459671020508],"type":"VEC3","bufferView":0,"byteOffset":4512},{"name":"beroringa-Mesh_4_texcoords","componentType":5126,"count":9,"min":[-0.41519099473953247,-0.0825200006365776],"max":[1.3094700574874878,2.256119966506958],"type":"VEC2","bufferView":1,"byteOffset":3008},{"name":"beroringa-Mesh_4_indices","componentType":5123,"count":18,"min":[0],"max":[8],"type":"SCALAR","bufferView":2,"byteOffset":2404},{"name":"beroringa-Mesh_5_positions","componentType":5126,"count":6,"min":[-1.7806999683380127,2.569960117340088,-10.896300315856934],"max":[1.784309983253479,3.443010091781616,-9.899979591369629],"type":"VEC3","bufferView":0,"byteOffset":4620},{"name":"beroringa-Mesh_5_texcoords","componentType":5126,"count":6,"min":[-0.4317359924316406,0.03048899956047535],"max":[2.042330026626587,0.2671529948711395],"type":"VEC2","bufferView":1,"byteOffset":3080},{"name":"beroringa-Mesh_5_indices","componentType":5123,"count":12,"min":[0],"max":[5],"type":"SCALAR","bufferView":2,"byteOffset":2440},{"name":"beroringa-Mesh_6_positions","componentType":5126,"count":92,"min":[-2.2004599571228027,0.6104260087013245,-9.35571002960205],"max":[2.203819990158081,9.446020126342773,-0.513260006904602],"type":"VEC3","bufferView":0,"byteOffset":4692},{"name":"beroringa-Mesh_6_texcoords","componentType":5126,"count":92,"min":[0,0.023428000509738922],"max":[1,1.0104010105133057],"type":"VEC2","bufferView":1,"byteOffset":3128},{"name":"beroringa-Mesh_6_indices","componentType":5123,"count":285,"min":[0],"max":[91],"type":"SCALAR","bufferView":2,"byteOffset":2464},{"name":"beroringa-Mesh_7_positions","componentType":5126,"count":64,"min":[-6.428450107574463,-1.7721999883651733,-8.425600051879883],"max":[6.440310001373291,2.925189971923828,-0.0026809999253600836],"type":"VEC3","bufferView":0,"byteOffset":5796},{"name":"beroringa-Mesh_7_texcoords","componentType":5126,"count":64,"min":[-0.9086359739303589,-0.49066001176834106],"max":[1.473099946975708,1.4860459566116333],"type":"VEC2","bufferView":1,"byteOffset":3864},{"name":"beroringa-Mesh_7_indices","componentType":5123,"count":210,"min":[0],"max":[63],"type":"SCALAR","bufferView":2,"byteOffset":3036},{"name":"beroringa-Mesh_8_positions","componentType":5126,"count":28,"min":[-5.291860103607178,0.42638298869132996,-8.262709617614746],"max":[5.326539993286133,2.7115299701690674,-0.01811799965798855],"type":"VEC3","bufferView":0,"byteOffset":6564},{"name":"beroringa-Mesh_8_texcoords","componentType":5126,"count":28,"min":[-0.0034539999905973673,-0.0544699989259243],"max":[1.0079699754714966,0.9215649962425232],"type":"VEC2","bufferView":1,"byteOffset":4376},{"name":"beroringa-Mesh_8_indices","componentType":5123,"count":90,"min":[0],"max":[27],"type":"SCALAR","bufferView":2,"byteOffset":3456},{"name":"beroringa-Mesh_9_positions","componentType":5126,"count":58,"min":[-4.920050144195557,-2.7914700508117676,-5.444240093231201],"max":[4.920050144195557,2.0800299644470215,-0.7887510061264038],"type":"VEC3","bufferView":0,"byteOffset":6900},{"name":"beroringa-Mesh_9_texcoords","componentType":5126,"count":58,"min":[-0.30000001192092896,-0.5879899859428406],"max":[1.3949099779129028,1.237494945526123],"type":"VEC2","bufferView":1,"byteOffset":4600},{"name":"beroringa-Mesh_9_indices","componentType":5123,"count":252,"min":[0],"max":[57],"type":"SCALAR","bufferView":2,"byteOffset":3636}],"asset":{"generator":"obj2gltf","version":"2.0"},"buffers":[{"name":"BR_Lickitung-Shiny01","byteLength":111700,"uri":"data:application/octet-stream;base64,"}],"bufferViews":[{"name":"bufferView_0","buffer":0,"byteLength":7596,"byteOffset":0,"byteStride":12,"target":34962},{"name":"bufferView_1","buffer":0,"byteLength":5064,"byteOffset":7596,"byteStride":8,"target":34962},{"name":"bufferView_2","buffer":0,"byteLength":4140,"byteOffset":12660,"target":34963},{"buffer":0,"byteOffset":16800,"byteLength":4114},{"buffer":0,"byteOffset":20914,"byteLength":32786},{"buffer":0,"byteOffset":53700,"byteLength":274},{"buffer":0,"byteOffset":53974,"byteLength":274},{"buffer":0,"byteOffset":54248,"byteLength":4114},{"buffer":0,"byteOffset":58362,"byteLength":32786},{"buffer":0,"byteOffset":91148,"byteLength":8210},{"buffer":0,"byteOffset":99358,"byteLength":4114},{"buffer":0,"byteOffset":103472,"byteLength":4114},{"buffer":0,"byteOffset":107586,"byteLength":4114}],"images":[{"name":"beroringa_1_0","mimeType":"image/x-tga","bufferView":3},{"name":"beroringa_1_1","mimeType":"image/x-tga","bufferView":4},{"name":"beroringa_1_2","mimeType":"image/x-tga","bufferView":5},{"name":"beroringa_1_3","mimeType":"image/x-tga","bufferView":6},{"name":"beroringa_1_4","mimeType":"image/x-tga","bufferView":7},{"name":"beroringa_1_5","mimeType":"image/x-tga","bufferView":8},{"name":"beroringa_1_6","mimeType":"image/x-tga","bufferView":9},{"name":"beroringa_1_7","mimeType":"image/x-tga","bufferView":10},{"name":"beroringa_1_8","mimeType":"image/x-tga","bufferView":11},{"name":"beroringa_1_9","mimeType":"image/x-tga","bufferView":12}],"materials":[{"name":"mat_0","pbrMetallicRoughness":{"baseColorTexture":{"index":0},"baseColorFactor":[1,1,1,1],"metallicFactor":0,"roughnessFactor":0.903921569},"emissiveFactor":[0,0,0],"alphaMode":"BLEND","doubleSided":true},{"name":"mat_1","pbrMetallicRoughness":{"baseColorTexture":{"index":1},"baseColorFactor":[1,1,1,1],"metallicFactor":0,"roughnessFactor":0.903921569},"emissiveFactor":[0,0,0],"alphaMode":"BLEND","doubleSided":true},{"name":"mat_2","pbrMetallicRoughness":{"baseColorTexture":{"index":2},"baseColorFactor":[1,1,1,1],"metallicFactor":0,"roughnessFactor":0.903921569},"emissiveFactor":[0,0,0],"alphaMode":"BLEND","doubleSided":true},{"name":"mat_3","pbrMetallicRoughness":{"baseColorTexture":{"index":3},"baseColorFactor":[1,1,1,1],"metallicFactor":0,"roughnessFactor":0.903921569},"emissiveFactor":[0,0,0],"alphaMode":"BLEND","doubleSided":true},{"name":"mat_4","pbrMetallicRoughness":{"baseColorTexture":{"index":4},"baseColorFactor":[1,1,1,1],"metallicFactor":0,"roughnessFactor":0.903921569},"emissiveFactor":[0,0,0],"alphaMode":"BLEND","doubleSided":true},{"name":"mat_5","pbrMetallicRoughness":{"baseColorTexture":{"index":5},"baseColorFactor":[1,1,1,1],"metallicFactor":0,"roughnessFactor":0.903921569},"emissiveFactor":[0,0,0],"alphaMode":"BLEND","doubleSided":true},{"name":"mat_6","pbrMetallicRoughness":{"baseColorTexture":{"index":6},"baseColorFactor":[1,1,1,1],"metallicFactor":0,"roughnessFactor":0.903921569},"emissiveFactor":[0,0,0],"alphaMode":"BLEND","doubleSided":true},{"name":"mat_7","pbrMetallicRoughness":{"baseColorTexture":{"index":7},"baseColorFactor":[1,1,1,1],"metallicFactor":0,"roughnessFactor":0.903921569},"emissiveFactor":[0,0,0],"alphaMode":"BLEND","doubleSided":true},{"name":"mat_8","pbrMetallicRoughness":{"baseColorTexture":{"index":8},"baseColorFactor":[1,1,1,1],"metallicFactor":0,"roughnessFactor":0.903921569},"emissiveFactor":[0,0,0],"alphaMode":"BLEND","doubleSided":true},{"name":"mat_9","pbrMetallicRoughness":{"baseColorTexture":{"index":9},"baseColorFactor":[1,1,1,1],"metallicFactor":0,"roughnessFactor":0.903921569},"emissiveFactor":[0,0,0],"alphaMode":"BLEND","doubleSided":true}],"meshes":[{"name":"beroringa-Mesh","primitives":[{"attributes":{"POSITION":0,"TEXCOORD_0":1},"indices":2,"material":0,"mode":4},{"attributes":{"POSITION":3,"TEXCOORD_0":4},"indices":5,"material":1,"mode":4},{"attributes":{"POSITION":6,"TEXCOORD_0":7},"indices":8,"material":2,"mode":4},{"attributes":{"POSITION":9,"TEXCOORD_0":10},"indices":11,"material":3,"mode":4},{"attributes":{"POSITION":12,"TEXCOORD_0":13},"indices":14,"material":4,"mode":4},{"attributes":{"POSITION":15,"TEXCOORD_0":16},"indices":17,"material":5,"mode":4},{"attributes":{"POSITION":18,"TEXCOORD_0":19},"indices":20,"material":6,"mode":4},{"attributes":{"POSITION":21,"TEXCOORD_0":22},"indices":23,"material":7,"mode":4},{"attributes":{"POSITION":24,"TEXCOORD_0":25},"indices":26,"material":8,"mode":4},{"attributes":{"POSITION":27,"TEXCOORD_0":28},"indices":29,"material":9,"mode":4}]}],"nodes":[{"name":"beroringa","mesh":0}],"samplers":[{"wrapS":10497,"wrapT":10497}],"scene":0,"scenes":[{"nodes":[0]}],"textures":[{"name":"beroringa_1_0","sampler":0,"source":0},{"name":"beroringa_1_1","sampler":0,"source":1},{"name":"beroringa_1_2","sampler":0,"source":2},{"name":"beroringa_1_3","sampler":0,"source":3},{"name":"beroringa_1_4","sampler":0,"source":4},{"name":"beroringa_1_5","sampler":0,"source":5},{"name":"beroringa_1_6","sampler":0,"source":6},{"name":"beroringa_1_7","sampler":0,"source":7},{"name":"beroringa_1_8","sampler":0,"source":8},{"name":"beroringa_1_9","sampler":0,"source":9}]}