{"accessors":[{"name":"dogars-Mesh_0_positions","componentType":5126,"count":323,"min":[-3.0582098960876465,-3.099220037460327,-3.072511911392212],"max":[3.0746400356292725,2.6775999069213867,3.0909879207611084],"type":"VEC3","bufferView":0,"byteOffset":0},{"name":"dogars-Mesh_0_texcoords","componentType":5126,"count":323,"min":[-0.2640500068664551,-0.1720699965953827],"max":[1.269629955291748,1.1287989616394043],"type":"VEC2","bufferView":1,"byteOffset":0},{"name":"dogars-Mesh_0_indices","componentType":5123,"count":1566,"min":[0],"max":[322],"type":"SCALAR","bufferView":2,"byteOffset":0},{"name":"dogars-Mesh_1_positions","componentType":5126,"count":163,"min":[-2.8652400970458984,-2.810689926147461,-2.3562119007110596],"max":[2.8884499073028564,2.7048099040985107,3.0678679943084717],"type":"VEC3","bufferView":0,"byteOffset":3876},{"name":"dogars-Mesh_1_texcoords","componentType":5126,"count":163,"min":[0.0016129999421536922,0.07426100224256516],"max":[1.4676599502563477,0.9081760048866272],"type":"VEC2","bufferView":1,"byteOffset":2584},{"name":"dogars-Mesh_1_indices","componentType":5123,"count":726,"min":[0],"max":[162],"type":"SCALAR","bufferView":2,"byteOffset":3132},{"name":"dogars-Mesh_2_positions","componentType":5126,"count":17,"min":[-2.108760118484497,1.1958800554275513,0.5088279843330383],"max":[2.108760118484497,2.835750102996826,2.328778028488159],"type":"VEC3","bufferView":0,"byteOffset":5832},{"name":"dogars-Mesh_2_texcoords","componentType":5126,"count":17,"min":[-1.0210000276565552,-0.007000000216066837],"max":[1,1.062999963760376],"type":"VEC2","bufferView":1,"byteOffset":3888},{"name":"dogars-Mesh_2_indices","componentType":5123,"count":54,"min":[0],"max":[16],"type":"SCALAR","bufferView":2,"byteOffset":4584},{"name":"dogars-Mesh_3_positions","componentType":5126,"count":10,"min":[-2.2746899127960205,1.2831100225448608,-1.5411620140075684],"max":[2.2746899127960205,2.7001500129699707,-0.5197610259056091],"type":"VEC3","bufferView":0,"byteOffset":6036},{"name":"dogars-Mesh_3_texcoords","componentType":5126,"count":10,"min":[-0.21037499606609344,-0.01713000051677227],"max":[1.0119500160217285,0.09080599993467331],"type":"VEC2","bufferView":1,"byteOffset":4024},{"name":"dogars-Mesh_3_indices","componentType":5123,"count":24,"min":[0],"max":[9],"type":"SCALAR","bufferView":2,"byteOffset":4692},{"name":"dogars-Mesh_4_positions","componentType":5126,"count":17,"min":[-2.2746899127960205,1.4781800508499146,-0.5197619795799255],"max":[2.2746899127960205,2.871649980545044,0.5757700204849243],"type":"VEC3","bufferView":0,"byteOffset":6156},{"name":"dogars-Mesh_4_texcoords","componentType":5126,"count":17,"min":[0.12200000137090683,-0.005499999970197678],"max":[1,0.12925000488758087],"type":"VEC2","bufferView":1,"byteOffset":4104},{"name":"dogars-Mesh_4_indices","componentType":5123,"count":54,"min":[0],"max":[16],"type":"SCALAR","bufferView":2,"byteOffset":4740}],"asset":{"generator":"obj2gltf","version":"2.0"},"buffers":[{"name":"BR_Koffing-Shiny01","byteLength":204980,"uri":"data:application/octet-stream;base64,"}],"bufferViews":[{"name":"bufferView_0","buffer":0,"byteLength":6360,"byteOffset":0,"byteStride":12,"target":34962},{"name":"bufferView_1","buffer":0,"byteLength":4240,"byteOffset":6360,"byteStride":8,"target":34962},{"name":"bufferView_2","buffer":0,"byteLength":4848,"byteOffset":10600,"target":34963},{"buffer":0,"byteOffset":15448,"byteLength":16402},{"buffer":0,"byteOffset":31850,"byteLength":1042},{"buffer":0,"byteOffset":32892,"byteLength":32786},{"buffer":0,"byteOffset":65678,"byteLength":73746},{"buffer":0,"byteOffset":139424,"byteLength":65554}],"images":[{"name":"dogars_1_0","mimeType":"image/x-tga","bufferView":3},{"name":"dogars_1_1","mimeType":"image/x-tga","bufferView":4},{"name":"dogars_1_2","mimeType":"image/x-tga","bufferView":5},{"name":"dogars_1_3","mimeType":"image/x-tga","bufferView":6},{"name":"dogars_1_4","mimeType":"image/x-tga","bufferView":7}],"materials":[{"name":"mat_0","pbrMetallicRoughness":{"baseColorTexture":{"index":0},"baseColorFactor":[1,1,1,1],"metallicFactor":0,"roughnessFactor":0.903921569},"emissiveFactor":[0,0,0],"alphaMode":"BLEND","doubleSided":true},{"name":"mat_1","pbrMetallicRoughness":{"baseColorTexture":{"index":1},"baseColorFactor":[1,1,1,1],"metallicFactor":0,"roughnessFactor":0.903921569},"emissiveFactor":[0,0,0],"alphaMode":"BLEND","doubleSided":true},{"name":"mat_2","pbrMetallicRoughness":{"baseColorTexture":{"index":2},"baseColorFactor":[1,1,1,1],"metallicFactor":0,"roughnessFactor":0.903921569},"emissiveFactor":[0,0,0],"alphaMode":"BLEND","doubleSided":true},{"name":"mat_3","pbrMetallicRoughness":{"baseColorTexture":{"index":3},"baseColorFactor":[1,1,1,1],"metallicFactor":0,"roughnessFactor":0.903921569},"emissiveFactor":[0,0,0],"alphaMode":"BLEND","doubleSided":true},{"name":"mat_4","pbrMetallicRoughness":{"baseColorTexture":{"index":4},"baseColorFactor":[1,1,1,1],"metallicFactor":0,"roughnessFactor":0.903921569},"emissiveFactor":[0,0,0],"alphaMode":"BLEND","doubleSided":true}],"meshes":[{"name":"dogars-Mesh","primitives":[{"attributes":{"POSITION":0,"TEXCOORD_0":1},"indices":2,"material":0,"mode":4},{"attributes":{"POSITION":3,"TEXCOORD_0":4},"indices":5,"material":1,"mode":4},{"attributes":{"POSITION":6,"TEXCOORD_0":7},"indices":8,"material":2,"mode":4},{"attributes":{"POSITION":9,"TEXCOORD_0":10},"indices":11,"material":3,"mode":4},{"attributes":{"POSITION":12,"TEXCOORD_0":13},"indices":14,"material":4,"mode":4}]}],"nodes":[{"name":"dogars","mesh":0}],"samplers":[{"wrapS":10497,"wrapT":10497}],"scene":0,"scenes":[{"nodes":[0]}],"textures":[{"name":"dogars_1_0","sampler":0,"source":0},{"name":"dogars_1_1","sampler":0,"source":1},{"name":"dogars_1_2","sampler":0,"source":2},{"name":"dogars_1_3","sampler":0,"source":3},{"name":"dogars_1_4","sampler":0,"source":4}]}