{"accessors":[{"name":"matadogas_c-Mesh_0_positions","componentType":5126,"count":5,"min":[-12.647600173950195,-5.374810218811035,-6.942590236663818],"max":[2.214240074157715,5.859220027923584,2.853440046310425],"type":"VEC3","bufferView":0,"byteOffset":0},{"name":"matadogas_c-Mesh_0_texcoords","componentType":5126,"count":5,"min":[0,0.08917299658060074],"max":[0.8992660045623779,1],"type":"VEC2","bufferView":1,"byteOffset":0},{"name":"matadogas_c-Mesh_0_indices","componentType":5123,"count":9,"min":[0],"max":[4],"type":"SCALAR","bufferView":2,"byteOffset":0},{"name":"matadogas_c-Mesh_1_positions","componentType":5126,"count":331,"min":[-7.360000133514404,-5.375569820404053,-6.031710147857666],"max":[7.608980178833008,5.096260070800781,8.42255973815918],"type":"VEC3","bufferView":0,"byteOffset":60},{"name":"matadogas_c-Mesh_1_texcoords","componentType":5126,"count":331,"min":[0,0],"max":[1,1],"type":"VEC2","bufferView":1,"byteOffset":40},{"name":"matadogas_c-Mesh_1_indices","componentType":5123,"count":1557,"min":[0],"max":[330],"type":"SCALAR","bufferView":2,"byteOffset":20},{"name":"matadogas_c-Mesh_2_positions","componentType":5126,"count":9,"min":[1.584149956703186,1.4457299709320068,-3.6031200885772705],"max":[6.643809795379639,3.3468000888824463,0.9993550181388855],"type":"VEC3","bufferView":0,"byteOffset":4032},{"name":"matadogas_c-Mesh_2_texcoords","componentType":5126,"count":9,"min":[-0.497171014547348,-0.008190000429749489],"max":[1.375,1.0994269847869873],"type":"VEC2","bufferView":1,"byteOffset":2688},{"name":"matadogas_c-Mesh_2_indices","componentType":5123,"count":21,"min":[0],"max":[8],"type":"SCALAR","bufferView":2,"byteOffset":3136},{"name":"matadogas_c-Mesh_3_positions","componentType":5126,"count":12,"min":[1.8182100057601929,-0.13213300704956055,-4.9363298416137695],"max":[7.165130138397217,3.2718300819396973,-0.1782819926738739],"type":"VEC3","bufferView":0,"byteOffset":4140},{"name":"matadogas_c-Mesh_3_texcoords","componentType":5126,"count":12,"min":[0.08581200242042542,0.0069670001976192],"max":[0.9162899851799011,0.1572510004043579],"type":"VEC2","bufferView":1,"byteOffset":2760},{"name":"matadogas_c-Mesh_3_indices","componentType":5123,"count":36,"min":[0],"max":[11],"type":"SCALAR","bufferView":2,"byteOffset":3180},{"name":"matadogas_c-Mesh_4_positions","componentType":5126,"count":48,"min":[-6.706140041351318,-0.6973779797554016,-5.326200008392334],"max":[0.9384250044822693,3.931299924850464,-1.7062499523162842],"type":"VEC3","bufferView":0,"byteOffset":4284},{"name":"matadogas_c-Mesh_4_texcoords","componentType":5126,"count":48,"min":[0.05312500149011612,0.05886000022292137],"max":[0.9776790142059326,0.37198400497436523],"type":"VEC2","bufferView":1,"byteOffset":2856},{"name":"matadogas_c-Mesh_4_indices","componentType":5123,"count":234,"min":[0],"max":[47],"type":"SCALAR","bufferView":2,"byteOffset":3252},{"name":"matadogas_c-Mesh_5_positions","componentType":5126,"count":15,"min":[-6.534599781036377,0.7892770171165466,-1.613800048828125],"max":[-0.23833799362182617,5.096260070800781,-0.3445360064506531],"type":"VEC3","bufferView":0,"byteOffset":4860},{"name":"matadogas_c-Mesh_5_texcoords","componentType":5126,"count":15,"min":[0.010695000179111958,0.02279599942266941],"max":[0.6179280281066895,0.9547659754753113],"type":"VEC2","bufferView":1,"byteOffset":3240},{"name":"matadogas_c-Mesh_5_indices","componentType":5123,"count":48,"min":[0],"max":[14],"type":"SCALAR","bufferView":2,"byteOffset":3720},{"name":"matadogas_c-Mesh_6_positions","componentType":5126,"count":15,"min":[-6.433549880981445,0.7892770171165466,-2.9024500846862793],"max":[-0.23833799362182617,4.461460113525391,-0.3445360064506531],"type":"VEC3","bufferView":0,"byteOffset":5040},{"name":"matadogas_c-Mesh_6_texcoords","componentType":5126,"count":15,"min":[0.0036770000588148832,0.04683699831366539],"max":[0.6788309812545776,0.7187389731407166],"type":"VEC2","bufferView":1,"byteOffset":3360},{"name":"matadogas_c-Mesh_6_indices","componentType":5123,"count":48,"min":[0],"max":[14],"type":"SCALAR","bufferView":2,"byteOffset":3816},{"name":"matadogas_c-Mesh_7_positions","componentType":5126,"count":17,"min":[-6.674330234527588,1.3553999662399292,-1.0274499654769897],"max":[-0.4295459985733032,4.604050159454346,3.9118900299072266],"type":"VEC3","bufferView":0,"byteOffset":5220},{"name":"matadogas_c-Mesh_7_texcoords","componentType":5126,"count":17,"min":[0.09346199780702591,-0.07925000041723251],"max":[0.8992660045623779,1.1118990182876587],"type":"VEC2","bufferView":1,"byteOffset":3480},{"name":"matadogas_c-Mesh_7_indices","componentType":5123,"count":54,"min":[0],"max":[16],"type":"SCALAR","bufferView":2,"byteOffset":3912}],"asset":{"generator":"obj2gltf","version":"2.0"},"buffers":[{"name":"BR_Weezing-Shiny01","byteLength":267396,"uri":"data:application/octet-stream;base64,"}],"bufferViews":[{"name":"bufferView_0","buffer":0,"byteLength":5424,"byteOffset":0,"byteStride":12,"target":34962},{"name":"bufferView_1","buffer":0,"byteLength":3616,"byteOffset":5424,"byteStride":8,"target":34962},{"name":"bufferView_2","buffer":0,"byteLength":4020,"byteOffset":9040,"target":34963},{"buffer":0,"byteOffset":13060,"byteLength":274},{"buffer":0,"byteOffset":13334,"byteLength":8210},{"buffer":0,"byteOffset":21544,"byteLength":163858},{"buffer":0,"byteOffset":185402,"byteLength":32786},{"buffer":0,"byteOffset":218188,"byteLength":8210},{"buffer":0,"byteOffset":226398,"byteLength":8210},{"buffer":0,"byteOffset":234608,"byteLength":32786}],"images":[{"name":"matadogas_c_1_0","mimeType":"image/x-tga","bufferView":3},{"name":"matadogas_c_1_1","mimeType":"image/x-tga","bufferView":4},{"name":"matadogas_c_1_2","mimeType":"image/x-tga","bufferView":5},{"name":"matadogas_c_1_3","mimeType":"image/x-tga","bufferView":6},{"name":"matadogas_c_1_4","mimeType":"image/x-tga","bufferView":7},{"name":"matadogas_c_1_5","mimeType":"image/x-tga","bufferView":8},{"name":"matadogas_c_1_6","mimeType":"image/x-tga","bufferView":9}],"materials":[{"name":"mat_0","pbrMetallicRoughness":{"baseColorFactor":[0.8,0.8,0.8,1],"metallicFactor":0,"roughnessFactor":0.903921569},"emissiveFactor":[0,0,0],"alphaMode":"OPAQUE","doubleSided":false},{"name":"mat_1","pbrMetallicRoughness":{"baseColorTexture":{"index":0},"baseColorFactor":[1,1,1,1],"metallicFactor":0,"roughnessFactor":0.903921569},"emissiveFactor":[0,0,0],"alphaMode":"BLEND","doubleSided":true},{"name":"mat_2","pbrMetallicRoughness":{"baseColorTexture":{"index":1},"baseColorFactor":[1,1,1,1],"metallicFactor":0,"roughnessFactor":0.903921569},"emissiveFactor":[0,0,0],"alphaMode":"BLEND","doubleSided":true},{"name":"mat_3","pbrMetallicRoughness":{"baseColorTexture":{"index":2},"baseColorFactor":[1,1,1,1],"metallicFactor":0,"roughnessFactor":0.903921569},"emissiveFactor":[0,0,0],"alphaMode":"BLEND","doubleSided":true},{"name":"mat_4","pbrMetallicRoughness":{"baseColorTexture":{"index":3},"baseColorFactor":[1,1,1,1],"metallicFactor":0,"roughnessFactor":0.903921569},"emissiveFactor":[0,0,0],"alphaMode":"BLEND","doubleSided":true},{"name":"mat_5","pbrMetallicRoughness":{"baseColorTexture":{"index":4},"baseColorFactor":[1,1,1,1],"metallicFactor":0,"roughnessFactor":0.903921569},"emissiveFactor":[0,0,0],"alphaMode":"BLEND","doubleSided":true},{"name":"mat_6","pbrMetallicRoughness":{"baseColorTexture":{"index":5},"baseColorFactor":[1,1,1,1],"metallicFactor":0,"roughnessFactor":0.903921569},"emissiveFactor":[0,0,0],"alphaMode":"BLEND","doubleSided":true},{"name":"mat_7","pbrMetallicRoughness":{"baseColorTexture":{"index":6},"baseColorFactor":[1,1,1,1],"metallicFactor":0,"roughnessFactor":0.903921569},"emissiveFactor":[0,0,0],"alphaMode":"BLEND","doubleSided":true}],"meshes":[{"name":"matadogas_c-Mesh","primitives":[{"attributes":{"POSITION":0,"TEXCOORD_0":1},"indices":2,"material":0,"mode":4},{"attributes":{"POSITION":3,"TEXCOORD_0":4},"indices":5,"material":1,"mode":4},{"attributes":{"POSITION":6,"TEXCOORD_0":7},"indices":8,"material":2,"mode":4},{"attributes":{"POSITION":9,"TEXCOORD_0":10},"indices":11,"material":3,"mode":4},{"attributes":{"POSITION":12,"TEXCOORD_0":13},"indices":14,"material":4,"mode":4},{"attributes":{"POSITION":15,"TEXCOORD_0":16},"indices":17,"material":5,"mode":4},{"attributes":{"POSITION":18,"TEXCOORD_0":19},"indices":20,"material":6,"mode":4},{"attributes":{"POSITION":21,"TEXCOORD_0":22},"indices":23,"material":7,"mode":4}]}],"nodes":[{"name":"matadogas_c","mesh":0}],"samplers":[{"wrapS":10497,"wrapT":10497}],"scene":0,"scenes":[{"nodes":[0]}],"textures":[{"name":"matadogas_c_1_0","sampler":0,"source":0},{"name":"matadogas_c_1_1","sampler":0,"source":1},{"name":"matadogas_c_1_2","sampler":0,"source":2},{"name":"matadogas_c_1_3","sampler":0,"source":3},{"name":"matadogas_c_1_4","sampler":0,"source":4},{"name":"matadogas_c_1_5","sampler":0,"source":5},{"name":"matadogas_c_1_6","sampler":0,"source":6}]}