{"accessors":[{"name":"sihorn-Mesh_0_positions","componentType":5126,"count":1998,"min":[-4.943368911743164,-7.326233863830566,-9.953702926635742],"max":[4.943367958068848,9.048540115356445,0.15247300267219543],"type":"VEC3","bufferView":0,"byteOffset":0},{"name":"sihorn-Mesh_0_texcoords","componentType":5126,"count":1998,"min":[0.007435999810695648,0.00939400028437376],"max":[0.9326589703559875,0.9782469868659973],"type":"VEC2","bufferView":1,"byteOffset":0},{"name":"sihorn-Mesh_0_indices","componentType":5123,"count":7608,"min":[0],"max":[1997],"type":"SCALAR","bufferView":2,"byteOffset":0},{"name":"sihorn-Mesh_1_positions","componentType":5126,"count":50,"min":[-1.6981459856033325,5.4386820793151855,-3.947309970855713],"max":[1.6981450319290161,6.925013065338135,-2.789618968963623],"type":"VEC3","bufferView":0,"byteOffset":23976},{"name":"sihorn-Mesh_1_texcoords","componentType":5126,"count":50,"min":[0.7662429809570312,0.03212900087237358],"max":[0.9794250130653381,0.10145100206136703],"type":"VEC2","bufferView":1,"byteOffset":15984},{"name":"sihorn-Mesh_1_indices","componentType":5123,"count":186,"min":[0],"max":[49],"type":"SCALAR","bufferView":2,"byteOffset":15216}],"asset":{"generator":"obj2gltf","version":"2.0"},"buffers":[{"name":"BR_Rhyhorn-Shiny01","byteLength":1105144,"uri":"data:application/octet-stream;base64,"}],"bufferViews":[{"name":"bufferView_0","buffer":0,"byteLength":24576,"byteOffset":0,"byteStride":12,"target":34962},{"name":"bufferView_1","buffer":0,"byteLength":16384,"byteOffset":24576,"byteStride":8,"target":34962},{"name":"bufferView_2","buffer":0,"byteLength":15588,"byteOffset":40960,"target":34963},{"buffer":0,"byteOffset":56548,"byteLength":1048594}],"images":[{"name":"sihorn_1_0","mimeType":"image/x-tga","bufferView":3}],"materials":[{"name":"mat_0","pbrMetallicRoughness":{"baseColorTexture":{"index":0},"baseColorFactor":[1,1,1,1],"metallicFactor":0,"roughnessFactor":0.903921569},"emissiveFactor":[0,0,0],"alphaMode":"BLEND","doubleSided":true},{"name":"mat_1","pbrMetallicRoughness":{"baseColorTexture":{"index":0},"baseColorFactor":[1,1,1,1],"metallicFactor":0,"roughnessFactor":0.903921569},"emissiveFactor":[0,0,0],"alphaMode":"BLEND","doubleSided":true}],"meshes":[{"name":"sihorn-Mesh","primitives":[{"attributes":{"POSITION":0,"TEXCOORD_0":1},"indices":2,"material":0,"mode":4},{"attributes":{"POSITION":3,"TEXCOORD_0":4},"indices":5,"material":1,"mode":4}]}],"nodes":[{"name":"sihorn","mesh":0}],"samplers":[{"wrapS":10497,"wrapT":10497}],"scene":0,"scenes":[{"nodes":[0]}],"textures":[{"name":"sihorn_1_0","sampler":0,"source":0}]}