{"accessors":[{"name":"sidon-Mesh_0_positions","componentType":5126,"count":1830,"min":[-6.1576972007751465,-20.29157829284668,-20.03936767578125],"max":[16.59769630432129,9.285357475280762,0],"type":"VEC3","bufferView":0,"byteOffset":0},{"name":"sidon-Mesh_0_texcoords","componentType":5126,"count":1830,"min":[0.0073449998162686825,0.0017190000507980585],"max":[1.0125019550323486,0.9963449835777283],"type":"VEC2","bufferView":1,"byteOffset":0},{"name":"sidon-Mesh_0_indices","componentType":5123,"count":7977,"min":[0],"max":[1829],"type":"SCALAR","bufferView":2,"byteOffset":0},{"name":"sidon-Mesh_1_positions","componentType":5126,"count":41,"min":[1.7653679847717285,2.4782989025115967,-18.34604835510254],"max":[8.674631118774414,8.195731163024902,-12.852959632873535],"type":"VEC3","bufferView":0,"byteOffset":21960},{"name":"sidon-Mesh_1_texcoords","componentType":5126,"count":41,"min":[0.003955000080168247,0.10919000208377838],"max":[0.9639679789543152,0.3848710060119629],"type":"VEC2","bufferView":1,"byteOffset":14640},{"name":"sidon-Mesh_1_indices","componentType":5123,"count":63,"min":[0],"max":[40],"type":"SCALAR","bufferView":2,"byteOffset":15956}],"asset":{"generator":"obj2gltf","version":"2.0"},"buffers":[{"name":"BR_Rhydon-Shiny01","byteLength":1626404,"uri":"data:application/octet-stream;base64,"}],"bufferViews":[{"name":"bufferView_0","buffer":0,"byteLength":22452,"byteOffset":0,"byteStride":12,"target":34962},{"name":"bufferView_1","buffer":0,"byteLength":14968,"byteOffset":22452,"byteStride":8,"target":34962},{"name":"bufferView_2","buffer":0,"byteLength":16084,"byteOffset":37420,"target":34963},{"buffer":0,"byteOffset":53504,"byteLength":1048594},{"buffer":0,"byteOffset":1102098,"byteLength":524306}],"images":[{"name":"sidon_1_0","mimeType":"image/x-tga","bufferView":3},{"name":"sidon_1_1","mimeType":"image/x-tga","bufferView":4}],"materials":[{"name":"mat_0","pbrMetallicRoughness":{"baseColorTexture":{"index":0},"baseColorFactor":[1,1,1,1],"metallicFactor":0,"roughnessFactor":0.903921569},"emissiveFactor":[0,0,0],"alphaMode":"BLEND","doubleSided":true},{"name":"mat_1","pbrMetallicRoughness":{"baseColorTexture":{"index":1},"baseColorFactor":[1,1,1,1],"metallicFactor":0,"roughnessFactor":0.903921569},"emissiveFactor":[0,0,0],"alphaMode":"BLEND","doubleSided":true}],"meshes":[{"name":"sidon-Mesh","primitives":[{"attributes":{"POSITION":0,"TEXCOORD_0":1},"indices":2,"material":0,"mode":4},{"attributes":{"POSITION":3,"TEXCOORD_0":4},"indices":5,"material":1,"mode":4}]}],"nodes":[{"name":"sidon","mesh":0}],"samplers":[{"wrapS":10497,"wrapT":10497}],"scene":0,"scenes":[{"nodes":[0]}],"textures":[{"name":"sidon_1_0","sampler":0,"source":0},{"name":"sidon_1_1","sampler":0,"source":1}]}