{"accessors":[{"name":"lucky-Mesh_0_positions","componentType":5126,"count":1759,"min":[-5.352396011352539,-5.430781841278076,-10.287775039672852],"max":[5.364141941070557,5.923957824707031,0.020003000274300575],"type":"VEC3","bufferView":0,"byteOffset":0},{"name":"lucky-Mesh_0_texcoords","componentType":5126,"count":1759,"min":[0.011234999634325504,0.027053000405430794],"max":[1,0.9925950169563293],"type":"VEC2","bufferView":1,"byteOffset":0},{"name":"lucky-Mesh_0_indices","componentType":5123,"count":8286,"min":[0],"max":[1758],"type":"SCALAR","bufferView":2,"byteOffset":0},{"name":"lucky-Mesh_1_positions","componentType":5126,"count":20,"min":[-2.0767860412597656,2.0564639568328857,-9.672942161560059],"max":[2.077307939529419,3.5360209941864014,-8.159477233886719],"type":"VEC3","bufferView":0,"byteOffset":21108},{"name":"lucky-Mesh_1_texcoords","componentType":5126,"count":20,"min":[-0.49060899019241333,-0.011599999852478504],"max":[2.895829916000366,0.19643500447273254],"type":"VEC2","bufferView":1,"byteOffset":14072},{"name":"lucky-Mesh_1_indices","componentType":5123,"count":72,"min":[0],"max":[19],"type":"SCALAR","bufferView":2,"byteOffset":16572},{"name":"lucky-Mesh_2_positions","componentType":5126,"count":11,"min":[-2.0767860412597656,2.9246389865875244,-8.468823432922363],"max":[2.077307939529419,4.015317916870117,-7.473718166351318],"type":"VEC3","bufferView":0,"byteOffset":21348},{"name":"lucky-Mesh_2_texcoords","componentType":5126,"count":11,"min":[-1.4542189836502075,0.07182899862527847],"max":[2.454530954360962,0.2508949935436249],"type":"VEC2","bufferView":1,"byteOffset":14232},{"name":"lucky-Mesh_2_indices","componentType":5123,"count":36,"min":[0],"max":[10],"type":"SCALAR","bufferView":2,"byteOffset":16716}],"asset":{"generator":"obj2gltf","version":"2.0"},"buffers":[{"name":"BR_Chansey-Shiny01","byteLength":576932,"uri":"data:application/octet-stream;base64,"}],"bufferViews":[{"name":"bufferView_0","buffer":0,"byteLength":21480,"byteOffset":0,"byteStride":12,"target":34962},{"name":"bufferView_1","buffer":0,"byteLength":14320,"byteOffset":21480,"byteStride":8,"target":34962},{"name":"bufferView_2","buffer":0,"byteLength":16788,"byteOffset":35800,"target":34963},{"buffer":0,"byteOffset":52588,"byteLength":262162},{"buffer":0,"byteOffset":314750,"byteLength":88082},{"buffer":0,"byteOffset":402832,"byteLength":174098}],"images":[{"name":"lucky_1_0","mimeType":"image/x-tga","bufferView":3},{"name":"lucky_1_1","mimeType":"image/x-tga","bufferView":4},{"name":"lucky_1_2","mimeType":"image/x-tga","bufferView":5}],"materials":[{"name":"mat_0","pbrMetallicRoughness":{"baseColorTexture":{"index":0},"baseColorFactor":[1,1,1,1],"metallicFactor":0,"roughnessFactor":0.903921569},"emissiveFactor":[0,0,0],"alphaMode":"BLEND","doubleSided":true},{"name":"mat_1","pbrMetallicRoughness":{"baseColorTexture":{"index":1},"baseColorFactor":[1,1,1,1],"metallicFactor":0,"roughnessFactor":0.903921569},"emissiveFactor":[0,0,0],"alphaMode":"BLEND","doubleSided":true},{"name":"mat_2","pbrMetallicRoughness":{"baseColorTexture":{"index":2},"baseColorFactor":[1,1,1,1],"metallicFactor":0,"roughnessFactor":0.903921569},"emissiveFactor":[0,0,0],"alphaMode":"BLEND","doubleSided":true}],"meshes":[{"name":"lucky-Mesh","primitives":[{"attributes":{"POSITION":0,"TEXCOORD_0":1},"indices":2,"material":0,"mode":4},{"attributes":{"POSITION":3,"TEXCOORD_0":4},"indices":5,"material":1,"mode":4},{"attributes":{"POSITION":6,"TEXCOORD_0":7},"indices":8,"material":2,"mode":4}]}],"nodes":[{"name":"lucky","mesh":0}],"samplers":[{"wrapS":10497,"wrapT":10497}],"scene":0,"scenes":[{"nodes":[0]}],"textures":[{"name":"lucky_1_0","sampler":0,"source":0},{"name":"lucky_1_1","sampler":0,"source":1},{"name":"lucky_1_2","sampler":0,"source":2}]}