{"accessors":[{"name":"monjara-Mesh_0_positions","componentType":5126,"count":27,"min":[-2.5986180305480957,1.9622540473937988,-7.148282051086426],"max":[2.5986180305480957,3.1018788814544678,-3.998281955718994],"type":"VEC3","bufferView":0,"byteOffset":0},{"name":"monjara-Mesh_0_texcoords","componentType":5126,"count":27,"min":[0.05392500013113022,0.024190999567508698],"max":[0.19596900045871735,0.10803999751806259],"type":"VEC2","bufferView":1,"byteOffset":0},{"name":"monjara-Mesh_0_indices","componentType":5123,"count":108,"min":[0],"max":[26],"type":"SCALAR","bufferView":2,"byteOffset":0},{"name":"monjara-Mesh_1_positions","componentType":5126,"count":248,"min":[-3.7158870697021484,-0.805761992931366,-2.5426459312438965],"max":[3.7158870697021484,2.239527940750122,0],"type":"VEC3","bufferView":0,"byteOffset":324},{"name":"monjara-Mesh_1_texcoords","componentType":5126,"count":248,"min":[0.7529919743537903,0.1543949991464615],"max":[0.997996985912323,0.9861840009689331],"type":"VEC2","bufferView":1,"byteOffset":216},{"name":"monjara-Mesh_1_indices","componentType":5123,"count":1338,"min":[0],"max":[247],"type":"SCALAR","bufferView":2,"byteOffset":216},{"name":"monjara-Mesh_2_positions","componentType":5126,"count":101,"min":[-3.674999952316284,-3.4883439540863037,-8.386930465698242],"max":[3.674999952316284,2.707993984222412,-2.4760279655456543],"type":"VEC3","bufferView":0,"byteOffset":3300},{"name":"monjara-Mesh_2_texcoords","componentType":5126,"count":101,"min":[0.07118300348520279,0.1340010017156601],"max":[0.6151260137557983,0.9955800175666809],"type":"VEC2","bufferView":1,"byteOffset":2200},{"name":"monjara-Mesh_2_indices","componentType":5123,"count":384,"min":[0],"max":[100],"type":"SCALAR","bufferView":2,"byteOffset":2892}],"asset":{"generator":"obj2gltf","version":"2.0"},"buffers":[{"name":"BR_Tangela-Shiny01","byteLength":1059776,"uri":"data:application/octet-stream;base64,"}],"bufferViews":[{"name":"bufferView_0","buffer":0,"byteLength":4512,"byteOffset":0,"byteStride":12,"target":34962},{"name":"bufferView_1","buffer":0,"byteLength":3008,"byteOffset":4512,"byteStride":8,"target":34962},{"name":"bufferView_2","buffer":0,"byteLength":3660,"byteOffset":7520,"target":34963},{"buffer":0,"byteOffset":11180,"byteLength":1048594}],"images":[{"name":"monjara_1_0","mimeType":"image/x-tga","bufferView":3}],"materials":[{"name":"mat_0","pbrMetallicRoughness":{"baseColorTexture":{"index":0},"baseColorFactor":[1,1,1,1],"metallicFactor":0,"roughnessFactor":0.903921569},"emissiveFactor":[0,0,0],"alphaMode":"BLEND","doubleSided":true},{"name":"mat_1","pbrMetallicRoughness":{"baseColorTexture":{"index":0},"baseColorFactor":[1,1,1,1],"metallicFactor":0,"roughnessFactor":0.903921569},"emissiveFactor":[0,0,0],"alphaMode":"BLEND","doubleSided":true},{"name":"mat_2","pbrMetallicRoughness":{"baseColorTexture":{"index":0},"baseColorFactor":[1,1,1,1],"metallicFactor":0,"roughnessFactor":0.903921569},"emissiveFactor":[0,0,0],"alphaMode":"BLEND","doubleSided":true}],"meshes":[{"name":"monjara-Mesh","primitives":[{"attributes":{"POSITION":0,"TEXCOORD_0":1},"indices":2,"material":0,"mode":4},{"attributes":{"POSITION":3,"TEXCOORD_0":4},"indices":5,"material":1,"mode":4},{"attributes":{"POSITION":6,"TEXCOORD_0":7},"indices":8,"material":2,"mode":4}]}],"nodes":[{"name":"monjara","mesh":0}],"samplers":[{"wrapS":10497,"wrapT":10497}],"scene":0,"scenes":[{"nodes":[0]}],"textures":[{"name":"monjara_1_0","sampler":0,"source":0}]}