{"accessors":[{"name":"garura-Mesh_0_positions","componentType":5126,"count":114,"min":[0.4489069879055023,0.9684460163116455,-9.925909996032715],"max":[5.1374101638793945,5.934160232543945,-4.103899955749512],"type":"VEC3","bufferView":0,"byteOffset":0},{"name":"garura-Mesh_0_texcoords","componentType":5126,"count":114,"min":[-0.19079600274562836,-0.07090000063180923],"max":[1.6215100288391113,1.0649579763412476],"type":"VEC2","bufferView":1,"byteOffset":0},{"name":"garura-Mesh_0_indices","componentType":5123,"count":255,"min":[0],"max":[113],"type":"SCALAR","bufferView":2,"byteOffset":0},{"name":"garura-Mesh_1_positions","componentType":5126,"count":14,"min":[1.3109400272369385,4.2093400955200195,-9.090450286865234],"max":[4.229300022125244,5.881410121917725,-5.206150054931641],"type":"VEC3","bufferView":0,"byteOffset":1368},{"name":"garura-Mesh_1_texcoords","componentType":5126,"count":14,"min":[0.08133900165557861,-0.17745999991893768],"max":[0.8863289952278137,0.9750800132751465],"type":"VEC2","bufferView":1,"byteOffset":912},{"name":"garura-Mesh_1_indices","componentType":5123,"count":33,"min":[0],"max":[13],"type":"SCALAR","bufferView":2,"byteOffset":512},{"name":"garura-Mesh_2_positions","componentType":5126,"count":32,"min":[0.4489069879055023,3.197360038757324,-10.502699851989746],"max":[6.042669773101807,6.359220027923584,-3.4997398853302],"type":"VEC3","bufferView":0,"byteOffset":1536},{"name":"garura-Mesh_2_texcoords","componentType":5126,"count":32,"min":[-0.18103399872779846,-0.5776500105857849],"max":[1.229449987411499,1.657047986984253],"type":"VEC2","bufferView":1,"byteOffset":1024},{"name":"garura-Mesh_2_indices","componentType":5123,"count":48,"min":[0],"max":[31],"type":"SCALAR","bufferView":2,"byteOffset":580},{"name":"garura-Mesh_3_positions","componentType":5126,"count":16,"min":[1.081719994544983,4.2536301612854,-10.169500350952148],"max":[3.5676300525665283,7.2713398933410645,-7.451859951019287],"type":"VEC3","bufferView":0,"byteOffset":1920},{"name":"garura-Mesh_3_texcoords","componentType":5126,"count":16,"min":[-0.012647000141441822,-0.208079993724823],"max":[1.110069990158081,1.1890369653701782],"type":"VEC2","bufferView":1,"byteOffset":1280},{"name":"garura-Mesh_3_indices","componentType":5123,"count":66,"min":[0],"max":[15],"type":"SCALAR","bufferView":2,"byteOffset":676},{"name":"garura-Mesh_4_positions","componentType":5126,"count":36,"min":[-5.091440200805664,-1.779170036315918,-20.601200103759766],"max":[6.724520206451416,6.630099773406982,-9.322669982910156],"type":"VEC3","bufferView":0,"byteOffset":2112},{"name":"garura-Mesh_4_texcoords","componentType":5126,"count":36,"min":[0.0625,-0.038189999759197235],"max":[0.9018980264663696,1.3242679834365845],"type":"VEC2","bufferView":1,"byteOffset":1408},{"name":"garura-Mesh_4_indices","componentType":5123,"count":90,"min":[0],"max":[35],"type":"SCALAR","bufferView":2,"byteOffset":808},{"name":"garura-Mesh_5_positions","componentType":5126,"count":51,"min":[-5.954219818115234,-10.525899887084961,-12.861300468444824],"max":[6.378890037536621,5.990449905395508,0.3547770082950592],"type":"VEC3","bufferView":0,"byteOffset":2544},{"name":"garura-Mesh_5_texcoords","componentType":5126,"count":51,"min":[-0.5756170153617859,0.008406000211834908],"max":[1.0099899768829346,1.166538953781128],"type":"VEC2","bufferView":1,"byteOffset":1696},{"name":"garura-Mesh_5_indices","componentType":5123,"count":198,"min":[0],"max":[50],"type":"SCALAR","bufferView":2,"byteOffset":988},{"name":"garura-Mesh_6_positions","componentType":5126,"count":24,"min":[-5.954219818115234,-12.010299682617188,-14.148599624633789],"max":[4.737870216369629,0.6033660173416138,-1.6146899461746216],"type":"VEC3","bufferView":0,"byteOffset":3156},{"name":"garura-Mesh_6_texcoords","componentType":5126,"count":24,"min":[-0.06431300193071365,-0.019200000911951065],"max":[1.0577399730682373,1.0609580278396606],"type":"VEC2","bufferView":1,"byteOffset":2104},{"name":"garura-Mesh_6_indices","componentType":5123,"count":90,"min":[0],"max":[23],"type":"SCALAR","bufferView":2,"byteOffset":1384},{"name":"garura-Mesh_7_positions","componentType":5126,"count":31,"min":[-2.6747400760650635,-17.518299102783203,-17.609899520874023],"max":[1.6085100173950195,-2.2833800315856934,-3.130470037460327],"type":"VEC3","bufferView":0,"byteOffset":3444},{"name":"garura-Mesh_7_texcoords","componentType":5126,"count":31,"min":[-0.279229998588562,-0.11630000174045563],"max":[1.1060400009155273,1.177441954612732],"type":"VEC2","bufferView":1,"byteOffset":2296},{"name":"garura-Mesh_7_indices","componentType":5123,"count":96,"min":[0],"max":[30],"type":"SCALAR","bufferView":2,"byteOffset":1564},{"name":"garura-Mesh_8_positions","componentType":5126,"count":24,"min":[-5.713679790496826,-5.673940181732178,-13.623100280761719],"max":[8.003990173339844,4.191530227661133,-10.242400169372559],"type":"VEC3","bufferView":0,"byteOffset":3816},{"name":"garura-Mesh_8_texcoords","componentType":5126,"count":24,"min":[0.023638000711798668,-0.16561999917030334],"max":[1.1124999523162842,1.1389269828796387],"type":"VEC2","bufferView":1,"byteOffset":2544},{"name":"garura-Mesh_8_indices","componentType":5123,"count":60,"min":[0],"max":[23],"type":"SCALAR","bufferView":2,"byteOffset":1756},{"name":"garura-Mesh_9_positions","componentType":5126,"count":44,"min":[-5.713679790496826,-5.673940181732178,-14.474800109863281],"max":[8.003990173339844,4.191530227661133,-10.242400169372559],"type":"VEC3","bufferView":0,"byteOffset":4104},{"name":"garura-Mesh_9_texcoords","componentType":5126,"count":44,"min":[-0.04129499942064285,0.03861600160598755],"max":[0.900164008140564,1],"type":"VEC2","bufferView":1,"byteOffset":2736},{"name":"garura-Mesh_9_indices","componentType":5123,"count":132,"min":[0],"max":[43],"type":"SCALAR","bufferView":2,"byteOffset":1876},{"name":"garura-Mesh_10_positions","componentType":5126,"count":136,"min":[-10.02750015258789,-9.103469848632812,-13.58650016784668],"max":[12.905200004577637,11.174099922180176,0.28417399525642395],"type":"VEC3","bufferView":0,"byteOffset":4632},{"name":"garura-Mesh_10_texcoords","componentType":5126,"count":136,"min":[-1.0204399824142456,-0.43112999200820923],"max":[1.006809949874878,1.3980560302734375],"type":"VEC2","bufferView":1,"byteOffset":3088},{"name":"garura-Mesh_10_indices","componentType":5123,"count":330,"min":[0],"max":[135],"type":"SCALAR","bufferView":2,"byteOffset":2140},{"name":"garura-Mesh_11_positions","componentType":5126,"count":139,"min":[-5.4410200119018555,-20.6835994720459,-18.698400497436523],"max":[11.869999885559082,10.436300277709961,0.3547770082950592],"type":"VEC3","bufferView":0,"byteOffset":6264},{"name":"garura-Mesh_11_texcoords","componentType":5126,"count":139,"min":[-0.8579149842262268,-0.23266999423503876],"max":[1.1178499460220337,1.905357003211975],"type":"VEC2","bufferView":1,"byteOffset":4176},{"name":"garura-Mesh_11_indices","componentType":5123,"count":396,"min":[0],"max":[138],"type":"SCALAR","bufferView":2,"byteOffset":2800},{"name":"garura-Mesh_12_positions","componentType":5126,"count":6,"min":[-0.1513729989528656,5.700349807739258,-14.362500190734863],"max":[2.1960299015045166,6.116020202636719,-12.607799530029297],"type":"VEC3","bufferView":0,"byteOffset":7932},{"name":"garura-Mesh_12_texcoords","componentType":5126,"count":6,"min":[-0.04782700166106224,-0.0015800000401213765],"max":[1.0085699558258057,0.989408016204834],"type":"VEC2","bufferView":1,"byteOffset":5288},{"name":"garura-Mesh_12_indices","componentType":5123,"count":12,"min":[0],"max":[5],"type":"SCALAR","bufferView":2,"byteOffset":3592},{"name":"garura-Mesh_13_positions","componentType":5126,"count":12,"min":[-2.7915899753570557,0.6241729855537415,-18.243799209594727],"max":[4.904880046844482,6.116020202636719,-13.460100173950195],"type":"VEC3","bufferView":0,"byteOffset":8004},{"name":"garura-Mesh_13_texcoords","componentType":5126,"count":12,"min":[-0.11458300054073334,-0.04613000154495239],"max":[1.3229199647903442,0.15178599953651428],"type":"VEC2","bufferView":1,"byteOffset":5336},{"name":"garura-Mesh_13_indices","componentType":5123,"count":30,"min":[0],"max":[11],"type":"SCALAR","bufferView":2,"byteOffset":3616},{"name":"garura-Mesh_14_positions","componentType":5126,"count":14,"min":[-2.4550299644470215,0.32206299901008606,-14.674599647521973],"max":[4.769959926605225,5.743070125579834,-12.607799530029297],"type":"VEC3","bufferView":0,"byteOffset":8148},{"name":"garura-Mesh_14_texcoords","componentType":5126,"count":14,"min":[-0.03125,-0.27404001355171204],"max":[1.0549999475479126,1.0012279748916626],"type":"VEC2","bufferView":1,"byteOffset":5432},{"name":"garura-Mesh_14_indices","componentType":5123,"count":33,"min":[0],"max":[13],"type":"SCALAR","bufferView":2,"byteOffset":3676},{"name":"garura-Mesh_15_positions","componentType":5126,"count":108,"min":[-10.02750015258789,-9.122650146484375,-20.28179931640625],"max":[10.581000328063965,6.4348602294921875,0.28417399525642395],"type":"VEC3","bufferView":0,"byteOffset":8316},{"name":"garura-Mesh_15_texcoords","componentType":5126,"count":108,"min":[-0.11039099842309952,-0.38515999913215637],"max":[1.6544300317764282,1.2578129768371582],"type":"VEC2","bufferView":1,"byteOffset":5544},{"name":"garura-Mesh_15_indices","componentType":5123,"count":303,"min":[0],"max":[107],"type":"SCALAR","bufferView":2,"byteOffset":3744}],"asset":{"generator":"obj2gltf","version":"2.0"},"buffers":[{"name":"BR_Kangaskhan-Shiny01","byteLength":112036,"uri":"data:application/octet-stream;base64,"}],"bufferViews":[{"name":"bufferView_0","buffer":0,"byteLength":9612,"byteOffset":0,"byteStride":12,"target":34962},{"name":"bufferView_1","buffer":0,"byteLength":6408,"byteOffset":9612,"byteStride":8,"target":34962},{"name":"bufferView_2","buffer":0,"byteLength":4352,"byteOffset":16020,"target":34963},{"buffer":0,"byteOffset":20372,"byteLength":1042},{"buffer":0,"byteOffset":21414,"byteLength":1042},{"buffer":0,"byteOffset":22456,"byteLength":1042},{"buffer":0,"byteOffset":23498,"byteLength":2066},{"buffer":0,"byteOffset":25564,"byteLength":1042},{"buffer":0,"byteOffset":26606,"byteLength":4626},{"buffer":0,"byteOffset":31232,"byteLength":32786},{"buffer":0,"byteOffset":64018,"byteLength":2066},{"buffer":0,"byteOffset":66084,"byteLength":274},{"buffer":0,"byteOffset":66358,"byteLength":2066},{"buffer":0,"byteOffset":68424,"byteLength":4114},{"buffer":0,"byteOffset":72538,"byteLength":4114},{"buffer":0,"byteOffset":76652,"byteLength":1042},{"buffer":0,"byteOffset":77694,"byteLength":32274},{"buffer":0,"byteOffset":109968,"byteLength":2066}],"images":[{"name":"garura_1_0","mimeType":"image/x-tga","bufferView":3},{"name":"garura_1_1","mimeType":"image/x-tga","bufferView":4},{"name":"garura_1_2","mimeType":"image/x-tga","bufferView":5},{"name":"garura_1_3","mimeType":"image/x-tga","bufferView":6},{"name":"garura_1_4","mimeType":"image/x-tga","bufferView":7},{"name":"garura_1_5","mimeType":"image/x-tga","bufferView":8},{"name":"garura_1_6","mimeType":"image/x-tga","bufferView":9},{"name":"garura_1_7","mimeType":"image/x-tga","bufferView":10},{"name":"garura_1_8","mimeType":"image/x-tga","bufferView":11},{"name":"garura_1_9","mimeType":"image/x-tga","bufferView":12},{"name":"garura_1_10","mimeType":"image/x-tga","bufferView":13},{"name":"garura_1_11","mimeType":"image/x-tga","bufferView":14},{"name":"garura_1_12","mimeType":"image/x-tga","bufferView":15},{"name":"garura_1_13","mimeType":"image/x-tga","bufferView":16},{"name":"garura_1_14","mimeType":"image/x-tga","bufferView":17}],"materials":[{"name":"mat_0","pbrMetallicRoughness":{"baseColorTexture":{"index":0},"baseColorFactor":[1,1,1,1],"metallicFactor":0,"roughnessFactor":0.903921569},"emissiveFactor":[0,0,0],"alphaMode":"BLEND","doubleSided":true},{"name":"mat_1","pbrMetallicRoughness":{"baseColorTexture":{"index":1},"baseColorFactor":[1,1,1,1],"metallicFactor":0,"roughnessFactor":0.903921569},"emissiveFactor":[0,0,0],"alphaMode":"BLEND","doubleSided":true},{"name":"mat_2","pbrMetallicRoughness":{"baseColorTexture":{"index":2},"baseColorFactor":[1,1,1,1],"metallicFactor":0,"roughnessFactor":0.903921569},"emissiveFactor":[0,0,0],"alphaMode":"BLEND","doubleSided":true},{"name":"mat_3","pbrMetallicRoughness":{"baseColorTexture":{"index":3},"baseColorFactor":[1,1,1,1],"metallicFactor":0,"roughnessFactor":0.903921569},"emissiveFactor":[0,0,0],"alphaMode":"BLEND","doubleSided":true},{"name":"mat_4","pbrMetallicRoughness":{"baseColorTexture":{"index":4},"baseColorFactor":[1,1,1,1],"metallicFactor":0,"roughnessFactor":0.903921569},"emissiveFactor":[0,0,0],"alphaMode":"BLEND","doubleSided":true},{"name":"mat_5","pbrMetallicRoughness":{"baseColorTexture":{"index":5},"baseColorFactor":[1,1,1,1],"metallicFactor":0,"roughnessFactor":0.903921569},"emissiveFactor":[0,0,0],"alphaMode":"BLEND","doubleSided":true},{"name":"mat_6","pbrMetallicRoughness":{"baseColorTexture":{"index":6},"baseColorFactor":[1,1,1,1],"metallicFactor":0,"roughnessFactor":0.903921569},"emissiveFactor":[0,0,0],"alphaMode":"BLEND","doubleSided":true},{"name":"mat_7","pbrMetallicRoughness":{"baseColorTexture":{"index":7},"baseColorFactor":[1,1,1,1],"metallicFactor":0,"roughnessFactor":0.903921569},"emissiveFactor":[0,0,0],"alphaMode":"BLEND","doubleSided":true},{"name":"mat_8","pbrMetallicRoughness":{"baseColorTexture":{"index":8},"baseColorFactor":[1,1,1,1],"metallicFactor":0,"roughnessFactor":0.903921569},"emissiveFactor":[0,0,0],"alphaMode":"BLEND","doubleSided":true},{"name":"mat_9","pbrMetallicRoughness":{"baseColorTexture":{"index":9},"baseColorFactor":[1,1,1,1],"metallicFactor":0,"roughnessFactor":0.903921569},"emissiveFactor":[0,0,0],"alphaMode":"BLEND","doubleSided":true},{"name":"mat_10","pbrMetallicRoughness":{"baseColorTexture":{"index":10},"baseColorFactor":[1,1,1,1],"metallicFactor":0,"roughnessFactor":0.903921569},"emissiveFactor":[0,0,0],"alphaMode":"BLEND","doubleSided":true},{"name":"mat_11","pbrMetallicRoughness":{"baseColorTexture":{"index":11},"baseColorFactor":[1,1,1,1],"metallicFactor":0,"roughnessFactor":0.903921569},"emissiveFactor":[0,0,0],"alphaMode":"BLEND","doubleSided":true},{"name":"mat_12","pbrMetallicRoughness":{"baseColorTexture":{"index":12},"baseColorFactor":[1,1,1,1],"metallicFactor":0,"roughnessFactor":0.903921569},"emissiveFactor":[0,0,0],"alphaMode":"BLEND","doubleSided":true},{"name":"mat_13","pbrMetallicRoughness":{"baseColorTexture":{"index":13},"baseColorFactor":[1,1,1,1],"metallicFactor":0,"roughnessFactor":0.903921569},"emissiveFactor":[0,0,0],"alphaMode":"BLEND","doubleSided":true},{"name":"mat_14","pbrMetallicRoughness":{"baseColorTexture":{"index":14},"baseColorFactor":[1,1,1,1],"metallicFactor":0,"roughnessFactor":0.903921569},"emissiveFactor":[0,0,0],"alphaMode":"BLEND","doubleSided":true},{"name":"mat_14_NONE","pbrMetallicRoughness":{"baseColorTexture":{"index":14},"baseColorFactor":[1,1,1,1],"metallicFactor":0,"roughnessFactor":0.903921569},"emissiveFactor":[0,0,0],"alphaMode":"BLEND","doubleSided":true}],"meshes":[{"name":"garura-Mesh","primitives":[{"attributes":{"POSITION":0,"TEXCOORD_0":1},"indices":2,"material":0,"mode":4},{"attributes":{"POSITION":3,"TEXCOORD_0":4},"indices":5,"material":1,"mode":4},{"attributes":{"POSITION":6,"TEXCOORD_0":7},"indices":8,"material":2,"mode":4},{"attributes":{"POSITION":9,"TEXCOORD_0":10},"indices":11,"material":3,"mode":4},{"attributes":{"POSITION":12,"TEXCOORD_0":13},"indices":14,"material":4,"mode":4},{"attributes":{"POSITION":15,"TEXCOORD_0":16},"indices":17,"material":5,"mode":4},{"attributes":{"POSITION":18,"TEXCOORD_0":19},"indices":20,"material":6,"mode":4},{"attributes":{"POSITION":21,"TEXCOORD_0":22},"indices":23,"material":7,"mode":4},{"attributes":{"POSITION":24,"TEXCOORD_0":25},"indices":26,"material":8,"mode":4},{"attributes":{"POSITION":27,"TEXCOORD_0":28},"indices":29,"material":9,"mode":4},{"attributes":{"POSITION":30,"TEXCOORD_0":31},"indices":32,"material":10,"mode":4},{"attributes":{"POSITION":33,"TEXCOORD_0":34},"indices":35,"material":11,"mode":4},{"attributes":{"POSITION":36,"TEXCOORD_0":37},"indices":38,"material":12,"mode":4},{"attributes":{"POSITION":39,"TEXCOORD_0":40},"indices":41,"material":13,"mode":4},{"attributes":{"POSITION":42,"TEXCOORD_0":43},"indices":44,"material":14,"mode":4},{"attributes":{"POSITION":45,"TEXCOORD_0":46},"indices":47,"material":15,"mode":4}]}],"nodes":[{"name":"garura","mesh":0}],"samplers":[{"wrapS":10497,"wrapT":10497}],"scene":0,"scenes":[{"nodes":[0]}],"textures":[{"name":"garura_1_0","sampler":0,"source":0},{"name":"garura_1_1","sampler":0,"source":1},{"name":"garura_1_2","sampler":0,"source":2},{"name":"garura_1_3","sampler":0,"source":3},{"name":"garura_1_4","sampler":0,"source":4},{"name":"garura_1_5","sampler":0,"source":5},{"name":"garura_1_6","sampler":0,"source":6},{"name":"garura_1_7","sampler":0,"source":7},{"name":"garura_1_8","sampler":0,"source":8},{"name":"garura_1_9","sampler":0,"source":9},{"name":"garura_1_10","sampler":0,"source":10},{"name":"garura_1_11","sampler":0,"source":11},{"name":"garura_1_12","sampler":0,"source":12},{"name":"garura_1_13","sampler":0,"source":13},{"name":"garura_1_14","sampler":0,"source":14}]}