{"accessors":[{"name":"Kangaskhan_1_0_positions","componentType":5126,"count":16170,"min":[-144.53700256347656,-0.14063699543476105,-207.84896850585938],"max":[144.53701782226562,219.5229949951172,68.81300354003906],"type":"VEC3","bufferView":0,"byteOffset":0},{"name":"Kangaskhan_1_0_normals","componentType":5126,"count":16170,"min":[-0.996634840965271,-0.9982829689979553,-0.9932227730751038],"max":[0.996634840965271,0.9998739957809448,0.9975512623786926],"type":"VEC3","bufferView":1,"byteOffset":0},{"name":"Kangaskhan_1_0_texcoords","componentType":5126,"count":16170,"min":[0,0.009557000361382961],"max":[1,0.9921879768371582],"type":"VEC2","bufferView":2,"byteOffset":0},{"name":"Kangaskhan_1_0_indices","componentType":5123,"count":16170,"min":[0],"max":[16169],"type":"SCALAR","bufferView":3,"byteOffset":0},{"name":"Kangaskhan_1_1_positions","componentType":5126,"count":120,"min":[-28.6205997467041,173.5390167236328,34.83570098876953],"max":[28.6205997467041,194.01400756835938,61.17250442504883],"type":"VEC3","bufferView":0,"byteOffset":194040},{"name":"Kangaskhan_1_1_normals","componentType":5126,"count":120,"min":[-0.9946829080581665,-0.9264450669288635,-0.8589763641357422],"max":[0.9371832609176636,0.9394576549530029,0.8595117926597595],"type":"VEC3","bufferView":1,"byteOffset":194040},{"name":"Kangaskhan_1_1_texcoords","componentType":5126,"count":120,"min":[0.006513999775052071,-1.936460018157959],"max":[0.4934900104999542,-1.8359400033950806],"type":"VEC2","bufferView":2,"byteOffset":129360},{"name":"Kangaskhan_1_1_indices","componentType":5123,"count":120,"min":[0],"max":[119],"type":"SCALAR","bufferView":3,"byteOffset":32340},{"name":"KangaskhanKid_1_0_positions","componentType":5126,"count":2928,"min":[-29.946500778198242,57.965579986572266,89.67349243164062],"max":[29.946504592895508,113.31300354003906,142.6750030517578],"type":"VEC3","bufferView":0,"byteOffset":195480},{"name":"KangaskhanKid_1_0_normals","componentType":5126,"count":2928,"min":[-0.9917018413543701,-0.9999963641166687,-0.9988308548927307],"max":[0.970024585723877,0.9856578707695007,0.998769998550415],"type":"VEC3","bufferView":1,"byteOffset":195480},{"name":"KangaskhanKid_1_0_texcoords","componentType":5126,"count":2928,"min":[0.01607999950647354,0.010333999991416931],"max":[0.9839199781417847,0.9921870231628418],"type":"VEC2","bufferView":2,"byteOffset":130320},{"name":"KangaskhanKid_1_0_indices","componentType":5123,"count":2928,"min":[0],"max":[2927],"type":"SCALAR","bufferView":3,"byteOffset":32580},{"name":"KangaskhanKid_1_1_positions","componentType":5126,"count":48,"min":[-10.262900352478027,94.10359954833984,128.96400451660156],"max":[10.262900352478027,108.95600128173828,140.6029815673828],"type":"VEC3","bufferView":0,"byteOffset":230616},{"name":"KangaskhanKid_1_1_normals","componentType":5126,"count":48,"min":[-0.9857533574104309,-0.40388697385787964,-0.6649459600448608],"max":[-0.16596201062202454,0.7273841500282288,0.823750913143158],"type":"VEC3","bufferView":1,"byteOffset":230616},{"name":"KangaskhanKid_1_1_texcoords","componentType":5126,"count":48,"min":[0.00838099978864193,-0.9533399939537048],"max":[0.4916200041770935,-0.7890599966049194],"type":"VEC2","bufferView":2,"byteOffset":153744},{"name":"KangaskhanKid_1_1_indices","componentType":5123,"count":48,"min":[0],"max":[47],"type":"SCALAR","bufferView":3,"byteOffset":38436},{"name":"KangaskhanKid_1_2_positions","componentType":5126,"count":96,"min":[-3.382189989089966,90.19670104980469,133.53298950195312],"max":[3.382189989089966,93.19629669189453,141.18299865722656],"type":"VEC3","bufferView":0,"byteOffset":231192},{"name":"KangaskhanKid_1_2_normals","componentType":5126,"count":96,"min":[-0.9857533574104309,-0.8489624261856079,-0.9777953624725342],"max":[0,0.7273841500282288,0.9552747011184692],"type":"VEC3","bufferView":1,"byteOffset":231192},{"name":"KangaskhanKid_1_2_texcoords","componentType":5126,"count":96,"min":[0.04461300000548363,-1.9919899702072144],"max":[0.45539000630378723,-1.7566699981689453],"type":"VEC2","bufferView":2,"byteOffset":154128},{"name":"KangaskhanKid_1_2_indices","componentType":5123,"count":96,"min":[0],"max":[95],"type":"SCALAR","bufferView":3,"byteOffset":38532}],"asset":{"generator":"obj2gltf","version":"2.0"},"buffers":[{"name":"XY_Kangaskhan","byteLength":763608,"uri":"data:application/octet-stream;base64,"}],"bufferViews":[{"name":"bufferView_0","buffer":0,"byteLength":232344,"byteOffset":0,"byteStride":12,"target":34962},{"name":"bufferView_1","buffer":0,"byteLength":232344,"byteOffset":232344,"byteStride":12,"target":34962},{"name":"bufferView_2","buffer":0,"byteLength":154896,"byteOffset":464688,"byteStride":8,"target":34962},{"name":"bufferView_3","buffer":0,"byteLength":38724,"byteOffset":619584,"target":34963},{"buffer":0,"byteOffset":658308,"byteLength":34667},{"buffer":0,"byteOffset":692975,"byteLength":18148},{"buffer":0,"byteOffset":711123,"byteLength":12653},{"buffer":0,"byteOffset":723776,"byteLength":31402},{"buffer":0,"byteOffset":755178,"byteLength":8429}],"images":[{"name":"pm0115_00_BodyA1","mimeType":"image/png","bufferView":4},{"name":"pm0115_00_EyeA1","mimeType":"image/png","bufferView":5},{"name":"pm0115_00_BodyB1","mimeType":"image/png","bufferView":6},{"name":"pm0115_00_EyeB1","mimeType":"image/png","bufferView":7},{"name":"pm0115_00_Mouth1","mimeType":"image/png","bufferView":8}],"materials":[{"name":"Material__10","pbrMetallicRoughness":{"baseColorTexture":{"index":0},"baseColorFactor":[1,1,1,1],"metallicFactor":0,"roughnessFactor":0.998},"emissiveFactor":[0,0,0],"alphaMode":"OPAQUE","doubleSided":false},{"name":"Material__11","pbrMetallicRoughness":{"baseColorTexture":{"index":1},"baseColorFactor":[1,1,1,1],"metallicFactor":0,"roughnessFactor":0.998},"emissiveFactor":[0,0,0],"alphaMode":"OPAQUE","doubleSided":false},{"name":"Material__22","pbrMetallicRoughness":{"baseColorTexture":{"index":2},"baseColorFactor":[1,1,1,1],"metallicFactor":0,"roughnessFactor":0.998},"emissiveFactor":[0,0,0],"alphaMode":"OPAQUE","doubleSided":false},{"name":"Material__23","pbrMetallicRoughness":{"baseColorTexture":{"index":3},"baseColorFactor":[1,1,1,1],"metallicFactor":0,"roughnessFactor":0.998},"emissiveFactor":[0,0,0],"alphaMode":"OPAQUE","doubleSided":false},{"name":"Material__24","pbrMetallicRoughness":{"baseColorTexture":{"index":4},"baseColorFactor":[1,1,1,1],"metallicFactor":0,"roughnessFactor":0.998},"emissiveFactor":[0,0,0],"alphaMode":"OPAQUE","doubleSided":false}],"meshes":[{"name":"Kangaskhan_1","primitives":[{"attributes":{"POSITION":0,"NORMAL":1,"TEXCOORD_0":2},"indices":3,"material":0,"mode":4},{"attributes":{"POSITION":4,"NORMAL":5,"TEXCOORD_0":6},"indices":7,"material":1,"mode":4}]},{"name":"KangaskhanKid_1","primitives":[{"attributes":{"POSITION":8,"NORMAL":9,"TEXCOORD_0":10},"indices":11,"material":2,"mode":4},{"attributes":{"POSITION":12,"NORMAL":13,"TEXCOORD_0":14},"indices":15,"material":3,"mode":4},{"attributes":{"POSITION":16,"NORMAL":17,"TEXCOORD_0":18},"indices":19,"material":4,"mode":4}]}],"nodes":[{"name":"Kangaskhan","mesh":0},{"name":"KangaskhanKid","mesh":1}],"samplers":[{"wrapS":10497,"wrapT":10497}],"scene":0,"scenes":[{"nodes":[0,1]}],"textures":[{"name":"pm0115_00_BodyA1","sampler":0,"source":0},{"name":"pm0115_00_EyeA1","sampler":0,"source":1},{"name":"pm0115_00_BodyB1","sampler":0,"source":2},{"name":"pm0115_00_EyeB1","sampler":0,"source":3},{"name":"pm0115_00_Mouth1","sampler":0,"source":4}]}