{"accessors":[{"name":"tattu-Mesh_0_positions","componentType":5126,"count":36,"min":[-0.6945750117301941,-0.05000000074505806,-0.5],"max":[0.6945750117301941,0.6825000047683716,0.8500000238418579],"type":"VEC3","bufferView":0,"byteOffset":0},{"name":"tattu-Mesh_0_texcoords","componentType":5126,"count":36,"min":[-0.04905100166797638,0],"max":[1,1],"type":"VEC2","bufferView":1,"byteOffset":0},{"name":"tattu-Mesh_0_indices","componentType":5123,"count":120,"min":[0],"max":[35],"type":"SCALAR","bufferView":2,"byteOffset":0},{"name":"tattu-Mesh_1_positions","componentType":5126,"count":182,"min":[-2.2074100971221924,-0.897773027420044,-2.633699893951416],"max":[2.2074100971221924,2.010010004043579,1.5651899576187134],"type":"VEC3","bufferView":0,"byteOffset":432},{"name":"tattu-Mesh_1_texcoords","componentType":5126,"count":182,"min":[0.125,0.16381500661373138],"max":[0.875,0.9138150215148926],"type":"VEC2","bufferView":1,"byteOffset":288},{"name":"tattu-Mesh_1_indices","componentType":5123,"count":828,"min":[0],"max":[181],"type":"SCALAR","bufferView":2,"byteOffset":240},{"name":"tattu-Mesh_2_positions","componentType":5126,"count":141,"min":[-1.125,-1.0699399709701538,-2.4549999237060547],"max":[1.125,1.033810019493103,-0.5],"type":"VEC3","bufferView":0,"byteOffset":2616},{"name":"tattu-Mesh_2_texcoords","componentType":5126,"count":141,"min":[0.1252720057964325,0.1303730010986328],"max":[0.8752719759941101,0.8803730010986328],"type":"VEC2","bufferView":1,"byteOffset":1744},{"name":"tattu-Mesh_2_indices","componentType":5123,"count":660,"min":[0],"max":[140],"type":"SCALAR","bufferView":2,"byteOffset":1896},{"name":"tattu-Mesh_3_positions","componentType":5126,"count":16,"min":[-0.9101439714431763,0.42082199454307556,-2.1621100902557373],"max":[0.9101439714431763,0.9629449844360352,-1.2276899814605713],"type":"VEC3","bufferView":0,"byteOffset":4308},{"name":"tattu-Mesh_3_texcoords","componentType":5126,"count":16,"min":[0.15215599536895752,-0.007199999876320362],"max":[0.9789069890975952,0.11738999933004379],"type":"VEC2","bufferView":1,"byteOffset":2872},{"name":"tattu-Mesh_3_indices","componentType":5123,"count":30,"min":[0],"max":[15],"type":"SCALAR","bufferView":2,"byteOffset":3216},{"name":"tattu-Mesh_4_positions","componentType":5126,"count":16,"min":[-0.37619999051094055,1.8793599605560303,-1.464709997177124],"max":[0.37619999051094055,2.052720069885254,-0.7237380146980286],"type":"VEC3","bufferView":0,"byteOffset":4500},{"name":"tattu-Mesh_4_texcoords","componentType":5126,"count":16,"min":[-0.003017999930307269,-0.004619999788701534],"max":[0.9969819784164429,0.9953820109367371],"type":"VEC2","bufferView":1,"byteOffset":3000},{"name":"tattu-Mesh_4_indices","componentType":5123,"count":66,"min":[0],"max":[15],"type":"SCALAR","bufferView":2,"byteOffset":3276},{"name":"tattu-Mesh_5_positions","componentType":5126,"count":13,"min":[-0.0569939985871315,-1.5422799587249756,-0.8153610229492188],"max":[0.05681300163269043,-0.5825909972190857,0.11111599951982498],"type":"VEC3","bufferView":0,"byteOffset":4692},{"name":"tattu-Mesh_5_texcoords","componentType":5126,"count":13,"min":[0.006304000038653612,0.04040300101041794],"max":[0.992035984992981,0.9454669952392578],"type":"VEC2","bufferView":1,"byteOffset":3128},{"name":"tattu-Mesh_5_indices","componentType":5123,"count":63,"min":[0],"max":[12],"type":"SCALAR","bufferView":2,"byteOffset":3408}],"asset":{"generator":"obj2gltf","version":"2.0"},"buffers":[{"name":"BR_Horsea-Shiny01","byteLength":77308,"uri":"data:application/octet-stream;base64,"}],"bufferViews":[{"name":"bufferView_0","buffer":0,"byteLength":4848,"byteOffset":0,"byteStride":12,"target":34962},{"name":"bufferView_1","buffer":0,"byteLength":3232,"byteOffset":4848,"byteStride":8,"target":34962},{"name":"bufferView_2","buffer":0,"byteLength":3536,"byteOffset":8080,"target":34963},{"buffer":0,"byteOffset":11616,"byteLength":8210},{"buffer":0,"byteOffset":19826,"byteLength":82},{"buffer":0,"byteOffset":19908,"byteLength":36882},{"buffer":0,"byteOffset":56790,"byteLength":4114},{"buffer":0,"byteOffset":60904,"byteLength":16402}],"images":[{"name":"tattu_1_0","mimeType":"image/x-tga","bufferView":3},{"name":"tattu_1_1","mimeType":"image/x-tga","bufferView":4},{"name":"tattu_1_3","mimeType":"image/x-tga","bufferView":5},{"name":"tattu_1_4","mimeType":"image/x-tga","bufferView":6},{"name":"tattu_1_5","mimeType":"image/x-tga","bufferView":7}],"materials":[{"name":"mat_0","pbrMetallicRoughness":{"baseColorTexture":{"index":0},"baseColorFactor":[1,1,1,1],"metallicFactor":0,"roughnessFactor":0.903921569},"emissiveFactor":[0,0,0],"alphaMode":"BLEND","doubleSided":true},{"name":"mat_1","pbrMetallicRoughness":{"baseColorTexture":{"index":1},"baseColorFactor":[1,1,1,1],"metallicFactor":0,"roughnessFactor":0.903921569},"emissiveFactor":[0,0,0],"alphaMode":"BLEND","doubleSided":true},{"name":"mat_2","pbrMetallicRoughness":{"baseColorTexture":{"index":1},"baseColorFactor":[1,1,1,1],"metallicFactor":0,"roughnessFactor":0.903921569},"emissiveFactor":[0,0,0],"alphaMode":"BLEND","doubleSided":true},{"name":"mat_3","pbrMetallicRoughness":{"baseColorTexture":{"index":2},"baseColorFactor":[1,1,1,1],"metallicFactor":0,"roughnessFactor":0.903921569},"emissiveFactor":[0,0,0],"alphaMode":"BLEND","doubleSided":true},{"name":"mat_4","pbrMetallicRoughness":{"baseColorTexture":{"index":3},"baseColorFactor":[1,1,1,1],"metallicFactor":0,"roughnessFactor":0.903921569},"emissiveFactor":[0,0,0],"alphaMode":"BLEND","doubleSided":true},{"name":"mat_5","pbrMetallicRoughness":{"baseColorTexture":{"index":4},"baseColorFactor":[1,1,1,1],"metallicFactor":0,"roughnessFactor":0.903921569},"emissiveFactor":[0,0,0],"alphaMode":"BLEND","doubleSided":true}],"meshes":[{"name":"tattu-Mesh","primitives":[{"attributes":{"POSITION":0,"TEXCOORD_0":1},"indices":2,"material":0,"mode":4},{"attributes":{"POSITION":3,"TEXCOORD_0":4},"indices":5,"material":1,"mode":4},{"attributes":{"POSITION":6,"TEXCOORD_0":7},"indices":8,"material":2,"mode":4},{"attributes":{"POSITION":9,"TEXCOORD_0":10},"indices":11,"material":3,"mode":4},{"attributes":{"POSITION":12,"TEXCOORD_0":13},"indices":14,"material":4,"mode":4},{"attributes":{"POSITION":15,"TEXCOORD_0":16},"indices":17,"material":5,"mode":4}]}],"nodes":[{"name":"tattu","mesh":0}],"samplers":[{"wrapS":10497,"wrapT":10497}],"scene":0,"scenes":[{"nodes":[0]}],"textures":[{"name":"tattu_1_0","sampler":0,"source":0},{"name":"tattu_1_1","sampler":0,"source":1},{"name":"tattu_1_3","sampler":0,"source":2},{"name":"tattu_1_4","sampler":0,"source":3},{"name":"tattu_1_5","sampler":0,"source":4}]}