{"accessors":[{"name":"seadra-Mesh_0_positions","componentType":5126,"count":1606,"min":[-6.814931869506836,-3.5637900829315186,-6.753200054168701],"max":[6.814931869506836,5.567714214324951,5.490499973297119],"type":"VEC3","bufferView":0,"byteOffset":0},{"name":"seadra-Mesh_0_texcoords","componentType":5126,"count":1606,"min":[0.04741999879479408,0.013093000277876854],"max":[0.9804760217666626,0.9964100122451782],"type":"VEC2","bufferView":1,"byteOffset":0},{"name":"seadra-Mesh_0_indices","componentType":5123,"count":8250,"min":[0],"max":[1605],"type":"SCALAR","bufferView":2,"byteOffset":0},{"name":"seadra-Mesh_1_positions","componentType":5126,"count":38,"min":[-1.6325260400772095,-0.15276999771595,-4.848688125610352],"max":[1.6325260400772095,2.866436004638672,-2.5586390495300293],"type":"VEC3","bufferView":0,"byteOffset":19272},{"name":"seadra-Mesh_1_texcoords","componentType":5126,"count":38,"min":[0.005096000153571367,0.031550001353025436],"max":[0.9853270053863525,0.15907199680805206],"type":"VEC2","bufferView":1,"byteOffset":12848},{"name":"seadra-Mesh_1_indices","componentType":5123,"count":138,"min":[0],"max":[37],"type":"SCALAR","bufferView":2,"byteOffset":16500}],"asset":{"generator":"obj2gltf","version":"2.0"},"buffers":[{"name":"BR_Seadra-Shiny01","byteLength":1196572,"uri":"data:application/octet-stream;base64,"}],"bufferViews":[{"name":"bufferView_0","buffer":0,"byteLength":19728,"byteOffset":0,"byteStride":12,"target":34962},{"name":"bufferView_1","buffer":0,"byteLength":13152,"byteOffset":19728,"byteStride":8,"target":34962},{"name":"bufferView_2","buffer":0,"byteLength":16776,"byteOffset":32880,"target":34963},{"buffer":0,"byteOffset":49656,"byteLength":1048594},{"buffer":0,"byteOffset":1098250,"byteLength":98322}],"images":[{"name":"seadra_1_0","mimeType":"image/x-tga","bufferView":3},{"name":"seadra_1_1","mimeType":"image/x-tga","bufferView":4}],"materials":[{"name":"mat_0","pbrMetallicRoughness":{"baseColorTexture":{"index":0},"baseColorFactor":[1,1,1,1],"metallicFactor":0,"roughnessFactor":0.903921569},"emissiveFactor":[0,0,0],"alphaMode":"BLEND","doubleSided":true},{"name":"mat_1","pbrMetallicRoughness":{"baseColorTexture":{"index":1},"baseColorFactor":[1,1,1,1],"metallicFactor":0,"roughnessFactor":0.903921569},"emissiveFactor":[0,0,0],"alphaMode":"BLEND","doubleSided":true}],"meshes":[{"name":"seadra-Mesh","primitives":[{"attributes":{"POSITION":0,"TEXCOORD_0":1},"indices":2,"material":0,"mode":4},{"attributes":{"POSITION":3,"TEXCOORD_0":4},"indices":5,"material":1,"mode":4}]}],"nodes":[{"name":"seadra","mesh":0}],"samplers":[{"wrapS":10497,"wrapT":10497}],"scene":0,"scenes":[{"nodes":[0]}],"textures":[{"name":"seadra_1_0","sampler":0,"source":0},{"name":"seadra_1_1","sampler":0,"source":1}]}