{"accessors":[{"name":"hitodeman-Mesh_0_positions","componentType":5126,"count":270,"min":[-4.225959777832031,-0.6736159920692444,-7.749139785766602],"max":[4.22445011138916,1.2056399583816528,0.02477400004863739],"type":"VEC3","bufferView":0,"byteOffset":0},{"name":"hitodeman-Mesh_0_texcoords","componentType":5126,"count":270,"min":[0,0],"max":[1,1],"type":"VEC2","bufferView":1,"byteOffset":0},{"name":"hitodeman-Mesh_0_indices","componentType":5123,"count":570,"min":[0],"max":[269],"type":"SCALAR","bufferView":2,"byteOffset":0}],"asset":{"generator":"obj2gltf","version":"2.0"},"buffers":[{"name":"BR_Staryu-Shiny01","byteLength":6816,"uri":"data:application/octet-stream;base64,"}],"bufferViews":[{"name":"bufferView_0","buffer":0,"byteLength":3240,"byteOffset":0,"byteStride":12,"target":34962},{"name":"bufferView_1","buffer":0,"byteLength":2160,"byteOffset":3240,"byteStride":8,"target":34962},{"name":"bufferView_2","buffer":0,"byteLength":1140,"byteOffset":5400,"target":34963},{"buffer":0,"byteOffset":6540,"byteLength":274}],"images":[{"name":"hitodeman_1_0","mimeType":"image/x-tga","bufferView":3}],"materials":[{"name":"mat_0","pbrMetallicRoughness":{"baseColorTexture":{"index":0},"baseColorFactor":[1,1,1,1],"metallicFactor":0,"roughnessFactor":0.903921569},"emissiveFactor":[0,0,0],"alphaMode":"BLEND","doubleSided":true}],"meshes":[{"name":"hitodeman-Mesh","primitives":[{"attributes":{"POSITION":0,"TEXCOORD_0":1},"indices":2,"material":0,"mode":4}]}],"nodes":[{"name":"hitodeman","mesh":0}],"samplers":[{"wrapS":10497,"wrapT":10497}],"scene":0,"scenes":[{"nodes":[0]}],"textures":[{"name":"hitodeman_1_0","sampler":0,"source":0}]}