{"accessors":[{"name":"starmie-Mesh_0_positions","componentType":5126,"count":263,"min":[-5.844180107116699,-0.9476959705352783,-10.880200386047363],"max":[5.914450168609619,1.6623799800872803,0.002386000007390976],"type":"VEC3","bufferView":0,"byteOffset":0},{"name":"starmie-Mesh_0_texcoords","componentType":5126,"count":263,"min":[0.43733400106430054,0.5157920122146606],"max":[0.44221699237823486,0.5167689919471741],"type":"VEC2","bufferView":1,"byteOffset":0},{"name":"starmie-Mesh_0_indices","componentType":5123,"count":570,"min":[0],"max":[262],"type":"SCALAR","bufferView":2,"byteOffset":0}],"asset":{"generator":"obj2gltf","version":"2.0"},"buffers":[{"name":"BR_Starmie-Shiny01","byteLength":6676,"uri":"data:application/octet-stream;base64,"}],"bufferViews":[{"name":"bufferView_0","buffer":0,"byteLength":3156,"byteOffset":0,"byteStride":12,"target":34962},{"name":"bufferView_1","buffer":0,"byteLength":2104,"byteOffset":3156,"byteStride":8,"target":34962},{"name":"bufferView_2","buffer":0,"byteLength":1140,"byteOffset":5260,"target":34963},{"buffer":0,"byteOffset":6400,"byteLength":274}],"images":[{"name":"starmie_1_0","mimeType":"image/x-tga","bufferView":3}],"materials":[{"name":"mat_0","pbrMetallicRoughness":{"baseColorTexture":{"index":0},"baseColorFactor":[1,1,1,1],"metallicFactor":0,"roughnessFactor":0.903921569},"emissiveFactor":[0,0,0],"alphaMode":"BLEND","doubleSided":true}],"meshes":[{"name":"starmie-Mesh","primitives":[{"attributes":{"POSITION":0,"TEXCOORD_0":1},"indices":2,"material":0,"mode":4}]}],"nodes":[{"name":"starmie","mesh":0}],"samplers":[{"wrapS":10497,"wrapT":10497}],"scene":0,"scenes":[{"nodes":[0]}],"textures":[{"name":"starmie_1_0","sampler":0,"source":0}]}