{"accessors":[{"name":"polygon0_1_0_positions","componentType":5126,"count":1015,"min":[-11.477325439453125,-0.04252300038933754,-1.9003020524978638],"max":[11.477326393127441,13.064416885375977,2.4923601150512695],"type":"VEC3","bufferView":0,"byteOffset":0},{"name":"polygon0_1_0_normals","componentType":5126,"count":1015,"min":[-1,-1,-0.9997209906578064],"max":[1,1,0.9999114871025085],"type":"VEC3","bufferView":1,"byteOffset":0},{"name":"polygon0_1_0_texcoords","componentType":5126,"count":1015,"min":[0.009460000321269035,0.007782000117003918],"max":[0.9952390193939209,0.9865109920501709],"type":"VEC2","bufferView":2,"byteOffset":0},{"name":"polygon0_1_0_indices","componentType":5123,"count":4512,"min":[0],"max":[1014],"type":"SCALAR","bufferView":3,"byteOffset":0},{"name":"polygon1_1_0_positions","componentType":5126,"count":15,"min":[-1.092182993888855,9.598188400268555,1.5834009647369385],"max":[1.092182993888855,10.905896186828613,2.2383151054382324],"type":"VEC3","bufferView":0,"byteOffset":12180},{"name":"polygon1_1_0_normals","componentType":5126,"count":15,"min":[-0.5135358572006226,0.30054402351379395,0.6684998273849487],"max":[0.5135358572006226,0.5982112884521484,0.9479728937149048],"type":"VEC3","bufferView":1,"byteOffset":12180},{"name":"polygon1_1_0_texcoords","componentType":5126,"count":15,"min":[-0.9428099989891052,0.013427999801933765],"max":[-0.5373539924621582,0.23669399321079254],"type":"VEC2","bufferView":2,"byteOffset":8120},{"name":"polygon1_1_0_indices","componentType":5123,"count":48,"min":[0],"max":[14],"type":"SCALAR","bufferView":3,"byteOffset":9024},{"name":"polygon2_1_0_positions","componentType":5126,"count":40,"min":[-2.048003911972046,8.416045188903809,1.037147045135498],"max":[2.0480029582977295,10.201062202453613,2.455559015274048],"type":"VEC3","bufferView":0,"byteOffset":12360},{"name":"polygon2_1_0_normals","componentType":5126,"count":40,"min":[-0.9706776142120361,-0.7352994084358215,0.15881407260894775],"max":[0.9706776142120361,0.45405587553977966,0.9757122993469238],"type":"VEC3","bufferView":1,"byteOffset":12360},{"name":"polygon2_1_0_texcoords","componentType":5126,"count":40,"min":[-1.9603270292282104,0.04040500149130821],"max":[-1.0328370332717896,0.21106000244617462],"type":"VEC2","bufferView":2,"byteOffset":8240},{"name":"polygon2_1_0_indices","componentType":5123,"count":162,"min":[0],"max":[39],"type":"SCALAR","bufferView":3,"byteOffset":9120}],"asset":{"generator":"obj2gltf","version":"2.0"},"buffers":[{"name":"Mr. Mime","byteLength":387804,"uri":"data:application/octet-stream;base64,"}],"bufferViews":[{"name":"bufferView_0","buffer":0,"byteLength":12840,"byteOffset":0,"byteStride":12,"target":34962},{"name":"bufferView_1","buffer":0,"byteLength":12840,"byteOffset":12840,"byteStride":12,"target":34962},{"name":"bufferView_2","buffer":0,"byteLength":8560,"byteOffset":25680,"byteStride":8,"target":34962},{"name":"bufferView_3","buffer":0,"byteLength":9444,"byteOffset":34240,"target":34963},{"buffer":0,"byteOffset":43684,"byteLength":196626},{"buffer":0,"byteOffset":240310,"byteLength":98322},{"buffer":0,"byteOffset":338632,"byteLength":49170}],"images":[{"name":"BarrierdDh","mimeType":"image/x-tga","bufferView":4},{"name":"BarrierdEyeDh","mimeType":"image/x-tga","bufferView":5},{"name":"BarrierdMouthDh","mimeType":"image/x-tga","bufferView":6}],"materials":[{"name":"mat1","pbrMetallicRoughness":{"baseColorTexture":{"index":0},"baseColorFactor":[1,1,1,1],"metallicFactor":0,"roughnessFactor":0.99},"emissiveFactor":[0,0,0],"alphaMode":"OPAQUE","doubleSided":false},{"name":"mat2","pbrMetallicRoughness":{"baseColorTexture":{"index":1},"baseColorFactor":[1,1,1,1],"metallicFactor":0,"roughnessFactor":0.99},"emissiveFactor":[0,0,0],"alphaMode":"OPAQUE","doubleSided":false},{"name":"mat3","pbrMetallicRoughness":{"baseColorTexture":{"index":2},"baseColorFactor":[1,1,1,1],"metallicFactor":0,"roughnessFactor":0.99},"emissiveFactor":[0,0,0],"alphaMode":"OPAQUE","doubleSided":false}],"meshes":[{"name":"polygon0_1","primitives":[{"attributes":{"POSITION":0,"NORMAL":1,"TEXCOORD_0":2},"indices":3,"material":0,"mode":4}]},{"name":"polygon1_1","primitives":[{"attributes":{"POSITION":4,"NORMAL":5,"TEXCOORD_0":6},"indices":7,"material":1,"mode":4}]},{"name":"polygon2_1","primitives":[{"attributes":{"POSITION":8,"NORMAL":9,"TEXCOORD_0":10},"indices":11,"material":2,"mode":4}]}],"nodes":[{"name":"polygon0","mesh":0},{"name":"polygon1","mesh":1},{"name":"polygon2","mesh":2}],"samplers":[{"wrapS":10497,"wrapT":10497}],"scene":0,"scenes":[{"nodes":[0,1,2]}],"textures":[{"name":"BarrierdDh","sampler":0,"source":0},{"name":"BarrierdEyeDh","sampler":0,"source":1},{"name":"BarrierdMouthDh","sampler":0,"source":2}]}