{"accessors":[{"name":"polygon0_1_0_positions","componentType":5126,"count":20,"min":[-1.1565370559692383,12.341412544250488,2.4892330169677734],"max":[1.1565380096435547,13.87013053894043,3.598942995071411],"type":"VEC3","bufferView":0,"byteOffset":0},{"name":"polygon0_1_0_normals","componentType":5126,"count":20,"min":[-0.9000236392021179,-0.2673400640487671,0.4189448058605194],"max":[0.9000236392021179,0.6027982234954834,0.9502137303352356],"type":"VEC3","bufferView":1,"byteOffset":0},{"name":"polygon0_1_0_texcoords","componentType":5126,"count":20,"min":[-0.9859009981155396,0.021973000839352608],"max":[-0.5171509981155396,0.23425300419330597],"type":"VEC2","bufferView":2,"byteOffset":0},{"name":"polygon0_1_0_indices","componentType":5123,"count":60,"min":[0],"max":[19],"type":"SCALAR","bufferView":3,"byteOffset":0},{"name":"polygon1_1_0_positions","componentType":5126,"count":1008,"min":[-16.108959197998047,-9.999999974752427e-7,-13.767419815063477],"max":[16.108959197998047,16.385967254638672,4.198689937591553],"type":"VEC3","bufferView":0,"byteOffset":240},{"name":"polygon1_1_0_normals","componentType":5126,"count":1008,"min":[-1,-1,-0.9997551441192627],"max":[1,0.9998444318771362,0.9998422265052795],"type":"VEC3","bufferView":1,"byteOffset":240},{"name":"polygon1_1_0_texcoords","componentType":5126,"count":1008,"min":[0.01043699961155653,0.010955999605357647],"max":[0.9946290254592896,0.9911800026893616],"type":"VEC2","bufferView":2,"byteOffset":160},{"name":"polygon1_1_0_indices","componentType":5123,"count":4278,"min":[0],"max":[1007],"type":"SCALAR","bufferView":3,"byteOffset":120},{"name":"polygon2_1_0_positions","componentType":5126,"count":20,"min":[0.6315199732780457,9.37105941772461,-13.767417907714844],"max":[1.1398249864578247,11.688925743103027,-0.5097209811210632],"type":"VEC3","bufferView":0,"byteOffset":12336},{"name":"polygon2_1_0_normals","componentType":5126,"count":20,"min":[-0.9951276779174805,-0.11797894537448883,-0.030334990471601486],"max":[0.9951276779174805,-0.09381196647882462,0.030760984867811203],"type":"VEC3","bufferView":1,"byteOffset":12336},{"name":"polygon2_1_0_texcoords","componentType":5126,"count":20,"min":[0.5415650010108948,0.01196299958974123],"max":[0.9765629768371582,0.11367800086736679],"type":"VEC2","bufferView":2,"byteOffset":8224},{"name":"polygon2_1_0_indices","componentType":5123,"count":48,"min":[0],"max":[19],"type":"SCALAR","bufferView":3,"byteOffset":8676},{"name":"polygon3_1_0_positions","componentType":5126,"count":24,"min":[1.1488269567489624,9.339709281921387,-9.621017456054688],"max":[1.4030040502548218,12.019779205322266,-0.49901899695396423],"type":"VEC3","bufferView":0,"byteOffset":12576},{"name":"polygon3_1_0_normals","componentType":5126,"count":24,"min":[-1,-0.21374008059501648,-0.11974804848432541],"max":[0.9962697625160217,0.3508269488811493,0.10626102983951569],"type":"VEC3","bufferView":1,"byteOffset":12576},{"name":"polygon3_1_0_texcoords","componentType":5126,"count":24,"min":[0.5415650010108948,0.026854999363422394],"max":[0.9765629768371582,0.11367800086736679],"type":"VEC2","bufferView":2,"byteOffset":8384},{"name":"polygon3_1_0_indices","componentType":5123,"count":72,"min":[0],"max":[23],"type":"SCALAR","bufferView":3,"byteOffset":8772},{"name":"polygon4_1_0_positions","componentType":5126,"count":20,"min":[-1.1397089958190918,9.371058464050293,-13.767419815063477],"max":[-0.6314039826393127,11.688924789428711,-0.5097209811210632],"type":"VEC3","bufferView":0,"byteOffset":12864},{"name":"polygon4_1_0_normals","componentType":5126,"count":20,"min":[-0.9951276779174805,-0.11797894537448883,-0.030334990471601486],"max":[0.9951276779174805,-0.09381196647882462,0.030760984867811203],"type":"VEC3","bufferView":1,"byteOffset":12864},{"name":"polygon4_1_0_texcoords","componentType":5126,"count":20,"min":[0.5415650010108948,0.01196299958974123],"max":[0.9765629768371582,0.11367800086736679],"type":"VEC2","bufferView":2,"byteOffset":8576},{"name":"polygon4_1_0_indices","componentType":5123,"count":48,"min":[0],"max":[19],"type":"SCALAR","bufferView":3,"byteOffset":8916},{"name":"polygon5_1_0_positions","componentType":5126,"count":24,"min":[-1.4030029773712158,9.339664459228516,-9.621017456054688],"max":[-1.148826003074646,12.019733428955078,-0.49901899695396423],"type":"VEC3","bufferView":0,"byteOffset":13104},{"name":"polygon5_1_0_normals","componentType":5126,"count":24,"min":[-0.9962698221206665,-0.21374103426933289,-0.11974801868200302],"max":[1,0.3508269488811493,0.10626102983951569],"type":"VEC3","bufferView":1,"byteOffset":13104},{"name":"polygon5_1_0_texcoords","componentType":5126,"count":24,"min":[0.5415650010108948,0.026854999363422394],"max":[0.9765629768371582,0.11367800086736679],"type":"VEC2","bufferView":2,"byteOffset":8736},{"name":"polygon5_1_0_indices","componentType":5123,"count":72,"min":[0],"max":[23],"type":"SCALAR","bufferView":3,"byteOffset":9012}],"asset":{"generator":"obj2gltf","version":"2.0"},"buffers":[{"name":"Scyther","byteLength":339816,"uri":"data:application/octet-stream;base64,"}],"bufferViews":[{"name":"bufferView_0","buffer":0,"byteLength":13392,"byteOffset":0,"byteStride":12,"target":34962},{"name":"bufferView_1","buffer":0,"byteLength":13392,"byteOffset":13392,"byteStride":12,"target":34962},{"name":"bufferView_2","buffer":0,"byteLength":8928,"byteOffset":26784,"byteStride":8,"target":34962},{"name":"bufferView_3","buffer":0,"byteLength":9156,"byteOffset":35712,"target":34963},{"buffer":0,"byteOffset":44868,"byteLength":98322},{"buffer":0,"byteOffset":143190,"byteLength":196626}],"images":[{"name":"StrikeEyeDh","mimeType":"image/x-tga","bufferView":4},{"name":"StrikeDh","mimeType":"image/x-tga","bufferView":5}],"materials":[{"name":"mat3","pbrMetallicRoughness":{"baseColorTexture":{"index":0},"baseColorFactor":[1,1,1,1],"metallicFactor":0,"roughnessFactor":0.99},"emissiveFactor":[0,0,0],"alphaMode":"OPAQUE","doubleSided":false},{"name":"mat1","pbrMetallicRoughness":{"baseColorTexture":{"index":1},"baseColorFactor":[1,1,1,1],"metallicFactor":0,"roughnessFactor":0.99},"emissiveFactor":[0,0,0],"alphaMode":"OPAQUE","doubleSided":false},{"name":"mat2","pbrMetallicRoughness":{"baseColorTexture":{"index":1},"baseColorFactor":[1,1,1,1],"metallicFactor":0,"roughnessFactor":0.99},"emissiveFactor":[0,0,0],"alphaMode":"OPAQUE","doubleSided":false}],"meshes":[{"name":"polygon0_1","primitives":[{"attributes":{"POSITION":0,"NORMAL":1,"TEXCOORD_0":2},"indices":3,"material":0,"mode":4}]},{"name":"polygon1_1","primitives":[{"attributes":{"POSITION":4,"NORMAL":5,"TEXCOORD_0":6},"indices":7,"material":1,"mode":4}]},{"name":"polygon2_1","primitives":[{"attributes":{"POSITION":8,"NORMAL":9,"TEXCOORD_0":10},"indices":11,"material":2,"mode":4}]},{"name":"polygon3_1","primitives":[{"attributes":{"POSITION":12,"NORMAL":13,"TEXCOORD_0":14},"indices":15,"material":2,"mode":4}]},{"name":"polygon4_1","primitives":[{"attributes":{"POSITION":16,"NORMAL":17,"TEXCOORD_0":18},"indices":19,"material":2,"mode":4}]},{"name":"polygon5_1","primitives":[{"attributes":{"POSITION":20,"NORMAL":21,"TEXCOORD_0":22},"indices":23,"material":2,"mode":4}]}],"nodes":[{"name":"polygon0","mesh":0},{"name":"polygon1","mesh":1},{"name":"polygon2","mesh":2},{"name":"polygon3","mesh":3},{"name":"polygon4","mesh":4},{"name":"polygon5","mesh":5}],"samplers":[{"wrapS":10497,"wrapT":10497}],"scene":0,"scenes":[{"nodes":[0,1,2,3,4,5]}],"textures":[{"name":"StrikeEyeDh","sampler":0,"source":0},{"name":"StrikeDh","sampler":0,"source":1}]}