{"accessors":[{"name":"rougela-Mesh_0_positions","componentType":5126,"count":78,"min":[-1.7843060493469238,-1.2939029932022095,-6.064247131347656],"max":[1.4225330352783203,3.8201510906219482,-3.6377899646759033],"type":"VEC3","bufferView":0,"byteOffset":0},{"name":"rougela-Mesh_0_texcoords","componentType":5126,"count":78,"min":[0.3793469965457916,0.3830620050430298],"max":[0.6457089781761169,0.5457710027694702],"type":"VEC2","bufferView":1,"byteOffset":0},{"name":"rougela-Mesh_0_indices","componentType":5123,"count":432,"min":[0],"max":[77],"type":"SCALAR","bufferView":2,"byteOffset":0}],"asset":{"generator":"obj2gltf","version":"2.0"},"buffers":[{"name":"BR_Jynx-Shiny01","byteLength":264588,"uri":"data:application/octet-stream;base64,"}],"bufferViews":[{"name":"bufferView_0","buffer":0,"byteLength":936,"byteOffset":0,"byteStride":12,"target":34962},{"name":"bufferView_1","buffer":0,"byteLength":624,"byteOffset":936,"byteStride":8,"target":34962},{"name":"bufferView_2","buffer":0,"byteLength":864,"byteOffset":1560,"target":34963},{"buffer":0,"byteOffset":2424,"byteLength":262162}],"images":[{"name":"rougela_1_0","mimeType":"image/x-tga","bufferView":3}],"materials":[{"name":"mat_0","pbrMetallicRoughness":{"baseColorTexture":{"index":0},"baseColorFactor":[1,1,1,1],"metallicFactor":0,"roughnessFactor":0.903921569},"emissiveFactor":[0,0,0],"alphaMode":"BLEND","doubleSided":true}],"meshes":[{"name":"rougela-Mesh","primitives":[{"attributes":{"POSITION":0,"TEXCOORD_0":1},"indices":2,"material":0,"mode":4}]}],"nodes":[{"name":"rougela","mesh":0}],"samplers":[{"wrapS":10497,"wrapT":10497}],"scene":0,"scenes":[{"nodes":[0]}],"textures":[{"name":"rougela_1_0","sampler":0,"source":0}]}