{"accessors":[{"name":"polygon0_1_0_positions","componentType":5126,"count":10,"min":[-1.2267420291900635,8.22352123260498,2.7541770935058594],"max":[1.2267409563064575,9.011449813842773,3.349730968475342],"type":"VEC3","bufferView":0,"byteOffset":0},{"name":"polygon0_1_0_normals","componentType":5126,"count":10,"min":[-0.6781739592552185,0.12432993948459625,0.6967909932136536],"max":[0.6781739592552185,0.3156730532646179,0.9021075963973999],"type":"VEC3","bufferView":1,"byteOffset":0},{"name":"polygon0_1_0_texcoords","componentType":5126,"count":10,"min":[1.027343988418579,0.05078100040555],"max":[1.4765629768371582,0.234375],"type":"VEC2","bufferView":2,"byteOffset":0},{"name":"polygon0_1_0_indices","componentType":5123,"count":18,"min":[0],"max":[9],"type":"SCALAR","bufferView":3,"byteOffset":0},{"name":"polygon1_1_0_positions","componentType":5126,"count":1048,"min":[-10.101794242858887,-0.10880199819803238,-9.169733047485352],"max":[10.101797103881836,12.699331283569336,3.6441290378570557],"type":"VEC3","bufferView":0,"byteOffset":120},{"name":"polygon1_1_0_normals","componentType":5126,"count":1048,"min":[-0.9998920559883118,-0.9997380375862122,-0.9999594688415527],"max":[0.9998921155929565,0.999983549118042,0.9999793171882629],"type":"VEC3","bufferView":1,"byteOffset":120},{"name":"polygon1_1_0_texcoords","componentType":5126,"count":1048,"min":[0.01046799961477518,0.007294000126421452],"max":[0.9937440156936646,0.9958189725875854],"type":"VEC2","bufferView":2,"byteOffset":80},{"name":"polygon1_1_0_indices","componentType":5123,"count":4446,"min":[0],"max":[1047],"type":"SCALAR","bufferView":3,"byteOffset":36}],"asset":{"generator":"obj2gltf","version":"2.0"},"buffers":[{"name":"Electabuzz","byteLength":337732,"uri":"data:application/octet-stream;base64,"}],"bufferViews":[{"name":"bufferView_0","buffer":0,"byteLength":12696,"byteOffset":0,"byteStride":12,"target":34962},{"name":"bufferView_1","buffer":0,"byteLength":12696,"byteOffset":12696,"byteStride":12,"target":34962},{"name":"bufferView_2","buffer":0,"byteLength":8464,"byteOffset":25392,"byteStride":8,"target":34962},{"name":"bufferView_3","buffer":0,"byteLength":8928,"byteOffset":33856,"target":34963},{"buffer":0,"byteOffset":42784,"byteLength":98322},{"buffer":0,"byteOffset":141106,"byteLength":196626}],"images":[{"name":"ElebooEyeDh","mimeType":"image/x-tga","bufferView":4},{"name":"ElebooDh","mimeType":"image/x-tga","bufferView":5}],"materials":[{"name":"mat2","pbrMetallicRoughness":{"baseColorTexture":{"index":0},"baseColorFactor":[1,1,1,1],"metallicFactor":0,"roughnessFactor":0.99},"emissiveFactor":[0,0,0],"alphaMode":"OPAQUE","doubleSided":false},{"name":"mat1","pbrMetallicRoughness":{"baseColorTexture":{"index":1},"baseColorFactor":[1,1,1,1],"metallicFactor":0,"roughnessFactor":0.99},"emissiveFactor":[0,0,0],"alphaMode":"OPAQUE","doubleSided":false}],"meshes":[{"name":"polygon0_1","primitives":[{"attributes":{"POSITION":0,"NORMAL":1,"TEXCOORD_0":2},"indices":3,"material":0,"mode":4}]},{"name":"polygon1_1","primitives":[{"attributes":{"POSITION":4,"NORMAL":5,"TEXCOORD_0":6},"indices":7,"material":1,"mode":4}]}],"nodes":[{"name":"polygon0","mesh":0},{"name":"polygon1","mesh":1}],"samplers":[{"wrapS":10497,"wrapT":10497}],"scene":0,"scenes":[{"nodes":[0,1]}],"textures":[{"name":"ElebooEyeDh","sampler":0,"source":0},{"name":"ElebooDh","sampler":0,"source":1}]}