{"accessors":[{"name":"boober-Mesh_0_positions","componentType":5126,"count":299,"min":[-4.297579765319824,-5.650569915771484,-12.573800086975098],"max":[4.688529968261719,4.567699909210205,0.03080499917268753],"type":"VEC3","bufferView":0,"byteOffset":0},{"name":"boober-Mesh_0_texcoords","componentType":5126,"count":299,"min":[0.07459300011396408,0.0024210000410676003],"max":[0.9517040252685547,0.9900130033493042],"type":"VEC2","bufferView":1,"byteOffset":0},{"name":"boober-Mesh_0_indices","componentType":5123,"count":996,"min":[0],"max":[298],"type":"SCALAR","bufferView":2,"byteOffset":0},{"name":"boober-Mesh_1_positions","componentType":5126,"count":11,"min":[-1.6774300336837769,2.069230079650879,-10.058199882507324],"max":[1.7398300170898438,2.9543399810791016,-9.294349670410156],"type":"VEC3","bufferView":0,"byteOffset":3588},{"name":"boober-Mesh_1_texcoords","componentType":5126,"count":11,"min":[-0.12127500027418137,-0.0006200000061653554],"max":[1.0027199983596802,0.16319100558757782],"type":"VEC2","bufferView":1,"byteOffset":2392},{"name":"boober-Mesh_1_indices","componentType":5123,"count":24,"min":[0],"max":[10],"type":"SCALAR","bufferView":2,"byteOffset":1992},{"name":"boober-Mesh_2_positions","componentType":5126,"count":122,"min":[-2.5632200241088867,-10.473799705505371,-15.522173881530762],"max":[2.6549599170684814,2.8241899013519287,-1.5778599977493286],"type":"VEC3","bufferView":0,"byteOffset":3720},{"name":"boober-Mesh_2_texcoords","componentType":5126,"count":122,"min":[0.0010000000474974513,-0.40542998909950256],"max":[1.0007799863815308,1.4965100288391113],"type":"VEC2","bufferView":1,"byteOffset":2480},{"name":"boober-Mesh_2_indices","componentType":5123,"count":327,"min":[0],"max":[121],"type":"SCALAR","bufferView":2,"byteOffset":2040},{"name":"boober-Mesh_3_positions","componentType":5126,"count":18,"min":[-1.3781499862670898,2.125570058822632,-9.202619552612305],"max":[1.4200600385665894,2.93572998046875,-8.038740158081055],"type":"VEC3","bufferView":0,"byteOffset":5184},{"name":"boober-Mesh_3_texcoords","componentType":5126,"count":18,"min":[-2.6334400177001953,-0.07971999794244766],"max":[1.794409990310669,0.8760520219802856],"type":"VEC2","bufferView":1,"byteOffset":3456},{"name":"boober-Mesh_3_indices","componentType":5123,"count":27,"min":[0],"max":[17],"type":"SCALAR","bufferView":2,"byteOffset":2696},{"name":"boober-Mesh_4_positions","componentType":5126,"count":41,"min":[-1.3781499862670898,2.2952001094818115,-9.913629531860352],"max":[1.4200600385665894,4.407959938049316,-7.760819911956787],"type":"VEC3","bufferView":0,"byteOffset":5400},{"name":"boober-Mesh_4_texcoords","componentType":5126,"count":41,"min":[-0.9582539796829224,-0.8536800146102905],"max":[0.9809209704399109,2.4425599575042725],"type":"VEC2","bufferView":1,"byteOffset":3600},{"name":"boober-Mesh_4_indices","componentType":5123,"count":120,"min":[0],"max":[40],"type":"SCALAR","bufferView":2,"byteOffset":2752},{"name":"boober-Mesh_5_positions","componentType":5126,"count":41,"min":[-0.7851399779319763,3.3057000637054443,-9.050629615783691],"max":[0.8145040273666382,4.407959938049316,-7.760819911956787],"type":"VEC3","bufferView":0,"byteOffset":5892},{"name":"boober-Mesh_5_texcoords","componentType":5126,"count":41,"min":[0.1268399953842163,0.047593001276254654],"max":[0.9334970116615295,0.9756760001182556],"type":"VEC2","bufferView":1,"byteOffset":3928},{"name":"boober-Mesh_5_indices","componentType":5123,"count":45,"min":[0],"max":[40],"type":"SCALAR","bufferView":2,"byteOffset":2992},{"name":"boober-Mesh_6_positions","componentType":5126,"count":69,"min":[-2.2963500022888184,-5.755549907684326,-7.373260021209717],"max":[2.3424899578094482,2.1749300956726074,-1.0695600509643555],"type":"VEC3","bufferView":0,"byteOffset":6384},{"name":"boober-Mesh_6_texcoords","componentType":5126,"count":69,"min":[0,9.999999974752427e-7],"max":[0.9999989867210388,1],"type":"VEC2","bufferView":1,"byteOffset":4256},{"name":"boober-Mesh_6_indices","componentType":5123,"count":348,"min":[0],"max":[68],"type":"SCALAR","bufferView":2,"byteOffset":3084},{"name":"boober-Mesh_7_positions","componentType":5126,"count":96,"min":[-2.987910032272339,-2.0500600337982178,-9.52787971496582],"max":[3.055769920349121,1.8074300289154053,-0.6995580196380615],"type":"VEC3","bufferView":0,"byteOffset":7212},{"name":"boober-Mesh_7_texcoords","componentType":5126,"count":96,"min":[0,0],"max":[0,1],"type":"VEC2","bufferView":1,"byteOffset":4808},{"name":"boober-Mesh_7_indices","componentType":5123,"count":204,"min":[0],"max":[95],"type":"SCALAR","bufferView":2,"byteOffset":3780},{"name":"boober-Mesh_8_positions","componentType":5126,"count":86,"min":[-4.063300132751465,-0.31707099080085754,-7.577489852905273],"max":[4.876530170440674,5.337250232696533,0.03080499917268753],"type":"VEC3","bufferView":0,"byteOffset":8364},{"name":"boober-Mesh_8_texcoords","componentType":5126,"count":86,"min":[0.0049669998697936535,0.0211350005120039],"max":[0.9175710082054138,0.9798920154571533],"type":"VEC2","bufferView":1,"byteOffset":5576},{"name":"boober-Mesh_8_indices","componentType":5123,"count":240,"min":[0],"max":[85],"type":"SCALAR","bufferView":2,"byteOffset":4188},{"name":"boober-Mesh_9_positions","componentType":5126,"count":130,"min":[-3.781359910964966,-3.3338699340820312,-8.75314998626709],"max":[3.783639907836914,1.304610013961792,-1.6244100332260132],"type":"VEC3","bufferView":0,"byteOffset":9396},{"name":"boober-Mesh_9_texcoords","componentType":5126,"count":130,"min":[0.125,0.1569720059633255],"max":[0.875,0.9866340160369873],"type":"VEC2","bufferView":1,"byteOffset":6264},{"name":"boober-Mesh_9_indices","componentType":5123,"count":708,"min":[0],"max":[129],"type":"SCALAR","bufferView":2,"byteOffset":4668},{"name":"boober-Mesh_10_positions","componentType":5126,"count":64,"min":[-4.297579765319824,0.057635001838207245,-8.239020347595215],"max":[4.688529968261719,3.339099884033203,-6.180530071258545],"type":"VEC3","bufferView":0,"byteOffset":10956},{"name":"boober-Mesh_10_texcoords","componentType":5126,"count":64,"min":[0.0049390001222491264,0.027900999411940575],"max":[0.9895660281181335,0.9732599854469299],"type":"VEC2","bufferView":1,"byteOffset":7304},{"name":"boober-Mesh_10_indices","componentType":5123,"count":144,"min":[0],"max":[63],"type":"SCALAR","bufferView":2,"byteOffset":6084}],"asset":{"generator":"obj2gltf","version":"2.0"},"buffers":[{"name":"BR_Magmar-Shiny01","byteLength":141824,"uri":"data:application/octet-stream;base64,"}],"bufferViews":[{"name":"bufferView_0","buffer":0,"byteLength":11724,"byteOffset":0,"byteStride":12,"target":34962},{"name":"bufferView_1","buffer":0,"byteLength":7816,"byteOffset":11724,"byteStride":8,"target":34962},{"name":"bufferView_2","buffer":0,"byteLength":6372,"byteOffset":19540,"target":34963},{"buffer":0,"byteOffset":25912,"byteLength":530},{"buffer":0,"byteOffset":26442,"byteLength":49170},{"buffer":0,"byteOffset":75612,"byteLength":8210},{"buffer":0,"byteOffset":83822,"byteLength":2066},{"buffer":0,"byteOffset":85888,"byteLength":1042},{"buffer":0,"byteOffset":86930,"byteLength":530},{"buffer":0,"byteOffset":87460,"byteLength":32786},{"buffer":0,"byteOffset":120246,"byteLength":4114},{"buffer":0,"byteOffset":124360,"byteLength":530},{"buffer":0,"byteOffset":124890,"byteLength":530},{"buffer":0,"byteOffset":125420,"byteLength":16402}],"images":[{"name":"boober_1_0","mimeType":"image/x-tga","bufferView":3},{"name":"boober_1_1","mimeType":"image/x-tga","bufferView":4},{"name":"boober_1_2","mimeType":"image/x-tga","bufferView":5},{"name":"boober_1_3","mimeType":"image/x-tga","bufferView":6},{"name":"boober_1_4","mimeType":"image/x-tga","bufferView":7},{"name":"boober_1_5","mimeType":"image/x-tga","bufferView":8},{"name":"boober_1_6","mimeType":"image/x-tga","bufferView":9},{"name":"boober_1_7","mimeType":"image/x-tga","bufferView":10},{"name":"boober_1_8","mimeType":"image/x-tga","bufferView":11},{"name":"boober_1_9","mimeType":"image/x-tga","bufferView":12},{"name":"boober_1_10","mimeType":"image/x-tga","bufferView":13}],"materials":[{"name":"mat_0","pbrMetallicRoughness":{"baseColorTexture":{"index":0},"baseColorFactor":[1,1,1,1],"metallicFactor":0,"roughnessFactor":0.903921569},"emissiveFactor":[0,0,0],"alphaMode":"BLEND","doubleSided":true},{"name":"mat_1","pbrMetallicRoughness":{"baseColorTexture":{"index":1},"baseColorFactor":[1,1,1,1],"metallicFactor":0,"roughnessFactor":0.903921569},"emissiveFactor":[0,0,0],"alphaMode":"BLEND","doubleSided":true},{"name":"mat_2","pbrMetallicRoughness":{"baseColorTexture":{"index":2},"baseColorFactor":[1,1,1,1],"metallicFactor":0,"roughnessFactor":0.903921569},"emissiveFactor":[0,0,0],"alphaMode":"BLEND","doubleSided":true},{"name":"mat_3","pbrMetallicRoughness":{"baseColorTexture":{"index":3},"baseColorFactor":[1,1,1,1],"metallicFactor":0,"roughnessFactor":0.903921569},"emissiveFactor":[0,0,0],"alphaMode":"BLEND","doubleSided":true},{"name":"mat_4","pbrMetallicRoughness":{"baseColorTexture":{"index":4},"baseColorFactor":[1,1,1,1],"metallicFactor":0,"roughnessFactor":0.903921569},"emissiveFactor":[0,0,0],"alphaMode":"BLEND","doubleSided":true},{"name":"mat_5","pbrMetallicRoughness":{"baseColorTexture":{"index":5},"baseColorFactor":[1,1,1,1],"metallicFactor":0,"roughnessFactor":0.903921569},"emissiveFactor":[0,0,0],"alphaMode":"BLEND","doubleSided":true},{"name":"mat_6","pbrMetallicRoughness":{"baseColorTexture":{"index":6},"baseColorFactor":[1,1,1,1],"metallicFactor":0,"roughnessFactor":0.903921569},"emissiveFactor":[0,0,0],"alphaMode":"BLEND","doubleSided":true},{"name":"mat_7","pbrMetallicRoughness":{"baseColorTexture":{"index":7},"baseColorFactor":[1,1,1,1],"metallicFactor":0,"roughnessFactor":0.903921569},"emissiveFactor":[0,0,0],"alphaMode":"BLEND","doubleSided":true},{"name":"mat_8","pbrMetallicRoughness":{"baseColorTexture":{"index":8},"baseColorFactor":[1,1,1,1],"metallicFactor":0,"roughnessFactor":0.903921569},"emissiveFactor":[0,0,0],"alphaMode":"BLEND","doubleSided":true},{"name":"mat_9","pbrMetallicRoughness":{"baseColorTexture":{"index":9},"baseColorFactor":[1,1,1,1],"metallicFactor":0,"roughnessFactor":0.903921569},"emissiveFactor":[0,0,0],"alphaMode":"BLEND","doubleSided":true},{"name":"mat_10","pbrMetallicRoughness":{"baseColorTexture":{"index":10},"baseColorFactor":[1,1,1,1],"metallicFactor":0,"roughnessFactor":0.903921569},"emissiveFactor":[0,0,0],"alphaMode":"BLEND","doubleSided":true}],"meshes":[{"name":"boober-Mesh","primitives":[{"attributes":{"POSITION":0,"TEXCOORD_0":1},"indices":2,"material":0,"mode":4},{"attributes":{"POSITION":3,"TEXCOORD_0":4},"indices":5,"material":1,"mode":4},{"attributes":{"POSITION":6,"TEXCOORD_0":7},"indices":8,"material":2,"mode":4},{"attributes":{"POSITION":9,"TEXCOORD_0":10},"indices":11,"material":3,"mode":4},{"attributes":{"POSITION":12,"TEXCOORD_0":13},"indices":14,"material":4,"mode":4},{"attributes":{"POSITION":15,"TEXCOORD_0":16},"indices":17,"material":5,"mode":4},{"attributes":{"POSITION":18,"TEXCOORD_0":19},"indices":20,"material":6,"mode":4},{"attributes":{"POSITION":21,"TEXCOORD_0":22},"indices":23,"material":7,"mode":4},{"attributes":{"POSITION":24,"TEXCOORD_0":25},"indices":26,"material":8,"mode":4},{"attributes":{"POSITION":27,"TEXCOORD_0":28},"indices":29,"material":9,"mode":4},{"attributes":{"POSITION":30,"TEXCOORD_0":31},"indices":32,"material":10,"mode":4}]}],"nodes":[{"name":"boober","mesh":0}],"samplers":[{"wrapS":10497,"wrapT":10497}],"scene":0,"scenes":[{"nodes":[0]}],"textures":[{"name":"boober_1_0","sampler":0,"source":0},{"name":"boober_1_1","sampler":0,"source":1},{"name":"boober_1_2","sampler":0,"source":2},{"name":"boober_1_3","sampler":0,"source":3},{"name":"boober_1_4","sampler":0,"source":4},{"name":"boober_1_5","sampler":0,"source":5},{"name":"boober_1_6","sampler":0,"source":6},{"name":"boober_1_7","sampler":0,"source":7},{"name":"boober_1_8","sampler":0,"source":8},{"name":"boober_1_9","sampler":0,"source":9},{"name":"boober_1_10","sampler":0,"source":10}]}