{"accessors":[{"name":"Pinsir_1_0_positions","componentType":5126,"count":14424,"min":[-117.75700378417969,0.12069299817085266,-29.880205154418945],"max":[117.75699615478516,141.55101013183594,29.009803771972656],"type":"VEC3","bufferView":0,"byteOffset":0},{"name":"Pinsir_1_0_normals","componentType":5126,"count":14424,"min":[-0.9962016344070435,-1,-1],"max":[0.9962015748023987,1,0.9999999403953552],"type":"VEC3","bufferView":1,"byteOffset":0},{"name":"Pinsir_1_0_texcoords","componentType":5126,"count":14424,"min":[0.005859000142663717,0.0078119998797774315],"max":[0.9941409826278687,0.9921870231628418],"type":"VEC2","bufferView":2,"byteOffset":0},{"name":"Pinsir_1_0_indices","componentType":5123,"count":14424,"min":[0],"max":[14423],"type":"SCALAR","bufferView":3,"byteOffset":0},{"name":"Pinsir_1_1_positions","componentType":5126,"count":168,"min":[-24.739328384399414,71.77978515625,11.378388404846191],"max":[24.739072799682617,91.43840789794922,26.33319091796875],"type":"VEC3","bufferView":0,"byteOffset":173088},{"name":"Pinsir_1_1_normals","componentType":5126,"count":168,"min":[-0.7189347147941589,-0.9801250696182251,-0.9876464009284973],"max":[0.8668467998504639,0.9790273904800415,0.4013679027557373],"type":"VEC3","bufferView":1,"byteOffset":173088},{"name":"Pinsir_1_1_texcoords","componentType":5126,"count":168,"min":[0.012767000123858452,-0.9788600206375122],"max":[0.48723000288009644,-0.7735199928283691],"type":"VEC2","bufferView":2,"byteOffset":115392},{"name":"Pinsir_1_1_indices","componentType":5123,"count":168,"min":[0],"max":[167],"type":"SCALAR","bufferView":3,"byteOffset":28848}],"asset":{"generator":"obj2gltf","version":"2.0"},"buffers":[{"name":"XY_Pinsir","byteLength":588532,"uri":"data:application/octet-stream;base64,"}],"bufferViews":[{"name":"bufferView_0","buffer":0,"byteLength":175104,"byteOffset":0,"byteStride":12,"target":34962},{"name":"bufferView_1","buffer":0,"byteLength":175104,"byteOffset":175104,"byteStride":12,"target":34962},{"name":"bufferView_2","buffer":0,"byteLength":116736,"byteOffset":350208,"byteStride":8,"target":34962},{"name":"bufferView_3","buffer":0,"byteLength":29184,"byteOffset":466944,"target":34963},{"buffer":0,"byteOffset":496128,"byteLength":66355},{"buffer":0,"byteOffset":562483,"byteLength":26046}],"images":[{"name":"pm0127_00_Body1","mimeType":"image/png","bufferView":4},{"name":"pm0127_00_Eye1","mimeType":"image/png","bufferView":5}],"materials":[{"name":"Material__22","pbrMetallicRoughness":{"baseColorTexture":{"index":0},"baseColorFactor":[1,1,1,1],"metallicFactor":0,"roughnessFactor":0.998},"emissiveFactor":[0,0,0],"alphaMode":"OPAQUE","doubleSided":false},{"name":"Material__23","pbrMetallicRoughness":{"baseColorTexture":{"index":1},"baseColorFactor":[1,1,1,1],"metallicFactor":0,"roughnessFactor":0.998},"emissiveFactor":[0,0,0],"alphaMode":"OPAQUE","doubleSided":false}],"meshes":[{"name":"Pinsir_1","primitives":[{"attributes":{"POSITION":0,"NORMAL":1,"TEXCOORD_0":2},"indices":3,"material":0,"mode":4},{"attributes":{"POSITION":4,"NORMAL":5,"TEXCOORD_0":6},"indices":7,"material":1,"mode":4}]}],"nodes":[{"name":"Pinsir","mesh":0}],"samplers":[{"wrapS":10497,"wrapT":10497}],"scene":0,"scenes":[{"nodes":[0]}],"textures":[{"name":"pm0127_00_Body1","sampler":0,"source":0},{"name":"pm0127_00_Eye1","sampler":0,"source":1}]}