{"accessors":[{"name":"kailios-Mesh_0_positions","componentType":5126,"count":146,"min":[-8.579930305480957,-2.253999948501587,-10.46619987487793],"max":[8.579919815063477,3.9351398944854736,-2.0594799518585205],"type":"VEC3","bufferView":0,"byteOffset":0},{"name":"kailios-Mesh_0_texcoords","componentType":5126,"count":146,"min":[-0.01704699918627739,-1.96875],"max":[1.0673500299453735,1.0489970445632935],"type":"VEC2","bufferView":1,"byteOffset":0},{"name":"kailios-Mesh_0_indices","componentType":5123,"count":474,"min":[0],"max":[145],"type":"SCALAR","bufferView":2,"byteOffset":0},{"name":"kailios-Mesh_1_positions","componentType":5126,"count":206,"min":[-8.077750205993652,-2.3152999877929688,-7.426390171051025],"max":[8.077759742736816,3.3499999046325684,-0.34213700890541077],"type":"VEC3","bufferView":0,"byteOffset":1752},{"name":"kailios-Mesh_1_texcoords","componentType":5126,"count":206,"min":[-0.001961000030860305,-2.3062500953674316],"max":[0.9910950064659119,1.078613042831421],"type":"VEC2","bufferView":1,"byteOffset":1168},{"name":"kailios-Mesh_1_indices","componentType":5123,"count":693,"min":[0],"max":[205],"type":"SCALAR","bufferView":2,"byteOffset":948},{"name":"kailios-Mesh_2_positions","componentType":5126,"count":98,"min":[-3.181770086288452,-2.3152999877929688,-7.542769908905029],"max":[3.181770086288452,3.44704008102417,-2.0594799518585205],"type":"VEC3","bufferView":0,"byteOffset":4224},{"name":"kailios-Mesh_2_texcoords","componentType":5126,"count":98,"min":[-0.002337000099942088,-0.0019600000232458115],"max":[0.9999409914016724,1.0050790309906006],"type":"VEC2","bufferView":1,"byteOffset":2816},{"name":"kailios-Mesh_2_indices","componentType":5123,"count":210,"min":[0],"max":[97],"type":"SCALAR","bufferView":2,"byteOffset":2336},{"name":"kailios-Mesh_3_positions","componentType":5126,"count":181,"min":[-8.410099983215332,-1.169350028038025,-16.176599502563477],"max":[8.410110473632812,4.836450099945068,0.02548700012266636],"type":"VEC3","bufferView":0,"byteOffset":5400},{"name":"kailios-Mesh_3_texcoords","componentType":5126,"count":181,"min":[0,0],"max":[1,1],"type":"VEC2","bufferView":1,"byteOffset":3600},{"name":"kailios-Mesh_3_indices","componentType":5123,"count":636,"min":[0],"max":[180],"type":"SCALAR","bufferView":2,"byteOffset":2756},{"name":"kailios-Mesh_4_positions","componentType":5126,"count":19,"min":[-1.1901899576187134,1.5159900188446045,-7.443299770355225],"max":[1.1901899576187134,3.6999900341033936,-4.449999809265137],"type":"VEC3","bufferView":0,"byteOffset":7572},{"name":"kailios-Mesh_4_texcoords","componentType":5126,"count":19,"min":[0.07427900284528732,-1.027940034866333],"max":[0.9716079831123352,0.9837110042572021],"type":"VEC2","bufferView":1,"byteOffset":5048},{"name":"kailios-Mesh_4_indices","componentType":5123,"count":45,"min":[0],"max":[18],"type":"SCALAR","bufferView":2,"byteOffset":4028},{"name":"kailios-Mesh_5_positions","componentType":5126,"count":7,"min":[-1.9795399904251099,3.053299903869629,-9.326029777526855],"max":[1.9795399904251099,3.6999900341033936,-7.349989891052246],"type":"VEC3","bufferView":0,"byteOffset":7800},{"name":"kailios-Mesh_5_texcoords","componentType":5126,"count":7,"min":[-0.002858000108972192,-0.12145999819040298],"max":[0.1569959968328476,1.0348659753799438],"type":"VEC2","bufferView":1,"byteOffset":5200},{"name":"kailios-Mesh_5_indices","componentType":5123,"count":12,"min":[0],"max":[6],"type":"SCALAR","bufferView":2,"byteOffset":4120},{"name":"kailios-Mesh_6_positions","componentType":5126,"count":40,"min":[-1.2318999767303467,3.1541900634765625,-7.1292901039123535],"max":[1.2299100160598755,3.730410099029541,-4.830790042877197],"type":"VEC3","bufferView":0,"byteOffset":7884},{"name":"kailios-Mesh_6_texcoords","componentType":5126,"count":40,"min":[-0.004720000084489584,-0.00892999954521656],"max":[1,1.004464030265808],"type":"VEC2","bufferView":1,"byteOffset":5256},{"name":"kailios-Mesh_6_indices","componentType":5123,"count":60,"min":[0],"max":[39],"type":"SCALAR","bufferView":2,"byteOffset":4144}],"asset":{"generator":"obj2gltf","version":"2.0"},"buffers":[{"name":"BR_Pinsir-Shiny01","byteLength":65500,"uri":"data:application/octet-stream;base64,"}],"bufferViews":[{"name":"bufferView_0","buffer":0,"byteLength":8364,"byteOffset":0,"byteStride":12,"target":34962},{"name":"bufferView_1","buffer":0,"byteLength":5576,"byteOffset":8364,"byteStride":8,"target":34962},{"name":"bufferView_2","buffer":0,"byteLength":4264,"byteOffset":13940,"target":34963},{"buffer":0,"byteOffset":18204,"byteLength":8210},{"buffer":0,"byteOffset":26414,"byteLength":8210},{"buffer":0,"byteOffset":34624,"byteLength":1042},{"buffer":0,"byteOffset":35666,"byteLength":82},{"buffer":0,"byteOffset":35748,"byteLength":1042},{"buffer":0,"byteOffset":36790,"byteLength":24594},{"buffer":0,"byteOffset":61384,"byteLength":4114}],"images":[{"name":"kailios_1_0","mimeType":"image/x-tga","bufferView":3},{"name":"kailios_1_1","mimeType":"image/x-tga","bufferView":4},{"name":"kailios_1_2","mimeType":"image/x-tga","bufferView":5},{"name":"kailios_1_3","mimeType":"image/x-tga","bufferView":6},{"name":"kailios_1_4","mimeType":"image/x-tga","bufferView":7},{"name":"kailios_1_5","mimeType":"image/x-tga","bufferView":8},{"name":"kailios_1_6","mimeType":"image/x-tga","bufferView":9}],"materials":[{"name":"mat_0","pbrMetallicRoughness":{"baseColorTexture":{"index":0},"baseColorFactor":[1,1,1,1],"metallicFactor":0,"roughnessFactor":0.903921569},"emissiveFactor":[0,0,0],"alphaMode":"BLEND","doubleSided":true},{"name":"mat_1","pbrMetallicRoughness":{"baseColorTexture":{"index":1},"baseColorFactor":[1,1,1,1],"metallicFactor":0,"roughnessFactor":0.903921569},"emissiveFactor":[0,0,0],"alphaMode":"BLEND","doubleSided":true},{"name":"mat_2","pbrMetallicRoughness":{"baseColorTexture":{"index":2},"baseColorFactor":[1,1,1,1],"metallicFactor":0,"roughnessFactor":0.903921569},"emissiveFactor":[0,0,0],"alphaMode":"BLEND","doubleSided":true},{"name":"mat_3","pbrMetallicRoughness":{"baseColorTexture":{"index":3},"baseColorFactor":[1,1,1,1],"metallicFactor":0,"roughnessFactor":0.903921569},"emissiveFactor":[0,0,0],"alphaMode":"BLEND","doubleSided":true},{"name":"mat_4","pbrMetallicRoughness":{"baseColorTexture":{"index":4},"baseColorFactor":[1,1,1,1],"metallicFactor":0,"roughnessFactor":0.903921569},"emissiveFactor":[0,0,0],"alphaMode":"BLEND","doubleSided":true},{"name":"mat_5","pbrMetallicRoughness":{"baseColorTexture":{"index":5},"baseColorFactor":[1,1,1,1],"metallicFactor":0,"roughnessFactor":0.903921569},"emissiveFactor":[0,0,0],"alphaMode":"BLEND","doubleSided":true},{"name":"mat_6","pbrMetallicRoughness":{"baseColorTexture":{"index":6},"baseColorFactor":[1,1,1,1],"metallicFactor":0,"roughnessFactor":0.903921569},"emissiveFactor":[0,0,0],"alphaMode":"BLEND","doubleSided":true}],"meshes":[{"name":"kailios-Mesh","primitives":[{"attributes":{"POSITION":0,"TEXCOORD_0":1},"indices":2,"material":0,"mode":4},{"attributes":{"POSITION":3,"TEXCOORD_0":4},"indices":5,"material":1,"mode":4},{"attributes":{"POSITION":6,"TEXCOORD_0":7},"indices":8,"material":2,"mode":4},{"attributes":{"POSITION":9,"TEXCOORD_0":10},"indices":11,"material":3,"mode":4},{"attributes":{"POSITION":12,"TEXCOORD_0":13},"indices":14,"material":4,"mode":4},{"attributes":{"POSITION":15,"TEXCOORD_0":16},"indices":17,"material":5,"mode":4},{"attributes":{"POSITION":18,"TEXCOORD_0":19},"indices":20,"material":6,"mode":4}]}],"nodes":[{"name":"kailios","mesh":0}],"samplers":[{"wrapS":10497,"wrapT":10497}],"scene":0,"scenes":[{"nodes":[0]}],"textures":[{"name":"kailios_1_0","sampler":0,"source":0},{"name":"kailios_1_1","sampler":0,"source":1},{"name":"kailios_1_2","sampler":0,"source":2},{"name":"kailios_1_3","sampler":0,"source":3},{"name":"kailios_1_4","sampler":0,"source":4},{"name":"kailios_1_5","sampler":0,"source":5},{"name":"kailios_1_6","sampler":0,"source":6}]}