{"accessors":[{"name":"kentauros-Mesh_0_positions","componentType":5126,"count":28,"min":[-2.630150079727173,-5.593739986419678,-9.472789764404297],"max":[2.630150079727173,6.023169994354248,-3.855679988861084],"type":"VEC3","bufferView":0,"byteOffset":0},{"name":"kentauros-Mesh_0_texcoords","componentType":5126,"count":28,"min":[-0.2857140004634857,-0.05990000069141388],"max":[0.9717260003089905,1.431547999382019],"type":"VEC2","bufferView":1,"byteOffset":0},{"name":"kentauros-Mesh_0_indices","componentType":5123,"count":78,"min":[0],"max":[27],"type":"SCALAR","bufferView":2,"byteOffset":0},{"name":"kentauros-Mesh_1_positions","componentType":5126,"count":250,"min":[-5.2573699951171875,-5.593739986419678,-13.841300010681152],"max":[5.247560024261475,8.908379554748535,-0.5401279926300049],"type":"VEC3","bufferView":0,"byteOffset":336},{"name":"kentauros-Mesh_1_texcoords","componentType":5126,"count":250,"min":[0.5843219757080078,0],"max":[4.335999965667725,1],"type":"VEC2","bufferView":1,"byteOffset":224},{"name":"kentauros-Mesh_1_indices","componentType":5123,"count":876,"min":[0],"max":[249],"type":"SCALAR","bufferView":2,"byteOffset":156},{"name":"kentauros-Mesh_2_positions","componentType":5126,"count":50,"min":[-5.47130012512207,-4.372560024261475,-1.470039963722229],"max":[5.47130012512207,6.438759803771973,0.002271000063046813],"type":"VEC3","bufferView":0,"byteOffset":3336},{"name":"kentauros-Mesh_2_texcoords","componentType":5126,"count":50,"min":[0,-0.051589999347925186],"max":[1,1.1222089529037476],"type":"VEC2","bufferView":1,"byteOffset":2224},{"name":"kentauros-Mesh_2_indices","componentType":5123,"count":174,"min":[0],"max":[49],"type":"SCALAR","bufferView":2,"byteOffset":1908},{"name":"kentauros-Mesh_3_positions","componentType":5126,"count":24,"min":[-5.47130012512207,-4.130050182342529,-0.32278600335121155],"max":[5.47130012512207,6.438759803771973,0.002271000063046813],"type":"VEC3","bufferView":0,"byteOffset":3936},{"name":"kentauros-Mesh_3_texcoords","componentType":5126,"count":24,"min":[0.07218699902296066,0.046875],"max":[0.9120309948921204,1.003283977508545],"type":"VEC2","bufferView":1,"byteOffset":2624},{"name":"kentauros-Mesh_3_indices","componentType":5123,"count":48,"min":[0],"max":[23],"type":"SCALAR","bufferView":2,"byteOffset":2256},{"name":"kentauros-Mesh_4_positions","componentType":5126,"count":46,"min":[-4.111310005187988,6.803530216217041,-11.394499778747559],"max":[4.1036200523376465,8.85824966430664,-7.934800148010254],"type":"VEC3","bufferView":0,"byteOffset":4224},{"name":"kentauros-Mesh_4_texcoords","componentType":5126,"count":46,"min":[-0.6048009991645813,-1.4547300338745117],"max":[0.9300730228424072,0.8944829702377319],"type":"VEC2","bufferView":1,"byteOffset":2816},{"name":"kentauros-Mesh_4_indices","componentType":5123,"count":216,"min":[0],"max":[45],"type":"SCALAR","bufferView":2,"byteOffset":2352},{"name":"kentauros-Mesh_5_positions","componentType":5126,"count":10,"min":[-0.7542870044708252,6.8754801750183105,-6.0443501472473145],"max":[0.7770450115203857,7.188149929046631,-4.930679798126221],"type":"VEC3","bufferView":0,"byteOffset":4776},{"name":"kentauros-Mesh_5_texcoords","componentType":5126,"count":10,"min":[-0.051683999598026276,-0.12891000509262085],"max":[1.0829399824142456,1.0729169845581055],"type":"VEC2","bufferView":1,"byteOffset":3184},{"name":"kentauros-Mesh_5_indices","componentType":5123,"count":21,"min":[0],"max":[9],"type":"SCALAR","bufferView":2,"byteOffset":2784},{"name":"kentauros-Mesh_6_positions","componentType":5126,"count":6,"min":[-1.3447599411010742,4.635970115661621,-8.63539981842041],"max":[1.3447599411010742,6.8754801750183105,-6.0443501472473145],"type":"VEC3","bufferView":0,"byteOffset":4896},{"name":"kentauros-Mesh_6_texcoords","componentType":5126,"count":6,"min":[0.0009689999860711396,-0.43244001269340515],"max":[0.9393110275268555,1.516584038734436],"type":"VEC2","bufferView":1,"byteOffset":3264},{"name":"kentauros-Mesh_6_indices","componentType":5123,"count":12,"min":[0],"max":[5],"type":"SCALAR","bufferView":2,"byteOffset":2828},{"name":"kentauros-Mesh_7_positions","componentType":5126,"count":15,"min":[-1.3240699768066406,7.792840003967285,-8.30955982208252],"max":[1.3160699605941772,8.914580345153809,-5.773519992828369],"type":"VEC3","bufferView":0,"byteOffset":4968},{"name":"kentauros-Mesh_7_texcoords","componentType":5126,"count":15,"min":[-0.07133699953556061,0.0008660000166855752],"max":[0.2045300006866455,1.3971129655838013],"type":"VEC2","bufferView":1,"byteOffset":3312},{"name":"kentauros-Mesh_7_indices","componentType":5123,"count":54,"min":[0],"max":[14],"type":"SCALAR","bufferView":2,"byteOffset":2852},{"name":"kentauros-Mesh_8_positions","componentType":5126,"count":9,"min":[-1.3240699768066406,8.175729751586914,-9.947649955749512],"max":[1.3160699605941772,8.901060104370117,-8.30955982208252],"type":"VEC3","bufferView":0,"byteOffset":5148},{"name":"kentauros-Mesh_8_texcoords","componentType":5126,"count":9,"min":[-3.3023600578308105,-0.07030999660491943],"max":[0.9998610019683838,1.203125],"type":"VEC2","bufferView":1,"byteOffset":3432},{"name":"kentauros-Mesh_8_indices","componentType":5123,"count":24,"min":[0],"max":[8],"type":"SCALAR","bufferView":2,"byteOffset":2960},{"name":"kentauros-Mesh_9_positions","componentType":5126,"count":5,"min":[-0.45642098784446716,8.901060104370117,-8.599960327148438],"max":[0.46561700105667114,9.180740356445312,-7.5131402015686035],"type":"VEC3","bufferView":0,"byteOffset":5256},{"name":"kentauros-Mesh_9_texcoords","componentType":5126,"count":5,"min":[-0.21022699773311615,-0.20568999648094177],"max":[0.9930559992790222,1.2299989461898804],"type":"VEC2","bufferView":1,"byteOffset":3504},{"name":"kentauros-Mesh_9_indices","componentType":5123,"count":12,"min":[0],"max":[4],"type":"SCALAR","bufferView":2,"byteOffset":3008},{"name":"kentauros-Mesh_10_positions","componentType":5126,"count":12,"min":[-1.5604900121688843,6.128469944000244,-9.79166030883789],"max":[1.5530500411987305,8.647350311279297,-7.569270133972168],"type":"VEC3","bufferView":0,"byteOffset":5316},{"name":"kentauros-Mesh_10_texcoords","componentType":5126,"count":12,"min":[-0.06730899959802628,0.05448099970817566],"max":[1.05964994430542,1.002832055091858],"type":"VEC2","bufferView":1,"byteOffset":3544},{"name":"kentauros-Mesh_10_indices","componentType":5123,"count":24,"min":[0],"max":[11],"type":"SCALAR","bufferView":2,"byteOffset":3032},{"name":"kentauros-Mesh_11_positions","componentType":5126,"count":12,"min":[-0.7542870044708252,7.188149929046631,-5.991250038146973],"max":[0.7770450115203857,8.27733039855957,-4.957359790802002],"type":"VEC3","bufferView":0,"byteOffset":5460},{"name":"kentauros-Mesh_11_texcoords","componentType":5126,"count":12,"min":[0.10000000149011612,-0.039810001850128174],"max":[1.0174299478530884,0.9310680031776428],"type":"VEC2","bufferView":1,"byteOffset":3640},{"name":"kentauros-Mesh_11_indices","componentType":5123,"count":51,"min":[0],"max":[11],"type":"SCALAR","bufferView":2,"byteOffset":3080},{"name":"kentauros-Mesh_12_positions","componentType":5126,"count":29,"min":[-3.437000036239624,0.43485599756240845,-13.299400329589844],"max":[3.436729907989502,7.2060699462890625,-4.249430179595947],"type":"VEC3","bufferView":0,"byteOffset":5604},{"name":"kentauros-Mesh_12_texcoords","componentType":5126,"count":29,"min":[-0.008806999772787094,0],"max":[1.000040054321289,1],"type":"VEC2","bufferView":1,"byteOffset":3736},{"name":"kentauros-Mesh_12_indices","componentType":5123,"count":150,"min":[0],"max":[28],"type":"SCALAR","bufferView":2,"byteOffset":3184},{"name":"kentauros-Mesh_13_positions","componentType":5126,"count":102,"min":[-0.6403599977493286,-12.164199829101562,-12.538999557495117],"max":[0.5528410077095032,-5.417719841003418,-4.864160060882568],"type":"VEC3","bufferView":0,"byteOffset":5952},{"name":"kentauros-Mesh_13_texcoords","componentType":5126,"count":102,"min":[-0.14000000059604645,0],"max":[2.0822200775146484,1.027999997138977],"type":"VEC2","bufferView":1,"byteOffset":3968},{"name":"kentauros-Mesh_13_indices","componentType":5123,"count":297,"min":[0],"max":[101],"type":"SCALAR","bufferView":2,"byteOffset":3484},{"name":"kentauros-Mesh_14_positions","componentType":5126,"count":24,"min":[-1.2156599760055542,-13.6141996383667,-13.30210018157959],"max":[0.8295770287513733,-7.9061198234558105,-4.587709903717041],"type":"VEC3","bufferView":0,"byteOffset":7176},{"name":"kentauros-Mesh_14_texcoords","componentType":5126,"count":24,"min":[-0.17620499432086945,-0.1790899932384491],"max":[0.9642009735107422,1.4411109685897827],"type":"VEC2","bufferView":1,"byteOffset":4784},{"name":"kentauros-Mesh_14_indices","componentType":5123,"count":54,"min":[0],"max":[23],"type":"SCALAR","bufferView":2,"byteOffset":4080}],"asset":{"generator":"obj2gltf","version":"2.0"},"buffers":[{"name":"BR_Tauros-Shiny01","byteLength":81540,"uri":"data:application/octet-stream;base64,"}],"bufferViews":[{"name":"bufferView_0","buffer":0,"byteLength":7464,"byteOffset":0,"byteStride":12,"target":34962},{"name":"bufferView_1","buffer":0,"byteLength":4976,"byteOffset":7464,"byteStride":8,"target":34962},{"name":"bufferView_2","buffer":0,"byteLength":4188,"byteOffset":12440,"target":34963},{"buffer":0,"byteOffset":16628,"byteLength":530},{"buffer":0,"byteOffset":17158,"byteLength":82},{"buffer":0,"byteOffset":17240,"byteLength":1042},{"buffer":0,"byteOffset":18282,"byteLength":274},{"buffer":0,"byteOffset":18556,"byteLength":274},{"buffer":0,"byteOffset":18830,"byteLength":2066},{"buffer":0,"byteOffset":20896,"byteLength":1042},{"buffer":0,"byteOffset":21938,"byteLength":40978},{"buffer":0,"byteOffset":62916,"byteLength":4114},{"buffer":0,"byteOffset":67030,"byteLength":2066},{"buffer":0,"byteOffset":69096,"byteLength":2066},{"buffer":0,"byteOffset":71162,"byteLength":1042},{"buffer":0,"byteOffset":72204,"byteLength":8210},{"buffer":0,"byteOffset":80414,"byteLength":82},{"buffer":0,"byteOffset":80496,"byteLength":1042}],"images":[{"name":"kentauros_1_0","mimeType":"image/x-tga","bufferView":3},{"name":"kentauros_1_1","mimeType":"image/x-tga","bufferView":4},{"name":"kentauros_1_2","mimeType":"image/x-tga","bufferView":5},{"name":"kentauros_1_3","mimeType":"image/x-tga","bufferView":6},{"name":"kentauros_1_4","mimeType":"image/x-tga","bufferView":7},{"name":"kentauros_1_5","mimeType":"image/x-tga","bufferView":8},{"name":"kentauros_1_6","mimeType":"image/x-tga","bufferView":9},{"name":"kentauros_1_7","mimeType":"image/x-tga","bufferView":10},{"name":"kentauros_1_8","mimeType":"image/x-tga","bufferView":11},{"name":"kentauros_1_9","mimeType":"image/x-tga","bufferView":12},{"name":"kentauros_1_10","mimeType":"image/x-tga","bufferView":13},{"name":"kentauros_1_11","mimeType":"image/x-tga","bufferView":14},{"name":"kentauros_1_12","mimeType":"image/x-tga","bufferView":15},{"name":"kentauros_1_13","mimeType":"image/x-tga","bufferView":16},{"name":"kentauros_1_14","mimeType":"image/x-tga","bufferView":17}],"materials":[{"name":"mat_0","pbrMetallicRoughness":{"baseColorTexture":{"index":0},"baseColorFactor":[1,1,1,1],"metallicFactor":0,"roughnessFactor":0.903921569},"emissiveFactor":[0,0,0],"alphaMode":"BLEND","doubleSided":true},{"name":"mat_1","pbrMetallicRoughness":{"baseColorTexture":{"index":1},"baseColorFactor":[1,1,1,1],"metallicFactor":0,"roughnessFactor":0.903921569},"emissiveFactor":[0,0,0],"alphaMode":"BLEND","doubleSided":true},{"name":"mat_2","pbrMetallicRoughness":{"baseColorTexture":{"index":2},"baseColorFactor":[1,1,1,1],"metallicFactor":0,"roughnessFactor":0.903921569},"emissiveFactor":[0,0,0],"alphaMode":"BLEND","doubleSided":true},{"name":"mat_3","pbrMetallicRoughness":{"baseColorTexture":{"index":3},"baseColorFactor":[1,1,1,1],"metallicFactor":0,"roughnessFactor":0.903921569},"emissiveFactor":[0,0,0],"alphaMode":"BLEND","doubleSided":true},{"name":"mat_4","pbrMetallicRoughness":{"baseColorTexture":{"index":4},"baseColorFactor":[1,1,1,1],"metallicFactor":0,"roughnessFactor":0.903921569},"emissiveFactor":[0,0,0],"alphaMode":"BLEND","doubleSided":true},{"name":"mat_5","pbrMetallicRoughness":{"baseColorTexture":{"index":5},"baseColorFactor":[1,1,1,1],"metallicFactor":0,"roughnessFactor":0.903921569},"emissiveFactor":[0,0,0],"alphaMode":"BLEND","doubleSided":true},{"name":"mat_6","pbrMetallicRoughness":{"baseColorTexture":{"index":6},"baseColorFactor":[1,1,1,1],"metallicFactor":0,"roughnessFactor":0.903921569},"emissiveFactor":[0,0,0],"alphaMode":"BLEND","doubleSided":true},{"name":"mat_7","pbrMetallicRoughness":{"baseColorTexture":{"index":7},"baseColorFactor":[1,1,1,1],"metallicFactor":0,"roughnessFactor":0.903921569},"emissiveFactor":[0,0,0],"alphaMode":"BLEND","doubleSided":true},{"name":"mat_8","pbrMetallicRoughness":{"baseColorTexture":{"index":8},"baseColorFactor":[1,1,1,1],"metallicFactor":0,"roughnessFactor":0.903921569},"emissiveFactor":[0,0,0],"alphaMode":"BLEND","doubleSided":true},{"name":"mat_9","pbrMetallicRoughness":{"baseColorTexture":{"index":9},"baseColorFactor":[1,1,1,1],"metallicFactor":0,"roughnessFactor":0.903921569},"emissiveFactor":[0,0,0],"alphaMode":"BLEND","doubleSided":true},{"name":"mat_10","pbrMetallicRoughness":{"baseColorTexture":{"index":10},"baseColorFactor":[1,1,1,1],"metallicFactor":0,"roughnessFactor":0.903921569},"emissiveFactor":[0,0,0],"alphaMode":"BLEND","doubleSided":true},{"name":"mat_11","pbrMetallicRoughness":{"baseColorTexture":{"index":11},"baseColorFactor":[1,1,1,1],"metallicFactor":0,"roughnessFactor":0.903921569},"emissiveFactor":[0,0,0],"alphaMode":"BLEND","doubleSided":true},{"name":"mat_12","pbrMetallicRoughness":{"baseColorTexture":{"index":12},"baseColorFactor":[1,1,1,1],"metallicFactor":0,"roughnessFactor":0.903921569},"emissiveFactor":[0,0,0],"alphaMode":"BLEND","doubleSided":true},{"name":"mat_13","pbrMetallicRoughness":{"baseColorTexture":{"index":13},"baseColorFactor":[1,1,1,1],"metallicFactor":0,"roughnessFactor":0.903921569},"emissiveFactor":[0,0,0],"alphaMode":"BLEND","doubleSided":true},{"name":"mat_14","pbrMetallicRoughness":{"baseColorTexture":{"index":14},"baseColorFactor":[1,1,1,1],"metallicFactor":0,"roughnessFactor":0.903921569},"emissiveFactor":[0,0,0],"alphaMode":"BLEND","doubleSided":true}],"meshes":[{"name":"kentauros-Mesh","primitives":[{"attributes":{"POSITION":0,"TEXCOORD_0":1},"indices":2,"material":0,"mode":4},{"attributes":{"POSITION":3,"TEXCOORD_0":4},"indices":5,"material":1,"mode":4},{"attributes":{"POSITION":6,"TEXCOORD_0":7},"indices":8,"material":2,"mode":4},{"attributes":{"POSITION":9,"TEXCOORD_0":10},"indices":11,"material":3,"mode":4},{"attributes":{"POSITION":12,"TEXCOORD_0":13},"indices":14,"material":4,"mode":4},{"attributes":{"POSITION":15,"TEXCOORD_0":16},"indices":17,"material":5,"mode":4},{"attributes":{"POSITION":18,"TEXCOORD_0":19},"indices":20,"material":6,"mode":4},{"attributes":{"POSITION":21,"TEXCOORD_0":22},"indices":23,"material":7,"mode":4},{"attributes":{"POSITION":24,"TEXCOORD_0":25},"indices":26,"material":8,"mode":4},{"attributes":{"POSITION":27,"TEXCOORD_0":28},"indices":29,"material":9,"mode":4},{"attributes":{"POSITION":30,"TEXCOORD_0":31},"indices":32,"material":10,"mode":4},{"attributes":{"POSITION":33,"TEXCOORD_0":34},"indices":35,"material":11,"mode":4},{"attributes":{"POSITION":36,"TEXCOORD_0":37},"indices":38,"material":12,"mode":4},{"attributes":{"POSITION":39,"TEXCOORD_0":40},"indices":41,"material":13,"mode":4},{"attributes":{"POSITION":42,"TEXCOORD_0":43},"indices":44,"material":14,"mode":4}]}],"nodes":[{"name":"kentauros","mesh":0}],"samplers":[{"wrapS":10497,"wrapT":10497}],"scene":0,"scenes":[{"nodes":[0]}],"textures":[{"name":"kentauros_1_0","sampler":0,"source":0},{"name":"kentauros_1_1","sampler":0,"source":1},{"name":"kentauros_1_2","sampler":0,"source":2},{"name":"kentauros_1_3","sampler":0,"source":3},{"name":"kentauros_1_4","sampler":0,"source":4},{"name":"kentauros_1_5","sampler":0,"source":5},{"name":"kentauros_1_6","sampler":0,"source":6},{"name":"kentauros_1_7","sampler":0,"source":7},{"name":"kentauros_1_8","sampler":0,"source":8},{"name":"kentauros_1_9","sampler":0,"source":9},{"name":"kentauros_1_10","sampler":0,"source":10},{"name":"kentauros_1_11","sampler":0,"source":11},{"name":"kentauros_1_12","sampler":0,"source":12},{"name":"kentauros_1_13","sampler":0,"source":13},{"name":"kentauros_1_14","sampler":0,"source":14}]}