{"accessors":[{"name":"polygon0_1_0_positions","componentType":5126,"count":146,"min":[-1.365144968032837,0.45781800150871277,1.4530839920043945],"max":[1.3651440143585205,1.6829509735107422,2.545922040939331],"type":"VEC3","bufferView":0,"byteOffset":0},{"name":"polygon0_1_0_normals","componentType":5126,"count":146,"min":[-0.9926128387451172,-0.9625536799430847,-0.9521238207817078],"max":[0.9926128387451172,0.9820685982704163,0.9881373047828674],"type":"VEC3","bufferView":1,"byteOffset":0},{"name":"polygon0_1_0_texcoords","componentType":5126,"count":146,"min":[-0.9907839894294739,0.005431999918073416],"max":[-0.5140990018844604,0.24377399682998657],"type":"VEC2","bufferView":2,"byteOffset":0},{"name":"polygon0_1_0_indices","componentType":5123,"count":744,"min":[0],"max":[145],"type":"SCALAR","bufferView":3,"byteOffset":0},{"name":"polygon1_1_0_positions","componentType":5126,"count":831,"min":[-6.660754203796387,-3.5205230712890625,-5.121477127075195],"max":[6.660752773284912,4.951469898223877,3.946898937225342],"type":"VEC3","bufferView":0,"byteOffset":1752},{"name":"polygon1_1_0_normals","componentType":5126,"count":831,"min":[-1,-0.9995304942131042,-1],"max":[1,0.9998798370361328,0.995244026184082],"type":"VEC3","bufferView":1,"byteOffset":1752},{"name":"polygon1_1_0_texcoords","componentType":5126,"count":831,"min":[0.005919999908655882,0.008391999639570713],"max":[0.9948729872703552,0.9938960075378418],"type":"VEC2","bufferView":2,"byteOffset":1168},{"name":"polygon1_1_0_indices","componentType":5123,"count":3750,"min":[0],"max":[830],"type":"SCALAR","bufferView":3,"byteOffset":1488}],"asset":{"generator":"obj2gltf","version":"2.0"},"buffers":[{"name":"Magikarp","byteLength":335200,"uri":"data:application/octet-stream;base64,"}],"bufferViews":[{"name":"bufferView_0","buffer":0,"byteLength":11724,"byteOffset":0,"byteStride":12,"target":34962},{"name":"bufferView_1","buffer":0,"byteLength":11724,"byteOffset":11724,"byteStride":12,"target":34962},{"name":"bufferView_2","buffer":0,"byteLength":7816,"byteOffset":23448,"byteStride":8,"target":34962},{"name":"bufferView_3","buffer":0,"byteLength":8988,"byteOffset":31264,"target":34963},{"buffer":0,"byteOffset":40252,"byteLength":98322},{"buffer":0,"byteOffset":138574,"byteLength":196626}],"images":[{"name":"KoikingEyeDh","mimeType":"image/x-tga","bufferView":4},{"name":"KoikingDh","mimeType":"image/x-tga","bufferView":5}],"materials":[{"name":"mat2","pbrMetallicRoughness":{"baseColorTexture":{"index":0},"baseColorFactor":[1,1,1,1],"metallicFactor":0,"roughnessFactor":0.99},"emissiveFactor":[0,0,0],"alphaMode":"OPAQUE","doubleSided":false},{"name":"mat1","pbrMetallicRoughness":{"baseColorTexture":{"index":1},"baseColorFactor":[1,1,1,1],"metallicFactor":0,"roughnessFactor":0.99},"emissiveFactor":[0,0,0],"alphaMode":"OPAQUE","doubleSided":false}],"meshes":[{"name":"polygon0_1","primitives":[{"attributes":{"POSITION":0,"NORMAL":1,"TEXCOORD_0":2},"indices":3,"material":0,"mode":4}]},{"name":"polygon1_1","primitives":[{"attributes":{"POSITION":4,"NORMAL":5,"TEXCOORD_0":6},"indices":7,"material":1,"mode":4}]}],"nodes":[{"name":"polygon0","mesh":0},{"name":"polygon1","mesh":1}],"samplers":[{"wrapS":10497,"wrapT":10497}],"scene":0,"scenes":[{"nodes":[0,1]}],"textures":[{"name":"KoikingEyeDh","sampler":0,"source":0},{"name":"KoikingDh","sampler":0,"source":1}]}