{"accessors":[{"name":"polygon0_1_0_positions","componentType":5126,"count":6,"min":[-2.600330114364624,28.574674606323242,14.592487335205078],"max":[2.600330114364624,30.826488494873047,16.606931686401367],"type":"VEC3","bufferView":0,"byteOffset":0},{"name":"polygon0_1_0_normals","componentType":5126,"count":6,"min":[-0.7041440010070801,0.25953295826911926,0.5661299824714661],"max":[0.7041440010070801,0.7187089323997498,0.6672728657722473],"type":"VEC3","bufferView":1,"byteOffset":0},{"name":"polygon0_1_0_texcoords","componentType":5126,"count":6,"min":[-0.9870610237121582,0.02239999920129776],"max":[-0.5045779943466187,0.2365110069513321],"type":"VEC2","bufferView":2,"byteOffset":0},{"name":"polygon0_1_0_indices","componentType":5123,"count":6,"min":[0],"max":[5],"type":"SCALAR","bufferView":3,"byteOffset":0},{"name":"polygon1_1_0_positions","componentType":5126,"count":1111,"min":[-7.898906230926514,9.188179016113281,-37.8957405090332],"max":[7.89890718460083,39.08327102661133,18.430856704711914],"type":"VEC3","bufferView":0,"byteOffset":72},{"name":"polygon1_1_0_normals","componentType":5126,"count":1111,"min":[-0.9999547600746155,-0.9997757077217102,-0.9998008012771606],"max":[0.9999547600746155,0.9997820854187012,0.9999021887779236],"type":"VEC3","bufferView":1,"byteOffset":72},{"name":"polygon1_1_0_texcoords","componentType":5126,"count":1111,"min":[0.012420999817550182,0.005034999921917915],"max":[0.9957280158996582,0.9871519804000854],"type":"VEC2","bufferView":2,"byteOffset":48},{"name":"polygon1_1_0_indices","componentType":5123,"count":4653,"min":[0],"max":[1110],"type":"SCALAR","bufferView":3,"byteOffset":12}],"asset":{"generator":"obj2gltf","version":"2.0"},"buffers":[{"name":"Gyarados","byteLength":340012,"uri":"data:application/octet-stream;base64,"}],"bufferViews":[{"name":"bufferView_0","buffer":0,"byteLength":13404,"byteOffset":0,"byteStride":12,"target":34962},{"name":"bufferView_1","buffer":0,"byteLength":13404,"byteOffset":13404,"byteStride":12,"target":34962},{"name":"bufferView_2","buffer":0,"byteLength":8936,"byteOffset":26808,"byteStride":8,"target":34962},{"name":"bufferView_3","buffer":0,"byteLength":9320,"byteOffset":35744,"target":34963},{"buffer":0,"byteOffset":45064,"byteLength":98322},{"buffer":0,"byteOffset":143386,"byteLength":196626}],"images":[{"name":"GyaradosEyeDh","mimeType":"image/x-tga","bufferView":4},{"name":"GyaradosDh","mimeType":"image/x-tga","bufferView":5}],"materials":[{"name":"mat2","pbrMetallicRoughness":{"baseColorTexture":{"index":0},"baseColorFactor":[1,1,1,1],"metallicFactor":0,"roughnessFactor":0.99},"emissiveFactor":[0,0,0],"alphaMode":"OPAQUE","doubleSided":false},{"name":"mat1","pbrMetallicRoughness":{"baseColorTexture":{"index":1},"baseColorFactor":[1,1,1,1],"metallicFactor":0,"roughnessFactor":0.99},"emissiveFactor":[0,0,0],"alphaMode":"OPAQUE","doubleSided":false}],"meshes":[{"name":"polygon0_1","primitives":[{"attributes":{"POSITION":0,"NORMAL":1,"TEXCOORD_0":2},"indices":3,"material":0,"mode":4}]},{"name":"polygon1_1","primitives":[{"attributes":{"POSITION":4,"NORMAL":5,"TEXCOORD_0":6},"indices":7,"material":1,"mode":4}]}],"nodes":[{"name":"polygon0","mesh":0},{"name":"polygon1","mesh":1}],"samplers":[{"wrapS":10497,"wrapT":10497}],"scene":0,"scenes":[{"nodes":[0,1]}],"textures":[{"name":"GyaradosEyeDh","sampler":0,"source":0},{"name":"GyaradosDh","sampler":0,"source":1}]}