{"accessors":[{"name":"polygon0_1_0_positions","componentType":5126,"count":28,"min":[-2.4278340339660645,16.55585289001465,6.2347798347473145],"max":[2.4278299808502197,17.9820499420166,10.67656135559082],"type":"VEC3","bufferView":0,"byteOffset":0},{"name":"polygon0_1_0_normals","componentType":5126,"count":28,"min":[-0.9579032063484192,-0.9986193776130676,-0.549953281879425],"max":[0.9579032063484192,0.9985239505767822,0.7420849204063416],"type":"VEC3","bufferView":1,"byteOffset":0},{"name":"polygon0_1_0_texcoords","componentType":5126,"count":28,"min":[0.39212000370025635,0.008484000340104103],"max":[0.5211489796638489,0.28320300579071045],"type":"VEC2","bufferView":2,"byteOffset":0},{"name":"polygon0_1_0_indices","componentType":5123,"count":90,"min":[0],"max":[27],"type":"SCALAR","bufferView":3,"byteOffset":0},{"name":"polygon1_1_0_positions","componentType":5126,"count":642,"min":[-18.14615821838379,0.1569720059633255,-13.565205574035645],"max":[18.146154403686523,21.856842041015625,11.29869270324707],"type":"VEC3","bufferView":0,"byteOffset":336},{"name":"polygon1_1_0_normals","componentType":5126,"count":642,"min":[-0.9993464946746826,-0.9998936057090759,-0.9994177222251892],"max":[0.9993464946746826,0.9993464946746826,0.9997122883796692],"type":"VEC3","bufferView":1,"byteOffset":336},{"name":"polygon1_1_0_texcoords","componentType":5126,"count":642,"min":[0.0013429999817162752,0.013000000268220901],"max":[0.9863590002059937,0.9998170137405396],"type":"VEC2","bufferView":2,"byteOffset":224},{"name":"polygon1_1_0_indices","componentType":5123,"count":3312,"min":[0],"max":[641],"type":"SCALAR","bufferView":3,"byteOffset":180},{"name":"polygon2_1_0_positions","componentType":5126,"count":274,"min":[-6.483646869659424,4.105016231536865,-10.134529113769531],"max":[6.631586074829102,13.186079978942871,3.3581740856170654],"type":"VEC3","bufferView":0,"byteOffset":8040},{"name":"polygon2_1_0_normals","componentType":5126,"count":274,"min":[-0.9969534277915955,-0.9852098822593689,-0.9966418743133545],"max":[0.9800609946250916,0.9965696930885315,0.9998826384544373],"type":"VEC3","bufferView":1,"byteOffset":8040},{"name":"polygon2_1_0_texcoords","componentType":5126,"count":274,"min":[0.3736569881439209,0.014526000246405602],"max":[0.9902949929237366,0.7210999727249146],"type":"VEC2","bufferView":2,"byteOffset":5360},{"name":"polygon2_1_0_indices","componentType":5123,"count":1434,"min":[0],"max":[273],"type":"SCALAR","bufferView":3,"byteOffset":6804},{"name":"polygon3_1_0_positions","componentType":5126,"count":26,"min":[-2.535550117492676,16.950563430786133,6.429781913757324],"max":[2.535546064376831,19.706890106201172,9.047012329101562],"type":"VEC3","bufferView":0,"byteOffset":11328},{"name":"polygon3_1_0_normals","componentType":5126,"count":26,"min":[-0.9986885786056519,-0.4581339657306671,0.002658998826518655],"max":[0.9986885786056519,0.4635090231895447,0.5037998557090759],"type":"VEC3","bufferView":1,"byteOffset":11328},{"name":"polygon3_1_0_texcoords","componentType":5126,"count":26,"min":[-0.028380999341607094,-0.012512000277638435],"max":[0.5293580293655396,0.2787480056285858],"type":"VEC2","bufferView":2,"byteOffset":7552},{"name":"polygon3_1_0_indices","componentType":5123,"count":90,"min":[0],"max":[25],"type":"SCALAR","bufferView":3,"byteOffset":9672}],"asset":{"generator":"obj2gltf","version":"2.0"},"buffers":[{"name":"Lapras","byteLength":335840,"uri":"data:application/octet-stream;base64,"}],"bufferViews":[{"name":"bufferView_0","buffer":0,"byteLength":11640,"byteOffset":0,"byteStride":12,"target":34962},{"name":"bufferView_1","buffer":0,"byteLength":11640,"byteOffset":11640,"byteStride":12,"target":34962},{"name":"bufferView_2","buffer":0,"byteLength":7760,"byteOffset":23280,"byteStride":8,"target":34962},{"name":"bufferView_3","buffer":0,"byteLength":9852,"byteOffset":31040,"target":34963},{"buffer":0,"byteOffset":40892,"byteLength":196626},{"buffer":0,"byteOffset":237518,"byteLength":98322}],"images":[{"name":"LaplaceDh","mimeType":"image/x-tga","bufferView":4},{"name":"LaplaceEyeDh","mimeType":"image/x-tga","bufferView":5}],"materials":[{"name":"mat4","pbrMetallicRoughness":{"baseColorTexture":{"index":0},"baseColorFactor":[1,1,1,1],"metallicFactor":0,"roughnessFactor":0.99},"emissiveFactor":[0,0,0],"alphaMode":"OPAQUE","doubleSided":false},{"name":"mat1","pbrMetallicRoughness":{"baseColorTexture":{"index":0},"baseColorFactor":[1,1,1,1],"metallicFactor":0,"roughnessFactor":0.99},"emissiveFactor":[0,0,0],"alphaMode":"OPAQUE","doubleSided":false},{"name":"mat2","pbrMetallicRoughness":{"baseColorTexture":{"index":0},"baseColorFactor":[1,1,1,1],"metallicFactor":0,"roughnessFactor":0.99},"emissiveFactor":[0,0,0],"alphaMode":"OPAQUE","doubleSided":false},{"name":"mat3","pbrMetallicRoughness":{"baseColorTexture":{"index":1},"baseColorFactor":[1,1,1,1],"metallicFactor":0,"roughnessFactor":0.99},"emissiveFactor":[0,0,0],"alphaMode":"OPAQUE","doubleSided":false}],"meshes":[{"name":"polygon0_1","primitives":[{"attributes":{"POSITION":0,"NORMAL":1,"TEXCOORD_0":2},"indices":3,"material":0,"mode":4}]},{"name":"polygon1_1","primitives":[{"attributes":{"POSITION":4,"NORMAL":5,"TEXCOORD_0":6},"indices":7,"material":1,"mode":4}]},{"name":"polygon2_1","primitives":[{"attributes":{"POSITION":8,"NORMAL":9,"TEXCOORD_0":10},"indices":11,"material":2,"mode":4}]},{"name":"polygon3_1","primitives":[{"attributes":{"POSITION":12,"NORMAL":13,"TEXCOORD_0":14},"indices":15,"material":3,"mode":4}]}],"nodes":[{"name":"polygon0","mesh":0},{"name":"polygon1","mesh":1},{"name":"polygon2","mesh":2},{"name":"polygon3","mesh":3}],"samplers":[{"wrapS":10497,"wrapT":10497}],"scene":0,"scenes":[{"nodes":[0,1,2,3]}],"textures":[{"name":"LaplaceDh","sampler":0,"source":0},{"name":"LaplaceEyeDh","sampler":0,"source":1}]}