{"accessors":[{"name":"metamon-Mesh_0_positions","componentType":5126,"count":1213,"min":[-2.2708120346069336,-1.7229030132293701,-3.446650981903076],"max":[2.3075098991394043,1.7064640522003174,0.059505999088287354],"type":"VEC3","bufferView":0,"byteOffset":0},{"name":"metamon-Mesh_0_texcoords","componentType":5126,"count":1213,"min":[0,1],"max":[0,1],"type":"VEC2","bufferView":1,"byteOffset":0},{"name":"metamon-Mesh_0_indices","componentType":5123,"count":7224,"min":[0],"max":[1212],"type":"SCALAR","bufferView":2,"byteOffset":0}],"asset":{"generator":"obj2gltf","version":"2.0"},"buffers":[{"name":"BR_Ditto-Shiny01","byteLength":38984,"uri":"data:application/octet-stream;base64,"}],"bufferViews":[{"name":"bufferView_0","buffer":0,"byteLength":14556,"byteOffset":0,"byteStride":12,"target":34962},{"name":"bufferView_1","buffer":0,"byteLength":9704,"byteOffset":14556,"byteStride":8,"target":34962},{"name":"bufferView_2","buffer":0,"byteLength":14448,"byteOffset":24260,"target":34963},{"buffer":0,"byteOffset":38708,"byteLength":274}],"images":[{"name":"metamon_1_0","mimeType":"image/x-tga","bufferView":3}],"materials":[{"name":"mat_0","pbrMetallicRoughness":{"baseColorTexture":{"index":0},"baseColorFactor":[1,1,1,1],"metallicFactor":0,"roughnessFactor":0.903921569},"emissiveFactor":[0,0,0],"alphaMode":"BLEND","doubleSided":true}],"meshes":[{"name":"metamon-Mesh","primitives":[{"attributes":{"POSITION":0,"TEXCOORD_0":1},"indices":2,"material":0,"mode":4}]}],"nodes":[{"name":"metamon","mesh":0}],"samplers":[{"wrapS":10497,"wrapT":10497}],"scene":0,"scenes":[{"nodes":[0]}],"textures":[{"name":"metamon_1_0","sampler":0,"source":0}]}