{"accessors":[{"name":"polygon0_1_0_positions","componentType":5126,"count":12,"min":[-0.5746780037879944,1.846200942993164,1.2595549821853638],"max":[0.5746780037879944,2.4826810359954834,1.5693559646606445],"type":"VEC3","bufferView":0,"byteOffset":0},{"name":"polygon0_1_0_normals","componentType":5126,"count":12,"min":[-0.6928110718727112,0.14661100506782532,0.6666989922523499],"max":[0.6928110718727112,0.37970495223999023,0.903744101524353],"type":"VEC3","bufferView":1,"byteOffset":0},{"name":"polygon0_1_0_texcoords","componentType":5126,"count":12,"min":[0.1015629991889,0.0039059999398887157],"max":[0.421875,0.2460940033197403],"type":"VEC2","bufferView":2,"byteOffset":0},{"name":"polygon0_1_0_indices","componentType":5123,"count":24,"min":[0],"max":[11],"type":"SCALAR","bufferView":3,"byteOffset":0},{"name":"polygon1_1_0_positions","componentType":5126,"count":958,"min":[-2.209254026412964,-9.999999974752427e-7,-3.0490829944610596],"max":[2.209254026412964,3.531451940536499,1.7145049571990967],"type":"VEC3","bufferView":0,"byteOffset":144},{"name":"polygon1_1_0_normals","componentType":5126,"count":958,"min":[-0.998741090297699,-0.9999993443489075,-0.9986542463302612],"max":[0.998741090297699,0.9999855756759644,0.9999993443489075],"type":"VEC3","bufferView":1,"byteOffset":144},{"name":"polygon1_1_0_texcoords","componentType":5126,"count":958,"min":[0.0019529999699443579,0.006012000143527985],"max":[0.9961850047111511,0.9901430010795593],"type":"VEC2","bufferView":2,"byteOffset":96},{"name":"polygon1_1_0_indices","componentType":5123,"count":4566,"min":[0],"max":[957],"type":"SCALAR","bufferView":3,"byteOffset":48},{"name":"polygon2_1_0_positions","componentType":5126,"count":14,"min":[-0.26396000385284424,1.5042550563812256,1.5234689712524414],"max":[0.26396098732948303,1.9110859632492065,1.7145049571990967],"type":"VEC3","bufferView":0,"byteOffset":11640},{"name":"polygon2_1_0_normals","componentType":5126,"count":14,"min":[-0.5196682214736938,-0.8104876279830933,0.5857557654380798],"max":[0.5196682214736938,0.3477269411087036,0.9909269213676453],"type":"VEC3","bufferView":1,"byteOffset":11640},{"name":"polygon2_1_0_texcoords","componentType":5126,"count":14,"min":[0.1675419956445694,0.0028379999566823244],"max":[0.8895869851112366,0.24603299796581268],"type":"VEC2","bufferView":2,"byteOffset":7760},{"name":"polygon2_1_0_indices","componentType":5123,"count":42,"min":[0],"max":[13],"type":"SCALAR","bufferView":3,"byteOffset":9180}],"asset":{"generator":"obj2gltf","version":"2.0"},"buffers":[{"name":"Eevee","byteLength":384872,"uri":"data:application/octet-stream;base64,"}],"bufferViews":[{"name":"bufferView_0","buffer":0,"byteLength":11808,"byteOffset":0,"byteStride":12,"target":34962},{"name":"bufferView_1","buffer":0,"byteLength":11808,"byteOffset":11808,"byteStride":12,"target":34962},{"name":"bufferView_2","buffer":0,"byteLength":7872,"byteOffset":23616,"byteStride":8,"target":34962},{"name":"bufferView_3","buffer":0,"byteLength":9264,"byteOffset":31488,"target":34963},{"buffer":0,"byteOffset":40752,"byteLength":98322},{"buffer":0,"byteOffset":139074,"byteLength":196626},{"buffer":0,"byteOffset":335700,"byteLength":49170}],"images":[{"name":"EievuiEyeDh","mimeType":"image/x-tga","bufferView":4},{"name":"EievuiDh","mimeType":"image/x-tga","bufferView":5},{"name":"EievuiMouthDh","mimeType":"image/x-tga","bufferView":6}],"materials":[{"name":"mat2","pbrMetallicRoughness":{"baseColorTexture":{"index":0},"baseColorFactor":[1,1,1,1],"metallicFactor":0,"roughnessFactor":0.99},"emissiveFactor":[0,0,0],"alphaMode":"OPAQUE","doubleSided":false},{"name":"mat1","pbrMetallicRoughness":{"baseColorTexture":{"index":1},"baseColorFactor":[1,1,1,1],"metallicFactor":0,"roughnessFactor":0.99},"emissiveFactor":[0,0,0],"alphaMode":"OPAQUE","doubleSided":false},{"name":"mat3","pbrMetallicRoughness":{"baseColorTexture":{"index":2},"baseColorFactor":[1,1,1,1],"metallicFactor":0,"roughnessFactor":0.99},"emissiveFactor":[0,0,0],"alphaMode":"OPAQUE","doubleSided":false}],"meshes":[{"name":"polygon0_1","primitives":[{"attributes":{"POSITION":0,"NORMAL":1,"TEXCOORD_0":2},"indices":3,"material":0,"mode":4}]},{"name":"polygon1_1","primitives":[{"attributes":{"POSITION":4,"NORMAL":5,"TEXCOORD_0":6},"indices":7,"material":1,"mode":4}]},{"name":"polygon2_1","primitives":[{"attributes":{"POSITION":8,"NORMAL":9,"TEXCOORD_0":10},"indices":11,"material":2,"mode":4}]}],"nodes":[{"name":"polygon0","mesh":0},{"name":"polygon1","mesh":1},{"name":"polygon2","mesh":2}],"samplers":[{"wrapS":10497,"wrapT":10497}],"scene":0,"scenes":[{"nodes":[0,1,2]}],"textures":[{"name":"EievuiEyeDh","sampler":0,"source":0},{"name":"EievuiDh","sampler":0,"source":1},{"name":"EievuiMouthDh","sampler":0,"source":2}]}