{"accessors":[{"name":"Eevee_1_0_positions","componentType":5126,"count":14454,"min":[-21.555904388427734,0.013507000170648098,-30.490774154663086],"max":[21.5559024810791,36.11349868774414,17.17919921875],"type":"VEC3","bufferView":0,"byteOffset":0},{"name":"Eevee_1_0_normals","componentType":5126,"count":14454,"min":[-0.9949150085449219,-1,-0.9919668436050415],"max":[0.9949150085449219,0.9999946355819702,0.9995680451393127],"type":"VEC3","bufferView":1,"byteOffset":0},{"name":"Eevee_1_0_texcoords","componentType":5126,"count":14454,"min":[0,0.010610999539494514],"max":[1,0.992214024066925],"type":"VEC2","bufferView":2,"byteOffset":0},{"name":"Eevee_1_0_indices","componentType":5123,"count":14454,"min":[0],"max":[14453],"type":"SCALAR","bufferView":3,"byteOffset":0},{"name":"Eevee_1_1_positions","componentType":5126,"count":240,"min":[-6.755390167236328,19.397598266601562,11.359103202819824],"max":[6.755390167236328,26.084197998046875,16.703800201416016],"type":"VEC3","bufferView":0,"byteOffset":173448},{"name":"Eevee_1_1_normals","componentType":5126,"count":240,"min":[-0.9561622142791748,-0.9161362051963806,-0.9246088266372681],"max":[0.9561627507209778,-0.04139801487326622,0.7666253447532654],"type":"VEC3","bufferView":1,"byteOffset":173448},{"name":"Eevee_1_1_texcoords","componentType":5126,"count":240,"min":[0.013891000300645828,-0.9770699739456177],"max":[0.48611000180244446,-0.7661100029945374],"type":"VEC2","bufferView":2,"byteOffset":115632},{"name":"Eevee_1_1_indices","componentType":5123,"count":240,"min":[0],"max":[239],"type":"SCALAR","bufferView":3,"byteOffset":28908},{"name":"Eevee_1_2_positions","componentType":5126,"count":108,"min":[-2.738909959793091,16.118898391723633,14.843701362609863],"max":[2.738909959793091,20.2825984954834,17.15519905090332],"type":"VEC3","bufferView":0,"byteOffset":176328},{"name":"Eevee_1_2_normals","componentType":5126,"count":108,"min":[-0.9572733640670776,-0.8808339238166809,-0.7570989727973938],"max":[0.47198495268821716,0.07010599225759506,0.9995680451393127],"type":"VEC3","bufferView":1,"byteOffset":176328},{"name":"Eevee_1_2_texcoords","componentType":5126,"count":108,"min":[0.01853499934077263,-1.98471999168396],"max":[0.481469988822937,-1.773360013961792],"type":"VEC2","bufferView":2,"byteOffset":117552},{"name":"Eevee_1_2_indices","componentType":5123,"count":108,"min":[0],"max":[107],"type":"SCALAR","bufferView":3,"byteOffset":29388}],"asset":{"generator":"obj2gltf","version":"2.0"},"buffers":[{"name":"XY_Eevee","byteLength":604364,"uri":"data:application/octet-stream;base64,"}],"bufferViews":[{"name":"bufferView_0","buffer":0,"byteLength":177624,"byteOffset":0,"byteStride":12,"target":34962},{"name":"bufferView_1","buffer":0,"byteLength":177624,"byteOffset":177624,"byteStride":12,"target":34962},{"name":"bufferView_2","buffer":0,"byteLength":118416,"byteOffset":355248,"byteStride":8,"target":34962},{"name":"bufferView_3","buffer":0,"byteLength":29604,"byteOffset":473664,"target":34963},{"buffer":0,"byteOffset":503268,"byteLength":61299},{"buffer":0,"byteOffset":564567,"byteLength":30211},{"buffer":0,"byteOffset":594778,"byteLength":9583}],"images":[{"name":"pm0133_00_Body1","mimeType":"image/png","bufferView":4},{"name":"pm0133_00_Eye1","mimeType":"image/png","bufferView":5},{"name":"pm0133_00_Mouth1","mimeType":"image/png","bufferView":6}],"materials":[{"name":"Material__12","pbrMetallicRoughness":{"baseColorTexture":{"index":0},"baseColorFactor":[1,1,1,1],"metallicFactor":0,"roughnessFactor":0.998},"emissiveFactor":[0,0,0],"alphaMode":"OPAQUE","doubleSided":false},{"name":"Material__13","pbrMetallicRoughness":{"baseColorTexture":{"index":1},"baseColorFactor":[1,1,1,1],"metallicFactor":0,"roughnessFactor":0.998},"emissiveFactor":[0,0,0],"alphaMode":"OPAQUE","doubleSided":false},{"name":"Material__14","pbrMetallicRoughness":{"baseColorTexture":{"index":2},"baseColorFactor":[1,1,1,1],"metallicFactor":0,"roughnessFactor":0.998},"emissiveFactor":[0,0,0],"alphaMode":"OPAQUE","doubleSided":false}],"meshes":[{"name":"Eevee_1","primitives":[{"attributes":{"POSITION":0,"NORMAL":1,"TEXCOORD_0":2},"indices":3,"material":0,"mode":4},{"attributes":{"POSITION":4,"NORMAL":5,"TEXCOORD_0":6},"indices":7,"material":1,"mode":4},{"attributes":{"POSITION":8,"NORMAL":9,"TEXCOORD_0":10},"indices":11,"material":2,"mode":4}]}],"nodes":[{"name":"Eevee","mesh":0}],"samplers":[{"wrapS":10497,"wrapT":10497}],"scene":0,"scenes":[{"nodes":[0]}],"textures":[{"name":"pm0133_00_Body1","sampler":0,"source":0},{"name":"pm0133_00_Eye1","sampler":0,"source":1},{"name":"pm0133_00_Mouth1","sampler":0,"source":2}]}