{"accessors":[{"name":"polygon0_1_0_positions","componentType":5126,"count":32,"min":[-0.3642599880695343,3.5618178844451904,5.135512828826904],"max":[0.3642599880695343,4.226231098175049,5.676736831665039],"type":"VEC3","bufferView":0,"byteOffset":0},{"name":"polygon0_1_0_normals","componentType":5126,"count":32,"min":[-0.6431382894515991,-0.8802192807197571,0.4684341847896576],"max":[0.6431160569190979,0.21575701236724854,0.9981979727745056],"type":"VEC3","bufferView":1,"byteOffset":0},{"name":"polygon0_1_0_texcoords","componentType":5126,"count":32,"min":[0.05029299855232239,0.017883000895380974],"max":[0.9719240069389343,0.23422199487686157],"type":"VEC2","bufferView":2,"byteOffset":0},{"name":"polygon0_1_0_indices","componentType":5123,"count":138,"min":[0],"max":[31],"type":"SCALAR","bufferView":3,"byteOffset":0},{"name":"polygon1_1_0_positions","componentType":5126,"count":30,"min":[-1.1635589599609375,4.211545944213867,4.505178928375244],"max":[1.1635600328445435,5.118924140930176,5.495954990386963],"type":"VEC3","bufferView":0,"byteOffset":384},{"name":"polygon1_1_0_normals","componentType":5126,"count":30,"min":[-0.9506857395172119,-0.041788991540670395,0.310123085975647],"max":[0.9506862759590149,0.2833690941333771,0.9691327810287476],"type":"VEC3","bufferView":1,"byteOffset":384},{"name":"polygon1_1_0_texcoords","componentType":5126,"count":30,"min":[0.015625,0.0078119998797774315],"max":[0.4921880066394806,0.25],"type":"VEC2","bufferView":2,"byteOffset":256},{"name":"polygon1_1_0_indices","componentType":5123,"count":84,"min":[0],"max":[29],"type":"SCALAR","bufferView":3,"byteOffset":276},{"name":"polygon2_1_0_positions","componentType":5126,"count":56,"min":[0,4.033073902130127,-10.553549766540527],"max":[0.007021000143140554,5.198544025421143,2.7540810108184814],"type":"VEC3","bufferView":0,"byteOffset":744},{"name":"polygon2_1_0_normals","componentType":5126,"count":56,"min":[-0.9999999403953552,-0.0007930003339424729,-0.012512004934251308],"max":[1,0.0007930003339424729,0.012512004934251308],"type":"VEC3","bufferView":1,"byteOffset":744},{"name":"polygon2_1_0_texcoords","componentType":5126,"count":56,"min":[0.1458439975976944,0.02889999933540821],"max":[0.9916380047798157,0.9750059843063354],"type":"VEC2","bufferView":2,"byteOffset":496},{"name":"polygon2_1_0_indices","componentType":5123,"count":144,"min":[0],"max":[55],"type":"SCALAR","bufferView":3,"byteOffset":444},{"name":"polygon3_1_0_positions","componentType":5126,"count":1010,"min":[-3.5203120708465576,-9.999999974752427e-7,-12.471501350402832],"max":[3.520313024520874,8.833072662353516,5.676736831665039],"type":"VEC3","bufferView":0,"byteOffset":1416},{"name":"polygon3_1_0_normals","componentType":5126,"count":1010,"min":[-0.9999929070472717,-1,-0.9922378063201904],"max":[0.9999929070472717,0.9998400807380676,0.9996991753578186],"type":"VEC3","bufferView":1,"byteOffset":1416},{"name":"polygon3_1_0_texcoords","componentType":5126,"count":1010,"min":[0.007323999889194965,0.007263000123202801],"max":[0.9874569773674011,0.9969789981842041],"type":"VEC2","bufferView":2,"byteOffset":944},{"name":"polygon3_1_0_indices","componentType":5123,"count":4386,"min":[0],"max":[1009],"type":"SCALAR","bufferView":3,"byteOffset":732}],"asset":{"generator":"obj2gltf","version":"2.0"},"buffers":[{"name":"Vaporeon","byteLength":258664,"uri":"data:application/octet-stream;base64,"}],"bufferViews":[{"name":"bufferView_0","buffer":0,"byteLength":13536,"byteOffset":0,"byteStride":12,"target":34962},{"name":"bufferView_1","buffer":0,"byteLength":13536,"byteOffset":13536,"byteStride":12,"target":34962},{"name":"bufferView_2","buffer":0,"byteLength":9024,"byteOffset":27072,"byteStride":8,"target":34962},{"name":"bufferView_3","buffer":0,"byteLength":9504,"byteOffset":36096,"target":34963},{"buffer":0,"byteOffset":45600,"byteLength":49170},{"buffer":0,"byteOffset":94770,"byteLength":98322},{"buffer":0,"byteOffset":193092,"byteLength":16402},{"buffer":0,"byteOffset":209494,"byteLength":49170}],"images":[{"name":"ShowersMouthDh","mimeType":"image/x-tga","bufferView":4},{"name":"ShowersEyeDh","mimeType":"image/x-tga","bufferView":5},{"name":"ShowersFilletDh","mimeType":"image/x-tga","bufferView":6},{"name":"ShowersDh","mimeType":"image/x-tga","bufferView":7}],"materials":[{"name":"mat4","pbrMetallicRoughness":{"baseColorTexture":{"index":0},"baseColorFactor":[1,1,1,1],"metallicFactor":0,"roughnessFactor":0.99},"emissiveFactor":[0,0,0],"alphaMode":"OPAQUE","doubleSided":false},{"name":"mat2","pbrMetallicRoughness":{"baseColorTexture":{"index":1},"baseColorFactor":[1,1,1,1],"metallicFactor":0,"roughnessFactor":0.99},"emissiveFactor":[0,0,0],"alphaMode":"OPAQUE","doubleSided":false},{"name":"mat3","pbrMetallicRoughness":{"baseColorTexture":{"index":2},"baseColorFactor":[1,1,1,1],"metallicFactor":0,"roughnessFactor":0.99},"emissiveFactor":[0,0,0],"alphaMode":"OPAQUE","doubleSided":false},{"name":"mat1","pbrMetallicRoughness":{"baseColorTexture":{"index":3},"baseColorFactor":[1,1,1,1],"metallicFactor":0,"roughnessFactor":0.99},"emissiveFactor":[0,0,0],"alphaMode":"OPAQUE","doubleSided":false}],"meshes":[{"name":"polygon0_1","primitives":[{"attributes":{"POSITION":0,"NORMAL":1,"TEXCOORD_0":2},"indices":3,"material":0,"mode":4}]},{"name":"polygon1_1","primitives":[{"attributes":{"POSITION":4,"NORMAL":5,"TEXCOORD_0":6},"indices":7,"material":1,"mode":4}]},{"name":"polygon2_1","primitives":[{"attributes":{"POSITION":8,"NORMAL":9,"TEXCOORD_0":10},"indices":11,"material":2,"mode":4}]},{"name":"polygon3_1","primitives":[{"attributes":{"POSITION":12,"NORMAL":13,"TEXCOORD_0":14},"indices":15,"material":3,"mode":4}]}],"nodes":[{"name":"polygon0","mesh":0},{"name":"polygon1","mesh":1},{"name":"polygon2","mesh":2},{"name":"polygon3","mesh":3}],"samplers":[{"wrapS":10497,"wrapT":10497}],"scene":0,"scenes":[{"nodes":[0,1,2,3]}],"textures":[{"name":"ShowersMouthDh","sampler":0,"source":0},{"name":"ShowersEyeDh","sampler":0,"source":1},{"name":"ShowersFilletDh","sampler":0,"source":2},{"name":"ShowersDh","sampler":0,"source":3}]}