{"accessors":[{"name":"polygon0_1_0_positions","componentType":5126,"count":988,"min":[-2.5531020164489746,-0.0021200000774115324,-3.468709945678711],"max":[2.5531020164489746,7.584458827972412,4.6029372215271],"type":"VEC3","bufferView":0,"byteOffset":0},{"name":"polygon0_1_0_normals","componentType":5126,"count":988,"min":[-0.998076319694519,-0.9999921321868896,-0.9992860555648804],"max":[0.998076319694519,0.9998881816864014,0.9998987317085266],"type":"VEC3","bufferView":1,"byteOffset":0},{"name":"polygon0_1_0_texcoords","componentType":5126,"count":988,"min":[0.004395000170916319,0.004120000172406435],"max":[0.9971010088920593,0.9948729872703552],"type":"VEC2","bufferView":2,"byteOffset":0},{"name":"polygon0_1_0_indices","componentType":5123,"count":4572,"min":[0],"max":[987],"type":"SCALAR","bufferView":3,"byteOffset":0},{"name":"polygon1_1_0_positions","componentType":5126,"count":24,"min":[-0.9104470014572144,4.499884128570557,3.2711470127105713],"max":[0.9104470014572144,5.15544319152832,4.178407192230225],"type":"VEC3","bufferView":0,"byteOffset":11856},{"name":"polygon1_1_0_normals","componentType":5126,"count":24,"min":[-0.9223549365997314,0.053647980093955994,0.37194496393203735],"max":[0.9223549365997314,0.41759201884269714,0.7290446162223816],"type":"VEC3","bufferView":1,"byteOffset":11856},{"name":"polygon1_1_0_texcoords","componentType":5126,"count":24,"min":[0.007813000120222569,0.03125],"max":[0.4882810115814209,0.1875],"type":"VEC2","bufferView":2,"byteOffset":7904},{"name":"polygon1_1_0_indices","componentType":5123,"count":72,"min":[0],"max":[23],"type":"SCALAR","bufferView":3,"byteOffset":9144}],"asset":{"generator":"obj2gltf","version":"2.0"},"buffers":[{"name":"Jolteon","byteLength":336620,"uri":"data:application/octet-stream;base64,"}],"bufferViews":[{"name":"bufferView_0","buffer":0,"byteLength":12144,"byteOffset":0,"byteStride":12,"target":34962},{"name":"bufferView_1","buffer":0,"byteLength":12144,"byteOffset":12144,"byteStride":12,"target":34962},{"name":"bufferView_2","buffer":0,"byteLength":8096,"byteOffset":24288,"byteStride":8,"target":34962},{"name":"bufferView_3","buffer":0,"byteLength":9288,"byteOffset":32384,"target":34963},{"buffer":0,"byteOffset":41672,"byteLength":196626},{"buffer":0,"byteOffset":238298,"byteLength":98322}],"images":[{"name":"ThundersDh","mimeType":"image/x-tga","bufferView":4},{"name":"ThundersEyeDh","mimeType":"image/x-tga","bufferView":5}],"materials":[{"name":"mat1","pbrMetallicRoughness":{"baseColorTexture":{"index":0},"baseColorFactor":[1,1,1,1],"metallicFactor":0,"roughnessFactor":0.99},"emissiveFactor":[0,0,0],"alphaMode":"OPAQUE","doubleSided":false},{"name":"mat2","pbrMetallicRoughness":{"baseColorTexture":{"index":1},"baseColorFactor":[1,1,1,1],"metallicFactor":0,"roughnessFactor":0.99},"emissiveFactor":[0,0,0],"alphaMode":"OPAQUE","doubleSided":false}],"meshes":[{"name":"polygon0_1","primitives":[{"attributes":{"POSITION":0,"NORMAL":1,"TEXCOORD_0":2},"indices":3,"material":0,"mode":4}]},{"name":"polygon1_1","primitives":[{"attributes":{"POSITION":4,"NORMAL":5,"TEXCOORD_0":6},"indices":7,"material":1,"mode":4}]}],"nodes":[{"name":"polygon0","mesh":0},{"name":"polygon1","mesh":1}],"samplers":[{"wrapS":10497,"wrapT":10497}],"scene":0,"scenes":[{"nodes":[0,1]}],"textures":[{"name":"ThundersDh","sampler":0,"source":0},{"name":"ThundersEyeDh","sampler":0,"source":1}]}