{"accessors":[{"name":"polygon0_1_0_positions","componentType":5126,"count":922,"min":[-3.3747739791870117,-0.000003000000106112566,-3.728100061416626],"max":[3.4254260063171387,12.710127830505371,6.153225898742676],"type":"VEC3","bufferView":0,"byteOffset":0},{"name":"polygon0_1_0_normals","componentType":5126,"count":922,"min":[-0.9994797110557556,-1,-0.9996929168701172],"max":[0.9994797110557556,0.9997380375862122,0.9999597668647766],"type":"VEC3","bufferView":1,"byteOffset":0},{"name":"polygon0_1_0_texcoords","componentType":5126,"count":922,"min":[0.014038000255823135,0.010955999605357647],"max":[0.9971920251846313,0.9858090281486511],"type":"VEC2","bufferView":2,"byteOffset":0},{"name":"polygon0_1_0_indices","componentType":5123,"count":4668,"min":[0],"max":[921],"type":"SCALAR","bufferView":3,"byteOffset":0},{"name":"polygon1_1_0_positions","componentType":5126,"count":20,"min":[-0.8005779981613159,3.1889240741729736,5.174193859100342],"max":[0.8005779981613159,3.831594944000244,6.128199100494385],"type":"VEC3","bufferView":0,"byteOffset":11064},{"name":"polygon1_1_0_normals","componentType":5126,"count":20,"min":[-0.6530881524085999,-0.9340607523918152,0.25408297777175903],"max":[0.6530881524085999,-0.14453403651714325,0.943008303642273],"type":"VEC3","bufferView":1,"byteOffset":11064},{"name":"polygon1_1_0_texcoords","componentType":5126,"count":20,"min":[-1.8299560546875,0.012085000053048134],"max":[-1.1727290153503418,0.2340089976787567],"type":"VEC2","bufferView":2,"byteOffset":7376},{"name":"polygon1_1_0_indices","componentType":5123,"count":72,"min":[0],"max":[19],"type":"SCALAR","bufferView":3,"byteOffset":9336},{"name":"polygon2_1_0_positions","componentType":5126,"count":28,"min":[-1.2671560049057007,3.9967079162597656,4.8654608726501465],"max":[1.2671560049057007,5.210039138793945,5.869416236877441],"type":"VEC3","bufferView":0,"byteOffset":11304},{"name":"polygon2_1_0_normals","componentType":5126,"count":28,"min":[-0.8801842927932739,0.08825596421957016,0.4190041422843933],"max":[0.8801842927932739,0.6433669328689575,0.9784506559371948],"type":"VEC3","bufferView":1,"byteOffset":11304},{"name":"polygon2_1_0_texcoords","componentType":5126,"count":28,"min":[-0.9833369851112366,0.023375999182462692],"max":[-0.5132449865341187,0.2095949947834015],"type":"VEC2","bufferView":2,"byteOffset":7536},{"name":"polygon2_1_0_indices","componentType":5123,"count":108,"min":[0],"max":[27],"type":"SCALAR","bufferView":3,"byteOffset":9480}],"asset":{"generator":"obj2gltf","version":"2.0"},"buffers":[{"name":"Flareon","byteLength":384856,"uri":"data:application/octet-stream;base64,"}],"bufferViews":[{"name":"bufferView_0","buffer":0,"byteLength":11640,"byteOffset":0,"byteStride":12,"target":34962},{"name":"bufferView_1","buffer":0,"byteLength":11640,"byteOffset":11640,"byteStride":12,"target":34962},{"name":"bufferView_2","buffer":0,"byteLength":7760,"byteOffset":23280,"byteStride":8,"target":34962},{"name":"bufferView_3","buffer":0,"byteLength":9696,"byteOffset":31040,"target":34963},{"buffer":0,"byteOffset":40736,"byteLength":196626},{"buffer":0,"byteOffset":237362,"byteLength":49170},{"buffer":0,"byteOffset":286532,"byteLength":98322}],"images":[{"name":"BoosterDh","mimeType":"image/x-tga","bufferView":4},{"name":"BoosterMoutheDh","mimeType":"image/x-tga","bufferView":5},{"name":"BoosterEyeDh","mimeType":"image/x-tga","bufferView":6}],"materials":[{"name":"mat1","pbrMetallicRoughness":{"baseColorTexture":{"index":0},"baseColorFactor":[1,1,1,1],"metallicFactor":0,"roughnessFactor":0.99},"emissiveFactor":[0,0,0],"alphaMode":"OPAQUE","doubleSided":false},{"name":"mat3","pbrMetallicRoughness":{"baseColorTexture":{"index":1},"baseColorFactor":[1,1,1,1],"metallicFactor":0,"roughnessFactor":0.99},"emissiveFactor":[0,0,0],"alphaMode":"OPAQUE","doubleSided":false},{"name":"mat2","pbrMetallicRoughness":{"baseColorTexture":{"index":2},"baseColorFactor":[1,1,1,1],"metallicFactor":0,"roughnessFactor":0.99},"emissiveFactor":[0,0,0],"alphaMode":"OPAQUE","doubleSided":false}],"meshes":[{"name":"polygon0_1","primitives":[{"attributes":{"POSITION":0,"NORMAL":1,"TEXCOORD_0":2},"indices":3,"material":0,"mode":4}]},{"name":"polygon1_1","primitives":[{"attributes":{"POSITION":4,"NORMAL":5,"TEXCOORD_0":6},"indices":7,"material":1,"mode":4}]},{"name":"polygon2_1","primitives":[{"attributes":{"POSITION":8,"NORMAL":9,"TEXCOORD_0":10},"indices":11,"material":2,"mode":4}]}],"nodes":[{"name":"polygon0","mesh":0},{"name":"polygon1","mesh":1},{"name":"polygon2","mesh":2}],"samplers":[{"wrapS":10497,"wrapT":10497}],"scene":0,"scenes":[{"nodes":[0,1,2]}],"textures":[{"name":"BoosterDh","sampler":0,"source":0},{"name":"BoosterMoutheDh","sampler":0,"source":1},{"name":"BoosterEyeDh","sampler":0,"source":2}]}