{"accessors":[{"name":"Porygon_1_0_positions","componentType":5126,"count":534,"min":[-39.63869857788086,-0.000007000000096013537,-78.4573974609375],"max":[39.63869857788086,80,50.90919494628906],"type":"VEC3","bufferView":0,"byteOffset":0},{"name":"Porygon_1_0_normals","componentType":5126,"count":534,"min":[-0.930809736251831,-0.9000566601753235,-0.9998737573623657],"max":[0.930809736251831,0.9987573027610779,0.7276563048362732],"type":"VEC3","bufferView":1,"byteOffset":0},{"name":"Porygon_1_0_texcoords","componentType":5126,"count":534,"min":[0.007813000120222569,0.015625],"max":[0.9921879768371582,0.9888179898262024],"type":"VEC2","bufferView":2,"byteOffset":0},{"name":"Porygon_1_0_indices","componentType":5123,"count":534,"min":[0],"max":[533],"type":"SCALAR","bufferView":3,"byteOffset":0},{"name":"Porygon_1_1_positions","componentType":5126,"count":24,"min":[-17.74370002746582,57.98509216308594,3.021851062774658],"max":[17.74370002746582,75.83470153808594,24.643295288085938],"type":"VEC3","bufferView":0,"byteOffset":6408},{"name":"Porygon_1_1_normals","componentType":5126,"count":24,"min":[-0.4851539731025696,-0.9000566601753235,-0.7209096550941467],"max":[0.930809736251831,0.9987573027610779,0.7110969424247742],"type":"VEC3","bufferView":1,"byteOffset":6408},{"name":"Porygon_1_1_texcoords","componentType":5126,"count":24,"min":[0.008848999626934528,-0.9792100191116333],"max":[0.49114999175071716,-0.779009997844696],"type":"VEC2","bufferView":2,"byteOffset":4272},{"name":"Porygon_1_1_indices","componentType":5123,"count":24,"min":[0],"max":[23],"type":"SCALAR","bufferView":3,"byteOffset":1068}],"asset":{"generator":"obj2gltf","version":"2.0"},"buffers":[{"name":"XY_Porygon","byteLength":80608,"uri":"data:application/octet-stream;base64,"}],"bufferViews":[{"name":"bufferView_0","buffer":0,"byteLength":6696,"byteOffset":0,"byteStride":12,"target":34962},{"name":"bufferView_1","buffer":0,"byteLength":6696,"byteOffset":6696,"byteStride":12,"target":34962},{"name":"bufferView_2","buffer":0,"byteLength":4464,"byteOffset":13392,"byteStride":8,"target":34962},{"name":"bufferView_3","buffer":0,"byteLength":1116,"byteOffset":17856,"target":34963},{"buffer":0,"byteOffset":18972,"byteLength":34217},{"buffer":0,"byteOffset":53189,"byteLength":27416}],"images":[{"name":"pm0137_00_Body1","mimeType":"image/png","bufferView":4},{"name":"pm0137_00_Eye1","mimeType":"image/png","bufferView":5}],"materials":[{"name":"Material__114","pbrMetallicRoughness":{"baseColorTexture":{"index":0},"baseColorFactor":[1,1,1,1],"metallicFactor":0,"roughnessFactor":0.998},"emissiveFactor":[0,0,0],"alphaMode":"OPAQUE","doubleSided":false},{"name":"Material__115","pbrMetallicRoughness":{"baseColorTexture":{"index":1},"baseColorFactor":[1,1,1,1],"metallicFactor":0,"roughnessFactor":0.998},"emissiveFactor":[0,0,0],"alphaMode":"OPAQUE","doubleSided":false}],"meshes":[{"name":"Porygon_1","primitives":[{"attributes":{"POSITION":0,"NORMAL":1,"TEXCOORD_0":2},"indices":3,"material":0,"mode":4},{"attributes":{"POSITION":4,"NORMAL":5,"TEXCOORD_0":6},"indices":7,"material":1,"mode":4}]}],"nodes":[{"name":"Porygon","mesh":0}],"samplers":[{"wrapS":10497,"wrapT":10497}],"scene":0,"scenes":[{"nodes":[0]}],"textures":[{"name":"pm0137_00_Body1","sampler":0,"source":0},{"name":"pm0137_00_Eye1","sampler":0,"source":1}]}