{"accessors":[{"name":"porygon_c-Mesh_0_positions","componentType":5126,"count":14,"min":[-2.4198930263519287,0.7432609796524048,-2.1733899116516113],"max":[2.2764270305633545,2.4714701175689697,1.9999699592590332],"type":"VEC3","bufferView":0,"byteOffset":0},{"name":"porygon_c-Mesh_0_texcoords","componentType":5126,"count":14,"min":[0,1],"max":[0,1],"type":"VEC2","bufferView":1,"byteOffset":0},{"name":"porygon_c-Mesh_0_indices","componentType":5123,"count":18,"min":[0],"max":[13],"type":"SCALAR","bufferView":2,"byteOffset":0},{"name":"porygon_c-Mesh_1_positions","componentType":5126,"count":42,"min":[-2.4198930263519287,-2.932379961013794,-2.6641499996185303],"max":[2.2764270305633545,2.4714701175689697,1.9999699592590332],"type":"VEC3","bufferView":0,"byteOffset":168},{"name":"porygon_c-Mesh_1_texcoords","componentType":5126,"count":42,"min":[0,1],"max":[0,1],"type":"VEC2","bufferView":1,"byteOffset":112},{"name":"porygon_c-Mesh_1_indices","componentType":5123,"count":78,"min":[0],"max":[41],"type":"SCALAR","bufferView":2,"byteOffset":36}],"asset":{"generator":"obj2gltf","version":"2.0"},"buffers":[{"name":"BR_Porygon-Shiny01","byteLength":9540,"uri":"data:application/octet-stream;base64,"}],"bufferViews":[{"name":"bufferView_0","buffer":0,"byteLength":672,"byteOffset":0,"byteStride":12,"target":34962},{"name":"bufferView_1","buffer":0,"byteLength":448,"byteOffset":672,"byteStride":8,"target":34962},{"name":"bufferView_2","buffer":0,"byteLength":192,"byteOffset":1120,"target":34963},{"buffer":0,"byteOffset":1312,"byteLength":4114},{"buffer":0,"byteOffset":5426,"byteLength":4114}],"images":[{"name":"porygon_c_1_0","mimeType":"image/x-tga","bufferView":3},{"name":"porygon_c_1_1","mimeType":"image/x-tga","bufferView":4}],"materials":[{"name":"mat_0","pbrMetallicRoughness":{"baseColorTexture":{"index":0},"baseColorFactor":[1,1,1,1],"metallicFactor":0,"roughnessFactor":0.903921569},"emissiveFactor":[0,0,0],"alphaMode":"BLEND","doubleSided":true},{"name":"mat_1","pbrMetallicRoughness":{"baseColorTexture":{"index":1},"baseColorFactor":[1,1,1,1],"metallicFactor":0,"roughnessFactor":0.903921569},"emissiveFactor":[0,0,0],"alphaMode":"BLEND","doubleSided":true}],"meshes":[{"name":"porygon_c-Mesh","primitives":[{"attributes":{"POSITION":0,"TEXCOORD_0":1},"indices":2,"material":0,"mode":4},{"attributes":{"POSITION":3,"TEXCOORD_0":4},"indices":5,"material":1,"mode":4}]}],"nodes":[{"name":"porygon_c","mesh":0}],"samplers":[{"wrapS":10497,"wrapT":10497}],"scene":0,"scenes":[{"nodes":[0]}],"textures":[{"name":"porygon_c_1_0","sampler":0,"source":0},{"name":"porygon_c_1_1","sampler":0,"source":1}]}