{"accessors":[{"name":"Omanyte_1_0_positions","componentType":5126,"count":984,"min":[-8.135669708251953,6.020310878753662,25.158098220825195],"max":[8.135669708251953,12.728700637817383,29.114097595214844],"type":"VEC3","bufferView":0,"byteOffset":0},{"name":"Omanyte_1_0_normals","componentType":5126,"count":984,"min":[-0.8491525650024414,-0.299019992351532,-0.9119753241539001],"max":[0.7205178737640381,0.9846808314323425,0.999615490436554],"type":"VEC3","bufferView":1,"byteOffset":0},{"name":"Omanyte_1_0_texcoords","componentType":5126,"count":984,"min":[0.004315999802201986,-0.9752500057220459],"max":[0.4956800043582916,-0.7747499942779541],"type":"VEC2","bufferView":2,"byteOffset":0},{"name":"Omanyte_1_0_indices","componentType":5123,"count":984,"min":[0],"max":[983],"type":"SCALAR","bufferView":3,"byteOffset":0},{"name":"Omanyte_1_1_positions","componentType":5126,"count":13314,"min":[-21.020998001098633,-3.524651050567627,-18.018102645874023],"max":[21.020999908447266,40.07359313964844,29.33660316467285],"type":"VEC3","bufferView":0,"byteOffset":11808},{"name":"Omanyte_1_1_normals","componentType":5126,"count":13314,"min":[-0.9997278451919556,-0.997090220451355,-0.9824052453041077],"max":[0.9997278451919556,0.9846808314323425,0.999615490436554],"type":"VEC3","bufferView":1,"byteOffset":11808},{"name":"Omanyte_1_1_texcoords","componentType":5126,"count":13314,"min":[0,0.005169000010937452],"max":[1,0.9953370094299316],"type":"VEC2","bufferView":2,"byteOffset":7872},{"name":"Omanyte_1_1_indices","componentType":5123,"count":13314,"min":[0],"max":[13313],"type":"SCALAR","bufferView":3,"byteOffset":1968}],"asset":{"generator":"obj2gltf","version":"2.0"},"buffers":[{"name":"XY_Omanyte","byteLength":572632,"uri":"data:application/octet-stream;base64,"}],"bufferViews":[{"name":"bufferView_0","buffer":0,"byteLength":171576,"byteOffset":0,"byteStride":12,"target":34962},{"name":"bufferView_1","buffer":0,"byteLength":171576,"byteOffset":171576,"byteStride":12,"target":34962},{"name":"bufferView_2","buffer":0,"byteLength":114384,"byteOffset":343152,"byteStride":8,"target":34962},{"name":"bufferView_3","buffer":0,"byteLength":28596,"byteOffset":457536,"target":34963},{"buffer":0,"byteOffset":486132,"byteLength":23618},{"buffer":0,"byteOffset":509750,"byteLength":62882}],"images":[{"name":"pm0138_00_Eye1","mimeType":"image/png","bufferView":4},{"name":"pm0138_00_Body1","mimeType":"image/png","bufferView":5}],"materials":[{"name":"Material__10","pbrMetallicRoughness":{"baseColorTexture":{"index":0},"baseColorFactor":[1,1,1,1],"metallicFactor":0,"roughnessFactor":0.998},"emissiveFactor":[0,0,0],"alphaMode":"OPAQUE","doubleSided":false},{"name":"Material__11","pbrMetallicRoughness":{"baseColorTexture":{"index":1},"baseColorFactor":[1,1,1,1],"metallicFactor":0,"roughnessFactor":0.998},"emissiveFactor":[0,0,0],"alphaMode":"OPAQUE","doubleSided":false}],"meshes":[{"name":"Omanyte_1","primitives":[{"attributes":{"POSITION":0,"NORMAL":1,"TEXCOORD_0":2},"indices":3,"material":0,"mode":4},{"attributes":{"POSITION":4,"NORMAL":5,"TEXCOORD_0":6},"indices":7,"material":1,"mode":4}]}],"nodes":[{"name":"Omanyte","mesh":0}],"samplers":[{"wrapS":10497,"wrapT":10497}],"scene":0,"scenes":[{"nodes":[0]}],"textures":[{"name":"pm0138_00_Eye1","sampler":0,"source":0},{"name":"pm0138_00_Body1","sampler":0,"source":1}]}