{"accessors":[{"name":"omnite-Mesh_0_positions","componentType":5126,"count":102,"min":[-1.0558700561523438,-0.7615230083465576,-2.2782199382781982],"max":[1.0555000305175781,2.64697003364563,-0.08313799649477005],"type":"VEC3","bufferView":0,"byteOffset":0},{"name":"omnite-Mesh_0_texcoords","componentType":5126,"count":102,"min":[0.1447090059518814,0.4042919874191284],"max":[0.844245970249176,0.9783689975738525],"type":"VEC2","bufferView":1,"byteOffset":0},{"name":"omnite-Mesh_0_indices","componentType":5123,"count":378,"min":[0],"max":[101],"type":"SCALAR","bufferView":2,"byteOffset":0},{"name":"omnite-Mesh_1_positions","componentType":5126,"count":292,"min":[-0.8603670001029968,-1.7353700399398804,-3.8241000175476074],"max":[0.8603670001029968,2.3993101119995117,-0.6170899868011475],"type":"VEC3","bufferView":0,"byteOffset":1224},{"name":"omnite-Mesh_1_texcoords","componentType":5126,"count":292,"min":[-0.012760999612510204,-0.00546000013127923],"max":[1.0104700326919556,1.0055789947509766],"type":"VEC2","bufferView":1,"byteOffset":816},{"name":"omnite-Mesh_1_indices","componentType":5123,"count":723,"min":[0],"max":[291],"type":"SCALAR","bufferView":2,"byteOffset":756},{"name":"omnite-Mesh_2_positions","componentType":5126,"count":17,"min":[-0.9537090063095093,-0.6246280074119568,-1.3606899976730347],"max":[0.9548630118370056,2.64697003364563,-0.08313799649477005],"type":"VEC3","bufferView":0,"byteOffset":4728},{"name":"omnite-Mesh_2_texcoords","componentType":5126,"count":17,"min":[0.06881900131702423,0],"max":[1.0032700300216675,0.9610229730606079],"type":"VEC2","bufferView":1,"byteOffset":3152},{"name":"omnite-Mesh_2_indices","componentType":5123,"count":51,"min":[0],"max":[16],"type":"SCALAR","bufferView":2,"byteOffset":2204},{"name":"omnite-Mesh_3_positions","componentType":5126,"count":25,"min":[-0.9809529781341553,0.12289399653673172,-1.280269980430603],"max":[0.9809529781341553,2.5785000324249268,-0.04128300026059151],"type":"VEC3","bufferView":0,"byteOffset":4932},{"name":"omnite-Mesh_3_texcoords","componentType":5126,"count":25,"min":[0.05631199851632118,0.01206700038164854],"max":[1.1117099523544312,0.9715819954872131],"type":"VEC2","bufferView":1,"byteOffset":3288},{"name":"omnite-Mesh_3_indices","componentType":5123,"count":114,"min":[0],"max":[24],"type":"SCALAR","bufferView":2,"byteOffset":2308},{"name":"omnite-Mesh_4_positions","componentType":5126,"count":94,"min":[-1.4926300048828125,1.5157599449157715,-1.461169958114624],"max":[1.5255999565124512,3.2090399265289307,-0.00042699999175965786],"type":"VEC3","bufferView":0,"byteOffset":5232},{"name":"omnite-Mesh_4_texcoords","componentType":5126,"count":94,"min":[0,0.6179730296134949],"max":[1,1],"type":"VEC2","bufferView":1,"byteOffset":3488},{"name":"omnite-Mesh_4_indices","componentType":5123,"count":528,"min":[0],"max":[93],"type":"SCALAR","bufferView":2,"byteOffset":2536},{"name":"omnite-Mesh_5_positions","componentType":5126,"count":74,"min":[-0.7457209825515747,2.427489995956421,-1.2910499572753906],"max":[0.7457209825515747,2.810659885406494,-0.6643499732017517],"type":"VEC3","bufferView":0,"byteOffset":6360},{"name":"omnite-Mesh_5_texcoords","componentType":5126,"count":74,"min":[0,0],"max":[1,0.125],"type":"VEC2","bufferView":1,"byteOffset":4240},{"name":"omnite-Mesh_5_indices","componentType":5123,"count":240,"min":[0],"max":[73],"type":"SCALAR","bufferView":2,"byteOffset":3592}],"asset":{"generator":"obj2gltf","version":"2.0"},"buffers":[{"name":"BR_Omanyte-Shiny01","byteLength":63876,"uri":"data:application/octet-stream;base64,"}],"bufferViews":[{"name":"bufferView_0","buffer":0,"byteLength":7248,"byteOffset":0,"byteStride":12,"target":34962},{"name":"bufferView_1","buffer":0,"byteLength":4832,"byteOffset":7248,"byteStride":8,"target":34962},{"name":"bufferView_2","buffer":0,"byteLength":4072,"byteOffset":12080,"target":34963},{"buffer":0,"byteOffset":16152,"byteLength":274},{"buffer":0,"byteOffset":16426,"byteLength":8210},{"buffer":0,"byteOffset":24636,"byteLength":2066},{"buffer":0,"byteOffset":26702,"byteLength":4114},{"buffer":0,"byteOffset":30816,"byteLength":274},{"buffer":0,"byteOffset":31090,"byteLength":32786}],"images":[{"name":"omnite_1_0","mimeType":"image/x-tga","bufferView":3},{"name":"omnite_1_1","mimeType":"image/x-tga","bufferView":4},{"name":"omnite_1_2","mimeType":"image/x-tga","bufferView":5},{"name":"omnite_1_3","mimeType":"image/x-tga","bufferView":6},{"name":"omnite_1_4","mimeType":"image/x-tga","bufferView":7},{"name":"omnite_1_5","mimeType":"image/x-tga","bufferView":8}],"materials":[{"name":"mat_0","pbrMetallicRoughness":{"baseColorTexture":{"index":0},"baseColorFactor":[1,1,1,1],"metallicFactor":0,"roughnessFactor":0.903921569},"emissiveFactor":[0,0,0],"alphaMode":"BLEND","doubleSided":true},{"name":"mat_1","pbrMetallicRoughness":{"baseColorTexture":{"index":1},"baseColorFactor":[1,1,1,1],"metallicFactor":0,"roughnessFactor":0.903921569},"emissiveFactor":[0,0,0],"alphaMode":"BLEND","doubleSided":true},{"name":"mat_2","pbrMetallicRoughness":{"baseColorTexture":{"index":2},"baseColorFactor":[1,1,1,1],"metallicFactor":0,"roughnessFactor":0.903921569},"emissiveFactor":[0,0,0],"alphaMode":"BLEND","doubleSided":true},{"name":"mat_3","pbrMetallicRoughness":{"baseColorTexture":{"index":3},"baseColorFactor":[1,1,1,1],"metallicFactor":0,"roughnessFactor":0.903921569},"emissiveFactor":[0,0,0],"alphaMode":"BLEND","doubleSided":true},{"name":"mat_4","pbrMetallicRoughness":{"baseColorTexture":{"index":4},"baseColorFactor":[1,1,1,1],"metallicFactor":0,"roughnessFactor":0.903921569},"emissiveFactor":[0,0,0],"alphaMode":"BLEND","doubleSided":true},{"name":"mat_5","pbrMetallicRoughness":{"baseColorTexture":{"index":5},"baseColorFactor":[1,1,1,1],"metallicFactor":0,"roughnessFactor":0.903921569},"emissiveFactor":[0,0,0],"alphaMode":"BLEND","doubleSided":true}],"meshes":[{"name":"omnite-Mesh","primitives":[{"attributes":{"POSITION":0,"TEXCOORD_0":1},"indices":2,"material":0,"mode":4},{"attributes":{"POSITION":3,"TEXCOORD_0":4},"indices":5,"material":1,"mode":4},{"attributes":{"POSITION":6,"TEXCOORD_0":7},"indices":8,"material":2,"mode":4},{"attributes":{"POSITION":9,"TEXCOORD_0":10},"indices":11,"material":3,"mode":4},{"attributes":{"POSITION":12,"TEXCOORD_0":13},"indices":14,"material":4,"mode":4},{"attributes":{"POSITION":15,"TEXCOORD_0":16},"indices":17,"material":5,"mode":4}]}],"nodes":[{"name":"omnite","mesh":0}],"samplers":[{"wrapS":10497,"wrapT":10497}],"scene":0,"scenes":[{"nodes":[0]}],"textures":[{"name":"omnite_1_0","sampler":0,"source":0},{"name":"omnite_1_1","sampler":0,"source":1},{"name":"omnite_1_2","sampler":0,"source":2},{"name":"omnite_1_3","sampler":0,"source":3},{"name":"omnite_1_4","sampler":0,"source":4},{"name":"omnite_1_5","sampler":0,"source":5}]}