{"accessors":[{"name":"omstar-Mesh_0_positions","componentType":5126,"count":827,"min":[-2.9241490364074707,-5.1028032302856445,-11.907661437988281],"max":[2.9241490364074707,7.039163112640381,-1.509544014930725],"type":"VEC3","bufferView":0,"byteOffset":0},{"name":"omstar-Mesh_0_texcoords","componentType":5126,"count":827,"min":[0.03422800078988075,0.006945999804884195],"max":[0.7303770184516907,0.9873049855232239],"type":"VEC2","bufferView":1,"byteOffset":0},{"name":"omstar-Mesh_0_indices","componentType":5123,"count":3864,"min":[0],"max":[826],"type":"SCALAR","bufferView":2,"byteOffset":0}],"asset":{"generator":"obj2gltf","version":"2.0"},"buffers":[{"name":"BR_Omastar-Shiny01","byteLength":1072864,"uri":"data:application/octet-stream;base64,"}],"bufferViews":[{"name":"bufferView_0","buffer":0,"byteLength":9924,"byteOffset":0,"byteStride":12,"target":34962},{"name":"bufferView_1","buffer":0,"byteLength":6616,"byteOffset":9924,"byteStride":8,"target":34962},{"name":"bufferView_2","buffer":0,"byteLength":7728,"byteOffset":16540,"target":34963},{"buffer":0,"byteOffset":24268,"byteLength":1048594}],"images":[{"name":"omstar_1_0","mimeType":"image/x-tga","bufferView":3}],"materials":[{"name":"mat_0","pbrMetallicRoughness":{"baseColorTexture":{"index":0},"baseColorFactor":[1,1,1,1],"metallicFactor":0,"roughnessFactor":0.903921569},"emissiveFactor":[0,0,0],"alphaMode":"BLEND","doubleSided":true}],"meshes":[{"name":"omstar-Mesh","primitives":[{"attributes":{"POSITION":0,"TEXCOORD_0":1},"indices":2,"material":0,"mode":4}]}],"nodes":[{"name":"omstar","mesh":0}],"samplers":[{"wrapS":10497,"wrapT":10497}],"scene":0,"scenes":[{"nodes":[0]}],"textures":[{"name":"omstar_1_0","sampler":0,"source":0}]}