{"accessors":[{"name":"kabuto-Mesh_0_positions","componentType":5126,"count":222,"min":[-2.4787700176239014,-2.5804800987243652,-3.5461699962615967],"max":[2.4787700176239014,2.464279890060425,-0.47453200817108154],"type":"VEC3","bufferView":0,"byteOffset":0},{"name":"kabuto-Mesh_0_texcoords","componentType":5126,"count":222,"min":[-0.2657110095024109,-0.2657099962234497],"max":[1.2657099962234497,1.2657129764556885],"type":"VEC2","bufferView":1,"byteOffset":0},{"name":"kabuto-Mesh_0_indices","componentType":5123,"count":1215,"min":[0],"max":[221],"type":"SCALAR","bufferView":2,"byteOffset":0},{"name":"kabuto-Mesh_1_positions","componentType":5126,"count":20,"min":[-1.9902199506759644,-2.4565699100494385,-1.0555599927902222],"max":[1.9902199506759644,0.8298789858818054,-0.6175850033760071],"type":"VEC3","bufferView":0,"byteOffset":2664},{"name":"kabuto-Mesh_1_texcoords","componentType":5126,"count":20,"min":[0.15930600464344025,0.09854800254106522],"max":[0.7991200089454651,0.9014520049095154],"type":"VEC2","bufferView":1,"byteOffset":1776},{"name":"kabuto-Mesh_1_indices","componentType":5123,"count":69,"min":[0],"max":[19],"type":"SCALAR","bufferView":2,"byteOffset":2432},{"name":"kabuto-Mesh_2_positions","componentType":5126,"count":14,"min":[-1.8286999464035034,0.8155570030212402,-1.4784300327301025],"max":[1.8286999464035034,1.8834600448608398,-0.9666360020637512],"type":"VEC3","bufferView":0,"byteOffset":2904},{"name":"kabuto-Mesh_2_texcoords","componentType":5126,"count":14,"min":[-0.0027860000263899565,-0.692359983921051],"max":[0.15573400259017944,1.7123550176620483],"type":"VEC2","bufferView":1,"byteOffset":1936},{"name":"kabuto-Mesh_2_indices","componentType":5123,"count":36,"min":[0],"max":[13],"type":"SCALAR","bufferView":2,"byteOffset":2572},{"name":"kabuto-Mesh_3_positions","componentType":5126,"count":40,"min":[-1.6554499864578247,-1.1053199768066406,-1.4413000345230103],"max":[1.6554499864578247,0.6143109798431396,-0.49013298749923706],"type":"VEC3","bufferView":0,"byteOffset":3072},{"name":"kabuto-Mesh_3_texcoords","componentType":5126,"count":40,"min":[-0.3714959919452667,0.0078119998797774315],"max":[1.0082800388336182,1.015625],"type":"VEC2","bufferView":1,"byteOffset":2048},{"name":"kabuto-Mesh_3_indices","componentType":5123,"count":120,"min":[0],"max":[39],"type":"SCALAR","bufferView":2,"byteOffset":2644},{"name":"kabuto-Mesh_4_positions","componentType":5126,"count":52,"min":[-1.5894299745559692,-0.9430789947509766,-0.788968026638031],"max":[1.5894299745559692,0.7068650126457214,-0.0817980021238327],"type":"VEC3","bufferView":0,"byteOffset":3552},{"name":"kabuto-Mesh_4_texcoords","componentType":5126,"count":52,"min":[0,0],"max":[1,1],"type":"VEC2","bufferView":1,"byteOffset":2368},{"name":"kabuto-Mesh_4_indices","componentType":5123,"count":192,"min":[0],"max":[51],"type":"SCALAR","bufferView":2,"byteOffset":2884},{"name":"kabuto-Mesh_5_positions","componentType":5126,"count":71,"min":[-1.299489974975586,-0.8453059792518616,-0.4156450033187866],"max":[1.299489974975586,0.7075830101966858,0.003926999866962433],"type":"VEC3","bufferView":0,"byteOffset":4176},{"name":"kabuto-Mesh_5_texcoords","componentType":5126,"count":71,"min":[-0.010591999627649784,-0.002400000113993883],"max":[1.040869951248169,0.9663699865341187],"type":"VEC2","bufferView":1,"byteOffset":2784},{"name":"kabuto-Mesh_5_indices","componentType":5123,"count":324,"min":[0],"max":[70],"type":"SCALAR","bufferView":2,"byteOffset":3268},{"name":"kabuto-Mesh_6_positions","componentType":5126,"count":34,"min":[-0.6807190179824829,2.040299892425537,-2.8504199981689453],"max":[0.6810020208358765,2.1841800212860107,-2.639539957046509],"type":"VEC3","bufferView":0,"byteOffset":5028},{"name":"kabuto-Mesh_6_texcoords","componentType":5126,"count":34,"min":[0.21390099823474884,0.19893699884414673],"max":[0.7317180037498474,0.711438000202179],"type":"VEC2","bufferView":1,"byteOffset":3352},{"name":"kabuto-Mesh_6_indices","componentType":5123,"count":144,"min":[0],"max":[33],"type":"SCALAR","bufferView":2,"byteOffset":3916}],"asset":{"generator":"obj2gltf","version":"2.0"},"buffers":[{"name":"BR_Kabuto-Shiny01","byteLength":50512,"uri":"data:application/octet-stream;base64,"}],"bufferViews":[{"name":"bufferView_0","buffer":0,"byteLength":5436,"byteOffset":0,"byteStride":12,"target":34962},{"name":"bufferView_1","buffer":0,"byteLength":3624,"byteOffset":5436,"byteStride":8,"target":34962},{"name":"bufferView_2","buffer":0,"byteLength":4204,"byteOffset":9060,"target":34963},{"buffer":0,"byteOffset":13264,"byteLength":1042},{"buffer":0,"byteOffset":14306,"byteLength":274},{"buffer":0,"byteOffset":14580,"byteLength":28690},{"buffer":0,"byteOffset":43270,"byteLength":1042},{"buffer":0,"byteOffset":44312,"byteLength":1042},{"buffer":0,"byteOffset":45354,"byteLength":1042},{"buffer":0,"byteOffset":46396,"byteLength":4114}],"images":[{"name":"kabuto_1_0","mimeType":"image/x-tga","bufferView":3},{"name":"kabuto_1_2","mimeType":"image/x-tga","bufferView":4},{"name":"kabuto_1_3","mimeType":"image/x-tga","bufferView":5},{"name":"kabuto_1_4","mimeType":"image/x-tga","bufferView":6},{"name":"kabuto_1_5","mimeType":"image/x-tga","bufferView":7},{"name":"kabuto_1_6","mimeType":"image/x-tga","bufferView":8},{"name":"kabuto_1_7","mimeType":"image/x-tga","bufferView":9}],"materials":[{"name":"mat_0","pbrMetallicRoughness":{"baseColorTexture":{"index":0},"baseColorFactor":[1,1,1,1],"metallicFactor":0,"roughnessFactor":0.903921569},"emissiveFactor":[0,0,0],"alphaMode":"BLEND","doubleSided":true},{"name":"mat_1","pbrMetallicRoughness":{"baseColorTexture":{"index":1},"baseColorFactor":[1,1,1,1],"metallicFactor":0,"roughnessFactor":0.903921569},"emissiveFactor":[0,0,0],"alphaMode":"BLEND","doubleSided":true},{"name":"mat_2","pbrMetallicRoughness":{"baseColorTexture":{"index":2},"baseColorFactor":[1,1,1,1],"metallicFactor":0,"roughnessFactor":0.903921569},"emissiveFactor":[0,0,0],"alphaMode":"BLEND","doubleSided":true},{"name":"mat_3","pbrMetallicRoughness":{"baseColorTexture":{"index":3},"baseColorFactor":[1,1,1,1],"metallicFactor":0,"roughnessFactor":0.903921569},"emissiveFactor":[0,0,0],"alphaMode":"BLEND","doubleSided":true},{"name":"mat_4","pbrMetallicRoughness":{"baseColorTexture":{"index":4},"baseColorFactor":[1,1,1,1],"metallicFactor":0,"roughnessFactor":0.903921569},"emissiveFactor":[0,0,0],"alphaMode":"BLEND","doubleSided":true},{"name":"mat_5","pbrMetallicRoughness":{"baseColorTexture":{"index":5},"baseColorFactor":[1,1,1,1],"metallicFactor":0,"roughnessFactor":0.903921569},"emissiveFactor":[0,0,0],"alphaMode":"BLEND","doubleSided":true},{"name":"mat_6","pbrMetallicRoughness":{"baseColorTexture":{"index":6},"baseColorFactor":[1,1,1,1],"metallicFactor":0,"roughnessFactor":0.903921569},"emissiveFactor":[0,0,0],"alphaMode":"BLEND","doubleSided":true}],"meshes":[{"name":"kabuto-Mesh","primitives":[{"attributes":{"POSITION":0,"TEXCOORD_0":1},"indices":2,"material":0,"mode":4},{"attributes":{"POSITION":3,"TEXCOORD_0":4},"indices":5,"material":1,"mode":4},{"attributes":{"POSITION":6,"TEXCOORD_0":7},"indices":8,"material":2,"mode":4},{"attributes":{"POSITION":9,"TEXCOORD_0":10},"indices":11,"material":3,"mode":4},{"attributes":{"POSITION":12,"TEXCOORD_0":13},"indices":14,"material":4,"mode":4},{"attributes":{"POSITION":15,"TEXCOORD_0":16},"indices":17,"material":5,"mode":4},{"attributes":{"POSITION":18,"TEXCOORD_0":19},"indices":20,"material":6,"mode":4}]}],"nodes":[{"name":"kabuto","mesh":0}],"samplers":[{"wrapS":10497,"wrapT":10497}],"scene":0,"scenes":[{"nodes":[0]}],"textures":[{"name":"kabuto_1_0","sampler":0,"source":0},{"name":"kabuto_1_2","sampler":0,"source":1},{"name":"kabuto_1_3","sampler":0,"source":2},{"name":"kabuto_1_4","sampler":0,"source":3},{"name":"kabuto_1_5","sampler":0,"source":4},{"name":"kabuto_1_6","sampler":0,"source":5},{"name":"kabuto_1_7","sampler":0,"source":6}]}