{"accessors":[{"name":"kabutops-Mesh_0_positions","componentType":5126,"count":154,"min":[-5.32558012008667,-3.094320058822632,-13.09630012512207],"max":[5.32558012008667,3.283179998397827,-4.539179801940918],"type":"VEC3","bufferView":0,"byteOffset":0},{"name":"kabutops-Mesh_0_texcoords","componentType":5126,"count":154,"min":[0,0],"max":[1,1],"type":"VEC2","bufferView":1,"byteOffset":0},{"name":"kabutops-Mesh_0_indices","componentType":5123,"count":516,"min":[0],"max":[153],"type":"SCALAR","bufferView":2,"byteOffset":0},{"name":"kabutops-Mesh_1_positions","componentType":5126,"count":30,"min":[-1.3158600330352783,-1.0868500471115112,-7.271870136260986],"max":[1.3158600330352783,-0.16050300002098083,-5.123159885406494],"type":"VEC3","bufferView":0,"byteOffset":1848},{"name":"kabutops-Mesh_1_texcoords","componentType":5126,"count":30,"min":[-0.03349199891090393,0.03225800022482872],"max":[0.4933040142059326,0.9299970269203186],"type":"VEC2","bufferView":1,"byteOffset":1232},{"name":"kabutops-Mesh_1_indices","componentType":5123,"count":72,"min":[0],"max":[29],"type":"SCALAR","bufferView":2,"byteOffset":1032},{"name":"kabutops-Mesh_2_positions","componentType":5126,"count":53,"min":[-1.968019962310791,-1.0541399717330933,-10.172800064086914],"max":[1.968019962310791,0.39510801434516907,-7.093239784240723],"type":"VEC3","bufferView":0,"byteOffset":2208},{"name":"kabutops-Mesh_2_texcoords","componentType":5126,"count":53,"min":[0.06745199859142303,0.05002199858427048],"max":[1.0044399499893188,0.8820620179176331],"type":"VEC2","bufferView":1,"byteOffset":1472},{"name":"kabutops-Mesh_2_indices","componentType":5123,"count":108,"min":[0],"max":[52],"type":"SCALAR","bufferView":2,"byteOffset":1176},{"name":"kabutops-Mesh_3_positions","componentType":5126,"count":102,"min":[-3.971100091934204,-2.3837599754333496,-10.695799827575684],"max":[3.971100091934204,1.2479699850082397,-0.9780439734458923],"type":"VEC3","bufferView":0,"byteOffset":2844},{"name":"kabutops-Mesh_3_texcoords","componentType":5126,"count":102,"min":[0.004310000222176313,0.023742999881505966],"max":[1.086590051651001,1.183482050895691],"type":"VEC2","bufferView":1,"byteOffset":1896},{"name":"kabutops-Mesh_3_indices","componentType":5123,"count":351,"min":[0],"max":[101],"type":"SCALAR","bufferView":2,"byteOffset":1392},{"name":"kabutops-Mesh_4_positions","componentType":5126,"count":32,"min":[-2.1895999908447266,-1.546030044555664,-9.938030242919922],"max":[2.1895999908447266,0.08989399671554565,-5.744939804077148],"type":"VEC3","bufferView":0,"byteOffset":4068},{"name":"kabutops-Mesh_4_texcoords","componentType":5126,"count":32,"min":[0.34008699655532837,0.22347299754619598],"max":[0.5943880081176758,0.6214309930801392],"type":"VEC2","bufferView":1,"byteOffset":2712},{"name":"kabutops-Mesh_4_indices","componentType":5123,"count":90,"min":[0],"max":[31],"type":"SCALAR","bufferView":2,"byteOffset":2096},{"name":"kabutops-Mesh_5_positions","componentType":5126,"count":40,"min":[-5.590159893035889,-0.05087500065565109,-9.570150375366211],"max":[5.590159893035889,1.8749300241470337,-8.156970024108887],"type":"VEC3","bufferView":0,"byteOffset":4452},{"name":"kabutops-Mesh_5_texcoords","componentType":5126,"count":40,"min":[0.01953200064599514,9.999999974752427e-7],"max":[1,0.9795899987220764],"type":"VEC2","bufferView":1,"byteOffset":2968},{"name":"kabutops-Mesh_5_indices","componentType":5123,"count":162,"min":[0],"max":[39],"type":"SCALAR","bufferView":2,"byteOffset":2276},{"name":"kabutops-Mesh_6_positions","componentType":5126,"count":68,"min":[-6.8573899269104,1.0436500310897827,-9.948019981384277],"max":[6.8573899269104,2.7954800128936768,-1.479699969291687],"type":"VEC3","bufferView":0,"byteOffset":4932},{"name":"kabutops-Mesh_6_texcoords","componentType":5126,"count":68,"min":[0.14840799570083618,0],"max":[0.9671199917793274,1.0334819555282593],"type":"VEC2","bufferView":1,"byteOffset":3288},{"name":"kabutops-Mesh_6_indices","componentType":5123,"count":156,"min":[0],"max":[67],"type":"SCALAR","bufferView":2,"byteOffset":2600},{"name":"kabutops-Mesh_7_positions","componentType":5126,"count":30,"min":[-2.23363995552063,0.0714460015296936,-13.09630012512207],"max":[2.2336299419403076,3.283179998397827,-9.227470397949219],"type":"VEC3","bufferView":0,"byteOffset":5748},{"name":"kabutops-Mesh_7_texcoords","componentType":5126,"count":30,"min":[0.00367900007404387,0.4427010118961334],"max":[1.022320032119751,0.85139000415802],"type":"VEC2","bufferView":1,"byteOffset":3832},{"name":"kabutops-Mesh_7_indices","componentType":5123,"count":48,"min":[0],"max":[29],"type":"SCALAR","bufferView":2,"byteOffset":2912},{"name":"kabutops-Mesh_8_positions","componentType":5126,"count":22,"min":[-0.8024910092353821,-3.9040699005126953,-12.223600387573242],"max":[0.8024910092353821,-0.22085200250148773,-1.0629099607467651],"type":"VEC3","bufferView":0,"byteOffset":6108},{"name":"kabutops-Mesh_8_texcoords","componentType":5126,"count":22,"min":[0,0],"max":[1,1],"type":"VEC2","bufferView":1,"byteOffset":4072},{"name":"kabutops-Mesh_8_indices","componentType":5123,"count":87,"min":[0],"max":[21],"type":"SCALAR","bufferView":2,"byteOffset":3008},{"name":"kabutops-Mesh_9_positions","componentType":5126,"count":6,"min":[-2.150239944458008,2.1888198852539062,-10.963199615478516],"max":[2.150239944458008,3.034940004348755,-9.608440399169922],"type":"VEC3","bufferView":0,"byteOffset":6372},{"name":"kabutops-Mesh_9_texcoords","componentType":5126,"count":6,"min":[-0.015004999935626984,0.027201000601053238],"max":[0.26849299669265747,1.9591100215911865],"type":"VEC2","bufferView":1,"byteOffset":4248},{"name":"kabutops-Mesh_9_indices","componentType":5123,"count":6,"min":[0],"max":[5],"type":"SCALAR","bufferView":2,"byteOffset":3184},{"name":"kabutops-Mesh_10_positions","componentType":5126,"count":4,"min":[-0.529662013053894,2.4990599155426025,-9.441829681396484],"max":[0.549839973449707,2.799410104751587,-9.179120063781738],"type":"VEC3","bufferView":0,"byteOffset":6444},{"name":"kabutops-Mesh_10_texcoords","componentType":5126,"count":4,"min":[0.06635800004005432,0.6867709755897522],"max":[0.10755699872970581,0.7034299969673157],"type":"VEC2","bufferView":1,"byteOffset":4296},{"name":"kabutops-Mesh_10_indices","componentType":5123,"count":6,"min":[0],"max":[3],"type":"SCALAR","bufferView":2,"byteOffset":3196},{"name":"kabutops-Mesh_11_positions","componentType":5126,"count":78,"min":[-4.207009792327881,-4.007019996643066,-9.992259979248047],"max":[4.21068000793457,-1.3498300313949585,-4.786129951477051],"type":"VEC3","bufferView":0,"byteOffset":6492},{"name":"kabutops-Mesh_11_texcoords","componentType":5126,"count":78,"min":[0,0],"max":[1.008370041847229,0.9871749877929688],"type":"VEC2","bufferView":1,"byteOffset":4328},{"name":"kabutops-Mesh_11_indices","componentType":5123,"count":144,"min":[0],"max":[77],"type":"SCALAR","bufferView":2,"byteOffset":3208},{"name":"kabutops-Mesh_12_positions","componentType":5126,"count":33,"min":[-0.2881380021572113,-3.2706398963928223,-9.992259979248047],"max":[0.28985199332237244,-1.3498300313949585,-5.828559875488281],"type":"VEC3","bufferView":0,"byteOffset":7428},{"name":"kabutops-Mesh_12_texcoords","componentType":5126,"count":33,"min":[-0.0020409999415278435,0.14955399930477142],"max":[0.9973490238189697,0.8436089754104614],"type":"VEC2","bufferView":1,"byteOffset":4952},{"name":"kabutops-Mesh_12_indices","componentType":5123,"count":54,"min":[0],"max":[32],"type":"SCALAR","bufferView":2,"byteOffset":3496},{"name":"kabutops-Mesh_13_positions","componentType":5126,"count":36,"min":[-3.971100091934204,-0.023773999884724617,-5.553840160369873],"max":[3.971100091934204,1.3569300174713135,-3.7925400733947754],"type":"VEC3","bufferView":0,"byteOffset":7824},{"name":"kabutops-Mesh_13_texcoords","componentType":5126,"count":36,"min":[-0.07699599862098694,-0.5599799752235413],"max":[1.2714200019836426,1.7686350345611572],"type":"VEC2","bufferView":1,"byteOffset":5216},{"name":"kabutops-Mesh_13_indices","componentType":5123,"count":96,"min":[0],"max":[35],"type":"SCALAR","bufferView":2,"byteOffset":3604},{"name":"kabutops-Mesh_14_positions","componentType":5126,"count":42,"min":[-3.7775700092315674,-1.1459300518035889,-1.1765199899673462],"max":[3.7775700092315674,0.8533390164375305,-0.019525999203324318],"type":"VEC3","bufferView":0,"byteOffset":8256},{"name":"kabutops-Mesh_14_texcoords","componentType":5126,"count":42,"min":[0.03999999910593033,-0.18987999856472015],"max":[1,0.9793189764022827],"type":"VEC2","bufferView":1,"byteOffset":5504},{"name":"kabutops-Mesh_14_indices","componentType":5123,"count":120,"min":[0],"max":[41],"type":"SCALAR","bufferView":2,"byteOffset":3796},{"name":"kabutops-Mesh_15_positions","componentType":5126,"count":28,"min":[-4.609260082244873,0.45455700159072876,-0.5924710035324097],"max":[4.609320163726807,2.0772900581359863,-0.022847000509500504],"type":"VEC3","bufferView":0,"byteOffset":8760},{"name":"kabutops-Mesh_15_texcoords","componentType":5126,"count":28,"min":[0,0],"max":[0.9999989867210388,1.0043100118637085],"type":"VEC2","bufferView":1,"byteOffset":5840},{"name":"kabutops-Mesh_15_indices","componentType":5123,"count":96,"min":[0],"max":[27],"type":"SCALAR","bufferView":2,"byteOffset":4036}],"asset":{"generator":"obj2gltf","version":"2.0"},"buffers":[{"name":"BR_Kabutops-Shiny01","byteLength":100172,"uri":"data:application/octet-stream;base64,"}],"bufferViews":[{"name":"bufferView_0","buffer":0,"byteLength":9096,"byteOffset":0,"byteStride":12,"target":34962},{"name":"bufferView_1","buffer":0,"byteLength":6064,"byteOffset":9096,"byteStride":8,"target":34962},{"name":"bufferView_2","buffer":0,"byteLength":4228,"byteOffset":15160,"target":34963},{"buffer":0,"byteOffset":19388,"byteLength":82},{"buffer":0,"byteOffset":19470,"byteLength":4114},{"buffer":0,"byteOffset":23584,"byteLength":8210},{"buffer":0,"byteOffset":31794,"byteLength":530},{"buffer":0,"byteOffset":32324,"byteLength":82},{"buffer":0,"byteOffset":32406,"byteLength":1042},{"buffer":0,"byteOffset":33448,"byteLength":8210},{"buffer":0,"byteOffset":41658,"byteLength":2066},{"buffer":0,"byteOffset":43724,"byteLength":530},{"buffer":0,"byteOffset":44254,"byteLength":32786},{"buffer":0,"byteOffset":77040,"byteLength":2066},{"buffer":0,"byteOffset":79106,"byteLength":8210},{"buffer":0,"byteOffset":87316,"byteLength":8210},{"buffer":0,"byteOffset":95526,"byteLength":4114},{"buffer":0,"byteOffset":99640,"byteLength":530}],"images":[{"name":"kabutops_1_0","mimeType":"image/x-tga","bufferView":3},{"name":"kabutops_1_1","mimeType":"image/x-tga","bufferView":4},{"name":"kabutops_1_2","mimeType":"image/x-tga","bufferView":5},{"name":"kabutops_1_3","mimeType":"image/x-tga","bufferView":6},{"name":"kabutops_1_4","mimeType":"image/x-tga","bufferView":7},{"name":"kabutops_1_5","mimeType":"image/x-tga","bufferView":8},{"name":"kabutops_1_6","mimeType":"image/x-tga","bufferView":9},{"name":"kabutops_1_7","mimeType":"image/x-tga","bufferView":10},{"name":"kabutops_1_8","mimeType":"image/x-tga","bufferView":11},{"name":"kabutops_1_9","mimeType":"image/x-tga","bufferView":12},{"name":"kabutops_1_10","mimeType":"image/x-tga","bufferView":13},{"name":"kabutops_1_11","mimeType":"image/x-tga","bufferView":14},{"name":"kabutops_1_12","mimeType":"image/x-tga","bufferView":15},{"name":"kabutops_1_13","mimeType":"image/x-tga","bufferView":16},{"name":"kabutops_1_14","mimeType":"image/x-tga","bufferView":17}],"materials":[{"name":"mat_0","pbrMetallicRoughness":{"baseColorTexture":{"index":0},"baseColorFactor":[1,1,1,1],"metallicFactor":0,"roughnessFactor":0.903921569},"emissiveFactor":[0,0,0],"alphaMode":"BLEND","doubleSided":true},{"name":"mat_1","pbrMetallicRoughness":{"baseColorTexture":{"index":1},"baseColorFactor":[1,1,1,1],"metallicFactor":0,"roughnessFactor":0.903921569},"emissiveFactor":[0,0,0],"alphaMode":"BLEND","doubleSided":true},{"name":"mat_2","pbrMetallicRoughness":{"baseColorTexture":{"index":2},"baseColorFactor":[1,1,1,1],"metallicFactor":0,"roughnessFactor":0.903921569},"emissiveFactor":[0,0,0],"alphaMode":"BLEND","doubleSided":true},{"name":"mat_3","pbrMetallicRoughness":{"baseColorTexture":{"index":3},"baseColorFactor":[1,1,1,1],"metallicFactor":0,"roughnessFactor":0.903921569},"emissiveFactor":[0,0,0],"alphaMode":"BLEND","doubleSided":true},{"name":"mat_4","pbrMetallicRoughness":{"baseColorTexture":{"index":4},"baseColorFactor":[1,1,1,1],"metallicFactor":0,"roughnessFactor":0.903921569},"emissiveFactor":[0,0,0],"alphaMode":"BLEND","doubleSided":true},{"name":"mat_5","pbrMetallicRoughness":{"baseColorTexture":{"index":5},"baseColorFactor":[1,1,1,1],"metallicFactor":0,"roughnessFactor":0.903921569},"emissiveFactor":[0,0,0],"alphaMode":"BLEND","doubleSided":true},{"name":"mat_6","pbrMetallicRoughness":{"baseColorTexture":{"index":6},"baseColorFactor":[1,1,1,1],"metallicFactor":0,"roughnessFactor":0.903921569},"emissiveFactor":[0,0,0],"alphaMode":"BLEND","doubleSided":true},{"name":"mat_7","pbrMetallicRoughness":{"baseColorTexture":{"index":7},"baseColorFactor":[1,1,1,1],"metallicFactor":0,"roughnessFactor":0.903921569},"emissiveFactor":[0,0,0],"alphaMode":"BLEND","doubleSided":true},{"name":"mat_8","pbrMetallicRoughness":{"baseColorTexture":{"index":8},"baseColorFactor":[1,1,1,1],"metallicFactor":0,"roughnessFactor":0.903921569},"emissiveFactor":[0,0,0],"alphaMode":"BLEND","doubleSided":true},{"name":"mat_9","pbrMetallicRoughness":{"baseColorTexture":{"index":9},"baseColorFactor":[1,1,1,1],"metallicFactor":0,"roughnessFactor":0.903921569},"emissiveFactor":[0,0,0],"alphaMode":"BLEND","doubleSided":true},{"name":"mat_10","pbrMetallicRoughness":{"baseColorTexture":{"index":10},"baseColorFactor":[1,1,1,1],"metallicFactor":0,"roughnessFactor":0.903921569},"emissiveFactor":[0,0,0],"alphaMode":"BLEND","doubleSided":true},{"name":"mat_11","pbrMetallicRoughness":{"baseColorTexture":{"index":11},"baseColorFactor":[1,1,1,1],"metallicFactor":0,"roughnessFactor":0.903921569},"emissiveFactor":[0,0,0],"alphaMode":"BLEND","doubleSided":true},{"name":"mat_12","pbrMetallicRoughness":{"baseColorTexture":{"index":12},"baseColorFactor":[1,1,1,1],"metallicFactor":0,"roughnessFactor":0.903921569},"emissiveFactor":[0,0,0],"alphaMode":"BLEND","doubleSided":true},{"name":"mat_13","pbrMetallicRoughness":{"baseColorTexture":{"index":13},"baseColorFactor":[1,1,1,1],"metallicFactor":0,"roughnessFactor":0.903921569},"emissiveFactor":[0,0,0],"alphaMode":"BLEND","doubleSided":true},{"name":"mat_14","pbrMetallicRoughness":{"baseColorTexture":{"index":14},"baseColorFactor":[1,1,1,1],"metallicFactor":0,"roughnessFactor":0.903921569},"emissiveFactor":[0,0,0],"alphaMode":"BLEND","doubleSided":true},{"name":"mat_14_NONE","pbrMetallicRoughness":{"baseColorTexture":{"index":14},"baseColorFactor":[1,1,1,1],"metallicFactor":0,"roughnessFactor":0.903921569},"emissiveFactor":[0,0,0],"alphaMode":"BLEND","doubleSided":true}],"meshes":[{"name":"kabutops-Mesh","primitives":[{"attributes":{"POSITION":0,"TEXCOORD_0":1},"indices":2,"material":0,"mode":4},{"attributes":{"POSITION":3,"TEXCOORD_0":4},"indices":5,"material":1,"mode":4},{"attributes":{"POSITION":6,"TEXCOORD_0":7},"indices":8,"material":2,"mode":4},{"attributes":{"POSITION":9,"TEXCOORD_0":10},"indices":11,"material":3,"mode":4},{"attributes":{"POSITION":12,"TEXCOORD_0":13},"indices":14,"material":4,"mode":4},{"attributes":{"POSITION":15,"TEXCOORD_0":16},"indices":17,"material":5,"mode":4},{"attributes":{"POSITION":18,"TEXCOORD_0":19},"indices":20,"material":6,"mode":4},{"attributes":{"POSITION":21,"TEXCOORD_0":22},"indices":23,"material":7,"mode":4},{"attributes":{"POSITION":24,"TEXCOORD_0":25},"indices":26,"material":8,"mode":4},{"attributes":{"POSITION":27,"TEXCOORD_0":28},"indices":29,"material":9,"mode":4},{"attributes":{"POSITION":30,"TEXCOORD_0":31},"indices":32,"material":10,"mode":4},{"attributes":{"POSITION":33,"TEXCOORD_0":34},"indices":35,"material":11,"mode":4},{"attributes":{"POSITION":36,"TEXCOORD_0":37},"indices":38,"material":12,"mode":4},{"attributes":{"POSITION":39,"TEXCOORD_0":40},"indices":41,"material":13,"mode":4},{"attributes":{"POSITION":42,"TEXCOORD_0":43},"indices":44,"material":14,"mode":4},{"attributes":{"POSITION":45,"TEXCOORD_0":46},"indices":47,"material":15,"mode":4}]}],"nodes":[{"name":"kabutops","mesh":0}],"samplers":[{"wrapS":10497,"wrapT":10497}],"scene":0,"scenes":[{"nodes":[0]}],"textures":[{"name":"kabutops_1_0","sampler":0,"source":0},{"name":"kabutops_1_1","sampler":0,"source":1},{"name":"kabutops_1_2","sampler":0,"source":2},{"name":"kabutops_1_3","sampler":0,"source":3},{"name":"kabutops_1_4","sampler":0,"source":4},{"name":"kabutops_1_5","sampler":0,"source":5},{"name":"kabutops_1_6","sampler":0,"source":6},{"name":"kabutops_1_7","sampler":0,"source":7},{"name":"kabutops_1_8","sampler":0,"source":8},{"name":"kabutops_1_9","sampler":0,"source":9},{"name":"kabutops_1_10","sampler":0,"source":10},{"name":"kabutops_1_11","sampler":0,"source":11},{"name":"kabutops_1_12","sampler":0,"source":12},{"name":"kabutops_1_13","sampler":0,"source":13},{"name":"kabutops_1_14","sampler":0,"source":14}]}