{"accessors":[{"name":"polygon0_1_0_positions","componentType":5126,"count":41,"min":[-2.291722059249878,13.23022747039795,9.327827453613281],"max":[2.291722059249878,15.985664367675781,12.990678787231445],"type":"VEC3","bufferView":0,"byteOffset":0},{"name":"polygon0_1_0_normals","componentType":5126,"count":41,"min":[-0.947970986366272,0.05450500547885895,-0.02008000761270523],"max":[0.947970986366272,0.9997983574867249,0.9511321783065796],"type":"VEC3","bufferView":1,"byteOffset":0},{"name":"polygon0_1_0_texcoords","componentType":5126,"count":41,"min":[-0.98260498046875,0.023010000586509705],"max":[-0.5194090008735657,0.22595199942588806],"type":"VEC2","bufferView":2,"byteOffset":0},{"name":"polygon0_1_0_indices","componentType":5123,"count":186,"min":[0],"max":[40],"type":"SCALAR","bufferView":3,"byteOffset":0},{"name":"polygon1_1_0_positions","componentType":5126,"count":1037,"min":[-19.952909469604492,0.075654998421669,-19.442096710205078],"max":[19.95290756225586,28.97347068786621,16.538442611694336],"type":"VEC3","bufferView":0,"byteOffset":492},{"name":"polygon1_1_0_normals","componentType":5126,"count":1037,"min":[-0.9993268847465515,-0.9997252821922302,-0.9882567524909973],"max":[0.9993268847465515,0.9999987483024597,0.9999005794525146],"type":"VEC3","bufferView":1,"byteOffset":492},{"name":"polygon1_1_0_texcoords","componentType":5126,"count":1037,"min":[0.009308000095188618,0.012237999588251114],"max":[0.9862980246543884,0.9897770285606384],"type":"VEC2","bufferView":2,"byteOffset":328},{"name":"polygon1_1_0_indices","componentType":5123,"count":4293,"min":[0],"max":[1036],"type":"SCALAR","bufferView":3,"byteOffset":372},{"name":"polygon2_1_0_positions","componentType":5126,"count":44,"min":[-2.584252119064331,7.0728559494018555,8.673422813415527],"max":[2.584252119064331,12.534453392028809,16.114702224731445],"type":"VEC3","bufferView":0,"byteOffset":12936},{"name":"polygon2_1_0_normals","componentType":5126,"count":44,"min":[-0.4888950288295746,-0.9970806241035461,-0.8265160918235779],"max":[0.4888950288295746,0.8751353621482849,0.9044162631034851],"type":"VEC3","bufferView":1,"byteOffset":12936},{"name":"polygon2_1_0_texcoords","componentType":5126,"count":44,"min":[0.015625,0.023437000811100006],"max":[0.0898440033197403,0.40625],"type":"VEC2","bufferView":2,"byteOffset":8624},{"name":"polygon2_1_0_indices","componentType":5123,"count":186,"min":[0],"max":[43],"type":"SCALAR","bufferView":3,"byteOffset":8960}],"asset":{"generator":"obj2gltf","version":"2.0"},"buffers":[{"name":"Aerodactyl","byteLength":340184,"uri":"data:application/octet-stream;base64,"}],"bufferViews":[{"name":"bufferView_0","buffer":0,"byteLength":13464,"byteOffset":0,"byteStride":12,"target":34962},{"name":"bufferView_1","buffer":0,"byteLength":13464,"byteOffset":13464,"byteStride":12,"target":34962},{"name":"bufferView_2","buffer":0,"byteLength":8976,"byteOffset":26928,"byteStride":8,"target":34962},{"name":"bufferView_3","buffer":0,"byteLength":9332,"byteOffset":35904,"target":34963},{"buffer":0,"byteOffset":45236,"byteLength":98322},{"buffer":0,"byteOffset":143558,"byteLength":196626}],"images":[{"name":"PteraEyeDh","mimeType":"image/x-tga","bufferView":4},{"name":"PteraDh","mimeType":"image/x-tga","bufferView":5}],"materials":[{"name":"mat3","pbrMetallicRoughness":{"baseColorTexture":{"index":0},"baseColorFactor":[1,1,1,1],"metallicFactor":0,"roughnessFactor":0.99},"emissiveFactor":[0,0,0],"alphaMode":"OPAQUE","doubleSided":false},{"name":"mat1","pbrMetallicRoughness":{"baseColorTexture":{"index":1},"baseColorFactor":[1,1,1,1],"metallicFactor":0,"roughnessFactor":0.99},"emissiveFactor":[0,0,0],"alphaMode":"OPAQUE","doubleSided":false},{"name":"mat2","pbrMetallicRoughness":{"baseColorTexture":{"index":1},"baseColorFactor":[1,1,1,1],"metallicFactor":0,"roughnessFactor":0.99},"emissiveFactor":[0,0,0],"alphaMode":"OPAQUE","doubleSided":false}],"meshes":[{"name":"polygon0_1","primitives":[{"attributes":{"POSITION":0,"NORMAL":1,"TEXCOORD_0":2},"indices":3,"material":0,"mode":4}]},{"name":"polygon1_1","primitives":[{"attributes":{"POSITION":4,"NORMAL":5,"TEXCOORD_0":6},"indices":7,"material":1,"mode":4}]},{"name":"polygon2_1","primitives":[{"attributes":{"POSITION":8,"NORMAL":9,"TEXCOORD_0":10},"indices":11,"material":2,"mode":4}]}],"nodes":[{"name":"polygon0","mesh":0},{"name":"polygon1","mesh":1},{"name":"polygon2","mesh":2}],"samplers":[{"wrapS":10497,"wrapT":10497}],"scene":0,"scenes":[{"nodes":[0,1,2]}],"textures":[{"name":"PteraEyeDh","sampler":0,"source":0},{"name":"PteraDh","sampler":0,"source":1}]}