{"accessors":[{"name":"Aerodactyl_1_0_positions","componentType":5126,"count":10158,"min":[-71.38899993896484,-18.75000762939453,-164.79098510742188],"max":[71.38899993896484,172.83096313476562,164.2949676513672],"type":"VEC3","bufferView":0,"byteOffset":0},{"name":"Aerodactyl_1_0_normals","componentType":5126,"count":10158,"min":[-0.9969776272773743,-1,-0.9739848971366882],"max":[0.9969775676727295,0.9995934367179871,0.9825482964515686],"type":"VEC3","bufferView":1,"byteOffset":0},{"name":"Aerodactyl_1_0_texcoords","componentType":5126,"count":10158,"min":[0.004920999985188246,0.0039059999398887157],"max":[0.995078980922699,0.9925410151481628],"type":"VEC2","bufferView":2,"byteOffset":0},{"name":"Aerodactyl_1_0_indices","componentType":5123,"count":10158,"min":[0],"max":[10157],"type":"SCALAR","bufferView":3,"byteOffset":0},{"name":"Aerodactyl_1_1_positions","componentType":5126,"count":294,"min":[-22.492982864379883,132.9810333251953,96.71151733398438],"max":[22.493017196655273,152.15802001953125,123.72198486328125],"type":"VEC3","bufferView":0,"byteOffset":121896},{"name":"Aerodactyl_1_1_normals","componentType":5126,"count":294,"min":[-0.9381729364395142,-0.9756210446357727,-0.9611899852752686],"max":[0.9819156527519226,0.7885822057723999,0.8908347487449646],"type":"VEC3","bufferView":1,"byteOffset":121896},{"name":"Aerodactyl_1_1_texcoords","componentType":5126,"count":294,"min":[0.009207000024616718,-1.9632099866867065],"max":[0.4907900094985962,-1.7867900133132935],"type":"VEC2","bufferView":2,"byteOffset":81264},{"name":"Aerodactyl_1_1_indices","componentType":5123,"count":294,"min":[0],"max":[293],"type":"SCALAR","bufferView":3,"byteOffset":20316},{"name":"Aerodactyl_1_2_positions","componentType":5126,"count":6012,"min":[-264.26800537109375,-32.24761962890625,-190.6169891357422],"max":[264.26800537109375,128.13499450683594,150.6379852294922],"type":"VEC3","bufferView":0,"byteOffset":125424},{"name":"Aerodactyl_1_2_normals","componentType":5126,"count":6012,"min":[-0.9953981637954712,-1,-0.9739848971366882],"max":[0.9953981637954712,0.9866862893104553,0.9825482964515686],"type":"VEC3","bufferView":1,"byteOffset":125424},{"name":"Aerodactyl_1_2_texcoords","componentType":5126,"count":6012,"min":[0,-0.9937300086021423],"max":[1,-0.007809999864548445],"type":"VEC2","bufferView":2,"byteOffset":83616},{"name":"Aerodactyl_1_2_indices","componentType":5123,"count":6012,"min":[0],"max":[6011],"type":"SCALAR","bufferView":3,"byteOffset":20904}],"asset":{"generator":"obj2gltf","version":"2.0"},"buffers":[{"name":"XY_Aerodactyl","byteLength":710328,"uri":"data:application/octet-stream;base64,"}],"bufferViews":[{"name":"bufferView_0","buffer":0,"byteLength":197568,"byteOffset":0,"byteStride":12,"target":34962},{"name":"bufferView_1","buffer":0,"byteLength":197568,"byteOffset":197568,"byteStride":12,"target":34962},{"name":"bufferView_2","buffer":0,"byteLength":131712,"byteOffset":395136,"byteStride":8,"target":34962},{"name":"bufferView_3","buffer":0,"byteLength":32928,"byteOffset":526848,"target":34963},{"buffer":0,"byteOffset":559776,"byteLength":60580},{"buffer":0,"byteOffset":620356,"byteLength":35243},{"buffer":0,"byteOffset":655599,"byteLength":54728}],"images":[{"name":"pm0142_00_BodyA1","mimeType":"image/png","bufferView":4},{"name":"pm0142_00_Eye1","mimeType":"image/png","bufferView":5},{"name":"pm0142_00_BodyB1","mimeType":"image/png","bufferView":6}],"materials":[{"name":"Material__23","pbrMetallicRoughness":{"baseColorTexture":{"index":0},"baseColorFactor":[1,1,1,1],"metallicFactor":0,"roughnessFactor":0.998},"emissiveFactor":[0,0,0],"alphaMode":"OPAQUE","doubleSided":false},{"name":"Material__24","pbrMetallicRoughness":{"baseColorTexture":{"index":1},"baseColorFactor":[1,1,1,1],"metallicFactor":0,"roughnessFactor":0.998},"emissiveFactor":[0,0,0],"alphaMode":"OPAQUE","doubleSided":false},{"name":"Material__25","pbrMetallicRoughness":{"baseColorTexture":{"index":2},"baseColorFactor":[1,1,1,1],"metallicFactor":0,"roughnessFactor":0.998},"emissiveFactor":[0,0,0],"alphaMode":"OPAQUE","doubleSided":false}],"meshes":[{"name":"Aerodactyl_1","primitives":[{"attributes":{"POSITION":0,"NORMAL":1,"TEXCOORD_0":2},"indices":3,"material":0,"mode":4},{"attributes":{"POSITION":4,"NORMAL":5,"TEXCOORD_0":6},"indices":7,"material":1,"mode":4},{"attributes":{"POSITION":8,"NORMAL":9,"TEXCOORD_0":10},"indices":11,"material":2,"mode":4}]}],"nodes":[{"name":"Aerodactyl","mesh":0}],"samplers":[{"wrapS":10497,"wrapT":10497}],"scene":0,"scenes":[{"nodes":[0]}],"textures":[{"name":"pm0142_00_BodyA1","sampler":0,"source":0},{"name":"pm0142_00_Eye1","sampler":0,"source":1},{"name":"pm0142_00_BodyB1","sampler":0,"source":2}]}