{"accessors":[{"name":"polygon0_1_0_positions","componentType":5126,"count":14,"min":[-1.3642369508743286,14.567607879638672,3.0573790073394775],"max":[1.3642369508743286,17.455978393554688,3.8054380416870117],"type":"VEC3","bufferView":0,"byteOffset":0},{"name":"polygon0_1_0_normals","componentType":5126,"count":14,"min":[-0.21283307671546936,-0.2717210054397583,0.8103082776069641],"max":[0.21283307671546936,0.5509681701660156,0.9994942545890808],"type":"VEC3","bufferView":1,"byteOffset":0},{"name":"polygon0_1_0_texcoords","componentType":5126,"count":14,"min":[0.1367190033197403,0.0039059999398887157],"max":[0.3632810115814209,0.2460940033197403],"type":"VEC2","bufferView":2,"byteOffset":0},{"name":"polygon0_1_0_indices","componentType":5123,"count":42,"min":[0],"max":[13],"type":"SCALAR","bufferView":3,"byteOffset":0},{"name":"polygon1_1_0_positions","componentType":5126,"count":808,"min":[-12.970492362976074,-0.12225399911403656,-7.2642669677734375],"max":[12.970492362976074,20.27482795715332,7.237215042114258],"type":"VEC3","bufferView":0,"byteOffset":168},{"name":"polygon1_1_0_normals","componentType":5126,"count":808,"min":[-0.9999563694000244,-0.999999463558197,-0.9997310042381287],"max":[0.9999563694000244,0.9999573230743408,0.9999983310699463],"type":"VEC3","bufferView":1,"byteOffset":168},{"name":"polygon1_1_0_texcoords","componentType":5126,"count":808,"min":[0.004883000161498785,0.009216000325977802],"max":[0.9934999942779541,0.9955440163612366],"type":"VEC2","bufferView":2,"byteOffset":112},{"name":"polygon1_1_0_indices","componentType":5123,"count":4026,"min":[0],"max":[807],"type":"SCALAR","bufferView":3,"byteOffset":84},{"name":"polygon2_1_0_positions","componentType":5126,"count":18,"min":[-2.273958921432495,17.447765350341797,1.6353950500488281],"max":[2.273958921432495,18.63017463684082,3.147890090942383],"type":"VEC3","bufferView":0,"byteOffset":9864},{"name":"polygon2_1_0_normals","componentType":5126,"count":18,"min":[-0.3847622871398926,0.5223277807235718,0.478878915309906],"max":[0.3847622871398926,0.8557237982749939,0.8459286689758301],"type":"VEC3","bufferView":1,"byteOffset":9864},{"name":"polygon2_1_0_texcoords","componentType":5126,"count":18,"min":[0.007813000120222569,0.0078119998797774315],"max":[0.4882810115814209,0.2421869933605194],"type":"VEC2","bufferView":2,"byteOffset":6576},{"name":"polygon2_1_0_indices","componentType":5123,"count":48,"min":[0],"max":[17],"type":"SCALAR","bufferView":3,"byteOffset":8136}],"asset":{"generator":"obj2gltf","version":"2.0"},"buffers":[{"name":"Snorlax","byteLength":428384,"uri":"data:application/octet-stream;base64,"}],"bufferViews":[{"name":"bufferView_0","buffer":0,"byteLength":10080,"byteOffset":0,"byteStride":12,"target":34962},{"name":"bufferView_1","buffer":0,"byteLength":10080,"byteOffset":10080,"byteStride":12,"target":34962},{"name":"bufferView_2","buffer":0,"byteLength":6720,"byteOffset":20160,"byteStride":8,"target":34962},{"name":"bufferView_3","buffer":0,"byteLength":8232,"byteOffset":26880,"target":34963},{"buffer":0,"byteOffset":35112,"byteLength":98322},{"buffer":0,"byteOffset":133434,"byteLength":196626},{"buffer":0,"byteOffset":330060,"byteLength":98322}],"images":[{"name":"KabigonMouthDh","mimeType":"image/x-tga","bufferView":4},{"name":"KabigonDh","mimeType":"image/x-tga","bufferView":5},{"name":"KabigonEyeDh","mimeType":"image/x-tga","bufferView":6}],"materials":[{"name":"mat3","pbrMetallicRoughness":{"baseColorTexture":{"index":0},"baseColorFactor":[1,1,1,1],"metallicFactor":0,"roughnessFactor":0.99},"emissiveFactor":[0,0,0],"alphaMode":"OPAQUE","doubleSided":false},{"name":"mat1","pbrMetallicRoughness":{"baseColorTexture":{"index":1},"baseColorFactor":[1,1,1,1],"metallicFactor":0,"roughnessFactor":0.99},"emissiveFactor":[0,0,0],"alphaMode":"OPAQUE","doubleSided":false},{"name":"mat2","pbrMetallicRoughness":{"baseColorTexture":{"index":2},"baseColorFactor":[1,1,1,1],"metallicFactor":0,"roughnessFactor":0.99},"emissiveFactor":[0,0,0],"alphaMode":"OPAQUE","doubleSided":false}],"meshes":[{"name":"polygon0_1","primitives":[{"attributes":{"POSITION":0,"NORMAL":1,"TEXCOORD_0":2},"indices":3,"material":0,"mode":4}]},{"name":"polygon1_1","primitives":[{"attributes":{"POSITION":4,"NORMAL":5,"TEXCOORD_0":6},"indices":7,"material":1,"mode":4}]},{"name":"polygon2_1","primitives":[{"attributes":{"POSITION":8,"NORMAL":9,"TEXCOORD_0":10},"indices":11,"material":2,"mode":4}]}],"nodes":[{"name":"polygon0","mesh":0},{"name":"polygon1","mesh":1},{"name":"polygon2","mesh":2}],"samplers":[{"wrapS":10497,"wrapT":10497}],"scene":0,"scenes":[{"nodes":[0,1,2]}],"textures":[{"name":"KabigonMouthDh","sampler":0,"source":0},{"name":"KabigonDh","sampler":0,"source":1},{"name":"KabigonEyeDh","sampler":0,"source":2}]}