{"accessors":[{"name":"sleepe_c-Mesh_0_positions","componentType":5126,"count":103,"min":[-3.8420400619506836,-3.5728600025177,-4.407549858093262],"max":[3.8420400619506836,1.9223699569702148,-0.0002530000056140125],"type":"VEC3","bufferView":0,"byteOffset":0},{"name":"sleepe_c-Mesh_0_texcoords","componentType":5126,"count":103,"min":[0,0],"max":[1,1],"type":"VEC2","bufferView":1,"byteOffset":0},{"name":"sleepe_c-Mesh_0_indices","componentType":5123,"count":426,"min":[0],"max":[102],"type":"SCALAR","bufferView":2,"byteOffset":0},{"name":"sleepe_c-Mesh_1_positions","componentType":5126,"count":40,"min":[-2.712739944458008,-3.7269198894500732,-5.076250076293945],"max":[2.7161600589752197,1.8395400047302246,-3.343329906463623],"type":"VEC3","bufferView":0,"byteOffset":1236},{"name":"sleepe_c-Mesh_1_texcoords","componentType":5126,"count":40,"min":[0.028643999248743057,0.23648400604724884],"max":[0.9713559746742249,1.3123350143432617],"type":"VEC2","bufferView":1,"byteOffset":824},{"name":"sleepe_c-Mesh_1_indices","componentType":5123,"count":96,"min":[0],"max":[39],"type":"SCALAR","bufferView":2,"byteOffset":852},{"name":"sleepe_c-Mesh_2_positions","componentType":5126,"count":357,"min":[-3.9186899662017822,-3.7269198894500732,-9.897089958190918],"max":[3.921639919281006,3.8303298950195312,-4.93966007232666],"type":"VEC3","bufferView":0,"byteOffset":1716},{"name":"sleepe_c-Mesh_2_texcoords","componentType":5126,"count":357,"min":[0,0],"max":[1,1],"type":"VEC2","bufferView":1,"byteOffset":1144},{"name":"sleepe_c-Mesh_2_indices","componentType":5123,"count":1323,"min":[0],"max":[356],"type":"SCALAR","bufferView":2,"byteOffset":1044},{"name":"sleepe_c-Mesh_3_positions","componentType":5126,"count":8,"min":[-1.8820099830627441,1.0667599439620972,-8.807479858398438],"max":[1.8854299783706665,3.068190097808838,-7.722650051116943],"type":"VEC3","bufferView":0,"byteOffset":6000},{"name":"sleepe_c-Mesh_3_texcoords","componentType":5126,"count":8,"min":[-0.26031801104545593,-0.1481499969959259],"max":[1.3186700344085693,0.5924370288848877],"type":"VEC2","bufferView":1,"byteOffset":4000},{"name":"sleepe_c-Mesh_3_indices","componentType":5123,"count":12,"min":[0],"max":[7],"type":"SCALAR","bufferView":2,"byteOffset":3692},{"name":"sleepe_c-Mesh_4_positions","componentType":5126,"count":11,"min":[-1.7448899745941162,1.3327000141143799,-7.410140037536621],"max":[1.7483099699020386,2.450579881668091,-6.943739891052246],"type":"VEC3","bufferView":0,"byteOffset":6096},{"name":"sleepe_c-Mesh_4_texcoords","componentType":5126,"count":11,"min":[-0.02804500050842762,0],"max":[1.0280400514602661,1.0514039993286133],"type":"VEC2","bufferView":1,"byteOffset":4064},{"name":"sleepe_c-Mesh_4_indices","componentType":5123,"count":21,"min":[0],"max":[10],"type":"SCALAR","bufferView":2,"byteOffset":3716},{"name":"sleepe_c-Mesh_5_positions","componentType":5126,"count":24,"min":[-0.8340049982070923,2.8757500648498535,-8.285360336303711],"max":[0.8439919948577881,3.8303298950195312,-6.277929782867432],"type":"VEC3","bufferView":0,"byteOffset":6228},{"name":"sleepe_c-Mesh_5_texcoords","componentType":5126,"count":24,"min":[-0.08776099979877472,-0.188960000872612],"max":[1.083940029144287,0.8047999739646912],"type":"VEC2","bufferView":1,"byteOffset":4152},{"name":"sleepe_c-Mesh_5_indices","componentType":5123,"count":54,"min":[0],"max":[23],"type":"SCALAR","bufferView":2,"byteOffset":3760},{"name":"sleepe_c-Mesh_6_positions","componentType":5126,"count":8,"min":[-2.5145599842071533,-0.7939059734344482,-9.8826904296875],"max":[2.5145599842071533,0.4629569947719574,-8.892640113830566],"type":"VEC3","bufferView":0,"byteOffset":6516},{"name":"sleepe_c-Mesh_6_texcoords","componentType":5126,"count":8,"min":[-0.2440820038318634,-0.23399999737739563],"max":[1.1651599407196045,1.2040870189666748],"type":"VEC2","bufferView":1,"byteOffset":4344},{"name":"sleepe_c-Mesh_6_indices","componentType":5123,"count":12,"min":[0],"max":[7],"type":"SCALAR","bufferView":2,"byteOffset":3868},{"name":"sleepe_c-Mesh_7_positions","componentType":5126,"count":10,"min":[-3.7606000900268555,-2.179529905319214,-0.0016129999421536922],"max":[3.7606000900268555,-0.006961999926716089,0.05159499868750572],"type":"VEC3","bufferView":0,"byteOffset":6612},{"name":"sleepe_c-Mesh_7_texcoords","componentType":5126,"count":10,"min":[0,-0.07784000039100647],"max":[1,0.9896000027656555],"type":"VEC2","bufferView":1,"byteOffset":4408},{"name":"sleepe_c-Mesh_7_indices","componentType":5123,"count":18,"min":[0],"max":[9],"type":"SCALAR","bufferView":2,"byteOffset":3892},{"name":"sleepe_c-Mesh_8_positions","componentType":5126,"count":28,"min":[-4.0296502113342285,-0.5924990177154541,-0.65904301404953],"max":[4.0296502113342285,1.2517800331115723,0.05159499868750572],"type":"VEC3","bufferView":0,"byteOffset":6732},{"name":"sleepe_c-Mesh_8_texcoords","componentType":5126,"count":28,"min":[-0.4424000084400177,0.23399999737739563],"max":[1.5576000213623047,1.6191929578781128],"type":"VEC2","bufferView":1,"byteOffset":4488},{"name":"sleepe_c-Mesh_8_indices","componentType":5123,"count":114,"min":[0],"max":[27],"type":"SCALAR","bufferView":2,"byteOffset":3928},{"name":"sleepe_c-Mesh_9_positions","componentType":5126,"count":7,"min":[-0.5027700066566467,3.075079917907715,-6.461040019989014],"max":[0.49354198575019836,3.7981200218200684,-6.2402801513671875],"type":"VEC3","bufferView":0,"byteOffset":7068},{"name":"sleepe_c-Mesh_9_texcoords","componentType":5126,"count":7,"min":[0.008929000236093998,0.02901799976825714],"max":[0.9933040142059326,0.9776790142059326],"type":"VEC2","bufferView":1,"byteOffset":4712},{"name":"sleepe_c-Mesh_9_indices","componentType":5123,"count":18,"min":[0],"max":[6],"type":"SCALAR","bufferView":2,"byteOffset":4156}],"asset":{"generator":"obj2gltf","version":"2.0"},"buffers":[{"name":"BR_Sleepe-Shiny01","byteLength":65572,"uri":"data:application/octet-stream;base64,"}],"bufferViews":[{"name":"bufferView_0","buffer":0,"byteLength":7152,"byteOffset":0,"byteStride":12,"target":34962},{"name":"bufferView_1","buffer":0,"byteLength":4768,"byteOffset":7152,"byteStride":8,"target":34962},{"name":"bufferView_2","buffer":0,"byteLength":4192,"byteOffset":11920,"target":34963},{"buffer":0,"byteOffset":16112,"byteLength":82},{"buffer":0,"byteOffset":16194,"byteLength":8210},{"buffer":0,"byteOffset":24404,"byteLength":82},{"buffer":0,"byteOffset":24486,"byteLength":16402},{"buffer":0,"byteOffset":40888,"byteLength":4114},{"buffer":0,"byteOffset":45002,"byteLength":4114},{"buffer":0,"byteOffset":49116,"byteLength":4114},{"buffer":0,"byteOffset":53230,"byteLength":4114},{"buffer":0,"byteOffset":57344,"byteLength":4114},{"buffer":0,"byteOffset":61458,"byteLength":4114}],"images":[{"name":"sleepe_c_1_0","mimeType":"image/x-tga","bufferView":3},{"name":"sleepe_c_1_1","mimeType":"image/x-tga","bufferView":4},{"name":"sleepe_c_1_2","mimeType":"image/x-tga","bufferView":5},{"name":"sleepe_c_1_3","mimeType":"image/x-tga","bufferView":6},{"name":"sleepe_c_1_4","mimeType":"image/x-tga","bufferView":7},{"name":"sleepe_c_1_5","mimeType":"image/x-tga","bufferView":8},{"name":"sleepe_c_1_6","mimeType":"image/x-tga","bufferView":9},{"name":"sleepe_c_1_7","mimeType":"image/x-tga","bufferView":10},{"name":"sleepe_c_1_8","mimeType":"image/x-tga","bufferView":11},{"name":"sleepe_c_1_9","mimeType":"image/x-tga","bufferView":12}],"materials":[{"name":"mat_0","pbrMetallicRoughness":{"baseColorTexture":{"index":0},"baseColorFactor":[1,1,1,1],"metallicFactor":0,"roughnessFactor":0.903921569},"emissiveFactor":[0,0,0],"alphaMode":"BLEND","doubleSided":true},{"name":"mat_1","pbrMetallicRoughness":{"baseColorTexture":{"index":1},"baseColorFactor":[1,1,1,1],"metallicFactor":0,"roughnessFactor":0.903921569},"emissiveFactor":[0,0,0],"alphaMode":"BLEND","doubleSided":true},{"name":"mat_2","pbrMetallicRoughness":{"baseColorTexture":{"index":2},"baseColorFactor":[1,1,1,1],"metallicFactor":0,"roughnessFactor":0.903921569},"emissiveFactor":[0,0,0],"alphaMode":"BLEND","doubleSided":true},{"name":"mat_3","pbrMetallicRoughness":{"baseColorTexture":{"index":3},"baseColorFactor":[1,1,1,1],"metallicFactor":0,"roughnessFactor":0.903921569},"emissiveFactor":[0,0,0],"alphaMode":"BLEND","doubleSided":true},{"name":"mat_4","pbrMetallicRoughness":{"baseColorTexture":{"index":4},"baseColorFactor":[1,1,1,1],"metallicFactor":0,"roughnessFactor":0.903921569},"emissiveFactor":[0,0,0],"alphaMode":"BLEND","doubleSided":true},{"name":"mat_5","pbrMetallicRoughness":{"baseColorTexture":{"index":5},"baseColorFactor":[1,1,1,1],"metallicFactor":0,"roughnessFactor":0.903921569},"emissiveFactor":[0,0,0],"alphaMode":"BLEND","doubleSided":true},{"name":"mat_6","pbrMetallicRoughness":{"baseColorTexture":{"index":6},"baseColorFactor":[1,1,1,1],"metallicFactor":0,"roughnessFactor":0.903921569},"emissiveFactor":[0,0,0],"alphaMode":"BLEND","doubleSided":true},{"name":"mat_7","pbrMetallicRoughness":{"baseColorTexture":{"index":7},"baseColorFactor":[1,1,1,1],"metallicFactor":0,"roughnessFactor":0.903921569},"emissiveFactor":[0,0,0],"alphaMode":"BLEND","doubleSided":true},{"name":"mat_8","pbrMetallicRoughness":{"baseColorTexture":{"index":8},"baseColorFactor":[1,1,1,1],"metallicFactor":0,"roughnessFactor":0.903921569},"emissiveFactor":[0,0,0],"alphaMode":"BLEND","doubleSided":true},{"name":"mat_9","pbrMetallicRoughness":{"baseColorTexture":{"index":9},"baseColorFactor":[1,1,1,1],"metallicFactor":0,"roughnessFactor":0.903921569},"emissiveFactor":[0,0,0],"alphaMode":"BLEND","doubleSided":true}],"meshes":[{"name":"sleepe_c-Mesh","primitives":[{"attributes":{"POSITION":0,"TEXCOORD_0":1},"indices":2,"material":0,"mode":4},{"attributes":{"POSITION":3,"TEXCOORD_0":4},"indices":5,"material":1,"mode":4},{"attributes":{"POSITION":6,"TEXCOORD_0":7},"indices":8,"material":2,"mode":4},{"attributes":{"POSITION":9,"TEXCOORD_0":10},"indices":11,"material":3,"mode":4},{"attributes":{"POSITION":12,"TEXCOORD_0":13},"indices":14,"material":4,"mode":4},{"attributes":{"POSITION":15,"TEXCOORD_0":16},"indices":17,"material":5,"mode":4},{"attributes":{"POSITION":18,"TEXCOORD_0":19},"indices":20,"material":6,"mode":4},{"attributes":{"POSITION":21,"TEXCOORD_0":22},"indices":23,"material":7,"mode":4},{"attributes":{"POSITION":24,"TEXCOORD_0":25},"indices":26,"material":8,"mode":4},{"attributes":{"POSITION":27,"TEXCOORD_0":28},"indices":29,"material":9,"mode":4}]}],"nodes":[{"name":"sleepe_c","mesh":0}],"samplers":[{"wrapS":10497,"wrapT":10497}],"scene":0,"scenes":[{"nodes":[0]}],"textures":[{"name":"sleepe_c_1_0","sampler":0,"source":0},{"name":"sleepe_c_1_1","sampler":0,"source":1},{"name":"sleepe_c_1_2","sampler":0,"source":2},{"name":"sleepe_c_1_3","sampler":0,"source":3},{"name":"sleepe_c_1_4","sampler":0,"source":4},{"name":"sleepe_c_1_5","sampler":0,"source":5},{"name":"sleepe_c_1_6","sampler":0,"source":6},{"name":"sleepe_c_1_7","sampler":0,"source":7},{"name":"sleepe_c_1_8","sampler":0,"source":8},{"name":"sleepe_c_1_9","sampler":0,"source":9}]}