{"accessors":[{"name":"freezer-Mesh_0_positions","componentType":5126,"count":1496,"min":[-19.44118309020996,-27.514572143554688,-20.885364532470703],"max":[19.44118309020996,8.023526191711426,24.34832191467285],"type":"VEC3","bufferView":0,"byteOffset":0},{"name":"freezer-Mesh_0_texcoords","componentType":5126,"count":1496,"min":[0.057732999324798584,0.02260800078511238],"max":[0.9794179797172546,0.9785249829292297],"type":"VEC2","bufferView":1,"byteOffset":0},{"name":"freezer-Mesh_0_indices","componentType":5123,"count":7380,"min":[0],"max":[1495],"type":"SCALAR","bufferView":2,"byteOffset":0},{"name":"freezer-Mesh_1_positions","componentType":5126,"count":99,"min":[-2.404578924179077,2.4951438903808594,-10.249262809753418],"max":[2.404578924179077,6.372838973999023,-5.746335983276367],"type":"VEC3","bufferView":0,"byteOffset":17952},{"name":"freezer-Mesh_1_texcoords","componentType":5126,"count":99,"min":[0.320838987827301,0.7249150276184082],"max":[0.3481389880180359,0.7760379910469055],"type":"VEC2","bufferView":1,"byteOffset":11968},{"name":"freezer-Mesh_1_indices","componentType":5123,"count":570,"min":[0],"max":[98],"type":"SCALAR","bufferView":2,"byteOffset":14760},{"name":"freezer-Mesh_2_positions","componentType":5126,"count":30,"min":[-1.3850140571594238,5.0621418952941895,-6.880677223205566],"max":[1.3850140571594238,6.2362470626831055,-5.530648231506348],"type":"VEC3","bufferView":0,"byteOffset":19140},{"name":"freezer-Mesh_2_texcoords","componentType":5126,"count":30,"min":[0.08104000240564346,0.0026469998992979527],"max":[0.9189590215682983,0.22575700283050537],"type":"VEC2","bufferView":1,"byteOffset":12760},{"name":"freezer-Mesh_2_indices","componentType":5123,"count":102,"min":[0],"max":[29],"type":"SCALAR","bufferView":2,"byteOffset":15900}],"asset":{"generator":"obj2gltf","version":"2.0"},"buffers":[{"name":"BR_Articuno-Shiny01","byteLength":1621504,"uri":"data:application/octet-stream;base64,"}],"bufferViews":[{"name":"bufferView_0","buffer":0,"byteLength":19500,"byteOffset":0,"byteStride":12,"target":34962},{"name":"bufferView_1","buffer":0,"byteLength":13000,"byteOffset":19500,"byteStride":8,"target":34962},{"name":"bufferView_2","buffer":0,"byteLength":16104,"byteOffset":32500,"target":34963},{"buffer":0,"byteOffset":48604,"byteLength":1048594},{"buffer":0,"byteOffset":1097198,"byteLength":524306}],"images":[{"name":"freezer_1_0","mimeType":"image/x-tga","bufferView":3},{"name":"freezer_1_2","mimeType":"image/x-tga","bufferView":4}],"materials":[{"name":"mat_0","pbrMetallicRoughness":{"baseColorTexture":{"index":0},"baseColorFactor":[1,1,1,1],"metallicFactor":0,"roughnessFactor":0.903921569},"emissiveFactor":[0,0,0],"alphaMode":"BLEND","doubleSided":true},{"name":"mat_1","pbrMetallicRoughness":{"baseColorTexture":{"index":0},"baseColorFactor":[1,1,1,1],"metallicFactor":0,"roughnessFactor":0.903921569},"emissiveFactor":[0,0,0],"alphaMode":"BLEND","doubleSided":true},{"name":"mat_2","pbrMetallicRoughness":{"baseColorTexture":{"index":1},"baseColorFactor":[1,1,1,1],"metallicFactor":0,"roughnessFactor":0.903921569},"emissiveFactor":[0,0,0],"alphaMode":"BLEND","doubleSided":true}],"meshes":[{"name":"freezer-Mesh","primitives":[{"attributes":{"POSITION":0,"TEXCOORD_0":1},"indices":2,"material":0,"mode":4},{"attributes":{"POSITION":3,"TEXCOORD_0":4},"indices":5,"material":1,"mode":4},{"attributes":{"POSITION":6,"TEXCOORD_0":7},"indices":8,"material":2,"mode":4}]}],"nodes":[{"name":"freezer","mesh":0}],"samplers":[{"wrapS":10497,"wrapT":10497}],"scene":0,"scenes":[{"nodes":[0]}],"textures":[{"name":"freezer_1_0","sampler":0,"source":0},{"name":"freezer_1_2","sampler":0,"source":1}]}