{"accessors":[{"name":"thunder-Mesh_0_positions","componentType":5126,"count":1513,"min":[-15.097784996032715,-5.551708221435547,-10.45722484588623],"max":[15.097784996032715,10.354379653930664,7.545278072357178],"type":"VEC3","bufferView":0,"byteOffset":0},{"name":"thunder-Mesh_0_texcoords","componentType":5126,"count":1513,"min":[0.03451399877667427,0.39980998635292053],"max":[0.9761130213737488,0.9940080046653748],"type":"VEC2","bufferView":1,"byteOffset":0},{"name":"thunder-Mesh_0_indices","componentType":5123,"count":7344,"min":[0],"max":[1512],"type":"SCALAR","bufferView":2,"byteOffset":0},{"name":"thunder-Mesh_1_positions","componentType":5126,"count":16,"min":[-1.004438042640686,3.7400619983673096,-5.333528995513916],"max":[1.004438042640686,4.6970930099487305,-4.309730052947998],"type":"VEC3","bufferView":0,"byteOffset":18156},{"name":"thunder-Mesh_1_texcoords","componentType":5126,"count":16,"min":[0.04740000143647194,0.0005000000237487257],"max":[0.9672809839248657,0.24645200371742249],"type":"VEC2","bufferView":1,"byteOffset":12104},{"name":"thunder-Mesh_1_indices","componentType":5123,"count":36,"min":[0],"max":[15],"type":"SCALAR","bufferView":2,"byteOffset":14688}],"asset":{"generator":"obj2gltf","version":"2.0"},"buffers":[{"name":"BR_Zapdos-Shiny01","byteLength":1225024,"uri":"data:application/octet-stream;base64,"}],"bufferViews":[{"name":"bufferView_0","buffer":0,"byteLength":18348,"byteOffset":0,"byteStride":12,"target":34962},{"name":"bufferView_1","buffer":0,"byteLength":12232,"byteOffset":18348,"byteStride":8,"target":34962},{"name":"bufferView_2","buffer":0,"byteLength":14760,"byteOffset":30580,"target":34963},{"buffer":0,"byteOffset":45340,"byteLength":1048594},{"buffer":0,"byteOffset":1093934,"byteLength":131090}],"images":[{"name":"thunder_1_0","mimeType":"image/x-tga","bufferView":3},{"name":"thunder_1_1","mimeType":"image/x-tga","bufferView":4}],"materials":[{"name":"mat_0","pbrMetallicRoughness":{"baseColorTexture":{"index":0},"baseColorFactor":[1,1,1,1],"metallicFactor":0,"roughnessFactor":0.903921569},"emissiveFactor":[0,0,0],"alphaMode":"BLEND","doubleSided":true},{"name":"mat_1","pbrMetallicRoughness":{"baseColorTexture":{"index":1},"baseColorFactor":[1,1,1,1],"metallicFactor":0,"roughnessFactor":0.903921569},"emissiveFactor":[0,0,0],"alphaMode":"BLEND","doubleSided":true}],"meshes":[{"name":"thunder-Mesh","primitives":[{"attributes":{"POSITION":0,"TEXCOORD_0":1},"indices":2,"material":0,"mode":4},{"attributes":{"POSITION":3,"TEXCOORD_0":4},"indices":5,"material":1,"mode":4}]}],"nodes":[{"name":"thunder","mesh":0}],"samplers":[{"wrapS":10497,"wrapT":10497}],"scene":0,"scenes":[{"nodes":[0]}],"textures":[{"name":"thunder_1_0","sampler":0,"source":0},{"name":"thunder_1_1","sampler":0,"source":1}]}