{"accessors":[{"name":"fire-Mesh_0_positions","componentType":5126,"count":42,"min":[-27.125926971435547,-6.279629230499268,-28.176475524902344],"max":[27.125926971435547,0.2888309955596924,-8.178288459777832],"type":"VEC3","bufferView":0,"byteOffset":0},{"name":"fire-Mesh_0_texcoords","componentType":5126,"count":42,"min":[-0.11370299756526947,0.0019199999514967203],"max":[4,0.1227319985628128],"type":"VEC2","bufferView":1,"byteOffset":0},{"name":"fire-Mesh_0_indices","componentType":5123,"count":114,"min":[0],"max":[41],"type":"SCALAR","bufferView":2,"byteOffset":0},{"name":"fire-Mesh_1_positions","componentType":5126,"count":60,"min":[-1.282696008682251,5.74715518951416,-15.633374214172363],"max":[1.282696008682251,7.076330184936523,-14.345523834228516],"type":"VEC3","bufferView":0,"byteOffset":504},{"name":"fire-Mesh_1_texcoords","componentType":5126,"count":60,"min":[0.009290000423789024,0.04030200093984604],"max":[0.8938930034637451,0.46006301045417786],"type":"VEC2","bufferView":1,"byteOffset":336},{"name":"fire-Mesh_1_indices","componentType":5123,"count":216,"min":[0],"max":[59],"type":"SCALAR","bufferView":2,"byteOffset":228},{"name":"fire-Mesh_2_positions","componentType":5126,"count":837,"min":[-20.57994270324707,-2.2545549869537354,-22.90138816833496],"max":[20.57994270324707,10.427042961120605,-0.012694000266492367],"type":"VEC3","bufferView":0,"byteOffset":1224},{"name":"fire-Mesh_2_texcoords","componentType":5126,"count":837,"min":[0.00931399967521429,0.014011000283062458],"max":[0.9777349829673767,0.9853940010070801],"type":"VEC2","bufferView":1,"byteOffset":816},{"name":"fire-Mesh_2_indices","componentType":5123,"count":3954,"min":[0],"max":[836],"type":"SCALAR","bufferView":2,"byteOffset":660}],"asset":{"generator":"obj2gltf","version":"2.0"},"buffers":[{"name":"BR_Moltres-Shiny01","byteLength":1403660,"uri":"data:application/octet-stream;base64,"}],"bufferViews":[{"name":"bufferView_0","buffer":0,"byteLength":11268,"byteOffset":0,"byteStride":12,"target":34962},{"name":"bufferView_1","buffer":0,"byteLength":7512,"byteOffset":11268,"byteStride":8,"target":34962},{"name":"bufferView_2","buffer":0,"byteLength":8568,"byteOffset":18780,"target":34963},{"buffer":0,"byteOffset":27348,"byteLength":262162},{"buffer":0,"byteOffset":289510,"byteLength":65554},{"buffer":0,"byteOffset":355064,"byteLength":1048594}],"images":[{"name":"fire_1_0","mimeType":"image/x-tga","bufferView":3},{"name":"fire_1_1","mimeType":"image/x-tga","bufferView":4},{"name":"fire_1_2","mimeType":"image/x-tga","bufferView":5}],"materials":[{"name":"mat_0","pbrMetallicRoughness":{"baseColorTexture":{"index":0},"baseColorFactor":[1,1,1,1],"metallicFactor":0,"roughnessFactor":0.903921569},"emissiveFactor":[0,0,0],"alphaMode":"BLEND","doubleSided":true},{"name":"mat_1","pbrMetallicRoughness":{"baseColorTexture":{"index":1},"baseColorFactor":[1,1,1,1],"metallicFactor":0,"roughnessFactor":0.903921569},"emissiveFactor":[0,0,0],"alphaMode":"BLEND","doubleSided":true},{"name":"mat_2","pbrMetallicRoughness":{"baseColorTexture":{"index":2},"baseColorFactor":[1,1,1,1],"metallicFactor":0,"roughnessFactor":0.903921569},"emissiveFactor":[0,0,0],"alphaMode":"BLEND","doubleSided":true}],"meshes":[{"name":"fire-Mesh","primitives":[{"attributes":{"POSITION":0,"TEXCOORD_0":1},"indices":2,"material":0,"mode":4},{"attributes":{"POSITION":3,"TEXCOORD_0":4},"indices":5,"material":1,"mode":4},{"attributes":{"POSITION":6,"TEXCOORD_0":7},"indices":8,"material":2,"mode":4}]}],"nodes":[{"name":"fire","mesh":0}],"samplers":[{"wrapS":10497,"wrapT":10497}],"scene":0,"scenes":[{"nodes":[0]}],"textures":[{"name":"fire_1_0","sampler":0,"source":0},{"name":"fire_1_1","sampler":0,"source":1},{"name":"fire_1_2","sampler":0,"source":2}]}