{"accessors":[{"name":"miniryu-Mesh_0_positions","componentType":5126,"count":184,"min":[-6.967249870300293,-2.161129951477051,-7.412010192871094],"max":[1.165179967880249,3.3653199672698975,-0.33807599544525146],"type":"VEC3","bufferView":0,"byteOffset":0},{"name":"miniryu-Mesh_0_texcoords","componentType":5126,"count":184,"min":[0,0.018820999190211296],"max":[1,1],"type":"VEC2","bufferView":1,"byteOffset":0},{"name":"miniryu-Mesh_0_indices","componentType":5123,"count":882,"min":[0],"max":[183],"type":"SCALAR","bufferView":2,"byteOffset":0},{"name":"miniryu-Mesh_1_positions","componentType":5126,"count":66,"min":[-6.967249870300293,-2.0434200763702393,-4.076300144195557],"max":[0.97536700963974,3.679579973220825,0.008658000268042088],"type":"VEC3","bufferView":0,"byteOffset":2208},{"name":"miniryu-Mesh_1_texcoords","componentType":5126,"count":66,"min":[0,0.6005899906158447],"max":[0.8883609771728516,1],"type":"VEC2","bufferView":1,"byteOffset":1472},{"name":"miniryu-Mesh_1_indices","componentType":5123,"count":210,"min":[0],"max":[65],"type":"SCALAR","bufferView":2,"byteOffset":1764},{"name":"miniryu-Mesh_2_positions","componentType":5126,"count":20,"min":[-5.64162015914917,-2.0434200763702393,-0.7142030000686646],"max":[0.9548450112342834,0.8439689874649048,0.020772000774741173],"type":"VEC3","bufferView":0,"byteOffset":3000},{"name":"miniryu-Mesh_2_texcoords","componentType":5126,"count":20,"min":[0,1],"max":[0,1],"type":"VEC2","bufferView":1,"byteOffset":2000},{"name":"miniryu-Mesh_2_indices","componentType":5123,"count":54,"min":[0],"max":[19],"type":"SCALAR","bufferView":2,"byteOffset":2184},{"name":"miniryu-Mesh_3_positions","componentType":5126,"count":8,"min":[-0.9079369902610779,2.667759895324707,-2.022059917449951],"max":[0.9319459795951843,3.679579973220825,-0.5157880187034607],"type":"VEC3","bufferView":0,"byteOffset":3240},{"name":"miniryu-Mesh_3_texcoords","componentType":5126,"count":8,"min":[-0.025210000574588776,1],"max":[-0.025210000574588776,1],"type":"VEC2","bufferView":1,"byteOffset":2160},{"name":"miniryu-Mesh_3_indices","componentType":5123,"count":18,"min":[0],"max":[7],"type":"SCALAR","bufferView":2,"byteOffset":2292},{"name":"miniryu-Mesh_4_positions","componentType":5126,"count":12,"min":[-0.6588889956474304,2.59512996673584,-4.968090057373047],"max":[0.665041983127594,3.3532400131225586,-4.074460029602051],"type":"VEC3","bufferView":0,"byteOffset":3336},{"name":"miniryu-Mesh_4_texcoords","componentType":5126,"count":12,"min":[-0.11606699973344803,0.2041649967432022],"max":[1.1323599815368652,1.0052779912948608],"type":"VEC2","bufferView":1,"byteOffset":2224},{"name":"miniryu-Mesh_4_indices","componentType":5123,"count":36,"min":[0],"max":[11],"type":"SCALAR","bufferView":2,"byteOffset":2328},{"name":"miniryu-Mesh_5_positions","componentType":5126,"count":14,"min":[-1.037600040435791,2.5238499641418457,-6.982749938964844],"max":[1.0437500476837158,3.3653199672698975,-6.120409965515137],"type":"VEC3","bufferView":0,"byteOffset":3480},{"name":"miniryu-Mesh_5_texcoords","componentType":5126,"count":14,"min":[-0.27807000279426575,0.04160400107502937],"max":[1.1010700464248657,0.26240700483322144],"type":"VEC2","bufferView":1,"byteOffset":2320},{"name":"miniryu-Mesh_5_indices","componentType":5123,"count":30,"min":[0],"max":[13],"type":"SCALAR","bufferView":2,"byteOffset":2400},{"name":"miniryu-Mesh_6_positions","componentType":5126,"count":44,"min":[-0.8184419870376587,2.9632999897003174,-6.285120010375977],"max":[0.8245949745178223,3.8338799476623535,-5.1263298988342285],"type":"VEC3","bufferView":0,"byteOffset":3648},{"name":"miniryu-Mesh_6_texcoords","componentType":5126,"count":44,"min":[0,0.032722000032663345],"max":[1,1.032721996307373],"type":"VEC2","bufferView":1,"byteOffset":2432},{"name":"miniryu-Mesh_6_indices","componentType":5123,"count":222,"min":[0],"max":[43],"type":"SCALAR","bufferView":2,"byteOffset":2460},{"name":"miniryu-Mesh_7_positions","componentType":5126,"count":90,"min":[-1.7835999727249146,0.22131399810314178,-7.765620231628418],"max":[1.770550012588501,1.969920039176941,-5.347439765930176],"type":"VEC3","bufferView":0,"byteOffset":4176},{"name":"miniryu-Mesh_7_texcoords","componentType":5126,"count":90,"min":[-9.999999974752427e-7,0],"max":[0.9999989867210388,1],"type":"VEC2","bufferView":1,"byteOffset":2784},{"name":"miniryu-Mesh_7_indices","componentType":5123,"count":384,"min":[0],"max":[89],"type":"SCALAR","bufferView":2,"byteOffset":2904},{"name":"miniryu-Mesh_8_positions","componentType":5126,"count":12,"min":[-0.11690899729728699,2.945039987564087,-7.102859973907471],"max":[0.11977799981832504,3.182569980621338,-6.838039875030518],"type":"VEC3","bufferView":0,"byteOffset":5256},{"name":"miniryu-Mesh_8_texcoords","componentType":5126,"count":12,"min":[0.2666560113430023,0.05042099952697754],"max":[0.9209489822387695,0.8602089881896973],"type":"VEC2","bufferView":1,"byteOffset":3504},{"name":"miniryu-Mesh_8_indices","componentType":5123,"count":60,"min":[0],"max":[11],"type":"SCALAR","bufferView":2,"byteOffset":3672}],"asset":{"generator":"obj2gltf","version":"2.0"},"buffers":[{"name":"BR_Dratini-Shiny01","byteLength":50148,"uri":"data:application/octet-stream;base64,"}],"bufferViews":[{"name":"bufferView_0","buffer":0,"byteLength":5400,"byteOffset":0,"byteStride":12,"target":34962},{"name":"bufferView_1","buffer":0,"byteLength":3600,"byteOffset":5400,"byteStride":8,"target":34962},{"name":"bufferView_2","buffer":0,"byteLength":3792,"byteOffset":9000,"target":34963},{"buffer":0,"byteOffset":12792,"byteLength":82},{"buffer":0,"byteOffset":12874,"byteLength":82},{"buffer":0,"byteOffset":12956,"byteLength":4114},{"buffer":0,"byteOffset":17070,"byteLength":24594},{"buffer":0,"byteOffset":41664,"byteLength":274},{"buffer":0,"byteOffset":41938,"byteLength":8210}],"images":[{"name":"miniryu_1_0","mimeType":"image/x-tga","bufferView":3},{"name":"miniryu_1_1","mimeType":"image/x-tga","bufferView":4},{"name":"miniryu_1_4","mimeType":"image/x-tga","bufferView":5},{"name":"miniryu_1_5","mimeType":"image/x-tga","bufferView":6},{"name":"miniryu_1_6","mimeType":"image/x-tga","bufferView":7},{"name":"miniryu_1_7","mimeType":"image/x-tga","bufferView":8}],"materials":[{"name":"mat_0","pbrMetallicRoughness":{"baseColorTexture":{"index":0},"baseColorFactor":[1,1,1,1],"metallicFactor":0,"roughnessFactor":0.903921569},"emissiveFactor":[0,0,0],"alphaMode":"BLEND","doubleSided":true},{"name":"mat_1","pbrMetallicRoughness":{"baseColorTexture":{"index":1},"baseColorFactor":[1,1,1,1],"metallicFactor":0,"roughnessFactor":0.903921569},"emissiveFactor":[0,0,0],"alphaMode":"BLEND","doubleSided":true},{"name":"mat_2","pbrMetallicRoughness":{"baseColorTexture":{"index":1},"baseColorFactor":[1,1,1,1],"metallicFactor":0,"roughnessFactor":0.903921569},"emissiveFactor":[0,0,0],"alphaMode":"BLEND","doubleSided":true},{"name":"mat_3","pbrMetallicRoughness":{"baseColorTexture":{"index":1},"baseColorFactor":[1,1,1,1],"metallicFactor":0,"roughnessFactor":0.903921569},"emissiveFactor":[0,0,0],"alphaMode":"BLEND","doubleSided":true},{"name":"mat_4","pbrMetallicRoughness":{"baseColorTexture":{"index":2},"baseColorFactor":[1,1,1,1],"metallicFactor":0,"roughnessFactor":0.903921569},"emissiveFactor":[0,0,0],"alphaMode":"BLEND","doubleSided":true},{"name":"mat_5","pbrMetallicRoughness":{"baseColorTexture":{"index":3},"baseColorFactor":[1,1,1,1],"metallicFactor":0,"roughnessFactor":0.903921569},"emissiveFactor":[0,0,0],"alphaMode":"BLEND","doubleSided":true},{"name":"mat_6","pbrMetallicRoughness":{"baseColorTexture":{"index":4},"baseColorFactor":[1,1,1,1],"metallicFactor":0,"roughnessFactor":0.903921569},"emissiveFactor":[0,0,0],"alphaMode":"BLEND","doubleSided":true},{"name":"mat_7","pbrMetallicRoughness":{"baseColorTexture":{"index":5},"baseColorFactor":[1,1,1,1],"metallicFactor":0,"roughnessFactor":0.903921569},"emissiveFactor":[0,0,0],"alphaMode":"BLEND","doubleSided":true},{"name":"mat_8","pbrMetallicRoughness":{"baseColorTexture":{"index":1},"baseColorFactor":[1,1,1,1],"metallicFactor":0,"roughnessFactor":0.903921569},"emissiveFactor":[0,0,0],"alphaMode":"BLEND","doubleSided":true}],"meshes":[{"name":"miniryu-Mesh","primitives":[{"attributes":{"POSITION":0,"TEXCOORD_0":1},"indices":2,"material":0,"mode":4},{"attributes":{"POSITION":3,"TEXCOORD_0":4},"indices":5,"material":1,"mode":4},{"attributes":{"POSITION":6,"TEXCOORD_0":7},"indices":8,"material":2,"mode":4},{"attributes":{"POSITION":9,"TEXCOORD_0":10},"indices":11,"material":3,"mode":4},{"attributes":{"POSITION":12,"TEXCOORD_0":13},"indices":14,"material":4,"mode":4},{"attributes":{"POSITION":15,"TEXCOORD_0":16},"indices":17,"material":5,"mode":4},{"attributes":{"POSITION":18,"TEXCOORD_0":19},"indices":20,"material":6,"mode":4},{"attributes":{"POSITION":21,"TEXCOORD_0":22},"indices":23,"material":7,"mode":4},{"attributes":{"POSITION":24,"TEXCOORD_0":25},"indices":26,"material":8,"mode":4}]}],"nodes":[{"name":"miniryu","mesh":0}],"samplers":[{"wrapS":10497,"wrapT":10497}],"scene":0,"scenes":[{"nodes":[0]}],"textures":[{"name":"miniryu_1_0","sampler":0,"source":0},{"name":"miniryu_1_1","sampler":0,"source":1},{"name":"miniryu_1_4","sampler":0,"source":2},{"name":"miniryu_1_5","sampler":0,"source":3},{"name":"miniryu_1_6","sampler":0,"source":4},{"name":"miniryu_1_7","sampler":0,"source":5}]}