{"accessors":[{"name":"hakuryu-Mesh_0_positions","componentType":5126,"count":47,"min":[-1.321763038635254,9.551621437072754,-15.182435035705566],"max":[1.321763038635254,10.97502326965332,-13.525128364562988],"type":"VEC3","bufferView":0,"byteOffset":0},{"name":"hakuryu-Mesh_0_texcoords","componentType":5126,"count":47,"min":[0.04072500020265579,-0.04037899896502495],"max":[0.7879120111465454,0.2025260031223297],"type":"VEC2","bufferView":1,"byteOffset":0},{"name":"hakuryu-Mesh_0_indices","componentType":5123,"count":168,"min":[0],"max":[46],"type":"SCALAR","bufferView":2,"byteOffset":0},{"name":"hakuryu-Mesh_1_positions","componentType":5126,"count":889,"min":[-1.747215986251831,-25.236324310302734,-16.14470100402832],"max":[1.747215986251831,11.81214427947998,0.09059400111436844],"type":"VEC3","bufferView":0,"byteOffset":564},{"name":"hakuryu-Mesh_1_texcoords","componentType":5126,"count":889,"min":[0.01874300092458725,0.1246500015258789],"max":[0.9839749932289124,0.984952986240387],"type":"VEC2","bufferView":1,"byteOffset":376},{"name":"hakuryu-Mesh_1_indices","componentType":5123,"count":3840,"min":[0],"max":[888],"type":"SCALAR","bufferView":2,"byteOffset":336},{"name":"hakuryu-Mesh_2_positions","componentType":5126,"count":279,"min":[-0.9071940183639526,-24.220794677734375,-11.798216819763184],"max":[0.9061059951782227,10.444504737854004,-4.239327907562256],"type":"VEC3","bufferView":0,"byteOffset":11232},{"name":"hakuryu-Mesh_2_texcoords","componentType":5126,"count":279,"min":[0.8830209970474243,0.89341801404953],"max":[0.9630119800567627,0.9734089970588684],"type":"VEC2","bufferView":1,"byteOffset":7488},{"name":"hakuryu-Mesh_2_indices","componentType":5123,"count":1512,"min":[0],"max":[278],"type":"SCALAR","bufferView":2,"byteOffset":8016}],"asset":{"generator":"obj2gltf","version":"2.0"},"buffers":[{"name":"BR_Dragonair-Shiny01","byteLength":1215024,"uri":"data:application/octet-stream;base64,"}],"bufferViews":[{"name":"bufferView_0","buffer":0,"byteLength":14580,"byteOffset":0,"byteStride":12,"target":34962},{"name":"bufferView_1","buffer":0,"byteLength":9720,"byteOffset":14580,"byteStride":8,"target":34962},{"name":"bufferView_2","buffer":0,"byteLength":11040,"byteOffset":24300,"target":34963},{"buffer":0,"byteOffset":35340,"byteLength":131090},{"buffer":0,"byteOffset":166430,"byteLength":1048594}],"images":[{"name":"hakuryu_1_0","mimeType":"image/x-tga","bufferView":3},{"name":"hakuryu_1_2","mimeType":"image/x-tga","bufferView":4}],"materials":[{"name":"mat_0","pbrMetallicRoughness":{"baseColorTexture":{"index":0},"baseColorFactor":[1,1,1,1],"metallicFactor":0,"roughnessFactor":0.903921569},"emissiveFactor":[0,0,0],"alphaMode":"BLEND","doubleSided":true},{"name":"mat_1","pbrMetallicRoughness":{"baseColorTexture":{"index":1},"baseColorFactor":[1,1,1,1],"metallicFactor":0,"roughnessFactor":0.903921569},"emissiveFactor":[0,0,0],"alphaMode":"BLEND","doubleSided":true},{"name":"mat_2","pbrMetallicRoughness":{"baseColorTexture":{"index":1},"baseColorFactor":[1,1,1,1],"metallicFactor":0,"roughnessFactor":0.903921569},"emissiveFactor":[0,0,0],"alphaMode":"BLEND","doubleSided":true}],"meshes":[{"name":"hakuryu-Mesh","primitives":[{"attributes":{"POSITION":0,"TEXCOORD_0":1},"indices":2,"material":0,"mode":4},{"attributes":{"POSITION":3,"TEXCOORD_0":4},"indices":5,"material":1,"mode":4},{"attributes":{"POSITION":6,"TEXCOORD_0":7},"indices":8,"material":2,"mode":4}]}],"nodes":[{"name":"hakuryu","mesh":0}],"samplers":[{"wrapS":10497,"wrapT":10497}],"scene":0,"scenes":[{"nodes":[0]}],"textures":[{"name":"hakuryu_1_0","sampler":0,"source":0},{"name":"hakuryu_1_2","sampler":0,"source":1}]}