{"accessors":[{"name":"polygon0_1_0_positions","componentType":5126,"count":10,"min":[-1.9464349746704102,18.605030059814453,2.1148130893707275],"max":[1.9464290142059326,19.906064987182617,3.515052080154419],"type":"VEC3","bufferView":0,"byteOffset":0},{"name":"polygon0_1_0_normals","componentType":5126,"count":10,"min":[-0.9478046298027039,0.009093997068703175,0.3098810315132141],"max":[0.9478046298027039,0.5604280233383179,0.6619910001754761],"type":"VEC3","bufferView":1,"byteOffset":0},{"name":"polygon0_1_0_texcoords","componentType":5126,"count":10,"min":[0.015625,0.027343999594449997],"max":[0.484375,0.234375],"type":"VEC2","bufferView":2,"byteOffset":0},{"name":"polygon0_1_0_indices","componentType":5123,"count":18,"min":[0],"max":[9],"type":"SCALAR","bufferView":3,"byteOffset":0},{"name":"polygon1_1_0_positions","componentType":5126,"count":1112,"min":[-9.432035446166992,-9.999999974752427e-7,-22.243200302124023],"max":[9.432063102722168,22.753795623779297,5.1533989906311035],"type":"VEC3","bufferView":0,"byteOffset":120},{"name":"polygon1_1_0_normals","componentType":5126,"count":1112,"min":[-0.9956088662147522,-1,-0.9999749660491943],"max":[0.9956088662147522,0.9988296627998352,0.9994871020317078],"type":"VEC3","bufferView":1,"byteOffset":120},{"name":"polygon1_1_0_texcoords","componentType":5126,"count":1112,"min":[0.004821999929845333,0.012268000282347202],"max":[0.9806519746780396,0.9840090274810791],"type":"VEC2","bufferView":2,"byteOffset":80},{"name":"polygon1_1_0_indices","componentType":5123,"count":5016,"min":[0],"max":[1111],"type":"SCALAR","bufferView":3,"byteOffset":36}],"asset":{"generator":"obj2gltf","version":"2.0"},"buffers":[{"name":"Dragonite","byteLength":340920,"uri":"data:application/octet-stream;base64,"}],"bufferViews":[{"name":"bufferView_0","buffer":0,"byteLength":13464,"byteOffset":0,"byteStride":12,"target":34962},{"name":"bufferView_1","buffer":0,"byteLength":13464,"byteOffset":13464,"byteStride":12,"target":34962},{"name":"bufferView_2","buffer":0,"byteLength":8976,"byteOffset":26928,"byteStride":8,"target":34962},{"name":"bufferView_3","buffer":0,"byteLength":10068,"byteOffset":35904,"target":34963},{"buffer":0,"byteOffset":45972,"byteLength":98322},{"buffer":0,"byteOffset":144294,"byteLength":196626}],"images":[{"name":"KairyuEyeDh","mimeType":"image/x-tga","bufferView":4},{"name":"KairyuDh","mimeType":"image/x-tga","bufferView":5}],"materials":[{"name":"mat2","pbrMetallicRoughness":{"baseColorTexture":{"index":0},"baseColorFactor":[1,1,1,1],"metallicFactor":0,"roughnessFactor":0.99},"emissiveFactor":[0,0,0],"alphaMode":"OPAQUE","doubleSided":false},{"name":"mat1","pbrMetallicRoughness":{"baseColorTexture":{"index":1},"baseColorFactor":[1,1,1,1],"metallicFactor":0,"roughnessFactor":0.99},"emissiveFactor":[0,0,0],"alphaMode":"OPAQUE","doubleSided":false}],"meshes":[{"name":"polygon0_1","primitives":[{"attributes":{"POSITION":0,"NORMAL":1,"TEXCOORD_0":2},"indices":3,"material":0,"mode":4}]},{"name":"polygon1_1","primitives":[{"attributes":{"POSITION":4,"NORMAL":5,"TEXCOORD_0":6},"indices":7,"material":1,"mode":4}]}],"nodes":[{"name":"polygon0","mesh":0},{"name":"polygon1","mesh":1}],"samplers":[{"wrapS":10497,"wrapT":10497}],"scene":0,"scenes":[{"nodes":[0,1]}],"textures":[{"name":"KairyuEyeDh","sampler":0,"source":0},{"name":"KairyuDh","sampler":0,"source":1}]}