{"accessors":[{"name":"mewtwo-Mesh_0_positions","componentType":5126,"count":16,"min":[-1.800915002822876,1.329501986503601,-17.074649810791016],"max":[1.800915002822876,2.2931549549102783,-15.244867324829102],"type":"VEC3","bufferView":0,"byteOffset":0},{"name":"mewtwo-Mesh_0_texcoords","componentType":5126,"count":16,"min":[0.8613790273666382,0.028738999739289284],"max":[0.9956409931182861,0.13431300222873688],"type":"VEC2","bufferView":1,"byteOffset":0},{"name":"mewtwo-Mesh_0_indices","componentType":5123,"count":42,"min":[0],"max":[15],"type":"SCALAR","bufferView":2,"byteOffset":0},{"name":"mewtwo-Mesh_1_positions","componentType":5126,"count":1209,"min":[-10.25023365020752,-25.311227798461914,-20.065610885620117],"max":[10.25023365020752,3.9927449226379395,-0.02858700044453144],"type":"VEC3","bufferView":0,"byteOffset":192},{"name":"mewtwo-Mesh_1_texcoords","componentType":5126,"count":1209,"min":[0.01918400079011917,0.022825000807642937],"max":[0.7196170091629028,0.979233980178833],"type":"VEC2","bufferView":1,"byteOffset":128},{"name":"mewtwo-Mesh_1_indices","componentType":5123,"count":6384,"min":[0],"max":[1208],"type":"SCALAR","bufferView":2,"byteOffset":84}],"asset":{"generator":"obj2gltf","version":"2.0"},"buffers":[{"name":"BR_Mewtwo-Shiny01","byteLength":1085948,"uri":"data:application/octet-stream;base64,"}],"bufferViews":[{"name":"bufferView_0","buffer":0,"byteLength":14700,"byteOffset":0,"byteStride":12,"target":34962},{"name":"bufferView_1","buffer":0,"byteLength":9800,"byteOffset":14700,"byteStride":8,"target":34962},{"name":"bufferView_2","buffer":0,"byteLength":12852,"byteOffset":24500,"target":34963},{"buffer":0,"byteOffset":37352,"byteLength":1048594}],"images":[{"name":"mewtwo_1_0","mimeType":"image/x-tga","bufferView":3}],"materials":[{"name":"mat_0","pbrMetallicRoughness":{"baseColorTexture":{"index":0},"baseColorFactor":[1,1,1,1],"metallicFactor":0,"roughnessFactor":0.903921569},"emissiveFactor":[0,0,0],"alphaMode":"BLEND","doubleSided":true},{"name":"mat_1","pbrMetallicRoughness":{"baseColorTexture":{"index":0},"baseColorFactor":[1,1,1,1],"metallicFactor":0,"roughnessFactor":0.903921569},"emissiveFactor":[0,0,0],"alphaMode":"BLEND","doubleSided":true}],"meshes":[{"name":"mewtwo-Mesh","primitives":[{"attributes":{"POSITION":0,"TEXCOORD_0":1},"indices":2,"material":0,"mode":4},{"attributes":{"POSITION":3,"TEXCOORD_0":4},"indices":5,"material":1,"mode":4}]}],"nodes":[{"name":"mewtwo","mesh":0}],"samplers":[{"wrapS":10497,"wrapT":10497}],"scene":0,"scenes":[{"nodes":[0]}],"textures":[{"name":"mewtwo_1_0","sampler":0,"source":0}]}