{"accessors":[{"name":"polygon0_1_0_positions","componentType":5126,"count":1047,"min":[-1.0823570489883423,5.813456058502197,-7.087550163269043],"max":[1.0823570489883423,9.952393531799316,1.9371960163116455],"type":"VEC3","bufferView":0,"byteOffset":0},{"name":"polygon0_1_0_normals","componentType":5126,"count":1047,"min":[-0.999472975730896,-0.9999970197677612,-0.9993247389793396],"max":[0.999472975730896,0.9999999403953552,0.9998174905776978],"type":"VEC3","bufferView":1,"byteOffset":0},{"name":"polygon0_1_0_texcoords","componentType":5126,"count":1047,"min":[0.02087399922311306,0.0026549999602138996],"max":[0.9970700144767761,0.9906309843063354],"type":"VEC2","bufferView":2,"byteOffset":0},{"name":"polygon0_1_0_indices","componentType":5123,"count":5184,"min":[0],"max":[1046],"type":"SCALAR","bufferView":3,"byteOffset":0},{"name":"polygon1_1_0_positions","componentType":5126,"count":34,"min":[-0.6980819702148438,9.14490795135498,0.2522279918193817],"max":[0.6980819702148438,9.636537551879883,0.5763689875602722],"type":"VEC3","bufferView":0,"byteOffset":12564},{"name":"polygon1_1_0_normals","componentType":5126,"count":34,"min":[-0.6165041327476501,0.28494104743003845,0.6692579984664917],"max":[0.6165041327476501,0.6752170324325562,0.8922781944274902],"type":"VEC3","bufferView":1,"byteOffset":12564},{"name":"polygon1_1_0_texcoords","componentType":5126,"count":34,"min":[1.0267640352249146,0.05364999920129776],"max":[1.4181519746780396,0.21102899312973022],"type":"VEC2","bufferView":2,"byteOffset":8376},{"name":"polygon1_1_0_indices","componentType":5123,"count":120,"min":[0],"max":[33],"type":"SCALAR","bufferView":3,"byteOffset":10368}],"asset":{"generator":"obj2gltf","version":"2.0"},"buffers":[{"name":"Mew","byteLength":340148,"uri":"data:application/octet-stream;base64,"}],"bufferViews":[{"name":"bufferView_0","buffer":0,"byteLength":12972,"byteOffset":0,"byteStride":12,"target":34962},{"name":"bufferView_1","buffer":0,"byteLength":12972,"byteOffset":12972,"byteStride":12,"target":34962},{"name":"bufferView_2","buffer":0,"byteLength":8648,"byteOffset":25944,"byteStride":8,"target":34962},{"name":"bufferView_3","buffer":0,"byteLength":10608,"byteOffset":34592,"target":34963},{"buffer":0,"byteOffset":45200,"byteLength":196626},{"buffer":0,"byteOffset":241826,"byteLength":98322}],"images":[{"name":"MewBodyDh","mimeType":"image/x-tga","bufferView":4},{"name":"MewEyeDh","mimeType":"image/x-tga","bufferView":5}],"materials":[{"name":"mat1","pbrMetallicRoughness":{"baseColorTexture":{"index":0},"baseColorFactor":[1,1,1,1],"metallicFactor":0,"roughnessFactor":0.99},"emissiveFactor":[0,0,0],"alphaMode":"OPAQUE","doubleSided":false},{"name":"mat2","pbrMetallicRoughness":{"baseColorTexture":{"index":1},"baseColorFactor":[1,1,1,1],"metallicFactor":0,"roughnessFactor":0.99},"emissiveFactor":[0,0,0],"alphaMode":"OPAQUE","doubleSided":false}],"meshes":[{"name":"polygon0_1","primitives":[{"attributes":{"POSITION":0,"NORMAL":1,"TEXCOORD_0":2},"indices":3,"material":0,"mode":4}]},{"name":"polygon1_1","primitives":[{"attributes":{"POSITION":4,"NORMAL":5,"TEXCOORD_0":6},"indices":7,"material":1,"mode":4}]}],"nodes":[{"name":"polygon0","mesh":0},{"name":"polygon1","mesh":1}],"samplers":[{"wrapS":10497,"wrapT":10497}],"scene":0,"scenes":[{"nodes":[0,1]}],"textures":[{"name":"MewBodyDh","sampler":0,"source":0},{"name":"MewEyeDh","sampler":0,"source":1}]}