{"accessors":[{"name":"Mew_1_0_positions","componentType":5126,"count":13848,"min":[-10.616501808166504,-1.4989700317382812,-68.43570709228516],"max":[10.616499900817871,41.22710037231445,14.804402351379395],"type":"VEC3","bufferView":0,"byteOffset":0},{"name":"Mew_1_0_normals","componentType":5126,"count":13848,"min":[-0.9524579644203186,-0.9949588775634766,-0.9979984164237976],"max":[0.9909177422523499,0.9944287538528442,0.9998962879180908],"type":"VEC3","bufferView":1,"byteOffset":0},{"name":"Mew_1_0_texcoords","componentType":5126,"count":13848,"min":[0,0.005563000217080116],"max":[1,0.9910399913787842],"type":"VEC2","bufferView":2,"byteOffset":0},{"name":"Mew_1_0_indices","componentType":5123,"count":13848,"min":[0],"max":[13847],"type":"SCALAR","bufferView":3,"byteOffset":0},{"name":"Mew_1_1_positions","componentType":5126,"count":360,"min":[-7.617020130157471,29.30109977722168,8.78541088104248],"max":[7.617020130157471,37.19369888305664,14.100699424743652],"type":"VEC3","bufferView":0,"byteOffset":166176},{"name":"Mew_1_1_normals","componentType":5126,"count":360,"min":[-0.9154495000839233,-0.9383534789085388,-0.17934291064739227],"max":[0.8754855990409851,0.5537988543510437,0.999792754650116],"type":"VEC3","bufferView":1,"byteOffset":166176},{"name":"Mew_1_1_texcoords","componentType":5126,"count":360,"min":[0.03380399942398071,-0.9857400059700012],"max":[0.46494001150131226,-0.7855700254440308],"type":"VEC2","bufferView":2,"byteOffset":110784},{"name":"Mew_1_1_indices","componentType":5123,"count":360,"min":[0],"max":[359],"type":"SCALAR","bufferView":3,"byteOffset":27696},{"name":"Mew_1_2_positions","componentType":5126,"count":96,"min":[-2.273969888687134,26.530601501464844,7.4168701171875],"max":[2.273969888687134,27.37140464782715,11.621003150939941],"type":"VEC3","bufferView":0,"byteOffset":170496},{"name":"Mew_1_2_normals","componentType":5126,"count":96,"min":[-0.9884849786758423,-0.945667564868927,-0.1517760455608368],"max":[0.8565467596054077,0.3353939354419708,0.9675657749176025],"type":"VEC3","bufferView":1,"byteOffset":170496},{"name":"Mew_1_2_texcoords","componentType":5126,"count":96,"min":[0.038554999977350235,-1.9809199571609497],"max":[0.46143999695777893,-1.7696399688720703],"type":"VEC2","bufferView":2,"byteOffset":113664},{"name":"Mew_1_2_indices","componentType":5123,"count":96,"min":[0],"max":[95],"type":"SCALAR","bufferView":3,"byteOffset":28416},{"name":"Mew_1_3_positions","componentType":5126,"count":360,"min":[-7.694509983062744,29.288101196289062,8.842419624328613],"max":[7.694509983062744,37.23219680786133,14.174598693847656],"type":"VEC3","bufferView":0,"byteOffset":171648},{"name":"Mew_1_3_normals","componentType":5126,"count":360,"min":[-0.9884849786758423,-0.945667564868927,-0.5678091645240784],"max":[0.8565467596054077,0.10368599742650986,0.7545909285545349],"type":"VEC3","bufferView":1,"byteOffset":171648},{"name":"Mew_1_3_texcoords","componentType":5126,"count":360,"min":[0.13521599769592285,-1.942958950996399],"max":[0.9077200293540955,-1.1422810554504395],"type":"VEC2","bufferView":2,"byteOffset":114432},{"name":"Mew_1_3_indices","componentType":5123,"count":360,"min":[0],"max":[359],"type":"SCALAR","bufferView":3,"byteOffset":28608}],"asset":{"generator":"obj2gltf","version":"2.0"},"buffers":[{"name":"XY_Mew","byteLength":585500,"uri":"data:application/octet-stream;base64,"}],"bufferViews":[{"name":"bufferView_0","buffer":0,"byteLength":175968,"byteOffset":0,"byteStride":12,"target":34962},{"name":"bufferView_1","buffer":0,"byteLength":175968,"byteOffset":175968,"byteStride":12,"target":34962},{"name":"bufferView_2","buffer":0,"byteLength":117312,"byteOffset":351936,"byteStride":8,"target":34962},{"name":"bufferView_3","buffer":0,"byteLength":29328,"byteOffset":469248,"target":34963},{"buffer":0,"byteOffset":498576,"byteLength":39002},{"buffer":0,"byteOffset":537578,"byteLength":34343},{"buffer":0,"byteOffset":571921,"byteLength":10699},{"buffer":0,"byteOffset":582620,"byteLength":2878}],"images":[{"name":"pm0151_00_Body1","mimeType":"image/png","bufferView":4},{"name":"pm0151_00_Eye1","mimeType":"image/png","bufferView":5},{"name":"pm0151_00_Mouth1","mimeType":"image/png","bufferView":6},{"name":"pm0151_00_Iris1","mimeType":"image/png","bufferView":7}],"materials":[{"name":"Material__62","pbrMetallicRoughness":{"baseColorTexture":{"index":0},"baseColorFactor":[1,1,1,1],"metallicFactor":0,"roughnessFactor":0.998},"emissiveFactor":[0,0,0],"alphaMode":"OPAQUE","doubleSided":false},{"name":"Material__63","pbrMetallicRoughness":{"baseColorTexture":{"index":1},"baseColorFactor":[1,1,1,1],"metallicFactor":0,"roughnessFactor":0.998},"emissiveFactor":[0,0,0],"alphaMode":"OPAQUE","doubleSided":false},{"name":"Material__64","pbrMetallicRoughness":{"baseColorTexture":{"index":2},"baseColorFactor":[1,1,1,1],"metallicFactor":0,"roughnessFactor":0.998},"emissiveFactor":[0,0,0],"alphaMode":"OPAQUE","doubleSided":false},{"name":"Material__65","pbrMetallicRoughness":{"baseColorTexture":{"index":3},"baseColorFactor":[1,1,1,1],"metallicFactor":0,"roughnessFactor":0.998},"emissiveFactor":[0,0,0],"alphaMode":"OPAQUE","doubleSided":false}],"meshes":[{"name":"Mew_1","primitives":[{"attributes":{"POSITION":0,"NORMAL":1,"TEXCOORD_0":2},"indices":3,"material":0,"mode":4},{"attributes":{"POSITION":4,"NORMAL":5,"TEXCOORD_0":6},"indices":7,"material":1,"mode":4},{"attributes":{"POSITION":8,"NORMAL":9,"TEXCOORD_0":10},"indices":11,"material":2,"mode":4},{"attributes":{"POSITION":12,"NORMAL":13,"TEXCOORD_0":14},"indices":15,"material":3,"mode":4}]}],"nodes":[{"name":"Mew","mesh":0}],"samplers":[{"wrapS":10497,"wrapT":10497}],"scene":0,"scenes":[{"nodes":[0]}],"textures":[{"name":"pm0151_00_Body1","sampler":0,"source":0},{"name":"pm0151_00_Eye1","sampler":0,"source":1},{"name":"pm0151_00_Mouth1","sampler":0,"source":2},{"name":"pm0151_00_Iris1","sampler":0,"source":3}]}