{"accessors":[{"name":"polygon0_1_0_positions","componentType":5126,"count":1006,"min":[-1.1836620569229126,-0.0066200001165270805,-4.057668209075928],"max":[1.1836620569229126,5.096631050109863,2.025749921798706],"type":"VEC3","bufferView":0,"byteOffset":0},{"name":"polygon0_1_0_normals","componentType":5126,"count":1006,"min":[-0.9999560713768005,-0.9999977350234985,-0.999505877494812],"max":[0.9999560713768005,0.9994465708732605,0.9992247819900513],"type":"VEC3","bufferView":1,"byteOffset":0},{"name":"polygon0_1_0_texcoords","componentType":5126,"count":1006,"min":[0.010040000081062317,0.013244999572634697],"max":[0.9891970157623291,0.9864810109138489],"type":"VEC2","bufferView":2,"byteOffset":0},{"name":"polygon0_1_0_indices","componentType":5123,"count":4314,"min":[0],"max":[1005],"type":"SCALAR","bufferView":3,"byteOffset":0},{"name":"polygon1_1_0_positions","componentType":5126,"count":24,"min":[-0.9265090227127075,2.560663938522339,1.3321410417556763],"max":[0.9265090227127075,3.4436569213867188,1.9447790384292603],"type":"VEC3","bufferView":0,"byteOffset":12072},{"name":"polygon1_1_0_normals","componentType":5126,"count":24,"min":[-0.9389731884002686,-0.12359997630119324,0.3219020664691925],"max":[0.9389731884002686,0.39417198300361633,0.9075795412063599],"type":"VEC3","bufferView":1,"byteOffset":12072},{"name":"polygon1_1_0_texcoords","componentType":5126,"count":24,"min":[1.0257569551467896,0.005371000152081251],"max":[1.4584959745407104,0.24456800520420074],"type":"VEC2","bufferView":2,"byteOffset":8048},{"name":"polygon1_1_0_indices","componentType":5123,"count":72,"min":[0],"max":[23],"type":"SCALAR","bufferView":3,"byteOffset":8628},{"name":"polygon2_1_0_positions","componentType":5126,"count":16,"min":[-0.42216598987579346,1.8735630512237549,1.679636001586914],"max":[0.42216598987579346,2.544419050216675,2.0199999809265137],"type":"VEC3","bufferView":0,"byteOffset":12360},{"name":"polygon2_1_0_normals","componentType":5126,"count":16,"min":[-0.4446488916873932,-0.49133291840553284,0.8277727961540222],"max":[0.4446488916873932,-0.1635129600763321,0.9811770915985107],"type":"VEC3","bufferView":1,"byteOffset":12360},{"name":"polygon2_1_0_texcoords","componentType":5126,"count":16,"min":[1.0522459745407104,0.005309999920427799],"max":[1.6734620332717896,0.2417600005865097],"type":"VEC2","bufferView":2,"byteOffset":8240},{"name":"polygon2_1_0_indices","componentType":5123,"count":60,"min":[0],"max":[15],"type":"SCALAR","bufferView":3,"byteOffset":8772}],"asset":{"generator":"obj2gltf","version":"2.0"},"buffers":[{"name":"Chikorita","byteLength":386484,"uri":"data:application/octet-stream;base64,"}],"bufferViews":[{"name":"bufferView_0","buffer":0,"byteLength":12552,"byteOffset":0,"byteStride":12,"target":34962},{"name":"bufferView_1","buffer":0,"byteLength":12552,"byteOffset":12552,"byteStride":12,"target":34962},{"name":"bufferView_2","buffer":0,"byteLength":8368,"byteOffset":25104,"byteStride":8,"target":34962},{"name":"bufferView_3","buffer":0,"byteLength":8892,"byteOffset":33472,"target":34963},{"buffer":0,"byteOffset":42364,"byteLength":196626},{"buffer":0,"byteOffset":238990,"byteLength":98322},{"buffer":0,"byteOffset":337312,"byteLength":49170}],"images":[{"name":"ChicoritaDh","mimeType":"image/x-tga","bufferView":4},{"name":"ChicoritaEyeDh","mimeType":"image/x-tga","bufferView":5},{"name":"ChicoritaMouthDh","mimeType":"image/x-tga","bufferView":6}],"materials":[{"name":"mat1","pbrMetallicRoughness":{"baseColorTexture":{"index":0},"baseColorFactor":[1,1,1,1],"metallicFactor":0,"roughnessFactor":0.99},"emissiveFactor":[0,0,0],"alphaMode":"OPAQUE","doubleSided":false},{"name":"mat2","pbrMetallicRoughness":{"baseColorTexture":{"index":1},"baseColorFactor":[1,1,1,1],"metallicFactor":0,"roughnessFactor":0.99},"emissiveFactor":[0,0,0],"alphaMode":"OPAQUE","doubleSided":false},{"name":"mat3","pbrMetallicRoughness":{"baseColorTexture":{"index":2},"baseColorFactor":[1,1,1,1],"metallicFactor":0,"roughnessFactor":0.99},"emissiveFactor":[0,0,0],"alphaMode":"OPAQUE","doubleSided":false}],"meshes":[{"name":"polygon0_1","primitives":[{"attributes":{"POSITION":0,"NORMAL":1,"TEXCOORD_0":2},"indices":3,"material":0,"mode":4}]},{"name":"polygon1_1","primitives":[{"attributes":{"POSITION":4,"NORMAL":5,"TEXCOORD_0":6},"indices":7,"material":1,"mode":4}]},{"name":"polygon2_1","primitives":[{"attributes":{"POSITION":8,"NORMAL":9,"TEXCOORD_0":10},"indices":11,"material":2,"mode":4}]}],"nodes":[{"name":"polygon0","mesh":0},{"name":"polygon1","mesh":1},{"name":"polygon2","mesh":2}],"samplers":[{"wrapS":10497,"wrapT":10497}],"scene":0,"scenes":[{"nodes":[0,1,2]}],"textures":[{"name":"ChicoritaDh","sampler":0,"source":0},{"name":"ChicoritaEyeDh","sampler":0,"source":1},{"name":"ChicoritaMouthDh","sampler":0,"source":2}]}