{"accessors":[{"name":"Chikorita_1_0_positions","componentType":5126,"count":450,"min":[-5.9634599685668945,17.46929931640625,15.769100189208984],"max":[5.9634599685668945,25.295198440551758,20.385000228881836],"type":"VEC3","bufferView":0,"byteOffset":0},{"name":"Chikorita_1_0_normals","componentType":5126,"count":450,"min":[-0.5929971933364868,-0.5431720614433289,0.7430946826934814],"max":[0,-0.1291460394859314,0.9678301811218262],"type":"VEC3","bufferView":1,"byteOffset":0},{"name":"Chikorita_1_0_texcoords","componentType":5126,"count":450,"min":[0.08091499656438828,-1.9905099868774414],"max":[0.41909000277519226,-1.7593499422073364],"type":"VEC2","bufferView":2,"byteOffset":0},{"name":"Chikorita_1_0_indices","componentType":5123,"count":450,"min":[0],"max":[449],"type":"SCALAR","bufferView":3,"byteOffset":0},{"name":"Chikorita_1_1_positions","componentType":5126,"count":12378,"min":[-11.6806001663208,0.003111999947577715,-20.06209945678711],"max":[11.680601119995117,91.46379089355469,20.170801162719727],"type":"VEC3","bufferView":0,"byteOffset":5400},{"name":"Chikorita_1_1_normals","componentType":5126,"count":12378,"min":[-0.99982088804245,-0.9530596137046814,-0.9142794013023376],"max":[0.9970231652259827,0.9136925339698792,0.9985146522521973],"type":"VEC3","bufferView":1,"byteOffset":5400},{"name":"Chikorita_1_1_texcoords","componentType":5126,"count":12378,"min":[0.005745999980717897,0.0071680000983178616],"max":[0.9942539930343628,0.9900140166282654],"type":"VEC2","bufferView":2,"byteOffset":3600},{"name":"Chikorita_1_1_indices","componentType":5123,"count":12378,"min":[0],"max":[12377],"type":"SCALAR","bufferView":3,"byteOffset":900},{"name":"Chikorita_1_2_positions","componentType":5126,"count":246,"min":[-8.338600158691406,24.173999786376953,13.873100280761719],"max":[8.338600158691406,34.626800537109375,19.740602493286133],"type":"VEC3","bufferView":0,"byteOffset":153936},{"name":"Chikorita_1_2_normals","componentType":5126,"count":246,"min":[-0.9990294575691223,-0.649165153503418,-0.9142794013023376],"max":[0.5929971933364868,0.5267449021339417,0.9653525948524475],"type":"VEC3","bufferView":1,"byteOffset":153936},{"name":"Chikorita_1_2_texcoords","componentType":5126,"count":246,"min":[0.03526800125837326,-0.9886800050735474],"max":[0.46472999453544617,-0.7591999769210815],"type":"VEC2","bufferView":2,"byteOffset":102624},{"name":"Chikorita_1_2_indices","componentType":5123,"count":246,"min":[0],"max":[245],"type":"SCALAR","bufferView":3,"byteOffset":25656},{"name":"Chikorita_1_3_positions","componentType":5126,"count":246,"min":[-8.398090362548828,24.162700653076172,13.909703254699707],"max":[8.398090362548828,34.64970016479492,19.805601119995117],"type":"VEC3","bufferView":0,"byteOffset":156888},{"name":"Chikorita_1_3_normals","componentType":5126,"count":246,"min":[-0.20503397285938263,-0.20753104984760284,-0.4728361964225769],"max":[0.9261398911476135,0.9282870292663574,0.9385932683944702],"type":"VEC3","bufferView":1,"byteOffset":156888},{"name":"Chikorita_1_3_texcoords","componentType":5126,"count":246,"min":[0.14168000221252441,-1.9547200202941895],"max":[0.8901200294494629,-1.0367599725723267],"type":"VEC2","bufferView":2,"byteOffset":104592},{"name":"Chikorita_1_3_indices","componentType":5123,"count":246,"min":[0],"max":[245],"type":"SCALAR","bufferView":3,"byteOffset":26148},{"name":"Chikorita_LVineNub_1_0_positions","componentType":5126,"count":168,"min":[8.319879531860352,18.688997268676758,1.8506779670715332],"max":[11.455699920654297,21.960298538208008,5.085699081420898],"type":"VEC3","bufferView":0,"byteOffset":159840},{"name":"Chikorita_LVineNub_1_0_normals","componentType":5126,"count":168,"min":[0.3054128885269165,-0.5949821472167969,-0.8757497072219849],"max":[0.9401950240135193,0.7720502018928528,0.44460099935531616],"type":"VEC3","bufferView":1,"byteOffset":159840},{"name":"Chikorita_LVineNub_1_0_texcoords","componentType":5126,"count":168,"min":[0.7956110239028931,0.6958270072937012],"max":[0.8375660181045532,0.7802860140800476],"type":"VEC2","bufferView":2,"byteOffset":106560},{"name":"Chikorita_LVineNub_1_0_indices","componentType":5123,"count":168,"min":[0],"max":[167],"type":"SCALAR","bufferView":3,"byteOffset":26640},{"name":"Chikorita_LVine_1_0_positions","componentType":5126,"count":1116,"min":[6.800000190734863,18.985200881958008,1.8994899988174438],"max":[102.65999603271484,22.256301879882812,4.732400894165039],"type":"VEC3","bufferView":0,"byteOffset":161856},{"name":"Chikorita_LVine_1_0_normals","componentType":5126,"count":1116,"min":[-0.5140700936317444,-1,-0.866034746170044],"max":[1,1,0.8660324811935425],"type":"VEC3","bufferView":1,"byteOffset":161856},{"name":"Chikorita_LVine_1_0_texcoords","componentType":5126,"count":1116,"min":[0.514581024646759,0.9140620231628418],"max":[0.875,0.9882820248603821],"type":"VEC2","bufferView":2,"byteOffset":107904},{"name":"Chikorita_LVine_1_0_indices","componentType":5123,"count":1116,"min":[0],"max":[1115],"type":"SCALAR","bufferView":3,"byteOffset":26976},{"name":"Chikorita_RVineNub_1_0_positions","componentType":5126,"count":168,"min":[-11.455699920654297,18.68899917602539,1.850680947303772],"max":[-8.319879531860352,21.96030044555664,5.085700988769531],"type":"VEC3","bufferView":0,"byteOffset":175248},{"name":"Chikorita_RVineNub_1_0_normals","componentType":5126,"count":168,"min":[-0.9401944279670715,-0.5949819684028625,-0.8757491707801819],"max":[-0.30541303753852844,0.7720502018928528,0.444599986076355],"type":"VEC3","bufferView":1,"byteOffset":175248},{"name":"Chikorita_RVineNub_1_0_texcoords","componentType":5126,"count":168,"min":[0.16243399679660797,0.6958270072937012],"max":[0.20438900589942932,0.7802860140800476],"type":"VEC2","bufferView":2,"byteOffset":116832},{"name":"Chikorita_RVineNub_1_0_indices","componentType":5123,"count":168,"min":[0],"max":[167],"type":"SCALAR","bufferView":3,"byteOffset":29208},{"name":"Chikorita_RVine_1_0_positions","componentType":5126,"count":1116,"min":[-102.6600112915039,18.98520278930664,1.8994899988174438],"max":[-6.800000190734863,22.256303787231445,4.732400894165039],"type":"VEC3","bufferView":0,"byteOffset":177264},{"name":"Chikorita_RVine_1_0_normals","componentType":5126,"count":1116,"min":[-1,-1,-0.866034746170044],"max":[0.5140700936317444,1,0.8660324811935425],"type":"VEC3","bufferView":1,"byteOffset":177264},{"name":"Chikorita_RVine_1_0_texcoords","componentType":5126,"count":1116,"min":[0.125,0.9140620231628418],"max":[0.48541900515556335,0.9882820248603821],"type":"VEC2","bufferView":2,"byteOffset":118176},{"name":"Chikorita_RVine_1_0_indices","componentType":5123,"count":1116,"min":[0],"max":[1115],"type":"SCALAR","bufferView":3,"byteOffset":29544}],"asset":{"generator":"obj2gltf","version":"2.0"},"buffers":[{"name":"XY_Chikorita","byteLength":648904,"uri":"data:application/octet-stream;base64,"}],"bufferViews":[{"name":"bufferView_0","buffer":0,"byteLength":190656,"byteOffset":0,"byteStride":12,"target":34962},{"name":"bufferView_1","buffer":0,"byteLength":190656,"byteOffset":190656,"byteStride":12,"target":34962},{"name":"bufferView_2","buffer":0,"byteLength":127104,"byteOffset":381312,"byteStride":8,"target":34962},{"name":"bufferView_3","buffer":0,"byteLength":31776,"byteOffset":508416,"target":34963},{"buffer":0,"byteOffset":540192,"byteLength":17326},{"buffer":0,"byteOffset":557518,"byteLength":59098},{"buffer":0,"byteOffset":616616,"byteLength":29247},{"buffer":0,"byteOffset":645863,"byteLength":3041}],"images":[{"name":"pm0152_00_Mouth1","mimeType":"image/png","bufferView":4},{"name":"pm0152_00_Body1","mimeType":"image/png","bufferView":5},{"name":"pm0152_00_Eye1","mimeType":"image/png","bufferView":6},{"name":"pm0152_00_Iris1","mimeType":"image/png","bufferView":7}],"materials":[{"name":"Material__35","pbrMetallicRoughness":{"baseColorTexture":{"index":0},"baseColorFactor":[1,1,1,1],"metallicFactor":0,"roughnessFactor":0.998},"emissiveFactor":[0,0,0],"alphaMode":"OPAQUE","doubleSided":false},{"name":"Material__36","pbrMetallicRoughness":{"baseColorTexture":{"index":1},"baseColorFactor":[1,1,1,1],"metallicFactor":0,"roughnessFactor":0.998},"emissiveFactor":[0,0,0],"alphaMode":"OPAQUE","doubleSided":false},{"name":"Material__37","pbrMetallicRoughness":{"baseColorTexture":{"index":2},"baseColorFactor":[1,1,1,1],"metallicFactor":0,"roughnessFactor":0.998},"emissiveFactor":[0,0,0],"alphaMode":"OPAQUE","doubleSided":false},{"name":"Material__38","pbrMetallicRoughness":{"baseColorTexture":{"index":3},"baseColorFactor":[1,1,1,1],"metallicFactor":0,"roughnessFactor":0.998},"emissiveFactor":[0,0,0],"alphaMode":"OPAQUE","doubleSided":false}],"meshes":[{"name":"Chikorita_1","primitives":[{"attributes":{"POSITION":0,"NORMAL":1,"TEXCOORD_0":2},"indices":3,"material":0,"mode":4},{"attributes":{"POSITION":4,"NORMAL":5,"TEXCOORD_0":6},"indices":7,"material":1,"mode":4},{"attributes":{"POSITION":8,"NORMAL":9,"TEXCOORD_0":10},"indices":11,"material":2,"mode":4},{"attributes":{"POSITION":12,"NORMAL":13,"TEXCOORD_0":14},"indices":15,"material":3,"mode":4}]},{"name":"Chikorita_LVineNub_1","primitives":[{"attributes":{"POSITION":16,"NORMAL":17,"TEXCOORD_0":18},"indices":19,"material":1,"mode":4}]},{"name":"Chikorita_LVine_1","primitives":[{"attributes":{"POSITION":20,"NORMAL":21,"TEXCOORD_0":22},"indices":23,"material":1,"mode":4}]},{"name":"Chikorita_RVineNub_1","primitives":[{"attributes":{"POSITION":24,"NORMAL":25,"TEXCOORD_0":26},"indices":27,"material":1,"mode":4}]},{"name":"Chikorita_RVine_1","primitives":[{"attributes":{"POSITION":28,"NORMAL":29,"TEXCOORD_0":30},"indices":31,"material":1,"mode":4}]}],"nodes":[{"name":"Chikorita","mesh":0},{"name":"Chikorita_LVineNub","mesh":1},{"name":"Chikorita_LVine","mesh":2},{"name":"Chikorita_RVineNub","mesh":3},{"name":"Chikorita_RVine","mesh":4}],"samplers":[{"wrapS":10497,"wrapT":10497}],"scene":0,"scenes":[{"nodes":[0,1,2,3,4]}],"textures":[{"name":"pm0152_00_Mouth1","sampler":0,"source":0},{"name":"pm0152_00_Body1","sampler":0,"source":1},{"name":"pm0152_00_Eye1","sampler":0,"source":2},{"name":"pm0152_00_Iris1","sampler":0,"source":3}]}