{"accessors":[{"name":"Bayleef_1_0_positions","componentType":5126,"count":12504,"min":[-24.286300659179688,-0.0053079999051988125,-41.41400146484375],"max":[24.286300659179688,97.7491226196289,74.40351104736328],"type":"VEC3","bufferView":0,"byteOffset":0},{"name":"Bayleef_1_0_normals","componentType":5126,"count":12504,"min":[-0.997972846031189,-1,-0.9842070937156677],"max":[0.997972846031189,0.991977334022522,0.9995565414428711],"type":"VEC3","bufferView":1,"byteOffset":0},{"name":"Bayleef_1_0_texcoords","componentType":5126,"count":12504,"min":[0.004985000006854534,0.006891000084578991],"max":[0.995015025138855,0.9921870231628418],"type":"VEC2","bufferView":2,"byteOffset":0},{"name":"Bayleef_1_0_indices","componentType":5123,"count":12504,"min":[0],"max":[12503],"type":"SCALAR","bufferView":3,"byteOffset":0},{"name":"Bayleef_1_1_positions","componentType":5126,"count":480,"min":[-13.453399658203125,74.97041320800781,52.631412506103516],"max":[13.454099655151367,91.21922302246094,66.39559936523438],"type":"VEC3","bufferView":0,"byteOffset":150048},{"name":"Bayleef_1_1_normals","componentType":5126,"count":480,"min":[-0.9715344905853271,-0.518002986907959,-0.9290784001350403],"max":[0.9442877769470215,0.1038389727473259,0.994702935218811],"type":"VEC3","bufferView":1,"byteOffset":150048},{"name":"Bayleef_1_1_texcoords","componentType":5126,"count":480,"min":[0.02386300079524517,-1.9909100532531738],"max":[0.47613999247550964,-1.7578099966049194],"type":"VEC2","bufferView":2,"byteOffset":100032},{"name":"Bayleef_1_1_indices","componentType":5123,"count":480,"min":[0],"max":[479],"type":"SCALAR","bufferView":3,"byteOffset":25008},{"name":"Bayleef_1_2_positions","componentType":5126,"count":6354,"min":[-38.57490158081055,21.969085693359375,0.5600500106811523],"max":[38.57490921020508,127.63500213623047,84.16179656982422],"type":"VEC3","bufferView":0,"byteOffset":155808},{"name":"Bayleef_1_2_normals","componentType":5126,"count":6354,"min":[-0.9994584321975708,-0.9219021201133728,-0.9841914772987366],"max":[0.9994584321975708,0.9080636501312256,0.9976556897163391],"type":"VEC3","bufferView":1,"byteOffset":155808},{"name":"Bayleef_1_2_texcoords","componentType":5126,"count":6354,"min":[0.005098000168800354,-0.986739993095398],"max":[0.9913730025291443,-0.006940000224858522],"type":"VEC2","bufferView":2,"byteOffset":103872},{"name":"Bayleef_1_2_indices","componentType":5123,"count":6354,"min":[0],"max":[6353],"type":"SCALAR","bufferView":3,"byteOffset":25968},{"name":"Bayleef_1_3_positions","componentType":5126,"count":480,"min":[-13.573399543762207,74.91791534423828,52.63680648803711],"max":[13.574000358581543,91.27152252197266,66.44309997558594],"type":"VEC3","bufferView":0,"byteOffset":232056},{"name":"Bayleef_1_3_normals","componentType":5126,"count":480,"min":[-0.9286701679229736,-1,-0.026622004806995392],"max":[0.9929785132408142,0.6346784234046936,0.9976556301116943],"type":"VEC3","bufferView":1,"byteOffset":232056},{"name":"Bayleef_1_3_texcoords","componentType":5126,"count":480,"min":[0.09544000029563904,-1.9636399745941162],"max":[0.875,-1.0312399864196777],"type":"VEC2","bufferView":2,"byteOffset":154704},{"name":"Bayleef_1_3_indices","componentType":5123,"count":480,"min":[0],"max":[479],"type":"SCALAR","bufferView":3,"byteOffset":38676}],"asset":{"generator":"obj2gltf","version":"2.0"},"buffers":[{"name":"XY_Bayleef","byteLength":799744,"uri":"data:application/octet-stream;base64,"}],"bufferViews":[{"name":"bufferView_0","buffer":0,"byteLength":237816,"byteOffset":0,"byteStride":12,"target":34962},{"name":"bufferView_1","buffer":0,"byteLength":237816,"byteOffset":237816,"byteStride":12,"target":34962},{"name":"bufferView_2","buffer":0,"byteLength":158544,"byteOffset":475632,"byteStride":8,"target":34962},{"name":"bufferView_3","buffer":0,"byteLength":39636,"byteOffset":634176,"target":34963},{"buffer":0,"byteOffset":673812,"byteLength":57885},{"buffer":0,"byteOffset":731697,"byteLength":29093},{"buffer":0,"byteOffset":760790,"byteLength":35314},{"buffer":0,"byteOffset":796104,"byteLength":3638}],"images":[{"name":"pm0153_00_BodyA1","mimeType":"image/png","bufferView":4},{"name":"pm0153_00_Eye1","mimeType":"image/png","bufferView":5},{"name":"pm0153_00_BodyB1","mimeType":"image/png","bufferView":6},{"name":"pm0153_00_Iris1","mimeType":"image/png","bufferView":7}],"materials":[{"name":"Material__49","pbrMetallicRoughness":{"baseColorTexture":{"index":0},"baseColorFactor":[1,1,1,1],"metallicFactor":0,"roughnessFactor":0.998},"emissiveFactor":[0,0,0],"alphaMode":"OPAQUE","doubleSided":false},{"name":"Material__50","pbrMetallicRoughness":{"baseColorTexture":{"index":1},"baseColorFactor":[1,1,1,1],"metallicFactor":0,"roughnessFactor":0.998},"emissiveFactor":[0,0,0],"alphaMode":"OPAQUE","doubleSided":false},{"name":"Material__51","pbrMetallicRoughness":{"baseColorTexture":{"index":2},"baseColorFactor":[1,1,1,1],"metallicFactor":0,"roughnessFactor":0.998},"emissiveFactor":[0,0,0],"alphaMode":"OPAQUE","doubleSided":false},{"name":"Material__52","pbrMetallicRoughness":{"baseColorTexture":{"index":3},"baseColorFactor":[1,1,1,1],"metallicFactor":0,"roughnessFactor":0.998},"emissiveFactor":[0,0,0],"alphaMode":"OPAQUE","doubleSided":false}],"meshes":[{"name":"Bayleef_1","primitives":[{"attributes":{"POSITION":0,"NORMAL":1,"TEXCOORD_0":2},"indices":3,"material":0,"mode":4},{"attributes":{"POSITION":4,"NORMAL":5,"TEXCOORD_0":6},"indices":7,"material":1,"mode":4},{"attributes":{"POSITION":8,"NORMAL":9,"TEXCOORD_0":10},"indices":11,"material":2,"mode":4},{"attributes":{"POSITION":12,"NORMAL":13,"TEXCOORD_0":14},"indices":15,"material":3,"mode":4}]}],"nodes":[{"name":"Bayleef","mesh":0}],"samplers":[{"wrapS":10497,"wrapT":10497}],"scene":0,"scenes":[{"nodes":[0]}],"textures":[{"name":"pm0153_00_BodyA1","sampler":0,"source":0},{"name":"pm0153_00_Eye1","sampler":0,"source":1},{"name":"pm0153_00_BodyB1","sampler":0,"source":2},{"name":"pm0153_00_Iris1","sampler":0,"source":3}]}