{"accessors":[{"name":"bayleaf-Mesh_0_positions","componentType":5126,"count":175,"min":[-2.79229998588562,-5.124599933624268,-7.938759803771973],"max":[2.79229998588562,4.841020107269287,-0.5480639934539795],"type":"VEC3","bufferView":0,"byteOffset":0},{"name":"bayleaf-Mesh_0_texcoords","componentType":5126,"count":175,"min":[0.96875,0.03125],"max":[0.96875,0.03125],"type":"VEC2","bufferView":1,"byteOffset":0},{"name":"bayleaf-Mesh_0_indices","componentType":5123,"count":987,"min":[0],"max":[174],"type":"SCALAR","bufferView":2,"byteOffset":0},{"name":"bayleaf-Mesh_1_positions","componentType":5126,"count":68,"min":[-2.68257999420166,-3.3756299018859863,-0.5899720191955566],"max":[2.68257999420166,3.9059600830078125,0.005109000019729137],"type":"VEC3","bufferView":0,"byteOffset":2100},{"name":"bayleaf-Mesh_1_texcoords","componentType":5126,"count":68,"min":[0,0],"max":[1,1],"type":"VEC2","bufferView":1,"byteOffset":1400},{"name":"bayleaf-Mesh_1_indices","componentType":5123,"count":252,"min":[0],"max":[67],"type":"SCALAR","bufferView":2,"byteOffset":1976},{"name":"bayleaf-Mesh_2_positions","componentType":5126,"count":58,"min":[-1.4761300086975098,2.681149959564209,-10.400400161743164],"max":[1.4761300086975098,6.929609775543213,-6.942820072174072],"type":"VEC3","bufferView":0,"byteOffset":2916},{"name":"bayleaf-Mesh_2_texcoords","componentType":5126,"count":58,"min":[0.015625,0.0007140000234358013],"max":[0.984375,0.9847400188446045],"type":"VEC2","bufferView":1,"byteOffset":1944},{"name":"bayleaf-Mesh_2_indices","componentType":5123,"count":234,"min":[0],"max":[57],"type":"SCALAR","bufferView":2,"byteOffset":2480},{"name":"bayleaf-Mesh_3_positions","componentType":5126,"count":18,"min":[-1.4761300086975098,4.798210144042969,-10.086799621582031],"max":[1.4761300086975098,6.553919792175293,-7.93379020690918],"type":"VEC3","bufferView":0,"byteOffset":3612},{"name":"bayleaf-Mesh_3_texcoords","componentType":5126,"count":18,"min":[-0.0029269999358803034,-0.01964999921619892],"max":[0.8778409957885742,0.19934499263763428],"type":"VEC2","bufferView":1,"byteOffset":2408},{"name":"bayleaf-Mesh_3_indices","componentType":5123,"count":48,"min":[0],"max":[17],"type":"SCALAR","bufferView":2,"byteOffset":2948},{"name":"bayleaf-Mesh_4_positions","componentType":5126,"count":8,"min":[-0.8576909899711609,6.351940155029297,-8.98816967010498],"max":[0.8576909899711609,6.8125901222229,-7.93379020690918],"type":"VEC3","bufferView":0,"byteOffset":3828},{"name":"bayleaf-Mesh_4_texcoords","componentType":5126,"count":8,"min":[-1.4408999681472778,-1.3287299871444702],"max":[3.4682199954986572,1.198762059211731],"type":"VEC2","bufferView":1,"byteOffset":2552},{"name":"bayleaf-Mesh_4_indices","componentType":5123,"count":12,"min":[0],"max":[7],"type":"SCALAR","bufferView":2,"byteOffset":3044},{"name":"bayleaf-Mesh_5_positions","componentType":5126,"count":23,"min":[-1.4761300086975098,4.798210144042969,-7.9656901359558105],"max":[1.4761300086975098,6.7476301193237305,-7.0441999435424805],"type":"VEC3","bufferView":0,"byteOffset":3924},{"name":"bayleaf-Mesh_5_texcoords","componentType":5126,"count":23,"min":[0,0],"max":[1,1.03125],"type":"VEC2","bufferView":1,"byteOffset":2616},{"name":"bayleaf-Mesh_5_indices","componentType":5123,"count":75,"min":[0],"max":[22],"type":"SCALAR","bufferView":2,"byteOffset":3068},{"name":"bayleaf-Mesh_6_positions","componentType":5126,"count":80,"min":[-4.137740135192871,-1.149530053138733,-6.41834020614624],"max":[4.137720108032227,5.629350185394287,-1.4245599508285522],"type":"VEC3","bufferView":0,"byteOffset":4200},{"name":"bayleaf-Mesh_6_texcoords","componentType":5126,"count":80,"min":[0,0],"max":[1,1],"type":"VEC2","bufferView":1,"byteOffset":2800},{"name":"bayleaf-Mesh_6_indices","componentType":5123,"count":384,"min":[0],"max":[79],"type":"SCALAR","bufferView":2,"byteOffset":3220},{"name":"bayleaf-Mesh_7_positions","componentType":5126,"count":27,"min":[-0.19003599882125854,-1.4262399673461914,-12.123900413513184],"max":[0.6934840083122253,7.785520076751709,-9.274479866027832],"type":"VEC3","bufferView":0,"byteOffset":5160},{"name":"bayleaf-Mesh_7_texcoords","componentType":5126,"count":27,"min":[0,0],"max":[1,1.0000009536743164],"type":"VEC2","bufferView":1,"byteOffset":3440},{"name":"bayleaf-Mesh_7_indices","componentType":5123,"count":105,"min":[0],"max":[26],"type":"SCALAR","bufferView":2,"byteOffset":3988},{"name":"bayleaf-Mesh_8_positions","componentType":5126,"count":11,"min":[-0.6934840083122253,-1.4262399673461914,-12.123900413513184],"max":[0,5.751870155334473,-10.32919979095459],"type":"VEC3","bufferView":0,"byteOffset":5484},{"name":"bayleaf-Mesh_8_texcoords","componentType":5126,"count":11,"min":[0.0074280002154409885,0],"max":[0.9965280294418335,1],"type":"VEC2","bufferView":1,"byteOffset":3656},{"name":"bayleaf-Mesh_8_indices","componentType":5123,"count":27,"min":[0],"max":[10],"type":"SCALAR","bufferView":2,"byteOffset":4200}],"asset":{"generator":"obj2gltf","version":"2.0"},"buffers":[{"name":"BR_Bayleef-Shiny01","byteLength":149952,"uri":"data:application/octet-stream;base64,"}],"bufferViews":[{"name":"bufferView_0","buffer":0,"byteLength":5616,"byteOffset":0,"byteStride":12,"target":34962},{"name":"bufferView_1","buffer":0,"byteLength":3744,"byteOffset":5616,"byteStride":8,"target":34962},{"name":"bufferView_2","buffer":0,"byteLength":4256,"byteOffset":9360,"target":34963},{"buffer":0,"byteOffset":13616,"byteLength":46098},{"buffer":0,"byteOffset":59714,"byteLength":4114},{"buffer":0,"byteOffset":63828,"byteLength":4114},{"buffer":0,"byteOffset":67942,"byteLength":4114},{"buffer":0,"byteOffset":72056,"byteLength":4114},{"buffer":0,"byteOffset":76170,"byteLength":8210},{"buffer":0,"byteOffset":84380,"byteLength":32786},{"buffer":0,"byteOffset":117166,"byteLength":32786}],"images":[{"name":"bayleaf_1_0","mimeType":"image/x-tga","bufferView":3},{"name":"bayleaf_1_1","mimeType":"image/x-tga","bufferView":4},{"name":"bayleaf_1_2","mimeType":"image/x-tga","bufferView":5},{"name":"bayleaf_1_4","mimeType":"image/x-tga","bufferView":6},{"name":"bayleaf_1_5","mimeType":"image/x-tga","bufferView":7},{"name":"bayleaf_1_6","mimeType":"image/x-tga","bufferView":8},{"name":"bayleaf_1_7","mimeType":"image/x-tga","bufferView":9},{"name":"bayleaf_1_8","mimeType":"image/x-tga","bufferView":10}],"materials":[{"name":"mat_0","pbrMetallicRoughness":{"baseColorTexture":{"index":0},"baseColorFactor":[1,1,1,1],"metallicFactor":0,"roughnessFactor":0.903921569},"emissiveFactor":[0,0,0],"alphaMode":"BLEND","doubleSided":true},{"name":"mat_1","pbrMetallicRoughness":{"baseColorTexture":{"index":1},"baseColorFactor":[1,1,1,1],"metallicFactor":0,"roughnessFactor":0.903921569},"emissiveFactor":[0,0,0],"alphaMode":"BLEND","doubleSided":true},{"name":"mat_2","pbrMetallicRoughness":{"baseColorTexture":{"index":2},"baseColorFactor":[1,1,1,1],"metallicFactor":0,"roughnessFactor":0.903921569},"emissiveFactor":[0,0,0],"alphaMode":"BLEND","doubleSided":true},{"name":"mat_3","pbrMetallicRoughness":{"baseColorTexture":{"index":0},"baseColorFactor":[1,1,1,1],"metallicFactor":0,"roughnessFactor":0.903921569},"emissiveFactor":[0,0,0],"alphaMode":"BLEND","doubleSided":true},{"name":"mat_4","pbrMetallicRoughness":{"baseColorTexture":{"index":3},"baseColorFactor":[1,1,1,1],"metallicFactor":0,"roughnessFactor":0.903921569},"emissiveFactor":[0,0,0],"alphaMode":"BLEND","doubleSided":true},{"name":"mat_5","pbrMetallicRoughness":{"baseColorTexture":{"index":4},"baseColorFactor":[1,1,1,1],"metallicFactor":0,"roughnessFactor":0.903921569},"emissiveFactor":[0,0,0],"alphaMode":"BLEND","doubleSided":true},{"name":"mat_6","pbrMetallicRoughness":{"baseColorTexture":{"index":5},"baseColorFactor":[1,1,1,1],"metallicFactor":0,"roughnessFactor":0.903921569},"emissiveFactor":[0,0,0],"alphaMode":"BLEND","doubleSided":true},{"name":"mat_7","pbrMetallicRoughness":{"baseColorTexture":{"index":6},"baseColorFactor":[1,1,1,1],"metallicFactor":0,"roughnessFactor":0.903921569},"emissiveFactor":[0,0,0],"alphaMode":"BLEND","doubleSided":true},{"name":"mat_8","pbrMetallicRoughness":{"baseColorTexture":{"index":7},"baseColorFactor":[1,1,1,1],"metallicFactor":0,"roughnessFactor":0.903921569},"emissiveFactor":[0,0,0],"alphaMode":"BLEND","doubleSided":true}],"meshes":[{"name":"bayleaf-Mesh","primitives":[{"attributes":{"POSITION":0,"TEXCOORD_0":1},"indices":2,"material":0,"mode":4},{"attributes":{"POSITION":3,"TEXCOORD_0":4},"indices":5,"material":1,"mode":4},{"attributes":{"POSITION":6,"TEXCOORD_0":7},"indices":8,"material":2,"mode":4},{"attributes":{"POSITION":9,"TEXCOORD_0":10},"indices":11,"material":3,"mode":4},{"attributes":{"POSITION":12,"TEXCOORD_0":13},"indices":14,"material":4,"mode":4},{"attributes":{"POSITION":15,"TEXCOORD_0":16},"indices":17,"material":5,"mode":4},{"attributes":{"POSITION":18,"TEXCOORD_0":19},"indices":20,"material":6,"mode":4},{"attributes":{"POSITION":21,"TEXCOORD_0":22},"indices":23,"material":7,"mode":4},{"attributes":{"POSITION":24,"TEXCOORD_0":25},"indices":26,"material":8,"mode":4}]}],"nodes":[{"name":"bayleaf","mesh":0}],"samplers":[{"wrapS":10497,"wrapT":10497}],"scene":0,"scenes":[{"nodes":[0]}],"textures":[{"name":"bayleaf_1_0","sampler":0,"source":0},{"name":"bayleaf_1_1","sampler":0,"source":1},{"name":"bayleaf_1_2","sampler":0,"source":2},{"name":"bayleaf_1_4","sampler":0,"source":3},{"name":"bayleaf_1_5","sampler":0,"source":4},{"name":"bayleaf_1_6","sampler":0,"source":5},{"name":"bayleaf_1_7","sampler":0,"source":6},{"name":"bayleaf_1_8","sampler":0,"source":7}]}