{"accessors":[{"name":"meganium-Mesh_0_positions","componentType":5126,"count":33,"min":[-6.182888984680176,0.7707719802856445,-13.545568466186523],"max":[6.1828789710998535,9.04820442199707,-5.262021064758301],"type":"VEC3","bufferView":0,"byteOffset":0},{"name":"meganium-Mesh_0_texcoords","componentType":5126,"count":33,"min":[0,0],"max":[1,1],"type":"VEC2","bufferView":1,"byteOffset":0},{"name":"meganium-Mesh_0_indices","componentType":5123,"count":90,"min":[0],"max":[32],"type":"SCALAR","bufferView":2,"byteOffset":0},{"name":"meganium-Mesh_1_positions","componentType":5126,"count":36,"min":[-2.2436399459838867,3.4574429988861084,-9.56456184387207],"max":[2.2533490657806396,7.0604400634765625,-6.218194007873535],"type":"VEC3","bufferView":0,"byteOffset":396},{"name":"meganium-Mesh_1_texcoords","componentType":5126,"count":36,"min":[0,0],"max":[1,1],"type":"VEC2","bufferView":1,"byteOffset":264},{"name":"meganium-Mesh_1_indices","componentType":5123,"count":84,"min":[0],"max":[35],"type":"SCALAR","bufferView":2,"byteOffset":180},{"name":"meganium-Mesh_2_positions","componentType":5126,"count":30,"min":[-6.196465015411377,2.1504459381103516,-11.31216812133789],"max":[6.19647216796875,10.317561149597168,-2.876497983932495],"type":"VEC3","bufferView":0,"byteOffset":828},{"name":"meganium-Mesh_2_texcoords","componentType":5126,"count":30,"min":[0,0],"max":[1,1],"type":"VEC2","bufferView":1,"byteOffset":552},{"name":"meganium-Mesh_2_indices","componentType":5123,"count":90,"min":[0],"max":[29],"type":"SCALAR","bufferView":2,"byteOffset":348},{"name":"meganium-Mesh_3_positions","componentType":5126,"count":60,"min":[-6.196465015411377,0.7707719802856445,-13.545568466186523],"max":[6.19647216796875,10.317561149597168,-2.876497983932495],"type":"VEC3","bufferView":0,"byteOffset":1188},{"name":"meganium-Mesh_3_texcoords","componentType":5126,"count":60,"min":[0,0],"max":[1,1],"type":"VEC2","bufferView":1,"byteOffset":792},{"name":"meganium-Mesh_3_indices","componentType":5123,"count":180,"min":[0],"max":[59],"type":"SCALAR","bufferView":2,"byteOffset":528}],"asset":{"generator":"obj2gltf","version":"2.0"},"buffers":[{"name":"BR_Meganium-Shiny01","byteLength":118828,"uri":"data:application/octet-stream;base64,"}],"bufferViews":[{"name":"bufferView_0","buffer":0,"byteLength":1908,"byteOffset":0,"byteStride":12,"target":34962},{"name":"bufferView_1","buffer":0,"byteLength":1272,"byteOffset":1908,"byteStride":8,"target":34962},{"name":"bufferView_2","buffer":0,"byteLength":888,"byteOffset":3180,"target":34963},{"buffer":0,"byteOffset":4068,"byteLength":32786},{"buffer":0,"byteOffset":36854,"byteLength":16402},{"buffer":0,"byteOffset":53256,"byteLength":32786},{"buffer":0,"byteOffset":86042,"byteLength":32786}],"images":[{"name":"meganium_1_0","mimeType":"image/x-tga","bufferView":3},{"name":"meganium_1_1","mimeType":"image/x-tga","bufferView":4},{"name":"meganium_1_2","mimeType":"image/x-tga","bufferView":5},{"name":"meganium_1_3","mimeType":"image/x-tga","bufferView":6}],"materials":[{"name":"mat_0","pbrMetallicRoughness":{"baseColorTexture":{"index":0},"baseColorFactor":[1,1,1,1],"metallicFactor":0,"roughnessFactor":0.903921569},"emissiveFactor":[0,0,0],"alphaMode":"BLEND","doubleSided":true},{"name":"mat_1","pbrMetallicRoughness":{"baseColorTexture":{"index":1},"baseColorFactor":[1,1,1,1],"metallicFactor":0,"roughnessFactor":0.903921569},"emissiveFactor":[0,0,0],"alphaMode":"BLEND","doubleSided":true},{"name":"mat_2","pbrMetallicRoughness":{"baseColorTexture":{"index":2},"baseColorFactor":[1,1,1,1],"metallicFactor":0,"roughnessFactor":0.903921569},"emissiveFactor":[0,0,0],"alphaMode":"BLEND","doubleSided":true},{"name":"mat_3","pbrMetallicRoughness":{"baseColorTexture":{"index":3},"baseColorFactor":[1,1,1,1],"metallicFactor":0,"roughnessFactor":0.903921569},"emissiveFactor":[0,0,0],"alphaMode":"BLEND","doubleSided":true}],"meshes":[{"name":"meganium-Mesh","primitives":[{"attributes":{"POSITION":0,"TEXCOORD_0":1},"indices":2,"material":0,"mode":4},{"attributes":{"POSITION":3,"TEXCOORD_0":4},"indices":5,"material":1,"mode":4},{"attributes":{"POSITION":6,"TEXCOORD_0":7},"indices":8,"material":2,"mode":4},{"attributes":{"POSITION":9,"TEXCOORD_0":10},"indices":11,"material":3,"mode":4}]}],"nodes":[{"name":"meganium","mesh":0}],"samplers":[{"wrapS":10497,"wrapT":10497}],"scene":0,"scenes":[{"nodes":[0]}],"textures":[{"name":"meganium_1_0","sampler":0,"source":0},{"name":"meganium_1_1","sampler":0,"source":1},{"name":"meganium_1_2","sampler":0,"source":2},{"name":"meganium_1_3","sampler":0,"source":3}]}