{"accessors":[{"name":"MeganiumF_1_0_positions","componentType":5126,"count":6036,"min":[-55.84000015258789,46.4879035949707,7.7012739181518555],"max":[55.839996337890625,216.2154083251953,128.78651428222656],"type":"VEC3","bufferView":0,"byteOffset":0},{"name":"MeganiumF_1_0_normals","componentType":5126,"count":6036,"min":[-0.9994290471076965,-0.9090837240219116,-0.9897836446762085],"max":[0.9950560927391052,0.9998437166213989,0.9998999834060669],"type":"VEC3","bufferView":1,"byteOffset":0},{"name":"MeganiumF_1_0_texcoords","componentType":5126,"count":6036,"min":[0.07078199833631516,-0.9825900197029114],"max":[0.9292169809341431,-0.011110000312328339],"type":"VEC2","bufferView":2,"byteOffset":0},{"name":"MeganiumF_1_0_indices","componentType":5123,"count":6036,"min":[0],"max":[6035],"type":"SCALAR","bufferView":3,"byteOffset":0},{"name":"MeganiumF_1_1_positions","componentType":5126,"count":12648,"min":[-39.686500549316406,-0.20619399845600128,-104.16001892089844],"max":[39.686500549316406,167.4929962158203,128.906005859375],"type":"VEC3","bufferView":0,"byteOffset":72432},{"name":"MeganiumF_1_1_normals","componentType":5126,"count":12648,"min":[-0.9994290471076965,-0.999912440776825,-0.9203497767448425],"max":[0.9994291067123413,0.999824047088623,0.9998999834060669],"type":"VEC3","bufferView":1,"byteOffset":72432},{"name":"MeganiumF_1_1_texcoords","componentType":5126,"count":12648,"min":[0,0.009204000234603882],"max":[1,0.9905449748039246],"type":"VEC2","bufferView":2,"byteOffset":48288},{"name":"MeganiumF_1_1_indices","componentType":5123,"count":12648,"min":[0],"max":[12647],"type":"SCALAR","bufferView":3,"byteOffset":12072},{"name":"MeganiumF_1_2_positions","componentType":5126,"count":336,"min":[-20.186498641967773,139.6699981689453,97.62759399414062],"max":[20.186498641967773,161.01699829101562,118.08000183105469],"type":"VEC3","bufferView":0,"byteOffset":224208},{"name":"MeganiumF_1_2_normals","componentType":5126,"count":336,"min":[-0.16071803867816925,-0.9983343482017517,-0.7066273093223572],"max":[0.22509600222110748,0.9956838488578796,0.5125129222869873],"type":"VEC3","bufferView":1,"byteOffset":224208},{"name":"MeganiumF_1_2_texcoords","componentType":5126,"count":336,"min":[0.022019999101758003,-1.9896299839019775],"max":[0.47797998785972595,-1.7597399950027466],"type":"VEC2","bufferView":2,"byteOffset":149472},{"name":"MeganiumF_1_2_indices","componentType":5123,"count":336,"min":[0],"max":[335],"type":"SCALAR","bufferView":3,"byteOffset":37368},{"name":"MeganiumF_1_3_positions","componentType":5126,"count":336,"min":[-20.386497497558594,139.6699981689453,97.62759399414062],"max":[20.386497497558594,161.01699829101562,118.08000183105469],"type":"VEC3","bufferView":0,"byteOffset":228240},{"name":"MeganiumF_1_3_normals","componentType":5126,"count":336,"min":[-0.9898508191108704,-0.9044163823127747,-0.8808724284172058],"max":[0.24085897207260132,-0.008113004267215729,0.9868185520172119],"type":"VEC3","bufferView":1,"byteOffset":228240},{"name":"MeganiumF_1_3_texcoords","componentType":5126,"count":336,"min":[0.08807999640703201,-1.9585200548171997],"max":[0.9196000099182129,-1.0389599800109863],"type":"VEC2","bufferView":2,"byteOffset":152160},{"name":"MeganiumF_1_3_indices","componentType":5123,"count":336,"min":[0],"max":[335],"type":"SCALAR","bufferView":3,"byteOffset":38040}],"asset":{"generator":"obj2gltf","version":"2.0"},"buffers":[{"name":"XY_MeganiumF","byteLength":826188,"uri":"data:application/octet-stream;base64,"}],"bufferViews":[{"name":"bufferView_0","buffer":0,"byteLength":232272,"byteOffset":0,"byteStride":12,"target":34962},{"name":"bufferView_1","buffer":0,"byteLength":232272,"byteOffset":232272,"byteStride":12,"target":34962},{"name":"bufferView_2","buffer":0,"byteLength":154848,"byteOffset":464544,"byteStride":8,"target":34962},{"name":"bufferView_3","buffer":0,"byteLength":38712,"byteOffset":619392,"target":34963},{"buffer":0,"byteOffset":658104,"byteLength":71644},{"buffer":0,"byteOffset":729748,"byteLength":64197},{"buffer":0,"byteOffset":793945,"byteLength":28775},{"buffer":0,"byteOffset":822720,"byteLength":3466}],"images":[{"name":"pm0154_00_BodyB1","mimeType":"image/png","bufferView":4},{"name":"pm0154_00_BodyA1","mimeType":"image/png","bufferView":5},{"name":"pm0154_00_Eye1","mimeType":"image/png","bufferView":6},{"name":"pm0154_00_Iris1","mimeType":"image/png","bufferView":7}],"materials":[{"name":"Material__77","pbrMetallicRoughness":{"baseColorTexture":{"index":0},"baseColorFactor":[1,1,1,1],"metallicFactor":0,"roughnessFactor":0.998},"emissiveFactor":[0,0,0],"alphaMode":"OPAQUE","doubleSided":false},{"name":"Material__78","pbrMetallicRoughness":{"baseColorTexture":{"index":1},"baseColorFactor":[1,1,1,1],"metallicFactor":0,"roughnessFactor":0.998},"emissiveFactor":[0,0,0],"alphaMode":"OPAQUE","doubleSided":false},{"name":"Material__79","pbrMetallicRoughness":{"baseColorTexture":{"index":2},"baseColorFactor":[1,1,1,1],"metallicFactor":0,"roughnessFactor":0.998},"emissiveFactor":[0,0,0],"alphaMode":"OPAQUE","doubleSided":false},{"name":"Material__80","pbrMetallicRoughness":{"baseColorTexture":{"index":3},"baseColorFactor":[1,1,1,1],"metallicFactor":0,"roughnessFactor":0.998},"emissiveFactor":[0,0,0],"alphaMode":"OPAQUE","doubleSided":false}],"meshes":[{"name":"MeganiumF_1","primitives":[{"attributes":{"POSITION":0,"NORMAL":1,"TEXCOORD_0":2},"indices":3,"material":0,"mode":4},{"attributes":{"POSITION":4,"NORMAL":5,"TEXCOORD_0":6},"indices":7,"material":1,"mode":4},{"attributes":{"POSITION":8,"NORMAL":9,"TEXCOORD_0":10},"indices":11,"material":2,"mode":4},{"attributes":{"POSITION":12,"NORMAL":13,"TEXCOORD_0":14},"indices":15,"material":3,"mode":4}]}],"nodes":[{"name":"MeganiumF","mesh":0}],"samplers":[{"wrapS":10497,"wrapT":10497}],"scene":0,"scenes":[{"nodes":[0]}],"textures":[{"name":"pm0154_00_BodyB1","sampler":0,"source":0},{"name":"pm0154_00_BodyA1","sampler":0,"source":1},{"name":"pm0154_00_Eye1","sampler":0,"source":2},{"name":"pm0154_00_Iris1","sampler":0,"source":3}]}