{"accessors":[{"name":"polygon0_1_0_positions","componentType":5126,"count":282,"min":[-3.460659980773926,1.8443399667739868,-5.20600700378418],"max":[3.4606590270996094,7.288847923278809,1.7276899814605713],"type":"VEC3","bufferView":0,"byteOffset":0},{"name":"polygon0_1_0_normals","componentType":5126,"count":282,"min":[-0.999165415763855,-0.46527808904647827,-0.9839839339256287],"max":[0.999165415763855,0.999962329864502,0.9871279001235962],"type":"VEC3","bufferView":1,"byteOffset":0},{"name":"polygon0_1_0_texcoords","componentType":5126,"count":282,"min":[0.7761840224266052,0.8747249841690063],"max":[0.9867249727249146,0.9630429744720459],"type":"VEC2","bufferView":2,"byteOffset":0},{"name":"polygon0_1_0_indices","componentType":5123,"count":924,"min":[0],"max":[281],"type":"SCALAR","bufferView":3,"byteOffset":0},{"name":"polygon1_1_0_positions","componentType":5126,"count":691,"min":[-1.8719910383224487,0,-2.8076210021972656],"max":[1.8719910383224487,3.477708101272583,4.328240871429443],"type":"VEC3","bufferView":0,"byteOffset":3384},{"name":"polygon1_1_0_normals","componentType":5126,"count":691,"min":[-0.9990794062614441,-0.9999254941940308,-0.9983528256416321],"max":[0.9990794062614441,0.9999299049377441,0.9999536275863647],"type":"VEC3","bufferView":1,"byteOffset":3384},{"name":"polygon1_1_0_texcoords","componentType":5126,"count":691,"min":[0.0006409999914467335,0.01794400066137314],"max":[0.9971920251846313,0.9950870275497437],"type":"VEC2","bufferView":2,"byteOffset":2256},{"name":"polygon1_1_0_indices","componentType":5123,"count":3564,"min":[0],"max":[690],"type":"SCALAR","bufferView":3,"byteOffset":1848},{"name":"polygon2_1_0_positions","componentType":5126,"count":48,"min":[-1.3473399877548218,1.3437620401382446,1.320114016532898],"max":[1.3473399877548218,2.9658589363098145,2.8221349716186523],"type":"VEC3","bufferView":0,"byteOffset":11676},{"name":"polygon2_1_0_normals","componentType":5126,"count":48,"min":[-0.9990794062614441,-0.5788207650184631,-0.35974016785621643],"max":[0.9990794062614441,0.5804528594017029,0.6226959228515625],"type":"VEC3","bufferView":1,"byteOffset":11676},{"name":"polygon2_1_0_texcoords","componentType":5126,"count":48,"min":[0.0039369999431073666,0.00891099963337183],"max":[0.5383610129356384,0.18286100029945374],"type":"VEC2","bufferView":2,"byteOffset":7784},{"name":"polygon2_1_0_indices","componentType":5123,"count":198,"min":[0],"max":[47],"type":"SCALAR","bufferView":3,"byteOffset":8976}],"asset":{"generator":"obj2gltf","version":"2.0"},"buffers":[{"name":"Cyndaquil","byteLength":336992,"uri":"data:application/octet-stream;base64,"}],"bufferViews":[{"name":"bufferView_0","buffer":0,"byteLength":12252,"byteOffset":0,"byteStride":12,"target":34962},{"name":"bufferView_1","buffer":0,"byteLength":12252,"byteOffset":12252,"byteStride":12,"target":34962},{"name":"bufferView_2","buffer":0,"byteLength":8168,"byteOffset":24504,"byteStride":8,"target":34962},{"name":"bufferView_3","buffer":0,"byteLength":9372,"byteOffset":32672,"target":34963},{"buffer":0,"byteOffset":42044,"byteLength":196626},{"buffer":0,"byteOffset":238670,"byteLength":98322}],"images":[{"name":"HinoarashiDh","mimeType":"image/x-tga","bufferView":4},{"name":"HinoarashiEyeDh","mimeType":"image/x-tga","bufferView":5}],"materials":[{"name":"mat2","pbrMetallicRoughness":{"baseColorTexture":{"index":0},"baseColorFactor":[1,1,1,1],"metallicFactor":0,"roughnessFactor":0.99},"emissiveFactor":[0,0,0],"alphaMode":"OPAQUE","doubleSided":false},{"name":"mat1","pbrMetallicRoughness":{"baseColorTexture":{"index":0},"baseColorFactor":[1,1,1,1],"metallicFactor":0,"roughnessFactor":0.99},"emissiveFactor":[0,0,0],"alphaMode":"OPAQUE","doubleSided":false},{"name":"mat3","pbrMetallicRoughness":{"baseColorTexture":{"index":1},"baseColorFactor":[1,1,1,1],"metallicFactor":0,"roughnessFactor":0.99},"emissiveFactor":[0,0,0],"alphaMode":"OPAQUE","doubleSided":false}],"meshes":[{"name":"polygon0_1","primitives":[{"attributes":{"POSITION":0,"NORMAL":1,"TEXCOORD_0":2},"indices":3,"material":0,"mode":4}]},{"name":"polygon1_1","primitives":[{"attributes":{"POSITION":4,"NORMAL":5,"TEXCOORD_0":6},"indices":7,"material":1,"mode":4}]},{"name":"polygon2_1","primitives":[{"attributes":{"POSITION":8,"NORMAL":9,"TEXCOORD_0":10},"indices":11,"material":2,"mode":4}]}],"nodes":[{"name":"polygon0","mesh":0},{"name":"polygon1","mesh":1},{"name":"polygon2","mesh":2}],"samplers":[{"wrapS":10497,"wrapT":10497}],"scene":0,"scenes":[{"nodes":[0,1,2]}],"textures":[{"name":"HinoarashiDh","sampler":0,"source":0},{"name":"HinoarashiEyeDh","sampler":0,"source":1}]}