{"accessors":[{"name":"polygon0_1_0_positions","componentType":5126,"count":662,"min":[-3.663330078125,1.5612610578536987,-5.546029090881348],"max":[3.6633310317993164,7.85097599029541,6.049191951751709],"type":"VEC3","bufferView":0,"byteOffset":0},{"name":"polygon0_1_0_normals","componentType":5126,"count":662,"min":[-0.9989141225814819,-0.6424369812011719,-0.9993081092834473],"max":[0.9989141225814819,0.9791889190673828,0.9997696876525879],"type":"VEC3","bufferView":1,"byteOffset":0},{"name":"polygon0_1_0_texcoords","componentType":5126,"count":662,"min":[0.5853580236434937,0.6673889756202698],"max":[0.9774169921875,0.9922490119934082],"type":"VEC2","bufferView":2,"byteOffset":0},{"name":"polygon0_1_0_indices","componentType":5123,"count":858,"min":[0],"max":[661],"type":"SCALAR","bufferView":3,"byteOffset":0},{"name":"polygon2_1_0_positions","componentType":5126,"count":607,"min":[-1.8003000020980835,-1.3776249885559082,-4.4819722175598145],"max":[1.800299048423767,3.0290210247039795,5.251801013946533],"type":"VEC3","bufferView":0,"byteOffset":7944},{"name":"polygon2_1_0_normals","componentType":5126,"count":607,"min":[-0.9992765188217163,-1,-0.999920129776001],"max":[0.9997045397758484,0.9999849200248718,0.9978970289230347],"type":"VEC3","bufferView":1,"byteOffset":7944},{"name":"polygon2_1_0_texcoords","componentType":5126,"count":607,"min":[0.0028379999566823244,0.0036009999457746744],"max":[0.9945979714393616,0.9851379990577698],"type":"VEC2","bufferView":2,"byteOffset":5296},{"name":"polygon2_1_0_indices","componentType":5123,"count":3114,"min":[0],"max":[606],"type":"SCALAR","bufferView":3,"byteOffset":1716},{"name":"polygon3_1_0_positions","componentType":5126,"count":9,"min":[-0.4110270142555237,0.666109025478363,3.8968799114227295],"max":[0.40697500109672546,0.7652329802513123,4.607040882110596],"type":"VEC3","bufferView":0,"byteOffset":15228},{"name":"polygon3_1_0_normals","componentType":5126,"count":9,"min":[-0.31969693303108215,-1,-0.04528401792049408],"max":[0.31969693303108215,-0.9465163946151733,0.036570992320775986],"type":"VEC3","bufferView":1,"byteOffset":15228},{"name":"polygon3_1_0_texcoords","componentType":5126,"count":9,"min":[0.09994500130414963,0.023833999410271645],"max":[0.6635439991950989,0.24206499755382538],"type":"VEC2","bufferView":2,"byteOffset":10152},{"name":"polygon3_1_0_indices","componentType":5123,"count":24,"min":[0],"max":[8],"type":"SCALAR","bufferView":3,"byteOffset":7944},{"name":"polygon4_1_0_positions","componentType":5126,"count":56,"min":[-1.0346989631652832,1.13857901096344,3.6762149333953857],"max":[1.0306479930877686,2.2987070083618164,4.816494941711426],"type":"VEC3","bufferView":0,"byteOffset":15336},{"name":"polygon4_1_0_normals","componentType":5126,"count":56,"min":[-0.9875244498252869,-0.2173558920621872,0.09061601758003235],"max":[0.9892651438713074,0.6073459982872009,0.7288960814476013],"type":"VEC3","bufferView":1,"byteOffset":15336},{"name":"polygon4_1_0_texcoords","componentType":5126,"count":56,"min":[0.007813000120222569,0.0039059999398887157],"max":[0.4921880066394806,0.2226559966802597],"type":"VEC2","bufferView":2,"byteOffset":10224},{"name":"polygon4_1_0_indices","componentType":5123,"count":234,"min":[0],"max":[55],"type":"SCALAR","bufferView":3,"byteOffset":7992}],"asset":{"generator":"obj2gltf","version":"2.0"},"buffers":[{"name":"Quilava","byteLength":395268,"uri":"data:application/octet-stream;base64,"}],"bufferViews":[{"name":"bufferView_0","buffer":0,"byteLength":16008,"byteOffset":0,"byteStride":12,"target":34962},{"name":"bufferView_1","buffer":0,"byteLength":16008,"byteOffset":16008,"byteStride":12,"target":34962},{"name":"bufferView_2","buffer":0,"byteLength":10672,"byteOffset":32016,"byteStride":8,"target":34962},{"name":"bufferView_3","buffer":0,"byteLength":8460,"byteOffset":42688,"target":34963},{"buffer":0,"byteOffset":51148,"byteLength":196626},{"buffer":0,"byteOffset":247774,"byteLength":49170},{"buffer":0,"byteOffset":296944,"byteLength":98322}],"images":[{"name":"MagmarashiDh","mimeType":"image/x-tga","bufferView":4},{"name":"MagmarashiMouthDh","mimeType":"image/x-tga","bufferView":5},{"name":"MagmarashiEyeDh","mimeType":"image/x-tga","bufferView":6}],"materials":[{"name":"mat2","pbrMetallicRoughness":{"baseColorTexture":{"index":0},"baseColorFactor":[1,1,1,1],"metallicFactor":0,"roughnessFactor":0.99},"emissiveFactor":[0,0,0],"alphaMode":"OPAQUE","doubleSided":false},{"name":"mat1","pbrMetallicRoughness":{"baseColorTexture":{"index":0},"baseColorFactor":[1,1,1,1],"metallicFactor":0,"roughnessFactor":0.99},"emissiveFactor":[0,0,0],"alphaMode":"OPAQUE","doubleSided":false},{"name":"mat4","pbrMetallicRoughness":{"baseColorTexture":{"index":1},"baseColorFactor":[1,1,1,1],"metallicFactor":0,"roughnessFactor":0.99},"emissiveFactor":[0,0,0],"alphaMode":"OPAQUE","doubleSided":false},{"name":"mat3","pbrMetallicRoughness":{"baseColorTexture":{"index":2},"baseColorFactor":[1,1,1,1],"metallicFactor":0,"roughnessFactor":0.99},"emissiveFactor":[0,0,0],"alphaMode":"OPAQUE","doubleSided":false}],"meshes":[{"name":"polygon0_1","primitives":[{"attributes":{"POSITION":0,"NORMAL":1,"TEXCOORD_0":2},"indices":3,"material":0,"mode":4}]},{"name":"polygon2_1","primitives":[{"attributes":{"POSITION":4,"NORMAL":5,"TEXCOORD_0":6},"indices":7,"material":1,"mode":4}]},{"name":"polygon3_1","primitives":[{"attributes":{"POSITION":8,"NORMAL":9,"TEXCOORD_0":10},"indices":11,"material":2,"mode":4}]},{"name":"polygon4_1","primitives":[{"attributes":{"POSITION":12,"NORMAL":13,"TEXCOORD_0":14},"indices":15,"material":3,"mode":4}]}],"nodes":[{"name":"polygon0","mesh":0},{"name":"polygon2","mesh":1},{"name":"polygon3","mesh":2},{"name":"polygon4","mesh":3}],"samplers":[{"wrapS":10497,"wrapT":10497}],"scene":0,"scenes":[{"nodes":[0,1,2,3]}],"textures":[{"name":"MagmarashiDh","sampler":0,"source":0},{"name":"MagmarashiMouthDh","sampler":0,"source":1},{"name":"MagmarashiEyeDh","sampler":0,"source":2}]}