{"accessors":[{"name":"bakphoon-Mesh_0_positions","componentType":5126,"count":30,"min":[-1.552361011505127,7.766202926635742,-12.949435234069824],"max":[1.552361011505127,9.23524284362793,-11.560917854309082],"type":"VEC3","bufferView":0,"byteOffset":0},{"name":"bakphoon-Mesh_0_texcoords","componentType":5126,"count":30,"min":[0.10163799673318863,0.0031129999551922083],"max":[0.9498479962348938,0.25946900248527527],"type":"VEC2","bufferView":1,"byteOffset":0},{"name":"bakphoon-Mesh_0_indices","componentType":5123,"count":96,"min":[0],"max":[29],"type":"SCALAR","bufferView":2,"byteOffset":0},{"name":"bakphoon-Mesh_1_positions","componentType":5126,"count":1554,"min":[-5.918149948120117,-5.934948921203613,-15.253952026367188],"max":[5.918149948120117,9.647031784057617,0.6297860145568848],"type":"VEC3","bufferView":0,"byteOffset":360},{"name":"bakphoon-Mesh_1_texcoords","componentType":5126,"count":1554,"min":[0.006883999798446894,0],"max":[1,0.9933410286903381],"type":"VEC2","bufferView":1,"byteOffset":240},{"name":"bakphoon-Mesh_1_indices","componentType":5123,"count":7272,"min":[0],"max":[1553],"type":"SCALAR","bufferView":2,"byteOffset":192}],"asset":{"generator":"obj2gltf","version":"2.0"},"buffers":[{"name":"BR_Typhlosion-Shiny01","byteLength":1619316,"uri":"data:application/octet-stream;base64,"}],"bufferViews":[{"name":"bufferView_0","buffer":0,"byteLength":19008,"byteOffset":0,"byteStride":12,"target":34962},{"name":"bufferView_1","buffer":0,"byteLength":12672,"byteOffset":19008,"byteStride":8,"target":34962},{"name":"bufferView_2","buffer":0,"byteLength":14736,"byteOffset":31680,"target":34963},{"buffer":0,"byteOffset":46416,"byteLength":524306},{"buffer":0,"byteOffset":570722,"byteLength":1048594}],"images":[{"name":"bakphoon_1_0","mimeType":"image/x-tga","bufferView":3},{"name":"bakphoon_1_1","mimeType":"image/x-tga","bufferView":4}],"materials":[{"name":"mat_0","pbrMetallicRoughness":{"baseColorTexture":{"index":0},"baseColorFactor":[1,1,1,1],"metallicFactor":0,"roughnessFactor":0.903921569},"emissiveFactor":[0,0,0],"alphaMode":"BLEND","doubleSided":true},{"name":"mat_1","pbrMetallicRoughness":{"baseColorTexture":{"index":1},"baseColorFactor":[1,1,1,1],"metallicFactor":0,"roughnessFactor":0.903921569},"emissiveFactor":[0,0,0],"alphaMode":"BLEND","doubleSided":true}],"meshes":[{"name":"bakphoon-Mesh","primitives":[{"attributes":{"POSITION":0,"TEXCOORD_0":1},"indices":2,"material":0,"mode":4},{"attributes":{"POSITION":3,"TEXCOORD_0":4},"indices":5,"material":1,"mode":4}]}],"nodes":[{"name":"bakphoon","mesh":0}],"samplers":[{"wrapS":10497,"wrapT":10497}],"scene":0,"scenes":[{"nodes":[0]}],"textures":[{"name":"bakphoon_1_0","sampler":0,"source":0},{"name":"bakphoon_1_1","sampler":0,"source":1}]}