{"accessors":[{"name":"polygon0_1_0_positions","componentType":5126,"count":55,"min":[-0.76773601770401,3.8897199630737305,-0.17886200547218323],"max":[0.76773601770401,4.417847156524658,2.995732069015503],"type":"VEC3","bufferView":0,"byteOffset":0},{"name":"polygon0_1_0_normals","componentType":5126,"count":55,"min":[-0.7232871055603027,-0.9964823126792908,-0.9987190961837769],"max":[0.7232871055603027,0.9994667768478394,0.7797635793685913],"type":"VEC3","bufferView":1,"byteOffset":0},{"name":"polygon0_1_0_texcoords","componentType":5126,"count":55,"min":[0.47064200043678284,0.014770999550819397],"max":[0.9838870167732239,0.6249690055847168],"type":"VEC2","bufferView":2,"byteOffset":0},{"name":"polygon0_1_0_indices","componentType":5123,"count":252,"min":[0],"max":[54],"type":"SCALAR","bufferView":3,"byteOffset":0},{"name":"polygon1_1_0_positions","componentType":5126,"count":935,"min":[-2.74855899810791,-0.005057999864220619,-3.13299298286438],"max":[2.74855899810791,5.894791126251221,3.24167799949646],"type":"VEC3","bufferView":0,"byteOffset":660},{"name":"polygon1_1_0_normals","componentType":5126,"count":935,"min":[-0.9973992109298706,-0.9985244274139404,-0.9999276995658875],"max":[0.9973992109298706,0.9993491768836975,0.9983141422271729],"type":"VEC3","bufferView":1,"byteOffset":660},{"name":"polygon1_1_0_texcoords","componentType":5126,"count":935,"min":[0.008453000336885452,0.013031000271439552],"max":[0.9790340065956116,0.9957280158996582],"type":"VEC2","bufferView":2,"byteOffset":440},{"name":"polygon1_1_0_indices","componentType":5123,"count":4296,"min":[0],"max":[934],"type":"SCALAR","bufferView":3,"byteOffset":504},{"name":"polygon2_1_0_positions","componentType":5126,"count":28,"min":[-1.0766769647598267,4.502717018127441,0.5251079797744751],"max":[1.0766769647598267,5.532576084136963,1.1752350330352783],"type":"VEC3","bufferView":0,"byteOffset":11880},{"name":"polygon2_1_0_normals","componentType":5126,"count":28,"min":[-0.9644960165023804,0.10095397382974625,0.22344902157783508],"max":[0.9644960165023804,0.6500837802886963,0.5801927447319031],"type":"VEC3","bufferView":1,"byteOffset":11880},{"name":"polygon2_1_0_texcoords","componentType":5126,"count":28,"min":[0.007813000120222569,0.0078119998797774315],"max":[0.4804689884185791,0.2460940033197403],"type":"VEC2","bufferView":2,"byteOffset":7920},{"name":"polygon2_1_0_indices","componentType":5123,"count":72,"min":[0],"max":[27],"type":"SCALAR","bufferView":3,"byteOffset":9096}],"asset":{"generator":"obj2gltf","version":"2.0"},"buffers":[{"name":"Totodile","byteLength":336764,"uri":"data:application/octet-stream;base64,"}],"bufferViews":[{"name":"bufferView_0","buffer":0,"byteLength":12216,"byteOffset":0,"byteStride":12,"target":34962},{"name":"bufferView_1","buffer":0,"byteLength":12216,"byteOffset":12216,"byteStride":12,"target":34962},{"name":"bufferView_2","buffer":0,"byteLength":8144,"byteOffset":24432,"byteStride":8,"target":34962},{"name":"bufferView_3","buffer":0,"byteLength":9240,"byteOffset":32576,"target":34963},{"buffer":0,"byteOffset":41816,"byteLength":196626},{"buffer":0,"byteOffset":238442,"byteLength":98322}],"images":[{"name":"WaninokoDh","mimeType":"image/x-tga","bufferView":4},{"name":"WaninokoEyeDh","mimeType":"image/x-tga","bufferView":5}],"materials":[{"name":"mat3","pbrMetallicRoughness":{"baseColorTexture":{"index":0},"baseColorFactor":[1,1,1,1],"metallicFactor":0,"roughnessFactor":0.99},"emissiveFactor":[0,0,0],"alphaMode":"OPAQUE","doubleSided":false},{"name":"mat1","pbrMetallicRoughness":{"baseColorTexture":{"index":0},"baseColorFactor":[1,1,1,1],"metallicFactor":0,"roughnessFactor":0.99},"emissiveFactor":[0,0,0],"alphaMode":"OPAQUE","doubleSided":false},{"name":"mat2","pbrMetallicRoughness":{"baseColorTexture":{"index":1},"baseColorFactor":[1,1,1,1],"metallicFactor":0,"roughnessFactor":0.99},"emissiveFactor":[0,0,0],"alphaMode":"OPAQUE","doubleSided":false}],"meshes":[{"name":"polygon0_1","primitives":[{"attributes":{"POSITION":0,"NORMAL":1,"TEXCOORD_0":2},"indices":3,"material":0,"mode":4}]},{"name":"polygon1_1","primitives":[{"attributes":{"POSITION":4,"NORMAL":5,"TEXCOORD_0":6},"indices":7,"material":1,"mode":4}]},{"name":"polygon2_1","primitives":[{"attributes":{"POSITION":8,"NORMAL":9,"TEXCOORD_0":10},"indices":11,"material":2,"mode":4}]}],"nodes":[{"name":"polygon0","mesh":0},{"name":"polygon1","mesh":1},{"name":"polygon2","mesh":2}],"samplers":[{"wrapS":10497,"wrapT":10497}],"scene":0,"scenes":[{"nodes":[0,1,2]}],"textures":[{"name":"WaninokoDh","sampler":0,"source":0},{"name":"WaninokoEyeDh","sampler":0,"source":1}]}