{"accessors":[{"name":"alligates-Mesh_0_positions","componentType":5126,"count":24,"min":[-2.6046879291534424,-0.27243998646736145,-0.6311690211296082],"max":[2.6046879291534424,1.736624002456665,0.000009000000318337698],"type":"VEC3","bufferView":0,"byteOffset":0},{"name":"alligates-Mesh_0_texcoords","componentType":5126,"count":24,"min":[0.01600000075995922,-0.8999999761581421],"max":[0.9781249761581421,0.9910709857940674],"type":"VEC2","bufferView":1,"byteOffset":0},{"name":"alligates-Mesh_0_indices","componentType":5123,"count":78,"min":[0],"max":[23],"type":"SCALAR","bufferView":2,"byteOffset":0},{"name":"alligates-Mesh_1_positions","componentType":5126,"count":27,"min":[-1.506780982017517,-1.2043520212173462,-9.105249404907227],"max":[1.506780982017517,1.7565380334854126,-6.8498640060424805],"type":"VEC3","bufferView":0,"byteOffset":288},{"name":"alligates-Mesh_1_texcoords","componentType":5126,"count":27,"min":[-0.029296999797225,-0.17969000339508057],"max":[0.22851599752902985,1.140625],"type":"VEC2","bufferView":1,"byteOffset":192},{"name":"alligates-Mesh_1_indices","componentType":5123,"count":78,"min":[0],"max":[26],"type":"SCALAR","bufferView":2,"byteOffset":156},{"name":"alligates-Mesh_2_positions","componentType":5126,"count":10,"min":[-0.9875220060348511,2.5943479537963867,-8.445107460021973],"max":[0.9875220060348511,3.6155478954315186,-7.455935955047607],"type":"VEC3","bufferView":0,"byteOffset":612},{"name":"alligates-Mesh_2_texcoords","componentType":5126,"count":10,"min":[-0.39285698533058167,-0.1370300054550171],"max":[1.648900032043457,1.2678569555282593],"type":"VEC2","bufferView":1,"byteOffset":408},{"name":"alligates-Mesh_2_indices","componentType":5123,"count":30,"min":[0],"max":[9],"type":"SCALAR","bufferView":2,"byteOffset":312},{"name":"alligates-Mesh_3_positions","componentType":5126,"count":459,"min":[-4.138591766357422,-5.078547954559326,-9.177892684936523],"max":[4.135766983032227,3.3333098888397217,0.13415899872779846],"type":"VEC3","bufferView":0,"byteOffset":732},{"name":"alligates-Mesh_3_texcoords","componentType":5126,"count":459,"min":[-0.004408000037074089,0.014417000114917755],"max":[1.2495700120925903,0.9414920210838318],"type":"VEC2","bufferView":1,"byteOffset":488},{"name":"alligates-Mesh_3_indices","componentType":5123,"count":1362,"min":[0],"max":[458],"type":"SCALAR","bufferView":2,"byteOffset":372},{"name":"alligates-Mesh_4_positions","componentType":5126,"count":16,"min":[-1.3997819423675537,-0.5764619708061218,-7.638556957244873],"max":[1.3997819423675537,3.668062925338745,-6.3304829597473145],"type":"VEC3","bufferView":0,"byteOffset":6240},{"name":"alligates-Mesh_4_texcoords","componentType":5126,"count":16,"min":[0.015625,0.006696000229567289],"max":[0.982142984867096,0.9895830154418945],"type":"VEC2","bufferView":1,"byteOffset":4160},{"name":"alligates-Mesh_4_indices","componentType":5123,"count":42,"min":[0],"max":[15],"type":"SCALAR","bufferView":2,"byteOffset":3096},{"name":"alligates-Mesh_5_positions","componentType":5126,"count":15,"min":[-1.4747860431671143,-0.5764619708061218,-7.530073165893555],"max":[1.4747860431671143,3.6155478954315186,-6.442062854766846],"type":"VEC3","bufferView":0,"byteOffset":6432},{"name":"alligates-Mesh_5_texcoords","componentType":5126,"count":15,"min":[0.026785999536514282,0.0044639999978244305],"max":[0.9807919859886169,0.9888389706611633],"type":"VEC2","bufferView":1,"byteOffset":4288},{"name":"alligates-Mesh_5_indices","componentType":5123,"count":42,"min":[0],"max":[14],"type":"SCALAR","bufferView":2,"byteOffset":3180},{"name":"alligates-Mesh_6_positions","componentType":5126,"count":39,"min":[-3.4008491039276123,-0.5901510119438171,-8.531906127929688],"max":[3.3991150856018066,3.5102999210357666,-1.1385999917984009],"type":"VEC3","bufferView":0,"byteOffset":6612},{"name":"alligates-Mesh_6_texcoords","componentType":5126,"count":39,"min":[0.006696000229567289,0.022321000695228577],"max":[0.9974439740180969,0.9888389706611633],"type":"VEC2","bufferView":1,"byteOffset":4408},{"name":"alligates-Mesh_6_indices","componentType":5123,"count":102,"min":[0],"max":[38],"type":"SCALAR","bufferView":2,"byteOffset":3264},{"name":"alligates-Mesh_7_positions","componentType":5126,"count":50,"min":[-1.7884570360183716,-0.5764619708061218,-7.638556957244873],"max":[1.7884570360183716,3.668062925338745,-5.397666931152344],"type":"VEC3","bufferView":0,"byteOffset":7080},{"name":"alligates-Mesh_7_texcoords","componentType":5126,"count":50,"min":[-0.03298899903893471,0.04689199849963188],"max":[1.2367099523544312,1.1002060174942017],"type":"VEC2","bufferView":1,"byteOffset":4720},{"name":"alligates-Mesh_7_indices","componentType":5123,"count":156,"min":[0],"max":[49],"type":"SCALAR","bufferView":2,"byteOffset":3468}],"asset":{"generator":"obj2gltf","version":"2.0"},"buffers":[{"name":"BR_Croconaw-Shiny01","byteLength":242004,"uri":"data:application/octet-stream;base64,"}],"bufferViews":[{"name":"bufferView_0","buffer":0,"byteLength":7680,"byteOffset":0,"byteStride":12,"target":34962},{"name":"bufferView_1","buffer":0,"byteLength":5120,"byteOffset":7680,"byteStride":8,"target":34962},{"name":"bufferView_2","buffer":0,"byteLength":3780,"byteOffset":12800,"target":34963},{"buffer":0,"byteOffset":16580,"byteLength":16402},{"buffer":0,"byteOffset":32982,"byteLength":98322},{"buffer":0,"byteOffset":131304,"byteLength":4114},{"buffer":0,"byteOffset":135418,"byteLength":32786},{"buffer":0,"byteOffset":168204,"byteLength":32786},{"buffer":0,"byteOffset":200990,"byteLength":32786},{"buffer":0,"byteOffset":233776,"byteLength":4114},{"buffer":0,"byteOffset":237890,"byteLength":4114}],"images":[{"name":"alligates_1_0","mimeType":"image/x-tga","bufferView":3},{"name":"alligates_1_1","mimeType":"image/x-tga","bufferView":4},{"name":"alligates_1_2","mimeType":"image/x-tga","bufferView":5},{"name":"alligates_1_3","mimeType":"image/x-tga","bufferView":6},{"name":"alligates_1_4","mimeType":"image/x-tga","bufferView":7},{"name":"alligates_1_5","mimeType":"image/x-tga","bufferView":8},{"name":"alligates_1_6","mimeType":"image/x-tga","bufferView":9},{"name":"alligates_1_7","mimeType":"image/x-tga","bufferView":10}],"materials":[{"name":"mat_1","pbrMetallicRoughness":{"baseColorTexture":{"index":0},"baseColorFactor":[1,1,1,1],"metallicFactor":0,"roughnessFactor":0.903921569},"emissiveFactor":[0,0,0],"alphaMode":"BLEND","doubleSided":true},{"name":"mat_2","pbrMetallicRoughness":{"baseColorTexture":{"index":1},"baseColorFactor":[1,1,1,1],"metallicFactor":0,"roughnessFactor":0.903921569},"emissiveFactor":[0,0,0],"alphaMode":"BLEND","doubleSided":true},{"name":"mat_3","pbrMetallicRoughness":{"baseColorTexture":{"index":2},"baseColorFactor":[1,1,1,1],"metallicFactor":0,"roughnessFactor":0.903921569},"emissiveFactor":[0,0,0],"alphaMode":"BLEND","doubleSided":true},{"name":"mat_4","pbrMetallicRoughness":{"baseColorTexture":{"index":3},"baseColorFactor":[1,1,1,1],"metallicFactor":0,"roughnessFactor":0.903921569},"emissiveFactor":[0,0,0],"alphaMode":"BLEND","doubleSided":true},{"name":"mat_5","pbrMetallicRoughness":{"baseColorTexture":{"index":4},"baseColorFactor":[1,1,1,1],"metallicFactor":0,"roughnessFactor":0.903921569},"emissiveFactor":[0,0,0],"alphaMode":"BLEND","doubleSided":true},{"name":"mat_6","pbrMetallicRoughness":{"baseColorTexture":{"index":5},"baseColorFactor":[1,1,1,1],"metallicFactor":0,"roughnessFactor":0.903921569},"emissiveFactor":[0,0,0],"alphaMode":"BLEND","doubleSided":true},{"name":"mat_7","pbrMetallicRoughness":{"baseColorTexture":{"index":6},"baseColorFactor":[1,1,1,1],"metallicFactor":0,"roughnessFactor":0.903921569},"emissiveFactor":[0,0,0],"alphaMode":"BLEND","doubleSided":true},{"name":"mat_8","pbrMetallicRoughness":{"baseColorTexture":{"index":7},"baseColorFactor":[1,1,1,1],"metallicFactor":0,"roughnessFactor":0.903921569},"emissiveFactor":[0,0,0],"alphaMode":"BLEND","doubleSided":true}],"meshes":[{"name":"alligates-Mesh","primitives":[{"attributes":{"POSITION":0,"TEXCOORD_0":1},"indices":2,"material":0,"mode":4},{"attributes":{"POSITION":3,"TEXCOORD_0":4},"indices":5,"material":1,"mode":4},{"attributes":{"POSITION":6,"TEXCOORD_0":7},"indices":8,"material":2,"mode":4},{"attributes":{"POSITION":9,"TEXCOORD_0":10},"indices":11,"material":3,"mode":4},{"attributes":{"POSITION":12,"TEXCOORD_0":13},"indices":14,"material":4,"mode":4},{"attributes":{"POSITION":15,"TEXCOORD_0":16},"indices":17,"material":5,"mode":4},{"attributes":{"POSITION":18,"TEXCOORD_0":19},"indices":20,"material":6,"mode":4},{"attributes":{"POSITION":21,"TEXCOORD_0":22},"indices":23,"material":7,"mode":4}]}],"nodes":[{"name":"alligates","mesh":0}],"samplers":[{"wrapS":10497,"wrapT":10497}],"scene":0,"scenes":[{"nodes":[0]}],"textures":[{"name":"alligates_1_0","sampler":0,"source":0},{"name":"alligates_1_1","sampler":0,"source":1},{"name":"alligates_1_2","sampler":0,"source":2},{"name":"alligates_1_3","sampler":0,"source":3},{"name":"alligates_1_4","sampler":0,"source":4},{"name":"alligates_1_5","sampler":0,"source":5},{"name":"alligates_1_6","sampler":0,"source":6},{"name":"alligates_1_7","sampler":0,"source":7}]}