{"accessors":[{"name":"polygon0_1_0_positions","componentType":5126,"count":12,"min":[-2.741647958755493,14.788956642150879,10.572197914123535],"max":[2.741647958755493,16.757421493530273,13.235503196716309],"type":"VEC3","bufferView":0,"byteOffset":0},{"name":"polygon0_1_0_normals","componentType":5126,"count":12,"min":[-0.9078478217124939,0.3921579420566559,0.07669998705387115],"max":[0.9078478217124939,0.6463200449943542,0.7941638231277466],"type":"VEC3","bufferView":1,"byteOffset":0},{"name":"polygon0_1_0_texcoords","componentType":5126,"count":12,"min":[0.007813000120222569,0.015625],"max":[0.4960939884185791,0.1953119933605194],"type":"VEC2","bufferView":2,"byteOffset":0},{"name":"polygon0_1_0_indices","componentType":5123,"count":24,"min":[0],"max":[11],"type":"SCALAR","bufferView":3,"byteOffset":0},{"name":"polygon1_1_0_positions","componentType":5126,"count":1089,"min":[-13.470954895019531,-0.002382999984547496,-12.274886131286621],"max":[13.470953941345215,21.013795852661133,15.776233673095703],"type":"VEC3","bufferView":0,"byteOffset":144},{"name":"polygon1_1_0_normals","componentType":5126,"count":1089,"min":[-0.9993246793746948,-0.9995173215866089,-0.9991520047187805],"max":[0.99932461977005,0.9999915361404419,0.997706413269043],"type":"VEC3","bufferView":1,"byteOffset":144},{"name":"polygon1_1_0_texcoords","componentType":5126,"count":1089,"min":[0.005859000142663717,0.009398999623954296],"max":[0.9925839900970459,0.98614501953125],"type":"VEC2","bufferView":2,"byteOffset":96},{"name":"polygon1_1_0_indices","componentType":5123,"count":4410,"min":[0],"max":[1088],"type":"SCALAR","bufferView":3,"byteOffset":48},{"name":"polygon2_1_0_positions","componentType":5126,"count":76,"min":[-3.0958549976348877,10.610833168029785,7.8230390548706055],"max":[3.0958549976348877,14.696734428405762,15.376358032226562],"type":"VEC3","bufferView":0,"byteOffset":13212},{"name":"polygon2_1_0_normals","componentType":5126,"count":76,"min":[-0.9158909916877747,-0.9996729493141174,-0.6809499263763428],"max":[0.7862991094589233,0.9995360970497131,0.9790058732032776],"type":"VEC3","bufferView":1,"byteOffset":13212},{"name":"polygon2_1_0_texcoords","componentType":5126,"count":76,"min":[0.005096000153571367,0.025482000783085823],"max":[0.7961429953575134,0.9918519854545593],"type":"VEC2","bufferView":2,"byteOffset":8808},{"name":"polygon2_1_0_indices","componentType":5123,"count":348,"min":[0],"max":[75],"type":"SCALAR","bufferView":3,"byteOffset":8868}],"asset":{"generator":"obj2gltf","version":"2.0"},"buffers":[{"name":"Feraligatr","byteLength":342176,"uri":"data:application/octet-stream;base64,"}],"bufferViews":[{"name":"bufferView_0","buffer":0,"byteLength":14124,"byteOffset":0,"byteStride":12,"target":34962},{"name":"bufferView_1","buffer":0,"byteLength":14124,"byteOffset":14124,"byteStride":12,"target":34962},{"name":"bufferView_2","buffer":0,"byteLength":9416,"byteOffset":28248,"byteStride":8,"target":34962},{"name":"bufferView_3","buffer":0,"byteLength":9564,"byteOffset":37664,"target":34963},{"buffer":0,"byteOffset":47228,"byteLength":98322},{"buffer":0,"byteOffset":145550,"byteLength":196626}],"images":[{"name":"OrdileEyeDh","mimeType":"image/x-tga","bufferView":4},{"name":"OrdileDh","mimeType":"image/x-tga","bufferView":5}],"materials":[{"name":"mat2","pbrMetallicRoughness":{"baseColorTexture":{"index":0},"baseColorFactor":[1,1,1,1],"metallicFactor":0,"roughnessFactor":0.99},"emissiveFactor":[0,0,0],"alphaMode":"OPAQUE","doubleSided":false},{"name":"mat1","pbrMetallicRoughness":{"baseColorTexture":{"index":1},"baseColorFactor":[1,1,1,1],"metallicFactor":0,"roughnessFactor":0.99},"emissiveFactor":[0,0,0],"alphaMode":"OPAQUE","doubleSided":false},{"name":"mat3","pbrMetallicRoughness":{"baseColorTexture":{"index":1},"baseColorFactor":[1,1,1,1],"metallicFactor":0,"roughnessFactor":0.99},"emissiveFactor":[0,0,0],"alphaMode":"OPAQUE","doubleSided":false}],"meshes":[{"name":"polygon0_1","primitives":[{"attributes":{"POSITION":0,"NORMAL":1,"TEXCOORD_0":2},"indices":3,"material":0,"mode":4}]},{"name":"polygon1_1","primitives":[{"attributes":{"POSITION":4,"NORMAL":5,"TEXCOORD_0":6},"indices":7,"material":1,"mode":4}]},{"name":"polygon2_1","primitives":[{"attributes":{"POSITION":8,"NORMAL":9,"TEXCOORD_0":10},"indices":11,"material":2,"mode":4}]}],"nodes":[{"name":"polygon0","mesh":0},{"name":"polygon1","mesh":1},{"name":"polygon2","mesh":2}],"samplers":[{"wrapS":10497,"wrapT":10497}],"scene":0,"scenes":[{"nodes":[0,1,2]}],"textures":[{"name":"OrdileEyeDh","sampler":0,"source":0},{"name":"OrdileDh","sampler":0,"source":1}]}