{"accessors":[{"name":"otachi-Mesh_0_positions","componentType":5126,"count":137,"min":[-2.032370090484619,-2.1584200859069824,-4.830349922180176],"max":[2.032370090484619,2.1619598865509033,-0.38983699679374695],"type":"VEC3","bufferView":0,"byteOffset":0},{"name":"otachi-Mesh_0_texcoords","componentType":5126,"count":137,"min":[-0.13899700343608856,-0.23291000723838806],"max":[1.1390000581741333,1.0591490268707275],"type":"VEC2","bufferView":1,"byteOffset":0},{"name":"otachi-Mesh_0_indices","componentType":5123,"count":438,"min":[0],"max":[136],"type":"SCALAR","bufferView":2,"byteOffset":0},{"name":"otachi-Mesh_1_positions","componentType":5126,"count":86,"min":[-1.6049200296401978,-0.3207539916038513,-7.9709601402282715],"max":[1.6049200296401978,0.2725059986114502,-5.601809978485107],"type":"VEC3","bufferView":0,"byteOffset":1644},{"name":"otachi-Mesh_1_texcoords","componentType":5126,"count":86,"min":[0,1],"max":[0,1],"type":"VEC2","bufferView":1,"byteOffset":1096},{"name":"otachi-Mesh_1_indices","componentType":5123,"count":396,"min":[0],"max":[85],"type":"SCALAR","bufferView":2,"byteOffset":876},{"name":"otachi-Mesh_2_positions","componentType":5126,"count":117,"min":[-3.1930899620056152,-7.616409778594971,-4.547719955444336],"max":[3.1930899620056152,0.3854379951953888,0.3239920139312744],"type":"VEC3","bufferView":0,"byteOffset":2676},{"name":"otachi-Mesh_2_texcoords","componentType":5126,"count":117,"min":[0,0.2446880042552948],"max":[0.8795949816703796,1],"type":"VEC2","bufferView":1,"byteOffset":1784},{"name":"otachi-Mesh_2_indices","componentType":5123,"count":360,"min":[0],"max":[116],"type":"SCALAR","bufferView":2,"byteOffset":1668},{"name":"otachi-Mesh_3_positions","componentType":5126,"count":4,"min":[-0.5069820284843445,1.5776699781417847,-4.830349922180176],"max":[0.5069800019264221,1.8896299600601196,-4.330959796905518],"type":"VEC3","bufferView":0,"byteOffset":4080},{"name":"otachi-Mesh_3_texcoords","componentType":5126,"count":4,"min":[-0.33911898732185364,0.16082899272441864],"max":[1.339110016822815,0.33311399817466736],"type":"VEC2","bufferView":1,"byteOffset":2720},{"name":"otachi-Mesh_3_indices","componentType":5123,"count":6,"min":[0],"max":[3],"type":"SCALAR","bufferView":2,"byteOffset":2388},{"name":"otachi-Mesh_4_positions","componentType":5126,"count":59,"min":[-1.6366699934005737,-1.6894999742507935,-6.030759811401367],"max":[1.6366699934005737,1.6725300550460815,-4.658840179443359],"type":"VEC3","bufferView":0,"byteOffset":4128},{"name":"otachi-Mesh_4_texcoords","componentType":5126,"count":59,"min":[-0.7172060012817383,0.10448600351810455],"max":[1.6156500577926636,0.34617701172828674],"type":"VEC2","bufferView":1,"byteOffset":2752},{"name":"otachi-Mesh_4_indices","componentType":5123,"count":186,"min":[0],"max":[58],"type":"SCALAR","bufferView":2,"byteOffset":2400},{"name":"otachi-Mesh_5_positions","componentType":5126,"count":36,"min":[-1.3702199459075928,0.03217099979519844,-7.546480178833008],"max":[1.3702199459075928,0.2725059986114502,-5.620039939880371],"type":"VEC3","bufferView":0,"byteOffset":4836},{"name":"otachi-Mesh_5_texcoords","componentType":5126,"count":36,"min":[0,1],"max":[0,1],"type":"VEC2","bufferView":1,"byteOffset":3224},{"name":"otachi-Mesh_5_indices","componentType":5123,"count":120,"min":[0],"max":[35],"type":"SCALAR","bufferView":2,"byteOffset":2772},{"name":"otachi-Mesh_6_positions","componentType":5126,"count":64,"min":[-3.6083900928497314,-0.18071599304676056,-4.383959770202637],"max":[3.6083900928497314,0.4435400068759918,-3.1422998905181885],"type":"VEC3","bufferView":0,"byteOffset":5268},{"name":"otachi-Mesh_6_texcoords","componentType":5126,"count":64,"min":[-0.004852999933063984,0.004800000227987766],"max":[0.9958580136299133,1.0040409564971924],"type":"VEC2","bufferView":1,"byteOffset":3512},{"name":"otachi-Mesh_6_indices","componentType":5123,"count":204,"min":[0],"max":[63],"type":"SCALAR","bufferView":2,"byteOffset":3012},{"name":"otachi-Mesh_7_positions","componentType":5126,"count":56,"min":[-1.5528700351715088,-7.354400157928467,-2.853640079498291],"max":[1.5528700351715088,-1.5666500329971313,0.25209999084472656],"type":"VEC3","bufferView":0,"byteOffset":6036},{"name":"otachi-Mesh_7_texcoords","componentType":5126,"count":56,"min":[0,1],"max":[0,1],"type":"VEC2","bufferView":1,"byteOffset":4024},{"name":"otachi-Mesh_7_indices","componentType":5123,"count":192,"min":[0],"max":[55],"type":"SCALAR","bufferView":2,"byteOffset":3420}],"asset":{"generator":"obj2gltf","version":"2.0"},"buffers":[{"name":"BR_Sentret-Shiny01","byteLength":142360,"uri":"data:application/octet-stream;base64,"}],"bufferViews":[{"name":"bufferView_0","buffer":0,"byteLength":6708,"byteOffset":0,"byteStride":12,"target":34962},{"name":"bufferView_1","buffer":0,"byteLength":4472,"byteOffset":6708,"byteStride":8,"target":34962},{"name":"bufferView_2","buffer":0,"byteLength":3804,"byteOffset":11180,"target":34963},{"buffer":0,"byteOffset":14984,"byteLength":65554},{"buffer":0,"byteOffset":80538,"byteLength":82},{"buffer":0,"byteOffset":80620,"byteLength":82},{"buffer":0,"byteOffset":80702,"byteLength":24594},{"buffer":0,"byteOffset":105296,"byteLength":32786},{"buffer":0,"byteOffset":138082,"byteLength":82},{"buffer":0,"byteOffset":138164,"byteLength":4114},{"buffer":0,"byteOffset":142278,"byteLength":82}],"images":[{"name":"otachi_1_0","mimeType":"image/x-tga","bufferView":3},{"name":"otachi_1_1","mimeType":"image/x-tga","bufferView":4},{"name":"otachi_1_2","mimeType":"image/x-tga","bufferView":5},{"name":"otachi_1_3","mimeType":"image/x-tga","bufferView":6},{"name":"otachi_1_4","mimeType":"image/x-tga","bufferView":7},{"name":"otachi_1_5","mimeType":"image/x-tga","bufferView":8},{"name":"otachi_1_6","mimeType":"image/x-tga","bufferView":9},{"name":"otachi_1_7","mimeType":"image/x-tga","bufferView":10}],"materials":[{"name":"mat_0","pbrMetallicRoughness":{"baseColorTexture":{"index":0},"baseColorFactor":[1,1,1,1],"metallicFactor":0,"roughnessFactor":0.903921569},"emissiveFactor":[0,0,0],"alphaMode":"BLEND","doubleSided":true},{"name":"mat_1","pbrMetallicRoughness":{"baseColorTexture":{"index":1},"baseColorFactor":[1,1,1,1],"metallicFactor":0,"roughnessFactor":0.903921569},"emissiveFactor":[0,0,0],"alphaMode":"BLEND","doubleSided":true},{"name":"mat_2","pbrMetallicRoughness":{"baseColorTexture":{"index":2},"baseColorFactor":[1,1,1,1],"metallicFactor":0,"roughnessFactor":0.903921569},"emissiveFactor":[0,0,0],"alphaMode":"BLEND","doubleSided":true},{"name":"mat_3","pbrMetallicRoughness":{"baseColorTexture":{"index":3},"baseColorFactor":[1,1,1,1],"metallicFactor":0,"roughnessFactor":0.903921569},"emissiveFactor":[0,0,0],"alphaMode":"BLEND","doubleSided":true},{"name":"mat_4","pbrMetallicRoughness":{"baseColorTexture":{"index":4},"baseColorFactor":[1,1,1,1],"metallicFactor":0,"roughnessFactor":0.903921569},"emissiveFactor":[0,0,0],"alphaMode":"BLEND","doubleSided":true},{"name":"mat_5","pbrMetallicRoughness":{"baseColorTexture":{"index":5},"baseColorFactor":[1,1,1,1],"metallicFactor":0,"roughnessFactor":0.903921569},"emissiveFactor":[0,0,0],"alphaMode":"BLEND","doubleSided":true},{"name":"mat_6","pbrMetallicRoughness":{"baseColorTexture":{"index":6},"baseColorFactor":[1,1,1,1],"metallicFactor":0,"roughnessFactor":0.903921569},"emissiveFactor":[0,0,0],"alphaMode":"BLEND","doubleSided":true},{"name":"mat_7","pbrMetallicRoughness":{"baseColorTexture":{"index":7},"baseColorFactor":[1,1,1,1],"metallicFactor":0,"roughnessFactor":0.903921569},"emissiveFactor":[0,0,0],"alphaMode":"BLEND","doubleSided":true}],"meshes":[{"name":"otachi-Mesh","primitives":[{"attributes":{"POSITION":0,"TEXCOORD_0":1},"indices":2,"material":0,"mode":4},{"attributes":{"POSITION":3,"TEXCOORD_0":4},"indices":5,"material":1,"mode":4},{"attributes":{"POSITION":6,"TEXCOORD_0":7},"indices":8,"material":2,"mode":4},{"attributes":{"POSITION":9,"TEXCOORD_0":10},"indices":11,"material":3,"mode":4},{"attributes":{"POSITION":12,"TEXCOORD_0":13},"indices":14,"material":4,"mode":4},{"attributes":{"POSITION":15,"TEXCOORD_0":16},"indices":17,"material":5,"mode":4},{"attributes":{"POSITION":18,"TEXCOORD_0":19},"indices":20,"material":6,"mode":4},{"attributes":{"POSITION":21,"TEXCOORD_0":22},"indices":23,"material":7,"mode":4}]}],"nodes":[{"name":"otachi","mesh":0}],"samplers":[{"wrapS":10497,"wrapT":10497}],"scene":0,"scenes":[{"nodes":[0]}],"textures":[{"name":"otachi_1_0","sampler":0,"source":0},{"name":"otachi_1_1","sampler":0,"source":1},{"name":"otachi_1_2","sampler":0,"source":2},{"name":"otachi_1_3","sampler":0,"source":3},{"name":"otachi_1_4","sampler":0,"source":4},{"name":"otachi_1_5","sampler":0,"source":5},{"name":"otachi_1_6","sampler":0,"source":6},{"name":"otachi_1_7","sampler":0,"source":7}]}