{"accessors":[{"name":"polygon0_1_0_positions","componentType":5126,"count":18,"min":[-0.5115050077438354,1.6042989492416382,7.083343029022217],"max":[0.5115039944648743,2.301701068878174,7.572558879852295],"type":"VEC3","bufferView":0,"byteOffset":0},{"name":"polygon0_1_0_normals","componentType":5126,"count":18,"min":[-0.3695141077041626,-0.8227432370185852,0.5527198910713196],"max":[0.3695141077041626,0.0863029956817627,0.9962689280509949],"type":"VEC3","bufferView":1,"byteOffset":0},{"name":"polygon0_1_0_texcoords","componentType":5126,"count":18,"min":[0.02419999986886978,0.027831999585032463],"max":[0.6992800235748291,0.26544201374053955],"type":"VEC2","bufferView":2,"byteOffset":0},{"name":"polygon0_1_0_indices","componentType":5123,"count":66,"min":[0],"max":[17],"type":"SCALAR","bufferView":3,"byteOffset":0},{"name":"polygon1_1_0_positions","componentType":5126,"count":891,"min":[-2.008178949356079,-0.27627700567245483,-10.970030784606934],"max":[2.008178949356079,4.592896938323975,7.572558879852295],"type":"VEC3","bufferView":0,"byteOffset":216},{"name":"polygon1_1_0_normals","componentType":5126,"count":891,"min":[-0.9999690055847168,-0.9999529123306274,-0.9997493028640747],"max":[0.9999690055847168,0.9999874830245972,0.9995527267456055],"type":"VEC3","bufferView":1,"byteOffset":216},{"name":"polygon1_1_0_texcoords","componentType":5126,"count":891,"min":[0.0029299999587237835,0.005431999918073416],"max":[0.9999079704284668,0.9944459795951843],"type":"VEC2","bufferView":2,"byteOffset":144},{"name":"polygon1_1_0_indices","componentType":5123,"count":4230,"min":[0],"max":[890],"type":"SCALAR","bufferView":3,"byteOffset":132},{"name":"polygon2_1_0_positions","componentType":5126,"count":26,"min":[-1.2634069919586182,2.0571188926696777,6.832314968109131],"max":[1.2634060382843018,3.0866479873657227,7.519014835357666],"type":"VEC3","bufferView":0,"byteOffset":10908},{"name":"polygon2_1_0_normals","componentType":5126,"count":26,"min":[-0.8228239417076111,-0.28583309054374695,0.5534119606018066],"max":[0.8228239417076111,0.42681485414505005,0.9648224711418152],"type":"VEC3","bufferView":1,"byteOffset":10908},{"name":"polygon2_1_0_texcoords","componentType":5126,"count":26,"min":[0.015381000004708767,-0.0297240000218153],"max":[0.5726320147514343,0.3220829963684082],"type":"VEC2","bufferView":2,"byteOffset":7272},{"name":"polygon2_1_0_indices","componentType":5123,"count":78,"min":[0],"max":[25],"type":"SCALAR","bufferView":3,"byteOffset":8592}],"asset":{"generator":"obj2gltf","version":"2.0"},"buffers":[{"name":"Furret","byteLength":382788,"uri":"data:application/octet-stream;base64,"}],"bufferViews":[{"name":"bufferView_0","buffer":0,"byteLength":11220,"byteOffset":0,"byteStride":12,"target":34962},{"name":"bufferView_1","buffer":0,"byteLength":11220,"byteOffset":11220,"byteStride":12,"target":34962},{"name":"bufferView_2","buffer":0,"byteLength":7480,"byteOffset":22440,"byteStride":8,"target":34962},{"name":"bufferView_3","buffer":0,"byteLength":8748,"byteOffset":29920,"target":34963},{"buffer":0,"byteOffset":38668,"byteLength":49170},{"buffer":0,"byteOffset":87838,"byteLength":196626},{"buffer":0,"byteOffset":284464,"byteLength":98322}],"images":[{"name":"OotachiMouthDh","mimeType":"image/x-tga","bufferView":4},{"name":"OotachiDh","mimeType":"image/x-tga","bufferView":5},{"name":"OotachiEyeDh","mimeType":"image/x-tga","bufferView":6}],"materials":[{"name":"mat3","pbrMetallicRoughness":{"baseColorTexture":{"index":0},"baseColorFactor":[1,1,1,1],"metallicFactor":0,"roughnessFactor":0.99},"emissiveFactor":[0,0,0],"alphaMode":"OPAQUE","doubleSided":false},{"name":"mat1","pbrMetallicRoughness":{"baseColorTexture":{"index":1},"baseColorFactor":[1,1,1,1],"metallicFactor":0,"roughnessFactor":0.99},"emissiveFactor":[0,0,0],"alphaMode":"OPAQUE","doubleSided":false},{"name":"mat2","pbrMetallicRoughness":{"baseColorTexture":{"index":2},"baseColorFactor":[1,1,1,1],"metallicFactor":0,"roughnessFactor":0.99},"emissiveFactor":[0,0,0],"alphaMode":"OPAQUE","doubleSided":false}],"meshes":[{"name":"polygon0_1","primitives":[{"attributes":{"POSITION":0,"NORMAL":1,"TEXCOORD_0":2},"indices":3,"material":0,"mode":4}]},{"name":"polygon1_1","primitives":[{"attributes":{"POSITION":4,"NORMAL":5,"TEXCOORD_0":6},"indices":7,"material":1,"mode":4}]},{"name":"polygon2_1","primitives":[{"attributes":{"POSITION":8,"NORMAL":9,"TEXCOORD_0":10},"indices":11,"material":2,"mode":4}]}],"nodes":[{"name":"polygon0","mesh":0},{"name":"polygon1","mesh":1},{"name":"polygon2","mesh":2}],"samplers":[{"wrapS":10497,"wrapT":10497}],"scene":0,"scenes":[{"nodes":[0,1,2]}],"textures":[{"name":"OotachiMouthDh","sampler":0,"source":0},{"name":"OotachiDh","sampler":0,"source":1},{"name":"OotachiEyeDh","sampler":0,"source":2}]}