{"accessors":[{"name":"hoho-Mesh_0_positions","componentType":5126,"count":77,"min":[-2.5139999389648438,-2.8573200702667236,-3.2332301139831543],"max":[2.5139999389648438,2.1706900596618652,-1.516510009765625],"type":"VEC3","bufferView":0,"byteOffset":0},{"name":"hoho-Mesh_0_texcoords","componentType":5126,"count":77,"min":[-0.03125,0.3149999976158142],"max":[1,1],"type":"VEC2","bufferView":1,"byteOffset":0},{"name":"hoho-Mesh_0_indices","componentType":5123,"count":180,"min":[0],"max":[76],"type":"SCALAR","bufferView":2,"byteOffset":0},{"name":"hoho-Mesh_1_positions","componentType":5126,"count":176,"min":[-4.02455997467041,-4.068550109863281,-7.078370094299316],"max":[4.02455997467041,2.298569917678833,-1.218790054321289],"type":"VEC3","bufferView":0,"byteOffset":924},{"name":"hoho-Mesh_1_texcoords","componentType":5126,"count":176,"min":[0,0],"max":[1,1],"type":"VEC2","bufferView":1,"byteOffset":616},{"name":"hoho-Mesh_1_indices","componentType":5123,"count":771,"min":[0],"max":[175],"type":"SCALAR","bufferView":2,"byteOffset":360},{"name":"hoho-Mesh_2_positions","componentType":5126,"count":71,"min":[-2.158859968185425,-0.887050986289978,-2.466010093688965],"max":[2.158910036087036,0.3246920108795166,-0.44248101115226746],"type":"VEC3","bufferView":0,"byteOffset":3036},{"name":"hoho-Mesh_2_texcoords","componentType":5126,"count":71,"min":[-0.17554700374603271,-0.7632099986076355],"max":[1.174839973449707,1.2138539552688599],"type":"VEC2","bufferView":1,"byteOffset":2024},{"name":"hoho-Mesh_2_indices","componentType":5123,"count":216,"min":[0],"max":[70],"type":"SCALAR","bufferView":2,"byteOffset":1904},{"name":"hoho-Mesh_3_positions","componentType":5126,"count":140,"min":[-2.7412099838256836,-1.590090036392212,-1.3088799715042114],"max":[2.69323992729187,0.8961039781570435,-0.05270000174641609],"type":"VEC3","bufferView":0,"byteOffset":3888},{"name":"hoho-Mesh_3_texcoords","componentType":5126,"count":140,"min":[-0.007813000120222569,-0.15625],"max":[1,3],"type":"VEC2","bufferView":1,"byteOffset":2592},{"name":"hoho-Mesh_3_indices","componentType":5123,"count":360,"min":[0],"max":[139],"type":"SCALAR","bufferView":2,"byteOffset":2336},{"name":"hoho-Mesh_4_positions","componentType":5126,"count":26,"min":[-0.31844401359558105,2.019129991531372,-5.278019905090332],"max":[0.31844401359558105,2.7104198932647705,-4.537320137023926],"type":"VEC3","bufferView":0,"byteOffset":5568},{"name":"hoho-Mesh_4_texcoords","componentType":5126,"count":26,"min":[0.010417000390589237,0],"max":[0.9817709922790527,0.6510419845581055],"type":"VEC2","bufferView":1,"byteOffset":3712},{"name":"hoho-Mesh_4_indices","componentType":5123,"count":93,"min":[0],"max":[25],"type":"SCALAR","bufferView":2,"byteOffset":3056},{"name":"hoho-Mesh_5_positions","componentType":5126,"count":19,"min":[-0.31844401359558105,1.93503999710083,-4.787909984588623],"max":[0.31844401359558105,2.499229907989502,-4.317200183868408],"type":"VEC3","bufferView":0,"byteOffset":5880},{"name":"hoho-Mesh_5_texcoords","componentType":5126,"count":19,"min":[0.03125,0],"max":[0.9619399905204773,0.984375],"type":"VEC2","bufferView":1,"byteOffset":3920},{"name":"hoho-Mesh_5_indices","componentType":5123,"count":57,"min":[0],"max":[18],"type":"SCALAR","bufferView":2,"byteOffset":3244},{"name":"hoho-Mesh_6_positions","componentType":5126,"count":123,"min":[-2.764039993286133,0.20294399559497833,-8.067150115966797],"max":[2.764039993286133,2.3987600803375244,-4.302430152893066],"type":"VEC3","bufferView":0,"byteOffset":6108},{"name":"hoho-Mesh_6_texcoords","componentType":5126,"count":123,"min":[0,9.999999974752427e-7],"max":[0.20000000298023224,1],"type":"VEC2","bufferView":1,"byteOffset":4072},{"name":"hoho-Mesh_6_indices","componentType":5123,"count":450,"min":[0],"max":[122],"type":"SCALAR","bufferView":2,"byteOffset":3360}],"asset":{"generator":"obj2gltf","version":"2.0"},"buffers":[{"name":"BR_Hoothoot-Shiny01","byteLength":83056,"uri":"data:application/octet-stream;base64,"}],"bufferViews":[{"name":"bufferView_0","buffer":0,"byteLength":7584,"byteOffset":0,"byteStride":12,"target":34962},{"name":"bufferView_1","buffer":0,"byteLength":5056,"byteOffset":7584,"byteStride":8,"target":34962},{"name":"bufferView_2","buffer":0,"byteLength":4260,"byteOffset":12640,"target":34963},{"buffer":0,"byteOffset":16900,"byteLength":32786},{"buffer":0,"byteOffset":49686,"byteLength":4114},{"buffer":0,"byteOffset":53800,"byteLength":530},{"buffer":0,"byteOffset":54330,"byteLength":4114},{"buffer":0,"byteOffset":58444,"byteLength":4114},{"buffer":0,"byteOffset":62558,"byteLength":20498}],"images":[{"name":"hoho_1_0","mimeType":"image/x-tga","bufferView":3},{"name":"hoho_1_2","mimeType":"image/x-tga","bufferView":4},{"name":"hoho_1_3","mimeType":"image/x-tga","bufferView":5},{"name":"hoho_1_4","mimeType":"image/x-tga","bufferView":6},{"name":"hoho_1_5","mimeType":"image/x-tga","bufferView":7},{"name":"hoho_1_6","mimeType":"image/x-tga","bufferView":8}],"materials":[{"name":"mat_0","pbrMetallicRoughness":{"baseColorTexture":{"index":0},"baseColorFactor":[1,1,1,1],"metallicFactor":0,"roughnessFactor":0.903921569},"emissiveFactor":[0,0,0],"alphaMode":"BLEND","doubleSided":true},{"name":"mat_1","pbrMetallicRoughness":{"baseColorTexture":{"index":0},"baseColorFactor":[1,1,1,1],"metallicFactor":0,"roughnessFactor":0.903921569},"emissiveFactor":[0,0,0],"alphaMode":"BLEND","doubleSided":true},{"name":"mat_2","pbrMetallicRoughness":{"baseColorTexture":{"index":1},"baseColorFactor":[1,1,1,1],"metallicFactor":0,"roughnessFactor":0.903921569},"emissiveFactor":[0,0,0],"alphaMode":"BLEND","doubleSided":true},{"name":"mat_3","pbrMetallicRoughness":{"baseColorTexture":{"index":2},"baseColorFactor":[1,1,1,1],"metallicFactor":0,"roughnessFactor":0.903921569},"emissiveFactor":[0,0,0],"alphaMode":"BLEND","doubleSided":true},{"name":"mat_4","pbrMetallicRoughness":{"baseColorTexture":{"index":3},"baseColorFactor":[1,1,1,1],"metallicFactor":0,"roughnessFactor":0.903921569},"emissiveFactor":[0,0,0],"alphaMode":"BLEND","doubleSided":true},{"name":"mat_5","pbrMetallicRoughness":{"baseColorTexture":{"index":4},"baseColorFactor":[1,1,1,1],"metallicFactor":0,"roughnessFactor":0.903921569},"emissiveFactor":[0,0,0],"alphaMode":"BLEND","doubleSided":true},{"name":"mat_6","pbrMetallicRoughness":{"baseColorTexture":{"index":5},"baseColorFactor":[1,1,1,1],"metallicFactor":0,"roughnessFactor":0.903921569},"emissiveFactor":[0,0,0],"alphaMode":"BLEND","doubleSided":true}],"meshes":[{"name":"hoho-Mesh","primitives":[{"attributes":{"POSITION":0,"TEXCOORD_0":1},"indices":2,"material":0,"mode":4},{"attributes":{"POSITION":3,"TEXCOORD_0":4},"indices":5,"material":1,"mode":4},{"attributes":{"POSITION":6,"TEXCOORD_0":7},"indices":8,"material":2,"mode":4},{"attributes":{"POSITION":9,"TEXCOORD_0":10},"indices":11,"material":3,"mode":4},{"attributes":{"POSITION":12,"TEXCOORD_0":13},"indices":14,"material":4,"mode":4},{"attributes":{"POSITION":15,"TEXCOORD_0":16},"indices":17,"material":5,"mode":4},{"attributes":{"POSITION":18,"TEXCOORD_0":19},"indices":20,"material":6,"mode":4}]}],"nodes":[{"name":"hoho","mesh":0}],"samplers":[{"wrapS":10497,"wrapT":10497}],"scene":0,"scenes":[{"nodes":[0]}],"textures":[{"name":"hoho_1_0","sampler":0,"source":0},{"name":"hoho_1_2","sampler":0,"source":1},{"name":"hoho_1_3","sampler":0,"source":2},{"name":"hoho_1_4","sampler":0,"source":3},{"name":"hoho_1_5","sampler":0,"source":4},{"name":"hoho_1_6","sampler":0,"source":5}]}