{"accessors":[{"name":"yorunozuku-Mesh_0_positions","componentType":5126,"count":46,"min":[-2.928839921951294,-10.266400337219238,-9.744919776916504],"max":[3.56210994720459,0.35249900817871094,4.3207597732543945],"type":"VEC3","bufferView":0,"byteOffset":0},{"name":"yorunozuku-Mesh_0_texcoords","componentType":5126,"count":46,"min":[-0.11028800159692764,-0.03061000071465969],"max":[1,0.9803450107574463],"type":"VEC2","bufferView":1,"byteOffset":0},{"name":"yorunozuku-Mesh_0_indices","componentType":5123,"count":138,"min":[0],"max":[45],"type":"SCALAR","bufferView":2,"byteOffset":0},{"name":"yorunozuku-Mesh_1_positions","componentType":5126,"count":22,"min":[-2.928839921951294,-8.045999526977539,-9.744919776916504],"max":[4.295740127563477,0.0033160001039505005,0.204584002494812],"type":"VEC3","bufferView":0,"byteOffset":552},{"name":"yorunozuku-Mesh_1_texcoords","componentType":5126,"count":22,"min":[0,0],"max":[0.44132199883461,0.6860209703445435],"type":"VEC2","bufferView":1,"byteOffset":368},{"name":"yorunozuku-Mesh_1_indices","componentType":5123,"count":48,"min":[0],"max":[21],"type":"SCALAR","bufferView":2,"byteOffset":276},{"name":"yorunozuku-Mesh_2_positions","componentType":5126,"count":68,"min":[-2.928839921951294,-12.515999794006348,-7.164249897003174],"max":[5.779419898986816,0.0033160001039505005,1.9821399450302124],"type":"VEC3","bufferView":0,"byteOffset":816},{"name":"yorunozuku-Mesh_2_texcoords","componentType":5126,"count":68,"min":[-0.14260099828243256,-1.0309100151062012],"max":[1.5872700214385986,0.9805920124053955],"type":"VEC2","bufferView":1,"byteOffset":544},{"name":"yorunozuku-Mesh_2_indices","componentType":5123,"count":120,"min":[0],"max":[67],"type":"SCALAR","bufferView":2,"byteOffset":372},{"name":"yorunozuku-Mesh_3_positions","componentType":5126,"count":46,"min":[-1.3243399858474731,-13.194700241088867,-2.1152400970458984],"max":[4.691180229187012,-3.366919994354248,5.193280220031738],"type":"VEC3","bufferView":0,"byteOffset":1632},{"name":"yorunozuku-Mesh_3_texcoords","componentType":5126,"count":46,"min":[-0.09785400331020355,-0.30000001192092896],"max":[1.0437500476837158,1.3308969736099243],"type":"VEC2","bufferView":1,"byteOffset":1088},{"name":"yorunozuku-Mesh_3_indices","componentType":5123,"count":114,"min":[0],"max":[45],"type":"SCALAR","bufferView":2,"byteOffset":612},{"name":"yorunozuku-Mesh_4_positions","componentType":5126,"count":48,"min":[-2.788559913635254,-13.194700241088867,-7.164249897003174],"max":[5.779419898986816,-2.3288400173187256,5.193280220031738],"type":"VEC3","bufferView":0,"byteOffset":2184},{"name":"yorunozuku-Mesh_4_texcoords","componentType":5126,"count":48,"min":[0,-0.05327000096440315],"max":[1,1.5553460121154785],"type":"VEC2","bufferView":1,"byteOffset":1456},{"name":"yorunozuku-Mesh_4_indices","componentType":5123,"count":72,"min":[0],"max":[47],"type":"SCALAR","bufferView":2,"byteOffset":840},{"name":"yorunozuku-Mesh_5_positions","componentType":5126,"count":142,"min":[-3.7512600421905518,-4.165110111236572,-15.839599609375],"max":[2.954770088195801,5.203139781951904,-2.382970094680786],"type":"VEC3","bufferView":0,"byteOffset":2760},{"name":"yorunozuku-Mesh_5_texcoords","componentType":5126,"count":142,"min":[0,0],"max":[1,1],"type":"VEC2","bufferView":1,"byteOffset":1840},{"name":"yorunozuku-Mesh_5_indices","componentType":5123,"count":549,"min":[0],"max":[141],"type":"SCALAR","bufferView":2,"byteOffset":984},{"name":"yorunozuku-Mesh_6_positions","componentType":5126,"count":24,"min":[-3.455470085144043,0.32583099603652954,-8.586230278015137],"max":[1.9133700132369995,4.017159938812256,-3.191159963607788],"type":"VEC3","bufferView":0,"byteOffset":4464},{"name":"yorunozuku-Mesh_6_texcoords","componentType":5126,"count":24,"min":[0.03125,0.07714799791574478],"max":[0.96875,1.203125],"type":"VEC2","bufferView":1,"byteOffset":2976},{"name":"yorunozuku-Mesh_6_indices","componentType":5123,"count":36,"min":[0],"max":[23],"type":"SCALAR","bufferView":2,"byteOffset":2084},{"name":"yorunozuku-Mesh_7_positions","componentType":5126,"count":24,"min":[-3.7512600421905518,2.5435400009155273,-13.545100212097168],"max":[2.954770088195801,5.203139781951904,-9.863340377807617],"type":"VEC3","bufferView":0,"byteOffset":4752},{"name":"yorunozuku-Mesh_7_texcoords","componentType":5126,"count":24,"min":[0.0921270027756691,0.0839959979057312],"max":[1.155959963798523,0.3757059872150421],"type":"VEC2","bufferView":1,"byteOffset":3168},{"name":"yorunozuku-Mesh_7_indices","componentType":5123,"count":69,"min":[0],"max":[23],"type":"SCALAR","bufferView":2,"byteOffset":2156},{"name":"yorunozuku-Mesh_8_positions","componentType":5126,"count":12,"min":[-1.072100043296814,4.020830154418945,-11.574700355529785],"max":[0.2756020128726959,5.593029975891113,-10.001700401306152],"type":"VEC3","bufferView":0,"byteOffset":5040},{"name":"yorunozuku-Mesh_8_texcoords","componentType":5126,"count":12,"min":[0.030762000009417534,-0.020230000838637352],"max":[0.9692389965057373,1.0000029802322388],"type":"VEC2","bufferView":1,"byteOffset":3360},{"name":"yorunozuku-Mesh_8_indices","componentType":5123,"count":30,"min":[0],"max":[11],"type":"SCALAR","bufferView":2,"byteOffset":2296},{"name":"yorunozuku-Mesh_9_positions","componentType":5126,"count":6,"min":[-1.072100043296814,4.626699924468994,-10.779199600219727],"max":[0.2756020128726959,5.501649856567383,-10.070099830627441],"type":"VEC3","bufferView":0,"byteOffset":5184},{"name":"yorunozuku-Mesh_9_texcoords","componentType":5126,"count":6,"min":[0.0022319999989122152,0.0022319999989122152],"max":[1,1.004464030265808],"type":"VEC2","bufferView":1,"byteOffset":3456},{"name":"yorunozuku-Mesh_9_indices","componentType":5123,"count":6,"min":[0],"max":[5],"type":"SCALAR","bufferView":2,"byteOffset":2356},{"name":"yorunozuku-Mesh_10_positions","componentType":5126,"count":42,"min":[-4.59807014465332,1.7955299615859985,-18.04829978942871],"max":[3.8015799522399902,5.774280071258545,-11.638799667358398],"type":"VEC3","bufferView":0,"byteOffset":5256},{"name":"yorunozuku-Mesh_10_texcoords","componentType":5126,"count":42,"min":[0,-0.1174900010228157],"max":[1,1.4324350357055664],"type":"VEC2","bufferView":1,"byteOffset":3504},{"name":"yorunozuku-Mesh_10_indices","componentType":5123,"count":192,"min":[0],"max":[41],"type":"SCALAR","bufferView":2,"byteOffset":2368},{"name":"yorunozuku-Mesh_11_positions","componentType":5126,"count":22,"min":[-2.470020055770874,-8.020689964294434,-3.3053500652313232],"max":[3.7947499752044678,-1.725450038909912,0.06387200206518173],"type":"VEC3","bufferView":0,"byteOffset":5760},{"name":"yorunozuku-Mesh_11_texcoords","componentType":5126,"count":22,"min":[0,0],"max":[1,1.003999948501587],"type":"VEC2","bufferView":1,"byteOffset":3840},{"name":"yorunozuku-Mesh_11_indices","componentType":5123,"count":54,"min":[0],"max":[21],"type":"SCALAR","bufferView":2,"byteOffset":2752},{"name":"yorunozuku-Mesh_12_positions","componentType":5126,"count":16,"min":[-2.053339958190918,-2.294189929962158,-4.859640121459961],"max":[1.6317600011825562,0.24118000268936157,-1.451740026473999],"type":"VEC3","bufferView":0,"byteOffset":6024},{"name":"yorunozuku-Mesh_12_texcoords","componentType":5126,"count":16,"min":[0.12821699678897858,0.02500000037252903],"max":[0.37178298830986023,0.9825109839439392],"type":"VEC2","bufferView":1,"byteOffset":4016},{"name":"yorunozuku-Mesh_12_indices","componentType":5123,"count":48,"min":[0],"max":[15],"type":"SCALAR","bufferView":2,"byteOffset":2860},{"name":"yorunozuku-Mesh_13_positions","componentType":5126,"count":86,"min":[-4.074709892272949,-3.4923999309539795,-1.8293999433517456],"max":[3.515389919281006,3.0360500812530518,-0.42528998851776123],"type":"VEC3","bufferView":0,"byteOffset":6216},{"name":"yorunozuku-Mesh_13_texcoords","componentType":5126,"count":86,"min":[0.11072199791669846,0.5440790057182312],"max":[1.3717800378799438,0.8872159719467163],"type":"VEC2","bufferView":1,"byteOffset":4144},{"name":"yorunozuku-Mesh_13_indices","componentType":5123,"count":396,"min":[0],"max":[85],"type":"SCALAR","bufferView":2,"byteOffset":2956},{"name":"yorunozuku-Mesh_14_positions","componentType":5126,"count":32,"min":[-4.582469940185547,-3.7276499271392822,-1.5868099927902222],"max":[3.6328399181365967,3.692579984664917,-0.012756000272929668],"type":"VEC3","bufferView":0,"byteOffset":7248},{"name":"yorunozuku-Mesh_14_texcoords","componentType":5126,"count":32,"min":[0.078125,0.062359001487493515],"max":[0.924107015132904,1.0001440048217773],"type":"VEC2","bufferView":1,"byteOffset":4832},{"name":"yorunozuku-Mesh_14_indices","componentType":5123,"count":72,"min":[0],"max":[31],"type":"SCALAR","bufferView":2,"byteOffset":3748}],"asset":{"generator":"obj2gltf","version":"2.0"},"buffers":[{"name":"BR_Noctowl-Shiny01","byteLength":52020,"uri":"data:application/octet-stream;base64,"}],"bufferViews":[{"name":"bufferView_0","buffer":0,"byteLength":7632,"byteOffset":0,"byteStride":12,"target":34962},{"name":"bufferView_1","buffer":0,"byteLength":5088,"byteOffset":7632,"byteStride":8,"target":34962},{"name":"bufferView_2","buffer":0,"byteLength":3892,"byteOffset":12720,"target":34963},{"buffer":0,"byteOffset":16612,"byteLength":1042},{"buffer":0,"byteOffset":17654,"byteLength":82},{"buffer":0,"byteOffset":17736,"byteLength":4114},{"buffer":0,"byteOffset":21850,"byteLength":4114},{"buffer":0,"byteOffset":25964,"byteLength":530},{"buffer":0,"byteOffset":26494,"byteLength":274},{"buffer":0,"byteOffset":26768,"byteLength":2066},{"buffer":0,"byteOffset":28834,"byteLength":15378},{"buffer":0,"byteOffset":44212,"byteLength":1042},{"buffer":0,"byteOffset":45254,"byteLength":1042},{"buffer":0,"byteOffset":46296,"byteLength":1042},{"buffer":0,"byteOffset":47338,"byteLength":530},{"buffer":0,"byteOffset":47868,"byteLength":2066},{"buffer":0,"byteOffset":49934,"byteLength":1042},{"buffer":0,"byteOffset":50976,"byteLength":1042}],"images":[{"name":"yorunozuku_1_0","mimeType":"image/x-tga","bufferView":3},{"name":"yorunozuku_1_1","mimeType":"image/x-tga","bufferView":4},{"name":"yorunozuku_1_2","mimeType":"image/x-tga","bufferView":5},{"name":"yorunozuku_1_3","mimeType":"image/x-tga","bufferView":6},{"name":"yorunozuku_1_4","mimeType":"image/x-tga","bufferView":7},{"name":"yorunozuku_1_5","mimeType":"image/x-tga","bufferView":8},{"name":"yorunozuku_1_6","mimeType":"image/x-tga","bufferView":9},{"name":"yorunozuku_1_7","mimeType":"image/x-tga","bufferView":10},{"name":"yorunozuku_1_8","mimeType":"image/x-tga","bufferView":11},{"name":"yorunozuku_1_9","mimeType":"image/x-tga","bufferView":12},{"name":"yorunozuku_1_10","mimeType":"image/x-tga","bufferView":13},{"name":"yorunozuku_1_11","mimeType":"image/x-tga","bufferView":14},{"name":"yorunozuku_1_12","mimeType":"image/x-tga","bufferView":15},{"name":"yorunozuku_1_13","mimeType":"image/x-tga","bufferView":16},{"name":"yorunozuku_1_14","mimeType":"image/x-tga","bufferView":17}],"materials":[{"name":"mat_0","pbrMetallicRoughness":{"baseColorTexture":{"index":0},"baseColorFactor":[1,1,1,1],"metallicFactor":0,"roughnessFactor":0.903921569},"emissiveFactor":[0,0,0],"alphaMode":"BLEND","doubleSided":true},{"name":"mat_1","pbrMetallicRoughness":{"baseColorTexture":{"index":1},"baseColorFactor":[1,1,1,1],"metallicFactor":0,"roughnessFactor":0.903921569},"emissiveFactor":[0,0,0],"alphaMode":"BLEND","doubleSided":true},{"name":"mat_2","pbrMetallicRoughness":{"baseColorTexture":{"index":2},"baseColorFactor":[1,1,1,1],"metallicFactor":0,"roughnessFactor":0.903921569},"emissiveFactor":[0,0,0],"alphaMode":"BLEND","doubleSided":true},{"name":"mat_3","pbrMetallicRoughness":{"baseColorTexture":{"index":3},"baseColorFactor":[1,1,1,1],"metallicFactor":0,"roughnessFactor":0.903921569},"emissiveFactor":[0,0,0],"alphaMode":"BLEND","doubleSided":true},{"name":"mat_4","pbrMetallicRoughness":{"baseColorTexture":{"index":4},"baseColorFactor":[1,1,1,1],"metallicFactor":0,"roughnessFactor":0.903921569},"emissiveFactor":[0,0,0],"alphaMode":"BLEND","doubleSided":true},{"name":"mat_5","pbrMetallicRoughness":{"baseColorTexture":{"index":5},"baseColorFactor":[1,1,1,1],"metallicFactor":0,"roughnessFactor":0.903921569},"emissiveFactor":[0,0,0],"alphaMode":"BLEND","doubleSided":true},{"name":"mat_6","pbrMetallicRoughness":{"baseColorTexture":{"index":6},"baseColorFactor":[1,1,1,1],"metallicFactor":0,"roughnessFactor":0.903921569},"emissiveFactor":[0,0,0],"alphaMode":"BLEND","doubleSided":true},{"name":"mat_7","pbrMetallicRoughness":{"baseColorTexture":{"index":7},"baseColorFactor":[1,1,1,1],"metallicFactor":0,"roughnessFactor":0.903921569},"emissiveFactor":[0,0,0],"alphaMode":"BLEND","doubleSided":true},{"name":"mat_8","pbrMetallicRoughness":{"baseColorTexture":{"index":8},"baseColorFactor":[1,1,1,1],"metallicFactor":0,"roughnessFactor":0.903921569},"emissiveFactor":[0,0,0],"alphaMode":"BLEND","doubleSided":true},{"name":"mat_9","pbrMetallicRoughness":{"baseColorTexture":{"index":9},"baseColorFactor":[1,1,1,1],"metallicFactor":0,"roughnessFactor":0.903921569},"emissiveFactor":[0,0,0],"alphaMode":"BLEND","doubleSided":true},{"name":"mat_10","pbrMetallicRoughness":{"baseColorTexture":{"index":10},"baseColorFactor":[1,1,1,1],"metallicFactor":0,"roughnessFactor":0.903921569},"emissiveFactor":[0,0,0],"alphaMode":"BLEND","doubleSided":true},{"name":"mat_11","pbrMetallicRoughness":{"baseColorTexture":{"index":11},"baseColorFactor":[1,1,1,1],"metallicFactor":0,"roughnessFactor":0.903921569},"emissiveFactor":[0,0,0],"alphaMode":"BLEND","doubleSided":true},{"name":"mat_12","pbrMetallicRoughness":{"baseColorTexture":{"index":12},"baseColorFactor":[1,1,1,1],"metallicFactor":0,"roughnessFactor":0.903921569},"emissiveFactor":[0,0,0],"alphaMode":"BLEND","doubleSided":true},{"name":"mat_13","pbrMetallicRoughness":{"baseColorTexture":{"index":13},"baseColorFactor":[1,1,1,1],"metallicFactor":0,"roughnessFactor":0.903921569},"emissiveFactor":[0,0,0],"alphaMode":"BLEND","doubleSided":true},{"name":"mat_14","pbrMetallicRoughness":{"baseColorTexture":{"index":14},"baseColorFactor":[1,1,1,1],"metallicFactor":0,"roughnessFactor":0.903921569},"emissiveFactor":[0,0,0],"alphaMode":"BLEND","doubleSided":true}],"meshes":[{"name":"yorunozuku-Mesh","primitives":[{"attributes":{"POSITION":0,"TEXCOORD_0":1},"indices":2,"material":0,"mode":4},{"attributes":{"POSITION":3,"TEXCOORD_0":4},"indices":5,"material":1,"mode":4},{"attributes":{"POSITION":6,"TEXCOORD_0":7},"indices":8,"material":2,"mode":4},{"attributes":{"POSITION":9,"TEXCOORD_0":10},"indices":11,"material":3,"mode":4},{"attributes":{"POSITION":12,"TEXCOORD_0":13},"indices":14,"material":4,"mode":4},{"attributes":{"POSITION":15,"TEXCOORD_0":16},"indices":17,"material":5,"mode":4},{"attributes":{"POSITION":18,"TEXCOORD_0":19},"indices":20,"material":6,"mode":4},{"attributes":{"POSITION":21,"TEXCOORD_0":22},"indices":23,"material":7,"mode":4},{"attributes":{"POSITION":24,"TEXCOORD_0":25},"indices":26,"material":8,"mode":4},{"attributes":{"POSITION":27,"TEXCOORD_0":28},"indices":29,"material":9,"mode":4},{"attributes":{"POSITION":30,"TEXCOORD_0":31},"indices":32,"material":10,"mode":4},{"attributes":{"POSITION":33,"TEXCOORD_0":34},"indices":35,"material":11,"mode":4},{"attributes":{"POSITION":36,"TEXCOORD_0":37},"indices":38,"material":12,"mode":4},{"attributes":{"POSITION":39,"TEXCOORD_0":40},"indices":41,"material":13,"mode":4},{"attributes":{"POSITION":42,"TEXCOORD_0":43},"indices":44,"material":14,"mode":4}]}],"nodes":[{"name":"yorunozuku","mesh":0}],"samplers":[{"wrapS":10497,"wrapT":10497}],"scene":0,"scenes":[{"nodes":[0]}],"textures":[{"name":"yorunozuku_1_0","sampler":0,"source":0},{"name":"yorunozuku_1_1","sampler":0,"source":1},{"name":"yorunozuku_1_2","sampler":0,"source":2},{"name":"yorunozuku_1_3","sampler":0,"source":3},{"name":"yorunozuku_1_4","sampler":0,"source":4},{"name":"yorunozuku_1_5","sampler":0,"source":5},{"name":"yorunozuku_1_6","sampler":0,"source":6},{"name":"yorunozuku_1_7","sampler":0,"source":7},{"name":"yorunozuku_1_8","sampler":0,"source":8},{"name":"yorunozuku_1_9","sampler":0,"source":9},{"name":"yorunozuku_1_10","sampler":0,"source":10},{"name":"yorunozuku_1_11","sampler":0,"source":11},{"name":"yorunozuku_1_12","sampler":0,"source":12},{"name":"yorunozuku_1_13","sampler":0,"source":13},{"name":"yorunozuku_1_14","sampler":0,"source":14}]}