{"accessors":[{"name":"rediba-Mesh_0_positions","componentType":5126,"count":181,"min":[-3.635699987411499,-3.6183199882507324,-6.754640102386475],"max":[3.6356899738311768,5.9773101806640625,-1.6208200454711914],"type":"VEC3","bufferView":0,"byteOffset":0},{"name":"rediba-Mesh_0_texcoords","componentType":5126,"count":181,"min":[-0.5,-0.21369999647140503],"max":[1.0162400007247925,1.59375],"type":"VEC2","bufferView":1,"byteOffset":0},{"name":"rediba-Mesh_0_indices","componentType":5123,"count":636,"min":[0],"max":[180],"type":"SCALAR","bufferView":2,"byteOffset":0},{"name":"rediba-Mesh_1_positions","componentType":5126,"count":31,"min":[-1.9882899522781372,2.5076398849487305,-3.845319986343384],"max":[1.9882899522781372,5.480539798736572,-2.475759983062744],"type":"VEC3","bufferView":0,"byteOffset":2172},{"name":"rediba-Mesh_1_texcoords","componentType":5126,"count":31,"min":[0.03125,0.14800000190734863],"max":[0.9639999866485596,0.96875],"type":"VEC2","bufferView":1,"byteOffset":1448},{"name":"rediba-Mesh_1_indices","componentType":5123,"count":120,"min":[0],"max":[30],"type":"SCALAR","bufferView":2,"byteOffset":1272},{"name":"rediba-Mesh_2_positions","componentType":5126,"count":56,"min":[-2.226020097732544,4.572939872741699,-5.4481401443481445],"max":[2.226020097732544,6.120429992675781,-3.760540008544922],"type":"VEC3","bufferView":0,"byteOffset":2544},{"name":"rediba-Mesh_2_texcoords","componentType":5126,"count":56,"min":[-0.05044599995017052,-0.019530000165104866],"max":[1.051650047302246,0.2104630023241043],"type":"VEC2","bufferView":1,"byteOffset":1696},{"name":"rediba-Mesh_2_indices","componentType":5123,"count":192,"min":[0],"max":[55],"type":"SCALAR","bufferView":2,"byteOffset":1512},{"name":"rediba-Mesh_3_positions","componentType":5126,"count":10,"min":[-6.59250020980835,-6.385590076446533,-6.503220081329346],"max":[6.59250020980835,1.9853299856185913,-3.624959945678711],"type":"VEC3","bufferView":0,"byteOffset":3216},{"name":"rediba-Mesh_3_texcoords","componentType":5126,"count":10,"min":[0,0],"max":[1,1],"type":"VEC2","bufferView":1,"byteOffset":2144},{"name":"rediba-Mesh_3_indices","componentType":5123,"count":18,"min":[0],"max":[9],"type":"SCALAR","bufferView":2,"byteOffset":1896},{"name":"rediba-Mesh_4_positions","componentType":5126,"count":87,"min":[-3.2099099159240723,-3.5002999305725098,-5.683229923248291],"max":[3.2099099159240723,2.818779945373535,-1.3924100399017334],"type":"VEC3","bufferView":0,"byteOffset":3336},{"name":"rediba-Mesh_4_texcoords","componentType":5126,"count":87,"min":[-2.352679967880249,-0.8423900008201599],"max":[4.201059818267822,1.0027049779891968],"type":"VEC2","bufferView":1,"byteOffset":2224},{"name":"rediba-Mesh_4_indices","componentType":5123,"count":264,"min":[0],"max":[86],"type":"SCALAR","bufferView":2,"byteOffset":1932},{"name":"rediba-Mesh_5_positions","componentType":5126,"count":72,"min":[-3.391439914703369,-1.8089100122451782,-3.1970698833465576],"max":[3.391439914703369,3.0831499099731445,-0.6577270030975342],"type":"VEC3","bufferView":0,"byteOffset":4380},{"name":"rediba-Mesh_5_texcoords","componentType":5126,"count":72,"min":[0.171875,0.015625],"max":[0.828125,0.984375],"type":"VEC2","bufferView":1,"byteOffset":2920},{"name":"rediba-Mesh_5_indices","componentType":5123,"count":288,"min":[0],"max":[71],"type":"SCALAR","bufferView":2,"byteOffset":2460},{"name":"rediba-Mesh_6_positions","componentType":5126,"count":114,"min":[-4.203959941864014,-2.3290600776672363,-3.019289970397949],"max":[4.203959941864014,3.852109909057617,0.097011998295784],"type":"VEC3","bufferView":0,"byteOffset":5244},{"name":"rediba-Mesh_6_texcoords","componentType":5126,"count":114,"min":[-0.33428600430488586,-0.31714001297950745],"max":[1.391160011291504,1.17392897605896],"type":"VEC2","bufferView":1,"byteOffset":3496},{"name":"rediba-Mesh_6_indices","componentType":5123,"count":432,"min":[0],"max":[113],"type":"SCALAR","bufferView":2,"byteOffset":3036},{"name":"rediba-Mesh_7_positions","componentType":5126,"count":13,"min":[-1.8019100427627563,2.531719923019409,-4.047070026397705],"max":[1.8019100427627563,5.697450160980225,-3.0911500453948975],"type":"VEC3","bufferView":0,"byteOffset":6612},{"name":"rediba-Mesh_7_texcoords","componentType":5126,"count":13,"min":[0.10872499644756317,0.12246900051832199],"max":[0.8912749886512756,0.914264976978302],"type":"VEC2","bufferView":1,"byteOffset":4408},{"name":"rediba-Mesh_7_indices","componentType":5123,"count":42,"min":[0],"max":[12],"type":"SCALAR","bufferView":2,"byteOffset":3900}],"asset":{"generator":"obj2gltf","version":"2.0"},"buffers":[{"name":"BR_Ledyba-Shiny01","byteLength":93232,"uri":"data:application/octet-stream;base64,"}],"bufferViews":[{"name":"bufferView_0","buffer":0,"byteLength":6768,"byteOffset":0,"byteStride":12,"target":34962},{"name":"bufferView_1","buffer":0,"byteLength":4512,"byteOffset":6768,"byteStride":8,"target":34962},{"name":"bufferView_2","buffer":0,"byteLength":3984,"byteOffset":11280,"target":34963},{"buffer":0,"byteOffset":15264,"byteLength":4114},{"buffer":0,"byteOffset":19378,"byteLength":4114},{"buffer":0,"byteOffset":23492,"byteLength":20498},{"buffer":0,"byteOffset":43990,"byteLength":32786},{"buffer":0,"byteOffset":76776,"byteLength":4114},{"buffer":0,"byteOffset":80890,"byteLength":4114},{"buffer":0,"byteOffset":85004,"byteLength":4114},{"buffer":0,"byteOffset":89118,"byteLength":4114}],"images":[{"name":"rediba_1_0","mimeType":"image/x-tga","bufferView":3},{"name":"rediba_1_1","mimeType":"image/x-tga","bufferView":4},{"name":"rediba_1_2","mimeType":"image/x-tga","bufferView":5},{"name":"rediba_1_3","mimeType":"image/x-tga","bufferView":6},{"name":"rediba_1_4","mimeType":"image/x-tga","bufferView":7},{"name":"rediba_1_5","mimeType":"image/x-tga","bufferView":8},{"name":"rediba_1_6","mimeType":"image/x-tga","bufferView":9},{"name":"rediba_1_7","mimeType":"image/x-tga","bufferView":10}],"materials":[{"name":"mat_0","pbrMetallicRoughness":{"baseColorTexture":{"index":0},"baseColorFactor":[1,1,1,1],"metallicFactor":0,"roughnessFactor":0.903921569},"emissiveFactor":[0,0,0],"alphaMode":"BLEND","doubleSided":true},{"name":"mat_1","pbrMetallicRoughness":{"baseColorTexture":{"index":1},"baseColorFactor":[1,1,1,1],"metallicFactor":0,"roughnessFactor":0.903921569},"emissiveFactor":[0,0,0],"alphaMode":"BLEND","doubleSided":true},{"name":"mat_2","pbrMetallicRoughness":{"baseColorTexture":{"index":2},"baseColorFactor":[1,1,1,1],"metallicFactor":0,"roughnessFactor":0.903921569},"emissiveFactor":[0,0,0],"alphaMode":"BLEND","doubleSided":true},{"name":"mat_3","pbrMetallicRoughness":{"baseColorTexture":{"index":3},"baseColorFactor":[1,1,1,1],"metallicFactor":0,"roughnessFactor":0.903921569},"emissiveFactor":[0,0,0],"alphaMode":"BLEND","doubleSided":true},{"name":"mat_4","pbrMetallicRoughness":{"baseColorTexture":{"index":4},"baseColorFactor":[1,1,1,1],"metallicFactor":0,"roughnessFactor":0.903921569},"emissiveFactor":[0,0,0],"alphaMode":"BLEND","doubleSided":true},{"name":"mat_5","pbrMetallicRoughness":{"baseColorTexture":{"index":5},"baseColorFactor":[1,1,1,1],"metallicFactor":0,"roughnessFactor":0.903921569},"emissiveFactor":[0,0,0],"alphaMode":"BLEND","doubleSided":true},{"name":"mat_6","pbrMetallicRoughness":{"baseColorTexture":{"index":6},"baseColorFactor":[1,1,1,1],"metallicFactor":0,"roughnessFactor":0.903921569},"emissiveFactor":[0,0,0],"alphaMode":"BLEND","doubleSided":true},{"name":"mat_7","pbrMetallicRoughness":{"baseColorTexture":{"index":7},"baseColorFactor":[1,1,1,1],"metallicFactor":0,"roughnessFactor":0.903921569},"emissiveFactor":[0,0,0],"alphaMode":"BLEND","doubleSided":true}],"meshes":[{"name":"rediba-Mesh","primitives":[{"attributes":{"POSITION":0,"TEXCOORD_0":1},"indices":2,"material":0,"mode":4},{"attributes":{"POSITION":3,"TEXCOORD_0":4},"indices":5,"material":1,"mode":4},{"attributes":{"POSITION":6,"TEXCOORD_0":7},"indices":8,"material":2,"mode":4},{"attributes":{"POSITION":9,"TEXCOORD_0":10},"indices":11,"material":3,"mode":4},{"attributes":{"POSITION":12,"TEXCOORD_0":13},"indices":14,"material":4,"mode":4},{"attributes":{"POSITION":15,"TEXCOORD_0":16},"indices":17,"material":5,"mode":4},{"attributes":{"POSITION":18,"TEXCOORD_0":19},"indices":20,"material":6,"mode":4},{"attributes":{"POSITION":21,"TEXCOORD_0":22},"indices":23,"material":7,"mode":4}]}],"nodes":[{"name":"rediba","mesh":0}],"samplers":[{"wrapS":10497,"wrapT":10497}],"scene":0,"scenes":[{"nodes":[0]}],"textures":[{"name":"rediba_1_0","sampler":0,"source":0},{"name":"rediba_1_1","sampler":0,"source":1},{"name":"rediba_1_2","sampler":0,"source":2},{"name":"rediba_1_3","sampler":0,"source":3},{"name":"rediba_1_4","sampler":0,"source":4},{"name":"rediba_1_5","sampler":0,"source":5},{"name":"rediba_1_6","sampler":0,"source":6},{"name":"rediba_1_7","sampler":0,"source":7}]}