{"accessors":[{"name":"redian-Mesh_0_positions","componentType":5126,"count":51,"min":[-1.720020055770874,-1.253730058670044,-6.733429908752441],"max":[1.720020055770874,0.8898159861564636,-2.551330089569092],"type":"VEC3","bufferView":0,"byteOffset":0},{"name":"redian-Mesh_0_texcoords","componentType":5126,"count":51,"min":[0.40625,0.09536299854516983],"max":[1.2755000591278076,0.90625],"type":"VEC2","bufferView":1,"byteOffset":0},{"name":"redian-Mesh_0_indices","componentType":5123,"count":174,"min":[0],"max":[50],"type":"SCALAR","bufferView":2,"byteOffset":0},{"name":"redian-Mesh_1_positions","componentType":5126,"count":31,"min":[-1.5038399696350098,-0.07738900184631348,-6.761539936065674],"max":[1.5038399696350098,1.5103600025177002,-2.551330089569092],"type":"VEC3","bufferView":0,"byteOffset":612},{"name":"redian-Mesh_1_texcoords","componentType":5126,"count":31,"min":[-1.665809988975525,0.03372099995613098],"max":[2.664299964904785,0.8739910125732422],"type":"VEC2","bufferView":1,"byteOffset":408},{"name":"redian-Mesh_1_indices","componentType":5123,"count":105,"min":[0],"max":[30],"type":"SCALAR","bufferView":2,"byteOffset":348},{"name":"redian-Mesh_2_positions","componentType":5126,"count":231,"min":[-3.21124005317688,-0.21097099781036377,-12.788081169128418],"max":[3.21124005317688,1.6519800424575806,-0.820671021938324],"type":"VEC3","bufferView":0,"byteOffset":984},{"name":"redian-Mesh_2_texcoords","componentType":5126,"count":231,"min":[0,0],"max":[1.2500100135803223,1],"type":"VEC2","bufferView":1,"byteOffset":656},{"name":"redian-Mesh_2_indices","componentType":5123,"count":543,"min":[0],"max":[230],"type":"SCALAR","bufferView":2,"byteOffset":560},{"name":"redian-Mesh_3_positions","componentType":5126,"count":108,"min":[-4.404359817504883,-0.4810130000114441,-6.645569801330566],"max":[4.404359817504883,0.682886004447937,-3.6003599166870117],"type":"VEC3","bufferView":0,"byteOffset":3756},{"name":"redian-Mesh_3_texcoords","componentType":5126,"count":108,"min":[0,-0.07500000298023224],"max":[1,0.9936910271644592],"type":"VEC2","bufferView":1,"byteOffset":2504},{"name":"redian-Mesh_3_indices","componentType":5123,"count":336,"min":[0],"max":[107],"type":"SCALAR","bufferView":2,"byteOffset":1648},{"name":"redian-Mesh_4_positions","componentType":5126,"count":34,"min":[-1.720020055770874,-1.494629979133606,-6.697080135345459],"max":[1.720020055770874,-0.07431799918413162,-2.551330089569092],"type":"VEC3","bufferView":0,"byteOffset":5052},{"name":"redian-Mesh_4_texcoords","componentType":5126,"count":34,"min":[0,-0.14061999320983887],"max":[1.1865500211715698,1],"type":"VEC2","bufferView":1,"byteOffset":3368},{"name":"redian-Mesh_4_indices","componentType":5123,"count":120,"min":[0],"max":[33],"type":"SCALAR","bufferView":2,"byteOffset":2320},{"name":"redian-Mesh_5_positions","componentType":5126,"count":60,"min":[-2.5888800621032715,-1.3405499458312988,-1.0052900314331055],"max":[2.5888800621032715,1.866819977760315,0.09474500268697739],"type":"VEC3","bufferView":0,"byteOffset":5460},{"name":"redian-Mesh_5_texcoords","componentType":5126,"count":60,"min":[0,0],"max":[1,1],"type":"VEC2","bufferView":1,"byteOffset":3640},{"name":"redian-Mesh_5_indices","componentType":5123,"count":228,"min":[0],"max":[59],"type":"SCALAR","bufferView":2,"byteOffset":2560},{"name":"redian-Mesh_6_positions","componentType":5126,"count":34,"min":[-1.720020055770874,-1.494629979133606,-6.697080135345459],"max":[1.720020055770874,-0.07431799918413162,-2.551330089569092],"type":"VEC3","bufferView":0,"byteOffset":6180},{"name":"redian-Mesh_6_texcoords","componentType":5126,"count":34,"min":[0,0],"max":[1,1],"type":"VEC2","bufferView":1,"byteOffset":4120},{"name":"redian-Mesh_6_indices","componentType":5123,"count":120,"min":[0],"max":[33],"type":"SCALAR","bufferView":2,"byteOffset":3016},{"name":"redian-Mesh_7_positions","componentType":5126,"count":20,"min":[-2.096369981765747,-0.47638198733329773,-9.150930404663086],"max":[2.096369981765747,2.796180009841919,-6.773620128631592],"type":"VEC3","bufferView":0,"byteOffset":6588},{"name":"redian-Mesh_7_texcoords","componentType":5126,"count":20,"min":[0.001563000027090311,0.21875],"max":[0.2457820028066635,1.1728769540786743],"type":"VEC2","bufferView":1,"byteOffset":4392},{"name":"redian-Mesh_7_indices","componentType":5123,"count":72,"min":[0],"max":[19],"type":"SCALAR","bufferView":2,"byteOffset":3256},{"name":"redian-Mesh_8_positions","componentType":5126,"count":34,"min":[-1.9838600158691406,0.753574013710022,-10.029399871826172],"max":[1.9838600158691406,2.491029977798462,-7.851550102233887],"type":"VEC3","bufferView":0,"byteOffset":6828},{"name":"redian-Mesh_8_texcoords","componentType":5126,"count":34,"min":[0.05653800070285797,0.05902799963951111],"max":[0.9023870229721069,0.9593369960784912],"type":"VEC2","bufferView":1,"byteOffset":4552},{"name":"redian-Mesh_8_indices","componentType":5123,"count":120,"min":[0],"max":[33],"type":"SCALAR","bufferView":2,"byteOffset":3400},{"name":"redian-Mesh_9_positions","componentType":5126,"count":64,"min":[-2.096369981765747,-2.3632700443267822,-11.554900169372559],"max":[2.096369981765747,2.8194100856781006,-6.773620128631592],"type":"VEC3","bufferView":0,"byteOffset":7236},{"name":"redian-Mesh_9_texcoords","componentType":5126,"count":64,"min":[-1.1666699647903442,-0.4253599941730499],"max":[2.166670083999634,2.111109972000122],"type":"VEC2","bufferView":1,"byteOffset":4824},{"name":"redian-Mesh_9_indices","componentType":5123,"count":264,"min":[0],"max":[63],"type":"SCALAR","bufferView":2,"byteOffset":3640},{"name":"redian-Mesh_10_positions","componentType":5126,"count":10,"min":[-0.41671401262283325,-0.3822120130062103,-6.697189807891846],"max":[0.41671499609947205,-0.1328659951686859,-6.172959804534912],"type":"VEC3","bufferView":0,"byteOffset":8004},{"name":"redian-Mesh_10_texcoords","componentType":5126,"count":10,"min":[0,0],"max":[1,1],"type":"VEC2","bufferView":1,"byteOffset":5336},{"name":"redian-Mesh_10_indices","componentType":5123,"count":18,"min":[0],"max":[9],"type":"SCALAR","bufferView":2,"byteOffset":4168}],"asset":{"generator":"obj2gltf","version":"2.0"},"buffers":[{"name":"BR_Ledian-Shiny01","byteLength":100056,"uri":"data:application/octet-stream;base64,"}],"bufferViews":[{"name":"bufferView_0","buffer":0,"byteLength":8124,"byteOffset":0,"byteStride":12,"target":34962},{"name":"bufferView_1","buffer":0,"byteLength":5416,"byteOffset":8124,"byteStride":8,"target":34962},{"name":"bufferView_2","buffer":0,"byteLength":4204,"byteOffset":13540,"target":34963},{"buffer":0,"byteOffset":17744,"byteLength":4114},{"buffer":0,"byteOffset":21858,"byteLength":4114},{"buffer":0,"byteOffset":25972,"byteLength":82},{"buffer":0,"byteOffset":26054,"byteLength":4114},{"buffer":0,"byteOffset":30168,"byteLength":8210},{"buffer":0,"byteOffset":38378,"byteLength":82},{"buffer":0,"byteOffset":38460,"byteLength":82},{"buffer":0,"byteOffset":38542,"byteLength":32786},{"buffer":0,"byteOffset":71328,"byteLength":8210},{"buffer":0,"byteOffset":79538,"byteLength":4114},{"buffer":0,"byteOffset":83652,"byteLength":16402}],"images":[{"name":"redian_1_0","mimeType":"image/x-tga","bufferView":3},{"name":"redian_1_1","mimeType":"image/x-tga","bufferView":4},{"name":"redian_1_2","mimeType":"image/x-tga","bufferView":5},{"name":"redian_1_3","mimeType":"image/x-tga","bufferView":6},{"name":"redian_1_4","mimeType":"image/x-tga","bufferView":7},{"name":"redian_1_5","mimeType":"image/x-tga","bufferView":8},{"name":"redian_1_6","mimeType":"image/x-tga","bufferView":9},{"name":"redian_1_7","mimeType":"image/x-tga","bufferView":10},{"name":"redian_1_8","mimeType":"image/x-tga","bufferView":11},{"name":"redian_1_9","mimeType":"image/x-tga","bufferView":12},{"name":"redian_1_10","mimeType":"image/x-tga","bufferView":13}],"materials":[{"name":"mat_0","pbrMetallicRoughness":{"baseColorTexture":{"index":0},"baseColorFactor":[1,1,1,1],"metallicFactor":0,"roughnessFactor":0.903921569},"emissiveFactor":[0,0,0],"alphaMode":"BLEND","doubleSided":true},{"name":"mat_1","pbrMetallicRoughness":{"baseColorTexture":{"index":1},"baseColorFactor":[1,1,1,1],"metallicFactor":0,"roughnessFactor":0.903921569},"emissiveFactor":[0,0,0],"alphaMode":"BLEND","doubleSided":true},{"name":"mat_2","pbrMetallicRoughness":{"baseColorTexture":{"index":2},"baseColorFactor":[1,1,1,1],"metallicFactor":0,"roughnessFactor":0.903921569},"emissiveFactor":[0,0,0],"alphaMode":"BLEND","doubleSided":true},{"name":"mat_3","pbrMetallicRoughness":{"baseColorTexture":{"index":3},"baseColorFactor":[1,1,1,1],"metallicFactor":0,"roughnessFactor":0.903921569},"emissiveFactor":[0,0,0],"alphaMode":"BLEND","doubleSided":true},{"name":"mat_4","pbrMetallicRoughness":{"baseColorTexture":{"index":4},"baseColorFactor":[1,1,1,1],"metallicFactor":0,"roughnessFactor":0.903921569},"emissiveFactor":[0,0,0],"alphaMode":"BLEND","doubleSided":true},{"name":"mat_5","pbrMetallicRoughness":{"baseColorTexture":{"index":5},"baseColorFactor":[1,1,1,1],"metallicFactor":0,"roughnessFactor":0.903921569},"emissiveFactor":[0,0,0],"alphaMode":"BLEND","doubleSided":true},{"name":"mat_6","pbrMetallicRoughness":{"baseColorTexture":{"index":6},"baseColorFactor":[1,1,1,1],"metallicFactor":0,"roughnessFactor":0.903921569},"emissiveFactor":[0,0,0],"alphaMode":"BLEND","doubleSided":true},{"name":"mat_7","pbrMetallicRoughness":{"baseColorTexture":{"index":7},"baseColorFactor":[1,1,1,1],"metallicFactor":0,"roughnessFactor":0.903921569},"emissiveFactor":[0,0,0],"alphaMode":"BLEND","doubleSided":true},{"name":"mat_8","pbrMetallicRoughness":{"baseColorTexture":{"index":8},"baseColorFactor":[1,1,1,1],"metallicFactor":0,"roughnessFactor":0.903921569},"emissiveFactor":[0,0,0],"alphaMode":"BLEND","doubleSided":true},{"name":"mat_9","pbrMetallicRoughness":{"baseColorTexture":{"index":9},"baseColorFactor":[1,1,1,1],"metallicFactor":0,"roughnessFactor":0.903921569},"emissiveFactor":[0,0,0],"alphaMode":"BLEND","doubleSided":true},{"name":"mat_10","pbrMetallicRoughness":{"baseColorTexture":{"index":10},"baseColorFactor":[1,1,1,1],"metallicFactor":0,"roughnessFactor":0.903921569},"emissiveFactor":[0,0,0],"alphaMode":"BLEND","doubleSided":true}],"meshes":[{"name":"redian-Mesh","primitives":[{"attributes":{"POSITION":0,"TEXCOORD_0":1},"indices":2,"material":0,"mode":4},{"attributes":{"POSITION":3,"TEXCOORD_0":4},"indices":5,"material":1,"mode":4},{"attributes":{"POSITION":6,"TEXCOORD_0":7},"indices":8,"material":2,"mode":4},{"attributes":{"POSITION":9,"TEXCOORD_0":10},"indices":11,"material":3,"mode":4},{"attributes":{"POSITION":12,"TEXCOORD_0":13},"indices":14,"material":4,"mode":4},{"attributes":{"POSITION":15,"TEXCOORD_0":16},"indices":17,"material":5,"mode":4},{"attributes":{"POSITION":18,"TEXCOORD_0":19},"indices":20,"material":6,"mode":4},{"attributes":{"POSITION":21,"TEXCOORD_0":22},"indices":23,"material":7,"mode":4},{"attributes":{"POSITION":24,"TEXCOORD_0":25},"indices":26,"material":8,"mode":4},{"attributes":{"POSITION":27,"TEXCOORD_0":28},"indices":29,"material":9,"mode":4},{"attributes":{"POSITION":30,"TEXCOORD_0":31},"indices":32,"material":10,"mode":4}]}],"nodes":[{"name":"redian","mesh":0}],"samplers":[{"wrapS":10497,"wrapT":10497}],"scene":0,"scenes":[{"nodes":[0]}],"textures":[{"name":"redian_1_0","sampler":0,"source":0},{"name":"redian_1_1","sampler":0,"source":1},{"name":"redian_1_2","sampler":0,"source":2},{"name":"redian_1_3","sampler":0,"source":3},{"name":"redian_1_4","sampler":0,"source":4},{"name":"redian_1_5","sampler":0,"source":5},{"name":"redian_1_6","sampler":0,"source":6},{"name":"redian_1_7","sampler":0,"source":7},{"name":"redian_1_8","sampler":0,"source":8},{"name":"redian_1_9","sampler":0,"source":9},{"name":"redian_1_10","sampler":0,"source":10}]}