{"accessors":[{"name":"polygon0_1_0_positions","componentType":5126,"count":82,"min":[-1.096114993095398,1.7362920045852661,1.6236170530319214],"max":[1.096114993095398,2.248486042022705,2.3022449016571045],"type":"VEC3","bufferView":0,"byteOffset":0},{"name":"polygon0_1_0_normals","componentType":5126,"count":82,"min":[-0.997799813747406,-0.45715680718421936,-0.8372107148170471],"max":[0.997799813747406,0.9540206789970398,0.9793716073036194],"type":"VEC3","bufferView":1,"byteOffset":0},{"name":"polygon0_1_0_texcoords","componentType":5126,"count":82,"min":[-0.9813230037689209,0.01422099955379963],"max":[-0.5178220272064209,0.23840300738811493],"type":"VEC2","bufferView":2,"byteOffset":0},{"name":"polygon0_1_0_indices","componentType":5123,"count":384,"min":[0],"max":[81],"type":"SCALAR","bufferView":3,"byteOffset":0},{"name":"polygon1_1_0_positions","componentType":5126,"count":821,"min":[-3.322532892227173,0.6110659837722778,-9.967550277709961],"max":[3.3225340843200684,3.0362019538879395,3.1910130977630615],"type":"VEC3","bufferView":0,"byteOffset":984},{"name":"polygon1_1_0_normals","componentType":5126,"count":821,"min":[-0.9997072219848633,-1,-0.999997615814209],"max":[0.9997072815895081,1,1],"type":"VEC3","bufferView":1,"byteOffset":984},{"name":"polygon1_1_0_texcoords","componentType":5126,"count":821,"min":[0.006500000134110451,0.011901999823749065],"max":[0.9955139756202698,0.9870610237121582],"type":"VEC2","bufferView":2,"byteOffset":656},{"name":"polygon1_1_0_indices","componentType":5123,"count":3693,"min":[0],"max":[820],"type":"SCALAR","bufferView":3,"byteOffset":768},{"name":"polygon2_1_0_positions","componentType":5126,"count":63,"min":[-1.3646130561828613,0.6720399856567383,-1.8070919513702393],"max":[1.3646130561828613,2.622220993041992,0.2804870009422302],"type":"VEC3","bufferView":0,"byteOffset":10836},{"name":"polygon2_1_0_normals","componentType":5126,"count":63,"min":[-0.9246882200241089,-0.9819005727767944,-0.700242280960083],"max":[0.9246882200241089,0.995966911315918,0.36437609791755676],"type":"VEC3","bufferView":1,"byteOffset":10836},{"name":"polygon2_1_0_texcoords","componentType":5126,"count":63,"min":[-1.9886469841003418,0.0148930000141263],"max":[-1.0063480138778687,0.4791260063648224],"type":"VEC2","bufferView":2,"byteOffset":7224},{"name":"polygon2_1_0_indices","componentType":5123,"count":264,"min":[0],"max":[62],"type":"SCALAR","bufferView":3,"byteOffset":8156}],"asset":{"generator":"obj2gltf","version":"2.0"},"buffers":[{"name":"Spinarak","byteLength":432868,"uri":"data:application/octet-stream;base64,"}],"bufferViews":[{"name":"bufferView_0","buffer":0,"byteLength":11592,"byteOffset":0,"byteStride":12,"target":34962},{"name":"bufferView_1","buffer":0,"byteLength":11592,"byteOffset":11592,"byteStride":12,"target":34962},{"name":"bufferView_2","buffer":0,"byteLength":7728,"byteOffset":23184,"byteStride":8,"target":34962},{"name":"bufferView_3","buffer":0,"byteLength":8684,"byteOffset":30912,"target":34963},{"buffer":0,"byteOffset":39596,"byteLength":98322},{"buffer":0,"byteOffset":137918,"byteLength":196626},{"buffer":0,"byteOffset":334544,"byteLength":98322}],"images":[{"name":"ItomaruEyeDh","mimeType":"image/x-tga","bufferView":4},{"name":"ItomaruDh","mimeType":"image/x-tga","bufferView":5},{"name":"ItomaruFaceDh","mimeType":"image/x-tga","bufferView":6}],"materials":[{"name":"mat2","pbrMetallicRoughness":{"baseColorTexture":{"index":0},"baseColorFactor":[1,1,1,1],"metallicFactor":0,"roughnessFactor":0.99},"emissiveFactor":[0,0,0],"alphaMode":"OPAQUE","doubleSided":false},{"name":"mat1","pbrMetallicRoughness":{"baseColorTexture":{"index":1},"baseColorFactor":[1,1,1,1],"metallicFactor":0,"roughnessFactor":0.99},"emissiveFactor":[0,0,0],"alphaMode":"OPAQUE","doubleSided":false},{"name":"mat3","pbrMetallicRoughness":{"baseColorTexture":{"index":2},"baseColorFactor":[1,1,1,1],"metallicFactor":0,"roughnessFactor":0.99},"emissiveFactor":[0,0,0],"alphaMode":"OPAQUE","doubleSided":false}],"meshes":[{"name":"polygon0_1","primitives":[{"attributes":{"POSITION":0,"NORMAL":1,"TEXCOORD_0":2},"indices":3,"material":0,"mode":4}]},{"name":"polygon1_1","primitives":[{"attributes":{"POSITION":4,"NORMAL":5,"TEXCOORD_0":6},"indices":7,"material":1,"mode":4}]},{"name":"polygon2_1","primitives":[{"attributes":{"POSITION":8,"NORMAL":9,"TEXCOORD_0":10},"indices":11,"material":2,"mode":4}]}],"nodes":[{"name":"polygon0","mesh":0},{"name":"polygon1","mesh":1},{"name":"polygon2","mesh":2}],"samplers":[{"wrapS":10497,"wrapT":10497}],"scene":0,"scenes":[{"nodes":[0,1,2]}],"textures":[{"name":"ItomaruEyeDh","sampler":0,"source":0},{"name":"ItomaruDh","sampler":0,"source":1},{"name":"ItomaruFaceDh","sampler":0,"source":2}]}