{"accessors":[{"name":"ariados-Mesh_0_positions","componentType":5126,"count":63,"min":[-2.3504700660705566,-2.383729934692383,-4.2200798988342285],"max":[2.2854199409484863,2.7242000102996826,-0.5991960167884827],"type":"VEC3","bufferView":0,"byteOffset":0},{"name":"ariados-Mesh_0_texcoords","componentType":5126,"count":63,"min":[0,0],"max":[1,1],"type":"VEC2","bufferView":1,"byteOffset":0},{"name":"ariados-Mesh_0_indices","componentType":5123,"count":216,"min":[0],"max":[62],"type":"SCALAR","bufferView":2,"byteOffset":0},{"name":"ariados-Mesh_1_positions","componentType":5126,"count":139,"min":[-2.3504700660705566,-3.9726600646972656,-4.2200798988342285],"max":[2.2854199409484863,4.651299953460693,-0.5991960167884827],"type":"VEC3","bufferView":0,"byteOffset":756},{"name":"ariados-Mesh_1_texcoords","componentType":5126,"count":139,"min":[0,-0.3452500104904175],"max":[1,0.9978119730949402],"type":"VEC2","bufferView":1,"byteOffset":504},{"name":"ariados-Mesh_1_indices","componentType":5123,"count":642,"min":[0],"max":[138],"type":"SCALAR","bufferView":2,"byteOffset":432},{"name":"ariados-Mesh_2_positions","componentType":5126,"count":12,"min":[-1.0723799467086792,3.316620111465454,-2.45917010307312],"max":[1.035580039024353,4.519289970397949,-1.253059983253479],"type":"VEC3","bufferView":0,"byteOffset":2424},{"name":"ariados-Mesh_2_texcoords","componentType":5126,"count":12,"min":[0.0642860010266304,0.020833000540733337],"max":[0.9357140064239502,0.22916699945926666],"type":"VEC2","bufferView":1,"byteOffset":1616},{"name":"ariados-Mesh_2_indices","componentType":5123,"count":24,"min":[0],"max":[11],"type":"SCALAR","bufferView":2,"byteOffset":1716},{"name":"ariados-Mesh_3_positions","componentType":5126,"count":67,"min":[-0.9242470264434814,2.837630033493042,-2.5362401008605957],"max":[0.9364479780197144,5.507239818572998,-0.49204400181770325],"type":"VEC3","bufferView":0,"byteOffset":2568},{"name":"ariados-Mesh_3_texcoords","componentType":5126,"count":67,"min":[0,0],"max":[1.0464600324630737,1.0641169548034668],"type":"VEC2","bufferView":1,"byteOffset":1712},{"name":"ariados-Mesh_3_indices","componentType":5123,"count":312,"min":[0],"max":[66],"type":"SCALAR","bufferView":2,"byteOffset":1764},{"name":"ariados-Mesh_4_positions","componentType":5126,"count":8,"min":[-2.049999952316284,-3.76921010017395,-3.965519905090332],"max":[1.990689992904663,-2.9385600090026855,-2.3527700901031494],"type":"VEC3","bufferView":0,"byteOffset":3372},{"name":"ariados-Mesh_4_texcoords","componentType":5126,"count":8,"min":[-0.0007169999880716205,-0.07208000123500824],"max":[1.0674699544906616,1.063230037689209],"type":"VEC2","bufferView":1,"byteOffset":2248},{"name":"ariados-Mesh_4_indices","componentType":5123,"count":12,"min":[0],"max":[7],"type":"SCALAR","bufferView":2,"byteOffset":2388},{"name":"ariados-Mesh_5_positions","componentType":5126,"count":89,"min":[-3.78587007522583,-5.414150238037109,-4.429850101470947],"max":[3.7408299446105957,2.2502100467681885,-1.3154000043869019],"type":"VEC3","bufferView":0,"byteOffset":3468},{"name":"ariados-Mesh_5_texcoords","componentType":5126,"count":89,"min":[0,-0.003719999920576811],"max":[1.0063300132751465,1],"type":"VEC2","bufferView":1,"byteOffset":2312},{"name":"ariados-Mesh_5_indices","componentType":5123,"count":336,"min":[0],"max":[88],"type":"SCALAR","bufferView":2,"byteOffset":2412},{"name":"ariados-Mesh_6_positions","componentType":5126,"count":9,"min":[-0.23150399327278137,-5.414150238037109,-2.251070022583008],"max":[0.17219999432563782,-5.403470039367676,-1.928279995918274],"type":"VEC3","bufferView":0,"byteOffset":4536},{"name":"ariados-Mesh_6_texcoords","componentType":5126,"count":9,"min":[0.10929100215435028,0.11497499793767929],"max":[0.8913679718971252,0.8925120234489441],"type":"VEC2","bufferView":1,"byteOffset":3024},{"name":"ariados-Mesh_6_indices","componentType":5123,"count":24,"min":[0],"max":[8],"type":"SCALAR","bufferView":2,"byteOffset":3084},{"name":"ariados-Mesh_7_positions","componentType":5126,"count":50,"min":[-3.1160800457000732,-3.999569892883301,-7.077620029449463],"max":[3.050100088119507,-1.4504200220108032,-3.9478700160980225],"type":"VEC3","bufferView":0,"byteOffset":4644},{"name":"ariados-Mesh_7_texcoords","componentType":5126,"count":50,"min":[-0.00459099980071187,0.005789000075310469],"max":[0.9595850110054016,0.8671280145645142],"type":"VEC2","bufferView":1,"byteOffset":3096},{"name":"ariados-Mesh_7_indices","componentType":5123,"count":252,"min":[0],"max":[49],"type":"SCALAR","bufferView":2,"byteOffset":3132},{"name":"ariados-Mesh_8_positions","componentType":5126,"count":52,"min":[-5.998199939727783,-1.9808599948883057,-2.9169600009918213],"max":[5.994410037994385,3.970400094985962,-0.038247000426054],"type":"VEC3","bufferView":0,"byteOffset":5244},{"name":"ariados-Mesh_8_texcoords","componentType":5126,"count":52,"min":[-0.024879999458789825,0.09756900370121002],"max":[1.0469199419021606,0.8345010280609131],"type":"VEC2","bufferView":1,"byteOffset":3496},{"name":"ariados-Mesh_8_indices","componentType":5123,"count":240,"min":[0],"max":[51],"type":"SCALAR","bufferView":2,"byteOffset":3636}],"asset":{"generator":"obj2gltf","version":"2.0"},"buffers":[{"name":"BR_Ariados-Shiny01","byteLength":109272,"uri":"data:application/octet-stream;base64,"}],"bufferViews":[{"name":"bufferView_0","buffer":0,"byteLength":5868,"byteOffset":0,"byteStride":12,"target":34962},{"name":"bufferView_1","buffer":0,"byteLength":3912,"byteOffset":5868,"byteStride":8,"target":34962},{"name":"bufferView_2","buffer":0,"byteLength":4116,"byteOffset":9780,"target":34963},{"buffer":0,"byteOffset":13896,"byteLength":4114},{"buffer":0,"byteOffset":18010,"byteLength":4114},{"buffer":0,"byteOffset":22124,"byteLength":61458},{"buffer":0,"byteOffset":83582,"byteLength":1042},{"buffer":0,"byteOffset":84624,"byteLength":8210},{"buffer":0,"byteOffset":92834,"byteLength":4114},{"buffer":0,"byteOffset":96948,"byteLength":4114},{"buffer":0,"byteOffset":101062,"byteLength":8210}],"images":[{"name":"ariados_1_0","mimeType":"image/x-tga","bufferView":3},{"name":"ariados_1_1","mimeType":"image/x-tga","bufferView":4},{"name":"ariados_1_2","mimeType":"image/x-tga","bufferView":5},{"name":"ariados_1_3","mimeType":"image/x-tga","bufferView":6},{"name":"ariados_1_4","mimeType":"image/x-tga","bufferView":7},{"name":"ariados_1_5","mimeType":"image/x-tga","bufferView":8},{"name":"ariados_1_6","mimeType":"image/x-tga","bufferView":9},{"name":"ariados_1_7","mimeType":"image/x-tga","bufferView":10}],"materials":[{"name":"mat_0","pbrMetallicRoughness":{"baseColorTexture":{"index":0},"baseColorFactor":[1,1,1,1],"metallicFactor":0,"roughnessFactor":0.903921569},"emissiveFactor":[0,0,0],"alphaMode":"BLEND","doubleSided":true},{"name":"mat_1","pbrMetallicRoughness":{"baseColorTexture":{"index":1},"baseColorFactor":[1,1,1,1],"metallicFactor":0,"roughnessFactor":0.903921569},"emissiveFactor":[0,0,0],"alphaMode":"BLEND","doubleSided":true},{"name":"mat_2","pbrMetallicRoughness":{"baseColorTexture":{"index":2},"baseColorFactor":[1,1,1,1],"metallicFactor":0,"roughnessFactor":0.903921569},"emissiveFactor":[0,0,0],"alphaMode":"BLEND","doubleSided":true},{"name":"mat_3","pbrMetallicRoughness":{"baseColorTexture":{"index":3},"baseColorFactor":[1,1,1,1],"metallicFactor":0,"roughnessFactor":0.903921569},"emissiveFactor":[0,0,0],"alphaMode":"BLEND","doubleSided":true},{"name":"mat_4","pbrMetallicRoughness":{"baseColorTexture":{"index":4},"baseColorFactor":[1,1,1,1],"metallicFactor":0,"roughnessFactor":0.903921569},"emissiveFactor":[0,0,0],"alphaMode":"BLEND","doubleSided":true},{"name":"mat_5","pbrMetallicRoughness":{"baseColorTexture":{"index":5},"baseColorFactor":[1,1,1,1],"metallicFactor":0,"roughnessFactor":0.903921569},"emissiveFactor":[0,0,0],"alphaMode":"BLEND","doubleSided":true},{"name":"mat_6","pbrMetallicRoughness":{"baseColorTexture":{"index":6},"baseColorFactor":[1,1,1,1],"metallicFactor":0,"roughnessFactor":0.903921569},"emissiveFactor":[0,0,0],"alphaMode":"BLEND","doubleSided":true},{"name":"mat_7","pbrMetallicRoughness":{"baseColorTexture":{"index":7},"baseColorFactor":[1,1,1,1],"metallicFactor":0,"roughnessFactor":0.903921569},"emissiveFactor":[0,0,0],"alphaMode":"BLEND","doubleSided":true},{"name":"mat_8","pbrMetallicRoughness":{"baseColorTexture":{"index":7},"baseColorFactor":[1,1,1,1],"metallicFactor":0,"roughnessFactor":0.903921569},"emissiveFactor":[0,0,0],"alphaMode":"BLEND","doubleSided":true}],"meshes":[{"name":"ariados-Mesh","primitives":[{"attributes":{"POSITION":0,"TEXCOORD_0":1},"indices":2,"material":0,"mode":4},{"attributes":{"POSITION":3,"TEXCOORD_0":4},"indices":5,"material":1,"mode":4},{"attributes":{"POSITION":6,"TEXCOORD_0":7},"indices":8,"material":2,"mode":4},{"attributes":{"POSITION":9,"TEXCOORD_0":10},"indices":11,"material":3,"mode":4},{"attributes":{"POSITION":12,"TEXCOORD_0":13},"indices":14,"material":4,"mode":4},{"attributes":{"POSITION":15,"TEXCOORD_0":16},"indices":17,"material":5,"mode":4},{"attributes":{"POSITION":18,"TEXCOORD_0":19},"indices":20,"material":6,"mode":4},{"attributes":{"POSITION":21,"TEXCOORD_0":22},"indices":23,"material":7,"mode":4},{"attributes":{"POSITION":24,"TEXCOORD_0":25},"indices":26,"material":8,"mode":4}]}],"nodes":[{"name":"ariados","mesh":0}],"samplers":[{"wrapS":10497,"wrapT":10497}],"scene":0,"scenes":[{"nodes":[0]}],"textures":[{"name":"ariados_1_0","sampler":0,"source":0},{"name":"ariados_1_1","sampler":0,"source":1},{"name":"ariados_1_2","sampler":0,"source":2},{"name":"ariados_1_3","sampler":0,"source":3},{"name":"ariados_1_4","sampler":0,"source":4},{"name":"ariados_1_5","sampler":0,"source":5},{"name":"ariados_1_6","sampler":0,"source":6},{"name":"ariados_1_7","sampler":0,"source":7}]}