{"accessors":[{"name":"crobat-Mesh_0_positions","componentType":5126,"count":319,"min":[-5.798110008239746,-4.968649864196777,-8.978309631347656],"max":[5.798110008239746,4.044740200042725,2.528290033340454],"type":"VEC3","bufferView":0,"byteOffset":0},{"name":"crobat-Mesh_0_texcoords","componentType":5126,"count":319,"min":[-0.03881800174713135,-0.7248299717903137],"max":[0.3691360056400299,0.47968798875808716],"type":"VEC2","bufferView":1,"byteOffset":0},{"name":"crobat-Mesh_0_indices","componentType":5123,"count":1086,"min":[0],"max":[318],"type":"SCALAR","bufferView":2,"byteOffset":0},{"name":"crobat-Mesh_1_positions","componentType":5126,"count":16,"min":[-1.9881500005722046,0.3319369852542877,-2.283750057220459],"max":[1.9881500005722046,4.044740200042725,-1.0406399965286255],"type":"VEC3","bufferView":0,"byteOffset":3828},{"name":"crobat-Mesh_1_texcoords","componentType":5126,"count":16,"min":[0.008727000094950199,-0.46452000737190247],"max":[0.9912819862365723,1.110496997833252],"type":"VEC2","bufferView":1,"byteOffset":2552},{"name":"crobat-Mesh_1_indices","componentType":5123,"count":36,"min":[0],"max":[15],"type":"SCALAR","bufferView":2,"byteOffset":2172},{"name":"crobat-Mesh_2_positions","componentType":5126,"count":16,"min":[-2.800679922103882,1.7997100353240967,-3.975860118865967],"max":[2.800679922103882,3.7634999752044678,-1.234279990196228],"type":"VEC3","bufferView":0,"byteOffset":4020},{"name":"crobat-Mesh_2_texcoords","componentType":5126,"count":16,"min":[0.007813000120222569,0.02187499962747097],"max":[0.33392900228500366,1.5426989793777466],"type":"VEC2","bufferView":1,"byteOffset":2680},{"name":"crobat-Mesh_2_indices","componentType":5123,"count":42,"min":[0],"max":[15],"type":"SCALAR","bufferView":2,"byteOffset":2244},{"name":"crobat-Mesh_3_positions","componentType":5126,"count":50,"min":[-11.013199806213379,-0.7980930209159851,-1.0333600044250488],"max":[11.013199806213379,0.7183510065078735,4.665840148925781],"type":"VEC3","bufferView":0,"byteOffset":4212},{"name":"crobat-Mesh_3_texcoords","componentType":5126,"count":50,"min":[-0.012325000017881393,-0.006940000224858522],"max":[0.8506940007209778,0.9826390147209167],"type":"VEC2","bufferView":1,"byteOffset":2808},{"name":"crobat-Mesh_3_indices","componentType":5123,"count":180,"min":[0],"max":[49],"type":"SCALAR","bufferView":2,"byteOffset":2328},{"name":"crobat-Mesh_4_positions","componentType":5126,"count":38,"min":[-11.013199806213379,-1.2797000408172607,-0.3901650011539459],"max":[11.013199806213379,0.7183510065078735,4.665840148925781],"type":"VEC3","bufferView":0,"byteOffset":4812},{"name":"crobat-Mesh_4_texcoords","componentType":5126,"count":38,"min":[-0.2805060148239136,-0.3854199945926666],"max":[0.9887499809265137,1.026785969734192],"type":"VEC2","bufferView":1,"byteOffset":3208},{"name":"crobat-Mesh_4_indices","componentType":5123,"count":132,"min":[0],"max":[37],"type":"SCALAR","bufferView":2,"byteOffset":2688},{"name":"crobat-Mesh_5_positions","componentType":5126,"count":90,"min":[-13.163100242614746,-6.5137200355529785,-15.581100463867188],"max":[13.163100242614746,-0.4712280035018921,-3.2067298889160156],"type":"VEC3","bufferView":0,"byteOffset":5268},{"name":"crobat-Mesh_5_texcoords","componentType":5126,"count":90,"min":[-0.29166701436042786,-0.7625700235366821],"max":[0.9965280294418335,1.138888955116272],"type":"VEC2","bufferView":1,"byteOffset":3512},{"name":"crobat-Mesh_5_indices","componentType":5123,"count":282,"min":[0],"max":[89],"type":"SCALAR","bufferView":2,"byteOffset":2952},{"name":"crobat-Mesh_6_positions","componentType":5126,"count":70,"min":[-13.163100242614746,-6.5137200355529785,-15.581100463867188],"max":[13.163100242614746,-0.8483859896659851,-4.027569770812988],"type":"VEC3","bufferView":0,"byteOffset":6348},{"name":"crobat-Mesh_6_texcoords","componentType":5126,"count":70,"min":[-0.015625,-0.20675000548362732],"max":[1.3716100454330444,1.440619945526123],"type":"VEC2","bufferView":1,"byteOffset":4232},{"name":"crobat-Mesh_6_indices","componentType":5123,"count":234,"min":[0],"max":[69],"type":"SCALAR","bufferView":2,"byteOffset":3516},{"name":"crobat-Mesh_7_positions","componentType":5126,"count":39,"min":[-1.7007499933242798,2.1282899379730225,-2.4230101108551025],"max":[1.7007499933242798,3.567270040512085,-1.0865800380706787],"type":"VEC3","bufferView":0,"byteOffset":7188},{"name":"crobat-Mesh_7_texcoords","componentType":5126,"count":39,"min":[0,0],"max":[1,1],"type":"VEC2","bufferView":1,"byteOffset":4792},{"name":"crobat-Mesh_7_indices","componentType":5123,"count":135,"min":[0],"max":[38],"type":"SCALAR","bufferView":2,"byteOffset":3984}],"asset":{"generator":"obj2gltf","version":"2.0"},"buffers":[{"name":"BR_Crobat-Shiny01","byteLength":83704,"uri":"data:application/octet-stream;base64,"}],"bufferViews":[{"name":"bufferView_0","buffer":0,"byteLength":7656,"byteOffset":0,"byteStride":12,"target":34962},{"name":"bufferView_1","buffer":0,"byteLength":5104,"byteOffset":7656,"byteStride":8,"target":34962},{"name":"bufferView_2","buffer":0,"byteLength":4256,"byteOffset":12760,"target":34963},{"buffer":0,"byteOffset":17016,"byteLength":25618},{"buffer":0,"byteOffset":42634,"byteLength":4114},{"buffer":0,"byteOffset":46748,"byteLength":8210},{"buffer":0,"byteOffset":54958,"byteLength":4114},{"buffer":0,"byteOffset":59072,"byteLength":8210},{"buffer":0,"byteOffset":67282,"byteLength":8210},{"buffer":0,"byteOffset":75492,"byteLength":8210}],"images":[{"name":"crobat_1_0","mimeType":"image/x-tga","bufferView":3},{"name":"crobat_1_1","mimeType":"image/x-tga","bufferView":4},{"name":"crobat_1_3","mimeType":"image/x-tga","bufferView":5},{"name":"crobat_1_4","mimeType":"image/x-tga","bufferView":6},{"name":"crobat_1_5","mimeType":"image/x-tga","bufferView":7},{"name":"crobat_1_6","mimeType":"image/x-tga","bufferView":8},{"name":"crobat_1_7","mimeType":"image/x-tga","bufferView":9}],"materials":[{"name":"mat_0","pbrMetallicRoughness":{"baseColorTexture":{"index":0},"baseColorFactor":[1,1,1,1],"metallicFactor":0,"roughnessFactor":0.903921569},"emissiveFactor":[0,0,0],"alphaMode":"BLEND","doubleSided":true},{"name":"mat_1","pbrMetallicRoughness":{"baseColorTexture":{"index":1},"baseColorFactor":[1,1,1,1],"metallicFactor":0,"roughnessFactor":0.903921569},"emissiveFactor":[0,0,0],"alphaMode":"BLEND","doubleSided":true},{"name":"mat_2","pbrMetallicRoughness":{"baseColorTexture":{"index":0},"baseColorFactor":[1,1,1,1],"metallicFactor":0,"roughnessFactor":0.903921569},"emissiveFactor":[0,0,0],"alphaMode":"BLEND","doubleSided":true},{"name":"mat_3","pbrMetallicRoughness":{"baseColorTexture":{"index":2},"baseColorFactor":[1,1,1,1],"metallicFactor":0,"roughnessFactor":0.903921569},"emissiveFactor":[0,0,0],"alphaMode":"BLEND","doubleSided":true},{"name":"mat_4","pbrMetallicRoughness":{"baseColorTexture":{"index":3},"baseColorFactor":[1,1,1,1],"metallicFactor":0,"roughnessFactor":0.903921569},"emissiveFactor":[0,0,0],"alphaMode":"BLEND","doubleSided":true},{"name":"mat_5","pbrMetallicRoughness":{"baseColorTexture":{"index":4},"baseColorFactor":[1,1,1,1],"metallicFactor":0,"roughnessFactor":0.903921569},"emissiveFactor":[0,0,0],"alphaMode":"BLEND","doubleSided":true},{"name":"mat_6","pbrMetallicRoughness":{"baseColorTexture":{"index":5},"baseColorFactor":[1,1,1,1],"metallicFactor":0,"roughnessFactor":0.903921569},"emissiveFactor":[0,0,0],"alphaMode":"BLEND","doubleSided":true},{"name":"mat_7","pbrMetallicRoughness":{"baseColorTexture":{"index":6},"baseColorFactor":[1,1,1,1],"metallicFactor":0,"roughnessFactor":0.903921569},"emissiveFactor":[0,0,0],"alphaMode":"BLEND","doubleSided":true}],"meshes":[{"name":"crobat-Mesh","primitives":[{"attributes":{"POSITION":0,"TEXCOORD_0":1},"indices":2,"material":0,"mode":4},{"attributes":{"POSITION":3,"TEXCOORD_0":4},"indices":5,"material":1,"mode":4},{"attributes":{"POSITION":6,"TEXCOORD_0":7},"indices":8,"material":2,"mode":4},{"attributes":{"POSITION":9,"TEXCOORD_0":10},"indices":11,"material":3,"mode":4},{"attributes":{"POSITION":12,"TEXCOORD_0":13},"indices":14,"material":4,"mode":4},{"attributes":{"POSITION":15,"TEXCOORD_0":16},"indices":17,"material":5,"mode":4},{"attributes":{"POSITION":18,"TEXCOORD_0":19},"indices":20,"material":6,"mode":4},{"attributes":{"POSITION":21,"TEXCOORD_0":22},"indices":23,"material":7,"mode":4}]}],"nodes":[{"name":"crobat","mesh":0}],"samplers":[{"wrapS":10497,"wrapT":10497}],"scene":0,"scenes":[{"nodes":[0]}],"textures":[{"name":"crobat_1_0","sampler":0,"source":0},{"name":"crobat_1_1","sampler":0,"source":1},{"name":"crobat_1_3","sampler":0,"source":2},{"name":"crobat_1_4","sampler":0,"source":3},{"name":"crobat_1_5","sampler":0,"source":4},{"name":"crobat_1_6","sampler":0,"source":5},{"name":"crobat_1_7","sampler":0,"source":6}]}