{"accessors":[{"name":"polygon0_1_0_positions","componentType":5126,"count":76,"min":[-0.6770280003547668,1.5417319536209106,0.7926939725875854],"max":[0.6770259737968445,2.098360061645508,1.117493987083435],"type":"VEC3","bufferView":0,"byteOffset":0},{"name":"polygon0_1_0_normals","componentType":5126,"count":76,"min":[-0.7504522204399109,-0.3452709913253784,0.6390848159790039],"max":[0.7504522204399109,0.5332642793655396,0.979421079158783],"type":"VEC3","bufferView":1,"byteOffset":0},{"name":"polygon0_1_0_texcoords","componentType":5126,"count":76,"min":[0.076384998857975,0.03143300116062164],"max":[0.4726260006427765,0.8179320096969604],"type":"VEC2","bufferView":2,"byteOffset":0},{"name":"polygon0_1_0_indices","componentType":5123,"count":324,"min":[0],"max":[75],"type":"SCALAR","bufferView":3,"byteOffset":0},{"name":"polygon1_1_0_positions","componentType":5126,"count":929,"min":[-1.7119990587234497,0.000035000000934815034,-1.253095030784607],"max":[1.711995005607605,3.6747848987579346,1.1519620418548584],"type":"VEC3","bufferView":0,"byteOffset":912},{"name":"polygon1_1_0_normals","componentType":5126,"count":929,"min":[-0.9995333552360535,-0.9999173879623413,-0.9991951584815979],"max":[0.9995333552360535,0.9971041679382324,0.9936587810516357],"type":"VEC3","bufferView":1,"byteOffset":912},{"name":"polygon1_1_0_texcoords","componentType":5126,"count":929,"min":[0.009093999862670898,0.004852000158280134],"max":[0.9870610237121582,0.9831240177154541],"type":"VEC2","bufferView":2,"byteOffset":608},{"name":"polygon1_1_0_indices","componentType":5123,"count":4485,"min":[0],"max":[928],"type":"SCALAR","bufferView":3,"byteOffset":648},{"name":"polygon2_1_0_positions","componentType":5126,"count":12,"min":[-0.1881749927997589,1.2781909704208374,0.8965719938278198],"max":[0.18817199766635895,1.6167609691619873,1.1323219537734985],"type":"VEC3","bufferView":0,"byteOffset":12060},{"name":"polygon2_1_0_normals","componentType":5126,"count":12,"min":[-0.2067919820547104,-0.812299907207489,0.5832399725914001],"max":[0.2067919820547104,-0.19586598873138428,0.9585789442062378],"type":"VEC3","bufferView":1,"byteOffset":12060},{"name":"polygon2_1_0_texcoords","componentType":5126,"count":12,"min":[0.006225999910384417,0.06704699993133545],"max":[0.7564700245857239,0.19305400550365448],"type":"VEC2","bufferView":2,"byteOffset":8040},{"name":"polygon2_1_0_indices","componentType":5123,"count":36,"min":[0],"max":[11],"type":"SCALAR","bufferView":3,"byteOffset":9620}],"asset":{"generator":"obj2gltf","version":"2.0"},"buffers":[{"name":"Pichu","byteLength":386356,"uri":"data:application/octet-stream;base64,"}],"bufferViews":[{"name":"bufferView_0","buffer":0,"byteLength":12204,"byteOffset":0,"byteStride":12,"target":34962},{"name":"bufferView_1","buffer":0,"byteLength":12204,"byteOffset":12204,"byteStride":12,"target":34962},{"name":"bufferView_2","buffer":0,"byteLength":8136,"byteOffset":24408,"byteStride":8,"target":34962},{"name":"bufferView_3","buffer":0,"byteLength":9692,"byteOffset":32544,"target":34963},{"buffer":0,"byteOffset":42236,"byteLength":98322},{"buffer":0,"byteOffset":140558,"byteLength":196626},{"buffer":0,"byteOffset":337184,"byteLength":49170}],"images":[{"name":"PichuEyeDh","mimeType":"image/x-tga","bufferView":4},{"name":"PichuDh","mimeType":"image/x-tga","bufferView":5},{"name":"PichuMouthDh","mimeType":"image/x-tga","bufferView":6}],"materials":[{"name":"mat2","pbrMetallicRoughness":{"baseColorTexture":{"index":0},"baseColorFactor":[1,1,1,1],"metallicFactor":0,"roughnessFactor":0.99},"emissiveFactor":[0,0,0],"alphaMode":"OPAQUE","doubleSided":false},{"name":"mat1","pbrMetallicRoughness":{"baseColorTexture":{"index":1},"baseColorFactor":[1,1,1,1],"metallicFactor":0,"roughnessFactor":0.99},"emissiveFactor":[0,0,0],"alphaMode":"OPAQUE","doubleSided":false},{"name":"mat3","pbrMetallicRoughness":{"baseColorTexture":{"index":2},"baseColorFactor":[1,1,1,1],"metallicFactor":0,"roughnessFactor":0.99},"emissiveFactor":[0,0,0],"alphaMode":"OPAQUE","doubleSided":false}],"meshes":[{"name":"polygon0_1","primitives":[{"attributes":{"POSITION":0,"NORMAL":1,"TEXCOORD_0":2},"indices":3,"material":0,"mode":4}]},{"name":"polygon1_1","primitives":[{"attributes":{"POSITION":4,"NORMAL":5,"TEXCOORD_0":6},"indices":7,"material":1,"mode":4}]},{"name":"polygon2_1","primitives":[{"attributes":{"POSITION":8,"NORMAL":9,"TEXCOORD_0":10},"indices":11,"material":2,"mode":4}]}],"nodes":[{"name":"polygon0","mesh":0},{"name":"polygon1","mesh":1},{"name":"polygon2","mesh":2}],"samplers":[{"wrapS":10497,"wrapT":10497}],"scene":0,"scenes":[{"nodes":[0,1,2]}],"textures":[{"name":"PichuEyeDh","sampler":0,"source":0},{"name":"PichuDh","sampler":0,"source":1},{"name":"PichuMouthDh","sampler":0,"source":2}]}