{"accessors":[{"name":"Pichu_1_0_positions","componentType":5126,"count":162,"min":[-8.359248161315918,12.147480010986328,4.934869766235352],"max":[8.359211921691895,17.922231674194336,9.395149230957031],"type":"VEC3","bufferView":0,"byteOffset":0},{"name":"Pichu_1_0_normals","componentType":5126,"count":162,"min":[0.44023609161376953,-0.7531671524047852,0.29897987842559814],"max":[0.9289690256118774,0.09055797755718231,0.7249031066894531],"type":"VEC3","bufferView":1,"byteOffset":0},{"name":"Pichu_1_0_texcoords","componentType":5126,"count":162,"min":[0.09375,-2.992189884185791],"max":[0.90625,-2.757810115814209],"type":"VEC2","bufferView":2,"byteOffset":0},{"name":"Pichu_1_0_indices","componentType":5123,"count":162,"min":[0],"max":[161],"type":"SCALAR","bufferView":3,"byteOffset":0},{"name":"Pichu_1_1_positions","componentType":5126,"count":10944,"min":[-17.12000274658203,9.999999974752427e-7,-12.553597450256348],"max":[17.1200008392334,36.54790115356445,11.344998359680176],"type":"VEC3","bufferView":0,"byteOffset":1944},{"name":"Pichu_1_1_normals","componentType":5126,"count":10944,"min":[-0.9314861297607422,-0.9973263740539551,-0.9991512894630432],"max":[0.9989356398582458,0.998056173324585,0.9961276054382324],"type":"VEC3","bufferView":1,"byteOffset":1944},{"name":"Pichu_1_1_texcoords","componentType":5126,"count":10944,"min":[0,0.011718999594449997],"max":[1,0.9882810115814209],"type":"VEC2","bufferView":2,"byteOffset":1296},{"name":"Pichu_1_1_indices","componentType":5123,"count":10944,"min":[0],"max":[10943],"type":"SCALAR","bufferView":3,"byteOffset":324},{"name":"Pichu_1_2_positions","componentType":5126,"count":138,"min":[-6.483582973480225,14.571393966674805,8.154956817626953],"max":[6.483537197113037,20.405506134033203,11.215598106384277],"type":"VEC3","bufferView":0,"byteOffset":133272},{"name":"Pichu_1_2_normals","componentType":5126,"count":138,"min":[-0.9800033569335938,-0.9973263740539551,-0.2922300696372986],"max":[0.9289690256118774,0.998056173324585,0.9696078300476074],"type":"VEC3","bufferView":1,"byteOffset":133272},{"name":"Pichu_1_2_texcoords","componentType":5126,"count":138,"min":[0.03125,-0.9921900033950806],"max":[0.46875,-0.7578099966049194],"type":"VEC2","bufferView":2,"byteOffset":88848},{"name":"Pichu_1_2_indices","componentType":5123,"count":138,"min":[0],"max":[137],"type":"SCALAR","bufferView":3,"byteOffset":22212},{"name":"Pichu_1_3_positions","componentType":5126,"count":48,"min":[-1.8116559982299805,12.371299743652344,8.58992862701416],"max":[1.8116240501403809,17.406709671020508,11.344998359680176],"type":"VEC3","bufferView":0,"byteOffset":134928},{"name":"Pichu_1_3_normals","componentType":5126,"count":48,"min":[-0.9417677521705627,-0.9921584129333496,0.005058000795543194],"max":[0.7969651222229004,0.930428683757782,0.9140591025352478],"type":"VEC3","bufferView":1,"byteOffset":134928},{"name":"Pichu_1_3_texcoords","componentType":5126,"count":48,"min":[0.1015629991889,-1.9921900033950806],"max":[0.39844000339508057,-1.7578099966049194],"type":"VEC2","bufferView":2,"byteOffset":89952},{"name":"Pichu_1_3_indices","componentType":5123,"count":48,"min":[0],"max":[47],"type":"SCALAR","bufferView":3,"byteOffset":22488}],"asset":{"generator":"obj2gltf","version":"2.0"},"buffers":[{"name":"XY_Pichu","byteLength":463520,"uri":"data:application/octet-stream;base64,"}],"bufferViews":[{"name":"bufferView_0","buffer":0,"byteLength":135504,"byteOffset":0,"byteStride":12,"target":34962},{"name":"bufferView_1","buffer":0,"byteLength":135504,"byteOffset":135504,"byteStride":12,"target":34962},{"name":"bufferView_2","buffer":0,"byteLength":90336,"byteOffset":271008,"byteStride":8,"target":34962},{"name":"bufferView_3","buffer":0,"byteLength":22584,"byteOffset":361344,"target":34963},{"buffer":0,"byteOffset":383928,"byteLength":13618},{"buffer":0,"byteOffset":397546,"byteLength":29867},{"buffer":0,"byteOffset":427413,"byteLength":28216},{"buffer":0,"byteOffset":455629,"byteLength":7890}],"images":[{"name":"pm0172_00_BodyB1","mimeType":"image/png","bufferView":4},{"name":"pm0172_00_BodyA1","mimeType":"image/png","bufferView":5},{"name":"pm0172_00_Eye1","mimeType":"image/png","bufferView":6},{"name":"pm0172_00_Mouth1","mimeType":"image/png","bufferView":7}],"materials":[{"name":"Material__146","pbrMetallicRoughness":{"baseColorTexture":{"index":0},"baseColorFactor":[1,1,1,1],"metallicFactor":0,"roughnessFactor":0.998},"emissiveFactor":[0,0,0],"alphaMode":"OPAQUE","doubleSided":false},{"name":"Material__147","pbrMetallicRoughness":{"baseColorTexture":{"index":1},"baseColorFactor":[1,1,1,1],"metallicFactor":0,"roughnessFactor":0.998},"emissiveFactor":[0,0,0],"alphaMode":"OPAQUE","doubleSided":false},{"name":"Material__148","pbrMetallicRoughness":{"baseColorTexture":{"index":2},"baseColorFactor":[1,1,1,1],"metallicFactor":0,"roughnessFactor":0.998},"emissiveFactor":[0,0,0],"alphaMode":"OPAQUE","doubleSided":false},{"name":"Material__149","pbrMetallicRoughness":{"baseColorTexture":{"index":3},"baseColorFactor":[1,1,1,1],"metallicFactor":0,"roughnessFactor":0.998},"emissiveFactor":[0,0,0],"alphaMode":"OPAQUE","doubleSided":false}],"meshes":[{"name":"Pichu_1","primitives":[{"attributes":{"POSITION":0,"NORMAL":1,"TEXCOORD_0":2},"indices":3,"material":0,"mode":4},{"attributes":{"POSITION":4,"NORMAL":5,"TEXCOORD_0":6},"indices":7,"material":1,"mode":4},{"attributes":{"POSITION":8,"NORMAL":9,"TEXCOORD_0":10},"indices":11,"material":2,"mode":4},{"attributes":{"POSITION":12,"NORMAL":13,"TEXCOORD_0":14},"indices":15,"material":3,"mode":4}]}],"nodes":[{"name":"Pichu","mesh":0}],"samplers":[{"wrapS":10497,"wrapT":10497}],"scene":0,"scenes":[{"nodes":[0]}],"textures":[{"name":"pm0172_00_BodyB1","sampler":0,"source":0},{"name":"pm0172_00_BodyA1","sampler":0,"source":1},{"name":"pm0172_00_Eye1","sampler":0,"source":2},{"name":"pm0172_00_Mouth1","sampler":0,"source":3}]}