{"accessors":[{"name":"py-Mesh_0_positions","componentType":5126,"count":392,"min":[-1.1764600276947021,-2.019059896469116,-2.929500102996826],"max":[1.1682000160217285,1.1996999979019165,0.023680999875068665],"type":"VEC3","bufferView":0,"byteOffset":0},{"name":"py-Mesh_0_texcoords","componentType":5126,"count":392,"min":[0.1465110033750534,0],"max":[0.8510059714317322,1],"type":"VEC2","bufferView":1,"byteOffset":0},{"name":"py-Mesh_0_indices","componentType":5123,"count":2166,"min":[0],"max":[391],"type":"SCALAR","bufferView":2,"byteOffset":0},{"name":"py-Mesh_1_positions","componentType":5126,"count":5,"min":[-0.552901029586792,0.8815129995346069,-1.867050051689148],"max":[0,1.1398799419403076,-1.3938599824905396],"type":"VEC3","bufferView":0,"byteOffset":4704},{"name":"py-Mesh_1_texcoords","componentType":5126,"count":5,"min":[-1.2638499736785889,-0.024329999461770058],"max":[1.3678200244903564,0.1421159952878952],"type":"VEC2","bufferView":1,"byteOffset":3136},{"name":"py-Mesh_1_indices","componentType":5123,"count":9,"min":[0],"max":[4],"type":"SCALAR","bufferView":2,"byteOffset":4332},{"name":"py-Mesh_2_positions","componentType":5126,"count":12,"min":[-0.6318910121917725,0.8815129995346069,-1.867050051689148],"max":[0.6320120096206665,1.0694999694824219,-1.137779951095581],"type":"VEC3","bufferView":0,"byteOffset":4764},{"name":"py-Mesh_2_texcoords","componentType":5126,"count":12,"min":[-0.1973389983177185,-1.445889949798584],"max":[3.7279200553894043,1.6136850118637085],"type":"VEC2","bufferView":1,"byteOffset":3176},{"name":"py-Mesh_2_indices","componentType":5123,"count":18,"min":[0],"max":[11],"type":"SCALAR","bufferView":2,"byteOffset":4352},{"name":"py-Mesh_3_positions","componentType":5126,"count":5,"min":[0,0.8815129995346069,-1.867050051689148],"max":[0.5529000163078308,1.1398799419403076,-1.3938599824905396],"type":"VEC3","bufferView":0,"byteOffset":4908},{"name":"py-Mesh_3_texcoords","componentType":5126,"count":5,"min":[-0.3132680058479309,-0.02769000083208084],"max":[2.5137500762939453,0.1449359953403473],"type":"VEC2","bufferView":1,"byteOffset":3272},{"name":"py-Mesh_3_indices","componentType":5123,"count":9,"min":[0],"max":[4],"type":"SCALAR","bufferView":2,"byteOffset":4388},{"name":"py-Mesh_4_positions","componentType":5126,"count":9,"min":[-0.642553985118866,0.9532420039176941,-1.3944100141525269],"max":[0.64273601770401,1.1492400169372559,-1.007099986076355],"type":"VEC3","bufferView":0,"byteOffset":4968},{"name":"py-Mesh_4_texcoords","componentType":5126,"count":9,"min":[-0.7376750111579895,0.011323999613523483],"max":[1.7540500164031982,0.1445149928331375],"type":"VEC2","bufferView":1,"byteOffset":3312},{"name":"py-Mesh_4_indices","componentType":5123,"count":24,"min":[0],"max":[8],"type":"SCALAR","bufferView":2,"byteOffset":4408},{"name":"py-Mesh_5_positions","componentType":5126,"count":76,"min":[-1.6640700101852417,-0.5152779817581177,-2.55757999420166],"max":[1.6640700101852417,0.5522040128707886,-1.602929949760437],"type":"VEC3","bufferView":0,"byteOffset":5076},{"name":"py-Mesh_5_texcoords","componentType":5126,"count":76,"min":[0,0],"max":[1,1],"type":"VEC2","bufferView":1,"byteOffset":3384},{"name":"py-Mesh_5_indices","componentType":5123,"count":390,"min":[0],"max":[75],"type":"SCALAR","bufferView":2,"byteOffset":4456}],"asset":{"generator":"obj2gltf","version":"2.0"},"buffers":[{"name":"BR_Cleffa-Shiny01","byteLength":132364,"uri":"data:application/octet-stream;base64,"}],"bufferViews":[{"name":"bufferView_0","buffer":0,"byteLength":5988,"byteOffset":0,"byteStride":12,"target":34962},{"name":"bufferView_1","buffer":0,"byteLength":3992,"byteOffset":5988,"byteStride":8,"target":34962},{"name":"bufferView_2","buffer":0,"byteLength":5236,"byteOffset":9980,"target":34963},{"buffer":0,"byteOffset":15216,"byteLength":274},{"buffer":0,"byteOffset":15490,"byteLength":51218},{"buffer":0,"byteOffset":66708,"byteLength":4114},{"buffer":0,"byteOffset":70822,"byteLength":61458},{"buffer":0,"byteOffset":132280,"byteLength":82}],"images":[{"name":"py_1_0","mimeType":"image/x-tga","bufferView":3},{"name":"py_1_1","mimeType":"image/x-tga","bufferView":4},{"name":"py_1_2","mimeType":"image/x-tga","bufferView":5},{"name":"py_1_4","mimeType":"image/x-tga","bufferView":6},{"name":"py_1_5","mimeType":"image/x-tga","bufferView":7}],"materials":[{"name":"mat_0","pbrMetallicRoughness":{"baseColorTexture":{"index":0},"baseColorFactor":[1,1,1,1],"metallicFactor":0,"roughnessFactor":0.903921569},"emissiveFactor":[0,0,0],"alphaMode":"BLEND","doubleSided":true},{"name":"mat_1","pbrMetallicRoughness":{"baseColorTexture":{"index":1},"baseColorFactor":[1,1,1,1],"metallicFactor":0,"roughnessFactor":0.903921569},"emissiveFactor":[0,0,0],"alphaMode":"BLEND","doubleSided":true},{"name":"mat_2","pbrMetallicRoughness":{"baseColorTexture":{"index":2},"baseColorFactor":[1,1,1,1],"metallicFactor":0,"roughnessFactor":0.903921569},"emissiveFactor":[0,0,0],"alphaMode":"BLEND","doubleSided":true},{"name":"mat_3","pbrMetallicRoughness":{"baseColorTexture":{"index":1},"baseColorFactor":[1,1,1,1],"metallicFactor":0,"roughnessFactor":0.903921569},"emissiveFactor":[0,0,0],"alphaMode":"BLEND","doubleSided":true},{"name":"mat_4","pbrMetallicRoughness":{"baseColorTexture":{"index":3},"baseColorFactor":[1,1,1,1],"metallicFactor":0,"roughnessFactor":0.903921569},"emissiveFactor":[0,0,0],"alphaMode":"BLEND","doubleSided":true},{"name":"mat_5","pbrMetallicRoughness":{"baseColorTexture":{"index":4},"baseColorFactor":[1,1,1,1],"metallicFactor":0,"roughnessFactor":0.903921569},"emissiveFactor":[0,0,0],"alphaMode":"BLEND","doubleSided":true}],"meshes":[{"name":"py-Mesh","primitives":[{"attributes":{"POSITION":0,"TEXCOORD_0":1},"indices":2,"material":0,"mode":4},{"attributes":{"POSITION":3,"TEXCOORD_0":4},"indices":5,"material":1,"mode":4},{"attributes":{"POSITION":6,"TEXCOORD_0":7},"indices":8,"material":2,"mode":4},{"attributes":{"POSITION":9,"TEXCOORD_0":10},"indices":11,"material":3,"mode":4},{"attributes":{"POSITION":12,"TEXCOORD_0":13},"indices":14,"material":4,"mode":4},{"attributes":{"POSITION":15,"TEXCOORD_0":16},"indices":17,"material":5,"mode":4}]}],"nodes":[{"name":"py","mesh":0}],"samplers":[{"wrapS":10497,"wrapT":10497}],"scene":0,"scenes":[{"nodes":[0]}],"textures":[{"name":"py_1_0","sampler":0,"source":0},{"name":"py_1_1","sampler":0,"source":1},{"name":"py_1_2","sampler":0,"source":2},{"name":"py_1_4","sampler":0,"source":3},{"name":"py_1_5","sampler":0,"source":4}]}