{"accessors":[{"name":"pupurin_c-Mesh_0_positions","componentType":5126,"count":374,"min":[-1.2976100444793701,-1.2269560098648071,-3.2318999767303467],"max":[1.2976100444793701,1.2804440259933472,0.016429999843239784],"type":"VEC3","bufferView":0,"byteOffset":0},{"name":"pupurin_c-Mesh_0_texcoords","componentType":5126,"count":374,"min":[0,0],"max":[1,1],"type":"VEC2","bufferView":1,"byteOffset":0},{"name":"pupurin_c-Mesh_0_indices","componentType":5123,"count":2007,"min":[0],"max":[373],"type":"SCALAR","bufferView":2,"byteOffset":0},{"name":"pupurin_c-Mesh_1_positions","componentType":5126,"count":16,"min":[-1.0497900247573853,0.7129849791526794,-1.8534499406814575],"max":[1.0497900247573853,1.3160439729690552,-1.0211800336837769],"type":"VEC3","bufferView":0,"byteOffset":4488},{"name":"pupurin_c-Mesh_1_texcoords","componentType":5126,"count":16,"min":[-0.7286779880523682,-0.07002999633550644],"max":[1.7719800472259521,0.2590309977531433],"type":"VEC2","bufferView":1,"byteOffset":2992},{"name":"pupurin_c-Mesh_1_indices","componentType":5123,"count":48,"min":[0],"max":[15],"type":"SCALAR","bufferView":2,"byteOffset":4016},{"name":"pupurin_c-Mesh_2_positions","componentType":5126,"count":5,"min":[-0.39114201068878174,1.0913039445877075,-1.4373199939727783],"max":[0.39114099740982056,1.3160439729690552,-0.6457809805870056],"type":"VEC3","bufferView":0,"byteOffset":4680},{"name":"pupurin_c-Mesh_2_texcoords","componentType":5126,"count":5,"min":[-0.6422169804573059,-0.046300001442432404],"max":[1.6697700023651123,0.20479300618171692],"type":"VEC2","bufferView":1,"byteOffset":3120},{"name":"pupurin_c-Mesh_2_indices","componentType":5123,"count":9,"min":[0],"max":[4],"type":"SCALAR","bufferView":2,"byteOffset":4112},{"name":"pupurin_c-Mesh_3_positions","componentType":5126,"count":9,"min":[-0.3632180094718933,0.9165970087051392,-2.216870069503784],"max":[0.3632180094718933,1.3160439729690552,-1.4373199939727783],"type":"VEC3","bufferView":0,"byteOffset":4740},{"name":"pupurin_c-Mesh_3_texcoords","componentType":5126,"count":9,"min":[-0.23273299634456635,-0.229980006814003],"max":[1.3002300262451172,1.4853639602661133],"type":"VEC2","bufferView":1,"byteOffset":3160},{"name":"pupurin_c-Mesh_3_indices","componentType":5123,"count":18,"min":[0],"max":[8],"type":"SCALAR","bufferView":2,"byteOffset":4132}],"asset":{"generator":"obj2gltf","version":"2.0"},"buffers":[{"name":"BR_Igglybuff-Shiny01","byteLength":139552,"uri":"data:application/octet-stream;base64,"}],"bufferViews":[{"name":"bufferView_0","buffer":0,"byteLength":4848,"byteOffset":0,"byteStride":12,"target":34962},{"name":"bufferView_1","buffer":0,"byteLength":3232,"byteOffset":4848,"byteStride":8,"target":34962},{"name":"bufferView_2","buffer":0,"byteLength":4168,"byteOffset":8080,"target":34963},{"buffer":0,"byteOffset":12248,"byteLength":274},{"buffer":0,"byteOffset":12522,"byteLength":49170},{"buffer":0,"byteOffset":61692,"byteLength":61458},{"buffer":0,"byteOffset":123150,"byteLength":16402}],"images":[{"name":"pupurin_c_1_0","mimeType":"image/x-tga","bufferView":3},{"name":"pupurin_c_1_1","mimeType":"image/x-tga","bufferView":4},{"name":"pupurin_c_1_2","mimeType":"image/x-tga","bufferView":5},{"name":"pupurin_c_1_3","mimeType":"image/x-tga","bufferView":6}],"materials":[{"name":"mat_0","pbrMetallicRoughness":{"baseColorTexture":{"index":0},"baseColorFactor":[1,1,1,1],"metallicFactor":0,"roughnessFactor":0.903921569},"emissiveFactor":[0,0,0],"alphaMode":"BLEND","doubleSided":true},{"name":"mat_1","pbrMetallicRoughness":{"baseColorTexture":{"index":1},"baseColorFactor":[1,1,1,1],"metallicFactor":0,"roughnessFactor":0.903921569},"emissiveFactor":[0,0,0],"alphaMode":"BLEND","doubleSided":true},{"name":"mat_2","pbrMetallicRoughness":{"baseColorTexture":{"index":2},"baseColorFactor":[1,1,1,1],"metallicFactor":0,"roughnessFactor":0.903921569},"emissiveFactor":[0,0,0],"alphaMode":"BLEND","doubleSided":true},{"name":"mat_3","pbrMetallicRoughness":{"baseColorTexture":{"index":3},"baseColorFactor":[1,1,1,1],"metallicFactor":0,"roughnessFactor":0.903921569},"emissiveFactor":[0,0,0],"alphaMode":"BLEND","doubleSided":true}],"meshes":[{"name":"pupurin_c-Mesh","primitives":[{"attributes":{"POSITION":0,"TEXCOORD_0":1},"indices":2,"material":0,"mode":4},{"attributes":{"POSITION":3,"TEXCOORD_0":4},"indices":5,"material":1,"mode":4},{"attributes":{"POSITION":6,"TEXCOORD_0":7},"indices":8,"material":2,"mode":4},{"attributes":{"POSITION":9,"TEXCOORD_0":10},"indices":11,"material":3,"mode":4}]}],"nodes":[{"name":"pupurin_c","mesh":0}],"samplers":[{"wrapS":10497,"wrapT":10497}],"scene":0,"scenes":[{"nodes":[0]}],"textures":[{"name":"pupurin_c_1_0","sampler":0,"source":0},{"name":"pupurin_c_1_1","sampler":0,"source":1},{"name":"pupurin_c_1_2","sampler":0,"source":2},{"name":"pupurin_c_1_3","sampler":0,"source":3}]}