{"accessors":[{"name":"togepy-Mesh_0_positions","componentType":5126,"count":145,"min":[-1.175279974937439,-1.175279974937439,-1.7900899648666382],"max":[1.175279974937439,1.175279974937439,-0.06996800005435944],"type":"VEC3","bufferView":0,"byteOffset":0},{"name":"togepy-Mesh_0_texcoords","componentType":5126,"count":145,"min":[-0.6645359992980957,-1.1759999990463257],"max":[1.4473199844360352,1.172368049621582],"type":"VEC2","bufferView":1,"byteOffset":0},{"name":"togepy-Mesh_0_indices","componentType":5123,"count":432,"min":[0],"max":[144],"type":"SCALAR","bufferView":2,"byteOffset":0},{"name":"togepy-Mesh_1_positions","componentType":5126,"count":9,"min":[0.43214699625968933,0.43214601278305054,-1.7077399492263794],"max":[1.085819959640503,1.085819959640503,-0.8607860207557678],"type":"VEC3","bufferView":0,"byteOffset":1740},{"name":"togepy-Mesh_1_texcoords","componentType":5126,"count":9,"min":[0.02603599987924099,0.1865050047636032],"max":[1.4266999959945679,2.099250078201294],"type":"VEC2","bufferView":1,"byteOffset":1160},{"name":"togepy-Mesh_1_indices","componentType":5123,"count":27,"min":[0],"max":[8],"type":"SCALAR","bufferView":2,"byteOffset":864},{"name":"togepy-Mesh_2_positions","componentType":5126,"count":26,"min":[-1.0454699993133545,-1.175279974937439,-1.7900899648666382],"max":[0.8310509920120239,1.085819959640503,-0.16748200356960297],"type":"VEC3","bufferView":0,"byteOffset":1848},{"name":"togepy-Mesh_2_texcoords","componentType":5126,"count":26,"min":[-0.8181970119476318,-1.4692100286483765],"max":[1.07437002658844,1.1687990427017212],"type":"VEC2","bufferView":1,"byteOffset":1232},{"name":"togepy-Mesh_2_indices","componentType":5123,"count":69,"min":[0],"max":[25],"type":"SCALAR","bufferView":2,"byteOffset":920},{"name":"togepy-Mesh_3_positions","componentType":5126,"count":5,"min":[-1.0432900190353394,0.43214699625968933,-1.7077399492263794],"max":[-0.43214601278305054,1.0432900190353394,-1.2309999465942383],"type":"VEC3","bufferView":0,"byteOffset":2160},{"name":"togepy-Mesh_3_texcoords","componentType":5126,"count":5,"min":[-0.6369879841804504,-0.15182000398635864],"max":[1.3547699451446533,1.2405699491500854],"type":"VEC2","bufferView":1,"byteOffset":1440},{"name":"togepy-Mesh_3_indices","componentType":5123,"count":12,"min":[0],"max":[4],"type":"SCALAR","bufferView":2,"byteOffset":1060},{"name":"togepy-Mesh_4_positions","componentType":5126,"count":195,"min":[-1.2371000051498413,-1.0638400316238403,-2.795300006866455],"max":[1.2371000051498413,1.0228300094604492,-1.0951999425888062],"type":"VEC3","bufferView":0,"byteOffset":2220},{"name":"togepy-Mesh_4_texcoords","componentType":5126,"count":195,"min":[-0.289216011762619,-0.014030000194907188],"max":[2.114039897918701,0.13272599875926971],"type":"VEC2","bufferView":1,"byteOffset":1480},{"name":"togepy-Mesh_4_indices","componentType":5123,"count":1020,"min":[0],"max":[194],"type":"SCALAR","bufferView":2,"byteOffset":1084},{"name":"togepy-Mesh_5_positions","componentType":5126,"count":4,"min":[-0.3021189868450165,0.9454159736633301,-1.8609100580215454],"max":[0.30212000012397766,1.0228300094604492,-1.6044199466705322],"type":"VEC3","bufferView":0,"byteOffset":4560},{"name":"togepy-Mesh_5_texcoords","componentType":5126,"count":4,"min":[-0.8932120203971863,-0.04780999943614006],"max":[1.8932100534439087,0.2014549970626831],"type":"VEC2","bufferView":1,"byteOffset":3040},{"name":"togepy-Mesh_5_indices","componentType":5123,"count":6,"min":[0],"max":[3],"type":"SCALAR","bufferView":2,"byteOffset":3124},{"name":"togepy-Mesh_6_positions","componentType":5126,"count":58,"min":[-0.7965630292892456,-0.2997559905052185,-0.3194800019264221],"max":[0.7965630292892456,0.23236000537872314,-0.000012999999853491317],"type":"VEC3","bufferView":0,"byteOffset":4608},{"name":"togepy-Mesh_6_texcoords","componentType":5126,"count":58,"min":[-0.30663201212882996,0.022060999646782875],"max":[1.3296400308609009,0.9617949724197388],"type":"VEC2","bufferView":1,"byteOffset":3072},{"name":"togepy-Mesh_6_indices","componentType":5123,"count":222,"min":[0],"max":[57],"type":"SCALAR","bufferView":2,"byteOffset":3136},{"name":"togepy-Mesh_7_positions","componentType":5126,"count":36,"min":[-0.8880749940872192,-0.048962999135255814,-0.30716198682785034],"max":[0.8880749940872192,0.47325998544692993,-0.000012999999853491317],"type":"VEC3","bufferView":0,"byteOffset":5304},{"name":"togepy-Mesh_7_texcoords","componentType":5126,"count":36,"min":[-0.27237001061439514,0],"max":[1.2745000123977661,1],"type":"VEC2","bufferView":1,"byteOffset":3536},{"name":"togepy-Mesh_7_indices","componentType":5123,"count":150,"min":[0],"max":[35],"type":"SCALAR","bufferView":2,"byteOffset":3580}],"asset":{"generator":"obj2gltf","version":"2.0"},"buffers":[{"name":"BR_Togepi-Shiny01","byteLength":100368,"uri":"data:application/octet-stream;base64,"}],"bufferViews":[{"name":"bufferView_0","buffer":0,"byteLength":5736,"byteOffset":0,"byteStride":12,"target":34962},{"name":"bufferView_1","buffer":0,"byteLength":3824,"byteOffset":5736,"byteStride":8,"target":34962},{"name":"bufferView_2","buffer":0,"byteLength":3880,"byteOffset":9560,"target":34963},{"buffer":0,"byteOffset":13440,"byteLength":8082},{"buffer":0,"byteOffset":21522,"byteLength":4114},{"buffer":0,"byteOffset":25636,"byteLength":8082},{"buffer":0,"byteOffset":33718,"byteLength":1042},{"buffer":0,"byteOffset":34760,"byteLength":43026},{"buffer":0,"byteOffset":77786,"byteLength":16402},{"buffer":0,"byteOffset":94188,"byteLength":4114},{"buffer":0,"byteOffset":98302,"byteLength":2066}],"images":[{"name":"togepy_1_0","mimeType":"image/x-tga","bufferView":3},{"name":"togepy_1_1","mimeType":"image/x-tga","bufferView":4},{"name":"togepy_1_2","mimeType":"image/x-tga","bufferView":5},{"name":"togepy_1_3","mimeType":"image/x-tga","bufferView":6},{"name":"togepy_1_4","mimeType":"image/x-tga","bufferView":7},{"name":"togepy_1_5","mimeType":"image/x-tga","bufferView":8},{"name":"togepy_1_6","mimeType":"image/x-tga","bufferView":9},{"name":"togepy_1_7","mimeType":"image/x-tga","bufferView":10}],"materials":[{"name":"mat_0","pbrMetallicRoughness":{"baseColorTexture":{"index":0},"baseColorFactor":[1,1,1,1],"metallicFactor":0,"roughnessFactor":0.903921569},"emissiveFactor":[0,0,0],"alphaMode":"BLEND","doubleSided":true},{"name":"mat_1","pbrMetallicRoughness":{"baseColorTexture":{"index":1},"baseColorFactor":[1,1,1,1],"metallicFactor":0,"roughnessFactor":0.903921569},"emissiveFactor":[0,0,0],"alphaMode":"BLEND","doubleSided":true},{"name":"mat_2","pbrMetallicRoughness":{"baseColorTexture":{"index":2},"baseColorFactor":[1,1,1,1],"metallicFactor":0,"roughnessFactor":0.903921569},"emissiveFactor":[0,0,0],"alphaMode":"BLEND","doubleSided":true},{"name":"mat_3","pbrMetallicRoughness":{"baseColorTexture":{"index":3},"baseColorFactor":[1,1,1,1],"metallicFactor":0,"roughnessFactor":0.903921569},"emissiveFactor":[0,0,0],"alphaMode":"BLEND","doubleSided":true},{"name":"mat_4","pbrMetallicRoughness":{"baseColorTexture":{"index":4},"baseColorFactor":[1,1,1,1],"metallicFactor":0,"roughnessFactor":0.903921569},"emissiveFactor":[0,0,0],"alphaMode":"BLEND","doubleSided":true},{"name":"mat_5","pbrMetallicRoughness":{"baseColorTexture":{"index":5},"baseColorFactor":[1,1,1,1],"metallicFactor":0,"roughnessFactor":0.903921569},"emissiveFactor":[0,0,0],"alphaMode":"BLEND","doubleSided":true},{"name":"mat_6","pbrMetallicRoughness":{"baseColorTexture":{"index":6},"baseColorFactor":[1,1,1,1],"metallicFactor":0,"roughnessFactor":0.903921569},"emissiveFactor":[0,0,0],"alphaMode":"BLEND","doubleSided":true},{"name":"mat_7","pbrMetallicRoughness":{"baseColorTexture":{"index":7},"baseColorFactor":[1,1,1,1],"metallicFactor":0,"roughnessFactor":0.903921569},"emissiveFactor":[0,0,0],"alphaMode":"BLEND","doubleSided":true}],"meshes":[{"name":"togepy-Mesh","primitives":[{"attributes":{"POSITION":0,"TEXCOORD_0":1},"indices":2,"material":0,"mode":4},{"attributes":{"POSITION":3,"TEXCOORD_0":4},"indices":5,"material":1,"mode":4},{"attributes":{"POSITION":6,"TEXCOORD_0":7},"indices":8,"material":2,"mode":4},{"attributes":{"POSITION":9,"TEXCOORD_0":10},"indices":11,"material":3,"mode":4},{"attributes":{"POSITION":12,"TEXCOORD_0":13},"indices":14,"material":4,"mode":4},{"attributes":{"POSITION":15,"TEXCOORD_0":16},"indices":17,"material":5,"mode":4},{"attributes":{"POSITION":18,"TEXCOORD_0":19},"indices":20,"material":6,"mode":4},{"attributes":{"POSITION":21,"TEXCOORD_0":22},"indices":23,"material":7,"mode":4}]}],"nodes":[{"name":"togepy","mesh":0}],"samplers":[{"wrapS":10497,"wrapT":10497}],"scene":0,"scenes":[{"nodes":[0]}],"textures":[{"name":"togepy_1_0","sampler":0,"source":0},{"name":"togepy_1_1","sampler":0,"source":1},{"name":"togepy_1_2","sampler":0,"source":2},{"name":"togepy_1_3","sampler":0,"source":3},{"name":"togepy_1_4","sampler":0,"source":4},{"name":"togepy_1_5","sampler":0,"source":5},{"name":"togepy_1_6","sampler":0,"source":6},{"name":"togepy_1_7","sampler":0,"source":7}]}