{"accessors":[{"name":"togechick-Mesh_0_positions","componentType":5126,"count":723,"min":[-1.231416940689087,-1.2434860467910767,-6.009981155395508],"max":[1.231416940689087,2.4465389251708984,-0.6256539821624756],"type":"VEC3","bufferView":0,"byteOffset":0},{"name":"togechick-Mesh_0_texcoords","componentType":5126,"count":723,"min":[0.11680199950933456,0.13653099536895752],"max":[0.9127770066261292,0.8052970170974731],"type":"VEC2","bufferView":1,"byteOffset":0},{"name":"togechick-Mesh_0_indices","componentType":5123,"count":3756,"min":[0],"max":[722],"type":"SCALAR","bufferView":2,"byteOffset":0},{"name":"togechick-Mesh_1_positions","componentType":5126,"count":20,"min":[-0.4086880087852478,1.994415044784546,-4.00533390045166],"max":[0.4086880087852478,2.3742759227752686,-3.652024030685425],"type":"VEC3","bufferView":0,"byteOffset":8676},{"name":"togechick-Mesh_1_texcoords","componentType":5126,"count":20,"min":[0.0039470000192523,0.10022500157356262],"max":[0.2623539865016937,0.8838319778442383],"type":"VEC2","bufferView":1,"byteOffset":5784},{"name":"togechick-Mesh_1_indices","componentType":5123,"count":72,"min":[0],"max":[19],"type":"SCALAR","bufferView":2,"byteOffset":7512},{"name":"togechick-Mesh_2_positions","componentType":5126,"count":48,"min":[-0.87431800365448,1.7951469421386719,-4.879541873931885],"max":[0.87431800365448,2.420788049697876,-3.926500082015991],"type":"VEC3","bufferView":0,"byteOffset":8916},{"name":"togechick-Mesh_2_texcoords","componentType":5126,"count":48,"min":[0.008476999588310719,0.000514000013936311],"max":[0.9577950239181519,0.1861400008201599],"type":"VEC2","bufferView":1,"byteOffset":5944},{"name":"togechick-Mesh_2_indices","componentType":5123,"count":180,"min":[0],"max":[47],"type":"SCALAR","bufferView":2,"byteOffset":7656}],"asset":{"generator":"obj2gltf","version":"2.0"},"buffers":[{"name":"BR_Togetic-Shiny01","byteLength":1727828,"uri":"data:application/octet-stream;base64,"}],"bufferViews":[{"name":"bufferView_0","buffer":0,"byteLength":9492,"byteOffset":0,"byteStride":12,"target":34962},{"name":"bufferView_1","buffer":0,"byteLength":6328,"byteOffset":9492,"byteStride":8,"target":34962},{"name":"bufferView_2","buffer":0,"byteLength":8016,"byteOffset":15820,"target":34963},{"buffer":0,"byteOffset":23836,"byteLength":1048594},{"buffer":0,"byteOffset":1072430,"byteLength":524306},{"buffer":0,"byteOffset":1596736,"byteLength":131090}],"images":[{"name":"togechick_1_0","mimeType":"image/x-tga","bufferView":3},{"name":"togechick_1_1","mimeType":"image/x-tga","bufferView":4},{"name":"togechick_1_2","mimeType":"image/x-tga","bufferView":5}],"materials":[{"name":"mat_0","pbrMetallicRoughness":{"baseColorTexture":{"index":0},"baseColorFactor":[1,1,1,1],"metallicFactor":0,"roughnessFactor":0.903921569},"emissiveFactor":[0,0,0],"alphaMode":"BLEND","doubleSided":true},{"name":"mat_1","pbrMetallicRoughness":{"baseColorTexture":{"index":1},"baseColorFactor":[1,1,1,1],"metallicFactor":0,"roughnessFactor":0.903921569},"emissiveFactor":[0,0,0],"alphaMode":"BLEND","doubleSided":true},{"name":"mat_2","pbrMetallicRoughness":{"baseColorTexture":{"index":2},"baseColorFactor":[1,1,1,1],"metallicFactor":0,"roughnessFactor":0.903921569},"emissiveFactor":[0,0,0],"alphaMode":"BLEND","doubleSided":true}],"meshes":[{"name":"togechick-Mesh","primitives":[{"attributes":{"POSITION":0,"TEXCOORD_0":1},"indices":2,"material":0,"mode":4},{"attributes":{"POSITION":3,"TEXCOORD_0":4},"indices":5,"material":1,"mode":4},{"attributes":{"POSITION":6,"TEXCOORD_0":7},"indices":8,"material":2,"mode":4}]}],"nodes":[{"name":"togechick","mesh":0}],"samplers":[{"wrapS":10497,"wrapT":10497}],"scene":0,"scenes":[{"nodes":[0]}],"textures":[{"name":"togechick_1_0","sampler":0,"source":0},{"name":"togechick_1_1","sampler":0,"source":1},{"name":"togechick_1_2","sampler":0,"source":2}]}