{"accessors":[{"name":"naty-Mesh_0_positions","componentType":5126,"count":8,"min":[0.33095699548721313,-0.831492006778717,-1.4568610191345215],"max":[0.9291759729385376,0,-1.1292790174484253],"type":"VEC3","bufferView":0,"byteOffset":0},{"name":"naty-Mesh_0_texcoords","componentType":5126,"count":8,"min":[0.15935400128364563,0.025442000478506088],"max":[0.9035660028457642,0.14999499917030334],"type":"VEC2","bufferView":1,"byteOffset":0},{"name":"naty-Mesh_0_indices","componentType":5123,"count":12,"min":[0],"max":[7],"type":"SCALAR","bufferView":2,"byteOffset":0},{"name":"naty-Mesh_1_positions","componentType":5126,"count":36,"min":[-0.9018849730491638,0.2599300146102905,-1.6986459493637085],"max":[0.9018840193748474,0.9246490001678467,-0.7848939895629883],"type":"VEC3","bufferView":0,"byteOffset":96},{"name":"naty-Mesh_1_texcoords","componentType":5126,"count":36,"min":[-0.008999999612569809,-0.08974999934434891],"max":[1.2241400480270386,0.19724999368190765],"type":"VEC2","bufferView":1,"byteOffset":64},{"name":"naty-Mesh_1_indices","componentType":5123,"count":132,"min":[0],"max":[35],"type":"SCALAR","bufferView":2,"byteOffset":24}],"asset":{"generator":"obj2gltf","version":"2.0"},"buffers":[{"name":"BR_Natu-Shiny01","byteLength":66724,"uri":"data:application/octet-stream;base64,"}],"bufferViews":[{"name":"bufferView_0","buffer":0,"byteLength":528,"byteOffset":0,"byteStride":12,"target":34962},{"name":"bufferView_1","buffer":0,"byteLength":352,"byteOffset":528,"byteStride":8,"target":34962},{"name":"bufferView_2","buffer":0,"byteLength":288,"byteOffset":880,"target":34963},{"buffer":0,"byteOffset":1168,"byteLength":65554}],"images":[{"name":"naty_1_0","mimeType":"image/x-tga","bufferView":3}],"materials":[{"name":"mat_0","pbrMetallicRoughness":{"baseColorFactor":[0.8,0.8,0.8,1],"metallicFactor":0,"roughnessFactor":0.903921569},"emissiveFactor":[0,0,0],"alphaMode":"OPAQUE","doubleSided":false},{"name":"mat_2","pbrMetallicRoughness":{"baseColorTexture":{"index":0},"baseColorFactor":[1,1,1,1],"metallicFactor":0,"roughnessFactor":0.903921569},"emissiveFactor":[0,0,0],"alphaMode":"BLEND","doubleSided":true}],"meshes":[{"name":"naty-Mesh","primitives":[{"attributes":{"POSITION":0,"TEXCOORD_0":1},"indices":2,"material":0,"mode":4},{"attributes":{"POSITION":3,"TEXCOORD_0":4},"indices":5,"material":1,"mode":4}]}],"nodes":[{"name":"naty","mesh":0}],"samplers":[{"wrapS":10497,"wrapT":10497}],"scene":0,"scenes":[{"nodes":[0]}],"textures":[{"name":"naty_1_0","sampler":0,"source":0}]}