{"accessors":[{"name":"natio-Mesh_0_positions","componentType":5126,"count":92,"min":[-2.6252009868621826,-2.6385200023651123,-15.105798721313477],"max":[2.651798963546753,2.440119981765747,-9.915719032287598],"type":"VEC3","bufferView":0,"byteOffset":0},{"name":"natio-Mesh_0_texcoords","componentType":5126,"count":92,"min":[0,0],"max":[1,1],"type":"VEC2","bufferView":1,"byteOffset":0},{"name":"natio-Mesh_0_indices","componentType":5123,"count":420,"min":[0],"max":[91],"type":"SCALAR","bufferView":2,"byteOffset":0},{"name":"natio-Mesh_1_positions","componentType":5126,"count":148,"min":[-8.691611289978027,-0.5087209939956665,-16.257400512695312],"max":[8.691609382629395,3.3809900283813477,-1.385519027709961],"type":"VEC3","bufferView":0,"byteOffset":1104},{"name":"natio-Mesh_1_texcoords","componentType":5126,"count":148,"min":[-0.03125,-0.53125],"max":[1,1],"type":"VEC2","bufferView":1,"byteOffset":736},{"name":"natio-Mesh_1_indices","componentType":5123,"count":318,"min":[0],"max":[147],"type":"SCALAR","bufferView":2,"byteOffset":840},{"name":"natio-Mesh_2_positions","componentType":5126,"count":50,"min":[-4.344541072845459,-1.2581299543380737,-10.881098747253418],"max":[4.344539165496826,1.315690040588379,-5.356898784637451],"type":"VEC3","bufferView":0,"byteOffset":2880},{"name":"natio-Mesh_2_texcoords","componentType":5126,"count":50,"min":[-0.234375,-0.32030999660491943],"max":[1.9375,1.0078129768371582],"type":"VEC2","bufferView":1,"byteOffset":1920},{"name":"natio-Mesh_2_indices","componentType":5123,"count":108,"min":[0],"max":[49],"type":"SCALAR","bufferView":2,"byteOffset":1476},{"name":"natio-Mesh_3_positions","componentType":5126,"count":20,"min":[-3.0682311058044434,-3.068229913711548,-4.631759166717529],"max":[3.0682289600372314,2.918060064315796,-1.7231489419937134],"type":"VEC3","bufferView":0,"byteOffset":3480},{"name":"natio-Mesh_3_texcoords","componentType":5126,"count":20,"min":[0.0004879999905824661,-0.27142998576164246],"max":[0.9995120167732239,1.255916953086853],"type":"VEC2","bufferView":1,"byteOffset":2320},{"name":"natio-Mesh_3_indices","componentType":5123,"count":54,"min":[0],"max":[19],"type":"SCALAR","bufferView":2,"byteOffset":1692},{"name":"natio-Mesh_4_positions","componentType":5126,"count":24,"min":[-1.4318209886550903,-1.458840012550354,-10.329700469970703],"max":[1.431818962097168,2.9905800819396973,-1.7231489419937134],"type":"VEC3","bufferView":0,"byteOffset":3720},{"name":"natio-Mesh_4_texcoords","componentType":5126,"count":24,"min":[0.22513499855995178,0],"max":[0.7748649716377258,1],"type":"VEC2","bufferView":1,"byteOffset":2480},{"name":"natio-Mesh_4_indices","componentType":5123,"count":66,"min":[0],"max":[23],"type":"SCALAR","bufferView":2,"byteOffset":1800},{"name":"natio-Mesh_5_positions","componentType":5126,"count":10,"min":[-3.0682311058044434,-3.068229913711548,-3.527488946914673],"max":[3.0682289600372314,2.918060064315796,-1.7231489419937134],"type":"VEC3","bufferView":0,"byteOffset":4008},{"name":"natio-Mesh_5_texcoords","componentType":5126,"count":10,"min":[0.04589900001883507,0.08468200266361237],"max":[0.9541019797325134,0.9221929907798767],"type":"VEC2","bufferView":1,"byteOffset":2672},{"name":"natio-Mesh_5_indices","componentType":5123,"count":24,"min":[0],"max":[9],"type":"SCALAR","bufferView":2,"byteOffset":1932},{"name":"natio-Mesh_6_positions","componentType":5126,"count":23,"min":[-2.9905810356140137,0,-9.54119873046875],"max":[2.9905788898468018,2.9905800819396973,-4.631759166717529],"type":"VEC3","bufferView":0,"byteOffset":4128},{"name":"natio-Mesh_6_texcoords","componentType":5126,"count":23,"min":[-0.3433679938316345,0.0029589999467134476],"max":[0.9900540113449097,1.1640019416809082],"type":"VEC2","bufferView":1,"byteOffset":2752},{"name":"natio-Mesh_6_indices","componentType":5123,"count":78,"min":[0],"max":[22],"type":"SCALAR","bufferView":2,"byteOffset":1980},{"name":"natio-Mesh_7_positions","componentType":5126,"count":20,"min":[-2.9905810356140137,-2.9905800819396973,-9.54119873046875],"max":[2.9905788898468018,0,-4.631759166717529],"type":"VEC3","bufferView":0,"byteOffset":4404},{"name":"natio-Mesh_7_texcoords","componentType":5126,"count":20,"min":[-0.018079999834299088,0.0031250000465661287],"max":[0.9980000257492065,0.9847750067710876],"type":"VEC2","bufferView":1,"byteOffset":2936},{"name":"natio-Mesh_7_indices","componentType":5123,"count":72,"min":[0],"max":[19],"type":"SCALAR","bufferView":2,"byteOffset":2136},{"name":"natio-Mesh_8_positions","componentType":5126,"count":56,"min":[-2.6252009868621826,-1.3192600011825562,-15.105798721313477],"max":[2.651798963546753,2.583280086517334,-2.9647789001464844],"type":"VEC3","bufferView":0,"byteOffset":4644},{"name":"natio-Mesh_8_texcoords","componentType":5126,"count":56,"min":[-0.27930301427841187,-0.03457000106573105],"max":[1.1498299837112427,0.15462499856948853],"type":"VEC2","bufferView":1,"byteOffset":3096},{"name":"natio-Mesh_8_indices","componentType":5123,"count":150,"min":[0],"max":[55],"type":"SCALAR","bufferView":2,"byteOffset":2280},{"name":"natio-Mesh_9_positions","componentType":5126,"count":38,"min":[-0.638139009475708,2.366760015487671,-12.98949909210205],"max":[0.7259330153465271,4.547170162200928,-11.438499450683594],"type":"VEC3","bufferView":0,"byteOffset":5316},{"name":"natio-Mesh_9_texcoords","componentType":5126,"count":38,"min":[0,0],"max":[1,1],"type":"VEC2","bufferView":1,"byteOffset":3544},{"name":"natio-Mesh_9_indices","componentType":5123,"count":186,"min":[0],"max":[37],"type":"SCALAR","bufferView":2,"byteOffset":2580},{"name":"natio-Mesh_10_positions","componentType":5126,"count":34,"min":[-2.264681100845337,-6.399310111999512,-11.07249927520752],"max":[-0.09219600260257721,-1.2098100185394287,-3.539159059524536],"type":"VEC3","bufferView":0,"byteOffset":5772},{"name":"natio-Mesh_10_texcoords","componentType":5126,"count":34,"min":[0,0],"max":[1,1],"type":"VEC2","bufferView":1,"byteOffset":3848},{"name":"natio-Mesh_10_indices","componentType":5123,"count":114,"min":[0],"max":[33],"type":"SCALAR","bufferView":2,"byteOffset":2952},{"name":"natio-Mesh_11_positions","componentType":5126,"count":34,"min":[-0.18197199702262878,-8.193619728088379,-12.017498970031738],"max":[2.4347589015960693,-1.6265300512313843,-4.7818989753723145],"type":"VEC3","bufferView":0,"byteOffset":6180},{"name":"natio-Mesh_11_texcoords","componentType":5126,"count":34,"min":[0,0],"max":[1,1],"type":"VEC2","bufferView":1,"byteOffset":4120},{"name":"natio-Mesh_11_indices","componentType":5123,"count":114,"min":[0],"max":[33],"type":"SCALAR","bufferView":2,"byteOffset":3180},{"name":"natio-Mesh_12_positions","componentType":5126,"count":154,"min":[-2.148030996322632,-2.7330000400543213,-4.74738883972168],"max":[2.148029088973999,3.1917800903320312,0.000007000000096013537],"type":"VEC3","bufferView":0,"byteOffset":6588},{"name":"natio-Mesh_12_texcoords","componentType":5126,"count":154,"min":[-0.33035698533058167,-0.04365000128746033],"max":[1.3169599771499634,0.9683129787445068],"type":"VEC2","bufferView":1,"byteOffset":4392},{"name":"natio-Mesh_12_indices","componentType":5123,"count":426,"min":[0],"max":[153],"type":"SCALAR","bufferView":2,"byteOffset":3408}],"asset":{"generator":"obj2gltf","version":"2.0"},"buffers":[{"name":"BR_Xatu-Shiny01","byteLength":383288,"uri":"data:application/octet-stream;base64,"}],"bufferViews":[{"name":"bufferView_0","buffer":0,"byteLength":8436,"byteOffset":0,"byteStride":12,"target":34962},{"name":"bufferView_1","buffer":0,"byteLength":5624,"byteOffset":8436,"byteStride":8,"target":34962},{"name":"bufferView_2","buffer":0,"byteLength":4260,"byteOffset":14060,"target":34963},{"buffer":0,"byteOffset":18320,"byteLength":82},{"buffer":0,"byteOffset":18402,"byteLength":4114},{"buffer":0,"byteOffset":22516,"byteLength":8210},{"buffer":0,"byteOffset":30726,"byteLength":262162},{"buffer":0,"byteOffset":292888,"byteLength":82},{"buffer":0,"byteOffset":292970,"byteLength":4114},{"buffer":0,"byteOffset":297084,"byteLength":8210},{"buffer":0,"byteOffset":305294,"byteLength":8210},{"buffer":0,"byteOffset":313504,"byteLength":65554},{"buffer":0,"byteOffset":379058,"byteLength":82},{"buffer":0,"byteOffset":379140,"byteLength":34},{"buffer":0,"byteOffset":379174,"byteLength":4114}],"images":[{"name":"natio_1_0","mimeType":"image/x-tga","bufferView":3},{"name":"natio_1_1","mimeType":"image/x-tga","bufferView":4},{"name":"natio_1_2","mimeType":"image/x-tga","bufferView":5},{"name":"natio_1_3","mimeType":"image/x-tga","bufferView":6},{"name":"natio_1_4","mimeType":"image/x-tga","bufferView":7},{"name":"natio_1_5","mimeType":"image/x-tga","bufferView":8},{"name":"natio_1_6","mimeType":"image/x-tga","bufferView":9},{"name":"natio_1_7","mimeType":"image/x-tga","bufferView":10},{"name":"natio_1_8","mimeType":"image/x-tga","bufferView":11},{"name":"natio_1_9","mimeType":"image/x-tga","bufferView":12},{"name":"natio_1_10","mimeType":"image/x-tga","bufferView":13},{"name":"natio_1_12","mimeType":"image/x-tga","bufferView":14}],"materials":[{"name":"mat_0","pbrMetallicRoughness":{"baseColorTexture":{"index":0},"baseColorFactor":[1,1,1,1],"metallicFactor":0,"roughnessFactor":0.903921569},"emissiveFactor":[0,0,0],"alphaMode":"BLEND","doubleSided":true},{"name":"mat_1","pbrMetallicRoughness":{"baseColorTexture":{"index":1},"baseColorFactor":[1,1,1,1],"metallicFactor":0,"roughnessFactor":0.903921569},"emissiveFactor":[0,0,0],"alphaMode":"BLEND","doubleSided":true},{"name":"mat_2","pbrMetallicRoughness":{"baseColorTexture":{"index":2},"baseColorFactor":[1,1,1,1],"metallicFactor":0,"roughnessFactor":0.903921569},"emissiveFactor":[0,0,0],"alphaMode":"BLEND","doubleSided":true},{"name":"mat_3","pbrMetallicRoughness":{"baseColorTexture":{"index":3},"baseColorFactor":[1,1,1,1],"metallicFactor":0,"roughnessFactor":0.903921569},"emissiveFactor":[0,0,0],"alphaMode":"BLEND","doubleSided":true},{"name":"mat_4","pbrMetallicRoughness":{"baseColorTexture":{"index":4},"baseColorFactor":[1,1,1,1],"metallicFactor":0,"roughnessFactor":0.903921569},"emissiveFactor":[0,0,0],"alphaMode":"BLEND","doubleSided":true},{"name":"mat_5","pbrMetallicRoughness":{"baseColorTexture":{"index":5},"baseColorFactor":[1,1,1,1],"metallicFactor":0,"roughnessFactor":0.903921569},"emissiveFactor":[0,0,0],"alphaMode":"BLEND","doubleSided":true},{"name":"mat_6","pbrMetallicRoughness":{"baseColorTexture":{"index":6},"baseColorFactor":[1,1,1,1],"metallicFactor":0,"roughnessFactor":0.903921569},"emissiveFactor":[0,0,0],"alphaMode":"BLEND","doubleSided":true},{"name":"mat_7","pbrMetallicRoughness":{"baseColorTexture":{"index":7},"baseColorFactor":[1,1,1,1],"metallicFactor":0,"roughnessFactor":0.903921569},"emissiveFactor":[0,0,0],"alphaMode":"BLEND","doubleSided":true},{"name":"mat_8","pbrMetallicRoughness":{"baseColorTexture":{"index":8},"baseColorFactor":[1,1,1,1],"metallicFactor":0,"roughnessFactor":0.903921569},"emissiveFactor":[0,0,0],"alphaMode":"BLEND","doubleSided":true},{"name":"mat_9","pbrMetallicRoughness":{"baseColorTexture":{"index":9},"baseColorFactor":[1,1,1,1],"metallicFactor":0,"roughnessFactor":0.903921569},"emissiveFactor":[0,0,0],"alphaMode":"BLEND","doubleSided":true},{"name":"mat_10","pbrMetallicRoughness":{"baseColorTexture":{"index":10},"baseColorFactor":[1,1,1,1],"metallicFactor":0,"roughnessFactor":0.903921569},"emissiveFactor":[0,0,0],"alphaMode":"BLEND","doubleSided":true},{"name":"mat_11","pbrMetallicRoughness":{"baseColorTexture":{"index":10},"baseColorFactor":[1,1,1,1],"metallicFactor":0,"roughnessFactor":0.903921569},"emissiveFactor":[0,0,0],"alphaMode":"BLEND","doubleSided":true},{"name":"mat_12","pbrMetallicRoughness":{"baseColorTexture":{"index":11},"baseColorFactor":[1,1,1,1],"metallicFactor":0,"roughnessFactor":0.903921569},"emissiveFactor":[0,0,0],"alphaMode":"BLEND","doubleSided":true}],"meshes":[{"name":"natio-Mesh","primitives":[{"attributes":{"POSITION":0,"TEXCOORD_0":1},"indices":2,"material":0,"mode":4},{"attributes":{"POSITION":3,"TEXCOORD_0":4},"indices":5,"material":1,"mode":4},{"attributes":{"POSITION":6,"TEXCOORD_0":7},"indices":8,"material":2,"mode":4},{"attributes":{"POSITION":9,"TEXCOORD_0":10},"indices":11,"material":3,"mode":4},{"attributes":{"POSITION":12,"TEXCOORD_0":13},"indices":14,"material":4,"mode":4},{"attributes":{"POSITION":15,"TEXCOORD_0":16},"indices":17,"material":5,"mode":4},{"attributes":{"POSITION":18,"TEXCOORD_0":19},"indices":20,"material":6,"mode":4},{"attributes":{"POSITION":21,"TEXCOORD_0":22},"indices":23,"material":7,"mode":4},{"attributes":{"POSITION":24,"TEXCOORD_0":25},"indices":26,"material":8,"mode":4},{"attributes":{"POSITION":27,"TEXCOORD_0":28},"indices":29,"material":9,"mode":4},{"attributes":{"POSITION":30,"TEXCOORD_0":31},"indices":32,"material":10,"mode":4},{"attributes":{"POSITION":33,"TEXCOORD_0":34},"indices":35,"material":11,"mode":4},{"attributes":{"POSITION":36,"TEXCOORD_0":37},"indices":38,"material":12,"mode":4}]}],"nodes":[{"name":"natio","mesh":0}],"samplers":[{"wrapS":10497,"wrapT":10497}],"scene":0,"scenes":[{"nodes":[0]}],"textures":[{"name":"natio_1_0","sampler":0,"source":0},{"name":"natio_1_1","sampler":0,"source":1},{"name":"natio_1_2","sampler":0,"source":2},{"name":"natio_1_3","sampler":0,"source":3},{"name":"natio_1_4","sampler":0,"source":4},{"name":"natio_1_5","sampler":0,"source":5},{"name":"natio_1_6","sampler":0,"source":6},{"name":"natio_1_7","sampler":0,"source":7},{"name":"natio_1_8","sampler":0,"source":8},{"name":"natio_1_9","sampler":0,"source":9},{"name":"natio_1_10","sampler":0,"source":10},{"name":"natio_1_12","sampler":0,"source":11}]}