{"accessors":[{"name":"polygon0_1_0_positions","componentType":5126,"count":14,"min":[-0.8234429955482483,2.9823720455169678,3.729449987411499],"max":[0.8234429955482483,3.673387050628662,4.151772975921631],"type":"VEC3","bufferView":0,"byteOffset":0},{"name":"polygon0_1_0_normals","componentType":5126,"count":14,"min":[-0.9164712429046631,-0.15124695003032684,0.3827020823955536],"max":[0.9164712429046631,0.3887979984283447,0.9234210252761841],"type":"VEC3","bufferView":1,"byteOffset":0},{"name":"polygon0_1_0_texcoords","componentType":5126,"count":14,"min":[0.05767799913883209,-0.034088000655174255],"max":[0.4288330078125,0.22015400230884552],"type":"VEC2","bufferView":2,"byteOffset":0},{"name":"polygon0_1_0_indices","componentType":5123,"count":36,"min":[0],"max":[13],"type":"SCALAR","bufferView":3,"byteOffset":0},{"name":"polygon1_1_0_positions","componentType":5126,"count":763,"min":[-2.6820340156555176,-0.018554000183939934,-2.873784065246582],"max":[2.6820340156555176,6.0569939613342285,4.332984924316406],"type":"VEC3","bufferView":0,"byteOffset":168},{"name":"polygon1_1_0_normals","componentType":5126,"count":763,"min":[-0.9989433288574219,-0.9998988509178162,-0.9998422265052795],"max":[0.9989433288574219,0.9974905252456665,0.998971164226532],"type":"VEC3","bufferView":1,"byteOffset":168},{"name":"polygon1_1_0_texcoords","componentType":5126,"count":763,"min":[0.0038759999442845583,0.010161999613046646],"max":[0.9971920251846313,0.9918519854545593],"type":"VEC2","bufferView":2,"byteOffset":112},{"name":"polygon1_1_0_indices","componentType":5123,"count":4116,"min":[0],"max":[762],"type":"SCALAR","bufferView":3,"byteOffset":72},{"name":"polygon2_1_0_positions","componentType":5126,"count":9,"min":[-0.4440529942512512,2.0318479537963867,3.019521951675415],"max":[0.4440529942512512,2.338231086730957,3.826749086380005],"type":"VEC3","bufferView":0,"byteOffset":9324},{"name":"polygon2_1_0_normals","componentType":5126,"count":9,"min":[-0.6053580045700073,-0.9998988509178162,-0.39899587631225586],"max":[0.6053580045700073,-0.7392720580101013,0.11682499945163727],"type":"VEC3","bufferView":1,"byteOffset":9324},{"name":"polygon2_1_0_texcoords","componentType":5126,"count":9,"min":[0.13641400635242462,-0.04718000069260597],"max":[1.0946660041809082,0.22375500202178955],"type":"VEC2","bufferView":2,"byteOffset":6216},{"name":"polygon2_1_0_indices","componentType":5123,"count":24,"min":[0],"max":[8],"type":"SCALAR","bufferView":3,"byteOffset":8304},{"name":"polygon3_1_0_positions","componentType":5126,"count":174,"min":[-1.9480129480361938,2.264915943145752,-7.300477981567383],"max":[1.9480129480361938,4.390414237976074,3.614978075027466],"type":"VEC3","bufferView":0,"byteOffset":9432},{"name":"polygon3_1_0_normals","componentType":5126,"count":174,"min":[-1,-1,-1],"max":[1,1,1],"type":"VEC3","bufferView":1,"byteOffset":9432},{"name":"polygon3_1_0_texcoords","componentType":5126,"count":174,"min":[0.0057680001482367516,0.3510439991950989],"max":[0.4020389914512634,0.9870910048484802],"type":"VEC2","bufferView":2,"byteOffset":6288},{"name":"polygon3_1_0_indices","componentType":5123,"count":816,"min":[0],"max":[173],"type":"SCALAR","bufferView":3,"byteOffset":8352}],"asset":{"generator":"obj2gltf","version":"2.0"},"buffers":[{"name":"Mareep","byteLength":384824,"uri":"data:application/octet-stream;base64,"}],"bufferViews":[{"name":"bufferView_0","buffer":0,"byteLength":11520,"byteOffset":0,"byteStride":12,"target":34962},{"name":"bufferView_1","buffer":0,"byteLength":11520,"byteOffset":11520,"byteStride":12,"target":34962},{"name":"bufferView_2","buffer":0,"byteLength":7680,"byteOffset":23040,"byteStride":8,"target":34962},{"name":"bufferView_3","buffer":0,"byteLength":9984,"byteOffset":30720,"target":34963},{"buffer":0,"byteOffset":40704,"byteLength":98322},{"buffer":0,"byteOffset":139026,"byteLength":196626},{"buffer":0,"byteOffset":335652,"byteLength":49170}],"images":[{"name":"MerriepEyeDh","mimeType":"image/x-tga","bufferView":4},{"name":"MerriepDh","mimeType":"image/x-tga","bufferView":5},{"name":"MerriepMouthDh","mimeType":"image/x-tga","bufferView":6}],"materials":[{"name":"mat3","pbrMetallicRoughness":{"baseColorTexture":{"index":0},"baseColorFactor":[1,1,1,1],"metallicFactor":0,"roughnessFactor":0.99},"emissiveFactor":[0,0,0],"alphaMode":"OPAQUE","doubleSided":false},{"name":"mat1","pbrMetallicRoughness":{"baseColorTexture":{"index":1},"baseColorFactor":[1,1,1,1],"metallicFactor":0,"roughnessFactor":0.99},"emissiveFactor":[0,0,0],"alphaMode":"OPAQUE","doubleSided":false},{"name":"mat4","pbrMetallicRoughness":{"baseColorTexture":{"index":2},"baseColorFactor":[1,1,1,1],"metallicFactor":0,"roughnessFactor":0.99},"emissiveFactor":[0,0,0],"alphaMode":"OPAQUE","doubleSided":false},{"name":"mat2","pbrMetallicRoughness":{"baseColorTexture":{"index":1},"baseColorFactor":[1,1,1,1],"metallicFactor":0,"roughnessFactor":0.99},"emissiveFactor":[0,0,0],"alphaMode":"OPAQUE","doubleSided":false}],"meshes":[{"name":"polygon0_1","primitives":[{"attributes":{"POSITION":0,"NORMAL":1,"TEXCOORD_0":2},"indices":3,"material":0,"mode":4}]},{"name":"polygon1_1","primitives":[{"attributes":{"POSITION":4,"NORMAL":5,"TEXCOORD_0":6},"indices":7,"material":1,"mode":4}]},{"name":"polygon2_1","primitives":[{"attributes":{"POSITION":8,"NORMAL":9,"TEXCOORD_0":10},"indices":11,"material":2,"mode":4}]},{"name":"polygon3_1","primitives":[{"attributes":{"POSITION":12,"NORMAL":13,"TEXCOORD_0":14},"indices":15,"material":3,"mode":4}]}],"nodes":[{"name":"polygon0","mesh":0},{"name":"polygon1","mesh":1},{"name":"polygon2","mesh":2},{"name":"polygon3","mesh":3}],"samplers":[{"wrapS":10497,"wrapT":10497}],"scene":0,"scenes":[{"nodes":[0,1,2,3]}],"textures":[{"name":"MerriepEyeDh","sampler":0,"source":0},{"name":"MerriepDh","sampler":0,"source":1},{"name":"MerriepMouthDh","sampler":0,"source":2}]}