{"accessors":[{"name":"mokoko-Mesh_0_positions","componentType":5126,"count":7,"min":[-0.8318449854850769,-0.1813029944896698,-6.60984992980957],"max":[0.831836998462677,1.3175499439239502,-4.434120178222656],"type":"VEC3","bufferView":0,"byteOffset":0},{"name":"mokoko-Mesh_0_texcoords","componentType":5126,"count":7,"min":[0.07380799949169159,0.031252000480890274],"max":[0.6162409782409668,0.5649570226669312],"type":"VEC2","bufferView":1,"byteOffset":0},{"name":"mokoko-Mesh_0_indices","componentType":5123,"count":9,"min":[0],"max":[6],"type":"SCALAR","bufferView":2,"byteOffset":0},{"name":"mokoko-Mesh_1_positions","componentType":5126,"count":42,"min":[-1.4956899881362915,-1.0084999799728394,-6.790450096130371],"max":[1.4956799745559692,1.1496100425720215,-4.316830158233643],"type":"VEC3","bufferView":0,"byteOffset":84},{"name":"mokoko-Mesh_1_texcoords","componentType":5126,"count":42,"min":[0,0],"max":[0.96875,0.9687489867210388],"type":"VEC2","bufferView":1,"byteOffset":56},{"name":"mokoko-Mesh_1_indices","componentType":5123,"count":126,"min":[0],"max":[41],"type":"SCALAR","bufferView":2,"byteOffset":20},{"name":"mokoko-Mesh_2_positions","componentType":5126,"count":27,"min":[-2.036530017852783,-1.7640899419784546,-4.725880146026611],"max":[2.036520004272461,1.2649799585342407,-2.0333399772644043],"type":"VEC3","bufferView":0,"byteOffset":588},{"name":"mokoko-Mesh_2_texcoords","componentType":5126,"count":27,"min":[0,0.02649099938571453],"max":[0.984375,1.4285709857940674],"type":"VEC2","bufferView":1,"byteOffset":392},{"name":"mokoko-Mesh_2_indices","componentType":5123,"count":111,"min":[0],"max":[26],"type":"SCALAR","bufferView":2,"byteOffset":272},{"name":"mokoko-Mesh_3_positions","componentType":5126,"count":62,"min":[-1.3080400228500366,-2.2846100330352783,-6.9905900955200195],"max":[1.3080300092697144,2.323080062866211,-2.0333399772644043],"type":"VEC3","bufferView":0,"byteOffset":912},{"name":"mokoko-Mesh_3_texcoords","componentType":5126,"count":62,"min":[0.03125,0.03125099837779999],"max":[1,1.3348890542984009],"type":"VEC2","bufferView":1,"byteOffset":608},{"name":"mokoko-Mesh_3_indices","componentType":5123,"count":156,"min":[0],"max":[61],"type":"SCALAR","bufferView":2,"byteOffset":496},{"name":"mokoko-Mesh_4_positions","componentType":5126,"count":56,"min":[-1.4947500228881836,0.3848080039024353,-6.700419902801514],"max":[1.4947400093078613,2.4504799842834473,-4.316830158233643],"type":"VEC3","bufferView":0,"byteOffset":1656},{"name":"mokoko-Mesh_4_texcoords","componentType":5126,"count":56,"min":[0.015625,-0.11095999926328659],"max":[0.9843739867210388,1.00101900100708],"type":"VEC2","bufferView":1,"byteOffset":1104},{"name":"mokoko-Mesh_4_indices","componentType":5123,"count":261,"min":[0],"max":[55],"type":"SCALAR","bufferView":2,"byteOffset":808},{"name":"mokoko-Mesh_5_positions","componentType":5126,"count":76,"min":[-2.0572099685668945,0.0563340000808239,-5.90185022354126],"max":[2.0571999549865723,1.50941002368927,-4.434120178222656],"type":"VEC3","bufferView":0,"byteOffset":2328},{"name":"mokoko-Mesh_5_texcoords","componentType":5126,"count":76,"min":[0,0],"max":[0.859375,1],"type":"VEC2","bufferView":1,"byteOffset":1552},{"name":"mokoko-Mesh_5_indices","componentType":5123,"count":336,"min":[0],"max":[75],"type":"SCALAR","bufferView":2,"byteOffset":1332},{"name":"mokoko-Mesh_6_positions","componentType":5126,"count":28,"min":[-0.5374500155448914,-4.678750038146973,-2.25423002243042],"max":[0.5374529957771301,-2.368419885635376,0.11934400349855423],"type":"VEC3","bufferView":0,"byteOffset":3240},{"name":"mokoko-Mesh_6_texcoords","componentType":5126,"count":28,"min":[-0.0391170009970665,0.2644999921321869],"max":[0.789592981338501,0.7178990244865417],"type":"VEC2","bufferView":1,"byteOffset":2160},{"name":"mokoko-Mesh_6_indices","componentType":5123,"count":135,"min":[0],"max":[27],"type":"SCALAR","bufferView":2,"byteOffset":2004},{"name":"mokoko-Mesh_7_positions","componentType":5126,"count":114,"min":[-0.625,-5.407690048217773,-2.979530096054077],"max":[0.625,-4.165999889373779,-1.7378400564193726],"type":"VEC3","bufferView":0,"byteOffset":3576},{"name":"mokoko-Mesh_7_texcoords","componentType":5126,"count":114,"min":[1.2486300468444824,-0.4147599935531616],"max":[1.2486300468444824,1.414762020111084],"type":"VEC2","bufferView":1,"byteOffset":2384},{"name":"mokoko-Mesh_7_indices","componentType":5123,"count":336,"min":[0],"max":[113],"type":"SCALAR","bufferView":2,"byteOffset":2276},{"name":"mokoko-Mesh_8_positions","componentType":5126,"count":222,"min":[-2.37076997756958,-1.961609959602356,-4.2169599533081055],"max":[2.37076997756958,1.5321799516677856,-0.006444000173360109],"type":"VEC3","bufferView":0,"byteOffset":4944},{"name":"mokoko-Mesh_8_texcoords","componentType":5126,"count":222,"min":[-0.12442100048065186,0.13955000042915344],"max":[0.4681349992752075,0.7134069800376892],"type":"VEC2","bufferView":1,"byteOffset":3296},{"name":"mokoko-Mesh_8_indices","componentType":5123,"count":1089,"min":[0],"max":[221],"type":"SCALAR","bufferView":2,"byteOffset":2948},{"name":"mokoko-Mesh_9_positions","componentType":5126,"count":35,"min":[-0.6702589988708496,-2.6776199340820312,-1.1534099578857422],"max":[0.6702629923820496,-0.6314039826393127,0.2037310004234314],"type":"VEC3","bufferView":0,"byteOffset":7608},{"name":"mokoko-Mesh_9_texcoords","componentType":5126,"count":35,"min":[0.7459200024604797,0.35863998532295227],"max":[1.250480055809021,0.6413589715957642],"type":"VEC2","bufferView":1,"byteOffset":5072},{"name":"mokoko-Mesh_9_indices","componentType":5123,"count":156,"min":[0],"max":[34],"type":"SCALAR","bufferView":2,"byteOffset":5128}],"asset":{"generator":"obj2gltf","version":"2.0"},"buffers":[{"name":"BR_Flaaffy-Shiny01","byteLength":101140,"uri":"data:application/octet-stream;base64,"}],"bufferViews":[{"name":"bufferView_0","buffer":0,"byteLength":8028,"byteOffset":0,"byteStride":12,"target":34962},{"name":"bufferView_1","buffer":0,"byteLength":5352,"byteOffset":8028,"byteStride":8,"target":34962},{"name":"bufferView_2","buffer":0,"byteLength":5440,"byteOffset":13380,"target":34963},{"buffer":0,"byteOffset":18820,"byteLength":8210},{"buffer":0,"byteOffset":27030,"byteLength":8210},{"buffer":0,"byteOffset":35240,"byteLength":4114},{"buffer":0,"byteOffset":39354,"byteLength":16402},{"buffer":0,"byteOffset":55756,"byteLength":8210},{"buffer":0,"byteOffset":63966,"byteLength":32786},{"buffer":0,"byteOffset":96752,"byteLength":274},{"buffer":0,"byteOffset":97026,"byteLength":4114}],"images":[{"name":"mokoko_1_0","mimeType":"image/x-tga","bufferView":3},{"name":"mokoko_1_1","mimeType":"image/x-tga","bufferView":4},{"name":"mokoko_1_2","mimeType":"image/x-tga","bufferView":5},{"name":"mokoko_1_3","mimeType":"image/x-tga","bufferView":6},{"name":"mokoko_1_4","mimeType":"image/x-tga","bufferView":7},{"name":"mokoko_1_5","mimeType":"image/x-tga","bufferView":8},{"name":"mokoko_1_6","mimeType":"image/x-tga","bufferView":9},{"name":"mokoko_1_8","mimeType":"image/x-tga","bufferView":10}],"materials":[{"name":"mat_0","pbrMetallicRoughness":{"baseColorFactor":[0.8,0.8,0.8,1],"metallicFactor":0,"roughnessFactor":0.903921569},"emissiveFactor":[0,0,0],"alphaMode":"OPAQUE","doubleSided":false},{"name":"mat_1","pbrMetallicRoughness":{"baseColorTexture":{"index":0},"baseColorFactor":[1,1,1,1],"metallicFactor":0,"roughnessFactor":0.903921569},"emissiveFactor":[0,0,0],"alphaMode":"BLEND","doubleSided":true},{"name":"mat_2","pbrMetallicRoughness":{"baseColorTexture":{"index":1},"baseColorFactor":[1,1,1,1],"metallicFactor":0,"roughnessFactor":0.903921569},"emissiveFactor":[0,0,0],"alphaMode":"BLEND","doubleSided":true},{"name":"mat_3","pbrMetallicRoughness":{"baseColorTexture":{"index":2},"baseColorFactor":[1,1,1,1],"metallicFactor":0,"roughnessFactor":0.903921569},"emissiveFactor":[0,0,0],"alphaMode":"BLEND","doubleSided":true},{"name":"mat_4","pbrMetallicRoughness":{"baseColorTexture":{"index":3},"baseColorFactor":[1,1,1,1],"metallicFactor":0,"roughnessFactor":0.903921569},"emissiveFactor":[0,0,0],"alphaMode":"BLEND","doubleSided":true},{"name":"mat_5","pbrMetallicRoughness":{"baseColorTexture":{"index":4},"baseColorFactor":[1,1,1,1],"metallicFactor":0,"roughnessFactor":0.903921569},"emissiveFactor":[0,0,0],"alphaMode":"BLEND","doubleSided":true},{"name":"mat_6","pbrMetallicRoughness":{"baseColorTexture":{"index":5},"baseColorFactor":[1,1,1,1],"metallicFactor":0,"roughnessFactor":0.903921569},"emissiveFactor":[0,0,0],"alphaMode":"BLEND","doubleSided":true},{"name":"mat_7","pbrMetallicRoughness":{"baseColorTexture":{"index":6},"baseColorFactor":[1,1,1,1],"metallicFactor":0,"roughnessFactor":0.903921569},"emissiveFactor":[0,0,0],"alphaMode":"BLEND","doubleSided":true},{"name":"mat_8","pbrMetallicRoughness":{"baseColorTexture":{"index":7},"baseColorFactor":[1,1,1,1],"metallicFactor":0,"roughnessFactor":0.903921569},"emissiveFactor":[0,0,0],"alphaMode":"BLEND","doubleSided":true},{"name":"mat_9","pbrMetallicRoughness":{"baseColorTexture":{"index":5},"baseColorFactor":[1,1,1,1],"metallicFactor":0,"roughnessFactor":0.903921569},"emissiveFactor":[0,0,0],"alphaMode":"BLEND","doubleSided":true}],"meshes":[{"name":"mokoko-Mesh","primitives":[{"attributes":{"POSITION":0,"TEXCOORD_0":1},"indices":2,"material":0,"mode":4},{"attributes":{"POSITION":3,"TEXCOORD_0":4},"indices":5,"material":1,"mode":4},{"attributes":{"POSITION":6,"TEXCOORD_0":7},"indices":8,"material":2,"mode":4},{"attributes":{"POSITION":9,"TEXCOORD_0":10},"indices":11,"material":3,"mode":4},{"attributes":{"POSITION":12,"TEXCOORD_0":13},"indices":14,"material":4,"mode":4},{"attributes":{"POSITION":15,"TEXCOORD_0":16},"indices":17,"material":5,"mode":4},{"attributes":{"POSITION":18,"TEXCOORD_0":19},"indices":20,"material":6,"mode":4},{"attributes":{"POSITION":21,"TEXCOORD_0":22},"indices":23,"material":7,"mode":4},{"attributes":{"POSITION":24,"TEXCOORD_0":25},"indices":26,"material":8,"mode":4},{"attributes":{"POSITION":27,"TEXCOORD_0":28},"indices":29,"material":9,"mode":4}]}],"nodes":[{"name":"mokoko","mesh":0}],"samplers":[{"wrapS":10497,"wrapT":10497}],"scene":0,"scenes":[{"nodes":[0]}],"textures":[{"name":"mokoko_1_0","sampler":0,"source":0},{"name":"mokoko_1_1","sampler":0,"source":1},{"name":"mokoko_1_2","sampler":0,"source":2},{"name":"mokoko_1_3","sampler":0,"source":3},{"name":"mokoko_1_4","sampler":0,"source":4},{"name":"mokoko_1_5","sampler":0,"source":5},{"name":"mokoko_1_6","sampler":0,"source":6},{"name":"mokoko_1_8","sampler":0,"source":7}]}