{"accessors":[{"name":"denryu-Mesh_0_positions","componentType":5126,"count":22,"min":[-0.7044550180435181,-0.0880960002541542,-1],"max":[0.8134440183639526,0.6163809895515442,0.704459011554718],"type":"VEC3","bufferView":0,"byteOffset":0},{"name":"denryu-Mesh_0_texcoords","componentType":5126,"count":22,"min":[0,1],"max":[0,1],"type":"VEC2","bufferView":1,"byteOffset":0},{"name":"denryu-Mesh_0_indices","componentType":5123,"count":90,"min":[0],"max":[21],"type":"SCALAR","bufferView":2,"byteOffset":0}],"asset":{"generator":"obj2gltf","version":"2.0"},"buffers":[{"name":"BR_Ampharos-Shiny01","byteLength":4736,"uri":"data:application/octet-stream;base64,"}],"bufferViews":[{"name":"bufferView_0","buffer":0,"byteLength":264,"byteOffset":0,"byteStride":12,"target":34962},{"name":"bufferView_1","buffer":0,"byteLength":176,"byteOffset":264,"byteStride":8,"target":34962},{"name":"bufferView_2","buffer":0,"byteLength":180,"byteOffset":440,"target":34963},{"buffer":0,"byteOffset":620,"byteLength":4114}],"images":[{"name":"denryu_1_0","mimeType":"image/x-tga","bufferView":3}],"materials":[{"name":"mat_0","pbrMetallicRoughness":{"baseColorTexture":{"index":0},"baseColorFactor":[1,1,1,1],"metallicFactor":0,"roughnessFactor":0.903921569},"emissiveFactor":[0,0,0],"alphaMode":"BLEND","doubleSided":true}],"meshes":[{"name":"denryu-Mesh","primitives":[{"attributes":{"POSITION":0,"TEXCOORD_0":1},"indices":2,"material":0,"mode":4}]}],"nodes":[{"name":"denryu","mesh":0}],"samplers":[{"wrapS":10497,"wrapT":10497}],"scene":0,"scenes":[{"nodes":[0]}],"textures":[{"name":"denryu_1_0","sampler":0,"source":0}]}