{"accessors":[{"name":"polygon0_1_0_positions","componentType":5126,"count":18,"min":[-0.5903019905090332,2.4998490810394287,0.5683649778366089],"max":[0.5903019905090332,3.063978910446167,0.890379011631012],"type":"VEC3","bufferView":0,"byteOffset":0},{"name":"polygon0_1_0_normals","componentType":5126,"count":18,"min":[-0.74407559633255,-0.26757991313934326,0.6653406620025635],"max":[0.74407559633255,0.06060796603560448,0.9642314910888672],"type":"VEC3","bufferView":1,"byteOffset":0},{"name":"polygon0_1_0_texcoords","componentType":5126,"count":18,"min":[-0.9706419706344604,0.005309999920427799],"max":[-0.5667719841003418,0.24298100173473358],"type":"VEC2","bufferView":2,"byteOffset":0},{"name":"polygon0_1_0_indices","componentType":5123,"count":48,"min":[0],"max":[17],"type":"SCALAR","bufferView":3,"byteOffset":0},{"name":"polygon1_1_0_positions","componentType":5126,"count":6,"min":[-0.23374900221824646,2.4967539310455322,0.7292060256004333],"max":[0.23374800384044647,2.8051209449768066,0.8831040263175964],"type":"VEC3","bufferView":0,"byteOffset":216},{"name":"polygon1_1_0_normals","componentType":5126,"count":6,"min":[-0.3069479167461395,-0.29748907685279846,0.9133366942405701],"max":[0.3069479167461395,-0.2025090754032135,0.979280412197113],"type":"VEC3","bufferView":1,"byteOffset":216},{"name":"polygon1_1_0_texcoords","componentType":5126,"count":6,"min":[-0.4849550127983093,0.04208400100469589],"max":[-0.12304700165987015,0.1735839992761612],"type":"VEC2","bufferView":2,"byteOffset":144},{"name":"polygon1_1_0_indices","componentType":5123,"count":12,"min":[0],"max":[5],"type":"SCALAR","bufferView":3,"byteOffset":96},{"name":"polygon2_1_0_positions","componentType":5126,"count":1080,"min":[-2.0659360885620117,-0.05404999852180481,-1.393908977508545],"max":[2.065934896469116,4.250393867492676,1.393908977508545],"type":"VEC3","bufferView":0,"byteOffset":288},{"name":"polygon2_1_0_normals","componentType":5126,"count":1080,"min":[-0.9932653307914734,-0.9999997615814209,-0.9991734027862549],"max":[0.9932653307914734,0.9999852180480957,0.9991734027862549],"type":"VEC3","bufferView":1,"byteOffset":288},{"name":"polygon2_1_0_texcoords","componentType":5126,"count":1080,"min":[0.013275000266730785,0.014922999776899815],"max":[0.9896240234375,0.9927369952201843],"type":"VEC2","bufferView":2,"byteOffset":192},{"name":"polygon2_1_0_indices","componentType":5123,"count":4452,"min":[0],"max":[1079],"type":"SCALAR","bufferView":3,"byteOffset":120}],"asset":{"generator":"obj2gltf","version":"2.0"},"buffers":[{"name":"Bellossom","byteLength":388472,"uri":"data:application/octet-stream;base64,"}],"bufferViews":[{"name":"bufferView_0","buffer":0,"byteLength":13248,"byteOffset":0,"byteStride":12,"target":34962},{"name":"bufferView_1","buffer":0,"byteLength":13248,"byteOffset":13248,"byteStride":12,"target":34962},{"name":"bufferView_2","buffer":0,"byteLength":8832,"byteOffset":26496,"byteStride":8,"target":34962},{"name":"bufferView_3","buffer":0,"byteLength":9024,"byteOffset":35328,"target":34963},{"buffer":0,"byteOffset":44352,"byteLength":98322},{"buffer":0,"byteOffset":142674,"byteLength":49170},{"buffer":0,"byteOffset":191844,"byteLength":196626}],"images":[{"name":"KireihanaEyeDh","mimeType":"image/x-tga","bufferView":4},{"name":"KireihanaMouthDh","mimeType":"image/x-tga","bufferView":5},{"name":"KireihanaDh","mimeType":"image/x-tga","bufferView":6}],"materials":[{"name":"mat2","pbrMetallicRoughness":{"baseColorTexture":{"index":0},"baseColorFactor":[1,1,1,1],"metallicFactor":0,"roughnessFactor":0.99},"emissiveFactor":[0,0,0],"alphaMode":"OPAQUE","doubleSided":false},{"name":"mat3","pbrMetallicRoughness":{"baseColorTexture":{"index":1},"baseColorFactor":[1,1,1,1],"metallicFactor":0,"roughnessFactor":0.99},"emissiveFactor":[0,0,0],"alphaMode":"OPAQUE","doubleSided":false},{"name":"mat1","pbrMetallicRoughness":{"baseColorTexture":{"index":2},"baseColorFactor":[1,1,1,1],"metallicFactor":0,"roughnessFactor":0.99},"emissiveFactor":[0,0,0],"alphaMode":"OPAQUE","doubleSided":false}],"meshes":[{"name":"polygon0_1","primitives":[{"attributes":{"POSITION":0,"NORMAL":1,"TEXCOORD_0":2},"indices":3,"material":0,"mode":4}]},{"name":"polygon1_1","primitives":[{"attributes":{"POSITION":4,"NORMAL":5,"TEXCOORD_0":6},"indices":7,"material":1,"mode":4}]},{"name":"polygon2_1","primitives":[{"attributes":{"POSITION":8,"NORMAL":9,"TEXCOORD_0":10},"indices":11,"material":2,"mode":4}]}],"nodes":[{"name":"polygon0","mesh":0},{"name":"polygon1","mesh":1},{"name":"polygon2","mesh":2}],"samplers":[{"wrapS":10497,"wrapT":10497}],"scene":0,"scenes":[{"nodes":[0,1,2]}],"textures":[{"name":"KireihanaEyeDh","sampler":0,"source":0},{"name":"KireihanaMouthDh","sampler":0,"source":1},{"name":"KireihanaDh","sampler":0,"source":2}]}