{"accessors":[{"name":"maril-Mesh_0_positions","componentType":5126,"count":334,"min":[-1.762719988822937,-1.6188000440597534,-4.0388898849487305],"max":[1.762719988822937,1.6241199970245361,-0.006678999867290258],"type":"VEC3","bufferView":0,"byteOffset":0},{"name":"maril-Mesh_0_texcoords","componentType":5126,"count":334,"min":[-1.3586000204086304,-0.38266998529434204],"max":[1.1181600093841553,1.0156019926071167],"type":"VEC2","bufferView":1,"byteOffset":0},{"name":"maril-Mesh_0_indices","componentType":5123,"count":1656,"min":[0],"max":[333],"type":"SCALAR","bufferView":2,"byteOffset":0},{"name":"maril-Mesh_1_positions","componentType":5126,"count":7,"min":[-0.6692439913749695,1.0075600147247314,-3.025599956512451],"max":[0.6692439913749695,1.3423999547958374,-2.5185999870300293],"type":"VEC3","bufferView":0,"byteOffset":4008},{"name":"maril-Mesh_1_texcoords","componentType":5126,"count":7,"min":[-0.37275901436805725,-0.0430000014603138],"max":[0.9951180219650269,0.12717600166797638],"type":"VEC2","bufferView":1,"byteOffset":2672},{"name":"maril-Mesh_1_indices","componentType":5123,"count":12,"min":[0],"max":[6],"type":"SCALAR","bufferView":2,"byteOffset":3312},{"name":"maril-Mesh_2_positions","componentType":5126,"count":8,"min":[-0.7097110152244568,1.2350000143051147,-2.5185999870300293],"max":[0.7097110152244568,1.5358200073242188,-2.2774500846862793],"type":"VEC3","bufferView":0,"byteOffset":4092},{"name":"maril-Mesh_2_texcoords","componentType":5126,"count":8,"min":[-1.2341300249099731,0.051791001111269],"max":[2.2341299057006836,0.23213699460029602],"type":"VEC2","bufferView":1,"byteOffset":2728},{"name":"maril-Mesh_2_indices","componentType":5123,"count":18,"min":[0],"max":[7],"type":"SCALAR","bufferView":2,"byteOffset":3336},{"name":"maril-Mesh_3_positions","componentType":5126,"count":4,"min":[-0.33462199568748474,1.1827900409698486,-3.025599956512451],"max":[0.33462199568748474,1.4978599548339844,-2.5185999870300293],"type":"VEC3","bufferView":0,"byteOffset":4188},{"name":"maril-Mesh_3_texcoords","componentType":5126,"count":4,"min":[-1.392840027809143,-4.9290900230407715],"max":[2.3928399085998535,1.3669929504394531],"type":"VEC2","bufferView":1,"byteOffset":2792},{"name":"maril-Mesh_3_indices","componentType":5123,"count":6,"min":[0],"max":[3],"type":"SCALAR","bufferView":2,"byteOffset":3372},{"name":"maril-Mesh_4_positions","componentType":5126,"count":24,"min":[-1.6283999681472778,0.053116001188755035,-3.838289976119995],"max":[1.6283999681472778,0.37460801005363464,-2.881040096282959],"type":"VEC3","bufferView":0,"byteOffset":4236},{"name":"maril-Mesh_4_texcoords","componentType":5126,"count":24,"min":[0.03067000024020672,0.15016700327396393],"max":[0.9652400016784668,1],"type":"VEC2","bufferView":1,"byteOffset":2824},{"name":"maril-Mesh_4_indices","componentType":5123,"count":66,"min":[0],"max":[23],"type":"SCALAR","bufferView":2,"byteOffset":3384},{"name":"maril-Mesh_5_positions","componentType":5126,"count":13,"min":[-0.07809799909591675,-3.865180015563965,-1.2687499523162842],"max":[0.07809799909591675,-1.0180200338363647,-0.7178210020065308],"type":"VEC3","bufferView":0,"byteOffset":4524},{"name":"maril-Mesh_5_texcoords","componentType":5126,"count":13,"min":[0,1],"max":[0,1],"type":"VEC2","bufferView":1,"byteOffset":3016},{"name":"maril-Mesh_5_indices","componentType":5123,"count":33,"min":[0],"max":[12],"type":"SCALAR","bufferView":2,"byteOffset":3516},{"name":"maril-Mesh_6_positions","componentType":5126,"count":9,"min":[0.1675329953432083,-4.543240070343018,-2.293639898300171],"max":[0.6191200017929077,-4.105460166931152,-1.149649977684021],"type":"VEC3","bufferView":0,"byteOffset":4680},{"name":"maril-Mesh_6_texcoords","componentType":5126,"count":9,"min":[0,1],"max":[0,1],"type":"VEC2","bufferView":1,"byteOffset":3120},{"name":"maril-Mesh_6_indices","componentType":5123,"count":21,"min":[0],"max":[8],"type":"SCALAR","bufferView":2,"byteOffset":3584}],"asset":{"generator":"obj2gltf","version":"2.0"},"buffers":[{"name":"BR_Marill-Shiny01","byteLength":83380,"uri":"data:application/octet-stream;base64,"}],"bufferViews":[{"name":"bufferView_0","buffer":0,"byteLength":4788,"byteOffset":0,"byteStride":12,"target":34962},{"name":"bufferView_1","buffer":0,"byteLength":3192,"byteOffset":4788,"byteStride":8,"target":34962},{"name":"bufferView_2","buffer":0,"byteLength":3628,"byteOffset":7980,"target":34963},{"buffer":0,"byteOffset":11608,"byteLength":16402},{"buffer":0,"byteOffset":28010,"byteLength":30738},{"buffer":0,"byteOffset":58748,"byteLength":18450},{"buffer":0,"byteOffset":77198,"byteLength":2066},{"buffer":0,"byteOffset":79264,"byteLength":4114}],"images":[{"name":"maril_1_0","mimeType":"image/x-tga","bufferView":3},{"name":"maril_1_1","mimeType":"image/x-tga","bufferView":4},{"name":"maril_1_2","mimeType":"image/x-tga","bufferView":5},{"name":"maril_1_3","mimeType":"image/x-tga","bufferView":6},{"name":"maril_1_4","mimeType":"image/x-tga","bufferView":7}],"materials":[{"name":"mat_0","pbrMetallicRoughness":{"baseColorTexture":{"index":0},"baseColorFactor":[1,1,1,1],"metallicFactor":0,"roughnessFactor":0.903921569},"emissiveFactor":[0,0,0],"alphaMode":"BLEND","doubleSided":true},{"name":"mat_1","pbrMetallicRoughness":{"baseColorTexture":{"index":1},"baseColorFactor":[1,1,1,1],"metallicFactor":0,"roughnessFactor":0.903921569},"emissiveFactor":[0,0,0],"alphaMode":"BLEND","doubleSided":true},{"name":"mat_2","pbrMetallicRoughness":{"baseColorTexture":{"index":2},"baseColorFactor":[1,1,1,1],"metallicFactor":0,"roughnessFactor":0.903921569},"emissiveFactor":[0,0,0],"alphaMode":"BLEND","doubleSided":true},{"name":"mat_3","pbrMetallicRoughness":{"baseColorTexture":{"index":3},"baseColorFactor":[1,1,1,1],"metallicFactor":0,"roughnessFactor":0.903921569},"emissiveFactor":[0,0,0],"alphaMode":"BLEND","doubleSided":true},{"name":"mat_4","pbrMetallicRoughness":{"baseColorTexture":{"index":4},"baseColorFactor":[1,1,1,1],"metallicFactor":0,"roughnessFactor":0.903921569},"emissiveFactor":[0,0,0],"alphaMode":"BLEND","doubleSided":true},{"name":"mat_5","pbrMetallicRoughness":{"baseColorFactor":[0.8,0.8,0.8,1],"metallicFactor":0,"roughnessFactor":0.903921569},"emissiveFactor":[0,0,0],"alphaMode":"OPAQUE","doubleSided":false},{"name":"mat_6","pbrMetallicRoughness":{"baseColorFactor":[0.8,0.8,0.8,1],"metallicFactor":0,"roughnessFactor":0.903921569},"emissiveFactor":[0,0,0],"alphaMode":"OPAQUE","doubleSided":false}],"meshes":[{"name":"maril-Mesh","primitives":[{"attributes":{"POSITION":0,"TEXCOORD_0":1},"indices":2,"material":0,"mode":4},{"attributes":{"POSITION":3,"TEXCOORD_0":4},"indices":5,"material":1,"mode":4},{"attributes":{"POSITION":6,"TEXCOORD_0":7},"indices":8,"material":2,"mode":4},{"attributes":{"POSITION":9,"TEXCOORD_0":10},"indices":11,"material":3,"mode":4},{"attributes":{"POSITION":12,"TEXCOORD_0":13},"indices":14,"material":4,"mode":4},{"attributes":{"POSITION":15,"TEXCOORD_0":16},"indices":17,"material":5,"mode":4},{"attributes":{"POSITION":18,"TEXCOORD_0":19},"indices":20,"material":6,"mode":4}]}],"nodes":[{"name":"maril","mesh":0}],"samplers":[{"wrapS":10497,"wrapT":10497}],"scene":0,"scenes":[{"nodes":[0]}],"textures":[{"name":"maril_1_0","sampler":0,"source":0},{"name":"maril_1_1","sampler":0,"source":1},{"name":"maril_1_2","sampler":0,"source":2},{"name":"maril_1_3","sampler":0,"source":3},{"name":"maril_1_4","sampler":0,"source":4}]}