{"accessors":[{"name":"marilli-Mesh_0_positions","componentType":5126,"count":251,"min":[-3.88070011138916,-1.940999984741211,-7.965089797973633],"max":[3.88070011138916,1.9048399925231934,0],"type":"VEC3","bufferView":0,"byteOffset":0},{"name":"marilli-Mesh_0_texcoords","componentType":5126,"count":251,"min":[0.43813300132751465,0.0014440000522881746],"max":[0.5585089921951294,0.04059800133109093],"type":"VEC2","bufferView":1,"byteOffset":0},{"name":"marilli-Mesh_0_indices","componentType":5123,"count":1278,"min":[0],"max":[250],"type":"SCALAR","bufferView":2,"byteOffset":0},{"name":"marilli-Mesh_1_positions","componentType":5126,"count":21,"min":[-1.9815000295639038,-1.9744199514389038,-3.2603399753570557],"max":[1.9815000295639038,0,-1.8254799842834473],"type":"VEC3","bufferView":0,"byteOffset":3012},{"name":"marilli-Mesh_1_texcoords","componentType":5126,"count":21,"min":[-0.08914099633693695,0.06250199675559998],"max":[1.0891400575637817,1.0000009536743164],"type":"VEC2","bufferView":1,"byteOffset":2008},{"name":"marilli-Mesh_1_indices","componentType":5123,"count":72,"min":[0],"max":[20],"type":"SCALAR","bufferView":2,"byteOffset":2556},{"name":"marilli-Mesh_2_positions","componentType":5126,"count":4,"min":[-0.09120000153779984,-4.661620140075684,-1.3155100345611572],"max":[0,-4.01600980758667,-0.8117499947547913],"type":"VEC3","bufferView":0,"byteOffset":3264},{"name":"marilli-Mesh_2_texcoords","componentType":5126,"count":4,"min":[0.3768649995326996,1.2435100078582764],"max":[0.8127400279045105,1.282593011856079],"type":"VEC2","bufferView":1,"byteOffset":2176},{"name":"marilli-Mesh_2_indices","componentType":5123,"count":6,"min":[0],"max":[3],"type":"SCALAR","bufferView":2,"byteOffset":2700},{"name":"marilli-Mesh_3_positions","componentType":5126,"count":52,"min":[-1.8802200555801392,-1.9012399911880493,-1.8254799842834473],"max":[1.8802200555801392,1.86735999584198,-0.13927100598812103],"type":"VEC3","bufferView":0,"byteOffset":3312},{"name":"marilli-Mesh_3_texcoords","componentType":5126,"count":52,"min":[-0.0021440000273287296,0.23826199769973755],"max":[1.0021400451660156,1.6249990463256836],"type":"VEC2","bufferView":1,"byteOffset":2208},{"name":"marilli-Mesh_3_indices","componentType":5123,"count":216,"min":[0],"max":[51],"type":"SCALAR","bufferView":2,"byteOffset":2712},{"name":"marilli-Mesh_4_positions","componentType":5126,"count":34,"min":[-1.667639970779419,-0.09804700314998627,-7.965089797973633],"max":[1.667639970779419,0.19896699488162994,-4.771560192108154],"type":"VEC3","bufferView":0,"byteOffset":3936},{"name":"marilli-Mesh_4_texcoords","componentType":5126,"count":34,"min":[0.015654999762773514,-0.004240000154823065],"max":[0.9399809837341309,1.0017369985580444],"type":"VEC2","bufferView":1,"byteOffset":2624},{"name":"marilli-Mesh_4_indices","componentType":5123,"count":108,"min":[0],"max":[33],"type":"SCALAR","bufferView":2,"byteOffset":3144},{"name":"marilli-Mesh_5_positions","componentType":5126,"count":12,"min":[-0.8609799742698669,1.0078999996185303,-4.855820178985596],"max":[0.8609790205955505,1.6334199905395508,-3.867449998855591],"type":"VEC3","bufferView":0,"byteOffset":4344},{"name":"marilli-Mesh_5_texcoords","componentType":5126,"count":12,"min":[-0.033438000828027725,-0.010230000130832195],"max":[1.0255299806594849,0.09930399805307388],"type":"VEC2","bufferView":1,"byteOffset":2896},{"name":"marilli-Mesh_5_indices","componentType":5123,"count":24,"min":[0],"max":[11],"type":"SCALAR","bufferView":2,"byteOffset":3360},{"name":"marilli-Mesh_6_positions","componentType":5126,"count":21,"min":[-1.9815000295639038,0,-3.2603399753570557],"max":[1.9815000295639038,1.950279951095581,-1.8254799842834473],"type":"VEC3","bufferView":0,"byteOffset":4488},{"name":"marilli-Mesh_6_texcoords","componentType":5126,"count":21,"min":[-0.38263899087905884,0.0000019999999949504854],"max":[1.38264000415802,1.0000009536743164],"type":"VEC2","bufferView":1,"byteOffset":2992},{"name":"marilli-Mesh_6_indices","componentType":5123,"count":72,"min":[0],"max":[20],"type":"SCALAR","bufferView":2,"byteOffset":3408},{"name":"marilli-Mesh_7_positions","componentType":5126,"count":6,"min":[-0.35214701294898987,1.3794300556182861,-4.4576897621154785],"max":[0.35214701294898987,1.7301499843597412,-3.867449998855591],"type":"VEC3","bufferView":0,"byteOffset":4740},{"name":"marilli-Mesh_7_texcoords","componentType":5126,"count":6,"min":[0.5,0.004666000138968229],"max":[0.9592800140380859,0.1128000020980835],"type":"VEC2","bufferView":1,"byteOffset":3160},{"name":"marilli-Mesh_7_indices","componentType":5123,"count":12,"min":[0],"max":[5],"type":"SCALAR","bufferView":2,"byteOffset":3552},{"name":"marilli-Mesh_8_positions","componentType":5126,"count":32,"min":[-0.5537019968032837,-5.81082010269165,-1.52715003490448],"max":[0.5537030100822449,-4.532100200653076,-0.24842600524425507],"type":"VEC3","bufferView":0,"byteOffset":4812},{"name":"marilli-Mesh_8_texcoords","componentType":5126,"count":32,"min":[0.03337499871850014,0.8236070275306702],"max":[0.19353200495243073,0.9758139848709106],"type":"VEC2","bufferView":1,"byteOffset":3208},{"name":"marilli-Mesh_8_indices","componentType":5123,"count":180,"min":[0],"max":[31],"type":"SCALAR","bufferView":2,"byteOffset":3576}],"asset":{"generator":"obj2gltf","version":"2.0"},"buffers":[{"name":"BR_Azumarill-Shiny01","byteLength":182980,"uri":"data:application/octet-stream;base64,"}],"bufferViews":[{"name":"bufferView_0","buffer":0,"byteLength":5196,"byteOffset":0,"byteStride":12,"target":34962},{"name":"bufferView_1","buffer":0,"byteLength":3464,"byteOffset":5196,"byteStride":8,"target":34962},{"name":"bufferView_2","buffer":0,"byteLength":3936,"byteOffset":8660,"target":34963},{"buffer":0,"byteOffset":12596,"byteLength":4114},{"buffer":0,"byteOffset":16710,"byteLength":32786},{"buffer":0,"byteOffset":49496,"byteLength":2066},{"buffer":0,"byteOffset":51562,"byteLength":8210},{"buffer":0,"byteOffset":59772,"byteLength":57362},{"buffer":0,"byteOffset":117134,"byteLength":32786},{"buffer":0,"byteOffset":149920,"byteLength":32786},{"buffer":0,"byteOffset":182706,"byteLength":274}],"images":[{"name":"marilli_1_0","mimeType":"image/x-tga","bufferView":3},{"name":"marilli_1_1","mimeType":"image/x-tga","bufferView":4},{"name":"marilli_1_2","mimeType":"image/x-tga","bufferView":5},{"name":"marilli_1_3","mimeType":"image/x-tga","bufferView":6},{"name":"marilli_1_4","mimeType":"image/x-tga","bufferView":7},{"name":"marilli_1_5","mimeType":"image/x-tga","bufferView":8},{"name":"marilli_1_6","mimeType":"image/x-tga","bufferView":9},{"name":"marilli_1_7","mimeType":"image/x-tga","bufferView":10}],"materials":[{"name":"mat_0","pbrMetallicRoughness":{"baseColorTexture":{"index":0},"baseColorFactor":[1,1,1,1],"metallicFactor":0,"roughnessFactor":0.903921569},"emissiveFactor":[0,0,0],"alphaMode":"BLEND","doubleSided":true},{"name":"mat_1","pbrMetallicRoughness":{"baseColorTexture":{"index":1},"baseColorFactor":[1,1,1,1],"metallicFactor":0,"roughnessFactor":0.903921569},"emissiveFactor":[0,0,0],"alphaMode":"BLEND","doubleSided":true},{"name":"mat_2","pbrMetallicRoughness":{"baseColorFactor":[0.8,0.8,0.8,1],"metallicFactor":0,"roughnessFactor":0.903921569},"emissiveFactor":[0,0,0],"alphaMode":"OPAQUE","doubleSided":false},{"name":"mat_3","pbrMetallicRoughness":{"baseColorTexture":{"index":2},"baseColorFactor":[1,1,1,1],"metallicFactor":0,"roughnessFactor":0.903921569},"emissiveFactor":[0,0,0],"alphaMode":"BLEND","doubleSided":true},{"name":"mat_4","pbrMetallicRoughness":{"baseColorTexture":{"index":3},"baseColorFactor":[1,1,1,1],"metallicFactor":0,"roughnessFactor":0.903921569},"emissiveFactor":[0,0,0],"alphaMode":"BLEND","doubleSided":true},{"name":"mat_5","pbrMetallicRoughness":{"baseColorTexture":{"index":4},"baseColorFactor":[1,1,1,1],"metallicFactor":0,"roughnessFactor":0.903921569},"emissiveFactor":[0,0,0],"alphaMode":"BLEND","doubleSided":true},{"name":"mat_6","pbrMetallicRoughness":{"baseColorTexture":{"index":5},"baseColorFactor":[1,1,1,1],"metallicFactor":0,"roughnessFactor":0.903921569},"emissiveFactor":[0,0,0],"alphaMode":"BLEND","doubleSided":true},{"name":"mat_7","pbrMetallicRoughness":{"baseColorTexture":{"index":6},"baseColorFactor":[1,1,1,1],"metallicFactor":0,"roughnessFactor":0.903921569},"emissiveFactor":[0,0,0],"alphaMode":"BLEND","doubleSided":true},{"name":"mat_8","pbrMetallicRoughness":{"baseColorTexture":{"index":7},"baseColorFactor":[1,1,1,1],"metallicFactor":0,"roughnessFactor":0.903921569},"emissiveFactor":[0,0,0],"alphaMode":"BLEND","doubleSided":true}],"meshes":[{"name":"marilli-Mesh","primitives":[{"attributes":{"POSITION":0,"TEXCOORD_0":1},"indices":2,"material":0,"mode":4},{"attributes":{"POSITION":3,"TEXCOORD_0":4},"indices":5,"material":1,"mode":4},{"attributes":{"POSITION":6,"TEXCOORD_0":7},"indices":8,"material":2,"mode":4},{"attributes":{"POSITION":9,"TEXCOORD_0":10},"indices":11,"material":3,"mode":4},{"attributes":{"POSITION":12,"TEXCOORD_0":13},"indices":14,"material":4,"mode":4},{"attributes":{"POSITION":15,"TEXCOORD_0":16},"indices":17,"material":5,"mode":4},{"attributes":{"POSITION":18,"TEXCOORD_0":19},"indices":20,"material":6,"mode":4},{"attributes":{"POSITION":21,"TEXCOORD_0":22},"indices":23,"material":7,"mode":4},{"attributes":{"POSITION":24,"TEXCOORD_0":25},"indices":26,"material":8,"mode":4}]}],"nodes":[{"name":"marilli","mesh":0}],"samplers":[{"wrapS":10497,"wrapT":10497}],"scene":0,"scenes":[{"nodes":[0]}],"textures":[{"name":"marilli_1_0","sampler":0,"source":0},{"name":"marilli_1_1","sampler":0,"source":1},{"name":"marilli_1_2","sampler":0,"source":2},{"name":"marilli_1_3","sampler":0,"source":3},{"name":"marilli_1_4","sampler":0,"source":4},{"name":"marilli_1_5","sampler":0,"source":5},{"name":"marilli_1_6","sampler":0,"source":6},{"name":"marilli_1_7","sampler":0,"source":7}]}