{"accessors":[{"name":"Azumarill_1_0_positions","componentType":5126,"count":66,"min":[-5.92763614654541,40.13240432739258,15.209796905517578],"max":[5.9275641441345215,45.789703369140625,18.57719612121582],"type":"VEC3","bufferView":0,"byteOffset":0},{"name":"Azumarill_1_0_normals","componentType":5126,"count":66,"min":[-0.1524309366941452,0.3921990990638733,0.8431633710861206],"max":[0.16004203259944916,0.5353599786758423,0.9190431237220764],"type":"VEC3","bufferView":1,"byteOffset":0},{"name":"Azumarill_1_0_texcoords","componentType":5126,"count":66,"min":[0.03657900169491768,-1.9891400337219238],"max":[0.46342000365257263,-1.7588900327682495],"type":"VEC2","bufferView":2,"byteOffset":0},{"name":"Azumarill_1_0_indices","componentType":5123,"count":66,"min":[0],"max":[65],"type":"SCALAR","bufferView":3,"byteOffset":0},{"name":"Azumarill_1_1_positions","componentType":5126,"count":11928,"min":[-39.31740188598633,-0.8519729971885681,-68.12749481201172],"max":[39.31740188598633,83.57749938964844,21.317899703979492],"type":"VEC3","bufferView":0,"byteOffset":792},{"name":"Azumarill_1_1_normals","componentType":5126,"count":11928,"min":[-0.9992775321006775,-1,-0.9765138626098633],"max":[0.9992775321006775,0.9999983906745911,0.9998493790626526],"type":"VEC3","bufferView":1,"byteOffset":792},{"name":"Azumarill_1_1_texcoords","componentType":5126,"count":11928,"min":[0,0.012017999775707722],"max":[1,0.9888589978218079],"type":"VEC2","bufferView":2,"byteOffset":528},{"name":"Azumarill_1_1_indices","componentType":5123,"count":11928,"min":[0],"max":[11927],"type":"SCALAR","bufferView":3,"byteOffset":132},{"name":"Azumarill_1_2_positions","componentType":5126,"count":162,"min":[-11.36934757232666,41.692466735839844,10.942095756530762],"max":[11.36925220489502,49.3093147277832,16.70889663696289],"type":"VEC3","bufferView":0,"byteOffset":143928},{"name":"Azumarill_1_2_normals","componentType":5126,"count":162,"min":[-0.8885247707366943,-0.9999870657920837,-0.09612200409173965],"max":[0.9562709927558899,0.9999983906745911,0.9950133562088013],"type":"VEC3","bufferView":1,"byteOffset":143928},{"name":"Azumarill_1_2_texcoords","componentType":5126,"count":162,"min":[0.011327000334858894,-0.9882799983024597],"max":[0.4886699914932251,-0.7625200152397156],"type":"VEC2","bufferView":2,"byteOffset":95952},{"name":"Azumarill_1_2_indices","componentType":5123,"count":162,"min":[0],"max":[161],"type":"SCALAR","bufferView":3,"byteOffset":23988},{"name":"Azumarill_TailGlow_1_0_positions","componentType":5126,"count":108,"min":[-16.063079833984375,-10.200671195983887,-77.21379852294922],"max":[16.063119888305664,22.335920333862305,-45.23358917236328],"type":"VEC3","bufferView":0,"byteOffset":145872},{"name":"Azumarill_TailGlow_1_0_normals","componentType":5126,"count":108,"min":[-0.7361148595809937,-0.9140169620513916,-0.6566843390464783],"max":[0.8523951172828674,0.6528679728507996,0.9577092528343201],"type":"VEC3","bufferView":1,"byteOffset":145872},{"name":"Azumarill_TailGlow_1_0_texcoords","componentType":5126,"count":108,"min":[0,-2],"max":[1,-1],"type":"VEC2","bufferView":2,"byteOffset":97248},{"name":"Azumarill_TailGlow_1_0_indices","componentType":5123,"count":108,"min":[0],"max":[107],"type":"SCALAR","bufferView":3,"byteOffset":24312},{"name":"Azumarill_TailGlow_1_1_positions","componentType":5126,"count":576,"min":[-7.676959991455078,-1.5320039987564087,-68.80599975585938],"max":[7.677000045776367,13.667323112487793,-53.641395568847656],"type":"VEC3","bufferView":0,"byteOffset":147168},{"name":"Azumarill_TailGlow_1_1_normals","componentType":5126,"count":576,"min":[-0.9872722625732422,-0.711999237537384,-0.949698269367218],"max":[1,0.6563268899917603,0.8335292935371399],"type":"VEC3","bufferView":1,"byteOffset":147168},{"name":"Azumarill_TailGlow_1_1_texcoords","componentType":5126,"count":576,"min":[0.29759201407432556,0.01941799931228161],"max":[0.7024080157279968,0.19131100177764893],"type":"VEC2","bufferView":2,"byteOffset":98112},{"name":"Azumarill_TailGlow_1_1_indices","componentType":5123,"count":576,"min":[0],"max":[575],"type":"SCALAR","bufferView":3,"byteOffset":24528}],"asset":{"generator":"obj2gltf","version":"2.0"},"buffers":[{"name":"XY_Azumarill","byteLength":559384,"uri":"data:application/octet-stream;base64,"}],"bufferViews":[{"name":"bufferView_0","buffer":0,"byteLength":154080,"byteOffset":0,"byteStride":12,"target":34962},{"name":"bufferView_1","buffer":0,"byteLength":154080,"byteOffset":154080,"byteStride":12,"target":34962},{"name":"bufferView_2","buffer":0,"byteLength":102720,"byteOffset":308160,"byteStride":8,"target":34962},{"name":"bufferView_3","buffer":0,"byteLength":25680,"byteOffset":410880,"target":34963},{"buffer":0,"byteOffset":436560,"byteLength":20893},{"buffer":0,"byteOffset":457453,"byteLength":55081},{"buffer":0,"byteOffset":512534,"byteLength":31976},{"buffer":0,"byteOffset":544510,"byteLength":10132},{"buffer":0,"byteOffset":554642,"byteLength":4741}],"images":[{"name":"pm0184_00_Mouth1","mimeType":"image/png","bufferView":4},{"name":"pm0184_00_Body1","mimeType":"image/png","bufferView":5},{"name":"pm0184_00_Eye1","mimeType":"image/png","bufferView":6},{"name":"pm0184_00_Pokabu_Tail01Inc","mimeType":"image/png","bufferView":7},{"name":"pm0184_00_Pokabu_Tail00Env","mimeType":"image/png","bufferView":8}],"materials":[{"name":"Material__73","pbrMetallicRoughness":{"baseColorTexture":{"index":0},"baseColorFactor":[1,1,1,1],"metallicFactor":0,"roughnessFactor":0.998},"emissiveFactor":[0,0,0],"alphaMode":"OPAQUE","doubleSided":false},{"name":"Material__74","pbrMetallicRoughness":{"baseColorTexture":{"index":1},"baseColorFactor":[1,1,1,1],"metallicFactor":0,"roughnessFactor":0.998},"emissiveFactor":[0,0,0],"alphaMode":"OPAQUE","doubleSided":false},{"name":"Material__75","pbrMetallicRoughness":{"baseColorTexture":{"index":2},"baseColorFactor":[1,1,1,1],"metallicFactor":0,"roughnessFactor":0.998},"emissiveFactor":[0,0,0],"alphaMode":"OPAQUE","doubleSided":false},{"name":"Material__86","pbrMetallicRoughness":{"baseColorTexture":{"index":3},"baseColorFactor":[1,1,1,1],"metallicFactor":0,"roughnessFactor":0.998},"emissiveFactor":[0,0,0],"alphaMode":"OPAQUE","doubleSided":false},{"name":"Material__87","pbrMetallicRoughness":{"baseColorTexture":{"index":4},"baseColorFactor":[1,1,1,1],"metallicFactor":0,"roughnessFactor":0.998},"emissiveFactor":[0,0,0],"alphaMode":"OPAQUE","doubleSided":false}],"meshes":[{"name":"Azumarill_1","primitives":[{"attributes":{"POSITION":0,"NORMAL":1,"TEXCOORD_0":2},"indices":3,"material":0,"mode":4},{"attributes":{"POSITION":4,"NORMAL":5,"TEXCOORD_0":6},"indices":7,"material":1,"mode":4},{"attributes":{"POSITION":8,"NORMAL":9,"TEXCOORD_0":10},"indices":11,"material":2,"mode":4}]},{"name":"Azumarill_TailGlow_1","primitives":[{"attributes":{"POSITION":12,"NORMAL":13,"TEXCOORD_0":14},"indices":15,"material":3,"mode":4},{"attributes":{"POSITION":16,"NORMAL":17,"TEXCOORD_0":18},"indices":19,"material":4,"mode":4}]}],"nodes":[{"name":"Azumarill","mesh":0},{"name":"Azumarill_TailGlow","mesh":1}],"samplers":[{"wrapS":10497,"wrapT":10497}],"scene":0,"scenes":[{"nodes":[0,1]}],"textures":[{"name":"pm0184_00_Mouth1","sampler":0,"source":0},{"name":"pm0184_00_Body1","sampler":0,"source":1},{"name":"pm0184_00_Eye1","sampler":0,"source":2},{"name":"pm0184_00_Pokabu_Tail01Inc","sampler":0,"source":3},{"name":"pm0184_00_Pokabu_Tail00Env","sampler":0,"source":4}]}