{"accessors":[{"name":"polygon0_1_0_positions","componentType":5126,"count":980,"min":[-6.662093162536621,-0.031539998948574066,-0.999629020690918],"max":[6.662093162536621,11.552412033081055,1.4172300100326538],"type":"VEC3","bufferView":0,"byteOffset":0},{"name":"polygon0_1_0_normals","componentType":5126,"count":980,"min":[-1,-1,-1],"max":[1,1,1],"type":"VEC3","bufferView":1,"byteOffset":0},{"name":"polygon0_1_0_texcoords","componentType":5126,"count":980,"min":[0.012543000280857086,0.014159999787807465],"max":[0.9868159890174866,0.9852910041809082],"type":"VEC2","bufferView":2,"byteOffset":0},{"name":"polygon0_1_0_indices","componentType":5123,"count":4674,"min":[0],"max":[979],"type":"SCALAR","bufferView":3,"byteOffset":0},{"name":"polygon1_1_0_positions","componentType":5126,"count":6,"min":[-0.8280220031738281,8.507610321044922,0.6097490191459656],"max":[0.8280230164527893,9.484950065612793,0.9403600096702576],"type":"VEC3","bufferView":0,"byteOffset":11760},{"name":"polygon1_1_0_normals","componentType":5126,"count":6,"min":[-0.6454413533210754,0.008300996385514736,0.749673068523407],"max":[0.6454413533210754,0.3469861149787903,0.9999655485153198],"type":"VEC3","bufferView":1,"byteOffset":11760},{"name":"polygon1_1_0_texcoords","componentType":5126,"count":6,"min":[1.0520319938659668,0.06271400302648544],"max":[1.420685052871704,0.21316500008106232],"type":"VEC2","bufferView":2,"byteOffset":7840},{"name":"polygon1_1_0_indices","componentType":5123,"count":12,"min":[0],"max":[5],"type":"SCALAR","bufferView":3,"byteOffset":9348},{"name":"polygon2_1_0_positions","componentType":5126,"count":6,"min":[-0.8280220031738281,7.163969993591309,0.6257190108299255],"max":[0.8280230164527893,8.507610321044922,0.9403600096702576],"type":"VEC3","bufferView":0,"byteOffset":11832},{"name":"polygon2_1_0_normals","componentType":5126,"count":6,"min":[-0.6989200711250305,-0.029419004917144775,0.7150330543518066],"max":[0.6989200711250305,0.01129100564867258,0.9999655485153198],"type":"VEC3","bufferView":1,"byteOffset":11832},{"name":"polygon2_1_0_texcoords","componentType":5126,"count":6,"min":[1.122925043106079,0.015807999297976494],"max":[1.8483890295028687,0.22668500244617462],"type":"VEC2","bufferView":2,"byteOffset":7888},{"name":"polygon2_1_0_indices","componentType":5123,"count":12,"min":[0],"max":[5],"type":"SCALAR","bufferView":3,"byteOffset":9372}],"asset":{"generator":"obj2gltf","version":"2.0"},"buffers":[{"name":"Sudowoodo","byteLength":385260,"uri":"data:application/octet-stream;base64,"}],"bufferViews":[{"name":"bufferView_0","buffer":0,"byteLength":11904,"byteOffset":0,"byteStride":12,"target":34962},{"name":"bufferView_1","buffer":0,"byteLength":11904,"byteOffset":11904,"byteStride":12,"target":34962},{"name":"bufferView_2","buffer":0,"byteLength":7936,"byteOffset":23808,"byteStride":8,"target":34962},{"name":"bufferView_3","buffer":0,"byteLength":9396,"byteOffset":31744,"target":34963},{"buffer":0,"byteOffset":41140,"byteLength":196626},{"buffer":0,"byteOffset":237766,"byteLength":98322},{"buffer":0,"byteOffset":336088,"byteLength":49170}],"images":[{"name":"UsokkieDh","mimeType":"image/x-tga","bufferView":4},{"name":"UsokkieEyeDh","mimeType":"image/x-tga","bufferView":5},{"name":"UsokkieMouthDh","mimeType":"image/x-tga","bufferView":6}],"materials":[{"name":"mat1","pbrMetallicRoughness":{"baseColorTexture":{"index":0},"baseColorFactor":[1,1,1,1],"metallicFactor":0,"roughnessFactor":0.99},"emissiveFactor":[0,0,0],"alphaMode":"OPAQUE","doubleSided":false},{"name":"mat2","pbrMetallicRoughness":{"baseColorTexture":{"index":1},"baseColorFactor":[1,1,1,1],"metallicFactor":0,"roughnessFactor":0.99},"emissiveFactor":[0,0,0],"alphaMode":"OPAQUE","doubleSided":false},{"name":"mat3","pbrMetallicRoughness":{"baseColorTexture":{"index":2},"baseColorFactor":[1,1,1,1],"metallicFactor":0,"roughnessFactor":0.99},"emissiveFactor":[0,0,0],"alphaMode":"OPAQUE","doubleSided":false}],"meshes":[{"name":"polygon0_1","primitives":[{"attributes":{"POSITION":0,"NORMAL":1,"TEXCOORD_0":2},"indices":3,"material":0,"mode":4}]},{"name":"polygon1_1","primitives":[{"attributes":{"POSITION":4,"NORMAL":5,"TEXCOORD_0":6},"indices":7,"material":1,"mode":4}]},{"name":"polygon2_1","primitives":[{"attributes":{"POSITION":8,"NORMAL":9,"TEXCOORD_0":10},"indices":11,"material":2,"mode":4}]}],"nodes":[{"name":"polygon0","mesh":0},{"name":"polygon1","mesh":1},{"name":"polygon2","mesh":2}],"samplers":[{"wrapS":10497,"wrapT":10497}],"scene":0,"scenes":[{"nodes":[0,1,2]}],"textures":[{"name":"UsokkieDh","sampler":0,"source":0},{"name":"UsokkieEyeDh","sampler":0,"source":1},{"name":"UsokkieMouthDh","sampler":0,"source":2}]}