{"accessors":[{"name":"nyorotono-Mesh_0_positions","componentType":5126,"count":29,"min":[-2.065840005874634,-0.6679660081863403,-6.197760105133057],"max":[2.0658299922943115,1.6346900463104248,-4.360529899597168],"type":"VEC3","bufferView":0,"byteOffset":0},{"name":"nyorotono-Mesh_0_texcoords","componentType":5126,"count":29,"min":[0.3534480035305023,-0.13556000590324402],"max":[1.107759952545166,0.8577589988708496],"type":"VEC2","bufferView":1,"byteOffset":0},{"name":"nyorotono-Mesh_0_indices","componentType":5123,"count":78,"min":[0],"max":[28],"type":"SCALAR","bufferView":2,"byteOffset":0},{"name":"nyorotono-Mesh_1_positions","componentType":5126,"count":11,"min":[-2.2436599731445312,-0.11831899732351303,-6.197760105133057],"max":[2.2436599731445312,1.6346900463104248,-5.875909805297852],"type":"VEC3","bufferView":0,"byteOffset":348},{"name":"nyorotono-Mesh_1_texcoords","componentType":5126,"count":11,"min":[0,0],"max":[1,0.908482015132904],"type":"VEC2","bufferView":1,"byteOffset":232},{"name":"nyorotono-Mesh_1_indices","componentType":5123,"count":30,"min":[0],"max":[10],"type":"SCALAR","bufferView":2,"byteOffset":156},{"name":"nyorotono-Mesh_2_positions","componentType":5126,"count":24,"min":[-2.7555201053619385,-2.3617000579833984,-7.363729953765869],"max":[2.755510091781616,1.005660057067871,-4.635630130767822],"type":"VEC3","bufferView":0,"byteOffset":480},{"name":"nyorotono-Mesh_2_texcoords","componentType":5126,"count":24,"min":[-0.6788769960403442,-0.6875],"max":[1.90625,1.089843988418579],"type":"VEC2","bufferView":1,"byteOffset":320},{"name":"nyorotono-Mesh_2_indices","componentType":5123,"count":66,"min":[0],"max":[23],"type":"SCALAR","bufferView":2,"byteOffset":216},{"name":"nyorotono-Mesh_3_positions","componentType":5126,"count":11,"min":[-1.0999599695205688,-0.11831899732351303,-6.325089931488037],"max":[1.1083799600601196,1.1825000047683716,-5.875909805297852],"type":"VEC3","bufferView":0,"byteOffset":768},{"name":"nyorotono-Mesh_3_texcoords","componentType":5126,"count":11,"min":[0,0],"max":[0.996711015701294,1],"type":"VEC2","bufferView":1,"byteOffset":512},{"name":"nyorotono-Mesh_3_indices","componentType":5123,"count":30,"min":[0],"max":[10],"type":"SCALAR","bufferView":2,"byteOffset":348},{"name":"nyorotono-Mesh_4_positions","componentType":5126,"count":16,"min":[-1.0999599695205688,0.09710399806499481,-6.325089931488037],"max":[1.1083799600601196,1.1825000047683716,-5.875909805297852],"type":"VEC3","bufferView":0,"byteOffset":900},{"name":"nyorotono-Mesh_4_texcoords","componentType":5126,"count":16,"min":[0,0],"max":[1,1],"type":"VEC2","bufferView":1,"byteOffset":600},{"name":"nyorotono-Mesh_4_indices","componentType":5123,"count":42,"min":[0],"max":[15],"type":"SCALAR","bufferView":2,"byteOffset":408},{"name":"nyorotono-Mesh_5_positions","componentType":5126,"count":162,"min":[-4.441979885101318,-5.532509803771973,-8.945710182189941],"max":[4.471010208129883,1.8800599575042725,0.28586798906326294],"type":"VEC3","bufferView":0,"byteOffset":1092},{"name":"nyorotono-Mesh_5_texcoords","componentType":5126,"count":162,"min":[0,0],"max":[0.6443009972572327,0.7773950099945068],"type":"VEC2","bufferView":1,"byteOffset":728},{"name":"nyorotono-Mesh_5_indices","componentType":5123,"count":747,"min":[0],"max":[161],"type":"SCALAR","bufferView":2,"byteOffset":492},{"name":"nyorotono-Mesh_6_positions","componentType":5126,"count":6,"min":[-0.825111985206604,1.5141099691390991,-7.260350227355957],"max":[0.8251100182533264,1.9220499992370605,-6.1769700050354],"type":"VEC3","bufferView":0,"byteOffset":3036},{"name":"nyorotono-Mesh_6_texcoords","componentType":5126,"count":6,"min":[-0.9375,-1.8229199647903442],"max":[2,2.135420083999634],"type":"VEC2","bufferView":1,"byteOffset":2024},{"name":"nyorotono-Mesh_6_indices","componentType":5123,"count":12,"min":[0],"max":[5],"type":"SCALAR","bufferView":2,"byteOffset":1988},{"name":"nyorotono-Mesh_7_positions","componentType":5126,"count":8,"min":[-2.2436599731445312,-0.11831899732351303,-6.266479969024658],"max":[2.2436599731445312,1.9220499992370605,-5.882430076599121],"type":"VEC3","bufferView":0,"byteOffset":3108},{"name":"nyorotono-Mesh_7_texcoords","componentType":5126,"count":8,"min":[0.007813000120222569,0.04296899959445],"max":[1,1.0078129768371582],"type":"VEC2","bufferView":1,"byteOffset":2072},{"name":"nyorotono-Mesh_7_indices","componentType":5123,"count":18,"min":[0],"max":[7],"type":"SCALAR","bufferView":2,"byteOffset":2012},{"name":"nyorotono-Mesh_8_positions","componentType":5126,"count":20,"min":[-2.6798999309539795,-1.9122099876403809,-4.635630130767822],"max":[2.6798999309539795,0.20576900243759155,-1.3923499584197998],"type":"VEC3","bufferView":0,"byteOffset":3204},{"name":"nyorotono-Mesh_8_texcoords","componentType":5126,"count":20,"min":[-0.11830399930477142,-0.3214299976825714],"max":[1.1158299446105957,1.0133930444717407],"type":"VEC2","bufferView":1,"byteOffset":2136},{"name":"nyorotono-Mesh_8_indices","componentType":5123,"count":72,"min":[0],"max":[19],"type":"SCALAR","bufferView":2,"byteOffset":2048},{"name":"nyorotono-Mesh_9_positions","componentType":5126,"count":72,"min":[-5.860290050506592,-2.3644800186157227,-7.45973014831543],"max":[5.919320106506348,-0.3933889865875244,-4.6690897941589355],"type":"VEC3","bufferView":0,"byteOffset":3444},{"name":"nyorotono-Mesh_9_texcoords","componentType":5126,"count":72,"min":[0.2832989990711212,0.14077900350093842],"max":[0.7703080177307129,0.8000270128250122],"type":"VEC2","bufferView":1,"byteOffset":2296},{"name":"nyorotono-Mesh_9_indices","componentType":5123,"count":378,"min":[0],"max":[71],"type":"SCALAR","bufferView":2,"byteOffset":2192},{"name":"nyorotono-Mesh_10_positions","componentType":5126,"count":21,"min":[-2.4551799297332764,-2.922369956970215,-8.489919662475586],"max":[2.4551799297332764,1.5141099691390991,-6.497499942779541],"type":"VEC3","bufferView":0,"byteOffset":4308},{"name":"nyorotono-Mesh_10_texcoords","componentType":5126,"count":21,"min":[-0.19676800072193146,0.010715999640524387],"max":[1.90447998046875,0.19449999928474426],"type":"VEC2","bufferView":1,"byteOffset":2872},{"name":"nyorotono-Mesh_10_indices","componentType":5123,"count":60,"min":[0],"max":[20],"type":"SCALAR","bufferView":2,"byteOffset":2948},{"name":"nyorotono-Mesh_11_positions","componentType":5126,"count":58,"min":[-0.531728982925415,-2.0453600883483887,-11.933300018310547],"max":[0.5317260026931763,0.7536649703979492,-8.937580108642578],"type":"VEC3","bufferView":0,"byteOffset":4560},{"name":"nyorotono-Mesh_11_texcoords","componentType":5126,"count":58,"min":[0,0],"max":[1,1],"type":"VEC2","bufferView":1,"byteOffset":3040},{"name":"nyorotono-Mesh_11_indices","componentType":5123,"count":189,"min":[0],"max":[57],"type":"SCALAR","bufferView":2,"byteOffset":3068},{"name":"nyorotono-Mesh_12_positions","componentType":5126,"count":19,"min":[-2.6798999309539795,-3.6816799640655518,-2.0545499324798584],"max":[2.6798999309539795,0.20576900243759155,0.19961600005626678],"type":"VEC3","bufferView":0,"byteOffset":5256},{"name":"nyorotono-Mesh_12_texcoords","componentType":5126,"count":19,"min":[-0.11383900046348572,0],"max":[1.1119799613952637,1.5373669862747192],"type":"VEC2","bufferView":1,"byteOffset":3504},{"name":"nyorotono-Mesh_12_indices","componentType":5123,"count":54,"min":[0],"max":[18],"type":"SCALAR","bufferView":2,"byteOffset":3448},{"name":"nyorotono-Mesh_13_positions","componentType":5126,"count":14,"min":[-3.322690010070801,0.1864199936389923,-1.2942999601364136],"max":[3.322690010070801,1.3062700033187866,0.28586798906326294],"type":"VEC3","bufferView":0,"byteOffset":5484},{"name":"nyorotono-Mesh_13_texcoords","componentType":5126,"count":14,"min":[-0.01785700023174286,0.10000000149011612],"max":[1.0178600549697876,0.924107015132904],"type":"VEC2","bufferView":1,"byteOffset":3656},{"name":"nyorotono-Mesh_13_indices","componentType":5123,"count":30,"min":[0],"max":[13],"type":"SCALAR","bufferView":2,"byteOffset":3556},{"name":"nyorotono-Mesh_14_positions","componentType":5126,"count":126,"min":[-4.9169697761535645,0.966871976852417,-3.4109299182891846],"max":[4.9169697761535645,2.1399500370025635,-1.7513600587844849],"type":"VEC3","bufferView":0,"byteOffset":5652},{"name":"nyorotono-Mesh_14_texcoords","componentType":5126,"count":126,"min":[-0.03571400046348572,-1.9799100160598755],"max":[1.0412100553512573,1.026785969734192],"type":"VEC2","bufferView":1,"byteOffset":3768},{"name":"nyorotono-Mesh_14_indices","componentType":5123,"count":360,"min":[0],"max":[125],"type":"SCALAR","bufferView":2,"byteOffset":3616}],"asset":{"generator":"obj2gltf","version":"2.0"},"buffers":[{"name":"BR_Politoed-Shiny01","byteLength":142052,"uri":"data:application/octet-stream;base64,"}],"bufferViews":[{"name":"bufferView_0","buffer":0,"byteLength":7164,"byteOffset":0,"byteStride":12,"target":34962},{"name":"bufferView_1","buffer":0,"byteLength":4776,"byteOffset":7164,"byteStride":8,"target":34962},{"name":"bufferView_2","buffer":0,"byteLength":4336,"byteOffset":11940,"target":34963},{"buffer":0,"byteOffset":16276,"byteLength":530},{"buffer":0,"byteOffset":16806,"byteLength":8210},{"buffer":0,"byteOffset":25016,"byteLength":8210},{"buffer":0,"byteOffset":33226,"byteLength":4114},{"buffer":0,"byteOffset":37340,"byteLength":2066},{"buffer":0,"byteOffset":39406,"byteLength":82},{"buffer":0,"byteOffset":39488,"byteLength":4114},{"buffer":0,"byteOffset":43602,"byteLength":8210},{"buffer":0,"byteOffset":51812,"byteLength":8210},{"buffer":0,"byteOffset":60022,"byteLength":530},{"buffer":0,"byteOffset":60552,"byteLength":64018},{"buffer":0,"byteOffset":124570,"byteLength":530},{"buffer":0,"byteOffset":125100,"byteLength":8210},{"buffer":0,"byteOffset":133310,"byteLength":8210},{"buffer":0,"byteOffset":141520,"byteLength":530}],"images":[{"name":"nyorotono_1_0","mimeType":"image/x-tga","bufferView":3},{"name":"nyorotono_1_1","mimeType":"image/x-tga","bufferView":4},{"name":"nyorotono_1_2","mimeType":"image/x-tga","bufferView":5},{"name":"nyorotono_1_3","mimeType":"image/x-tga","bufferView":6},{"name":"nyorotono_1_4","mimeType":"image/x-tga","bufferView":7},{"name":"nyorotono_1_5","mimeType":"image/x-tga","bufferView":8},{"name":"nyorotono_1_6","mimeType":"image/x-tga","bufferView":9},{"name":"nyorotono_1_7","mimeType":"image/x-tga","bufferView":10},{"name":"nyorotono_1_8","mimeType":"image/x-tga","bufferView":11},{"name":"nyorotono_1_9","mimeType":"image/x-tga","bufferView":12},{"name":"nyorotono_1_10","mimeType":"image/x-tga","bufferView":13},{"name":"nyorotono_1_11","mimeType":"image/x-tga","bufferView":14},{"name":"nyorotono_1_12","mimeType":"image/x-tga","bufferView":15},{"name":"nyorotono_1_13","mimeType":"image/x-tga","bufferView":16},{"name":"nyorotono_1_14","mimeType":"image/x-tga","bufferView":17}],"materials":[{"name":"mat_0","pbrMetallicRoughness":{"baseColorTexture":{"index":0},"baseColorFactor":[1,1,1,1],"metallicFactor":0,"roughnessFactor":0.903921569},"emissiveFactor":[0,0,0],"alphaMode":"BLEND","doubleSided":true},{"name":"mat_1","pbrMetallicRoughness":{"baseColorTexture":{"index":1},"baseColorFactor":[1,1,1,1],"metallicFactor":0,"roughnessFactor":0.903921569},"emissiveFactor":[0,0,0],"alphaMode":"BLEND","doubleSided":true},{"name":"mat_2","pbrMetallicRoughness":{"baseColorTexture":{"index":2},"baseColorFactor":[1,1,1,1],"metallicFactor":0,"roughnessFactor":0.903921569},"emissiveFactor":[0,0,0],"alphaMode":"BLEND","doubleSided":true},{"name":"mat_3","pbrMetallicRoughness":{"baseColorTexture":{"index":3},"baseColorFactor":[1,1,1,1],"metallicFactor":0,"roughnessFactor":0.903921569},"emissiveFactor":[0,0,0],"alphaMode":"BLEND","doubleSided":true},{"name":"mat_4","pbrMetallicRoughness":{"baseColorTexture":{"index":4},"baseColorFactor":[1,1,1,1],"metallicFactor":0,"roughnessFactor":0.903921569},"emissiveFactor":[0,0,0],"alphaMode":"BLEND","doubleSided":true},{"name":"mat_5","pbrMetallicRoughness":{"baseColorTexture":{"index":5},"baseColorFactor":[1,1,1,1],"metallicFactor":0,"roughnessFactor":0.903921569},"emissiveFactor":[0,0,0],"alphaMode":"BLEND","doubleSided":true},{"name":"mat_6","pbrMetallicRoughness":{"baseColorTexture":{"index":6},"baseColorFactor":[1,1,1,1],"metallicFactor":0,"roughnessFactor":0.903921569},"emissiveFactor":[0,0,0],"alphaMode":"BLEND","doubleSided":true},{"name":"mat_7","pbrMetallicRoughness":{"baseColorTexture":{"index":7},"baseColorFactor":[1,1,1,1],"metallicFactor":0,"roughnessFactor":0.903921569},"emissiveFactor":[0,0,0],"alphaMode":"BLEND","doubleSided":true},{"name":"mat_8","pbrMetallicRoughness":{"baseColorTexture":{"index":8},"baseColorFactor":[1,1,1,1],"metallicFactor":0,"roughnessFactor":0.903921569},"emissiveFactor":[0,0,0],"alphaMode":"BLEND","doubleSided":true},{"name":"mat_9","pbrMetallicRoughness":{"baseColorTexture":{"index":9},"baseColorFactor":[1,1,1,1],"metallicFactor":0,"roughnessFactor":0.903921569},"emissiveFactor":[0,0,0],"alphaMode":"BLEND","doubleSided":true},{"name":"mat_10","pbrMetallicRoughness":{"baseColorTexture":{"index":10},"baseColorFactor":[1,1,1,1],"metallicFactor":0,"roughnessFactor":0.903921569},"emissiveFactor":[0,0,0],"alphaMode":"BLEND","doubleSided":true},{"name":"mat_11","pbrMetallicRoughness":{"baseColorTexture":{"index":11},"baseColorFactor":[1,1,1,1],"metallicFactor":0,"roughnessFactor":0.903921569},"emissiveFactor":[0,0,0],"alphaMode":"BLEND","doubleSided":true},{"name":"mat_12","pbrMetallicRoughness":{"baseColorTexture":{"index":12},"baseColorFactor":[1,1,1,1],"metallicFactor":0,"roughnessFactor":0.903921569},"emissiveFactor":[0,0,0],"alphaMode":"BLEND","doubleSided":true},{"name":"mat_13","pbrMetallicRoughness":{"baseColorTexture":{"index":13},"baseColorFactor":[1,1,1,1],"metallicFactor":0,"roughnessFactor":0.903921569},"emissiveFactor":[0,0,0],"alphaMode":"BLEND","doubleSided":true},{"name":"mat_14","pbrMetallicRoughness":{"baseColorTexture":{"index":14},"baseColorFactor":[1,1,1,1],"metallicFactor":0,"roughnessFactor":0.903921569},"emissiveFactor":[0,0,0],"alphaMode":"BLEND","doubleSided":true}],"meshes":[{"name":"nyorotono-Mesh","primitives":[{"attributes":{"POSITION":0,"TEXCOORD_0":1},"indices":2,"material":0,"mode":4},{"attributes":{"POSITION":3,"TEXCOORD_0":4},"indices":5,"material":1,"mode":4},{"attributes":{"POSITION":6,"TEXCOORD_0":7},"indices":8,"material":2,"mode":4},{"attributes":{"POSITION":9,"TEXCOORD_0":10},"indices":11,"material":3,"mode":4},{"attributes":{"POSITION":12,"TEXCOORD_0":13},"indices":14,"material":4,"mode":4},{"attributes":{"POSITION":15,"TEXCOORD_0":16},"indices":17,"material":5,"mode":4},{"attributes":{"POSITION":18,"TEXCOORD_0":19},"indices":20,"material":6,"mode":4},{"attributes":{"POSITION":21,"TEXCOORD_0":22},"indices":23,"material":7,"mode":4},{"attributes":{"POSITION":24,"TEXCOORD_0":25},"indices":26,"material":8,"mode":4},{"attributes":{"POSITION":27,"TEXCOORD_0":28},"indices":29,"material":9,"mode":4},{"attributes":{"POSITION":30,"TEXCOORD_0":31},"indices":32,"material":10,"mode":4},{"attributes":{"POSITION":33,"TEXCOORD_0":34},"indices":35,"material":11,"mode":4},{"attributes":{"POSITION":36,"TEXCOORD_0":37},"indices":38,"material":12,"mode":4},{"attributes":{"POSITION":39,"TEXCOORD_0":40},"indices":41,"material":13,"mode":4},{"attributes":{"POSITION":42,"TEXCOORD_0":43},"indices":44,"material":14,"mode":4}]}],"nodes":[{"name":"nyorotono","mesh":0}],"samplers":[{"wrapS":10497,"wrapT":10497}],"scene":0,"scenes":[{"nodes":[0]}],"textures":[{"name":"nyorotono_1_0","sampler":0,"source":0},{"name":"nyorotono_1_1","sampler":0,"source":1},{"name":"nyorotono_1_2","sampler":0,"source":2},{"name":"nyorotono_1_3","sampler":0,"source":3},{"name":"nyorotono_1_4","sampler":0,"source":4},{"name":"nyorotono_1_5","sampler":0,"source":5},{"name":"nyorotono_1_6","sampler":0,"source":6},{"name":"nyorotono_1_7","sampler":0,"source":7},{"name":"nyorotono_1_8","sampler":0,"source":8},{"name":"nyorotono_1_9","sampler":0,"source":9},{"name":"nyorotono_1_10","sampler":0,"source":10},{"name":"nyorotono_1_11","sampler":0,"source":11},{"name":"nyorotono_1_12","sampler":0,"source":12},{"name":"nyorotono_1_13","sampler":0,"source":13},{"name":"nyorotono_1_14","sampler":0,"source":14}]}