{"accessors":[{"name":"polygon0_1_0_positions","componentType":5126,"count":30,"min":[-1.0320780277252197,1.424448013305664,1.9936189651489258],"max":[1.0320769548416138,2.531259059906006,2.294158935546875],"type":"VEC3","bufferView":0,"byteOffset":0},{"name":"polygon0_1_0_normals","componentType":5126,"count":30,"min":[-0.4579557478427887,-0.3707241117954254,0.8441509008407593],"max":[0.4579557478427887,0.47331294417381287,0.9997599124908447],"type":"VEC3","bufferView":1,"byteOffset":0},{"name":"polygon0_1_0_texcoords","componentType":5126,"count":30,"min":[0.015869000926613808,-0.010619999840855598],"max":[0.9615479707717896,0.26544201374053955],"type":"VEC2","bufferView":2,"byteOffset":0},{"name":"polygon0_1_0_indices","componentType":5123,"count":120,"min":[0],"max":[29],"type":"SCALAR","bufferView":3,"byteOffset":0},{"name":"polygon1_1_0_positions","componentType":5126,"count":830,"min":[-3.399894952774048,-0.014178000390529633,-3.2501220703125],"max":[4.016557216644287,10.569089889526367,2.222585916519165],"type":"VEC3","bufferView":0,"byteOffset":360},{"name":"polygon1_1_0_normals","componentType":5126,"count":830,"min":[-0.9999818205833435,-0.999994158744812,-0.9996634721755981],"max":[0.9999818205833435,0.999994158744812,0.9993157386779785],"type":"VEC3","bufferView":1,"byteOffset":360},{"name":"polygon1_1_0_texcoords","componentType":5126,"count":830,"min":[0.014739999547600746,0],"max":[0.9916989803314209,1],"type":"VEC2","bufferView":2,"byteOffset":240},{"name":"polygon1_1_0_indices","componentType":5123,"count":4146,"min":[0],"max":[829],"type":"SCALAR","bufferView":3,"byteOffset":240},{"name":"polygon2_1_0_positions","componentType":5126,"count":16,"min":[-1.2692509889602661,2.293782949447632,1.6155710220336914],"max":[1.2692500352859497,2.746411085128784,2.029299020767212],"type":"VEC3","bufferView":0,"byteOffset":10320},{"name":"polygon2_1_0_normals","componentType":5126,"count":16,"min":[-0.5996893644332886,0.2836899161338806,0.6612793207168579],"max":[0.5996893644332886,0.5882520079612732,0.8473477363586426],"type":"VEC3","bufferView":1,"byteOffset":10320},{"name":"polygon2_1_0_texcoords","componentType":5126,"count":16,"min":[-0.04559300094842911,0.019164999946951866],"max":[0.5791019797325134,0.24188199639320374],"type":"VEC2","bufferView":2,"byteOffset":6880},{"name":"polygon2_1_0_indices","componentType":5123,"count":42,"min":[0],"max":[15],"type":"SCALAR","bufferView":3,"byteOffset":8532}],"asset":{"generator":"obj2gltf","version":"2.0"},"buffers":[{"name":"Hoppip","byteLength":380768,"uri":"data:application/octet-stream;base64,"}],"bufferViews":[{"name":"bufferView_0","buffer":0,"byteLength":10512,"byteOffset":0,"byteStride":12,"target":34962},{"name":"bufferView_1","buffer":0,"byteLength":10512,"byteOffset":10512,"byteStride":12,"target":34962},{"name":"bufferView_2","buffer":0,"byteLength":7008,"byteOffset":21024,"byteStride":8,"target":34962},{"name":"bufferView_3","buffer":0,"byteLength":8616,"byteOffset":28032,"target":34963},{"buffer":0,"byteOffset":36648,"byteLength":49170},{"buffer":0,"byteOffset":85818,"byteLength":196626},{"buffer":0,"byteOffset":282444,"byteLength":98322}],"images":[{"name":"HaneccoMouthDh","mimeType":"image/x-tga","bufferView":4},{"name":"HaneccoDh","mimeType":"image/x-tga","bufferView":5},{"name":"HaneccoEyeDh","mimeType":"image/x-tga","bufferView":6}],"materials":[{"name":"mat3","pbrMetallicRoughness":{"baseColorTexture":{"index":0},"baseColorFactor":[1,1,1,1],"metallicFactor":0,"roughnessFactor":0.99},"emissiveFactor":[0,0,0],"alphaMode":"OPAQUE","doubleSided":false},{"name":"mat1","pbrMetallicRoughness":{"baseColorTexture":{"index":1},"baseColorFactor":[1,1,1,1],"metallicFactor":0,"roughnessFactor":0.99},"emissiveFactor":[0,0,0],"alphaMode":"OPAQUE","doubleSided":false},{"name":"mat2","pbrMetallicRoughness":{"baseColorTexture":{"index":2},"baseColorFactor":[1,1,1,1],"metallicFactor":0,"roughnessFactor":0.99},"emissiveFactor":[0,0,0],"alphaMode":"OPAQUE","doubleSided":false}],"meshes":[{"name":"polygon0_1","primitives":[{"attributes":{"POSITION":0,"NORMAL":1,"TEXCOORD_0":2},"indices":3,"material":0,"mode":4}]},{"name":"polygon1_1","primitives":[{"attributes":{"POSITION":4,"NORMAL":5,"TEXCOORD_0":6},"indices":7,"material":1,"mode":4}]},{"name":"polygon2_1","primitives":[{"attributes":{"POSITION":8,"NORMAL":9,"TEXCOORD_0":10},"indices":11,"material":2,"mode":4}]}],"nodes":[{"name":"polygon0","mesh":0},{"name":"polygon1","mesh":1},{"name":"polygon2","mesh":2}],"samplers":[{"wrapS":10497,"wrapT":10497}],"scene":0,"scenes":[{"nodes":[0,1,2]}],"textures":[{"name":"HaneccoMouthDh","sampler":0,"source":0},{"name":"HaneccoDh","sampler":0,"source":1},{"name":"HaneccoEyeDh","sampler":0,"source":2}]}