{"accessors":[{"name":"polygon0_1_0_positions","componentType":5126,"count":22,"min":[-1.4786700010299683,2.0719990730285645,2.8280019760131836],"max":[1.4786690473556519,3.7256929874420166,3.2710609436035156],"type":"VEC3","bufferView":0,"byteOffset":0},{"name":"polygon0_1_0_normals","componentType":5126,"count":22,"min":[-0.4755859076976776,-0.39020293951034546,0.8541797399520874],"max":[0.4755859076976776,0.478933185338974,0.9992974996566772],"type":"VEC3","bufferView":1,"byteOffset":0},{"name":"polygon0_1_0_texcoords","componentType":5126,"count":22,"min":[0.013123000040650368,-0.0001829999964684248],"max":[0.8851929903030396,0.2629390060901642],"type":"VEC2","bufferView":2,"byteOffset":0},{"name":"polygon0_1_0_indices","componentType":5123,"count":84,"min":[0],"max":[21],"type":"SCALAR","bufferView":3,"byteOffset":0},{"name":"polygon1_1_0_positions","componentType":5126,"count":932,"min":[-5.586566925048828,0.013686999678611755,-4.050514221191406],"max":[5.586565017700195,6.1973419189453125,3.307831048965454],"type":"VEC3","bufferView":0,"byteOffset":264},{"name":"polygon1_1_0_normals","componentType":5126,"count":932,"min":[-0.9999246597290039,-0.99994295835495,-0.9999958872795105],"max":[0.9999246597290039,0.9999958872795105,0.9994404911994934],"type":"VEC3","bufferView":1,"byteOffset":264},{"name":"polygon1_1_0_texcoords","componentType":5126,"count":932,"min":[0.006041999906301498,0.007598999887704849],"max":[0.9975280165672302,0.9945979714393616],"type":"VEC2","bufferView":2,"byteOffset":176},{"name":"polygon1_1_0_indices","componentType":5123,"count":4440,"min":[0],"max":[931],"type":"SCALAR","bufferView":3,"byteOffset":168},{"name":"polygon2_1_0_positions","componentType":5126,"count":10,"min":[-1.4786700010299683,3.387598991394043,2.4747509956359863],"max":[1.4786690473556519,4.020598888397217,2.853677988052368],"type":"VEC3","bufferView":0,"byteOffset":11448},{"name":"polygon2_1_0_normals","componentType":5126,"count":10,"min":[-0.42907604575157166,0.29474306106567383,0.7131199836730957],"max":[0.42907604575157166,0.5767710208892822,0.8599971532821655],"type":"VEC3","bufferView":1,"byteOffset":11448},{"name":"polygon2_1_0_texcoords","componentType":5126,"count":10,"min":[-0.05212400108575821,0.007201999891549349],"max":[0.5437620282173157,0.31707799434661865],"type":"VEC2","bufferView":2,"byteOffset":7632},{"name":"polygon2_1_0_indices","componentType":5123,"count":18,"min":[0],"max":[9],"type":"SCALAR","bufferView":3,"byteOffset":9048}],"asset":{"generator":"obj2gltf","version":"2.0"},"buffers":[{"name":"Skiploom","byteLength":384052,"uri":"data:application/octet-stream;base64,"}],"bufferViews":[{"name":"bufferView_0","buffer":0,"byteLength":11568,"byteOffset":0,"byteStride":12,"target":34962},{"name":"bufferView_1","buffer":0,"byteLength":11568,"byteOffset":11568,"byteStride":12,"target":34962},{"name":"bufferView_2","buffer":0,"byteLength":7712,"byteOffset":23136,"byteStride":8,"target":34962},{"name":"bufferView_3","buffer":0,"byteLength":9084,"byteOffset":30848,"target":34963},{"buffer":0,"byteOffset":39932,"byteLength":49170},{"buffer":0,"byteOffset":89102,"byteLength":196626},{"buffer":0,"byteOffset":285728,"byteLength":98322}],"images":[{"name":"PopoccoMouthDh","mimeType":"image/x-tga","bufferView":4},{"name":"PopoccoDh","mimeType":"image/x-tga","bufferView":5},{"name":"PopoccoEyeDh","mimeType":"image/x-tga","bufferView":6}],"materials":[{"name":"mat3","pbrMetallicRoughness":{"baseColorTexture":{"index":0},"baseColorFactor":[1,1,1,1],"metallicFactor":0,"roughnessFactor":0.99},"emissiveFactor":[0,0,0],"alphaMode":"OPAQUE","doubleSided":false},{"name":"mat1","pbrMetallicRoughness":{"baseColorTexture":{"index":1},"baseColorFactor":[1,1,1,1],"metallicFactor":0,"roughnessFactor":0.99},"emissiveFactor":[0,0,0],"alphaMode":"OPAQUE","doubleSided":false},{"name":"mat2","pbrMetallicRoughness":{"baseColorTexture":{"index":2},"baseColorFactor":[1,1,1,1],"metallicFactor":0,"roughnessFactor":0.99},"emissiveFactor":[0,0,0],"alphaMode":"OPAQUE","doubleSided":false}],"meshes":[{"name":"polygon0_1","primitives":[{"attributes":{"POSITION":0,"NORMAL":1,"TEXCOORD_0":2},"indices":3,"material":0,"mode":4}]},{"name":"polygon1_1","primitives":[{"attributes":{"POSITION":4,"NORMAL":5,"TEXCOORD_0":6},"indices":7,"material":1,"mode":4}]},{"name":"polygon2_1","primitives":[{"attributes":{"POSITION":8,"NORMAL":9,"TEXCOORD_0":10},"indices":11,"material":2,"mode":4}]}],"nodes":[{"name":"polygon0","mesh":0},{"name":"polygon1","mesh":1},{"name":"polygon2","mesh":2}],"samplers":[{"wrapS":10497,"wrapT":10497}],"scene":0,"scenes":[{"nodes":[0,1,2]}],"textures":[{"name":"PopoccoMouthDh","sampler":0,"source":0},{"name":"PopoccoDh","sampler":0,"source":1},{"name":"PopoccoEyeDh","sampler":0,"source":2}]}