{"accessors":[{"name":"polygon0_1_0_positions","componentType":5126,"count":4,"min":[-2.0110299587249756,4.207420825958252,0],"max":[2.0110299587249756,8.22948169708252,0],"type":"VEC3","bufferView":0,"byteOffset":0},{"name":"polygon0_1_0_normals","componentType":5126,"count":4,"min":[0,0,1],"max":[0,0,1],"type":"VEC3","bufferView":1,"byteOffset":0},{"name":"polygon0_1_0_texcoords","componentType":5126,"count":4,"min":[0,0],"max":[1,1],"type":"VEC2","bufferView":2,"byteOffset":0},{"name":"polygon0_1_0_indices","componentType":5123,"count":6,"min":[0],"max":[3],"type":"SCALAR","bufferView":3,"byteOffset":0},{"name":"polygon1_1_0_positions","componentType":5126,"count":4,"min":[2.0841429233551025,0.9582329988479614,0],"max":[4.875856876373291,3.749948024749756,0],"type":"VEC3","bufferView":0,"byteOffset":48},{"name":"polygon1_1_0_normals","componentType":5126,"count":4,"min":[0,0,1],"max":[0,0,1],"type":"VEC3","bufferView":1,"byteOffset":48},{"name":"polygon1_1_0_texcoords","componentType":5126,"count":4,"min":[0,0],"max":[1,1],"type":"VEC2","bufferView":2,"byteOffset":32},{"name":"polygon1_1_0_indices","componentType":5123,"count":6,"min":[0],"max":[3],"type":"SCALAR","bufferView":3,"byteOffset":12},{"name":"polygon2_1_0_positions","componentType":5126,"count":4,"min":[-4.875856876373291,0.9582329988479614,0],"max":[-2.0841429233551025,3.749948024749756,0],"type":"VEC3","bufferView":0,"byteOffset":96},{"name":"polygon2_1_0_normals","componentType":5126,"count":4,"min":[0,0,1],"max":[0,0,1],"type":"VEC3","bufferView":1,"byteOffset":96},{"name":"polygon2_1_0_texcoords","componentType":5126,"count":4,"min":[0,0],"max":[1,1],"type":"VEC2","bufferView":2,"byteOffset":64},{"name":"polygon2_1_0_indices","componentType":5123,"count":6,"min":[0],"max":[3],"type":"SCALAR","bufferView":3,"byteOffset":24},{"name":"polygon3_1_0_positions","componentType":5126,"count":18,"min":[-0.9220460057258606,3.0990989208221436,1.248000979423523],"max":[0.9220460057258606,3.4689090251922607,1.61434805393219],"type":"VEC3","bufferView":0,"byteOffset":144},{"name":"polygon3_1_0_normals","componentType":5126,"count":18,"min":[-0.528616189956665,0.35863804817199707,0.6437179446220398],"max":[0.528616189956665,0.6406891942024231,0.8766830563545227],"type":"VEC3","bufferView":1,"byteOffset":144},{"name":"polygon3_1_0_texcoords","componentType":5126,"count":18,"min":[0.039062999188899994,0.027343999594449997],"max":[0.453125,0.2304690033197403],"type":"VEC2","bufferView":2,"byteOffset":96},{"name":"polygon3_1_0_indices","componentType":5123,"count":48,"min":[0],"max":[17],"type":"SCALAR","bufferView":3,"byteOffset":36},{"name":"polygon4_1_0_positions","componentType":5126,"count":663,"min":[-2.360585927963257,0.014144999906420708,-2.39326810836792],"max":[2.360585927963257,4.650117874145508,1.8845629692077637],"type":"VEC3","bufferView":0,"byteOffset":360},{"name":"polygon4_1_0_normals","componentType":5126,"count":663,"min":[-1,-1,-1],"max":[1,1,1],"type":"VEC3","bufferView":1,"byteOffset":360},{"name":"polygon4_1_0_texcoords","componentType":5126,"count":663,"min":[0.00897200033068657,0.006316999904811382],"max":[0.9871519804000854,0.9988099932670593],"type":"VEC2","bufferView":2,"byteOffset":240},{"name":"polygon4_1_0_indices","componentType":5123,"count":3540,"min":[0],"max":[662],"type":"SCALAR","bufferView":3,"byteOffset":132},{"name":"polygon5_1_0_positions","componentType":5126,"count":14,"min":[-0.712336003780365,2.2834761142730713,1.5353549718856812],"max":[0.7123349905014038,3.1471691131591797,1.8845629692077637],"type":"VEC3","bufferView":0,"byteOffset":8316},{"name":"polygon5_1_0_normals","componentType":5126,"count":14,"min":[-0.3809150457382202,0.01733299531042576,0.8522220849990845],"max":[0.3809150457382202,0.44953128695487976,0.999849796295166],"type":"VEC3","bufferView":1,"byteOffset":8316},{"name":"polygon5_1_0_texcoords","componentType":5126,"count":14,"min":[0.01202400028705597,0.017578000202775],"max":[0.9531559944152832,0.247406005859375],"type":"VEC2","bufferView":2,"byteOffset":5544},{"name":"polygon5_1_0_indices","componentType":5123,"count":48,"min":[0],"max":[13],"type":"SCALAR","bufferView":3,"byteOffset":7212}],"asset":{"generator":"obj2gltf","version":"2.0"},"buffers":[{"name":"Jumpluff","byteLength":439604,"uri":"data:application/octet-stream;base64,"}],"bufferViews":[{"name":"bufferView_0","buffer":0,"byteLength":8484,"byteOffset":0,"byteStride":12,"target":34962},{"name":"bufferView_1","buffer":0,"byteLength":8484,"byteOffset":8484,"byteStride":12,"target":34962},{"name":"bufferView_2","buffer":0,"byteLength":5656,"byteOffset":16968,"byteStride":8,"target":34962},{"name":"bufferView_3","buffer":0,"byteLength":7308,"byteOffset":22624,"target":34963},{"buffer":0,"byteOffset":29932,"byteLength":65554},{"buffer":0,"byteOffset":95486,"byteLength":98322},{"buffer":0,"byteOffset":193808,"byteLength":196626},{"buffer":0,"byteOffset":390434,"byteLength":49170}],"images":[{"name":"WataccoWataDh","mimeType":"image/x-tga","bufferView":4},{"name":"WataccoEyeDh","mimeType":"image/x-tga","bufferView":5},{"name":"WataccoDh","mimeType":"image/x-tga","bufferView":6},{"name":"WataccoMouthDh","mimeType":"image/x-tga","bufferView":7}],"materials":[{"name":"mat4","pbrMetallicRoughness":{"baseColorTexture":{"index":0},"baseColorFactor":[1,1,1,1],"metallicFactor":0,"roughnessFactor":0.99},"emissiveFactor":[0,0,0],"alphaMode":"OPAQUE","doubleSided":false},{"name":"mat2","pbrMetallicRoughness":{"baseColorTexture":{"index":1},"baseColorFactor":[1,1,1,1],"metallicFactor":0,"roughnessFactor":0.99},"emissiveFactor":[0,0,0],"alphaMode":"OPAQUE","doubleSided":false},{"name":"mat1","pbrMetallicRoughness":{"baseColorTexture":{"index":2},"baseColorFactor":[1,1,1,1],"metallicFactor":0,"roughnessFactor":0.99},"emissiveFactor":[0,0,0],"alphaMode":"OPAQUE","doubleSided":false},{"name":"mat3","pbrMetallicRoughness":{"baseColorTexture":{"index":3},"baseColorFactor":[1,1,1,1],"metallicFactor":0,"roughnessFactor":0.99},"emissiveFactor":[0,0,0],"alphaMode":"OPAQUE","doubleSided":false}],"meshes":[{"name":"polygon0_1","primitives":[{"attributes":{"POSITION":0,"NORMAL":1,"TEXCOORD_0":2},"indices":3,"material":0,"mode":4}]},{"name":"polygon1_1","primitives":[{"attributes":{"POSITION":4,"NORMAL":5,"TEXCOORD_0":6},"indices":7,"material":0,"mode":4}]},{"name":"polygon2_1","primitives":[{"attributes":{"POSITION":8,"NORMAL":9,"TEXCOORD_0":10},"indices":11,"material":0,"mode":4}]},{"name":"polygon3_1","primitives":[{"attributes":{"POSITION":12,"NORMAL":13,"TEXCOORD_0":14},"indices":15,"material":1,"mode":4}]},{"name":"polygon4_1","primitives":[{"attributes":{"POSITION":16,"NORMAL":17,"TEXCOORD_0":18},"indices":19,"material":2,"mode":4}]},{"name":"polygon5_1","primitives":[{"attributes":{"POSITION":20,"NORMAL":21,"TEXCOORD_0":22},"indices":23,"material":3,"mode":4}]}],"nodes":[{"name":"polygon0","mesh":0},{"name":"polygon1","mesh":1},{"name":"polygon2","mesh":2},{"name":"polygon3","mesh":3},{"name":"polygon4","mesh":4},{"name":"polygon5","mesh":5}],"samplers":[{"wrapS":10497,"wrapT":10497}],"scene":0,"scenes":[{"nodes":[0,1,2,3,4,5]}],"textures":[{"name":"WataccoWataDh","sampler":0,"source":0},{"name":"WataccoEyeDh","sampler":0,"source":1},{"name":"WataccoDh","sampler":0,"source":2},{"name":"WataccoMouthDh","sampler":0,"source":3}]}