{"accessors":[{"name":"polygon0_1_0_positions","componentType":5126,"count":42,"min":[-1.756788969039917,4.022414207458496,0.8965709805488586],"max":[1.756788969039917,6.118125915527344,2.274350881576538],"type":"VEC3","bufferView":0,"byteOffset":0},{"name":"polygon0_1_0_normals","componentType":5126,"count":42,"min":[-0.768314778804779,-0.9005188941955566,0.21899399161338806],"max":[0.768314778804779,0.45262497663497925,0.9944739937782288],"type":"VEC3","bufferView":1,"byteOffset":0},{"name":"polygon0_1_0_texcoords","componentType":5126,"count":42,"min":[-0.9781489968299866,0.003722999943420291],"max":[-0.7586060166358948,0.48632800579071045],"type":"VEC2","bufferView":2,"byteOffset":0},{"name":"polygon0_1_0_indices","componentType":5123,"count":180,"min":[0],"max":[41],"type":"SCALAR","bufferView":3,"byteOffset":0},{"name":"polygon1_1_0_positions","componentType":5126,"count":944,"min":[-3.5463500022888184,-9.999999974752427e-7,-9.669135093688965],"max":[3.5463500022888184,8.489702224731445,2.1141889095306396],"type":"VEC3","bufferView":0,"byteOffset":504},{"name":"polygon1_1_0_normals","componentType":5126,"count":944,"min":[-0.9999977946281433,-0.9999982118606567,-0.9995262622833252],"max":[0.9999977946281433,0.9999982118606567,0.999458372592926],"type":"VEC3","bufferView":1,"byteOffset":504},{"name":"polygon1_1_0_texcoords","componentType":5126,"count":944,"min":[0.008635999634861946,0.004120000172406435],"max":[0.9930419921875,0.9761959910392761],"type":"VEC2","bufferView":2,"byteOffset":336},{"name":"polygon1_1_0_indices","componentType":5123,"count":4416,"min":[0],"max":[943],"type":"SCALAR","bufferView":3,"byteOffset":360}],"asset":{"generator":"obj2gltf","version":"2.0"},"buffers":[{"name":"Aipom","byteLength":433996,"uri":"data:application/octet-stream;base64,"}],"bufferViews":[{"name":"bufferView_0","buffer":0,"byteLength":11832,"byteOffset":0,"byteStride":12,"target":34962},{"name":"bufferView_1","buffer":0,"byteLength":11832,"byteOffset":11832,"byteStride":12,"target":34962},{"name":"bufferView_2","buffer":0,"byteLength":7888,"byteOffset":23664,"byteStride":8,"target":34962},{"name":"bufferView_3","buffer":0,"byteLength":9192,"byteOffset":31552,"target":34963},{"buffer":0,"byteOffset":40744,"byteLength":196626},{"buffer":0,"byteOffset":237370,"byteLength":196626}],"images":[{"name":"EipamEyeDh","mimeType":"image/x-tga","bufferView":4},{"name":"EipamDh","mimeType":"image/x-tga","bufferView":5}],"materials":[{"name":"mat2","pbrMetallicRoughness":{"baseColorTexture":{"index":0},"baseColorFactor":[1,1,1,1],"metallicFactor":0,"roughnessFactor":0.99},"emissiveFactor":[0,0,0],"alphaMode":"OPAQUE","doubleSided":false},{"name":"mat1","pbrMetallicRoughness":{"baseColorTexture":{"index":1},"baseColorFactor":[1,1,1,1],"metallicFactor":0,"roughnessFactor":0.99},"emissiveFactor":[0,0,0],"alphaMode":"OPAQUE","doubleSided":false}],"meshes":[{"name":"polygon0_1","primitives":[{"attributes":{"POSITION":0,"NORMAL":1,"TEXCOORD_0":2},"indices":3,"material":0,"mode":4}]},{"name":"polygon1_1","primitives":[{"attributes":{"POSITION":4,"NORMAL":5,"TEXCOORD_0":6},"indices":7,"material":1,"mode":4}]}],"nodes":[{"name":"polygon0","mesh":0},{"name":"polygon1","mesh":1}],"samplers":[{"wrapS":10497,"wrapT":10497}],"scene":0,"scenes":[{"nodes":[0,1]}],"textures":[{"name":"EipamEyeDh","sampler":0,"source":0},{"name":"EipamDh","sampler":0,"source":1}]}