{"accessors":[{"name":"himanuts-Mesh_0_positions","componentType":5126,"count":37,"min":[-0.9639269709587097,-0.32118600606918335,-5.028079986572266],"max":[0.9639269709587097,0.30486199259757996,-3.495500087738037],"type":"VEC3","bufferView":0,"byteOffset":0},{"name":"himanuts-Mesh_0_texcoords","componentType":5126,"count":37,"min":[0.0041669998317956924,-4.569930076599121],"max":[0.9910709857940674,5.620729923248291],"type":"VEC2","bufferView":1,"byteOffset":0},{"name":"himanuts-Mesh_0_indices","componentType":5123,"count":120,"min":[0],"max":[36],"type":"SCALAR","bufferView":2,"byteOffset":0},{"name":"himanuts-Mesh_1_positions","componentType":5126,"count":100,"min":[-0.8694000244140625,-0.6802499890327454,-5.276350021362305],"max":[0.8694000244140625,0.7087050080299377,-3.33092999458313],"type":"VEC3","bufferView":0,"byteOffset":444},{"name":"himanuts-Mesh_1_texcoords","componentType":5126,"count":100,"min":[-0.4403640031814575,-1.243749976158142],"max":[1.512410044670105,6.036459922790527],"type":"VEC2","bufferView":1,"byteOffset":296},{"name":"himanuts-Mesh_1_indices","componentType":5123,"count":348,"min":[0],"max":[99],"type":"SCALAR","bufferView":2,"byteOffset":240},{"name":"himanuts-Mesh_2_positions","componentType":5126,"count":8,"min":[-0.22751499712467194,-0.2751449942588806,-3.404680013656616],"max":[0.22751499712467194,0.28871700167655945,-3.292710065841675],"type":"VEC3","bufferView":0,"byteOffset":1644},{"name":"himanuts-Mesh_2_texcoords","componentType":5126,"count":8,"min":[-0.06845500320196152,-1.2350499629974365],"max":[1.0684599876403809,2.112790107727051],"type":"VEC2","bufferView":1,"byteOffset":1096},{"name":"himanuts-Mesh_2_indices","componentType":5123,"count":21,"min":[0],"max":[7],"type":"SCALAR","bufferView":2,"byteOffset":936},{"name":"himanuts-Mesh_3_positions","componentType":5126,"count":20,"min":[-0.8067439794540405,-0.3622649908065796,-3.7588698863983154],"max":[0.8067439794540405,0.35420000553131104,-3.312920093536377],"type":"VEC3","bufferView":0,"byteOffset":1740},{"name":"himanuts-Mesh_3_texcoords","componentType":5126,"count":20,"min":[-0.1956849992275238,-1.7906299829483032],"max":[1.313480019569397,2.833980083465576],"type":"VEC2","bufferView":1,"byteOffset":1160},{"name":"himanuts-Mesh_3_indices","componentType":5123,"count":54,"min":[0],"max":[19],"type":"SCALAR","bufferView":2,"byteOffset":980},{"name":"himanuts-Mesh_4_positions","componentType":5126,"count":70,"min":[-0.994392991065979,-0.6473389863967896,-5.7776198387146],"max":[0.994392991065979,0.7166829705238342,-4.384620189666748],"type":"VEC3","bufferView":0,"byteOffset":1980},{"name":"himanuts-Mesh_4_texcoords","componentType":5126,"count":70,"min":[0,-1.28125],"max":[1,-0.7206699848175049],"type":"VEC2","bufferView":1,"byteOffset":1320},{"name":"himanuts-Mesh_4_indices","componentType":5123,"count":321,"min":[0],"max":[69],"type":"SCALAR","bufferView":2,"byteOffset":1088},{"name":"himanuts-Mesh_5_positions","componentType":5126,"count":6,"min":[-0.3176040053367615,-0.12416300177574158,-4.692969799041748],"max":[0.3176040053367615,0.706479012966156,-4.2128400802612305],"type":"VEC3","bufferView":0,"byteOffset":2820},{"name":"himanuts-Mesh_5_texcoords","componentType":5126,"count":6,"min":[-0.0024590000975877047,-0.000859999970998615],"max":[0.9974939823150635,0.4145520031452179],"type":"VEC2","bufferView":1,"byteOffset":1880},{"name":"himanuts-Mesh_5_indices","componentType":5123,"count":12,"min":[0],"max":[5],"type":"SCALAR","bufferView":2,"byteOffset":1732},{"name":"himanuts-Mesh_6_positions","componentType":5126,"count":14,"min":[-0.24065600335597992,-0.6802499890327454,-5.011919975280762],"max":[0.24065600335597992,-0.2751449942588806,-3.33092999458313],"type":"VEC3","bufferView":0,"byteOffset":2892},{"name":"himanuts-Mesh_6_texcoords","componentType":5126,"count":14,"min":[-0.05022300034761429,-0.35795000195503235],"max":[1.0463199615478516,3.6107699871063232],"type":"VEC2","bufferView":1,"byteOffset":1928},{"name":"himanuts-Mesh_6_indices","componentType":5123,"count":36,"min":[0],"max":[13],"type":"SCALAR","bufferView":2,"byteOffset":1756},{"name":"himanuts-Mesh_7_positions","componentType":5126,"count":12,"min":[-0.6424689888954163,-0.33557000756263733,-5.525680065155029],"max":[0.6424689888954163,0.33557000756263733,-5.300380229949951],"type":"VEC3","bufferView":0,"byteOffset":3060},{"name":"himanuts-Mesh_7_texcoords","componentType":5126,"count":12,"min":[0.2797339856624603,0.6314889788627625],"max":[0.820114016532898,0.935259997844696],"type":"VEC2","bufferView":1,"byteOffset":2040},{"name":"himanuts-Mesh_7_indices","componentType":5123,"count":48,"min":[0],"max":[11],"type":"SCALAR","bufferView":2,"byteOffset":1828},{"name":"himanuts-Mesh_8_positions","componentType":5126,"count":8,"min":[-0.05208899825811386,-0.05182800069451332,-5.847280025482178],"max":[0.05208899825811386,0.05182800069451332,-5.525680065155029],"type":"VEC3","bufferView":0,"byteOffset":3204},{"name":"himanuts-Mesh_8_texcoords","componentType":5126,"count":8,"min":[0.18204300105571747,0.5976009964942932],"max":[0.31114599108695984,0.6612340211868286],"type":"VEC2","bufferView":1,"byteOffset":2136},{"name":"himanuts-Mesh_8_indices","componentType":5123,"count":24,"min":[0],"max":[7],"type":"SCALAR","bufferView":2,"byteOffset":1924},{"name":"himanuts-Mesh_9_positions","componentType":5126,"count":8,"min":[-0.04562100023031235,-0.04527699947357178,-5.893030166625977],"max":[0.04562100023031235,0.04527699947357178,-5.847280025482178],"type":"VEC3","bufferView":0,"byteOffset":3300},{"name":"himanuts-Mesh_9_texcoords","componentType":5126,"count":8,"min":[0.09325499832630157,0.5816559791564941],"max":[0.20434799790382385,0.6290119886398315],"type":"VEC2","bufferView":1,"byteOffset":2200},{"name":"himanuts-Mesh_9_indices","componentType":5123,"count":24,"min":[0],"max":[7],"type":"SCALAR","bufferView":2,"byteOffset":1972},{"name":"himanuts-Mesh_10_positions","componentType":5126,"count":52,"min":[0.19153200089931488,0.021212000399827957,-4.884689807891846],"max":[0.6371150016784668,0.6925830245018005,-4.416830062866211],"type":"VEC3","bufferView":0,"byteOffset":3396},{"name":"himanuts-Mesh_10_texcoords","componentType":5126,"count":52,"min":[0.10623099654912949,0.007191999815404415],"max":[0.9293429851531982,0.08692599833011627],"type":"VEC2","bufferView":1,"byteOffset":2264},{"name":"himanuts-Mesh_10_indices","componentType":5123,"count":300,"min":[0],"max":[51],"type":"SCALAR","bufferView":2,"byteOffset":2020},{"name":"himanuts-Mesh_11_positions","componentType":5126,"count":52,"min":[-0.6371150016784668,0.021212000399827957,-4.884689807891846],"max":[-0.19153200089931488,0.6925830245018005,-4.416830062866211],"type":"VEC3","bufferView":0,"byteOffset":4020},{"name":"himanuts-Mesh_11_texcoords","componentType":5126,"count":52,"min":[0.10623099654912949,0.004350999835878611],"max":[0.9293429851531982,0.08408500254154205],"type":"VEC2","bufferView":1,"byteOffset":2680},{"name":"himanuts-Mesh_11_indices","componentType":5123,"count":300,"min":[0],"max":[51],"type":"SCALAR","bufferView":2,"byteOffset":2620},{"name":"himanuts-Mesh_12_positions","componentType":5126,"count":11,"min":[-0.22076299786567688,0.24291600286960602,-3.9108800888061523],"max":[0.22076299786567688,0.6265000104904175,-3.359369993209839],"type":"VEC3","bufferView":0,"byteOffset":4644},{"name":"himanuts-Mesh_12_texcoords","componentType":5126,"count":11,"min":[-0.06698700040578842,0.25219398736953735],"max":[1.0669900178909302,1.1869159936904907],"type":"VEC2","bufferView":1,"byteOffset":3096},{"name":"himanuts-Mesh_12_indices","componentType":5123,"count":24,"min":[0],"max":[10],"type":"SCALAR","bufferView":2,"byteOffset":3220},{"name":"himanuts-Mesh_13_positions","componentType":5126,"count":4,"min":[-0.21910099685192108,0.5992239713668823,-3.9342200756073],"max":[0.2190999984741211,0.6679409742355347,-3.751919984817505],"type":"VEC3","bufferView":0,"byteOffset":4776},{"name":"himanuts-Mesh_13_texcoords","componentType":5126,"count":4,"min":[-0.024553999304771423,-0.02507999911904335],"max":[1.029129981994629,0.25219398736953735],"type":"VEC2","bufferView":1,"byteOffset":3184},{"name":"himanuts-Mesh_13_indices","componentType":5123,"count":6,"min":[0],"max":[3],"type":"SCALAR","bufferView":2,"byteOffset":3268},{"name":"himanuts-Mesh_14_positions","componentType":5126,"count":5,"min":[-0.21910099685192108,0.6265000104904175,-4.116509914398193],"max":[0.2190999984741211,0.7366229891777039,-3.9108800888061523],"type":"VEC3","bufferView":0,"byteOffset":4824},{"name":"himanuts-Mesh_14_texcoords","componentType":5126,"count":5,"min":[0.23543499410152435,-0.3023500144481659],"max":[1.029129981994629,0.25219398736953735],"type":"VEC2","bufferView":1,"byteOffset":3216},{"name":"himanuts-Mesh_14_indices","componentType":5123,"count":6,"min":[0],"max":[4],"type":"SCALAR","bufferView":2,"byteOffset":3280},{"name":"himanuts-Mesh_15_positions","componentType":5126,"count":85,"min":[-1.2139699459075928,-0.324180006980896,-6.234149932861328],"max":[1.2139699459075928,0.7484989762306213,-3.9108800888061523],"type":"VEC3","bufferView":0,"byteOffset":4884},{"name":"himanuts-Mesh_15_texcoords","componentType":5126,"count":85,"min":[-0.5056819915771484,-0.7274199724197388],"max":[0.9528030157089233,4.175000190734863],"type":"VEC2","bufferView":1,"byteOffset":3256},{"name":"himanuts-Mesh_15_indices","componentType":5123,"count":384,"min":[0],"max":[84],"type":"SCALAR","bufferView":2,"byteOffset":3292}],"asset":{"generator":"obj2gltf","version":"2.0"},"buffers":[{"name":"BR_Sunkern-Shiny01","byteLength":110320,"uri":"data:application/octet-stream;base64,"}],"bufferViews":[{"name":"bufferView_0","buffer":0,"byteLength":5904,"byteOffset":0,"byteStride":12,"target":34962},{"name":"bufferView_1","buffer":0,"byteLength":3936,"byteOffset":5904,"byteStride":8,"target":34962},{"name":"bufferView_2","buffer":0,"byteLength":4060,"byteOffset":9840,"target":34963},{"buffer":0,"byteOffset":13900,"byteLength":4114},{"buffer":0,"byteOffset":18014,"byteLength":8210},{"buffer":0,"byteOffset":26224,"byteLength":8210},{"buffer":0,"byteOffset":34434,"byteLength":8210},{"buffer":0,"byteOffset":42644,"byteLength":4114},{"buffer":0,"byteOffset":46758,"byteLength":8210},{"buffer":0,"byteOffset":54968,"byteLength":2066},{"buffer":0,"byteOffset":57034,"byteLength":45074},{"buffer":0,"byteOffset":102108,"byteLength":8210}],"images":[{"name":"himanuts_1_0","mimeType":"image/x-tga","bufferView":3},{"name":"himanuts_1_1","mimeType":"image/x-tga","bufferView":4},{"name":"himanuts_1_2","mimeType":"image/x-tga","bufferView":5},{"name":"himanuts_1_3","mimeType":"image/x-tga","bufferView":6},{"name":"himanuts_1_5","mimeType":"image/x-tga","bufferView":7},{"name":"himanuts_1_6","mimeType":"image/x-tga","bufferView":8},{"name":"himanuts_1_7","mimeType":"image/x-tga","bufferView":9},{"name":"himanuts_1_10","mimeType":"image/x-tga","bufferView":10},{"name":"himanuts_1_12","mimeType":"image/x-tga","bufferView":11}],"materials":[{"name":"mat_0","pbrMetallicRoughness":{"baseColorTexture":{"index":0},"baseColorFactor":[1,1,1,1],"metallicFactor":0,"roughnessFactor":0.903921569},"emissiveFactor":[0,0,0],"alphaMode":"BLEND","doubleSided":true},{"name":"mat_1","pbrMetallicRoughness":{"baseColorTexture":{"index":1},"baseColorFactor":[1,1,1,1],"metallicFactor":0,"roughnessFactor":0.903921569},"emissiveFactor":[0,0,0],"alphaMode":"BLEND","doubleSided":true},{"name":"mat_2","pbrMetallicRoughness":{"baseColorTexture":{"index":2},"baseColorFactor":[1,1,1,1],"metallicFactor":0,"roughnessFactor":0.903921569},"emissiveFactor":[0,0,0],"alphaMode":"BLEND","doubleSided":true},{"name":"mat_3","pbrMetallicRoughness":{"baseColorTexture":{"index":3},"baseColorFactor":[1,1,1,1],"metallicFactor":0,"roughnessFactor":0.903921569},"emissiveFactor":[0,0,0],"alphaMode":"BLEND","doubleSided":true},{"name":"mat_4","pbrMetallicRoughness":{"baseColorTexture":{"index":1},"baseColorFactor":[1,1,1,1],"metallicFactor":0,"roughnessFactor":0.903921569},"emissiveFactor":[0,0,0],"alphaMode":"BLEND","doubleSided":true},{"name":"mat_5","pbrMetallicRoughness":{"baseColorTexture":{"index":4},"baseColorFactor":[1,1,1,1],"metallicFactor":0,"roughnessFactor":0.903921569},"emissiveFactor":[0,0,0],"alphaMode":"BLEND","doubleSided":true},{"name":"mat_6","pbrMetallicRoughness":{"baseColorTexture":{"index":5},"baseColorFactor":[1,1,1,1],"metallicFactor":0,"roughnessFactor":0.903921569},"emissiveFactor":[0,0,0],"alphaMode":"BLEND","doubleSided":true},{"name":"mat_7","pbrMetallicRoughness":{"baseColorTexture":{"index":6},"baseColorFactor":[1,1,1,1],"metallicFactor":0,"roughnessFactor":0.903921569},"emissiveFactor":[0,0,0],"alphaMode":"BLEND","doubleSided":true},{"name":"mat_8","pbrMetallicRoughness":{"baseColorTexture":{"index":6},"baseColorFactor":[1,1,1,1],"metallicFactor":0,"roughnessFactor":0.903921569},"emissiveFactor":[0,0,0],"alphaMode":"BLEND","doubleSided":true},{"name":"mat_9","pbrMetallicRoughness":{"baseColorTexture":{"index":6},"baseColorFactor":[1,1,1,1],"metallicFactor":0,"roughnessFactor":0.903921569},"emissiveFactor":[0,0,0],"alphaMode":"BLEND","doubleSided":true},{"name":"mat_10","pbrMetallicRoughness":{"baseColorTexture":{"index":7},"baseColorFactor":[1,1,1,1],"metallicFactor":0,"roughnessFactor":0.903921569},"emissiveFactor":[0,0,0],"alphaMode":"BLEND","doubleSided":true},{"name":"mat_11","pbrMetallicRoughness":{"baseColorTexture":{"index":7},"baseColorFactor":[1,1,1,1],"metallicFactor":0,"roughnessFactor":0.903921569},"emissiveFactor":[0,0,0],"alphaMode":"BLEND","doubleSided":true},{"name":"mat_12","pbrMetallicRoughness":{"baseColorTexture":{"index":8},"baseColorFactor":[1,1,1,1],"metallicFactor":0,"roughnessFactor":0.903921569},"emissiveFactor":[0,0,0],"alphaMode":"BLEND","doubleSided":true},{"name":"mat_13","pbrMetallicRoughness":{"baseColorTexture":{"index":8},"baseColorFactor":[1,1,1,1],"metallicFactor":0,"roughnessFactor":0.903921569},"emissiveFactor":[0,0,0],"alphaMode":"BLEND","doubleSided":true},{"name":"mat_14","pbrMetallicRoughness":{"baseColorTexture":{"index":8},"baseColorFactor":[1,1,1,1],"metallicFactor":0,"roughnessFactor":0.903921569},"emissiveFactor":[0,0,0],"alphaMode":"BLEND","doubleSided":true},{"name":"mat_14_NONE","pbrMetallicRoughness":{"baseColorTexture":{"index":8},"baseColorFactor":[1,1,1,1],"metallicFactor":0,"roughnessFactor":0.903921569},"emissiveFactor":[0,0,0],"alphaMode":"BLEND","doubleSided":true}],"meshes":[{"name":"himanuts-Mesh","primitives":[{"attributes":{"POSITION":0,"TEXCOORD_0":1},"indices":2,"material":0,"mode":4},{"attributes":{"POSITION":3,"TEXCOORD_0":4},"indices":5,"material":1,"mode":4},{"attributes":{"POSITION":6,"TEXCOORD_0":7},"indices":8,"material":2,"mode":4},{"attributes":{"POSITION":9,"TEXCOORD_0":10},"indices":11,"material":3,"mode":4},{"attributes":{"POSITION":12,"TEXCOORD_0":13},"indices":14,"material":4,"mode":4},{"attributes":{"POSITION":15,"TEXCOORD_0":16},"indices":17,"material":5,"mode":4},{"attributes":{"POSITION":18,"TEXCOORD_0":19},"indices":20,"material":6,"mode":4},{"attributes":{"POSITION":21,"TEXCOORD_0":22},"indices":23,"material":7,"mode":4},{"attributes":{"POSITION":24,"TEXCOORD_0":25},"indices":26,"material":8,"mode":4},{"attributes":{"POSITION":27,"TEXCOORD_0":28},"indices":29,"material":9,"mode":4},{"attributes":{"POSITION":30,"TEXCOORD_0":31},"indices":32,"material":10,"mode":4},{"attributes":{"POSITION":33,"TEXCOORD_0":34},"indices":35,"material":11,"mode":4},{"attributes":{"POSITION":36,"TEXCOORD_0":37},"indices":38,"material":12,"mode":4},{"attributes":{"POSITION":39,"TEXCOORD_0":40},"indices":41,"material":13,"mode":4},{"attributes":{"POSITION":42,"TEXCOORD_0":43},"indices":44,"material":14,"mode":4},{"attributes":{"POSITION":45,"TEXCOORD_0":46},"indices":47,"material":15,"mode":4}]}],"nodes":[{"name":"himanuts","mesh":0}],"samplers":[{"wrapS":10497,"wrapT":10497}],"scene":0,"scenes":[{"nodes":[0]}],"textures":[{"name":"himanuts_1_0","sampler":0,"source":0},{"name":"himanuts_1_1","sampler":0,"source":1},{"name":"himanuts_1_2","sampler":0,"source":2},{"name":"himanuts_1_3","sampler":0,"source":3},{"name":"himanuts_1_5","sampler":0,"source":4},{"name":"himanuts_1_6","sampler":0,"source":5},{"name":"himanuts_1_7","sampler":0,"source":6},{"name":"himanuts_1_10","sampler":0,"source":7},{"name":"himanuts_1_12","sampler":0,"source":8}]}