{"accessors":[{"name":"kimawari-Mesh_0_positions","componentType":5126,"count":41,"min":[0.499099999666214,-1.1228179931640625,-2.7469470500946045],"max":[4.143104076385498,0.7451519966125488,-2.4400229454040527],"type":"VEC3","bufferView":0,"byteOffset":0},{"name":"kimawari-Mesh_0_texcoords","componentType":5126,"count":41,"min":[-0.0044639999978244305,0],"max":[1.0044599771499634,1],"type":"VEC2","bufferView":1,"byteOffset":0},{"name":"kimawari-Mesh_0_indices","componentType":5123,"count":96,"min":[0],"max":[40],"type":"SCALAR","bufferView":2,"byteOffset":0},{"name":"kimawari-Mesh_1_positions","componentType":5126,"count":39,"min":[-4.128915786743164,-1.1228179931640625,-2.746946096420288],"max":[-0.4849120080471039,0.7451440095901489,-2.4400219917297363],"type":"VEC3","bufferView":0,"byteOffset":492},{"name":"kimawari-Mesh_1_texcoords","componentType":5126,"count":39,"min":[-0.0044639999978244305,0],"max":[1.0044599771499634,1],"type":"VEC2","bufferView":1,"byteOffset":328},{"name":"kimawari-Mesh_1_indices","componentType":5123,"count":96,"min":[0],"max":[38],"type":"SCALAR","bufferView":2,"byteOffset":192},{"name":"kimawari-Mesh_2_positions","componentType":5126,"count":146,"min":[-2.9511361122131348,-1.3201839923858643,-5.671968936920166],"max":[1.1086440086364746,1.2416690587997437,0.027594000101089478],"type":"VEC3","bufferView":0,"byteOffset":960},{"name":"kimawari-Mesh_2_texcoords","componentType":5126,"count":146,"min":[0.04910700023174286,0.18973200023174286],"max":[0.9732139706611633,0.9583160281181335],"type":"VEC2","bufferView":1,"byteOffset":640},{"name":"kimawari-Mesh_2_indices","componentType":5123,"count":426,"min":[0],"max":[145],"type":"SCALAR","bufferView":2,"byteOffset":384},{"name":"kimawari-Mesh_3_positions","componentType":5126,"count":17,"min":[-0.9076610207557678,2.068711996078491,-5.97322416305542],"max":[0.9557549953460693,2.5592761039733887,-4.390374183654785],"type":"VEC3","bufferView":0,"byteOffset":2712},{"name":"kimawari-Mesh_3_texcoords","componentType":5126,"count":17,"min":[0.045138999819755554,0.010417000390589237],"max":[0.2847220003604889,0.8958330154418945],"type":"VEC2","bufferView":1,"byteOffset":1808},{"name":"kimawari-Mesh_3_indices","componentType":5123,"count":60,"min":[0],"max":[16],"type":"SCALAR","bufferView":2,"byteOffset":1236},{"name":"kimawari-Mesh_4_positions","componentType":5126,"count":89,"min":[-1.4715460538864136,0.15276199579238892,-7.026650905609131],"max":[1.4857230186462402,2.5592761039733887,-4.005855083465576],"type":"VEC3","bufferView":0,"byteOffset":2916},{"name":"kimawari-Mesh_4_texcoords","componentType":5126,"count":89,"min":[0.011718999594449997,0.04374999925494194],"max":[0.1679690033197403,0.9937499761581421],"type":"VEC2","bufferView":1,"byteOffset":1944},{"name":"kimawari-Mesh_4_indices","componentType":5123,"count":234,"min":[0],"max":[88],"type":"SCALAR","bufferView":2,"byteOffset":1356},{"name":"kimawari-Mesh_5_positions","componentType":5126,"count":30,"min":[-1.0929069519042969,-0.26369601488113403,-6.521323204040527],"max":[1.1070929765701294,0.5161749720573425,-4.326402187347412],"type":"VEC3","bufferView":0,"byteOffset":3984},{"name":"kimawari-Mesh_5_texcoords","componentType":5126,"count":30,"min":[0,0],"max":[1,1],"type":"VEC2","bufferView":1,"byteOffset":2656},{"name":"kimawari-Mesh_5_indices","componentType":5123,"count":96,"min":[0],"max":[29],"type":"SCALAR","bufferView":2,"byteOffset":1824},{"name":"kimawari-Mesh_6_positions","componentType":5126,"count":73,"min":[0.3138970136642456,-0.5229439735412598,-1.5965369939804077],"max":[2.96618390083313,1.2421369552612305,0.02762800082564354],"type":"VEC3","bufferView":0,"byteOffset":4344},{"name":"kimawari-Mesh_6_texcoords","componentType":5126,"count":73,"min":[0.04910700023174286,0.18973200023174286],"max":[0.9732139706611633,0.9583160281181335],"type":"VEC2","bufferView":1,"byteOffset":2896},{"name":"kimawari-Mesh_6_indices","componentType":5123,"count":132,"min":[0],"max":[72],"type":"SCALAR","bufferView":2,"byteOffset":2016}],"asset":{"generator":"obj2gltf","version":"2.0"},"buffers":[{"name":"BR_Sunflora-Shiny01","byteLength":564012,"uri":"data:application/octet-stream;base64,"}],"bufferViews":[{"name":"bufferView_0","buffer":0,"byteLength":5220,"byteOffset":0,"byteStride":12,"target":34962},{"name":"bufferView_1","buffer":0,"byteLength":3480,"byteOffset":5220,"byteStride":8,"target":34962},{"name":"bufferView_2","buffer":0,"byteLength":2280,"byteOffset":8700,"target":34963},{"buffer":0,"byteOffset":10980,"byteLength":2066},{"buffer":0,"byteOffset":13046,"byteLength":55314},{"buffer":0,"byteOffset":68360,"byteLength":491538},{"buffer":0,"byteOffset":559898,"byteLength":4114}],"images":[{"name":"kimawari_1_0","mimeType":"image/x-tga","bufferView":3},{"name":"kimawari_1_3","mimeType":"image/x-tga","bufferView":4},{"name":"kimawari_1_4","mimeType":"image/x-tga","bufferView":5},{"name":"kimawari_1_5","mimeType":"image/x-tga","bufferView":6}],"materials":[{"name":"mat_0","pbrMetallicRoughness":{"baseColorTexture":{"index":0},"baseColorFactor":[1,1,1,1],"metallicFactor":0,"roughnessFactor":0.903921569},"emissiveFactor":[0,0,0],"alphaMode":"BLEND","doubleSided":true},{"name":"mat_1","pbrMetallicRoughness":{"baseColorTexture":{"index":0},"baseColorFactor":[1,1,1,1],"metallicFactor":0,"roughnessFactor":0.903921569},"emissiveFactor":[0,0,0],"alphaMode":"BLEND","doubleSided":true},{"name":"mat_2","pbrMetallicRoughness":{"baseColorTexture":{"index":0},"baseColorFactor":[1,1,1,1],"metallicFactor":0,"roughnessFactor":0.903921569},"emissiveFactor":[0,0,0],"alphaMode":"BLEND","doubleSided":true},{"name":"mat_3","pbrMetallicRoughness":{"baseColorTexture":{"index":1},"baseColorFactor":[1,1,1,1],"metallicFactor":0,"roughnessFactor":0.903921569},"emissiveFactor":[0,0,0],"alphaMode":"BLEND","doubleSided":true},{"name":"mat_4","pbrMetallicRoughness":{"baseColorTexture":{"index":2},"baseColorFactor":[1,1,1,1],"metallicFactor":0,"roughnessFactor":0.903921569},"emissiveFactor":[0,0,0],"alphaMode":"BLEND","doubleSided":true},{"name":"mat_5","pbrMetallicRoughness":{"baseColorTexture":{"index":3},"baseColorFactor":[1,1,1,1],"metallicFactor":0,"roughnessFactor":0.903921569},"emissiveFactor":[0,0,0],"alphaMode":"BLEND","doubleSided":true},{"name":"mat_6","pbrMetallicRoughness":{"baseColorTexture":{"index":0},"baseColorFactor":[1,1,1,1],"metallicFactor":0,"roughnessFactor":0.903921569},"emissiveFactor":[0,0,0],"alphaMode":"BLEND","doubleSided":true}],"meshes":[{"name":"kimawari-Mesh","primitives":[{"attributes":{"POSITION":0,"TEXCOORD_0":1},"indices":2,"material":0,"mode":4},{"attributes":{"POSITION":3,"TEXCOORD_0":4},"indices":5,"material":1,"mode":4},{"attributes":{"POSITION":6,"TEXCOORD_0":7},"indices":8,"material":2,"mode":4},{"attributes":{"POSITION":9,"TEXCOORD_0":10},"indices":11,"material":3,"mode":4},{"attributes":{"POSITION":12,"TEXCOORD_0":13},"indices":14,"material":4,"mode":4},{"attributes":{"POSITION":15,"TEXCOORD_0":16},"indices":17,"material":5,"mode":4},{"attributes":{"POSITION":18,"TEXCOORD_0":19},"indices":20,"material":6,"mode":4}]}],"nodes":[{"name":"kimawari","mesh":0}],"samplers":[{"wrapS":10497,"wrapT":10497}],"scene":0,"scenes":[{"nodes":[0]}],"textures":[{"name":"kimawari_1_0","sampler":0,"source":0},{"name":"kimawari_1_3","sampler":0,"source":1},{"name":"kimawari_1_4","sampler":0,"source":2},{"name":"kimawari_1_5","sampler":0,"source":3}]}