{"accessors":[{"name":"Yanma_1_0_positions","componentType":5126,"count":14736,"min":[-33.569496154785156,0.8866549730300903,-57.46659851074219],"max":[33.56949996948242,54.666900634765625,54.088096618652344],"type":"VEC3","bufferView":0,"byteOffset":0},{"name":"Yanma_1_0_normals","componentType":5126,"count":14736,"min":[-0.9880462884902954,-0.9999977946281433,-0.9926408529281616],"max":[1,1,0.9900898933410645],"type":"VEC3","bufferView":1,"byteOffset":0},{"name":"Yanma_1_0_texcoords","componentType":5126,"count":14736,"min":[0.005284999962896109,0.006025000009685755],"max":[0.9947149753570557,0.9921870231628418],"type":"VEC2","bufferView":2,"byteOffset":0},{"name":"Yanma_1_0_indices","componentType":5123,"count":14736,"min":[0],"max":[14735],"type":"SCALAR","bufferView":3,"byteOffset":0},{"name":"Yanma_1_1_positions","componentType":5126,"count":306,"min":[-14.954838752746582,24.070072174072266,43.70366668701172],"max":[14.954960823059082,37.977169036865234,52.29851531982422],"type":"VEC3","bufferView":0,"byteOffset":176832},{"name":"Yanma_1_1_normals","componentType":5126,"count":306,"min":[-0.9079960584640503,-0.9903317093849182,-0.9729076027870178],"max":[0.9603022933006287,0.5656859874725342,0.9867202639579773],"type":"VEC3","bufferView":1,"byteOffset":176832},{"name":"Yanma_1_1_texcoords","componentType":5126,"count":306,"min":[0.04025999829173088,-1.9921900033950806],"max":[0.45974001288414,-1.7581499814987183],"type":"VEC2","bufferView":2,"byteOffset":117888},{"name":"Yanma_1_1_indices","componentType":5123,"count":306,"min":[0],"max":[305],"type":"SCALAR","bufferView":3,"byteOffset":29472},{"name":"Yanma_1_2_positions","componentType":5126,"count":1104,"min":[-88.66590118408203,37.62089538574219,-11.198800086975098],"max":[88.6658935546875,69.66960144042969,36.980804443359375],"type":"VEC3","bufferView":0,"byteOffset":180504},{"name":"Yanma_1_2_normals","componentType":5126,"count":1104,"min":[0,-0.8593541383743286,-0.6409158706665039],"max":[0.9956358671188354,0.9995209574699402,0.47497808933258057],"type":"VEC3","bufferView":1,"byteOffset":180504},{"name":"Yanma_1_2_texcoords","componentType":5126,"count":1104,"min":[0.007828000001609325,-0.9914199709892273],"max":[0.9921720027923584,-0.006149999797344208],"type":"VEC2","bufferView":2,"byteOffset":120336},{"name":"Yanma_1_2_indices","componentType":5123,"count":1104,"min":[0],"max":[1103],"type":"SCALAR","bufferView":3,"byteOffset":30084}],"asset":{"generator":"obj2gltf","version":"2.0"},"buffers":[{"name":"XY_Yanma","byteLength":678056,"uri":"data:application/octet-stream;base64,"}],"bufferViews":[{"name":"bufferView_0","buffer":0,"byteLength":193752,"byteOffset":0,"byteStride":12,"target":34962},{"name":"bufferView_1","buffer":0,"byteLength":193752,"byteOffset":193752,"byteStride":12,"target":34962},{"name":"bufferView_2","buffer":0,"byteLength":129168,"byteOffset":387504,"byteStride":8,"target":34962},{"name":"bufferView_3","buffer":0,"byteLength":32292,"byteOffset":516672,"target":34963},{"buffer":0,"byteOffset":548964,"byteLength":66786},{"buffer":0,"byteOffset":615750,"byteLength":30703},{"buffer":0,"byteOffset":646453,"byteLength":31601}],"images":[{"name":"pm0193_00_BodyA1","mimeType":"image/png","bufferView":4},{"name":"pm0193_00_Eye1","mimeType":"image/png","bufferView":5},{"name":"pm0193_00_BodyB1","mimeType":"image/png","bufferView":6}],"materials":[{"name":"Material__24","pbrMetallicRoughness":{"baseColorTexture":{"index":0},"baseColorFactor":[1,1,1,1],"metallicFactor":0,"roughnessFactor":0.998},"emissiveFactor":[0,0,0],"alphaMode":"OPAQUE","doubleSided":false},{"name":"Material__25","pbrMetallicRoughness":{"baseColorTexture":{"index":1},"baseColorFactor":[1,1,1,1],"metallicFactor":0,"roughnessFactor":0.998},"emissiveFactor":[0,0,0],"alphaMode":"OPAQUE","doubleSided":false},{"name":"Material__26","pbrMetallicRoughness":{"baseColorTexture":{"index":2},"baseColorFactor":[1,1,1,1],"metallicFactor":0,"roughnessFactor":0.998},"emissiveFactor":[0,0,0],"alphaMode":"OPAQUE","doubleSided":false}],"meshes":[{"name":"Yanma_1","primitives":[{"attributes":{"POSITION":0,"NORMAL":1,"TEXCOORD_0":2},"indices":3,"material":0,"mode":4},{"attributes":{"POSITION":4,"NORMAL":5,"TEXCOORD_0":6},"indices":7,"material":1,"mode":4},{"attributes":{"POSITION":8,"NORMAL":9,"TEXCOORD_0":10},"indices":11,"material":2,"mode":4}]}],"nodes":[{"name":"Yanma","mesh":0}],"samplers":[{"wrapS":10497,"wrapT":10497}],"scene":0,"scenes":[{"nodes":[0]}],"textures":[{"name":"pm0193_00_BodyA1","sampler":0,"source":0},{"name":"pm0193_00_Eye1","sampler":0,"source":1},{"name":"pm0193_00_BodyB1","sampler":0,"source":2}]}