{"accessors":[{"name":"yanyanma-Mesh_0_positions","componentType":5126,"count":31,"min":[-1.2046799659729004,-1.1898000240325928,-12.71049976348877],"max":[1.2046799659729004,1.798140048980713,-10.312100410461426],"type":"VEC3","bufferView":0,"byteOffset":0},{"name":"yanyanma-Mesh_0_texcoords","componentType":5126,"count":31,"min":[0,0.045455001294612885],"max":[1,0.9545450210571289],"type":"VEC2","bufferView":1,"byteOffset":0},{"name":"yanyanma-Mesh_0_indices","componentType":5123,"count":126,"min":[0],"max":[30],"type":"SCALAR","bufferView":2,"byteOffset":0},{"name":"yanyanma-Mesh_1_positions","componentType":5126,"count":202,"min":[-3.2575700283050537,-6.311260223388672,-13.969200134277344],"max":[3.2575900554656982,4.790450096130371,-9.70044994354248],"type":"VEC3","bufferView":0,"byteOffset":372},{"name":"yanyanma-Mesh_1_texcoords","componentType":5126,"count":202,"min":[0,0.00012700000661425292],"max":[1,0.9822210073471069],"type":"VEC2","bufferView":1,"byteOffset":248},{"name":"yanyanma-Mesh_1_indices","componentType":5123,"count":750,"min":[0],"max":[201],"type":"SCALAR","bufferView":2,"byteOffset":252},{"name":"yanyanma-Mesh_2_positions","componentType":5126,"count":3,"min":[-0.26954901218414307,-7.286970138549805,-11.791399955749512],"max":[-0.26857098937034607,-6.311260223388672,-11.372900009155273],"type":"VEC3","bufferView":0,"byteOffset":2796},{"name":"yanyanma-Mesh_2_texcoords","componentType":5126,"count":3,"min":[0.6985210180282593,0.041283998638391495],"max":[1,0.9587159752845764],"type":"VEC2","bufferView":1,"byteOffset":1864},{"name":"yanyanma-Mesh_2_indices","componentType":5123,"count":3,"min":[0],"max":[2],"type":"SCALAR","bufferView":2,"byteOffset":1752},{"name":"yanyanma-Mesh_3_positions","componentType":5126,"count":36,"min":[-8.452190399169922,-2.2816600799560547,-15.428299903869629],"max":[8.452210426330566,2.9635400772094727,-12.587599754333496],"type":"VEC3","bufferView":0,"byteOffset":2832},{"name":"yanyanma-Mesh_3_texcoords","componentType":5126,"count":36,"min":[0,0],"max":[1,1],"type":"VEC2","bufferView":1,"byteOffset":1888},{"name":"yanyanma-Mesh_3_indices","componentType":5123,"count":60,"min":[0],"max":[35],"type":"SCALAR","bufferView":2,"byteOffset":1760},{"name":"yanyanma-Mesh_4_positions","componentType":5126,"count":16,"min":[-6.802720069885254,-2.2816600799560547,-15.088800430297852],"max":[6.802740097045898,2.9635400772094727,-13.294500350952148],"type":"VEC3","bufferView":0,"byteOffset":3264},{"name":"yanyanma-Mesh_4_texcoords","componentType":5126,"count":16,"min":[0,0],"max":[1,1],"type":"VEC2","bufferView":1,"byteOffset":2176},{"name":"yanyanma-Mesh_4_indices","componentType":5123,"count":24,"min":[0],"max":[15],"type":"SCALAR","bufferView":2,"byteOffset":1880},{"name":"yanyanma-Mesh_5_positions","componentType":5126,"count":10,"min":[-0.6295419931411743,4.4011101722717285,-10.636199951171875],"max":[0.6295400261878967,4.65054988861084,-10.38230037689209],"type":"VEC3","bufferView":0,"byteOffset":3456},{"name":"yanyanma-Mesh_5_texcoords","componentType":5126,"count":10,"min":[-0.22557500004768372,0.007468000054359436],"max":[1.2255699634552002,0.9925320148468018],"type":"VEC2","bufferView":1,"byteOffset":2304},{"name":"yanyanma-Mesh_5_indices","componentType":5123,"count":18,"min":[0],"max":[9],"type":"SCALAR","bufferView":2,"byteOffset":1928},{"name":"yanyanma-Mesh_6_positions","componentType":5126,"count":22,"min":[-1.8064199686050415,3.280679941177368,-12.473600387573242],"max":[1.8064199686050415,4.392730236053467,-10.247099876403809],"type":"VEC3","bufferView":0,"byteOffset":3576},{"name":"yanyanma-Mesh_6_texcoords","componentType":5126,"count":22,"min":[-0.1960339993238449,-0.125],"max":[1.1960200071334839,0.29166701436042786],"type":"VEC2","bufferView":1,"byteOffset":2384},{"name":"yanyanma-Mesh_6_indices","componentType":5123,"count":72,"min":[0],"max":[21],"type":"SCALAR","bufferView":2,"byteOffset":1964},{"name":"yanyanma-Mesh_7_positions","componentType":5126,"count":61,"min":[-1.7814799547195435,1.849179983139038,-12.770999908447266],"max":[1.7814799547195435,4.885769844055176,-10.057700157165527],"type":"VEC3","bufferView":0,"byteOffset":3840},{"name":"yanyanma-Mesh_7_texcoords","componentType":5126,"count":61,"min":[-0.6835409998893738,-0.91593998670578],"max":[2.7974700927734375,1.9159409999847412],"type":"VEC2","bufferView":1,"byteOffset":2560},{"name":"yanyanma-Mesh_7_indices","componentType":5123,"count":294,"min":[0],"max":[60],"type":"SCALAR","bufferView":2,"byteOffset":2108},{"name":"yanyanma-Mesh_8_positions","componentType":5126,"count":99,"min":[-2.9011600017547607,-2.2973999977111816,-10.700900077819824],"max":[2.8434200286865234,1.3020100593566895,-8.189709663391113],"type":"VEC3","bufferView":0,"byteOffset":4572},{"name":"yanyanma-Mesh_8_texcoords","componentType":5126,"count":99,"min":[0,0],"max":[1,1],"type":"VEC2","bufferView":1,"byteOffset":3048},{"name":"yanyanma-Mesh_8_indices","componentType":5123,"count":360,"min":[0],"max":[98],"type":"SCALAR","bufferView":2,"byteOffset":2696}],"asset":{"generator":"obj2gltf","version":"2.0"},"buffers":[{"name":"BR_Yanma-Shiny01","byteLength":67496,"uri":"data:application/octet-stream;base64,"}],"bufferViews":[{"name":"bufferView_0","buffer":0,"byteLength":5760,"byteOffset":0,"byteStride":12,"target":34962},{"name":"bufferView_1","buffer":0,"byteLength":3840,"byteOffset":5760,"byteStride":8,"target":34962},{"name":"bufferView_2","buffer":0,"byteLength":3416,"byteOffset":9600,"target":34963},{"buffer":0,"byteOffset":13016,"byteLength":8210},{"buffer":0,"byteOffset":21226,"byteLength":4114},{"buffer":0,"byteOffset":25340,"byteLength":8210},{"buffer":0,"byteOffset":33550,"byteLength":4114},{"buffer":0,"byteOffset":37664,"byteLength":1042},{"buffer":0,"byteOffset":38706,"byteLength":24594},{"buffer":0,"byteOffset":63300,"byteLength":4114},{"buffer":0,"byteOffset":67414,"byteLength":82}],"images":[{"name":"yanyanma_1_0","mimeType":"image/x-tga","bufferView":3},{"name":"yanyanma_1_1","mimeType":"image/x-tga","bufferView":4},{"name":"yanyanma_1_2","mimeType":"image/x-tga","bufferView":5},{"name":"yanyanma_1_3","mimeType":"image/x-tga","bufferView":6},{"name":"yanyanma_1_4","mimeType":"image/x-tga","bufferView":7},{"name":"yanyanma_1_5","mimeType":"image/x-tga","bufferView":8},{"name":"yanyanma_1_6","mimeType":"image/x-tga","bufferView":9},{"name":"yanyanma_1_7","mimeType":"image/x-tga","bufferView":10}],"materials":[{"name":"mat_0","pbrMetallicRoughness":{"baseColorTexture":{"index":0},"baseColorFactor":[1,1,1,1],"metallicFactor":0,"roughnessFactor":0.903921569},"emissiveFactor":[0,0,0],"alphaMode":"BLEND","doubleSided":true},{"name":"mat_1","pbrMetallicRoughness":{"baseColorTexture":{"index":1},"baseColorFactor":[1,1,1,1],"metallicFactor":0,"roughnessFactor":0.903921569},"emissiveFactor":[0,0,0],"alphaMode":"BLEND","doubleSided":true},{"name":"mat_2","pbrMetallicRoughness":{"baseColorFactor":[0.8,0.8,0.8,1],"metallicFactor":0,"roughnessFactor":0.903921569},"emissiveFactor":[0,0,0],"alphaMode":"OPAQUE","doubleSided":false},{"name":"mat_3","pbrMetallicRoughness":{"baseColorTexture":{"index":2},"baseColorFactor":[1,1,1,1],"metallicFactor":0,"roughnessFactor":0.903921569},"emissiveFactor":[0,0,0],"alphaMode":"BLEND","doubleSided":true},{"name":"mat_4","pbrMetallicRoughness":{"baseColorTexture":{"index":3},"baseColorFactor":[1,1,1,1],"metallicFactor":0,"roughnessFactor":0.903921569},"emissiveFactor":[0,0,0],"alphaMode":"BLEND","doubleSided":true},{"name":"mat_5","pbrMetallicRoughness":{"baseColorTexture":{"index":4},"baseColorFactor":[1,1,1,1],"metallicFactor":0,"roughnessFactor":0.903921569},"emissiveFactor":[0,0,0],"alphaMode":"BLEND","doubleSided":true},{"name":"mat_6","pbrMetallicRoughness":{"baseColorTexture":{"index":5},"baseColorFactor":[1,1,1,1],"metallicFactor":0,"roughnessFactor":0.903921569},"emissiveFactor":[0,0,0],"alphaMode":"BLEND","doubleSided":true},{"name":"mat_7","pbrMetallicRoughness":{"baseColorTexture":{"index":6},"baseColorFactor":[1,1,1,1],"metallicFactor":0,"roughnessFactor":0.903921569},"emissiveFactor":[0,0,0],"alphaMode":"BLEND","doubleSided":true},{"name":"mat_8","pbrMetallicRoughness":{"baseColorTexture":{"index":7},"baseColorFactor":[1,1,1,1],"metallicFactor":0,"roughnessFactor":0.903921569},"emissiveFactor":[0,0,0],"alphaMode":"BLEND","doubleSided":true}],"meshes":[{"name":"yanyanma-Mesh","primitives":[{"attributes":{"POSITION":0,"TEXCOORD_0":1},"indices":2,"material":0,"mode":4},{"attributes":{"POSITION":3,"TEXCOORD_0":4},"indices":5,"material":1,"mode":4},{"attributes":{"POSITION":6,"TEXCOORD_0":7},"indices":8,"material":2,"mode":4},{"attributes":{"POSITION":9,"TEXCOORD_0":10},"indices":11,"material":3,"mode":4},{"attributes":{"POSITION":12,"TEXCOORD_0":13},"indices":14,"material":4,"mode":4},{"attributes":{"POSITION":15,"TEXCOORD_0":16},"indices":17,"material":5,"mode":4},{"attributes":{"POSITION":18,"TEXCOORD_0":19},"indices":20,"material":6,"mode":4},{"attributes":{"POSITION":21,"TEXCOORD_0":22},"indices":23,"material":7,"mode":4},{"attributes":{"POSITION":24,"TEXCOORD_0":25},"indices":26,"material":8,"mode":4}]}],"nodes":[{"name":"yanyanma","mesh":0}],"samplers":[{"wrapS":10497,"wrapT":10497}],"scene":0,"scenes":[{"nodes":[0]}],"textures":[{"name":"yanyanma_1_0","sampler":0,"source":0},{"name":"yanyanma_1_1","sampler":0,"source":1},{"name":"yanyanma_1_2","sampler":0,"source":2},{"name":"yanyanma_1_3","sampler":0,"source":3},{"name":"yanyanma_1_4","sampler":0,"source":4},{"name":"yanyanma_1_5","sampler":0,"source":5},{"name":"yanyanma_1_6","sampler":0,"source":6},{"name":"yanyanma_1_7","sampler":0,"source":7}]}