{"accessors":[{"name":"upah-Mesh_0_positions","componentType":5126,"count":215,"min":[-1.2858400344848633,-2.3346400260925293,-3.9423000812530518],"max":[1.2858400344848633,1.3696199655532837,0.011834999546408653],"type":"VEC3","bufferView":0,"byteOffset":0},{"name":"upah-Mesh_0_texcoords","componentType":5126,"count":215,"min":[0,0.18738900125026703],"max":[0.9632530212402344,0.8126109838485718],"type":"VEC2","bufferView":1,"byteOffset":0},{"name":"upah-Mesh_0_indices","componentType":5123,"count":1164,"min":[0],"max":[214],"type":"SCALAR","bufferView":2,"byteOffset":0},{"name":"upah-Mesh_1_positions","componentType":5126,"count":18,"min":[-0.6118710041046143,0.34194400906562805,-1.670199990272522],"max":[0.6118710041046143,0.7213180065155029,-0.4369159936904907],"type":"VEC3","bufferView":0,"byteOffset":2580},{"name":"upah-Mesh_1_texcoords","componentType":5126,"count":18,"min":[-9.999999974752427e-7,-0.07422000169754028],"max":[1.1770800352096558,1.1901040077209473],"type":"VEC2","bufferView":1,"byteOffset":1720},{"name":"upah-Mesh_1_indices","componentType":5123,"count":48,"min":[0],"max":[17],"type":"SCALAR","bufferView":2,"byteOffset":2328},{"name":"upah-Mesh_2_positions","componentType":5126,"count":8,"min":[-0.9312959909439087,0.8715829849243164,-3.4282100200653076],"max":[0.9312949776649475,1.5109399557113647,-2.9955101013183594],"type":"VEC3","bufferView":0,"byteOffset":2796},{"name":"upah-Mesh_2_texcoords","componentType":5126,"count":8,"min":[-2.34375,-0.302729994058609],"max":[2.4375,0.25585898756980896],"type":"VEC2","bufferView":1,"byteOffset":1864},{"name":"upah-Mesh_2_indices","componentType":5123,"count":18,"min":[0],"max":[7],"type":"SCALAR","bufferView":2,"byteOffset":2424},{"name":"upah-Mesh_3_positions","componentType":5126,"count":122,"min":[-2.056610107421875,0.04211900010704994,-3.5672099590301514],"max":[2.056610107421875,0.2758600115776062,-2.2605600357055664],"type":"VEC3","bufferView":0,"byteOffset":2892},{"name":"upah-Mesh_3_texcoords","componentType":5126,"count":122,"min":[-0.04096199944615364,-0.30184999108314514],"max":[4.276000022888184,1.3190200328826904],"type":"VEC2","bufferView":1,"byteOffset":1928},{"name":"upah-Mesh_3_indices","componentType":5123,"count":552,"min":[0],"max":[121],"type":"SCALAR","bufferView":2,"byteOffset":2460},{"name":"upah-Mesh_4_positions","componentType":5126,"count":15,"min":[-1.0305399894714355,0.8715829849243164,-3.413180112838745],"max":[1.0305399894714355,1.5109399557113647,-2.1813299655914307],"type":"VEC3","bufferView":0,"byteOffset":4356},{"name":"upah-Mesh_4_texcoords","componentType":5126,"count":15,"min":[0,-0.052949998527765274],"max":[1.4140599966049194,0.11086300015449524],"type":"VEC2","bufferView":1,"byteOffset":2904},{"name":"upah-Mesh_4_indices","componentType":5123,"count":48,"min":[0],"max":[14],"type":"SCALAR","bufferView":2,"byteOffset":3564}],"asset":{"generator":"obj2gltf","version":"2.0"},"buffers":[{"name":"BR_Wooper-Shiny01","byteLength":159344,"uri":"data:application/octet-stream;base64,"}],"bufferViews":[{"name":"bufferView_0","buffer":0,"byteLength":4536,"byteOffset":0,"byteStride":12,"target":34962},{"name":"bufferView_1","buffer":0,"byteLength":3024,"byteOffset":4536,"byteStride":8,"target":34962},{"name":"bufferView_2","buffer":0,"byteLength":3660,"byteOffset":7560,"target":34963},{"buffer":0,"byteOffset":11220,"byteLength":82},{"buffer":0,"byteOffset":11302,"byteLength":8210},{"buffer":0,"byteOffset":19512,"byteLength":65554},{"buffer":0,"byteOffset":85066,"byteLength":530},{"buffer":0,"byteOffset":85596,"byteLength":73746}],"images":[{"name":"upah_1_0","mimeType":"image/x-tga","bufferView":3},{"name":"upah_1_1","mimeType":"image/x-tga","bufferView":4},{"name":"upah_1_2","mimeType":"image/x-tga","bufferView":5},{"name":"upah_1_3","mimeType":"image/x-tga","bufferView":6},{"name":"upah_1_4","mimeType":"image/x-tga","bufferView":7}],"materials":[{"name":"mat_0","pbrMetallicRoughness":{"baseColorTexture":{"index":0},"baseColorFactor":[1,1,1,1],"metallicFactor":0,"roughnessFactor":0.903921569},"emissiveFactor":[0,0,0],"alphaMode":"BLEND","doubleSided":true},{"name":"mat_1","pbrMetallicRoughness":{"baseColorTexture":{"index":1},"baseColorFactor":[1,1,1,1],"metallicFactor":0,"roughnessFactor":0.903921569},"emissiveFactor":[0,0,0],"alphaMode":"BLEND","doubleSided":true},{"name":"mat_2","pbrMetallicRoughness":{"baseColorTexture":{"index":2},"baseColorFactor":[1,1,1,1],"metallicFactor":0,"roughnessFactor":0.903921569},"emissiveFactor":[0,0,0],"alphaMode":"BLEND","doubleSided":true},{"name":"mat_3","pbrMetallicRoughness":{"baseColorTexture":{"index":3},"baseColorFactor":[1,1,1,1],"metallicFactor":0,"roughnessFactor":0.903921569},"emissiveFactor":[0,0,0],"alphaMode":"BLEND","doubleSided":true},{"name":"mat_4","pbrMetallicRoughness":{"baseColorTexture":{"index":4},"baseColorFactor":[1,1,1,1],"metallicFactor":0,"roughnessFactor":0.903921569},"emissiveFactor":[0,0,0],"alphaMode":"BLEND","doubleSided":true}],"meshes":[{"name":"upah-Mesh","primitives":[{"attributes":{"POSITION":0,"TEXCOORD_0":1},"indices":2,"material":0,"mode":4},{"attributes":{"POSITION":3,"TEXCOORD_0":4},"indices":5,"material":1,"mode":4},{"attributes":{"POSITION":6,"TEXCOORD_0":7},"indices":8,"material":2,"mode":4},{"attributes":{"POSITION":9,"TEXCOORD_0":10},"indices":11,"material":3,"mode":4},{"attributes":{"POSITION":12,"TEXCOORD_0":13},"indices":14,"material":4,"mode":4}]}],"nodes":[{"name":"upah","mesh":0}],"samplers":[{"wrapS":10497,"wrapT":10497}],"scene":0,"scenes":[{"nodes":[0]}],"textures":[{"name":"upah_1_0","sampler":0,"source":0},{"name":"upah_1_1","sampler":0,"source":1},{"name":"upah_1_2","sampler":0,"source":2},{"name":"upah_1_3","sampler":0,"source":3},{"name":"upah_1_4","sampler":0,"source":4}]}