{"accessors":[{"name":"polygon0_1_0_positions","componentType":5126,"count":8,"min":[-2.5422580242156982,11.87967586517334,2.2364330291748047],"max":[2.54225492477417,12.595871925354004,3.214370012283325],"type":"VEC3","bufferView":0,"byteOffset":0},{"name":"polygon0_1_0_normals","componentType":5126,"count":8,"min":[-0.7839341759681702,0.3993220925331116,0.42296603322029114],"max":[0.7839341759681702,0.5660910606384277,0.6045863032341003],"type":"VEC3","bufferView":1,"byteOffset":0},{"name":"polygon0_1_0_texcoords","componentType":5126,"count":8,"min":[-0.014495999552309513,-0.052094001322984695],"max":[0.37826499342918396,0.17553700506687164],"type":"VEC2","bufferView":2,"byteOffset":0},{"name":"polygon0_1_0_indices","componentType":5123,"count":12,"min":[0],"max":[7],"type":"SCALAR","bufferView":3,"byteOffset":0},{"name":"polygon1_1_0_positions","componentType":5126,"count":871,"min":[-4.268461227416992,0.012272000312805176,-11.174901962280273],"max":[4.268457889556885,14.077795028686523,7.405168056488037],"type":"VEC3","bufferView":0,"byteOffset":96},{"name":"polygon1_1_0_normals","componentType":5126,"count":871,"min":[-0.9989128708839417,-1,-0.9997238516807556],"max":[0.9989128708839417,0.9999983310699463,0.9998190402984619],"type":"VEC3","bufferView":1,"byteOffset":96},{"name":"polygon1_1_0_texcoords","componentType":5126,"count":871,"min":[0.013092000037431717,0.0042420001700520515],"max":[0.9904170036315918,0.9924319982528687],"type":"VEC2","bufferView":2,"byteOffset":64},{"name":"polygon1_1_0_indices","componentType":5123,"count":4356,"min":[0],"max":[870],"type":"SCALAR","bufferView":3,"byteOffset":24},{"name":"polygon2_1_0_positions","componentType":5126,"count":58,"min":[-2.9720990657806396,10.085041999816895,0.5704159736633301],"max":[2.9720959663391113,11.57966136932373,4.275207042694092],"type":"VEC3","bufferView":0,"byteOffset":10548},{"name":"polygon2_1_0_normals","componentType":5126,"count":58,"min":[-0.8415470719337463,-0.9947918653488159,-0.564102053642273],"max":[0.8415470719337463,0.998988687992096,0.8531453609466553],"type":"VEC3","bufferView":1,"byteOffset":10548},{"name":"polygon2_1_0_texcoords","componentType":5126,"count":58,"min":[0.7796019911766052,0.01989700086414814],"max":[0.9946900010108948,0.3065190017223358],"type":"VEC2","bufferView":2,"byteOffset":7032},{"name":"polygon2_1_0_indices","componentType":5123,"count":264,"min":[0],"max":[57],"type":"SCALAR","bufferView":3,"byteOffset":8736}],"asset":{"generator":"obj2gltf","version":"2.0"},"buffers":[{"name":"Quagsire","byteLength":334196,"uri":"data:application/octet-stream;base64,"}],"bufferViews":[{"name":"bufferView_0","buffer":0,"byteLength":11244,"byteOffset":0,"byteStride":12,"target":34962},{"name":"bufferView_1","buffer":0,"byteLength":11244,"byteOffset":11244,"byteStride":12,"target":34962},{"name":"bufferView_2","buffer":0,"byteLength":7496,"byteOffset":22488,"byteStride":8,"target":34962},{"name":"bufferView_3","buffer":0,"byteLength":9264,"byteOffset":29984,"target":34963},{"buffer":0,"byteOffset":39248,"byteLength":98322},{"buffer":0,"byteOffset":137570,"byteLength":196626}],"images":[{"name":"NuohEyeDh","mimeType":"image/x-tga","bufferView":4},{"name":"NuohDh","mimeType":"image/x-tga","bufferView":5}],"materials":[{"name":"mat2","pbrMetallicRoughness":{"baseColorTexture":{"index":0},"baseColorFactor":[1,1,1,1],"metallicFactor":0,"roughnessFactor":0.99},"emissiveFactor":[0,0,0],"alphaMode":"OPAQUE","doubleSided":false},{"name":"mat1","pbrMetallicRoughness":{"baseColorTexture":{"index":1},"baseColorFactor":[1,1,1,1],"metallicFactor":0,"roughnessFactor":0.99},"emissiveFactor":[0,0,0],"alphaMode":"OPAQUE","doubleSided":false},{"name":"mat3","pbrMetallicRoughness":{"baseColorTexture":{"index":1},"baseColorFactor":[1,1,1,1],"metallicFactor":0,"roughnessFactor":0.99},"emissiveFactor":[0,0,0],"alphaMode":"OPAQUE","doubleSided":false}],"meshes":[{"name":"polygon0_1","primitives":[{"attributes":{"POSITION":0,"NORMAL":1,"TEXCOORD_0":2},"indices":3,"material":0,"mode":4}]},{"name":"polygon1_1","primitives":[{"attributes":{"POSITION":4,"NORMAL":5,"TEXCOORD_0":6},"indices":7,"material":1,"mode":4}]},{"name":"polygon2_1","primitives":[{"attributes":{"POSITION":8,"NORMAL":9,"TEXCOORD_0":10},"indices":11,"material":2,"mode":4}]}],"nodes":[{"name":"polygon0","mesh":0},{"name":"polygon1","mesh":1},{"name":"polygon2","mesh":2}],"samplers":[{"wrapS":10497,"wrapT":10497}],"scene":0,"scenes":[{"nodes":[0,1,2]}],"textures":[{"name":"NuohEyeDh","sampler":0,"source":0},{"name":"NuohDh","sampler":0,"source":1}]}