{"accessors":[{"name":"polygon0_1_0_positions","componentType":5126,"count":956,"min":[-2.4457550048828125,-0.058814000338315964,-4.4682488441467285],"max":[3.160068988800049,8.149620056152344,4.049644947052002],"type":"VEC3","bufferView":0,"byteOffset":0},{"name":"polygon0_1_0_normals","componentType":5126,"count":956,"min":[-0.9966636896133423,-0.9826865196228027,-0.9859268665313721],"max":[0.9983888268470764,0.9997814297676086,0.9936764240264893],"type":"VEC3","bufferView":1,"byteOffset":0},{"name":"polygon0_1_0_texcoords","componentType":5126,"count":956,"min":[0.011780000291764736,0.00891099963337183],"max":[0.9932559728622437,0.9920650124549866],"type":"VEC2","bufferView":2,"byteOffset":0},{"name":"polygon0_1_0_indices","componentType":5123,"count":4476,"min":[0],"max":[955],"type":"SCALAR","bufferView":3,"byteOffset":0},{"name":"polygon1_1_0_positions","componentType":5126,"count":50,"min":[-0.3479669988155365,2.8240160942077637,2.7627201080322266],"max":[1.473633050918579,4.008871078491211,3.819390058517456],"type":"VEC3","bufferView":0,"byteOffset":11472},{"name":"polygon1_1_0_normals","componentType":5126,"count":50,"min":[-0.9112372398376465,-0.5739410519599915,0.06438201665878296],"max":[0.9978872537612915,0.5004910826683044,0.9142403602600098],"type":"VEC3","bufferView":1,"byteOffset":11472},{"name":"polygon1_1_0_texcoords","componentType":5126,"count":50,"min":[1.0544430017471313,0.012114999815821648],"max":[1.4936219453811646,0.22067299485206604],"type":"VEC2","bufferView":2,"byteOffset":7648},{"name":"polygon1_1_0_indices","componentType":5123,"count":198,"min":[0],"max":[49],"type":"SCALAR","bufferView":3,"byteOffset":8952},{"name":"polygon2_1_0_positions","componentType":5126,"count":19,"min":[0.0016240000259131193,2.6986289024353027,3.4183380603790283],"max":[1.0313340425491333,3.2610490322113037,3.8892829418182373],"type":"VEC3","bufferView":0,"byteOffset":12072},{"name":"polygon2_1_0_normals","componentType":5126,"count":19,"min":[-0.6963849663734436,-0.8608419299125671,0.4785889685153961],"max":[0.6559587717056274,0.1949109584093094,0.9892494678497314],"type":"VEC3","bufferView":1,"byteOffset":12072},{"name":"polygon2_1_0_texcoords","componentType":5126,"count":19,"min":[1.0747679471969604,0.012085000053048134],"max":[1.973449945449829,0.23553499579429626],"type":"VEC2","bufferView":2,"byteOffset":8048},{"name":"polygon2_1_0_indices","componentType":5123,"count":72,"min":[0],"max":[18],"type":"SCALAR","bufferView":3,"byteOffset":9348}],"asset":{"generator":"obj2gltf","version":"2.0"},"buffers":[{"name":"EifiePosed","byteLength":386412,"uri":"data:application/octet-stream;base64,"}],"bufferViews":[{"name":"bufferView_0","buffer":0,"byteLength":12300,"byteOffset":0,"byteStride":12,"target":34962},{"name":"bufferView_1","buffer":0,"byteLength":12300,"byteOffset":12300,"byteStride":12,"target":34962},{"name":"bufferView_2","buffer":0,"byteLength":8200,"byteOffset":24600,"byteStride":8,"target":34962},{"name":"bufferView_3","buffer":0,"byteLength":9492,"byteOffset":32800,"target":34963},{"buffer":0,"byteOffset":42292,"byteLength":196626},{"buffer":0,"byteOffset":238918,"byteLength":98322},{"buffer":0,"byteOffset":337240,"byteLength":49170}],"images":[{"name":"EifieDh","mimeType":"image/x-tga","bufferView":4},{"name":"EifieEyeDh","mimeType":"image/x-tga","bufferView":5},{"name":"EifieMouthDh","mimeType":"image/x-tga","bufferView":6}],"materials":[{"name":"mat1","pbrMetallicRoughness":{"baseColorTexture":{"index":0},"baseColorFactor":[1,1,1,1],"metallicFactor":0,"roughnessFactor":0.99},"emissiveFactor":[0,0,0],"alphaMode":"OPAQUE","doubleSided":false},{"name":"mat2","pbrMetallicRoughness":{"baseColorTexture":{"index":1},"baseColorFactor":[1,1,1,1],"metallicFactor":0,"roughnessFactor":0.99},"emissiveFactor":[0,0,0],"alphaMode":"OPAQUE","doubleSided":false},{"name":"mat3","pbrMetallicRoughness":{"baseColorTexture":{"index":2},"baseColorFactor":[1,1,1,1],"metallicFactor":0,"roughnessFactor":0.99},"emissiveFactor":[0,0,0],"alphaMode":"OPAQUE","doubleSided":false}],"meshes":[{"name":"polygon0_1","primitives":[{"attributes":{"POSITION":0,"NORMAL":1,"TEXCOORD_0":2},"indices":3,"material":0,"mode":4}]},{"name":"polygon1_1","primitives":[{"attributes":{"POSITION":4,"NORMAL":5,"TEXCOORD_0":6},"indices":7,"material":1,"mode":4}]},{"name":"polygon2_1","primitives":[{"attributes":{"POSITION":8,"NORMAL":9,"TEXCOORD_0":10},"indices":11,"material":2,"mode":4}]}],"nodes":[{"name":"polygon0","mesh":0},{"name":"polygon1","mesh":1},{"name":"polygon2","mesh":2}],"samplers":[{"wrapS":10497,"wrapT":10497}],"scene":0,"scenes":[{"nodes":[0,1,2]}],"textures":[{"name":"EifieDh","sampler":0,"source":0},{"name":"EifieEyeDh","sampler":0,"source":1},{"name":"EifieMouthDh","sampler":0,"source":2}]}