{"accessors":[{"name":"polygon0_1_0_positions","componentType":5126,"count":918,"min":[-1.9170860052108765,-0.07723499834537506,-3.8912580013275146],"max":[2.268079996109009,8.247105598449707,4.234742164611816],"type":"VEC3","bufferView":0,"byteOffset":0},{"name":"polygon0_1_0_normals","componentType":5126,"count":918,"min":[-0.9943904280662537,-0.9949445724487305,-0.9995031356811523],"max":[0.9977409839630127,0.9999376535415649,0.997987687587738],"type":"VEC3","bufferView":1,"byteOffset":0},{"name":"polygon0_1_0_texcoords","componentType":5126,"count":918,"min":[0.01043699961155653,0.007079999893903732],"max":[0.9930109977722168,0.9896240234375],"type":"VEC2","bufferView":2,"byteOffset":0},{"name":"polygon0_1_0_indices","componentType":5123,"count":4086,"min":[0],"max":[917],"type":"SCALAR","bufferView":3,"byteOffset":0},{"name":"polygon1_1_0_positions","componentType":5126,"count":36,"min":[0.23314300179481506,3.5546510219573975,1.7109249830245972],"max":[2.04146409034729,5.035902976989746,3.300537109375],"type":"VEC3","bufferView":0,"byteOffset":11016},{"name":"polygon1_1_0_normals","componentType":5126,"count":36,"min":[-0.43510308861732483,-0.46253713965415955,-0.24818606674671173],"max":[0.998134195804596,0.5115238428115845,0.9916410446166992],"type":"VEC3","bufferView":1,"byteOffset":11016},{"name":"polygon1_1_0_texcoords","componentType":5126,"count":36,"min":[1.0441590547561646,0.005950999911874533],"max":[1.4643549919128418,0.23336799442768097],"type":"VEC2","bufferView":2,"byteOffset":7344},{"name":"polygon1_1_0_indices","componentType":5123,"count":132,"min":[0],"max":[35],"type":"SCALAR","bufferView":3,"byteOffset":8172},{"name":"polygon2_1_0_positions","componentType":5126,"count":26,"min":[1.014775037765503,3.254538059234619,1.9735640287399292],"max":[2.0179600715637207,3.851283073425293,3.0427749156951904],"type":"VEC3","bufferView":0,"byteOffset":11448},{"name":"polygon2_1_0_normals","componentType":5126,"count":26,"min":[-0.08662596344947815,-0.9949445724487305,-0.4270569384098053],"max":[0.9502927660942078,0.2920961081981659,0.9153470396995544],"type":"VEC3","bufferView":1,"byteOffset":11448},{"name":"polygon2_1_0_texcoords","componentType":5126,"count":26,"min":[1.1015629768371582,0.01202400028705597],"max":[1.5526119470596313,0.23467999696731567],"type":"VEC2","bufferView":2,"byteOffset":7632},{"name":"polygon2_1_0_indices","componentType":5123,"count":96,"min":[0],"max":[25],"type":"SCALAR","bufferView":3,"byteOffset":8436}],"asset":{"generator":"obj2gltf","version":"2.0"},"buffers":[{"name":"BlackyPosed","byteLength":384108,"uri":"data:application/octet-stream;base64,"}],"bufferViews":[{"name":"bufferView_0","buffer":0,"byteLength":11760,"byteOffset":0,"byteStride":12,"target":34962},{"name":"bufferView_1","buffer":0,"byteLength":11760,"byteOffset":11760,"byteStride":12,"target":34962},{"name":"bufferView_2","buffer":0,"byteLength":7840,"byteOffset":23520,"byteStride":8,"target":34962},{"name":"bufferView_3","buffer":0,"byteLength":8628,"byteOffset":31360,"target":34963},{"buffer":0,"byteOffset":39988,"byteLength":196626},{"buffer":0,"byteOffset":236614,"byteLength":98322},{"buffer":0,"byteOffset":334936,"byteLength":49170}],"images":[{"name":"BlackyDh","mimeType":"image/x-tga","bufferView":4},{"name":"BlackyEyeDh","mimeType":"image/x-tga","bufferView":5},{"name":"BlackyMouthDh","mimeType":"image/x-tga","bufferView":6}],"materials":[{"name":"mat1","pbrMetallicRoughness":{"baseColorTexture":{"index":0},"baseColorFactor":[1,1,1,1],"metallicFactor":0,"roughnessFactor":0.99},"emissiveFactor":[0,0,0],"alphaMode":"OPAQUE","doubleSided":false},{"name":"mat2","pbrMetallicRoughness":{"baseColorTexture":{"index":1},"baseColorFactor":[1,1,1,1],"metallicFactor":0,"roughnessFactor":0.99},"emissiveFactor":[0,0,0],"alphaMode":"OPAQUE","doubleSided":false},{"name":"mat3","pbrMetallicRoughness":{"baseColorTexture":{"index":2},"baseColorFactor":[1,1,1,1],"metallicFactor":0,"roughnessFactor":0.99},"emissiveFactor":[0,0,0],"alphaMode":"OPAQUE","doubleSided":false}],"meshes":[{"name":"polygon0_1","primitives":[{"attributes":{"POSITION":0,"NORMAL":1,"TEXCOORD_0":2},"indices":3,"material":0,"mode":4}]},{"name":"polygon1_1","primitives":[{"attributes":{"POSITION":4,"NORMAL":5,"TEXCOORD_0":6},"indices":7,"material":1,"mode":4}]},{"name":"polygon2_1","primitives":[{"attributes":{"POSITION":8,"NORMAL":9,"TEXCOORD_0":10},"indices":11,"material":2,"mode":4}]}],"nodes":[{"name":"polygon0","mesh":0},{"name":"polygon1","mesh":1},{"name":"polygon2","mesh":2}],"samplers":[{"wrapS":10497,"wrapT":10497}],"scene":0,"scenes":[{"nodes":[0,1,2]}],"textures":[{"name":"BlackyDh","sampler":0,"source":0},{"name":"BlackyEyeDh","sampler":0,"source":1},{"name":"BlackyMouthDh","sampler":0,"source":2}]}