{"accessors":[{"name":"polygon0_1_0_positions","componentType":5126,"count":1101,"min":[-4.221597194671631,-0.010203000158071518,-4.137682914733887],"max":[4.221595764160156,5.555975914001465,2.2925209999084473],"type":"VEC3","bufferView":0,"byteOffset":0},{"name":"polygon0_1_0_normals","componentType":5126,"count":1101,"min":[-0.9997297525405884,-0.9999996423721313,-0.9999494552612305],"max":[0.9997297525405884,0.9999586343765259,0.9995526671409607],"type":"VEC3","bufferView":1,"byteOffset":0},{"name":"polygon0_1_0_texcoords","componentType":5126,"count":1101,"min":[0.0028689999599009752,0.002807999961078167],"max":[0.9955139756202698,0.9951480031013489],"type":"VEC2","bufferView":2,"byteOffset":0},{"name":"polygon0_1_0_indices","componentType":5123,"count":4530,"min":[0],"max":[1100],"type":"SCALAR","bufferView":3,"byteOffset":0},{"name":"polygon1_1_0_positions","componentType":5126,"count":38,"min":[-0.7651150226593018,3.358922004699707,0.5592749714851379],"max":[0.7651150226593018,4.214451789855957,1.1835260391235352],"type":"VEC3","bufferView":0,"byteOffset":13212},{"name":"polygon1_1_0_normals","componentType":5126,"count":38,"min":[-0.8823257088661194,-0.5074359774589539,0.3200998902320862],"max":[0.8823257088661194,0.33309206366539,0.9944674372673035],"type":"VEC3","bufferView":1,"byteOffset":13212},{"name":"polygon1_1_0_texcoords","componentType":5126,"count":38,"min":[-0.06805399805307388,-0.05267300084233284],"max":[0.5709229707717896,0.17810100317001343],"type":"VEC2","bufferView":2,"byteOffset":8808},{"name":"polygon1_1_0_indices","componentType":5123,"count":144,"min":[0],"max":[37],"type":"SCALAR","bufferView":3,"byteOffset":9060}],"asset":{"generator":"obj2gltf","version":"2.0"},"buffers":[{"name":"Murkrow","byteLength":340744,"uri":"data:application/octet-stream;base64,"}],"bufferViews":[{"name":"bufferView_0","buffer":0,"byteLength":13668,"byteOffset":0,"byteStride":12,"target":34962},{"name":"bufferView_1","buffer":0,"byteLength":13668,"byteOffset":13668,"byteStride":12,"target":34962},{"name":"bufferView_2","buffer":0,"byteLength":9112,"byteOffset":27336,"byteStride":8,"target":34962},{"name":"bufferView_3","buffer":0,"byteLength":9348,"byteOffset":36448,"target":34963},{"buffer":0,"byteOffset":45796,"byteLength":196626},{"buffer":0,"byteOffset":242422,"byteLength":98322}],"images":[{"name":"YamikarasuDh","mimeType":"image/x-tga","bufferView":4},{"name":"YamikarasuEyeDh","mimeType":"image/x-tga","bufferView":5}],"materials":[{"name":"mat1","pbrMetallicRoughness":{"baseColorTexture":{"index":0},"baseColorFactor":[1,1,1,1],"metallicFactor":0,"roughnessFactor":0.99},"emissiveFactor":[0,0,0],"alphaMode":"OPAQUE","doubleSided":false},{"name":"mat2","pbrMetallicRoughness":{"baseColorTexture":{"index":1},"baseColorFactor":[1,1,1,1],"metallicFactor":0,"roughnessFactor":0.99},"emissiveFactor":[0,0,0],"alphaMode":"OPAQUE","doubleSided":false}],"meshes":[{"name":"polygon0_1","primitives":[{"attributes":{"POSITION":0,"NORMAL":1,"TEXCOORD_0":2},"indices":3,"material":0,"mode":4}]},{"name":"polygon1_1","primitives":[{"attributes":{"POSITION":4,"NORMAL":5,"TEXCOORD_0":6},"indices":7,"material":1,"mode":4}]}],"nodes":[{"name":"polygon0","mesh":0},{"name":"polygon1","mesh":1}],"samplers":[{"wrapS":10497,"wrapT":10497}],"scene":0,"scenes":[{"nodes":[0,1]}],"textures":[{"name":"YamikarasuDh","sampler":0,"source":0},{"name":"YamikarasuEyeDh","sampler":0,"source":1}]}