{"accessors":[{"name":"yadoking-Mesh_0_positions","componentType":5126,"count":422,"min":[-5.094095230102539,-2.782499074935913,-26.495729446411133],"max":[5.094095230102539,5.824740886688232,-17.584165573120117],"type":"VEC3","bufferView":0,"byteOffset":0},{"name":"yadoking-Mesh_0_texcoords","componentType":5126,"count":422,"min":[0.16732700169086456,0.48420700430870056],"max":[0.9780330061912537,0.9853479862213135],"type":"VEC2","bufferView":1,"byteOffset":0},{"name":"yadoking-Mesh_0_indices","componentType":5123,"count":2268,"min":[0],"max":[421],"type":"SCALAR","bufferView":2,"byteOffset":0},{"name":"yadoking-Mesh_1_positions","componentType":5126,"count":15,"min":[-3.426743984222412,-2.9498560428619385,-20.167524337768555],"max":[3.426743984222412,-0.7148429751396179,-18.12963104248047],"type":"VEC3","bufferView":0,"byteOffset":5064},{"name":"yadoking-Mesh_1_texcoords","componentType":5126,"count":15,"min":[0.1229960024356842,0.005311999935656786],"max":[0.8541679978370667,0.17631399631500244],"type":"VEC2","bufferView":1,"byteOffset":3376},{"name":"yadoking-Mesh_1_indices","componentType":5123,"count":48,"min":[0],"max":[14],"type":"SCALAR","bufferView":2,"byteOffset":4536},{"name":"yadoking-Mesh_2_positions","componentType":5126,"count":33,"min":[-0.5679600238800049,4.0568342208862305,-23.401132583618164],"max":[0.5679600238800049,4.730166912078857,-22.386457443237305],"type":"VEC3","bufferView":0,"byteOffset":5244},{"name":"yadoking-Mesh_2_texcoords","componentType":5126,"count":33,"min":[0.4012500047683716,0.8235819935798645],"max":[0.43553900718688965,0.8942520022392273],"type":"VEC2","bufferView":1,"byteOffset":3496},{"name":"yadoking-Mesh_2_indices","componentType":5123,"count":156,"min":[0],"max":[32],"type":"SCALAR","bufferView":2,"byteOffset":4632}],"asset":{"generator":"obj2gltf","version":"2.0"},"buffers":[{"name":"BR_Slowking-Shiny01","byteLength":1194028,"uri":"data:application/octet-stream;base64,"}],"bufferViews":[{"name":"bufferView_0","buffer":0,"byteLength":5640,"byteOffset":0,"byteStride":12,"target":34962},{"name":"bufferView_1","buffer":0,"byteLength":3760,"byteOffset":5640,"byteStride":8,"target":34962},{"name":"bufferView_2","buffer":0,"byteLength":4944,"byteOffset":9400,"target":34963},{"buffer":0,"byteOffset":14344,"byteLength":1048594},{"buffer":0,"byteOffset":1062938,"byteLength":131090}],"images":[{"name":"yadoking_1_0","mimeType":"image/x-tga","bufferView":3},{"name":"yadoking_1_1","mimeType":"image/x-tga","bufferView":4}],"materials":[{"name":"mat_0","pbrMetallicRoughness":{"baseColorTexture":{"index":0},"baseColorFactor":[1,1,1,1],"metallicFactor":0,"roughnessFactor":0.903921569},"emissiveFactor":[0,0,0],"alphaMode":"BLEND","doubleSided":true},{"name":"mat_1","pbrMetallicRoughness":{"baseColorTexture":{"index":1},"baseColorFactor":[1,1,1,1],"metallicFactor":0,"roughnessFactor":0.903921569},"emissiveFactor":[0,0,0],"alphaMode":"BLEND","doubleSided":true},{"name":"mat_2","pbrMetallicRoughness":{"baseColorTexture":{"index":0},"baseColorFactor":[1,1,1,1],"metallicFactor":0,"roughnessFactor":0.903921569},"emissiveFactor":[0,0,0],"alphaMode":"BLEND","doubleSided":true}],"meshes":[{"name":"yadoking-Mesh","primitives":[{"attributes":{"POSITION":0,"TEXCOORD_0":1},"indices":2,"material":0,"mode":4},{"attributes":{"POSITION":3,"TEXCOORD_0":4},"indices":5,"material":1,"mode":4},{"attributes":{"POSITION":6,"TEXCOORD_0":7},"indices":8,"material":2,"mode":4}]}],"nodes":[{"name":"yadoking","mesh":0}],"samplers":[{"wrapS":10497,"wrapT":10497}],"scene":0,"scenes":[{"nodes":[0]}],"textures":[{"name":"yadoking_1_0","sampler":0,"source":0},{"name":"yadoking_1_1","sampler":0,"source":1}]}