{"accessors":[{"name":"polygon0_1_0_positions","componentType":5126,"count":10,"min":[-0.9683799743652344,5.570104122161865,0.9832810163497925],"max":[0.968379020690918,6.062180042266846,1.490705966949463],"type":"VEC3","bufferView":0,"byteOffset":0},{"name":"polygon0_1_0_normals","componentType":5126,"count":10,"min":[-0.418919175863266,-0.6361368298530579,0.7165666222572327],"max":[0.418919175863266,-0.29738399386405945,0.9547579884529114],"type":"VEC3","bufferView":1,"byteOffset":0},{"name":"polygon0_1_0_texcoords","componentType":5126,"count":10,"min":[-0.9661250114440918,0.03637700155377388],"max":[-0.05102499946951866,0.18194599449634552],"type":"VEC2","bufferView":2,"byteOffset":0},{"name":"polygon0_1_0_indices","componentType":5123,"count":24,"min":[0],"max":[9],"type":"SCALAR","bufferView":3,"byteOffset":0},{"name":"polygon1_1_0_positions","componentType":5126,"count":985,"min":[-4.064477920532227,2.524893045425415,-8.223454475402832],"max":[4.06447696685791,10.280597686767578,1.851613998413086],"type":"VEC3","bufferView":0,"byteOffset":120},{"name":"polygon1_1_0_normals","componentType":5126,"count":985,"min":[-1,-0.9999991655349731,-0.9996914267539978],"max":[1,0.9994506239891052,0.9962052702903748],"type":"VEC3","bufferView":1,"byteOffset":120},{"name":"polygon1_1_0_texcoords","componentType":5126,"count":985,"min":[0.012512000277638435,0.007507000118494034],"max":[0.9908450245857239,0.9892269968986511],"type":"VEC2","bufferView":2,"byteOffset":80},{"name":"polygon1_1_0_indices","componentType":5123,"count":4440,"min":[0],"max":[984],"type":"SCALAR","bufferView":3,"byteOffset":48},{"name":"polygon2_1_0_positions","componentType":5126,"count":16,"min":[-1.9586939811706543,5.897165775299072,0.4017530083656311],"max":[1.9586939811706543,7.030168056488037,1.5807299613952637],"type":"VEC3","bufferView":0,"byteOffset":11940},{"name":"polygon2_1_0_normals","componentType":5126,"count":16,"min":[-0.8708931803703308,-0.5100597143173218,0.46044009923934937],"max":[0.8708931803703308,-0.17187203466892242,0.9183420538902283],"type":"VEC3","bufferView":1,"byteOffset":11940},{"name":"polygon2_1_0_texcoords","componentType":5126,"count":16,"min":[-0.9889529943466187,0.037230998277664185],"max":[-0.5079349875450134,0.18975800275802612],"type":"VEC2","bufferView":2,"byteOffset":7960},{"name":"polygon2_1_0_indices","componentType":5123,"count":36,"min":[0],"max":[15],"type":"SCALAR","bufferView":3,"byteOffset":8928}],"asset":{"generator":"obj2gltf","version":"2.0"},"buffers":[{"name":"Misdreavus","byteLength":385472,"uri":"data:application/octet-stream;base64,"}],"bufferViews":[{"name":"bufferView_0","buffer":0,"byteLength":12132,"byteOffset":0,"byteStride":12,"target":34962},{"name":"bufferView_1","buffer":0,"byteLength":12132,"byteOffset":12132,"byteStride":12,"target":34962},{"name":"bufferView_2","buffer":0,"byteLength":8088,"byteOffset":24264,"byteStride":8,"target":34962},{"name":"bufferView_3","buffer":0,"byteLength":9000,"byteOffset":32352,"target":34963},{"buffer":0,"byteOffset":41352,"byteLength":49170},{"buffer":0,"byteOffset":90522,"byteLength":196626},{"buffer":0,"byteOffset":287148,"byteLength":98322}],"images":[{"name":"MumaMouthDh","mimeType":"image/x-tga","bufferView":4},{"name":"MumaDh","mimeType":"image/x-tga","bufferView":5},{"name":"MumaEyeDh","mimeType":"image/x-tga","bufferView":6}],"materials":[{"name":"mat3","pbrMetallicRoughness":{"baseColorTexture":{"index":0},"baseColorFactor":[1,1,1,1],"metallicFactor":0,"roughnessFactor":0.99},"emissiveFactor":[0,0,0],"alphaMode":"OPAQUE","doubleSided":false},{"name":"mat1","pbrMetallicRoughness":{"baseColorTexture":{"index":1},"baseColorFactor":[1,1,1,1],"metallicFactor":0,"roughnessFactor":0.99},"emissiveFactor":[0,0,0],"alphaMode":"OPAQUE","doubleSided":false},{"name":"mat2","pbrMetallicRoughness":{"baseColorTexture":{"index":2},"baseColorFactor":[1,1,1,1],"metallicFactor":0,"roughnessFactor":0.99},"emissiveFactor":[0,0,0],"alphaMode":"OPAQUE","doubleSided":false}],"meshes":[{"name":"polygon0_1","primitives":[{"attributes":{"POSITION":0,"NORMAL":1,"TEXCOORD_0":2},"indices":3,"material":0,"mode":4}]},{"name":"polygon1_1","primitives":[{"attributes":{"POSITION":4,"NORMAL":5,"TEXCOORD_0":6},"indices":7,"material":1,"mode":4}]},{"name":"polygon2_1","primitives":[{"attributes":{"POSITION":8,"NORMAL":9,"TEXCOORD_0":10},"indices":11,"material":2,"mode":4}]}],"nodes":[{"name":"polygon0","mesh":0},{"name":"polygon1","mesh":1},{"name":"polygon2","mesh":2}],"samplers":[{"wrapS":10497,"wrapT":10497}],"scene":0,"scenes":[{"nodes":[0,1,2]}],"textures":[{"name":"MumaMouthDh","sampler":0,"source":0},{"name":"MumaDh","sampler":0,"source":1},{"name":"MumaEyeDh","sampler":0,"source":2}]}