{"accessors":[{"name":"unknown_a-Mesh_0_positions","componentType":5126,"count":308,"min":[-1.1439900398254395,-0.38398799300193787,-4.286709785461426],"max":[1.1439900398254395,0.250218003988266,-0.011291000060737133],"type":"VEC3","bufferView":0,"byteOffset":0},{"name":"unknown_a-Mesh_0_texcoords","componentType":5126,"count":308,"min":[0,1],"max":[0,1],"type":"VEC2","bufferView":1,"byteOffset":0},{"name":"unknown_a-Mesh_0_indices","componentType":5123,"count":1806,"min":[0],"max":[307],"type":"SCALAR","bufferView":2,"byteOffset":0},{"name":"unknown_a-Mesh_1_positions","componentType":5126,"count":33,"min":[-0.8004950284957886,0.22026999294757843,-3.3112199306488037],"max":[0.8004950284957886,0.4763459861278534,-1.7102299928665161],"type":"VEC3","bufferView":0,"byteOffset":3696},{"name":"unknown_a-Mesh_1_texcoords","componentType":5126,"count":33,"min":[0.029186999425292015,0.004523000214248896],"max":[0.9700859785079956,0.20287400484085083],"type":"VEC2","bufferView":1,"byteOffset":2464},{"name":"unknown_a-Mesh_1_indices","componentType":5123,"count":144,"min":[0],"max":[32],"type":"SCALAR","bufferView":2,"byteOffset":3612}],"asset":{"generator":"obj2gltf","version":"2.0"},"buffers":[{"name":"BR_Unown-Shiny01","byteLength":46852,"uri":"data:application/octet-stream;base64,"}],"bufferViews":[{"name":"bufferView_0","buffer":0,"byteLength":4092,"byteOffset":0,"byteStride":12,"target":34962},{"name":"bufferView_1","buffer":0,"byteLength":2728,"byteOffset":4092,"byteStride":8,"target":34962},{"name":"bufferView_2","buffer":0,"byteLength":3900,"byteOffset":6820,"target":34963},{"buffer":0,"byteOffset":10720,"byteLength":4114},{"buffer":0,"byteOffset":14834,"byteLength":32018}],"images":[{"name":"unknown_a_1_0","mimeType":"image/x-tga","bufferView":3},{"name":"unknown_a_1_1","mimeType":"image/x-tga","bufferView":4}],"materials":[{"name":"mat_0","pbrMetallicRoughness":{"baseColorTexture":{"index":0},"baseColorFactor":[1,1,1,1],"metallicFactor":0,"roughnessFactor":0.903921569},"emissiveFactor":[0,0,0],"alphaMode":"BLEND","doubleSided":true},{"name":"mat_1","pbrMetallicRoughness":{"baseColorTexture":{"index":1},"baseColorFactor":[1,1,1,1],"metallicFactor":0,"roughnessFactor":0.903921569},"emissiveFactor":[0,0,0],"alphaMode":"BLEND","doubleSided":true}],"meshes":[{"name":"unknown_a-Mesh","primitives":[{"attributes":{"POSITION":0,"TEXCOORD_0":1},"indices":2,"material":0,"mode":4},{"attributes":{"POSITION":3,"TEXCOORD_0":4},"indices":5,"material":1,"mode":4}]}],"nodes":[{"name":"unknown_a","mesh":0}],"samplers":[{"wrapS":10497,"wrapT":10497}],"scene":0,"scenes":[{"nodes":[0]}],"textures":[{"name":"unknown_a_1_0","sampler":0,"source":0},{"name":"unknown_a_1_1","sampler":0,"source":1}]}