{"accessors":[{"name":"sonans-Mesh_0_positions","componentType":5126,"count":9,"min":[-1.0901069641113281,-6.151909828186035,-1.584678053855896],"max":[1.0901069641113281,-5.167336940765381,-1.0862300395965576],"type":"VEC3","bufferView":0,"byteOffset":0},{"name":"sonans-Mesh_0_texcoords","componentType":5126,"count":9,"min":[0.007000000216066837,0],"max":[0.9890000224113464,0.23018300533294678],"type":"VEC2","bufferView":1,"byteOffset":0},{"name":"sonans-Mesh_0_indices","componentType":5123,"count":24,"min":[0],"max":[8],"type":"SCALAR","bufferView":2,"byteOffset":0},{"name":"sonans-Mesh_1_positions","componentType":5126,"count":892,"min":[-8.730467796325684,-6.930796146392822,-13.42127513885498],"max":[8.730467796325684,3.6096019744873047,0.22622600197792053],"type":"VEC3","bufferView":0,"byteOffset":108},{"name":"sonans-Mesh_1_texcoords","componentType":5126,"count":892,"min":[0.009759999811649323,0.0032840000931173563],"max":[0.9955999851226807,0.9910820126533508],"type":"VEC2","bufferView":1,"byteOffset":72},{"name":"sonans-Mesh_1_indices","componentType":5123,"count":4794,"min":[0],"max":[891],"type":"SCALAR","bufferView":2,"byteOffset":48}],"asset":{"generator":"obj2gltf","version":"2.0"},"buffers":[{"name":"BR_Wobbuffet-Shiny01","byteLength":1338412,"uri":"data:application/octet-stream;base64,"}],"bufferViews":[{"name":"bufferView_0","buffer":0,"byteLength":10812,"byteOffset":0,"byteStride":12,"target":34962},{"name":"bufferView_1","buffer":0,"byteLength":7208,"byteOffset":10812,"byteStride":8,"target":34962},{"name":"bufferView_2","buffer":0,"byteLength":9636,"byteOffset":18020,"target":34963},{"buffer":0,"byteOffset":27656,"byteLength":262162},{"buffer":0,"byteOffset":289818,"byteLength":1048594}],"images":[{"name":"sonans_1_0","mimeType":"image/x-tga","bufferView":3},{"name":"sonans_1_1","mimeType":"image/x-tga","bufferView":4}],"materials":[{"name":"mat_0","pbrMetallicRoughness":{"baseColorTexture":{"index":0},"baseColorFactor":[1,1,1,1],"metallicFactor":0,"roughnessFactor":0.903921569},"emissiveFactor":[0,0,0],"alphaMode":"BLEND","doubleSided":true},{"name":"mat_1","pbrMetallicRoughness":{"baseColorTexture":{"index":1},"baseColorFactor":[1,1,1,1],"metallicFactor":0,"roughnessFactor":0.903921569},"emissiveFactor":[0,0,0],"alphaMode":"BLEND","doubleSided":true}],"meshes":[{"name":"sonans-Mesh","primitives":[{"attributes":{"POSITION":0,"TEXCOORD_0":1},"indices":2,"material":0,"mode":4},{"attributes":{"POSITION":3,"TEXCOORD_0":4},"indices":5,"material":1,"mode":4}]}],"nodes":[{"name":"sonans","mesh":0}],"samplers":[{"wrapS":10497,"wrapT":10497}],"scene":0,"scenes":[{"nodes":[0]}],"textures":[{"name":"sonans_1_0","sampler":0,"source":0},{"name":"sonans_1_1","sampler":0,"source":1}]}