{"accessors":[{"name":"kunugidama-Mesh_0_positions","componentType":5126,"count":939,"min":[-3.7070999145507812,-3.6824300289154053,-7.928339958190918],"max":[3.7070999145507812,3.6189401149749756,0.8736159801483154],"type":"VEC3","bufferView":0,"byteOffset":0},{"name":"kunugidama-Mesh_0_texcoords","componentType":5126,"count":939,"min":[0,0],"max":[1,1],"type":"VEC2","bufferView":1,"byteOffset":0},{"name":"kunugidama-Mesh_0_indices","componentType":5123,"count":1734,"min":[0],"max":[938],"type":"SCALAR","bufferView":2,"byteOffset":0},{"name":"kunugidama-Mesh_1_positions","componentType":5126,"count":200,"min":[-3.5534300804138184,-3.4454500675201416,-5.49124002456665],"max":[3.5534300804138184,3.442009925842285,-1.328909993171692],"type":"VEC3","bufferView":0,"byteOffset":11268},{"name":"kunugidama-Mesh_1_texcoords","componentType":5126,"count":200,"min":[0,0.028265999630093575],"max":[0.1753470003604889,1],"type":"VEC2","bufferView":1,"byteOffset":7512},{"name":"kunugidama-Mesh_1_indices","componentType":5123,"count":300,"min":[0],"max":[199],"type":"SCALAR","bufferView":2,"byteOffset":3468},{"name":"kunugidama-Mesh_2_positions","componentType":5126,"count":6,"min":[-1.486050009727478,1.06482994556427,-4.941629886627197],"max":[1.5053000450134277,2.007349967956543,-4.424759864807129],"type":"VEC3","bufferView":0,"byteOffset":13668},{"name":"kunugidama-Mesh_2_texcoords","componentType":5126,"count":6,"min":[0.0541669987142086,0.013888999819755554],"max":[0.9583330154418945,0.2309029996395111],"type":"VEC2","bufferView":1,"byteOffset":9112},{"name":"kunugidama-Mesh_2_indices","componentType":5123,"count":6,"min":[0],"max":[5],"type":"SCALAR","bufferView":2,"byteOffset":4068}],"asset":{"generator":"obj2gltf","version":"2.0"},"buffers":[{"name":"BR_Pineco-Shiny01","byteLength":272924,"uri":"data:application/octet-stream;base64,"}],"bufferViews":[{"name":"bufferView_0","buffer":0,"byteLength":13740,"byteOffset":0,"byteStride":12,"target":34962},{"name":"bufferView_1","buffer":0,"byteLength":9160,"byteOffset":13740,"byteStride":8,"target":34962},{"name":"bufferView_2","buffer":0,"byteLength":4080,"byteOffset":22900,"target":34963},{"buffer":0,"byteOffset":26980,"byteLength":82},{"buffer":0,"byteOffset":27062,"byteLength":82},{"buffer":0,"byteOffset":27144,"byteLength":245778}],"images":[{"name":"kunugidama_1_0","mimeType":"image/x-tga","bufferView":3},{"name":"kunugidama_1_1","mimeType":"image/x-tga","bufferView":4},{"name":"kunugidama_1_2","mimeType":"image/x-tga","bufferView":5}],"materials":[{"name":"mat_0","pbrMetallicRoughness":{"baseColorTexture":{"index":0},"baseColorFactor":[1,1,1,1],"metallicFactor":0,"roughnessFactor":0.903921569},"emissiveFactor":[0,0,0],"alphaMode":"BLEND","doubleSided":true},{"name":"mat_1","pbrMetallicRoughness":{"baseColorTexture":{"index":1},"baseColorFactor":[1,1,1,1],"metallicFactor":0,"roughnessFactor":0.903921569},"emissiveFactor":[0,0,0],"alphaMode":"BLEND","doubleSided":true},{"name":"mat_2","pbrMetallicRoughness":{"baseColorTexture":{"index":2},"baseColorFactor":[1,1,1,1],"metallicFactor":0,"roughnessFactor":0.903921569},"emissiveFactor":[0,0,0],"alphaMode":"BLEND","doubleSided":true}],"meshes":[{"name":"kunugidama-Mesh","primitives":[{"attributes":{"POSITION":0,"TEXCOORD_0":1},"indices":2,"material":0,"mode":4},{"attributes":{"POSITION":3,"TEXCOORD_0":4},"indices":5,"material":1,"mode":4},{"attributes":{"POSITION":6,"TEXCOORD_0":7},"indices":8,"material":2,"mode":4}]}],"nodes":[{"name":"kunugidama","mesh":0}],"samplers":[{"wrapS":10497,"wrapT":10497}],"scene":0,"scenes":[{"nodes":[0]}],"textures":[{"name":"kunugidama_1_0","sampler":0,"source":0},{"name":"kunugidama_1_1","sampler":0,"source":1},{"name":"kunugidama_1_2","sampler":0,"source":2}]}