{"accessors":[{"name":"foretos-Mesh_0_positions","componentType":5126,"count":54,"min":[-4.9364399909973145,-4.978950023651123,-13.99590015411377],"max":[4.9364399909973145,4.978950023651123,-10.00409984588623],"type":"VEC3","bufferView":0,"byteOffset":0},{"name":"foretos-Mesh_0_texcoords","componentType":5126,"count":54,"min":[0.045455001294612885,0],"max":[0.9545450210571289,1],"type":"VEC2","bufferView":1,"byteOffset":0},{"name":"foretos-Mesh_0_indices","componentType":5123,"count":180,"min":[0],"max":[53],"type":"SCALAR","bufferView":2,"byteOffset":0},{"name":"foretos-Mesh_1_positions","componentType":5126,"count":24,"min":[-4.596280097961426,-3.7592899799346924,-12.969099998474121],"max":[4.596280097961426,3.7592899799346924,-11.0177001953125],"type":"VEC3","bufferView":0,"byteOffset":648},{"name":"foretos-Mesh_1_texcoords","componentType":5126,"count":24,"min":[0,0],"max":[1,1],"type":"VEC2","bufferView":1,"byteOffset":432},{"name":"foretos-Mesh_1_indices","componentType":5123,"count":48,"min":[0],"max":[23],"type":"SCALAR","bufferView":2,"byteOffset":360},{"name":"foretos-Mesh_2_positions","componentType":5126,"count":40,"min":[-4.966060161590576,-5.008820056915283,-14.00790023803711],"max":[4.966060161590576,5.008820056915283,-9.992110252380371],"type":"VEC3","bufferView":0,"byteOffset":936},{"name":"foretos-Mesh_2_texcoords","componentType":5126,"count":40,"min":[0,-0.3064500093460083],"max":[1,1.3064520359039307],"type":"VEC2","bufferView":1,"byteOffset":624},{"name":"foretos-Mesh_2_indices","componentType":5123,"count":96,"min":[0],"max":[39],"type":"SCALAR","bufferView":2,"byteOffset":456},{"name":"foretos-Mesh_3_positions","componentType":5126,"count":7,"min":[-3.304229974746704,3.7818400859832764,-14.00790023803711],"max":[3.304229974746704,5.008820056915283,-9.992110252380371],"type":"VEC3","bufferView":0,"byteOffset":1416},{"name":"foretos-Mesh_3_texcoords","componentType":5126,"count":7,"min":[0.04437499865889549,0.09675300121307373],"max":[0.2910029888153076,0.9068840146064758],"type":"VEC2","bufferView":1,"byteOffset":944},{"name":"foretos-Mesh_3_indices","componentType":5123,"count":12,"min":[0],"max":[6],"type":"SCALAR","bufferView":2,"byteOffset":648},{"name":"foretos-Mesh_4_positions","componentType":5126,"count":373,"min":[-5.432779788970947,-5.575650215148926,-17.861000061035156],"max":[5.432839870452881,5.575660228729248,-6.138979911804199],"type":"VEC3","bufferView":0,"byteOffset":1500},{"name":"foretos-Mesh_4_texcoords","componentType":5126,"count":373,"min":[0,0],"max":[1,1],"type":"VEC2","bufferView":1,"byteOffset":1000},{"name":"foretos-Mesh_4_indices","componentType":5123,"count":1440,"min":[0],"max":[372],"type":"SCALAR","bufferView":2,"byteOffset":672},{"name":"foretos-Mesh_5_positions","componentType":5126,"count":60,"min":[-6.4718098640441895,-4.900859832763672,-12.997900009155273],"max":[6.4718098640441895,4.900859832763672,-10.998700141906738],"type":"VEC3","bufferView":0,"byteOffset":5976},{"name":"foretos-Mesh_5_texcoords","componentType":5126,"count":60,"min":[0,0],"max":[1,1],"type":"VEC2","bufferView":1,"byteOffset":3984},{"name":"foretos-Mesh_5_indices","componentType":5123,"count":264,"min":[0],"max":[59],"type":"SCALAR","bufferView":2,"byteOffset":3552},{"name":"foretos-Mesh_6_positions","componentType":5126,"count":20,"min":[-6.494810104370117,-4.919209957122803,-12.537300109863281],"max":[6.494810104370117,4.919209957122803,-11.460399627685547],"type":"VEC3","bufferView":0,"byteOffset":6696},{"name":"foretos-Mesh_6_texcoords","componentType":5126,"count":20,"min":[-0.125,-0.125],"max":[1.125,1.125],"type":"VEC2","bufferView":1,"byteOffset":4464},{"name":"foretos-Mesh_6_indices","componentType":5123,"count":48,"min":[0],"max":[19],"type":"SCALAR","bufferView":2,"byteOffset":4080}],"asset":{"generator":"obj2gltf","version":"2.0"},"buffers":[{"name":"BR_Forretress-Shiny01","byteLength":138872,"uri":"data:application/octet-stream;base64,"}],"bufferViews":[{"name":"bufferView_0","buffer":0,"byteLength":6936,"byteOffset":0,"byteStride":12,"target":34962},{"name":"bufferView_1","buffer":0,"byteLength":4624,"byteOffset":6936,"byteStride":8,"target":34962},{"name":"bufferView_2","buffer":0,"byteLength":4176,"byteOffset":11560,"target":34963},{"buffer":0,"byteOffset":15736,"byteLength":82},{"buffer":0,"byteOffset":15818,"byteLength":82},{"buffer":0,"byteOffset":15900,"byteLength":8210},{"buffer":0,"byteOffset":24110,"byteLength":98322},{"buffer":0,"byteOffset":122432,"byteLength":4114},{"buffer":0,"byteOffset":126546,"byteLength":4114},{"buffer":0,"byteOffset":130660,"byteLength":8210}],"images":[{"name":"foretos_1_0","mimeType":"image/x-tga","bufferView":3},{"name":"foretos_1_2","mimeType":"image/x-tga","bufferView":4},{"name":"foretos_1_3","mimeType":"image/x-tga","bufferView":5},{"name":"foretos_1_4","mimeType":"image/x-tga","bufferView":6},{"name":"foretos_1_5","mimeType":"image/x-tga","bufferView":7},{"name":"foretos_1_7","mimeType":"image/x-tga","bufferView":8},{"name":"foretos_1_9","mimeType":"image/x-tga","bufferView":9}],"materials":[{"name":"mat_0","pbrMetallicRoughness":{"baseColorTexture":{"index":0},"baseColorFactor":[1,1,1,1],"metallicFactor":0,"roughnessFactor":0.903921569},"emissiveFactor":[0,0,0],"alphaMode":"BLEND","doubleSided":true},{"name":"mat_1","pbrMetallicRoughness":{"baseColorTexture":{"index":1},"baseColorFactor":[1,1,1,1],"metallicFactor":0,"roughnessFactor":0.903921569},"emissiveFactor":[0,0,0],"alphaMode":"BLEND","doubleSided":true},{"name":"mat_2","pbrMetallicRoughness":{"baseColorTexture":{"index":2},"baseColorFactor":[1,1,1,1],"metallicFactor":0,"roughnessFactor":0.903921569},"emissiveFactor":[0,0,0],"alphaMode":"BLEND","doubleSided":true},{"name":"mat_3","pbrMetallicRoughness":{"baseColorTexture":{"index":3},"baseColorFactor":[1,1,1,1],"metallicFactor":0,"roughnessFactor":0.903921569},"emissiveFactor":[0,0,0],"alphaMode":"BLEND","doubleSided":true},{"name":"mat_4","pbrMetallicRoughness":{"baseColorTexture":{"index":4},"baseColorFactor":[1,1,1,1],"metallicFactor":0,"roughnessFactor":0.903921569},"emissiveFactor":[0,0,0],"alphaMode":"BLEND","doubleSided":true},{"name":"mat_5","pbrMetallicRoughness":{"baseColorTexture":{"index":5},"baseColorFactor":[1,1,1,1],"metallicFactor":0,"roughnessFactor":0.903921569},"emissiveFactor":[0,0,0],"alphaMode":"BLEND","doubleSided":true},{"name":"mat_6","pbrMetallicRoughness":{"baseColorTexture":{"index":6},"baseColorFactor":[1,1,1,1],"metallicFactor":0,"roughnessFactor":0.903921569},"emissiveFactor":[0,0,0],"alphaMode":"BLEND","doubleSided":true}],"meshes":[{"name":"foretos-Mesh","primitives":[{"attributes":{"POSITION":0,"TEXCOORD_0":1},"indices":2,"material":0,"mode":4},{"attributes":{"POSITION":3,"TEXCOORD_0":4},"indices":5,"material":1,"mode":4},{"attributes":{"POSITION":6,"TEXCOORD_0":7},"indices":8,"material":2,"mode":4},{"attributes":{"POSITION":9,"TEXCOORD_0":10},"indices":11,"material":3,"mode":4},{"attributes":{"POSITION":12,"TEXCOORD_0":13},"indices":14,"material":4,"mode":4},{"attributes":{"POSITION":15,"TEXCOORD_0":16},"indices":17,"material":5,"mode":4},{"attributes":{"POSITION":18,"TEXCOORD_0":19},"indices":20,"material":6,"mode":4}]}],"nodes":[{"name":"foretos","mesh":0}],"samplers":[{"wrapS":10497,"wrapT":10497}],"scene":0,"scenes":[{"nodes":[0]}],"textures":[{"name":"foretos_1_0","sampler":0,"source":0},{"name":"foretos_1_2","sampler":0,"source":1},{"name":"foretos_1_3","sampler":0,"source":2},{"name":"foretos_1_4","sampler":0,"source":3},{"name":"foretos_1_5","sampler":0,"source":4},{"name":"foretos_1_7","sampler":0,"source":5},{"name":"foretos_1_9","sampler":0,"source":6}]}