{"accessors":[{"name":"gliger-Mesh_0_positions","componentType":5126,"count":24,"min":[-5.281350135803223,-1.1859500408172607,-9.067489624023438],"max":[5.270319938659668,0.809909999370575,-4.9426398277282715],"type":"VEC3","bufferView":0,"byteOffset":0},{"name":"gliger-Mesh_0_texcoords","componentType":5126,"count":24,"min":[-0.12812499701976776,0.010417000390589237],"max":[1.0118099451065063,1.078125],"type":"VEC2","bufferView":1,"byteOffset":0},{"name":"gliger-Mesh_0_indices","componentType":5123,"count":54,"min":[0],"max":[23],"type":"SCALAR","bufferView":2,"byteOffset":0},{"name":"gliger-Mesh_1_positions","componentType":5126,"count":14,"min":[-5.853340148925781,-0.6865779757499695,-7.502409934997559],"max":[5.842160224914551,0.7481139898300171,-6.663259983062744],"type":"VEC3","bufferView":0,"byteOffset":288},{"name":"gliger-Mesh_1_texcoords","componentType":5126,"count":14,"min":[0.11607100069522858,0.06696400046348572],"max":[0.8125,0.955003023147583],"type":"VEC2","bufferView":1,"byteOffset":192},{"name":"gliger-Mesh_1_indices","componentType":5123,"count":48,"min":[0],"max":[13],"type":"SCALAR","bufferView":2,"byteOffset":108},{"name":"gliger-Mesh_2_positions","componentType":5126,"count":5,"min":[2.1956799030303955,-0.39797401428222656,-4.812099933624268],"max":[3.120529890060425,0.35102298855781555,-3.8369200229644775],"type":"VEC3","bufferView":0,"byteOffset":456},{"name":"gliger-Mesh_2_texcoords","componentType":5126,"count":5,"min":[0.7227510213851929,0.33371999859809875],"max":[0.8124690055847168,0.44200000166893005],"type":"VEC2","bufferView":1,"byteOffset":304},{"name":"gliger-Mesh_2_indices","componentType":5123,"count":9,"min":[0],"max":[4],"type":"SCALAR","bufferView":2,"byteOffset":204},{"name":"gliger-Mesh_3_positions","componentType":5126,"count":75,"min":[-2.4690299034118652,-1.2298599481582642,-12.97599983215332],"max":[2.4690299034118652,3.404949903488159,-7.612969875335693],"type":"VEC3","bufferView":0,"byteOffset":516},{"name":"gliger-Mesh_3_texcoords","componentType":5126,"count":75,"min":[0,-0.1875],"max":[1,1],"type":"VEC2","bufferView":1,"byteOffset":344},{"name":"gliger-Mesh_3_indices","componentType":5123,"count":354,"min":[0],"max":[74],"type":"SCALAR","bufferView":2,"byteOffset":224},{"name":"gliger-Mesh_4_positions","componentType":5126,"count":13,"min":[-2.4690299034118652,1.1645300388336182,-9.904890060424805],"max":[2.4690299034118652,3.5174601078033447,-7.995019912719727],"type":"VEC3","bufferView":0,"byteOffset":1416},{"name":"gliger-Mesh_4_texcoords","componentType":5126,"count":13,"min":[0.0025450000539422035,-0.015850000083446503],"max":[1.589050054550171,0.2239920049905777],"type":"VEC2","bufferView":1,"byteOffset":944},{"name":"gliger-Mesh_4_indices","componentType":5123,"count":42,"min":[0],"max":[12],"type":"SCALAR","bufferView":2,"byteOffset":932},{"name":"gliger-Mesh_5_positions","componentType":5126,"count":16,"min":[-1.3027600049972534,2.5123000144958496,-8.418219566345215],"max":[1.3027600049972534,3.0350000858306885,-8.174220085144043],"type":"VEC3","bufferView":0,"byteOffset":1572},{"name":"gliger-Mesh_5_texcoords","componentType":5126,"count":16,"min":[0.034345999360084534,0.008070000447332859],"max":[0.9684960246086121,0.7433909773826599],"type":"VEC2","bufferView":1,"byteOffset":1048},{"name":"gliger-Mesh_5_indices","componentType":5123,"count":54,"min":[0],"max":[15],"type":"SCALAR","bufferView":2,"byteOffset":1016},{"name":"gliger-Mesh_6_positions","componentType":5126,"count":318,"min":[-5.853340148925781,-1.1859500408172607,-11.868599891662598],"max":[5.842160224914551,2.660979986190796,-0.8209319710731506],"type":"VEC3","bufferView":0,"byteOffset":1764},{"name":"gliger-Mesh_6_texcoords","componentType":5126,"count":318,"min":[0,0.045097000896930695],"max":[1,1],"type":"VEC2","bufferView":1,"byteOffset":1176},{"name":"gliger-Mesh_6_indices","componentType":5123,"count":1530,"min":[0],"max":[317],"type":"SCALAR","bufferView":2,"byteOffset":1124}],"asset":{"generator":"obj2gltf","version":"2.0"},"buffers":[{"name":"BR_Gligar-Shiny01","byteLength":100696,"uri":"data:application/octet-stream;base64,"}],"bufferViews":[{"name":"bufferView_0","buffer":0,"byteLength":5580,"byteOffset":0,"byteStride":12,"target":34962},{"name":"bufferView_1","buffer":0,"byteLength":3720,"byteOffset":5580,"byteStride":8,"target":34962},{"name":"bufferView_2","buffer":0,"byteLength":4184,"byteOffset":9300,"target":34963},{"buffer":0,"byteOffset":13484,"byteLength":16402},{"buffer":0,"byteOffset":29886,"byteLength":1042},{"buffer":0,"byteOffset":30928,"byteLength":4114},{"buffer":0,"byteOffset":35042,"byteLength":49170},{"buffer":0,"byteOffset":84212,"byteLength":16402},{"buffer":0,"byteOffset":100614,"byteLength":82}],"images":[{"name":"gliger_1_0","mimeType":"image/x-tga","bufferView":3},{"name":"gliger_1_1","mimeType":"image/x-tga","bufferView":4},{"name":"gliger_1_2","mimeType":"image/x-tga","bufferView":5},{"name":"gliger_1_3","mimeType":"image/x-tga","bufferView":6},{"name":"gliger_1_4","mimeType":"image/x-tga","bufferView":7},{"name":"gliger_1_5","mimeType":"image/x-tga","bufferView":8}],"materials":[{"name":"mat_0","pbrMetallicRoughness":{"baseColorTexture":{"index":0},"baseColorFactor":[1,1,1,1],"metallicFactor":0,"roughnessFactor":0.903921569},"emissiveFactor":[0,0,0],"alphaMode":"BLEND","doubleSided":true},{"name":"mat_1","pbrMetallicRoughness":{"baseColorTexture":{"index":1},"baseColorFactor":[1,1,1,1],"metallicFactor":0,"roughnessFactor":0.903921569},"emissiveFactor":[0,0,0],"alphaMode":"BLEND","doubleSided":true},{"name":"mat_2","pbrMetallicRoughness":{"baseColorFactor":[0.8,0.8,0.8,1],"metallicFactor":0,"roughnessFactor":0.903921569},"emissiveFactor":[0,0,0],"alphaMode":"OPAQUE","doubleSided":false},{"name":"mat_3","pbrMetallicRoughness":{"baseColorTexture":{"index":2},"baseColorFactor":[1,1,1,1],"metallicFactor":0,"roughnessFactor":0.903921569},"emissiveFactor":[0,0,0],"alphaMode":"BLEND","doubleSided":true},{"name":"mat_4","pbrMetallicRoughness":{"baseColorTexture":{"index":3},"baseColorFactor":[1,1,1,1],"metallicFactor":0,"roughnessFactor":0.903921569},"emissiveFactor":[0,0,0],"alphaMode":"BLEND","doubleSided":true},{"name":"mat_5","pbrMetallicRoughness":{"baseColorTexture":{"index":4},"baseColorFactor":[1,1,1,1],"metallicFactor":0,"roughnessFactor":0.903921569},"emissiveFactor":[0,0,0],"alphaMode":"BLEND","doubleSided":true},{"name":"mat_6","pbrMetallicRoughness":{"baseColorTexture":{"index":5},"baseColorFactor":[1,1,1,1],"metallicFactor":0,"roughnessFactor":0.903921569},"emissiveFactor":[0,0,0],"alphaMode":"BLEND","doubleSided":true}],"meshes":[{"name":"gliger-Mesh","primitives":[{"attributes":{"POSITION":0,"TEXCOORD_0":1},"indices":2,"material":0,"mode":4},{"attributes":{"POSITION":3,"TEXCOORD_0":4},"indices":5,"material":1,"mode":4},{"attributes":{"POSITION":6,"TEXCOORD_0":7},"indices":8,"material":2,"mode":4},{"attributes":{"POSITION":9,"TEXCOORD_0":10},"indices":11,"material":3,"mode":4},{"attributes":{"POSITION":12,"TEXCOORD_0":13},"indices":14,"material":4,"mode":4},{"attributes":{"POSITION":15,"TEXCOORD_0":16},"indices":17,"material":5,"mode":4},{"attributes":{"POSITION":18,"TEXCOORD_0":19},"indices":20,"material":6,"mode":4}]}],"nodes":[{"name":"gliger","mesh":0}],"samplers":[{"wrapS":10497,"wrapT":10497}],"scene":0,"scenes":[{"nodes":[0]}],"textures":[{"name":"gliger_1_0","sampler":0,"source":0},{"name":"gliger_1_1","sampler":0,"source":1},{"name":"gliger_1_2","sampler":0,"source":2},{"name":"gliger_1_3","sampler":0,"source":3},{"name":"gliger_1_4","sampler":0,"source":4},{"name":"gliger_1_5","sampler":0,"source":5}]}