{"accessors":[{"name":"haganeil-Mesh_0_positions","componentType":5126,"count":58,"min":[-0.3134480118751526,-6.388599872589111,-4.968180179595947],"max":[10.493499755859375,4.985849857330322,5.880620002746582],"type":"VEC3","bufferView":0,"byteOffset":0},{"name":"haganeil-Mesh_0_texcoords","componentType":5126,"count":58,"min":[0,1],"max":[0,1],"type":"VEC2","bufferView":1,"byteOffset":0},{"name":"haganeil-Mesh_0_indices","componentType":5123,"count":114,"min":[0],"max":[57],"type":"SCALAR","bufferView":2,"byteOffset":0}],"asset":{"generator":"obj2gltf","version":"2.0"},"buffers":[{"name":"BR_Steelix-Shiny01","byteLength":5504,"uri":"data:application/octet-stream;base64,"}],"bufferViews":[{"name":"bufferView_0","buffer":0,"byteLength":696,"byteOffset":0,"byteStride":12,"target":34962},{"name":"bufferView_1","buffer":0,"byteLength":464,"byteOffset":696,"byteStride":8,"target":34962},{"name":"bufferView_2","buffer":0,"byteLength":228,"byteOffset":1160,"target":34963},{"buffer":0,"byteOffset":1388,"byteLength":4114}],"images":[{"name":"haganeil_1_0","mimeType":"image/x-tga","bufferView":3}],"materials":[{"name":"mat_0","pbrMetallicRoughness":{"baseColorTexture":{"index":0},"baseColorFactor":[1,1,1,1],"metallicFactor":0,"roughnessFactor":0.903921569},"emissiveFactor":[0,0,0],"alphaMode":"BLEND","doubleSided":true}],"meshes":[{"name":"haganeil-Mesh","primitives":[{"attributes":{"POSITION":0,"TEXCOORD_0":1},"indices":2,"material":0,"mode":4}]}],"nodes":[{"name":"haganeil","mesh":0}],"samplers":[{"wrapS":10497,"wrapT":10497}],"scene":0,"scenes":[{"nodes":[0]}],"textures":[{"name":"haganeil_1_0","sampler":0,"source":0}]}