{"accessors":[{"name":"bulu-Mesh_0_positions","componentType":5126,"count":280,"min":[-2.1117498874664307,-2.1884400844573975,-6.031489849090576],"max":[2.111759901046753,2.0800299644470215,-0.25624799728393555],"type":"VEC3","bufferView":0,"byteOffset":0},{"name":"bulu-Mesh_0_texcoords","componentType":5126,"count":280,"min":[-0.000048000001697801054,0],"max":[1,1.001628041267395],"type":"VEC2","bufferView":1,"byteOffset":0},{"name":"bulu-Mesh_0_indices","componentType":5123,"count":1134,"min":[0],"max":[279],"type":"SCALAR","bufferView":2,"byteOffset":0},{"name":"bulu-Mesh_1_positions","componentType":5126,"count":25,"min":[-0.6392750144004822,1.6885000467300415,-4.584479808807373],"max":[0.6392750144004822,1.965559959411621,-3.54899001121521],"type":"VEC3","bufferView":0,"byteOffset":3360},{"name":"bulu-Mesh_1_texcoords","componentType":5126,"count":25,"min":[0,0.005898000206798315],"max":[1,0.9952970147132874],"type":"VEC2","bufferView":1,"byteOffset":2240},{"name":"bulu-Mesh_1_indices","componentType":5123,"count":60,"min":[0],"max":[24],"type":"SCALAR","bufferView":2,"byteOffset":2268},{"name":"bulu-Mesh_2_positions","componentType":5126,"count":18,"min":[-1.2753299474716187,0.7908809781074524,-5.501999855041504],"max":[1.2753299474716187,1.6019099950790405,-4.63031005859375],"type":"VEC3","bufferView":0,"byteOffset":3660},{"name":"bulu-Mesh_2_texcoords","componentType":5126,"count":18,"min":[-0.0857049971818924,-0.018619999289512634],"max":[1.066499948501587,0.2232239991426468],"type":"VEC2","bufferView":1,"byteOffset":2440},{"name":"bulu-Mesh_2_indices","componentType":5123,"count":48,"min":[0],"max":[17],"type":"SCALAR","bufferView":2,"byteOffset":2388},{"name":"bulu-Mesh_3_positions","componentType":5126,"count":76,"min":[-3.2056000232696533,-2.149290084838867,-5.8821001052856445],"max":[3.2056000232696533,0.23591800034046173,-3.9681200981140137],"type":"VEC3","bufferView":0,"byteOffset":3876},{"name":"bulu-Mesh_3_texcoords","componentType":5126,"count":76,"min":[-2.416599988937378,-2.834359884262085],"max":[3.6525800228118896,7.455130100250244],"type":"VEC2","bufferView":1,"byteOffset":2584},{"name":"bulu-Mesh_3_indices","componentType":5123,"count":288,"min":[0],"max":[75],"type":"SCALAR","bufferView":2,"byteOffset":2484},{"name":"bulu-Mesh_4_positions","componentType":5126,"count":9,"min":[-0.23864999413490295,1.576200008392334,-4.846419811248779],"max":[0.23864899575710297,1.7238199710845947,-4.651490211486816],"type":"VEC3","bufferView":0,"byteOffset":4788},{"name":"bulu-Mesh_4_texcoords","componentType":5126,"count":9,"min":[-0.046875,0],"max":[1.0468800067901611,1],"type":"VEC2","bufferView":1,"byteOffset":3192},{"name":"bulu-Mesh_4_indices","componentType":5123,"count":24,"min":[0],"max":[8],"type":"SCALAR","bufferView":2,"byteOffset":3060},{"name":"bulu-Mesh_5_positions","componentType":5126,"count":32,"min":[-1.7887799739837646,-1.7716599702835083,-3.429260015487671],"max":[1.7887799739837646,1.805899977684021,-2.7256500720977783],"type":"VEC3","bufferView":0,"byteOffset":4896},{"name":"bulu-Mesh_5_texcoords","componentType":5126,"count":32,"min":[0,0],"max":[1,1],"type":"VEC2","bufferView":1,"byteOffset":3264},{"name":"bulu-Mesh_5_indices","componentType":5123,"count":138,"min":[0],"max":[31],"type":"SCALAR","bufferView":2,"byteOffset":3108},{"name":"bulu-Mesh_6_positions","componentType":5126,"count":27,"min":[-1.9153300523757935,-1.141010046005249,-2.9622600078582764],"max":[1.9153300523757935,1.889930009841919,-0.9782059788703918],"type":"VEC3","bufferView":0,"byteOffset":5280},{"name":"bulu-Mesh_6_texcoords","componentType":5126,"count":27,"min":[-0.9374480247497559,-0.7671599984169006],"max":[2.1096699237823486,1.1164909601211548],"type":"VEC2","bufferView":1,"byteOffset":3520},{"name":"bulu-Mesh_6_indices","componentType":5123,"count":72,"min":[0],"max":[26],"type":"SCALAR","bufferView":2,"byteOffset":3384},{"name":"bulu-Mesh_7_positions","componentType":5126,"count":98,"min":[-1.5924700498580933,-0.7584949731826782,-0.7372580170631409],"max":[1.5924700498580933,1.147320032119751,0.0022279999684542418],"type":"VEC3","bufferView":0,"byteOffset":5604},{"name":"bulu-Mesh_7_texcoords","componentType":5126,"count":98,"min":[-0.27900001406669617,-0.15000000596046448],"max":[1.279289960861206,1.1193950176239014],"type":"VEC2","bufferView":1,"byteOffset":3736},{"name":"bulu-Mesh_7_indices","componentType":5123,"count":276,"min":[0],"max":[97],"type":"SCALAR","bufferView":2,"byteOffset":3528}],"asset":{"generator":"obj2gltf","version":"2.0"},"buffers":[{"name":"BR_Bulu-Shiny01","byteLength":46884,"uri":"data:application/octet-stream;base64,"}],"bufferViews":[{"name":"bufferView_0","buffer":0,"byteLength":6780,"byteOffset":0,"byteStride":12,"target":34962},{"name":"bufferView_1","buffer":0,"byteLength":4520,"byteOffset":6780,"byteStride":8,"target":34962},{"name":"bufferView_2","buffer":0,"byteLength":4080,"byteOffset":11300,"target":34963},{"buffer":0,"byteOffset":15380,"byteLength":82},{"buffer":0,"byteOffset":15462,"byteLength":2066},{"buffer":0,"byteOffset":17528,"byteLength":20498},{"buffer":0,"byteOffset":38026,"byteLength":82},{"buffer":0,"byteOffset":38108,"byteLength":274},{"buffer":0,"byteOffset":38382,"byteLength":274},{"buffer":0,"byteOffset":38656,"byteLength":4114},{"buffer":0,"byteOffset":42770,"byteLength":4114}],"images":[{"name":"bulu_1_0","mimeType":"image/x-tga","bufferView":3},{"name":"bulu_1_1","mimeType":"image/x-tga","bufferView":4},{"name":"bulu_1_2","mimeType":"image/x-tga","bufferView":5},{"name":"bulu_1_3","mimeType":"image/x-tga","bufferView":6},{"name":"bulu_1_4","mimeType":"image/x-tga","bufferView":7},{"name":"bulu_1_5","mimeType":"image/x-tga","bufferView":8},{"name":"bulu_1_6","mimeType":"image/x-tga","bufferView":9},{"name":"bulu_1_7","mimeType":"image/x-tga","bufferView":10}],"materials":[{"name":"mat_0","pbrMetallicRoughness":{"baseColorTexture":{"index":0},"baseColorFactor":[1,1,1,1],"metallicFactor":0,"roughnessFactor":0.903921569},"emissiveFactor":[0,0,0],"alphaMode":"BLEND","doubleSided":true},{"name":"mat_1","pbrMetallicRoughness":{"baseColorTexture":{"index":1},"baseColorFactor":[1,1,1,1],"metallicFactor":0,"roughnessFactor":0.903921569},"emissiveFactor":[0,0,0],"alphaMode":"BLEND","doubleSided":true},{"name":"mat_2","pbrMetallicRoughness":{"baseColorTexture":{"index":2},"baseColorFactor":[1,1,1,1],"metallicFactor":0,"roughnessFactor":0.903921569},"emissiveFactor":[0,0,0],"alphaMode":"BLEND","doubleSided":true},{"name":"mat_3","pbrMetallicRoughness":{"baseColorTexture":{"index":3},"baseColorFactor":[1,1,1,1],"metallicFactor":0,"roughnessFactor":0.903921569},"emissiveFactor":[0,0,0],"alphaMode":"BLEND","doubleSided":true},{"name":"mat_4","pbrMetallicRoughness":{"baseColorTexture":{"index":4},"baseColorFactor":[1,1,1,1],"metallicFactor":0,"roughnessFactor":0.903921569},"emissiveFactor":[0,0,0],"alphaMode":"BLEND","doubleSided":true},{"name":"mat_6","pbrMetallicRoughness":{"baseColorTexture":{"index":5},"baseColorFactor":[1,1,1,1],"metallicFactor":0,"roughnessFactor":0.903921569},"emissiveFactor":[0,0,0],"alphaMode":"BLEND","doubleSided":true},{"name":"mat_7","pbrMetallicRoughness":{"baseColorTexture":{"index":6},"baseColorFactor":[1,1,1,1],"metallicFactor":0,"roughnessFactor":0.903921569},"emissiveFactor":[0,0,0],"alphaMode":"BLEND","doubleSided":true},{"name":"mat_8","pbrMetallicRoughness":{"baseColorTexture":{"index":7},"baseColorFactor":[1,1,1,1],"metallicFactor":0,"roughnessFactor":0.903921569},"emissiveFactor":[0,0,0],"alphaMode":"BLEND","doubleSided":true}],"meshes":[{"name":"bulu-Mesh","primitives":[{"attributes":{"POSITION":0,"TEXCOORD_0":1},"indices":2,"material":0,"mode":4},{"attributes":{"POSITION":3,"TEXCOORD_0":4},"indices":5,"material":1,"mode":4},{"attributes":{"POSITION":6,"TEXCOORD_0":7},"indices":8,"material":2,"mode":4},{"attributes":{"POSITION":9,"TEXCOORD_0":10},"indices":11,"material":3,"mode":4},{"attributes":{"POSITION":12,"TEXCOORD_0":13},"indices":14,"material":4,"mode":4},{"attributes":{"POSITION":15,"TEXCOORD_0":16},"indices":17,"material":5,"mode":4},{"attributes":{"POSITION":18,"TEXCOORD_0":19},"indices":20,"material":6,"mode":4},{"attributes":{"POSITION":21,"TEXCOORD_0":22},"indices":23,"material":7,"mode":4}]}],"nodes":[{"name":"bulu","mesh":0}],"samplers":[{"wrapS":10497,"wrapT":10497}],"scene":0,"scenes":[{"nodes":[0]}],"textures":[{"name":"bulu_1_0","sampler":0,"source":0},{"name":"bulu_1_1","sampler":0,"source":1},{"name":"bulu_1_2","sampler":0,"source":2},{"name":"bulu_1_3","sampler":0,"source":3},{"name":"bulu_1_4","sampler":0,"source":4},{"name":"bulu_1_5","sampler":0,"source":5},{"name":"bulu_1_6","sampler":0,"source":6},{"name":"bulu_1_7","sampler":0,"source":7}]}