{"accessors":[{"name":"granbulu-Mesh_0_positions","componentType":5126,"count":144,"min":[-3.2170889377593994,-2.1182780265808105,-13.837499618530273],"max":[3.232780933380127,4.353733062744141,-7.794060230255127],"type":"VEC3","bufferView":0,"byteOffset":0},{"name":"granbulu-Mesh_0_texcoords","componentType":5126,"count":144,"min":[-0.05507100000977516,-0.06046000123023987],"max":[2.136850118637085,0.16728399693965912],"type":"VEC2","bufferView":1,"byteOffset":0},{"name":"granbulu-Mesh_0_indices","componentType":5123,"count":417,"min":[0],"max":[143],"type":"SCALAR","bufferView":2,"byteOffset":0},{"name":"granbulu-Mesh_1_positions","componentType":5126,"count":13,"min":[-2.875638961791992,2.2732319831848145,-10.53549861907959],"max":[2.8913309574127197,4.353733062744141,-10.118398666381836],"type":"VEC3","bufferView":0,"byteOffset":1728},{"name":"granbulu-Mesh_1_texcoords","componentType":5126,"count":13,"min":[0.03999999910593033,0.1910790055990219],"max":[0.9600769877433777,0.8379999995231628],"type":"VEC2","bufferView":1,"byteOffset":1152},{"name":"granbulu-Mesh_1_indices","componentType":5123,"count":36,"min":[0],"max":[12],"type":"SCALAR","bufferView":2,"byteOffset":836},{"name":"granbulu-Mesh_2_positions","componentType":5126,"count":3,"min":[0.8447700142860413,3.63470196723938,-10.355698585510254],"max":[1.0537619590759277,3.9958019256591797,-9.712518692016602],"type":"VEC3","bufferView":0,"byteOffset":1884},{"name":"granbulu-Mesh_2_texcoords","componentType":5126,"count":3,"min":[0.04098000004887581,0.01776600070297718],"max":[0.06358399987220764,0.020385000854730606],"type":"VEC2","bufferView":1,"byteOffset":1256},{"name":"granbulu-Mesh_2_indices","componentType":5123,"count":3,"min":[0],"max":[2],"type":"SCALAR","bufferView":2,"byteOffset":908},{"name":"granbulu-Mesh_3_positions","componentType":5126,"count":8,"min":[-0.4404059946537018,3.4796829223632812,-11.568199157714844],"max":[0.4560920000076294,3.9458529949188232,-11.153899192810059],"type":"VEC3","bufferView":0,"byteOffset":1920},{"name":"granbulu-Mesh_3_texcoords","componentType":5126,"count":8,"min":[-0.19585099816322327,0.0051369997672736645],"max":[1.198009967803955,1.0014309883117676],"type":"VEC2","bufferView":1,"byteOffset":1280},{"name":"granbulu-Mesh_3_indices","componentType":5123,"count":21,"min":[0],"max":[7],"type":"SCALAR","bufferView":2,"byteOffset":916},{"name":"granbulu-Mesh_4_positions","componentType":5126,"count":102,"min":[-4.866048812866211,-1.846379041671753,-13.674799919128418],"max":[4.881741046905518,5.394981861114502,-5.133930206298828],"type":"VEC3","bufferView":0,"byteOffset":2016},{"name":"granbulu-Mesh_4_texcoords","componentType":5126,"count":102,"min":[0,-2.7750399112701416],"max":[1.2356200218200684,1],"type":"VEC2","bufferView":1,"byteOffset":1344},{"name":"granbulu-Mesh_4_indices","componentType":5123,"count":354,"min":[0],"max":[101],"type":"SCALAR","bufferView":2,"byteOffset":960},{"name":"granbulu-Mesh_5_positions","componentType":5126,"count":117,"min":[-3.269879102706909,1.1187820434570312,-14.058198928833008],"max":[3.2855610847473145,5.394981861114502,-7.9966301918029785],"type":"VEC3","bufferView":0,"byteOffset":3240},{"name":"granbulu-Mesh_5_texcoords","componentType":5126,"count":117,"min":[0,0.08307299762964249],"max":[1,1.96875],"type":"VEC2","bufferView":1,"byteOffset":2160},{"name":"granbulu-Mesh_5_indices","componentType":5123,"count":465,"min":[0],"max":[116],"type":"SCALAR","bufferView":2,"byteOffset":1668},{"name":"granbulu-Mesh_6_positions","componentType":5126,"count":121,"min":[-3.555310010910034,-4.072470188140869,-3.756510019302368],"max":[3.723140001296997,2.873521089553833,-0.09248200058937073],"type":"VEC3","bufferView":0,"byteOffset":4644},{"name":"granbulu-Mesh_6_texcoords","componentType":5126,"count":121,"min":[0,0.5508930087089539],"max":[0.9729170203208923,1],"type":"VEC2","bufferView":1,"byteOffset":3096},{"name":"granbulu-Mesh_6_indices","componentType":5123,"count":294,"min":[0],"max":[120],"type":"SCALAR","bufferView":2,"byteOffset":2600},{"name":"granbulu-Mesh_7_positions","componentType":5126,"count":59,"min":[-3.014709949493408,-2.547389030456543,-8.86935043334961],"max":[3.0252299308776855,2.873521089553833,-3.7565090656280518],"type":"VEC3","bufferView":0,"byteOffset":6096},{"name":"granbulu-Mesh_7_texcoords","componentType":5126,"count":59,"min":[0,0.025983000174164772],"max":[1,0.9364230036735535],"type":"VEC2","bufferView":1,"byteOffset":4064},{"name":"granbulu-Mesh_7_indices","componentType":5123,"count":174,"min":[0],"max":[58],"type":"SCALAR","bufferView":2,"byteOffset":3188},{"name":"granbulu-Mesh_8_positions","componentType":5126,"count":20,"min":[-3.7770090103149414,0.10820300132036209,-6.57843017578125],"max":[3.8532609939575195,2.2704920768737793,-4.990408897399902],"type":"VEC3","bufferView":0,"byteOffset":6804},{"name":"granbulu-Mesh_8_texcoords","componentType":5126,"count":20,"min":[0.09646700322628021,-0.5909299850463867],"max":[1.1773500442504883,0.9937599897384644],"type":"VEC2","bufferView":1,"byteOffset":4536},{"name":"granbulu-Mesh_8_indices","componentType":5123,"count":72,"min":[0],"max":[19],"type":"SCALAR","bufferView":2,"byteOffset":3536},{"name":"granbulu-Mesh_9_positions","componentType":5126,"count":85,"min":[-3.664560079574585,-2.4819490909576416,-7.312388896942139],"max":[3.9869909286499023,3.438328981399536,-0.005245000123977661],"type":"VEC3","bufferView":0,"byteOffset":7044},{"name":"granbulu-Mesh_9_texcoords","componentType":5126,"count":85,"min":[0,0.006556999869644642],"max":[1,1.0114940404891968],"type":"VEC2","bufferView":1,"byteOffset":4696},{"name":"granbulu-Mesh_9_indices","componentType":5123,"count":234,"min":[0],"max":[84],"type":"SCALAR","bufferView":2,"byteOffset":3680},{"name":"granbulu-Mesh_10_positions","componentType":5126,"count":8,"min":[-3.1967899799346924,-2.4819490909576416,-0.014480999670922756],"max":[3.51921010017395,1.765339970588684,-0.005245000123977661],"type":"VEC3","bufferView":0,"byteOffset":8064},{"name":"granbulu-Mesh_10_texcoords","componentType":5126,"count":8,"min":[-0.1846819967031479,-0.08399000018835068],"max":[0.9054960012435913,1.0729670524597168],"type":"VEC2","bufferView":1,"byteOffset":5376},{"name":"granbulu-Mesh_10_indices","componentType":5123,"count":12,"min":[0],"max":[7],"type":"SCALAR","bufferView":2,"byteOffset":4148}],"asset":{"generator":"obj2gltf","version":"2.0"},"buffers":[{"name":"BR_Granbulu-Shiny01","byteLength":98108,"uri":"data:application/octet-stream;base64,"}],"bufferViews":[{"name":"bufferView_0","buffer":0,"byteLength":8160,"byteOffset":0,"byteStride":12,"target":34962},{"name":"bufferView_1","buffer":0,"byteLength":5440,"byteOffset":8160,"byteStride":8,"target":34962},{"name":"bufferView_2","buffer":0,"byteLength":4172,"byteOffset":13600,"target":34963},{"buffer":0,"byteOffset":17772,"byteLength":57362},{"buffer":0,"byteOffset":75134,"byteLength":4114},{"buffer":0,"byteOffset":79248,"byteLength":2066},{"buffer":0,"byteOffset":81314,"byteLength":82},{"buffer":0,"byteOffset":81396,"byteLength":8210},{"buffer":0,"byteOffset":89606,"byteLength":274},{"buffer":0,"byteOffset":89880,"byteLength":4114},{"buffer":0,"byteOffset":93994,"byteLength":4114}],"images":[{"name":"granbulu_1_0","mimeType":"image/x-tga","bufferView":3},{"name":"granbulu_1_1","mimeType":"image/x-tga","bufferView":4},{"name":"granbulu_1_2","mimeType":"image/x-tga","bufferView":5},{"name":"granbulu_1_3","mimeType":"image/x-tga","bufferView":6},{"name":"granbulu_1_6","mimeType":"image/x-tga","bufferView":7},{"name":"granbulu_1_7","mimeType":"image/x-tga","bufferView":8},{"name":"granbulu_1_8","mimeType":"image/x-tga","bufferView":9},{"name":"granbulu_1_9","mimeType":"image/x-tga","bufferView":10}],"materials":[{"name":"mat_0","pbrMetallicRoughness":{"baseColorTexture":{"index":0},"baseColorFactor":[1,1,1,1],"metallicFactor":0,"roughnessFactor":0.903921569},"emissiveFactor":[0,0,0],"alphaMode":"BLEND","doubleSided":true},{"name":"mat_1","pbrMetallicRoughness":{"baseColorTexture":{"index":1},"baseColorFactor":[1,1,1,1],"metallicFactor":0,"roughnessFactor":0.903921569},"emissiveFactor":[0,0,0],"alphaMode":"BLEND","doubleSided":true},{"name":"mat_2","pbrMetallicRoughness":{"baseColorFactor":[0.8,0.8,0.8,1],"metallicFactor":0,"roughnessFactor":0.903921569},"emissiveFactor":[0,0,0],"alphaMode":"OPAQUE","doubleSided":false},{"name":"mat_3","pbrMetallicRoughness":{"baseColorTexture":{"index":2},"baseColorFactor":[1,1,1,1],"metallicFactor":0,"roughnessFactor":0.903921569},"emissiveFactor":[0,0,0],"alphaMode":"BLEND","doubleSided":true},{"name":"mat_4","pbrMetallicRoughness":{"baseColorTexture":{"index":3},"baseColorFactor":[1,1,1,1],"metallicFactor":0,"roughnessFactor":0.903921569},"emissiveFactor":[0,0,0],"alphaMode":"BLEND","doubleSided":true},{"name":"mat_5","pbrMetallicRoughness":{"baseColorTexture":{"index":1},"baseColorFactor":[1,1,1,1],"metallicFactor":0,"roughnessFactor":0.903921569},"emissiveFactor":[0,0,0],"alphaMode":"BLEND","doubleSided":true},{"name":"mat_6","pbrMetallicRoughness":{"baseColorTexture":{"index":3},"baseColorFactor":[1,1,1,1],"metallicFactor":0,"roughnessFactor":0.903921569},"emissiveFactor":[0,0,0],"alphaMode":"BLEND","doubleSided":true},{"name":"mat_7","pbrMetallicRoughness":{"baseColorTexture":{"index":4},"baseColorFactor":[1,1,1,1],"metallicFactor":0,"roughnessFactor":0.903921569},"emissiveFactor":[0,0,0],"alphaMode":"BLEND","doubleSided":true},{"name":"mat_8","pbrMetallicRoughness":{"baseColorTexture":{"index":5},"baseColorFactor":[1,1,1,1],"metallicFactor":0,"roughnessFactor":0.903921569},"emissiveFactor":[0,0,0],"alphaMode":"BLEND","doubleSided":true},{"name":"mat_9","pbrMetallicRoughness":{"baseColorTexture":{"index":6},"baseColorFactor":[1,1,1,1],"metallicFactor":0,"roughnessFactor":0.903921569},"emissiveFactor":[0,0,0],"alphaMode":"BLEND","doubleSided":true},{"name":"mat_10","pbrMetallicRoughness":{"baseColorTexture":{"index":7},"baseColorFactor":[1,1,1,1],"metallicFactor":0,"roughnessFactor":0.903921569},"emissiveFactor":[0,0,0],"alphaMode":"BLEND","doubleSided":true}],"meshes":[{"name":"granbulu-Mesh","primitives":[{"attributes":{"POSITION":0,"TEXCOORD_0":1},"indices":2,"material":0,"mode":4},{"attributes":{"POSITION":3,"TEXCOORD_0":4},"indices":5,"material":1,"mode":4},{"attributes":{"POSITION":6,"TEXCOORD_0":7},"indices":8,"material":2,"mode":4},{"attributes":{"POSITION":9,"TEXCOORD_0":10},"indices":11,"material":3,"mode":4},{"attributes":{"POSITION":12,"TEXCOORD_0":13},"indices":14,"material":4,"mode":4},{"attributes":{"POSITION":15,"TEXCOORD_0":16},"indices":17,"material":5,"mode":4},{"attributes":{"POSITION":18,"TEXCOORD_0":19},"indices":20,"material":6,"mode":4},{"attributes":{"POSITION":21,"TEXCOORD_0":22},"indices":23,"material":7,"mode":4},{"attributes":{"POSITION":24,"TEXCOORD_0":25},"indices":26,"material":8,"mode":4},{"attributes":{"POSITION":27,"TEXCOORD_0":28},"indices":29,"material":9,"mode":4},{"attributes":{"POSITION":30,"TEXCOORD_0":31},"indices":32,"material":10,"mode":4}]}],"nodes":[{"name":"granbulu","mesh":0}],"samplers":[{"wrapS":10497,"wrapT":10497}],"scene":0,"scenes":[{"nodes":[0]}],"textures":[{"name":"granbulu_1_0","sampler":0,"source":0},{"name":"granbulu_1_1","sampler":0,"source":1},{"name":"granbulu_1_2","sampler":0,"source":2},{"name":"granbulu_1_3","sampler":0,"source":3},{"name":"granbulu_1_6","sampler":0,"source":4},{"name":"granbulu_1_7","sampler":0,"source":5},{"name":"granbulu_1_8","sampler":0,"source":6},{"name":"granbulu_1_9","sampler":0,"source":7}]}