{"accessors":[{"name":"harysen-Mesh_0_positions","componentType":5126,"count":163,"min":[-2.350069999694824,-6.522319793701172,-10.499899864196777],"max":[2.350069999694824,2.4788498878479004,-5.743879795074463],"type":"VEC3","bufferView":0,"byteOffset":0},{"name":"harysen-Mesh_0_texcoords","componentType":5126,"count":163,"min":[0.2435390055179596,0.23614099621772766],"max":[0.7054790258407593,0.9322320222854614],"type":"VEC2","bufferView":1,"byteOffset":0},{"name":"harysen-Mesh_0_indices","componentType":5123,"count":423,"min":[0],"max":[162],"type":"SCALAR","bufferView":2,"byteOffset":0},{"name":"harysen-Mesh_1_positions","componentType":5126,"count":213,"min":[-2.5436999797821045,-6.980370044708252,-12.258899688720703],"max":[2.618259906768799,2.117310047149658,-5.3208699226379395],"type":"VEC3","bufferView":0,"byteOffset":1956},{"name":"harysen-Mesh_1_texcoords","componentType":5126,"count":213,"min":[0,0],"max":[1,1],"type":"VEC2","bufferView":1,"byteOffset":1304},{"name":"harysen-Mesh_1_indices","componentType":5123,"count":861,"min":[0],"max":[212],"type":"SCALAR","bufferView":2,"byteOffset":848},{"name":"harysen-Mesh_2_positions","componentType":5126,"count":68,"min":[-2.990950107574463,-0.045441001653671265,-9.250200271606445],"max":[2.990950107574463,2.7401199340820312,-6.576290130615234],"type":"VEC3","bufferView":0,"byteOffset":4512},{"name":"harysen-Mesh_2_texcoords","componentType":5126,"count":68,"min":[-0.007813000120222569,-0.015629999339580536],"max":[1.0078099966049194,1.015625],"type":"VEC2","bufferView":1,"byteOffset":3008},{"name":"harysen-Mesh_2_indices","componentType":5123,"count":270,"min":[0],"max":[67],"type":"SCALAR","bufferView":2,"byteOffset":2572},{"name":"harysen-Mesh_3_positions","componentType":5126,"count":68,"min":[-2.289680004119873,-2.8464300632476807,-12.730600357055664],"max":[2.289669990539551,1.5558099746704102,-8.939470291137695],"type":"VEC3","bufferView":0,"byteOffset":5328},{"name":"harysen-Mesh_3_texcoords","componentType":5126,"count":68,"min":[0,-0.007809999864548445],"max":[1.0078099966049194,1.0078129768371582],"type":"VEC2","bufferView":1,"byteOffset":3552},{"name":"harysen-Mesh_3_indices","componentType":5123,"count":270,"min":[0],"max":[67],"type":"SCALAR","bufferView":2,"byteOffset":3112},{"name":"harysen-Mesh_4_positions","componentType":5126,"count":56,"min":[-0.5947039723396301,2.054029941558838,-10.935799598693848],"max":[0.5947039723396301,2.7401199340820312,-9.906550407409668],"type":"VEC3","bufferView":0,"byteOffset":6144},{"name":"harysen-Mesh_4_texcoords","componentType":5126,"count":56,"min":[0,0],"max":[1,1],"type":"VEC2","bufferView":1,"byteOffset":4096},{"name":"harysen-Mesh_4_indices","componentType":5123,"count":240,"min":[0],"max":[55],"type":"SCALAR","bufferView":2,"byteOffset":3652},{"name":"harysen-Mesh_5_positions","componentType":5126,"count":8,"min":[-0.44127899408340454,2.4604899883270264,-10.564200401306152],"max":[0.44127899408340454,2.5643301010131836,-10.39229965209961],"type":"VEC3","bufferView":0,"byteOffset":6816},{"name":"harysen-Mesh_5_texcoords","componentType":5126,"count":8,"min":[0.12899300456047058,0],"max":[0.8710070252418518,0.2857170104980469],"type":"VEC2","bufferView":1,"byteOffset":4544},{"name":"harysen-Mesh_5_indices","componentType":5123,"count":18,"min":[0],"max":[7],"type":"SCALAR","bufferView":2,"byteOffset":4132},{"name":"harysen-Mesh_6_positions","componentType":5126,"count":20,"min":[-2.03521990776062,1.1412299871444702,-11.758000373840332],"max":[2.03521990776062,2.3750600814819336,-10.320300102233887],"type":"VEC3","bufferView":0,"byteOffset":6912},{"name":"harysen-Mesh_6_texcoords","componentType":5126,"count":20,"min":[-0.49765801429748535,-0.06160999834537506],"max":[1.3773900270462036,0.23035700619220734],"type":"VEC2","bufferView":1,"byteOffset":4608},{"name":"harysen-Mesh_6_indices","componentType":5123,"count":72,"min":[0],"max":[19],"type":"SCALAR","bufferView":2,"byteOffset":4168}],"asset":{"generator":"obj2gltf","version":"2.0"},"buffers":[{"name":"BR_Qwilfish-Shiny01","byteLength":37352,"uri":"data:application/octet-stream;base64,"}],"bufferViews":[{"name":"bufferView_0","buffer":0,"byteLength":7152,"byteOffset":0,"byteStride":12,"target":34962},{"name":"bufferView_1","buffer":0,"byteLength":4768,"byteOffset":7152,"byteStride":8,"target":34962},{"name":"bufferView_2","buffer":0,"byteLength":4312,"byteOffset":11920,"target":34963},{"buffer":0,"byteOffset":16232,"byteLength":82},{"buffer":0,"byteOffset":16314,"byteLength":82},{"buffer":0,"byteOffset":16396,"byteLength":146},{"buffer":0,"byteOffset":16542,"byteLength":146},{"buffer":0,"byteOffset":16688,"byteLength":82},{"buffer":0,"byteOffset":16770,"byteLength":82},{"buffer":0,"byteOffset":16852,"byteLength":20498}],"images":[{"name":"harysen_1_0","mimeType":"image/x-tga","bufferView":3},{"name":"harysen_1_1","mimeType":"image/x-tga","bufferView":4},{"name":"harysen_1_2","mimeType":"image/x-tga","bufferView":5},{"name":"harysen_1_3","mimeType":"image/x-tga","bufferView":6},{"name":"harysen_1_4","mimeType":"image/x-tga","bufferView":7},{"name":"harysen_1_5","mimeType":"image/x-tga","bufferView":8},{"name":"harysen_1_6","mimeType":"image/x-tga","bufferView":9}],"materials":[{"name":"mat_0","pbrMetallicRoughness":{"baseColorTexture":{"index":0},"baseColorFactor":[1,1,1,1],"metallicFactor":0,"roughnessFactor":0.903921569},"emissiveFactor":[0,0,0],"alphaMode":"BLEND","doubleSided":true},{"name":"mat_1","pbrMetallicRoughness":{"baseColorTexture":{"index":1},"baseColorFactor":[1,1,1,1],"metallicFactor":0,"roughnessFactor":0.903921569},"emissiveFactor":[0,0,0],"alphaMode":"BLEND","doubleSided":true},{"name":"mat_2","pbrMetallicRoughness":{"baseColorTexture":{"index":2},"baseColorFactor":[1,1,1,1],"metallicFactor":0,"roughnessFactor":0.903921569},"emissiveFactor":[0,0,0],"alphaMode":"BLEND","doubleSided":true},{"name":"mat_3","pbrMetallicRoughness":{"baseColorTexture":{"index":3},"baseColorFactor":[1,1,1,1],"metallicFactor":0,"roughnessFactor":0.903921569},"emissiveFactor":[0,0,0],"alphaMode":"BLEND","doubleSided":true},{"name":"mat_4","pbrMetallicRoughness":{"baseColorTexture":{"index":4},"baseColorFactor":[1,1,1,1],"metallicFactor":0,"roughnessFactor":0.903921569},"emissiveFactor":[0,0,0],"alphaMode":"BLEND","doubleSided":true},{"name":"mat_5","pbrMetallicRoughness":{"baseColorTexture":{"index":5},"baseColorFactor":[1,1,1,1],"metallicFactor":0,"roughnessFactor":0.903921569},"emissiveFactor":[0,0,0],"alphaMode":"BLEND","doubleSided":true},{"name":"mat_6","pbrMetallicRoughness":{"baseColorTexture":{"index":6},"baseColorFactor":[1,1,1,1],"metallicFactor":0,"roughnessFactor":0.903921569},"emissiveFactor":[0,0,0],"alphaMode":"BLEND","doubleSided":true}],"meshes":[{"name":"harysen-Mesh","primitives":[{"attributes":{"POSITION":0,"TEXCOORD_0":1},"indices":2,"material":0,"mode":4},{"attributes":{"POSITION":3,"TEXCOORD_0":4},"indices":5,"material":1,"mode":4},{"attributes":{"POSITION":6,"TEXCOORD_0":7},"indices":8,"material":2,"mode":4},{"attributes":{"POSITION":9,"TEXCOORD_0":10},"indices":11,"material":3,"mode":4},{"attributes":{"POSITION":12,"TEXCOORD_0":13},"indices":14,"material":4,"mode":4},{"attributes":{"POSITION":15,"TEXCOORD_0":16},"indices":17,"material":5,"mode":4},{"attributes":{"POSITION":18,"TEXCOORD_0":19},"indices":20,"material":6,"mode":4}]}],"nodes":[{"name":"harysen","mesh":0}],"samplers":[{"wrapS":10497,"wrapT":10497}],"scene":0,"scenes":[{"nodes":[0]}],"textures":[{"name":"harysen_1_0","sampler":0,"source":0},{"name":"harysen_1_1","sampler":0,"source":1},{"name":"harysen_1_2","sampler":0,"source":2},{"name":"harysen_1_3","sampler":0,"source":3},{"name":"harysen_1_4","sampler":0,"source":4},{"name":"harysen_1_5","sampler":0,"source":5},{"name":"harysen_1_6","sampler":0,"source":6}]}