{"accessors":[{"name":"polygon0_1_0_positions","componentType":5126,"count":5,"min":[-0.3133449852466583,11.588667869567871,1.0641059875488281],"max":[0.3133449852466583,11.889399528503418,1.9715529680252075],"type":"VEC3","bufferView":0,"byteOffset":0},{"name":"polygon0_1_0_normals","componentType":5126,"count":5,"min":[-0.3415890038013458,-0.9998779296875,0.015622999519109726],"max":[0.3415890038013458,-0.9316049814224243,0.18711192905902863],"type":"VEC3","bufferView":1,"byteOffset":0},{"name":"polygon0_1_0_texcoords","componentType":5126,"count":5,"min":[-0.9755250215530396,0.008117999881505966],"max":[-0.020935000851750374,0.24017299711704254],"type":"VEC2","bufferView":2,"byteOffset":0},{"name":"polygon0_1_0_indices","componentType":5123,"count":12,"min":[0],"max":[4],"type":"SCALAR","bufferView":3,"byteOffset":0},{"name":"polygon1_1_0_positions","componentType":5126,"count":18,"min":[-1.303637981414795,11.987813949584961,0.2848210036754608],"max":[1.303637981414795,13.46272087097168,2.0565640926361084],"type":"VEC3","bufferView":0,"byteOffset":60},{"name":"polygon1_1_0_normals","componentType":5126,"count":18,"min":[-0.986678421497345,-0.6023609042167664,-0.12774603068828583],"max":[0.986678421497345,0.01837100461125374,0.7955089211463928],"type":"VEC3","bufferView":1,"byteOffset":60},{"name":"polygon1_1_0_texcoords","componentType":5126,"count":18,"min":[0.007813000120222569,0.0078119998797774315],"max":[0.4921880066394806,0.1835940033197403],"type":"VEC2","bufferView":2,"byteOffset":40},{"name":"polygon1_1_0_indices","componentType":5123,"count":48,"min":[0],"max":[17],"type":"SCALAR","bufferView":3,"byteOffset":24},{"name":"polygon2_1_0_positions","componentType":5126,"count":865,"min":[-9.312320709228516,0,-4.1239237785339355],"max":[9.312320709228516,16.07809829711914,2.5555450916290283],"type":"VEC3","bufferView":0,"byteOffset":276},{"name":"polygon2_1_0_normals","componentType":5126,"count":865,"min":[-0.9999882578849792,-0.9997251033782959,-0.9998080730438232],"max":[0.9999882578849792,0.9997251033782959,0.9999923706054688],"type":"VEC3","bufferView":1,"byteOffset":276},{"name":"polygon2_1_0_texcoords","componentType":5126,"count":865,"min":[0.008635999634861946,0.005646000150591135],"max":[0.9918519854545593,0.9923400282859802],"type":"VEC2","bufferView":2,"byteOffset":184},{"name":"polygon2_1_0_indices","componentType":5123,"count":4068,"min":[0],"max":[864],"type":"SCALAR","bufferView":3,"byteOffset":120},{"name":"polygon3_1_0_positions","componentType":5126,"count":32,"min":[-5.602529048919678,6.90031099319458,-6.895715236663818],"max":[5.602530002593994,15.207503318786621,0.16983599960803986],"type":"VEC3","bufferView":0,"byteOffset":10656},{"name":"polygon3_1_0_normals","componentType":5126,"count":32,"min":[-0.7856220602989197,-0.0400870144367218,-0.6192048788070679],"max":[0.7856220602989197,0.0400870144367218,0.6192048788070679],"type":"VEC3","bufferView":1,"byteOffset":10656},{"name":"polygon3_1_0_texcoords","componentType":5126,"count":32,"min":[0.03418000042438507,0.023956000804901123],"max":[0.9681090116500854,0.9760439991950989],"type":"VEC2","bufferView":2,"byteOffset":7104},{"name":"polygon3_1_0_indices","componentType":5123,"count":48,"min":[0],"max":[31],"type":"SCALAR","bufferView":3,"byteOffset":8256},{"name":"polygon4_1_0_positions","componentType":5126,"count":172,"min":[-9.149028778076172,9.833829879760742,-1.171633005142212],"max":[9.149027824401855,11.709381103515625,1.5774259567260742],"type":"VEC3","bufferView":0,"byteOffset":11040},{"name":"polygon4_1_0_normals","componentType":5126,"count":172,"min":[-0.8948659300804138,-0.9910629391670227,-0.9998080730438232],"max":[0.8948659300804138,0.9910629391670227,0.963703989982605],"type":"VEC3","bufferView":1,"byteOffset":11040},{"name":"polygon4_1_0_texcoords","componentType":5126,"count":172,"min":[0.8915709853172302,0.7634279727935791],"max":[0.9845280051231384,0.9938660264015198],"type":"VEC2","bufferView":2,"byteOffset":7360},{"name":"polygon4_1_0_indices","componentType":5123,"count":372,"min":[0],"max":[171],"type":"SCALAR","bufferView":3,"byteOffset":8352}],"asset":{"generator":"obj2gltf","version":"2.0"},"buffers":[{"name":"Scizor","byteLength":306256,"uri":"data:application/octet-stream;base64,"}],"bufferViews":[{"name":"bufferView_0","buffer":0,"byteLength":13104,"byteOffset":0,"byteStride":12,"target":34962},{"name":"bufferView_1","buffer":0,"byteLength":13104,"byteOffset":13104,"byteStride":12,"target":34962},{"name":"bufferView_2","buffer":0,"byteLength":8736,"byteOffset":26208,"byteStride":8,"target":34962},{"name":"bufferView_3","buffer":0,"byteLength":9096,"byteOffset":34944,"target":34963},{"buffer":0,"byteOffset":44040,"byteLength":49170},{"buffer":0,"byteOffset":93210,"byteLength":98322},{"buffer":0,"byteOffset":191532,"byteLength":49170},{"buffer":0,"byteOffset":240702,"byteLength":65554}],"images":[{"name":"HassamMouthDh","mimeType":"image/x-tga","bufferView":4},{"name":"HassamEyeDh","mimeType":"image/x-tga","bufferView":5},{"name":"HassamDh","mimeType":"image/x-tga","bufferView":6},{"name":"HassamWingDh","mimeType":"image/x-tga","bufferView":7}],"materials":[{"name":"mat4","pbrMetallicRoughness":{"baseColorTexture":{"index":0},"baseColorFactor":[1,1,1,1],"metallicFactor":0,"roughnessFactor":0.99},"emissiveFactor":[0,0,0],"alphaMode":"OPAQUE","doubleSided":false},{"name":"mat3","pbrMetallicRoughness":{"baseColorTexture":{"index":1},"baseColorFactor":[1,1,1,1],"metallicFactor":0,"roughnessFactor":0.99},"emissiveFactor":[0,0,0],"alphaMode":"OPAQUE","doubleSided":false},{"name":"mat1","pbrMetallicRoughness":{"baseColorTexture":{"index":2},"baseColorFactor":[1,1,1,1],"metallicFactor":0,"roughnessFactor":0.99},"emissiveFactor":[0,0,0],"alphaMode":"OPAQUE","doubleSided":false},{"name":"mat5","pbrMetallicRoughness":{"baseColorTexture":{"index":3},"baseColorFactor":[1,1,1,1],"metallicFactor":0,"roughnessFactor":0.99},"emissiveFactor":[0,0,0],"alphaMode":"OPAQUE","doubleSided":false},{"name":"mat2","pbrMetallicRoughness":{"baseColorTexture":{"index":2},"baseColorFactor":[1,1,1,1],"metallicFactor":0,"roughnessFactor":0.99},"emissiveFactor":[0,0,0],"alphaMode":"OPAQUE","doubleSided":false}],"meshes":[{"name":"polygon0_1","primitives":[{"attributes":{"POSITION":0,"NORMAL":1,"TEXCOORD_0":2},"indices":3,"material":0,"mode":4}]},{"name":"polygon1_1","primitives":[{"attributes":{"POSITION":4,"NORMAL":5,"TEXCOORD_0":6},"indices":7,"material":1,"mode":4}]},{"name":"polygon2_1","primitives":[{"attributes":{"POSITION":8,"NORMAL":9,"TEXCOORD_0":10},"indices":11,"material":2,"mode":4}]},{"name":"polygon3_1","primitives":[{"attributes":{"POSITION":12,"NORMAL":13,"TEXCOORD_0":14},"indices":15,"material":3,"mode":4}]},{"name":"polygon4_1","primitives":[{"attributes":{"POSITION":16,"NORMAL":17,"TEXCOORD_0":18},"indices":19,"material":4,"mode":4}]}],"nodes":[{"name":"polygon0","mesh":0},{"name":"polygon1","mesh":1},{"name":"polygon2","mesh":2},{"name":"polygon3","mesh":3},{"name":"polygon4","mesh":4}],"samplers":[{"wrapS":10497,"wrapT":10497}],"scene":0,"scenes":[{"nodes":[0,1,2,3,4]}],"textures":[{"name":"HassamMouthDh","sampler":0,"source":0},{"name":"HassamEyeDh","sampler":0,"source":1},{"name":"HassamDh","sampler":0,"source":2},{"name":"HassamWingDh","sampler":0,"source":3}]}