{"accessors":[{"name":"tsubotsubo-Mesh_0_positions","componentType":5126,"count":156,"min":[-2.1064999103546143,-2.451550006866455,-3.3369100093841553],"max":[2.1064999103546143,2.339400053024292,-0.49549299478530884],"type":"VEC3","bufferView":0,"byteOffset":0},{"name":"tsubotsubo-Mesh_0_texcoords","componentType":5126,"count":156,"min":[0,-0.30000001192092896],"max":[1.0631799697875977,1.0552730560302734],"type":"VEC2","bufferView":1,"byteOffset":0},{"name":"tsubotsubo-Mesh_0_indices","componentType":5123,"count":321,"min":[0],"max":[155],"type":"SCALAR","bufferView":2,"byteOffset":0},{"name":"tsubotsubo-Mesh_1_positions","componentType":5126,"count":52,"min":[-2.1064999103546143,-2.451550006866455,-3.3369100093841553],"max":[2.1064999103546143,2.339400053024292,-0.570900022983551],"type":"VEC3","bufferView":0,"byteOffset":1872},{"name":"tsubotsubo-Mesh_1_texcoords","componentType":5126,"count":52,"min":[-0.058136001229286194,-0.09475000202655792],"max":[1.0386899709701538,1.0554430484771729],"type":"VEC2","bufferView":1,"byteOffset":1248},{"name":"tsubotsubo-Mesh_1_indices","componentType":5123,"count":96,"min":[0],"max":[51],"type":"SCALAR","bufferView":2,"byteOffset":644},{"name":"tsubotsubo-Mesh_2_positions","componentType":5126,"count":5,"min":[0.3358379900455475,1.5365899801254272,-2.9151999950408936],"max":[1.0718400478363037,2.005199909210205,-1.7489800453186035],"type":"VEC3","bufferView":0,"byteOffset":2496},{"name":"tsubotsubo-Mesh_2_texcoords","componentType":5126,"count":5,"min":[0.004627999849617481,-0.84375],"max":[0.9857950210571289,1.1626659631729126],"type":"VEC2","bufferView":1,"byteOffset":1664},{"name":"tsubotsubo-Mesh_2_indices","componentType":5123,"count":9,"min":[0],"max":[4],"type":"SCALAR","bufferView":2,"byteOffset":836},{"name":"tsubotsubo-Mesh_3_positions","componentType":5126,"count":111,"min":[-2.154510021209717,-2.037329912185669,-2.9096200466156006],"max":[2.154520034790039,2.2744500637054443,-0.043563999235630035],"type":"VEC3","bufferView":0,"byteOffset":2556},{"name":"tsubotsubo-Mesh_3_texcoords","componentType":5126,"count":111,"min":[-0.46970701217651367,-0.2791300117969513],"max":[1.139930009841919,1.5063819885253906],"type":"VEC2","bufferView":1,"byteOffset":1704},{"name":"tsubotsubo-Mesh_3_indices","componentType":5123,"count":294,"min":[0],"max":[110],"type":"SCALAR","bufferView":2,"byteOffset":856},{"name":"tsubotsubo-Mesh_4_positions","componentType":5126,"count":33,"min":[-2.154510021209717,-2.037329912185669,-2.6191999912261963],"max":[2.154520034790039,1.3880399465560913,-1.3367999792099],"type":"VEC3","bufferView":0,"byteOffset":3888},{"name":"tsubotsubo-Mesh_4_texcoords","componentType":5126,"count":33,"min":[-0.4623680114746094,-0.30340999364852905],"max":[1.4061700105667114,1.295753002166748],"type":"VEC2","bufferView":1,"byteOffset":2592},{"name":"tsubotsubo-Mesh_4_indices","componentType":5123,"count":72,"min":[0],"max":[32],"type":"SCALAR","bufferView":2,"byteOffset":1444},{"name":"tsubotsubo-Mesh_5_positions","componentType":5126,"count":136,"min":[-2.5447800159454346,-2.3062400817871094,-3.879580020904541],"max":[2.575160026550293,2.6831600666046143,-0.31424200534820557],"type":"VEC3","bufferView":0,"byteOffset":4284},{"name":"tsubotsubo-Mesh_5_texcoords","componentType":5126,"count":136,"min":[0,-0.4064599871635437],"max":[1,1.25],"type":"VEC2","bufferView":1,"byteOffset":2856},{"name":"tsubotsubo-Mesh_5_indices","componentType":5123,"count":429,"min":[0],"max":[135],"type":"SCALAR","bufferView":2,"byteOffset":1588},{"name":"tsubotsubo-Mesh_6_positions","componentType":5126,"count":210,"min":[-3.2056400775909424,-3.096060037612915,-6.032559871673584],"max":[3.245260000228882,3.921190023422241,0.12849600613117218],"type":"VEC3","bufferView":0,"byteOffset":5916},{"name":"tsubotsubo-Mesh_6_texcoords","componentType":5126,"count":210,"min":[-1.09375,-0.09260000288486481],"max":[1.0290299654006958,1.53125],"type":"VEC2","bufferView":1,"byteOffset":3944},{"name":"tsubotsubo-Mesh_6_indices","componentType":5123,"count":792,"min":[0],"max":[209],"type":"SCALAR","bufferView":2,"byteOffset":2448},{"name":"tsubotsubo-Mesh_7_positions","componentType":5126,"count":10,"min":[-0.4716149866580963,3.4148600101470947,-5.82480001449585],"max":[0.4716140031814575,3.921190023422241,-4.9167799949646],"type":"VEC3","bufferView":0,"byteOffset":8436},{"name":"tsubotsubo-Mesh_7_texcoords","componentType":5126,"count":10,"min":[-0.25081300735473633,-0.11948999762535095],"max":[1.5194000005722046,0.22793500125408173],"type":"VEC2","bufferView":1,"byteOffset":5624},{"name":"tsubotsubo-Mesh_7_indices","componentType":5123,"count":21,"min":[0],"max":[9],"type":"SCALAR","bufferView":2,"byteOffset":4032},{"name":"tsubotsubo-Mesh_8_positions","componentType":5126,"count":17,"min":[-0.7089999914169312,2.6013400554656982,-4.947150230407715],"max":[0.7089999914169312,3.921190023422241,-4.466559886932373],"type":"VEC3","bufferView":0,"byteOffset":8556},{"name":"tsubotsubo-Mesh_8_texcoords","componentType":5126,"count":17,"min":[-0.15158699452877045,-0.05398000031709671],"max":[1.1446199417114258,0.3750919997692108],"type":"VEC2","bufferView":1,"byteOffset":5704},{"name":"tsubotsubo-Mesh_8_indices","componentType":5123,"count":63,"min":[0],"max":[16],"type":"SCALAR","bufferView":2,"byteOffset":4076}],"asset":{"generator":"obj2gltf","version":"2.0"},"buffers":[{"name":"BR_Shuckle-Shiny01","byteLength":114200,"uri":"data:application/octet-stream;base64,"}],"bufferViews":[{"name":"bufferView_0","buffer":0,"byteLength":8760,"byteOffset":0,"byteStride":12,"target":34962},{"name":"bufferView_1","buffer":0,"byteLength":5840,"byteOffset":8760,"byteStride":8,"target":34962},{"name":"bufferView_2","buffer":0,"byteLength":4204,"byteOffset":14600,"target":34963},{"buffer":0,"byteOffset":18804,"byteLength":530},{"buffer":0,"byteOffset":19334,"byteLength":4114},{"buffer":0,"byteOffset":23448,"byteLength":4114},{"buffer":0,"byteOffset":27562,"byteLength":4114},{"buffer":0,"byteOffset":31676,"byteLength":4114},{"buffer":0,"byteOffset":35790,"byteLength":530},{"buffer":0,"byteOffset":36320,"byteLength":4114},{"buffer":0,"byteOffset":40434,"byteLength":32786},{"buffer":0,"byteOffset":73220,"byteLength":40978}],"images":[{"name":"tsubotsubo_1_0","mimeType":"image/x-tga","bufferView":3},{"name":"tsubotsubo_1_1","mimeType":"image/x-tga","bufferView":4},{"name":"tsubotsubo_1_2","mimeType":"image/x-tga","bufferView":5},{"name":"tsubotsubo_1_3","mimeType":"image/x-tga","bufferView":6},{"name":"tsubotsubo_1_4","mimeType":"image/x-tga","bufferView":7},{"name":"tsubotsubo_1_5","mimeType":"image/x-tga","bufferView":8},{"name":"tsubotsubo_1_6","mimeType":"image/x-tga","bufferView":9},{"name":"tsubotsubo_1_7","mimeType":"image/x-tga","bufferView":10},{"name":"tsubotsubo_1_8","mimeType":"image/x-tga","bufferView":11}],"materials":[{"name":"mat_0","pbrMetallicRoughness":{"baseColorTexture":{"index":0},"baseColorFactor":[1,1,1,1],"metallicFactor":0,"roughnessFactor":0.903921569},"emissiveFactor":[0,0,0],"alphaMode":"BLEND","doubleSided":true},{"name":"mat_1","pbrMetallicRoughness":{"baseColorTexture":{"index":1},"baseColorFactor":[1,1,1,1],"metallicFactor":0,"roughnessFactor":0.903921569},"emissiveFactor":[0,0,0],"alphaMode":"BLEND","doubleSided":true},{"name":"mat_2","pbrMetallicRoughness":{"baseColorTexture":{"index":2},"baseColorFactor":[1,1,1,1],"metallicFactor":0,"roughnessFactor":0.903921569},"emissiveFactor":[0,0,0],"alphaMode":"BLEND","doubleSided":true},{"name":"mat_3","pbrMetallicRoughness":{"baseColorTexture":{"index":3},"baseColorFactor":[1,1,1,1],"metallicFactor":0,"roughnessFactor":0.903921569},"emissiveFactor":[0,0,0],"alphaMode":"BLEND","doubleSided":true},{"name":"mat_4","pbrMetallicRoughness":{"baseColorTexture":{"index":4},"baseColorFactor":[1,1,1,1],"metallicFactor":0,"roughnessFactor":0.903921569},"emissiveFactor":[0,0,0],"alphaMode":"BLEND","doubleSided":true},{"name":"mat_5","pbrMetallicRoughness":{"baseColorTexture":{"index":5},"baseColorFactor":[1,1,1,1],"metallicFactor":0,"roughnessFactor":0.903921569},"emissiveFactor":[0,0,0],"alphaMode":"BLEND","doubleSided":true},{"name":"mat_6","pbrMetallicRoughness":{"baseColorTexture":{"index":6},"baseColorFactor":[1,1,1,1],"metallicFactor":0,"roughnessFactor":0.903921569},"emissiveFactor":[0,0,0],"alphaMode":"BLEND","doubleSided":true},{"name":"mat_7","pbrMetallicRoughness":{"baseColorTexture":{"index":7},"baseColorFactor":[1,1,1,1],"metallicFactor":0,"roughnessFactor":0.903921569},"emissiveFactor":[0,0,0],"alphaMode":"BLEND","doubleSided":true},{"name":"mat_8","pbrMetallicRoughness":{"baseColorTexture":{"index":8},"baseColorFactor":[1,1,1,1],"metallicFactor":0,"roughnessFactor":0.903921569},"emissiveFactor":[0,0,0],"alphaMode":"BLEND","doubleSided":true}],"meshes":[{"name":"tsubotsubo-Mesh","primitives":[{"attributes":{"POSITION":0,"TEXCOORD_0":1},"indices":2,"material":0,"mode":4},{"attributes":{"POSITION":3,"TEXCOORD_0":4},"indices":5,"material":1,"mode":4},{"attributes":{"POSITION":6,"TEXCOORD_0":7},"indices":8,"material":2,"mode":4},{"attributes":{"POSITION":9,"TEXCOORD_0":10},"indices":11,"material":3,"mode":4},{"attributes":{"POSITION":12,"TEXCOORD_0":13},"indices":14,"material":4,"mode":4},{"attributes":{"POSITION":15,"TEXCOORD_0":16},"indices":17,"material":5,"mode":4},{"attributes":{"POSITION":18,"TEXCOORD_0":19},"indices":20,"material":6,"mode":4},{"attributes":{"POSITION":21,"TEXCOORD_0":22},"indices":23,"material":7,"mode":4},{"attributes":{"POSITION":24,"TEXCOORD_0":25},"indices":26,"material":8,"mode":4}]}],"nodes":[{"name":"tsubotsubo","mesh":0}],"samplers":[{"wrapS":10497,"wrapT":10497}],"scene":0,"scenes":[{"nodes":[0]}],"textures":[{"name":"tsubotsubo_1_0","sampler":0,"source":0},{"name":"tsubotsubo_1_1","sampler":0,"source":1},{"name":"tsubotsubo_1_2","sampler":0,"source":2},{"name":"tsubotsubo_1_3","sampler":0,"source":3},{"name":"tsubotsubo_1_4","sampler":0,"source":4},{"name":"tsubotsubo_1_5","sampler":0,"source":5},{"name":"tsubotsubo_1_6","sampler":0,"source":6},{"name":"tsubotsubo_1_7","sampler":0,"source":7},{"name":"tsubotsubo_1_8","sampler":0,"source":8}]}