{"accessors":[{"name":"Shuckle_1_0_positions","componentType":5126,"count":11808,"min":[-35.84558868408203,-3.2505431175231934,-24.907405853271484],"max":[35.84560012817383,58.80849838256836,40.29018783569336],"type":"VEC3","bufferView":0,"byteOffset":0},{"name":"Shuckle_1_0_normals","componentType":5126,"count":11808,"min":[-0.9714748859405518,-0.9998443126678467,-0.9753482937812805],"max":[0.999026358127594,0.9993268251419067,0.9984764456748962],"type":"VEC3","bufferView":1,"byteOffset":0},{"name":"Shuckle_1_0_texcoords","componentType":5126,"count":11808,"min":[0,0.010901999659836292],"max":[1,0.993632972240448],"type":"VEC2","bufferView":2,"byteOffset":0},{"name":"Shuckle_1_0_indices","componentType":5123,"count":11808,"min":[0],"max":[11807],"type":"SCALAR","bufferView":3,"byteOffset":0},{"name":"Shuckle_1_1_positions","componentType":5126,"count":84,"min":[-5.171027183532715,48.2555046081543,37.950191497802734],"max":[5.171010971069336,53.02500534057617,40.17589569091797],"type":"VEC3","bufferView":0,"byteOffset":141696},{"name":"Shuckle_1_1_normals","componentType":5126,"count":84,"min":[-0.8432962894439697,-0.9562722444534302,-0.6559300422668457],"max":[0.5505848526954651,0.8365107178688049,0.6710051894187927],"type":"VEC3","bufferView":1,"byteOffset":141696},{"name":"Shuckle_1_1_texcoords","componentType":5126,"count":84,"min":[0.053210001438856125,-0.9921900033950806],"max":[0.44679000973701477,-0.7578099966049194],"type":"VEC2","bufferView":2,"byteOffset":94464},{"name":"Shuckle_1_1_indices","componentType":5123,"count":84,"min":[0],"max":[83],"type":"SCALAR","bufferView":3,"byteOffset":23616},{"name":"Shuckle_1_2_positions","componentType":5126,"count":180,"min":[-6.7425761222839355,42.33290100097656,31.159896850585938],"max":[6.7425618171691895,45.985801696777344,38.54719543457031],"type":"VEC3","bufferView":0,"byteOffset":142704},{"name":"Shuckle_1_2_normals","componentType":5126,"count":180,"min":[-0.8432962894439697,-0.9926364421844482,-0.6831141114234924],"max":[0.8986412882804871,0.9459350109100342,0.6710051894187927],"type":"VEC3","bufferView":1,"byteOffset":142704},{"name":"Shuckle_1_2_texcoords","componentType":5126,"count":180,"min":[0.02186799980700016,-1.9948999881744385],"max":[0.4781300127506256,-1.7578099966049194],"type":"VEC2","bufferView":2,"byteOffset":95136},{"name":"Shuckle_1_2_indices","componentType":5123,"count":180,"min":[0],"max":[179],"type":"SCALAR","bufferView":3,"byteOffset":23784}],"asset":{"generator":"obj2gltf","version":"2.0"},"buffers":[{"name":"XY_Shuckle","byteLength":543104,"uri":"data:application/octet-stream;base64,"}],"bufferViews":[{"name":"bufferView_0","buffer":0,"byteLength":144864,"byteOffset":0,"byteStride":12,"target":34962},{"name":"bufferView_1","buffer":0,"byteLength":144864,"byteOffset":144864,"byteStride":12,"target":34962},{"name":"bufferView_2","buffer":0,"byteLength":96576,"byteOffset":289728,"byteStride":8,"target":34962},{"name":"bufferView_3","buffer":0,"byteLength":24144,"byteOffset":386304,"target":34963},{"buffer":0,"byteOffset":410448,"byteLength":87438},{"buffer":0,"byteOffset":497886,"byteLength":24478},{"buffer":0,"byteOffset":522364,"byteLength":20740}],"images":[{"name":"pm0213_00_Body1","mimeType":"image/png","bufferView":4},{"name":"pm0213_00_Eye1","mimeType":"image/png","bufferView":5},{"name":"pm0213_00_Mouth1","mimeType":"image/png","bufferView":6}],"materials":[{"name":"Material__10","pbrMetallicRoughness":{"baseColorTexture":{"index":0},"baseColorFactor":[1,1,1,1],"metallicFactor":0,"roughnessFactor":0.998},"emissiveFactor":[0,0,0],"alphaMode":"OPAQUE","doubleSided":false},{"name":"Material__11","pbrMetallicRoughness":{"baseColorTexture":{"index":1},"baseColorFactor":[1,1,1,1],"metallicFactor":0,"roughnessFactor":0.998},"emissiveFactor":[0,0,0],"alphaMode":"OPAQUE","doubleSided":false},{"name":"Material__12","pbrMetallicRoughness":{"baseColorTexture":{"index":2},"baseColorFactor":[1,1,1,1],"metallicFactor":0,"roughnessFactor":0.998},"emissiveFactor":[0,0,0],"alphaMode":"OPAQUE","doubleSided":false}],"meshes":[{"name":"Shuckle_1","primitives":[{"attributes":{"POSITION":0,"NORMAL":1,"TEXCOORD_0":2},"indices":3,"material":0,"mode":4},{"attributes":{"POSITION":4,"NORMAL":5,"TEXCOORD_0":6},"indices":7,"material":1,"mode":4},{"attributes":{"POSITION":8,"NORMAL":9,"TEXCOORD_0":10},"indices":11,"material":2,"mode":4}]}],"nodes":[{"name":"Shuckle","mesh":0}],"samplers":[{"wrapS":10497,"wrapT":10497}],"scene":0,"scenes":[{"nodes":[0]}],"textures":[{"name":"pm0213_00_Body1","sampler":0,"source":0},{"name":"pm0213_00_Eye1","sampler":0,"source":1},{"name":"pm0213_00_Mouth1","sampler":0,"source":2}]}