{"accessors":[{"name":"HeracrossF_1_0_positions","componentType":5126,"count":2496,"min":[-119.66500091552734,53.165496826171875,-24.02199935913086],"max":[119.66499328613281,149.14100646972656,36.73060989379883],"type":"VEC3","bufferView":0,"byteOffset":0},{"name":"HeracrossF_1_0_normals","componentType":5126,"count":2496,"min":[-0.9562233686447144,-1,-0.9880593419075012],"max":[0.9622558355331421,0.9998056292533875,0.9898279905319214],"type":"VEC3","bufferView":1,"byteOffset":0},{"name":"HeracrossF_1_0_texcoords","componentType":5126,"count":2496,"min":[0.015625,-0.5142599940299988],"max":[0.984375,0.5673009753227234],"type":"VEC2","bufferView":2,"byteOffset":0},{"name":"HeracrossF_1_0_indices","componentType":5123,"count":2496,"min":[0],"max":[2495],"type":"SCALAR","bufferView":3,"byteOffset":0},{"name":"HeracrossF_1_1_positions","componentType":5126,"count":14964,"min":[-120.78299713134766,0.1284009963274002,-27.547603607177734],"max":[120.78298950195312,119.90599822998047,33.50560760498047],"type":"VEC3","bufferView":0,"byteOffset":29952},{"name":"HeracrossF_1_1_normals","componentType":5126,"count":14964,"min":[-1,-0.9891209006309509,-0.9984431266784668],"max":[1,0.9998056292533875,0.9994535446166992],"type":"VEC3","bufferView":1,"byteOffset":29952},{"name":"HeracrossF_1_1_texcoords","componentType":5126,"count":14964,"min":[0.009689999744296074,0.0078119998797774315],"max":[0.99031001329422,0.9921870231628418],"type":"VEC2","bufferView":2,"byteOffset":19968},{"name":"HeracrossF_1_1_indices","componentType":5123,"count":14964,"min":[0],"max":[14963],"type":"SCALAR","bufferView":3,"byteOffset":4992},{"name":"HeracrossF_1_2_positions","componentType":5126,"count":384,"min":[-18.09585952758789,84.60736083984375,17.43229866027832],"max":[18.095741271972656,96.71556091308594,24.948200225830078],"type":"VEC3","bufferView":0,"byteOffset":209520},{"name":"HeracrossF_1_2_normals","componentType":5126,"count":384,"min":[-0.7424590587615967,-0.1383449286222458,-0.9951187968254089],"max":[0.9758113622665405,0.9998055100440979,0.9643500447273254],"type":"VEC3","bufferView":1,"byteOffset":209520},{"name":"HeracrossF_1_2_texcoords","componentType":5126,"count":384,"min":[0.06496100127696991,-1.96983003616333],"max":[0.4350399971008301,-1.78016996383667],"type":"VEC2","bufferView":2,"byteOffset":139680},{"name":"HeracrossF_1_2_indices","componentType":5123,"count":384,"min":[0],"max":[383],"type":"SCALAR","bufferView":3,"byteOffset":34920},{"name":"HeracrossF_1_3_positions","componentType":5126,"count":84,"min":[-16.072345733642578,74.68824768066406,22.978097915649414],"max":[16.072254180908203,83.54505920410156,26.633995056152344],"type":"VEC3","bufferView":0,"byteOffset":214128},{"name":"HeracrossF_1_3_normals","componentType":5126,"count":84,"min":[-0.7628052830696106,-0.4061310589313507,-0.9910427331924438],"max":[0.9394964575767517,0.9998055100440979,0.006201003212481737],"type":"VEC3","bufferView":1,"byteOffset":214128},{"name":"HeracrossF_1_3_texcoords","componentType":5126,"count":84,"min":[0.011718999594449997,-2.925869941711426],"max":[0.4882799983024597,-2.796880006790161],"type":"VEC2","bufferView":2,"byteOffset":142752},{"name":"HeracrossF_1_3_indices","componentType":5123,"count":84,"min":[0],"max":[83],"type":"SCALAR","bufferView":3,"byteOffset":35688}],"asset":{"generator":"obj2gltf","version":"2.0"},"buffers":[{"name":"XY_HeracrossF","byteLength":733776,"uri":"data:application/octet-stream;base64,"}],"bufferViews":[{"name":"bufferView_0","buffer":0,"byteLength":215136,"byteOffset":0,"byteStride":12,"target":34962},{"name":"bufferView_1","buffer":0,"byteLength":215136,"byteOffset":215136,"byteStride":12,"target":34962},{"name":"bufferView_2","buffer":0,"byteLength":143424,"byteOffset":430272,"byteStride":8,"target":34962},{"name":"bufferView_3","buffer":0,"byteLength":35856,"byteOffset":573696,"target":34963},{"buffer":0,"byteOffset":609552,"byteLength":21242},{"buffer":0,"byteOffset":630794,"byteLength":40953},{"buffer":0,"byteOffset":671747,"byteLength":51248},{"buffer":0,"byteOffset":722995,"byteLength":10780}],"images":[{"name":"pm0214_00_BodyB1","mimeType":"image/png","bufferView":4},{"name":"pm0214_00_BodyA1","mimeType":"image/png","bufferView":5},{"name":"pm0214_00_Eye1","mimeType":"image/png","bufferView":6},{"name":"pm0214_00_Mouth1","mimeType":"image/png","bufferView":7}],"materials":[{"name":"Material__10","pbrMetallicRoughness":{"baseColorTexture":{"index":0},"baseColorFactor":[1,1,1,1],"metallicFactor":0,"roughnessFactor":0.998},"emissiveFactor":[0,0,0],"alphaMode":"OPAQUE","doubleSided":false},{"name":"Material__11","pbrMetallicRoughness":{"baseColorTexture":{"index":1},"baseColorFactor":[1,1,1,1],"metallicFactor":0,"roughnessFactor":0.998},"emissiveFactor":[0,0,0],"alphaMode":"OPAQUE","doubleSided":false},{"name":"Material__12","pbrMetallicRoughness":{"baseColorTexture":{"index":2},"baseColorFactor":[1,1,1,1],"metallicFactor":0,"roughnessFactor":0.998},"emissiveFactor":[0,0,0],"alphaMode":"OPAQUE","doubleSided":false},{"name":"Material__13","pbrMetallicRoughness":{"baseColorTexture":{"index":3},"baseColorFactor":[1,1,1,1],"metallicFactor":0,"roughnessFactor":0.998},"emissiveFactor":[0,0,0],"alphaMode":"OPAQUE","doubleSided":false}],"meshes":[{"name":"HeracrossF_1","primitives":[{"attributes":{"POSITION":0,"NORMAL":1,"TEXCOORD_0":2},"indices":3,"material":0,"mode":4},{"attributes":{"POSITION":4,"NORMAL":5,"TEXCOORD_0":6},"indices":7,"material":1,"mode":4},{"attributes":{"POSITION":8,"NORMAL":9,"TEXCOORD_0":10},"indices":11,"material":2,"mode":4},{"attributes":{"POSITION":12,"NORMAL":13,"TEXCOORD_0":14},"indices":15,"material":3,"mode":4}]}],"nodes":[{"name":"HeracrossF","mesh":0}],"samplers":[{"wrapS":10497,"wrapT":10497}],"scene":0,"scenes":[{"nodes":[0]}],"textures":[{"name":"pm0214_00_BodyB1","sampler":0,"source":0},{"name":"pm0214_00_BodyA1","sampler":0,"source":1},{"name":"pm0214_00_Eye1","sampler":0,"source":2},{"name":"pm0214_00_Mouth1","sampler":0,"source":3}]}