{"accessors":[{"name":"polygon0_1_0_positions","componentType":5126,"count":27,"min":[-0.9164230227470398,4.335570812225342,0.9765220284461975],"max":[0.9164230227470398,5.130615234375,2.1512598991394043],"type":"VEC3","bufferView":0,"byteOffset":0},{"name":"polygon0_1_0_normals","componentType":5126,"count":27,"min":[-0.6784733533859253,-0.9670856595039368,0.24145005643367767],"max":[0.6784733533859253,-0.10009998083114624,0.8878138065338135],"type":"VEC3","bufferView":1,"byteOffset":0},{"name":"polygon0_1_0_texcoords","componentType":5126,"count":27,"min":[0.1272280067205429,0.0024109999649226665],"max":[0.8843690156936646,0.2434999942779541],"type":"VEC2","bufferView":2,"byteOffset":0},{"name":"polygon0_1_0_indices","componentType":5123,"count":102,"min":[0],"max":[26],"type":"SCALAR","bufferView":3,"byteOffset":0},{"name":"polygon1_1_0_positions","componentType":5126,"count":963,"min":[-5.491884231567383,-0.06417100131511688,-3.489375114440918],"max":[5.491885185241699,9.17252254486084,2.2180750370025635],"type":"VEC3","bufferView":0,"byteOffset":324},{"name":"polygon1_1_0_normals","componentType":5126,"count":963,"min":[-0.999981164932251,-0.9999706149101257,-0.9999735951423645],"max":[0.999970018863678,0.9954373240470886,0.9911494255065918],"type":"VEC3","bufferView":1,"byteOffset":324},{"name":"polygon1_1_0_texcoords","componentType":5126,"count":963,"min":[0.004486000165343285,0.007294000126421452],"max":[0.9950259923934937,0.9943540096282959],"type":"VEC2","bufferView":2,"byteOffset":216},{"name":"polygon1_1_0_indices","componentType":5123,"count":4122,"min":[0],"max":[962],"type":"SCALAR","bufferView":3,"byteOffset":204},{"name":"polygon2_1_0_positions","componentType":5126,"count":30,"min":[-1.4387179613113403,5.079191207885742,0.9988549947738647],"max":[1.4387179613113403,6.209700107574463,2.0937728881835938],"type":"VEC3","bufferView":0,"byteOffset":11880},{"name":"polygon2_1_0_normals","componentType":5126,"count":30,"min":[-0.8181637525558472,-0.20525793731212616,0.5371008515357971],"max":[0.8181637525558472,0.44615599513053894,0.8833181858062744],"type":"VEC3","bufferView":1,"byteOffset":11880},{"name":"polygon2_1_0_texcoords","componentType":5126,"count":30,"min":[0.007813000120222569,0.0078119998797774315],"max":[0.4921880066394806,0.2421869933605194],"type":"VEC2","bufferView":2,"byteOffset":7920},{"name":"polygon2_1_0_indices","componentType":5123,"count":102,"min":[0],"max":[29],"type":"SCALAR","bufferView":3,"byteOffset":8448}],"asset":{"generator":"obj2gltf","version":"2.0"},"buffers":[{"name":"Sneasel","byteLength":385412,"uri":"data:application/octet-stream;base64,"}],"bufferViews":[{"name":"bufferView_0","buffer":0,"byteLength":12240,"byteOffset":0,"byteStride":12,"target":34962},{"name":"bufferView_1","buffer":0,"byteLength":12240,"byteOffset":12240,"byteStride":12,"target":34962},{"name":"bufferView_2","buffer":0,"byteLength":8160,"byteOffset":24480,"byteStride":8,"target":34962},{"name":"bufferView_3","buffer":0,"byteLength":8652,"byteOffset":32640,"target":34963},{"buffer":0,"byteOffset":41292,"byteLength":49170},{"buffer":0,"byteOffset":90462,"byteLength":196626},{"buffer":0,"byteOffset":287088,"byteLength":98322}],"images":[{"name":"NyulaMouthDh","mimeType":"image/x-tga","bufferView":4},{"name":"NyulaDh","mimeType":"image/x-tga","bufferView":5},{"name":"NyulaEyeDh","mimeType":"image/x-tga","bufferView":6}],"materials":[{"name":"mat3","pbrMetallicRoughness":{"baseColorTexture":{"index":0},"baseColorFactor":[1,1,1,1],"metallicFactor":0,"roughnessFactor":0.99},"emissiveFactor":[0,0,0],"alphaMode":"OPAQUE","doubleSided":false},{"name":"mat1","pbrMetallicRoughness":{"baseColorTexture":{"index":1},"baseColorFactor":[1,1,1,1],"metallicFactor":0,"roughnessFactor":0.99},"emissiveFactor":[0,0,0],"alphaMode":"OPAQUE","doubleSided":false},{"name":"mat2","pbrMetallicRoughness":{"baseColorTexture":{"index":2},"baseColorFactor":[1,1,1,1],"metallicFactor":0,"roughnessFactor":0.99},"emissiveFactor":[0,0,0],"alphaMode":"OPAQUE","doubleSided":false}],"meshes":[{"name":"polygon0_1","primitives":[{"attributes":{"POSITION":0,"NORMAL":1,"TEXCOORD_0":2},"indices":3,"material":0,"mode":4}]},{"name":"polygon1_1","primitives":[{"attributes":{"POSITION":4,"NORMAL":5,"TEXCOORD_0":6},"indices":7,"material":1,"mode":4}]},{"name":"polygon2_1","primitives":[{"attributes":{"POSITION":8,"NORMAL":9,"TEXCOORD_0":10},"indices":11,"material":2,"mode":4}]}],"nodes":[{"name":"polygon0","mesh":0},{"name":"polygon1","mesh":1},{"name":"polygon2","mesh":2}],"samplers":[{"wrapS":10497,"wrapT":10497}],"scene":0,"scenes":[{"nodes":[0,1,2]}],"textures":[{"name":"NyulaMouthDh","sampler":0,"source":0},{"name":"NyulaDh","sampler":0,"source":1},{"name":"NyulaEyeDh","sampler":0,"source":2}]}