{"accessors":[{"name":"polygon0_1_0_positions","componentType":5126,"count":25,"min":[-0.7000600099563599,2.532805919647217,0.8865339756011963],"max":[0.7000589966773987,3.535670042037964,1.6320710182189941],"type":"VEC3","bufferView":0,"byteOffset":0},{"name":"polygon0_1_0_normals","componentType":5126,"count":25,"min":[-0.3610920011997223,-0.8613247275352478,0.5029179453849792],"max":[0.3610920011997223,-0.11322300881147385,0.9916730523109436],"type":"VEC3","bufferView":1,"byteOffset":0},{"name":"polygon0_1_0_texcoords","componentType":5126,"count":25,"min":[0.10925299674272537,0.0021059999708086252],"max":[0.8935850262641907,0.23620599508285522],"type":"VEC2","bufferView":2,"byteOffset":0},{"name":"polygon0_1_0_indices","componentType":5123,"count":96,"min":[0],"max":[24],"type":"SCALAR","bufferView":3,"byteOffset":0},{"name":"polygon1_1_0_positions","componentType":5126,"count":26,"min":[-1.1098530292510986,3.4180428981781006,1.2482930421829224],"max":[1.1098519563674927,4.102147102355957,1.5759589672088623],"type":"VEC3","bufferView":0,"byteOffset":300},{"name":"polygon1_1_0_normals","componentType":5126,"count":26,"min":[-0.6124876737594604,-0.18578889966011047,0.7408445477485657],"max":[0.6124876737594604,0.2756958305835724,0.9807798862457275],"type":"VEC3","bufferView":1,"byteOffset":300},{"name":"polygon1_1_0_texcoords","componentType":5126,"count":26,"min":[0.0703129991889,0.015625],"max":[0.4726560115814209,0.2109369933605194],"type":"VEC2","bufferView":2,"byteOffset":200},{"name":"polygon1_1_0_indices","componentType":5123,"count":84,"min":[0],"max":[25],"type":"SCALAR","bufferView":3,"byteOffset":192},{"name":"polygon2_1_0_positions","componentType":5126,"count":968,"min":[-2.552294969558716,-0.0024580000899732113,-1.956784963607788],"max":[2.5522959232330322,5.994793891906738,1.7506870031356812],"type":"VEC3","bufferView":0,"byteOffset":612},{"name":"polygon2_1_0_normals","componentType":5126,"count":968,"min":[-1,-0.9999871850013733,-0.9999821186065674],"max":[1,0.9991127848625183,0.9986149668693542],"type":"VEC3","bufferView":1,"byteOffset":612},{"name":"polygon2_1_0_texcoords","componentType":5126,"count":968,"min":[0.0004579999949783087,0.007567999884486198],"max":[0.9967349767684937,0.9968259930610657],"type":"VEC2","bufferView":2,"byteOffset":408},{"name":"polygon2_1_0_indices","componentType":5123,"count":4632,"min":[0],"max":[967],"type":"SCALAR","bufferView":3,"byteOffset":360}],"asset":{"generator":"obj2gltf","version":"2.0"},"buffers":[{"name":"Teddiursa","byteLength":386352,"uri":"data:application/octet-stream;base64,"}],"bufferViews":[{"name":"bufferView_0","buffer":0,"byteLength":12228,"byteOffset":0,"byteStride":12,"target":34962},{"name":"bufferView_1","buffer":0,"byteLength":12228,"byteOffset":12228,"byteStride":12,"target":34962},{"name":"bufferView_2","buffer":0,"byteLength":8152,"byteOffset":24456,"byteStride":8,"target":34962},{"name":"bufferView_3","buffer":0,"byteLength":9624,"byteOffset":32608,"target":34963},{"buffer":0,"byteOffset":42232,"byteLength":49170},{"buffer":0,"byteOffset":91402,"byteLength":98322},{"buffer":0,"byteOffset":189724,"byteLength":196626}],"images":[{"name":"HimegumaMouthDh","mimeType":"image/x-tga","bufferView":4},{"name":"HimegumaEyeDh","mimeType":"image/x-tga","bufferView":5},{"name":"HimegumaDh","mimeType":"image/x-tga","bufferView":6}],"materials":[{"name":"mat3","pbrMetallicRoughness":{"baseColorTexture":{"index":0},"baseColorFactor":[1,1,1,1],"metallicFactor":0,"roughnessFactor":0.99},"emissiveFactor":[0,0,0],"alphaMode":"OPAQUE","doubleSided":false},{"name":"mat2","pbrMetallicRoughness":{"baseColorTexture":{"index":1},"baseColorFactor":[1,1,1,1],"metallicFactor":0,"roughnessFactor":0.99},"emissiveFactor":[0,0,0],"alphaMode":"OPAQUE","doubleSided":false},{"name":"mat1","pbrMetallicRoughness":{"baseColorTexture":{"index":2},"baseColorFactor":[1,1,1,1],"metallicFactor":0,"roughnessFactor":0.99},"emissiveFactor":[0,0,0],"alphaMode":"OPAQUE","doubleSided":false}],"meshes":[{"name":"polygon0_1","primitives":[{"attributes":{"POSITION":0,"NORMAL":1,"TEXCOORD_0":2},"indices":3,"material":0,"mode":4}]},{"name":"polygon1_1","primitives":[{"attributes":{"POSITION":4,"NORMAL":5,"TEXCOORD_0":6},"indices":7,"material":1,"mode":4}]},{"name":"polygon2_1","primitives":[{"attributes":{"POSITION":8,"NORMAL":9,"TEXCOORD_0":10},"indices":11,"material":2,"mode":4}]}],"nodes":[{"name":"polygon0","mesh":0},{"name":"polygon1","mesh":1},{"name":"polygon2","mesh":2}],"samplers":[{"wrapS":10497,"wrapT":10497}],"scene":0,"scenes":[{"nodes":[0,1,2]}],"textures":[{"name":"HimegumaMouthDh","sampler":0,"source":0},{"name":"HimegumaEyeDh","sampler":0,"source":1},{"name":"HimegumaDh","sampler":0,"source":2}]}