{"accessors":[{"name":"polygon0_1_0_positions","componentType":5126,"count":1035,"min":[-11.696187019348145,-9.999999974752427e-7,-7.5142011642456055],"max":[11.69620418548584,17.98482322692871,3.949836015701294],"type":"VEC3","bufferView":0,"byteOffset":0},{"name":"polygon0_1_0_normals","componentType":5126,"count":1035,"min":[-0.9950623512268066,-1,-0.9999065399169922],"max":[0.9950623512268066,1,0.9988544583320618],"type":"VEC3","bufferView":1,"byteOffset":0},{"name":"polygon0_1_0_texcoords","componentType":5126,"count":1035,"min":[0.01565600000321865,0.011993000283837318],"max":[0.9726560115814209,0.9838560223579407],"type":"VEC2","bufferView":2,"byteOffset":0},{"name":"polygon0_1_0_indices","componentType":5123,"count":4284,"min":[0],"max":[1034],"type":"SCALAR","bufferView":3,"byteOffset":0},{"name":"polygon1_1_0_positions","componentType":5126,"count":31,"min":[-1.776705026626587,15.57581901550293,1.3381140232086182],"max":[1.776703953742981,16.99001121520996,2.775269031524658],"type":"VEC3","bufferView":0,"byteOffset":12420},{"name":"polygon1_1_0_normals","componentType":5126,"count":31,"min":[-0.8718437552452087,-0.39716193079948425,0.4595428705215454],"max":[0.8718437552452087,0.8703125715255737,0.9114937782287598],"type":"VEC3","bufferView":1,"byteOffset":12420},{"name":"polygon1_1_0_texcoords","componentType":5126,"count":31,"min":[-0.0006409999914467335,0.0625310018658638],"max":[0.4907529950141907,0.19955399632453918],"type":"VEC2","bufferView":2,"byteOffset":8280},{"name":"polygon1_1_0_indices","componentType":5123,"count":120,"min":[0],"max":[30],"type":"SCALAR","bufferView":3,"byteOffset":8568}],"asset":{"generator":"obj2gltf","version":"2.0"},"buffers":[{"name":"Ursaring","byteLength":337868,"uri":"data:application/octet-stream;base64,"}],"bufferViews":[{"name":"bufferView_0","buffer":0,"byteLength":12792,"byteOffset":0,"byteStride":12,"target":34962},{"name":"bufferView_1","buffer":0,"byteLength":12792,"byteOffset":12792,"byteStride":12,"target":34962},{"name":"bufferView_2","buffer":0,"byteLength":8528,"byteOffset":25584,"byteStride":8,"target":34962},{"name":"bufferView_3","buffer":0,"byteLength":8808,"byteOffset":34112,"target":34963},{"buffer":0,"byteOffset":42920,"byteLength":196626},{"buffer":0,"byteOffset":239546,"byteLength":98322}],"images":[{"name":"RingumaDh","mimeType":"image/x-tga","bufferView":4},{"name":"RingumaEyeDh","mimeType":"image/x-tga","bufferView":5}],"materials":[{"name":"mat1","pbrMetallicRoughness":{"baseColorTexture":{"index":0},"baseColorFactor":[1,1,1,1],"metallicFactor":0,"roughnessFactor":0.99},"emissiveFactor":[0,0,0],"alphaMode":"OPAQUE","doubleSided":false},{"name":"mat2","pbrMetallicRoughness":{"baseColorTexture":{"index":1},"baseColorFactor":[1,1,1,1],"metallicFactor":0,"roughnessFactor":0.99},"emissiveFactor":[0,0,0],"alphaMode":"OPAQUE","doubleSided":false}],"meshes":[{"name":"polygon0_1","primitives":[{"attributes":{"POSITION":0,"NORMAL":1,"TEXCOORD_0":2},"indices":3,"material":0,"mode":4}]},{"name":"polygon1_1","primitives":[{"attributes":{"POSITION":4,"NORMAL":5,"TEXCOORD_0":6},"indices":7,"material":1,"mode":4}]}],"nodes":[{"name":"polygon0","mesh":0},{"name":"polygon1","mesh":1}],"samplers":[{"wrapS":10497,"wrapT":10497}],"scene":0,"scenes":[{"nodes":[0,1]}],"textures":[{"name":"RingumaDh","sampler":0,"source":0},{"name":"RingumaEyeDh","sampler":0,"source":1}]}