{"accessors":[{"name":"magmag-Mesh_0_positions","componentType":5126,"count":398,"min":[-2.8007500171661377,-4.186200141906738,-6.576230049133301],"max":[2.8007500171661377,4.140359878540039,0],"type":"VEC3","bufferView":0,"byteOffset":0},{"name":"magmag-Mesh_0_texcoords","componentType":5126,"count":398,"min":[0,-1],"max":[1,0],"type":"VEC2","bufferView":1,"byteOffset":0},{"name":"magmag-Mesh_0_indices","componentType":5123,"count":1890,"min":[0],"max":[397],"type":"SCALAR","bufferView":2,"byteOffset":0},{"name":"magmag-Mesh_1_positions","componentType":5126,"count":7,"min":[-0.8648149967193604,2.659179925918579,-2.2902400493621826],"max":[0.8648149967193604,3.269089937210083,-1.7523599863052368],"type":"VEC3","bufferView":0,"byteOffset":4776},{"name":"magmag-Mesh_1_texcoords","componentType":5126,"count":7,"min":[0.02148500084877014,-0.00005999999848427251],"max":[0.9785150289535522,0.9688140153884888],"type":"VEC2","bufferView":1,"byteOffset":3184},{"name":"magmag-Mesh_1_indices","componentType":5123,"count":15,"min":[0],"max":[6],"type":"SCALAR","bufferView":2,"byteOffset":3780},{"name":"magmag-Mesh_2_positions","componentType":5126,"count":5,"min":[-0.8648149967193604,2.659179925918579,-2.2902400493621826],"max":[0.8648149967193604,3.1630399227142334,-1.5762699842453003],"type":"VEC3","bufferView":0,"byteOffset":4860},{"name":"magmag-Mesh_2_texcoords","componentType":5126,"count":5,"min":[0,0.031238999217748642],"max":[1,1.0000109672546387],"type":"VEC2","bufferView":1,"byteOffset":3240},{"name":"magmag-Mesh_2_indices","componentType":5123,"count":9,"min":[0],"max":[4],"type":"SCALAR","bufferView":2,"byteOffset":3812},{"name":"magmag-Mesh_3_positions","componentType":5126,"count":32,"min":[-1.3471100330352783,3.3147099018096924,-4.738920211791992],"max":[1.3470799922943115,3.8503499031066895,-3.2564399242401123],"type":"VEC3","bufferView":0,"byteOffset":4920},{"name":"magmag-Mesh_3_texcoords","componentType":5126,"count":32,"min":[0,0],"max":[1,0.25],"type":"VEC2","bufferView":1,"byteOffset":3280},{"name":"magmag-Mesh_3_indices","componentType":5123,"count":102,"min":[0],"max":[31],"type":"SCALAR","bufferView":2,"byteOffset":3832}],"asset":{"generator":"obj2gltf","version":"2.0"},"buffers":[{"name":"BR_Slugma-Shiny01","byteLength":58004,"uri":"data:application/octet-stream;base64,"}],"bufferViews":[{"name":"bufferView_0","buffer":0,"byteLength":5304,"byteOffset":0,"byteStride":12,"target":34962},{"name":"bufferView_1","buffer":0,"byteLength":3536,"byteOffset":5304,"byteStride":8,"target":34962},{"name":"bufferView_2","buffer":0,"byteLength":4036,"byteOffset":8840,"target":34963},{"buffer":0,"byteOffset":12876,"byteLength":4114},{"buffer":0,"byteOffset":16990,"byteLength":4114},{"buffer":0,"byteOffset":21104,"byteLength":4114},{"buffer":0,"byteOffset":25218,"byteLength":32786}],"images":[{"name":"magmag_1_0","mimeType":"image/x-tga","bufferView":3},{"name":"magmag_1_2","mimeType":"image/x-tga","bufferView":4},{"name":"magmag_1_3","mimeType":"image/x-tga","bufferView":5},{"name":"magmag_1_4","mimeType":"image/x-tga","bufferView":6}],"materials":[{"name":"mat_0","pbrMetallicRoughness":{"baseColorTexture":{"index":0},"baseColorFactor":[1,1,1,1],"metallicFactor":0,"roughnessFactor":0.903921569},"emissiveFactor":[0,0,0],"alphaMode":"BLEND","doubleSided":true},{"name":"mat_1","pbrMetallicRoughness":{"baseColorTexture":{"index":1},"baseColorFactor":[1,1,1,1],"metallicFactor":0,"roughnessFactor":0.903921569},"emissiveFactor":[0,0,0],"alphaMode":"BLEND","doubleSided":true},{"name":"mat_2","pbrMetallicRoughness":{"baseColorTexture":{"index":2},"baseColorFactor":[1,1,1,1],"metallicFactor":0,"roughnessFactor":0.903921569},"emissiveFactor":[0,0,0],"alphaMode":"BLEND","doubleSided":true},{"name":"mat_3","pbrMetallicRoughness":{"baseColorTexture":{"index":3},"baseColorFactor":[1,1,1,1],"metallicFactor":0,"roughnessFactor":0.903921569},"emissiveFactor":[0,0,0],"alphaMode":"BLEND","doubleSided":true}],"meshes":[{"name":"magmag-Mesh","primitives":[{"attributes":{"POSITION":0,"TEXCOORD_0":1},"indices":2,"material":0,"mode":4},{"attributes":{"POSITION":3,"TEXCOORD_0":4},"indices":5,"material":1,"mode":4},{"attributes":{"POSITION":6,"TEXCOORD_0":7},"indices":8,"material":2,"mode":4},{"attributes":{"POSITION":9,"TEXCOORD_0":10},"indices":11,"material":3,"mode":4}]}],"nodes":[{"name":"magmag","mesh":0}],"samplers":[{"wrapS":10497,"wrapT":10497}],"scene":0,"scenes":[{"nodes":[0]}],"textures":[{"name":"magmag_1_0","sampler":0,"source":0},{"name":"magmag_1_2","sampler":0,"source":1},{"name":"magmag_1_3","sampler":0,"source":2},{"name":"magmag_1_4","sampler":0,"source":3}]}