{"accessors":[{"name":"polygon0_1_0_positions","componentType":5126,"count":46,"min":[-3.1294710636138916,11.552399635314941,7.6771240234375],"max":[3.1294710636138916,15.13811206817627,8.748665809631348],"type":"VEC3","bufferView":0,"byteOffset":0},{"name":"polygon0_1_0_normals","componentType":5126,"count":46,"min":[-0.9051541090011597,-0.08081096410751343,0.399537056684494],"max":[0.9051541090011597,0.7760120630264282,0.9910945296287537],"type":"VEC3","bufferView":1,"byteOffset":0},{"name":"polygon0_1_0_texcoords","componentType":5126,"count":46,"min":[-0.9197390079498291,0.0034179999493062496],"max":[-0.6000980138778687,0.2382809966802597],"type":"VEC2","bufferView":2,"byteOffset":0},{"name":"polygon0_1_0_indices","componentType":5123,"count":198,"min":[0],"max":[45],"type":"SCALAR","bufferView":3,"byteOffset":0},{"name":"polygon1_1_0_positions","componentType":5126,"count":995,"min":[-7.324979782104492,0,-11.610594749450684],"max":[7.324979782104492,15.976384162902832,11.595664024353027],"type":"VEC3","bufferView":0,"byteOffset":552},{"name":"polygon1_1_0_normals","componentType":5126,"count":995,"min":[-1,-1,-0.9993292093276978],"max":[1,0.9999798536300659,0.9994726181030273],"type":"VEC3","bufferView":1,"byteOffset":552},{"name":"polygon1_1_0_texcoords","componentType":5126,"count":995,"min":[0.008301000110805035,0.010680999606847763],"max":[0.9931340217590332,0.9904170036315918],"type":"VEC2","bufferView":2,"byteOffset":368},{"name":"polygon1_1_0_indices","componentType":5123,"count":4578,"min":[0],"max":[994],"type":"SCALAR","bufferView":3,"byteOffset":396},{"name":"polygon2_1_0_positions","componentType":5126,"count":4,"min":[2.997610092163086,7.157837867736816,6.670788764953613],"max":[3.7982139587402344,7.958442211151123,6.670788764953613],"type":"VEC3","bufferView":0,"byteOffset":12492},{"name":"polygon2_1_0_normals","componentType":5126,"count":4,"min":[0,0,-1],"max":[0,0,-1],"type":"VEC3","bufferView":1,"byteOffset":12492},{"name":"polygon2_1_0_texcoords","componentType":5126,"count":4,"min":[0.8325499892234802,0.012664999812841415],"max":[0.9901729822158813,0.17028799653053284],"type":"VEC2","bufferView":2,"byteOffset":8328},{"name":"polygon2_1_0_indices","componentType":5123,"count":6,"min":[0],"max":[3],"type":"SCALAR","bufferView":3,"byteOffset":9552},{"name":"polygon3_1_0_positions","componentType":5126,"count":4,"min":[-3.798214912414551,7.157835960388184,6.670790195465088],"max":[-2.9976089000701904,7.958442211151123,6.670790195465088],"type":"VEC3","bufferView":0,"byteOffset":12540},{"name":"polygon3_1_0_normals","componentType":5126,"count":4,"min":[0,0,-1],"max":[0,0,-1],"type":"VEC3","bufferView":1,"byteOffset":12540},{"name":"polygon3_1_0_texcoords","componentType":5126,"count":4,"min":[0.8325499892234802,0.012664999812841415],"max":[0.9901729822158813,0.17028799653053284],"type":"VEC2","bufferView":2,"byteOffset":8360},{"name":"polygon3_1_0_indices","componentType":5123,"count":6,"min":[0],"max":[3],"type":"SCALAR","bufferView":3,"byteOffset":9564}],"asset":{"generator":"obj2gltf","version":"2.0"},"buffers":[{"name":"Magcargo","byteLength":403628,"uri":"data:application/octet-stream;base64,"}],"bufferViews":[{"name":"bufferView_0","buffer":0,"byteLength":12588,"byteOffset":0,"byteStride":12,"target":34962},{"name":"bufferView_1","buffer":0,"byteLength":12588,"byteOffset":12588,"byteStride":12,"target":34962},{"name":"bufferView_2","buffer":0,"byteLength":8392,"byteOffset":25176,"byteStride":8,"target":34962},{"name":"bufferView_3","buffer":0,"byteLength":9576,"byteOffset":33568,"target":34963},{"buffer":0,"byteOffset":43144,"byteLength":98322},{"buffer":0,"byteOffset":141466,"byteLength":262162}],"images":[{"name":"MagcargotEyeDh","mimeType":"image/x-tga","bufferView":4},{"name":"MagcargotDh","mimeType":"image/x-tga","bufferView":5}],"materials":[{"name":"mat3","pbrMetallicRoughness":{"baseColorTexture":{"index":0},"baseColorFactor":[1,1,1,1],"metallicFactor":0,"roughnessFactor":0.99},"emissiveFactor":[0,0,0],"alphaMode":"OPAQUE","doubleSided":false},{"name":"mat1","pbrMetallicRoughness":{"baseColorTexture":{"index":1},"baseColorFactor":[1,1,1,1],"metallicFactor":0,"roughnessFactor":0.99},"emissiveFactor":[0,0,0],"alphaMode":"OPAQUE","doubleSided":false},{"name":"mat2","pbrMetallicRoughness":{"baseColorTexture":{"index":1},"baseColorFactor":[1,1,1,1],"metallicFactor":0,"roughnessFactor":0.99},"emissiveFactor":[0,0,0],"alphaMode":"OPAQUE","doubleSided":false}],"meshes":[{"name":"polygon0_1","primitives":[{"attributes":{"POSITION":0,"NORMAL":1,"TEXCOORD_0":2},"indices":3,"material":0,"mode":4}]},{"name":"polygon1_1","primitives":[{"attributes":{"POSITION":4,"NORMAL":5,"TEXCOORD_0":6},"indices":7,"material":1,"mode":4}]},{"name":"polygon2_1","primitives":[{"attributes":{"POSITION":8,"NORMAL":9,"TEXCOORD_0":10},"indices":11,"material":2,"mode":4}]},{"name":"polygon3_1","primitives":[{"attributes":{"POSITION":12,"NORMAL":13,"TEXCOORD_0":14},"indices":15,"material":2,"mode":4}]}],"nodes":[{"name":"polygon0","mesh":0},{"name":"polygon1","mesh":1},{"name":"polygon2","mesh":2},{"name":"polygon3","mesh":3}],"samplers":[{"wrapS":10497,"wrapT":10497}],"scene":0,"scenes":[{"nodes":[0,1,2,3]}],"textures":[{"name":"MagcargotEyeDh","sampler":0,"source":0},{"name":"MagcargotDh","sampler":0,"source":1}]}