{"accessors":[{"name":"urimoo-Mesh_0_positions","componentType":5126,"count":25,"min":[-1.5240700244903564,0.36921098828315735,-0.2850089967250824],"max":[-0.4511890113353729,1.2990399599075317,0.1471250057220459],"type":"VEC3","bufferView":0,"byteOffset":0},{"name":"urimoo-Mesh_0_texcoords","componentType":5126,"count":25,"min":[0,-1.5229099988937378],"max":[1,1.3023849725723267],"type":"VEC2","bufferView":1,"byteOffset":0},{"name":"urimoo-Mesh_0_indices","componentType":5123,"count":84,"min":[0],"max":[24],"type":"SCALAR","bufferView":2,"byteOffset":0}],"asset":{"generator":"obj2gltf","version":"2.0"},"buffers":[{"name":"BR_Swinub-Shiny01","byteLength":8880,"uri":"data:application/octet-stream;base64,"}],"bufferViews":[{"name":"bufferView_0","buffer":0,"byteLength":300,"byteOffset":0,"byteStride":12,"target":34962},{"name":"bufferView_1","buffer":0,"byteLength":200,"byteOffset":300,"byteStride":8,"target":34962},{"name":"bufferView_2","buffer":0,"byteLength":168,"byteOffset":500,"target":34963},{"buffer":0,"byteOffset":668,"byteLength":8210}],"images":[{"name":"urimoo_1_0","mimeType":"image/x-tga","bufferView":3}],"materials":[{"name":"mat_0","pbrMetallicRoughness":{"baseColorTexture":{"index":0},"baseColorFactor":[1,1,1,1],"metallicFactor":0,"roughnessFactor":0.903921569},"emissiveFactor":[0,0,0],"alphaMode":"BLEND","doubleSided":true}],"meshes":[{"name":"urimoo-Mesh","primitives":[{"attributes":{"POSITION":0,"TEXCOORD_0":1},"indices":2,"material":0,"mode":4}]}],"nodes":[{"name":"urimoo","mesh":0}],"samplers":[{"wrapS":10497,"wrapT":10497}],"scene":0,"scenes":[{"nodes":[0]}],"textures":[{"name":"urimoo_1_0","sampler":0,"source":0}]}