{"accessors":[{"name":"polygon0_1_0_positions","componentType":5126,"count":13,"min":[-0.9993510246276855,0.41243499517440796,4.883469104766846],"max":[0.9993510246276855,1.8206230401992798,5.734814167022705],"type":"VEC3","bufferView":0,"byteOffset":0},{"name":"polygon0_1_0_normals","componentType":5126,"count":13,"min":[-0.2557399570941925,-0.823464572429657,0.567367672920227],"max":[0.2557399570941925,-0.3561439514160156,0.9106271862983704],"type":"VEC3","bufferView":1,"byteOffset":0},{"name":"polygon0_1_0_texcoords","componentType":5126,"count":13,"min":[-0.7626950144767761,0.04797400161623955],"max":[-0.039062999188899994,0.49481201171875],"type":"VEC2","bufferView":2,"byteOffset":0},{"name":"polygon0_1_0_indices","componentType":5123,"count":36,"min":[0],"max":[12],"type":"SCALAR","bufferView":3,"byteOffset":0},{"name":"polygon1_1_0_positions","componentType":5126,"count":1015,"min":[-5.90933895111084,0,-7.431002140045166],"max":[5.90933895111084,11.112434387207031,7.72274923324585],"type":"VEC3","bufferView":0,"byteOffset":156},{"name":"polygon1_1_0_normals","componentType":5126,"count":1015,"min":[-0.9995402097702026,-0.9999744892120361,-0.9966198801994324],"max":[0.9995402097702026,0.9964204430580139,0.9996634721755981],"type":"VEC3","bufferView":1,"byteOffset":156},{"name":"polygon1_1_0_texcoords","componentType":5126,"count":1015,"min":[0.005797999911010265,0.011536000296473503],"max":[0.9902039766311646,1.0003050565719604],"type":"VEC2","bufferView":2,"byteOffset":104},{"name":"polygon1_1_0_indices","componentType":5123,"count":4932,"min":[0],"max":[1014],"type":"SCALAR","bufferView":3,"byteOffset":72},{"name":"polygon2_1_0_positions","componentType":5126,"count":12,"min":[-1.6372230052947998,2.790086030960083,5.1963701248168945],"max":[1.6372220516204834,3.5005850791931152,5.682877063751221],"type":"VEC3","bufferView":0,"byteOffset":12336},{"name":"polygon2_1_0_normals","componentType":5126,"count":12,"min":[-0.5904415845870972,0.2251598984003067,0.7635945081710815],"max":[0.5904415845870972,0.46143803000450134,0.9113216400146484],"type":"VEC3","bufferView":1,"byteOffset":12336},{"name":"polygon2_1_0_texcoords","componentType":5126,"count":12,"min":[-0.00646999990567565,0.022216999903321266],"max":[0.5708010196685791,0.2648929953575134],"type":"VEC2","bufferView":2,"byteOffset":8224},{"name":"polygon2_1_0_indices","componentType":5123,"count":24,"min":[0],"max":[11],"type":"SCALAR","bufferView":3,"byteOffset":9936}],"asset":{"generator":"obj2gltf","version":"2.0"},"buffers":[{"name":"Piloswine","byteLength":362808,"uri":"data:application/octet-stream;base64,"}],"bufferViews":[{"name":"bufferView_0","buffer":0,"byteLength":12480,"byteOffset":0,"byteStride":12,"target":34962},{"name":"bufferView_1","buffer":0,"byteLength":12480,"byteOffset":12480,"byteStride":12,"target":34962},{"name":"bufferView_2","buffer":0,"byteLength":8320,"byteOffset":24960,"byteStride":8,"target":34962},{"name":"bufferView_3","buffer":0,"byteLength":9984,"byteOffset":33280,"target":34963},{"buffer":0,"byteOffset":43264,"byteLength":24594},{"buffer":0,"byteOffset":67858,"byteLength":196626},{"buffer":0,"byteOffset":264484,"byteLength":98322}],"images":[{"name":"InomooMouthDh","mimeType":"image/x-tga","bufferView":4},{"name":"InomooDh","mimeType":"image/x-tga","bufferView":5},{"name":"InomooEyeDh","mimeType":"image/x-tga","bufferView":6}],"materials":[{"name":"mat3","pbrMetallicRoughness":{"baseColorTexture":{"index":0},"baseColorFactor":[1,1,1,1],"metallicFactor":0,"roughnessFactor":0.99},"emissiveFactor":[0,0,0],"alphaMode":"OPAQUE","doubleSided":false},{"name":"mat1","pbrMetallicRoughness":{"baseColorTexture":{"index":1},"baseColorFactor":[1,1,1,1],"metallicFactor":0,"roughnessFactor":0.99},"emissiveFactor":[0,0,0],"alphaMode":"OPAQUE","doubleSided":false},{"name":"mat2","pbrMetallicRoughness":{"baseColorTexture":{"index":2},"baseColorFactor":[1,1,1,1],"metallicFactor":0,"roughnessFactor":0.99},"emissiveFactor":[0,0,0],"alphaMode":"OPAQUE","doubleSided":false}],"meshes":[{"name":"polygon0_1","primitives":[{"attributes":{"POSITION":0,"NORMAL":1,"TEXCOORD_0":2},"indices":3,"material":0,"mode":4}]},{"name":"polygon1_1","primitives":[{"attributes":{"POSITION":4,"NORMAL":5,"TEXCOORD_0":6},"indices":7,"material":1,"mode":4}]},{"name":"polygon2_1","primitives":[{"attributes":{"POSITION":8,"NORMAL":9,"TEXCOORD_0":10},"indices":11,"material":2,"mode":4}]}],"nodes":[{"name":"polygon0","mesh":0},{"name":"polygon1","mesh":1},{"name":"polygon2","mesh":2}],"samplers":[{"wrapS":10497,"wrapT":10497}],"scene":0,"scenes":[{"nodes":[0,1,2]}],"textures":[{"name":"InomooMouthDh","sampler":0,"source":0},{"name":"InomooDh","sampler":0,"source":1},{"name":"InomooEyeDh","sampler":0,"source":2}]}