{"accessors":[{"name":"polygon0_1_0_positions","componentType":5126,"count":5,"min":[-0.7063480019569397,2.0056650638580322,1.900496006011963],"max":[0.7009429931640625,2.686598062515259,2.058021068572998],"type":"VEC3","bufferView":0,"byteOffset":0},{"name":"polygon0_1_0_normals","componentType":5126,"count":5,"min":[-0.40022212266921997,-0.0019530004356056452,0.8385539650917053],"max":[0.40014299750328064,0.36974698305130005,0.9905760288238525],"type":"VEC3","bufferView":1,"byteOffset":0},{"name":"polygon0_1_0_texcoords","componentType":5126,"count":5,"min":[1.024780035018921,0.021911999210715294],"max":[1.4759830236434937,0.23834200203418732],"type":"VEC2","bufferView":2,"byteOffset":0},{"name":"polygon0_1_0_indices","componentType":5123,"count":6,"min":[0],"max":[4],"type":"SCALAR","bufferView":3,"byteOffset":0},{"name":"polygon1_1_0_positions","componentType":5126,"count":5,"min":[-0.6748409867286682,1.2901760339736938,2.0408620834350586],"max":[0.6689559817314148,2.686598062515259,2.2065510749816895],"type":"VEC3","bufferView":0,"byteOffset":60},{"name":"polygon1_1_0_normals","componentType":5126,"count":5,"min":[-0.3384420871734619,-0.31628286838531494,0.9409852027893066],"max":[0.3380790948867798,0.1369590014219284,0.9998216032981873],"type":"VEC3","bufferView":1,"byteOffset":60},{"name":"polygon1_1_0_texcoords","componentType":5126,"count":5,"min":[1.4971920251846313,0.0050050001591444016],"max":[1.9506839513778687,0.24462899565696716],"type":"VEC2","bufferView":2,"byteOffset":40},{"name":"polygon1_1_0_indices","componentType":5123,"count":12,"min":[0],"max":[4],"type":"SCALAR","bufferView":3,"byteOffset":12},{"name":"polygon2_1_0_positions","componentType":5126,"count":1026,"min":[-3.0164260864257812,-0.037324998527765274,-2.951733112335205],"max":[3.0110208988189697,6.163992881774902,2.989346981048584],"type":"VEC3","bufferView":0,"byteOffset":120},{"name":"polygon2_1_0_normals","componentType":5126,"count":1026,"min":[-0.9998689293861389,-0.9999950528144836,-0.9999842643737793],"max":[0.9998689293861389,0.9997019171714783,0.9989400506019592],"type":"VEC3","bufferView":1,"byteOffset":120},{"name":"polygon2_1_0_texcoords","componentType":5126,"count":1026,"min":[0.008270000107586384,0.0045779999345541],"max":[0.9912109971046448,0.9916080236434937],"type":"VEC2","bufferView":2,"byteOffset":80},{"name":"polygon2_1_0_indices","componentType":5123,"count":4458,"min":[0],"max":[1025],"type":"SCALAR","bufferView":3,"byteOffset":36}],"asset":{"generator":"obj2gltf","version":"2.0"},"buffers":[{"name":"Corsola","byteLength":386224,"uri":"data:application/octet-stream;base64,"}],"bufferViews":[{"name":"bufferView_0","buffer":0,"byteLength":12432,"byteOffset":0,"byteStride":12,"target":34962},{"name":"bufferView_1","buffer":0,"byteLength":12432,"byteOffset":12432,"byteStride":12,"target":34962},{"name":"bufferView_2","buffer":0,"byteLength":8288,"byteOffset":24864,"byteStride":8,"target":34962},{"name":"bufferView_3","buffer":0,"byteLength":8952,"byteOffset":33152,"target":34963},{"buffer":0,"byteOffset":42104,"byteLength":98322},{"buffer":0,"byteOffset":140426,"byteLength":49170},{"buffer":0,"byteOffset":189596,"byteLength":196626}],"images":[{"name":"SunnygoEyeDh","mimeType":"image/x-tga","bufferView":4},{"name":"SunnygoMouthDh","mimeType":"image/x-tga","bufferView":5},{"name":"SunnygoDh","mimeType":"image/x-tga","bufferView":6}],"materials":[{"name":"mat2","pbrMetallicRoughness":{"baseColorTexture":{"index":0},"baseColorFactor":[1,1,1,1],"metallicFactor":0,"roughnessFactor":0.99},"emissiveFactor":[0,0,0],"alphaMode":"OPAQUE","doubleSided":false},{"name":"mat3","pbrMetallicRoughness":{"baseColorTexture":{"index":1},"baseColorFactor":[1,1,1,1],"metallicFactor":0,"roughnessFactor":0.99},"emissiveFactor":[0,0,0],"alphaMode":"OPAQUE","doubleSided":false},{"name":"mat1","pbrMetallicRoughness":{"baseColorTexture":{"index":2},"baseColorFactor":[1,1,1,1],"metallicFactor":0,"roughnessFactor":0.99},"emissiveFactor":[0,0,0],"alphaMode":"OPAQUE","doubleSided":false}],"meshes":[{"name":"polygon0_1","primitives":[{"attributes":{"POSITION":0,"NORMAL":1,"TEXCOORD_0":2},"indices":3,"material":0,"mode":4}]},{"name":"polygon1_1","primitives":[{"attributes":{"POSITION":4,"NORMAL":5,"TEXCOORD_0":6},"indices":7,"material":1,"mode":4}]},{"name":"polygon2_1","primitives":[{"attributes":{"POSITION":8,"NORMAL":9,"TEXCOORD_0":10},"indices":11,"material":2,"mode":4}]}],"nodes":[{"name":"polygon0","mesh":0},{"name":"polygon1","mesh":1},{"name":"polygon2","mesh":2}],"samplers":[{"wrapS":10497,"wrapT":10497}],"scene":0,"scenes":[{"nodes":[0,1,2]}],"textures":[{"name":"SunnygoEyeDh","sampler":0,"source":0},{"name":"SunnygoMouthDh","sampler":0,"source":1},{"name":"SunnygoDh","sampler":0,"source":2}]}