{"accessors":[{"name":"teppouo-Mesh_0_positions","componentType":5126,"count":29,"min":[-0.03147000074386597,-5.662439823150635,-3.0516200065612793],"max":[0.024122999981045723,-2.080280065536499,-0.4719739854335785],"type":"VEC3","bufferView":0,"byteOffset":0},{"name":"teppouo-Mesh_0_texcoords","componentType":5126,"count":29,"min":[-0.09440000355243683,0.045138999819755554],"max":[0.7163640260696411,1],"type":"VEC2","bufferView":1,"byteOffset":0},{"name":"teppouo-Mesh_0_indices","componentType":5123,"count":84,"min":[0],"max":[28],"type":"SCALAR","bufferView":2,"byteOffset":0},{"name":"teppouo-Mesh_1_positions","componentType":5126,"count":63,"min":[-1.3238600492477417,-4.95419979095459,-0.2386319935321808],"max":[1.3646299839019775,1.7000199556350708,6.485579967498779],"type":"VEC3","bufferView":0,"byteOffset":348},{"name":"teppouo-Mesh_1_texcoords","componentType":5126,"count":63,"min":[-0.33124199509620667,-0.043480001389980316],"max":[1.1785500049591064,1.043478012084961],"type":"VEC2","bufferView":1,"byteOffset":232},{"name":"teppouo-Mesh_1_indices","componentType":5123,"count":219,"min":[0],"max":[62],"type":"SCALAR","bufferView":2,"byteOffset":168},{"name":"teppouo-Mesh_2_positions","componentType":5126,"count":50,"min":[-0.7210969924926758,-2.5150399208068848,-2.714590072631836],"max":[0.7210969924926758,3.457740068435669,0.2910569906234741],"type":"VEC3","bufferView":0,"byteOffset":1104},{"name":"teppouo-Mesh_2_texcoords","componentType":5126,"count":50,"min":[0.004585000220686197,0.003967999946326017],"max":[0.9960319995880127,0.6740260124206543],"type":"VEC2","bufferView":1,"byteOffset":736},{"name":"teppouo-Mesh_2_indices","componentType":5123,"count":189,"min":[0],"max":[49],"type":"SCALAR","bufferView":2,"byteOffset":608},{"name":"teppouo-Mesh_3_positions","componentType":5126,"count":56,"min":[-1.0771700143814087,-2.5150399208068848,-1.1905299425125122],"max":[1.0769699811935425,3.1484899520874023,0.6173760294914246],"type":"VEC3","bufferView":0,"byteOffset":1704},{"name":"teppouo-Mesh_3_texcoords","componentType":5126,"count":56,"min":[-0.13468199968338013,-6.847939968109131],"max":[1.2486000061035156,0.9019709825515747],"type":"VEC2","bufferView":1,"byteOffset":1136},{"name":"teppouo-Mesh_3_indices","componentType":5123,"count":90,"min":[0],"max":[55],"type":"SCALAR","bufferView":2,"byteOffset":988},{"name":"teppouo-Mesh_4_positions","componentType":5126,"count":32,"min":[-1.1213300228118896,-2.180769920349121,-1.8942400217056274],"max":[1.1213300228118896,1.0141799449920654,0.2910569906234741],"type":"VEC3","bufferView":0,"byteOffset":2376},{"name":"teppouo-Mesh_4_texcoords","componentType":5126,"count":32,"min":[-0.22341999411582947,-0.28057000041007996],"max":[1.1667699813842773,1.192613959312439],"type":"VEC2","bufferView":1,"byteOffset":1584},{"name":"teppouo-Mesh_4_indices","componentType":5123,"count":108,"min":[0],"max":[31],"type":"SCALAR","bufferView":2,"byteOffset":1168},{"name":"teppouo-Mesh_5_positions","componentType":5126,"count":57,"min":[-0.9459429979324341,-2.4563300609588623,-0.7570970058441162],"max":[0.9459429979324341,3.2320399284362793,1.6898200511932373],"type":"VEC3","bufferView":0,"byteOffset":2760},{"name":"teppouo-Mesh_5_texcoords","componentType":5126,"count":57,"min":[0.004850999917834997,-0.10412999987602234],"max":[0.9454470276832581,1.1264760494232178],"type":"VEC2","bufferView":1,"byteOffset":1840},{"name":"teppouo-Mesh_5_indices","componentType":5123,"count":249,"min":[0],"max":[56],"type":"SCALAR","bufferView":2,"byteOffset":1384},{"name":"teppouo-Mesh_6_positions","componentType":5126,"count":18,"min":[-0.39261600375175476,2.2508699893951416,-0.9891560077667236],"max":[0.39261600375175476,3.457740068435669,0.18933700025081635],"type":"VEC3","bufferView":0,"byteOffset":3444},{"name":"teppouo-Mesh_6_texcoords","componentType":5126,"count":18,"min":[0.30004701018333435,0.1661040037870407],"max":[0.699953019618988,0.7331100106239319],"type":"VEC2","bufferView":1,"byteOffset":2296},{"name":"teppouo-Mesh_6_indices","componentType":5123,"count":66,"min":[0],"max":[17],"type":"SCALAR","bufferView":2,"byteOffset":1884},{"name":"teppouo-Mesh_7_positions","componentType":5126,"count":34,"min":[-0.7654179930686951,1.598230004310608,-1.3385299444198608],"max":[0.7654110193252563,2.640439987182617,-0.21286000311374664],"type":"VEC3","bufferView":0,"byteOffset":3660},{"name":"teppouo-Mesh_7_texcoords","componentType":5126,"count":34,"min":[0.01396500039845705,-0.03767000138759613],"max":[0.3193959891796112,1.0361549854278564],"type":"VEC2","bufferView":1,"byteOffset":2440},{"name":"teppouo-Mesh_7_indices","componentType":5123,"count":144,"min":[0],"max":[33],"type":"SCALAR","bufferView":2,"byteOffset":2016},{"name":"teppouo-Mesh_8_positions","componentType":5126,"count":3,"min":[0.15002700686454773,3.244539976119995,-0.9839289784431458],"max":[0.26646798849105835,3.388859987258911,-0.7526699900627136],"type":"VEC3","bufferView":0,"byteOffset":4068},{"name":"teppouo-Mesh_8_texcoords","componentType":5126,"count":3,"min":[0.3729279935359955,0.7331100106239319],"max":[0.5635359883308411,0.7331100106239319],"type":"VEC2","bufferView":1,"byteOffset":2712},{"name":"teppouo-Mesh_8_indices","componentType":5123,"count":3,"min":[0],"max":[2],"type":"SCALAR","bufferView":2,"byteOffset":2304}],"asset":{"generator":"obj2gltf","version":"2.0"},"buffers":[{"name":"BR_Remoraid-Shiny01","byteLength":91344,"uri":"data:application/octet-stream;base64,"}],"bufferViews":[{"name":"bufferView_0","buffer":0,"byteLength":4104,"byteOffset":0,"byteStride":12,"target":34962},{"name":"bufferView_1","buffer":0,"byteLength":2736,"byteOffset":4104,"byteStride":8,"target":34962},{"name":"bufferView_2","buffer":0,"byteLength":2312,"byteOffset":6840,"target":34963},{"buffer":0,"byteOffset":9152,"byteLength":8210},{"buffer":0,"byteOffset":17362,"byteLength":8210},{"buffer":0,"byteOffset":25572,"byteLength":82},{"buffer":0,"byteOffset":25654,"byteLength":82},{"buffer":0,"byteOffset":25736,"byteLength":32786},{"buffer":0,"byteOffset":58522,"byteLength":4114},{"buffer":0,"byteOffset":62636,"byteLength":4114},{"buffer":0,"byteOffset":66750,"byteLength":24594}],"images":[{"name":"teppouo_1_0","mimeType":"image/x-tga","bufferView":3},{"name":"teppouo_1_1","mimeType":"image/x-tga","bufferView":4},{"name":"teppouo_1_2","mimeType":"image/x-tga","bufferView":5},{"name":"teppouo_1_3","mimeType":"image/x-tga","bufferView":6},{"name":"teppouo_1_4","mimeType":"image/x-tga","bufferView":7},{"name":"teppouo_1_5","mimeType":"image/x-tga","bufferView":8},{"name":"teppouo_1_6","mimeType":"image/x-tga","bufferView":9},{"name":"teppouo_1_7","mimeType":"image/x-tga","bufferView":10}],"materials":[{"name":"mat_0","pbrMetallicRoughness":{"baseColorTexture":{"index":0},"baseColorFactor":[1,1,1,1],"metallicFactor":0,"roughnessFactor":0.903921569},"emissiveFactor":[0,0,0],"alphaMode":"BLEND","doubleSided":true},{"name":"mat_1","pbrMetallicRoughness":{"baseColorTexture":{"index":1},"baseColorFactor":[1,1,1,1],"metallicFactor":0,"roughnessFactor":0.903921569},"emissiveFactor":[0,0,0],"alphaMode":"BLEND","doubleSided":true},{"name":"mat_2","pbrMetallicRoughness":{"baseColorTexture":{"index":2},"baseColorFactor":[1,1,1,1],"metallicFactor":0,"roughnessFactor":0.903921569},"emissiveFactor":[0,0,0],"alphaMode":"BLEND","doubleSided":true},{"name":"mat_3","pbrMetallicRoughness":{"baseColorTexture":{"index":3},"baseColorFactor":[1,1,1,1],"metallicFactor":0,"roughnessFactor":0.903921569},"emissiveFactor":[0,0,0],"alphaMode":"BLEND","doubleSided":true},{"name":"mat_4","pbrMetallicRoughness":{"baseColorTexture":{"index":4},"baseColorFactor":[1,1,1,1],"metallicFactor":0,"roughnessFactor":0.903921569},"emissiveFactor":[0,0,0],"alphaMode":"BLEND","doubleSided":true},{"name":"mat_5","pbrMetallicRoughness":{"baseColorTexture":{"index":5},"baseColorFactor":[1,1,1,1],"metallicFactor":0,"roughnessFactor":0.903921569},"emissiveFactor":[0,0,0],"alphaMode":"BLEND","doubleSided":true},{"name":"mat_6","pbrMetallicRoughness":{"baseColorTexture":{"index":6},"baseColorFactor":[1,1,1,1],"metallicFactor":0,"roughnessFactor":0.903921569},"emissiveFactor":[0,0,0],"alphaMode":"BLEND","doubleSided":true},{"name":"mat_7","pbrMetallicRoughness":{"baseColorTexture":{"index":7},"baseColorFactor":[1,1,1,1],"metallicFactor":0,"roughnessFactor":0.903921569},"emissiveFactor":[0,0,0],"alphaMode":"BLEND","doubleSided":true},{"name":"mat_8","pbrMetallicRoughness":{"baseColorFactor":[0.8,0.8,0.8,1],"metallicFactor":0,"roughnessFactor":0.903921569},"emissiveFactor":[0,0,0],"alphaMode":"OPAQUE","doubleSided":false}],"meshes":[{"name":"teppouo-Mesh","primitives":[{"attributes":{"POSITION":0,"TEXCOORD_0":1},"indices":2,"material":0,"mode":4},{"attributes":{"POSITION":3,"TEXCOORD_0":4},"indices":5,"material":1,"mode":4},{"attributes":{"POSITION":6,"TEXCOORD_0":7},"indices":8,"material":2,"mode":4},{"attributes":{"POSITION":9,"TEXCOORD_0":10},"indices":11,"material":3,"mode":4},{"attributes":{"POSITION":12,"TEXCOORD_0":13},"indices":14,"material":4,"mode":4},{"attributes":{"POSITION":15,"TEXCOORD_0":16},"indices":17,"material":5,"mode":4},{"attributes":{"POSITION":18,"TEXCOORD_0":19},"indices":20,"material":6,"mode":4},{"attributes":{"POSITION":21,"TEXCOORD_0":22},"indices":23,"material":7,"mode":4},{"attributes":{"POSITION":24,"TEXCOORD_0":25},"indices":26,"material":8,"mode":4}]}],"nodes":[{"name":"teppouo","mesh":0}],"samplers":[{"wrapS":10497,"wrapT":10497}],"scene":0,"scenes":[{"nodes":[0]}],"textures":[{"name":"teppouo_1_0","sampler":0,"source":0},{"name":"teppouo_1_1","sampler":0,"source":1},{"name":"teppouo_1_2","sampler":0,"source":2},{"name":"teppouo_1_3","sampler":0,"source":3},{"name":"teppouo_1_4","sampler":0,"source":4},{"name":"teppouo_1_5","sampler":0,"source":5},{"name":"teppouo_1_6","sampler":0,"source":6},{"name":"teppouo_1_7","sampler":0,"source":7}]}