{"accessors":[{"name":"polygon0_1_0_positions","componentType":5126,"count":17,"min":[-0.35444900393486023,5.099050998687744,4.107571125030518],"max":[0.354449987411499,5.793925762176514,4.575079917907715],"type":"VEC3","bufferView":0,"byteOffset":0},{"name":"polygon0_1_0_normals","componentType":5126,"count":17,"min":[-0.8823240399360657,-0.8652451038360596,0.41101402044296265],"max":[0.8823240399360657,0.9116290211677551,1],"type":"VEC3","bufferView":1,"byteOffset":0},{"name":"polygon0_1_0_texcoords","componentType":5126,"count":17,"min":[0.7631229758262634,0.1809689998626709],"max":[0.8069459795951843,0.2968440055847168],"type":"VEC2","bufferView":2,"byteOffset":0},{"name":"polygon0_1_0_indices","componentType":5123,"count":72,"min":[0],"max":[16],"type":"SCALAR","bufferView":3,"byteOffset":0},{"name":"polygon1_1_0_positions","componentType":5126,"count":1012,"min":[-7.005771160125732,-0.06632699817419052,-5.896944046020508],"max":[7.005770206451416,8.993764877319336,4.93855094909668],"type":"VEC3","bufferView":0,"byteOffset":204},{"name":"polygon1_1_0_normals","componentType":5126,"count":1012,"min":[-0.9937004446983337,-0.9998923540115356,-0.998467206954956],"max":[0.99596107006073,0.9999982714653015,0.9999306201934814],"type":"VEC3","bufferView":1,"byteOffset":204},{"name":"polygon1_1_0_texcoords","componentType":5126,"count":1012,"min":[0.01501499954611063,0.008666999638080597],"max":[0.9798579812049866,0.9974370002746582],"type":"VEC2","bufferView":2,"byteOffset":136},{"name":"polygon1_1_0_indices","componentType":5123,"count":4548,"min":[0],"max":[1011],"type":"SCALAR","bufferView":3,"byteOffset":144},{"name":"polygon2_1_0_positions","componentType":5126,"count":14,"min":[-2.522655963897705,5.032310962677002,1.3831169605255127],"max":[2.5226569175720215,6.1063761711120605,2.6090381145477295],"type":"VEC3","bufferView":0,"byteOffset":12348},{"name":"polygon2_1_0_normals","componentType":5126,"count":14,"min":[-0.9427610635757446,-0.5114466547966003,0.3318851590156555],"max":[0.9427684545516968,0.12217701971530914,0.8895421624183655],"type":"VEC3","bufferView":1,"byteOffset":12348},{"name":"polygon2_1_0_texcoords","componentType":5126,"count":14,"min":[-0.9240720272064209,0.009216000325977802],"max":[-0.54864501953125,0.20074500143527985],"type":"VEC2","bufferView":2,"byteOffset":8232},{"name":"polygon2_1_0_indices","componentType":5123,"count":30,"min":[0],"max":[13],"type":"SCALAR","bufferView":3,"byteOffset":9240}],"asset":{"generator":"obj2gltf","version":"2.0"},"buffers":[{"name":"Octillery","byteLength":337624,"uri":"data:application/octet-stream;base64,"}],"bufferViews":[{"name":"bufferView_0","buffer":0,"byteLength":12516,"byteOffset":0,"byteStride":12,"target":34962},{"name":"bufferView_1","buffer":0,"byteLength":12516,"byteOffset":12516,"byteStride":12,"target":34962},{"name":"bufferView_2","buffer":0,"byteLength":8344,"byteOffset":25032,"byteStride":8,"target":34962},{"name":"bufferView_3","buffer":0,"byteLength":9300,"byteOffset":33376,"target":34963},{"buffer":0,"byteOffset":42676,"byteLength":196626},{"buffer":0,"byteOffset":239302,"byteLength":98322}],"images":[{"name":"OkutankDh","mimeType":"image/x-tga","bufferView":4},{"name":"OkutankEyeDh","mimeType":"image/x-tga","bufferView":5}],"materials":[{"name":"mat3","pbrMetallicRoughness":{"baseColorTexture":{"index":0},"baseColorFactor":[1,1,1,1],"metallicFactor":0,"roughnessFactor":0.99},"emissiveFactor":[0,0,0],"alphaMode":"OPAQUE","doubleSided":false},{"name":"mat1","pbrMetallicRoughness":{"baseColorTexture":{"index":0},"baseColorFactor":[1,1,1,1],"metallicFactor":0,"roughnessFactor":0.99},"emissiveFactor":[0,0,0],"alphaMode":"OPAQUE","doubleSided":false},{"name":"mat2","pbrMetallicRoughness":{"baseColorTexture":{"index":1},"baseColorFactor":[1,1,1,1],"metallicFactor":0,"roughnessFactor":0.99},"emissiveFactor":[0,0,0],"alphaMode":"OPAQUE","doubleSided":false}],"meshes":[{"name":"polygon0_1","primitives":[{"attributes":{"POSITION":0,"NORMAL":1,"TEXCOORD_0":2},"indices":3,"material":0,"mode":4}]},{"name":"polygon1_1","primitives":[{"attributes":{"POSITION":4,"NORMAL":5,"TEXCOORD_0":6},"indices":7,"material":1,"mode":4}]},{"name":"polygon2_1","primitives":[{"attributes":{"POSITION":8,"NORMAL":9,"TEXCOORD_0":10},"indices":11,"material":2,"mode":4}]}],"nodes":[{"name":"polygon0","mesh":0},{"name":"polygon1","mesh":1},{"name":"polygon2","mesh":2}],"samplers":[{"wrapS":10497,"wrapT":10497}],"scene":0,"scenes":[{"nodes":[0,1,2]}],"textures":[{"name":"OkutankDh","sampler":0,"source":0},{"name":"OkutankEyeDh","sampler":0,"source":1}]}