{"accessors":[{"name":"polygon0_1_0_positions","componentType":5126,"count":15,"min":[-1.1754930019378662,5.118513107299805,1.0036200284957886],"max":[1.1754930019378662,6.286902904510498,1.5116989612579346],"type":"VEC3","bufferView":0,"byteOffset":0},{"name":"polygon0_1_0_normals","componentType":5126,"count":15,"min":[-0.7291132211685181,-0.2876591086387634,0.5781762003898621],"max":[0.7291132211685181,0.3662051260471344,0.9638739228248596],"type":"VEC3","bufferView":1,"byteOffset":0},{"name":"polygon0_1_0_texcoords","componentType":5126,"count":15,"min":[0.017059000208973885,0.015258999541401863],"max":[0.516510009765625,0.24710099399089813],"type":"VEC2","bufferView":2,"byteOffset":0},{"name":"polygon0_1_0_indices","componentType":5123,"count":36,"min":[0],"max":[14],"type":"SCALAR","bufferView":3,"byteOffset":0},{"name":"polygon1_1_0_positions","componentType":5126,"count":937,"min":[-4.1547698974609375,-0.054218001663684845,-4.468630790710449],"max":[4.1547698974609375,8.321511268615723,2.559581995010376],"type":"VEC3","bufferView":0,"byteOffset":180},{"name":"polygon1_1_0_normals","componentType":5126,"count":937,"min":[-0.9997247457504272,-0.9994506239891052,-0.9992241263389587],"max":[0.9997247457504272,0.9989479184150696,0.9966198801994324],"type":"VEC3","bufferView":1,"byteOffset":180},{"name":"polygon1_1_0_texcoords","componentType":5126,"count":937,"min":[0.01690700091421604,0.01947000063955784],"max":[0.9896550178527832,0.9909669756889343],"type":"VEC2","bufferView":2,"byteOffset":120},{"name":"polygon1_1_0_indices","componentType":5123,"count":4722,"min":[0],"max":[936],"type":"SCALAR","bufferView":3,"byteOffset":72}],"asset":{"generator":"obj2gltf","version":"2.0"},"buffers":[{"name":"Delibird","byteLength":334928,"uri":"data:application/octet-stream;base64,"}],"bufferViews":[{"name":"bufferView_0","buffer":0,"byteLength":11424,"byteOffset":0,"byteStride":12,"target":34962},{"name":"bufferView_1","buffer":0,"byteLength":11424,"byteOffset":11424,"byteStride":12,"target":34962},{"name":"bufferView_2","buffer":0,"byteLength":7616,"byteOffset":22848,"byteStride":8,"target":34962},{"name":"bufferView_3","buffer":0,"byteLength":9516,"byteOffset":30464,"target":34963},{"buffer":0,"byteOffset":39980,"byteLength":98322},{"buffer":0,"byteOffset":138302,"byteLength":196626}],"images":[{"name":"DelibirdEyeDh","mimeType":"image/x-tga","bufferView":4},{"name":"DelibirdDh","mimeType":"image/x-tga","bufferView":5}],"materials":[{"name":"mat2","pbrMetallicRoughness":{"baseColorTexture":{"index":0},"baseColorFactor":[1,1,1,1],"metallicFactor":0,"roughnessFactor":0.99},"emissiveFactor":[0,0,0],"alphaMode":"OPAQUE","doubleSided":false},{"name":"mat1","pbrMetallicRoughness":{"baseColorTexture":{"index":1},"baseColorFactor":[1,1,1,1],"metallicFactor":0,"roughnessFactor":0.99},"emissiveFactor":[0,0,0],"alphaMode":"OPAQUE","doubleSided":false}],"meshes":[{"name":"polygon0_1","primitives":[{"attributes":{"POSITION":0,"NORMAL":1,"TEXCOORD_0":2},"indices":3,"material":0,"mode":4}]},{"name":"polygon1_1","primitives":[{"attributes":{"POSITION":4,"NORMAL":5,"TEXCOORD_0":6},"indices":7,"material":1,"mode":4}]}],"nodes":[{"name":"polygon0","mesh":0},{"name":"polygon1","mesh":1}],"samplers":[{"wrapS":10497,"wrapT":10497}],"scene":0,"scenes":[{"nodes":[0,1]}],"textures":[{"name":"DelibirdEyeDh","sampler":0,"source":0},{"name":"DelibirdDh","sampler":0,"source":1}]}