{"accessors":[{"name":"mantain-Mesh_0_positions","componentType":5126,"count":40,"min":[-3.6276280879974365,4.589960098266602,-10.328556060791016],"max":[3.6276259422302246,6.090699195861816,-8.308797836303711],"type":"VEC3","bufferView":0,"byteOffset":0},{"name":"mantain-Mesh_0_texcoords","componentType":5126,"count":40,"min":[0.6965169906616211,0.017409000545740128],"max":[0.9763929843902588,0.23202699422836304],"type":"VEC2","bufferView":1,"byteOffset":0},{"name":"mantain-Mesh_0_indices","componentType":5123,"count":168,"min":[0],"max":[39],"type":"SCALAR","bufferView":2,"byteOffset":0},{"name":"mantain-Mesh_1_positions","componentType":5126,"count":235,"min":[5.953114032745361,-6.865876197814941,-7.576974868774414],"max":[7.516747951507568,-0.3430109918117523,-1.1024969816207886],"type":"VEC3","bufferView":0,"byteOffset":480},{"name":"mantain-Mesh_1_texcoords","componentType":5126,"count":235,"min":[0.020563000813126564,0.7555969953536987],"max":[0.6212289929389954,0.9882069826126099],"type":"VEC2","bufferView":1,"byteOffset":320},{"name":"mantain-Mesh_1_indices","componentType":5123,"count":1056,"min":[0],"max":[234],"type":"SCALAR","bufferView":2,"byteOffset":336},{"name":"mantain-Mesh_2_positions","componentType":5126,"count":1088,"min":[-19.326709747314453,-22.91338539123535,-16.13211441040039],"max":[19.326709747314453,6.412446975708008,-5.677949905395508],"type":"VEC3","bufferView":0,"byteOffset":3300},{"name":"mantain-Mesh_2_texcoords","componentType":5126,"count":1088,"min":[0.018931999802589417,0.018631000071763992],"max":[0.665573000907898,0.7322819828987122],"type":"VEC2","bufferView":1,"byteOffset":2200},{"name":"mantain-Mesh_2_indices","componentType":5123,"count":5220,"min":[0],"max":[1087],"type":"SCALAR","bufferView":2,"byteOffset":2448}],"asset":{"generator":"obj2gltf","version":"2.0"},"buffers":[{"name":"BR_Mantine-Shiny01","byteLength":1088744,"uri":"data:application/octet-stream;base64,"}],"bufferViews":[{"name":"bufferView_0","buffer":0,"byteLength":16356,"byteOffset":0,"byteStride":12,"target":34962},{"name":"bufferView_1","buffer":0,"byteLength":10904,"byteOffset":16356,"byteStride":8,"target":34962},{"name":"bufferView_2","buffer":0,"byteLength":12888,"byteOffset":27260,"target":34963},{"buffer":0,"byteOffset":40148,"byteLength":1048594}],"images":[{"name":"mantain_1_0","mimeType":"image/x-tga","bufferView":3}],"materials":[{"name":"mat_0","pbrMetallicRoughness":{"baseColorTexture":{"index":0},"baseColorFactor":[1,1,1,1],"metallicFactor":0,"roughnessFactor":0.903921569},"emissiveFactor":[0,0,0],"alphaMode":"BLEND","doubleSided":true},{"name":"mat_1","pbrMetallicRoughness":{"baseColorTexture":{"index":0},"baseColorFactor":[1,1,1,1],"metallicFactor":0,"roughnessFactor":0.903921569},"emissiveFactor":[0,0,0],"alphaMode":"BLEND","doubleSided":true},{"name":"mat_2","pbrMetallicRoughness":{"baseColorTexture":{"index":0},"baseColorFactor":[1,1,1,1],"metallicFactor":0,"roughnessFactor":0.903921569},"emissiveFactor":[0,0,0],"alphaMode":"BLEND","doubleSided":true}],"meshes":[{"name":"mantain-Mesh","primitives":[{"attributes":{"POSITION":0,"TEXCOORD_0":1},"indices":2,"material":0,"mode":4},{"attributes":{"POSITION":3,"TEXCOORD_0":4},"indices":5,"material":1,"mode":4},{"attributes":{"POSITION":6,"TEXCOORD_0":7},"indices":8,"material":2,"mode":4}]}],"nodes":[{"name":"mantain","mesh":0}],"samplers":[{"wrapS":10497,"wrapT":10497}],"scene":0,"scenes":[{"nodes":[0]}],"textures":[{"name":"mantain_1_0","sampler":0,"source":0}]}