{"accessors":[{"name":"airmd-Mesh_0_positions","componentType":5126,"count":651,"min":[-11.8326997756958,-3.279910087585449,-16.395099639892578],"max":[11.8326997756958,8.063619613647461,0.021970000118017197],"type":"VEC3","bufferView":0,"byteOffset":0},{"name":"airmd-Mesh_0_texcoords","componentType":5126,"count":651,"min":[0,0],"max":[0,1],"type":"VEC2","bufferView":1,"byteOffset":0},{"name":"airmd-Mesh_0_indices","componentType":5123,"count":1278,"min":[0],"max":[650],"type":"SCALAR","bufferView":2,"byteOffset":0},{"name":"airmd-Mesh_1_positions","componentType":5126,"count":237,"min":[-1.7516100406646729,-9.306489944458008,-11.44219970703125],"max":[1.7521400451660156,3.983870029449463,0.004805999808013439],"type":"VEC3","bufferView":0,"byteOffset":7812},{"name":"airmd-Mesh_1_texcoords","componentType":5126,"count":237,"min":[0,0],"max":[0,1],"type":"VEC2","bufferView":1,"byteOffset":5208},{"name":"airmd-Mesh_1_indices","componentType":5123,"count":486,"min":[0],"max":[236],"type":"SCALAR","bufferView":2,"byteOffset":2556},{"name":"airmd-Mesh_2_positions","componentType":5126,"count":35,"min":[-0.9700549840927124,2.318470001220703,-13.2701997756958],"max":[0.9700549840927124,8.063619613647461,-11.901900291442871],"type":"VEC3","bufferView":0,"byteOffset":10656},{"name":"airmd-Mesh_2_texcoords","componentType":5126,"count":35,"min":[-0.14732100069522858,-0.002300000051036477],"max":[0.9732139706611633,0.9151790142059326],"type":"VEC2","bufferView":1,"byteOffset":7104},{"name":"airmd-Mesh_2_indices","componentType":5123,"count":78,"min":[0],"max":[34],"type":"SCALAR","bufferView":2,"byteOffset":3528},{"name":"airmd-Mesh_3_positions","componentType":5126,"count":8,"min":[-0.7968649864196777,4.3572001457214355,-13.2431001663208],"max":[0.7968649864196777,5.979479789733887,-12.513400077819824],"type":"VEC3","bufferView":0,"byteOffset":11076},{"name":"airmd-Mesh_3_texcoords","componentType":5126,"count":8,"min":[-0.06947000324726105,-0.00610999995842576],"max":[1.0563299655914307,0.17271700501441956],"type":"VEC2","bufferView":1,"byteOffset":7384},{"name":"airmd-Mesh_3_indices","componentType":5123,"count":12,"min":[0],"max":[7],"type":"SCALAR","bufferView":2,"byteOffset":3684},{"name":"airmd-Mesh_4_positions","componentType":5126,"count":10,"min":[-0.6174899935722351,4.687089920043945,-12.68280029296875],"max":[0.6174920201301575,7.19596004486084,-12.2121000289917],"type":"VEC3","bufferView":0,"byteOffset":11172},{"name":"airmd-Mesh_4_texcoords","componentType":5126,"count":10,"min":[0,0],"max":[1,0.9649919867515564],"type":"VEC2","bufferView":1,"byteOffset":7448},{"name":"airmd-Mesh_4_indices","componentType":5123,"count":30,"min":[0],"max":[9],"type":"SCALAR","bufferView":2,"byteOffset":3708},{"name":"airmd-Mesh_5_positions","componentType":5126,"count":18,"min":[-0.42213401198387146,6.425990104675293,-12.484199523925781],"max":[0.42213600873947144,7.081960201263428,-12.23639965057373],"type":"VEC3","bufferView":0,"byteOffset":11292},{"name":"airmd-Mesh_5_texcoords","componentType":5126,"count":18,"min":[0.16354399919509888,0.2880859971046448],"max":[0.8364560008049011,1],"type":"VEC2","bufferView":1,"byteOffset":7528},{"name":"airmd-Mesh_5_indices","componentType":5123,"count":18,"min":[0],"max":[17],"type":"SCALAR","bufferView":2,"byteOffset":3768},{"name":"airmd-Mesh_6_positions","componentType":5126,"count":90,"min":[-11.73639965057373,-1.0447499752044678,-9.647629737854004],"max":[11.73639965057373,2.8187899589538574,-6.048679828643799],"type":"VEC3","bufferView":0,"byteOffset":11508},{"name":"airmd-Mesh_6_texcoords","componentType":5126,"count":90,"min":[0,0],"max":[0,1],"type":"VEC2","bufferView":1,"byteOffset":7672},{"name":"airmd-Mesh_6_indices","componentType":5123,"count":180,"min":[0],"max":[89],"type":"SCALAR","bufferView":2,"byteOffset":3804}],"asset":{"generator":"obj2gltf","version":"2.0"},"buffers":[{"name":"BR_Skarmory-Shiny01","byteLength":53176,"uri":"data:application/octet-stream;base64,"}],"bufferViews":[{"name":"bufferView_0","buffer":0,"byteLength":12588,"byteOffset":0,"byteStride":12,"target":34962},{"name":"bufferView_1","buffer":0,"byteLength":8392,"byteOffset":12588,"byteStride":8,"target":34962},{"name":"bufferView_2","buffer":0,"byteLength":4164,"byteOffset":20980,"target":34963},{"buffer":0,"byteOffset":25144,"byteLength":4114},{"buffer":0,"byteOffset":29258,"byteLength":4114},{"buffer":0,"byteOffset":33372,"byteLength":2066},{"buffer":0,"byteOffset":35438,"byteLength":12306},{"buffer":0,"byteOffset":47744,"byteLength":1042},{"buffer":0,"byteOffset":48786,"byteLength":274},{"buffer":0,"byteOffset":49060,"byteLength":4114}],"images":[{"name":"airmd_1_0","mimeType":"image/x-tga","bufferView":3},{"name":"airmd_1_2","mimeType":"image/x-tga","bufferView":4},{"name":"airmd_1_4","mimeType":"image/x-tga","bufferView":5},{"name":"airmd_1_5","mimeType":"image/x-tga","bufferView":6},{"name":"airmd_1_6","mimeType":"image/x-tga","bufferView":7},{"name":"airmd_1_7","mimeType":"image/x-tga","bufferView":8},{"name":"airmd_1_8","mimeType":"image/x-tga","bufferView":9}],"materials":[{"name":"mat_0","pbrMetallicRoughness":{"baseColorTexture":{"index":0},"baseColorFactor":[1,1,1,1],"metallicFactor":0,"roughnessFactor":0.903921569},"emissiveFactor":[0,0,0],"alphaMode":"BLEND","doubleSided":true},{"name":"mat_1","pbrMetallicRoughness":{"baseColorTexture":{"index":1},"baseColorFactor":[1,1,1,1],"metallicFactor":0,"roughnessFactor":0.903921569},"emissiveFactor":[0,0,0],"alphaMode":"BLEND","doubleSided":true},{"name":"mat_2","pbrMetallicRoughness":{"baseColorTexture":{"index":2},"baseColorFactor":[1,1,1,1],"metallicFactor":0,"roughnessFactor":0.903921569},"emissiveFactor":[0,0,0],"alphaMode":"BLEND","doubleSided":true},{"name":"mat_3","pbrMetallicRoughness":{"baseColorTexture":{"index":3},"baseColorFactor":[1,1,1,1],"metallicFactor":0,"roughnessFactor":0.903921569},"emissiveFactor":[0,0,0],"alphaMode":"BLEND","doubleSided":true},{"name":"mat_4","pbrMetallicRoughness":{"baseColorTexture":{"index":4},"baseColorFactor":[1,1,1,1],"metallicFactor":0,"roughnessFactor":0.903921569},"emissiveFactor":[0,0,0],"alphaMode":"BLEND","doubleSided":true},{"name":"mat_5","pbrMetallicRoughness":{"baseColorTexture":{"index":5},"baseColorFactor":[1,1,1,1],"metallicFactor":0,"roughnessFactor":0.903921569},"emissiveFactor":[0,0,0],"alphaMode":"BLEND","doubleSided":true},{"name":"mat_6","pbrMetallicRoughness":{"baseColorTexture":{"index":6},"baseColorFactor":[1,1,1,1],"metallicFactor":0,"roughnessFactor":0.903921569},"emissiveFactor":[0,0,0],"alphaMode":"BLEND","doubleSided":true}],"meshes":[{"name":"airmd-Mesh","primitives":[{"attributes":{"POSITION":0,"TEXCOORD_0":1},"indices":2,"material":0,"mode":4},{"attributes":{"POSITION":3,"TEXCOORD_0":4},"indices":5,"material":1,"mode":4},{"attributes":{"POSITION":6,"TEXCOORD_0":7},"indices":8,"material":2,"mode":4},{"attributes":{"POSITION":9,"TEXCOORD_0":10},"indices":11,"material":3,"mode":4},{"attributes":{"POSITION":12,"TEXCOORD_0":13},"indices":14,"material":4,"mode":4},{"attributes":{"POSITION":15,"TEXCOORD_0":16},"indices":17,"material":5,"mode":4},{"attributes":{"POSITION":18,"TEXCOORD_0":19},"indices":20,"material":6,"mode":4}]}],"nodes":[{"name":"airmd","mesh":0}],"samplers":[{"wrapS":10497,"wrapT":10497}],"scene":0,"scenes":[{"nodes":[0]}],"textures":[{"name":"airmd_1_0","sampler":0,"source":0},{"name":"airmd_1_2","sampler":0,"source":1},{"name":"airmd_1_4","sampler":0,"source":2},{"name":"airmd_1_5","sampler":0,"source":3},{"name":"airmd_1_6","sampler":0,"source":4},{"name":"airmd_1_7","sampler":0,"source":5},{"name":"airmd_1_8","sampler":0,"source":6}]}