{"accessors":[{"name":"delvil-Mesh_0_positions","componentType":5126,"count":388,"min":[-1.245129942893982,-2.467550039291382,-6.1699299812316895],"max":[1.245129942893982,3.102679967880249,-0.008036999963223934],"type":"VEC3","bufferView":0,"byteOffset":0},{"name":"delvil-Mesh_0_texcoords","componentType":5126,"count":388,"min":[0,0],"max":[1,1],"type":"VEC2","bufferView":1,"byteOffset":0},{"name":"delvil-Mesh_0_indices","componentType":5123,"count":1347,"min":[0],"max":[387],"type":"SCALAR","bufferView":2,"byteOffset":0},{"name":"delvil-Mesh_1_positions","componentType":5126,"count":72,"min":[-0.7285709977149963,-1.2574100494384766,-4.935800075531006],"max":[0.7227950096130371,3.557420015335083,-2.0572400093078613],"type":"VEC3","bufferView":0,"byteOffset":4656},{"name":"delvil-Mesh_1_texcoords","componentType":5126,"count":72,"min":[0,0],"max":[1,1],"type":"VEC2","bufferView":1,"byteOffset":3104},{"name":"delvil-Mesh_1_indices","componentType":5123,"count":243,"min":[0],"max":[71],"type":"SCALAR","bufferView":2,"byteOffset":2696},{"name":"delvil-Mesh_2_positions","componentType":5126,"count":112,"min":[-1.1169099807739258,-2.3026299476623535,-5.806759834289551],"max":[1.1169099807739258,3.2556800842285156,-0.38485801219940186],"type":"VEC3","bufferView":0,"byteOffset":5520},{"name":"delvil-Mesh_2_texcoords","componentType":5126,"count":112,"min":[0,0],"max":[1,1.0078129768371582],"type":"VEC2","bufferView":1,"byteOffset":3680},{"name":"delvil-Mesh_2_indices","componentType":5123,"count":369,"min":[0],"max":[111],"type":"SCALAR","bufferView":2,"byteOffset":3184},{"name":"delvil-Mesh_3_positions","componentType":5126,"count":16,"min":[-1.1224700212478638,-1.9398599863052368,0.002050000010058284],"max":[1.1424599885940552,1.7089899778366089,0.012671000324189663],"type":"VEC3","bufferView":0,"byteOffset":6864},{"name":"delvil-Mesh_3_texcoords","componentType":5126,"count":16,"min":[-0.359375,-0.43358999490737915],"max":[1.4531300067901611,1.371093988418579],"type":"VEC2","bufferView":1,"byteOffset":4576},{"name":"delvil-Mesh_3_indices","componentType":5123,"count":24,"min":[0],"max":[15],"type":"SCALAR","bufferView":2,"byteOffset":3924},{"name":"delvil-Mesh_4_positions","componentType":5126,"count":6,"min":[-1.2570199966430664,1.5430500507354736,-6.156089782714844],"max":[1.21628999710083,2.311919927597046,-5.176080226898193],"type":"VEC3","bufferView":0,"byteOffset":7056},{"name":"delvil-Mesh_4_texcoords","componentType":5126,"count":6,"min":[-0.0062500000931322575,-0.08438000082969666],"max":[1.271880030632019,1.009374976158142],"type":"VEC2","bufferView":1,"byteOffset":4704},{"name":"delvil-Mesh_4_indices","componentType":5123,"count":6,"min":[0],"max":[5],"type":"SCALAR","bufferView":2,"byteOffset":3972},{"name":"delvil-Mesh_5_positions","componentType":5126,"count":23,"min":[-0.5122089982032776,2.6250100135803223,-4.443019866943359],"max":[0.5074170231819153,3.4706199169158936,-4.256279945373535],"type":"VEC3","bufferView":0,"byteOffset":7128},{"name":"delvil-Mesh_5_texcoords","componentType":5126,"count":23,"min":[-0.09272799640893936,-0.23749999701976776],"max":[1.1277199983596802,1],"type":"VEC2","bufferView":1,"byteOffset":4752},{"name":"delvil-Mesh_5_indices","componentType":5123,"count":60,"min":[0],"max":[22],"type":"SCALAR","bufferView":2,"byteOffset":3984},{"name":"delvil-Mesh_6_positions","componentType":5126,"count":7,"min":[-0.25271400809288025,3.4402999877929688,-4.76347017288208],"max":[0.2363390028476715,3.6524100303649902,-4.442999839782715],"type":"VEC3","bufferView":0,"byteOffset":7404},{"name":"delvil-Mesh_6_texcoords","componentType":5126,"count":7,"min":[-0.010417000390589237,-0.020829999819397926],"max":[1.1145800352096558,1.2135419845581055],"type":"VEC2","bufferView":1,"byteOffset":4936},{"name":"delvil-Mesh_6_indices","componentType":5123,"count":15,"min":[0],"max":[6],"type":"SCALAR","bufferView":2,"byteOffset":4104},{"name":"delvil-Mesh_7_positions","componentType":5126,"count":10,"min":[-0.5175039768218994,2.5378499031066895,-5.256750106811523],"max":[0.5051720142364502,3.1219699382781982,-4.828090190887451],"type":"VEC3","bufferView":0,"byteOffset":7488},{"name":"delvil-Mesh_7_texcoords","componentType":5126,"count":10,"min":[0.02745700068771839,0.0005210000090301037],"max":[1.3115400075912476,0.20951099693775177],"type":"VEC2","bufferView":1,"byteOffset":4992},{"name":"delvil-Mesh_7_indices","componentType":5123,"count":18,"min":[0],"max":[9],"type":"SCALAR","bufferView":2,"byteOffset":4136},{"name":"delvil-Mesh_8_positions","componentType":5126,"count":10,"min":[-0.5859289765357971,2.435879945755005,-5.703909873962402],"max":[0.5689989924430847,3.114729881286621,-5.255760192871094],"type":"VEC3","bufferView":0,"byteOffset":7608},{"name":"delvil-Mesh_8_texcoords","componentType":5126,"count":10,"min":[-0.29861098527908325,-0.29861000180244446],"max":[1.1687500476837158,1.2312500476837158],"type":"VEC2","bufferView":1,"byteOffset":5072},{"name":"delvil-Mesh_8_indices","componentType":5123,"count":18,"min":[0],"max":[9],"type":"SCALAR","bufferView":2,"byteOffset":4172}],"asset":{"generator":"obj2gltf","version":"2.0"},"buffers":[{"name":"BR_Houndour-Shiny01","byteLength":80804,"uri":"data:application/octet-stream;base64,"}],"bufferViews":[{"name":"bufferView_0","buffer":0,"byteLength":7728,"byteOffset":0,"byteStride":12,"target":34962},{"name":"bufferView_1","buffer":0,"byteLength":5152,"byteOffset":7728,"byteStride":8,"target":34962},{"name":"bufferView_2","buffer":0,"byteLength":4208,"byteOffset":12880,"target":34963},{"buffer":0,"byteOffset":17088,"byteLength":1042},{"buffer":0,"byteOffset":18130,"byteLength":82},{"buffer":0,"byteOffset":18212,"byteLength":1042},{"buffer":0,"byteOffset":19254,"byteLength":4114},{"buffer":0,"byteOffset":23368,"byteLength":4114},{"buffer":0,"byteOffset":27482,"byteLength":4114},{"buffer":0,"byteOffset":31596,"byteLength":4114},{"buffer":0,"byteOffset":35710,"byteLength":40978},{"buffer":0,"byteOffset":76688,"byteLength":4114}],"images":[{"name":"delvil_1_0","mimeType":"image/x-tga","bufferView":3},{"name":"delvil_1_1","mimeType":"image/x-tga","bufferView":4},{"name":"delvil_1_2","mimeType":"image/x-tga","bufferView":5},{"name":"delvil_1_3","mimeType":"image/x-tga","bufferView":6},{"name":"delvil_1_4","mimeType":"image/x-tga","bufferView":7},{"name":"delvil_1_5","mimeType":"image/x-tga","bufferView":8},{"name":"delvil_1_6","mimeType":"image/x-tga","bufferView":9},{"name":"delvil_1_7","mimeType":"image/x-tga","bufferView":10},{"name":"delvil_1_8","mimeType":"image/x-tga","bufferView":11}],"materials":[{"name":"mat_0","pbrMetallicRoughness":{"baseColorTexture":{"index":0},"baseColorFactor":[1,1,1,1],"metallicFactor":0,"roughnessFactor":0.903921569},"emissiveFactor":[0,0,0],"alphaMode":"BLEND","doubleSided":true},{"name":"mat_1","pbrMetallicRoughness":{"baseColorTexture":{"index":1},"baseColorFactor":[1,1,1,1],"metallicFactor":0,"roughnessFactor":0.903921569},"emissiveFactor":[0,0,0],"alphaMode":"BLEND","doubleSided":true},{"name":"mat_2","pbrMetallicRoughness":{"baseColorTexture":{"index":2},"baseColorFactor":[1,1,1,1],"metallicFactor":0,"roughnessFactor":0.903921569},"emissiveFactor":[0,0,0],"alphaMode":"BLEND","doubleSided":true},{"name":"mat_3","pbrMetallicRoughness":{"baseColorTexture":{"index":3},"baseColorFactor":[1,1,1,1],"metallicFactor":0,"roughnessFactor":0.903921569},"emissiveFactor":[0,0,0],"alphaMode":"BLEND","doubleSided":true},{"name":"mat_4","pbrMetallicRoughness":{"baseColorTexture":{"index":4},"baseColorFactor":[1,1,1,1],"metallicFactor":0,"roughnessFactor":0.903921569},"emissiveFactor":[0,0,0],"alphaMode":"BLEND","doubleSided":true},{"name":"mat_5","pbrMetallicRoughness":{"baseColorTexture":{"index":5},"baseColorFactor":[1,1,1,1],"metallicFactor":0,"roughnessFactor":0.903921569},"emissiveFactor":[0,0,0],"alphaMode":"BLEND","doubleSided":true},{"name":"mat_6","pbrMetallicRoughness":{"baseColorTexture":{"index":6},"baseColorFactor":[1,1,1,1],"metallicFactor":0,"roughnessFactor":0.903921569},"emissiveFactor":[0,0,0],"alphaMode":"BLEND","doubleSided":true},{"name":"mat_7","pbrMetallicRoughness":{"baseColorTexture":{"index":7},"baseColorFactor":[1,1,1,1],"metallicFactor":0,"roughnessFactor":0.903921569},"emissiveFactor":[0,0,0],"alphaMode":"BLEND","doubleSided":true},{"name":"mat_8","pbrMetallicRoughness":{"baseColorTexture":{"index":8},"baseColorFactor":[1,1,1,1],"metallicFactor":0,"roughnessFactor":0.903921569},"emissiveFactor":[0,0,0],"alphaMode":"BLEND","doubleSided":true}],"meshes":[{"name":"delvil-Mesh","primitives":[{"attributes":{"POSITION":0,"TEXCOORD_0":1},"indices":2,"material":0,"mode":4},{"attributes":{"POSITION":3,"TEXCOORD_0":4},"indices":5,"material":1,"mode":4},{"attributes":{"POSITION":6,"TEXCOORD_0":7},"indices":8,"material":2,"mode":4},{"attributes":{"POSITION":9,"TEXCOORD_0":10},"indices":11,"material":3,"mode":4},{"attributes":{"POSITION":12,"TEXCOORD_0":13},"indices":14,"material":4,"mode":4},{"attributes":{"POSITION":15,"TEXCOORD_0":16},"indices":17,"material":5,"mode":4},{"attributes":{"POSITION":18,"TEXCOORD_0":19},"indices":20,"material":6,"mode":4},{"attributes":{"POSITION":21,"TEXCOORD_0":22},"indices":23,"material":7,"mode":4},{"attributes":{"POSITION":24,"TEXCOORD_0":25},"indices":26,"material":8,"mode":4}]}],"nodes":[{"name":"delvil","mesh":0}],"samplers":[{"wrapS":10497,"wrapT":10497}],"scene":0,"scenes":[{"nodes":[0]}],"textures":[{"name":"delvil_1_0","sampler":0,"source":0},{"name":"delvil_1_1","sampler":0,"source":1},{"name":"delvil_1_2","sampler":0,"source":2},{"name":"delvil_1_3","sampler":0,"source":3},{"name":"delvil_1_4","sampler":0,"source":4},{"name":"delvil_1_5","sampler":0,"source":5},{"name":"delvil_1_6","sampler":0,"source":6},{"name":"delvil_1_7","sampler":0,"source":7},{"name":"delvil_1_8","sampler":0,"source":8}]}