{"accessors":[{"name":"hellgar_c-Mesh_0_positions","componentType":5126,"count":314,"min":[-2.442960023880005,-12.45699405670166,-12.613900184631348],"max":[2.442960023880005,5.5606369972229,0.004499000031501055],"type":"VEC3","bufferView":0,"byteOffset":0},{"name":"hellgar_c-Mesh_0_texcoords","componentType":5126,"count":314,"min":[0,0],"max":[1,1],"type":"VEC2","bufferView":1,"byteOffset":0},{"name":"hellgar_c-Mesh_0_indices","componentType":5123,"count":1137,"min":[0],"max":[313],"type":"SCALAR","bufferView":2,"byteOffset":0},{"name":"hellgar_c-Mesh_1_positions","componentType":5126,"count":57,"min":[-1.0297900438308716,-3.6916940212249756,-11.722900390625],"max":[1.0297900438308716,6.33700704574585,-4.9029998779296875],"type":"VEC3","bufferView":0,"byteOffset":3768},{"name":"hellgar_c-Mesh_1_texcoords","componentType":5126,"count":57,"min":[0,0],"max":[1,0.8612139821052551],"type":"VEC2","bufferView":1,"byteOffset":2512},{"name":"hellgar_c-Mesh_1_indices","componentType":5123,"count":174,"min":[0],"max":[56],"type":"SCALAR","bufferView":2,"byteOffset":2276},{"name":"hellgar_c-Mesh_2_positions","componentType":5126,"count":17,"min":[-0.677586019039154,4.635626792907715,-10.570500373840332],"max":[0.677524983882904,5.958106994628906,-10.195799827575684],"type":"VEC3","bufferView":0,"byteOffset":4452},{"name":"hellgar_c-Mesh_2_texcoords","componentType":5126,"count":17,"min":[-0.09151799976825714,-0.07186999917030334],"max":[1.0959800481796265,1.0104169845581055],"type":"VEC2","bufferView":1,"byteOffset":2968},{"name":"hellgar_c-Mesh_2_indices","componentType":5123,"count":36,"min":[0],"max":[16],"type":"SCALAR","bufferView":2,"byteOffset":2624},{"name":"hellgar_c-Mesh_3_positions","componentType":5126,"count":5,"min":[-0.30782198905944824,6.159397125244141,-10.779399871826172],"max":[0.3076789975166321,6.405127048492432,-10.270600318908691],"type":"VEC3","bufferView":0,"byteOffset":4656},{"name":"hellgar_c-Mesh_3_texcoords","componentType":5126,"count":5,"min":[0.054687999188899994,0],"max":[0.984375,1.3984379768371582],"type":"VEC2","bufferView":1,"byteOffset":3104},{"name":"hellgar_c-Mesh_3_indices","componentType":5123,"count":12,"min":[0],"max":[4],"type":"SCALAR","bufferView":2,"byteOffset":2696},{"name":"hellgar_c-Mesh_4_positions","componentType":5126,"count":202,"min":[-2.2964699268341064,-4.754374027252197,-13.993300437927246],"max":[2.2964699268341064,5.7972869873046875,-0.0025369999930262566],"type":"VEC3","bufferView":0,"byteOffset":4716},{"name":"hellgar_c-Mesh_4_texcoords","componentType":5126,"count":202,"min":[0,0],"max":[1,1],"type":"VEC2","bufferView":1,"byteOffset":3144},{"name":"hellgar_c-Mesh_4_indices","componentType":5123,"count":636,"min":[0],"max":[201],"type":"SCALAR","bufferView":2,"byteOffset":2720},{"name":"hellgar_c-Mesh_5_positions","componentType":5126,"count":8,"min":[-0.7496579885482788,4.621487140655518,-11.974599838256836],"max":[0.7496169805526733,5.572495937347412,-11.048199653625488],"type":"VEC3","bufferView":0,"byteOffset":7140},{"name":"hellgar_c-Mesh_5_texcoords","componentType":5126,"count":8,"min":[-0.11458300054073334,-0.05728999897837639],"max":[1.152340054512024,0.38749998807907104],"type":"VEC2","bufferView":1,"byteOffset":4760},{"name":"hellgar_c-Mesh_5_indices","componentType":5123,"count":12,"min":[0],"max":[7],"type":"SCALAR","bufferView":2,"byteOffset":3992},{"name":"hellgar_c-Mesh_6_positions","componentType":5126,"count":6,"min":[-0.48966100811958313,3.501676082611084,-7.901000022888184],"max":[0.49555501341819763,3.840536117553711,-6.780029773712158],"type":"VEC3","bufferView":0,"byteOffset":7236},{"name":"hellgar_c-Mesh_6_texcoords","componentType":5126,"count":6,"min":[-0.28645798563957214,-0.1510400027036667],"max":[1.087499976158142,1.6124999523162842],"type":"VEC2","bufferView":1,"byteOffset":4824},{"name":"hellgar_c-Mesh_6_indices","componentType":5123,"count":12,"min":[0],"max":[5],"type":"SCALAR","bufferView":2,"byteOffset":4016},{"name":"hellgar_c-Mesh_7_positions","componentType":5126,"count":12,"min":[-2.3515501022338867,-4.347672939300537,-0.034954000264406204],"max":[2.3515501022338867,3.0674359798431396,0.042219001799821854],"type":"VEC3","bufferView":0,"byteOffset":7308},{"name":"hellgar_c-Mesh_7_texcoords","componentType":5126,"count":12,"min":[-0.6187499761581421,-0.8203099966049194],"max":[1.5750000476837158,1.390625],"type":"VEC2","bufferView":1,"byteOffset":4872},{"name":"hellgar_c-Mesh_7_indices","componentType":5123,"count":12,"min":[0],"max":[11],"type":"SCALAR","bufferView":2,"byteOffset":4040},{"name":"hellgar_c-Mesh_8_positions","componentType":5126,"count":40,"min":[-2.206969976425171,-4.7791829109191895,-2.286710023880005],"max":[2.190190076828003,2.4311459064483643,-1.1314799785614014],"type":"VEC3","bufferView":0,"byteOffset":7452},{"name":"hellgar_c-Mesh_8_texcoords","componentType":5126,"count":40,"min":[0,-1.1666699647903442],"max":[1,2.166670083999634],"type":"VEC2","bufferView":1,"byteOffset":4968},{"name":"hellgar_c-Mesh_8_indices","componentType":5123,"count":120,"min":[0],"max":[39],"type":"SCALAR","bufferView":2,"byteOffset":4064}],"asset":{"generator":"obj2gltf","version":"2.0"},"buffers":[{"name":"BR_Houndoom-Shiny01","byteLength":77656,"uri":"data:application/octet-stream;base64,"}],"bufferViews":[{"name":"bufferView_0","buffer":0,"byteLength":7932,"byteOffset":0,"byteStride":12,"target":34962},{"name":"bufferView_1","buffer":0,"byteLength":5288,"byteOffset":7932,"byteStride":8,"target":34962},{"name":"bufferView_2","buffer":0,"byteLength":4304,"byteOffset":13220,"target":34963},{"buffer":0,"byteOffset":17524,"byteLength":1042},{"buffer":0,"byteOffset":18566,"byteLength":82},{"buffer":0,"byteOffset":18648,"byteLength":4114},{"buffer":0,"byteOffset":22762,"byteLength":4114},{"buffer":0,"byteOffset":26876,"byteLength":1042},{"buffer":0,"byteOffset":27918,"byteLength":40978},{"buffer":0,"byteOffset":68896,"byteLength":4114},{"buffer":0,"byteOffset":73010,"byteLength":4114},{"buffer":0,"byteOffset":77124,"byteLength":530}],"images":[{"name":"hellgar_c_1_0","mimeType":"image/x-tga","bufferView":3},{"name":"hellgar_c_1_1","mimeType":"image/x-tga","bufferView":4},{"name":"hellgar_c_1_2","mimeType":"image/x-tga","bufferView":5},{"name":"hellgar_c_1_3","mimeType":"image/x-tga","bufferView":6},{"name":"hellgar_c_1_4","mimeType":"image/x-tga","bufferView":7},{"name":"hellgar_c_1_5","mimeType":"image/x-tga","bufferView":8},{"name":"hellgar_c_1_6","mimeType":"image/x-tga","bufferView":9},{"name":"hellgar_c_1_7","mimeType":"image/x-tga","bufferView":10},{"name":"hellgar_c_1_8","mimeType":"image/x-tga","bufferView":11}],"materials":[{"name":"mat_0","pbrMetallicRoughness":{"baseColorTexture":{"index":0},"baseColorFactor":[1,1,1,1],"metallicFactor":0,"roughnessFactor":0.903921569},"emissiveFactor":[0,0,0],"alphaMode":"BLEND","doubleSided":true},{"name":"mat_1","pbrMetallicRoughness":{"baseColorTexture":{"index":1},"baseColorFactor":[1,1,1,1],"metallicFactor":0,"roughnessFactor":0.903921569},"emissiveFactor":[0,0,0],"alphaMode":"BLEND","doubleSided":true},{"name":"mat_2","pbrMetallicRoughness":{"baseColorTexture":{"index":2},"baseColorFactor":[1,1,1,1],"metallicFactor":0,"roughnessFactor":0.903921569},"emissiveFactor":[0,0,0],"alphaMode":"BLEND","doubleSided":true},{"name":"mat_3","pbrMetallicRoughness":{"baseColorTexture":{"index":3},"baseColorFactor":[1,1,1,1],"metallicFactor":0,"roughnessFactor":0.903921569},"emissiveFactor":[0,0,0],"alphaMode":"BLEND","doubleSided":true},{"name":"mat_4","pbrMetallicRoughness":{"baseColorTexture":{"index":4},"baseColorFactor":[1,1,1,1],"metallicFactor":0,"roughnessFactor":0.903921569},"emissiveFactor":[0,0,0],"alphaMode":"BLEND","doubleSided":true},{"name":"mat_5","pbrMetallicRoughness":{"baseColorTexture":{"index":5},"baseColorFactor":[1,1,1,1],"metallicFactor":0,"roughnessFactor":0.903921569},"emissiveFactor":[0,0,0],"alphaMode":"BLEND","doubleSided":true},{"name":"mat_6","pbrMetallicRoughness":{"baseColorTexture":{"index":6},"baseColorFactor":[1,1,1,1],"metallicFactor":0,"roughnessFactor":0.903921569},"emissiveFactor":[0,0,0],"alphaMode":"BLEND","doubleSided":true},{"name":"mat_7","pbrMetallicRoughness":{"baseColorTexture":{"index":7},"baseColorFactor":[1,1,1,1],"metallicFactor":0,"roughnessFactor":0.903921569},"emissiveFactor":[0,0,0],"alphaMode":"BLEND","doubleSided":true},{"name":"mat_8","pbrMetallicRoughness":{"baseColorTexture":{"index":8},"baseColorFactor":[1,1,1,1],"metallicFactor":0,"roughnessFactor":0.903921569},"emissiveFactor":[0,0,0],"alphaMode":"BLEND","doubleSided":true}],"meshes":[{"name":"hellgar_c-Mesh","primitives":[{"attributes":{"POSITION":0,"TEXCOORD_0":1},"indices":2,"material":0,"mode":4},{"attributes":{"POSITION":3,"TEXCOORD_0":4},"indices":5,"material":1,"mode":4},{"attributes":{"POSITION":6,"TEXCOORD_0":7},"indices":8,"material":2,"mode":4},{"attributes":{"POSITION":9,"TEXCOORD_0":10},"indices":11,"material":3,"mode":4},{"attributes":{"POSITION":12,"TEXCOORD_0":13},"indices":14,"material":4,"mode":4},{"attributes":{"POSITION":15,"TEXCOORD_0":16},"indices":17,"material":5,"mode":4},{"attributes":{"POSITION":18,"TEXCOORD_0":19},"indices":20,"material":6,"mode":4},{"attributes":{"POSITION":21,"TEXCOORD_0":22},"indices":23,"material":7,"mode":4},{"attributes":{"POSITION":24,"TEXCOORD_0":25},"indices":26,"material":8,"mode":4}]}],"nodes":[{"name":"hellgar_c","mesh":0}],"samplers":[{"wrapS":10497,"wrapT":10497}],"scene":0,"scenes":[{"nodes":[0]}],"textures":[{"name":"hellgar_c_1_0","sampler":0,"source":0},{"name":"hellgar_c_1_1","sampler":0,"source":1},{"name":"hellgar_c_1_2","sampler":0,"source":2},{"name":"hellgar_c_1_3","sampler":0,"source":3},{"name":"hellgar_c_1_4","sampler":0,"source":4},{"name":"hellgar_c_1_5","sampler":0,"source":5},{"name":"hellgar_c_1_6","sampler":0,"source":6},{"name":"hellgar_c_1_7","sampler":0,"source":7},{"name":"hellgar_c_1_8","sampler":0,"source":8}]}