{"accessors":[{"name":"kingdra-Mesh_0_positions","componentType":5126,"count":178,"min":[-3.5243799686431885,-5.910789966583252,-21.645599365234375],"max":[3.510390043258667,2.9229800701141357,-11.28030014038086],"type":"VEC3","bufferView":0,"byteOffset":0},{"name":"kingdra-Mesh_0_texcoords","componentType":5126,"count":178,"min":[-1.2823699712753296,0],"max":[0.9789490103721619,1.0461560487747192],"type":"VEC2","bufferView":1,"byteOffset":0},{"name":"kingdra-Mesh_0_indices","componentType":5123,"count":816,"min":[0],"max":[177],"type":"SCALAR","bufferView":2,"byteOffset":0},{"name":"kingdra-Mesh_1_positions","componentType":5126,"count":18,"min":[-0.20659400522708893,-4.037129878997803,-14.579299926757812],"max":[1.668529987335205,-1.1865899562835693,-11.448800086975098],"type":"VEC3","bufferView":0,"byteOffset":2136},{"name":"kingdra-Mesh_1_texcoords","componentType":5126,"count":18,"min":[0,0.046875],"max":[1,0.953125],"type":"VEC2","bufferView":1,"byteOffset":1424},{"name":"kingdra-Mesh_1_indices","componentType":5123,"count":42,"min":[0],"max":[17],"type":"SCALAR","bufferView":2,"byteOffset":1632},{"name":"kingdra-Mesh_2_positions","componentType":5126,"count":8,"min":[1.3703099489212036,-4.386340141296387,-14.604399681091309],"max":[1.8719700574874878,-3.05718994140625,-12.336600303649902],"type":"VEC3","bufferView":0,"byteOffset":2352},{"name":"kingdra-Mesh_2_texcoords","componentType":5126,"count":8,"min":[0,0],"max":[1,1],"type":"VEC2","bufferView":1,"byteOffset":1568},{"name":"kingdra-Mesh_2_indices","componentType":5123,"count":12,"min":[0],"max":[7],"type":"SCALAR","bufferView":2,"byteOffset":1716},{"name":"kingdra-Mesh_3_positions","componentType":5126,"count":10,"min":[-3.458620071411133,-0.8394190073013306,-15.595999717712402],"max":[3.4580600261688232,2.3545100688934326,-14.342100143432617],"type":"VEC3","bufferView":0,"byteOffset":2448},{"name":"kingdra-Mesh_3_texcoords","componentType":5126,"count":10,"min":[-0.45833298563957214,0.0034719998948276043],"max":[1.3125,1.0347219705581665],"type":"VEC2","bufferView":1,"byteOffset":1632},{"name":"kingdra-Mesh_3_indices","componentType":5123,"count":18,"min":[0],"max":[9],"type":"SCALAR","bufferView":2,"byteOffset":1740},{"name":"kingdra-Mesh_4_positions","componentType":5126,"count":9,"min":[-1.5997799634933472,-1.9670000076293945,-8.950770378112793],"max":[1.4951200485229492,0.6778600215911865,-7.829390048980713],"type":"VEC3","bufferView":0,"byteOffset":2568},{"name":"kingdra-Mesh_4_texcoords","componentType":5126,"count":9,"min":[0,0],"max":[0.96875,1],"type":"VEC2","bufferView":1,"byteOffset":1712},{"name":"kingdra-Mesh_4_indices","componentType":5123,"count":24,"min":[0],"max":[8],"type":"SCALAR","bufferView":2,"byteOffset":1776},{"name":"kingdra-Mesh_5_positions","componentType":5126,"count":36,"min":[-1.8717600107192993,-4.258880138397217,-11.0600004196167],"max":[1.8717600107192993,-0.062417998909950256,-7.295080184936523],"type":"VEC3","bufferView":0,"byteOffset":2676},{"name":"kingdra-Mesh_5_texcoords","componentType":5126,"count":36,"min":[0.046875,0.0078119998797774315],"max":[1.0022300481796265,1.051339030265808],"type":"VEC2","bufferView":1,"byteOffset":1784},{"name":"kingdra-Mesh_5_indices","componentType":5123,"count":150,"min":[0],"max":[35],"type":"SCALAR","bufferView":2,"byteOffset":1824},{"name":"kingdra-Mesh_6_positions","componentType":5126,"count":34,"min":[-2.201240062713623,-2.149470090866089,-13.661800384521484],"max":[2.201240062713623,1.7466000318527222,-8.950770378112793],"type":"VEC3","bufferView":0,"byteOffset":3108},{"name":"kingdra-Mesh_6_texcoords","componentType":5126,"count":34,"min":[0.015625,-0.13707000017166138],"max":[1,0.9921870231628418],"type":"VEC2","bufferView":1,"byteOffset":2072},{"name":"kingdra-Mesh_6_indices","componentType":5123,"count":138,"min":[0],"max":[33],"type":"SCALAR","bufferView":2,"byteOffset":2124},{"name":"kingdra-Mesh_7_positions","componentType":5126,"count":24,"min":[-1.6383899450302124,-0.062417998909950256,-13.175299644470215],"max":[1.6383899450302124,2.1978600025177,-8.526840209960938],"type":"VEC3","bufferView":0,"byteOffset":3516},{"name":"kingdra-Mesh_7_texcoords","componentType":5126,"count":24,"min":[0,-0.12726999819278717],"max":[1,1],"type":"VEC2","bufferView":1,"byteOffset":2344},{"name":"kingdra-Mesh_7_indices","componentType":5123,"count":96,"min":[0],"max":[23],"type":"SCALAR","bufferView":2,"byteOffset":2400},{"name":"kingdra-Mesh_8_positions","componentType":5126,"count":104,"min":[-2.0861499309539795,-4.851200103759766,-18.10070037841797],"max":[2.0861599445343018,7.973410129547119,-6.694590091705322],"type":"VEC3","bufferView":0,"byteOffset":3804},{"name":"kingdra-Mesh_8_texcoords","componentType":5126,"count":104,"min":[0.4273880124092102,0.1235480010509491],"max":[0.8749859929084778,0.5916990041732788],"type":"VEC2","bufferView":1,"byteOffset":2536},{"name":"kingdra-Mesh_8_indices","componentType":5123,"count":420,"min":[0],"max":[103],"type":"SCALAR","bufferView":2,"byteOffset":2592},{"name":"kingdra-Mesh_9_positions","componentType":5126,"count":14,"min":[-1.613569974899292,1.702739953994751,-17.696500778198242],"max":[1.613569974899292,4.327569961547852,-16.056699752807617],"type":"VEC3","bufferView":0,"byteOffset":5052},{"name":"kingdra-Mesh_9_texcoords","componentType":5126,"count":14,"min":[-0.08035700023174286,-0.044270001351833344],"max":[1.0156300067901611,0.11631900072097778],"type":"VEC2","bufferView":1,"byteOffset":3368},{"name":"kingdra-Mesh_9_indices","componentType":5123,"count":36,"min":[0],"max":[13],"type":"SCALAR","bufferView":2,"byteOffset":3432},{"name":"kingdra-Mesh_10_positions","componentType":5126,"count":14,"min":[-1.7802900075912476,0.5277979969978333,-18.00309944152832],"max":[1.7802900075912476,1.8797999620437622,-15.429200172424316],"type":"VEC3","bufferView":0,"byteOffset":5220},{"name":"kingdra-Mesh_10_texcoords","componentType":5126,"count":14,"min":[-0.007813000120222569,-0.625],"max":[1,1],"type":"VEC2","bufferView":1,"byteOffset":3480},{"name":"kingdra-Mesh_10_indices","componentType":5123,"count":36,"min":[0],"max":[13],"type":"SCALAR","bufferView":2,"byteOffset":3504},{"name":"kingdra-Mesh_11_positions","componentType":5126,"count":24,"min":[-1.63332998752594,0.2505129873752594,-17.485700607299805],"max":[1.63332998752594,4.219890117645264,-14.385299682617188],"type":"VEC3","bufferView":0,"byteOffset":5388},{"name":"kingdra-Mesh_11_texcoords","componentType":5126,"count":24,"min":[0,-0.02370999939739704],"max":[1,2.554689884185791],"type":"VEC2","bufferView":1,"byteOffset":3592},{"name":"kingdra-Mesh_11_indices","componentType":5123,"count":69,"min":[0],"max":[23],"type":"SCALAR","bufferView":2,"byteOffset":3576},{"name":"kingdra-Mesh_12_positions","componentType":5126,"count":5,"min":[-0.38132598996162415,7.607729911804199,-15.027899742126465],"max":[0.38132598996162415,7.973410129547119,-14.40149974822998],"type":"VEC3","bufferView":0,"byteOffset":5676},{"name":"kingdra-Mesh_12_texcoords","componentType":5126,"count":5,"min":[-0.17431600391864777,-0.0723700001835823],"max":[1.174340009689331,1.0651040077209473],"type":"VEC2","bufferView":1,"byteOffset":3784},{"name":"kingdra-Mesh_12_indices","componentType":5123,"count":9,"min":[0],"max":[4],"type":"SCALAR","bufferView":2,"byteOffset":3716},{"name":"kingdra-Mesh_13_positions","componentType":5126,"count":44,"min":[-0.7341200113296509,-4.851200103759766,-7.156509876251221],"max":[0.7341189980506897,-1.5753999948501587,-4.674300193786621],"type":"VEC3","bufferView":0,"byteOffset":5736},{"name":"kingdra-Mesh_13_texcoords","componentType":5126,"count":44,"min":[-0.2553749978542328,-0.14598999917507172],"max":[1.6497999429702759,1.3321750164031982],"type":"VEC2","bufferView":1,"byteOffset":3824},{"name":"kingdra-Mesh_13_indices","componentType":5123,"count":228,"min":[0],"max":[43],"type":"SCALAR","bufferView":2,"byteOffset":3736}],"asset":{"generator":"obj2gltf","version":"2.0"},"buffers":[{"name":"BR_Kingdra-Shiny01","byteLength":118948,"uri":"data:application/octet-stream;base64,"}],"bufferViews":[{"name":"bufferView_0","buffer":0,"byteLength":6264,"byteOffset":0,"byteStride":12,"target":34962},{"name":"bufferView_1","buffer":0,"byteLength":4176,"byteOffset":6264,"byteStride":8,"target":34962},{"name":"bufferView_2","buffer":0,"byteLength":4192,"byteOffset":10440,"target":34963},{"buffer":0,"byteOffset":14632,"byteLength":82},{"buffer":0,"byteOffset":14714,"byteLength":4114},{"buffer":0,"byteOffset":18828,"byteLength":4114},{"buffer":0,"byteOffset":22942,"byteLength":2066},{"buffer":0,"byteOffset":25008,"byteLength":2066},{"buffer":0,"byteOffset":27074,"byteLength":8210},{"buffer":0,"byteOffset":35284,"byteLength":8210},{"buffer":0,"byteOffset":43494,"byteLength":4114},{"buffer":0,"byteOffset":47608,"byteLength":82},{"buffer":0,"byteOffset":47690,"byteLength":65554},{"buffer":0,"byteOffset":113244,"byteLength":274},{"buffer":0,"byteOffset":113518,"byteLength":274},{"buffer":0,"byteOffset":113792,"byteLength":1042},{"buffer":0,"byteOffset":114834,"byteLength":4114}],"images":[{"name":"kingdra_1_0","mimeType":"image/x-tga","bufferView":3},{"name":"kingdra_1_1","mimeType":"image/x-tga","bufferView":4},{"name":"kingdra_1_2","mimeType":"image/x-tga","bufferView":5},{"name":"kingdra_1_3","mimeType":"image/x-tga","bufferView":6},{"name":"kingdra_1_4","mimeType":"image/x-tga","bufferView":7},{"name":"kingdra_1_5","mimeType":"image/x-tga","bufferView":8},{"name":"kingdra_1_6","mimeType":"image/x-tga","bufferView":9},{"name":"kingdra_1_7","mimeType":"image/x-tga","bufferView":10},{"name":"kingdra_1_8","mimeType":"image/x-tga","bufferView":11},{"name":"kingdra_1_9","mimeType":"image/x-tga","bufferView":12},{"name":"kingdra_1_10","mimeType":"image/x-tga","bufferView":13},{"name":"kingdra_1_11","mimeType":"image/x-tga","bufferView":14},{"name":"kingdra_1_12","mimeType":"image/x-tga","bufferView":15},{"name":"kingdra_1_13","mimeType":"image/x-tga","bufferView":16}],"materials":[{"name":"mat_0","pbrMetallicRoughness":{"baseColorTexture":{"index":0},"baseColorFactor":[1,1,1,1],"metallicFactor":0,"roughnessFactor":0.903921569},"emissiveFactor":[0,0,0],"alphaMode":"BLEND","doubleSided":true},{"name":"mat_1","pbrMetallicRoughness":{"baseColorTexture":{"index":1},"baseColorFactor":[1,1,1,1],"metallicFactor":0,"roughnessFactor":0.903921569},"emissiveFactor":[0,0,0],"alphaMode":"BLEND","doubleSided":true},{"name":"mat_2","pbrMetallicRoughness":{"baseColorTexture":{"index":2},"baseColorFactor":[1,1,1,1],"metallicFactor":0,"roughnessFactor":0.903921569},"emissiveFactor":[0,0,0],"alphaMode":"BLEND","doubleSided":true},{"name":"mat_3","pbrMetallicRoughness":{"baseColorTexture":{"index":3},"baseColorFactor":[1,1,1,1],"metallicFactor":0,"roughnessFactor":0.903921569},"emissiveFactor":[0,0,0],"alphaMode":"BLEND","doubleSided":true},{"name":"mat_4","pbrMetallicRoughness":{"baseColorTexture":{"index":4},"baseColorFactor":[1,1,1,1],"metallicFactor":0,"roughnessFactor":0.903921569},"emissiveFactor":[0,0,0],"alphaMode":"BLEND","doubleSided":true},{"name":"mat_5","pbrMetallicRoughness":{"baseColorTexture":{"index":5},"baseColorFactor":[1,1,1,1],"metallicFactor":0,"roughnessFactor":0.903921569},"emissiveFactor":[0,0,0],"alphaMode":"BLEND","doubleSided":true},{"name":"mat_6","pbrMetallicRoughness":{"baseColorTexture":{"index":6},"baseColorFactor":[1,1,1,1],"metallicFactor":0,"roughnessFactor":0.903921569},"emissiveFactor":[0,0,0],"alphaMode":"BLEND","doubleSided":true},{"name":"mat_7","pbrMetallicRoughness":{"baseColorTexture":{"index":7},"baseColorFactor":[1,1,1,1],"metallicFactor":0,"roughnessFactor":0.903921569},"emissiveFactor":[0,0,0],"alphaMode":"BLEND","doubleSided":true},{"name":"mat_8","pbrMetallicRoughness":{"baseColorTexture":{"index":8},"baseColorFactor":[1,1,1,1],"metallicFactor":0,"roughnessFactor":0.903921569},"emissiveFactor":[0,0,0],"alphaMode":"BLEND","doubleSided":true},{"name":"mat_9","pbrMetallicRoughness":{"baseColorTexture":{"index":9},"baseColorFactor":[1,1,1,1],"metallicFactor":0,"roughnessFactor":0.903921569},"emissiveFactor":[0,0,0],"alphaMode":"BLEND","doubleSided":true},{"name":"mat_10","pbrMetallicRoughness":{"baseColorTexture":{"index":10},"baseColorFactor":[1,1,1,1],"metallicFactor":0,"roughnessFactor":0.903921569},"emissiveFactor":[0,0,0],"alphaMode":"BLEND","doubleSided":true},{"name":"mat_11","pbrMetallicRoughness":{"baseColorTexture":{"index":11},"baseColorFactor":[1,1,1,1],"metallicFactor":0,"roughnessFactor":0.903921569},"emissiveFactor":[0,0,0],"alphaMode":"BLEND","doubleSided":true},{"name":"mat_12","pbrMetallicRoughness":{"baseColorTexture":{"index":12},"baseColorFactor":[1,1,1,1],"metallicFactor":0,"roughnessFactor":0.903921569},"emissiveFactor":[0,0,0],"alphaMode":"BLEND","doubleSided":true},{"name":"mat_13","pbrMetallicRoughness":{"baseColorTexture":{"index":13},"baseColorFactor":[1,1,1,1],"metallicFactor":0,"roughnessFactor":0.903921569},"emissiveFactor":[0,0,0],"alphaMode":"BLEND","doubleSided":true}],"meshes":[{"name":"kingdra-Mesh","primitives":[{"attributes":{"POSITION":0,"TEXCOORD_0":1},"indices":2,"material":0,"mode":4},{"attributes":{"POSITION":3,"TEXCOORD_0":4},"indices":5,"material":1,"mode":4},{"attributes":{"POSITION":6,"TEXCOORD_0":7},"indices":8,"material":2,"mode":4},{"attributes":{"POSITION":9,"TEXCOORD_0":10},"indices":11,"material":3,"mode":4},{"attributes":{"POSITION":12,"TEXCOORD_0":13},"indices":14,"material":4,"mode":4},{"attributes":{"POSITION":15,"TEXCOORD_0":16},"indices":17,"material":5,"mode":4},{"attributes":{"POSITION":18,"TEXCOORD_0":19},"indices":20,"material":6,"mode":4},{"attributes":{"POSITION":21,"TEXCOORD_0":22},"indices":23,"material":7,"mode":4},{"attributes":{"POSITION":24,"TEXCOORD_0":25},"indices":26,"material":8,"mode":4},{"attributes":{"POSITION":27,"TEXCOORD_0":28},"indices":29,"material":9,"mode":4},{"attributes":{"POSITION":30,"TEXCOORD_0":31},"indices":32,"material":10,"mode":4},{"attributes":{"POSITION":33,"TEXCOORD_0":34},"indices":35,"material":11,"mode":4},{"attributes":{"POSITION":36,"TEXCOORD_0":37},"indices":38,"material":12,"mode":4},{"attributes":{"POSITION":39,"TEXCOORD_0":40},"indices":41,"material":13,"mode":4}]}],"nodes":[{"name":"kingdra","mesh":0}],"samplers":[{"wrapS":10497,"wrapT":10497}],"scene":0,"scenes":[{"nodes":[0]}],"textures":[{"name":"kingdra_1_0","sampler":0,"source":0},{"name":"kingdra_1_1","sampler":0,"source":1},{"name":"kingdra_1_2","sampler":0,"source":2},{"name":"kingdra_1_3","sampler":0,"source":3},{"name":"kingdra_1_4","sampler":0,"source":4},{"name":"kingdra_1_5","sampler":0,"source":5},{"name":"kingdra_1_6","sampler":0,"source":6},{"name":"kingdra_1_7","sampler":0,"source":7},{"name":"kingdra_1_8","sampler":0,"source":8},{"name":"kingdra_1_9","sampler":0,"source":9},{"name":"kingdra_1_10","sampler":0,"source":10},{"name":"kingdra_1_11","sampler":0,"source":11},{"name":"kingdra_1_12","sampler":0,"source":12},{"name":"kingdra_1_13","sampler":0,"source":13}]}