{"accessors":[{"name":"polygon0_1_0_positions","componentType":5126,"count":868,"min":[-2.0926709175109863,-0.0017310000257566571,-2.4947690963745117],"max":[2.0926709175109863,4.968214988708496,4.335184097290039],"type":"VEC3","bufferView":0,"byteOffset":0},{"name":"polygon0_1_0_normals","componentType":5126,"count":868,"min":[-0.9997327923774719,-0.9983749985694885,-0.9984197020530701],"max":[0.9997212886810303,0.9997795224189758,0.9991112351417542],"type":"VEC3","bufferView":1,"byteOffset":0},{"name":"polygon0_1_0_texcoords","componentType":5126,"count":868,"min":[0.016692999750375748,0.014403999783098698],"max":[0.9841920137405396,0.9839779734611511],"type":"VEC2","bufferView":2,"byteOffset":0},{"name":"polygon0_1_0_indices","componentType":5123,"count":4362,"min":[0],"max":[867],"type":"SCALAR","bufferView":3,"byteOffset":0},{"name":"polygon1_1_0_positions","componentType":5126,"count":14,"min":[-1.1745320558547974,3.049304962158203,1.9275569915771484],"max":[1.1745320558547974,3.881639003753662,2.7036569118499756],"type":"VEC3","bufferView":0,"byteOffset":10416},{"name":"polygon1_1_0_normals","componentType":5126,"count":14,"min":[-0.9098550081253052,-0.07592601329088211,0.36841079592704773],"max":[0.9098550081253052,0.3440570831298828,0.6137062311172485],"type":"VEC3","bufferView":1,"byteOffset":10416},{"name":"polygon1_1_0_texcoords","componentType":5126,"count":14,"min":[1.019989013671875,0.01925699971616268],"max":[1.4711910486221313,0.235167995095253],"type":"VEC2","bufferView":2,"byteOffset":6944},{"name":"polygon1_1_0_indices","componentType":5123,"count":36,"min":[0],"max":[13],"type":"SCALAR","bufferView":3,"byteOffset":8724},{"name":"polygon2_1_0_positions","componentType":5126,"count":19,"min":[-0.7121239900588989,2.04170298576355,1.900259017944336],"max":[0.7121239900588989,2.471545934677124,2.5803239345550537],"type":"VEC3","bufferView":0,"byteOffset":10584},{"name":"polygon2_1_0_normals","componentType":5126,"count":19,"min":[-0.42565983533859253,-0.9983749985694885,0.04895099997520447],"max":[0.42565202713012695,-0.5498599410057068,0.8352568745613098],"type":"VEC3","bufferView":1,"byteOffset":10584},{"name":"polygon2_1_0_texcoords","componentType":5126,"count":19,"min":[1.0201419591903687,0.013671999797224998],"max":[1.7854000329971313,0.2309570014476776],"type":"VEC2","bufferView":2,"byteOffset":7056},{"name":"polygon2_1_0_indices","componentType":5123,"count":66,"min":[0],"max":[18],"type":"SCALAR","bufferView":3,"byteOffset":8796}],"asset":{"generator":"obj2gltf","version":"2.0"},"buffers":[{"name":"Phanpy","byteLength":381880,"uri":"data:application/octet-stream;base64,"}],"bufferViews":[{"name":"bufferView_0","buffer":0,"byteLength":10812,"byteOffset":0,"byteStride":12,"target":34962},{"name":"bufferView_1","buffer":0,"byteLength":10812,"byteOffset":10812,"byteStride":12,"target":34962},{"name":"bufferView_2","buffer":0,"byteLength":7208,"byteOffset":21624,"byteStride":8,"target":34962},{"name":"bufferView_3","buffer":0,"byteLength":8928,"byteOffset":28832,"target":34963},{"buffer":0,"byteOffset":37760,"byteLength":196626},{"buffer":0,"byteOffset":234386,"byteLength":98322},{"buffer":0,"byteOffset":332708,"byteLength":49170}],"images":[{"name":"GomazouDh","mimeType":"image/x-tga","bufferView":4},{"name":"GomazouEyeDh","mimeType":"image/x-tga","bufferView":5},{"name":"GomazouMouthDh","mimeType":"image/x-tga","bufferView":6}],"materials":[{"name":"mat1","pbrMetallicRoughness":{"baseColorTexture":{"index":0},"baseColorFactor":[1,1,1,1],"metallicFactor":0,"roughnessFactor":0.99},"emissiveFactor":[0,0,0],"alphaMode":"OPAQUE","doubleSided":false},{"name":"mat2","pbrMetallicRoughness":{"baseColorTexture":{"index":1},"baseColorFactor":[1,1,1,1],"metallicFactor":0,"roughnessFactor":0.99},"emissiveFactor":[0,0,0],"alphaMode":"OPAQUE","doubleSided":false},{"name":"mat3","pbrMetallicRoughness":{"baseColorTexture":{"index":2},"baseColorFactor":[1,1,1,1],"metallicFactor":0,"roughnessFactor":0.99},"emissiveFactor":[0,0,0],"alphaMode":"OPAQUE","doubleSided":false}],"meshes":[{"name":"polygon0_1","primitives":[{"attributes":{"POSITION":0,"NORMAL":1,"TEXCOORD_0":2},"indices":3,"material":0,"mode":4}]},{"name":"polygon1_1","primitives":[{"attributes":{"POSITION":4,"NORMAL":5,"TEXCOORD_0":6},"indices":7,"material":1,"mode":4}]},{"name":"polygon2_1","primitives":[{"attributes":{"POSITION":8,"NORMAL":9,"TEXCOORD_0":10},"indices":11,"material":2,"mode":4}]}],"nodes":[{"name":"polygon0","mesh":0},{"name":"polygon1","mesh":1},{"name":"polygon2","mesh":2}],"samplers":[{"wrapS":10497,"wrapT":10497}],"scene":0,"scenes":[{"nodes":[0,1,2]}],"textures":[{"name":"GomazouDh","sampler":0,"source":0},{"name":"GomazouEyeDh","sampler":0,"source":1},{"name":"GomazouMouthDh","sampler":0,"source":2}]}