{"accessors":[{"name":"donfan-Mesh_0_positions","componentType":5126,"count":134,"min":[-4.313159942626953,-5.354001045227051,-9.221030235290527],"max":[4.313161849975586,5.530200004577637,-0.7129480242729187],"type":"VEC3","bufferView":0,"byteOffset":0},{"name":"donfan-Mesh_0_texcoords","componentType":5126,"count":134,"min":[-0.0482960008084774,-1.7607899904251099],"max":[1.0217700004577637,0.9400140047073364],"type":"VEC2","bufferView":1,"byteOffset":0},{"name":"donfan-Mesh_0_indices","componentType":5123,"count":498,"min":[0],"max":[133],"type":"SCALAR","bufferView":2,"byteOffset":0},{"name":"donfan-Mesh_1_positions","componentType":5126,"count":35,"min":[-3.0011401176452637,-5.666659832000732,-10.977800369262695],"max":[3.0011401176452637,0.31020599603652954,-6.95743989944458],"type":"VEC3","bufferView":0,"byteOffset":1608},{"name":"donfan-Mesh_1_texcoords","componentType":5126,"count":35,"min":[0.15625,0.15625],"max":[0.8423380255699158,0.8541669845581055],"type":"VEC2","bufferView":1,"byteOffset":1072},{"name":"donfan-Mesh_1_indices","componentType":5123,"count":108,"min":[0],"max":[34],"type":"SCALAR","bufferView":2,"byteOffset":996},{"name":"donfan-Mesh_2_positions","componentType":5126,"count":158,"min":[-9.312532424926758,-8.526336669921875,-10.685099601745605],"max":[9.330883979797363,9.124770164489746,-0.976606011390686],"type":"VEC3","bufferView":0,"byteOffset":2028},{"name":"donfan-Mesh_2_texcoords","componentType":5126,"count":158,"min":[-0.14565999805927277,-0.3043000102043152],"max":[2.710939884185791,2.0150699615478516],"type":"VEC2","bufferView":1,"byteOffset":1352},{"name":"donfan-Mesh_2_indices","componentType":5123,"count":438,"min":[0],"max":[157],"type":"SCALAR","bufferView":2,"byteOffset":1212},{"name":"donfan-Mesh_3_positions","componentType":5126,"count":96,"min":[-4.602713108062744,-4.900867938995361,-2.146501064300537],"max":[4.602592945098877,3.439732074737549,-0.7129290103912354],"type":"VEC3","bufferView":0,"byteOffset":3924},{"name":"donfan-Mesh_3_texcoords","componentType":5126,"count":96,"min":[0.015625,0.015625],"max":[0.984375,0.984375],"type":"VEC2","bufferView":1,"byteOffset":2616},{"name":"donfan-Mesh_3_indices","componentType":5123,"count":384,"min":[0],"max":[95],"type":"SCALAR","bufferView":2,"byteOffset":2088},{"name":"donfan-Mesh_4_positions","componentType":5126,"count":60,"min":[-4.377659797668457,-4.900866985321045,-1.140375018119812],"max":[4.3791890144348145,3.3801119327545166,0.014798000454902649],"type":"VEC3","bufferView":0,"byteOffset":5076},{"name":"donfan-Mesh_4_texcoords","componentType":5126,"count":60,"min":[0.20219799876213074,-0.4583800137042999],"max":[0.6667510271072388,0.9323199987411499],"type":"VEC2","bufferView":1,"byteOffset":3384},{"name":"donfan-Mesh_4_indices","componentType":5123,"count":228,"min":[0],"max":[59],"type":"SCALAR","bufferView":2,"byteOffset":2856},{"name":"donfan-Mesh_5_positions","componentType":5126,"count":40,"min":[-4.7931928634643555,-3.6596579551696777,-0.8273580074310303],"max":[4.797152996063232,3.8610339164733887,0.014183999970555305],"type":"VEC3","bufferView":0,"byteOffset":5796},{"name":"donfan-Mesh_5_texcoords","componentType":5126,"count":40,"min":[0,-0.03125],"max":[1.6875,0.875],"type":"VEC2","bufferView":1,"byteOffset":3864},{"name":"donfan-Mesh_5_indices","componentType":5123,"count":108,"min":[0],"max":[39],"type":"SCALAR","bufferView":2,"byteOffset":3312},{"name":"donfan-Mesh_6_positions","componentType":5126,"count":74,"min":[-2.329469919204712,-7.166382789611816,-10.641613006591797],"max":[2.3301889896392822,9.214400291442871,-0.7843120098114014],"type":"VEC3","bufferView":0,"byteOffset":6276},{"name":"donfan-Mesh_6_texcoords","componentType":5126,"count":74,"min":[0,0],"max":[1,1],"type":"VEC2","bufferView":1,"byteOffset":4184},{"name":"donfan-Mesh_6_indices","componentType":5123,"count":252,"min":[0],"max":[73],"type":"SCALAR","bufferView":2,"byteOffset":3528},{"name":"donfan-Mesh_7_positions","componentType":5126,"count":20,"min":[-9.312532424926758,1.812459945678711,-8.971380233764648],"max":[9.330883979797363,4.840384006500244,-6.954193115234375],"type":"VEC3","bufferView":0,"byteOffset":7164},{"name":"donfan-Mesh_7_texcoords","componentType":5126,"count":20,"min":[-0.006943999789655209,-0.4791699945926666],"max":[1,1],"type":"VEC2","bufferView":1,"byteOffset":4776},{"name":"donfan-Mesh_7_indices","componentType":5123,"count":60,"min":[0],"max":[19],"type":"SCALAR","bufferView":2,"byteOffset":4032},{"name":"donfan-Mesh_8_positions","componentType":5126,"count":20,"min":[-2.611109972000122,3.8390860557556152,-6.140880107879639],"max":[2.6511099338531494,7.101640224456787,-3.134809970855713],"type":"VEC3","bufferView":0,"byteOffset":7404},{"name":"donfan-Mesh_8_texcoords","componentType":5126,"count":20,"min":[-0.08035700023174286,0.10729999840259552],"max":[1.016890048980713,1.1104300022125244],"type":"VEC2","bufferView":1,"byteOffset":4936},{"name":"donfan-Mesh_8_indices","componentType":5123,"count":63,"min":[0],"max":[19],"type":"SCALAR","bufferView":2,"byteOffset":4152},{"name":"donfan-Mesh_9_positions","componentType":5126,"count":6,"min":[-1.879699945449829,5.203579902648926,-5.4532999992370605],"max":[1.9212100505828857,7.092529773712158,-4.009459972381592],"type":"VEC3","bufferView":0,"byteOffset":7644},{"name":"donfan-Mesh_9_texcoords","componentType":5126,"count":6,"min":[0.09500399976968765,0.12353699654340744],"max":[0.903889000415802,0.9936439990997314],"type":"VEC2","bufferView":1,"byteOffset":5096},{"name":"donfan-Mesh_9_indices","componentType":5123,"count":12,"min":[0],"max":[5],"type":"SCALAR","bufferView":2,"byteOffset":4280},{"name":"donfan-Mesh_10_positions","componentType":5126,"count":6,"min":[-2.611109972000122,5.219779968261719,-6.976620197296143],"max":[2.6511099338531494,7.101640224456787,-5.134230136871338],"type":"VEC3","bufferView":0,"byteOffset":7716},{"name":"donfan-Mesh_10_texcoords","componentType":5126,"count":6,"min":[0.012500000186264515,0.020833000540733337],"max":[0.9666669964790344,0.3159720003604889],"type":"VEC2","bufferView":1,"byteOffset":5144},{"name":"donfan-Mesh_10_indices","componentType":5123,"count":6,"min":[0],"max":[5],"type":"SCALAR","bufferView":2,"byteOffset":4304},{"name":"donfan-Mesh_11_positions","componentType":5126,"count":7,"min":[-1.879699945449829,5.203579902648926,-5.4532999992370605],"max":[1.9212100505828857,6.797440052032471,-3.872659921646118],"type":"VEC3","bufferView":0,"byteOffset":7788},{"name":"donfan-Mesh_11_texcoords","componentType":5126,"count":7,"min":[0.05388699844479561,-0.013000000268220901],"max":[0.9464619755744934,0.9546930193901062],"type":"VEC2","bufferView":1,"byteOffset":5192},{"name":"donfan-Mesh_11_indices","componentType":5123,"count":15,"min":[0],"max":[6],"type":"SCALAR","bufferView":2,"byteOffset":4316},{"name":"donfan-Mesh_12_positions","componentType":5126,"count":24,"min":[-4.867607116699219,4.192327976226807,-6.140880107879639],"max":[4.876132965087891,8.742134094238281,-3.348858118057251],"type":"VEC3","bufferView":0,"byteOffset":7872},{"name":"donfan-Mesh_12_texcoords","componentType":5126,"count":24,"min":[0,-0.5267900228500366],"max":[2.464289903640747,1.004464030265808],"type":"VEC2","bufferView":1,"byteOffset":5248},{"name":"donfan-Mesh_12_indices","componentType":5123,"count":96,"min":[0],"max":[23],"type":"SCALAR","bufferView":2,"byteOffset":4348},{"name":"donfan-Mesh_13_positions","componentType":5126,"count":18,"min":[-0.001972000114619732,-0.18921199440956116,-5.020544052124023],"max":[0.0002119999990100041,-0.18733899295330048,-5.012670040130615],"type":"VEC3","bufferView":0,"byteOffset":8160},{"name":"donfan-Mesh_13_texcoords","componentType":5126,"count":18,"min":[-0.02215700037777424,-0.0221599992364645],"max":[1.0221600532531738,1.0221569538116455],"type":"VEC2","bufferView":1,"byteOffset":5440},{"name":"donfan-Mesh_13_indices","componentType":5123,"count":96,"min":[0],"max":[17],"type":"SCALAR","bufferView":2,"byteOffset":4540}],"asset":{"generator":"obj2gltf","version":"2.0"},"buffers":[{"name":"BR_Donphan-Shiny01","byteLength":129536,"uri":"data:application/octet-stream;base64,"}],"bufferViews":[{"name":"bufferView_0","buffer":0,"byteLength":8376,"byteOffset":0,"byteStride":12,"target":34962},{"name":"bufferView_1","buffer":0,"byteLength":5584,"byteOffset":8376,"byteStride":8,"target":34962},{"name":"bufferView_2","buffer":0,"byteLength":4732,"byteOffset":13960,"target":34963},{"buffer":0,"byteOffset":18692,"byteLength":4114},{"buffer":0,"byteOffset":22806,"byteLength":4114},{"buffer":0,"byteOffset":26920,"byteLength":8210},{"buffer":0,"byteOffset":35130,"byteLength":4114},{"buffer":0,"byteOffset":39244,"byteLength":1042},{"buffer":0,"byteOffset":40286,"byteLength":4114},{"buffer":0,"byteOffset":44400,"byteLength":4114},{"buffer":0,"byteOffset":48514,"byteLength":2066},{"buffer":0,"byteOffset":50580,"byteLength":4114},{"buffer":0,"byteOffset":54694,"byteLength":8210},{"buffer":0,"byteOffset":62904,"byteLength":46098},{"buffer":0,"byteOffset":109002,"byteLength":8210},{"buffer":0,"byteOffset":117212,"byteLength":4114},{"buffer":0,"byteOffset":121326,"byteLength":8210}],"images":[{"name":"donfan_1_0","mimeType":"image/x-tga","bufferView":3},{"name":"donfan_1_1","mimeType":"image/x-tga","bufferView":4},{"name":"donfan_1_2","mimeType":"image/x-tga","bufferView":5},{"name":"donfan_1_3","mimeType":"image/x-tga","bufferView":6},{"name":"donfan_1_4","mimeType":"image/x-tga","bufferView":7},{"name":"donfan_1_5","mimeType":"image/x-tga","bufferView":8},{"name":"donfan_1_6","mimeType":"image/x-tga","bufferView":9},{"name":"donfan_1_7","mimeType":"image/x-tga","bufferView":10},{"name":"donfan_1_8","mimeType":"image/x-tga","bufferView":11},{"name":"donfan_1_9","mimeType":"image/x-tga","bufferView":12},{"name":"donfan_1_10","mimeType":"image/x-tga","bufferView":13},{"name":"donfan_1_11","mimeType":"image/x-tga","bufferView":14},{"name":"donfan_1_12","mimeType":"image/x-tga","bufferView":15},{"name":"donfan_1_13","mimeType":"image/x-tga","bufferView":16}],"materials":[{"name":"mat_0","pbrMetallicRoughness":{"baseColorTexture":{"index":0},"baseColorFactor":[1,1,1,1],"metallicFactor":0,"roughnessFactor":0.903921569},"emissiveFactor":[0,0,0],"alphaMode":"BLEND","doubleSided":true},{"name":"mat_1","pbrMetallicRoughness":{"baseColorTexture":{"index":1},"baseColorFactor":[1,1,1,1],"metallicFactor":0,"roughnessFactor":0.903921569},"emissiveFactor":[0,0,0],"alphaMode":"BLEND","doubleSided":true},{"name":"mat_2","pbrMetallicRoughness":{"baseColorTexture":{"index":2},"baseColorFactor":[1,1,1,1],"metallicFactor":0,"roughnessFactor":0.903921569},"emissiveFactor":[0,0,0],"alphaMode":"BLEND","doubleSided":true},{"name":"mat_3","pbrMetallicRoughness":{"baseColorTexture":{"index":3},"baseColorFactor":[1,1,1,1],"metallicFactor":0,"roughnessFactor":0.903921569},"emissiveFactor":[0,0,0],"alphaMode":"BLEND","doubleSided":true},{"name":"mat_4","pbrMetallicRoughness":{"baseColorTexture":{"index":4},"baseColorFactor":[1,1,1,1],"metallicFactor":0,"roughnessFactor":0.903921569},"emissiveFactor":[0,0,0],"alphaMode":"BLEND","doubleSided":true},{"name":"mat_5","pbrMetallicRoughness":{"baseColorTexture":{"index":5},"baseColorFactor":[1,1,1,1],"metallicFactor":0,"roughnessFactor":0.903921569},"emissiveFactor":[0,0,0],"alphaMode":"BLEND","doubleSided":true},{"name":"mat_6","pbrMetallicRoughness":{"baseColorTexture":{"index":6},"baseColorFactor":[1,1,1,1],"metallicFactor":0,"roughnessFactor":0.903921569},"emissiveFactor":[0,0,0],"alphaMode":"BLEND","doubleSided":true},{"name":"mat_7","pbrMetallicRoughness":{"baseColorTexture":{"index":7},"baseColorFactor":[1,1,1,1],"metallicFactor":0,"roughnessFactor":0.903921569},"emissiveFactor":[0,0,0],"alphaMode":"BLEND","doubleSided":true},{"name":"mat_8","pbrMetallicRoughness":{"baseColorTexture":{"index":8},"baseColorFactor":[1,1,1,1],"metallicFactor":0,"roughnessFactor":0.903921569},"emissiveFactor":[0,0,0],"alphaMode":"BLEND","doubleSided":true},{"name":"mat_9","pbrMetallicRoughness":{"baseColorTexture":{"index":9},"baseColorFactor":[1,1,1,1],"metallicFactor":0,"roughnessFactor":0.903921569},"emissiveFactor":[0,0,0],"alphaMode":"BLEND","doubleSided":true},{"name":"mat_10","pbrMetallicRoughness":{"baseColorTexture":{"index":10},"baseColorFactor":[1,1,1,1],"metallicFactor":0,"roughnessFactor":0.903921569},"emissiveFactor":[0,0,0],"alphaMode":"BLEND","doubleSided":true},{"name":"mat_11","pbrMetallicRoughness":{"baseColorTexture":{"index":11},"baseColorFactor":[1,1,1,1],"metallicFactor":0,"roughnessFactor":0.903921569},"emissiveFactor":[0,0,0],"alphaMode":"BLEND","doubleSided":true},{"name":"mat_12","pbrMetallicRoughness":{"baseColorTexture":{"index":12},"baseColorFactor":[1,1,1,1],"metallicFactor":0,"roughnessFactor":0.903921569},"emissiveFactor":[0,0,0],"alphaMode":"BLEND","doubleSided":true},{"name":"mat_13","pbrMetallicRoughness":{"baseColorTexture":{"index":13},"baseColorFactor":[1,1,1,1],"metallicFactor":0,"roughnessFactor":0.903921569},"emissiveFactor":[0,0,0],"alphaMode":"BLEND","doubleSided":true}],"meshes":[{"name":"donfan-Mesh","primitives":[{"attributes":{"POSITION":0,"TEXCOORD_0":1},"indices":2,"material":0,"mode":4},{"attributes":{"POSITION":3,"TEXCOORD_0":4},"indices":5,"material":1,"mode":4},{"attributes":{"POSITION":6,"TEXCOORD_0":7},"indices":8,"material":2,"mode":4},{"attributes":{"POSITION":9,"TEXCOORD_0":10},"indices":11,"material":3,"mode":4},{"attributes":{"POSITION":12,"TEXCOORD_0":13},"indices":14,"material":4,"mode":4},{"attributes":{"POSITION":15,"TEXCOORD_0":16},"indices":17,"material":5,"mode":4},{"attributes":{"POSITION":18,"TEXCOORD_0":19},"indices":20,"material":6,"mode":4},{"attributes":{"POSITION":21,"TEXCOORD_0":22},"indices":23,"material":7,"mode":4},{"attributes":{"POSITION":24,"TEXCOORD_0":25},"indices":26,"material":8,"mode":4},{"attributes":{"POSITION":27,"TEXCOORD_0":28},"indices":29,"material":9,"mode":4},{"attributes":{"POSITION":30,"TEXCOORD_0":31},"indices":32,"material":10,"mode":4},{"attributes":{"POSITION":33,"TEXCOORD_0":34},"indices":35,"material":11,"mode":4},{"attributes":{"POSITION":36,"TEXCOORD_0":37},"indices":38,"material":12,"mode":4},{"attributes":{"POSITION":39,"TEXCOORD_0":40},"indices":41,"material":13,"mode":4}]}],"nodes":[{"name":"donfan","mesh":0}],"samplers":[{"wrapS":10497,"wrapT":10497}],"scene":0,"scenes":[{"nodes":[0]}],"textures":[{"name":"donfan_1_0","sampler":0,"source":0},{"name":"donfan_1_1","sampler":0,"source":1},{"name":"donfan_1_2","sampler":0,"source":2},{"name":"donfan_1_3","sampler":0,"source":3},{"name":"donfan_1_4","sampler":0,"source":4},{"name":"donfan_1_5","sampler":0,"source":5},{"name":"donfan_1_6","sampler":0,"source":6},{"name":"donfan_1_7","sampler":0,"source":7},{"name":"donfan_1_8","sampler":0,"source":8},{"name":"donfan_1_9","sampler":0,"source":9},{"name":"donfan_1_10","sampler":0,"source":10},{"name":"donfan_1_11","sampler":0,"source":11},{"name":"donfan_1_12","sampler":0,"source":12},{"name":"donfan_1_13","sampler":0,"source":13}]}