{"accessors":[{"name":"Porygon2_1_0_positions","componentType":5126,"count":420,"min":[-14.369950294494629,41.279052734375,14.380799293518066],"max":[14.36984920501709,57.10303497314453,26.524099349975586],"type":"VEC3","bufferView":0,"byteOffset":0},{"name":"Porygon2_1_0_normals","componentType":5126,"count":420,"min":[-1,-0.5579909682273865,0.00007399999594781548],"max":[-0.45304879546165466,0.36350613832473755,0.8367748260498047],"type":"VEC3","bufferView":1,"byteOffset":0},{"name":"Porygon2_1_0_texcoords","componentType":5126,"count":420,"min":[0.046875,-0.9846699833869934],"max":[0.45313000679016113,-0.7585300207138062],"type":"VEC2","bufferView":2,"byteOffset":0},{"name":"Porygon2_1_0_indices","componentType":5123,"count":420,"min":[0],"max":[419],"type":"SCALAR","bufferView":3,"byteOffset":0},{"name":"Porygon2_1_1_positions","componentType":5126,"count":11940,"min":[-29.473302841186523,0,-48.63820266723633],"max":[29.47330093383789,61.09239959716797,51.66510009765625],"type":"VEC3","bufferView":0,"byteOffset":5040},{"name":"Porygon2_1_1_normals","componentType":5126,"count":11940,"min":[-1,-0.8528903126716614,-0.9993727803230286],"max":[1,0.9843825101852417,0.8710976839065552],"type":"VEC3","bufferView":1,"byteOffset":5040},{"name":"Porygon2_1_1_texcoords","componentType":5126,"count":11940,"min":[0,0.005985999945551157],"max":[1,0.9921879768371582],"type":"VEC2","bufferView":2,"byteOffset":3360},{"name":"Porygon2_1_1_indices","componentType":5123,"count":11940,"min":[0],"max":[11939],"type":"SCALAR","bufferView":3,"byteOffset":840},{"name":"Porygon2_1_2_positions","componentType":5126,"count":420,"min":[-14.469450950622559,41.2253532409668,14.38900089263916],"max":[14.46934986114502,57.16953659057617,26.601104736328125],"type":"VEC3","bufferView":0,"byteOffset":148320},{"name":"Porygon2_1_2_normals","componentType":5126,"count":420,"min":[0.1762799322605133,-0.4455608129501343,-0.7294069528579712],"max":[0.9999999403953552,0.8419256806373596,0.4759548008441925],"type":"VEC3","bufferView":1,"byteOffset":148320},{"name":"Porygon2_1_2_texcoords","componentType":5126,"count":420,"min":[0.18748000264167786,-1.9386800527572632],"max":[0.9121999740600586,-1.034119963645935],"type":"VEC2","bufferView":2,"byteOffset":98880},{"name":"Porygon2_1_2_indices","componentType":5123,"count":420,"min":[0],"max":[419],"type":"SCALAR","bufferView":3,"byteOffset":24720}],"asset":{"generator":"obj2gltf","version":"2.0"},"buffers":[{"name":"XY_Porygon2","byteLength":482692,"uri":"data:application/octet-stream;base64,"}],"bufferViews":[{"name":"bufferView_0","buffer":0,"byteLength":153360,"byteOffset":0,"byteStride":12,"target":34962},{"name":"bufferView_1","buffer":0,"byteLength":153360,"byteOffset":153360,"byteStride":12,"target":34962},{"name":"bufferView_2","buffer":0,"byteLength":102240,"byteOffset":306720,"byteStride":8,"target":34962},{"name":"bufferView_3","buffer":0,"byteLength":25560,"byteOffset":408960,"target":34963},{"buffer":0,"byteOffset":434520,"byteLength":27844},{"buffer":0,"byteOffset":462364,"byteLength":18709},{"buffer":0,"byteOffset":481073,"byteLength":1616}],"images":[{"name":"pm0233_00_Eye1","mimeType":"image/png","bufferView":4},{"name":"pm0233_00_Body1","mimeType":"image/png","bufferView":5},{"name":"pm0233_00_Iris1","mimeType":"image/png","bufferView":6}],"materials":[{"name":"Material__126","pbrMetallicRoughness":{"baseColorTexture":{"index":0},"baseColorFactor":[1,1,1,1],"metallicFactor":0,"roughnessFactor":0.998},"emissiveFactor":[0,0,0],"alphaMode":"OPAQUE","doubleSided":false},{"name":"Material__127","pbrMetallicRoughness":{"baseColorTexture":{"index":1},"baseColorFactor":[1,1,1,1],"metallicFactor":0,"roughnessFactor":0.998},"emissiveFactor":[0,0,0],"alphaMode":"OPAQUE","doubleSided":false},{"name":"Material__128","pbrMetallicRoughness":{"baseColorTexture":{"index":2},"baseColorFactor":[1,1,1,1],"metallicFactor":0,"roughnessFactor":0.998},"emissiveFactor":[0,0,0],"alphaMode":"OPAQUE","doubleSided":false}],"meshes":[{"name":"Porygon2_1","primitives":[{"attributes":{"POSITION":0,"NORMAL":1,"TEXCOORD_0":2},"indices":3,"material":0,"mode":4},{"attributes":{"POSITION":4,"NORMAL":5,"TEXCOORD_0":6},"indices":7,"material":1,"mode":4},{"attributes":{"POSITION":8,"NORMAL":9,"TEXCOORD_0":10},"indices":11,"material":2,"mode":4}]}],"nodes":[{"name":"Porygon2","mesh":0}],"samplers":[{"wrapS":10497,"wrapT":10497}],"scene":0,"scenes":[{"nodes":[0]}],"textures":[{"name":"pm0233_00_Eye1","sampler":0,"source":0},{"name":"pm0233_00_Body1","sampler":0,"source":1},{"name":"pm0233_00_Iris1","sampler":0,"source":2}]}