{"accessors":[{"name":"porygon2-Mesh_0_positions","componentType":5126,"count":25,"min":[-1.3598400354385376,1.3178069591522217,-7.3454461097717285],"max":[1.3860599994659424,2.3714399337768555,-5.986742973327637],"type":"VEC3","bufferView":0,"byteOffset":0},{"name":"porygon2-Mesh_0_texcoords","componentType":5126,"count":25,"min":[0.008929000236093998,-0.012149999849498272],"max":[1.03125,0.21932899951934814],"type":"VEC2","bufferView":1,"byteOffset":0},{"name":"porygon2-Mesh_0_indices","componentType":5123,"count":66,"min":[0],"max":[24],"type":"SCALAR","bufferView":2,"byteOffset":0}],"asset":{"generator":"obj2gltf","version":"2.0"},"buffers":[{"name":"BR_Porygon2-Shiny01","byteLength":37516,"uri":"data:application/octet-stream;base64,"}],"bufferViews":[{"name":"bufferView_0","buffer":0,"byteLength":300,"byteOffset":0,"byteStride":12,"target":34962},{"name":"bufferView_1","buffer":0,"byteLength":200,"byteOffset":300,"byteStride":8,"target":34962},{"name":"bufferView_2","buffer":0,"byteLength":132,"byteOffset":500,"target":34963},{"buffer":0,"byteOffset":632,"byteLength":36882}],"images":[{"name":"porygon2_1_0","mimeType":"image/x-tga","bufferView":3}],"materials":[{"name":"mat_0","pbrMetallicRoughness":{"baseColorTexture":{"index":0},"baseColorFactor":[1,1,1,1],"metallicFactor":0,"roughnessFactor":0.903921569},"emissiveFactor":[0,0,0],"alphaMode":"BLEND","doubleSided":true}],"meshes":[{"name":"porygon2-Mesh","primitives":[{"attributes":{"POSITION":0,"TEXCOORD_0":1},"indices":2,"material":0,"mode":4}]}],"nodes":[{"name":"porygon2","mesh":0}],"samplers":[{"wrapS":10497,"wrapT":10497}],"scene":0,"scenes":[{"nodes":[0]}],"textures":[{"name":"porygon2_1_0","sampler":0,"source":0}]}