{"accessors":[{"name":"odoshishi-Mesh_0_positions","componentType":5126,"count":4,"min":[-0.39500001072883606,0,-0.39500001072883606],"max":[0.39500001072883606,1,0.39500001072883606],"type":"VEC3","bufferView":0,"byteOffset":0},{"name":"odoshishi-Mesh_0_texcoords","componentType":5126,"count":4,"min":[0,0],"max":[1,1],"type":"VEC2","bufferView":1,"byteOffset":0},{"name":"odoshishi-Mesh_0_indices","componentType":5123,"count":6,"min":[0],"max":[3],"type":"SCALAR","bufferView":2,"byteOffset":0}],"asset":{"generator":"obj2gltf","version":"2.0"},"buffers":[{"name":"BR_Stantler-Shiny01","byteLength":4208,"uri":"data:application/octet-stream;base64,"}],"bufferViews":[{"name":"bufferView_0","buffer":0,"byteLength":48,"byteOffset":0,"byteStride":12,"target":34962},{"name":"bufferView_1","buffer":0,"byteLength":32,"byteOffset":48,"byteStride":8,"target":34962},{"name":"bufferView_2","buffer":0,"byteLength":12,"byteOffset":80,"target":34963},{"buffer":0,"byteOffset":92,"byteLength":4114}],"images":[{"name":"odoshishi_1_0","mimeType":"image/x-tga","bufferView":3}],"materials":[{"name":"mat_0","pbrMetallicRoughness":{"baseColorTexture":{"index":0},"baseColorFactor":[1,1,1,1],"metallicFactor":0,"roughnessFactor":0.903921569},"emissiveFactor":[0,0,0],"alphaMode":"BLEND","doubleSided":true}],"meshes":[{"name":"odoshishi-Mesh","primitives":[{"attributes":{"POSITION":0,"TEXCOORD_0":1},"indices":2,"material":0,"mode":4}]}],"nodes":[{"name":"odoshishi","mesh":0}],"samplers":[{"wrapS":10497,"wrapT":10497}],"scene":0,"scenes":[{"nodes":[0]}],"textures":[{"name":"odoshishi_1_0","sampler":0,"source":0}]}