{"accessors":[{"name":"doble-Mesh_0_positions","componentType":5126,"count":290,"min":[-2.477992057800293,-2.395108938217163,-11.526005744934082],"max":[2.4779999256134033,3.9821419715881348,-1.0065339803695679],"type":"VEC3","bufferView":0,"byteOffset":0},{"name":"doble-Mesh_0_texcoords","componentType":5126,"count":290,"min":[0.009083000011742115,0.040731001645326614],"max":[0.8764500021934509,1.0121309757232666],"type":"VEC2","bufferView":1,"byteOffset":0},{"name":"doble-Mesh_0_indices","componentType":5123,"count":765,"min":[0],"max":[289],"type":"SCALAR","bufferView":2,"byteOffset":0},{"name":"doble-Mesh_1_positions","componentType":5126,"count":36,"min":[-1.4898840188980103,-0.8455979824066162,-5.516560077667236],"max":[1.489886999130249,1.6577270030975342,-3.02567195892334],"type":"VEC3","bufferView":0,"byteOffset":3480},{"name":"doble-Mesh_1_texcoords","componentType":5126,"count":36,"min":[-0.1542930006980896,-0.044530000537633896],"max":[1.154289960861206,0.9195250272750854],"type":"VEC2","bufferView":1,"byteOffset":2320},{"name":"doble-Mesh_1_indices","componentType":5123,"count":108,"min":[0],"max":[35],"type":"SCALAR","bufferView":2,"byteOffset":1532},{"name":"doble-Mesh_2_positions","componentType":5126,"count":116,"min":[-2.5250000953674316,-0.8996099829673767,-9.055441856384277],"max":[2.5347230434417725,2.2234768867492676,-5.181589126586914],"type":"VEC3","bufferView":0,"byteOffset":3912},{"name":"doble-Mesh_2_texcoords","componentType":5126,"count":116,"min":[-1.5,0],"max":[1,1],"type":"VEC2","bufferView":1,"byteOffset":2608},{"name":"doble-Mesh_2_indices","componentType":5123,"count":276,"min":[0],"max":[115],"type":"SCALAR","bufferView":2,"byteOffset":1748},{"name":"doble-Mesh_3_positions","componentType":5126,"count":42,"min":[-1.6033289432525635,0,-9.24763298034668],"max":[1.6033450365066528,3.7883310317993164,-6.533588886260986],"type":"VEC3","bufferView":0,"byteOffset":5304},{"name":"doble-Mesh_3_texcoords","componentType":5126,"count":42,"min":[-0.7393550276756287,-0.01573999971151352],"max":[1.6084500551223755,0.21278099715709686],"type":"VEC2","bufferView":1,"byteOffset":3536},{"name":"doble-Mesh_3_indices","componentType":5123,"count":102,"min":[0],"max":[41],"type":"SCALAR","bufferView":2,"byteOffset":2300},{"name":"doble-Mesh_4_positions","componentType":5126,"count":14,"min":[-1.2682759761810303,0.6069539785385132,-6.766757011413574],"max":[1.2682950496673584,3.6505539417266846,-6.17445182800293],"type":"VEC3","bufferView":0,"byteOffset":5808},{"name":"doble-Mesh_4_texcoords","componentType":5126,"count":14,"min":[-0.5695539712905884,-0.057909999042749405],"max":[1.562000036239624,0.250016987323761],"type":"VEC2","bufferView":1,"byteOffset":3872},{"name":"doble-Mesh_4_indices","componentType":5123,"count":48,"min":[0],"max":[13],"type":"SCALAR","bufferView":2,"byteOffset":2504},{"name":"doble-Mesh_5_positions","componentType":5126,"count":4,"min":[-0.3423910140991211,3.7883269786834717,-7.562503814697266],"max":[0.3424209952354431,3.9821419715881348,-6.9820637702941895],"type":"VEC3","bufferView":0,"byteOffset":5976},{"name":"doble-Mesh_5_texcoords","componentType":5126,"count":4,"min":[0.005061999894678593,-0.025049999356269836],"max":[0.9949380159378052,1.0250489711761475],"type":"VEC2","bufferView":1,"byteOffset":3984},{"name":"doble-Mesh_5_indices","componentType":5123,"count":6,"min":[0],"max":[3],"type":"SCALAR","bufferView":2,"byteOffset":2600},{"name":"doble-Mesh_6_positions","componentType":5126,"count":8,"min":[-0.3740589916706085,2.3863909244537354,-6.481043815612793],"max":[0.37407898902893066,2.9033288955688477,-5.644999980926514],"type":"VEC3","bufferView":0,"byteOffset":6024},{"name":"doble-Mesh_6_texcoords","componentType":5126,"count":8,"min":[0,0],"max":[1,0.8299149870872498],"type":"VEC2","bufferView":1,"byteOffset":4016},{"name":"doble-Mesh_6_indices","componentType":5123,"count":33,"min":[0],"max":[7],"type":"SCALAR","bufferView":2,"byteOffset":2612},{"name":"doble-Mesh_7_positions","componentType":5126,"count":76,"min":[-3.3359429836273193,-3.2973721027374268,-4.296999931335449],"max":[3.019710063934326,3.6640050411224365,-0.3881860077381134],"type":"VEC3","bufferView":0,"byteOffset":6120},{"name":"doble-Mesh_7_texcoords","componentType":5126,"count":76,"min":[-0.06644699722528458,-0.4302999973297119],"max":[1.1548500061035156,1.0146310329437256],"type":"VEC2","bufferView":1,"byteOffset":4080},{"name":"doble-Mesh_7_indices","componentType":5123,"count":288,"min":[0],"max":[75],"type":"SCALAR","bufferView":2,"byteOffset":2680},{"name":"doble-Mesh_8_positions","componentType":5126,"count":97,"min":[-3.9081718921661377,-0.5330749750137329,-3.7138609886169434],"max":[4.069039821624756,3.0530009269714355,-0.02785700000822544],"type":"VEC3","bufferView":0,"byteOffset":7032},{"name":"doble-Mesh_8_texcoords","componentType":5126,"count":97,"min":[-0.051336001604795456,-2.267859935760498],"max":[1.013550043106079,1.044996976852417],"type":"VEC2","bufferView":1,"byteOffset":4688},{"name":"doble-Mesh_8_indices","componentType":5123,"count":402,"min":[0],"max":[96],"type":"SCALAR","bufferView":2,"byteOffset":3256},{"name":"doble-Mesh_9_positions","componentType":5126,"count":15,"min":[-3.2531700134277344,2.8346610069274902,-7.230646133422852],"max":[-1.4543410539627075,5.045415878295898,-3.735898017883301],"type":"VEC3","bufferView":0,"byteOffset":8196},{"name":"doble-Mesh_9_texcoords","componentType":5126,"count":15,"min":[-0.0014199999859556556,0.014600999653339386],"max":[0.9984380006790161,1],"type":"VEC2","bufferView":1,"byteOffset":5464},{"name":"doble-Mesh_9_indices","componentType":5123,"count":57,"min":[0],"max":[14],"type":"SCALAR","bufferView":2,"byteOffset":4060},{"name":"doble-Mesh_10_positions","componentType":5126,"count":14,"min":[-2.0636301040649414,-0.5330749750137329,-0.07813599705696106],"max":[2.06364107131958,1.4566830396652222,-0.02785700000822544],"type":"VEC3","bufferView":0,"byteOffset":8376},{"name":"doble-Mesh_10_texcoords","componentType":5126,"count":14,"min":[-0.00685499981045723,-0.5467100143432617],"max":[0.9979150295257568,0.981249988079071],"type":"VEC2","bufferView":1,"byteOffset":5584},{"name":"doble-Mesh_10_indices","componentType":5123,"count":18,"min":[0],"max":[13],"type":"SCALAR","bufferView":2,"byteOffset":4176}],"asset":{"generator":"obj2gltf","version":"2.0"},"buffers":[{"name":"BR_Smeargle-Shiny01","byteLength":127068,"uri":"data:application/octet-stream;base64,"}],"bufferViews":[{"name":"bufferView_0","buffer":0,"byteLength":8544,"byteOffset":0,"byteStride":12,"target":34962},{"name":"bufferView_1","buffer":0,"byteLength":5696,"byteOffset":8544,"byteStride":8,"target":34962},{"name":"bufferView_2","buffer":0,"byteLength":4212,"byteOffset":14240,"target":34963},{"buffer":0,"byteOffset":18452,"byteLength":82},{"buffer":0,"byteOffset":18534,"byteLength":2066},{"buffer":0,"byteOffset":20600,"byteLength":82},{"buffer":0,"byteOffset":20682,"byteLength":65554},{"buffer":0,"byteOffset":86236,"byteLength":24594},{"buffer":0,"byteOffset":110830,"byteLength":1042},{"buffer":0,"byteOffset":111872,"byteLength":530},{"buffer":0,"byteOffset":112402,"byteLength":274},{"buffer":0,"byteOffset":112676,"byteLength":2066},{"buffer":0,"byteOffset":114742,"byteLength":8210},{"buffer":0,"byteOffset":122952,"byteLength":4114}],"images":[{"name":"doble_1_0","mimeType":"image/x-tga","bufferView":3},{"name":"doble_1_1","mimeType":"image/x-tga","bufferView":4},{"name":"doble_1_2","mimeType":"image/x-tga","bufferView":5},{"name":"doble_1_3","mimeType":"image/x-tga","bufferView":6},{"name":"doble_1_4","mimeType":"image/x-tga","bufferView":7},{"name":"doble_1_5","mimeType":"image/x-tga","bufferView":8},{"name":"doble_1_6","mimeType":"image/x-tga","bufferView":9},{"name":"doble_1_7","mimeType":"image/x-tga","bufferView":10},{"name":"doble_1_8","mimeType":"image/x-tga","bufferView":11},{"name":"doble_1_9","mimeType":"image/x-tga","bufferView":12},{"name":"doble_1_10","mimeType":"image/x-tga","bufferView":13}],"materials":[{"name":"mat_0","pbrMetallicRoughness":{"baseColorTexture":{"index":0},"baseColorFactor":[1,1,1,1],"metallicFactor":0,"roughnessFactor":0.903921569},"emissiveFactor":[0,0,0],"alphaMode":"BLEND","doubleSided":true},{"name":"mat_1","pbrMetallicRoughness":{"baseColorTexture":{"index":1},"baseColorFactor":[1,1,1,1],"metallicFactor":0,"roughnessFactor":0.903921569},"emissiveFactor":[0,0,0],"alphaMode":"BLEND","doubleSided":true},{"name":"mat_2","pbrMetallicRoughness":{"baseColorTexture":{"index":2},"baseColorFactor":[1,1,1,1],"metallicFactor":0,"roughnessFactor":0.903921569},"emissiveFactor":[0,0,0],"alphaMode":"BLEND","doubleSided":true},{"name":"mat_3","pbrMetallicRoughness":{"baseColorTexture":{"index":3},"baseColorFactor":[1,1,1,1],"metallicFactor":0,"roughnessFactor":0.903921569},"emissiveFactor":[0,0,0],"alphaMode":"BLEND","doubleSided":true},{"name":"mat_4","pbrMetallicRoughness":{"baseColorTexture":{"index":4},"baseColorFactor":[1,1,1,1],"metallicFactor":0,"roughnessFactor":0.903921569},"emissiveFactor":[0,0,0],"alphaMode":"BLEND","doubleSided":true},{"name":"mat_5","pbrMetallicRoughness":{"baseColorTexture":{"index":5},"baseColorFactor":[1,1,1,1],"metallicFactor":0,"roughnessFactor":0.903921569},"emissiveFactor":[0,0,0],"alphaMode":"BLEND","doubleSided":true},{"name":"mat_6","pbrMetallicRoughness":{"baseColorTexture":{"index":6},"baseColorFactor":[1,1,1,1],"metallicFactor":0,"roughnessFactor":0.903921569},"emissiveFactor":[0,0,0],"alphaMode":"BLEND","doubleSided":true},{"name":"mat_7","pbrMetallicRoughness":{"baseColorTexture":{"index":7},"baseColorFactor":[1,1,1,1],"metallicFactor":0,"roughnessFactor":0.903921569},"emissiveFactor":[0,0,0],"alphaMode":"BLEND","doubleSided":true},{"name":"mat_8","pbrMetallicRoughness":{"baseColorTexture":{"index":8},"baseColorFactor":[1,1,1,1],"metallicFactor":0,"roughnessFactor":0.903921569},"emissiveFactor":[0,0,0],"alphaMode":"BLEND","doubleSided":true},{"name":"mat_9","pbrMetallicRoughness":{"baseColorTexture":{"index":9},"baseColorFactor":[1,1,1,1],"metallicFactor":0,"roughnessFactor":0.903921569},"emissiveFactor":[0,0,0],"alphaMode":"BLEND","doubleSided":true},{"name":"mat_10","pbrMetallicRoughness":{"baseColorTexture":{"index":10},"baseColorFactor":[1,1,1,1],"metallicFactor":0,"roughnessFactor":0.903921569},"emissiveFactor":[0,0,0],"alphaMode":"BLEND","doubleSided":true}],"meshes":[{"name":"doble-Mesh","primitives":[{"attributes":{"POSITION":0,"TEXCOORD_0":1},"indices":2,"material":0,"mode":4},{"attributes":{"POSITION":3,"TEXCOORD_0":4},"indices":5,"material":1,"mode":4},{"attributes":{"POSITION":6,"TEXCOORD_0":7},"indices":8,"material":2,"mode":4},{"attributes":{"POSITION":9,"TEXCOORD_0":10},"indices":11,"material":3,"mode":4},{"attributes":{"POSITION":12,"TEXCOORD_0":13},"indices":14,"material":4,"mode":4},{"attributes":{"POSITION":15,"TEXCOORD_0":16},"indices":17,"material":5,"mode":4},{"attributes":{"POSITION":18,"TEXCOORD_0":19},"indices":20,"material":6,"mode":4},{"attributes":{"POSITION":21,"TEXCOORD_0":22},"indices":23,"material":7,"mode":4},{"attributes":{"POSITION":24,"TEXCOORD_0":25},"indices":26,"material":8,"mode":4},{"attributes":{"POSITION":27,"TEXCOORD_0":28},"indices":29,"material":9,"mode":4},{"attributes":{"POSITION":30,"TEXCOORD_0":31},"indices":32,"material":10,"mode":4}]}],"nodes":[{"name":"doble","mesh":0}],"samplers":[{"wrapS":10497,"wrapT":10497}],"scene":0,"scenes":[{"nodes":[0]}],"textures":[{"name":"doble_1_0","sampler":0,"source":0},{"name":"doble_1_1","sampler":0,"source":1},{"name":"doble_1_2","sampler":0,"source":2},{"name":"doble_1_3","sampler":0,"source":3},{"name":"doble_1_4","sampler":0,"source":4},{"name":"doble_1_5","sampler":0,"source":5},{"name":"doble_1_6","sampler":0,"source":6},{"name":"doble_1_7","sampler":0,"source":7},{"name":"doble_1_8","sampler":0,"source":8},{"name":"doble_1_9","sampler":0,"source":9},{"name":"doble_1_10","sampler":0,"source":10}]}