{"accessors":[{"name":"balkie-Mesh_0_positions","componentType":5126,"count":58,"min":[-1.8993500471115112,-1.1412099599838257,-3.6187798976898193],"max":[1.3400499820709229,1.0140999555587769,-0.30873599648475647],"type":"VEC3","bufferView":0,"byteOffset":0},{"name":"balkie-Mesh_0_texcoords","componentType":5126,"count":58,"min":[0,-0.3177100121974945],"max":[1,1],"type":"VEC2","bufferView":1,"byteOffset":0},{"name":"balkie-Mesh_0_indices","componentType":5123,"count":192,"min":[0],"max":[57],"type":"SCALAR","bufferView":2,"byteOffset":0},{"name":"balkie-Mesh_1_positions","componentType":5126,"count":296,"min":[-2.68789005279541,-1.2358700037002563,-6.5218400955200195],"max":[1.5500400066375732,2.3518500328063965,-0.30873599648475647],"type":"VEC3","bufferView":0,"byteOffset":696},{"name":"balkie-Mesh_1_texcoords","componentType":5126,"count":296,"min":[-0.05466499924659729,0],"max":[1,1.34375],"type":"VEC2","bufferView":1,"byteOffset":464},{"name":"balkie-Mesh_1_indices","componentType":5123,"count":1143,"min":[0],"max":[295],"type":"SCALAR","bufferView":2,"byteOffset":384},{"name":"balkie-Mesh_2_positions","componentType":5126,"count":48,"min":[-1.659500002861023,-0.37975698709487915,-5.438079833984375],"max":[0.771094024181366,1.6932899951934814,-3.696460008621216],"type":"VEC3","bufferView":0,"byteOffset":4248},{"name":"balkie-Mesh_2_texcoords","componentType":5126,"count":48,"min":[-0.27632200717926025,-0.2621900141239166],"max":[1.2278399467468262,1.3437000513076782],"type":"VEC2","bufferView":1,"byteOffset":2832},{"name":"balkie-Mesh_2_indices","componentType":5123,"count":219,"min":[0],"max":[47],"type":"SCALAR","bufferView":2,"byteOffset":2672},{"name":"balkie-Mesh_3_positions","componentType":5126,"count":10,"min":[-1.2591099739074707,1.3477100133895874,-5.268129825592041],"max":[0.34851300716400146,1.9796899557113647,-4.25423002243042],"type":"VEC3","bufferView":0,"byteOffset":4824},{"name":"balkie-Mesh_3_texcoords","componentType":5126,"count":10,"min":[-0.04785199835896492,-0.18358999490737915],"max":[0.15000000596046448,1.0546879768371582],"type":"VEC2","bufferView":1,"byteOffset":3216},{"name":"balkie-Mesh_3_indices","componentType":5123,"count":24,"min":[0],"max":[9],"type":"SCALAR","bufferView":2,"byteOffset":3112},{"name":"balkie-Mesh_4_positions","componentType":5126,"count":6,"min":[-1.1344499588012695,1.5897400379180908,-4.351079940795898],"max":[0.282043993473053,1.9796899557113647,-3.8762800693511963],"type":"VEC3","bufferView":0,"byteOffset":4944},{"name":"balkie-Mesh_4_texcoords","componentType":5126,"count":6,"min":[-0.0019529999699443579,-0.03125],"max":[0.23925800621509552,1.2109379768371582],"type":"VEC2","bufferView":1,"byteOffset":3296},{"name":"balkie-Mesh_4_indices","componentType":5123,"count":12,"min":[0],"max":[5],"type":"SCALAR","bufferView":2,"byteOffset":3160},{"name":"balkie-Mesh_5_positions","componentType":5126,"count":125,"min":[-2.163029909133911,-1.5084099769592285,-2.4332199096679688],"max":[1.496359944343567,1.9459400177001953,0.035319000482559204],"type":"VEC3","bufferView":0,"byteOffset":5016},{"name":"balkie-Mesh_5_texcoords","componentType":5126,"count":125,"min":[0.3392849862575531,0.6302440166473389],"max":[0.7003179788589478,1],"type":"VEC2","bufferView":1,"byteOffset":3344},{"name":"balkie-Mesh_5_indices","componentType":5123,"count":504,"min":[0],"max":[124],"type":"SCALAR","bufferView":2,"byteOffset":3184}],"asset":{"generator":"obj2gltf","version":"2.0"},"buffers":[{"name":"BR_Tyrogue-Shiny01","byteLength":162744,"uri":"data:application/octet-stream;base64,"}],"bufferViews":[{"name":"bufferView_0","buffer":0,"byteLength":6516,"byteOffset":0,"byteStride":12,"target":34962},{"name":"bufferView_1","buffer":0,"byteLength":4344,"byteOffset":6516,"byteStride":8,"target":34962},{"name":"bufferView_2","buffer":0,"byteLength":4192,"byteOffset":10860,"target":34963},{"buffer":0,"byteOffset":15052,"byteLength":8210},{"buffer":0,"byteOffset":23262,"byteLength":82},{"buffer":0,"byteOffset":23344,"byteLength":8210},{"buffer":0,"byteOffset":31554,"byteLength":65554},{"buffer":0,"byteOffset":97108,"byteLength":65554},{"buffer":0,"byteOffset":162662,"byteLength":82}],"images":[{"name":"balkie_1_0","mimeType":"image/x-tga","bufferView":3},{"name":"balkie_1_1","mimeType":"image/x-tga","bufferView":4},{"name":"balkie_1_2","mimeType":"image/x-tga","bufferView":5},{"name":"balkie_1_3","mimeType":"image/x-tga","bufferView":6},{"name":"balkie_1_4","mimeType":"image/x-tga","bufferView":7},{"name":"balkie_1_5","mimeType":"image/x-tga","bufferView":8}],"materials":[{"name":"mat_0","pbrMetallicRoughness":{"baseColorTexture":{"index":0},"baseColorFactor":[1,1,1,1],"metallicFactor":0,"roughnessFactor":0.903921569},"emissiveFactor":[0,0,0],"alphaMode":"BLEND","doubleSided":true},{"name":"mat_1","pbrMetallicRoughness":{"baseColorTexture":{"index":1},"baseColorFactor":[1,1,1,1],"metallicFactor":0,"roughnessFactor":0.903921569},"emissiveFactor":[0,0,0],"alphaMode":"BLEND","doubleSided":true},{"name":"mat_2","pbrMetallicRoughness":{"baseColorTexture":{"index":2},"baseColorFactor":[1,1,1,1],"metallicFactor":0,"roughnessFactor":0.903921569},"emissiveFactor":[0,0,0],"alphaMode":"BLEND","doubleSided":true},{"name":"mat_3","pbrMetallicRoughness":{"baseColorTexture":{"index":3},"baseColorFactor":[1,1,1,1],"metallicFactor":0,"roughnessFactor":0.903921569},"emissiveFactor":[0,0,0],"alphaMode":"BLEND","doubleSided":true},{"name":"mat_4","pbrMetallicRoughness":{"baseColorTexture":{"index":4},"baseColorFactor":[1,1,1,1],"metallicFactor":0,"roughnessFactor":0.903921569},"emissiveFactor":[0,0,0],"alphaMode":"BLEND","doubleSided":true},{"name":"mat_5","pbrMetallicRoughness":{"baseColorTexture":{"index":5},"baseColorFactor":[1,1,1,1],"metallicFactor":0,"roughnessFactor":0.903921569},"emissiveFactor":[0,0,0],"alphaMode":"BLEND","doubleSided":true}],"meshes":[{"name":"balkie-Mesh","primitives":[{"attributes":{"POSITION":0,"TEXCOORD_0":1},"indices":2,"material":0,"mode":4},{"attributes":{"POSITION":3,"TEXCOORD_0":4},"indices":5,"material":1,"mode":4},{"attributes":{"POSITION":6,"TEXCOORD_0":7},"indices":8,"material":2,"mode":4},{"attributes":{"POSITION":9,"TEXCOORD_0":10},"indices":11,"material":3,"mode":4},{"attributes":{"POSITION":12,"TEXCOORD_0":13},"indices":14,"material":4,"mode":4},{"attributes":{"POSITION":15,"TEXCOORD_0":16},"indices":17,"material":5,"mode":4}]}],"nodes":[{"name":"balkie","mesh":0}],"samplers":[{"wrapS":10497,"wrapT":10497}],"scene":0,"scenes":[{"nodes":[0]}],"textures":[{"name":"balkie_1_0","sampler":0,"source":0},{"name":"balkie_1_1","sampler":0,"source":1},{"name":"balkie_1_2","sampler":0,"source":2},{"name":"balkie_1_3","sampler":0,"source":3},{"name":"balkie_1_4","sampler":0,"source":4},{"name":"balkie_1_5","sampler":0,"source":5}]}