{"accessors":[{"name":"Tyrogue_1_0_positions","componentType":5126,"count":96,"min":[-5.24006986618042,41.30610275268555,6.854991912841797],"max":[5.240029811859131,46.8126220703125,13.423701286315918],"type":"VEC3","bufferView":0,"byteOffset":0},{"name":"Tyrogue_1_0_normals","componentType":5126,"count":96,"min":[-0.3723670244216919,-0.9635153412818909,0.2668539583683014],"max":[0.16620197892189026,-0.6789170503616333,0.6839158535003662],"type":"VEC3","bufferView":1,"byteOffset":0},{"name":"Tyrogue_1_0_texcoords","componentType":5126,"count":96,"min":[0.09467600286006927,-1.9948500394821167],"max":[0.4053199887275696,-1.7544100284576416],"type":"VEC2","bufferView":2,"byteOffset":0},{"name":"Tyrogue_1_0_indices","componentType":5123,"count":96,"min":[0],"max":[95],"type":"SCALAR","bufferView":3,"byteOffset":0},{"name":"Tyrogue_1_1_positions","componentType":5126,"count":12276,"min":[-35.21269989013672,-0.000015999999959603883,-12.67490291595459],"max":[35.21270751953125,69.81310272216797,13.463796615600586],"type":"VEC3","bufferView":0,"byteOffset":1152},{"name":"Tyrogue_1_1_normals","componentType":5126,"count":12276,"min":[-0.9964184165000916,-0.9993232488632202,-0.9995009303092957],"max":[0.9964183568954468,0.9915104508399963,0.9862201809883118],"type":"VEC3","bufferView":1,"byteOffset":1152},{"name":"Tyrogue_1_1_texcoords","componentType":5126,"count":12276,"min":[0,0.0039059999398887157],"max":[1,0.9960939884185791],"type":"VEC2","bufferView":2,"byteOffset":768},{"name":"Tyrogue_1_1_indices","componentType":5123,"count":12276,"min":[0],"max":[12275],"type":"SCALAR","bufferView":3,"byteOffset":192},{"name":"Tyrogue_1_2_positions","componentType":5126,"count":192,"min":[-9.65108871459961,46.62820053100586,7.144416809082031],"max":[9.651032447814941,55.80253601074219,13.456899642944336],"type":"VEC3","bufferView":0,"byteOffset":148464},{"name":"Tyrogue_1_2_normals","componentType":5126,"count":192,"min":[-0.19369596242904663,-0.9993231892585754,-0.6559780240058899],"max":[0.9913172125816345,0.004176000598818064,0.7785954475402832],"type":"VEC3","bufferView":1,"byteOffset":148464},{"name":"Tyrogue_1_2_texcoords","componentType":5126,"count":192,"min":[0.00792699959129095,-0.9905099868774414],"max":[0.4920699894428253,-0.7595800161361694],"type":"VEC2","bufferView":2,"byteOffset":98976},{"name":"Tyrogue_1_2_indices","componentType":5123,"count":192,"min":[0],"max":[191],"type":"SCALAR","bufferView":3,"byteOffset":24744},{"name":"Tyrogue_1_3_positions","componentType":5126,"count":192,"min":[-9.717508316040039,46.627105712890625,7.2090678215026855],"max":[9.717451095581055,55.8513298034668,13.556596755981445],"type":"VEC3","bufferView":0,"byteOffset":150768},{"name":"Tyrogue_1_3_normals","componentType":5126,"count":192,"min":[-0.000004000000444648322,-0.03159199655056,-0.9995008707046509],"max":[0.7769970893859863,0.9915100336074829,0.5154502987861633],"type":"VEC3","bufferView":1,"byteOffset":150768},{"name":"Tyrogue_1_3_texcoords","componentType":5126,"count":192,"min":[0.0317079983651638,-1.9620399475097656],"max":[1,-1.0383199453353882],"type":"VEC2","bufferView":2,"byteOffset":100512},{"name":"Tyrogue_1_3_indices","componentType":5123,"count":192,"min":[0],"max":[191],"type":"SCALAR","bufferView":3,"byteOffset":25128}],"asset":{"generator":"obj2gltf","version":"2.0"},"buffers":[{"name":"XY_Tyrogue","byteLength":532184,"uri":"data:application/octet-stream;base64,"}],"bufferViews":[{"name":"bufferView_0","buffer":0,"byteLength":153072,"byteOffset":0,"byteStride":12,"target":34962},{"name":"bufferView_1","buffer":0,"byteLength":153072,"byteOffset":153072,"byteStride":12,"target":34962},{"name":"bufferView_2","buffer":0,"byteLength":102048,"byteOffset":306144,"byteStride":8,"target":34962},{"name":"bufferView_3","buffer":0,"byteLength":25512,"byteOffset":408192,"target":34963},{"buffer":0,"byteOffset":433704,"byteLength":16544},{"buffer":0,"byteOffset":450248,"byteLength":49543},{"buffer":0,"byteOffset":499791,"byteLength":30860},{"buffer":0,"byteOffset":530651,"byteLength":1533}],"images":[{"name":"pm0236_00_Mouth1","mimeType":"image/png","bufferView":4},{"name":"pm0236_00_Body1","mimeType":"image/png","bufferView":5},{"name":"pm0236_00_Eye1","mimeType":"image/png","bufferView":6},{"name":"pm0236_00_Iris1","mimeType":"image/png","bufferView":7}],"materials":[{"name":"Material__177","pbrMetallicRoughness":{"baseColorTexture":{"index":0},"baseColorFactor":[1,1,1,1],"metallicFactor":0,"roughnessFactor":0.998},"emissiveFactor":[0,0,0],"alphaMode":"OPAQUE","doubleSided":false},{"name":"Material__178","pbrMetallicRoughness":{"baseColorTexture":{"index":1},"baseColorFactor":[1,1,1,1],"metallicFactor":0,"roughnessFactor":0.998},"emissiveFactor":[0,0,0],"alphaMode":"OPAQUE","doubleSided":false},{"name":"Material__179","pbrMetallicRoughness":{"baseColorTexture":{"index":2},"baseColorFactor":[1,1,1,1],"metallicFactor":0,"roughnessFactor":0.998},"emissiveFactor":[0,0,0],"alphaMode":"OPAQUE","doubleSided":false},{"name":"Material__180","pbrMetallicRoughness":{"baseColorTexture":{"index":3},"baseColorFactor":[1,1,1,1],"metallicFactor":0,"roughnessFactor":0.998},"emissiveFactor":[0,0,0],"alphaMode":"OPAQUE","doubleSided":false}],"meshes":[{"name":"Tyrogue_1","primitives":[{"attributes":{"POSITION":0,"NORMAL":1,"TEXCOORD_0":2},"indices":3,"material":0,"mode":4},{"attributes":{"POSITION":4,"NORMAL":5,"TEXCOORD_0":6},"indices":7,"material":1,"mode":4},{"attributes":{"POSITION":8,"NORMAL":9,"TEXCOORD_0":10},"indices":11,"material":2,"mode":4},{"attributes":{"POSITION":12,"NORMAL":13,"TEXCOORD_0":14},"indices":15,"material":3,"mode":4}]}],"nodes":[{"name":"Tyrogue","mesh":0}],"samplers":[{"wrapS":10497,"wrapT":10497}],"scene":0,"scenes":[{"nodes":[0]}],"textures":[{"name":"pm0236_00_Mouth1","sampler":0,"source":0},{"name":"pm0236_00_Body1","sampler":0,"source":1},{"name":"pm0236_00_Eye1","sampler":0,"source":2},{"name":"pm0236_00_Iris1","sampler":0,"source":3}]}