{"accessors":[{"name":"polygon0_1_0_positions","componentType":5126,"count":17,"min":[-2.254041910171509,9.986530303955078,3.320966958999634],"max":[2.254041910171509,11.787010192871094,4.310066223144531],"type":"VEC3","bufferView":0,"byteOffset":0},{"name":"polygon0_1_0_normals","componentType":5126,"count":17,"min":[-0.6159636974334717,-0.1296379268169403,0.77703458070755],"max":[0.6159636974334717,0.33568817377090454,0.9994363784790039],"type":"VEC3","bufferView":1,"byteOffset":0},{"name":"polygon0_1_0_texcoords","componentType":5126,"count":17,"min":[-0.9706419706344604,0.024109000340104103],"max":[-0.56597900390625,0.16851800680160522],"type":"VEC2","bufferView":2,"byteOffset":0},{"name":"polygon0_1_0_indices","componentType":5123,"count":54,"min":[0],"max":[16],"type":"SCALAR","bufferView":3,"byteOffset":0},{"name":"polygon1_1_0_positions","componentType":5126,"count":989,"min":[-7.61711311340332,-0.2559869885444641,-7.552346229553223],"max":[7.61711311340332,15.660656929016113,4.163607120513916],"type":"VEC3","bufferView":0,"byteOffset":204},{"name":"polygon1_1_0_normals","componentType":5126,"count":989,"min":[-1,-1,-1],"max":[1,1,1],"type":"VEC3","bufferView":1,"byteOffset":204},{"name":"polygon1_1_0_texcoords","componentType":5126,"count":989,"min":[0.012237999588251114,0.014374000020325184],"max":[0.9896240234375,0.9926450252532959],"type":"VEC2","bufferView":2,"byteOffset":136},{"name":"polygon1_1_0_indices","componentType":5123,"count":4620,"min":[0],"max":[988],"type":"SCALAR","bufferView":3,"byteOffset":108},{"name":"polygon2_1_0_positions","componentType":5126,"count":15,"min":[-2.254041910171509,8.715641975402832,2.9169139862060547],"max":[2.254041910171509,9.986532211303711,4.310066223144531],"type":"VEC3","bufferView":0,"byteOffset":12072},{"name":"polygon2_1_0_normals","componentType":5126,"count":15,"min":[-0.6159636974334717,-0.854983389377594,0.42027807235717773],"max":[0.6159636974334717,-0.06207403540611267,0.998071551322937],"type":"VEC3","bufferView":1,"byteOffset":12072},{"name":"polygon2_1_0_texcoords","componentType":5126,"count":15,"min":[-1.9658199548721313,0.01855500042438507],"max":[-1.1556400060653687,0.1436769962310791],"type":"VEC2","bufferView":2,"byteOffset":8048},{"name":"polygon2_1_0_indices","componentType":5123,"count":48,"min":[0],"max":[14],"type":"SCALAR","bufferView":3,"byteOffset":9348}],"asset":{"generator":"obj2gltf","version":"2.0"},"buffers":[{"name":"Hitmontop","byteLength":386236,"uri":"data:application/octet-stream;base64,"}],"bufferViews":[{"name":"bufferView_0","buffer":0,"byteLength":12252,"byteOffset":0,"byteStride":12,"target":34962},{"name":"bufferView_1","buffer":0,"byteLength":12252,"byteOffset":12252,"byteStride":12,"target":34962},{"name":"bufferView_2","buffer":0,"byteLength":8168,"byteOffset":24504,"byteStride":8,"target":34962},{"name":"bufferView_3","buffer":0,"byteLength":9444,"byteOffset":32672,"target":34963},{"buffer":0,"byteOffset":42116,"byteLength":98322},{"buffer":0,"byteOffset":140438,"byteLength":196626},{"buffer":0,"byteOffset":337064,"byteLength":49170}],"images":[{"name":"KapoererEyeDh","mimeType":"image/x-tga","bufferView":4},{"name":"KapoererDh","mimeType":"image/x-tga","bufferView":5},{"name":"KapoererMouthDh","mimeType":"image/x-tga","bufferView":6}],"materials":[{"name":"mat2","pbrMetallicRoughness":{"baseColorTexture":{"index":0},"baseColorFactor":[1,1,1,1],"metallicFactor":0,"roughnessFactor":0.99},"emissiveFactor":[0,0,0],"alphaMode":"OPAQUE","doubleSided":false},{"name":"mat1","pbrMetallicRoughness":{"baseColorTexture":{"index":1},"baseColorFactor":[1,1,1,1],"metallicFactor":0,"roughnessFactor":0.99},"emissiveFactor":[0,0,0],"alphaMode":"OPAQUE","doubleSided":false},{"name":"mat3","pbrMetallicRoughness":{"baseColorTexture":{"index":2},"baseColorFactor":[1,1,1,1],"metallicFactor":0,"roughnessFactor":0.99},"emissiveFactor":[0,0,0],"alphaMode":"OPAQUE","doubleSided":false}],"meshes":[{"name":"polygon0_1","primitives":[{"attributes":{"POSITION":0,"NORMAL":1,"TEXCOORD_0":2},"indices":3,"material":0,"mode":4}]},{"name":"polygon1_1","primitives":[{"attributes":{"POSITION":4,"NORMAL":5,"TEXCOORD_0":6},"indices":7,"material":1,"mode":4}]},{"name":"polygon2_1","primitives":[{"attributes":{"POSITION":8,"NORMAL":9,"TEXCOORD_0":10},"indices":11,"material":2,"mode":4}]}],"nodes":[{"name":"polygon0","mesh":0},{"name":"polygon1","mesh":1},{"name":"polygon2","mesh":2}],"samplers":[{"wrapS":10497,"wrapT":10497}],"scene":0,"scenes":[{"nodes":[0,1,2]}],"textures":[{"name":"KapoererEyeDh","sampler":0,"source":0},{"name":"KapoererDh","sampler":0,"source":1},{"name":"KapoererMouthDh","sampler":0,"source":2}]}