{"accessors":[{"name":"polygon0_1_0_positions","componentType":5126,"count":970,"min":[-1.844897985458374,0,-1.8133070468902588],"max":[1.8448970317840576,4.706674098968506,1.4079669713974],"type":"VEC3","bufferView":0,"byteOffset":0},{"name":"polygon0_1_0_normals","componentType":5126,"count":970,"min":[-0.9995067715644836,-0.9996058344841003,-0.9978918433189392],"max":[0.9995067715644836,0.9998465776443481,0.9996176958084106],"type":"VEC3","bufferView":1,"byteOffset":0},{"name":"polygon0_1_0_texcoords","componentType":5126,"count":970,"min":[0.006804999895393848,0.009612999856472015],"max":[0.987030029296875,0.9927369952201843],"type":"VEC2","bufferView":2,"byteOffset":0},{"name":"polygon0_1_0_indices","componentType":5123,"count":4590,"min":[0],"max":[969],"type":"SCALAR","bufferView":3,"byteOffset":0},{"name":"polygon2_1_0_positions","componentType":5126,"count":24,"min":[-0.9867709875106812,2.241101026535034,0.8165040016174316],"max":[0.9867709875106812,3.001832962036133,1.2329280376434326],"type":"VEC3","bufferView":0,"byteOffset":11640},{"name":"polygon2_1_0_normals","componentType":5126,"count":24,"min":[-0.7359030842781067,-0.18713095784187317,0.6127240657806396],"max":[0.7359030842781067,0.40447506308555603,0.9729188084602356],"type":"VEC3","bufferView":1,"byteOffset":11640},{"name":"polygon2_1_0_texcoords","componentType":5126,"count":24,"min":[-0.9948729872703552,0.012145999819040298],"max":[-0.5064089894294739,0.23834200203418732],"type":"VEC2","bufferView":2,"byteOffset":7760},{"name":"polygon2_1_0_indices","componentType":5123,"count":72,"min":[0],"max":[23],"type":"SCALAR","bufferView":3,"byteOffset":9180}],"asset":{"generator":"obj2gltf","version":"2.0"},"buffers":[{"name":"Smoochum","byteLength":336080,"uri":"data:application/octet-stream;base64,"}],"bufferViews":[{"name":"bufferView_0","buffer":0,"byteLength":11928,"byteOffset":0,"byteStride":12,"target":34962},{"name":"bufferView_1","buffer":0,"byteLength":11928,"byteOffset":11928,"byteStride":12,"target":34962},{"name":"bufferView_2","buffer":0,"byteLength":7952,"byteOffset":23856,"byteStride":8,"target":34962},{"name":"bufferView_3","buffer":0,"byteLength":9324,"byteOffset":31808,"target":34963},{"buffer":0,"byteOffset":41132,"byteLength":196626},{"buffer":0,"byteOffset":237758,"byteLength":98322}],"images":[{"name":"MuchulDh","mimeType":"image/x-tga","bufferView":4},{"name":"MuchulEyeDh","mimeType":"image/x-tga","bufferView":5}],"materials":[{"name":"mat1","pbrMetallicRoughness":{"baseColorTexture":{"index":0},"baseColorFactor":[1,1,1,1],"metallicFactor":0,"roughnessFactor":0.99},"emissiveFactor":[0,0,0],"alphaMode":"OPAQUE","doubleSided":false},{"name":"mat2","pbrMetallicRoughness":{"baseColorTexture":{"index":1},"baseColorFactor":[1,1,1,1],"metallicFactor":0,"roughnessFactor":0.99},"emissiveFactor":[0,0,0],"alphaMode":"OPAQUE","doubleSided":false}],"meshes":[{"name":"polygon0_1","primitives":[{"attributes":{"POSITION":0,"NORMAL":1,"TEXCOORD_0":2},"indices":3,"material":0,"mode":4}]},{"name":"polygon2_1","primitives":[{"attributes":{"POSITION":4,"NORMAL":5,"TEXCOORD_0":6},"indices":7,"material":1,"mode":4}]}],"nodes":[{"name":"polygon0","mesh":0},{"name":"polygon2","mesh":1}],"samplers":[{"wrapS":10497,"wrapT":10497}],"scene":0,"scenes":[{"nodes":[0,1]}],"textures":[{"name":"MuchulDh","sampler":0,"source":0},{"name":"MuchulEyeDh","sampler":0,"source":1}]}