{"accessors":[{"name":"polygon0_1_0_positions","componentType":5126,"count":10,"min":[-0.5838320255279541,2.780492067337036,1.3564260005950928],"max":[0.5838310122489929,3.4200119972229004,1.5420299768447876],"type":"VEC3","bufferView":0,"byteOffset":0},{"name":"polygon0_1_0_normals","componentType":5126,"count":10,"min":[-0.3836740255355835,0.08081302046775818,0.9006865620613098],"max":[0.3836740255355835,0.32788610458374023,0.9967292547225952],"type":"VEC3","bufferView":1,"byteOffset":0},{"name":"polygon0_1_0_texcoords","componentType":5126,"count":10,"min":[0.16674800217151642,-0.0062870001420378685],"max":[0.91143798828125,0.20782500505447388],"type":"VEC2","bufferView":2,"byteOffset":0},{"name":"polygon0_1_0_indices","componentType":5123,"count":30,"min":[0],"max":[9],"type":"SCALAR","bufferView":3,"byteOffset":0},{"name":"polygon1_1_0_positions","componentType":5126,"count":1049,"min":[-4.430795192718506,0.007987000048160553,-1.5449930429458618],"max":[4.430788040161133,6.017549991607666,1.5449930429458618],"type":"VEC3","bufferView":0,"byteOffset":120},{"name":"polygon1_1_0_normals","componentType":5126,"count":1049,"min":[-1,-1,-0.9999918341636658],"max":[1,1,0.9999918341636658],"type":"VEC3","bufferView":1,"byteOffset":120},{"name":"polygon1_1_0_texcoords","componentType":5126,"count":1049,"min":[0.017090000212192535,0.013031000271439552],"max":[0.9863280057907104,0.9831240177154541],"type":"VEC2","bufferView":2,"byteOffset":80},{"name":"polygon1_1_0_indices","componentType":5123,"count":4560,"min":[0],"max":[1048],"type":"SCALAR","bufferView":3,"byteOffset":60},{"name":"polygon2_1_0_positions","componentType":5126,"count":33,"min":[-1.0650850534439087,3.027261972427368,0.8541319966316223],"max":[1.0650850534439087,3.7723329067230225,1.3919910192489624],"type":"VEC3","bufferView":0,"byteOffset":12708},{"name":"polygon2_1_0_normals","componentType":5126,"count":33,"min":[-0.6916442513465881,0.17608806490898132,0.556645929813385],"max":[0.6916442513465881,0.5851460099220276,0.944717288017273],"type":"VEC3","bufferView":1,"byteOffset":12708},{"name":"polygon2_1_0_texcoords","componentType":5126,"count":33,"min":[-0.022338999435305595,0.07055699825286865],"max":[0.56939697265625,0.3268429934978485],"type":"VEC2","bufferView":2,"byteOffset":8472},{"name":"polygon2_1_0_indices","componentType":5123,"count":132,"min":[0],"max":[32],"type":"SCALAR","bufferView":3,"byteOffset":9180},{"name":"polygon3_1_0_positions","componentType":5126,"count":4,"min":[-1.990190029144287,4.0450310707092285,0],"max":[1.990190029144287,6.853600978851318,0],"type":"VEC3","bufferView":0,"byteOffset":13104},{"name":"polygon3_1_0_normals","componentType":5126,"count":4,"min":[0,0,1],"max":[0,0,1],"type":"VEC3","bufferView":1,"byteOffset":13104},{"name":"polygon3_1_0_texcoords","componentType":5126,"count":4,"min":[0.018005000427365303,0.006775000132620335],"max":[0.9866330027580261,0.13116499781608582],"type":"VEC2","bufferView":2,"byteOffset":8736},{"name":"polygon3_1_0_indices","componentType":5123,"count":6,"min":[0],"max":[3],"type":"SCALAR","bufferView":3,"byteOffset":9444}],"asset":{"generator":"obj2gltf","version":"2.0"},"buffers":[{"name":"Elekid","byteLength":519736,"uri":"data:application/octet-stream;base64,"}],"bufferViews":[{"name":"bufferView_0","buffer":0,"byteLength":13152,"byteOffset":0,"byteStride":12,"target":34962},{"name":"bufferView_1","buffer":0,"byteLength":13152,"byteOffset":13152,"byteStride":12,"target":34962},{"name":"bufferView_2","buffer":0,"byteLength":8768,"byteOffset":26304,"byteStride":8,"target":34962},{"name":"bufferView_3","buffer":0,"byteLength":9456,"byteOffset":35072,"target":34963},{"buffer":0,"byteOffset":44528,"byteLength":49170},{"buffer":0,"byteOffset":93698,"byteLength":196626},{"buffer":0,"byteOffset":290324,"byteLength":98322},{"buffer":0,"byteOffset":388646,"byteLength":131090}],"images":[{"name":"ElekidMouthDh","mimeType":"image/x-tga","bufferView":4},{"name":"ElekidDh","mimeType":"image/x-tga","bufferView":5},{"name":"ElekidEyeDh","mimeType":"image/x-tga","bufferView":6},{"name":"ElekidEffectDh","mimeType":"image/x-tga","bufferView":7}],"materials":[{"name":"mat4","pbrMetallicRoughness":{"baseColorTexture":{"index":0},"baseColorFactor":[1,1,1,1],"metallicFactor":0,"roughnessFactor":0.99},"emissiveFactor":[0,0,0],"alphaMode":"OPAQUE","doubleSided":false},{"name":"mat1","pbrMetallicRoughness":{"baseColorTexture":{"index":1},"baseColorFactor":[1,1,1,1],"metallicFactor":0,"roughnessFactor":0.99},"emissiveFactor":[0,0,0],"alphaMode":"OPAQUE","doubleSided":false},{"name":"mat3","pbrMetallicRoughness":{"baseColorTexture":{"index":2},"baseColorFactor":[1,1,1,1],"metallicFactor":0,"roughnessFactor":0.99},"emissiveFactor":[0,0,0],"alphaMode":"OPAQUE","doubleSided":false},{"name":"mat2","pbrMetallicRoughness":{"baseColorTexture":{"index":3},"baseColorFactor":[1,1,1,1],"metallicFactor":0,"roughnessFactor":0.99},"emissiveFactor":[0,0,0],"alphaMode":"OPAQUE","doubleSided":false}],"meshes":[{"name":"polygon0_1","primitives":[{"attributes":{"POSITION":0,"NORMAL":1,"TEXCOORD_0":2},"indices":3,"material":0,"mode":4}]},{"name":"polygon1_1","primitives":[{"attributes":{"POSITION":4,"NORMAL":5,"TEXCOORD_0":6},"indices":7,"material":1,"mode":4}]},{"name":"polygon2_1","primitives":[{"attributes":{"POSITION":8,"NORMAL":9,"TEXCOORD_0":10},"indices":11,"material":2,"mode":4}]},{"name":"polygon3_1","primitives":[{"attributes":{"POSITION":12,"NORMAL":13,"TEXCOORD_0":14},"indices":15,"material":3,"mode":4}]}],"nodes":[{"name":"polygon0","mesh":0},{"name":"polygon1","mesh":1},{"name":"polygon2","mesh":2},{"name":"polygon3","mesh":3}],"samplers":[{"wrapS":10497,"wrapT":10497}],"scene":0,"scenes":[{"nodes":[0,1,2,3]}],"textures":[{"name":"ElekidMouthDh","sampler":0,"source":0},{"name":"ElekidDh","sampler":0,"source":1},{"name":"ElekidEyeDh","sampler":0,"source":2},{"name":"ElekidEffectDh","sampler":0,"source":3}]}