{"accessors":[{"name":"polygon0_1_0_positions","componentType":5126,"count":22,"min":[-0.8557360172271729,4.188075065612793,1.1922600269317627],"max":[0.8557350039482117,5.273650169372559,1.539033055305481],"type":"VEC3","bufferView":0,"byteOffset":0},{"name":"polygon0_1_0_normals","componentType":5126,"count":22,"min":[-0.7793188691139221,-0.5833099484443665,0.6262378692626953],"max":[0.7793188691139221,0.4704667925834656,0.9784890413284302],"type":"VEC3","bufferView":1,"byteOffset":0},{"name":"polygon0_1_0_texcoords","componentType":5126,"count":22,"min":[0.140625,0.03515600040555],"max":[0.4140630066394806,0.2851560115814209],"type":"VEC2","bufferView":2,"byteOffset":0},{"name":"polygon0_1_0_indices","componentType":5123,"count":60,"min":[0],"max":[21],"type":"SCALAR","bufferView":3,"byteOffset":0},{"name":"polygon1_1_0_positions","componentType":5126,"count":882,"min":[-2.5864689350128174,-0.02543799951672554,-2.7914578914642334],"max":[2.586467981338501,7.174715042114258,2.1434359550476074],"type":"VEC3","bufferView":0,"byteOffset":264},{"name":"polygon1_1_0_normals","componentType":5126,"count":882,"min":[-0.999876856803894,-0.9999998807907104,-0.999966561794281],"max":[0.999876856803894,0.9948788285255432,0.9985422492027283],"type":"VEC3","bufferView":1,"byteOffset":264},{"name":"polygon1_1_0_texcoords","componentType":5126,"count":882,"min":[0.003570999950170517,0.00824000034481287],"max":[0.9909970164299011,0.9931340217590332],"type":"VEC2","bufferView":2,"byteOffset":176},{"name":"polygon1_1_0_indices","componentType":5123,"count":4482,"min":[0],"max":[881],"type":"SCALAR","bufferView":3,"byteOffset":120}],"asset":{"generator":"obj2gltf","version":"2.0"},"buffers":[{"name":"Magby","byteLength":332960,"uri":"data:application/octet-stream;base64,"}],"bufferViews":[{"name":"bufferView_0","buffer":0,"byteLength":10848,"byteOffset":0,"byteStride":12,"target":34962},{"name":"bufferView_1","buffer":0,"byteLength":10848,"byteOffset":10848,"byteStride":12,"target":34962},{"name":"bufferView_2","buffer":0,"byteLength":7232,"byteOffset":21696,"byteStride":8,"target":34962},{"name":"bufferView_3","buffer":0,"byteLength":9084,"byteOffset":28928,"target":34963},{"buffer":0,"byteOffset":38012,"byteLength":98322},{"buffer":0,"byteOffset":136334,"byteLength":196626}],"images":[{"name":"BubyEyeDh","mimeType":"image/x-tga","bufferView":4},{"name":"BubyDh","mimeType":"image/x-tga","bufferView":5}],"materials":[{"name":"mat2","pbrMetallicRoughness":{"baseColorTexture":{"index":0},"baseColorFactor":[1,1,1,1],"metallicFactor":0,"roughnessFactor":0.99},"emissiveFactor":[0,0,0],"alphaMode":"OPAQUE","doubleSided":false},{"name":"mat1","pbrMetallicRoughness":{"baseColorTexture":{"index":1},"baseColorFactor":[1,1,1,1],"metallicFactor":0,"roughnessFactor":0.99},"emissiveFactor":[0,0,0],"alphaMode":"OPAQUE","doubleSided":false}],"meshes":[{"name":"polygon0_1","primitives":[{"attributes":{"POSITION":0,"NORMAL":1,"TEXCOORD_0":2},"indices":3,"material":0,"mode":4}]},{"name":"polygon1_1","primitives":[{"attributes":{"POSITION":4,"NORMAL":5,"TEXCOORD_0":6},"indices":7,"material":1,"mode":4}]}],"nodes":[{"name":"polygon0","mesh":0},{"name":"polygon1","mesh":1}],"samplers":[{"wrapS":10497,"wrapT":10497}],"scene":0,"scenes":[{"nodes":[0,1]}],"textures":[{"name":"BubyEyeDh","sampler":0,"source":0},{"name":"BubyDh","sampler":0,"source":1}]}