{"accessors":[{"name":"miltank-Mesh_0_positions","componentType":5126,"count":37,"min":[-2.9323530197143555,1.058019995689392,-6.60768985748291],"max":[2.9323570728302,2.9200000762939453,-3.5399999618530273],"type":"VEC3","bufferView":0,"byteOffset":0},{"name":"miltank-Mesh_0_texcoords","componentType":5126,"count":37,"min":[-0.04374999925494194,-0.0062500000931322575],"max":[1.2999999523162842,1],"type":"VEC2","bufferView":1,"byteOffset":0},{"name":"miltank-Mesh_0_indices","componentType":5123,"count":132,"min":[0],"max":[36],"type":"SCALAR","bufferView":2,"byteOffset":0},{"name":"miltank-Mesh_1_positions","componentType":5126,"count":200,"min":[-3.9200029373168945,-2.469965934753418,-8.854829788208008],"max":[3.919996976852417,2.746540069580078,-0.33774998784065247],"type":"VEC3","bufferView":0,"byteOffset":444},{"name":"miltank-Mesh_1_texcoords","componentType":5126,"count":200,"min":[0,0.22374500334262848],"max":[1.003119945526123,1.0555410385131836],"type":"VEC2","bufferView":1,"byteOffset":296},{"name":"miltank-Mesh_1_indices","componentType":5123,"count":633,"min":[0],"max":[199],"type":"SCALAR","bufferView":2,"byteOffset":264},{"name":"miltank-Mesh_2_positions","componentType":5126,"count":20,"min":[-2.070003032684326,-1.5999200344085693,-8.025989532470703],"max":[2.070007085800171,1.945180058479309,-6.3507399559021],"type":"VEC3","bufferView":0,"byteOffset":2844},{"name":"miltank-Mesh_2_texcoords","componentType":5126,"count":20,"min":[0,-0.4401000142097473],"max":[2.2552099227905273,0.875],"type":"VEC2","bufferView":1,"byteOffset":1896},{"name":"miltank-Mesh_2_indices","componentType":5123,"count":60,"min":[0],"max":[19],"type":"SCALAR","bufferView":2,"byteOffset":1532},{"name":"miltank-Mesh_3_positions","componentType":5126,"count":13,"min":[-0.0010270000202581286,-2.680299997329712,-7.031859874725342],"max":[3.106717109680176,-0.4938099980354309,-2.0866429805755615],"type":"VEC3","bufferView":0,"byteOffset":3084},{"name":"miltank-Mesh_3_texcoords","componentType":5126,"count":13,"min":[0,0],"max":[1,1],"type":"VEC2","bufferView":1,"byteOffset":2056},{"name":"miltank-Mesh_3_indices","componentType":5123,"count":39,"min":[0],"max":[12],"type":"SCALAR","bufferView":2,"byteOffset":1652},{"name":"miltank-Mesh_4_positions","componentType":5126,"count":34,"min":[-4.9456329345703125,0.30000001192092896,-6.260000228881836],"max":[4.945637226104736,1.5559699535369873,-4.920000076293945],"type":"VEC3","bufferView":0,"byteOffset":3240},{"name":"miltank-Mesh_4_texcoords","componentType":5126,"count":34,"min":[-0.5234379768371582,0.0039059999398887157],"max":[1.71875,1.0078129768371582],"type":"VEC2","bufferView":1,"byteOffset":2160},{"name":"miltank-Mesh_4_indices","componentType":5123,"count":114,"min":[0],"max":[33],"type":"SCALAR","bufferView":2,"byteOffset":1732},{"name":"miltank-Mesh_5_positions","componentType":5126,"count":42,"min":[-1.8368630409240723,-0.25769999623298645,-10.708179473876953],"max":[1.8368669748306274,2.650860071182251,-7.088009834289551],"type":"VEC3","bufferView":0,"byteOffset":3648},{"name":"miltank-Mesh_5_texcoords","componentType":5126,"count":42,"min":[-0.53125,-0.27344000339508057],"max":[1.5247199535369873,0.921875],"type":"VEC2","bufferView":1,"byteOffset":2432},{"name":"miltank-Mesh_5_indices","componentType":5123,"count":150,"min":[0],"max":[41],"type":"SCALAR","bufferView":2,"byteOffset":1960},{"name":"miltank-Mesh_6_positions","componentType":5126,"count":9,"min":[-1.4262230396270752,0.9940800070762634,-9.61497974395752],"max":[1.4262269735336304,2.0767199993133545,-8.557049751281738],"type":"VEC3","bufferView":0,"byteOffset":4152},{"name":"miltank-Mesh_6_texcoords","componentType":5126,"count":9,"min":[-0.11160700023174286,0.010417000390589237],"max":[0.984375,0.19270800054073334],"type":"VEC2","bufferView":1,"byteOffset":2768},{"name":"miltank-Mesh_6_indices","componentType":5123,"count":18,"min":[0],"max":[8],"type":"SCALAR","bufferView":2,"byteOffset":2260},{"name":"miltank-Mesh_7_positions","componentType":5126,"count":143,"min":[-3.900002956390381,-6.371099948883057,-10.875009536743164],"max":[3.8999969959259033,1.5790499448776245,-0.019999999552965164],"type":"VEC3","bufferView":0,"byteOffset":4260},{"name":"miltank-Mesh_7_texcoords","componentType":5126,"count":143,"min":[0,0.05333000048995018],"max":[0.9408339858055115,1],"type":"VEC2","bufferView":1,"byteOffset":2840},{"name":"miltank-Mesh_7_indices","componentType":5123,"count":633,"min":[0],"max":[142],"type":"SCALAR","bufferView":2,"byteOffset":2296},{"name":"miltank-Mesh_8_positions","componentType":5126,"count":10,"min":[-1.2048829793930054,-0.0831800028681755,-11.595269203186035],"max":[1.2048770189285278,0.6801199913024902,-10.581500053405762],"type":"VEC3","bufferView":0,"byteOffset":5976},{"name":"miltank-Mesh_8_texcoords","componentType":5126,"count":10,"min":[0.019231000915169716,-0.39236000180244446],"max":[1.0192300081253052,0.997596025466919],"type":"VEC2","bufferView":1,"byteOffset":3984},{"name":"miltank-Mesh_8_indices","componentType":5123,"count":24,"min":[0],"max":[9],"type":"SCALAR","bufferView":2,"byteOffset":3564},{"name":"miltank-Mesh_9_positions","componentType":5126,"count":10,"min":[-1.043442964553833,1.2411600351333618,-8.076760292053223],"max":[1.0434470176696777,2.869110107421875,-7.811009883880615],"type":"VEC3","bufferView":0,"byteOffset":6096},{"name":"miltank-Mesh_9_texcoords","componentType":5126,"count":10,"min":[-0.012500000186264515,-0.07500000298023224],"max":[0.9330360293388367,1.271875023841858],"type":"VEC2","bufferView":1,"byteOffset":4064},{"name":"miltank-Mesh_9_indices","componentType":5123,"count":24,"min":[0],"max":[9],"type":"SCALAR","bufferView":2,"byteOffset":3612},{"name":"miltank-Mesh_10_positions","componentType":5126,"count":12,"min":[-0.6710219979286194,1.8770899772644043,-9.199469566345215],"max":[0.6710209846496582,2.991450071334839,-7.959770202636719],"type":"VEC3","bufferView":0,"byteOffset":6216},{"name":"miltank-Mesh_10_texcoords","componentType":5126,"count":12,"min":[-0.20486100018024445,-0.21875],"max":[1.21875,1.3837790489196777],"type":"VEC2","bufferView":1,"byteOffset":4144},{"name":"miltank-Mesh_10_indices","componentType":5123,"count":36,"min":[0],"max":[11],"type":"SCALAR","bufferView":2,"byteOffset":3660},{"name":"miltank-Mesh_11_positions","componentType":5126,"count":10,"min":[-0.7857459783554077,1.2411600351333618,-7.959350109100342],"max":[0.7857450246810913,2.746540069580078,-7.640230178833008],"type":"VEC3","bufferView":0,"byteOffset":6360},{"name":"miltank-Mesh_11_texcoords","componentType":5126,"count":10,"min":[-0.007813000120222569,-0.06640999764204025],"max":[1.6124999523162842,0.96875],"type":"VEC2","bufferView":1,"byteOffset":4240},{"name":"miltank-Mesh_11_indices","componentType":5123,"count":24,"min":[0],"max":[9],"type":"SCALAR","bufferView":2,"byteOffset":3732},{"name":"miltank-Mesh_12_positions","componentType":5126,"count":34,"min":[-3.900002956390381,-0.5030999779701233,-10.31112003326416],"max":[3.8999969959259033,1.0800000429153442,-8.079999923706055],"type":"VEC3","bufferView":0,"byteOffset":6480},{"name":"miltank-Mesh_12_texcoords","componentType":5126,"count":34,"min":[-0.012500000186264515,-0.16875000298023224],"max":[1,1.103124976158142],"type":"VEC2","bufferView":1,"byteOffset":4320},{"name":"miltank-Mesh_12_indices","componentType":5123,"count":132,"min":[0],"max":[33],"type":"SCALAR","bufferView":2,"byteOffset":3780},{"name":"miltank-Mesh_13_positions","componentType":5126,"count":77,"min":[-1.5731929540634155,2.5199999809265137,-4.756589889526367],"max":[1.5731970071792603,3.8399999141693115,-2.1999928951263428],"type":"VEC3","bufferView":0,"byteOffset":6888},{"name":"miltank-Mesh_13_texcoords","componentType":5126,"count":77,"min":[0.171875,0.078125],"max":[0.4933040142059326,1],"type":"VEC2","bufferView":1,"byteOffset":4592},{"name":"miltank-Mesh_13_indices","componentType":5123,"count":360,"min":[0],"max":[76],"type":"SCALAR","bufferView":2,"byteOffset":4044},{"name":"miltank-Mesh_14_positions","componentType":5126,"count":29,"min":[-2.9323530197143555,1.1121000051498413,-3.7446699142456055],"max":[2.9323570728302,2.9200000762939453,-1.5204590559005737],"type":"VEC3","bufferView":0,"byteOffset":7812},{"name":"miltank-Mesh_14_texcoords","componentType":5126,"count":29,"min":[-0.06197899952530861,0],"max":[1.2999999523162842,0.59375],"type":"VEC2","bufferView":1,"byteOffset":5208},{"name":"miltank-Mesh_14_indices","componentType":5123,"count":108,"min":[0],"max":[28],"type":"SCALAR","bufferView":2,"byteOffset":4764},{"name":"miltank-Mesh_15_positions","componentType":5126,"count":58,"min":[-3.106713056564331,-5.77170991897583,-7.031859874725342],"max":[0.27398398518562317,-0.4938099980354309,-1.744156002998352],"type":"VEC3","bufferView":0,"byteOffset":8160},{"name":"miltank-Mesh_15_texcoords","componentType":5126,"count":58,"min":[0,0],"max":[1,0.9921870231628418],"type":"VEC2","bufferView":1,"byteOffset":5440},{"name":"miltank-Mesh_15_indices","componentType":5123,"count":189,"min":[0],"max":[57],"type":"SCALAR","bufferView":2,"byteOffset":4980}],"asset":{"generator":"obj2gltf","version":"2.0"},"buffers":[{"name":"BR_Miltank-Shiny01","byteLength":199400,"uri":"data:application/octet-stream;base64,"}],"bufferViews":[{"name":"bufferView_0","buffer":0,"byteLength":8856,"byteOffset":0,"byteStride":12,"target":34962},{"name":"bufferView_1","buffer":0,"byteLength":5904,"byteOffset":8856,"byteStride":8,"target":34962},{"name":"bufferView_2","buffer":0,"byteLength":5360,"byteOffset":14760,"target":34963},{"buffer":0,"byteOffset":20120,"byteLength":16402},{"buffer":0,"byteOffset":36522,"byteLength":82},{"buffer":0,"byteOffset":36604,"byteLength":32786},{"buffer":0,"byteOffset":69390,"byteLength":8210},{"buffer":0,"byteOffset":77600,"byteLength":274},{"buffer":0,"byteOffset":77874,"byteLength":32786},{"buffer":0,"byteOffset":110660,"byteLength":40978},{"buffer":0,"byteOffset":151638,"byteLength":274},{"buffer":0,"byteOffset":151912,"byteLength":274},{"buffer":0,"byteOffset":152186,"byteLength":8210},{"buffer":0,"byteOffset":160396,"byteLength":4114},{"buffer":0,"byteOffset":164510,"byteLength":8210},{"buffer":0,"byteOffset":172720,"byteLength":8210},{"buffer":0,"byteOffset":180930,"byteLength":2066},{"buffer":0,"byteOffset":182996,"byteLength":16402}],"images":[{"name":"miltank_1_0","mimeType":"image/x-tga","bufferView":3},{"name":"miltank_1_1","mimeType":"image/x-tga","bufferView":4},{"name":"miltank_1_2","mimeType":"image/x-tga","bufferView":5},{"name":"miltank_1_3","mimeType":"image/x-tga","bufferView":6},{"name":"miltank_1_4","mimeType":"image/x-tga","bufferView":7},{"name":"miltank_1_5","mimeType":"image/x-tga","bufferView":8},{"name":"miltank_1_6","mimeType":"image/x-tga","bufferView":9},{"name":"miltank_1_7","mimeType":"image/x-tga","bufferView":10},{"name":"miltank_1_8","mimeType":"image/x-tga","bufferView":11},{"name":"miltank_1_9","mimeType":"image/x-tga","bufferView":12},{"name":"miltank_1_10","mimeType":"image/x-tga","bufferView":13},{"name":"miltank_1_11","mimeType":"image/x-tga","bufferView":14},{"name":"miltank_1_12","mimeType":"image/x-tga","bufferView":15},{"name":"miltank_1_13","mimeType":"image/x-tga","bufferView":16},{"name":"miltank_1_14","mimeType":"image/x-tga","bufferView":17}],"materials":[{"name":"mat_0","pbrMetallicRoughness":{"baseColorTexture":{"index":0},"baseColorFactor":[1,1,1,1],"metallicFactor":0,"roughnessFactor":0.903921569},"emissiveFactor":[0,0,0],"alphaMode":"BLEND","doubleSided":true},{"name":"mat_1","pbrMetallicRoughness":{"baseColorTexture":{"index":1},"baseColorFactor":[1,1,1,1],"metallicFactor":0,"roughnessFactor":0.903921569},"emissiveFactor":[0,0,0],"alphaMode":"BLEND","doubleSided":true},{"name":"mat_2","pbrMetallicRoughness":{"baseColorTexture":{"index":2},"baseColorFactor":[1,1,1,1],"metallicFactor":0,"roughnessFactor":0.903921569},"emissiveFactor":[0,0,0],"alphaMode":"BLEND","doubleSided":true},{"name":"mat_3","pbrMetallicRoughness":{"baseColorTexture":{"index":3},"baseColorFactor":[1,1,1,1],"metallicFactor":0,"roughnessFactor":0.903921569},"emissiveFactor":[0,0,0],"alphaMode":"BLEND","doubleSided":true},{"name":"mat_4","pbrMetallicRoughness":{"baseColorTexture":{"index":4},"baseColorFactor":[1,1,1,1],"metallicFactor":0,"roughnessFactor":0.903921569},"emissiveFactor":[0,0,0],"alphaMode":"BLEND","doubleSided":true},{"name":"mat_5","pbrMetallicRoughness":{"baseColorTexture":{"index":5},"baseColorFactor":[1,1,1,1],"metallicFactor":0,"roughnessFactor":0.903921569},"emissiveFactor":[0,0,0],"alphaMode":"BLEND","doubleSided":true},{"name":"mat_6","pbrMetallicRoughness":{"baseColorTexture":{"index":6},"baseColorFactor":[1,1,1,1],"metallicFactor":0,"roughnessFactor":0.903921569},"emissiveFactor":[0,0,0],"alphaMode":"BLEND","doubleSided":true},{"name":"mat_7","pbrMetallicRoughness":{"baseColorTexture":{"index":7},"baseColorFactor":[1,1,1,1],"metallicFactor":0,"roughnessFactor":0.903921569},"emissiveFactor":[0,0,0],"alphaMode":"BLEND","doubleSided":true},{"name":"mat_8","pbrMetallicRoughness":{"baseColorTexture":{"index":8},"baseColorFactor":[1,1,1,1],"metallicFactor":0,"roughnessFactor":0.903921569},"emissiveFactor":[0,0,0],"alphaMode":"BLEND","doubleSided":true},{"name":"mat_9","pbrMetallicRoughness":{"baseColorTexture":{"index":9},"baseColorFactor":[1,1,1,1],"metallicFactor":0,"roughnessFactor":0.903921569},"emissiveFactor":[0,0,0],"alphaMode":"BLEND","doubleSided":true},{"name":"mat_10","pbrMetallicRoughness":{"baseColorTexture":{"index":10},"baseColorFactor":[1,1,1,1],"metallicFactor":0,"roughnessFactor":0.903921569},"emissiveFactor":[0,0,0],"alphaMode":"BLEND","doubleSided":true},{"name":"mat_11","pbrMetallicRoughness":{"baseColorTexture":{"index":11},"baseColorFactor":[1,1,1,1],"metallicFactor":0,"roughnessFactor":0.903921569},"emissiveFactor":[0,0,0],"alphaMode":"BLEND","doubleSided":true},{"name":"mat_12","pbrMetallicRoughness":{"baseColorTexture":{"index":12},"baseColorFactor":[1,1,1,1],"metallicFactor":0,"roughnessFactor":0.903921569},"emissiveFactor":[0,0,0],"alphaMode":"BLEND","doubleSided":true},{"name":"mat_13","pbrMetallicRoughness":{"baseColorTexture":{"index":13},"baseColorFactor":[1,1,1,1],"metallicFactor":0,"roughnessFactor":0.903921569},"emissiveFactor":[0,0,0],"alphaMode":"BLEND","doubleSided":true},{"name":"mat_14","pbrMetallicRoughness":{"baseColorTexture":{"index":14},"baseColorFactor":[1,1,1,1],"metallicFactor":0,"roughnessFactor":0.903921569},"emissiveFactor":[0,0,0],"alphaMode":"BLEND","doubleSided":true},{"name":"mat_14_NONE","pbrMetallicRoughness":{"baseColorTexture":{"index":14},"baseColorFactor":[1,1,1,1],"metallicFactor":0,"roughnessFactor":0.903921569},"emissiveFactor":[0,0,0],"alphaMode":"BLEND","doubleSided":true}],"meshes":[{"name":"miltank-Mesh","primitives":[{"attributes":{"POSITION":0,"TEXCOORD_0":1},"indices":2,"material":0,"mode":4},{"attributes":{"POSITION":3,"TEXCOORD_0":4},"indices":5,"material":1,"mode":4},{"attributes":{"POSITION":6,"TEXCOORD_0":7},"indices":8,"material":2,"mode":4},{"attributes":{"POSITION":9,"TEXCOORD_0":10},"indices":11,"material":3,"mode":4},{"attributes":{"POSITION":12,"TEXCOORD_0":13},"indices":14,"material":4,"mode":4},{"attributes":{"POSITION":15,"TEXCOORD_0":16},"indices":17,"material":5,"mode":4},{"attributes":{"POSITION":18,"TEXCOORD_0":19},"indices":20,"material":6,"mode":4},{"attributes":{"POSITION":21,"TEXCOORD_0":22},"indices":23,"material":7,"mode":4},{"attributes":{"POSITION":24,"TEXCOORD_0":25},"indices":26,"material":8,"mode":4},{"attributes":{"POSITION":27,"TEXCOORD_0":28},"indices":29,"material":9,"mode":4},{"attributes":{"POSITION":30,"TEXCOORD_0":31},"indices":32,"material":10,"mode":4},{"attributes":{"POSITION":33,"TEXCOORD_0":34},"indices":35,"material":11,"mode":4},{"attributes":{"POSITION":36,"TEXCOORD_0":37},"indices":38,"material":12,"mode":4},{"attributes":{"POSITION":39,"TEXCOORD_0":40},"indices":41,"material":13,"mode":4},{"attributes":{"POSITION":42,"TEXCOORD_0":43},"indices":44,"material":14,"mode":4},{"attributes":{"POSITION":45,"TEXCOORD_0":46},"indices":47,"material":15,"mode":4}]}],"nodes":[{"name":"miltank","mesh":0}],"samplers":[{"wrapS":10497,"wrapT":10497}],"scene":0,"scenes":[{"nodes":[0]}],"textures":[{"name":"miltank_1_0","sampler":0,"source":0},{"name":"miltank_1_1","sampler":0,"source":1},{"name":"miltank_1_2","sampler":0,"source":2},{"name":"miltank_1_3","sampler":0,"source":3},{"name":"miltank_1_4","sampler":0,"source":4},{"name":"miltank_1_5","sampler":0,"source":5},{"name":"miltank_1_6","sampler":0,"source":6},{"name":"miltank_1_7","sampler":0,"source":7},{"name":"miltank_1_8","sampler":0,"source":8},{"name":"miltank_1_9","sampler":0,"source":9},{"name":"miltank_1_10","sampler":0,"source":10},{"name":"miltank_1_11","sampler":0,"source":11},{"name":"miltank_1_12","sampler":0,"source":12},{"name":"miltank_1_13","sampler":0,"source":13},{"name":"miltank_1_14","sampler":0,"source":14}]}