{"accessors":[{"name":"happinas-Mesh_0_positions","componentType":5126,"count":41,"min":[-1.1642400026321411,-1.7150100469589233,-0.25],"max":[1.1642400026321411,2.978019952774048,1.500100016593933],"type":"VEC3","bufferView":0,"byteOffset":0},{"name":"happinas-Mesh_0_texcoords","componentType":5126,"count":41,"min":[0.5,0.21875],"max":[0.5,0.53125],"type":"VEC2","bufferView":1,"byteOffset":0},{"name":"happinas-Mesh_0_indices","componentType":5123,"count":168,"min":[0],"max":[40],"type":"SCALAR","bufferView":2,"byteOffset":0}],"asset":{"generator":"obj2gltf","version":"2.0"},"buffers":[{"name":"BR_Blissey-Shiny01","byteLength":1688,"uri":"data:application/octet-stream;base64,"}],"bufferViews":[{"name":"bufferView_0","buffer":0,"byteLength":492,"byteOffset":0,"byteStride":12,"target":34962},{"name":"bufferView_1","buffer":0,"byteLength":328,"byteOffset":492,"byteStride":8,"target":34962},{"name":"bufferView_2","buffer":0,"byteLength":336,"byteOffset":820,"target":34963},{"buffer":0,"byteOffset":1156,"byteLength":530}],"images":[{"name":"happinas_1_0","mimeType":"image/x-tga","bufferView":3}],"materials":[{"name":"mat_0","pbrMetallicRoughness":{"baseColorTexture":{"index":0},"baseColorFactor":[1,1,1,1],"metallicFactor":0,"roughnessFactor":0.903921569},"emissiveFactor":[0,0,0],"alphaMode":"BLEND","doubleSided":true}],"meshes":[{"name":"happinas-Mesh","primitives":[{"attributes":{"POSITION":0,"TEXCOORD_0":1},"indices":2,"material":0,"mode":4}]}],"nodes":[{"name":"happinas","mesh":0}],"samplers":[{"wrapS":10497,"wrapT":10497}],"scene":0,"scenes":[{"nodes":[0]}],"textures":[{"name":"happinas_1_0","sampler":0,"source":0}]}