{"accessors":[{"name":"raikou-Mesh_0_positions","componentType":5126,"count":4,"min":[-1.4426900148391724,0,-2.722949981689453],"max":[2.7567899227142334,0,2.4410200119018555],"type":"VEC3","bufferView":0,"byteOffset":0},{"name":"raikou-Mesh_0_texcoords","componentType":5126,"count":4,"min":[0,0],"max":[1,1],"type":"VEC2","bufferView":1,"byteOffset":0},{"name":"raikou-Mesh_0_indices","componentType":5123,"count":6,"min":[0],"max":[3],"type":"SCALAR","bufferView":2,"byteOffset":0}],"asset":{"generator":"obj2gltf","version":"2.0"},"buffers":[{"name":"BR_Raikou-Shiny01","byteLength":8304,"uri":"data:application/octet-stream;base64,"}],"bufferViews":[{"name":"bufferView_0","buffer":0,"byteLength":48,"byteOffset":0,"byteStride":12,"target":34962},{"name":"bufferView_1","buffer":0,"byteLength":32,"byteOffset":48,"byteStride":8,"target":34962},{"name":"bufferView_2","buffer":0,"byteLength":12,"byteOffset":80,"target":34963},{"buffer":0,"byteOffset":92,"byteLength":8210}],"images":[{"name":"raikou_1_0","mimeType":"image/x-tga","bufferView":3}],"materials":[{"name":"mat_0","pbrMetallicRoughness":{"baseColorTexture":{"index":0},"baseColorFactor":[1,1,1,1],"metallicFactor":0,"roughnessFactor":0.903921569},"emissiveFactor":[0,0,0],"alphaMode":"BLEND","doubleSided":true}],"meshes":[{"name":"raikou-Mesh","primitives":[{"attributes":{"POSITION":0,"TEXCOORD_0":1},"indices":2,"material":0,"mode":4}]}],"nodes":[{"name":"raikou","mesh":0}],"samplers":[{"wrapS":10497,"wrapT":10497}],"scene":0,"scenes":[{"nodes":[0]}],"textures":[{"name":"raikou_1_0","sampler":0,"source":0}]}