{"accessors":[{"name":"polygon0_1_0_positions","componentType":5126,"count":969,"min":[-7.770021915435791,0,-14.428728103637695],"max":[7.770021915435791,19.937929153442383,15.114112854003906],"type":"VEC3","bufferView":0,"byteOffset":0},{"name":"polygon0_1_0_normals","componentType":5126,"count":969,"min":[-0.9992189407348633,-0.9999523162841797,-0.9997820854187012],"max":[0.9992189407348633,0.9974251389503479,0.9918456673622131],"type":"VEC3","bufferView":1,"byteOffset":0},{"name":"polygon0_1_0_texcoords","componentType":5126,"count":969,"min":[0.006957999896258116,0.006560999900102615],"max":[0.9877319931983948,0.9957280158996582],"type":"VEC2","bufferView":2,"byteOffset":0},{"name":"polygon0_1_0_indices","componentType":5123,"count":4224,"min":[0],"max":[968],"type":"SCALAR","bufferView":3,"byteOffset":0},{"name":"polygon1_1_0_positions","componentType":5126,"count":10,"min":[-1.391482949256897,13.500773429870605,12.524712562561035],"max":[1.391484022140503,14.499323844909668,13.951240539550781],"type":"VEC3","bufferView":0,"byteOffset":11628},{"name":"polygon1_1_0_normals","componentType":5126,"count":10,"min":[-0.9834718108177185,0.12500204145908356,0.03192199394106865],"max":[0.9834718108177185,0.297309935092926,0.563735842704773],"type":"VEC3","bufferView":1,"byteOffset":11628},{"name":"polygon1_1_0_texcoords","componentType":5126,"count":10,"min":[-0.9235230088233948,0.0464479997754097],"max":[-0.11822500079870224,0.1336670070886612],"type":"VEC2","bufferView":2,"byteOffset":7752},{"name":"polygon1_1_0_indices","componentType":5123,"count":18,"min":[0],"max":[9],"type":"SCALAR","bufferView":3,"byteOffset":8448},{"name":"polygon2_1_0_positions","componentType":5126,"count":105,"min":[-3.4185218811035156,13.500773429870605,4.255393981933594],"max":[3.4185218811035156,21.02920913696289,14.219998359680176],"type":"VEC3","bufferView":0,"byteOffset":11748},{"name":"polygon2_1_0_normals","componentType":5126,"count":105,"min":[-0.9980286359786987,-0.9131940603256226,-0.9345909357070923],"max":[0.9980286359786987,0.9938859939575195,0.9899763464927673],"type":"VEC3","bufferView":1,"byteOffset":11748},{"name":"polygon2_1_0_texcoords","componentType":5126,"count":105,"min":[0.8681949973106384,0.009308000095188618],"max":[0.9918820261955261,0.3988650143146515],"type":"VEC2","bufferView":2,"byteOffset":7832},{"name":"polygon2_1_0_indices","componentType":5123,"count":468,"min":[0],"max":[104],"type":"SCALAR","bufferView":3,"byteOffset":8484}],"asset":{"generator":"obj2gltf","version":"2.0"},"buffers":[{"name":"Suicune","byteLength":535664,"uri":"data:application/octet-stream;base64,"}],"bufferViews":[{"name":"bufferView_0","buffer":0,"byteLength":13008,"byteOffset":0,"byteStride":12,"target":34962},{"name":"bufferView_1","buffer":0,"byteLength":13008,"byteOffset":13008,"byteStride":12,"target":34962},{"name":"bufferView_2","buffer":0,"byteLength":8672,"byteOffset":26016,"byteStride":8,"target":34962},{"name":"bufferView_3","buffer":0,"byteLength":9420,"byteOffset":34688,"target":34963},{"buffer":0,"byteOffset":44108,"byteLength":442386},{"buffer":0,"byteOffset":486494,"byteLength":49170}],"images":[{"name":"SuicuneDh","mimeType":"image/x-tga","bufferView":4},{"name":"SuicuneEyeDh","mimeType":"image/x-tga","bufferView":5}],"materials":[{"name":"mat1","pbrMetallicRoughness":{"baseColorTexture":{"index":0},"baseColorFactor":[1,1,1,1],"metallicFactor":0,"roughnessFactor":0.99},"emissiveFactor":[0,0,0],"alphaMode":"OPAQUE","doubleSided":false},{"name":"mat3","pbrMetallicRoughness":{"baseColorTexture":{"index":1},"baseColorFactor":[1,1,1,1],"metallicFactor":0,"roughnessFactor":0.99},"emissiveFactor":[0,0,0],"alphaMode":"OPAQUE","doubleSided":false},{"name":"mat2","pbrMetallicRoughness":{"baseColorTexture":{"index":0},"baseColorFactor":[1,1,1,1],"metallicFactor":0,"roughnessFactor":0.99},"emissiveFactor":[0,0,0],"alphaMode":"OPAQUE","doubleSided":false}],"meshes":[{"name":"polygon0_1","primitives":[{"attributes":{"POSITION":0,"NORMAL":1,"TEXCOORD_0":2},"indices":3,"material":0,"mode":4}]},{"name":"polygon1_1","primitives":[{"attributes":{"POSITION":4,"NORMAL":5,"TEXCOORD_0":6},"indices":7,"material":1,"mode":4}]},{"name":"polygon2_1","primitives":[{"attributes":{"POSITION":8,"NORMAL":9,"TEXCOORD_0":10},"indices":11,"material":2,"mode":4}]}],"nodes":[{"name":"polygon0","mesh":0},{"name":"polygon1","mesh":1},{"name":"polygon2","mesh":2}],"samplers":[{"wrapS":10497,"wrapT":10497}],"scene":0,"scenes":[{"nodes":[0,1,2]}],"textures":[{"name":"SuicuneDh","sampler":0,"source":0},{"name":"SuicuneEyeDh","sampler":0,"source":1}]}