{"accessors":[{"name":"Larvitar_1_0_positions","componentType":5126,"count":300,"min":[-10.74940013885498,30.45669937133789,3.404629945755005],"max":[10.74940013885498,42.79090118408203,14.657498359680176],"type":"VEC3","bufferView":0,"byteOffset":0},{"name":"Larvitar_1_0_normals","componentType":5126,"count":300,"min":[-0.9945545792579651,-0.12364301830530167,0.10207396000623703],"max":[-0.5833170413970947,0.7817168235778809,0.6209798455238342],"type":"VEC3","bufferView":1,"byteOffset":0},{"name":"Larvitar_1_0_texcoords","componentType":5126,"count":300,"min":[0.0061599998734891415,-0.9927200078964233],"max":[0.4938400089740753,-0.7543900012969971],"type":"VEC2","bufferView":2,"byteOffset":0},{"name":"Larvitar_1_0_indices","componentType":5123,"count":300,"min":[0],"max":[299],"type":"SCALAR","bufferView":3,"byteOffset":0},{"name":"Larvitar_1_1_positions","componentType":5126,"count":240,"min":[-6.011750221252441,27.977399826049805,11.752898216247559],"max":[6.011750221252441,34.66490173339844,17.830997467041016],"type":"VEC3","bufferView":0,"byteOffset":3600},{"name":"Larvitar_1_1_normals","componentType":5126,"count":240,"min":[-0.9945545792579651,-0.2857609987258911,0.10207396000623703],"max":[-0.5912411212921143,0.5654351115226746,0.6928676962852478],"type":"VEC3","bufferView":1,"byteOffset":3600},{"name":"Larvitar_1_1_texcoords","componentType":5126,"count":240,"min":[0.0196749996393919,-1.9944499731063843],"max":[0.480320006608963,-1.752619981765747],"type":"VEC2","bufferView":2,"byteOffset":2400},{"name":"Larvitar_1_1_indices","componentType":5123,"count":240,"min":[0],"max":[239],"type":"SCALAR","bufferView":3,"byteOffset":600},{"name":"Larvitar_1_2_positions","componentType":5126,"count":9108,"min":[-22.4414005279541,-2.572089910507202,-24.496501922607422],"max":[22.4414005279541,61.134300231933594,17.723400115966797],"type":"VEC3","bufferView":0,"byteOffset":6480},{"name":"Larvitar_1_2_normals","componentType":5126,"count":9108,"min":[-0.9996854662895203,-0.998707115650177,-0.9890616536140442],"max":[0.9996854662895203,0.7817174196243286,0.9998727440834045],"type":"VEC3","bufferView":1,"byteOffset":6480},{"name":"Larvitar_1_2_texcoords","componentType":5126,"count":9108,"min":[0,0.004765999969094992],"max":[1,0.9949949979782104],"type":"VEC2","bufferView":2,"byteOffset":4320},{"name":"Larvitar_1_2_indices","componentType":5123,"count":9108,"min":[0],"max":[9107],"type":"SCALAR","bufferView":3,"byteOffset":1080},{"name":"Larvitar_1_3_positions","componentType":5126,"count":300,"min":[-10.94260025024414,30.42009925842285,3.45563006401062],"max":[10.94260025024414,42.925697326660156,14.789100646972656],"type":"VEC3","bufferView":0,"byteOffset":115776},{"name":"Larvitar_1_3_normals","componentType":5126,"count":300,"min":[-0.9293551445007324,-0.7369886040687561,0.14089691638946533],"max":[0.845410168170929,0.9164396524429321,0.9829500317573547],"type":"VEC3","bufferView":1,"byteOffset":115776},{"name":"Larvitar_1_3_texcoords","componentType":5126,"count":300,"min":[0.024639999493956566,-1.9708800315856934],"max":[0.980288028717041,-1.0175600051879883],"type":"VEC2","bufferView":2,"byteOffset":77184},{"name":"Larvitar_1_3_indices","componentType":5123,"count":300,"min":[0],"max":[299],"type":"SCALAR","bufferView":3,"byteOffset":19296}],"asset":{"generator":"obj2gltf","version":"2.0"},"buffers":[{"name":"XY_Larvitar","byteLength":455980,"uri":"data:application/octet-stream;base64,"}],"bufferViews":[{"name":"bufferView_0","buffer":0,"byteLength":119376,"byteOffset":0,"byteStride":12,"target":34962},{"name":"bufferView_1","buffer":0,"byteLength":119376,"byteOffset":119376,"byteStride":12,"target":34962},{"name":"bufferView_2","buffer":0,"byteLength":79584,"byteOffset":238752,"byteStride":8,"target":34962},{"name":"bufferView_3","buffer":0,"byteLength":19896,"byteOffset":318336,"target":34963},{"buffer":0,"byteOffset":338232,"byteLength":34220},{"buffer":0,"byteOffset":372452,"byteLength":17193},{"buffer":0,"byteOffset":389645,"byteLength":64883},{"buffer":0,"byteOffset":454528,"byteLength":1449}],"images":[{"name":"pm0246_00_Eye1","mimeType":"image/png","bufferView":4},{"name":"pm0246_00_Mouth1","mimeType":"image/png","bufferView":5},{"name":"pm0246_00_Body1","mimeType":"image/png","bufferView":6},{"name":"pm0246_00_Iris1","mimeType":"image/png","bufferView":7}],"materials":[{"name":"Material__191","pbrMetallicRoughness":{"baseColorTexture":{"index":0},"baseColorFactor":[1,1,1,1],"metallicFactor":0,"roughnessFactor":0.998},"emissiveFactor":[0,0,0],"alphaMode":"OPAQUE","doubleSided":false},{"name":"Material__192","pbrMetallicRoughness":{"baseColorTexture":{"index":1},"baseColorFactor":[1,1,1,1],"metallicFactor":0,"roughnessFactor":0.998},"emissiveFactor":[0,0,0],"alphaMode":"OPAQUE","doubleSided":false},{"name":"Material__193","pbrMetallicRoughness":{"baseColorTexture":{"index":2},"baseColorFactor":[1,1,1,1],"metallicFactor":0,"roughnessFactor":0.998},"emissiveFactor":[0,0,0],"alphaMode":"OPAQUE","doubleSided":false},{"name":"Material__194","pbrMetallicRoughness":{"baseColorTexture":{"index":3},"baseColorFactor":[1,1,1,1],"metallicFactor":0,"roughnessFactor":0.998},"emissiveFactor":[0,0,0],"alphaMode":"OPAQUE","doubleSided":false}],"meshes":[{"name":"Larvitar_1","primitives":[{"attributes":{"POSITION":0,"NORMAL":1,"TEXCOORD_0":2},"indices":3,"material":0,"mode":4},{"attributes":{"POSITION":4,"NORMAL":5,"TEXCOORD_0":6},"indices":7,"material":1,"mode":4},{"attributes":{"POSITION":8,"NORMAL":9,"TEXCOORD_0":10},"indices":11,"material":2,"mode":4},{"attributes":{"POSITION":12,"NORMAL":13,"TEXCOORD_0":14},"indices":15,"material":3,"mode":4}]}],"nodes":[{"name":"Larvitar","mesh":0}],"samplers":[{"wrapS":10497,"wrapT":10497}],"scene":0,"scenes":[{"nodes":[0]}],"textures":[{"name":"pm0246_00_Eye1","sampler":0,"source":0},{"name":"pm0246_00_Mouth1","sampler":0,"source":1},{"name":"pm0246_00_Body1","sampler":0,"source":2},{"name":"pm0246_00_Iris1","sampler":0,"source":3}]}