{"accessors":[{"name":"yogiras-Mesh_0_positions","componentType":5126,"count":346,"min":[-1.937559962272644,-2.4944400787353516,-5.789169788360596],"max":[1.5501699447631836,2.277820110321045,-0.009963000193238258],"type":"VEC3","bufferView":0,"byteOffset":0},{"name":"yogiras-Mesh_0_texcoords","componentType":5126,"count":346,"min":[-0.4099000096321106,0],"max":[1.4098999500274658,1.1978930234909058],"type":"VEC2","bufferView":1,"byteOffset":0},{"name":"yogiras-Mesh_0_indices","componentType":5123,"count":1443,"min":[0],"max":[345],"type":"SCALAR","bufferView":2,"byteOffset":0},{"name":"yogiras-Mesh_1_positions","componentType":5126,"count":21,"min":[-0.22032999992370605,0.19692200422286987,-2.0524799823760986],"max":[1.0053800344467163,1.2038300037384033,-0.3255839943885803],"type":"VEC3","bufferView":0,"byteOffset":4152},{"name":"yogiras-Mesh_1_texcoords","componentType":5126,"count":21,"min":[-0.3569999933242798,-0.08568000048398972],"max":[0.9924870133399963,1.2471599578857422],"type":"VEC2","bufferView":1,"byteOffset":2768},{"name":"yogiras-Mesh_1_indices","componentType":5123,"count":84,"min":[0],"max":[20],"type":"SCALAR","bufferView":2,"byteOffset":2888},{"name":"yogiras-Mesh_2_positions","componentType":5126,"count":93,"min":[-1.146530032157898,-1.1424100399017334,-2.94815993309021],"max":[1.030150055885315,1.2038300037384033,-0.9105029702186584],"type":"VEC3","bufferView":0,"byteOffset":4404},{"name":"yogiras-Mesh_2_texcoords","componentType":5126,"count":93,"min":[0.14538699388504028,0.07199999690055847],"max":[1.003909945487976,0.9703220129013062],"type":"VEC2","bufferView":1,"byteOffset":2936},{"name":"yogiras-Mesh_2_indices","componentType":5123,"count":279,"min":[0],"max":[92],"type":"SCALAR","bufferView":2,"byteOffset":3056},{"name":"yogiras-Mesh_3_positions","componentType":5126,"count":20,"min":[-0.5950279831886292,1.1498199701309204,-3.7198500633239746],"max":[0.9218850135803223,2.1493000984191895,-2.3660900592803955],"type":"VEC3","bufferView":0,"byteOffset":5520},{"name":"yogiras-Mesh_3_texcoords","componentType":5126,"count":20,"min":[-0.02914300002157688,-0.2486400008201599],"max":[0.2212969958782196,1.068395972251892],"type":"VEC2","bufferView":1,"byteOffset":3680},{"name":"yogiras-Mesh_3_indices","componentType":5123,"count":60,"min":[0],"max":[19],"type":"SCALAR","bufferView":2,"byteOffset":3616},{"name":"yogiras-Mesh_4_positions","componentType":5126,"count":17,"min":[-0.1215360015630722,1.367550015449524,-2.791949987411499],"max":[0.6294490098953247,2.1004199981689453,-2.2826099395751953],"type":"VEC3","bufferView":0,"byteOffset":5760},{"name":"yogiras-Mesh_4_texcoords","componentType":5126,"count":17,"min":[-0.01499900035560131,-0.10329999774694443],"max":[1.0149999856948853,0.9579619765281677],"type":"VEC2","bufferView":1,"byteOffset":3840},{"name":"yogiras-Mesh_4_indices","componentType":5123,"count":42,"min":[0],"max":[16],"type":"SCALAR","bufferView":2,"byteOffset":3736},{"name":"yogiras-Mesh_5_positions","componentType":5126,"count":8,"min":[-0.07932300120592117,1.367550015449524,-2.791949987411499],"max":[0.5146849751472473,2.0607500076293945,-2.2921500205993652],"type":"VEC3","bufferView":0,"byteOffset":5964},{"name":"yogiras-Mesh_5_texcoords","componentType":5126,"count":8,"min":[0.14945900440216064,-0.059870000928640366],"max":[0.8505420088768005,1.031986951828003],"type":"VEC2","bufferView":1,"byteOffset":3976},{"name":"yogiras-Mesh_5_indices","componentType":5123,"count":24,"min":[0],"max":[7],"type":"SCALAR","bufferView":2,"byteOffset":3820},{"name":"yogiras-Mesh_6_positions","componentType":5126,"count":41,"min":[-1.1599500179290771,-2.228369951248169,-1.8165199756622314],"max":[1.2742799520492554,1.2017699480056763,-0.009963000193238258],"type":"VEC3","bufferView":0,"byteOffset":6060},{"name":"yogiras-Mesh_6_texcoords","componentType":5126,"count":41,"min":[-0.4442490041255951,-2.5861599445343018],"max":[1.2392799854278564,1.7121930122375488],"type":"VEC2","bufferView":1,"byteOffset":4040},{"name":"yogiras-Mesh_6_indices","componentType":5123,"count":150,"min":[0],"max":[40],"type":"SCALAR","bufferView":2,"byteOffset":3868}],"asset":{"generator":"obj2gltf","version":"2.0"},"buffers":[{"name":"BR_Larvitar-Shiny01","byteLength":97200,"uri":"data:application/octet-stream;base64,"}],"bufferViews":[{"name":"bufferView_0","buffer":0,"byteLength":6552,"byteOffset":0,"byteStride":12,"target":34962},{"name":"bufferView_1","buffer":0,"byteLength":4368,"byteOffset":6552,"byteStride":8,"target":34962},{"name":"bufferView_2","buffer":0,"byteLength":4168,"byteOffset":10920,"target":34963},{"buffer":0,"byteOffset":15088,"byteLength":82},{"buffer":0,"byteOffset":15170,"byteLength":8210},{"buffer":0,"byteOffset":23380,"byteLength":8210},{"buffer":0,"byteOffset":31590,"byteLength":40978},{"buffer":0,"byteOffset":72568,"byteLength":8210},{"buffer":0,"byteOffset":80778,"byteLength":8210},{"buffer":0,"byteOffset":88988,"byteLength":8210}],"images":[{"name":"yogiras_1_0","mimeType":"image/x-tga","bufferView":3},{"name":"yogiras_1_1","mimeType":"image/x-tga","bufferView":4},{"name":"yogiras_1_2","mimeType":"image/x-tga","bufferView":5},{"name":"yogiras_1_3","mimeType":"image/x-tga","bufferView":6},{"name":"yogiras_1_4","mimeType":"image/x-tga","bufferView":7},{"name":"yogiras_1_5","mimeType":"image/x-tga","bufferView":8},{"name":"yogiras_1_6","mimeType":"image/x-tga","bufferView":9}],"materials":[{"name":"mat_0","pbrMetallicRoughness":{"baseColorTexture":{"index":0},"baseColorFactor":[1,1,1,1],"metallicFactor":0,"roughnessFactor":0.903921569},"emissiveFactor":[0,0,0],"alphaMode":"BLEND","doubleSided":true},{"name":"mat_1","pbrMetallicRoughness":{"baseColorTexture":{"index":1},"baseColorFactor":[1,1,1,1],"metallicFactor":0,"roughnessFactor":0.903921569},"emissiveFactor":[0,0,0],"alphaMode":"BLEND","doubleSided":true},{"name":"mat_2","pbrMetallicRoughness":{"baseColorTexture":{"index":2},"baseColorFactor":[1,1,1,1],"metallicFactor":0,"roughnessFactor":0.903921569},"emissiveFactor":[0,0,0],"alphaMode":"BLEND","doubleSided":true},{"name":"mat_3","pbrMetallicRoughness":{"baseColorTexture":{"index":3},"baseColorFactor":[1,1,1,1],"metallicFactor":0,"roughnessFactor":0.903921569},"emissiveFactor":[0,0,0],"alphaMode":"BLEND","doubleSided":true},{"name":"mat_4","pbrMetallicRoughness":{"baseColorTexture":{"index":4},"baseColorFactor":[1,1,1,1],"metallicFactor":0,"roughnessFactor":0.903921569},"emissiveFactor":[0,0,0],"alphaMode":"BLEND","doubleSided":true},{"name":"mat_5","pbrMetallicRoughness":{"baseColorTexture":{"index":5},"baseColorFactor":[1,1,1,1],"metallicFactor":0,"roughnessFactor":0.903921569},"emissiveFactor":[0,0,0],"alphaMode":"BLEND","doubleSided":true},{"name":"mat_6","pbrMetallicRoughness":{"baseColorTexture":{"index":6},"baseColorFactor":[1,1,1,1],"metallicFactor":0,"roughnessFactor":0.903921569},"emissiveFactor":[0,0,0],"alphaMode":"BLEND","doubleSided":true}],"meshes":[{"name":"yogiras-Mesh","primitives":[{"attributes":{"POSITION":0,"TEXCOORD_0":1},"indices":2,"material":0,"mode":4},{"attributes":{"POSITION":3,"TEXCOORD_0":4},"indices":5,"material":1,"mode":4},{"attributes":{"POSITION":6,"TEXCOORD_0":7},"indices":8,"material":2,"mode":4},{"attributes":{"POSITION":9,"TEXCOORD_0":10},"indices":11,"material":3,"mode":4},{"attributes":{"POSITION":12,"TEXCOORD_0":13},"indices":14,"material":4,"mode":4},{"attributes":{"POSITION":15,"TEXCOORD_0":16},"indices":17,"material":5,"mode":4},{"attributes":{"POSITION":18,"TEXCOORD_0":19},"indices":20,"material":6,"mode":4}]}],"nodes":[{"name":"yogiras","mesh":0}],"samplers":[{"wrapS":10497,"wrapT":10497}],"scene":0,"scenes":[{"nodes":[0]}],"textures":[{"name":"yogiras_1_0","sampler":0,"source":0},{"name":"yogiras_1_1","sampler":0,"source":1},{"name":"yogiras_1_2","sampler":0,"source":2},{"name":"yogiras_1_3","sampler":0,"source":3},{"name":"yogiras_1_4","sampler":0,"source":4},{"name":"yogiras_1_5","sampler":0,"source":5},{"name":"yogiras_1_6","sampler":0,"source":6}]}