{"accessors":[{"name":"sanagiras-Mesh_0_positions","componentType":5126,"count":303,"min":[-4.841320037841797,-3.0290799140930176,-12.362199783325195],"max":[4.841320037841797,3.129159927368164,-0.0003929999948013574],"type":"VEC3","bufferView":0,"byteOffset":0},{"name":"sanagiras-Mesh_0_texcoords","componentType":5126,"count":303,"min":[-1.03125,-0.1526300013065338],"max":[1.0362299680709839,1.183593988418579],"type":"VEC2","bufferView":1,"byteOffset":0},{"name":"sanagiras-Mesh_0_indices","componentType":5123,"count":822,"min":[0],"max":[302],"type":"SCALAR","bufferView":2,"byteOffset":0},{"name":"sanagiras-Mesh_1_positions","componentType":5126,"count":96,"min":[-2.8795599937438965,-3.0290799140930176,-9.112460136413574],"max":[2.8795599937438965,3.2827999591827393,-1.4557100534439087],"type":"VEC3","bufferView":0,"byteOffset":3636},{"name":"sanagiras-Mesh_1_texcoords","componentType":5126,"count":96,"min":[-0.006041000131517649,0.337662011384964],"max":[1,1.652343988418579],"type":"VEC2","bufferView":1,"byteOffset":2424},{"name":"sanagiras-Mesh_1_indices","componentType":5123,"count":234,"min":[0],"max":[95],"type":"SCALAR","bufferView":2,"byteOffset":1644},{"name":"sanagiras-Mesh_2_positions","componentType":5126,"count":149,"min":[-4.841320037841797,-2.8967599868774414,-12.362199783325195],"max":[4.841320037841797,2.8992300033569336,-3.0869500637054443],"type":"VEC3","bufferView":0,"byteOffset":4788},{"name":"sanagiras-Mesh_2_texcoords","componentType":5126,"count":149,"min":[-0.15214499831199646,0.15315000712871552],"max":[1.2548400163650513,1.1298480033874512],"type":"VEC2","bufferView":1,"byteOffset":3192},{"name":"sanagiras-Mesh_2_indices","componentType":5123,"count":468,"min":[0],"max":[148],"type":"SCALAR","bufferView":2,"byteOffset":2112},{"name":"sanagiras-Mesh_3_positions","componentType":5126,"count":36,"min":[-2.189769983291626,1.7522900104522705,-8.35103988647461],"max":[2.189769983291626,2.8122100830078125,-5.615970134735107],"type":"VEC3","bufferView":0,"byteOffset":6576},{"name":"sanagiras-Mesh_3_texcoords","componentType":5126,"count":36,"min":[-0.11805599927902222,-0.12190999835729599],"max":[1.0781300067901611,0.23842599987983704],"type":"VEC2","bufferView":1,"byteOffset":4384},{"name":"sanagiras-Mesh_3_indices","componentType":5123,"count":90,"min":[0],"max":[35],"type":"SCALAR","bufferView":2,"byteOffset":3048}],"asset":{"generator":"obj2gltf","version":"2.0"},"buffers":[{"name":"BR_Pupitar-Shiny01","byteLength":37492,"uri":"data:application/octet-stream;base64,"}],"bufferViews":[{"name":"bufferView_0","buffer":0,"byteLength":7008,"byteOffset":0,"byteStride":12,"target":34962},{"name":"bufferView_1","buffer":0,"byteLength":4672,"byteOffset":7008,"byteStride":8,"target":34962},{"name":"bufferView_2","buffer":0,"byteLength":3228,"byteOffset":11680,"target":34963},{"buffer":0,"byteOffset":14908,"byteLength":2066},{"buffer":0,"byteOffset":16974,"byteLength":2066},{"buffer":0,"byteOffset":19040,"byteLength":18450}],"images":[{"name":"sanagiras_1_0","mimeType":"image/x-tga","bufferView":3},{"name":"sanagiras_1_1","mimeType":"image/x-tga","bufferView":4},{"name":"sanagiras_1_3","mimeType":"image/x-tga","bufferView":5}],"materials":[{"name":"mat_0","pbrMetallicRoughness":{"baseColorTexture":{"index":0},"baseColorFactor":[1,1,1,1],"metallicFactor":0,"roughnessFactor":0.903921569},"emissiveFactor":[0,0,0],"alphaMode":"BLEND","doubleSided":true},{"name":"mat_1","pbrMetallicRoughness":{"baseColorTexture":{"index":1},"baseColorFactor":[1,1,1,1],"metallicFactor":0,"roughnessFactor":0.903921569},"emissiveFactor":[0,0,0],"alphaMode":"BLEND","doubleSided":true},{"name":"mat_2","pbrMetallicRoughness":{"baseColorTexture":{"index":1},"baseColorFactor":[1,1,1,1],"metallicFactor":0,"roughnessFactor":0.903921569},"emissiveFactor":[0,0,0],"alphaMode":"BLEND","doubleSided":true},{"name":"mat_3","pbrMetallicRoughness":{"baseColorTexture":{"index":2},"baseColorFactor":[1,1,1,1],"metallicFactor":0,"roughnessFactor":0.903921569},"emissiveFactor":[0,0,0],"alphaMode":"BLEND","doubleSided":true}],"meshes":[{"name":"sanagiras-Mesh","primitives":[{"attributes":{"POSITION":0,"TEXCOORD_0":1},"indices":2,"material":0,"mode":4},{"attributes":{"POSITION":3,"TEXCOORD_0":4},"indices":5,"material":1,"mode":4},{"attributes":{"POSITION":6,"TEXCOORD_0":7},"indices":8,"material":2,"mode":4},{"attributes":{"POSITION":9,"TEXCOORD_0":10},"indices":11,"material":3,"mode":4}]}],"nodes":[{"name":"sanagiras","mesh":0}],"samplers":[{"wrapS":10497,"wrapT":10497}],"scene":0,"scenes":[{"nodes":[0]}],"textures":[{"name":"sanagiras_1_0","sampler":0,"source":0},{"name":"sanagiras_1_1","sampler":0,"source":1},{"name":"sanagiras_1_3","sampler":0,"source":2}]}