{"accessors":[{"name":"Pupitar_1_0_positions","componentType":5126,"count":420,"min":[-28.712099075317383,48.89090347290039,20.46319580078125],"max":[28.712099075317383,71.11640930175781,38.35210037231445],"type":"VEC3","bufferView":0,"byteOffset":0},{"name":"Pupitar_1_0_normals","componentType":5126,"count":420,"min":[0.5675178170204163,-0.14173296093940735,0.5031698346138],"max":[0.8627867102622986,-0.03506799414753914,0.8121806979179382],"type":"VEC3","bufferView":1,"byteOffset":0},{"name":"Pupitar_1_0_texcoords","componentType":5126,"count":420,"min":[0.007195999845862389,-0.9823499917984009],"max":[0.4927999973297119,-0.7676500082015991],"type":"VEC2","bufferView":2,"byteOffset":0},{"name":"Pupitar_1_0_indices","componentType":5123,"count":420,"min":[0],"max":[419],"type":"SCALAR","bufferView":3,"byteOffset":0},{"name":"Pupitar_1_1_positions","componentType":5126,"count":9978,"min":[-51.57899856567383,1.6590369939804077,-32.08610153198242],"max":[51.57899856567383,124.20700073242188,43.17070007324219],"type":"VEC3","bufferView":0,"byteOffset":5040},{"name":"Pupitar_1_1_normals","componentType":5126,"count":9978,"min":[-0.9796649813652039,-0.9993524551391602,-0.9959120750427246],"max":[0.9796649813652039,0.9840107560157776,0.9223506450653076],"type":"VEC3","bufferView":1,"byteOffset":5040},{"name":"Pupitar_1_1_texcoords","componentType":5126,"count":9978,"min":[0,0.0039059999398887157],"max":[1,0.9960939884185791],"type":"VEC2","bufferView":2,"byteOffset":3360},{"name":"Pupitar_1_1_indices","componentType":5123,"count":9978,"min":[0],"max":[9977],"type":"SCALAR","bufferView":3,"byteOffset":840},{"name":"Pupitar_1_2_positions","componentType":5126,"count":420,"min":[-28.885499954223633,48.850303649902344,20.56049346923828],"max":[28.885499954223633,71.10009765625,38.51010513305664],"type":"VEC3","bufferView":0,"byteOffset":124776},{"name":"Pupitar_1_2_normals","componentType":5126,"count":420,"min":[-0.9120047688484192,-0.28751182556152344,-0.985133945941925],"max":[0.23370212316513062,0.6326459646224976,-0.21660403907299042],"type":"VEC3","bufferView":1,"byteOffset":124776},{"name":"Pupitar_1_2_texcoords","componentType":5126,"count":420,"min":[0.028783999383449554,-1.9293999671936035],"max":[0.9712160229682922,-1.0706000328063965],"type":"VEC2","bufferView":2,"byteOffset":83184},{"name":"Pupitar_1_2_indices","componentType":5123,"count":420,"min":[0],"max":[419],"type":"SCALAR","bufferView":3,"byteOffset":20796}],"asset":{"generator":"obj2gltf","version":"2.0"},"buffers":[{"name":"XY_Pupitar","byteLength":455392,"uri":"data:application/octet-stream;base64,"}],"bufferViews":[{"name":"bufferView_0","buffer":0,"byteLength":129816,"byteOffset":0,"byteStride":12,"target":34962},{"name":"bufferView_1","buffer":0,"byteLength":129816,"byteOffset":129816,"byteStride":12,"target":34962},{"name":"bufferView_2","buffer":0,"byteLength":86544,"byteOffset":259632,"byteStride":8,"target":34962},{"name":"bufferView_3","buffer":0,"byteLength":21636,"byteOffset":346176,"target":34963},{"buffer":0,"byteOffset":367812,"byteLength":36762},{"buffer":0,"byteOffset":404574,"byteLength":48592},{"buffer":0,"byteOffset":453166,"byteLength":2225}],"images":[{"name":"pm0247_00_Eye1","mimeType":"image/png","bufferView":4},{"name":"pm0247_00_Body1","mimeType":"image/png","bufferView":5},{"name":"pm0247_00_Iris1","mimeType":"image/png","bufferView":6}],"materials":[{"name":"Material__205","pbrMetallicRoughness":{"baseColorTexture":{"index":0},"baseColorFactor":[1,1,1,1],"metallicFactor":0,"roughnessFactor":0.998},"emissiveFactor":[0,0,0],"alphaMode":"OPAQUE","doubleSided":false},{"name":"Material__206","pbrMetallicRoughness":{"baseColorTexture":{"index":1},"baseColorFactor":[1,1,1,1],"metallicFactor":0,"roughnessFactor":0.998},"emissiveFactor":[0,0,0],"alphaMode":"OPAQUE","doubleSided":false},{"name":"Material__207","pbrMetallicRoughness":{"baseColorTexture":{"index":2},"baseColorFactor":[1,1,1,1],"metallicFactor":0,"roughnessFactor":0.998},"emissiveFactor":[0,0,0],"alphaMode":"OPAQUE","doubleSided":false}],"meshes":[{"name":"Pupitar_1","primitives":[{"attributes":{"POSITION":0,"NORMAL":1,"TEXCOORD_0":2},"indices":3,"material":0,"mode":4},{"attributes":{"POSITION":4,"NORMAL":5,"TEXCOORD_0":6},"indices":7,"material":1,"mode":4},{"attributes":{"POSITION":8,"NORMAL":9,"TEXCOORD_0":10},"indices":11,"material":2,"mode":4}]}],"nodes":[{"name":"Pupitar","mesh":0}],"samplers":[{"wrapS":10497,"wrapT":10497}],"scene":0,"scenes":[{"nodes":[0]}],"textures":[{"name":"pm0247_00_Eye1","sampler":0,"source":0},{"name":"pm0247_00_Body1","sampler":0,"source":1},{"name":"pm0247_00_Iris1","sampler":0,"source":2}]}