{"accessors":[{"name":"Tyranitar_1_0_positions","componentType":5126,"count":222,"min":[-17.258832931518555,166.91502380371094,27.321624755859375],"max":[17.25896644592285,185.26307678222656,46.110233306884766],"type":"VEC3","bufferView":0,"byteOffset":0},{"name":"Tyranitar_1_0_normals","componentType":5126,"count":222,"min":[0.5999079942703247,-0.2808690369129181,0.1767469197511673],"max":[0.9611155986785889,0.36510300636291504,0.7169418931007385],"type":"VEC3","bufferView":1,"byteOffset":0},{"name":"Tyranitar_1_0_texcoords","componentType":5126,"count":222,"min":[0.00520200002938509,-1.9762799739837646],"max":[0.49480000138282776,-1.7737200260162354],"type":"VEC2","bufferView":2,"byteOffset":0},{"name":"Tyranitar_1_0_indices","componentType":5123,"count":222,"min":[0],"max":[221],"type":"SCALAR","bufferView":3,"byteOffset":0},{"name":"Tyranitar_1_1_positions","componentType":5126,"count":8544,"min":[-64.783203125,-5.418609142303467,-159.67198181152344],"max":[64.783203125,117.87800598144531,47.40949630737305],"type":"VEC3","bufferView":0,"byteOffset":2664},{"name":"Tyranitar_1_1_normals","componentType":5126,"count":8544,"min":[-0.9987443089485168,-0.9961034059524536,-0.9962975382804871],"max":[0.9955528378486633,0.9897423386573792,0.9965960383415222],"type":"VEC3","bufferView":1,"byteOffset":2664},{"name":"Tyranitar_1_1_texcoords","componentType":5126,"count":8544,"min":[0.0043680001981556416,0.0078119998797774315],"max":[0.995631992816925,0.9921879768371582],"type":"VEC2","bufferView":2,"byteOffset":1776},{"name":"Tyranitar_1_1_indices","componentType":5123,"count":8544,"min":[0],"max":[8543],"type":"SCALAR","bufferView":3,"byteOffset":444},{"name":"Tyranitar_1_2_positions","componentType":5126,"count":13290,"min":[-88.74169158935547,70.19339752197266,-55.08639907836914],"max":[88.74150085449219,206.59197998046875,49.36712646484375],"type":"VEC3","bufferView":0,"byteOffset":105192},{"name":"Tyranitar_1_2_normals","componentType":5126,"count":13290,"min":[-0.9987443089485168,-0.9961032271385193,-0.9962974786758423],"max":[0.9987443089485168,0.9932584166526794,0.9965962171554565],"type":"VEC3","bufferView":1,"byteOffset":105192},{"name":"Tyranitar_1_2_texcoords","componentType":5126,"count":13290,"min":[0.004687000066041946,-0.9943100214004517],"max":[0.9953129887580872,-0.007209999952465296],"type":"VEC2","bufferView":2,"byteOffset":70128},{"name":"Tyranitar_1_2_indices","componentType":5123,"count":13290,"min":[0],"max":[13289],"type":"SCALAR","bufferView":3,"byteOffset":17532}],"asset":{"generator":"obj2gltf","version":"2.0"},"buffers":[{"name":"XY_Tyranitar","byteLength":903640,"uri":"data:application/octet-stream;base64,"}],"bufferViews":[{"name":"bufferView_0","buffer":0,"byteLength":264672,"byteOffset":0,"byteStride":12,"target":34962},{"name":"bufferView_1","buffer":0,"byteLength":264672,"byteOffset":264672,"byteStride":12,"target":34962},{"name":"bufferView_2","buffer":0,"byteLength":176448,"byteOffset":529344,"byteStride":8,"target":34962},{"name":"bufferView_3","buffer":0,"byteLength":44112,"byteOffset":705792,"target":34963},{"buffer":0,"byteOffset":749904,"byteLength":23899},{"buffer":0,"byteOffset":773803,"byteLength":64569},{"buffer":0,"byteOffset":838372,"byteLength":65265}],"images":[{"name":"pm0248_00_Eye1","mimeType":"image/png","bufferView":4},{"name":"pm0248_00_BodyA1","mimeType":"image/png","bufferView":5},{"name":"pm0248_00_BodyB1","mimeType":"image/png","bufferView":6}],"materials":[{"name":"Material__218","pbrMetallicRoughness":{"baseColorTexture":{"index":0},"baseColorFactor":[1,1,1,1],"metallicFactor":0,"roughnessFactor":0.998},"emissiveFactor":[0,0,0],"alphaMode":"OPAQUE","doubleSided":false},{"name":"Material__219","pbrMetallicRoughness":{"baseColorTexture":{"index":1},"baseColorFactor":[1,1,1,1],"metallicFactor":0,"roughnessFactor":0.998},"emissiveFactor":[0,0,0],"alphaMode":"OPAQUE","doubleSided":false},{"name":"Material__220","pbrMetallicRoughness":{"baseColorTexture":{"index":2},"baseColorFactor":[1,1,1,1],"metallicFactor":0,"roughnessFactor":0.998},"emissiveFactor":[0,0,0],"alphaMode":"OPAQUE","doubleSided":false}],"meshes":[{"name":"Tyranitar_1","primitives":[{"attributes":{"POSITION":0,"NORMAL":1,"TEXCOORD_0":2},"indices":3,"material":0,"mode":4},{"attributes":{"POSITION":4,"NORMAL":5,"TEXCOORD_0":6},"indices":7,"material":1,"mode":4},{"attributes":{"POSITION":8,"NORMAL":9,"TEXCOORD_0":10},"indices":11,"material":2,"mode":4}]}],"nodes":[{"name":"Tyranitar","mesh":0}],"samplers":[{"wrapS":10497,"wrapT":10497}],"scene":0,"scenes":[{"nodes":[0]}],"textures":[{"name":"pm0248_00_Eye1","sampler":0,"source":0},{"name":"pm0248_00_BodyA1","sampler":0,"source":1},{"name":"pm0248_00_BodyB1","sampler":0,"source":2}]}