{"accessors":[{"name":"polygon0_1_0_positions","componentType":5126,"count":48,"min":[-2.6311099529266357,4.536127090454102,-4.028870105743408],"max":[2.6311099529266357,10.923315048217773,4.054329872131348],"type":"VEC3","bufferView":0,"byteOffset":0},{"name":"polygon0_1_0_normals","componentType":5126,"count":48,"min":[-0.7116678357124329,-0.5903179049491882,-0.9675660729408264],"max":[0.7116678357124329,0.391789048910141,0.9996944665908813],"type":"VEC3","bufferView":1,"byteOffset":0},{"name":"polygon0_1_0_texcoords","componentType":5126,"count":48,"min":[0.3046880066394806,0.0078119998797774315],"max":[0.4101560115814209,0.2539060115814209],"type":"VEC2","bufferView":2,"byteOffset":0},{"name":"polygon0_1_0_indices","componentType":5123,"count":102,"min":[0],"max":[47],"type":"SCALAR","bufferView":3,"byteOffset":0},{"name":"polygon1_1_0_positions","componentType":5126,"count":1120,"min":[-7.520569801330566,-0.05571400001645088,-15.914351463317871],"max":[7.520569801330566,20.22260093688965,5.198959827423096],"type":"VEC3","bufferView":0,"byteOffset":576},{"name":"polygon1_1_0_normals","componentType":5126,"count":1120,"min":[-0.993047297000885,-1,-0.9987914562225342],"max":[0.993047297000885,0.9999753832817078,0.9929211735725403],"type":"VEC3","bufferView":1,"byteOffset":576},{"name":"polygon1_1_0_texcoords","componentType":5126,"count":1120,"min":[0.005402000155299902,0.006225999910384417],"max":[0.9857789874076843,0.9963989853858948],"type":"VEC2","bufferView":2,"byteOffset":384},{"name":"polygon1_1_0_indices","componentType":5123,"count":4182,"min":[0],"max":[1119],"type":"SCALAR","bufferView":3,"byteOffset":204},{"name":"polygon2_1_0_positions","componentType":5126,"count":6,"min":[-1.0754139423370361,16.2639102935791,3.7126619815826416],"max":[1.0754139423370361,17.15373420715332,4.870893955230713],"type":"VEC3","bufferView":0,"byteOffset":14016},{"name":"polygon2_1_0_normals","componentType":5126,"count":6,"min":[-0.8481093645095825,0.07746602594852448,0.5182892084121704],"max":[0.8481093645095825,0.36030012369155884,0.6109431982040405],"type":"VEC3","bufferView":1,"byteOffset":14016},{"name":"polygon2_1_0_texcoords","componentType":5126,"count":6,"min":[0.019531000405550003,0.0078119998797774315],"max":[0.4882810115814209,0.2421869933605194],"type":"VEC2","bufferView":2,"byteOffset":9344},{"name":"polygon2_1_0_indices","componentType":5123,"count":6,"min":[0],"max":[5],"type":"SCALAR","bufferView":3,"byteOffset":8568}],"asset":{"generator":"obj2gltf","version":"2.0"},"buffers":[{"name":"Tyranitar","byteLength":341096,"uri":"data:application/octet-stream;base64,"}],"bufferViews":[{"name":"bufferView_0","buffer":0,"byteLength":14088,"byteOffset":0,"byteStride":12,"target":34962},{"name":"bufferView_1","buffer":0,"byteLength":14088,"byteOffset":14088,"byteStride":12,"target":34962},{"name":"bufferView_2","buffer":0,"byteLength":9392,"byteOffset":28176,"byteStride":8,"target":34962},{"name":"bufferView_3","buffer":0,"byteLength":8580,"byteOffset":37568,"target":34963},{"buffer":0,"byteOffset":46148,"byteLength":196626},{"buffer":0,"byteOffset":242774,"byteLength":98322}],"images":[{"name":"BangirasDh","mimeType":"image/x-tga","bufferView":4},{"name":"BangirasEyeDh","mimeType":"image/x-tga","bufferView":5}],"materials":[{"name":"mat2","pbrMetallicRoughness":{"baseColorTexture":{"index":0},"baseColorFactor":[1,1,1,1],"metallicFactor":0,"roughnessFactor":0.99},"emissiveFactor":[0,0,0],"alphaMode":"OPAQUE","doubleSided":false},{"name":"mat1","pbrMetallicRoughness":{"baseColorTexture":{"index":0},"baseColorFactor":[1,1,1,1],"metallicFactor":0,"roughnessFactor":0.99},"emissiveFactor":[0,0,0],"alphaMode":"OPAQUE","doubleSided":false},{"name":"mat3","pbrMetallicRoughness":{"baseColorTexture":{"index":1},"baseColorFactor":[1,1,1,1],"metallicFactor":0,"roughnessFactor":0.99},"emissiveFactor":[0,0,0],"alphaMode":"OPAQUE","doubleSided":false}],"meshes":[{"name":"polygon0_1","primitives":[{"attributes":{"POSITION":0,"NORMAL":1,"TEXCOORD_0":2},"indices":3,"material":0,"mode":4}]},{"name":"polygon1_1","primitives":[{"attributes":{"POSITION":4,"NORMAL":5,"TEXCOORD_0":6},"indices":7,"material":1,"mode":4}]},{"name":"polygon2_1","primitives":[{"attributes":{"POSITION":8,"NORMAL":9,"TEXCOORD_0":10},"indices":11,"material":2,"mode":4}]}],"nodes":[{"name":"polygon0","mesh":0},{"name":"polygon1","mesh":1},{"name":"polygon2","mesh":2}],"samplers":[{"wrapS":10497,"wrapT":10497}],"scene":0,"scenes":[{"nodes":[0,1,2]}],"textures":[{"name":"BangirasDh","sampler":0,"source":0},{"name":"BangirasEyeDh","sampler":0,"source":1}]}