{"accessors":[{"name":"lugia-Mesh_0_positions","componentType":5126,"count":40,"min":[-2.454813003540039,13.397941589355469,-37.34789276123047],"max":[2.454813003540039,16.031463623046875,-34.88788986206055],"type":"VEC3","bufferView":0,"byteOffset":0},{"name":"lugia-Mesh_0_texcoords","componentType":5126,"count":40,"min":[-0.06830400228500366,-0.09820999950170517],"max":[0.9930049777030945,0.155472993850708],"type":"VEC2","bufferView":1,"byteOffset":0},{"name":"lugia-Mesh_0_indices","componentType":5123,"count":138,"min":[0],"max":[39],"type":"SCALAR","bufferView":2,"byteOffset":0},{"name":"lugia-Mesh_1_positions","componentType":5126,"count":1484,"min":[-29.513023376464844,-46.68312072753906,-41.66365432739258],"max":[29.513023376464844,17.34095573425293,4.733132839202881],"type":"VEC3","bufferView":0,"byteOffset":480},{"name":"lugia-Mesh_1_texcoords","componentType":5126,"count":1484,"min":[0.007945000194013119,0.0096859997138381],"max":[0.9598410129547119,0.9832969903945923],"type":"VEC2","bufferView":1,"byteOffset":320},{"name":"lugia-Mesh_1_indices","componentType":5123,"count":8064,"min":[0],"max":[1483],"type":"SCALAR","bufferView":2,"byteOffset":276}],"asset":{"generator":"obj2gltf","version":"2.0"},"buffers":[{"name":"BR_Lugia-Shiny01","byteLength":1619784,"uri":"data:application/octet-stream;base64,"}],"bufferViews":[{"name":"bufferView_0","buffer":0,"byteLength":18288,"byteOffset":0,"byteStride":12,"target":34962},{"name":"bufferView_1","buffer":0,"byteLength":12192,"byteOffset":18288,"byteStride":8,"target":34962},{"name":"bufferView_2","buffer":0,"byteLength":16404,"byteOffset":30480,"target":34963},{"buffer":0,"byteOffset":46884,"byteLength":524306},{"buffer":0,"byteOffset":571190,"byteLength":1048594}],"images":[{"name":"lugia_1_0","mimeType":"image/x-tga","bufferView":3},{"name":"lugia_1_1","mimeType":"image/x-tga","bufferView":4}],"materials":[{"name":"mat_0","pbrMetallicRoughness":{"baseColorTexture":{"index":0},"baseColorFactor":[1,1,1,1],"metallicFactor":0,"roughnessFactor":0.903921569},"emissiveFactor":[0,0,0],"alphaMode":"BLEND","doubleSided":true},{"name":"mat_1","pbrMetallicRoughness":{"baseColorTexture":{"index":1},"baseColorFactor":[1,1,1,1],"metallicFactor":0,"roughnessFactor":0.903921569},"emissiveFactor":[0,0,0],"alphaMode":"BLEND","doubleSided":true}],"meshes":[{"name":"lugia-Mesh","primitives":[{"attributes":{"POSITION":0,"TEXCOORD_0":1},"indices":2,"material":0,"mode":4},{"attributes":{"POSITION":3,"TEXCOORD_0":4},"indices":5,"material":1,"mode":4}]}],"nodes":[{"name":"lugia","mesh":0}],"samplers":[{"wrapS":10497,"wrapT":10497}],"scene":0,"scenes":[{"nodes":[0]}],"textures":[{"name":"lugia_1_0","sampler":0,"source":0},{"name":"lugia_1_1","sampler":0,"source":1}]}