{"accessors":[{"name":"houou-Mesh_0_positions","componentType":5126,"count":2269,"min":[-36.828243255615234,-36.316776275634766,-31.53746795654297],"max":[36.828243255615234,36.37803649902344,4.1106672286987305],"type":"VEC3","bufferView":0,"byteOffset":0},{"name":"houou-Mesh_0_texcoords","componentType":5126,"count":2269,"min":[0.000754999986384064,0.02055099979043007],"max":[0.9938380122184753,0.9814599752426147],"type":"VEC2","bufferView":1,"byteOffset":0},{"name":"houou-Mesh_0_indices","componentType":5123,"count":8226,"min":[0],"max":[2268],"type":"SCALAR","bufferView":2,"byteOffset":0},{"name":"houou-Mesh_1_positions","componentType":5126,"count":43,"min":[-2.8399710655212402,20.0740966796875,-22.019691467285156],"max":[2.839970111846924,27.498559951782227,-16.783344268798828],"type":"VEC3","bufferView":0,"byteOffset":27228},{"name":"houou-Mesh_1_texcoords","componentType":5126,"count":43,"min":[0.7631779909133911,0.03319700062274933],"max":[0.9798200130462646,0.18739399313926697],"type":"VEC2","bufferView":1,"byteOffset":18152},{"name":"houou-Mesh_1_indices","componentType":5123,"count":174,"min":[0],"max":[42],"type":"SCALAR","bufferView":2,"byteOffset":16452}],"asset":{"generator":"obj2gltf","version":"2.0"},"buffers":[{"name":"BR_Ho-Oh-Shiny01","byteLength":1111636,"uri":"data:application/octet-stream;base64,"}],"bufferViews":[{"name":"bufferView_0","buffer":0,"byteLength":27744,"byteOffset":0,"byteStride":12,"target":34962},{"name":"bufferView_1","buffer":0,"byteLength":18496,"byteOffset":27744,"byteStride":8,"target":34962},{"name":"bufferView_2","buffer":0,"byteLength":16800,"byteOffset":46240,"target":34963},{"buffer":0,"byteOffset":63040,"byteLength":1048594}],"images":[{"name":"houou_1_0","mimeType":"image/x-tga","bufferView":3}],"materials":[{"name":"mat_0","pbrMetallicRoughness":{"baseColorTexture":{"index":0},"baseColorFactor":[1,1,1,1],"metallicFactor":0,"roughnessFactor":0.903921569},"emissiveFactor":[0,0,0],"alphaMode":"BLEND","doubleSided":true},{"name":"mat_1","pbrMetallicRoughness":{"baseColorTexture":{"index":0},"baseColorFactor":[1,1,1,1],"metallicFactor":0,"roughnessFactor":0.903921569},"emissiveFactor":[0,0,0],"alphaMode":"BLEND","doubleSided":true}],"meshes":[{"name":"houou-Mesh","primitives":[{"attributes":{"POSITION":0,"TEXCOORD_0":1},"indices":2,"material":0,"mode":4},{"attributes":{"POSITION":3,"TEXCOORD_0":4},"indices":5,"material":1,"mode":4}]}],"nodes":[{"name":"houou","mesh":0}],"samplers":[{"wrapS":10497,"wrapT":10497}],"scene":0,"scenes":[{"nodes":[0]}],"textures":[{"name":"houou_1_0","sampler":0,"source":0}]}