{"accessors":[{"name":"Celebi_1_0_positions","componentType":5126,"count":36,"min":[-2.7901499271392822,30.845895767211914,3.8605220317840576],"max":[2.7901499271392822,36.53839874267578,10.44279956817627],"type":"VEC3","bufferView":0,"byteOffset":0},{"name":"Celebi_1_0_normals","componentType":5126,"count":36,"min":[-0.194195955991745,-0.8275120258331299,0.5500320196151733],"max":[0.194195955991745,-0.49458080530166626,0.8691316246986389],"type":"VEC3","bufferView":1,"byteOffset":0},{"name":"Celebi_1_0_texcoords","componentType":5126,"count":36,"min":[0.17138199508190155,-1.9953099489212036],"max":[0.32861998677253723,-1.7546900510787964],"type":"VEC2","bufferView":2,"byteOffset":0},{"name":"Celebi_1_0_indices","componentType":5123,"count":36,"min":[0],"max":[35],"type":"SCALAR","bufferView":3,"byteOffset":0},{"name":"Celebi_1_1_positions","componentType":5126,"count":12426,"min":[-34.30899429321289,0.20506900548934937,-25.81110382080078],"max":[34.30899429321289,67.9906997680664,36.333702087402344],"type":"VEC3","bufferView":0,"byteOffset":432},{"name":"Celebi_1_1_normals","componentType":5126,"count":12426,"min":[-0.9944890141487122,-0.9984104037284851,-0.9830739498138428],"max":[0.9944890141487122,0.9988358616828918,0.9994573593139648],"type":"VEC3","bufferView":1,"byteOffset":432},{"name":"Celebi_1_1_texcoords","componentType":5126,"count":12426,"min":[0,0.0039059999398887157],"max":[1,0.9936630129814148],"type":"VEC2","bufferView":2,"byteOffset":288},{"name":"Celebi_1_1_indices","componentType":5123,"count":12426,"min":[0],"max":[12425],"type":"SCALAR","bufferView":3,"byteOffset":72},{"name":"Celebi_1_2_positions","componentType":5126,"count":336,"min":[-13.015701293945312,33.78479766845703,-3.157249927520752],"max":[13.015701293945312,49.65190124511719,10.779703140258789],"type":"VEC3","bufferView":0,"byteOffset":149544},{"name":"Celebi_1_2_normals","componentType":5126,"count":336,"min":[-0.8660238981246948,-0.9227534532546997,-0.5823220014572144],"max":[0.8660233616828918,0.9025179147720337,0.8521159887313843],"type":"VEC3","bufferView":1,"byteOffset":149544},{"name":"Celebi_1_2_texcoords","componentType":5126,"count":336,"min":[0.0120430001989007,-0.9959400296211243],"max":[0.48796001076698303,-0.7540599703788757],"type":"VEC2","bufferView":2,"byteOffset":99696},{"name":"Celebi_1_2_indices","componentType":5123,"count":336,"min":[0],"max":[335],"type":"SCALAR","bufferView":3,"byteOffset":24924},{"name":"Celebi_1_3_positions","componentType":5126,"count":336,"min":[-13.114800453186035,33.721595764160156,-3.1584999561309814],"max":[13.114800453186035,49.69269561767578,10.865503311157227],"type":"VEC3","bufferView":0,"byteOffset":153576},{"name":"Celebi_1_3_normals","componentType":5126,"count":336,"min":[-0.8658701777458191,-0.8683573007583618,-0.5936609506607056],"max":[0.8660242557525635,0.8557140231132507,0.5074747800827026],"type":"VEC3","bufferView":1,"byteOffset":153576},{"name":"Celebi_1_3_texcoords","componentType":5126,"count":336,"min":[0.04816000163555145,-1.9837599992752075],"max":[0.9518399834632874,-1.0162400007247925],"type":"VEC2","bufferView":2,"byteOffset":102384},{"name":"Celebi_1_3_indices","componentType":5123,"count":336,"min":[0],"max":[335],"type":"SCALAR","bufferView":3,"byteOffset":25596}],"asset":{"generator":"obj2gltf","version":"2.0"},"buffers":[{"name":"XY_Celebi","byteLength":557212,"uri":"data:application/octet-stream;base64,"}],"bufferViews":[{"name":"bufferView_0","buffer":0,"byteLength":157608,"byteOffset":0,"byteStride":12,"target":34962},{"name":"bufferView_1","buffer":0,"byteLength":157608,"byteOffset":157608,"byteStride":12,"target":34962},{"name":"bufferView_2","buffer":0,"byteLength":105072,"byteOffset":315216,"byteStride":8,"target":34962},{"name":"bufferView_3","buffer":0,"byteLength":26268,"byteOffset":420288,"target":34963},{"buffer":0,"byteOffset":446556,"byteLength":12290},{"buffer":0,"byteOffset":458846,"byteLength":59858},{"buffer":0,"byteOffset":518704,"byteLength":36217},{"buffer":0,"byteOffset":554921,"byteLength":2288}],"images":[{"name":"pm0251_00_Mouth1","mimeType":"image/png","bufferView":4},{"name":"pm0251_00_Body1","mimeType":"image/png","bufferView":5},{"name":"pm0251_00_Eye1","mimeType":"image/png","bufferView":6},{"name":"pm0251_00_Iris1","mimeType":"image/png","bufferView":7}],"materials":[{"name":"Material__50","pbrMetallicRoughness":{"baseColorTexture":{"index":0},"baseColorFactor":[1,1,1,1],"metallicFactor":0,"roughnessFactor":0.998},"emissiveFactor":[0,0,0],"alphaMode":"OPAQUE","doubleSided":false},{"name":"Material__51","pbrMetallicRoughness":{"baseColorTexture":{"index":1},"baseColorFactor":[1,1,1,1],"metallicFactor":0,"roughnessFactor":0.998},"emissiveFactor":[0,0,0],"alphaMode":"OPAQUE","doubleSided":false},{"name":"Material__52","pbrMetallicRoughness":{"baseColorTexture":{"index":2},"baseColorFactor":[1,1,1,1],"metallicFactor":0,"roughnessFactor":0.998},"emissiveFactor":[0,0,0],"alphaMode":"OPAQUE","doubleSided":false},{"name":"Material__53","pbrMetallicRoughness":{"baseColorTexture":{"index":3},"baseColorFactor":[1,1,1,1],"metallicFactor":0,"roughnessFactor":0.998},"emissiveFactor":[0,0,0],"alphaMode":"OPAQUE","doubleSided":false}],"meshes":[{"name":"Celebi_1","primitives":[{"attributes":{"POSITION":0,"NORMAL":1,"TEXCOORD_0":2},"indices":3,"material":0,"mode":4},{"attributes":{"POSITION":4,"NORMAL":5,"TEXCOORD_0":6},"indices":7,"material":1,"mode":4},{"attributes":{"POSITION":8,"NORMAL":9,"TEXCOORD_0":10},"indices":11,"material":2,"mode":4},{"attributes":{"POSITION":12,"NORMAL":13,"TEXCOORD_0":14},"indices":15,"material":3,"mode":4}]}],"nodes":[{"name":"Celebi","mesh":0}],"samplers":[{"wrapS":10497,"wrapT":10497}],"scene":0,"scenes":[{"nodes":[0]}],"textures":[{"name":"pm0251_00_Mouth1","sampler":0,"source":0},{"name":"pm0251_00_Body1","sampler":0,"source":1},{"name":"pm0251_00_Eye1","sampler":0,"source":2},{"name":"pm0251_00_Iris1","sampler":0,"source":3}]}