{"accessors":[{"name":"polygon0_1_0_positions","componentType":5126,"count":839,"min":[-3.267587900161743,0.013508000411093235,-2.474370002746582],"max":[3.2675869464874268,6.551517963409424,1.7193609476089478],"type":"VEC3","bufferView":0,"byteOffset":0},{"name":"polygon0_1_0_normals","componentType":5126,"count":839,"min":[-0.9998310804367065,-0.9993754029273987,-0.9998221397399902],"max":[0.9998310804367065,0.9992814064025879,0.9985201954841614],"type":"VEC3","bufferView":1,"byteOffset":0},{"name":"polygon0_1_0_texcoords","componentType":5126,"count":839,"min":[0.013152999803423882,0.01046799961477518],"max":[0.9897459745407104,0.9860230088233948],"type":"VEC2","bufferView":2,"byteOffset":0},{"name":"polygon0_1_0_indices","componentType":5123,"count":4176,"min":[0],"max":[838],"type":"SCALAR","bufferView":3,"byteOffset":0},{"name":"polygon1_1_0_positions","componentType":5126,"count":34,"min":[-1.2844029664993286,2.906451940536499,0.4469679892063141],"max":[1.2844020128250122,4.326620101928711,1.5011529922485352],"type":"VEC3","bufferView":0,"byteOffset":10068},{"name":"polygon1_1_0_normals","componentType":5126,"count":34,"min":[-0.9514973163604736,-0.596990168094635,0.19721005856990814],"max":[0.9514973163604736,0.4349938929080963,0.9701552391052246],"type":"VEC3","bufferView":1,"byteOffset":10068},{"name":"polygon1_1_0_texcoords","componentType":5126,"count":34,"min":[0.0039059999398887157,0.0039059999398887157],"max":[0.5,0.2460940033197403],"type":"VEC2","bufferView":2,"byteOffset":6712},{"name":"polygon1_1_0_indices","componentType":5123,"count":126,"min":[0],"max":[33],"type":"SCALAR","bufferView":3,"byteOffset":8352},{"name":"polygon2_1_0_positions","componentType":5126,"count":10,"min":[-0.29883599281311035,2.4643280506134033,0.6340919733047485],"max":[0.29883599281311035,2.90644907951355,1.2234699726104736],"type":"VEC3","bufferView":0,"byteOffset":10476},{"name":"polygon2_1_0_normals","componentType":5126,"count":10,"min":[-0.23186703026294708,-0.9483593106269836,0.31719809770584106],"max":[0.23186703026294708,-0.6532677412033081,0.7525691986083984],"type":"VEC3","bufferView":1,"byteOffset":10476},{"name":"polygon2_1_0_texcoords","componentType":5126,"count":10,"min":[0.015625,0.0078119998797774315],"max":[0.4882810115814209,0.2382809966802597],"type":"VEC2","bufferView":2,"byteOffset":6984},{"name":"polygon2_1_0_indices","componentType":5123,"count":24,"min":[0],"max":[9],"type":"SCALAR","bufferView":3,"byteOffset":8604},{"name":"polygon3_1_0_positions","componentType":5126,"count":28,"min":[0.0971049964427948,2.007272958755493,-1.7132949829101562],"max":[1.3058700561523438,2.8461389541625977,-0.2913860082626343],"type":"VEC3","bufferView":0,"byteOffset":10596},{"name":"polygon3_1_0_normals","componentType":5126,"count":28,"min":[-0.8853631615638733,-0.8488736748695374,-0.9618397355079651],"max":[0.8924229741096497,0.9731233716011047,0.9533817768096924],"type":"VEC3","bufferView":1,"byteOffset":10596},{"name":"polygon3_1_0_texcoords","componentType":5126,"count":28,"min":[0.4419249892234802,0.9287109971046448],"max":[0.5745239853858948,0.9794309735298157],"type":"VEC2","bufferView":2,"byteOffset":7064},{"name":"polygon3_1_0_indices","componentType":5123,"count":72,"min":[0],"max":[27],"type":"SCALAR","bufferView":3,"byteOffset":8652},{"name":"polygon4_1_0_positions","componentType":5126,"count":28,"min":[-1.3058700561523438,2.0072720050811768,-1.7132960557937622],"max":[-0.0971049964427948,2.8461389541625977,-0.2913860082626343],"type":"VEC3","bufferView":0,"byteOffset":10932},{"name":"polygon4_1_0_normals","componentType":5126,"count":28,"min":[-0.892423152923584,-0.8488738536834717,-0.9618399143218994],"max":[0.8853739500045776,0.9731235504150391,0.9533814787864685],"type":"VEC3","bufferView":1,"byteOffset":10932},{"name":"polygon4_1_0_texcoords","componentType":5126,"count":28,"min":[0.4419249892234802,0.9287109971046448],"max":[0.5745239853858948,0.9794309735298157],"type":"VEC2","bufferView":2,"byteOffset":7288},{"name":"polygon4_1_0_indices","componentType":5123,"count":72,"min":[0],"max":[27],"type":"SCALAR","bufferView":3,"byteOffset":8796}],"asset":{"generator":"obj2gltf","version":"2.0"},"buffers":[{"name":"Celebi","byteLength":432260,"uri":"data:application/octet-stream;base64,"}],"bufferViews":[{"name":"bufferView_0","buffer":0,"byteLength":11268,"byteOffset":0,"byteStride":12,"target":34962},{"name":"bufferView_1","buffer":0,"byteLength":11268,"byteOffset":11268,"byteStride":12,"target":34962},{"name":"bufferView_2","buffer":0,"byteLength":7512,"byteOffset":22536,"byteStride":8,"target":34962},{"name":"bufferView_3","buffer":0,"byteLength":8940,"byteOffset":30048,"target":34963},{"buffer":0,"byteOffset":38988,"byteLength":196626},{"buffer":0,"byteOffset":235614,"byteLength":98322},{"buffer":0,"byteOffset":333936,"byteLength":98322}],"images":[{"name":"CelebiDh","mimeType":"image/x-tga","bufferView":4},{"name":"CelebiEyeDh","mimeType":"image/x-tga","bufferView":5},{"name":"CelebiMouthDh","mimeType":"image/x-tga","bufferView":6}],"materials":[{"name":"mat1","pbrMetallicRoughness":{"baseColorTexture":{"index":0},"baseColorFactor":[1,1,1,1],"metallicFactor":0,"roughnessFactor":0.99},"emissiveFactor":[0,0,0],"alphaMode":"OPAQUE","doubleSided":false},{"name":"mat3","pbrMetallicRoughness":{"baseColorTexture":{"index":1},"baseColorFactor":[1,1,1,1],"metallicFactor":0,"roughnessFactor":0.99},"emissiveFactor":[0,0,0],"alphaMode":"OPAQUE","doubleSided":false},{"name":"mat4","pbrMetallicRoughness":{"baseColorTexture":{"index":2},"baseColorFactor":[1,1,1,1],"metallicFactor":0,"roughnessFactor":0.99},"emissiveFactor":[0,0,0],"alphaMode":"OPAQUE","doubleSided":false},{"name":"mat2","pbrMetallicRoughness":{"baseColorTexture":{"index":0},"baseColorFactor":[1,1,1,1],"metallicFactor":0,"roughnessFactor":0.99},"emissiveFactor":[0,0,0],"alphaMode":"OPAQUE","doubleSided":false}],"meshes":[{"name":"polygon0_1","primitives":[{"attributes":{"POSITION":0,"NORMAL":1,"TEXCOORD_0":2},"indices":3,"material":0,"mode":4}]},{"name":"polygon1_1","primitives":[{"attributes":{"POSITION":4,"NORMAL":5,"TEXCOORD_0":6},"indices":7,"material":1,"mode":4}]},{"name":"polygon2_1","primitives":[{"attributes":{"POSITION":8,"NORMAL":9,"TEXCOORD_0":10},"indices":11,"material":2,"mode":4}]},{"name":"polygon3_1","primitives":[{"attributes":{"POSITION":12,"NORMAL":13,"TEXCOORD_0":14},"indices":15,"material":3,"mode":4}]},{"name":"polygon4_1","primitives":[{"attributes":{"POSITION":16,"NORMAL":17,"TEXCOORD_0":18},"indices":19,"material":3,"mode":4}]}],"nodes":[{"name":"polygon0","mesh":0},{"name":"polygon1","mesh":1},{"name":"polygon2","mesh":2},{"name":"polygon3","mesh":3},{"name":"polygon4","mesh":4}],"samplers":[{"wrapS":10497,"wrapT":10497}],"scene":0,"scenes":[{"nodes":[0,1,2,3,4]}],"textures":[{"name":"CelebiDh","sampler":0,"source":0},{"name":"CelebiEyeDh","sampler":0,"source":1},{"name":"CelebiMouthDh","sampler":0,"source":2}]}