{"accessors":[{"name":"polygon0_1_0_positions","componentType":5126,"count":58,"min":[-0.7784990072250366,3.3323171138763428,-0.216839998960495],"max":[0.7784990072250366,4.663111209869385,0.676675021648407],"type":"VEC3","bufferView":0,"byteOffset":0},{"name":"polygon0_1_0_normals","componentType":5126,"count":58,"min":[-0.9945597648620605,-0.18695399165153503,-0.3814179301261902],"max":[0.9945597648620605,0.3741549253463745,0.6721581816673279],"type":"VEC3","bufferView":1,"byteOffset":0},{"name":"polygon0_1_0_texcoords","componentType":5126,"count":58,"min":[0.045288000255823135,-0.005890000145882368],"max":[0.4366759955883026,0.2527469992637634],"type":"VEC2","bufferView":2,"byteOffset":0},{"name":"polygon0_1_0_indices","componentType":5123,"count":246,"min":[0],"max":[57],"type":"SCALAR","bufferView":3,"byteOffset":0},{"name":"polygon1_1_0_positions","componentType":5126,"count":920,"min":[-2.4645400047302246,-9.999999974752427e-7,-2.850944995880127],"max":[2.464540958404541,4.980064868927002,1.392773985862732],"type":"VEC3","bufferView":0,"byteOffset":696},{"name":"polygon1_1_0_normals","componentType":5126,"count":920,"min":[-0.9969505071640015,-0.9999642968177795,-0.9990972876548767],"max":[0.9969505071640015,0.9998956918716431,0.9988462924957275],"type":"VEC3","bufferView":1,"byteOffset":696},{"name":"polygon1_1_0_texcoords","componentType":5126,"count":920,"min":[0.007323999889194965,0.004395000170916319],"max":[0.9898070096969604,0.9926450252532959],"type":"VEC2","bufferView":2,"byteOffset":464},{"name":"polygon1_1_0_indices","componentType":5123,"count":4398,"min":[0],"max":[919],"type":"SCALAR","bufferView":3,"byteOffset":492}],"asset":{"generator":"obj2gltf","version":"2.0"},"buffers":[{"name":"Treecko","byteLength":335532,"uri":"data:application/octet-stream;base64,"}],"bufferViews":[{"name":"bufferView_0","buffer":0,"byteLength":11736,"byteOffset":0,"byteStride":12,"target":34962},{"name":"bufferView_1","buffer":0,"byteLength":11736,"byteOffset":11736,"byteStride":12,"target":34962},{"name":"bufferView_2","buffer":0,"byteLength":7824,"byteOffset":23472,"byteStride":8,"target":34962},{"name":"bufferView_3","buffer":0,"byteLength":9288,"byteOffset":31296,"target":34963},{"buffer":0,"byteOffset":40584,"byteLength":98322},{"buffer":0,"byteOffset":138906,"byteLength":196626}],"images":[{"name":"KimoriEyeDh","mimeType":"image/x-tga","bufferView":4},{"name":"KimoriDh","mimeType":"image/x-tga","bufferView":5}],"materials":[{"name":"mat2","pbrMetallicRoughness":{"baseColorTexture":{"index":0},"baseColorFactor":[1,1,1,1],"metallicFactor":0,"roughnessFactor":0.99},"emissiveFactor":[0,0,0],"alphaMode":"OPAQUE","doubleSided":false},{"name":"mat1","pbrMetallicRoughness":{"baseColorTexture":{"index":1},"baseColorFactor":[1,1,1,1],"metallicFactor":0,"roughnessFactor":0.99},"emissiveFactor":[0,0,0],"alphaMode":"OPAQUE","doubleSided":false}],"meshes":[{"name":"polygon0_1","primitives":[{"attributes":{"POSITION":0,"NORMAL":1,"TEXCOORD_0":2},"indices":3,"material":0,"mode":4}]},{"name":"polygon1_1","primitives":[{"attributes":{"POSITION":4,"NORMAL":5,"TEXCOORD_0":6},"indices":7,"material":1,"mode":4}]}],"nodes":[{"name":"polygon0","mesh":0},{"name":"polygon1","mesh":1}],"samplers":[{"wrapS":10497,"wrapT":10497}],"scene":0,"scenes":[{"nodes":[0,1]}],"textures":[{"name":"KimoriEyeDh","sampler":0,"source":0},{"name":"KimoriDh","sampler":0,"source":1}]}