{"accessors":[{"name":"juptile_c-Mesh_0_positions","componentType":5126,"count":112,"min":[-3.9855101108551025,-5.914140224456787,-5.45504093170166],"max":[3.9855101108551025,0.28432801365852356,-2.5869109630584717],"type":"VEC3","bufferView":0,"byteOffset":0},{"name":"juptile_c-Mesh_0_texcoords","componentType":5126,"count":112,"min":[0.03674300014972687,0.0078119998797774315],"max":[0.9632570147514343,0.9921870231628418],"type":"VEC2","bufferView":1,"byteOffset":0},{"name":"juptile_c-Mesh_0_indices","componentType":5123,"count":279,"min":[0],"max":[111],"type":"SCALAR","bufferView":2,"byteOffset":0},{"name":"juptile_c-Mesh_1_positions","componentType":5126,"count":346,"min":[-5.313729763031006,-1.4851499795913696,-8.927680969238281],"max":[5.313729763031006,3.0921099185943604,-0.003002000041306019],"type":"VEC3","bufferView":0,"byteOffset":1344},{"name":"juptile_c-Mesh_1_texcoords","componentType":5126,"count":346,"min":[0,-0.20479999482631683],"max":[1.3848999738693237,1.1832959651947021],"type":"VEC2","bufferView":1,"byteOffset":896},{"name":"juptile_c-Mesh_1_indices","componentType":5123,"count":1704,"min":[0],"max":[345],"type":"SCALAR","bufferView":2,"byteOffset":560},{"name":"juptile_c-Mesh_2_positions","componentType":5126,"count":49,"min":[-1.1151700019836426,-0.011547000147402287,-7.766911029815674],"max":[1.1151700019836426,2.8587400913238525,-1.8261909484863281],"type":"VEC3","bufferView":0,"byteOffset":5496},{"name":"juptile_c-Mesh_2_texcoords","componentType":5126,"count":49,"min":[-0.12884999811649323,0.026041999459266663],"max":[0.96875,1.5390440225601196],"type":"VEC2","bufferView":1,"byteOffset":3664},{"name":"juptile_c-Mesh_2_indices","componentType":5123,"count":174,"min":[0],"max":[48],"type":"SCALAR","bufferView":2,"byteOffset":3968},{"name":"juptile_c-Mesh_3_positions","componentType":5126,"count":9,"min":[-0.89581698179245,-1.3883299827575684,-2.579951047897339],"max":[0.8958179950714111,0.1654520034790039,-1.8261909484863281],"type":"VEC3","bufferView":0,"byteOffset":6084},{"name":"juptile_c-Mesh_3_texcoords","componentType":5126,"count":9,"min":[-0.01420500036329031,0.04086500033736229],"max":[0.9978700280189514,1.1226179599761963],"type":"VEC2","bufferView":1,"byteOffset":4056},{"name":"juptile_c-Mesh_3_indices","componentType":5123,"count":24,"min":[0],"max":[8],"type":"SCALAR","bufferView":2,"byteOffset":4316},{"name":"juptile_c-Mesh_4_positions","componentType":5126,"count":18,"min":[-0.6416109800338745,-9.523850440979004,-13.810900688171387],"max":[0.641444981098175,1.7451800107955933,-8.642641067504883],"type":"VEC3","bufferView":0,"byteOffset":6192},{"name":"juptile_c-Mesh_4_texcoords","componentType":5126,"count":18,"min":[0.00033999999868683517,0.00838099978864193],"max":[0.9625219702720642,0.9916189908981323],"type":"VEC2","bufferView":1,"byteOffset":4128},{"name":"juptile_c-Mesh_4_indices","componentType":5123,"count":48,"min":[0],"max":[17],"type":"SCALAR","bufferView":2,"byteOffset":4364},{"name":"juptile_c-Mesh_5_positions","componentType":5126,"count":30,"min":[-0.8695539832115173,0.7079740166664124,-8.82654094696045],"max":[0.8695539832115173,2.6364400386810303,-7.600821018218994],"type":"VEC3","bufferView":0,"byteOffset":6408},{"name":"juptile_c-Mesh_5_texcoords","componentType":5126,"count":30,"min":[-0.06684999912977219,0.029399000108242035],"max":[1.16389000415802,0.29102399945259094],"type":"VEC2","bufferView":1,"byteOffset":4272},{"name":"juptile_c-Mesh_5_indices","componentType":5123,"count":96,"min":[0],"max":[29],"type":"SCALAR","bufferView":2,"byteOffset":4460},{"name":"juptile_c-Mesh_6_positions","componentType":5126,"count":7,"min":[-0.28431499004364014,2.6364400386810303,-8.33108139038086],"max":[0.28431499004364014,3.0921099185943604,-7.741621017456055],"type":"VEC3","bufferView":0,"byteOffset":6768},{"name":"juptile_c-Mesh_6_texcoords","componentType":5126,"count":7,"min":[-1.8267500400543213,-1.5973800420761108],"max":[1.7209899425506592,1.1594630479812622],"type":"VEC2","bufferView":1,"byteOffset":4512},{"name":"juptile_c-Mesh_6_indices","componentType":5123,"count":12,"min":[0],"max":[6],"type":"SCALAR","bufferView":2,"byteOffset":4652},{"name":"juptile_c-Mesh_7_positions","componentType":5126,"count":16,"min":[-0.6947759985923767,0.8387249708175659,-7.88408088684082],"max":[0.6947759985923767,2.8587400913238525,-7.585751056671143],"type":"VEC3","bufferView":0,"byteOffset":6852},{"name":"juptile_c-Mesh_7_texcoords","componentType":5126,"count":16,"min":[-0.05000000074505806,0.0062500000931322575],"max":[1,0.9885830283164978],"type":"VEC2","bufferView":1,"byteOffset":4568},{"name":"juptile_c-Mesh_7_indices","componentType":5123,"count":66,"min":[0],"max":[15],"type":"SCALAR","bufferView":2,"byteOffset":4676},{"name":"juptile_c-Mesh_8_positions","componentType":5126,"count":16,"min":[-0.769070029258728,0.7079740166664124,-7.88408088684082],"max":[0.769070029258728,2.6308300495147705,-7.600821018218994],"type":"VEC3","bufferView":0,"byteOffset":7044},{"name":"juptile_c-Mesh_8_texcoords","componentType":5126,"count":16,"min":[-0.16469700634479523,-0.09109000116586685],"max":[1.0004600286483765,1.1833629608154297],"type":"VEC2","bufferView":1,"byteOffset":4696},{"name":"juptile_c-Mesh_8_indices","componentType":5123,"count":42,"min":[0],"max":[15],"type":"SCALAR","bufferView":2,"byteOffset":4808}],"asset":{"generator":"obj2gltf","version":"2.0"},"buffers":[{"name":"BR_Grovyle-Shiny01","byteLength":111388,"uri":"data:application/octet-stream;base64,"}],"bufferViews":[{"name":"bufferView_0","buffer":0,"byteLength":7236,"byteOffset":0,"byteStride":12,"target":34962},{"name":"bufferView_1","buffer":0,"byteLength":4824,"byteOffset":7236,"byteStride":8,"target":34962},{"name":"bufferView_2","buffer":0,"byteLength":4892,"byteOffset":12060,"target":34963},{"buffer":0,"byteOffset":16952,"byteLength":8210},{"buffer":0,"byteOffset":25162,"byteLength":82},{"buffer":0,"byteOffset":25244,"byteLength":4114},{"buffer":0,"byteOffset":29358,"byteLength":4114},{"buffer":0,"byteOffset":33472,"byteLength":8210},{"buffer":0,"byteOffset":41682,"byteLength":49170},{"buffer":0,"byteOffset":90852,"byteLength":4114},{"buffer":0,"byteOffset":94966,"byteLength":8210},{"buffer":0,"byteOffset":103176,"byteLength":8210}],"images":[{"name":"juptile_c_1_0","mimeType":"image/x-tga","bufferView":3},{"name":"juptile_c_1_1","mimeType":"image/x-tga","bufferView":4},{"name":"juptile_c_1_3","mimeType":"image/x-tga","bufferView":5},{"name":"juptile_c_1_5","mimeType":"image/x-tga","bufferView":6},{"name":"juptile_c_1_7","mimeType":"image/x-tga","bufferView":7},{"name":"juptile_c_1_8","mimeType":"image/x-tga","bufferView":8},{"name":"juptile_c_1_10","mimeType":"image/x-tga","bufferView":9},{"name":"juptile_c_1_12","mimeType":"image/x-tga","bufferView":10},{"name":"juptile_c_1_13","mimeType":"image/x-tga","bufferView":11}],"materials":[{"name":"mat_0","pbrMetallicRoughness":{"baseColorTexture":{"index":0},"baseColorFactor":[1,1,1,1],"metallicFactor":0,"roughnessFactor":0.903921569},"emissiveFactor":[0,0,0],"alphaMode":"BLEND","doubleSided":true},{"name":"mat_1","pbrMetallicRoughness":{"baseColorTexture":{"index":1},"baseColorFactor":[1,1,1,1],"metallicFactor":0,"roughnessFactor":0.903921569},"emissiveFactor":[0,0,0],"alphaMode":"BLEND","doubleSided":true},{"name":"mat_2","pbrMetallicRoughness":{"baseColorTexture":{"index":2},"baseColorFactor":[1,1,1,1],"metallicFactor":0,"roughnessFactor":0.903921569},"emissiveFactor":[0,0,0],"alphaMode":"BLEND","doubleSided":true},{"name":"mat_3","pbrMetallicRoughness":{"baseColorTexture":{"index":3},"baseColorFactor":[1,1,1,1],"metallicFactor":0,"roughnessFactor":0.903921569},"emissiveFactor":[0,0,0],"alphaMode":"BLEND","doubleSided":true},{"name":"mat_4","pbrMetallicRoughness":{"baseColorTexture":{"index":4},"baseColorFactor":[1,1,1,1],"metallicFactor":0,"roughnessFactor":0.903921569},"emissiveFactor":[0,0,0],"alphaMode":"BLEND","doubleSided":true},{"name":"mat_5","pbrMetallicRoughness":{"baseColorTexture":{"index":5},"baseColorFactor":[1,1,1,1],"metallicFactor":0,"roughnessFactor":0.903921569},"emissiveFactor":[0,0,0],"alphaMode":"BLEND","doubleSided":true},{"name":"mat_6","pbrMetallicRoughness":{"baseColorTexture":{"index":6},"baseColorFactor":[1,1,1,1],"metallicFactor":0,"roughnessFactor":0.903921569},"emissiveFactor":[0,0,0],"alphaMode":"BLEND","doubleSided":true},{"name":"mat_7","pbrMetallicRoughness":{"baseColorTexture":{"index":7},"baseColorFactor":[1,1,1,1],"metallicFactor":0,"roughnessFactor":0.903921569},"emissiveFactor":[0,0,0],"alphaMode":"BLEND","doubleSided":true},{"name":"mat_8","pbrMetallicRoughness":{"baseColorTexture":{"index":8},"baseColorFactor":[1,1,1,1],"metallicFactor":0,"roughnessFactor":0.903921569},"emissiveFactor":[0,0,0],"alphaMode":"BLEND","doubleSided":true}],"meshes":[{"name":"juptile_c-Mesh","primitives":[{"attributes":{"POSITION":0,"TEXCOORD_0":1},"indices":2,"material":0,"mode":4},{"attributes":{"POSITION":3,"TEXCOORD_0":4},"indices":5,"material":1,"mode":4},{"attributes":{"POSITION":6,"TEXCOORD_0":7},"indices":8,"material":2,"mode":4},{"attributes":{"POSITION":9,"TEXCOORD_0":10},"indices":11,"material":3,"mode":4},{"attributes":{"POSITION":12,"TEXCOORD_0":13},"indices":14,"material":4,"mode":4},{"attributes":{"POSITION":15,"TEXCOORD_0":16},"indices":17,"material":5,"mode":4},{"attributes":{"POSITION":18,"TEXCOORD_0":19},"indices":20,"material":6,"mode":4},{"attributes":{"POSITION":21,"TEXCOORD_0":22},"indices":23,"material":7,"mode":4},{"attributes":{"POSITION":24,"TEXCOORD_0":25},"indices":26,"material":8,"mode":4}]}],"nodes":[{"name":"juptile_c","mesh":0}],"samplers":[{"wrapS":10497,"wrapT":10497}],"scene":0,"scenes":[{"nodes":[0]}],"textures":[{"name":"juptile_c_1_0","sampler":0,"source":0},{"name":"juptile_c_1_1","sampler":0,"source":1},{"name":"juptile_c_1_3","sampler":0,"source":2},{"name":"juptile_c_1_5","sampler":0,"source":3},{"name":"juptile_c_1_7","sampler":0,"source":4},{"name":"juptile_c_1_8","sampler":0,"source":5},{"name":"juptile_c_1_10","sampler":0,"source":6},{"name":"juptile_c_1_12","sampler":0,"source":7},{"name":"juptile_c_1_13","sampler":0,"source":8}]}