{"accessors":[{"name":"polygon0_1_0_positions","componentType":5126,"count":924,"min":[-0.9716489911079407,-0.008093000389635563,-1.426419973373413],"max":[0.9716489911079407,4.001760005950928,1.1372499465942383],"type":"VEC3","bufferView":0,"byteOffset":0},{"name":"polygon0_1_0_normals","componentType":5126,"count":924,"min":[-0.9964796304702759,-0.999992847442627,-0.9985301494598389],"max":[0.9964796304702759,0.9999911189079285,0.9997612237930298],"type":"VEC3","bufferView":1,"byteOffset":0},{"name":"polygon0_1_0_texcoords","componentType":5126,"count":924,"min":[0.009856999851763248,0.0078119998797774315],"max":[0.9958189725875854,0.9917600154876709],"type":"VEC2","bufferView":2,"byteOffset":0},{"name":"polygon0_1_0_indices","componentType":5123,"count":4278,"min":[0],"max":[923],"type":"SCALAR","bufferView":3,"byteOffset":0},{"name":"polygon1_1_0_positions","componentType":5126,"count":22,"min":[-0.7513399720191956,1.6463899612426758,0.5457969903945923],"max":[0.7513399720191956,2.2864229679107666,0.9227870106697083],"type":"VEC3","bufferView":0,"byteOffset":11088},{"name":"polygon1_1_0_normals","componentType":5126,"count":22,"min":[-0.7758600115776062,-0.5386341214179993,0.47332608699798584],"max":[0.7758600115776062,0.38627514243125916,0.9468751549720764],"type":"VEC3","bufferView":1,"byteOffset":11088},{"name":"polygon1_1_0_texcoords","componentType":5126,"count":22,"min":[0.0664059966802597,0.0078119998797774315],"max":[0.4335939884185791,0.2421869933605194],"type":"VEC2","bufferView":2,"byteOffset":7392},{"name":"polygon1_1_0_indices","componentType":5123,"count":66,"min":[0],"max":[21],"type":"SCALAR","bufferView":3,"byteOffset":8556}],"asset":{"generator":"obj2gltf","version":"2.0"},"buffers":[{"name":"Torchic","byteLength":333908,"uri":"data:application/octet-stream;base64,"}],"bufferViews":[{"name":"bufferView_0","buffer":0,"byteLength":11352,"byteOffset":0,"byteStride":12,"target":34962},{"name":"bufferView_1","buffer":0,"byteLength":11352,"byteOffset":11352,"byteStride":12,"target":34962},{"name":"bufferView_2","buffer":0,"byteLength":7568,"byteOffset":22704,"byteStride":8,"target":34962},{"name":"bufferView_3","buffer":0,"byteLength":8688,"byteOffset":30272,"target":34963},{"buffer":0,"byteOffset":38960,"byteLength":196626},{"buffer":0,"byteOffset":235586,"byteLength":98322}],"images":[{"name":"AchamoDh","mimeType":"image/x-tga","bufferView":4},{"name":"AchamoEyeDh","mimeType":"image/x-tga","bufferView":5}],"materials":[{"name":"mat1","pbrMetallicRoughness":{"baseColorTexture":{"index":0},"baseColorFactor":[1,1,1,1],"metallicFactor":0,"roughnessFactor":0.99},"emissiveFactor":[0,0,0],"alphaMode":"OPAQUE","doubleSided":false},{"name":"mat2","pbrMetallicRoughness":{"baseColorTexture":{"index":1},"baseColorFactor":[1,1,1,1],"metallicFactor":0,"roughnessFactor":0.99},"emissiveFactor":[0,0,0],"alphaMode":"OPAQUE","doubleSided":false}],"meshes":[{"name":"polygon0_1","primitives":[{"attributes":{"POSITION":0,"NORMAL":1,"TEXCOORD_0":2},"indices":3,"material":0,"mode":4}]},{"name":"polygon1_1","primitives":[{"attributes":{"POSITION":4,"NORMAL":5,"TEXCOORD_0":6},"indices":7,"material":1,"mode":4}]}],"nodes":[{"name":"polygon0","mesh":0},{"name":"polygon1","mesh":1}],"samplers":[{"wrapS":10497,"wrapT":10497}],"scene":0,"scenes":[{"nodes":[0,1]}],"textures":[{"name":"AchamoDh","sampler":0,"source":0},{"name":"AchamoEyeDh","sampler":0,"source":1}]}