{"accessors":[{"name":"wakasyamo_c-Mesh_0_positions","componentType":5126,"count":16,"min":[-3.0511701107025146,-1.069200038909912,-0.9484410285949707],"max":[3.4630401134490967,1.069200038909912,0.7955210208892822],"type":"VEC3","bufferView":0,"byteOffset":0},{"name":"wakasyamo_c-Mesh_0_texcoords","componentType":5126,"count":16,"min":[0.1703989952802658,0.5297390222549438],"max":[0.8919829726219177,0.9665390253067017],"type":"VEC2","bufferView":1,"byteOffset":0},{"name":"wakasyamo_c-Mesh_0_indices","componentType":5123,"count":48,"min":[0],"max":[15],"type":"SCALAR","bufferView":2,"byteOffset":0}],"asset":{"generator":"obj2gltf","version":"2.0"},"buffers":[{"name":"BR_Combusken-Shiny01","byteLength":16820,"uri":"data:application/octet-stream;base64,"}],"bufferViews":[{"name":"bufferView_0","buffer":0,"byteLength":192,"byteOffset":0,"byteStride":12,"target":34962},{"name":"bufferView_1","buffer":0,"byteLength":128,"byteOffset":192,"byteStride":8,"target":34962},{"name":"bufferView_2","buffer":0,"byteLength":96,"byteOffset":320,"target":34963},{"buffer":0,"byteOffset":416,"byteLength":16402}],"images":[{"name":"wakasyamo_c_1_0","mimeType":"image/x-tga","bufferView":3}],"materials":[{"name":"mat_0","pbrMetallicRoughness":{"baseColorTexture":{"index":0},"baseColorFactor":[1,1,1,1],"metallicFactor":0,"roughnessFactor":0.903921569},"emissiveFactor":[0,0,0],"alphaMode":"BLEND","doubleSided":true}],"meshes":[{"name":"wakasyamo_c-Mesh","primitives":[{"attributes":{"POSITION":0,"TEXCOORD_0":1},"indices":2,"material":0,"mode":4}]}],"nodes":[{"name":"wakasyamo_c","mesh":0}],"samplers":[{"wrapS":10497,"wrapT":10497}],"scene":0,"scenes":[{"nodes":[0]}],"textures":[{"name":"wakasyamo_c_1_0","sampler":0,"source":0}]}