{"accessors":[{"name":"polygon0_1_0_positions","componentType":5126,"count":1177,"min":[-9.518165588378906,-0.16679300367832184,-5.325965881347656],"max":[9.51816463470459,19.238855361938477,2.5529730319976807],"type":"VEC3","bufferView":0,"byteOffset":0},{"name":"polygon0_1_0_normals","componentType":5126,"count":1177,"min":[-0.9985370635986328,-0.9999715685844421,-0.9995619654655457],"max":[0.9985370635986328,0.9999642372131348,0.9997884631156921],"type":"VEC3","bufferView":1,"byteOffset":0},{"name":"polygon0_1_0_texcoords","componentType":5126,"count":1177,"min":[0.0016479999758303165,0.002196999965235591],"max":[0.9966740012168884,0.9959110021591187],"type":"VEC2","bufferView":2,"byteOffset":0},{"name":"polygon0_1_0_indices","componentType":5123,"count":4788,"min":[0],"max":[1176],"type":"SCALAR","bufferView":3,"byteOffset":0},{"name":"polygon1_1_0_positions","componentType":5126,"count":10,"min":[-1.2539379596710205,16.237133026123047,0.4608449935913086],"max":[1.2539379596710205,17.474891662597656,1.6867820024490356],"type":"VEC3","bufferView":0,"byteOffset":14124},{"name":"polygon1_1_0_normals","componentType":5126,"count":10,"min":[-0.9557327032089233,-0.3071240782737732,0.13750995695590973],"max":[0.9557327032089233,-0.09728699922561646,0.5416149497032166],"type":"VEC3","bufferView":1,"byteOffset":14124},{"name":"polygon1_1_0_texcoords","componentType":5126,"count":10,"min":[0.01126100029796362,0.015564000234007835],"max":[0.9841610193252563,0.1852719932794571],"type":"VEC2","bufferView":2,"byteOffset":9416},{"name":"polygon1_1_0_indices","componentType":5123,"count":18,"min":[0],"max":[9],"type":"SCALAR","bufferView":3,"byteOffset":9576}],"asset":{"generator":"obj2gltf","version":"2.0"},"buffers":[{"name":"Blaziken","byteLength":342544,"uri":"data:application/octet-stream;base64,"}],"bufferViews":[{"name":"bufferView_0","buffer":0,"byteLength":14244,"byteOffset":0,"byteStride":12,"target":34962},{"name":"bufferView_1","buffer":0,"byteLength":14244,"byteOffset":14244,"byteStride":12,"target":34962},{"name":"bufferView_2","buffer":0,"byteLength":9496,"byteOffset":28488,"byteStride":8,"target":34962},{"name":"bufferView_3","buffer":0,"byteLength":9612,"byteOffset":37984,"target":34963},{"buffer":0,"byteOffset":47596,"byteLength":196626},{"buffer":0,"byteOffset":244222,"byteLength":98322}],"images":[{"name":"BursyamoDh","mimeType":"image/x-tga","bufferView":4},{"name":"BursyamoEyeDh","mimeType":"image/x-tga","bufferView":5}],"materials":[{"name":"mat1","pbrMetallicRoughness":{"baseColorTexture":{"index":0},"baseColorFactor":[1,1,1,1],"metallicFactor":0,"roughnessFactor":0.99},"emissiveFactor":[0,0,0],"alphaMode":"OPAQUE","doubleSided":false},{"name":"mat2","pbrMetallicRoughness":{"baseColorTexture":{"index":1},"baseColorFactor":[1,1,1,1],"metallicFactor":0,"roughnessFactor":0.99},"emissiveFactor":[0,0,0],"alphaMode":"OPAQUE","doubleSided":false}],"meshes":[{"name":"polygon0_1","primitives":[{"attributes":{"POSITION":0,"NORMAL":1,"TEXCOORD_0":2},"indices":3,"material":0,"mode":4}]},{"name":"polygon1_1","primitives":[{"attributes":{"POSITION":4,"NORMAL":5,"TEXCOORD_0":6},"indices":7,"material":1,"mode":4}]}],"nodes":[{"name":"polygon0","mesh":0},{"name":"polygon1","mesh":1}],"samplers":[{"wrapS":10497,"wrapT":10497}],"scene":0,"scenes":[{"nodes":[0,1]}],"textures":[{"name":"BursyamoDh","sampler":0,"source":0},{"name":"BursyamoEyeDh","sampler":0,"source":1}]}