{"accessors":[{"name":"BlazikenF_1_0_positions","componentType":5126,"count":9150,"min":[-41.22190856933594,117.24700927734375,-43.33551025390625],"max":[41.221900939941406,186.97999572753906,26.43708610534668],"type":"VEC3","bufferView":0,"byteOffset":0},{"name":"BlazikenF_1_0_normals","componentType":5126,"count":9150,"min":[-0.9993006587028503,-0.9916298389434814,-0.9995150566101074],"max":[0.9993006587028503,0.6916446089744568,0.9957220554351807],"type":"VEC3","bufferView":1,"byteOffset":0},{"name":"BlazikenF_1_0_texcoords","componentType":5126,"count":9150,"min":[0.004267999902367592,0.005053999833762646],"max":[0.9957320094108582,0.994940996170044],"type":"VEC2","bufferView":2,"byteOffset":0},{"name":"BlazikenF_1_0_indices","componentType":5123,"count":9150,"min":[0],"max":[9149],"type":"SCALAR","bufferView":3,"byteOffset":0},{"name":"BlazikenF_1_1_positions","componentType":5126,"count":72,"min":[-11.685700416564941,163.92100524902344,9.393202781677246],"max":[11.685700416564941,175.2519989013672,19.74378776550293],"type":"VEC3","bufferView":0,"byteOffset":109800},{"name":"BlazikenF_1_1_normals","componentType":5126,"count":72,"min":[-0.6275609135627747,-0.927574872970581,-0.99327552318573],"max":[0.5664229393005371,0.3212830126285553,0.9957020282745361],"type":"VEC3","bufferView":1,"byteOffset":109800},{"name":"BlazikenF_1_1_texcoords","componentType":5126,"count":72,"min":[0.006165000144392252,-0.9125400185585022],"max":[0.4938400089740753,-0.7699999809265137],"type":"VEC2","bufferView":2,"byteOffset":73200},{"name":"BlazikenF_1_1_indices","componentType":5123,"count":72,"min":[0],"max":[71],"type":"SCALAR","bufferView":3,"byteOffset":18300},{"name":"BlazikenF_1_2_positions","componentType":5126,"count":9666,"min":[-96.63739776611328,-0.20005500316619873,-44.81550216674805],"max":[96.63743591308594,152.20501708984375,25.124189376831055],"type":"VEC3","bufferView":0,"byteOffset":110664},{"name":"BlazikenF_1_2_normals","componentType":5126,"count":9666,"min":[-0.9993006587028503,-0.9915011525154114,-0.9982816576957703],"max":[0.9895698428153992,0.9965434074401855,0.9963935017585754],"type":"VEC3","bufferView":1,"byteOffset":110664},{"name":"BlazikenF_1_2_texcoords","componentType":5126,"count":9666,"min":[0.00471699982881546,0.0062060002237558365],"max":[0.9952830076217651,0.9959440231323242],"type":"VEC2","bufferView":2,"byteOffset":73776},{"name":"BlazikenF_1_2_indices","componentType":5123,"count":9666,"min":[0],"max":[9665],"type":"SCALAR","bufferView":3,"byteOffset":18444},{"name":"BlazikenF_1_3_positions","componentType":5126,"count":438,"min":[-69.99800109863281,133.19400024414062,-22.503297805786133],"max":[69.99800872802734,162.54600524902344,26.633102416992188],"type":"VEC3","bufferView":0,"byteOffset":226656},{"name":"BlazikenF_1_3_normals","componentType":5126,"count":438,"min":[-0.9913468956947327,-0.9842548966407776,-0.9997744560241699],"max":[0.9839861989021301,0.7882481813430786,0.8562947511672974],"type":"VEC3","bufferView":1,"byteOffset":226656},{"name":"BlazikenF_1_3_texcoords","componentType":5126,"count":438,"min":[0.019856000319123268,-0.2323399931192398],"max":[0.9812999963760376,0.9937040209770203],"type":"VEC2","bufferView":2,"byteOffset":151104},{"name":"BlazikenF_1_3_indices","componentType":5123,"count":438,"min":[0],"max":[437],"type":"SCALAR","bufferView":3,"byteOffset":37776},{"name":"BlazikenF_1_4_positions","componentType":5126,"count":876,"min":[-69.99800109863281,133.19400024414062,-22.503297805786133],"max":[69.99800872802734,162.54600524902344,26.633102416992188],"type":"VEC3","bufferView":0,"byteOffset":231912},{"name":"BlazikenF_1_4_normals","componentType":5126,"count":876,"min":[-0.9849109649658203,-0.9842548966407776,-0.7951551079750061],"max":[0.9839861989021301,0.7882481813430786,0.8853472471237183],"type":"VEC3","bufferView":1,"byteOffset":231912},{"name":"BlazikenF_1_4_texcoords","componentType":5126,"count":876,"min":[0,0],"max":[1,1],"type":"VEC2","bufferView":2,"byteOffset":154608},{"name":"BlazikenF_1_4_indices","componentType":5123,"count":876,"min":[0],"max":[875],"type":"SCALAR","bufferView":3,"byteOffset":38652}],"asset":{"generator":"obj2gltf","version":"2.0"},"buffers":[{"name":"XY_BlazikenF","byteLength":839928,"uri":"data:application/octet-stream;base64,"}],"bufferViews":[{"name":"bufferView_0","buffer":0,"byteLength":242424,"byteOffset":0,"byteStride":12,"target":34962},{"name":"bufferView_1","buffer":0,"byteLength":242424,"byteOffset":242424,"byteStride":12,"target":34962},{"name":"bufferView_2","buffer":0,"byteLength":161616,"byteOffset":484848,"byteStride":8,"target":34962},{"name":"bufferView_3","buffer":0,"byteLength":40404,"byteOffset":646464,"target":34963},{"buffer":0,"byteOffset":686868,"byteLength":56223},{"buffer":0,"byteOffset":743091,"byteLength":26208},{"buffer":0,"byteOffset":769299,"byteLength":60873},{"buffer":0,"byteOffset":830172,"byteLength":710},{"buffer":0,"byteOffset":830882,"byteLength":9046}],"images":[{"name":"pm0257_00_BodyB1","mimeType":"image/png","bufferView":4},{"name":"pm0257_00_Eye1","mimeType":"image/png","bufferView":5},{"name":"pm0257_00_BodyA1","mimeType":"image/png","bufferView":6},{"name":"pm0257_00_FireCoreA1","mimeType":"image/png","bufferView":7},{"name":"pm0257_00_FireStenA1","mimeType":"image/png","bufferView":8}],"materials":[{"name":"Material__25","pbrMetallicRoughness":{"baseColorTexture":{"index":0},"baseColorFactor":[1,1,1,1],"metallicFactor":0,"roughnessFactor":0.998},"emissiveFactor":[0,0,0],"alphaMode":"OPAQUE","doubleSided":false},{"name":"Material__26","pbrMetallicRoughness":{"baseColorTexture":{"index":1},"baseColorFactor":[1,1,1,1],"metallicFactor":0,"roughnessFactor":0.998},"emissiveFactor":[0,0,0],"alphaMode":"OPAQUE","doubleSided":false},{"name":"Material__27","pbrMetallicRoughness":{"baseColorTexture":{"index":2},"baseColorFactor":[1,1,1,1],"metallicFactor":0,"roughnessFactor":0.998},"emissiveFactor":[0,0,0],"alphaMode":"OPAQUE","doubleSided":false},{"name":"Material__28","pbrMetallicRoughness":{"baseColorTexture":{"index":3},"baseColorFactor":[1,1,1,1],"metallicFactor":0,"roughnessFactor":0.998},"emissiveFactor":[0,0,0],"alphaMode":"OPAQUE","doubleSided":false},{"name":"Material__29","pbrMetallicRoughness":{"baseColorTexture":{"index":4},"baseColorFactor":[1,1,1,1],"metallicFactor":0,"roughnessFactor":0.998},"emissiveFactor":[0,0,0],"alphaMode":"OPAQUE","doubleSided":false}],"meshes":[{"name":"BlazikenF_1","primitives":[{"attributes":{"POSITION":0,"NORMAL":1,"TEXCOORD_0":2},"indices":3,"material":0,"mode":4},{"attributes":{"POSITION":4,"NORMAL":5,"TEXCOORD_0":6},"indices":7,"material":1,"mode":4},{"attributes":{"POSITION":8,"NORMAL":9,"TEXCOORD_0":10},"indices":11,"material":2,"mode":4},{"attributes":{"POSITION":12,"NORMAL":13,"TEXCOORD_0":14},"indices":15,"material":3,"mode":4},{"attributes":{"POSITION":16,"NORMAL":17,"TEXCOORD_0":18},"indices":19,"material":4,"mode":4}]}],"nodes":[{"name":"BlazikenF","mesh":0}],"samplers":[{"wrapS":10497,"wrapT":10497}],"scene":0,"scenes":[{"nodes":[0]}],"textures":[{"name":"pm0257_00_BodyB1","sampler":0,"source":0},{"name":"pm0257_00_Eye1","sampler":0,"source":1},{"name":"pm0257_00_BodyA1","sampler":0,"source":2},{"name":"pm0257_00_FireCoreA1","sampler":0,"source":3},{"name":"pm0257_00_FireStenA1","sampler":0,"source":4}]}