{"accessors":[{"name":"polygon0_1_0_positions","componentType":5126,"count":831,"min":[-1.5115309953689575,0.005836999975144863,-2.6897690296173096],"max":[1.5115300416946411,3.9820919036865234,1.655668020248413],"type":"VEC3","bufferView":0,"byteOffset":0},{"name":"polygon0_1_0_normals","componentType":5126,"count":831,"min":[-0.9995912313461304,-0.9998174905776978,-0.99788498878479],"max":[0.9995912313461304,0.9983878135681152,0.999464750289917],"type":"VEC3","bufferView":1,"byteOffset":0},{"name":"polygon0_1_0_texcoords","componentType":5126,"count":831,"min":[-0.0029299999587237835,0.0026859999634325504],"max":[0.9939579963684082,0.9941409826278687],"type":"VEC2","bufferView":2,"byteOffset":0},{"name":"polygon0_1_0_indices","componentType":5123,"count":4350,"min":[0],"max":[830],"type":"SCALAR","bufferView":3,"byteOffset":0},{"name":"polygon1_1_0_positions","componentType":5126,"count":18,"min":[-0.472119003534317,1.6332600116729736,1.433961033821106],"max":[0.47211799025535583,2.0519959926605225,1.6313689947128296],"type":"VEC3","bufferView":0,"byteOffset":9972},{"name":"polygon1_1_0_normals","componentType":5126,"count":18,"min":[-0.5013008117675781,-0.033935997635126114,0.7891536355018616],"max":[0.5013008117675781,0.40441209077835083,0.9824738502502441],"type":"VEC3","bufferView":1,"byteOffset":9972},{"name":"polygon1_1_0_texcoords","componentType":5126,"count":18,"min":[-0.030182000249624252,-0.023742999881505966],"max":[0.4586179852485657,0.2205200046300888],"type":"VEC2","bufferView":2,"byteOffset":6648},{"name":"polygon1_1_0_indices","componentType":5123,"count":48,"min":[0],"max":[17],"type":"SCALAR","bufferView":3,"byteOffset":8700},{"name":"polygon2_1_0_positions","componentType":5126,"count":50,"min":[-0.8976470232009888,1.3833260536193848,0.5541639924049377],"max":[0.8976460099220276,2.14985990524292,1.623579978942871],"type":"VEC3","bufferView":0,"byteOffset":10188},{"name":"polygon2_1_0_normals","componentType":5126,"count":50,"min":[-0.9112289547920227,-0.9045625925064087,-0.7596337795257568],"max":[0.8799922466278076,0.9906454682350159,0.8572499752044678],"type":"VEC3","bufferView":1,"byteOffset":10188},{"name":"polygon2_1_0_texcoords","componentType":5126,"count":50,"min":[0.5780640244483948,0.3740229904651642],"max":[0.9945679903030396,0.5751339793205261],"type":"VEC2","bufferView":2,"byteOffset":6792},{"name":"polygon2_1_0_indices","componentType":5123,"count":216,"min":[0],"max":[49],"type":"SCALAR","bufferView":3,"byteOffset":8796}],"asset":{"generator":"obj2gltf","version":"2.0"},"buffers":[{"name":"Mudkip","byteLength":332944,"uri":"data:application/octet-stream;base64,"}],"bufferViews":[{"name":"bufferView_0","buffer":0,"byteLength":10788,"byteOffset":0,"byteStride":12,"target":34962},{"name":"bufferView_1","buffer":0,"byteLength":10788,"byteOffset":10788,"byteStride":12,"target":34962},{"name":"bufferView_2","buffer":0,"byteLength":7192,"byteOffset":21576,"byteStride":8,"target":34962},{"name":"bufferView_3","buffer":0,"byteLength":9228,"byteOffset":28768,"target":34963},{"buffer":0,"byteOffset":37996,"byteLength":196626},{"buffer":0,"byteOffset":234622,"byteLength":98322}],"images":[{"name":"MizugorouDh","mimeType":"image/x-tga","bufferView":4},{"name":"MizugorouEyeDh","mimeType":"image/x-tga","bufferView":5}],"materials":[{"name":"mat1","pbrMetallicRoughness":{"baseColorTexture":{"index":0},"baseColorFactor":[1,1,1,1],"metallicFactor":0,"roughnessFactor":0.99},"emissiveFactor":[0,0,0],"alphaMode":"OPAQUE","doubleSided":false},{"name":"mat2","pbrMetallicRoughness":{"baseColorTexture":{"index":1},"baseColorFactor":[1,1,1,1],"metallicFactor":0,"roughnessFactor":0.99},"emissiveFactor":[0,0,0],"alphaMode":"OPAQUE","doubleSided":false},{"name":"mat3","pbrMetallicRoughness":{"baseColorTexture":{"index":0},"baseColorFactor":[1,1,1,1],"metallicFactor":0,"roughnessFactor":0.99},"emissiveFactor":[0,0,0],"alphaMode":"OPAQUE","doubleSided":false}],"meshes":[{"name":"polygon0_1","primitives":[{"attributes":{"POSITION":0,"NORMAL":1,"TEXCOORD_0":2},"indices":3,"material":0,"mode":4}]},{"name":"polygon1_1","primitives":[{"attributes":{"POSITION":4,"NORMAL":5,"TEXCOORD_0":6},"indices":7,"material":1,"mode":4}]},{"name":"polygon2_1","primitives":[{"attributes":{"POSITION":8,"NORMAL":9,"TEXCOORD_0":10},"indices":11,"material":2,"mode":4}]}],"nodes":[{"name":"polygon0","mesh":0},{"name":"polygon1","mesh":1},{"name":"polygon2","mesh":2}],"samplers":[{"wrapS":10497,"wrapT":10497}],"scene":0,"scenes":[{"nodes":[0,1,2]}],"textures":[{"name":"MizugorouDh","sampler":0,"source":0},{"name":"MizugorouEyeDh","sampler":0,"source":1}]}