{"accessors":[{"name":"numacraw-Mesh_0_positions","componentType":5126,"count":172,"min":[-1.2143000364303589,-0.9589059948921204,-3.438620090484619],"max":[1.2143000364303589,1.1272399425506592,-0.015948999673128128],"type":"VEC3","bufferView":0,"byteOffset":0},{"name":"numacraw-Mesh_0_texcoords","componentType":5126,"count":172,"min":[0,0],"max":[0.9814519882202148,1],"type":"VEC2","bufferView":1,"byteOffset":0},{"name":"numacraw-Mesh_0_indices","componentType":5123,"count":699,"min":[0],"max":[171],"type":"SCALAR","bufferView":2,"byteOffset":0},{"name":"numacraw-Mesh_1_positions","componentType":5126,"count":279,"min":[-2.0463199615478516,-1.093400001525879,-5.1668500900268555],"max":[2.0463199615478516,1.534500002861023,-0.015948999673128128],"type":"VEC3","bufferView":0,"byteOffset":2064},{"name":"numacraw-Mesh_1_texcoords","componentType":5126,"count":279,"min":[0,0],"max":[0.997767984867096,0.9915739893913269],"type":"VEC2","bufferView":1,"byteOffset":1376},{"name":"numacraw-Mesh_1_indices","componentType":5123,"count":780,"min":[0],"max":[278],"type":"SCALAR","bufferView":2,"byteOffset":1400},{"name":"numacraw-Mesh_2_positions","componentType":5126,"count":60,"min":[-1.443600058555603,-2.3798000812530518,-3.128730058670044],"max":[1.4436099529266357,-0.8734369874000549,-0.7399150133132935],"type":"VEC3","bufferView":0,"byteOffset":5412},{"name":"numacraw-Mesh_2_texcoords","componentType":5126,"count":60,"min":[0,0],"max":[1,0.9955360293388367],"type":"VEC2","bufferView":1,"byteOffset":3608},{"name":"numacraw-Mesh_2_indices","componentType":5123,"count":180,"min":[0],"max":[59],"type":"SCALAR","bufferView":2,"byteOffset":2960},{"name":"numacraw-Mesh_3_positions","componentType":5126,"count":184,"min":[-2.346440076828003,-0.6884670257568359,-4.70058012008667],"max":[2.346440076828003,0.8961060047149658,-3.358020067214966],"type":"VEC3","bufferView":0,"byteOffset":6132},{"name":"numacraw-Mesh_3_texcoords","componentType":5126,"count":184,"min":[0.020089000463485718,0.008929000236093998],"max":[0.96875,0.986607015132904],"type":"VEC2","bufferView":1,"byteOffset":4088},{"name":"numacraw-Mesh_3_indices","componentType":5123,"count":282,"min":[0],"max":[183],"type":"SCALAR","bufferView":2,"byteOffset":3320},{"name":"numacraw-Mesh_4_positions","componentType":5126,"count":22,"min":[-1.0125600099563599,0.7766420245170593,-4.415050029754639],"max":[1.0125600099563599,1.5922800302505493,-3.8654000759124756],"type":"VEC3","bufferView":0,"byteOffset":8340},{"name":"numacraw-Mesh_4_texcoords","componentType":5126,"count":22,"min":[0.025001000612974167,0.014612999744713306],"max":[0.937798023223877,0.9577530026435852],"type":"VEC2","bufferView":1,"byteOffset":5560},{"name":"numacraw-Mesh_4_indices","componentType":5123,"count":48,"min":[0],"max":[21],"type":"SCALAR","bufferView":2,"byteOffset":3884},{"name":"numacraw-Mesh_5_positions","componentType":5126,"count":22,"min":[-0.9919000267982483,0.480120986700058,-3.976170063018799],"max":[0.9918990135192871,1.5922800302505493,-3.8195300102233887],"type":"VEC3","bufferView":0,"byteOffset":8604},{"name":"numacraw-Mesh_5_texcoords","componentType":5126,"count":22,"min":[0.008929000236093998,0.01156300026923418],"max":[0.986607015132904,0.9441959857940674],"type":"VEC2","bufferView":1,"byteOffset":5736},{"name":"numacraw-Mesh_5_indices","componentType":5123,"count":60,"min":[0],"max":[21],"type":"SCALAR","bufferView":2,"byteOffset":3980},{"name":"numacraw-Mesh_6_positions","componentType":5126,"count":12,"min":[-0.8145560026168823,0.9335690140724182,-4.76600980758667],"max":[0.8145560026168823,1.4777799844741821,-4.123050212860107],"type":"VEC3","bufferView":0,"byteOffset":8868},{"name":"numacraw-Mesh_6_texcoords","componentType":5126,"count":12,"min":[0.18659000098705292,0.020066000521183014],"max":[0.8570889830589294,0.26086199283599854],"type":"VEC2","bufferView":1,"byteOffset":5912},{"name":"numacraw-Mesh_6_indices","componentType":5123,"count":24,"min":[0],"max":[11],"type":"SCALAR","bufferView":2,"byteOffset":4100},{"name":"numacraw-Mesh_7_positions","componentType":5126,"count":17,"min":[-0.16391000151634216,-1.2680799961090088,-7.126410007476807],"max":[0.16391000151634216,0.7380719780921936,-3.972870111465454],"type":"VEC3","bufferView":0,"byteOffset":9012},{"name":"numacraw-Mesh_7_texcoords","componentType":5126,"count":17,"min":[0,0],"max":[1,1],"type":"VEC2","bufferView":1,"byteOffset":6008},{"name":"numacraw-Mesh_7_indices","componentType":5123,"count":45,"min":[0],"max":[16],"type":"SCALAR","bufferView":2,"byteOffset":4148},{"name":"numacraw-Mesh_8_positions","componentType":5126,"count":79,"min":[-1.123170018196106,0.1507910043001175,-3.976170063018799],"max":[1.123170018196106,1.5837299823760986,-3.0728600025177],"type":"VEC3","bufferView":0,"byteOffset":9216},{"name":"numacraw-Mesh_8_texcoords","componentType":5126,"count":79,"min":[0.4933040142059326,0.022321000695228577],"max":[0.6760590076446533,0.8676810264587402],"type":"VEC2","bufferView":1,"byteOffset":6144},{"name":"numacraw-Mesh_8_indices","componentType":5123,"count":120,"min":[0],"max":[78],"type":"SCALAR","bufferView":2,"byteOffset":4240}],"asset":{"generator":"obj2gltf","version":"2.0"},"buffers":[{"name":"BR_Marshtomp-Shiny01","byteLength":211024,"uri":"data:application/octet-stream;base64,"}],"bufferViews":[{"name":"bufferView_0","buffer":0,"byteLength":10164,"byteOffset":0,"byteStride":12,"target":34962},{"name":"bufferView_1","buffer":0,"byteLength":6776,"byteOffset":10164,"byteStride":8,"target":34962},{"name":"bufferView_2","buffer":0,"byteLength":4480,"byteOffset":16940,"target":34963},{"buffer":0,"byteOffset":21420,"byteLength":32786},{"buffer":0,"byteOffset":54206,"byteLength":16402},{"buffer":0,"byteOffset":70608,"byteLength":16402},{"buffer":0,"byteOffset":87010,"byteLength":1042},{"buffer":0,"byteOffset":88052,"byteLength":4114},{"buffer":0,"byteOffset":92166,"byteLength":32786},{"buffer":0,"byteOffset":124952,"byteLength":65554},{"buffer":0,"byteOffset":190506,"byteLength":16402},{"buffer":0,"byteOffset":206908,"byteLength":4114}],"images":[{"name":"numacraw_1_0","mimeType":"image/x-tga","bufferView":3},{"name":"numacraw_1_1","mimeType":"image/x-tga","bufferView":4},{"name":"numacraw_1_2","mimeType":"image/x-tga","bufferView":5},{"name":"numacraw_1_3","mimeType":"image/x-tga","bufferView":6},{"name":"numacraw_1_4","mimeType":"image/x-tga","bufferView":7},{"name":"numacraw_1_5","mimeType":"image/x-tga","bufferView":8},{"name":"numacraw_1_6","mimeType":"image/x-tga","bufferView":9},{"name":"numacraw_1_7","mimeType":"image/x-tga","bufferView":10},{"name":"numacraw_1_8","mimeType":"image/x-tga","bufferView":11}],"materials":[{"name":"mat_0","pbrMetallicRoughness":{"baseColorTexture":{"index":0},"baseColorFactor":[1,1,1,1],"metallicFactor":0,"roughnessFactor":0.903921569},"emissiveFactor":[0,0,0],"alphaMode":"BLEND","doubleSided":true},{"name":"mat_1","pbrMetallicRoughness":{"baseColorTexture":{"index":1},"baseColorFactor":[1,1,1,1],"metallicFactor":0,"roughnessFactor":0.903921569},"emissiveFactor":[0,0,0],"alphaMode":"BLEND","doubleSided":true},{"name":"mat_2","pbrMetallicRoughness":{"baseColorTexture":{"index":2},"baseColorFactor":[1,1,1,1],"metallicFactor":0,"roughnessFactor":0.903921569},"emissiveFactor":[0,0,0],"alphaMode":"BLEND","doubleSided":true},{"name":"mat_3","pbrMetallicRoughness":{"baseColorTexture":{"index":3},"baseColorFactor":[1,1,1,1],"metallicFactor":0,"roughnessFactor":0.903921569},"emissiveFactor":[0,0,0],"alphaMode":"BLEND","doubleSided":true},{"name":"mat_4","pbrMetallicRoughness":{"baseColorTexture":{"index":4},"baseColorFactor":[1,1,1,1],"metallicFactor":0,"roughnessFactor":0.903921569},"emissiveFactor":[0,0,0],"alphaMode":"BLEND","doubleSided":true},{"name":"mat_5","pbrMetallicRoughness":{"baseColorTexture":{"index":5},"baseColorFactor":[1,1,1,1],"metallicFactor":0,"roughnessFactor":0.903921569},"emissiveFactor":[0,0,0],"alphaMode":"BLEND","doubleSided":true},{"name":"mat_6","pbrMetallicRoughness":{"baseColorTexture":{"index":6},"baseColorFactor":[1,1,1,1],"metallicFactor":0,"roughnessFactor":0.903921569},"emissiveFactor":[0,0,0],"alphaMode":"BLEND","doubleSided":true},{"name":"mat_7","pbrMetallicRoughness":{"baseColorTexture":{"index":7},"baseColorFactor":[1,1,1,1],"metallicFactor":0,"roughnessFactor":0.903921569},"emissiveFactor":[0,0,0],"alphaMode":"BLEND","doubleSided":true},{"name":"mat_8","pbrMetallicRoughness":{"baseColorTexture":{"index":8},"baseColorFactor":[1,1,1,1],"metallicFactor":0,"roughnessFactor":0.903921569},"emissiveFactor":[0,0,0],"alphaMode":"BLEND","doubleSided":true}],"meshes":[{"name":"numacraw-Mesh","primitives":[{"attributes":{"POSITION":0,"TEXCOORD_0":1},"indices":2,"material":0,"mode":4},{"attributes":{"POSITION":3,"TEXCOORD_0":4},"indices":5,"material":1,"mode":4},{"attributes":{"POSITION":6,"TEXCOORD_0":7},"indices":8,"material":2,"mode":4},{"attributes":{"POSITION":9,"TEXCOORD_0":10},"indices":11,"material":3,"mode":4},{"attributes":{"POSITION":12,"TEXCOORD_0":13},"indices":14,"material":4,"mode":4},{"attributes":{"POSITION":15,"TEXCOORD_0":16},"indices":17,"material":5,"mode":4},{"attributes":{"POSITION":18,"TEXCOORD_0":19},"indices":20,"material":6,"mode":4},{"attributes":{"POSITION":21,"TEXCOORD_0":22},"indices":23,"material":7,"mode":4},{"attributes":{"POSITION":24,"TEXCOORD_0":25},"indices":26,"material":8,"mode":4}]}],"nodes":[{"name":"numacraw","mesh":0}],"samplers":[{"wrapS":10497,"wrapT":10497}],"scene":0,"scenes":[{"nodes":[0]}],"textures":[{"name":"numacraw_1_0","sampler":0,"source":0},{"name":"numacraw_1_1","sampler":0,"source":1},{"name":"numacraw_1_2","sampler":0,"source":2},{"name":"numacraw_1_3","sampler":0,"source":3},{"name":"numacraw_1_4","sampler":0,"source":4},{"name":"numacraw_1_5","sampler":0,"source":5},{"name":"numacraw_1_6","sampler":0,"source":6},{"name":"numacraw_1_7","sampler":0,"source":7},{"name":"numacraw_1_8","sampler":0,"source":8}]}