{"accessors":[{"name":"laglarge-Mesh_0_positions","componentType":5126,"count":67,"min":[-0.12948599457740784,-6.536009788513184,-11.76710033416748],"max":[0.11709699779748917,0.7921239733695984,-0.6837120056152344],"type":"VEC3","bufferView":0,"byteOffset":0},{"name":"laglarge-Mesh_0_texcoords","componentType":5126,"count":67,"min":[0.0044639999978244305,0.0044639999978244305],"max":[0.9910709857940674,0.997767984867096],"type":"VEC2","bufferView":1,"byteOffset":0},{"name":"laglarge-Mesh_0_indices","componentType":5123,"count":105,"min":[0],"max":[66],"type":"SCALAR","bufferView":2,"byteOffset":0},{"name":"laglarge-Mesh_1_positions","componentType":5126,"count":492,"min":[-4.823400020599365,-3.9362800121307373,-12.1806001663208],"max":[4.823400020599365,7.162930011749268,0.018730999901890755],"type":"VEC3","bufferView":0,"byteOffset":804},{"name":"laglarge-Mesh_1_texcoords","componentType":5126,"count":492,"min":[0,0.022866999730467796],"max":[0.9970970153808594,0.9356319904327393],"type":"VEC2","bufferView":1,"byteOffset":536},{"name":"laglarge-Mesh_1_indices","componentType":5123,"count":1056,"min":[0],"max":[491],"type":"SCALAR","bufferView":2,"byteOffset":212},{"name":"laglarge-Mesh_2_positions","componentType":5126,"count":94,"min":[-3.068809986114502,1.444290041923523,-15.13379955291748],"max":[3.068809986114502,6.472630023956299,-10.9483003616333],"type":"VEC3","bufferView":0,"byteOffset":6708},{"name":"laglarge-Mesh_2_texcoords","componentType":5126,"count":94,"min":[0.03771600127220154,0.011521000415086746],"max":[0.9478110074996948,1.0797829627990723],"type":"VEC2","bufferView":1,"byteOffset":4472},{"name":"laglarge-Mesh_2_indices","componentType":5123,"count":246,"min":[0],"max":[93],"type":"SCALAR","bufferView":2,"byteOffset":2324},{"name":"laglarge-Mesh_3_positions","componentType":5126,"count":69,"min":[-4.613790035247803,2.583250045776367,-11.134400367736816],"max":[4.613790035247803,5.514810085296631,-9.185720443725586],"type":"VEC3","bufferView":0,"byteOffset":7836},{"name":"laglarge-Mesh_3_texcoords","componentType":5126,"count":69,"min":[0.006696000229567289,0.003696999978274107],"max":[0.9679189920425415,0.9932810068130493],"type":"VEC2","bufferView":1,"byteOffset":5224},{"name":"laglarge-Mesh_3_indices","componentType":5123,"count":228,"min":[0],"max":[68],"type":"SCALAR","bufferView":2,"byteOffset":2816},{"name":"laglarge-Mesh_4_positions","componentType":5126,"count":14,"min":[-1.4750900268554688,6.1595001220703125,-11.53439998626709],"max":[1.4796600341796875,6.911890029907227,-10.518899917602539],"type":"VEC3","bufferView":0,"byteOffset":8664},{"name":"laglarge-Mesh_4_texcoords","componentType":5126,"count":14,"min":[-0.04641300067305565,0.010027999989688396],"max":[1.0253700017929077,0.24778400361537933],"type":"VEC2","bufferView":1,"byteOffset":5776},{"name":"laglarge-Mesh_4_indices","componentType":5123,"count":30,"min":[0],"max":[13],"type":"SCALAR","bufferView":2,"byteOffset":3272},{"name":"laglarge-Mesh_5_positions","componentType":5126,"count":17,"min":[-2.124380111694336,4.5769500732421875,-10.560799598693848],"max":[2.124380111694336,6.764510154724121,-9.605030059814453],"type":"VEC3","bufferView":0,"byteOffset":8832},{"name":"laglarge-Mesh_5_texcoords","componentType":5126,"count":17,"min":[-0.001863999990746379,0.005049999803304672],"max":[0.967182993888855,0.5036389827728271],"type":"VEC2","bufferView":1,"byteOffset":5888},{"name":"laglarge-Mesh_5_indices","componentType":5123,"count":60,"min":[0],"max":[16],"type":"SCALAR","bufferView":2,"byteOffset":3332},{"name":"laglarge-Mesh_6_positions","componentType":5126,"count":92,"min":[-5.711659908294678,-0.33156800270080566,-3.5054399967193604],"max":[5.7116498947143555,6.725979804992676,0.02006700076162815],"type":"VEC3","bufferView":0,"byteOffset":9036},{"name":"laglarge-Mesh_6_texcoords","componentType":5126,"count":92,"min":[0.0022319999989122152,0.07589299976825714],"max":[0.9910709857940674,0.9955360293388367],"type":"VEC2","bufferView":1,"byteOffset":6024},{"name":"laglarge-Mesh_6_indices","componentType":5123,"count":408,"min":[0],"max":[91],"type":"SCALAR","bufferView":2,"byteOffset":3452},{"name":"laglarge-Mesh_7_positions","componentType":5126,"count":44,"min":[-4.560780048370361,-2.3702800273895264,-6.010169982910156],"max":[4.560780048370361,5.784029960632324,-1.6897499561309814],"type":"VEC3","bufferView":0,"byteOffset":10140},{"name":"laglarge-Mesh_7_texcoords","componentType":5126,"count":44,"min":[0.1257230043411255,0.0153609998524189],"max":[0.8775359988212585,0.9460440278053284],"type":"VEC2","bufferView":1,"byteOffset":6760},{"name":"laglarge-Mesh_7_indices","componentType":5123,"count":132,"min":[0],"max":[43],"type":"SCALAR","bufferView":2,"byteOffset":4268},{"name":"laglarge-Mesh_8_positions","componentType":5126,"count":20,"min":[-4.677440166473389,-0.30399298667907715,-3.438230037689209],"max":[4.677440166473389,1.922469973564148,-0.8759779930114746],"type":"VEC3","bufferView":0,"byteOffset":10668},{"name":"laglarge-Mesh_8_texcoords","componentType":5126,"count":20,"min":[0.02357099950313568,0.13274599611759186],"max":[0.9898179769515991,0.8041980266571045],"type":"VEC2","bufferView":1,"byteOffset":7112},{"name":"laglarge-Mesh_8_indices","componentType":5123,"count":60,"min":[0],"max":[19],"type":"SCALAR","bufferView":2,"byteOffset":4532},{"name":"laglarge-Mesh_9_positions","componentType":5126,"count":60,"min":[-2.7079200744628906,-3.699009895324707,-8.836724281311035],"max":[2.7079200744628906,4.757824897766113,-1.7238999605178833],"type":"VEC3","bufferView":0,"byteOffset":10908},{"name":"laglarge-Mesh_9_texcoords","componentType":5126,"count":60,"min":[0.00961500033736229,0.004807999823242426],"max":[0.9807689785957336,1],"type":"VEC2","bufferView":1,"byteOffset":7272},{"name":"laglarge-Mesh_9_indices","componentType":5123,"count":126,"min":[0],"max":[59],"type":"SCALAR","bufferView":2,"byteOffset":4652}],"asset":{"generator":"obj2gltf","version":"2.0"},"buffers":[{"name":"BR_Swampert-Shiny01","byteLength":167824,"uri":"data:application/octet-stream;base64,"}],"bufferViews":[{"name":"bufferView_0","buffer":0,"byteLength":11628,"byteOffset":0,"byteStride":12,"target":34962},{"name":"bufferView_1","buffer":0,"byteLength":7752,"byteOffset":11628,"byteStride":8,"target":34962},{"name":"bufferView_2","buffer":0,"byteLength":4904,"byteOffset":19380,"target":34963},{"buffer":0,"byteOffset":24284,"byteLength":8210},{"buffer":0,"byteOffset":32494,"byteLength":16402},{"buffer":0,"byteOffset":48896,"byteLength":8210},{"buffer":0,"byteOffset":57106,"byteLength":4114},{"buffer":0,"byteOffset":61220,"byteLength":65554},{"buffer":0,"byteOffset":126774,"byteLength":8210},{"buffer":0,"byteOffset":134984,"byteLength":16402},{"buffer":0,"byteOffset":151386,"byteLength":8210},{"buffer":0,"byteOffset":159596,"byteLength":4114},{"buffer":0,"byteOffset":163710,"byteLength":4114}],"images":[{"name":"laglarge_1_0","mimeType":"image/x-tga","bufferView":3},{"name":"laglarge_1_1","mimeType":"image/x-tga","bufferView":4},{"name":"laglarge_1_2","mimeType":"image/x-tga","bufferView":5},{"name":"laglarge_1_3","mimeType":"image/x-tga","bufferView":6},{"name":"laglarge_1_4","mimeType":"image/x-tga","bufferView":7},{"name":"laglarge_1_5","mimeType":"image/x-tga","bufferView":8},{"name":"laglarge_1_6","mimeType":"image/x-tga","bufferView":9},{"name":"laglarge_1_7","mimeType":"image/x-tga","bufferView":10},{"name":"laglarge_1_8","mimeType":"image/x-tga","bufferView":11},{"name":"laglarge_1_9","mimeType":"image/x-tga","bufferView":12}],"materials":[{"name":"mat_0","pbrMetallicRoughness":{"baseColorTexture":{"index":0},"baseColorFactor":[1,1,1,1],"metallicFactor":0,"roughnessFactor":0.903921569},"emissiveFactor":[0,0,0],"alphaMode":"BLEND","doubleSided":true},{"name":"mat_1","pbrMetallicRoughness":{"baseColorTexture":{"index":1},"baseColorFactor":[1,1,1,1],"metallicFactor":0,"roughnessFactor":0.903921569},"emissiveFactor":[0,0,0],"alphaMode":"BLEND","doubleSided":true},{"name":"mat_2","pbrMetallicRoughness":{"baseColorTexture":{"index":2},"baseColorFactor":[1,1,1,1],"metallicFactor":0,"roughnessFactor":0.903921569},"emissiveFactor":[0,0,0],"alphaMode":"BLEND","doubleSided":true},{"name":"mat_3","pbrMetallicRoughness":{"baseColorTexture":{"index":3},"baseColorFactor":[1,1,1,1],"metallicFactor":0,"roughnessFactor":0.903921569},"emissiveFactor":[0,0,0],"alphaMode":"BLEND","doubleSided":true},{"name":"mat_4","pbrMetallicRoughness":{"baseColorTexture":{"index":4},"baseColorFactor":[1,1,1,1],"metallicFactor":0,"roughnessFactor":0.903921569},"emissiveFactor":[0,0,0],"alphaMode":"BLEND","doubleSided":true},{"name":"mat_5","pbrMetallicRoughness":{"baseColorTexture":{"index":5},"baseColorFactor":[1,1,1,1],"metallicFactor":0,"roughnessFactor":0.903921569},"emissiveFactor":[0,0,0],"alphaMode":"BLEND","doubleSided":true},{"name":"mat_6","pbrMetallicRoughness":{"baseColorTexture":{"index":6},"baseColorFactor":[1,1,1,1],"metallicFactor":0,"roughnessFactor":0.903921569},"emissiveFactor":[0,0,0],"alphaMode":"BLEND","doubleSided":true},{"name":"mat_7","pbrMetallicRoughness":{"baseColorTexture":{"index":7},"baseColorFactor":[1,1,1,1],"metallicFactor":0,"roughnessFactor":0.903921569},"emissiveFactor":[0,0,0],"alphaMode":"BLEND","doubleSided":true},{"name":"mat_8","pbrMetallicRoughness":{"baseColorTexture":{"index":8},"baseColorFactor":[1,1,1,1],"metallicFactor":0,"roughnessFactor":0.903921569},"emissiveFactor":[0,0,0],"alphaMode":"BLEND","doubleSided":true},{"name":"mat_9","pbrMetallicRoughness":{"baseColorTexture":{"index":9},"baseColorFactor":[1,1,1,1],"metallicFactor":0,"roughnessFactor":0.903921569},"emissiveFactor":[0,0,0],"alphaMode":"BLEND","doubleSided":true}],"meshes":[{"name":"laglarge-Mesh","primitives":[{"attributes":{"POSITION":0,"TEXCOORD_0":1},"indices":2,"material":0,"mode":4},{"attributes":{"POSITION":3,"TEXCOORD_0":4},"indices":5,"material":1,"mode":4},{"attributes":{"POSITION":6,"TEXCOORD_0":7},"indices":8,"material":2,"mode":4},{"attributes":{"POSITION":9,"TEXCOORD_0":10},"indices":11,"material":3,"mode":4},{"attributes":{"POSITION":12,"TEXCOORD_0":13},"indices":14,"material":4,"mode":4},{"attributes":{"POSITION":15,"TEXCOORD_0":16},"indices":17,"material":5,"mode":4},{"attributes":{"POSITION":18,"TEXCOORD_0":19},"indices":20,"material":6,"mode":4},{"attributes":{"POSITION":21,"TEXCOORD_0":22},"indices":23,"material":7,"mode":4},{"attributes":{"POSITION":24,"TEXCOORD_0":25},"indices":26,"material":8,"mode":4},{"attributes":{"POSITION":27,"TEXCOORD_0":28},"indices":29,"material":9,"mode":4}]}],"nodes":[{"name":"laglarge","mesh":0}],"samplers":[{"wrapS":10497,"wrapT":10497}],"scene":0,"scenes":[{"nodes":[0]}],"textures":[{"name":"laglarge_1_0","sampler":0,"source":0},{"name":"laglarge_1_1","sampler":0,"source":1},{"name":"laglarge_1_2","sampler":0,"source":2},{"name":"laglarge_1_3","sampler":0,"source":3},{"name":"laglarge_1_4","sampler":0,"source":4},{"name":"laglarge_1_5","sampler":0,"source":5},{"name":"laglarge_1_6","sampler":0,"source":6},{"name":"laglarge_1_7","sampler":0,"source":7},{"name":"laglarge_1_8","sampler":0,"source":8},{"name":"laglarge_1_9","sampler":0,"source":9}]}