{"accessors":[{"name":"pochiena-Mesh_0_positions","componentType":5126,"count":109,"min":[-1.152459979057312,-1.6043699979782104,-0.48727700114250183],"max":[1.152459979057312,1.749079942703247,0.000024000000848900527],"type":"VEC3","bufferView":0,"byteOffset":0},{"name":"pochiena-Mesh_0_texcoords","componentType":5126,"count":109,"min":[0,0],"max":[0.95871502161026,1],"type":"VEC2","bufferView":1,"byteOffset":0},{"name":"pochiena-Mesh_0_indices","componentType":5123,"count":240,"min":[0],"max":[108],"type":"SCALAR","bufferView":2,"byteOffset":0},{"name":"pochiena-Mesh_1_positions","componentType":5126,"count":60,"min":[-1.1234300136566162,-1.8227499723434448,-1.0092359781265259],"max":[1.1234400272369385,1.2976399660110474,-0.3358449935913086],"type":"VEC3","bufferView":0,"byteOffset":1308},{"name":"pochiena-Mesh_1_texcoords","componentType":5126,"count":60,"min":[0,0.09000000357627869],"max":[3.25,0.9700000286102295],"type":"VEC2","bufferView":1,"byteOffset":872},{"name":"pochiena-Mesh_1_indices","componentType":5123,"count":162,"min":[0],"max":[59],"type":"SCALAR","bufferView":2,"byteOffset":480},{"name":"pochiena-Mesh_2_positions","componentType":5126,"count":195,"min":[-1.2755099534988403,-4.024494171142578,-5.543517112731934],"max":[1.2755099534988403,1.567579984664917,-0.1011279970407486],"type":"VEC3","bufferView":0,"byteOffset":2028},{"name":"pochiena-Mesh_2_texcoords","componentType":5126,"count":195,"min":[0,0],"max":[1,1],"type":"VEC2","bufferView":1,"byteOffset":1352},{"name":"pochiena-Mesh_2_indices","componentType":5123,"count":774,"min":[0],"max":[194],"type":"SCALAR","bufferView":2,"byteOffset":804},{"name":"pochiena-Mesh_3_positions","componentType":5126,"count":79,"min":[-1.0744099617004395,0.944599986076355,-4.695847034454346],"max":[1.0510900020599365,2.8296499252319336,-2.519516944885254],"type":"VEC3","bufferView":0,"byteOffset":4368},{"name":"pochiena-Mesh_3_texcoords","componentType":5126,"count":79,"min":[-0.04241099953651428,-0.23375000059604645],"max":[1.375,1],"type":"VEC2","bufferView":1,"byteOffset":2912},{"name":"pochiena-Mesh_3_indices","componentType":5123,"count":324,"min":[0],"max":[78],"type":"SCALAR","bufferView":2,"byteOffset":2352},{"name":"pochiena-Mesh_4_positions","componentType":5126,"count":26,"min":[-0.8315569758415222,-0.9886999726295471,-1.526697039604187],"max":[0.8315569758415222,1.0125600099563599,-0.9734029769897461],"type":"VEC3","bufferView":0,"byteOffset":5316},{"name":"pochiena-Mesh_4_texcoords","componentType":5126,"count":26,"min":[0,0],"max":[1,1.203125],"type":"VEC2","bufferView":1,"byteOffset":3544},{"name":"pochiena-Mesh_4_indices","componentType":5123,"count":72,"min":[0],"max":[25],"type":"SCALAR","bufferView":2,"byteOffset":3000},{"name":"pochiena-Mesh_5_positions","componentType":5126,"count":8,"min":[-0.34595298767089844,2.707350015640259,-3.7121970653533936],"max":[0.3235349953174591,2.871229887008667,-3.330946922302246],"type":"VEC3","bufferView":0,"byteOffset":5628},{"name":"pochiena-Mesh_5_texcoords","componentType":5126,"count":8,"min":[-0.23121899366378784,0.10027600079774857],"max":[1.2000700235366821,1.0499529838562012],"type":"VEC2","bufferView":1,"byteOffset":3752},{"name":"pochiena-Mesh_5_indices","componentType":5123,"count":27,"min":[0],"max":[7],"type":"SCALAR","bufferView":2,"byteOffset":3144},{"name":"pochiena-Mesh_6_positions","componentType":5126,"count":16,"min":[-0.8676630258560181,1.7656199932098389,-4.128567218780518],"max":[0.8425920009613037,2.4600799083709717,-3.464487075805664],"type":"VEC3","bufferView":0,"byteOffset":5724},{"name":"pochiena-Mesh_6_texcoords","componentType":5126,"count":16,"min":[-0.25210699439048767,-0.022859999909996986],"max":[1.4568300247192383,0.19078899919986725],"type":"VEC2","bufferView":1,"byteOffset":3816},{"name":"pochiena-Mesh_6_indices","componentType":5123,"count":51,"min":[0],"max":[15],"type":"SCALAR","bufferView":2,"byteOffset":3200},{"name":"pochiena-Mesh_7_positions","componentType":5126,"count":24,"min":[-0.610850989818573,2.0720601081848145,-3.3597769737243652],"max":[0.610850989818573,2.5620999336242676,-3.0647170543670654],"type":"VEC3","bufferView":0,"byteOffset":5916},{"name":"pochiena-Mesh_7_texcoords","componentType":5126,"count":24,"min":[0,-0.1849299967288971],"max":[1,1.2000000476837158],"type":"VEC2","bufferView":1,"byteOffset":3944},{"name":"pochiena-Mesh_7_indices","componentType":5123,"count":54,"min":[0],"max":[23],"type":"SCALAR","bufferView":2,"byteOffset":3304},{"name":"pochiena-Mesh_8_positions","componentType":5126,"count":16,"min":[-0.8916950225830078,1.0125600099563599,-2.586716890335083],"max":[0.9015200138092041,1.7740600109100342,-1.2533799409866333],"type":"VEC3","bufferView":0,"byteOffset":6204},{"name":"pochiena-Mesh_8_texcoords","componentType":5126,"count":16,"min":[0.19374999403953552,0],"max":[1,1.125],"type":"VEC2","bufferView":1,"byteOffset":4136},{"name":"pochiena-Mesh_8_indices","componentType":5123,"count":57,"min":[0],"max":[15],"type":"SCALAR","bufferView":2,"byteOffset":3412},{"name":"pochiena-Mesh_9_positions","componentType":5126,"count":8,"min":[-0.3470439910888672,1.9679499864578247,-3.250617027282715],"max":[0.34704500436782837,2.485229969024658,-3.0249669551849365],"type":"VEC3","bufferView":0,"byteOffset":6396},{"name":"pochiena-Mesh_9_texcoords","componentType":5126,"count":8,"min":[0,0],"max":[1,1.15625],"type":"VEC2","bufferView":1,"byteOffset":4264},{"name":"pochiena-Mesh_9_indices","componentType":5123,"count":24,"min":[0],"max":[7],"type":"SCALAR","bufferView":2,"byteOffset":3528},{"name":"pochiena-Mesh_10_positions","componentType":5126,"count":19,"min":[-0.6437730193138123,1.9533400535583496,-3.253396987915039],"max":[0.642985999584198,2.693419933319092,-3.044387102127075],"type":"VEC3","bufferView":0,"byteOffset":6492},{"name":"pochiena-Mesh_10_texcoords","componentType":5126,"count":19,"min":[0,0],"max":[1,1],"type":"VEC2","bufferView":1,"byteOffset":4328},{"name":"pochiena-Mesh_10_indices","componentType":5123,"count":57,"min":[0],"max":[18],"type":"SCALAR","bufferView":2,"byteOffset":3576},{"name":"pochiena-Mesh_11_positions","componentType":5126,"count":12,"min":[-0.9112979769706726,0.9440500140190125,-5.543517112731934],"max":[0.8887100219726562,1.1386100053787231,-4.22564697265625],"type":"VEC3","bufferView":0,"byteOffset":6720},{"name":"pochiena-Mesh_11_texcoords","componentType":5126,"count":12,"min":[-0.14124999940395355,-0.07840000092983246],"max":[1.1412500143051147,1.0016000270843506],"type":"VEC2","bufferView":1,"byteOffset":4480},{"name":"pochiena-Mesh_11_indices","componentType":5123,"count":42,"min":[0],"max":[11],"type":"SCALAR","bufferView":2,"byteOffset":3692},{"name":"pochiena-Mesh_12_positions","componentType":5126,"count":78,"min":[-1.5864399671554565,-2.337023973464966,-3.9407670497894287],"max":[1.633039951324463,-0.3538399934768677,-1.8606469631195068],"type":"VEC3","bufferView":0,"byteOffset":6864},{"name":"pochiena-Mesh_12_texcoords","componentType":5126,"count":78,"min":[0,0],"max":[1,1],"type":"VEC2","bufferView":1,"byteOffset":4576},{"name":"pochiena-Mesh_12_indices","componentType":5123,"count":294,"min":[0],"max":[77],"type":"SCALAR","bufferView":2,"byteOffset":3776}],"asset":{"generator":"obj2gltf","version":"2.0"},"buffers":[{"name":"BR_Poochyena-Shiny01","byteLength":214700,"uri":"data:application/octet-stream;base64,"}],"bufferViews":[{"name":"bufferView_0","buffer":0,"byteLength":7800,"byteOffset":0,"byteStride":12,"target":34962},{"name":"bufferView_1","buffer":0,"byteLength":5200,"byteOffset":7800,"byteStride":8,"target":34962},{"name":"bufferView_2","buffer":0,"byteLength":4364,"byteOffset":13000,"target":34963},{"buffer":0,"byteOffset":17364,"byteLength":4114},{"buffer":0,"byteOffset":21478,"byteLength":16402},{"buffer":0,"byteOffset":37880,"byteLength":274},{"buffer":0,"byteOffset":38154,"byteLength":16402},{"buffer":0,"byteOffset":54556,"byteLength":16402},{"buffer":0,"byteOffset":70958,"byteLength":4114},{"buffer":0,"byteOffset":75072,"byteLength":98322},{"buffer":0,"byteOffset":173394,"byteLength":274},{"buffer":0,"byteOffset":173668,"byteLength":16402},{"buffer":0,"byteOffset":190070,"byteLength":4114},{"buffer":0,"byteOffset":194184,"byteLength":16402},{"buffer":0,"byteOffset":210586,"byteLength":4114}],"images":[{"name":"pochiena_1_0","mimeType":"image/x-tga","bufferView":3},{"name":"pochiena_1_1","mimeType":"image/x-tga","bufferView":4},{"name":"pochiena_1_2","mimeType":"image/x-tga","bufferView":5},{"name":"pochiena_1_3","mimeType":"image/x-tga","bufferView":6},{"name":"pochiena_1_4","mimeType":"image/x-tga","bufferView":7},{"name":"pochiena_1_5","mimeType":"image/x-tga","bufferView":8},{"name":"pochiena_1_6","mimeType":"image/x-tga","bufferView":9},{"name":"pochiena_1_7","mimeType":"image/x-tga","bufferView":10},{"name":"pochiena_1_8","mimeType":"image/x-tga","bufferView":11},{"name":"pochiena_1_9","mimeType":"image/x-tga","bufferView":12},{"name":"pochiena_1_10","mimeType":"image/x-tga","bufferView":13},{"name":"pochiena_1_11","mimeType":"image/x-tga","bufferView":14}],"materials":[{"name":"mat_0","pbrMetallicRoughness":{"baseColorTexture":{"index":0},"baseColorFactor":[1,1,1,1],"metallicFactor":0,"roughnessFactor":0.903921569},"emissiveFactor":[0,0,0],"alphaMode":"BLEND","doubleSided":true},{"name":"mat_1","pbrMetallicRoughness":{"baseColorTexture":{"index":1},"baseColorFactor":[1,1,1,1],"metallicFactor":0,"roughnessFactor":0.903921569},"emissiveFactor":[0,0,0],"alphaMode":"BLEND","doubleSided":true},{"name":"mat_2","pbrMetallicRoughness":{"baseColorTexture":{"index":2},"baseColorFactor":[1,1,1,1],"metallicFactor":0,"roughnessFactor":0.903921569},"emissiveFactor":[0,0,0],"alphaMode":"BLEND","doubleSided":true},{"name":"mat_3","pbrMetallicRoughness":{"baseColorTexture":{"index":3},"baseColorFactor":[1,1,1,1],"metallicFactor":0,"roughnessFactor":0.903921569},"emissiveFactor":[0,0,0],"alphaMode":"BLEND","doubleSided":true},{"name":"mat_4","pbrMetallicRoughness":{"baseColorTexture":{"index":4},"baseColorFactor":[1,1,1,1],"metallicFactor":0,"roughnessFactor":0.903921569},"emissiveFactor":[0,0,0],"alphaMode":"BLEND","doubleSided":true},{"name":"mat_5","pbrMetallicRoughness":{"baseColorTexture":{"index":5},"baseColorFactor":[1,1,1,1],"metallicFactor":0,"roughnessFactor":0.903921569},"emissiveFactor":[0,0,0],"alphaMode":"BLEND","doubleSided":true},{"name":"mat_6","pbrMetallicRoughness":{"baseColorTexture":{"index":6},"baseColorFactor":[1,1,1,1],"metallicFactor":0,"roughnessFactor":0.903921569},"emissiveFactor":[0,0,0],"alphaMode":"BLEND","doubleSided":true},{"name":"mat_7","pbrMetallicRoughness":{"baseColorTexture":{"index":7},"baseColorFactor":[1,1,1,1],"metallicFactor":0,"roughnessFactor":0.903921569},"emissiveFactor":[0,0,0],"alphaMode":"BLEND","doubleSided":true},{"name":"mat_8","pbrMetallicRoughness":{"baseColorTexture":{"index":8},"baseColorFactor":[1,1,1,1],"metallicFactor":0,"roughnessFactor":0.903921569},"emissiveFactor":[0,0,0],"alphaMode":"BLEND","doubleSided":true},{"name":"mat_9","pbrMetallicRoughness":{"baseColorTexture":{"index":9},"baseColorFactor":[1,1,1,1],"metallicFactor":0,"roughnessFactor":0.903921569},"emissiveFactor":[0,0,0],"alphaMode":"BLEND","doubleSided":true},{"name":"mat_10","pbrMetallicRoughness":{"baseColorTexture":{"index":10},"baseColorFactor":[1,1,1,1],"metallicFactor":0,"roughnessFactor":0.903921569},"emissiveFactor":[0,0,0],"alphaMode":"BLEND","doubleSided":true},{"name":"mat_11","pbrMetallicRoughness":{"baseColorTexture":{"index":11},"baseColorFactor":[1,1,1,1],"metallicFactor":0,"roughnessFactor":0.903921569},"emissiveFactor":[0,0,0],"alphaMode":"BLEND","doubleSided":true},{"name":"mat_12","pbrMetallicRoughness":{"baseColorTexture":{"index":2},"baseColorFactor":[1,1,1,1],"metallicFactor":0,"roughnessFactor":0.903921569},"emissiveFactor":[0,0,0],"alphaMode":"BLEND","doubleSided":true}],"meshes":[{"name":"pochiena-Mesh","primitives":[{"attributes":{"POSITION":0,"TEXCOORD_0":1},"indices":2,"material":0,"mode":4},{"attributes":{"POSITION":3,"TEXCOORD_0":4},"indices":5,"material":1,"mode":4},{"attributes":{"POSITION":6,"TEXCOORD_0":7},"indices":8,"material":2,"mode":4},{"attributes":{"POSITION":9,"TEXCOORD_0":10},"indices":11,"material":3,"mode":4},{"attributes":{"POSITION":12,"TEXCOORD_0":13},"indices":14,"material":4,"mode":4},{"attributes":{"POSITION":15,"TEXCOORD_0":16},"indices":17,"material":5,"mode":4},{"attributes":{"POSITION":18,"TEXCOORD_0":19},"indices":20,"material":6,"mode":4},{"attributes":{"POSITION":21,"TEXCOORD_0":22},"indices":23,"material":7,"mode":4},{"attributes":{"POSITION":24,"TEXCOORD_0":25},"indices":26,"material":8,"mode":4},{"attributes":{"POSITION":27,"TEXCOORD_0":28},"indices":29,"material":9,"mode":4},{"attributes":{"POSITION":30,"TEXCOORD_0":31},"indices":32,"material":10,"mode":4},{"attributes":{"POSITION":33,"TEXCOORD_0":34},"indices":35,"material":11,"mode":4},{"attributes":{"POSITION":36,"TEXCOORD_0":37},"indices":38,"material":12,"mode":4}]}],"nodes":[{"name":"pochiena","mesh":0}],"samplers":[{"wrapS":10497,"wrapT":10497}],"scene":0,"scenes":[{"nodes":[0]}],"textures":[{"name":"pochiena_1_0","sampler":0,"source":0},{"name":"pochiena_1_1","sampler":0,"source":1},{"name":"pochiena_1_2","sampler":0,"source":2},{"name":"pochiena_1_3","sampler":0,"source":3},{"name":"pochiena_1_4","sampler":0,"source":4},{"name":"pochiena_1_5","sampler":0,"source":5},{"name":"pochiena_1_6","sampler":0,"source":6},{"name":"pochiena_1_7","sampler":0,"source":7},{"name":"pochiena_1_8","sampler":0,"source":8},{"name":"pochiena_1_9","sampler":0,"source":9},{"name":"pochiena_1_10","sampler":0,"source":10},{"name":"pochiena_1_11","sampler":0,"source":11}]}