{"accessors":[{"name":"guraena-Mesh_0_positions","componentType":5126,"count":9,"min":[-0.2829349935054779,4.049210071563721,-8.172650337219238],"max":[0.2829349935054779,4.721429824829102,-7.888589859008789],"type":"VEC3","bufferView":0,"byteOffset":0},{"name":"guraena-Mesh_0_texcoords","componentType":5126,"count":9,"min":[0,0],"max":[1,1],"type":"VEC2","bufferView":1,"byteOffset":0},{"name":"guraena-Mesh_0_indices","componentType":5123,"count":18,"min":[0],"max":[8],"type":"SCALAR","bufferView":2,"byteOffset":0},{"name":"guraena-Mesh_1_positions","componentType":5126,"count":118,"min":[-1.899590015411377,-2.016309976577759,-8.305159568786621],"max":[1.899590015411377,5.106900215148926,-0.05869099870324135],"type":"VEC3","bufferView":0,"byteOffset":108},{"name":"guraena-Mesh_1_texcoords","componentType":5126,"count":118,"min":[0,0],"max":[1,1],"type":"VEC2","bufferView":1,"byteOffset":72},{"name":"guraena-Mesh_1_indices","componentType":5123,"count":192,"min":[0],"max":[117],"type":"SCALAR","bufferView":2,"byteOffset":36},{"name":"guraena-Mesh_2_positions","componentType":5126,"count":100,"min":[-2.0485100746154785,-3.4282000064849854,-5.406099796295166],"max":[2.0485100746154785,3.027470111846924,-2.216830015182495],"type":"VEC3","bufferView":0,"byteOffset":1524},{"name":"guraena-Mesh_2_texcoords","componentType":5126,"count":100,"min":[-0.390625,-5.171879768371582],"max":[1.1749999523162842,1.0052080154418945],"type":"VEC2","bufferView":1,"byteOffset":1016},{"name":"guraena-Mesh_2_indices","componentType":5123,"count":186,"min":[0],"max":[99],"type":"SCALAR","bufferView":2,"byteOffset":420},{"name":"guraena-Mesh_3_positions","componentType":5126,"count":8,"min":[-1.5907700061798096,2.3029699325561523,-3.957289934158325],"max":[1.5907700061798096,3.027470111846924,-2.5250298976898193],"type":"VEC3","bufferView":0,"byteOffset":2724},{"name":"guraena-Mesh_3_texcoords","componentType":5126,"count":8,"min":[0,-0.28999999165534973],"max":[1,1],"type":"VEC2","bufferView":1,"byteOffset":1816},{"name":"guraena-Mesh_3_indices","componentType":5123,"count":12,"min":[0],"max":[7],"type":"SCALAR","bufferView":2,"byteOffset":792},{"name":"guraena-Mesh_4_positions","componentType":5126,"count":545,"min":[-2.5223400592803955,-7.12116003036499,-11.085700035095215],"max":[2.5223400592803955,4.701580047607422,-0.0030499999411404133],"type":"VEC3","bufferView":0,"byteOffset":2820},{"name":"guraena-Mesh_4_texcoords","componentType":5126,"count":545,"min":[-0.48151400685310364,-0.03815999999642372],"max":[1.8312100172042847,1.445052981376648],"type":"VEC2","bufferView":1,"byteOffset":1880},{"name":"guraena-Mesh_4_indices","componentType":5123,"count":1098,"min":[0],"max":[544],"type":"SCALAR","bufferView":2,"byteOffset":816},{"name":"guraena-Mesh_5_positions","componentType":5126,"count":161,"min":[-1.7515499591827393,-2.938149929046631,-11.757699966430664],"max":[1.7515499591827393,5.139430046081543,-3.4169299602508545],"type":"VEC3","bufferView":0,"byteOffset":9360},{"name":"guraena-Mesh_5_texcoords","componentType":5126,"count":161,"min":[0,0.33068299293518066],"max":[0.48157599568367004,1.1070489883422852],"type":"VEC2","bufferView":1,"byteOffset":6240},{"name":"guraena-Mesh_5_indices","componentType":5123,"count":534,"min":[0],"max":[160],"type":"SCALAR","bufferView":2,"byteOffset":3012},{"name":"guraena-Mesh_6_positions","componentType":5126,"count":36,"min":[-1.9645299911499023,-3.2913100719451904,-1.1768399477005005],"max":[1.9645299911499023,3.2676401138305664,-0.0030499999411404133],"type":"VEC3","bufferView":0,"byteOffset":11292},{"name":"guraena-Mesh_6_texcoords","componentType":5126,"count":36,"min":[-0.09107799828052521,-0.022929999977350235],"max":[1.0867300033569336,1.5919729471206665],"type":"VEC2","bufferView":1,"byteOffset":7528},{"name":"guraena-Mesh_6_indices","componentType":5123,"count":48,"min":[0],"max":[35],"type":"SCALAR","bufferView":2,"byteOffset":4080},{"name":"guraena-Mesh_7_positions","componentType":5126,"count":28,"min":[-0.9395049810409546,3.4496700763702393,-8.516579627990723],"max":[0.939428985118866,5.2392401695251465,-7.677189826965332],"type":"VEC3","bufferView":0,"byteOffset":11724},{"name":"guraena-Mesh_7_texcoords","componentType":5126,"count":28,"min":[-0.027654999867081642,0],"max":[0.9382169842720032,1.0499999523162842],"type":"VEC2","bufferView":1,"byteOffset":7816},{"name":"guraena-Mesh_7_indices","componentType":5123,"count":57,"min":[0],"max":[27],"type":"SCALAR","bufferView":2,"byteOffset":4176},{"name":"guraena-Mesh_8_positions","componentType":5126,"count":14,"min":[-0.44152700901031494,4.755970001220703,-8.85869026184082],"max":[0.4641200006008148,5.345510005950928,-7.837679862976074],"type":"VEC3","bufferView":0,"byteOffset":12060},{"name":"guraena-Mesh_8_texcoords","componentType":5126,"count":14,"min":[-0.8907889723777771,-0.8719499707221985],"max":[1.9618699550628662,1],"type":"VEC2","bufferView":1,"byteOffset":8040},{"name":"guraena-Mesh_8_indices","componentType":5123,"count":33,"min":[0],"max":[13],"type":"SCALAR","bufferView":2,"byteOffset":4292},{"name":"guraena-Mesh_9_positions","componentType":5126,"count":8,"min":[-1.0562700033187866,3.416300058364868,-9.326359748840332],"max":[1.0561699867248535,4.108650207519531,-8.15369987487793],"type":"VEC3","bufferView":0,"byteOffset":12228},{"name":"guraena-Mesh_9_texcoords","componentType":5126,"count":8,"min":[-0.130513995885849,-0.2717300057411194],"max":[1.1282099485397339,1.1791670322418213],"type":"VEC2","bufferView":1,"byteOffset":8152},{"name":"guraena-Mesh_9_indices","componentType":5123,"count":12,"min":[0],"max":[7],"type":"SCALAR","bufferView":2,"byteOffset":4360},{"name":"guraena-Mesh_10_positions","componentType":5126,"count":10,"min":[-0.9396809935569763,3.76173996925354,-9.415849685668945],"max":[0.980817973613739,4.701580047607422,-8.516579627990723],"type":"VEC3","bufferView":0,"byteOffset":12324},{"name":"guraena-Mesh_10_texcoords","componentType":5126,"count":10,"min":[-0.2232780009508133,-0.027459999546408653],"max":[1.2617199420928955,0.17858000099658966],"type":"VEC2","bufferView":1,"byteOffset":8216},{"name":"guraena-Mesh_10_indices","componentType":5123,"count":18,"min":[0],"max":[9],"type":"SCALAR","bufferView":2,"byteOffset":4384},{"name":"guraena-Mesh_11_positions","componentType":5126,"count":15,"min":[-1.290809988975525,2.246570110321045,-6.730440139770508],"max":[1.290809988975525,3.6929900646209717,-3.438149929046631],"type":"VEC3","bufferView":0,"byteOffset":12444},{"name":"guraena-Mesh_11_texcoords","componentType":5126,"count":15,"min":[-0.18248100578784943,-0.45848000049591064],"max":[1.183590054512024,1.097586989402771],"type":"VEC2","bufferView":1,"byteOffset":8296},{"name":"guraena-Mesh_11_indices","componentType":5123,"count":48,"min":[0],"max":[14],"type":"SCALAR","bufferView":2,"byteOffset":4420}],"asset":{"generator":"obj2gltf","version":"2.0"},"buffers":[{"name":"BR_Mightyena-Shiny01","byteLength":98732,"uri":"data:application/octet-stream;base64,"}],"bufferViews":[{"name":"bufferView_0","buffer":0,"byteLength":12624,"byteOffset":0,"byteStride":12,"target":34962},{"name":"bufferView_1","buffer":0,"byteLength":8416,"byteOffset":12624,"byteStride":8,"target":34962},{"name":"bufferView_2","buffer":0,"byteLength":4516,"byteOffset":21040,"target":34963},{"buffer":0,"byteOffset":25556,"byteLength":1042},{"buffer":0,"byteOffset":26598,"byteLength":274},{"buffer":0,"byteOffset":26872,"byteLength":4114},{"buffer":0,"byteOffset":30986,"byteLength":4114},{"buffer":0,"byteOffset":35100,"byteLength":4114},{"buffer":0,"byteOffset":39214,"byteLength":274},{"buffer":0,"byteOffset":39488,"byteLength":4114},{"buffer":0,"byteOffset":43602,"byteLength":2066},{"buffer":0,"byteOffset":45668,"byteLength":4114},{"buffer":0,"byteOffset":49782,"byteLength":6418},{"buffer":0,"byteOffset":56200,"byteLength":38418},{"buffer":0,"byteOffset":94618,"byteLength":4114}],"images":[{"name":"guraena_1_0","mimeType":"image/x-tga","bufferView":3},{"name":"guraena_1_1","mimeType":"image/x-tga","bufferView":4},{"name":"guraena_1_2","mimeType":"image/x-tga","bufferView":5},{"name":"guraena_1_3","mimeType":"image/x-tga","bufferView":6},{"name":"guraena_1_4","mimeType":"image/x-tga","bufferView":7},{"name":"guraena_1_5","mimeType":"image/x-tga","bufferView":8},{"name":"guraena_1_6","mimeType":"image/x-tga","bufferView":9},{"name":"guraena_1_7","mimeType":"image/x-tga","bufferView":10},{"name":"guraena_1_8","mimeType":"image/x-tga","bufferView":11},{"name":"guraena_1_9","mimeType":"image/x-tga","bufferView":12},{"name":"guraena_1_10","mimeType":"image/x-tga","bufferView":13},{"name":"guraena_1_11","mimeType":"image/x-tga","bufferView":14}],"materials":[{"name":"mat_0","pbrMetallicRoughness":{"baseColorTexture":{"index":0},"baseColorFactor":[1,1,1,1],"metallicFactor":0,"roughnessFactor":0.903921569},"emissiveFactor":[0,0,0],"alphaMode":"BLEND","doubleSided":true},{"name":"mat_1","pbrMetallicRoughness":{"baseColorTexture":{"index":1},"baseColorFactor":[1,1,1,1],"metallicFactor":0,"roughnessFactor":0.903921569},"emissiveFactor":[0,0,0],"alphaMode":"BLEND","doubleSided":true},{"name":"mat_2","pbrMetallicRoughness":{"baseColorTexture":{"index":2},"baseColorFactor":[1,1,1,1],"metallicFactor":0,"roughnessFactor":0.903921569},"emissiveFactor":[0,0,0],"alphaMode":"BLEND","doubleSided":true},{"name":"mat_3","pbrMetallicRoughness":{"baseColorTexture":{"index":3},"baseColorFactor":[1,1,1,1],"metallicFactor":0,"roughnessFactor":0.903921569},"emissiveFactor":[0,0,0],"alphaMode":"BLEND","doubleSided":true},{"name":"mat_4","pbrMetallicRoughness":{"baseColorTexture":{"index":4},"baseColorFactor":[1,1,1,1],"metallicFactor":0,"roughnessFactor":0.903921569},"emissiveFactor":[0,0,0],"alphaMode":"BLEND","doubleSided":true},{"name":"mat_5","pbrMetallicRoughness":{"baseColorTexture":{"index":5},"baseColorFactor":[1,1,1,1],"metallicFactor":0,"roughnessFactor":0.903921569},"emissiveFactor":[0,0,0],"alphaMode":"BLEND","doubleSided":true},{"name":"mat_6","pbrMetallicRoughness":{"baseColorTexture":{"index":6},"baseColorFactor":[1,1,1,1],"metallicFactor":0,"roughnessFactor":0.903921569},"emissiveFactor":[0,0,0],"alphaMode":"BLEND","doubleSided":true},{"name":"mat_7","pbrMetallicRoughness":{"baseColorTexture":{"index":7},"baseColorFactor":[1,1,1,1],"metallicFactor":0,"roughnessFactor":0.903921569},"emissiveFactor":[0,0,0],"alphaMode":"BLEND","doubleSided":true},{"name":"mat_8","pbrMetallicRoughness":{"baseColorTexture":{"index":8},"baseColorFactor":[1,1,1,1],"metallicFactor":0,"roughnessFactor":0.903921569},"emissiveFactor":[0,0,0],"alphaMode":"BLEND","doubleSided":true},{"name":"mat_9","pbrMetallicRoughness":{"baseColorTexture":{"index":9},"baseColorFactor":[1,1,1,1],"metallicFactor":0,"roughnessFactor":0.903921569},"emissiveFactor":[0,0,0],"alphaMode":"BLEND","doubleSided":true},{"name":"mat_10","pbrMetallicRoughness":{"baseColorTexture":{"index":10},"baseColorFactor":[1,1,1,1],"metallicFactor":0,"roughnessFactor":0.903921569},"emissiveFactor":[0,0,0],"alphaMode":"BLEND","doubleSided":true},{"name":"mat_11","pbrMetallicRoughness":{"baseColorTexture":{"index":11},"baseColorFactor":[1,1,1,1],"metallicFactor":0,"roughnessFactor":0.903921569},"emissiveFactor":[0,0,0],"alphaMode":"BLEND","doubleSided":true}],"meshes":[{"name":"guraena-Mesh","primitives":[{"attributes":{"POSITION":0,"TEXCOORD_0":1},"indices":2,"material":0,"mode":4},{"attributes":{"POSITION":3,"TEXCOORD_0":4},"indices":5,"material":1,"mode":4},{"attributes":{"POSITION":6,"TEXCOORD_0":7},"indices":8,"material":2,"mode":4},{"attributes":{"POSITION":9,"TEXCOORD_0":10},"indices":11,"material":3,"mode":4},{"attributes":{"POSITION":12,"TEXCOORD_0":13},"indices":14,"material":4,"mode":4},{"attributes":{"POSITION":15,"TEXCOORD_0":16},"indices":17,"material":5,"mode":4},{"attributes":{"POSITION":18,"TEXCOORD_0":19},"indices":20,"material":6,"mode":4},{"attributes":{"POSITION":21,"TEXCOORD_0":22},"indices":23,"material":7,"mode":4},{"attributes":{"POSITION":24,"TEXCOORD_0":25},"indices":26,"material":8,"mode":4},{"attributes":{"POSITION":27,"TEXCOORD_0":28},"indices":29,"material":9,"mode":4},{"attributes":{"POSITION":30,"TEXCOORD_0":31},"indices":32,"material":10,"mode":4},{"attributes":{"POSITION":33,"TEXCOORD_0":34},"indices":35,"material":11,"mode":4}]}],"nodes":[{"name":"guraena","mesh":0}],"samplers":[{"wrapS":10497,"wrapT":10497}],"scene":0,"scenes":[{"nodes":[0]}],"textures":[{"name":"guraena_1_0","sampler":0,"source":0},{"name":"guraena_1_1","sampler":0,"source":1},{"name":"guraena_1_2","sampler":0,"source":2},{"name":"guraena_1_3","sampler":0,"source":3},{"name":"guraena_1_4","sampler":0,"source":4},{"name":"guraena_1_5","sampler":0,"source":5},{"name":"guraena_1_6","sampler":0,"source":6},{"name":"guraena_1_7","sampler":0,"source":7},{"name":"guraena_1_8","sampler":0,"source":8},{"name":"guraena_1_9","sampler":0,"source":9},{"name":"guraena_1_10","sampler":0,"source":10},{"name":"guraena_1_11","sampler":0,"source":11}]}