{"accessors":[{"name":"Mightyena_1_0_positions","componentType":5126,"count":13440,"min":[-25.314517974853516,31.059900283813477,-107.56000518798828],"max":[25.314483642578125,110.31100463867188,56.422096252441406],"type":"VEC3","bufferView":0,"byteOffset":0},{"name":"Mightyena_1_0_normals","componentType":5126,"count":13440,"min":[-0.9993780255317688,-0.9999821782112122,-0.9959449768066406],"max":[0.9998037219047546,0.9976906776428223,0.99747234582901],"type":"VEC3","bufferView":1,"byteOffset":0},{"name":"Mightyena_1_0_texcoords","componentType":5126,"count":13440,"min":[0.005859000142663717,0.0078119998797774315],"max":[0.9941409826278687,0.9906989932060242],"type":"VEC2","bufferView":2,"byteOffset":0},{"name":"Mightyena_1_0_indices","componentType":5123,"count":13440,"min":[0],"max":[13439],"type":"SCALAR","bufferView":3,"byteOffset":0},{"name":"Mightyena_1_1_positions","componentType":5126,"count":7368,"min":[-20.0745792388916,-0.14956800639629364,-46.86044692993164],"max":[20.074623107910156,54.551795959472656,31.60969352722168],"type":"VEC3","bufferView":0,"byteOffset":161280},{"name":"Mightyena_1_1_normals","componentType":5126,"count":7368,"min":[-0.9904424548149109,-0.9999821782112122,-0.970707356929779],"max":[0.9993783235549927,0.9925150871276855,0.9974720478057861],"type":"VEC3","bufferView":1,"byteOffset":161280},{"name":"Mightyena_1_1_texcoords","componentType":5126,"count":7368,"min":[0.01428299956023693,-0.9843800067901611],"max":[0.9857169985771179,-0.009909999556839466],"type":"VEC2","bufferView":2,"byteOffset":107520},{"name":"Mightyena_1_1_indices","componentType":5123,"count":7368,"min":[0],"max":[7367],"type":"SCALAR","bufferView":3,"byteOffset":26880},{"name":"Mightyena_1_2_positions","componentType":5126,"count":186,"min":[-10.121600151062012,79.09100341796875,42.62000274658203],"max":[10.121600151062012,89.85449981689453,51.424903869628906],"type":"VEC3","bufferView":0,"byteOffset":249696},{"name":"Mightyena_1_2_normals","componentType":5126,"count":186,"min":[-0.9848967790603638,-0.9936768412590027,-0.8320498466491699],"max":[0.9219222068786621,0.9653178453445435,0.8907456994056702],"type":"VEC3","bufferView":1,"byteOffset":249696},{"name":"Mightyena_1_2_texcoords","componentType":5126,"count":186,"min":[0.007360000163316727,-1.9898799657821655],"max":[0.4926399886608124,-1.7578099966049194],"type":"VEC2","bufferView":2,"byteOffset":166464},{"name":"Mightyena_1_2_indices","componentType":5123,"count":186,"min":[0],"max":[185],"type":"SCALAR","bufferView":3,"byteOffset":41616}],"asset":{"generator":"obj2gltf","version":"2.0"},"buffers":[{"name":"XY_Mightyena","byteLength":877284,"uri":"data:application/octet-stream;base64,"}],"bufferViews":[{"name":"bufferView_0","buffer":0,"byteLength":251928,"byteOffset":0,"byteStride":12,"target":34962},{"name":"bufferView_1","buffer":0,"byteLength":251928,"byteOffset":251928,"byteStride":12,"target":34962},{"name":"bufferView_2","buffer":0,"byteLength":167952,"byteOffset":503856,"byteStride":8,"target":34962},{"name":"bufferView_3","buffer":0,"byteLength":41988,"byteOffset":671808,"target":34963},{"buffer":0,"byteOffset":713796,"byteLength":85709},{"buffer":0,"byteOffset":799505,"byteLength":42447},{"buffer":0,"byteOffset":841952,"byteLength":35332}],"images":[{"name":"pm0262_00_BodyA1","mimeType":"image/png","bufferView":4},{"name":"pm0262_00_BodyB1","mimeType":"image/png","bufferView":5},{"name":"pm0262_00_Eye1","mimeType":"image/png","bufferView":6}],"materials":[{"name":"Material__23","pbrMetallicRoughness":{"baseColorTexture":{"index":0},"baseColorFactor":[1,1,1,1],"metallicFactor":0,"roughnessFactor":0.998},"emissiveFactor":[0,0,0],"alphaMode":"OPAQUE","doubleSided":false},{"name":"Material__24","pbrMetallicRoughness":{"baseColorTexture":{"index":1},"baseColorFactor":[1,1,1,1],"metallicFactor":0,"roughnessFactor":0.998},"emissiveFactor":[0,0,0],"alphaMode":"OPAQUE","doubleSided":false},{"name":"Material__25","pbrMetallicRoughness":{"baseColorTexture":{"index":2},"baseColorFactor":[1,1,1,1],"metallicFactor":0,"roughnessFactor":0.998},"emissiveFactor":[0,0,0],"alphaMode":"OPAQUE","doubleSided":false}],"meshes":[{"name":"Mightyena_1","primitives":[{"attributes":{"POSITION":0,"NORMAL":1,"TEXCOORD_0":2},"indices":3,"material":0,"mode":4},{"attributes":{"POSITION":4,"NORMAL":5,"TEXCOORD_0":6},"indices":7,"material":1,"mode":4},{"attributes":{"POSITION":8,"NORMAL":9,"TEXCOORD_0":10},"indices":11,"material":2,"mode":4}]}],"nodes":[{"name":"Mightyena","mesh":0}],"samplers":[{"wrapS":10497,"wrapT":10497}],"scene":0,"scenes":[{"nodes":[0]}],"textures":[{"name":"pm0262_00_BodyA1","sampler":0,"source":0},{"name":"pm0262_00_BodyB1","sampler":0,"source":1},{"name":"pm0262_00_Eye1","sampler":0,"source":2}]}