{"accessors":[{"name":"ziguzaguma-Mesh_0_positions","componentType":5126,"count":26,"min":[-2.9163999557495117,0.9288430213928223,-4.6402997970581055],"max":[2.9110798835754395,4.256889820098877,-2.965259075164795],"type":"VEC3","bufferView":0,"byteOffset":0},{"name":"ziguzaguma-Mesh_0_texcoords","componentType":5126,"count":26,"min":[-0.2100590020418167,0.07073000073432922],"max":[1.1987899541854858,0.976190984249115],"type":"VEC2","bufferView":1,"byteOffset":0},{"name":"ziguzaguma-Mesh_0_indices","componentType":5123,"count":84,"min":[0],"max":[25],"type":"SCALAR","bufferView":2,"byteOffset":0},{"name":"ziguzaguma-Mesh_1_positions","componentType":5126,"count":28,"min":[-2.9163999557495117,0.29262399673461914,-4.6402997970581055],"max":[2.9110798835754395,3.0653600692749023,-2.8512539863586426],"type":"VEC3","bufferView":0,"byteOffset":312},{"name":"ziguzaguma-Mesh_1_texcoords","componentType":5126,"count":28,"min":[0,0.14482800662517548],"max":[1,1],"type":"VEC2","bufferView":1,"byteOffset":208},{"name":"ziguzaguma-Mesh_1_indices","componentType":5123,"count":108,"min":[0],"max":[27],"type":"SCALAR","bufferView":2,"byteOffset":168}],"asset":{"generator":"obj2gltf","version":"2.0"},"buffers":[{"name":"BR_Ziguzaguma-Shiny01","byteLength":18140,"uri":"data:application/octet-stream;base64,"}],"bufferViews":[{"name":"bufferView_0","buffer":0,"byteLength":648,"byteOffset":0,"byteStride":12,"target":34962},{"name":"bufferView_1","buffer":0,"byteLength":432,"byteOffset":648,"byteStride":8,"target":34962},{"name":"bufferView_2","buffer":0,"byteLength":384,"byteOffset":1080,"target":34963},{"buffer":0,"byteOffset":1464,"byteLength":16402},{"buffer":0,"byteOffset":17866,"byteLength":274}],"images":[{"name":"ziguzaguma_1_0","mimeType":"image/x-tga","bufferView":3},{"name":"ziguzaguma_1_1","mimeType":"image/x-tga","bufferView":4}],"materials":[{"name":"mat_0","pbrMetallicRoughness":{"baseColorTexture":{"index":0},"baseColorFactor":[1,1,1,1],"metallicFactor":0,"roughnessFactor":0.903921569},"emissiveFactor":[0,0,0],"alphaMode":"BLEND","doubleSided":true},{"name":"mat_1","pbrMetallicRoughness":{"baseColorTexture":{"index":1},"baseColorFactor":[1,1,1,1],"metallicFactor":0,"roughnessFactor":0.903921569},"emissiveFactor":[0,0,0],"alphaMode":"BLEND","doubleSided":true}],"meshes":[{"name":"ziguzaguma-Mesh","primitives":[{"attributes":{"POSITION":0,"TEXCOORD_0":1},"indices":2,"material":0,"mode":4},{"attributes":{"POSITION":3,"TEXCOORD_0":4},"indices":5,"material":1,"mode":4}]}],"nodes":[{"name":"ziguzaguma","mesh":0}],"samplers":[{"wrapS":10497,"wrapT":10497}],"scene":0,"scenes":[{"nodes":[0]}],"textures":[{"name":"ziguzaguma_1_0","sampler":0,"source":0},{"name":"ziguzaguma_1_1","sampler":0,"source":1}]}