{"accessors":[{"name":"Zigzagoon_1_0_positions","componentType":5126,"count":384,"min":[-11.239602088928223,18.551998138427734,38.97699737548828],"max":[11.239594459533691,26.163299560546875,43.937904357910156],"type":"VEC3","bufferView":0,"byteOffset":0},{"name":"Zigzagoon_1_0_normals","componentType":5126,"count":384,"min":[-0.8733406662940979,-0.28978797793388367,0.46505483984947205],"max":[-0.3683360517024994,0.33196109533309937,0.9217391014099121],"type":"VEC3","bufferView":1,"byteOffset":0},{"name":"Zigzagoon_1_0_texcoords","componentType":5126,"count":384,"min":[0.01682399958372116,-0.9872000217437744],"max":[0.4831799864768982,-0.7646899819374084],"type":"VEC2","bufferView":2,"byteOffset":0},{"name":"Zigzagoon_1_0_indices","componentType":5123,"count":384,"min":[0],"max":[383],"type":"SCALAR","bufferView":3,"byteOffset":0},{"name":"Zigzagoon_1_1_positions","componentType":5126,"count":13230,"min":[-28.454896926879883,-10.6893892288208,-60.43410110473633],"max":[28.454891204833984,54.37410354614258,49.65840530395508],"type":"VEC3","bufferView":0,"byteOffset":4608},{"name":"Zigzagoon_1_1_normals","componentType":5126,"count":13230,"min":[-0.9940093159675598,-0.9987043142318726,-0.9999516010284424],"max":[0.9940086603164673,0.9715720415115356,0.9943171143531799],"type":"VEC3","bufferView":1,"byteOffset":4608},{"name":"Zigzagoon_1_1_texcoords","componentType":5126,"count":13230,"min":[0,0.010311000049114227],"max":[1,0.9897040128707886],"type":"VEC2","bufferView":2,"byteOffset":3072},{"name":"Zigzagoon_1_1_indices","componentType":5123,"count":13230,"min":[0],"max":[13229],"type":"SCALAR","bufferView":3,"byteOffset":768}],"asset":{"generator":"obj2gltf","version":"2.0"},"buffers":[{"name":"XY_Zigzagoon","byteLength":572224,"uri":"data:application/octet-stream;base64,"}],"bufferViews":[{"name":"bufferView_0","buffer":0,"byteLength":163368,"byteOffset":0,"byteStride":12,"target":34962},{"name":"bufferView_1","buffer":0,"byteLength":163368,"byteOffset":163368,"byteStride":12,"target":34962},{"name":"bufferView_2","buffer":0,"byteLength":108912,"byteOffset":326736,"byteStride":8,"target":34962},{"name":"bufferView_3","buffer":0,"byteLength":27228,"byteOffset":435648,"target":34963},{"buffer":0,"byteOffset":462876,"byteLength":37696},{"buffer":0,"byteOffset":500572,"byteLength":71650}],"images":[{"name":"pm0263_00_Eye1","mimeType":"image/png","bufferView":4},{"name":"pm0263_00_Body1","mimeType":"image/png","bufferView":5}],"materials":[{"name":"Material__115","pbrMetallicRoughness":{"baseColorTexture":{"index":0},"baseColorFactor":[1,1,1,1],"metallicFactor":0,"roughnessFactor":0.998},"emissiveFactor":[0,0,0],"alphaMode":"OPAQUE","doubleSided":false},{"name":"Material__116","pbrMetallicRoughness":{"baseColorTexture":{"index":1},"baseColorFactor":[1,1,1,1],"metallicFactor":0,"roughnessFactor":0.998},"emissiveFactor":[0,0,0],"alphaMode":"OPAQUE","doubleSided":false}],"meshes":[{"name":"Zigzagoon_1","primitives":[{"attributes":{"POSITION":0,"NORMAL":1,"TEXCOORD_0":2},"indices":3,"material":0,"mode":4},{"attributes":{"POSITION":4,"NORMAL":5,"TEXCOORD_0":6},"indices":7,"material":1,"mode":4}]}],"nodes":[{"name":"Zigzagoon","mesh":0}],"samplers":[{"wrapS":10497,"wrapT":10497}],"scene":0,"scenes":[{"nodes":[0]}],"textures":[{"name":"pm0263_00_Eye1","sampler":0,"source":0},{"name":"pm0263_00_Body1","sampler":0,"source":1}]}