{"accessors":[{"name":"kemusso-Mesh_0_positions","componentType":5126,"count":328,"min":[-0.7216749787330627,-1.3800630569458008,-2.9854869842529297],"max":[0.7179629802703857,1.4608509540557861,-0.06238599866628647],"type":"VEC3","bufferView":0,"byteOffset":0},{"name":"kemusso-Mesh_0_texcoords","componentType":5126,"count":328,"min":[0.009999999776482582,-0.08594000339508057],"max":[0.16212600469589233,0.8843749761581421],"type":"VEC2","bufferView":1,"byteOffset":0},{"name":"kemusso-Mesh_0_indices","componentType":5123,"count":1140,"min":[0],"max":[327],"type":"SCALAR","bufferView":2,"byteOffset":0},{"name":"kemusso-Mesh_1_positions","componentType":5126,"count":106,"min":[-0.5889660120010376,-0.9022909998893738,-0.965474009513855],"max":[0.5717380046844482,1.0972800254821777,0.0007859999896027148],"type":"VEC3","bufferView":0,"byteOffset":3936},{"name":"kemusso-Mesh_1_texcoords","componentType":5126,"count":106,"min":[0,-0.30417001247406006],"max":[1.0049999952316284,1.8083330392837524],"type":"VEC2","bufferView":1,"byteOffset":2624},{"name":"kemusso-Mesh_1_indices","componentType":5123,"count":288,"min":[0],"max":[105],"type":"SCALAR","bufferView":2,"byteOffset":2280},{"name":"kemusso-Mesh_2_positions","componentType":5126,"count":8,"min":[-0.38860899209976196,1.153262972831726,-2.044646978378296],"max":[0.38860899209976196,1.3807059526443481,-1.7574809789657593],"type":"VEC3","bufferView":0,"byteOffset":5208},{"name":"kemusso-Mesh_2_texcoords","componentType":5126,"count":8,"min":[0.3153409957885742,-0.14488999545574188],"max":[0.9602270126342773,0.6732950210571289],"type":"VEC2","bufferView":1,"byteOffset":3472},{"name":"kemusso-Mesh_2_indices","componentType":5123,"count":12,"min":[0],"max":[7],"type":"SCALAR","bufferView":2,"byteOffset":2856},{"name":"kemusso-Mesh_3_positions","componentType":5126,"count":10,"min":[-0.13886000216007233,1.1895829439163208,-2.3324429988861084],"max":[0.15822400152683258,1.4662359952926636,-2.029344081878662],"type":"VEC3","bufferView":0,"byteOffset":5304},{"name":"kemusso-Mesh_3_texcoords","componentType":5126,"count":10,"min":[0.009999999776482582,-0.0625],"max":[0.7083330154418945,0.8500000238418579],"type":"VEC2","bufferView":1,"byteOffset":3536},{"name":"kemusso-Mesh_3_indices","componentType":5123,"count":18,"min":[0],"max":[9],"type":"SCALAR","bufferView":2,"byteOffset":2880},{"name":"kemusso-Mesh_4_positions","componentType":5126,"count":18,"min":[-0.31192800402641296,0.9972190260887146,-2.270843982696533],"max":[0.31192800402641296,1.4425430297851562,-1.9330830574035645],"type":"VEC3","bufferView":0,"byteOffset":5424},{"name":"kemusso-Mesh_4_texcoords","componentType":5126,"count":18,"min":[0.0625,-0.19886000454425812],"max":[1.1796900033950806,1.296875],"type":"VEC2","bufferView":1,"byteOffset":3616},{"name":"kemusso-Mesh_4_indices","componentType":5123,"count":54,"min":[0],"max":[17],"type":"SCALAR","bufferView":2,"byteOffset":2916},{"name":"kemusso-Mesh_5_positions","componentType":5126,"count":110,"min":[-0.49456900358200073,-1.047518014907837,-1.8862650394439697],"max":[0.49456900358200073,1.655545949935913,-0.016124000772833824],"type":"VEC3","bufferView":0,"byteOffset":5640},{"name":"kemusso-Mesh_5_texcoords","componentType":5126,"count":110,"min":[0.0034719998948276043,0.00520800007507205],"max":[0.6458330154418945,0.9809030294418335],"type":"VEC2","bufferView":1,"byteOffset":3760},{"name":"kemusso-Mesh_5_indices","componentType":5123,"count":396,"min":[0],"max":[109],"type":"SCALAR","bufferView":2,"byteOffset":3024}],"asset":{"generator":"obj2gltf","version":"2.0"},"buffers":[{"name":"BR_Wurmple-Shiny01","byteLength":161940,"uri":"data:application/octet-stream;base64,"}],"bufferViews":[{"name":"bufferView_0","buffer":0,"byteLength":6960,"byteOffset":0,"byteStride":12,"target":34962},{"name":"bufferView_1","buffer":0,"byteLength":4640,"byteOffset":6960,"byteStride":8,"target":34962},{"name":"bufferView_2","buffer":0,"byteLength":3816,"byteOffset":11600,"target":34963},{"buffer":0,"byteOffset":15416,"byteLength":98322},{"buffer":0,"byteOffset":113738,"byteLength":25618},{"buffer":0,"byteOffset":139356,"byteLength":4114},{"buffer":0,"byteOffset":143470,"byteLength":2066},{"buffer":0,"byteOffset":145536,"byteLength":16402}],"images":[{"name":"kemusso_1_0","mimeType":"image/x-tga","bufferView":3},{"name":"kemusso_1_1","mimeType":"image/x-tga","bufferView":4},{"name":"kemusso_1_2","mimeType":"image/x-tga","bufferView":5},{"name":"kemusso_1_3","mimeType":"image/x-tga","bufferView":6},{"name":"kemusso_1_4","mimeType":"image/x-tga","bufferView":7}],"materials":[{"name":"mat_0","pbrMetallicRoughness":{"baseColorTexture":{"index":0},"baseColorFactor":[1,1,1,1],"metallicFactor":0,"roughnessFactor":0.903921569},"emissiveFactor":[0,0,0],"alphaMode":"BLEND","doubleSided":true},{"name":"mat_1","pbrMetallicRoughness":{"baseColorTexture":{"index":1},"baseColorFactor":[1,1,1,1],"metallicFactor":0,"roughnessFactor":0.903921569},"emissiveFactor":[0,0,0],"alphaMode":"BLEND","doubleSided":true},{"name":"mat_2","pbrMetallicRoughness":{"baseColorTexture":{"index":2},"baseColorFactor":[1,1,1,1],"metallicFactor":0,"roughnessFactor":0.903921569},"emissiveFactor":[0,0,0],"alphaMode":"BLEND","doubleSided":true},{"name":"mat_3","pbrMetallicRoughness":{"baseColorFactor":[0.8,0.8,0.8,1],"metallicFactor":0,"roughnessFactor":0.903921569},"emissiveFactor":[0,0,0],"alphaMode":"OPAQUE","doubleSided":false},{"name":"mat_4","pbrMetallicRoughness":{"baseColorTexture":{"index":3},"baseColorFactor":[1,1,1,1],"metallicFactor":0,"roughnessFactor":0.903921569},"emissiveFactor":[0,0,0],"alphaMode":"BLEND","doubleSided":true},{"name":"mat_5","pbrMetallicRoughness":{"baseColorTexture":{"index":4},"baseColorFactor":[1,1,1,1],"metallicFactor":0,"roughnessFactor":0.903921569},"emissiveFactor":[0,0,0],"alphaMode":"BLEND","doubleSided":true}],"meshes":[{"name":"kemusso-Mesh","primitives":[{"attributes":{"POSITION":0,"TEXCOORD_0":1},"indices":2,"material":0,"mode":4},{"attributes":{"POSITION":3,"TEXCOORD_0":4},"indices":5,"material":1,"mode":4},{"attributes":{"POSITION":6,"TEXCOORD_0":7},"indices":8,"material":2,"mode":4},{"attributes":{"POSITION":9,"TEXCOORD_0":10},"indices":11,"material":3,"mode":4},{"attributes":{"POSITION":12,"TEXCOORD_0":13},"indices":14,"material":4,"mode":4},{"attributes":{"POSITION":15,"TEXCOORD_0":16},"indices":17,"material":5,"mode":4}]}],"nodes":[{"name":"kemusso","mesh":0}],"samplers":[{"wrapS":10497,"wrapT":10497}],"scene":0,"scenes":[{"nodes":[0]}],"textures":[{"name":"kemusso_1_0","sampler":0,"source":0},{"name":"kemusso_1_1","sampler":0,"source":1},{"name":"kemusso_1_2","sampler":0,"source":2},{"name":"kemusso_1_3","sampler":0,"source":3},{"name":"kemusso_1_4","sampler":0,"source":4}]}