{"accessors":[{"name":"karasalis-Mesh_0_positions","componentType":5126,"count":341,"min":[-5.744798183441162,-4.53746223449707,-6.5677900314331055],"max":[5.3450422286987305,3.4672300815582275,0.02610900066792965],"type":"VEC3","bufferView":0,"byteOffset":0},{"name":"karasalis-Mesh_0_texcoords","componentType":5126,"count":341,"min":[0,0],"max":[1,0.9999989867210388],"type":"VEC2","bufferView":1,"byteOffset":0},{"name":"karasalis-Mesh_0_indices","componentType":5123,"count":1173,"min":[0],"max":[340],"type":"SCALAR","bufferView":2,"byteOffset":0},{"name":"karasalis-Mesh_1_positions","componentType":5126,"count":38,"min":[-2.5966598987579346,1.669880986213684,-3.92773699760437],"max":[2.5966598987579346,2.646894931793213,-2.678816080093384],"type":"VEC3","bufferView":0,"byteOffset":4092},{"name":"karasalis-Mesh_1_texcoords","componentType":5126,"count":38,"min":[0.03756700083613396,0.8595460057258606],"max":[0.9290890097618103,1.0063949823379517],"type":"VEC2","bufferView":1,"byteOffset":2728},{"name":"karasalis-Mesh_1_indices","componentType":5123,"count":120,"min":[0],"max":[37],"type":"SCALAR","bufferView":2,"byteOffset":2348},{"name":"karasalis-Mesh_2_positions","componentType":5126,"count":138,"min":[-2.4960360527038574,-3.9065001010894775,-5.516809940338135],"max":[2.460433006286621,3.5020639896392822,-1.2826809883117676],"type":"VEC3","bufferView":0,"byteOffset":4548},{"name":"karasalis-Mesh_2_texcoords","componentType":5126,"count":138,"min":[-0.004124999977648258,0.0022319999989122152],"max":[0.9791669845581055,0.9973959922790527],"type":"VEC2","bufferView":1,"byteOffset":3032},{"name":"karasalis-Mesh_2_indices","componentType":5123,"count":519,"min":[0],"max":[137],"type":"SCALAR","bufferView":2,"byteOffset":2588},{"name":"karasalis-Mesh_3_positions","componentType":5126,"count":69,"min":[-3.1215109825134277,-2.6005120277404785,-5.33073091506958],"max":[3.412993907928467,1.9055850505828857,-1.2548819780349731],"type":"VEC3","bufferView":0,"byteOffset":6204},{"name":"karasalis-Mesh_3_texcoords","componentType":5126,"count":69,"min":[0.006943999789655209,0.002604000037536025],"max":[0.9895830154418945,0.9947919845581055],"type":"VEC2","bufferView":1,"byteOffset":4136},{"name":"karasalis-Mesh_3_indices","componentType":5123,"count":252,"min":[0],"max":[68],"type":"SCALAR","bufferView":2,"byteOffset":3628}],"asset":{"generator":"obj2gltf","version":"2.0"},"buffers":[{"name":"BR_Silcoon-Shiny01","byteLength":204340,"uri":"data:application/octet-stream;base64,"}],"bufferViews":[{"name":"bufferView_0","buffer":0,"byteLength":7032,"byteOffset":0,"byteStride":12,"target":34962},{"name":"bufferView_1","buffer":0,"byteLength":4688,"byteOffset":7032,"byteStride":8,"target":34962},{"name":"bufferView_2","buffer":0,"byteLength":4132,"byteOffset":11720,"target":34963},{"buffer":0,"byteOffset":15852,"byteLength":16402},{"buffer":0,"byteOffset":32254,"byteLength":98322},{"buffer":0,"byteOffset":130576,"byteLength":24594},{"buffer":0,"byteOffset":155170,"byteLength":49170}],"images":[{"name":"karasalis_1_0","mimeType":"image/x-tga","bufferView":3},{"name":"karasalis_1_1","mimeType":"image/x-tga","bufferView":4},{"name":"karasalis_1_2","mimeType":"image/x-tga","bufferView":5},{"name":"karasalis_1_3","mimeType":"image/x-tga","bufferView":6}],"materials":[{"name":"mat_0","pbrMetallicRoughness":{"baseColorTexture":{"index":0},"baseColorFactor":[1,1,1,1],"metallicFactor":0,"roughnessFactor":0.903921569},"emissiveFactor":[0,0,0],"alphaMode":"BLEND","doubleSided":true},{"name":"mat_1","pbrMetallicRoughness":{"baseColorTexture":{"index":1},"baseColorFactor":[1,1,1,1],"metallicFactor":0,"roughnessFactor":0.903921569},"emissiveFactor":[0,0,0],"alphaMode":"BLEND","doubleSided":true},{"name":"mat_2","pbrMetallicRoughness":{"baseColorTexture":{"index":2},"baseColorFactor":[1,1,1,1],"metallicFactor":0,"roughnessFactor":0.903921569},"emissiveFactor":[0,0,0],"alphaMode":"BLEND","doubleSided":true},{"name":"mat_3","pbrMetallicRoughness":{"baseColorTexture":{"index":3},"baseColorFactor":[1,1,1,1],"metallicFactor":0,"roughnessFactor":0.903921569},"emissiveFactor":[0,0,0],"alphaMode":"BLEND","doubleSided":true}],"meshes":[{"name":"karasalis-Mesh","primitives":[{"attributes":{"POSITION":0,"TEXCOORD_0":1},"indices":2,"material":0,"mode":4},{"attributes":{"POSITION":3,"TEXCOORD_0":4},"indices":5,"material":1,"mode":4},{"attributes":{"POSITION":6,"TEXCOORD_0":7},"indices":8,"material":2,"mode":4},{"attributes":{"POSITION":9,"TEXCOORD_0":10},"indices":11,"material":3,"mode":4}]}],"nodes":[{"name":"karasalis","mesh":0}],"samplers":[{"wrapS":10497,"wrapT":10497}],"scene":0,"scenes":[{"nodes":[0]}],"textures":[{"name":"karasalis_1_0","sampler":0,"source":0},{"name":"karasalis_1_1","sampler":0,"source":1},{"name":"karasalis_1_2","sampler":0,"source":2},{"name":"karasalis_1_3","sampler":0,"source":3}]}