{"accessors":[{"name":"agehunt-Mesh_0_positions","componentType":5126,"count":179,"min":[-1.6241300106048584,-4.021629810333252,-7.647280216217041],"max":[1.6241300106048584,1.3935199975967407,2.0078699588775635],"type":"VEC3","bufferView":0,"byteOffset":0},{"name":"agehunt-Mesh_0_texcoords","componentType":5126,"count":179,"min":[-1.5684800148010254,-0.19943000376224518],"max":[1.5684800148010254,1.0098199844360352],"type":"VEC2","bufferView":1,"byteOffset":0},{"name":"agehunt-Mesh_0_indices","componentType":5123,"count":870,"min":[0],"max":[178],"type":"SCALAR","bufferView":2,"byteOffset":0},{"name":"agehunt-Mesh_1_positions","componentType":5126,"count":190,"min":[-1.6564600467681885,-3.221869945526123,-6.621530055999756],"max":[1.6564600467681885,2.0173099040985107,0.0014769999543204904],"type":"VEC3","bufferView":0,"byteOffset":2148},{"name":"agehunt-Mesh_1_texcoords","componentType":5126,"count":190,"min":[0,-0.24236999452114105],"max":[1,1],"type":"VEC2","bufferView":1,"byteOffset":1432},{"name":"agehunt-Mesh_1_indices","componentType":5123,"count":798,"min":[0],"max":[189],"type":"SCALAR","bufferView":2,"byteOffset":1740},{"name":"agehunt-Mesh_2_positions","componentType":5126,"count":15,"min":[-1.1649099588394165,0.3255920112133026,-3.1809699535369873],"max":[1.1649099588394165,1.7105599641799927,-2.367419958114624],"type":"VEC3","bufferView":0,"byteOffset":4428},{"name":"agehunt-Mesh_2_texcoords","componentType":5126,"count":15,"min":[-0.3868800103664398,-0.36360999941825867],"max":[1.3712600469589233,0.4562009871006012],"type":"VEC2","bufferView":1,"byteOffset":2952},{"name":"agehunt-Mesh_2_indices","componentType":5123,"count":48,"min":[0],"max":[14],"type":"SCALAR","bufferView":2,"byteOffset":3336},{"name":"agehunt-Mesh_3_positions","componentType":5126,"count":78,"min":[-1.480530023574829,0.8933089971542358,-2.4832398891448975],"max":[1.480530023574829,1.8429900407791138,-0.8140109777450562],"type":"VEC3","bufferView":0,"byteOffset":4608},{"name":"agehunt-Mesh_3_texcoords","componentType":5126,"count":78,"min":[0.21679699420928955,0.02408899925649166],"max":[0.7695310115814209,0.14202800393104553],"type":"VEC2","bufferView":1,"byteOffset":3072},{"name":"agehunt-Mesh_3_indices","componentType":5123,"count":216,"min":[0],"max":[77],"type":"SCALAR","bufferView":2,"byteOffset":3432},{"name":"agehunt-Mesh_4_positions","componentType":5126,"count":66,"min":[-9.427590370178223,-1.0024000406265259,-0.9726840257644653],"max":[9.427590370178223,-0.958965003490448,2.362879991531372],"type":"VEC3","bufferView":0,"byteOffset":5544},{"name":"agehunt-Mesh_4_texcoords","componentType":5126,"count":66,"min":[-0.001563000027090311,0.1426289975643158],"max":[0.9140629768371582,0.8989250063896179],"type":"VEC2","bufferView":1,"byteOffset":3696},{"name":"agehunt-Mesh_4_indices","componentType":5123,"count":168,"min":[0],"max":[65],"type":"SCALAR","bufferView":2,"byteOffset":3864},{"name":"agehunt-Mesh_5_positions","componentType":5126,"count":42,"min":[-8.437399864196777,-0.6646109819412231,-6.915170192718506],"max":[8.437399864196777,-0.6646080017089844,0.3035770058631897],"type":"VEC3","bufferView":0,"byteOffset":6336},{"name":"agehunt-Mesh_5_texcoords","componentType":5126,"count":42,"min":[0.023437999188899994,0.0006169999833218753],"max":[0.8960000276565552,0.9511719942092896],"type":"VEC2","bufferView":1,"byteOffset":4224},{"name":"agehunt-Mesh_5_indices","componentType":5123,"count":126,"min":[0],"max":[41],"type":"SCALAR","bufferView":2,"byteOffset":4200},{"name":"agehunt-Mesh_6_positions","componentType":5126,"count":40,"min":[-1.1032400131225586,-3.221869945526123,-6.621530055999756],"max":[1.1032400131225586,-0.5263990163803101,-3.6117100715637207],"type":"VEC3","bufferView":0,"byteOffset":6840},{"name":"agehunt-Mesh_6_texcoords","componentType":5126,"count":40,"min":[0.6618559956550598,0.08186200261116028],"max":[0.8762270212173462,0.1483529955148697],"type":"VEC2","bufferView":1,"byteOffset":4560},{"name":"agehunt-Mesh_6_indices","componentType":5123,"count":144,"min":[0],"max":[39],"type":"SCALAR","bufferView":2,"byteOffset":4452},{"name":"agehunt-Mesh_7_positions","componentType":5126,"count":57,"min":[-0.24684099853038788,1.6170599460601807,-1.061460018157959],"max":[0.24684099853038788,7.270470142364502,2.5836799144744873],"type":"VEC3","bufferView":0,"byteOffset":7320},{"name":"agehunt-Mesh_7_texcoords","componentType":5126,"count":57,"min":[0.07910100370645523,0.8071720004081726],"max":[0.20214800536632538,0.9170359969139099],"type":"VEC2","bufferView":1,"byteOffset":4880},{"name":"agehunt-Mesh_7_indices","componentType":5123,"count":258,"min":[0],"max":[56],"type":"SCALAR","bufferView":2,"byteOffset":4740}],"asset":{"generator":"obj2gltf","version":"2.0"},"buffers":[{"name":"BR_Beautifly-Shiny01","byteLength":440628,"uri":"data:application/octet-stream;base64,"}],"bufferViews":[{"name":"bufferView_0","buffer":0,"byteLength":8004,"byteOffset":0,"byteStride":12,"target":34962},{"name":"bufferView_1","buffer":0,"byteLength":5336,"byteOffset":8004,"byteStride":8,"target":34962},{"name":"bufferView_2","buffer":0,"byteLength":5256,"byteOffset":13340,"target":34963},{"buffer":0,"byteOffset":18596,"byteLength":65554},{"buffer":0,"byteOffset":84150,"byteLength":65554},{"buffer":0,"byteOffset":149704,"byteLength":65554},{"buffer":0,"byteOffset":215258,"byteLength":24594},{"buffer":0,"byteOffset":239852,"byteLength":65554},{"buffer":0,"byteOffset":305406,"byteLength":65554},{"buffer":0,"byteOffset":370960,"byteLength":65554},{"buffer":0,"byteOffset":436514,"byteLength":4114}],"images":[{"name":"agehunt_1_0","mimeType":"image/x-tga","bufferView":3},{"name":"agehunt_1_1","mimeType":"image/x-tga","bufferView":4},{"name":"agehunt_1_2","mimeType":"image/x-tga","bufferView":5},{"name":"agehunt_1_3","mimeType":"image/x-tga","bufferView":6},{"name":"agehunt_1_4","mimeType":"image/x-tga","bufferView":7},{"name":"agehunt_1_5","mimeType":"image/x-tga","bufferView":8},{"name":"agehunt_1_6","mimeType":"image/x-tga","bufferView":9},{"name":"agehunt_1_7","mimeType":"image/x-tga","bufferView":10}],"materials":[{"name":"mat_0","pbrMetallicRoughness":{"baseColorTexture":{"index":0},"baseColorFactor":[1,1,1,1],"metallicFactor":0,"roughnessFactor":0.903921569},"emissiveFactor":[0,0,0],"alphaMode":"BLEND","doubleSided":true},{"name":"mat_1","pbrMetallicRoughness":{"baseColorTexture":{"index":1},"baseColorFactor":[1,1,1,1],"metallicFactor":0,"roughnessFactor":0.903921569},"emissiveFactor":[0,0,0],"alphaMode":"BLEND","doubleSided":true},{"name":"mat_2","pbrMetallicRoughness":{"baseColorTexture":{"index":2},"baseColorFactor":[1,1,1,1],"metallicFactor":0,"roughnessFactor":0.903921569},"emissiveFactor":[0,0,0],"alphaMode":"BLEND","doubleSided":true},{"name":"mat_3","pbrMetallicRoughness":{"baseColorTexture":{"index":3},"baseColorFactor":[1,1,1,1],"metallicFactor":0,"roughnessFactor":0.903921569},"emissiveFactor":[0,0,0],"alphaMode":"BLEND","doubleSided":true},{"name":"mat_4","pbrMetallicRoughness":{"baseColorTexture":{"index":4},"baseColorFactor":[1,1,1,1],"metallicFactor":0,"roughnessFactor":0.903921569},"emissiveFactor":[0,0,0],"alphaMode":"BLEND","doubleSided":true},{"name":"mat_5","pbrMetallicRoughness":{"baseColorTexture":{"index":5},"baseColorFactor":[1,1,1,1],"metallicFactor":0,"roughnessFactor":0.903921569},"emissiveFactor":[0,0,0],"alphaMode":"BLEND","doubleSided":true},{"name":"mat_6","pbrMetallicRoughness":{"baseColorTexture":{"index":6},"baseColorFactor":[1,1,1,1],"metallicFactor":0,"roughnessFactor":0.903921569},"emissiveFactor":[0,0,0],"alphaMode":"BLEND","doubleSided":true},{"name":"mat_7","pbrMetallicRoughness":{"baseColorTexture":{"index":7},"baseColorFactor":[1,1,1,1],"metallicFactor":0,"roughnessFactor":0.903921569},"emissiveFactor":[0,0,0],"alphaMode":"BLEND","doubleSided":true}],"meshes":[{"name":"agehunt-Mesh","primitives":[{"attributes":{"POSITION":0,"TEXCOORD_0":1},"indices":2,"material":0,"mode":4},{"attributes":{"POSITION":3,"TEXCOORD_0":4},"indices":5,"material":1,"mode":4},{"attributes":{"POSITION":6,"TEXCOORD_0":7},"indices":8,"material":2,"mode":4},{"attributes":{"POSITION":9,"TEXCOORD_0":10},"indices":11,"material":3,"mode":4},{"attributes":{"POSITION":12,"TEXCOORD_0":13},"indices":14,"material":4,"mode":4},{"attributes":{"POSITION":15,"TEXCOORD_0":16},"indices":17,"material":5,"mode":4},{"attributes":{"POSITION":18,"TEXCOORD_0":19},"indices":20,"material":6,"mode":4},{"attributes":{"POSITION":21,"TEXCOORD_0":22},"indices":23,"material":7,"mode":4}]}],"nodes":[{"name":"agehunt","mesh":0}],"samplers":[{"wrapS":10497,"wrapT":10497}],"scene":0,"scenes":[{"nodes":[0]}],"textures":[{"name":"agehunt_1_0","sampler":0,"source":0},{"name":"agehunt_1_1","sampler":0,"source":1},{"name":"agehunt_1_2","sampler":0,"source":2},{"name":"agehunt_1_3","sampler":0,"source":3},{"name":"agehunt_1_4","sampler":0,"source":4},{"name":"agehunt_1_5","sampler":0,"source":5},{"name":"agehunt_1_6","sampler":0,"source":6},{"name":"agehunt_1_7","sampler":0,"source":7}]}