{"accessors":[{"name":"mayuld_c-Mesh_0_positions","componentType":5126,"count":101,"min":[-5.744781017303467,-4.53746223449707,-4.628159046173096],"max":[3.8095169067382812,2.8174259662628174,0.02610900066792965],"type":"VEC3","bufferView":0,"byteOffset":0},{"name":"mayuld_c-Mesh_0_texcoords","componentType":5126,"count":101,"min":[0,0.028091000393033028],"max":[0.8920890092849731,1],"type":"VEC2","bufferView":1,"byteOffset":0},{"name":"mayuld_c-Mesh_0_indices","componentType":5123,"count":384,"min":[0],"max":[100],"type":"SCALAR","bufferView":2,"byteOffset":0},{"name":"mayuld_c-Mesh_1_positions","componentType":5126,"count":44,"min":[-2.635124921798706,1.1835360527038574,-4.043402194976807],"max":[2.635124921798706,2.4895050525665283,-2.727499008178711],"type":"VEC3","bufferView":0,"byteOffset":1212},{"name":"mayuld_c-Mesh_1_texcoords","componentType":5126,"count":44,"min":[0.09867300093173981,0.8468359708786011],"max":[0.8826410174369812,0.9693120121955872],"type":"VEC2","bufferView":1,"byteOffset":808},{"name":"mayuld_c-Mesh_1_indices","componentType":5123,"count":168,"min":[0],"max":[43],"type":"SCALAR","bufferView":2,"byteOffset":768},{"name":"mayuld_c-Mesh_2_positions","componentType":5126,"count":43,"min":[-0.015495999716222286,1.0718350410461426,-5.336104869842529],"max":[2.383733034133911,3.5020639896392822,-1.3230750560760498],"type":"VEC3","bufferView":0,"byteOffset":1740},{"name":"mayuld_c-Mesh_2_texcoords","componentType":5126,"count":43,"min":[-0.004124999977648258,0.002604000037536025],"max":[0.9791669845581055,0.9604510068893433],"type":"VEC2","bufferView":1,"byteOffset":1160},{"name":"mayuld_c-Mesh_2_indices","componentType":5123,"count":168,"min":[0],"max":[42],"type":"SCALAR","bufferView":2,"byteOffset":1104},{"name":"mayuld_c-Mesh_3_positions","componentType":5126,"count":29,"min":[-1.817553997039795,1.152711033821106,-5.196011066436768],"max":[0.0039059999398887157,3.5020639896392822,-1.336588978767395],"type":"VEC3","bufferView":0,"byteOffset":2256},{"name":"mayuld_c-Mesh_3_texcoords","componentType":5126,"count":29,"min":[0.051840998232364655,0.010417000390589237],"max":[0.9652780294418335,0.9973959922790527],"type":"VEC2","bufferView":1,"byteOffset":1504},{"name":"mayuld_c-Mesh_3_indices","componentType":5123,"count":102,"min":[0],"max":[28],"type":"SCALAR","bufferView":2,"byteOffset":1440},{"name":"mayuld_c-Mesh_4_positions","componentType":5126,"count":76,"min":[-3.3876569271087646,0.6600250005722046,-5.235566139221191],"max":[-0.9726369976997375,3.4672300815582275,-0.02365100011229515],"type":"VEC3","bufferView":0,"byteOffset":2604},{"name":"mayuld_c-Mesh_4_texcoords","componentType":5126,"count":76,"min":[0.0693880021572113,0.02081199921667576],"max":[0.8195629715919495,0.9739369750022888],"type":"VEC2","bufferView":1,"byteOffset":1736},{"name":"mayuld_c-Mesh_4_indices","componentType":5123,"count":276,"min":[0],"max":[75],"type":"SCALAR","bufferView":2,"byteOffset":1644},{"name":"mayuld_c-Mesh_5_positions","componentType":5126,"count":16,"min":[-0.5047429800033569,0.6507930159568787,-6.5677900314331055],"max":[1.3007630109786987,3.055946111679077,-5.106400012969971],"type":"VEC3","bufferView":0,"byteOffset":3516},{"name":"mayuld_c-Mesh_5_texcoords","componentType":5126,"count":16,"min":[0.11147700250148773,0.13900800049304962],"max":[0.33083999156951904,0.4241569936275482],"type":"VEC2","bufferView":1,"byteOffset":2344},{"name":"mayuld_c-Mesh_5_indices","componentType":5123,"count":60,"min":[0],"max":[15],"type":"SCALAR","bufferView":2,"byteOffset":2196},{"name":"mayuld_c-Mesh_6_positions","componentType":5126,"count":32,"min":[-0.012966999784111977,-3.9065001010894775,-5.452812194824219],"max":[2.460433006286621,-0.009921000339090824,-1.3411580324172974],"type":"VEC3","bufferView":0,"byteOffset":3708},{"name":"mayuld_c-Mesh_6_texcoords","componentType":5126,"count":32,"min":[0.04166699945926666,0.03385400027036667],"max":[0.9722219705581665,0.96875],"type":"VEC2","bufferView":1,"byteOffset":2472},{"name":"mayuld_c-Mesh_6_indices","componentType":5123,"count":123,"min":[0],"max":[31],"type":"SCALAR","bufferView":2,"byteOffset":2316},{"name":"mayuld_c-Mesh_7_positions","componentType":5126,"count":25,"min":[0.5679190158843994,-2.681812047958374,-4.237377166748047],"max":[3.288127899169922,-0.2755320072174072,-1.2841429710388184],"type":"VEC3","bufferView":0,"byteOffset":4092},{"name":"mayuld_c-Mesh_7_texcoords","componentType":5126,"count":25,"min":[0.027729999274015427,0.11298699676990509],"max":[0.970982015132904,0.986607015132904],"type":"VEC2","bufferView":1,"byteOffset":2728},{"name":"mayuld_c-Mesh_7_indices","componentType":5123,"count":75,"min":[0],"max":[24],"type":"SCALAR","bufferView":2,"byteOffset":2564},{"name":"mayuld_c-Mesh_8_positions","componentType":5126,"count":42,"min":[-2.3564000129699707,-3.8729848861694336,-6.493122100830078],"max":[5.345024108886719,-1.164891004562378,-2.3145298957824707],"type":"VEC3","bufferView":0,"byteOffset":4392},{"name":"mayuld_c-Mesh_8_texcoords","componentType":5126,"count":42,"min":[0.01785700023174286,0.02901799976825714],"max":[0.9754459857940674,0.96875],"type":"VEC2","bufferView":1,"byteOffset":2928},{"name":"mayuld_c-Mesh_8_indices","componentType":5123,"count":177,"min":[0],"max":[41],"type":"SCALAR","bufferView":2,"byteOffset":2716},{"name":"mayuld_c-Mesh_9_positions","componentType":5126,"count":31,"min":[-3.644171953201294,-1.753159999847412,-5.30415678024292],"max":[-1.1916420459747314,1.0345449447631836,-1.768347978591919],"type":"VEC3","bufferView":0,"byteOffset":4896},{"name":"mayuld_c-Mesh_9_texcoords","componentType":5126,"count":31,"min":[0.10763899981975555,0.010417000390589237],"max":[0.9409719705581665,0.8619790077209473],"type":"VEC2","bufferView":1,"byteOffset":3264},{"name":"mayuld_c-Mesh_9_indices","componentType":5123,"count":120,"min":[0],"max":[30],"type":"SCALAR","bufferView":2,"byteOffset":3072},{"name":"mayuld_c-Mesh_10_positions","componentType":5126,"count":17,"min":[-3.0398290157318115,-0.023273000493645668,-3.425589084625244],"max":[1.437054991722107,1.8043169975280762,-1.0859099626541138],"type":"VEC3","bufferView":0,"byteOffset":5268},{"name":"mayuld_c-Mesh_10_texcoords","componentType":5126,"count":17,"min":[0.08703800290822983,0.02500000037252903],"max":[0.7541670203208923,0.9953250288963318],"type":"VEC2","bufferView":1,"byteOffset":3512},{"name":"mayuld_c-Mesh_10_indices","componentType":5123,"count":45,"min":[0],"max":[16],"type":"SCALAR","bufferView":2,"byteOffset":3312},{"name":"mayuld_c-Mesh_11_positions","componentType":5126,"count":43,"min":[-2.914098024368286,-3.9065001010894775,-5.403278827667236],"max":[0.022746000438928604,0.42811501026153564,-1.2826809883117676],"type":"VEC3","bufferView":0,"byteOffset":5472},{"name":"mayuld_c-Mesh_11_texcoords","componentType":5126,"count":43,"min":[0.03942599892616272,0.03125],"max":[0.984375,0.984375],"type":"VEC2","bufferView":1,"byteOffset":3648},{"name":"mayuld_c-Mesh_11_indices","componentType":5123,"count":165,"min":[0],"max":[42],"type":"SCALAR","bufferView":2,"byteOffset":3404},{"name":"mayuld_c-Mesh_12_positions","componentType":5126,"count":35,"min":[1.104092001914978,-1.85385000705719,-5.271493911743164],"max":[3.412993907928467,1.2169109582901,-1.2841429710388184],"type":"VEC3","bufferView":0,"byteOffset":5988},{"name":"mayuld_c-Mesh_12_texcoords","componentType":5126,"count":35,"min":[0.04166699945926666,0.010417000390589237],"max":[0.9861109852790833,0.8645830154418945],"type":"VEC2","bufferView":1,"byteOffset":3992},{"name":"mayuld_c-Mesh_12_indices","componentType":5123,"count":129,"min":[0],"max":[34],"type":"SCALAR","bufferView":2,"byteOffset":3736},{"name":"mayuld_c-Mesh_13_positions","componentType":5126,"count":35,"min":[-1.7929060459136963,-1.804766058921814,-5.452812194824219],"max":[1.7825169563293457,1.6037310361862183,-1.0859099626541138],"type":"VEC3","bufferView":0,"byteOffset":6408},{"name":"mayuld_c-Mesh_13_texcoords","componentType":5126,"count":35,"min":[-9.999999974752427e-7,0],"max":[0.9999989867210388,1],"type":"VEC2","bufferView":1,"byteOffset":4272},{"name":"mayuld_c-Mesh_13_indices","componentType":5123,"count":84,"min":[0],"max":[34],"type":"SCALAR","bufferView":2,"byteOffset":3996}],"asset":{"generator":"obj2gltf","version":"2.0"},"buffers":[{"name":"BR_Cascoon-Shiny01","byteLength":793856,"uri":"data:application/octet-stream;base64,"}],"bufferViews":[{"name":"bufferView_0","buffer":0,"byteLength":6828,"byteOffset":0,"byteStride":12,"target":34962},{"name":"bufferView_1","buffer":0,"byteLength":4552,"byteOffset":6828,"byteStride":8,"target":34962},{"name":"bufferView_2","buffer":0,"byteLength":4164,"byteOffset":11380,"target":34963},{"buffer":0,"byteOffset":15544,"byteLength":16402},{"buffer":0,"byteOffset":31946,"byteLength":98322},{"buffer":0,"byteOffset":130268,"byteLength":614418},{"buffer":0,"byteOffset":744686,"byteLength":49170}],"images":[{"name":"mayuld_c_1_0","mimeType":"image/x-tga","bufferView":3},{"name":"mayuld_c_1_1","mimeType":"image/x-tga","bufferView":4},{"name":"mayuld_c_1_2","mimeType":"image/x-tga","bufferView":5},{"name":"mayuld_c_1_9","mimeType":"image/x-tga","bufferView":6}],"materials":[{"name":"mat_0","pbrMetallicRoughness":{"baseColorTexture":{"index":0},"baseColorFactor":[1,1,1,1],"metallicFactor":0,"roughnessFactor":0.903921569},"emissiveFactor":[0,0,0],"alphaMode":"BLEND","doubleSided":true},{"name":"mat_1","pbrMetallicRoughness":{"baseColorTexture":{"index":1},"baseColorFactor":[1,1,1,1],"metallicFactor":0,"roughnessFactor":0.903921569},"emissiveFactor":[0,0,0],"alphaMode":"BLEND","doubleSided":true},{"name":"mat_2","pbrMetallicRoughness":{"baseColorTexture":{"index":2},"baseColorFactor":[1,1,1,1],"metallicFactor":0,"roughnessFactor":0.903921569},"emissiveFactor":[0,0,0],"alphaMode":"BLEND","doubleSided":true},{"name":"mat_3","pbrMetallicRoughness":{"baseColorTexture":{"index":2},"baseColorFactor":[1,1,1,1],"metallicFactor":0,"roughnessFactor":0.903921569},"emissiveFactor":[0,0,0],"alphaMode":"BLEND","doubleSided":true},{"name":"mat_4","pbrMetallicRoughness":{"baseColorTexture":{"index":0},"baseColorFactor":[1,1,1,1],"metallicFactor":0,"roughnessFactor":0.903921569},"emissiveFactor":[0,0,0],"alphaMode":"BLEND","doubleSided":true},{"name":"mat_5","pbrMetallicRoughness":{"baseColorTexture":{"index":0},"baseColorFactor":[1,1,1,1],"metallicFactor":0,"roughnessFactor":0.903921569},"emissiveFactor":[0,0,0],"alphaMode":"BLEND","doubleSided":true},{"name":"mat_6","pbrMetallicRoughness":{"baseColorTexture":{"index":2},"baseColorFactor":[1,1,1,1],"metallicFactor":0,"roughnessFactor":0.903921569},"emissiveFactor":[0,0,0],"alphaMode":"BLEND","doubleSided":true},{"name":"mat_7","pbrMetallicRoughness":{"baseColorTexture":{"index":0},"baseColorFactor":[1,1,1,1],"metallicFactor":0,"roughnessFactor":0.903921569},"emissiveFactor":[0,0,0],"alphaMode":"BLEND","doubleSided":true},{"name":"mat_8","pbrMetallicRoughness":{"baseColorTexture":{"index":0},"baseColorFactor":[1,1,1,1],"metallicFactor":0,"roughnessFactor":0.903921569},"emissiveFactor":[0,0,0],"alphaMode":"BLEND","doubleSided":true},{"name":"mat_9","pbrMetallicRoughness":{"baseColorTexture":{"index":3},"baseColorFactor":[1,1,1,1],"metallicFactor":0,"roughnessFactor":0.903921569},"emissiveFactor":[0,0,0],"alphaMode":"BLEND","doubleSided":true},{"name":"mat_10","pbrMetallicRoughness":{"baseColorTexture":{"index":2},"baseColorFactor":[1,1,1,1],"metallicFactor":0,"roughnessFactor":0.903921569},"emissiveFactor":[0,0,0],"alphaMode":"BLEND","doubleSided":true},{"name":"mat_11","pbrMetallicRoughness":{"baseColorTexture":{"index":3},"baseColorFactor":[1,1,1,1],"metallicFactor":0,"roughnessFactor":0.903921569},"emissiveFactor":[0,0,0],"alphaMode":"BLEND","doubleSided":true},{"name":"mat_12","pbrMetallicRoughness":{"baseColorTexture":{"index":3},"baseColorFactor":[1,1,1,1],"metallicFactor":0,"roughnessFactor":0.903921569},"emissiveFactor":[0,0,0],"alphaMode":"BLEND","doubleSided":true},{"name":"mat_13","pbrMetallicRoughness":{"baseColorTexture":{"index":0},"baseColorFactor":[1,1,1,1],"metallicFactor":0,"roughnessFactor":0.903921569},"emissiveFactor":[0,0,0],"alphaMode":"BLEND","doubleSided":true}],"meshes":[{"name":"mayuld_c-Mesh","primitives":[{"attributes":{"POSITION":0,"TEXCOORD_0":1},"indices":2,"material":0,"mode":4},{"attributes":{"POSITION":3,"TEXCOORD_0":4},"indices":5,"material":1,"mode":4},{"attributes":{"POSITION":6,"TEXCOORD_0":7},"indices":8,"material":2,"mode":4},{"attributes":{"POSITION":9,"TEXCOORD_0":10},"indices":11,"material":3,"mode":4},{"attributes":{"POSITION":12,"TEXCOORD_0":13},"indices":14,"material":4,"mode":4},{"attributes":{"POSITION":15,"TEXCOORD_0":16},"indices":17,"material":5,"mode":4},{"attributes":{"POSITION":18,"TEXCOORD_0":19},"indices":20,"material":6,"mode":4},{"attributes":{"POSITION":21,"TEXCOORD_0":22},"indices":23,"material":7,"mode":4},{"attributes":{"POSITION":24,"TEXCOORD_0":25},"indices":26,"material":8,"mode":4},{"attributes":{"POSITION":27,"TEXCOORD_0":28},"indices":29,"material":9,"mode":4},{"attributes":{"POSITION":30,"TEXCOORD_0":31},"indices":32,"material":10,"mode":4},{"attributes":{"POSITION":33,"TEXCOORD_0":34},"indices":35,"material":11,"mode":4},{"attributes":{"POSITION":36,"TEXCOORD_0":37},"indices":38,"material":12,"mode":4},{"attributes":{"POSITION":39,"TEXCOORD_0":40},"indices":41,"material":13,"mode":4}]}],"nodes":[{"name":"mayuld_c","mesh":0}],"samplers":[{"wrapS":10497,"wrapT":10497}],"scene":0,"scenes":[{"nodes":[0]}],"textures":[{"name":"mayuld_c_1_0","sampler":0,"source":0},{"name":"mayuld_c_1_1","sampler":0,"source":1},{"name":"mayuld_c_1_2","sampler":0,"source":2},{"name":"mayuld_c_1_9","sampler":0,"source":3}]}