{"accessors":[{"name":"dokucale_c-Mesh_0_positions","componentType":5126,"count":115,"min":[-4.1005539894104,1.9450609683990479,-17.772022247314453],"max":[1.518615961074829,4.7967529296875,-15.536431312561035],"type":"VEC3","bufferView":0,"byteOffset":0},{"name":"dokucale_c-Mesh_0_texcoords","componentType":5126,"count":115,"min":[-0.0020000000949949026,0.001104000024497509],"max":[1,0.9505469799041748],"type":"VEC2","bufferView":1,"byteOffset":0},{"name":"dokucale_c-Mesh_0_indices","componentType":5123,"count":360,"min":[0],"max":[114],"type":"SCALAR","bufferView":2,"byteOffset":0}],"asset":{"generator":"obj2gltf","version":"2.0"},"buffers":[{"name":"BR_Dustox-Shiny01","byteLength":15328,"uri":"data:application/octet-stream;base64,"}],"bufferViews":[{"name":"bufferView_0","buffer":0,"byteLength":1380,"byteOffset":0,"byteStride":12,"target":34962},{"name":"bufferView_1","buffer":0,"byteLength":920,"byteOffset":1380,"byteStride":8,"target":34962},{"name":"bufferView_2","buffer":0,"byteLength":720,"byteOffset":2300,"target":34963},{"buffer":0,"byteOffset":3020,"byteLength":12306}],"images":[{"name":"dokucale_c_1_0","mimeType":"image/x-tga","bufferView":3}],"materials":[{"name":"mat_0","pbrMetallicRoughness":{"baseColorTexture":{"index":0},"baseColorFactor":[1,1,1,1],"metallicFactor":0,"roughnessFactor":0.903921569},"emissiveFactor":[0,0,0],"alphaMode":"BLEND","doubleSided":true}],"meshes":[{"name":"dokucale_c-Mesh","primitives":[{"attributes":{"POSITION":0,"TEXCOORD_0":1},"indices":2,"material":0,"mode":4}]}],"nodes":[{"name":"dokucale_c","mesh":0}],"samplers":[{"wrapS":10497,"wrapT":10497}],"scene":0,"scenes":[{"nodes":[0]}],"textures":[{"name":"dokucale_c_1_0","sampler":0,"source":0}]}