{"accessors":[{"name":"polygon0_1_0_positions","componentType":5126,"count":9,"min":[-1.1941280364990234,0.8754889965057373,2.6219730377197266],"max":[1.1941269636154175,1.7750409841537476,3.236130952835083],"type":"VEC3","bufferView":0,"byteOffset":0},{"name":"polygon0_1_0_normals","componentType":5126,"count":9,"min":[-0.2992928922176361,-0.6750134229660034,0.7224733233451843],"max":[0.29870590567588806,-0.22031491994857788,0.9719588160514832],"type":"VEC3","bufferView":1,"byteOffset":0},{"name":"polygon0_1_0_texcoords","componentType":5126,"count":9,"min":[1.067383050918579,0.03619400039315224],"max":[1.9472659826278687,0.21728500723838806],"type":"VEC2","bufferView":2,"byteOffset":0},{"name":"polygon0_1_0_indices","componentType":5123,"count":24,"min":[0],"max":[8],"type":"SCALAR","bufferView":3,"byteOffset":0},{"name":"polygon1_1_0_positions","componentType":5126,"count":16,"min":[-2.502906084060669,2.2443110942840576,1.9740430116653442],"max":[2.502906084060669,3.330627918243408,3.049268960952759],"type":"VEC3","bufferView":0,"byteOffset":108},{"name":"polygon1_1_0_normals","componentType":5126,"count":16,"min":[-0.8353690505027771,0.004332997836172581,0.5069460272789001],"max":[0.8353690505027771,0.36486902832984924,0.9269360303878784],"type":"VEC3","bufferView":1,"byteOffset":108},{"name":"polygon1_1_0_texcoords","componentType":5126,"count":16,"min":[0.03515600040555,0.039062000811100006],"max":[0.4648439884185791,0.2070309966802597],"type":"VEC2","bufferView":2,"byteOffset":72},{"name":"polygon1_1_0_indices","componentType":5123,"count":48,"min":[0],"max":[15],"type":"SCALAR","bufferView":3,"byteOffset":48},{"name":"polygon2_1_0_positions","componentType":5126,"count":826,"min":[-4.90222692489624,-0.027739999815821648,-4.497931003570557],"max":[4.90222692489624,4.974991798400879,5.169620037078857],"type":"VEC3","bufferView":0,"byteOffset":300},{"name":"polygon2_1_0_normals","componentType":5126,"count":826,"min":[-0.9990078806877136,-1,-0.9996822476387024],"max":[0.9990078806877136,0.9999874234199524,0.999849796295166],"type":"VEC3","bufferView":1,"byteOffset":300},{"name":"polygon2_1_0_texcoords","componentType":5126,"count":826,"min":[0.01065099984407425,0.018005000427365303],"max":[0.9780269861221313,0.9830319881439209],"type":"VEC2","bufferView":2,"byteOffset":200},{"name":"polygon2_1_0_indices","componentType":5123,"count":3996,"min":[0],"max":[825],"type":"SCALAR","bufferView":3,"byteOffset":144}],"asset":{"generator":"obj2gltf","version":"2.0"},"buffers":[{"name":"Hassboh","byteLength":379488,"uri":"data:application/octet-stream;base64,"}],"bufferViews":[{"name":"bufferView_0","buffer":0,"byteLength":10212,"byteOffset":0,"byteStride":12,"target":34962},{"name":"bufferView_1","buffer":0,"byteLength":10212,"byteOffset":10212,"byteStride":12,"target":34962},{"name":"bufferView_2","buffer":0,"byteLength":6808,"byteOffset":20424,"byteStride":8,"target":34962},{"name":"bufferView_3","buffer":0,"byteLength":8136,"byteOffset":27232,"target":34963},{"buffer":0,"byteOffset":35368,"byteLength":49170},{"buffer":0,"byteOffset":84538,"byteLength":98322},{"buffer":0,"byteOffset":182860,"byteLength":196626}],"images":[{"name":"HassbohMouthDh","mimeType":"image/x-tga","bufferView":4},{"name":"HassbohEyeDh","mimeType":"image/x-tga","bufferView":5},{"name":"HassbohDh","mimeType":"image/x-tga","bufferView":6}],"materials":[{"name":"mat3","pbrMetallicRoughness":{"baseColorTexture":{"index":0},"baseColorFactor":[1,1,1,1],"metallicFactor":0,"roughnessFactor":0.99},"emissiveFactor":[0,0,0],"alphaMode":"OPAQUE","doubleSided":false},{"name":"mat2","pbrMetallicRoughness":{"baseColorTexture":{"index":1},"baseColorFactor":[1,1,1,1],"metallicFactor":0,"roughnessFactor":0.99},"emissiveFactor":[0,0,0],"alphaMode":"OPAQUE","doubleSided":false},{"name":"mat1","pbrMetallicRoughness":{"baseColorTexture":{"index":2},"baseColorFactor":[1,1,1,1],"metallicFactor":0,"roughnessFactor":0.99},"emissiveFactor":[0,0,0],"alphaMode":"OPAQUE","doubleSided":false}],"meshes":[{"name":"polygon0_1","primitives":[{"attributes":{"POSITION":0,"NORMAL":1,"TEXCOORD_0":2},"indices":3,"material":0,"mode":4}]},{"name":"polygon1_1","primitives":[{"attributes":{"POSITION":4,"NORMAL":5,"TEXCOORD_0":6},"indices":7,"material":1,"mode":4}]},{"name":"polygon2_1","primitives":[{"attributes":{"POSITION":8,"NORMAL":9,"TEXCOORD_0":10},"indices":11,"material":2,"mode":4}]}],"nodes":[{"name":"polygon0","mesh":0},{"name":"polygon1","mesh":1},{"name":"polygon2","mesh":2}],"samplers":[{"wrapS":10497,"wrapT":10497}],"scene":0,"scenes":[{"nodes":[0,1,2]}],"textures":[{"name":"HassbohMouthDh","sampler":0,"source":0},{"name":"HassbohEyeDh","sampler":0,"source":1},{"name":"HassbohDh","sampler":0,"source":2}]}