{"accessors":[{"name":"hasubrero-Mesh_0_positions","componentType":5126,"count":157,"min":[-2.577310085296631,-2.690190076828003,-10.229000091552734],"max":[2.577310085296631,1.4839400053024292,0.002546000061556697],"type":"VEC3","bufferView":0,"byteOffset":0},{"name":"hasubrero-Mesh_0_texcoords","componentType":5126,"count":157,"min":[0,0],"max":[1,1],"type":"VEC2","bufferView":1,"byteOffset":0},{"name":"hasubrero-Mesh_0_indices","componentType":5123,"count":648,"min":[0],"max":[156],"type":"SCALAR","bufferView":2,"byteOffset":0},{"name":"hasubrero-Mesh_1_positions","componentType":5126,"count":54,"min":[-7.992030143737793,-1.5389000177383423,-3.440200090408325],"max":[7.992030143737793,1.0813699960708618,0.002546000061556697],"type":"VEC3","bufferView":0,"byteOffset":1884},{"name":"hasubrero-Mesh_1_texcoords","componentType":5126,"count":54,"min":[0.039062999188899994,-0.01355000026524067],"max":[0.9633809924125671,0.783482015132904],"type":"VEC2","bufferView":1,"byteOffset":1256},{"name":"hasubrero-Mesh_1_indices","componentType":5123,"count":150,"min":[0],"max":[53],"type":"SCALAR","bufferView":2,"byteOffset":1296},{"name":"hasubrero-Mesh_2_positions","componentType":5126,"count":158,"min":[-6.9369797706604,-2.2551400661468506,-10.230500221252441],"max":[6.9369797706604,2.7275400161743164,-2.584709882736206],"type":"VEC3","bufferView":0,"byteOffset":2532},{"name":"hasubrero-Mesh_2_texcoords","componentType":5126,"count":158,"min":[0.0018159999744966626,0],"max":[0.9825760126113892,0.9565269947052002],"type":"VEC2","bufferView":1,"byteOffset":1688},{"name":"hasubrero-Mesh_2_indices","componentType":5123,"count":681,"min":[0],"max":[157],"type":"SCALAR","bufferView":2,"byteOffset":1596},{"name":"hasubrero-Mesh_3_positions","componentType":5126,"count":16,"min":[-2.420409917831421,0.3107770085334778,-8.968560218811035],"max":[2.420409917831421,2.0466198921203613,-7.310379981994629],"type":"VEC3","bufferView":0,"byteOffset":4428},{"name":"hasubrero-Mesh_3_texcoords","componentType":5126,"count":16,"min":[0.017565999180078506,-0.018869999796152115],"max":[1.0415400266647339,0.17459599673748016],"type":"VEC2","bufferView":1,"byteOffset":2952},{"name":"hasubrero-Mesh_3_indices","componentType":5123,"count":36,"min":[0],"max":[15],"type":"SCALAR","bufferView":2,"byteOffset":2960},{"name":"hasubrero-Mesh_4_positions","componentType":5126,"count":26,"min":[-1.7997599840164185,0.8052269816398621,-7.860139846801758],"max":[1.7997599840164185,2.8461599349975586,-6.719130039215088],"type":"VEC3","bufferView":0,"byteOffset":4620},{"name":"hasubrero-Mesh_4_texcoords","componentType":5126,"count":26,"min":[0.040070999413728714,0.03398500010371208],"max":[0.9599289894104004,0.9059939980506897],"type":"VEC2","bufferView":1,"byteOffset":3080},{"name":"hasubrero-Mesh_4_indices","componentType":5123,"count":102,"min":[0],"max":[25],"type":"SCALAR","bufferView":2,"byteOffset":3032},{"name":"hasubrero-Mesh_5_positions","componentType":5126,"count":26,"min":[-2.7054600715637207,-1.766409993171692,-9.915410041809082],"max":[2.7054600715637207,-0.09597200155258179,-7.900889873504639],"type":"VEC3","bufferView":0,"byteOffset":4932},{"name":"hasubrero-Mesh_5_texcoords","componentType":5126,"count":26,"min":[0.03626000136137009,0.04501299932599068],"max":[0.991424024105072,0.950577974319458],"type":"VEC2","bufferView":1,"byteOffset":3288},{"name":"hasubrero-Mesh_5_indices","componentType":5123,"count":96,"min":[0],"max":[25],"type":"SCALAR","bufferView":2,"byteOffset":3236},{"name":"hasubrero-Mesh_6_positions","componentType":5126,"count":23,"min":[-1.709030032157898,-1.666949987411499,-7.931839942932129],"max":[1.709030032157898,2.7514700889587402,-6.642169952392578],"type":"VEC3","bufferView":0,"byteOffset":5244},{"name":"hasubrero-Mesh_6_texcoords","componentType":5126,"count":23,"min":[-0.001749000046402216,0.02558100037276745],"max":[0.9927880167961121,0.9789119958877563],"type":"VEC2","bufferView":1,"byteOffset":3496},{"name":"hasubrero-Mesh_6_indices","componentType":5123,"count":96,"min":[0],"max":[22],"type":"SCALAR","bufferView":2,"byteOffset":3428},{"name":"hasubrero-Mesh_7_positions","componentType":5126,"count":32,"min":[-1.885699987411499,-1.394700050354004,-6.125800132751465],"max":[1.885699987411499,1.4839400053024292,-4.104209899902344],"type":"VEC3","bufferView":0,"byteOffset":5520},{"name":"hasubrero-Mesh_7_texcoords","componentType":5126,"count":32,"min":[-1.3555999994277954,0.02500000037252903],"max":[1,0.9193450212478638],"type":"VEC2","bufferView":1,"byteOffset":3680},{"name":"hasubrero-Mesh_7_indices","componentType":5123,"count":114,"min":[0],"max":[31],"type":"SCALAR","bufferView":2,"byteOffset":3620},{"name":"hasubrero-Mesh_8_positions","componentType":5126,"count":50,"min":[-5.49970006942749,-5.530940055847168,-11.991499900817871],"max":[5.49970006942749,5.166419982910156,-10.22920036315918],"type":"VEC3","bufferView":0,"byteOffset":5904},{"name":"hasubrero-Mesh_8_texcoords","componentType":5126,"count":50,"min":[0,0],"max":[0.8083630204200745,1],"type":"VEC2","bufferView":1,"byteOffset":3936},{"name":"hasubrero-Mesh_8_indices","componentType":5123,"count":138,"min":[0],"max":[49],"type":"SCALAR","bufferView":2,"byteOffset":3848},{"name":"hasubrero-Mesh_9_positions","componentType":5126,"count":17,"min":[-2.420409917831421,0.3107770085334778,-10.230500221252441],"max":[2.420409917831421,1.861799955368042,-8.504130363464355],"type":"VEC3","bufferView":0,"byteOffset":6504},{"name":"hasubrero-Mesh_9_texcoords","componentType":5126,"count":17,"min":[0.022417999804019928,0.028248999267816544],"max":[0.9242960214614868,0.9837499856948853],"type":"VEC2","bufferView":1,"byteOffset":4336},{"name":"hasubrero-Mesh_9_indices","componentType":5123,"count":42,"min":[0],"max":[16],"type":"SCALAR","bufferView":2,"byteOffset":4124},{"name":"hasubrero-Mesh_10_positions","componentType":5126,"count":25,"min":[-2.577310085296631,-0.6387810111045837,-8.504130363464355],"max":[2.577310085296631,1.5510200262069702,-5.996119976043701],"type":"VEC3","bufferView":0,"byteOffset":6708},{"name":"hasubrero-Mesh_10_texcoords","componentType":5126,"count":25,"min":[0.010904000140726566,0.020093999803066254],"max":[1.2032099962234497,1.2248940467834473],"type":"VEC2","bufferView":1,"byteOffset":4472},{"name":"hasubrero-Mesh_10_indices","componentType":5123,"count":69,"min":[0],"max":[24],"type":"SCALAR","bufferView":2,"byteOffset":4208},{"name":"hasubrero-Mesh_11_positions","componentType":5126,"count":12,"min":[-4.9041900634765625,-0.2969900071620941,-10.272500038146973],"max":[4.9041900634765625,4.656000137329102,-10.269200325012207],"type":"VEC3","bufferView":0,"byteOffset":7008},{"name":"hasubrero-Mesh_11_texcoords","componentType":5126,"count":12,"min":[0.0002849999873433262,0.005954999942332506],"max":[0.964946985244751,0.9807119965553284],"type":"VEC2","bufferView":1,"byteOffset":4672},{"name":"hasubrero-Mesh_11_indices","componentType":5123,"count":39,"min":[0],"max":[11],"type":"SCALAR","bufferView":2,"byteOffset":4348},{"name":"hasubrero-Mesh_12_positions","componentType":5126,"count":13,"min":[-4.9041900634765625,-5.020420074462891,-10.272500038146973],"max":[4.9041900634765625,-0.20566000044345856,-10.268400192260742],"type":"VEC3","bufferView":0,"byteOffset":7152},{"name":"hasubrero-Mesh_12_texcoords","componentType":5126,"count":13,"min":[0.06852500140666962,0.0044639999978244305],"max":[0.96875,0.9776790142059326],"type":"VEC2","bufferView":1,"byteOffset":4768},{"name":"hasubrero-Mesh_12_indices","componentType":5123,"count":39,"min":[0],"max":[12],"type":"SCALAR","bufferView":2,"byteOffset":4428}],"asset":{"generator":"obj2gltf","version":"2.0"},"buffers":[{"name":"BR_Lombre-Shiny01","byteLength":162440,"uri":"data:application/octet-stream;base64,"}],"bufferViews":[{"name":"bufferView_0","buffer":0,"byteLength":7308,"byteOffset":0,"byteStride":12,"target":34962},{"name":"bufferView_1","buffer":0,"byteLength":4872,"byteOffset":7308,"byteStride":8,"target":34962},{"name":"bufferView_2","buffer":0,"byteLength":4508,"byteOffset":12180,"target":34963},{"buffer":0,"byteOffset":16688,"byteLength":82},{"buffer":0,"byteOffset":16770,"byteLength":2066},{"buffer":0,"byteOffset":18836,"byteLength":82},{"buffer":0,"byteOffset":18918,"byteLength":98322},{"buffer":0,"byteOffset":117240,"byteLength":4114},{"buffer":0,"byteOffset":121354,"byteLength":4114},{"buffer":0,"byteOffset":125468,"byteLength":8210},{"buffer":0,"byteOffset":133678,"byteLength":4114},{"buffer":0,"byteOffset":137792,"byteLength":4114},{"buffer":0,"byteOffset":141906,"byteLength":4114},{"buffer":0,"byteOffset":146020,"byteLength":8210},{"buffer":0,"byteOffset":154230,"byteLength":8210}],"images":[{"name":"hasubrero_1_0","mimeType":"image/x-tga","bufferView":3},{"name":"hasubrero_1_2","mimeType":"image/x-tga","bufferView":4},{"name":"hasubrero_1_3","mimeType":"image/x-tga","bufferView":5},{"name":"hasubrero_1_5","mimeType":"image/x-tga","bufferView":6},{"name":"hasubrero_1_7","mimeType":"image/x-tga","bufferView":7},{"name":"hasubrero_1_8","mimeType":"image/x-tga","bufferView":8},{"name":"hasubrero_1_10","mimeType":"image/x-tga","bufferView":9},{"name":"hasubrero_1_11","mimeType":"image/x-tga","bufferView":10},{"name":"hasubrero_1_14","mimeType":"image/x-tga","bufferView":11},{"name":"hasubrero_1_16","mimeType":"image/x-tga","bufferView":12},{"name":"hasubrero_1_18","mimeType":"image/x-tga","bufferView":13},{"name":"hasubrero_1_19","mimeType":"image/x-tga","bufferView":14}],"materials":[{"name":"mat_0","pbrMetallicRoughness":{"baseColorTexture":{"index":0},"baseColorFactor":[1,1,1,1],"metallicFactor":0,"roughnessFactor":0.903921569},"emissiveFactor":[0,0,0],"alphaMode":"BLEND","doubleSided":true},{"name":"mat_1","pbrMetallicRoughness":{"baseColorTexture":{"index":1},"baseColorFactor":[1,1,1,1],"metallicFactor":0,"roughnessFactor":0.903921569},"emissiveFactor":[0,0,0],"alphaMode":"BLEND","doubleSided":true},{"name":"mat_2","pbrMetallicRoughness":{"baseColorTexture":{"index":2},"baseColorFactor":[1,1,1,1],"metallicFactor":0,"roughnessFactor":0.903921569},"emissiveFactor":[0,0,0],"alphaMode":"BLEND","doubleSided":true},{"name":"mat_3","pbrMetallicRoughness":{"baseColorTexture":{"index":3},"baseColorFactor":[1,1,1,1],"metallicFactor":0,"roughnessFactor":0.903921569},"emissiveFactor":[0,0,0],"alphaMode":"BLEND","doubleSided":true},{"name":"mat_4","pbrMetallicRoughness":{"baseColorTexture":{"index":4},"baseColorFactor":[1,1,1,1],"metallicFactor":0,"roughnessFactor":0.903921569},"emissiveFactor":[0,0,0],"alphaMode":"BLEND","doubleSided":true},{"name":"mat_5","pbrMetallicRoughness":{"baseColorTexture":{"index":5},"baseColorFactor":[1,1,1,1],"metallicFactor":0,"roughnessFactor":0.903921569},"emissiveFactor":[0,0,0],"alphaMode":"BLEND","doubleSided":true},{"name":"mat_6","pbrMetallicRoughness":{"baseColorTexture":{"index":6},"baseColorFactor":[1,1,1,1],"metallicFactor":0,"roughnessFactor":0.903921569},"emissiveFactor":[0,0,0],"alphaMode":"BLEND","doubleSided":true},{"name":"mat_7","pbrMetallicRoughness":{"baseColorTexture":{"index":7},"baseColorFactor":[1,1,1,1],"metallicFactor":0,"roughnessFactor":0.903921569},"emissiveFactor":[0,0,0],"alphaMode":"BLEND","doubleSided":true},{"name":"mat_8","pbrMetallicRoughness":{"baseColorTexture":{"index":0},"baseColorFactor":[1,1,1,1],"metallicFactor":0,"roughnessFactor":0.903921569},"emissiveFactor":[0,0,0],"alphaMode":"BLEND","doubleSided":true},{"name":"mat_9","pbrMetallicRoughness":{"baseColorTexture":{"index":8},"baseColorFactor":[1,1,1,1],"metallicFactor":0,"roughnessFactor":0.903921569},"emissiveFactor":[0,0,0],"alphaMode":"BLEND","doubleSided":true},{"name":"mat_10","pbrMetallicRoughness":{"baseColorTexture":{"index":9},"baseColorFactor":[1,1,1,1],"metallicFactor":0,"roughnessFactor":0.903921569},"emissiveFactor":[0,0,0],"alphaMode":"BLEND","doubleSided":true},{"name":"mat_11","pbrMetallicRoughness":{"baseColorTexture":{"index":10},"baseColorFactor":[1,1,1,1],"metallicFactor":0,"roughnessFactor":0.903921569},"emissiveFactor":[0,0,0],"alphaMode":"BLEND","doubleSided":true},{"name":"mat_12","pbrMetallicRoughness":{"baseColorTexture":{"index":11},"baseColorFactor":[1,1,1,1],"metallicFactor":0,"roughnessFactor":0.903921569},"emissiveFactor":[0,0,0],"alphaMode":"BLEND","doubleSided":true}],"meshes":[{"name":"hasubrero-Mesh","primitives":[{"attributes":{"POSITION":0,"TEXCOORD_0":1},"indices":2,"material":0,"mode":4},{"attributes":{"POSITION":3,"TEXCOORD_0":4},"indices":5,"material":1,"mode":4},{"attributes":{"POSITION":6,"TEXCOORD_0":7},"indices":8,"material":2,"mode":4},{"attributes":{"POSITION":9,"TEXCOORD_0":10},"indices":11,"material":3,"mode":4},{"attributes":{"POSITION":12,"TEXCOORD_0":13},"indices":14,"material":4,"mode":4},{"attributes":{"POSITION":15,"TEXCOORD_0":16},"indices":17,"material":5,"mode":4},{"attributes":{"POSITION":18,"TEXCOORD_0":19},"indices":20,"material":6,"mode":4},{"attributes":{"POSITION":21,"TEXCOORD_0":22},"indices":23,"material":7,"mode":4},{"attributes":{"POSITION":24,"TEXCOORD_0":25},"indices":26,"material":8,"mode":4},{"attributes":{"POSITION":27,"TEXCOORD_0":28},"indices":29,"material":9,"mode":4},{"attributes":{"POSITION":30,"TEXCOORD_0":31},"indices":32,"material":10,"mode":4},{"attributes":{"POSITION":33,"TEXCOORD_0":34},"indices":35,"material":11,"mode":4},{"attributes":{"POSITION":36,"TEXCOORD_0":37},"indices":38,"material":12,"mode":4}]}],"nodes":[{"name":"hasubrero","mesh":0}],"samplers":[{"wrapS":10497,"wrapT":10497}],"scene":0,"scenes":[{"nodes":[0]}],"textures":[{"name":"hasubrero_1_0","sampler":0,"source":0},{"name":"hasubrero_1_2","sampler":0,"source":1},{"name":"hasubrero_1_3","sampler":0,"source":2},{"name":"hasubrero_1_5","sampler":0,"source":3},{"name":"hasubrero_1_7","sampler":0,"source":4},{"name":"hasubrero_1_8","sampler":0,"source":5},{"name":"hasubrero_1_10","sampler":0,"source":6},{"name":"hasubrero_1_11","sampler":0,"source":7},{"name":"hasubrero_1_14","sampler":0,"source":8},{"name":"hasubrero_1_16","sampler":0,"source":9},{"name":"hasubrero_1_18","sampler":0,"source":10},{"name":"hasubrero_1_19","sampler":0,"source":11}]}