{"accessors":[{"name":"runpappa-Mesh_0_positions","componentType":5126,"count":59,"min":[-5.49009895324707,-7.204115867614746,-11.610271453857422],"max":[5.504486083984375,4.638185024261475,-9.445549011230469],"type":"VEC3","bufferView":0,"byteOffset":0},{"name":"runpappa-Mesh_0_texcoords","componentType":5126,"count":59,"min":[0,0],"max":[1,1],"type":"VEC2","bufferView":1,"byteOffset":0},{"name":"runpappa-Mesh_0_indices","componentType":5123,"count":186,"min":[0],"max":[58],"type":"SCALAR","bufferView":2,"byteOffset":0}],"asset":{"generator":"obj2gltf","version":"2.0"},"buffers":[{"name":"BR_Ludicolo-Shiny01","byteLength":1636,"uri":"data:application/octet-stream;base64,"}],"bufferViews":[{"name":"bufferView_0","buffer":0,"byteLength":708,"byteOffset":0,"byteStride":12,"target":34962},{"name":"bufferView_1","buffer":0,"byteLength":472,"byteOffset":708,"byteStride":8,"target":34962},{"name":"bufferView_2","buffer":0,"byteLength":372,"byteOffset":1180,"target":34963},{"buffer":0,"byteOffset":1552,"byteLength":82}],"images":[{"name":"runpappa_1_0","mimeType":"image/x-tga","bufferView":3}],"materials":[{"name":"mat_0","pbrMetallicRoughness":{"baseColorTexture":{"index":0},"baseColorFactor":[1,1,1,1],"metallicFactor":0,"roughnessFactor":0.903921569},"emissiveFactor":[0,0,0],"alphaMode":"BLEND","doubleSided":true}],"meshes":[{"name":"runpappa-Mesh","primitives":[{"attributes":{"POSITION":0,"TEXCOORD_0":1},"indices":2,"material":0,"mode":4}]}],"nodes":[{"name":"runpappa","mesh":0}],"samplers":[{"wrapS":10497,"wrapT":10497}],"scene":0,"scenes":[{"nodes":[0]}],"textures":[{"name":"runpappa_1_0","sampler":0,"source":0}]}