{"accessors":[{"name":"taneboh-Mesh_0_positions","componentType":5126,"count":103,"min":[-1.6535700559616089,-1.6535700559616089,-2.565340042114258],"max":[1.6535700559616089,1.3390400409698486,-0.15315699577331543],"type":"VEC3","bufferView":0,"byteOffset":0},{"name":"taneboh-Mesh_0_texcoords","componentType":5126,"count":103,"min":[0.07848399877548218,0.4443419873714447],"max":[0.9215160012245178,0.967212975025177],"type":"VEC2","bufferView":1,"byteOffset":0},{"name":"taneboh-Mesh_0_indices","componentType":5123,"count":552,"min":[0],"max":[102],"type":"SCALAR","bufferView":2,"byteOffset":0},{"name":"taneboh-Mesh_1_positions","componentType":5126,"count":209,"min":[-1.863379955291748,-1.863379955291748,-4.9723100662231445],"max":[1.863379955291748,1.863379955291748,-2.565340042114258],"type":"VEC3","bufferView":0,"byteOffset":1236},{"name":"taneboh-Mesh_1_texcoords","componentType":5126,"count":209,"min":[0.007813000120222569,0.018489999696612358],"max":[0.9805139899253845,1.0364580154418945],"type":"VEC2","bufferView":1,"byteOffset":824},{"name":"taneboh-Mesh_1_indices","componentType":5123,"count":810,"min":[0],"max":[208],"type":"SCALAR","bufferView":2,"byteOffset":1104},{"name":"taneboh-Mesh_2_positions","componentType":5126,"count":21,"min":[-1.5276999473571777,0.5124269723892212,-2.565340042114258],"max":[1.5276999473571777,1.6535700559616089,-1.1139600276947021],"type":"VEC3","bufferView":0,"byteOffset":3744},{"name":"taneboh-Mesh_2_texcoords","componentType":5126,"count":21,"min":[0.18000000715255737,0],"max":[1,0.2934269905090332],"type":"VEC2","bufferView":1,"byteOffset":2496},{"name":"taneboh-Mesh_2_indices","componentType":5123,"count":72,"min":[0],"max":[20],"type":"SCALAR","bufferView":2,"byteOffset":2724},{"name":"taneboh-Mesh_3_positions","componentType":5126,"count":93,"min":[-1.3228600025177002,-0.8083540201187134,-0.7041159868240356],"max":[1.3228600025177002,0.7564449906349182,0.0010059999767690897],"type":"VEC3","bufferView":0,"byteOffset":3996},{"name":"taneboh-Mesh_3_texcoords","componentType":5126,"count":93,"min":[0.001088000019080937,0.0452749989926815],"max":[1.0013699531555176,0.9342039823532104],"type":"VEC2","bufferView":1,"byteOffset":2664},{"name":"taneboh-Mesh_3_indices","componentType":5123,"count":480,"min":[0],"max":[92],"type":"SCALAR","bufferView":2,"byteOffset":2868}],"asset":{"generator":"obj2gltf","version":"2.0"},"buffers":[{"name":"BR_Seedot-Shiny01","byteLength":204996,"uri":"data:application/octet-stream;base64,"}],"bufferViews":[{"name":"bufferView_0","buffer":0,"byteLength":5112,"byteOffset":0,"byteStride":12,"target":34962},{"name":"bufferView_1","buffer":0,"byteLength":3408,"byteOffset":5112,"byteStride":8,"target":34962},{"name":"bufferView_2","buffer":0,"byteLength":3828,"byteOffset":8520,"target":34963},{"buffer":0,"byteOffset":12348,"byteLength":82},{"buffer":0,"byteOffset":12430,"byteLength":65554},{"buffer":0,"byteOffset":77984,"byteLength":61458},{"buffer":0,"byteOffset":139442,"byteLength":65554}],"images":[{"name":"taneboh_1_0","mimeType":"image/x-tga","bufferView":3},{"name":"taneboh_1_1","mimeType":"image/x-tga","bufferView":4},{"name":"taneboh_1_2","mimeType":"image/x-tga","bufferView":5},{"name":"taneboh_1_3","mimeType":"image/x-tga","bufferView":6}],"materials":[{"name":"mat_0","pbrMetallicRoughness":{"baseColorTexture":{"index":0},"baseColorFactor":[1,1,1,1],"metallicFactor":0,"roughnessFactor":0.903921569},"emissiveFactor":[0,0,0],"alphaMode":"BLEND","doubleSided":true},{"name":"mat_1","pbrMetallicRoughness":{"baseColorTexture":{"index":1},"baseColorFactor":[1,1,1,1],"metallicFactor":0,"roughnessFactor":0.903921569},"emissiveFactor":[0,0,0],"alphaMode":"BLEND","doubleSided":true},{"name":"mat_2","pbrMetallicRoughness":{"baseColorTexture":{"index":2},"baseColorFactor":[1,1,1,1],"metallicFactor":0,"roughnessFactor":0.903921569},"emissiveFactor":[0,0,0],"alphaMode":"BLEND","doubleSided":true},{"name":"mat_3","pbrMetallicRoughness":{"baseColorTexture":{"index":3},"baseColorFactor":[1,1,1,1],"metallicFactor":0,"roughnessFactor":0.903921569},"emissiveFactor":[0,0,0],"alphaMode":"BLEND","doubleSided":true}],"meshes":[{"name":"taneboh-Mesh","primitives":[{"attributes":{"POSITION":0,"TEXCOORD_0":1},"indices":2,"material":0,"mode":4},{"attributes":{"POSITION":3,"TEXCOORD_0":4},"indices":5,"material":1,"mode":4},{"attributes":{"POSITION":6,"TEXCOORD_0":7},"indices":8,"material":2,"mode":4},{"attributes":{"POSITION":9,"TEXCOORD_0":10},"indices":11,"material":3,"mode":4}]}],"nodes":[{"name":"taneboh","mesh":0}],"samplers":[{"wrapS":10497,"wrapT":10497}],"scene":0,"scenes":[{"nodes":[0]}],"textures":[{"name":"taneboh_1_0","sampler":0,"source":0},{"name":"taneboh_1_1","sampler":0,"source":1},{"name":"taneboh_1_2","sampler":0,"source":2},{"name":"taneboh_1_3","sampler":0,"source":3}]}