{"accessors":[{"name":"konohana-Mesh_0_positions","componentType":5126,"count":743,"min":[-4.931239128112793,-2.380950927734375,-16.20188331604004],"max":[4.931239128112793,3.7923219203948975,-0.06104100123047829],"type":"VEC3","bufferView":0,"byteOffset":0},{"name":"konohana-Mesh_0_texcoords","componentType":5126,"count":743,"min":[0.0003650000144261867,0.00672100018709898],"max":[0.7485859990119934,0.9983879923820496],"type":"VEC2","bufferView":1,"byteOffset":0},{"name":"konohana-Mesh_0_indices","componentType":5123,"count":2988,"min":[0],"max":[742],"type":"SCALAR","bufferView":2,"byteOffset":0},{"name":"konohana-Mesh_1_positions","componentType":5126,"count":34,"min":[-1.9495359659194946,1.2023580074310303,-7.677941799163818],"max":[1.9495359659194946,2.3123250007629395,-5.9953742027282715],"type":"VEC3","bufferView":0,"byteOffset":8916},{"name":"konohana-Mesh_1_texcoords","componentType":5126,"count":34,"min":[0.7765190005302429,0.006080999970436096],"max":[0.9876890182495117,0.23216800391674042],"type":"VEC2","bufferView":1,"byteOffset":5944},{"name":"konohana-Mesh_1_indices","componentType":5123,"count":120,"min":[0],"max":[33],"type":"SCALAR","bufferView":2,"byteOffset":5976},{"name":"konohana-Mesh_2_positions","componentType":5126,"count":7,"min":[-0.7792490124702454,1.523345947265625,-6.0928192138671875],"max":[0.7792490124702454,2.23490309715271,-5.3259382247924805],"type":"VEC3","bufferView":0,"byteOffset":9324},{"name":"konohana-Mesh_2_texcoords","componentType":5126,"count":7,"min":[0.6256009936332703,0.000986000057309866],"max":[0.7281990051269531,0.13022500276565552],"type":"VEC2","bufferView":1,"byteOffset":6216},{"name":"konohana-Mesh_2_indices","componentType":5123,"count":18,"min":[0],"max":[6],"type":"SCALAR","bufferView":2,"byteOffset":6216}],"asset":{"generator":"obj2gltf","version":"2.0"},"buffers":[{"name":"BR_Nuzleaf-Shiny01","byteLength":1070528,"uri":"data:application/octet-stream;base64,"}],"bufferViews":[{"name":"bufferView_0","buffer":0,"byteLength":9408,"byteOffset":0,"byteStride":12,"target":34962},{"name":"bufferView_1","buffer":0,"byteLength":6272,"byteOffset":9408,"byteStride":8,"target":34962},{"name":"bufferView_2","buffer":0,"byteLength":6252,"byteOffset":15680,"target":34963},{"buffer":0,"byteOffset":21932,"byteLength":1048594}],"images":[{"name":"konohana_1_0","mimeType":"image/x-tga","bufferView":3}],"materials":[{"name":"mat_0","pbrMetallicRoughness":{"baseColorTexture":{"index":0},"baseColorFactor":[1,1,1,1],"metallicFactor":0,"roughnessFactor":0.903921569},"emissiveFactor":[0,0,0],"alphaMode":"BLEND","doubleSided":true},{"name":"mat_1","pbrMetallicRoughness":{"baseColorTexture":{"index":0},"baseColorFactor":[1,1,1,1],"metallicFactor":0,"roughnessFactor":0.903921569},"emissiveFactor":[0,0,0],"alphaMode":"BLEND","doubleSided":true},{"name":"mat_2","pbrMetallicRoughness":{"baseColorTexture":{"index":0},"baseColorFactor":[1,1,1,1],"metallicFactor":0,"roughnessFactor":0.903921569},"emissiveFactor":[0,0,0],"alphaMode":"BLEND","doubleSided":true}],"meshes":[{"name":"konohana-Mesh","primitives":[{"attributes":{"POSITION":0,"TEXCOORD_0":1},"indices":2,"material":0,"mode":4},{"attributes":{"POSITION":3,"TEXCOORD_0":4},"indices":5,"material":1,"mode":4},{"attributes":{"POSITION":6,"TEXCOORD_0":7},"indices":8,"material":2,"mode":4}]}],"nodes":[{"name":"konohana","mesh":0}],"samplers":[{"wrapS":10497,"wrapT":10497}],"scene":0,"scenes":[{"nodes":[0]}],"textures":[{"name":"konohana_1_0","sampler":0,"source":0}]}