{"accessors":[{"name":"dirteng-Mesh_0_positions","componentType":5126,"count":28,"min":[-2.910243034362793,0.6797500252723694,-13.095690727233887],"max":[2.868277072906494,2.175931930541992,-9.62388801574707],"type":"VEC3","bufferView":0,"byteOffset":0},{"name":"dirteng-Mesh_0_texcoords","componentType":5126,"count":28,"min":[-0.09625700116157532,-0.327239990234375],"max":[1.084920048713684,0.9653229713439941],"type":"VEC2","bufferView":1,"byteOffset":0},{"name":"dirteng-Mesh_0_indices","componentType":5123,"count":72,"min":[0],"max":[27],"type":"SCALAR","bufferView":2,"byteOffset":0},{"name":"dirteng-Mesh_1_positions","componentType":5126,"count":30,"min":[-2.910243034362793,0.6797500252723694,-13.095690727233887],"max":[2.868277072906494,5.717140197753906,-8.69406795501709],"type":"VEC3","bufferView":0,"byteOffset":336},{"name":"dirteng-Mesh_1_texcoords","componentType":5126,"count":30,"min":[-0.23624500632286072,-0.26686999201774597],"max":[1.2362500429153442,1.2056180238723755],"type":"VEC2","bufferView":1,"byteOffset":224},{"name":"dirteng-Mesh_1_indices","componentType":5123,"count":99,"min":[0],"max":[29],"type":"SCALAR","bufferView":2,"byteOffset":144},{"name":"dirteng-Mesh_2_positions","componentType":5126,"count":38,"min":[-1.8452130556106567,1.1037609577178955,-7.944075107574463],"max":[1.8032469749450684,3.988779067993164,-3.2912259101867676],"type":"VEC3","bufferView":0,"byteOffset":696},{"name":"dirteng-Mesh_2_texcoords","componentType":5126,"count":38,"min":[0.02449999935925007,0.010999999940395355],"max":[0.9799110293388367,0.9882649779319763],"type":"VEC2","bufferView":1,"byteOffset":464},{"name":"dirteng-Mesh_2_indices","componentType":5123,"count":177,"min":[0],"max":[37],"type":"SCALAR","bufferView":2,"byteOffset":344},{"name":"dirteng-Mesh_3_positions","componentType":5126,"count":14,"min":[-0.9664720296859741,2.0664620399475098,-8.482732772827148],"max":[0.9245049953460693,3.460953950881958,-6.9462809562683105],"type":"VEC3","bufferView":0,"byteOffset":1152},{"name":"dirteng-Mesh_3_texcoords","componentType":5126,"count":14,"min":[0.12180700153112411,0.0703120008111],"max":[0.8776040077209473,0.8927500247955322],"type":"VEC2","bufferView":1,"byteOffset":768},{"name":"dirteng-Mesh_3_indices","componentType":5123,"count":54,"min":[0],"max":[13],"type":"SCALAR","bufferView":2,"byteOffset":700},{"name":"dirteng-Mesh_4_positions","componentType":5126,"count":35,"min":[-2.046912908554077,-1.6739909648895264,-9.489970207214355],"max":[2.0049469470977783,3.571707010269165,-3.2912259101867676],"type":"VEC3","bufferView":0,"byteOffset":1320},{"name":"dirteng-Mesh_4_texcoords","componentType":5126,"count":35,"min":[-0.015625,0.008929000236093998],"max":[0.9176809787750244,0.986965000629425],"type":"VEC2","bufferView":1,"byteOffset":880},{"name":"dirteng-Mesh_4_indices","componentType":5123,"count":138,"min":[0],"max":[34],"type":"SCALAR","bufferView":2,"byteOffset":808},{"name":"dirteng-Mesh_5_positions","componentType":5126,"count":44,"min":[-3.7802929878234863,-0.8585399985313416,-6.563605785369873],"max":[3.7383270263671875,2.745929002761841,-2.1360740661621094],"type":"VEC3","bufferView":0,"byteOffset":1740},{"name":"dirteng-Mesh_5_texcoords","componentType":5126,"count":44,"min":[-0.010999999940395355,-0.21199999749660492],"max":[1.0080000162124634,1.1953129768371582],"type":"VEC2","bufferView":1,"byteOffset":1160},{"name":"dirteng-Mesh_5_indices","componentType":5123,"count":210,"min":[0],"max":[43],"type":"SCALAR","bufferView":2,"byteOffset":1084},{"name":"dirteng-Mesh_6_positions","componentType":5126,"count":60,"min":[-3.5466020107269287,-0.8960719704627991,-2.240675926208496],"max":[3.5685770511627197,2.995387077331543,-0.009479999542236328],"type":"VEC3","bufferView":0,"byteOffset":2268},{"name":"dirteng-Mesh_6_texcoords","componentType":5126,"count":60,"min":[0.05357100069522858,-0.016200000420212746],"max":[0.9799110293388367,0.9931970238685608],"type":"VEC2","bufferView":1,"byteOffset":1512},{"name":"dirteng-Mesh_6_indices","componentType":5123,"count":234,"min":[0],"max":[59],"type":"SCALAR","bufferView":2,"byteOffset":1504},{"name":"dirteng-Mesh_7_positions","componentType":5126,"count":32,"min":[-1.0269529819488525,2.729306936264038,-8.548652648925781],"max":[0.988906979560852,3.438178062438965,-7.2732062339782715],"type":"VEC3","bufferView":0,"byteOffset":2988},{"name":"dirteng-Mesh_7_texcoords","componentType":5126,"count":32,"min":[0,0.1875009983778],"max":[1,1],"type":"VEC2","bufferView":1,"byteOffset":1992},{"name":"dirteng-Mesh_7_indices","componentType":5123,"count":72,"min":[0],"max":[31],"type":"SCALAR","bufferView":2,"byteOffset":1972},{"name":"dirteng-Mesh_8_positions","componentType":5126,"count":20,"min":[-1.448272943496704,-0.40776801109313965,-11.926835060119629],"max":[2.107966899871826,3.4631121158599854,-9.675054550170898],"type":"VEC3","bufferView":0,"byteOffset":3372},{"name":"dirteng-Mesh_8_texcoords","componentType":5126,"count":20,"min":[-0.06452099978923798,0],"max":[1.0098299980163574,1.0038419961929321],"type":"VEC2","bufferView":1,"byteOffset":2248},{"name":"dirteng-Mesh_8_indices","componentType":5123,"count":69,"min":[0],"max":[19],"type":"SCALAR","bufferView":2,"byteOffset":2116},{"name":"dirteng-Mesh_9_positions","componentType":5126,"count":97,"min":[-3.880682945251465,-3.1182429790496826,-11.074539184570312],"max":[3.838716983795166,3.587327003479004,-5.802699089050293],"type":"VEC3","bufferView":0,"byteOffset":3612},{"name":"dirteng-Mesh_9_texcoords","componentType":5126,"count":97,"min":[-0.23229800164699554,-0.2760399878025055],"max":[1.2401100397109985,1.0344430208206177],"type":"VEC2","bufferView":1,"byteOffset":2408},{"name":"dirteng-Mesh_9_indices","componentType":5123,"count":198,"min":[0],"max":[96],"type":"SCALAR","bufferView":2,"byteOffset":2256},{"name":"dirteng-Mesh_10_positions","componentType":5126,"count":58,"min":[-3.4524929523468018,-7.484354019165039,-9.761252403259277],"max":[3.410526990890503,3.6226089000701904,0.17754000425338745],"type":"VEC3","bufferView":0,"byteOffset":4776},{"name":"dirteng-Mesh_10_texcoords","componentType":5126,"count":58,"min":[0.049674998968839645,0.06176900118589401],"max":[0.9503250122070312,0.9706889986991882],"type":"VEC2","bufferView":1,"byteOffset":3184},{"name":"dirteng-Mesh_10_indices","componentType":5123,"count":261,"min":[0],"max":[57],"type":"SCALAR","bufferView":2,"byteOffset":2652},{"name":"dirteng-Mesh_11_positions","componentType":5126,"count":16,"min":[-1.448272943496704,1.9752039909362793,-10.660623550415039],"max":[1.4063069820404053,3.763245105743408,-8.09720516204834],"type":"VEC3","bufferView":0,"byteOffset":5472},{"name":"dirteng-Mesh_11_texcoords","componentType":5126,"count":16,"min":[0.013020999729633331,0.0037499999161809683],"max":[0.984375,0.34411999583244324],"type":"VEC2","bufferView":1,"byteOffset":3648},{"name":"dirteng-Mesh_11_indices","componentType":5123,"count":48,"min":[0],"max":[15],"type":"SCALAR","bufferView":2,"byteOffset":3176},{"name":"dirteng-Mesh_12_positions","componentType":5126,"count":32,"min":[-4.014523029327393,0.8614299893379211,-8.541357040405273],"max":[3.9725570678710938,2.9299089908599854,-6.626905918121338],"type":"VEC3","bufferView":0,"byteOffset":5664},{"name":"dirteng-Mesh_12_texcoords","componentType":5126,"count":32,"min":[-0.19211000204086304,-0.2716299891471863],"max":[1.1967999935150146,1.0793119668960571],"type":"VEC2","bufferView":1,"byteOffset":3776},{"name":"dirteng-Mesh_12_indices","componentType":5123,"count":162,"min":[0],"max":[31],"type":"SCALAR","bufferView":2,"byteOffset":3272},{"name":"dirteng-Mesh_13_positions","componentType":5126,"count":12,"min":[-4.824416160583496,1.6715179681777954,-7.734945774078369],"max":[4.795507907867432,2.1273388862609863,-7.342286109924316],"type":"VEC3","bufferView":0,"byteOffset":6048},{"name":"dirteng-Mesh_13_texcoords","componentType":5126,"count":12,"min":[-0.1100429967045784,0.0791580006480217],"max":[0.885591983795166,2.242300033569336],"type":"VEC2","bufferView":1,"byteOffset":4032},{"name":"dirteng-Mesh_13_indices","componentType":5123,"count":36,"min":[0],"max":[11],"type":"SCALAR","bufferView":2,"byteOffset":3596},{"name":"dirteng-Mesh_14_positions","componentType":5126,"count":112,"min":[-9.815037727355957,-0.7343279719352722,-7.669792175292969],"max":[9.786128997802734,4.515847206115723,-7.215271949768066],"type":"VEC3","bufferView":0,"byteOffset":6192},{"name":"dirteng-Mesh_14_texcoords","componentType":5126,"count":112,"min":[-0.023907000198960304,0.02606399916112423],"max":[1.0068600177764893,1.1424980163574219],"type":"VEC2","bufferView":1,"byteOffset":4128},{"name":"dirteng-Mesh_14_indices","componentType":5123,"count":342,"min":[0],"max":[111],"type":"SCALAR","bufferView":2,"byteOffset":3668}],"asset":{"generator":"obj2gltf","version":"2.0"},"buffers":[{"name":"BR_Shiftry-Shiny01","byteLength":301324,"uri":"data:application/octet-stream;base64,"}],"bufferViews":[{"name":"bufferView_0","buffer":0,"byteLength":7536,"byteOffset":0,"byteStride":12,"target":34962},{"name":"bufferView_1","buffer":0,"byteLength":5024,"byteOffset":7536,"byteStride":8,"target":34962},{"name":"bufferView_2","buffer":0,"byteLength":4352,"byteOffset":12560,"target":34963},{"buffer":0,"byteOffset":16912,"byteLength":8210},{"buffer":0,"byteOffset":25122,"byteLength":4114},{"buffer":0,"byteOffset":29236,"byteLength":16402},{"buffer":0,"byteOffset":45638,"byteLength":4114},{"buffer":0,"byteOffset":49752,"byteLength":4114},{"buffer":0,"byteOffset":53866,"byteLength":16402},{"buffer":0,"byteOffset":70268,"byteLength":16402},{"buffer":0,"byteOffset":86670,"byteLength":530},{"buffer":0,"byteOffset":87200,"byteLength":32786},{"buffer":0,"byteOffset":119986,"byteLength":65554},{"buffer":0,"byteOffset":185540,"byteLength":65554},{"buffer":0,"byteOffset":251094,"byteLength":16402},{"buffer":0,"byteOffset":267496,"byteLength":1042},{"buffer":0,"byteOffset":268538,"byteLength":32786}],"images":[{"name":"dirteng_1_0","mimeType":"image/x-tga","bufferView":3},{"name":"dirteng_1_1","mimeType":"image/x-tga","bufferView":4},{"name":"dirteng_1_2","mimeType":"image/x-tga","bufferView":5},{"name":"dirteng_1_3","mimeType":"image/x-tga","bufferView":6},{"name":"dirteng_1_4","mimeType":"image/x-tga","bufferView":7},{"name":"dirteng_1_5","mimeType":"image/x-tga","bufferView":8},{"name":"dirteng_1_6","mimeType":"image/x-tga","bufferView":9},{"name":"dirteng_1_7","mimeType":"image/x-tga","bufferView":10},{"name":"dirteng_1_8","mimeType":"image/x-tga","bufferView":11},{"name":"dirteng_1_10","mimeType":"image/x-tga","bufferView":12},{"name":"dirteng_1_11","mimeType":"image/x-tga","bufferView":13},{"name":"dirteng_1_12","mimeType":"image/x-tga","bufferView":14},{"name":"dirteng_1_13","mimeType":"image/x-tga","bufferView":15},{"name":"dirteng_1_14","mimeType":"image/x-tga","bufferView":16}],"materials":[{"name":"mat_0","pbrMetallicRoughness":{"baseColorTexture":{"index":0},"baseColorFactor":[1,1,1,1],"metallicFactor":0,"roughnessFactor":0.903921569},"emissiveFactor":[0,0,0],"alphaMode":"BLEND","doubleSided":true},{"name":"mat_1","pbrMetallicRoughness":{"baseColorTexture":{"index":1},"baseColorFactor":[1,1,1,1],"metallicFactor":0,"roughnessFactor":0.903921569},"emissiveFactor":[0,0,0],"alphaMode":"BLEND","doubleSided":true},{"name":"mat_2","pbrMetallicRoughness":{"baseColorTexture":{"index":2},"baseColorFactor":[1,1,1,1],"metallicFactor":0,"roughnessFactor":0.903921569},"emissiveFactor":[0,0,0],"alphaMode":"BLEND","doubleSided":true},{"name":"mat_3","pbrMetallicRoughness":{"baseColorTexture":{"index":3},"baseColorFactor":[1,1,1,1],"metallicFactor":0,"roughnessFactor":0.903921569},"emissiveFactor":[0,0,0],"alphaMode":"BLEND","doubleSided":true},{"name":"mat_4","pbrMetallicRoughness":{"baseColorTexture":{"index":4},"baseColorFactor":[1,1,1,1],"metallicFactor":0,"roughnessFactor":0.903921569},"emissiveFactor":[0,0,0],"alphaMode":"BLEND","doubleSided":true},{"name":"mat_5","pbrMetallicRoughness":{"baseColorTexture":{"index":5},"baseColorFactor":[1,1,1,1],"metallicFactor":0,"roughnessFactor":0.903921569},"emissiveFactor":[0,0,0],"alphaMode":"BLEND","doubleSided":true},{"name":"mat_6","pbrMetallicRoughness":{"baseColorTexture":{"index":6},"baseColorFactor":[1,1,1,1],"metallicFactor":0,"roughnessFactor":0.903921569},"emissiveFactor":[0,0,0],"alphaMode":"BLEND","doubleSided":true},{"name":"mat_7","pbrMetallicRoughness":{"baseColorTexture":{"index":7},"baseColorFactor":[1,1,1,1],"metallicFactor":0,"roughnessFactor":0.903921569},"emissiveFactor":[0,0,0],"alphaMode":"BLEND","doubleSided":true},{"name":"mat_8","pbrMetallicRoughness":{"baseColorTexture":{"index":8},"baseColorFactor":[1,1,1,1],"metallicFactor":0,"roughnessFactor":0.903921569},"emissiveFactor":[0,0,0],"alphaMode":"BLEND","doubleSided":true},{"name":"mat_9","pbrMetallicRoughness":{"baseColorTexture":{"index":8},"baseColorFactor":[1,1,1,1],"metallicFactor":0,"roughnessFactor":0.903921569},"emissiveFactor":[0,0,0],"alphaMode":"BLEND","doubleSided":true},{"name":"mat_10","pbrMetallicRoughness":{"baseColorTexture":{"index":9},"baseColorFactor":[1,1,1,1],"metallicFactor":0,"roughnessFactor":0.903921569},"emissiveFactor":[0,0,0],"alphaMode":"BLEND","doubleSided":true},{"name":"mat_11","pbrMetallicRoughness":{"baseColorTexture":{"index":10},"baseColorFactor":[1,1,1,1],"metallicFactor":0,"roughnessFactor":0.903921569},"emissiveFactor":[0,0,0],"alphaMode":"BLEND","doubleSided":true},{"name":"mat_12","pbrMetallicRoughness":{"baseColorTexture":{"index":11},"baseColorFactor":[1,1,1,1],"metallicFactor":0,"roughnessFactor":0.903921569},"emissiveFactor":[0,0,0],"alphaMode":"BLEND","doubleSided":true},{"name":"mat_13","pbrMetallicRoughness":{"baseColorTexture":{"index":12},"baseColorFactor":[1,1,1,1],"metallicFactor":0,"roughnessFactor":0.903921569},"emissiveFactor":[0,0,0],"alphaMode":"BLEND","doubleSided":true},{"name":"mat_14","pbrMetallicRoughness":{"baseColorTexture":{"index":13},"baseColorFactor":[1,1,1,1],"metallicFactor":0,"roughnessFactor":0.903921569},"emissiveFactor":[0,0,0],"alphaMode":"BLEND","doubleSided":true}],"meshes":[{"name":"dirteng-Mesh","primitives":[{"attributes":{"POSITION":0,"TEXCOORD_0":1},"indices":2,"material":0,"mode":4},{"attributes":{"POSITION":3,"TEXCOORD_0":4},"indices":5,"material":1,"mode":4},{"attributes":{"POSITION":6,"TEXCOORD_0":7},"indices":8,"material":2,"mode":4},{"attributes":{"POSITION":9,"TEXCOORD_0":10},"indices":11,"material":3,"mode":4},{"attributes":{"POSITION":12,"TEXCOORD_0":13},"indices":14,"material":4,"mode":4},{"attributes":{"POSITION":15,"TEXCOORD_0":16},"indices":17,"material":5,"mode":4},{"attributes":{"POSITION":18,"TEXCOORD_0":19},"indices":20,"material":6,"mode":4},{"attributes":{"POSITION":21,"TEXCOORD_0":22},"indices":23,"material":7,"mode":4},{"attributes":{"POSITION":24,"TEXCOORD_0":25},"indices":26,"material":8,"mode":4},{"attributes":{"POSITION":27,"TEXCOORD_0":28},"indices":29,"material":9,"mode":4},{"attributes":{"POSITION":30,"TEXCOORD_0":31},"indices":32,"material":10,"mode":4},{"attributes":{"POSITION":33,"TEXCOORD_0":34},"indices":35,"material":11,"mode":4},{"attributes":{"POSITION":36,"TEXCOORD_0":37},"indices":38,"material":12,"mode":4},{"attributes":{"POSITION":39,"TEXCOORD_0":40},"indices":41,"material":13,"mode":4},{"attributes":{"POSITION":42,"TEXCOORD_0":43},"indices":44,"material":14,"mode":4}]}],"nodes":[{"name":"dirteng","mesh":0}],"samplers":[{"wrapS":10497,"wrapT":10497}],"scene":0,"scenes":[{"nodes":[0]}],"textures":[{"name":"dirteng_1_0","sampler":0,"source":0},{"name":"dirteng_1_1","sampler":0,"source":1},{"name":"dirteng_1_2","sampler":0,"source":2},{"name":"dirteng_1_3","sampler":0,"source":3},{"name":"dirteng_1_4","sampler":0,"source":4},{"name":"dirteng_1_5","sampler":0,"source":5},{"name":"dirteng_1_6","sampler":0,"source":6},{"name":"dirteng_1_7","sampler":0,"source":7},{"name":"dirteng_1_8","sampler":0,"source":8},{"name":"dirteng_1_10","sampler":0,"source":9},{"name":"dirteng_1_11","sampler":0,"source":10},{"name":"dirteng_1_12","sampler":0,"source":11},{"name":"dirteng_1_13","sampler":0,"source":12},{"name":"dirteng_1_14","sampler":0,"source":13}]}