{"accessors":[{"name":"polygon0_1_0_positions","componentType":5126,"count":935,"min":[-5.673419952392578,-0.006105000153183937,-3.742141008377075],"max":[5.673418998718262,2.973607063293457,2.0293760299682617],"type":"VEC3","bufferView":0,"byteOffset":0},{"name":"polygon0_1_0_normals","componentType":5126,"count":935,"min":[-0.9998100996017456,-0.9999997615814209,-0.998144268989563],"max":[0.9998100996017456,0.9996507167816162,0.9998104572296143],"type":"VEC3","bufferView":1,"byteOffset":0},{"name":"polygon0_1_0_texcoords","componentType":5126,"count":935,"min":[0.0026549999602138996,0.0026859999634325504],"max":[0.9995419979095459,0.9952700138092041],"type":"VEC2","bufferView":2,"byteOffset":0},{"name":"polygon0_1_0_indices","componentType":5123,"count":4428,"min":[0],"max":[934],"type":"SCALAR","bufferView":3,"byteOffset":0},{"name":"polygon1_1_0_positions","componentType":5126,"count":48,"min":[-0.608027994632721,2.163256883621216,1.400758981704712],"max":[0.608027994632721,2.648689031600952,1.709547996520996],"type":"VEC3","bufferView":0,"byteOffset":11220},{"name":"polygon1_1_0_normals","componentType":5126,"count":48,"min":[-0.8742442727088928,-0.06683502346277237,0.46454688906669617],"max":[0.8742442727088928,0.5420629978179932,0.9586692452430725],"type":"VEC3","bufferView":1,"byteOffset":11220},{"name":"polygon1_1_0_texcoords","componentType":5126,"count":48,"min":[0,0.0039059999398887157],"max":[0.4960939884185791,0.2304690033197403],"type":"VEC2","bufferView":2,"byteOffset":7480},{"name":"polygon1_1_0_indices","componentType":5123,"count":192,"min":[0],"max":[47],"type":"SCALAR","bufferView":3,"byteOffset":8856}],"asset":{"generator":"obj2gltf","version":"2.0"},"buffers":[{"name":"Taillow","byteLength":335644,"uri":"data:application/octet-stream;base64,"}],"bufferViews":[{"name":"bufferView_0","buffer":0,"byteLength":11796,"byteOffset":0,"byteStride":12,"target":34962},{"name":"bufferView_1","buffer":0,"byteLength":11796,"byteOffset":11796,"byteStride":12,"target":34962},{"name":"bufferView_2","buffer":0,"byteLength":7864,"byteOffset":23592,"byteStride":8,"target":34962},{"name":"bufferView_3","buffer":0,"byteLength":9240,"byteOffset":31456,"target":34963},{"buffer":0,"byteOffset":40696,"byteLength":196626},{"buffer":0,"byteOffset":237322,"byteLength":98322}],"images":[{"name":"SubameDh","mimeType":"image/x-tga","bufferView":4},{"name":"SubameEyeDh","mimeType":"image/x-tga","bufferView":5}],"materials":[{"name":"mat1","pbrMetallicRoughness":{"baseColorTexture":{"index":0},"baseColorFactor":[1,1,1,1],"metallicFactor":0,"roughnessFactor":0.99},"emissiveFactor":[0,0,0],"alphaMode":"OPAQUE","doubleSided":false},{"name":"mat2","pbrMetallicRoughness":{"baseColorTexture":{"index":1},"baseColorFactor":[1,1,1,1],"metallicFactor":0,"roughnessFactor":0.99},"emissiveFactor":[0,0,0],"alphaMode":"OPAQUE","doubleSided":false}],"meshes":[{"name":"polygon0_1","primitives":[{"attributes":{"POSITION":0,"NORMAL":1,"TEXCOORD_0":2},"indices":3,"material":0,"mode":4}]},{"name":"polygon1_1","primitives":[{"attributes":{"POSITION":4,"NORMAL":5,"TEXCOORD_0":6},"indices":7,"material":1,"mode":4}]}],"nodes":[{"name":"polygon0","mesh":0},{"name":"polygon1","mesh":1}],"samplers":[{"wrapS":10497,"wrapT":10497}],"scene":0,"scenes":[{"nodes":[0,1]}],"textures":[{"name":"SubameDh","sampler":0,"source":0},{"name":"SubameEyeDh","sampler":0,"source":1}]}