{"accessors":[{"name":"ohsubame-Mesh_0_positions","componentType":5126,"count":51,"min":[-0.5599629878997803,1.4096399545669556,-6.168179988861084],"max":[0.5599629878997803,2.2801599502563477,-5.664259910583496],"type":"VEC3","bufferView":0,"byteOffset":0},{"name":"ohsubame-Mesh_0_texcoords","componentType":5126,"count":51,"min":[0.033799998462200165,-0.013410000130534172],"max":[1,1.2111979722976685],"type":"VEC2","bufferView":1,"byteOffset":0},{"name":"ohsubame-Mesh_0_indices","componentType":5123,"count":102,"min":[0],"max":[50],"type":"SCALAR","bufferView":2,"byteOffset":0},{"name":"ohsubame-Mesh_1_positions","componentType":5126,"count":133,"min":[-7.207520008087158,-3.417649984359741,-6.934430122375488],"max":[7.207520008087158,0.630715012550354,-1.4587700366973877],"type":"VEC3","bufferView":0,"byteOffset":612},{"name":"ohsubame-Mesh_1_texcoords","componentType":5126,"count":133,"min":[0.09584899991750717,0.002865999937057495],"max":[0.9041510224342346,0.9470099806785583],"type":"VEC2","bufferView":1,"byteOffset":408},{"name":"ohsubame-Mesh_1_indices","componentType":5123,"count":408,"min":[0],"max":[132],"type":"SCALAR","bufferView":2,"byteOffset":204},{"name":"ohsubame-Mesh_2_positions","componentType":5126,"count":16,"min":[-0.5355499982833862,1.2382700443267822,-6.0051398277282715],"max":[0.5355499982833862,2.2292799949645996,-5.801290035247803],"type":"VEC3","bufferView":0,"byteOffset":2208},{"name":"ohsubame-Mesh_2_texcoords","componentType":5126,"count":16,"min":[-0.04166699945926666,-0.1875],"max":[0.5,0.9557290077209473],"type":"VEC2","bufferView":1,"byteOffset":1472},{"name":"ohsubame-Mesh_2_indices","componentType":5123,"count":30,"min":[0],"max":[15],"type":"SCALAR","bufferView":2,"byteOffset":1020},{"name":"ohsubame-Mesh_3_positions","componentType":5126,"count":24,"min":[-0.874297022819519,0.5967990159988403,-6.7153401374816895],"max":[0.874297022819519,1.754830002784729,-5.782690048217773],"type":"VEC3","bufferView":0,"byteOffset":2400},{"name":"ohsubame-Mesh_3_texcoords","componentType":5126,"count":24,"min":[-0.3515630066394806,0.00937500037252903],"max":[1.2031300067901611,0.21354199945926666],"type":"VEC2","bufferView":1,"byteOffset":1600},{"name":"ohsubame-Mesh_3_indices","componentType":5123,"count":78,"min":[0],"max":[23],"type":"SCALAR","bufferView":2,"byteOffset":1080},{"name":"ohsubame-Mesh_4_positions","componentType":5126,"count":40,"min":[-1.6098899841308594,-0.2781359851360321,-5.985770225524902],"max":[1.6098899841308594,1.9603400230407715,-2.095329999923706],"type":"VEC3","bufferView":0,"byteOffset":2688},{"name":"ohsubame-Mesh_4_texcoords","componentType":5126,"count":40,"min":[-0.008929000236093998,-0.03125],"max":[1.0982099771499634,1.2412350177764893],"type":"VEC2","bufferView":1,"byteOffset":1792},{"name":"ohsubame-Mesh_4_indices","componentType":5123,"count":162,"min":[0],"max":[39],"type":"SCALAR","bufferView":2,"byteOffset":1236},{"name":"ohsubame-Mesh_5_positions","componentType":5126,"count":20,"min":[-0.7462490200996399,-0.00596599979326129,-6.951039791107178],"max":[0.7462490200996399,1.6301300525665283,-6.556449890136719],"type":"VEC3","bufferView":0,"byteOffset":3168},{"name":"ohsubame-Mesh_5_texcoords","componentType":5126,"count":20,"min":[-0.010844999924302101,-0.06137000024318695],"max":[1.056439995765686,1.0104089975357056],"type":"VEC2","bufferView":1,"byteOffset":2112},{"name":"ohsubame-Mesh_5_indices","componentType":5123,"count":78,"min":[0],"max":[19],"type":"SCALAR","bufferView":2,"byteOffset":1560},{"name":"ohsubame-Mesh_6_positions","componentType":5126,"count":29,"min":[-1.6166599988937378,-3.124300003051758,-4.121099948883057],"max":[1.6166599988937378,1.1602400541305542,-1.1514500379562378],"type":"VEC3","bufferView":0,"byteOffset":3408},{"name":"ohsubame-Mesh_6_texcoords","componentType":5126,"count":29,"min":[-0.0022319999989122152,-0.0022299999836832285],"max":[0.971875011920929,1.0758930444717407],"type":"VEC2","bufferView":1,"byteOffset":2272},{"name":"ohsubame-Mesh_6_indices","componentType":5123,"count":114,"min":[0],"max":[28],"type":"SCALAR","bufferView":2,"byteOffset":1716},{"name":"ohsubame-Mesh_7_positions","componentType":5126,"count":28,"min":[-7.207520008087158,-1.0178500413894653,-6.317409992218018],"max":[7.207520008087158,0.429161012172699,-3.0697200298309326],"type":"VEC3","bufferView":0,"byteOffset":3756},{"name":"ohsubame-Mesh_7_texcoords","componentType":5126,"count":28,"min":[-0.03645800054073334,-0.05858999863266945],"max":[1.3593800067901611,1.15625],"type":"VEC2","bufferView":1,"byteOffset":2504},{"name":"ohsubame-Mesh_7_indices","componentType":5123,"count":90,"min":[0],"max":[27],"type":"SCALAR","bufferView":2,"byteOffset":1944},{"name":"ohsubame-Mesh_8_positions","componentType":5126,"count":44,"min":[-1.276229977607727,-8.572750091552734,-2.1242499351501465],"max":[1.310979962348938,-3.056649923324585,-1.1690599918365479],"type":"VEC3","bufferView":0,"byteOffset":4092},{"name":"ohsubame-Mesh_8_texcoords","componentType":5126,"count":44,"min":[0.2524940073490143,-0.10625000298023224],"max":[0.894877016544342,1.15625],"type":"VEC2","bufferView":1,"byteOffset":2728},{"name":"ohsubame-Mesh_8_indices","componentType":5123,"count":102,"min":[0],"max":[43],"type":"SCALAR","bufferView":2,"byteOffset":2124},{"name":"ohsubame-Mesh_9_positions","componentType":5126,"count":80,"min":[-8.9168701171875,-1.883389949798584,-5.384260177612305],"max":[8.9168701171875,-0.205595001578331,-2.18176007270813],"type":"VEC3","bufferView":0,"byteOffset":4620},{"name":"ohsubame-Mesh_9_texcoords","componentType":5126,"count":80,"min":[0,0.2701539993286133],"max":[1,0.8223469853401184],"type":"VEC2","bufferView":1,"byteOffset":3080},{"name":"ohsubame-Mesh_9_indices","componentType":5123,"count":120,"min":[0],"max":[79],"type":"SCALAR","bufferView":2,"byteOffset":2328}],"asset":{"generator":"obj2gltf","version":"2.0"},"buffers":[{"name":"BR_Swellow-Shiny01","byteLength":156672,"uri":"data:application/octet-stream;base64,"}],"bufferViews":[{"name":"bufferView_0","buffer":0,"byteLength":5580,"byteOffset":0,"byteStride":12,"target":34962},{"name":"bufferView_1","buffer":0,"byteLength":3720,"byteOffset":5580,"byteStride":8,"target":34962},{"name":"bufferView_2","buffer":0,"byteLength":2568,"byteOffset":9300,"target":34963},{"buffer":0,"byteOffset":11868,"byteLength":1042},{"buffer":0,"byteOffset":12910,"byteLength":274},{"buffer":0,"byteOffset":13184,"byteLength":8210},{"buffer":0,"byteOffset":21394,"byteLength":81938},{"buffer":0,"byteOffset":103332,"byteLength":16402},{"buffer":0,"byteOffset":119734,"byteLength":8210},{"buffer":0,"byteOffset":127944,"byteLength":16402},{"buffer":0,"byteOffset":144346,"byteLength":8210},{"buffer":0,"byteOffset":152556,"byteLength":4114}],"images":[{"name":"ohsubame_1_0","mimeType":"image/x-tga","bufferView":3},{"name":"ohsubame_1_1","mimeType":"image/x-tga","bufferView":4},{"name":"ohsubame_1_2","mimeType":"image/x-tga","bufferView":5},{"name":"ohsubame_1_3","mimeType":"image/x-tga","bufferView":6},{"name":"ohsubame_1_4","mimeType":"image/x-tga","bufferView":7},{"name":"ohsubame_1_5","mimeType":"image/x-tga","bufferView":8},{"name":"ohsubame_1_6","mimeType":"image/x-tga","bufferView":9},{"name":"ohsubame_1_7","mimeType":"image/x-tga","bufferView":10},{"name":"ohsubame_1_8","mimeType":"image/x-tga","bufferView":11}],"materials":[{"name":"mat_0","pbrMetallicRoughness":{"baseColorTexture":{"index":0},"baseColorFactor":[1,1,1,1],"metallicFactor":0,"roughnessFactor":0.903921569},"emissiveFactor":[0,0,0],"alphaMode":"BLEND","doubleSided":true},{"name":"mat_1","pbrMetallicRoughness":{"baseColorTexture":{"index":1},"baseColorFactor":[1,1,1,1],"metallicFactor":0,"roughnessFactor":0.903921569},"emissiveFactor":[0,0,0],"alphaMode":"BLEND","doubleSided":true},{"name":"mat_2","pbrMetallicRoughness":{"baseColorTexture":{"index":2},"baseColorFactor":[1,1,1,1],"metallicFactor":0,"roughnessFactor":0.903921569},"emissiveFactor":[0,0,0],"alphaMode":"BLEND","doubleSided":true},{"name":"mat_3","pbrMetallicRoughness":{"baseColorTexture":{"index":3},"baseColorFactor":[1,1,1,1],"metallicFactor":0,"roughnessFactor":0.903921569},"emissiveFactor":[0,0,0],"alphaMode":"BLEND","doubleSided":true},{"name":"mat_4","pbrMetallicRoughness":{"baseColorTexture":{"index":4},"baseColorFactor":[1,1,1,1],"metallicFactor":0,"roughnessFactor":0.903921569},"emissiveFactor":[0,0,0],"alphaMode":"BLEND","doubleSided":true},{"name":"mat_5","pbrMetallicRoughness":{"baseColorTexture":{"index":5},"baseColorFactor":[1,1,1,1],"metallicFactor":0,"roughnessFactor":0.903921569},"emissiveFactor":[0,0,0],"alphaMode":"BLEND","doubleSided":true},{"name":"mat_6","pbrMetallicRoughness":{"baseColorTexture":{"index":6},"baseColorFactor":[1,1,1,1],"metallicFactor":0,"roughnessFactor":0.903921569},"emissiveFactor":[0,0,0],"alphaMode":"BLEND","doubleSided":true},{"name":"mat_7","pbrMetallicRoughness":{"baseColorTexture":{"index":7},"baseColorFactor":[1,1,1,1],"metallicFactor":0,"roughnessFactor":0.903921569},"emissiveFactor":[0,0,0],"alphaMode":"BLEND","doubleSided":true},{"name":"mat_8","pbrMetallicRoughness":{"baseColorTexture":{"index":8},"baseColorFactor":[1,1,1,1],"metallicFactor":0,"roughnessFactor":0.903921569},"emissiveFactor":[0,0,0],"alphaMode":"BLEND","doubleSided":true},{"name":"mat_9","pbrMetallicRoughness":{"baseColorTexture":{"index":1},"baseColorFactor":[1,1,1,1],"metallicFactor":0,"roughnessFactor":0.903921569},"emissiveFactor":[0,0,0],"alphaMode":"BLEND","doubleSided":true}],"meshes":[{"name":"ohsubame-Mesh","primitives":[{"attributes":{"POSITION":0,"TEXCOORD_0":1},"indices":2,"material":0,"mode":4},{"attributes":{"POSITION":3,"TEXCOORD_0":4},"indices":5,"material":1,"mode":4},{"attributes":{"POSITION":6,"TEXCOORD_0":7},"indices":8,"material":2,"mode":4},{"attributes":{"POSITION":9,"TEXCOORD_0":10},"indices":11,"material":3,"mode":4},{"attributes":{"POSITION":12,"TEXCOORD_0":13},"indices":14,"material":4,"mode":4},{"attributes":{"POSITION":15,"TEXCOORD_0":16},"indices":17,"material":5,"mode":4},{"attributes":{"POSITION":18,"TEXCOORD_0":19},"indices":20,"material":6,"mode":4},{"attributes":{"POSITION":21,"TEXCOORD_0":22},"indices":23,"material":7,"mode":4},{"attributes":{"POSITION":24,"TEXCOORD_0":25},"indices":26,"material":8,"mode":4},{"attributes":{"POSITION":27,"TEXCOORD_0":28},"indices":29,"material":9,"mode":4}]}],"nodes":[{"name":"ohsubame","mesh":0}],"samplers":[{"wrapS":10497,"wrapT":10497}],"scene":0,"scenes":[{"nodes":[0]}],"textures":[{"name":"ohsubame_1_0","sampler":0,"source":0},{"name":"ohsubame_1_1","sampler":0,"source":1},{"name":"ohsubame_1_2","sampler":0,"source":2},{"name":"ohsubame_1_3","sampler":0,"source":3},{"name":"ohsubame_1_4","sampler":0,"source":4},{"name":"ohsubame_1_5","sampler":0,"source":5},{"name":"ohsubame_1_6","sampler":0,"source":6},{"name":"ohsubame_1_7","sampler":0,"source":7},{"name":"ohsubame_1_8","sampler":0,"source":8}]}