{"accessors":[{"name":"polygon0_1_0_positions","componentType":5126,"count":236,"min":[-0.34775999188423157,-0.28552699089050293,1.0067319869995117],"max":[0.34775999188423157,0.6011030077934265,2.8768439292907715],"type":"VEC3","bufferView":0,"byteOffset":0},{"name":"polygon0_1_0_normals","componentType":5126,"count":236,"min":[-0.9980902671813965,-0.9987801909446716,-0.6652233600616455],"max":[0.9980902671813965,0.998071551322937,0.9793046116828918],"type":"VEC3","bufferView":1,"byteOffset":0},{"name":"polygon0_1_0_texcoords","componentType":5126,"count":236,"min":[0.4422909915447235,0.030640000477433205],"max":[0.9831539988517761,0.4067380130290985],"type":"VEC2","bufferView":2,"byteOffset":0},{"name":"polygon0_1_0_indices","componentType":5123,"count":1080,"min":[0],"max":[235],"type":"SCALAR","bufferView":3,"byteOffset":0},{"name":"polygon1_1_0_positions","componentType":5126,"count":837,"min":[-7.2245330810546875,-0.7342730164527893,-2.97166109085083],"max":[7.224532127380371,1.1666209697723389,2.831073045730591],"type":"VEC3","bufferView":0,"byteOffset":2832},{"name":"polygon1_1_0_normals","componentType":5126,"count":837,"min":[-0.9996852874755859,-0.9999991655349731,-1],"max":[0.9996852874755859,0.9999991655349731,1],"type":"VEC3","bufferView":1,"byteOffset":2832},{"name":"polygon1_1_0_texcoords","componentType":5126,"count":837,"min":[0.01690700091421604,0.01773099973797798],"max":[0.9892269968986511,0.9860529899597168],"type":"VEC2","bufferView":2,"byteOffset":1888},{"name":"polygon1_1_0_indices","componentType":5123,"count":3558,"min":[0],"max":[836],"type":"SCALAR","bufferView":3,"byteOffset":2160},{"name":"polygon2_1_0_positions","componentType":5126,"count":16,"min":[-0.6613060235977173,0.28116899728775024,0.5845580101013184],"max":[0.6613060235977173,0.8549730181694031,1.0067319869995117],"type":"VEC3","bufferView":0,"byteOffset":12876},{"name":"polygon2_1_0_normals","componentType":5126,"count":16,"min":[-0.7128570675849915,0.21636395156383514,0.4750252068042755],"max":[0.7128570675849915,0.8305463790893555,0.7117138504981995],"type":"VEC3","bufferView":1,"byteOffset":12876},{"name":"polygon2_1_0_texcoords","componentType":5126,"count":16,"min":[1.0684510469436646,0.011566000059247017],"max":[1.457550048828125,0.233582004904747],"type":"VEC2","bufferView":2,"byteOffset":8584},{"name":"polygon2_1_0_indices","componentType":5123,"count":48,"min":[0],"max":[15],"type":"SCALAR","bufferView":3,"byteOffset":9276}],"asset":{"generator":"obj2gltf","version":"2.0"},"buffers":[{"name":"Wingull","byteLength":339168,"uri":"data:application/octet-stream;base64,"}],"bufferViews":[{"name":"bufferView_0","buffer":0,"byteLength":13068,"byteOffset":0,"byteStride":12,"target":34962},{"name":"bufferView_1","buffer":0,"byteLength":13068,"byteOffset":13068,"byteStride":12,"target":34962},{"name":"bufferView_2","buffer":0,"byteLength":8712,"byteOffset":26136,"byteStride":8,"target":34962},{"name":"bufferView_3","buffer":0,"byteLength":9372,"byteOffset":34848,"target":34963},{"buffer":0,"byteOffset":44220,"byteLength":196626},{"buffer":0,"byteOffset":240846,"byteLength":98322}],"images":[{"name":"CamomeDh","mimeType":"image/x-tga","bufferView":4},{"name":"CamomeEyeDh","mimeType":"image/x-tga","bufferView":5}],"materials":[{"name":"mat3","pbrMetallicRoughness":{"baseColorTexture":{"index":0},"baseColorFactor":[1,1,1,1],"metallicFactor":0,"roughnessFactor":0.99},"emissiveFactor":[0,0,0],"alphaMode":"OPAQUE","doubleSided":false},{"name":"mat1","pbrMetallicRoughness":{"baseColorTexture":{"index":0},"baseColorFactor":[1,1,1,1],"metallicFactor":0,"roughnessFactor":0.99},"emissiveFactor":[0,0,0],"alphaMode":"OPAQUE","doubleSided":false},{"name":"mat2","pbrMetallicRoughness":{"baseColorTexture":{"index":1},"baseColorFactor":[1,1,1,1],"metallicFactor":0,"roughnessFactor":0.99},"emissiveFactor":[0,0,0],"alphaMode":"OPAQUE","doubleSided":false}],"meshes":[{"name":"polygon0_1","primitives":[{"attributes":{"POSITION":0,"NORMAL":1,"TEXCOORD_0":2},"indices":3,"material":0,"mode":4}]},{"name":"polygon1_1","primitives":[{"attributes":{"POSITION":4,"NORMAL":5,"TEXCOORD_0":6},"indices":7,"material":1,"mode":4}]},{"name":"polygon2_1","primitives":[{"attributes":{"POSITION":8,"NORMAL":9,"TEXCOORD_0":10},"indices":11,"material":2,"mode":4}]}],"nodes":[{"name":"polygon0","mesh":0},{"name":"polygon1","mesh":1},{"name":"polygon2","mesh":2}],"samplers":[{"wrapS":10497,"wrapT":10497}],"scene":0,"scenes":[{"nodes":[0,1,2]}],"textures":[{"name":"CamomeDh","sampler":0,"source":0},{"name":"CamomeEyeDh","sampler":0,"source":1}]}