{"accessors":[{"name":"polygon0_1_0_positions","componentType":5126,"count":24,"min":[-1.6556400060653687,8.965139389038086,2.0227251052856445],"max":[1.6556400060653687,10.738332748413086,3.0333449840545654],"type":"VEC3","bufferView":0,"byteOffset":0},{"name":"polygon0_1_0_normals","componentType":5126,"count":24,"min":[-0.9531377553939819,-0.48052018880844116,0.30109092593193054],"max":[0.9531377553939819,0.5045059323310852,0.834522008895874],"type":"VEC3","bufferView":1,"byteOffset":0},{"name":"polygon0_1_0_texcoords","componentType":5126,"count":24,"min":[0.018828999251127243,-0.019958000630140305],"max":[0.4788210093975067,0.24841299653053284],"type":"VEC2","bufferView":2,"byteOffset":0},{"name":"polygon0_1_0_indices","componentType":5123,"count":78,"min":[0],"max":[23],"type":"SCALAR","bufferView":3,"byteOffset":0},{"name":"polygon1_1_0_positions","componentType":5126,"count":846,"min":[-13.692914009094238,-0.10618899762630463,-5.532623767852783],"max":[13.692917823791504,11.893606185913086,9.560012817382812],"type":"VEC3","bufferView":0,"byteOffset":288},{"name":"polygon1_1_0_normals","componentType":5126,"count":846,"min":[-1,-0.9999957084655762,-0.9999790787696838],"max":[1,1,0.9999327659606934],"type":"VEC3","bufferView":1,"byteOffset":288},{"name":"polygon1_1_0_texcoords","componentType":5126,"count":846,"min":[0.0083619998767972,0.0038449999410659075],"max":[0.9931949973106384,0.9905700087547302],"type":"VEC2","bufferView":2,"byteOffset":192},{"name":"polygon1_1_0_indices","componentType":5123,"count":4494,"min":[0],"max":[845],"type":"SCALAR","bufferView":3,"byteOffset":156}],"asset":{"generator":"obj2gltf","version":"2.0"},"buffers":[{"name":"Pelipper","byteLength":331932,"uri":"data:application/octet-stream;base64,"}],"bufferViews":[{"name":"bufferView_0","buffer":0,"byteLength":10440,"byteOffset":0,"byteStride":12,"target":34962},{"name":"bufferView_1","buffer":0,"byteLength":10440,"byteOffset":10440,"byteStride":12,"target":34962},{"name":"bufferView_2","buffer":0,"byteLength":6960,"byteOffset":20880,"byteStride":8,"target":34962},{"name":"bufferView_3","buffer":0,"byteLength":9144,"byteOffset":27840,"target":34963},{"buffer":0,"byteOffset":36984,"byteLength":98322},{"buffer":0,"byteOffset":135306,"byteLength":196626}],"images":[{"name":"PelipperEyeDh","mimeType":"image/x-tga","bufferView":4},{"name":"PelipperDh","mimeType":"image/x-tga","bufferView":5}],"materials":[{"name":"mat2","pbrMetallicRoughness":{"baseColorTexture":{"index":0},"baseColorFactor":[1,1,1,1],"metallicFactor":0,"roughnessFactor":0.99},"emissiveFactor":[0,0,0],"alphaMode":"OPAQUE","doubleSided":false},{"name":"mat1","pbrMetallicRoughness":{"baseColorTexture":{"index":1},"baseColorFactor":[1,1,1,1],"metallicFactor":0,"roughnessFactor":0.99},"emissiveFactor":[0,0,0],"alphaMode":"OPAQUE","doubleSided":false}],"meshes":[{"name":"polygon0_1","primitives":[{"attributes":{"POSITION":0,"NORMAL":1,"TEXCOORD_0":2},"indices":3,"material":0,"mode":4}]},{"name":"polygon1_1","primitives":[{"attributes":{"POSITION":4,"NORMAL":5,"TEXCOORD_0":6},"indices":7,"material":1,"mode":4}]}],"nodes":[{"name":"polygon0","mesh":0},{"name":"polygon1","mesh":1}],"samplers":[{"wrapS":10497,"wrapT":10497}],"scene":0,"scenes":[{"nodes":[0,1]}],"textures":[{"name":"PelipperEyeDh","sampler":0,"source":0},{"name":"PelipperDh","sampler":0,"source":1}]}