{"accessors":[{"name":"ralts-Mesh_0_positions","componentType":5126,"count":236,"min":[-3.066390037536621,-2.9331700801849365,-6.979919910430908],"max":[3.066390037536621,1.8316600322723389,0.000007000000096013537],"type":"VEC3","bufferView":0,"byteOffset":0},{"name":"ralts-Mesh_0_texcoords","componentType":5126,"count":236,"min":[0,0],"max":[1,1],"type":"VEC2","bufferView":1,"byteOffset":0},{"name":"ralts-Mesh_0_indices","componentType":5123,"count":1302,"min":[0],"max":[235],"type":"SCALAR","bufferView":2,"byteOffset":0},{"name":"ralts-Mesh_1_positions","componentType":5126,"count":15,"min":[-1.9485599994659424,1.0393600463867188,-6.979919910430908],"max":[1.9485599994659424,2.25,-5.257840156555176],"type":"VEC3","bufferView":0,"byteOffset":2832},{"name":"ralts-Mesh_1_texcoords","componentType":5126,"count":15,"min":[-0.25,0],"max":[1,0.12304700165987015],"type":"VEC2","bufferView":1,"byteOffset":1888},{"name":"ralts-Mesh_1_indices","componentType":5123,"count":48,"min":[0],"max":[14],"type":"SCALAR","bufferView":2,"byteOffset":2604},{"name":"ralts-Mesh_2_positions","componentType":5126,"count":9,"min":[-1.0575100183486938,0.832177996635437,-5.257840156555176],"max":[1.0575100183486938,2.1150100231170654,-4.040160179138184],"type":"VEC3","bufferView":0,"byteOffset":3012},{"name":"ralts-Mesh_2_texcoords","componentType":5126,"count":9,"min":[9.999999974752427e-7,0],"max":[1,0.25],"type":"VEC2","bufferView":1,"byteOffset":2008},{"name":"ralts-Mesh_2_indices","componentType":5123,"count":24,"min":[0],"max":[8],"type":"SCALAR","bufferView":2,"byteOffset":2700}],"asset":{"generator":"obj2gltf","version":"2.0"},"buffers":[{"name":"BR_Ralts-Shiny01","byteLength":205636,"uri":"data:application/octet-stream;base64,"}],"bufferViews":[{"name":"bufferView_0","buffer":0,"byteLength":3120,"byteOffset":0,"byteStride":12,"target":34962},{"name":"bufferView_1","buffer":0,"byteLength":2080,"byteOffset":3120,"byteStride":8,"target":34962},{"name":"bufferView_2","buffer":0,"byteLength":2748,"byteOffset":5200,"target":34963},{"buffer":0,"byteOffset":7948,"byteLength":1042},{"buffer":0,"byteOffset":8990,"byteLength":131090},{"buffer":0,"byteOffset":140080,"byteLength":65554}],"images":[{"name":"ralts_1_0","mimeType":"image/x-tga","bufferView":3},{"name":"ralts_1_1","mimeType":"image/x-tga","bufferView":4},{"name":"ralts_1_2","mimeType":"image/x-tga","bufferView":5}],"materials":[{"name":"mat_0","pbrMetallicRoughness":{"baseColorTexture":{"index":0},"baseColorFactor":[1,1,1,1],"metallicFactor":0,"roughnessFactor":0.903921569},"emissiveFactor":[0,0,0],"alphaMode":"BLEND","doubleSided":true},{"name":"mat_1","pbrMetallicRoughness":{"baseColorTexture":{"index":1},"baseColorFactor":[1,1,1,1],"metallicFactor":0,"roughnessFactor":0.903921569},"emissiveFactor":[0,0,0],"alphaMode":"BLEND","doubleSided":true},{"name":"mat_2","pbrMetallicRoughness":{"baseColorTexture":{"index":2},"baseColorFactor":[1,1,1,1],"metallicFactor":0,"roughnessFactor":0.903921569},"emissiveFactor":[0,0,0],"alphaMode":"BLEND","doubleSided":true}],"meshes":[{"name":"ralts-Mesh","primitives":[{"attributes":{"POSITION":0,"TEXCOORD_0":1},"indices":2,"material":0,"mode":4},{"attributes":{"POSITION":3,"TEXCOORD_0":4},"indices":5,"material":1,"mode":4},{"attributes":{"POSITION":6,"TEXCOORD_0":7},"indices":8,"material":2,"mode":4}]}],"nodes":[{"name":"ralts","mesh":0}],"samplers":[{"wrapS":10497,"wrapT":10497}],"scene":0,"scenes":[{"nodes":[0]}],"textures":[{"name":"ralts_1_0","sampler":0,"source":0},{"name":"ralts_1_1","sampler":0,"source":1},{"name":"ralts_1_2","sampler":0,"source":2}]}