{"accessors":[{"name":"polygon0_1_0_positions","componentType":5126,"count":18,"min":[-0.5251299738883972,5.179915904998779,0.40272799134254456],"max":[0.5251290202140808,5.489863872528076,1.1152030229568481],"type":"VEC3","bufferView":0,"byteOffset":0},{"name":"polygon0_1_0_normals","componentType":5126,"count":18,"min":[-0.37633711099624634,-0.9917673468589783,0.10241702198982239],"max":[0.37633711099624634,-0.7899108529090881,0.5641648769378662],"type":"VEC3","bufferView":1,"byteOffset":0},{"name":"polygon0_1_0_texcoords","componentType":5126,"count":18,"min":[0.014922999776899815,0.0014649999793618917],"max":[0.5934749841690063,0.2509770095348358],"type":"VEC2","bufferView":2,"byteOffset":0},{"name":"polygon0_1_0_indices","componentType":5123,"count":66,"min":[0],"max":[17],"type":"SCALAR","bufferView":3,"byteOffset":0},{"name":"polygon1_1_0_positions","componentType":5126,"count":954,"min":[-3.516110897064209,0.010374999605119228,-1.8163870573043823],"max":[3.5161080360412598,8.506792068481445,1.959723949432373],"type":"VEC3","bufferView":0,"byteOffset":216},{"name":"polygon1_1_0_normals","componentType":5126,"count":954,"min":[-0.9995389580726624,-0.9999995827674866,-0.9998701810836792],"max":[0.9995389580726624,1,0.9991632103919983],"type":"VEC3","bufferView":1,"byteOffset":216},{"name":"polygon1_1_0_texcoords","componentType":5126,"count":954,"min":[0.0037380000576376915,0.0020290000829845667],"max":[0.4987179934978485,0.4987179934978485],"type":"VEC2","bufferView":2,"byteOffset":144},{"name":"polygon1_1_0_indices","componentType":5123,"count":4170,"min":[0],"max":[953],"type":"SCALAR","bufferView":3,"byteOffset":132},{"name":"polygon2_1_0_positions","componentType":5126,"count":63,"min":[-1.3555259704589844,5.4234299659729,0.39077699184417725],"max":[1.355523943901062,6.6089558601379395,1.3711329698562622],"type":"VEC3","bufferView":0,"byteOffset":11664},{"name":"polygon2_1_0_normals","componentType":5126,"count":63,"min":[-0.9884582757949829,-0.8392376899719238,0.10790898650884628],"max":[0.9884582757949829,-0.06317102164030075,0.8977053165435791],"type":"VEC3","bufferView":1,"byteOffset":11664},{"name":"polygon2_1_0_texcoords","componentType":5126,"count":63,"min":[0.019531000405550003,0.03515600040555],"max":[0.4921880066394806,0.2421869933605194],"type":"VEC2","bufferView":2,"byteOffset":7776},{"name":"polygon2_1_0_indices","componentType":5123,"count":282,"min":[0],"max":[62],"type":"SCALAR","bufferView":3,"byteOffset":8472}],"asset":{"generator":"obj2gltf","version":"2.0"},"buffers":[{"name":"Kirlia","byteLength":386276,"uri":"data:application/octet-stream;base64,"}],"bufferViews":[{"name":"bufferView_0","buffer":0,"byteLength":12420,"byteOffset":0,"byteStride":12,"target":34962},{"name":"bufferView_1","buffer":0,"byteLength":12420,"byteOffset":12420,"byteStride":12,"target":34962},{"name":"bufferView_2","buffer":0,"byteLength":8280,"byteOffset":24840,"byteStride":8,"target":34962},{"name":"bufferView_3","buffer":0,"byteLength":9036,"byteOffset":33120,"target":34963},{"buffer":0,"byteOffset":42156,"byteLength":49170},{"buffer":0,"byteOffset":91326,"byteLength":196626},{"buffer":0,"byteOffset":287952,"byteLength":98322}],"images":[{"name":"KirliaMouthDh","mimeType":"image/x-tga","bufferView":4},{"name":"KirliaDh","mimeType":"image/x-tga","bufferView":5},{"name":"KirliaEyeDh","mimeType":"image/x-tga","bufferView":6}],"materials":[{"name":"mat3","pbrMetallicRoughness":{"baseColorTexture":{"index":0},"baseColorFactor":[1,1,1,1],"metallicFactor":0,"roughnessFactor":0.99},"emissiveFactor":[0,0,0],"alphaMode":"OPAQUE","doubleSided":false},{"name":"mat1","pbrMetallicRoughness":{"baseColorTexture":{"index":1},"baseColorFactor":[1,1,1,1],"metallicFactor":0,"roughnessFactor":0.99},"emissiveFactor":[0,0,0],"alphaMode":"OPAQUE","doubleSided":false},{"name":"mat2","pbrMetallicRoughness":{"baseColorTexture":{"index":2},"baseColorFactor":[1,1,1,1],"metallicFactor":0,"roughnessFactor":0.99},"emissiveFactor":[0,0,0],"alphaMode":"OPAQUE","doubleSided":false}],"meshes":[{"name":"polygon0_1","primitives":[{"attributes":{"POSITION":0,"NORMAL":1,"TEXCOORD_0":2},"indices":3,"material":0,"mode":4}]},{"name":"polygon1_1","primitives":[{"attributes":{"POSITION":4,"NORMAL":5,"TEXCOORD_0":6},"indices":7,"material":1,"mode":4}]},{"name":"polygon2_1","primitives":[{"attributes":{"POSITION":8,"NORMAL":9,"TEXCOORD_0":10},"indices":11,"material":2,"mode":4}]}],"nodes":[{"name":"polygon0","mesh":0},{"name":"polygon1","mesh":1},{"name":"polygon2","mesh":2}],"samplers":[{"wrapS":10497,"wrapT":10497}],"scene":0,"scenes":[{"nodes":[0,1,2]}],"textures":[{"name":"KirliaMouthDh","sampler":0,"source":0},{"name":"KirliaDh","sampler":0,"source":1},{"name":"KirliaEyeDh","sampler":0,"source":2}]}