{"accessors":[{"name":"sirnight-Mesh_0_positions","componentType":5126,"count":1082,"min":[-7.536808013916016,-6.45147180557251,-15.921977043151855],"max":[7.536808013916016,2.9993979930877686,1.5483750104904175],"type":"VEC3","bufferView":0,"byteOffset":0},{"name":"sirnight-Mesh_0_texcoords","componentType":5126,"count":1082,"min":[0.024754999205470085,-0.016280999407172203],"max":[0.9723899960517883,0.9987329840660095],"type":"VEC2","bufferView":1,"byteOffset":0},{"name":"sirnight-Mesh_0_indices","componentType":5123,"count":4614,"min":[0],"max":[1081],"type":"SCALAR","bufferView":2,"byteOffset":0},{"name":"sirnight-Mesh_1_positions","componentType":5126,"count":36,"min":[-1.6667859554290771,0.9125630259513855,-13.49056625366211],"max":[1.6667859554290771,1.7666079998016357,-12.288179397583008],"type":"VEC3","bufferView":0,"byteOffset":12984},{"name":"sirnight-Mesh_1_texcoords","componentType":5126,"count":36,"min":[1.1200850009918213,0.0014319999609142542],"max":[2.0315890312194824,0.08944699913263321],"type":"VEC2","bufferView":1,"byteOffset":8656},{"name":"sirnight-Mesh_1_indices","componentType":5123,"count":120,"min":[0],"max":[35],"type":"SCALAR","bufferView":2,"byteOffset":9228},{"name":"sirnight-Mesh_2_positions","componentType":5126,"count":17,"min":[-0.7536399960517883,0.12363000214099884,-12.342185020446777],"max":[0.7536399960517883,1.7666079998016357,-11.696370124816895],"type":"VEC3","bufferView":0,"byteOffset":13416},{"name":"sirnight-Mesh_2_texcoords","componentType":5126,"count":17,"min":[-2.502084970474243,0.0023590000346302986],"max":[-1.9927159547805786,0.24465300142765045],"type":"VEC2","bufferView":1,"byteOffset":8944},{"name":"sirnight-Mesh_2_indices","componentType":5123,"count":60,"min":[0],"max":[16],"type":"SCALAR","bufferView":2,"byteOffset":9468}],"asset":{"generator":"obj2gltf","version":"2.0"},"buffers":[{"name":"BR_Sirnight-Shiny01","byteLength":32288,"uri":"data:application/octet-stream;base64,"}],"bufferViews":[{"name":"bufferView_0","buffer":0,"byteLength":13620,"byteOffset":0,"byteStride":12,"target":34962},{"name":"bufferView_1","buffer":0,"byteLength":9080,"byteOffset":13620,"byteStride":8,"target":34962},{"name":"bufferView_2","buffer":0,"byteLength":9588,"byteOffset":22700,"target":34963}],"materials":[{"name":"mat_0","pbrMetallicRoughness":{"baseColorFactor":[0.8,0.8,0.8,1],"metallicFactor":0,"roughnessFactor":0.903921569},"emissiveFactor":[0,0,0],"alphaMode":"OPAQUE","doubleSided":false},{"name":"mat_1","pbrMetallicRoughness":{"baseColorFactor":[0.8,0.8,0.8,1],"metallicFactor":0,"roughnessFactor":0.903921569},"emissiveFactor":[0,0,0],"alphaMode":"OPAQUE","doubleSided":false},{"name":"mat_2","pbrMetallicRoughness":{"baseColorFactor":[0.8,0.8,0.8,1],"metallicFactor":0,"roughnessFactor":0.903921569},"emissiveFactor":[0,0,0],"alphaMode":"OPAQUE","doubleSided":false}],"meshes":[{"name":"sirnight-Mesh","primitives":[{"attributes":{"POSITION":0,"TEXCOORD_0":1},"indices":2,"material":0,"mode":4},{"attributes":{"POSITION":3,"TEXCOORD_0":4},"indices":5,"material":1,"mode":4},{"attributes":{"POSITION":6,"TEXCOORD_0":7},"indices":8,"material":2,"mode":4}]}],"nodes":[{"name":"sirnight","mesh":0}],"scene":0,"scenes":[{"nodes":[0]}]}