{"accessors":[{"name":"Gardevoir_1_0_positions","componentType":5126,"count":114,"min":[-6.723050117492676,122.51300048828125,1.5397789478302002],"max":[6.723050117492676,128.3769989013672,11.400099754333496],"type":"VEC3","bufferView":0,"byteOffset":0},{"name":"Gardevoir_1_0_normals","componentType":5126,"count":114,"min":[-0.38814395666122437,-0.9887213110923767,0.08997401595115662],"max":[0,-0.7752074003219604,0.5458007454872131],"type":"VEC3","bufferView":1,"byteOffset":0},{"name":"Gardevoir_1_0_texcoords","componentType":5126,"count":114,"min":[0.11401599645614624,-2.9927399158477783],"max":[0.3859800100326538,-2.757810115814209],"type":"VEC2","bufferView":2,"byteOffset":0},{"name":"Gardevoir_1_0_indices","componentType":5123,"count":114,"min":[0],"max":[113],"type":"SCALAR","bufferView":3,"byteOffset":0},{"name":"Gardevoir_1_1_positions","componentType":5126,"count":7404,"min":[-41.22269821166992,-33.077919006347656,-94.07640838623047],"max":[41.22269821166992,122.70401000976562,16.198701858520508],"type":"VEC3","bufferView":0,"byteOffset":1368},{"name":"Gardevoir_1_1_normals","componentType":5126,"count":7404,"min":[-0.9909024834632874,-0.9887213110923767,-0.9939367771148682],"max":[0.9890633225440979,0.982140064239502,0.9999808669090271],"type":"VEC3","bufferView":1,"byteOffset":1368},{"name":"Gardevoir_1_1_texcoords","componentType":5126,"count":7404,"min":[0.007813000120222569,0.011605000123381615],"max":[0.9921879768371582,0.9882540106773376],"type":"VEC2","bufferView":2,"byteOffset":912},{"name":"Gardevoir_1_1_indices","componentType":5123,"count":7404,"min":[0],"max":[7403],"type":"SCALAR","bufferView":3,"byteOffset":228},{"name":"Gardevoir_1_2_positions","componentType":5126,"count":9450,"min":[-79.56568908691406,-9.999999974752427e-7,-24.47050666809082],"max":[79.56571197509766,158.5970001220703,21.074203491210938],"type":"VEC3","bufferView":0,"byteOffset":90216},{"name":"Gardevoir_1_2_normals","componentType":5126,"count":9450,"min":[-0.99289870262146,-0.997599184513092,-0.9995717406272888],"max":[0.9908140301704407,0.9133167266845703,0.9996840953826904],"type":"VEC3","bufferView":1,"byteOffset":90216},{"name":"Gardevoir_1_2_texcoords","componentType":5126,"count":9450,"min":[0.010201999917626381,-0.9921900033950806],"max":[0.9897980093955994,-0.011719999834895134],"type":"VEC2","bufferView":2,"byteOffset":60144},{"name":"Gardevoir_1_2_indices","componentType":5123,"count":9450,"min":[0],"max":[9449],"type":"SCALAR","bufferView":3,"byteOffset":15036},{"name":"Gardevoir_1_3_positions","componentType":5126,"count":354,"min":[-16.599300384521484,124.01100158691406,1.5397789478302002],"max":[16.599300384521484,139.16001892089844,11.558196067810059],"type":"VEC3","bufferView":0,"byteOffset":203616},{"name":"Gardevoir_1_3_normals","componentType":5126,"count":354,"min":[-0.9383484721183777,-0.9887213110923767,-0.8882380723953247],"max":[0.8821199536323547,0.40827593207359314,0.9792650938034058],"type":"VEC3","bufferView":1,"byteOffset":203616},{"name":"Gardevoir_1_3_texcoords","componentType":5126,"count":354,"min":[0.004556000232696533,-1.9378999471664429],"max":[0.4954400062561035,-1.7964799404144287],"type":"VEC2","bufferView":2,"byteOffset":135744},{"name":"Gardevoir_1_3_indices","componentType":5123,"count":354,"min":[0],"max":[353],"type":"SCALAR","bufferView":3,"byteOffset":33936}],"asset":{"generator":"obj2gltf","version":"2.0"},"buffers":[{"name":"XY_Gardevoir","byteLength":708100,"uri":"data:application/octet-stream;base64,"}],"bufferViews":[{"name":"bufferView_0","buffer":0,"byteLength":207864,"byteOffset":0,"byteStride":12,"target":34962},{"name":"bufferView_1","buffer":0,"byteLength":207864,"byteOffset":207864,"byteStride":12,"target":34962},{"name":"bufferView_2","buffer":0,"byteLength":138576,"byteOffset":415728,"byteStride":8,"target":34962},{"name":"bufferView_3","buffer":0,"byteLength":34644,"byteOffset":554304,"target":34963},{"buffer":0,"byteOffset":588948,"byteLength":18246},{"buffer":0,"byteOffset":607194,"byteLength":35947},{"buffer":0,"byteOffset":643141,"byteLength":35506},{"buffer":0,"byteOffset":678647,"byteLength":29451}],"images":[{"name":"pm0282_00_Mouth1","mimeType":"image/png","bufferView":4},{"name":"pm0282_00_BodyA1","mimeType":"image/png","bufferView":5},{"name":"pm0282_00_BodyB1","mimeType":"image/png","bufferView":6},{"name":"pm0282_00_Eye1","mimeType":"image/png","bufferView":7}],"materials":[{"name":"Material__61","pbrMetallicRoughness":{"baseColorTexture":{"index":0},"baseColorFactor":[1,1,1,1],"metallicFactor":0,"roughnessFactor":0.998},"emissiveFactor":[0,0,0],"alphaMode":"OPAQUE","doubleSided":false},{"name":"Material__62","pbrMetallicRoughness":{"baseColorTexture":{"index":1},"baseColorFactor":[1,1,1,1],"metallicFactor":0,"roughnessFactor":0.998},"emissiveFactor":[0,0,0],"alphaMode":"OPAQUE","doubleSided":false},{"name":"Material__63","pbrMetallicRoughness":{"baseColorTexture":{"index":2},"baseColorFactor":[1,1,1,1],"metallicFactor":0,"roughnessFactor":0.998},"emissiveFactor":[0,0,0],"alphaMode":"OPAQUE","doubleSided":false},{"name":"Material__64","pbrMetallicRoughness":{"baseColorTexture":{"index":3},"baseColorFactor":[1,1,1,1],"metallicFactor":0,"roughnessFactor":0.998},"emissiveFactor":[0,0,0],"alphaMode":"OPAQUE","doubleSided":false}],"meshes":[{"name":"Gardevoir_1","primitives":[{"attributes":{"POSITION":0,"NORMAL":1,"TEXCOORD_0":2},"indices":3,"material":0,"mode":4},{"attributes":{"POSITION":4,"NORMAL":5,"TEXCOORD_0":6},"indices":7,"material":1,"mode":4},{"attributes":{"POSITION":8,"NORMAL":9,"TEXCOORD_0":10},"indices":11,"material":2,"mode":4},{"attributes":{"POSITION":12,"NORMAL":13,"TEXCOORD_0":14},"indices":15,"material":3,"mode":4}]}],"nodes":[{"name":"Gardevoir","mesh":0}],"samplers":[{"wrapS":10497,"wrapT":10497}],"scene":0,"scenes":[{"nodes":[0]}],"textures":[{"name":"pm0282_00_Mouth1","sampler":0,"source":0},{"name":"pm0282_00_BodyA1","sampler":0,"source":1},{"name":"pm0282_00_BodyB1","sampler":0,"source":2},{"name":"pm0282_00_Eye1","sampler":0,"source":3}]}