{"accessors":[{"name":"ametama-Mesh_0_positions","componentType":5126,"count":321,"min":[-3.5507400035858154,-2.3187599182128906,-3.0276200771331787],"max":[3.5507400035858154,2.3187599182128906,0],"type":"VEC3","bufferView":0,"byteOffset":0},{"name":"ametama-Mesh_0_texcoords","componentType":5126,"count":321,"min":[0,0],"max":[1,1],"type":"VEC2","bufferView":1,"byteOffset":0},{"name":"ametama-Mesh_0_indices","componentType":5123,"count":1692,"min":[0],"max":[320],"type":"SCALAR","bufferView":2,"byteOffset":0},{"name":"ametama-Mesh_1_positions","componentType":5126,"count":69,"min":[-1.2844899892807007,-1.2844899892807007,-5.10359001159668],"max":[1.2844899892807007,1.2844899892807007,-3.0276200771331787],"type":"VEC3","bufferView":0,"byteOffset":3852},{"name":"ametama-Mesh_1_texcoords","componentType":5126,"count":69,"min":[0.007813000120222569,-0.061319999396800995],"max":[1,0.9921870231628418],"type":"VEC2","bufferView":1,"byteOffset":2568},{"name":"ametama-Mesh_1_indices","componentType":5123,"count":324,"min":[0],"max":[68],"type":"SCALAR","bufferView":2,"byteOffset":3384},{"name":"ametama-Mesh_2_positions","componentType":5126,"count":25,"min":[-1.2844899892807007,0.6422439813613892,-3.0276200771331787],"max":[1.2844899892807007,1.483199954032898,-2.1915500164031982],"type":"VEC3","bufferView":0,"byteOffset":4680},{"name":"ametama-Mesh_2_texcoords","componentType":5126,"count":25,"min":[-0.7009689807891846,0.0036100000143051147],"max":[1.5062099695205688,0.1056779995560646],"type":"VEC2","bufferView":1,"byteOffset":3120},{"name":"ametama-Mesh_2_indices","componentType":5123,"count":72,"min":[0],"max":[24],"type":"SCALAR","bufferView":2,"byteOffset":4032}],"asset":{"generator":"obj2gltf","version":"2.0"},"buffers":[{"name":"BR_Surskit-Shiny01","byteLength":242932,"uri":"data:application/octet-stream;base64,"}],"bufferViews":[{"name":"bufferView_0","buffer":0,"byteLength":4980,"byteOffset":0,"byteStride":12,"target":34962},{"name":"bufferView_1","buffer":0,"byteLength":3320,"byteOffset":4980,"byteStride":8,"target":34962},{"name":"bufferView_2","buffer":0,"byteLength":4176,"byteOffset":8300,"target":34963},{"buffer":0,"byteOffset":12476,"byteLength":1042},{"buffer":0,"byteOffset":13518,"byteLength":65554},{"buffer":0,"byteOffset":79072,"byteLength":163858}],"images":[{"name":"ametama_1_0","mimeType":"image/x-tga","bufferView":3},{"name":"ametama_1_1","mimeType":"image/x-tga","bufferView":4},{"name":"ametama_1_2","mimeType":"image/x-tga","bufferView":5}],"materials":[{"name":"mat_0","pbrMetallicRoughness":{"baseColorTexture":{"index":0},"baseColorFactor":[1,1,1,1],"metallicFactor":0,"roughnessFactor":0.903921569},"emissiveFactor":[0,0,0],"alphaMode":"BLEND","doubleSided":true},{"name":"mat_1","pbrMetallicRoughness":{"baseColorTexture":{"index":1},"baseColorFactor":[1,1,1,1],"metallicFactor":0,"roughnessFactor":0.903921569},"emissiveFactor":[0,0,0],"alphaMode":"BLEND","doubleSided":true},{"name":"mat_2","pbrMetallicRoughness":{"baseColorTexture":{"index":2},"baseColorFactor":[1,1,1,1],"metallicFactor":0,"roughnessFactor":0.903921569},"emissiveFactor":[0,0,0],"alphaMode":"BLEND","doubleSided":true}],"meshes":[{"name":"ametama-Mesh","primitives":[{"attributes":{"POSITION":0,"TEXCOORD_0":1},"indices":2,"material":0,"mode":4},{"attributes":{"POSITION":3,"TEXCOORD_0":4},"indices":5,"material":1,"mode":4},{"attributes":{"POSITION":6,"TEXCOORD_0":7},"indices":8,"material":2,"mode":4}]}],"nodes":[{"name":"ametama","mesh":0}],"samplers":[{"wrapS":10497,"wrapT":10497}],"scene":0,"scenes":[{"nodes":[0]}],"textures":[{"name":"ametama_1_0","sampler":0,"source":0},{"name":"ametama_1_1","sampler":0,"source":1},{"name":"ametama_1_2","sampler":0,"source":2}]}