{"accessors":[{"name":"amemoth-Mesh_0_positions","componentType":5126,"count":16,"min":[-3.7263500690460205,-1.362130045890808,-1.617419958114624],"max":[3.7263500690460205,-0.7878680229187012,-0.7325770258903503],"type":"VEC3","bufferView":0,"byteOffset":0},{"name":"amemoth-Mesh_0_texcoords","componentType":5126,"count":16,"min":[0.21884900331497192,0.21875],"max":[0.8196690082550049,0.8049880266189575],"type":"VEC2","bufferView":1,"byteOffset":0},{"name":"amemoth-Mesh_0_indices","componentType":5123,"count":24,"min":[0],"max":[15],"type":"SCALAR","bufferView":2,"byteOffset":0},{"name":"amemoth-Mesh_1_positions","componentType":5126,"count":4,"min":[-0.9709190130233765,0.5960019826889038,-2.3558099269866943],"max":[0.9592620134353638,0.6840019822120667,-2.0823099613189697],"type":"VEC3","bufferView":0,"byteOffset":192},{"name":"amemoth-Mesh_1_texcoords","componentType":5126,"count":4,"min":[0.21884900331497192,0.21875],"max":[0.8125,0.8049880266189575],"type":"VEC2","bufferView":1,"byteOffset":128},{"name":"amemoth-Mesh_1_indices","componentType":5123,"count":6,"min":[0],"max":[3],"type":"SCALAR","bufferView":2,"byteOffset":48},{"name":"amemoth-Mesh_2_positions","componentType":5126,"count":103,"min":[-1.024999976158142,-1.9520000219345093,-6.393099784851074],"max":[1.024999976158142,0.774262011051178,-0.6263769865036011],"type":"VEC3","bufferView":0,"byteOffset":240},{"name":"amemoth-Mesh_2_texcoords","componentType":5126,"count":103,"min":[0,0],"max":[1,1],"type":"VEC2","bufferView":1,"byteOffset":160},{"name":"amemoth-Mesh_2_indices","componentType":5123,"count":528,"min":[0],"max":[102],"type":"SCALAR","bufferView":2,"byteOffset":60},{"name":"amemoth-Mesh_3_positions","componentType":5126,"count":12,"min":[-0.7950000166893005,-1.8167799711227417,-1.8311200141906738],"max":[0.7950000166893005,-0.8391860127449036,-1.0809500217437744],"type":"VEC3","bufferView":0,"byteOffset":1476},{"name":"amemoth-Mesh_3_texcoords","componentType":5126,"count":12,"min":[-0.6636800169944763,-0.12710000574588776],"max":[1.6631900072097778,1.1333839893341064],"type":"VEC2","bufferView":1,"byteOffset":984},{"name":"amemoth-Mesh_3_indices","componentType":5123,"count":36,"min":[0],"max":[11],"type":"SCALAR","bufferView":2,"byteOffset":1116},{"name":"amemoth-Mesh_4_positions","componentType":5126,"count":36,"min":[-4.963290214538574,-1.5315899848937988,-7.1597900390625],"max":[4.963290214538574,0.24999800324440002,-2.464440107345581],"type":"VEC3","bufferView":0,"byteOffset":1620},{"name":"amemoth-Mesh_4_texcoords","componentType":5126,"count":36,"min":[0,0],"max":[1,1],"type":"VEC2","bufferView":1,"byteOffset":1080},{"name":"amemoth-Mesh_4_indices","componentType":5123,"count":96,"min":[0],"max":[35],"type":"SCALAR","bufferView":2,"byteOffset":1188},{"name":"amemoth-Mesh_5_positions","componentType":5126,"count":148,"min":[-4.954740047454834,-1.265470027923584,-6.247900009155273],"max":[4.954740047454834,0.14564600586891174,-2.012010097503662],"type":"VEC3","bufferView":0,"byteOffset":2052},{"name":"amemoth-Mesh_5_texcoords","componentType":5126,"count":148,"min":[0.0006259999936446548,-0.12151999771595001],"max":[0.8035699725151062,1.1188520193099976],"type":"VEC2","bufferView":1,"byteOffset":1368},{"name":"amemoth-Mesh_5_indices","componentType":5123,"count":792,"min":[0],"max":[147],"type":"SCALAR","bufferView":2,"byteOffset":1380},{"name":"amemoth-Mesh_6_positions","componentType":5126,"count":25,"min":[-1.024999976158142,-0.08201999962329865,-2.59089994430542],"max":[1.024999976158142,0.8990219831466675,-1.229640007019043],"type":"VEC3","bufferView":0,"byteOffset":3828},{"name":"amemoth-Mesh_6_texcoords","componentType":5126,"count":25,"min":[-0.36111798882484436,-0.34248000383377075],"max":[1.3767399787902832,1.1105879545211792],"type":"VEC2","bufferView":1,"byteOffset":2552},{"name":"amemoth-Mesh_6_indices","componentType":5123,"count":96,"min":[0],"max":[24],"type":"SCALAR","bufferView":2,"byteOffset":2964}],"asset":{"generator":"obj2gltf","version":"2.0"},"buffers":[{"name":"BR_Masquerain-Shiny01","byteLength":112672,"uri":"data:application/octet-stream;base64,"}],"bufferViews":[{"name":"bufferView_0","buffer":0,"byteLength":4128,"byteOffset":0,"byteStride":12,"target":34962},{"name":"bufferView_1","buffer":0,"byteLength":2752,"byteOffset":4128,"byteStride":8,"target":34962},{"name":"bufferView_2","buffer":0,"byteLength":3156,"byteOffset":6880,"target":34963},{"buffer":0,"byteOffset":10036,"byteLength":16402},{"buffer":0,"byteOffset":26438,"byteLength":82},{"buffer":0,"byteOffset":26520,"byteLength":4114},{"buffer":0,"byteOffset":30634,"byteLength":82},{"buffer":0,"byteOffset":30716,"byteLength":65554},{"buffer":0,"byteOffset":96270,"byteLength":16402}],"images":[{"name":"amemoth_1_0","mimeType":"image/x-tga","bufferView":3},{"name":"amemoth_1_1","mimeType":"image/x-tga","bufferView":4},{"name":"amemoth_1_2","mimeType":"image/x-tga","bufferView":5},{"name":"amemoth_1_3","mimeType":"image/x-tga","bufferView":6},{"name":"amemoth_1_4","mimeType":"image/x-tga","bufferView":7},{"name":"amemoth_1_5","mimeType":"image/x-tga","bufferView":8}],"materials":[{"name":"mat_0","pbrMetallicRoughness":{"baseColorTexture":{"index":0},"baseColorFactor":[1,1,1,1],"metallicFactor":0,"roughnessFactor":0.903921569},"emissiveFactor":[0,0,0],"alphaMode":"BLEND","doubleSided":true},{"name":"mat_1","pbrMetallicRoughness":{"baseColorFactor":[0.8,0.8,0.8,1],"metallicFactor":0,"roughnessFactor":0.903921569},"emissiveFactor":[0,0,0],"alphaMode":"OPAQUE","doubleSided":false},{"name":"mat_2","pbrMetallicRoughness":{"baseColorTexture":{"index":1},"baseColorFactor":[1,1,1,1],"metallicFactor":0,"roughnessFactor":0.903921569},"emissiveFactor":[0,0,0],"alphaMode":"BLEND","doubleSided":true},{"name":"mat_3","pbrMetallicRoughness":{"baseColorTexture":{"index":2},"baseColorFactor":[1,1,1,1],"metallicFactor":0,"roughnessFactor":0.903921569},"emissiveFactor":[0,0,0],"alphaMode":"BLEND","doubleSided":true},{"name":"mat_4","pbrMetallicRoughness":{"baseColorTexture":{"index":3},"baseColorFactor":[1,1,1,1],"metallicFactor":0,"roughnessFactor":0.903921569},"emissiveFactor":[0,0,0],"alphaMode":"BLEND","doubleSided":true},{"name":"mat_5","pbrMetallicRoughness":{"baseColorTexture":{"index":4},"baseColorFactor":[1,1,1,1],"metallicFactor":0,"roughnessFactor":0.903921569},"emissiveFactor":[0,0,0],"alphaMode":"BLEND","doubleSided":true},{"name":"mat_6","pbrMetallicRoughness":{"baseColorTexture":{"index":5},"baseColorFactor":[1,1,1,1],"metallicFactor":0,"roughnessFactor":0.903921569},"emissiveFactor":[0,0,0],"alphaMode":"BLEND","doubleSided":true}],"meshes":[{"name":"amemoth-Mesh","primitives":[{"attributes":{"POSITION":0,"TEXCOORD_0":1},"indices":2,"material":0,"mode":4},{"attributes":{"POSITION":3,"TEXCOORD_0":4},"indices":5,"material":1,"mode":4},{"attributes":{"POSITION":6,"TEXCOORD_0":7},"indices":8,"material":2,"mode":4},{"attributes":{"POSITION":9,"TEXCOORD_0":10},"indices":11,"material":3,"mode":4},{"attributes":{"POSITION":12,"TEXCOORD_0":13},"indices":14,"material":4,"mode":4},{"attributes":{"POSITION":15,"TEXCOORD_0":16},"indices":17,"material":5,"mode":4},{"attributes":{"POSITION":18,"TEXCOORD_0":19},"indices":20,"material":6,"mode":4}]}],"nodes":[{"name":"amemoth","mesh":0}],"samplers":[{"wrapS":10497,"wrapT":10497}],"scene":0,"scenes":[{"nodes":[0]}],"textures":[{"name":"amemoth_1_0","sampler":0,"source":0},{"name":"amemoth_1_1","sampler":0,"source":1},{"name":"amemoth_1_2","sampler":0,"source":2},{"name":"amemoth_1_3","sampler":0,"source":3},{"name":"amemoth_1_4","sampler":0,"source":4},{"name":"amemoth_1_5","sampler":0,"source":5}]}