{"accessors":[{"name":"polygon0_1_0_positions","componentType":5126,"count":16,"min":[-0.8613070249557495,2.3435659408569336,1.1839200258255005],"max":[0.8613060116767883,2.8798348903656006,1.6433570384979248],"type":"VEC3","bufferView":0,"byteOffset":0},{"name":"polygon0_1_0_normals","componentType":5126,"count":16,"min":[-0.4484241306781769,0.34636998176574707,0.6165090799331665],"max":[0.436154842376709,0.7802788019180298,0.9380980134010315],"type":"VEC3","bufferView":1,"byteOffset":0},{"name":"polygon0_1_0_texcoords","componentType":5126,"count":16,"min":[0.02200300060212612,0.010680999606847763],"max":[0.9721069931983948,0.24798600375652313],"type":"VEC2","bufferView":2,"byteOffset":0},{"name":"polygon0_1_0_indices","componentType":5123,"count":54,"min":[0],"max":[15],"type":"SCALAR","bufferView":3,"byteOffset":0},{"name":"polygon1_1_0_positions","componentType":5126,"count":1125,"min":[-2.6318600177764893,-0.01321799959987402,-2.6318581104278564],"max":[2.6318581104278564,4.006555080413818,2.631859064102173],"type":"VEC3","bufferView":0,"byteOffset":192},{"name":"polygon1_1_0_normals","componentType":5126,"count":1125,"min":[-0.9891315698623657,-1,-0.9995831847190857],"max":[0.9891315698623657,0.9999991059303284,0.9891315698623657],"type":"VEC3","bufferView":1,"byteOffset":192},{"name":"polygon1_1_0_texcoords","componentType":5126,"count":1125,"min":[0.027465999126434326,0.010894999839365482],"max":[0.9970089793205261,0.9920960068702698],"type":"VEC2","bufferView":2,"byteOffset":128},{"name":"polygon1_1_0_indices","componentType":5123,"count":4386,"min":[0],"max":[1124],"type":"SCALAR","bufferView":3,"byteOffset":108},{"name":"polygon2_1_0_positions","componentType":5126,"count":18,"min":[-0.9547669887542725,1.5915449857711792,1.4918270111083984],"max":[0.9547650218009949,2.4852991104125977,1.9095309972763062],"type":"VEC3","bufferView":0,"byteOffset":13692},{"name":"polygon2_1_0_normals","componentType":5126,"count":18,"min":[-0.49456101655960083,0.1470320075750351,0.790893018245697],"max":[0.49456101655960083,0.4353640079498291,0.9891315698623657],"type":"VEC3","bufferView":1,"byteOffset":13692},{"name":"polygon2_1_0_texcoords","componentType":5126,"count":18,"min":[0.011718999594449997,0.015625],"max":[0.4882810115814209,0.234375],"type":"VEC2","bufferView":2,"byteOffset":9128},{"name":"polygon2_1_0_indices","componentType":5123,"count":66,"min":[0],"max":[17],"type":"SCALAR","bufferView":3,"byteOffset":8880}],"asset":{"generator":"obj2gltf","version":"2.0"},"buffers":[{"name":"Shroomish","byteLength":390220,"uri":"data:application/octet-stream;base64,"}],"bufferViews":[{"name":"bufferView_0","buffer":0,"byteLength":13908,"byteOffset":0,"byteStride":12,"target":34962},{"name":"bufferView_1","buffer":0,"byteLength":13908,"byteOffset":13908,"byteStride":12,"target":34962},{"name":"bufferView_2","buffer":0,"byteLength":9272,"byteOffset":27816,"byteStride":8,"target":34962},{"name":"bufferView_3","buffer":0,"byteLength":9012,"byteOffset":37088,"target":34963},{"buffer":0,"byteOffset":46100,"byteLength":49170},{"buffer":0,"byteOffset":95270,"byteLength":196626},{"buffer":0,"byteOffset":291896,"byteLength":98322}],"images":[{"name":"KinococoEyebrowDh","mimeType":"image/x-tga","bufferView":4},{"name":"KinococoDh","mimeType":"image/x-tga","bufferView":5},{"name":"KinococoEyeDh","mimeType":"image/x-tga","bufferView":6}],"materials":[{"name":"mat3","pbrMetallicRoughness":{"baseColorTexture":{"index":0},"baseColorFactor":[1,1,1,1],"metallicFactor":0,"roughnessFactor":0.99},"emissiveFactor":[0,0,0],"alphaMode":"OPAQUE","doubleSided":false},{"name":"mat1","pbrMetallicRoughness":{"baseColorTexture":{"index":1},"baseColorFactor":[1,1,1,1],"metallicFactor":0,"roughnessFactor":0.99},"emissiveFactor":[0,0,0],"alphaMode":"OPAQUE","doubleSided":false},{"name":"mat2","pbrMetallicRoughness":{"baseColorTexture":{"index":2},"baseColorFactor":[1,1,1,1],"metallicFactor":0,"roughnessFactor":0.99},"emissiveFactor":[0,0,0],"alphaMode":"OPAQUE","doubleSided":false}],"meshes":[{"name":"polygon0_1","primitives":[{"attributes":{"POSITION":0,"NORMAL":1,"TEXCOORD_0":2},"indices":3,"material":0,"mode":4}]},{"name":"polygon1_1","primitives":[{"attributes":{"POSITION":4,"NORMAL":5,"TEXCOORD_0":6},"indices":7,"material":1,"mode":4}]},{"name":"polygon2_1","primitives":[{"attributes":{"POSITION":8,"NORMAL":9,"TEXCOORD_0":10},"indices":11,"material":2,"mode":4}]}],"nodes":[{"name":"polygon0","mesh":0},{"name":"polygon1","mesh":1},{"name":"polygon2","mesh":2}],"samplers":[{"wrapS":10497,"wrapT":10497}],"scene":0,"scenes":[{"nodes":[0,1,2]}],"textures":[{"name":"KinococoEyebrowDh","sampler":0,"source":0},{"name":"KinococoDh","sampler":0,"source":1},{"name":"KinococoEyeDh","sampler":0,"source":2}]}