{"accessors":[{"name":"polygon0_1_0_positions","componentType":5126,"count":1028,"min":[-2.7854859828948975,-0.0066559999249875546,-11.719900131225586],"max":[2.7854859828948975,11.099431991577148,3.2059121131896973],"type":"VEC3","bufferView":0,"byteOffset":0},{"name":"polygon0_1_0_normals","componentType":5126,"count":1028,"min":[-1,-1,-0.999998152256012],"max":[1,1,1],"type":"VEC3","bufferView":1,"byteOffset":0},{"name":"polygon0_1_0_texcoords","componentType":5126,"count":1028,"min":[0.006256000138819218,0.006041999906301498],"max":[0.9950259923934937,0.9936519861221313],"type":"VEC2","bufferView":2,"byteOffset":0},{"name":"polygon0_1_0_indices","componentType":5123,"count":4446,"min":[0],"max":[1027],"type":"SCALAR","bufferView":3,"byteOffset":0},{"name":"polygon1_1_0_positions","componentType":5126,"count":18,"min":[-1.0507689714431763,8.598403930664062,0.8810269832611084],"max":[1.0507689714431763,9.912549018859863,1.974979043006897],"type":"VEC3","bufferView":0,"byteOffset":12336},{"name":"polygon1_1_0_normals","componentType":5126,"count":18,"min":[-0.9603085517883301,-0.24847014248371124,0.26671814918518066],"max":[0.9603085517883301,0.3889841139316559,0.8500350117683411],"type":"VEC3","bufferView":1,"byteOffset":12336},{"name":"polygon1_1_0_texcoords","componentType":5126,"count":18,"min":[0.0976559966802597,0.0039059999398887157],"max":[0.4335939884185791,0.2460940033197403],"type":"VEC2","bufferView":2,"byteOffset":8224},{"name":"polygon1_1_0_indices","componentType":5123,"count":48,"min":[0],"max":[17],"type":"SCALAR","bufferView":3,"byteOffset":8892}],"asset":{"generator":"obj2gltf","version":"2.0"},"buffers":[{"name":"Breloom","byteLength":337408,"uri":"data:application/octet-stream;base64,"}],"bufferViews":[{"name":"bufferView_0","buffer":0,"byteLength":12552,"byteOffset":0,"byteStride":12,"target":34962},{"name":"bufferView_1","buffer":0,"byteLength":12552,"byteOffset":12552,"byteStride":12,"target":34962},{"name":"bufferView_2","buffer":0,"byteLength":8368,"byteOffset":25104,"byteStride":8,"target":34962},{"name":"bufferView_3","buffer":0,"byteLength":8988,"byteOffset":33472,"target":34963},{"buffer":0,"byteOffset":42460,"byteLength":196626},{"buffer":0,"byteOffset":239086,"byteLength":98322}],"images":[{"name":"KinogassaDh","mimeType":"image/x-tga","bufferView":4},{"name":"KinogassaEyeDh","mimeType":"image/x-tga","bufferView":5}],"materials":[{"name":"mat1","pbrMetallicRoughness":{"baseColorTexture":{"index":0},"baseColorFactor":[1,1,1,1],"metallicFactor":0,"roughnessFactor":0.99},"emissiveFactor":[0,0,0],"alphaMode":"OPAQUE","doubleSided":false},{"name":"mat2","pbrMetallicRoughness":{"baseColorTexture":{"index":1},"baseColorFactor":[1,1,1,1],"metallicFactor":0,"roughnessFactor":0.99},"emissiveFactor":[0,0,0],"alphaMode":"OPAQUE","doubleSided":false}],"meshes":[{"name":"polygon0_1","primitives":[{"attributes":{"POSITION":0,"NORMAL":1,"TEXCOORD_0":2},"indices":3,"material":0,"mode":4}]},{"name":"polygon1_1","primitives":[{"attributes":{"POSITION":4,"NORMAL":5,"TEXCOORD_0":6},"indices":7,"material":1,"mode":4}]}],"nodes":[{"name":"polygon0","mesh":0},{"name":"polygon1","mesh":1}],"samplers":[{"wrapS":10497,"wrapT":10497}],"scene":0,"scenes":[{"nodes":[0,1]}],"textures":[{"name":"KinogassaDh","sampler":0,"source":0},{"name":"KinogassaEyeDh","sampler":0,"source":1}]}