{"accessors":[{"name":"namakero-Mesh_0_positions","componentType":5126,"count":163,"min":[-5.251609802246094,-1.0763499736785889,-5.69897985458374],"max":[5.251609802246094,1.0211199522018433,0],"type":"VEC3","bufferView":0,"byteOffset":0},{"name":"namakero-Mesh_0_texcoords","componentType":5126,"count":163,"min":[0.0579800009727478,0.3329930007457733],"max":[0.9420199990272522,1],"type":"VEC2","bufferView":1,"byteOffset":0},{"name":"namakero-Mesh_0_indices","componentType":5123,"count":768,"min":[0],"max":[162],"type":"SCALAR","bufferView":2,"byteOffset":0},{"name":"namakero-Mesh_1_positions","componentType":5126,"count":73,"min":[-5.940470218658447,-0.4743509888648987,-4.860429763793945],"max":[5.940470218658447,0.7243390083312988,0],"type":"VEC3","bufferView":0,"byteOffset":1956},{"name":"namakero-Mesh_1_texcoords","componentType":5126,"count":73,"min":[0,0],"max":[1,1],"type":"VEC2","bufferView":1,"byteOffset":1304},{"name":"namakero-Mesh_1_indices","componentType":5123,"count":216,"min":[0],"max":[72],"type":"SCALAR","bufferView":2,"byteOffset":1536},{"name":"namakero-Mesh_2_positions","componentType":5126,"count":53,"min":[-1.9629900455474854,-1.3236900568008423,-3.80538010597229],"max":[1.9629900455474854,0.03172000125050545,-1.2112799882888794],"type":"VEC3","bufferView":0,"byteOffset":2832},{"name":"namakero-Mesh_2_texcoords","componentType":5126,"count":53,"min":[-0.4335939884185791,-0.5156300067901611],"max":[1,1.75],"type":"VEC2","bufferView":1,"byteOffset":1888},{"name":"namakero-Mesh_2_indices","componentType":5123,"count":165,"min":[0],"max":[52],"type":"SCALAR","bufferView":2,"byteOffset":1968},{"name":"namakero-Mesh_3_positions","componentType":5126,"count":65,"min":[-5.143370151519775,-1.188730001449585,-5.16880989074707],"max":[5.143360137939453,1.404919981956482,0],"type":"VEC3","bufferView":0,"byteOffset":3468},{"name":"namakero-Mesh_3_texcoords","componentType":5126,"count":65,"min":[-0.3519760072231293,-0.3446100056171417],"max":[1.2092399597167969,1.2014939785003662],"type":"VEC2","bufferView":1,"byteOffset":2312},{"name":"namakero-Mesh_3_indices","componentType":5123,"count":183,"min":[0],"max":[64],"type":"SCALAR","bufferView":2,"byteOffset":2300},{"name":"namakero-Mesh_4_positions","componentType":5126,"count":11,"min":[-1.7558200359344482,-1.0541499853134155,-2.614269971847534],"max":[-1.013759970664978,-0.568461000919342,-2.009809970855713],"type":"VEC3","bufferView":0,"byteOffset":4248},{"name":"namakero-Mesh_4_texcoords","componentType":5126,"count":11,"min":[0,-0.006399999838322401],"max":[1,0.9936000108718872],"type":"VEC2","bufferView":1,"byteOffset":2832},{"name":"namakero-Mesh_4_indices","componentType":5123,"count":24,"min":[0],"max":[10],"type":"SCALAR","bufferView":2,"byteOffset":2668},{"name":"namakero-Mesh_5_positions","componentType":5126,"count":73,"min":[-1.8310500383377075,-0.9471679925918579,-7.868130207061768],"max":[1.8310500383377075,1.5679899454116821,-4.512790203094482],"type":"VEC3","bufferView":0,"byteOffset":4380},{"name":"namakero-Mesh_5_texcoords","componentType":5126,"count":73,"min":[0,0.15104900300502777],"max":[1,1.1534709930419922],"type":"VEC2","bufferView":1,"byteOffset":2920},{"name":"namakero-Mesh_5_indices","componentType":5123,"count":285,"min":[0],"max":[72],"type":"SCALAR","bufferView":2,"byteOffset":2716},{"name":"namakero-Mesh_6_positions","componentType":5126,"count":21,"min":[-1.12746000289917,1.2707300186157227,-6.0723700523376465],"max":[1.12746000289917,2.10440993309021,-4.6921000480651855],"type":"VEC3","bufferView":0,"byteOffset":5256},{"name":"namakero-Mesh_6_texcoords","componentType":5126,"count":21,"min":[-0.22395800054073334,-0.13395999372005463],"max":[1,0.22888900339603424],"type":"VEC2","bufferView":1,"byteOffset":3504},{"name":"namakero-Mesh_6_indices","componentType":5123,"count":84,"min":[0],"max":[20],"type":"SCALAR","bufferView":2,"byteOffset":3288},{"name":"namakero-Mesh_7_positions","componentType":5126,"count":38,"min":[-1.7704499959945679,0.9467989802360535,-7.387340068817139],"max":[1.7704499959945679,2.0594899654388428,-5.1513800621032715],"type":"VEC3","bufferView":0,"byteOffset":5508},{"name":"namakero-Mesh_7_texcoords","componentType":5126,"count":38,"min":[-0.19481800496578217,-0.07148999720811844],"max":[1.244629979133606,0.2102780044078827],"type":"VEC2","bufferView":1,"byteOffset":3672},{"name":"namakero-Mesh_7_indices","componentType":5123,"count":132,"min":[0],"max":[37],"type":"SCALAR","bufferView":2,"byteOffset":3456},{"name":"namakero-Mesh_8_positions","componentType":5126,"count":34,"min":[-1.5811599493026733,-0.9902639985084534,-8.544110298156738],"max":[1.3931699991226196,1.4336400032043457,-2.56673002243042],"type":"VEC3","bufferView":0,"byteOffset":5964},{"name":"namakero-Mesh_8_texcoords","componentType":5126,"count":34,"min":[0,-0.006399999838322401],"max":[1,0.9936000108718872],"type":"VEC2","bufferView":1,"byteOffset":3976},{"name":"namakero-Mesh_8_indices","componentType":5123,"count":87,"min":[0],"max":[33],"type":"SCALAR","bufferView":2,"byteOffset":3720},{"name":"namakero-Mesh_9_positions","componentType":5126,"count":22,"min":[-0.642192006111145,2.004879951477051,-6.094689846038818],"max":[0.642192006111145,2.4694700241088867,-5.23015022277832],"type":"VEC3","bufferView":0,"byteOffset":6372},{"name":"namakero-Mesh_9_texcoords","componentType":5126,"count":22,"min":[-0.3347029983997345,-0.33107998967170715],"max":[1.3346999883651733,1.317641019821167],"type":"VEC2","bufferView":1,"byteOffset":4248},{"name":"namakero-Mesh_9_indices","componentType":5123,"count":90,"min":[0],"max":[21],"type":"SCALAR","bufferView":2,"byteOffset":3896}],"asset":{"generator":"obj2gltf","version":"2.0"},"buffers":[{"name":"BR_Slakoth-Shiny01","byteLength":249796,"uri":"data:application/octet-stream;base64,"}],"bufferViews":[{"name":"bufferView_0","buffer":0,"byteLength":6636,"byteOffset":0,"byteStride":12,"target":34962},{"name":"bufferView_1","buffer":0,"byteLength":4424,"byteOffset":6636,"byteStride":8,"target":34962},{"name":"bufferView_2","buffer":0,"byteLength":4076,"byteOffset":11060,"target":34963},{"buffer":0,"byteOffset":15136,"byteLength":1042},{"buffer":0,"byteOffset":16178,"byteLength":4114},{"buffer":0,"byteOffset":20292,"byteLength":16402},{"buffer":0,"byteOffset":36694,"byteLength":16402},{"buffer":0,"byteOffset":53096,"byteLength":4114},{"buffer":0,"byteOffset":57210,"byteLength":73746},{"buffer":0,"byteOffset":130956,"byteLength":98322},{"buffer":0,"byteOffset":229278,"byteLength":4114},{"buffer":0,"byteOffset":233392,"byteLength":16402}],"images":[{"name":"namakero_1_0","mimeType":"image/x-tga","bufferView":3},{"name":"namakero_1_1","mimeType":"image/x-tga","bufferView":4},{"name":"namakero_1_2","mimeType":"image/x-tga","bufferView":5},{"name":"namakero_1_3","mimeType":"image/x-tga","bufferView":6},{"name":"namakero_1_4","mimeType":"image/x-tga","bufferView":7},{"name":"namakero_1_6","mimeType":"image/x-tga","bufferView":8},{"name":"namakero_1_7","mimeType":"image/x-tga","bufferView":9},{"name":"namakero_1_8","mimeType":"image/x-tga","bufferView":10},{"name":"namakero_1_9","mimeType":"image/x-tga","bufferView":11}],"materials":[{"name":"mat_0","pbrMetallicRoughness":{"baseColorTexture":{"index":0},"baseColorFactor":[1,1,1,1],"metallicFactor":0,"roughnessFactor":0.903921569},"emissiveFactor":[0,0,0],"alphaMode":"BLEND","doubleSided":true},{"name":"mat_1","pbrMetallicRoughness":{"baseColorTexture":{"index":1},"baseColorFactor":[1,1,1,1],"metallicFactor":0,"roughnessFactor":0.903921569},"emissiveFactor":[0,0,0],"alphaMode":"BLEND","doubleSided":true},{"name":"mat_2","pbrMetallicRoughness":{"baseColorTexture":{"index":2},"baseColorFactor":[1,1,1,1],"metallicFactor":0,"roughnessFactor":0.903921569},"emissiveFactor":[0,0,0],"alphaMode":"BLEND","doubleSided":true},{"name":"mat_3","pbrMetallicRoughness":{"baseColorTexture":{"index":3},"baseColorFactor":[1,1,1,1],"metallicFactor":0,"roughnessFactor":0.903921569},"emissiveFactor":[0,0,0],"alphaMode":"BLEND","doubleSided":true},{"name":"mat_4","pbrMetallicRoughness":{"baseColorTexture":{"index":4},"baseColorFactor":[1,1,1,1],"metallicFactor":0,"roughnessFactor":0.903921569},"emissiveFactor":[0,0,0],"alphaMode":"BLEND","doubleSided":true},{"name":"mat_5","pbrMetallicRoughness":{"baseColorTexture":{"index":0},"baseColorFactor":[1,1,1,1],"metallicFactor":0,"roughnessFactor":0.903921569},"emissiveFactor":[0,0,0],"alphaMode":"BLEND","doubleSided":true},{"name":"mat_6","pbrMetallicRoughness":{"baseColorTexture":{"index":5},"baseColorFactor":[1,1,1,1],"metallicFactor":0,"roughnessFactor":0.903921569},"emissiveFactor":[0,0,0],"alphaMode":"BLEND","doubleSided":true},{"name":"mat_7","pbrMetallicRoughness":{"baseColorTexture":{"index":6},"baseColorFactor":[1,1,1,1],"metallicFactor":0,"roughnessFactor":0.903921569},"emissiveFactor":[0,0,0],"alphaMode":"BLEND","doubleSided":true},{"name":"mat_8","pbrMetallicRoughness":{"baseColorTexture":{"index":7},"baseColorFactor":[1,1,1,1],"metallicFactor":0,"roughnessFactor":0.903921569},"emissiveFactor":[0,0,0],"alphaMode":"BLEND","doubleSided":true},{"name":"mat_9","pbrMetallicRoughness":{"baseColorTexture":{"index":8},"baseColorFactor":[1,1,1,1],"metallicFactor":0,"roughnessFactor":0.903921569},"emissiveFactor":[0,0,0],"alphaMode":"BLEND","doubleSided":true}],"meshes":[{"name":"namakero-Mesh","primitives":[{"attributes":{"POSITION":0,"TEXCOORD_0":1},"indices":2,"material":0,"mode":4},{"attributes":{"POSITION":3,"TEXCOORD_0":4},"indices":5,"material":1,"mode":4},{"attributes":{"POSITION":6,"TEXCOORD_0":7},"indices":8,"material":2,"mode":4},{"attributes":{"POSITION":9,"TEXCOORD_0":10},"indices":11,"material":3,"mode":4},{"attributes":{"POSITION":12,"TEXCOORD_0":13},"indices":14,"material":4,"mode":4},{"attributes":{"POSITION":15,"TEXCOORD_0":16},"indices":17,"material":5,"mode":4},{"attributes":{"POSITION":18,"TEXCOORD_0":19},"indices":20,"material":6,"mode":4},{"attributes":{"POSITION":21,"TEXCOORD_0":22},"indices":23,"material":7,"mode":4},{"attributes":{"POSITION":24,"TEXCOORD_0":25},"indices":26,"material":8,"mode":4},{"attributes":{"POSITION":27,"TEXCOORD_0":28},"indices":29,"material":9,"mode":4}]}],"nodes":[{"name":"namakero","mesh":0}],"samplers":[{"wrapS":10497,"wrapT":10497}],"scene":0,"scenes":[{"nodes":[0]}],"textures":[{"name":"namakero_1_0","sampler":0,"source":0},{"name":"namakero_1_1","sampler":0,"source":1},{"name":"namakero_1_2","sampler":0,"source":2},{"name":"namakero_1_3","sampler":0,"source":3},{"name":"namakero_1_4","sampler":0,"source":4},{"name":"namakero_1_6","sampler":0,"source":5},{"name":"namakero_1_7","sampler":0,"source":6},{"name":"namakero_1_8","sampler":0,"source":7},{"name":"namakero_1_9","sampler":0,"source":8}]}