{"accessors":[{"name":"yarukimono-Mesh_0_positions","componentType":5126,"count":42,"min":[-1.6084749698638916,2.232279062271118,-11.798103332519531],"max":[1.6084749698638916,3.3780438899993896,-9.981759071350098],"type":"VEC3","bufferView":0,"byteOffset":0},{"name":"yarukimono-Mesh_0_texcoords","componentType":5126,"count":42,"min":[0.05009400099515915,0.007968000136315823],"max":[1.0030640363693237,0.24955299496650696],"type":"VEC2","bufferView":1,"byteOffset":0},{"name":"yarukimono-Mesh_0_indices","componentType":5123,"count":120,"min":[0],"max":[41],"type":"SCALAR","bufferView":2,"byteOffset":0},{"name":"yarukimono-Mesh_1_positions","componentType":5126,"count":1007,"min":[-10.953690528869629,-2.8046090602874756,-12.637733459472656],"max":[10.953690528869629,3.6568570137023926,-0.00279600010253489],"type":"VEC3","bufferView":0,"byteOffset":504},{"name":"yarukimono-Mesh_1_texcoords","componentType":5126,"count":1007,"min":[0.06720700114965439,0.07012400031089783],"max":[0.9632160067558289,0.9332550168037415],"type":"VEC2","bufferView":1,"byteOffset":336},{"name":"yarukimono-Mesh_1_indices","componentType":5123,"count":4854,"min":[0],"max":[1006],"type":"SCALAR","bufferView":2,"byteOffset":240},{"name":"yarukimono-Mesh_2_positions","componentType":5126,"count":200,"min":[-11.593083381652832,-1.0669620037078857,-7.430934906005859],"max":[11.593083381652832,3.6789228916168213,0.010935000143945217],"type":"VEC3","bufferView":0,"byteOffset":12588},{"name":"yarukimono-Mesh_2_texcoords","componentType":5126,"count":200,"min":[0.04489300027489662,0.16090300679206848],"max":[0.20515500009059906,0.28083398938179016],"type":"VEC2","bufferView":1,"byteOffset":8392},{"name":"yarukimono-Mesh_2_indices","componentType":5123,"count":960,"min":[0],"max":[199],"type":"SCALAR","bufferView":2,"byteOffset":9948}],"asset":{"generator":"obj2gltf","version":"2.0"},"buffers":[{"name":"BR_Vigoroth-Shiny01","byteLength":1347604,"uri":"data:application/octet-stream;base64,"}],"bufferViews":[{"name":"bufferView_0","buffer":0,"byteLength":14988,"byteOffset":0,"byteStride":12,"target":34962},{"name":"bufferView_1","buffer":0,"byteLength":9992,"byteOffset":14988,"byteStride":8,"target":34962},{"name":"bufferView_2","buffer":0,"byteLength":11868,"byteOffset":24980,"target":34963},{"buffer":0,"byteOffset":36848,"byteLength":262162},{"buffer":0,"byteOffset":299010,"byteLength":1048594}],"images":[{"name":"yarukimono_1_0","mimeType":"image/x-tga","bufferView":3},{"name":"yarukimono_1_1","mimeType":"image/x-tga","bufferView":4}],"materials":[{"name":"mat_0","pbrMetallicRoughness":{"baseColorTexture":{"index":0},"baseColorFactor":[1,1,1,1],"metallicFactor":0,"roughnessFactor":0.903921569},"emissiveFactor":[0,0,0],"alphaMode":"BLEND","doubleSided":true},{"name":"mat_1","pbrMetallicRoughness":{"baseColorTexture":{"index":1},"baseColorFactor":[1,1,1,1],"metallicFactor":0,"roughnessFactor":0.903921569},"emissiveFactor":[0,0,0],"alphaMode":"BLEND","doubleSided":true},{"name":"mat_2","pbrMetallicRoughness":{"baseColorTexture":{"index":1},"baseColorFactor":[1,1,1,1],"metallicFactor":0,"roughnessFactor":0.903921569},"emissiveFactor":[0,0,0],"alphaMode":"BLEND","doubleSided":true}],"meshes":[{"name":"yarukimono-Mesh","primitives":[{"attributes":{"POSITION":0,"TEXCOORD_0":1},"indices":2,"material":0,"mode":4},{"attributes":{"POSITION":3,"TEXCOORD_0":4},"indices":5,"material":1,"mode":4},{"attributes":{"POSITION":6,"TEXCOORD_0":7},"indices":8,"material":2,"mode":4}]}],"nodes":[{"name":"yarukimono","mesh":0}],"samplers":[{"wrapS":10497,"wrapT":10497}],"scene":0,"scenes":[{"nodes":[0]}],"textures":[{"name":"yarukimono_1_0","sampler":0,"source":0},{"name":"yarukimono_1_1","sampler":0,"source":1}]}