{"accessors":[{"name":"kekking-Mesh_0_positions","componentType":5126,"count":32,"min":[4.277517795562744,3.0220539569854736,-2.588258981704712],"max":[5.849555015563965,4.2315778732299805,-0.5094349980354309],"type":"VEC3","bufferView":0,"byteOffset":0},{"name":"kekking-Mesh_0_texcoords","componentType":5126,"count":32,"min":[-0.13854199647903442,-0.2614699900150299],"max":[1.1978000402450562,1.1886240243911743],"type":"VEC2","bufferView":1,"byteOffset":0},{"name":"kekking-Mesh_0_indices","componentType":5123,"count":108,"min":[0],"max":[31],"type":"SCALAR","bufferView":2,"byteOffset":0}],"asset":{"generator":"obj2gltf","version":"2.0"},"buffers":[{"name":"BR_Slaking-Shiny01","byteLength":4972,"uri":"data:application/octet-stream;base64,"}],"bufferViews":[{"name":"bufferView_0","buffer":0,"byteLength":384,"byteOffset":0,"byteStride":12,"target":34962},{"name":"bufferView_1","buffer":0,"byteLength":256,"byteOffset":384,"byteStride":8,"target":34962},{"name":"bufferView_2","buffer":0,"byteLength":216,"byteOffset":640,"target":34963},{"buffer":0,"byteOffset":856,"byteLength":4114}],"images":[{"name":"kekking_1_0","mimeType":"image/x-tga","bufferView":3}],"materials":[{"name":"mat_0","pbrMetallicRoughness":{"baseColorTexture":{"index":0},"baseColorFactor":[1,1,1,1],"metallicFactor":0,"roughnessFactor":0.903921569},"emissiveFactor":[0,0,0],"alphaMode":"BLEND","doubleSided":true}],"meshes":[{"name":"kekking-Mesh","primitives":[{"attributes":{"POSITION":0,"TEXCOORD_0":1},"indices":2,"material":0,"mode":4}]}],"nodes":[{"name":"kekking","mesh":0}],"samplers":[{"wrapS":10497,"wrapT":10497}],"scene":0,"scenes":[{"nodes":[0]}],"textures":[{"name":"kekking_1_0","sampler":0,"source":0}]}