{"accessors":[{"name":"tutinin_c-Mesh_0_positions","componentType":5126,"count":83,"min":[-1.048840045928955,-2.5869901180267334,-1.9916800260543823],"max":[1.0480999946594238,0.9718130230903625,-0.297432005405426],"type":"VEC3","bufferView":0,"byteOffset":0},{"name":"tutinin_c-Mesh_0_texcoords","componentType":5126,"count":83,"min":[-0.24864999949932098,0.042511001229286194],"max":[0.9550179839134216,0.8329910039901733],"type":"VEC2","bufferView":1,"byteOffset":0},{"name":"tutinin_c-Mesh_0_indices","componentType":5123,"count":414,"min":[0],"max":[82],"type":"SCALAR","bufferView":2,"byteOffset":0},{"name":"tutinin_c-Mesh_1_positions","componentType":5126,"count":6,"min":[-1.1156599521636963,-0.7404729723930359,-2.0400500297546387],"max":[-0.3485170006752014,0.43891799449920654,-1.238070011138916],"type":"VEC3","bufferView":0,"byteOffset":996},{"name":"tutinin_c-Mesh_1_texcoords","componentType":5126,"count":6,"min":[0.08211400359869003,-0.0843999981880188],"max":[0.8935030102729797,0.9979810118675232],"type":"VEC2","bufferView":1,"byteOffset":664},{"name":"tutinin_c-Mesh_1_indices","componentType":5123,"count":12,"min":[0],"max":[5],"type":"SCALAR","bufferView":2,"byteOffset":828},{"name":"tutinin_c-Mesh_2_positions","componentType":5126,"count":6,"min":[0.3485170006752014,-0.7404729723930359,-2.0400500297546387],"max":[1.1156599521636963,0.43891799449920654,-1.238070011138916],"type":"VEC3","bufferView":0,"byteOffset":1068},{"name":"tutinin_c-Mesh_2_texcoords","componentType":5126,"count":6,"min":[0.07551799714565277,-0.06621000170707703],"max":[0.8843579888343811,0.9949569702148438],"type":"VEC2","bufferView":1,"byteOffset":712},{"name":"tutinin_c-Mesh_2_indices","componentType":5123,"count":12,"min":[0],"max":[5],"type":"SCALAR","bufferView":2,"byteOffset":852},{"name":"tutinin_c-Mesh_3_positions","componentType":5126,"count":4,"min":[-0.6302300095558167,0.7775530219078064,-1.4259899854660034],"max":[-0.5745459794998169,1.0919400453567505,-1.107990026473999],"type":"VEC3","bufferView":0,"byteOffset":1140},{"name":"tutinin_c-Mesh_3_texcoords","componentType":5126,"count":4,"min":[-0.09598200023174286,0.2936739921569824],"max":[0.9114239811897278,0.5633249878883362],"type":"VEC2","bufferView":1,"byteOffset":760},{"name":"tutinin_c-Mesh_3_indices","componentType":5123,"count":6,"min":[0],"max":[3],"type":"SCALAR","bufferView":2,"byteOffset":876},{"name":"tutinin_c-Mesh_4_positions","componentType":5126,"count":16,"min":[-0.6350299715995789,0.9902719855308533,-1.6875300407409668],"max":[0.6350299715995789,1.522819995880127,-1.1601899862289429],"type":"VEC3","bufferView":0,"byteOffset":1188},{"name":"tutinin_c-Mesh_4_texcoords","componentType":5126,"count":16,"min":[-0.017357999458909035,0.4918600022792816],"max":[0.9826650023460388,0.7630850076675415],"type":"VEC2","bufferView":1,"byteOffset":792},{"name":"tutinin_c-Mesh_4_indices","componentType":5123,"count":36,"min":[0],"max":[15],"type":"SCALAR","bufferView":2,"byteOffset":888},{"name":"tutinin_c-Mesh_5_positions","componentType":5126,"count":33,"min":[0.8626109957695007,0.22637200355529785,-1.097390055656433],"max":[1.59375,0.7826390266418457,-0.06459300220012665],"type":"VEC3","bufferView":0,"byteOffset":1380},{"name":"tutinin_c-Mesh_5_texcoords","componentType":5126,"count":33,"min":[-0.00039900001138448715,0.0483659990131855],"max":[1.28957998752594,0.970641016960144],"type":"VEC2","bufferView":1,"byteOffset":920},{"name":"tutinin_c-Mesh_5_indices","componentType":5123,"count":186,"min":[0],"max":[32],"type":"SCALAR","bufferView":2,"byteOffset":960},{"name":"tutinin_c-Mesh_6_positions","componentType":5126,"count":13,"min":[1.1908999681472778,0.4939959943294525,-0.3763140141963959],"max":[1.4849599599838257,0.759028971195221,-0.04678500071167946],"type":"VEC3","bufferView":0,"byteOffset":1776},{"name":"tutinin_c-Mesh_6_texcoords","componentType":5126,"count":13,"min":[0.07735399901866913,0],"max":[1.4201799631118774,1],"type":"VEC2","bufferView":1,"byteOffset":1184},{"name":"tutinin_c-Mesh_6_indices","componentType":5123,"count":27,"min":[0],"max":[12],"type":"SCALAR","bufferView":2,"byteOffset":1332},{"name":"tutinin_c-Mesh_7_positions","componentType":5126,"count":32,"min":[-1.59375,0.22637200355529785,-1.097390055656433],"max":[-0.8626109957695007,0.7826390266418457,-0.06459300220012665],"type":"VEC3","bufferView":0,"byteOffset":1932},{"name":"tutinin_c-Mesh_7_texcoords","componentType":5126,"count":32,"min":[0.031134000048041344,0.06992699950933456],"max":[0.982079029083252,0.9620879888534546],"type":"VEC2","bufferView":1,"byteOffset":1288},{"name":"tutinin_c-Mesh_7_indices","componentType":5123,"count":180,"min":[0],"max":[31],"type":"SCALAR","bufferView":2,"byteOffset":1388},{"name":"tutinin_c-Mesh_8_positions","componentType":5126,"count":13,"min":[-1.4849599599838257,0.4939959943294525,-0.3763140141963959],"max":[-1.1908999681472778,0.759028971195221,-0.04678500071167946],"type":"VEC3","bufferView":0,"byteOffset":2316},{"name":"tutinin_c-Mesh_8_texcoords","componentType":5126,"count":13,"min":[0.07735399901866913,0],"max":[1.4851700067520142,1],"type":"VEC2","bufferView":1,"byteOffset":1544},{"name":"tutinin_c-Mesh_8_indices","componentType":5123,"count":27,"min":[0],"max":[12],"type":"SCALAR","bufferView":2,"byteOffset":1748},{"name":"tutinin_c-Mesh_9_positions","componentType":5126,"count":24,"min":[-1.8711999654769897,-2.182849884033203,-1.6736299991607666],"max":[1.8711999654769897,-0.8639529943466187,0.0011320000048726797],"type":"VEC3","bufferView":0,"byteOffset":2472},{"name":"tutinin_c-Mesh_9_texcoords","componentType":5126,"count":24,"min":[0.23873299360275269,0.17151199281215668],"max":[0.865323007106781,1.0048160552978516],"type":"VEC2","bufferView":1,"byteOffset":1648},{"name":"tutinin_c-Mesh_9_indices","componentType":5123,"count":120,"min":[0],"max":[23],"type":"SCALAR","bufferView":2,"byteOffset":1804},{"name":"tutinin_c-Mesh_10_positions","componentType":5126,"count":15,"min":[-0.42966601252555847,1.3841300010681152,-1.838860034942627],"max":[0.42966601252555847,1.6746799945831299,-1.417099952697754],"type":"VEC3","bufferView":0,"byteOffset":2760},{"name":"tutinin_c-Mesh_10_texcoords","componentType":5126,"count":15,"min":[0.08857300132513046,0.17378699779510498],"max":[0.9114239811897278,0.91423499584198],"type":"VEC2","bufferView":1,"byteOffset":1840},{"name":"tutinin_c-Mesh_10_indices","componentType":5123,"count":48,"min":[0],"max":[14],"type":"SCALAR","bufferView":2,"byteOffset":2044},{"name":"tutinin_c-Mesh_11_positions","componentType":5126,"count":10,"min":[-1.6911900043487549,-1.566890001296997,-0.18303899466991425],"max":[1.6911900043487549,-1.1021900177001953,0.0011320000048726797],"type":"VEC3","bufferView":0,"byteOffset":2940},{"name":"tutinin_c-Mesh_11_texcoords","componentType":5126,"count":10,"min":[0.1917410045862198,0.28889501094818115],"max":[0.3063510060310364,0.90625],"type":"VEC2","bufferView":1,"byteOffset":1960},{"name":"tutinin_c-Mesh_11_indices","componentType":5123,"count":18,"min":[0],"max":[9],"type":"SCALAR","bufferView":2,"byteOffset":2140},{"name":"tutinin_c-Mesh_12_positions","componentType":5126,"count":11,"min":[-0.7494210004806519,-0.01759600080549717,-1.8347200155258179],"max":[0.7485039830207825,0.8254330158233643,-1.3453600406646729],"type":"VEC3","bufferView":0,"byteOffset":3060},{"name":"tutinin_c-Mesh_12_texcoords","componentType":5126,"count":11,"min":[-0.09598200023174286,0.09375],"max":[1,0.9419639706611633],"type":"VEC2","bufferView":1,"byteOffset":2040},{"name":"tutinin_c-Mesh_12_indices","componentType":5123,"count":24,"min":[0],"max":[10],"type":"SCALAR","bufferView":2,"byteOffset":2176},{"name":"tutinin_c-Mesh_13_positions","componentType":5126,"count":6,"min":[-0.18021999299526215,1.3804800510406494,-0.894931972026825],"max":[0.18021999299526215,1.6206200122833252,-0.7742019891738892],"type":"VEC3","bufferView":0,"byteOffset":3192},{"name":"tutinin_c-Mesh_13_texcoords","componentType":5126,"count":6,"min":[-0.1691800057888031,0.039181001484394073],"max":[1.13332998752594,0.957705020904541],"type":"VEC2","bufferView":1,"byteOffset":2128},{"name":"tutinin_c-Mesh_13_indices","componentType":5123,"count":12,"min":[0],"max":[5],"type":"SCALAR","bufferView":2,"byteOffset":2224}],"asset":{"generator":"obj2gltf","version":"2.0"},"buffers":[{"name":"BR_Nincada-Shiny01","byteLength":470680,"uri":"data:application/octet-stream;base64,"}],"bufferViews":[{"name":"bufferView_0","buffer":0,"byteLength":3264,"byteOffset":0,"byteStride":12,"target":34962},{"name":"bufferView_1","buffer":0,"byteLength":2176,"byteOffset":3264,"byteStride":8,"target":34962},{"name":"bufferView_2","buffer":0,"byteLength":2248,"byteOffset":5440,"target":34963},{"buffer":0,"byteOffset":7688,"byteLength":16402},{"buffer":0,"byteOffset":24090,"byteLength":65554},{"buffer":0,"byteOffset":89644,"byteLength":262162},{"buffer":0,"byteOffset":351806,"byteLength":16402},{"buffer":0,"byteOffset":368208,"byteLength":16402},{"buffer":0,"byteOffset":384610,"byteLength":65554},{"buffer":0,"byteOffset":450164,"byteLength":4114},{"buffer":0,"byteOffset":454278,"byteLength":16402}],"images":[{"name":"tutinin_c_1_0","mimeType":"image/x-tga","bufferView":3},{"name":"tutinin_c_1_1","mimeType":"image/x-tga","bufferView":4},{"name":"tutinin_c_1_3","mimeType":"image/x-tga","bufferView":5},{"name":"tutinin_c_1_4","mimeType":"image/x-tga","bufferView":6},{"name":"tutinin_c_1_8","mimeType":"image/x-tga","bufferView":7},{"name":"tutinin_c_1_9","mimeType":"image/x-tga","bufferView":8},{"name":"tutinin_c_1_11","mimeType":"image/x-tga","bufferView":9},{"name":"tutinin_c_1_12","mimeType":"image/x-tga","bufferView":10}],"materials":[{"name":"mat_0","pbrMetallicRoughness":{"baseColorTexture":{"index":0},"baseColorFactor":[1,1,1,1],"metallicFactor":0,"roughnessFactor":0.903921569},"emissiveFactor":[0,0,0],"alphaMode":"BLEND","doubleSided":true},{"name":"mat_1","pbrMetallicRoughness":{"baseColorTexture":{"index":1},"baseColorFactor":[1,1,1,1],"metallicFactor":0,"roughnessFactor":0.903921569},"emissiveFactor":[0,0,0],"alphaMode":"BLEND","doubleSided":true},{"name":"mat_2","pbrMetallicRoughness":{"baseColorTexture":{"index":1},"baseColorFactor":[1,1,1,1],"metallicFactor":0,"roughnessFactor":0.903921569},"emissiveFactor":[0,0,0],"alphaMode":"BLEND","doubleSided":true},{"name":"mat_3","pbrMetallicRoughness":{"baseColorFactor":[0.8,0.8,0.8,1],"metallicFactor":0,"roughnessFactor":0.903921569},"emissiveFactor":[0,0,0],"alphaMode":"OPAQUE","doubleSided":false},{"name":"mat_4","pbrMetallicRoughness":{"baseColorTexture":{"index":2},"baseColorFactor":[1,1,1,1],"metallicFactor":0,"roughnessFactor":0.903921569},"emissiveFactor":[0,0,0],"alphaMode":"BLEND","doubleSided":true},{"name":"mat_6","pbrMetallicRoughness":{"baseColorTexture":{"index":3},"baseColorFactor":[1,1,1,1],"metallicFactor":0,"roughnessFactor":0.903921569},"emissiveFactor":[0,0,0],"alphaMode":"BLEND","doubleSided":true},{"name":"mat_7","pbrMetallicRoughness":{"baseColorTexture":{"index":3},"baseColorFactor":[1,1,1,1],"metallicFactor":0,"roughnessFactor":0.903921569},"emissiveFactor":[0,0,0],"alphaMode":"BLEND","doubleSided":true},{"name":"mat_8","pbrMetallicRoughness":{"baseColorTexture":{"index":3},"baseColorFactor":[1,1,1,1],"metallicFactor":0,"roughnessFactor":0.903921569},"emissiveFactor":[0,0,0],"alphaMode":"BLEND","doubleSided":true},{"name":"mat_9","pbrMetallicRoughness":{"baseColorTexture":{"index":3},"baseColorFactor":[1,1,1,1],"metallicFactor":0,"roughnessFactor":0.903921569},"emissiveFactor":[0,0,0],"alphaMode":"BLEND","doubleSided":true},{"name":"mat_10","pbrMetallicRoughness":{"baseColorTexture":{"index":4},"baseColorFactor":[1,1,1,1],"metallicFactor":0,"roughnessFactor":0.903921569},"emissiveFactor":[0,0,0],"alphaMode":"BLEND","doubleSided":true},{"name":"mat_11","pbrMetallicRoughness":{"baseColorTexture":{"index":5},"baseColorFactor":[1,1,1,1],"metallicFactor":0,"roughnessFactor":0.903921569},"emissiveFactor":[0,0,0],"alphaMode":"BLEND","doubleSided":true},{"name":"mat_12","pbrMetallicRoughness":{"baseColorTexture":{"index":0},"baseColorFactor":[1,1,1,1],"metallicFactor":0,"roughnessFactor":0.903921569},"emissiveFactor":[0,0,0],"alphaMode":"BLEND","doubleSided":true},{"name":"mat_13","pbrMetallicRoughness":{"baseColorTexture":{"index":6},"baseColorFactor":[1,1,1,1],"metallicFactor":0,"roughnessFactor":0.903921569},"emissiveFactor":[0,0,0],"alphaMode":"BLEND","doubleSided":true},{"name":"mat_14","pbrMetallicRoughness":{"baseColorTexture":{"index":7},"baseColorFactor":[1,1,1,1],"metallicFactor":0,"roughnessFactor":0.903921569},"emissiveFactor":[0,0,0],"alphaMode":"BLEND","doubleSided":true}],"meshes":[{"name":"tutinin_c-Mesh","primitives":[{"attributes":{"POSITION":0,"TEXCOORD_0":1},"indices":2,"material":0,"mode":4},{"attributes":{"POSITION":3,"TEXCOORD_0":4},"indices":5,"material":1,"mode":4},{"attributes":{"POSITION":6,"TEXCOORD_0":7},"indices":8,"material":2,"mode":4},{"attributes":{"POSITION":9,"TEXCOORD_0":10},"indices":11,"material":3,"mode":4},{"attributes":{"POSITION":12,"TEXCOORD_0":13},"indices":14,"material":4,"mode":4},{"attributes":{"POSITION":15,"TEXCOORD_0":16},"indices":17,"material":5,"mode":4},{"attributes":{"POSITION":18,"TEXCOORD_0":19},"indices":20,"material":6,"mode":4},{"attributes":{"POSITION":21,"TEXCOORD_0":22},"indices":23,"material":7,"mode":4},{"attributes":{"POSITION":24,"TEXCOORD_0":25},"indices":26,"material":8,"mode":4},{"attributes":{"POSITION":27,"TEXCOORD_0":28},"indices":29,"material":9,"mode":4},{"attributes":{"POSITION":30,"TEXCOORD_0":31},"indices":32,"material":10,"mode":4},{"attributes":{"POSITION":33,"TEXCOORD_0":34},"indices":35,"material":11,"mode":4},{"attributes":{"POSITION":36,"TEXCOORD_0":37},"indices":38,"material":12,"mode":4},{"attributes":{"POSITION":39,"TEXCOORD_0":40},"indices":41,"material":13,"mode":4}]}],"nodes":[{"name":"tutinin_c","mesh":0}],"samplers":[{"wrapS":10497,"wrapT":10497}],"scene":0,"scenes":[{"nodes":[0]}],"textures":[{"name":"tutinin_c_1_0","sampler":0,"source":0},{"name":"tutinin_c_1_1","sampler":0,"source":1},{"name":"tutinin_c_1_3","sampler":0,"source":2},{"name":"tutinin_c_1_4","sampler":0,"source":3},{"name":"tutinin_c_1_8","sampler":0,"source":4},{"name":"tutinin_c_1_9","sampler":0,"source":5},{"name":"tutinin_c_1_11","sampler":0,"source":6},{"name":"tutinin_c_1_12","sampler":0,"source":7}]}