{"accessors":[{"name":"tekkanin_c-Mesh_0_positions","componentType":5126,"count":39,"min":[-0.27432501316070557,-0.4437820017337799,-0.3726649880409241],"max":[0.2743229866027832,0.17935800552368164,0.37265700101852417],"type":"VEC3","bufferView":0,"byteOffset":0},{"name":"tekkanin_c-Mesh_0_texcoords","componentType":5126,"count":39,"min":[0.09375,0.02344300039112568],"max":[0.9375,0.24224799871444702],"type":"VEC2","bufferView":1,"byteOffset":0},{"name":"tekkanin_c-Mesh_0_indices","componentType":5123,"count":132,"min":[0],"max":[38],"type":"SCALAR","bufferView":2,"byteOffset":0}],"asset":{"generator":"obj2gltf","version":"2.0"},"buffers":[{"name":"BR_Ninjask-Shiny01","byteLength":17448,"uri":"data:application/octet-stream;base64,"}],"bufferViews":[{"name":"bufferView_0","buffer":0,"byteLength":468,"byteOffset":0,"byteStride":12,"target":34962},{"name":"bufferView_1","buffer":0,"byteLength":312,"byteOffset":468,"byteStride":8,"target":34962},{"name":"bufferView_2","buffer":0,"byteLength":264,"byteOffset":780,"target":34963},{"buffer":0,"byteOffset":1044,"byteLength":16402}],"images":[{"name":"tekkanin_c_1_0","mimeType":"image/x-tga","bufferView":3}],"materials":[{"name":"mat_0","pbrMetallicRoughness":{"baseColorTexture":{"index":0},"baseColorFactor":[1,1,1,1],"metallicFactor":0,"roughnessFactor":0.903921569},"emissiveFactor":[0,0,0],"alphaMode":"BLEND","doubleSided":true}],"meshes":[{"name":"tekkanin_c-Mesh","primitives":[{"attributes":{"POSITION":0,"TEXCOORD_0":1},"indices":2,"material":0,"mode":4}]}],"nodes":[{"name":"tekkanin_c","mesh":0}],"samplers":[{"wrapS":10497,"wrapT":10497}],"scene":0,"scenes":[{"nodes":[0]}],"textures":[{"name":"tekkanin_c_1_0","sampler":0,"source":0}]}