{"accessors":[{"name":"nukenin_c-Mesh_0_positions","componentType":5126,"count":101,"min":[-2.159980058670044,-2.3013999462127686,-6.414470195770264],"max":[2.159980058670044,2.286720037460327,-0.43369999527931213],"type":"VEC3","bufferView":0,"byteOffset":0},{"name":"nukenin_c-Mesh_0_texcoords","componentType":5126,"count":101,"min":[0.03594699874520302,0],"max":[0.99863201379776,1],"type":"VEC2","bufferView":1,"byteOffset":0},{"name":"nukenin_c-Mesh_0_indices","componentType":5123,"count":444,"min":[0],"max":[100],"type":"SCALAR","bufferView":2,"byteOffset":0},{"name":"nukenin_c-Mesh_1_positions","componentType":5126,"count":50,"min":[-2.5534000396728516,0.9450809955596924,-6.722249984741211],"max":[2.5534000396728516,3.061889886856079,-4.560349941253662],"type":"VEC3","bufferView":0,"byteOffset":1212},{"name":"nukenin_c-Mesh_1_texcoords","componentType":5126,"count":50,"min":[0.05347999930381775,0.0233910009264946],"max":[0.9441959857940674,0.9765160083770752],"type":"VEC2","bufferView":1,"byteOffset":808},{"name":"nukenin_c-Mesh_1_indices","componentType":5123,"count":216,"min":[0],"max":[49],"type":"SCALAR","bufferView":2,"byteOffset":888},{"name":"nukenin_c-Mesh_2_positions","componentType":5126,"count":103,"min":[-5.703810214996338,-3.0085699558258057,-7.758840084075928],"max":[6.001580238342285,1.324079990386963,-3.1797280311584473],"type":"VEC3","bufferView":0,"byteOffset":1812},{"name":"nukenin_c-Mesh_2_texcoords","componentType":5126,"count":103,"min":[0.3405340015888214,0.00635500019416213],"max":[0.6188539862632751,0.14963699877262115],"type":"VEC2","bufferView":1,"byteOffset":1208},{"name":"nukenin_c-Mesh_2_indices","componentType":5123,"count":306,"min":[0],"max":[102],"type":"SCALAR","bufferView":2,"byteOffset":1320},{"name":"nukenin_c-Mesh_3_positions","componentType":5126,"count":98,"min":[-1.6470099687576294,0.00773600023239851,-7.476719856262207],"max":[1.6470099687576294,4.242809772491455,-3.591156005859375],"type":"VEC3","bufferView":0,"byteOffset":3048},{"name":"nukenin_c-Mesh_3_texcoords","componentType":5126,"count":98,"min":[-5.525829792022705,-0.20577000081539154],"max":[6.538090229034424,1.3795289993286133],"type":"VEC2","bufferView":1,"byteOffset":2032},{"name":"nukenin_c-Mesh_3_indices","componentType":5123,"count":438,"min":[0],"max":[97],"type":"SCALAR","bufferView":2,"byteOffset":1932},{"name":"nukenin_c-Mesh_4_positions","componentType":5126,"count":17,"min":[-1.1296000480651855,-2.1444499492645264,-6.15625],"max":[1.1296000480651855,-0.5654360055923462,-3.6004750728607178],"type":"VEC3","bufferView":0,"byteOffset":4224},{"name":"nukenin_c-Mesh_4_texcoords","componentType":5126,"count":17,"min":[0.3907780051231384,0.23760400712490082],"max":[0.5837839841842651,0.5781009793281555],"type":"VEC2","bufferView":1,"byteOffset":2816},{"name":"nukenin_c-Mesh_4_indices","componentType":5123,"count":48,"min":[0],"max":[16],"type":"SCALAR","bufferView":2,"byteOffset":2808},{"name":"nukenin_c-Mesh_5_positions","componentType":5126,"count":91,"min":[-2.2486801147460938,0.4046730101108551,-7.9397101402282715],"max":[2.2486801147460938,2.543529987335205,-1.3798400163650513],"type":"VEC3","bufferView":0,"byteOffset":4428},{"name":"nukenin_c-Mesh_5_texcoords","componentType":5126,"count":91,"min":[-0.1122020035982132,0.02232999913394451],"max":[1.1364099979400635,1.240043044090271],"type":"VEC2","bufferView":1,"byteOffset":2952},{"name":"nukenin_c-Mesh_5_indices","componentType":5123,"count":342,"min":[0],"max":[90],"type":"SCALAR","bufferView":2,"byteOffset":2904}],"asset":{"generator":"obj2gltf","version":"2.0"},"buffers":[{"name":"BR_Shedinja-Shiny01","byteLength":100960,"uri":"data:application/octet-stream;base64,"}],"bufferViews":[{"name":"bufferView_0","buffer":0,"byteLength":5520,"byteOffset":0,"byteStride":12,"target":34962},{"name":"bufferView_1","buffer":0,"byteLength":3680,"byteOffset":5520,"byteStride":8,"target":34962},{"name":"bufferView_2","buffer":0,"byteLength":3588,"byteOffset":9200,"target":34963},{"buffer":0,"byteOffset":12788,"byteLength":49170},{"buffer":0,"byteOffset":61958,"byteLength":16402},{"buffer":0,"byteOffset":78360,"byteLength":1042},{"buffer":0,"byteOffset":79402,"byteLength":16402},{"buffer":0,"byteOffset":95804,"byteLength":1042},{"buffer":0,"byteOffset":96846,"byteLength":4114}],"images":[{"name":"nukenin_c_1_0","mimeType":"image/x-tga","bufferView":3},{"name":"nukenin_c_1_1","mimeType":"image/x-tga","bufferView":4},{"name":"nukenin_c_1_3","mimeType":"image/x-tga","bufferView":5},{"name":"nukenin_c_1_4","mimeType":"image/x-tga","bufferView":6},{"name":"nukenin_c_1_5","mimeType":"image/x-tga","bufferView":7},{"name":"nukenin_c_1_6","mimeType":"image/x-tga","bufferView":8}],"materials":[{"name":"mat_0","pbrMetallicRoughness":{"baseColorTexture":{"index":0},"baseColorFactor":[1,1,1,1],"metallicFactor":0,"roughnessFactor":0.903921569},"emissiveFactor":[0,0,0],"alphaMode":"BLEND","doubleSided":true},{"name":"mat_1","pbrMetallicRoughness":{"baseColorTexture":{"index":1},"baseColorFactor":[1,1,1,1],"metallicFactor":0,"roughnessFactor":0.903921569},"emissiveFactor":[0,0,0],"alphaMode":"BLEND","doubleSided":true},{"name":"mat_2","pbrMetallicRoughness":{"baseColorTexture":{"index":2},"baseColorFactor":[1,1,1,1],"metallicFactor":0,"roughnessFactor":0.903921569},"emissiveFactor":[0,0,0],"alphaMode":"BLEND","doubleSided":true},{"name":"mat_3","pbrMetallicRoughness":{"baseColorTexture":{"index":3},"baseColorFactor":[1,1,1,1],"metallicFactor":0,"roughnessFactor":0.903921569},"emissiveFactor":[0,0,0],"alphaMode":"BLEND","doubleSided":true},{"name":"mat_4","pbrMetallicRoughness":{"baseColorTexture":{"index":4},"baseColorFactor":[1,1,1,1],"metallicFactor":0,"roughnessFactor":0.903921569},"emissiveFactor":[0,0,0],"alphaMode":"BLEND","doubleSided":true},{"name":"mat_5","pbrMetallicRoughness":{"baseColorTexture":{"index":5},"baseColorFactor":[1,1,1,1],"metallicFactor":0,"roughnessFactor":0.903921569},"emissiveFactor":[0,0,0],"alphaMode":"BLEND","doubleSided":true}],"meshes":[{"name":"nukenin_c-Mesh","primitives":[{"attributes":{"POSITION":0,"TEXCOORD_0":1},"indices":2,"material":0,"mode":4},{"attributes":{"POSITION":3,"TEXCOORD_0":4},"indices":5,"material":1,"mode":4},{"attributes":{"POSITION":6,"TEXCOORD_0":7},"indices":8,"material":2,"mode":4},{"attributes":{"POSITION":9,"TEXCOORD_0":10},"indices":11,"material":3,"mode":4},{"attributes":{"POSITION":12,"TEXCOORD_0":13},"indices":14,"material":4,"mode":4},{"attributes":{"POSITION":15,"TEXCOORD_0":16},"indices":17,"material":5,"mode":4}]}],"nodes":[{"name":"nukenin_c","mesh":0}],"samplers":[{"wrapS":10497,"wrapT":10497}],"scene":0,"scenes":[{"nodes":[0]}],"textures":[{"name":"nukenin_c_1_0","sampler":0,"source":0},{"name":"nukenin_c_1_1","sampler":0,"source":1},{"name":"nukenin_c_1_3","sampler":0,"source":2},{"name":"nukenin_c_1_4","sampler":0,"source":3},{"name":"nukenin_c_1_5","sampler":0,"source":4},{"name":"nukenin_c_1_6","sampler":0,"source":5}]}