{"accessors":[{"name":"gonyonyo-Mesh_0_positions","componentType":5126,"count":17,"min":[-4.547729969024658,0.6021130084991455,-2.7200000286102295],"max":[4.380270004272461,3.8101999759674072,2.7200000286102295],"type":"VEC3","bufferView":0,"byteOffset":0},{"name":"gonyonyo-Mesh_0_texcoords","componentType":5126,"count":17,"min":[0.08895000070333481,0.5357139706611633],"max":[0.9103779792785645,0.9279789924621582],"type":"VEC2","bufferView":1,"byteOffset":0},{"name":"gonyonyo-Mesh_0_indices","componentType":5123,"count":54,"min":[0],"max":[16],"type":"SCALAR","bufferView":2,"byteOffset":0},{"name":"gonyonyo-Mesh_1_positions","componentType":5126,"count":6,"min":[-3.7583799362182617,-6.3259501457214355,2.1559998989105225],"max":[3.3636600971221924,0.6213399767875671,2.8235599994659424],"type":"VEC3","bufferView":0,"byteOffset":204},{"name":"gonyonyo-Mesh_1_texcoords","componentType":5126,"count":6,"min":[-0.18750299513339996,-0.09781000018119812],"max":[1.1028800010681152,1.3937809467315674],"type":"VEC2","bufferView":1,"byteOffset":136},{"name":"gonyonyo-Mesh_1_indices","componentType":5123,"count":12,"min":[0],"max":[5],"type":"SCALAR","bufferView":2,"byteOffset":108}],"asset":{"generator":"obj2gltf","version":"2.0"},"buffers":[{"name":"BR_Whismur-Shiny01","byteLength":20148,"uri":"data:application/octet-stream;base64,"}],"bufferViews":[{"name":"bufferView_0","buffer":0,"byteLength":276,"byteOffset":0,"byteStride":12,"target":34962},{"name":"bufferView_1","buffer":0,"byteLength":184,"byteOffset":276,"byteStride":8,"target":34962},{"name":"bufferView_2","buffer":0,"byteLength":132,"byteOffset":460,"target":34963},{"buffer":0,"byteOffset":592,"byteLength":3154},{"buffer":0,"byteOffset":3746,"byteLength":16402}],"images":[{"name":"gonyonyo_1_0","mimeType":"image/x-tga","bufferView":3},{"name":"gonyonyo_1_1","mimeType":"image/x-tga","bufferView":4}],"materials":[{"name":"mat_1","pbrMetallicRoughness":{"baseColorTexture":{"index":0},"baseColorFactor":[1,1,1,1],"metallicFactor":0,"roughnessFactor":0.903921569},"emissiveFactor":[0,0,0],"alphaMode":"BLEND","doubleSided":true},{"name":"mat_2","pbrMetallicRoughness":{"baseColorTexture":{"index":1},"baseColorFactor":[1,1,1,1],"metallicFactor":0,"roughnessFactor":0.903921569},"emissiveFactor":[0,0,0],"alphaMode":"BLEND","doubleSided":true}],"meshes":[{"name":"gonyonyo-Mesh","primitives":[{"attributes":{"POSITION":0,"TEXCOORD_0":1},"indices":2,"material":0,"mode":4},{"attributes":{"POSITION":3,"TEXCOORD_0":4},"indices":5,"material":1,"mode":4}]}],"nodes":[{"name":"gonyonyo","mesh":0}],"samplers":[{"wrapS":10497,"wrapT":10497}],"scene":0,"scenes":[{"nodes":[0]}],"textures":[{"name":"gonyonyo_1_0","sampler":0,"source":0},{"name":"gonyonyo_1_1","sampler":0,"source":1}]}