{"accessors":[{"name":"dogohmb-Mesh_0_positions","componentType":5126,"count":276,"min":[-6.059470176696777,-2.7239699363708496,-10.033299446105957],"max":[6.059470176696777,2.794950008392334,0.0039980001747608185],"type":"VEC3","bufferView":0,"byteOffset":0},{"name":"dogohmb-Mesh_0_texcoords","componentType":5126,"count":276,"min":[-0.0934159979224205,0.05350400134921074],"max":[1.0934200286865234,1],"type":"VEC2","bufferView":1,"byteOffset":0},{"name":"dogohmb-Mesh_0_indices","componentType":5123,"count":1155,"min":[0],"max":[275],"type":"SCALAR","bufferView":2,"byteOffset":0},{"name":"dogohmb-Mesh_1_positions","componentType":5126,"count":44,"min":[-2.5879900455474854,1.114650011062622,-6.274630069732666],"max":[2.5879900455474854,3.003570079803467,-1.5305999517440796],"type":"VEC3","bufferView":0,"byteOffset":3312},{"name":"dogohmb-Mesh_1_texcoords","componentType":5126,"count":44,"min":[0,1],"max":[0,1],"type":"VEC2","bufferView":1,"byteOffset":2208},{"name":"dogohmb-Mesh_1_indices","componentType":5123,"count":183,"min":[0],"max":[43],"type":"SCALAR","bufferView":2,"byteOffset":2312},{"name":"dogohmb-Mesh_2_positions","componentType":5126,"count":46,"min":[-2.1438100337982178,-0.36989399790763855,-5.4404802322387695],"max":[2.1438100337982178,2.873500108718872,-2.394089937210083],"type":"VEC3","bufferView":0,"byteOffset":3840},{"name":"dogohmb-Mesh_2_texcoords","componentType":5126,"count":46,"min":[-0.011421999894082546,0.0010989999864250422],"max":[1.0114400386810303,0.9795140027999878],"type":"VEC2","bufferView":1,"byteOffset":2560},{"name":"dogohmb-Mesh_2_indices","componentType":5123,"count":114,"min":[0],"max":[45],"type":"SCALAR","bufferView":2,"byteOffset":2680},{"name":"dogohmb-Mesh_3_positions","componentType":5126,"count":72,"min":[-4.1013898849487305,-1.0414700508117676,-5.42602014541626],"max":[4.1013898849487305,2.3219199180603027,0.0039980001747608185],"type":"VEC3","bufferView":0,"byteOffset":4392},{"name":"dogohmb-Mesh_3_texcoords","componentType":5126,"count":72,"min":[0,0],"max":[1,1],"type":"VEC2","bufferView":1,"byteOffset":2928},{"name":"dogohmb-Mesh_3_indices","componentType":5123,"count":204,"min":[0],"max":[71],"type":"SCALAR","bufferView":2,"byteOffset":2908},{"name":"dogohmb-Mesh_4_positions","componentType":5126,"count":4,"min":[-0.4187000095844269,-2.6334099769592285,-2.111340045928955],"max":[0.4187000095844269,-2.223979949951172,-1.3629200458526611],"type":"VEC3","bufferView":0,"byteOffset":5256},{"name":"dogohmb-Mesh_4_texcoords","componentType":5126,"count":4,"min":[0.10000000149011612,0.10000000149011612],"max":[0.8999999761581421,0.8999999761581421],"type":"VEC2","bufferView":1,"byteOffset":3504},{"name":"dogohmb-Mesh_4_indices","componentType":5123,"count":6,"min":[0],"max":[3],"type":"SCALAR","bufferView":2,"byteOffset":3316},{"name":"dogohmb-Mesh_5_positions","componentType":5126,"count":22,"min":[-4.8502302169799805,-0.22360000014305115,-10.033299446105957],"max":[4.8502302169799805,0.45153799653053284,-7.163579940795898],"type":"VEC3","bufferView":0,"byteOffset":5304},{"name":"dogohmb-Mesh_5_texcoords","componentType":5126,"count":22,"min":[-0.07515300065279007,-0.04690999910235405],"max":[1.0811500549316406,1.0249810218811035],"type":"VEC2","bufferView":1,"byteOffset":3536},{"name":"dogohmb-Mesh_5_indices","componentType":5123,"count":60,"min":[0],"max":[21],"type":"SCALAR","bufferView":2,"byteOffset":3328},{"name":"dogohmb-Mesh_6_positions","componentType":5126,"count":34,"min":[-4.8502302169799805,-1.0161099433898926,-10.033299446105957],"max":[4.8502302169799805,0.45153799653053284,-7.163579940795898],"type":"VEC3","bufferView":0,"byteOffset":5568},{"name":"dogohmb-Mesh_6_texcoords","componentType":5126,"count":34,"min":[-0.11874999850988388,-0.053130000829696655],"max":[1.121880054473877,1.046875],"type":"VEC2","bufferView":1,"byteOffset":3712},{"name":"dogohmb-Mesh_6_indices","componentType":5123,"count":132,"min":[0],"max":[33],"type":"SCALAR","bufferView":2,"byteOffset":3448},{"name":"dogohmb-Mesh_7_positions","componentType":5126,"count":7,"min":[-0.7555429935455322,2.557270050048828,-6.818570137023926],"max":[0.7555429935455322,2.9109599590301514,-6.064899921417236],"type":"VEC3","bufferView":0,"byteOffset":5976},{"name":"dogohmb-Mesh_7_texcoords","componentType":5126,"count":7,"min":[-0.20691999793052673,-0.04227999970316887],"max":[0.9788110256195068,1.2195500135421753],"type":"VEC2","bufferView":1,"byteOffset":3984},{"name":"dogohmb-Mesh_7_indices","componentType":5123,"count":15,"min":[0],"max":[6],"type":"SCALAR","bufferView":2,"byteOffset":3712},{"name":"dogohmb-Mesh_8_positions","componentType":5126,"count":16,"min":[-3.445080041885376,-1.0414700508117676,0.003994000144302845],"max":[3.445080041885376,1.0253700017929077,0.0039980001747608185],"type":"VEC3","bufferView":0,"byteOffset":6060},{"name":"dogohmb-Mesh_8_texcoords","componentType":5126,"count":16,"min":[-0.11330699920654297,-0.2322700023651123],"max":[1.1539299488067627,1.2198489904403687],"type":"VEC2","bufferView":1,"byteOffset":4040},{"name":"dogohmb-Mesh_8_indices","componentType":5123,"count":36,"min":[0],"max":[15],"type":"SCALAR","bufferView":2,"byteOffset":3744},{"name":"dogohmb-Mesh_9_positions","componentType":5126,"count":24,"min":[-2.488409996032715,1.1524699926376343,-7.19989013671875],"max":[2.488409996032715,2.6716599464416504,-6.016670227050781],"type":"VEC3","bufferView":0,"byteOffset":6252},{"name":"dogohmb-Mesh_9_texcoords","componentType":5126,"count":24,"min":[-0.30529698729515076,0.028024999424815178],"max":[1.352180004119873,0.21121099591255188],"type":"VEC2","bufferView":1,"byteOffset":4168},{"name":"dogohmb-Mesh_9_indices","componentType":5123,"count":84,"min":[0],"max":[23],"type":"SCALAR","bufferView":2,"byteOffset":3816},{"name":"dogohmb-Mesh_10_positions","componentType":5126,"count":19,"min":[-1.965399980545044,-0.36989399790763855,-5.403480052947998],"max":[1.965399980545044,1.7480299472808838,-2.700350046157837],"type":"VEC3","bufferView":0,"byteOffset":6540},{"name":"dogohmb-Mesh_10_texcoords","componentType":5126,"count":19,"min":[0.07292799651622772,0.2603369951248169],"max":[0.7102460265159607,0.7219610214233398],"type":"VEC2","bufferView":1,"byteOffset":4360},{"name":"dogohmb-Mesh_10_indices","componentType":5123,"count":45,"min":[0],"max":[18],"type":"SCALAR","bufferView":2,"byteOffset":3984},{"name":"dogohmb-Mesh_11_positions","componentType":5126,"count":82,"min":[-7.269959926605225,-0.7190560102462769,-5.771999835968018],"max":[7.269959926605225,1.151710033416748,-3.9679999351501465],"type":"VEC3","bufferView":0,"byteOffset":6768},{"name":"dogohmb-Mesh_11_texcoords","componentType":5126,"count":82,"min":[0,-0.19471000134944916],"max":[7.803689956665039,1.2074060440063477],"type":"VEC2","bufferView":1,"byteOffset":4512},{"name":"dogohmb-Mesh_11_indices","componentType":5123,"count":162,"min":[0],"max":[81],"type":"SCALAR","bufferView":2,"byteOffset":4076}],"asset":{"generator":"obj2gltf","version":"2.0"},"buffers":[{"name":"BR_Loudred-Shiny01","byteLength":295040,"uri":"data:application/octet-stream;base64,"}],"bufferViews":[{"name":"bufferView_0","buffer":0,"byteLength":7752,"byteOffset":0,"byteStride":12,"target":34962},{"name":"bufferView_1","buffer":0,"byteLength":5168,"byteOffset":7752,"byteStride":8,"target":34962},{"name":"bufferView_2","buffer":0,"byteLength":4400,"byteOffset":12920,"target":34963},{"buffer":0,"byteOffset":17320,"byteLength":65554},{"buffer":0,"byteOffset":82874,"byteLength":1042},{"buffer":0,"byteOffset":83916,"byteLength":65554},{"buffer":0,"byteOffset":149470,"byteLength":1042},{"buffer":0,"byteOffset":150512,"byteLength":4114},{"buffer":0,"byteOffset":154626,"byteLength":16402},{"buffer":0,"byteOffset":171028,"byteLength":16402},{"buffer":0,"byteOffset":187430,"byteLength":4114},{"buffer":0,"byteOffset":191544,"byteLength":4114},{"buffer":0,"byteOffset":195658,"byteLength":81938},{"buffer":0,"byteOffset":277596,"byteLength":1042},{"buffer":0,"byteOffset":278638,"byteLength":16402}],"images":[{"name":"dogohmb_1_0","mimeType":"image/x-tga","bufferView":3},{"name":"dogohmb_1_1","mimeType":"image/x-tga","bufferView":4},{"name":"dogohmb_1_2","mimeType":"image/x-tga","bufferView":5},{"name":"dogohmb_1_3","mimeType":"image/x-tga","bufferView":6},{"name":"dogohmb_1_4","mimeType":"image/x-tga","bufferView":7},{"name":"dogohmb_1_5","mimeType":"image/x-tga","bufferView":8},{"name":"dogohmb_1_6","mimeType":"image/x-tga","bufferView":9},{"name":"dogohmb_1_7","mimeType":"image/x-tga","bufferView":10},{"name":"dogohmb_1_8","mimeType":"image/x-tga","bufferView":11},{"name":"dogohmb_1_9","mimeType":"image/x-tga","bufferView":12},{"name":"dogohmb_1_10","mimeType":"image/x-tga","bufferView":13},{"name":"dogohmb_1_11","mimeType":"image/x-tga","bufferView":14}],"materials":[{"name":"mat_0","pbrMetallicRoughness":{"baseColorTexture":{"index":0},"baseColorFactor":[1,1,1,1],"metallicFactor":0,"roughnessFactor":0.903921569},"emissiveFactor":[0,0,0],"alphaMode":"BLEND","doubleSided":true},{"name":"mat_1","pbrMetallicRoughness":{"baseColorTexture":{"index":1},"baseColorFactor":[1,1,1,1],"metallicFactor":0,"roughnessFactor":0.903921569},"emissiveFactor":[0,0,0],"alphaMode":"BLEND","doubleSided":true},{"name":"mat_2","pbrMetallicRoughness":{"baseColorTexture":{"index":2},"baseColorFactor":[1,1,1,1],"metallicFactor":0,"roughnessFactor":0.903921569},"emissiveFactor":[0,0,0],"alphaMode":"BLEND","doubleSided":true},{"name":"mat_3","pbrMetallicRoughness":{"baseColorTexture":{"index":3},"baseColorFactor":[1,1,1,1],"metallicFactor":0,"roughnessFactor":0.903921569},"emissiveFactor":[0,0,0],"alphaMode":"BLEND","doubleSided":true},{"name":"mat_4","pbrMetallicRoughness":{"baseColorTexture":{"index":4},"baseColorFactor":[1,1,1,1],"metallicFactor":0,"roughnessFactor":0.903921569},"emissiveFactor":[0,0,0],"alphaMode":"BLEND","doubleSided":true},{"name":"mat_5","pbrMetallicRoughness":{"baseColorTexture":{"index":5},"baseColorFactor":[1,1,1,1],"metallicFactor":0,"roughnessFactor":0.903921569},"emissiveFactor":[0,0,0],"alphaMode":"BLEND","doubleSided":true},{"name":"mat_6","pbrMetallicRoughness":{"baseColorTexture":{"index":6},"baseColorFactor":[1,1,1,1],"metallicFactor":0,"roughnessFactor":0.903921569},"emissiveFactor":[0,0,0],"alphaMode":"BLEND","doubleSided":true},{"name":"mat_7","pbrMetallicRoughness":{"baseColorTexture":{"index":7},"baseColorFactor":[1,1,1,1],"metallicFactor":0,"roughnessFactor":0.903921569},"emissiveFactor":[0,0,0],"alphaMode":"BLEND","doubleSided":true},{"name":"mat_8","pbrMetallicRoughness":{"baseColorTexture":{"index":8},"baseColorFactor":[1,1,1,1],"metallicFactor":0,"roughnessFactor":0.903921569},"emissiveFactor":[0,0,0],"alphaMode":"BLEND","doubleSided":true},{"name":"mat_9","pbrMetallicRoughness":{"baseColorTexture":{"index":9},"baseColorFactor":[1,1,1,1],"metallicFactor":0,"roughnessFactor":0.903921569},"emissiveFactor":[0,0,0],"alphaMode":"BLEND","doubleSided":true},{"name":"mat_10","pbrMetallicRoughness":{"baseColorTexture":{"index":10},"baseColorFactor":[1,1,1,1],"metallicFactor":0,"roughnessFactor":0.903921569},"emissiveFactor":[0,0,0],"alphaMode":"BLEND","doubleSided":true},{"name":"mat_11","pbrMetallicRoughness":{"baseColorTexture":{"index":11},"baseColorFactor":[1,1,1,1],"metallicFactor":0,"roughnessFactor":0.903921569},"emissiveFactor":[0,0,0],"alphaMode":"BLEND","doubleSided":true}],"meshes":[{"name":"dogohmb-Mesh","primitives":[{"attributes":{"POSITION":0,"TEXCOORD_0":1},"indices":2,"material":0,"mode":4},{"attributes":{"POSITION":3,"TEXCOORD_0":4},"indices":5,"material":1,"mode":4},{"attributes":{"POSITION":6,"TEXCOORD_0":7},"indices":8,"material":2,"mode":4},{"attributes":{"POSITION":9,"TEXCOORD_0":10},"indices":11,"material":3,"mode":4},{"attributes":{"POSITION":12,"TEXCOORD_0":13},"indices":14,"material":4,"mode":4},{"attributes":{"POSITION":15,"TEXCOORD_0":16},"indices":17,"material":5,"mode":4},{"attributes":{"POSITION":18,"TEXCOORD_0":19},"indices":20,"material":6,"mode":4},{"attributes":{"POSITION":21,"TEXCOORD_0":22},"indices":23,"material":7,"mode":4},{"attributes":{"POSITION":24,"TEXCOORD_0":25},"indices":26,"material":8,"mode":4},{"attributes":{"POSITION":27,"TEXCOORD_0":28},"indices":29,"material":9,"mode":4},{"attributes":{"POSITION":30,"TEXCOORD_0":31},"indices":32,"material":10,"mode":4},{"attributes":{"POSITION":33,"TEXCOORD_0":34},"indices":35,"material":11,"mode":4}]}],"nodes":[{"name":"dogohmb","mesh":0}],"samplers":[{"wrapS":10497,"wrapT":10497}],"scene":0,"scenes":[{"nodes":[0]}],"textures":[{"name":"dogohmb_1_0","sampler":0,"source":0},{"name":"dogohmb_1_1","sampler":0,"source":1},{"name":"dogohmb_1_2","sampler":0,"source":2},{"name":"dogohmb_1_3","sampler":0,"source":3},{"name":"dogohmb_1_4","sampler":0,"source":4},{"name":"dogohmb_1_5","sampler":0,"source":5},{"name":"dogohmb_1_6","sampler":0,"source":6},{"name":"dogohmb_1_7","sampler":0,"source":7},{"name":"dogohmb_1_8","sampler":0,"source":8},{"name":"dogohmb_1_9","sampler":0,"source":9},{"name":"dogohmb_1_10","sampler":0,"source":10},{"name":"dogohmb_1_11","sampler":0,"source":11}]}