{"accessors":[{"name":"bakuong-Mesh_0_positions","componentType":5126,"count":33,"min":[-10.497599601745605,1.3708800077438354,-8.778209686279297],"max":[10.497599601745605,4.063769817352295,-6.674059867858887],"type":"VEC3","bufferView":0,"byteOffset":0},{"name":"bakuong-Mesh_0_texcoords","componentType":5126,"count":33,"min":[0.1652500033378601,0.008565000258386135],"max":[0.8903599977493286,1.194614052772522],"type":"VEC2","bufferView":1,"byteOffset":0},{"name":"bakuong-Mesh_0_indices","componentType":5123,"count":66,"min":[0],"max":[32],"type":"SCALAR","bufferView":2,"byteOffset":0},{"name":"bakuong-Mesh_1_positions","componentType":5126,"count":18,"min":[-8.780790328979492,0.2753709852695465,-8.678030014038086],"max":[8.780790328979492,2.316159963607788,-6.773039817810059],"type":"VEC3","bufferView":0,"byteOffset":396},{"name":"bakuong-Mesh_1_texcoords","componentType":5126,"count":18,"min":[-0.7910140156745911,-0.14616000652313232],"max":[1.794100046157837,1.0058289766311646],"type":"VEC2","bufferView":1,"byteOffset":264},{"name":"bakuong-Mesh_1_indices","componentType":5123,"count":42,"min":[0],"max":[17],"type":"SCALAR","bufferView":2,"byteOffset":132},{"name":"bakuong-Mesh_2_positions","componentType":5126,"count":306,"min":[-10.497599601745605,-7.2842302322387695,-12.15410041809082],"max":[10.497599601745605,5.459179878234863,0.0032709999941289425],"type":"VEC3","bufferView":0,"byteOffset":612},{"name":"bakuong-Mesh_2_texcoords","componentType":5126,"count":306,"min":[0.5801460146903992,0.612155020236969],"max":[0.5801460146903992,0.612155020236969],"type":"VEC2","bufferView":1,"byteOffset":408},{"name":"bakuong-Mesh_2_indices","componentType":5123,"count":1425,"min":[0],"max":[305],"type":"SCALAR","bufferView":2,"byteOffset":216},{"name":"bakuong-Mesh_3_positions","componentType":5126,"count":96,"min":[-5.149330139160156,-2.531670093536377,-8.932700157165527],"max":[5.149330139160156,4.764729976654053,-0.007280000019818544],"type":"VEC3","bufferView":0,"byteOffset":4284},{"name":"bakuong-Mesh_3_texcoords","componentType":5126,"count":96,"min":[-0.926285982131958,-0.17591999471187592],"max":[2.8442800045013428,1.4988960027694702],"type":"VEC2","bufferView":1,"byteOffset":2856},{"name":"bakuong-Mesh_3_indices","componentType":5123,"count":360,"min":[0],"max":[95],"type":"SCALAR","bufferView":2,"byteOffset":3068},{"name":"bakuong-Mesh_4_positions","componentType":5126,"count":45,"min":[-5.446619987487793,-10.263699531555176,-15.191100120544434],"max":[5.446619987487793,3.6225900650024414,-6.629240036010742],"type":"VEC3","bufferView":0,"byteOffset":5436},{"name":"bakuong-Mesh_4_texcoords","componentType":5126,"count":45,"min":[-0.10364899784326553,-0.1133899986743927],"max":[1.1103800535202026,1.115319013595581],"type":"VEC2","bufferView":1,"byteOffset":3624},{"name":"bakuong-Mesh_4_indices","componentType":5123,"count":108,"min":[0],"max":[44],"type":"SCALAR","bufferView":2,"byteOffset":3788},{"name":"bakuong-Mesh_5_positions","componentType":5126,"count":10,"min":[-0.7960150241851807,4.824649810791016,-9.303569793701172],"max":[0.7960140109062195,5.836190223693848,-8.254059791564941],"type":"VEC3","bufferView":0,"byteOffset":5976},{"name":"bakuong-Mesh_5_texcoords","componentType":5126,"count":10,"min":[-1.404770016670227,-0.6756100058555603],"max":[1.9612699747085571,1.124081015586853],"type":"VEC2","bufferView":1,"byteOffset":3984},{"name":"bakuong-Mesh_5_indices","componentType":5123,"count":33,"min":[0],"max":[9],"type":"SCALAR","bufferView":2,"byteOffset":4004},{"name":"bakuong-Mesh_6_positions","componentType":5126,"count":42,"min":[-3.6575300693511963,-3.938649892807007,-11.3056001663208],"max":[3.6575300693511963,3.401710033416748,-1.7340199947357178],"type":"VEC3","bufferView":0,"byteOffset":6096},{"name":"bakuong-Mesh_6_texcoords","componentType":5126,"count":42,"min":[-0.323978990316391,-0.7867599725723267],"max":[2.114840030670166,1.29863703250885],"type":"VEC2","bufferView":1,"byteOffset":4064},{"name":"bakuong-Mesh_6_indices","componentType":5123,"count":102,"min":[0],"max":[41],"type":"SCALAR","bufferView":2,"byteOffset":4072},{"name":"bakuong-Mesh_7_positions","componentType":5126,"count":79,"min":[-5.446619987487793,-10.263699531555176,-15.191100120544434],"max":[5.446619987487793,4.063769817352295,-5.837019920349121],"type":"VEC3","bufferView":0,"byteOffset":6600},{"name":"bakuong-Mesh_7_texcoords","componentType":5126,"count":79,"min":[-0.1580830067396164,-0.7245500087738037],"max":[1.2769399881362915,1.5201009511947632],"type":"VEC2","bufferView":1,"byteOffset":4400},{"name":"bakuong-Mesh_7_indices","componentType":5123,"count":237,"min":[0],"max":[78],"type":"SCALAR","bufferView":2,"byteOffset":4276},{"name":"bakuong-Mesh_8_positions","componentType":5126,"count":29,"min":[-2.783050060272217,3.6066300868988037,-11.41450023651123],"max":[2.783050060272217,5.4918599128723145,-8.922690391540527],"type":"VEC3","bufferView":0,"byteOffset":7548},{"name":"bakuong-Mesh_8_texcoords","componentType":5126,"count":29,"min":[-0.07291699945926666,0.03734099864959717],"max":[1.1892399787902832,0.2199070006608963],"type":"VEC2","bufferView":1,"byteOffset":5032},{"name":"bakuong-Mesh_8_indices","componentType":5123,"count":120,"min":[0],"max":[28],"type":"SCALAR","bufferView":2,"byteOffset":4752},{"name":"bakuong-Mesh_9_positions","componentType":5126,"count":20,"min":[-4.282619953155518,-4.1354899406433105,-9.984310150146484],"max":[4.282619953155518,1.7844799757003784,-1.5657999515533447],"type":"VEC3","bufferView":0,"byteOffset":7896},{"name":"bakuong-Mesh_9_texcoords","componentType":5126,"count":20,"min":[-0.12545199692249298,-0.1025099977850914],"max":[1.115149974822998,1.109104037284851],"type":"VEC2","bufferView":1,"byteOffset":5264},{"name":"bakuong-Mesh_9_indices","componentType":5123,"count":48,"min":[0],"max":[19],"type":"SCALAR","bufferView":2,"byteOffset":4992},{"name":"bakuong-Mesh_10_positions","componentType":5126,"count":16,"min":[-2.663300037384033,-1.9627599716186523,-9.473819732666016],"max":[2.663300037384033,4.063769817352295,-5.226779937744141],"type":"VEC3","bufferView":0,"byteOffset":8136},{"name":"bakuong-Mesh_10_texcoords","componentType":5126,"count":16,"min":[0.006696000229567289,0.008929000236093998],"max":[0.9652780294418335,0.9776790142059326],"type":"VEC2","bufferView":1,"byteOffset":5424},{"name":"bakuong-Mesh_10_indices","componentType":5123,"count":45,"min":[0],"max":[15],"type":"SCALAR","bufferView":2,"byteOffset":5088},{"name":"bakuong-Mesh_11_positions","componentType":5126,"count":12,"min":[-2.3948400020599365,-1.9627599716186523,-8.357959747314453],"max":[2.3948400020599365,4.982500076293945,-5.226779937744141],"type":"VEC3","bufferView":0,"byteOffset":8328},{"name":"bakuong-Mesh_11_texcoords","componentType":5126,"count":12,"min":[-0.008681000210344791,-0.04861000180244446],"max":[1.017359972000122,0.9513890147209167],"type":"VEC2","bufferView":1,"byteOffset":5552},{"name":"bakuong-Mesh_11_indices","componentType":5123,"count":36,"min":[0],"max":[11],"type":"SCALAR","bufferView":2,"byteOffset":5180},{"name":"bakuong-Mesh_12_positions","componentType":5126,"count":8,"min":[-4.631609916687012,-2.1623799800872803,0.0015930000226944685],"max":[4.631609916687012,1.0584499835968018,0.0032480000518262386],"type":"VEC3","bufferView":0,"byteOffset":8472},{"name":"bakuong-Mesh_12_texcoords","componentType":5126,"count":8,"min":[0.009112999774515629,0.08193600177764893],"max":[0.9892150163650513,1.0467760562896729],"type":"VEC2","bufferView":1,"byteOffset":5648},{"name":"bakuong-Mesh_12_indices","componentType":5123,"count":12,"min":[0],"max":[7],"type":"SCALAR","bufferView":2,"byteOffset":5252}],"asset":{"generator":"obj2gltf","version":"2.0"},"buffers":[{"name":"BR_Exploud-Shiny01","byteLength":135568,"uri":"data:application/octet-stream;base64,"}],"bufferViews":[{"name":"bufferView_0","buffer":0,"byteLength":8568,"byteOffset":0,"byteStride":12,"target":34962},{"name":"bufferView_1","buffer":0,"byteLength":5712,"byteOffset":8568,"byteStride":8,"target":34962},{"name":"bufferView_2","buffer":0,"byteLength":5276,"byteOffset":14280,"target":34963},{"buffer":0,"byteOffset":19556,"byteLength":4114},{"buffer":0,"byteOffset":23670,"byteLength":4114},{"buffer":0,"byteOffset":27784,"byteLength":82},{"buffer":0,"byteOffset":27866,"byteLength":1042},{"buffer":0,"byteOffset":28908,"byteLength":4114},{"buffer":0,"byteOffset":33022,"byteLength":4114},{"buffer":0,"byteOffset":37136,"byteLength":8210},{"buffer":0,"byteOffset":45346,"byteLength":4114},{"buffer":0,"byteOffset":49460,"byteLength":61458},{"buffer":0,"byteOffset":110918,"byteLength":4114},{"buffer":0,"byteOffset":115032,"byteLength":8210},{"buffer":0,"byteOffset":123242,"byteLength":8210},{"buffer":0,"byteOffset":131452,"byteLength":4114}],"images":[{"name":"bakuong_1_0","mimeType":"image/x-tga","bufferView":3},{"name":"bakuong_1_1","mimeType":"image/x-tga","bufferView":4},{"name":"bakuong_1_2","mimeType":"image/x-tga","bufferView":5},{"name":"bakuong_1_3","mimeType":"image/x-tga","bufferView":6},{"name":"bakuong_1_4","mimeType":"image/x-tga","bufferView":7},{"name":"bakuong_1_5","mimeType":"image/x-tga","bufferView":8},{"name":"bakuong_1_6","mimeType":"image/x-tga","bufferView":9},{"name":"bakuong_1_7","mimeType":"image/x-tga","bufferView":10},{"name":"bakuong_1_8","mimeType":"image/x-tga","bufferView":11},{"name":"bakuong_1_9","mimeType":"image/x-tga","bufferView":12},{"name":"bakuong_1_10","mimeType":"image/x-tga","bufferView":13},{"name":"bakuong_1_11","mimeType":"image/x-tga","bufferView":14},{"name":"bakuong_1_12","mimeType":"image/x-tga","bufferView":15}],"materials":[{"name":"mat_0","pbrMetallicRoughness":{"baseColorTexture":{"index":0},"baseColorFactor":[1,1,1,1],"metallicFactor":0,"roughnessFactor":0.903921569},"emissiveFactor":[0,0,0],"alphaMode":"BLEND","doubleSided":true},{"name":"mat_1","pbrMetallicRoughness":{"baseColorTexture":{"index":1},"baseColorFactor":[1,1,1,1],"metallicFactor":0,"roughnessFactor":0.903921569},"emissiveFactor":[0,0,0],"alphaMode":"BLEND","doubleSided":true},{"name":"mat_2","pbrMetallicRoughness":{"baseColorTexture":{"index":2},"baseColorFactor":[1,1,1,1],"metallicFactor":0,"roughnessFactor":0.903921569},"emissiveFactor":[0,0,0],"alphaMode":"BLEND","doubleSided":true},{"name":"mat_3","pbrMetallicRoughness":{"baseColorTexture":{"index":3},"baseColorFactor":[1,1,1,1],"metallicFactor":0,"roughnessFactor":0.903921569},"emissiveFactor":[0,0,0],"alphaMode":"BLEND","doubleSided":true},{"name":"mat_4","pbrMetallicRoughness":{"baseColorTexture":{"index":4},"baseColorFactor":[1,1,1,1],"metallicFactor":0,"roughnessFactor":0.903921569},"emissiveFactor":[0,0,0],"alphaMode":"BLEND","doubleSided":true},{"name":"mat_5","pbrMetallicRoughness":{"baseColorTexture":{"index":5},"baseColorFactor":[1,1,1,1],"metallicFactor":0,"roughnessFactor":0.903921569},"emissiveFactor":[0,0,0],"alphaMode":"BLEND","doubleSided":true},{"name":"mat_6","pbrMetallicRoughness":{"baseColorTexture":{"index":6},"baseColorFactor":[1,1,1,1],"metallicFactor":0,"roughnessFactor":0.903921569},"emissiveFactor":[0,0,0],"alphaMode":"BLEND","doubleSided":true},{"name":"mat_7","pbrMetallicRoughness":{"baseColorTexture":{"index":7},"baseColorFactor":[1,1,1,1],"metallicFactor":0,"roughnessFactor":0.903921569},"emissiveFactor":[0,0,0],"alphaMode":"BLEND","doubleSided":true},{"name":"mat_8","pbrMetallicRoughness":{"baseColorTexture":{"index":8},"baseColorFactor":[1,1,1,1],"metallicFactor":0,"roughnessFactor":0.903921569},"emissiveFactor":[0,0,0],"alphaMode":"BLEND","doubleSided":true},{"name":"mat_9","pbrMetallicRoughness":{"baseColorTexture":{"index":9},"baseColorFactor":[1,1,1,1],"metallicFactor":0,"roughnessFactor":0.903921569},"emissiveFactor":[0,0,0],"alphaMode":"BLEND","doubleSided":true},{"name":"mat_10","pbrMetallicRoughness":{"baseColorTexture":{"index":10},"baseColorFactor":[1,1,1,1],"metallicFactor":0,"roughnessFactor":0.903921569},"emissiveFactor":[0,0,0],"alphaMode":"BLEND","doubleSided":true},{"name":"mat_11","pbrMetallicRoughness":{"baseColorTexture":{"index":11},"baseColorFactor":[1,1,1,1],"metallicFactor":0,"roughnessFactor":0.903921569},"emissiveFactor":[0,0,0],"alphaMode":"BLEND","doubleSided":true},{"name":"mat_12","pbrMetallicRoughness":{"baseColorTexture":{"index":12},"baseColorFactor":[1,1,1,1],"metallicFactor":0,"roughnessFactor":0.903921569},"emissiveFactor":[0,0,0],"alphaMode":"BLEND","doubleSided":true}],"meshes":[{"name":"bakuong-Mesh","primitives":[{"attributes":{"POSITION":0,"TEXCOORD_0":1},"indices":2,"material":0,"mode":4},{"attributes":{"POSITION":3,"TEXCOORD_0":4},"indices":5,"material":1,"mode":4},{"attributes":{"POSITION":6,"TEXCOORD_0":7},"indices":8,"material":2,"mode":4},{"attributes":{"POSITION":9,"TEXCOORD_0":10},"indices":11,"material":3,"mode":4},{"attributes":{"POSITION":12,"TEXCOORD_0":13},"indices":14,"material":4,"mode":4},{"attributes":{"POSITION":15,"TEXCOORD_0":16},"indices":17,"material":5,"mode":4},{"attributes":{"POSITION":18,"TEXCOORD_0":19},"indices":20,"material":6,"mode":4},{"attributes":{"POSITION":21,"TEXCOORD_0":22},"indices":23,"material":7,"mode":4},{"attributes":{"POSITION":24,"TEXCOORD_0":25},"indices":26,"material":8,"mode":4},{"attributes":{"POSITION":27,"TEXCOORD_0":28},"indices":29,"material":9,"mode":4},{"attributes":{"POSITION":30,"TEXCOORD_0":31},"indices":32,"material":10,"mode":4},{"attributes":{"POSITION":33,"TEXCOORD_0":34},"indices":35,"material":11,"mode":4},{"attributes":{"POSITION":36,"TEXCOORD_0":37},"indices":38,"material":12,"mode":4}]}],"nodes":[{"name":"bakuong","mesh":0}],"samplers":[{"wrapS":10497,"wrapT":10497}],"scene":0,"scenes":[{"nodes":[0]}],"textures":[{"name":"bakuong_1_0","sampler":0,"source":0},{"name":"bakuong_1_1","sampler":0,"source":1},{"name":"bakuong_1_2","sampler":0,"source":2},{"name":"bakuong_1_3","sampler":0,"source":3},{"name":"bakuong_1_4","sampler":0,"source":4},{"name":"bakuong_1_5","sampler":0,"source":5},{"name":"bakuong_1_6","sampler":0,"source":6},{"name":"bakuong_1_7","sampler":0,"source":7},{"name":"bakuong_1_8","sampler":0,"source":8},{"name":"bakuong_1_9","sampler":0,"source":9},{"name":"bakuong_1_10","sampler":0,"source":10},{"name":"bakuong_1_11","sampler":0,"source":11},{"name":"bakuong_1_12","sampler":0,"source":12}]}