{"accessors":[{"name":"makunoshita-Mesh_0_positions","componentType":5126,"count":1508,"min":[-6.713222026824951,-2.398705005645752,-10.431842803955078],"max":[6.713222026824951,3.820488929748535,-0.35379698872566223],"type":"VEC3","bufferView":0,"byteOffset":0},{"name":"makunoshita-Mesh_0_texcoords","componentType":5126,"count":1508,"min":[0.013737999834120274,0.017117999494075775],"max":[0.9904209971427917,0.9819440245628357],"type":"VEC2","bufferView":1,"byteOffset":0},{"name":"makunoshita-Mesh_0_indices","componentType":5123,"count":8172,"min":[0],"max":[1507],"type":"SCALAR","bufferView":2,"byteOffset":0},{"name":"makunoshita-Mesh_1_positions","componentType":5126,"count":45,"min":[-1.202415943145752,1.7057950496673584,-7.821006774902344],"max":[1.202417016029358,2.84826397895813,-5.176984786987305],"type":"VEC3","bufferView":0,"byteOffset":18096},{"name":"makunoshita-Mesh_1_texcoords","componentType":5126,"count":45,"min":[0.009564000181853771,0.17760799825191498],"max":[0.9895650148391724,0.36233198642730713],"type":"VEC2","bufferView":1,"byteOffset":12064},{"name":"makunoshita-Mesh_1_indices","componentType":5123,"count":192,"min":[0],"max":[44],"type":"SCALAR","bufferView":2,"byteOffset":16344}],"asset":{"generator":"obj2gltf","version":"2.0"},"buffers":[{"name":"BR_Makuhita-Shiny01","byteLength":1358544,"uri":"data:application/octet-stream;base64,"}],"bufferViews":[{"name":"bufferView_0","buffer":0,"byteLength":18636,"byteOffset":0,"byteStride":12,"target":34962},{"name":"bufferView_1","buffer":0,"byteLength":12424,"byteOffset":18636,"byteStride":8,"target":34962},{"name":"bufferView_2","buffer":0,"byteLength":16728,"byteOffset":31060,"target":34963},{"buffer":0,"byteOffset":47788,"byteLength":1048594},{"buffer":0,"byteOffset":1096382,"byteLength":262162}],"images":[{"name":"makunoshita_1_0","mimeType":"image/x-tga","bufferView":3},{"name":"makunoshita_1_1","mimeType":"image/x-tga","bufferView":4}],"materials":[{"name":"mat_0","pbrMetallicRoughness":{"baseColorTexture":{"index":0},"baseColorFactor":[1,1,1,1],"metallicFactor":0,"roughnessFactor":0.903921569},"emissiveFactor":[0,0,0],"alphaMode":"BLEND","doubleSided":true},{"name":"mat_1","pbrMetallicRoughness":{"baseColorTexture":{"index":1},"baseColorFactor":[1,1,1,1],"metallicFactor":0,"roughnessFactor":0.903921569},"emissiveFactor":[0,0,0],"alphaMode":"BLEND","doubleSided":true}],"meshes":[{"name":"makunoshita-Mesh","primitives":[{"attributes":{"POSITION":0,"TEXCOORD_0":1},"indices":2,"material":0,"mode":4},{"attributes":{"POSITION":3,"TEXCOORD_0":4},"indices":5,"material":1,"mode":4}]}],"nodes":[{"name":"makunoshita","mesh":0}],"samplers":[{"wrapS":10497,"wrapT":10497}],"scene":0,"scenes":[{"nodes":[0]}],"textures":[{"name":"makunoshita_1_0","sampler":0,"source":0},{"name":"makunoshita_1_1","sampler":0,"source":1}]}