{"accessors":[{"name":"hariteyama-Mesh_0_positions","componentType":5126,"count":113,"min":[-11.151337623596191,-8.032959938049316,-14.133996963500977],"max":[11.151337623596191,7.641798973083496,-0.7093170285224915],"type":"VEC3","bufferView":0,"byteOffset":0},{"name":"hariteyama-Mesh_0_texcoords","componentType":5126,"count":113,"min":[0.0433880016207695,0.05257200077176094],"max":[0.9742940068244934,0.9623960256576538],"type":"VEC2","bufferView":1,"byteOffset":0},{"name":"hariteyama-Mesh_0_indices","componentType":5123,"count":474,"min":[0],"max":[112],"type":"SCALAR","bufferView":2,"byteOffset":0},{"name":"hariteyama-Mesh_1_positions","componentType":5126,"count":12,"min":[-4.953151226043701,4.825041770935059,-14.939661026000977],"max":[4.9531121253967285,7.9266791343688965,-10.108299255371094],"type":"VEC3","bufferView":0,"byteOffset":1356},{"name":"hariteyama-Mesh_1_texcoords","componentType":5126,"count":12,"min":[0.006289999932050705,0.012484000064432621],"max":[0.9145770072937012,0.9035069942474365],"type":"VEC2","bufferView":1,"byteOffset":904},{"name":"hariteyama-Mesh_1_indices","componentType":5123,"count":36,"min":[0],"max":[11],"type":"SCALAR","bufferView":2,"byteOffset":948},{"name":"hariteyama-Mesh_2_positions","componentType":5126,"count":62,"min":[-10.882654190063477,-7.933919906616211,-17.85960578918457],"max":[10.872380256652832,7.111954212188721,-9.542841911315918],"type":"VEC3","bufferView":0,"byteOffset":1500},{"name":"hariteyama-Mesh_2_texcoords","componentType":5126,"count":62,"min":[0.03212999925017357,0.015985999256372452],"max":[0.9804610013961792,0.934374988079071],"type":"VEC2","bufferView":1,"byteOffset":1000},{"name":"hariteyama-Mesh_2_indices","componentType":5123,"count":294,"min":[0],"max":[61],"type":"SCALAR","bufferView":2,"byteOffset":1020},{"name":"hariteyama-Mesh_3_positions","componentType":5126,"count":60,"min":[-6.598916053771973,-1.823801040649414,-1.1151340007781982],"max":[6.598916053771973,2.856518030166626,-0.009166000410914421],"type":"VEC3","bufferView":0,"byteOffset":2244},{"name":"hariteyama-Mesh_3_texcoords","componentType":5126,"count":60,"min":[0,0],"max":[1,0.996874988079071],"type":"VEC2","bufferView":1,"byteOffset":1496},{"name":"hariteyama-Mesh_3_indices","componentType":5123,"count":204,"min":[0],"max":[59],"type":"SCALAR","bufferView":2,"byteOffset":1608},{"name":"hariteyama-Mesh_4_positions","componentType":5126,"count":143,"min":[-19.011301040649414,-3.8844549655914307,-16.058303833007812],"max":[19.013336181640625,7.331852912902832,-13.561541557312012],"type":"VEC3","bufferView":0,"byteOffset":2964},{"name":"hariteyama-Mesh_4_texcoords","componentType":5126,"count":143,"min":[0.01875000074505806,0.00937500037252903],"max":[0.9750000238418579,0.984375],"type":"VEC2","bufferView":1,"byteOffset":1976},{"name":"hariteyama-Mesh_4_indices","componentType":5123,"count":552,"min":[0],"max":[142],"type":"SCALAR","bufferView":2,"byteOffset":2016}],"asset":{"generator":"obj2gltf","version":"2.0"},"buffers":[{"name":"BR_Hariyama-Shiny01","byteLength":57092,"uri":"data:application/octet-stream;base64,"}],"bufferViews":[{"name":"bufferView_0","buffer":0,"byteLength":4680,"byteOffset":0,"byteStride":12,"target":34962},{"name":"bufferView_1","buffer":0,"byteLength":3120,"byteOffset":4680,"byteStride":8,"target":34962},{"name":"bufferView_2","buffer":0,"byteLength":3120,"byteOffset":7800,"target":34963},{"buffer":0,"byteOffset":10920,"byteLength":4114},{"buffer":0,"byteOffset":15034,"byteLength":32786},{"buffer":0,"byteOffset":47820,"byteLength":4114},{"buffer":0,"byteOffset":51934,"byteLength":4114},{"buffer":0,"byteOffset":56048,"byteLength":1042}],"images":[{"name":"hariteyama_1_0","mimeType":"image/x-tga","bufferView":3},{"name":"hariteyama_1_1","mimeType":"image/x-tga","bufferView":4},{"name":"hariteyama_1_2","mimeType":"image/x-tga","bufferView":5},{"name":"hariteyama_1_3","mimeType":"image/x-tga","bufferView":6},{"name":"hariteyama_1_4","mimeType":"image/x-tga","bufferView":7}],"materials":[{"name":"mat_0","pbrMetallicRoughness":{"baseColorTexture":{"index":0},"baseColorFactor":[1,1,1,1],"metallicFactor":0,"roughnessFactor":0.903921569},"emissiveFactor":[0,0,0],"alphaMode":"BLEND","doubleSided":true},{"name":"mat_1","pbrMetallicRoughness":{"baseColorTexture":{"index":1},"baseColorFactor":[1,1,1,1],"metallicFactor":0,"roughnessFactor":0.903921569},"emissiveFactor":[0,0,0],"alphaMode":"BLEND","doubleSided":true},{"name":"mat_2","pbrMetallicRoughness":{"baseColorTexture":{"index":2},"baseColorFactor":[1,1,1,1],"metallicFactor":0,"roughnessFactor":0.903921569},"emissiveFactor":[0,0,0],"alphaMode":"BLEND","doubleSided":true},{"name":"mat_3","pbrMetallicRoughness":{"baseColorTexture":{"index":3},"baseColorFactor":[1,1,1,1],"metallicFactor":0,"roughnessFactor":0.903921569},"emissiveFactor":[0,0,0],"alphaMode":"BLEND","doubleSided":true},{"name":"mat_4","pbrMetallicRoughness":{"baseColorTexture":{"index":4},"baseColorFactor":[1,1,1,1],"metallicFactor":0,"roughnessFactor":0.903921569},"emissiveFactor":[0,0,0],"alphaMode":"BLEND","doubleSided":true}],"meshes":[{"name":"hariteyama-Mesh","primitives":[{"attributes":{"POSITION":0,"TEXCOORD_0":1},"indices":2,"material":0,"mode":4},{"attributes":{"POSITION":3,"TEXCOORD_0":4},"indices":5,"material":1,"mode":4},{"attributes":{"POSITION":6,"TEXCOORD_0":7},"indices":8,"material":2,"mode":4},{"attributes":{"POSITION":9,"TEXCOORD_0":10},"indices":11,"material":3,"mode":4},{"attributes":{"POSITION":12,"TEXCOORD_0":13},"indices":14,"material":4,"mode":4}]}],"nodes":[{"name":"hariteyama","mesh":0}],"samplers":[{"wrapS":10497,"wrapT":10497}],"scene":0,"scenes":[{"nodes":[0]}],"textures":[{"name":"hariteyama_1_0","sampler":0,"source":0},{"name":"hariteyama_1_1","sampler":0,"source":1},{"name":"hariteyama_1_2","sampler":0,"source":2},{"name":"hariteyama_1_3","sampler":0,"source":3},{"name":"hariteyama_1_4","sampler":0,"source":4}]}