{"accessors":[{"name":"polygon0_1_0_positions","componentType":5126,"count":11,"min":[-0.8005859851837158,1.5156580209732056,0.6590849757194519],"max":[0.8005859851837158,1.921673059463501,1.0305240154266357],"type":"VEC3","bufferView":0,"byteOffset":0},{"name":"polygon0_1_0_normals","componentType":5126,"count":11,"min":[-0.6052411794662476,0.24799008667469025,0.5823119282722473],"max":[0.6052168607711792,0.59915691614151,0.9287374019622803],"type":"VEC3","bufferView":1,"byteOffset":0},{"name":"polygon0_1_0_texcoords","componentType":5126,"count":11,"min":[1.0231629610061646,0.01977499946951866],"max":[1.4642030000686646,0.2200620025396347],"type":"VEC2","bufferView":2,"byteOffset":0},{"name":"polygon0_1_0_indices","componentType":5123,"count":30,"min":[0],"max":[10],"type":"SCALAR","bufferView":3,"byteOffset":0},{"name":"polygon1_1_0_positions","componentType":5126,"count":895,"min":[-1.4253829717636108,-0.05792900174856186,-9.088831901550293],"max":[1.4253829717636108,3.0329530239105225,1.099586009979248],"type":"VEC3","bufferView":0,"byteOffset":132},{"name":"polygon1_1_0_normals","componentType":5126,"count":895,"min":[-1,-0.9993842840194702,-0.999666154384613],"max":[1,0.9999591708183289,0.9999040365219116],"type":"VEC3","bufferView":1,"byteOffset":132},{"name":"polygon1_1_0_texcoords","componentType":5126,"count":895,"min":[0.01202400028705597,0.006347999908030033],"max":[0.9885560274124146,0.9894710183143616],"type":"VEC2","bufferView":2,"byteOffset":88},{"name":"polygon1_1_0_indices","componentType":5123,"count":4926,"min":[0],"max":[894],"type":"SCALAR","bufferView":3,"byteOffset":60},{"name":"polygon2_1_0_positions","componentType":5126,"count":10,"min":[-0.49778398871421814,1.0789049863815308,1.0127849578857422],"max":[0.49778398871421814,1.726652979850769,1.114753007888794],"type":"VEC3","bufferView":0,"byteOffset":10872},{"name":"polygon2_1_0_normals","componentType":5126,"count":10,"min":[-0.37858688831329346,-0.18274003267288208,0.9111472964286804],"max":[0.37858688831329346,0.3707381784915924,0.9995936751365662],"type":"VEC3","bufferView":1,"byteOffset":10872},{"name":"polygon2_1_0_texcoords","componentType":5126,"count":10,"min":[1.1317750215530396,0.015289000235497952],"max":[1.4868160486221313,0.23541299998760223],"type":"VEC2","bufferView":2,"byteOffset":7248},{"name":"polygon2_1_0_indices","componentType":5123,"count":30,"min":[0],"max":[9],"type":"SCALAR","bufferView":3,"byteOffset":9912}],"asset":{"generator":"obj2gltf","version":"2.0"},"buffers":[{"name":"Azurill","byteLength":383404,"uri":"data:application/octet-stream;base64,"}],"bufferViews":[{"name":"bufferView_0","buffer":0,"byteLength":10992,"byteOffset":0,"byteStride":12,"target":34962},{"name":"bufferView_1","buffer":0,"byteLength":10992,"byteOffset":10992,"byteStride":12,"target":34962},{"name":"bufferView_2","buffer":0,"byteLength":7328,"byteOffset":21984,"byteStride":8,"target":34962},{"name":"bufferView_3","buffer":0,"byteLength":9972,"byteOffset":29312,"target":34963},{"buffer":0,"byteOffset":39284,"byteLength":98322},{"buffer":0,"byteOffset":137606,"byteLength":196626},{"buffer":0,"byteOffset":334232,"byteLength":49170}],"images":[{"name":"RuririEyeDh","mimeType":"image/x-tga","bufferView":4},{"name":"RuririDh","mimeType":"image/x-tga","bufferView":5},{"name":"RuririMouthDh","mimeType":"image/x-tga","bufferView":6}],"materials":[{"name":"mat2","pbrMetallicRoughness":{"baseColorTexture":{"index":0},"baseColorFactor":[1,1,1,1],"metallicFactor":0,"roughnessFactor":0.99},"emissiveFactor":[0,0,0],"alphaMode":"OPAQUE","doubleSided":false},{"name":"mat1","pbrMetallicRoughness":{"baseColorTexture":{"index":1},"baseColorFactor":[1,1,1,1],"metallicFactor":0,"roughnessFactor":0.99},"emissiveFactor":[0,0,0],"alphaMode":"OPAQUE","doubleSided":false},{"name":"mat3","pbrMetallicRoughness":{"baseColorTexture":{"index":2},"baseColorFactor":[1,1,1,1],"metallicFactor":0,"roughnessFactor":0.99},"emissiveFactor":[0,0,0],"alphaMode":"OPAQUE","doubleSided":false}],"meshes":[{"name":"polygon0_1","primitives":[{"attributes":{"POSITION":0,"NORMAL":1,"TEXCOORD_0":2},"indices":3,"material":0,"mode":4}]},{"name":"polygon1_1","primitives":[{"attributes":{"POSITION":4,"NORMAL":5,"TEXCOORD_0":6},"indices":7,"material":1,"mode":4}]},{"name":"polygon2_1","primitives":[{"attributes":{"POSITION":8,"NORMAL":9,"TEXCOORD_0":10},"indices":11,"material":2,"mode":4}]}],"nodes":[{"name":"polygon0","mesh":0},{"name":"polygon1","mesh":1},{"name":"polygon2","mesh":2}],"samplers":[{"wrapS":10497,"wrapT":10497}],"scene":0,"scenes":[{"nodes":[0,1,2]}],"textures":[{"name":"RuririEyeDh","sampler":0,"source":0},{"name":"RuririDh","sampler":0,"source":1},{"name":"RuririMouthDh","sampler":0,"source":2}]}