{"accessors":[{"name":"nosepass-Mesh_0_positions","componentType":5126,"count":40,"min":[2.6124260425567627,-0.43732500076293945,-5.523429870605469],"max":[7.835519790649414,2.3745510578155518,-4.4952898025512695],"type":"VEC3","bufferView":0,"byteOffset":0},{"name":"nosepass-Mesh_0_texcoords","componentType":5126,"count":40,"min":[0.0394739992916584,0.06401900202035904],"max":[0.9253060221672058,0.7702329754829407],"type":"VEC2","bufferView":1,"byteOffset":0},{"name":"nosepass-Mesh_0_indices","componentType":5123,"count":72,"min":[0],"max":[39],"type":"SCALAR","bufferView":2,"byteOffset":0},{"name":"nosepass-Mesh_1_positions","componentType":5126,"count":68,"min":[0.009565000422298908,-2.118288040161133,-3.3960399627685547],"max":[3.1329939365386963,2.0446250438690186,-0.000004999999873689376],"type":"VEC3","bufferView":0,"byteOffset":480},{"name":"nosepass-Mesh_1_texcoords","componentType":5126,"count":68,"min":[0.27962300181388855,0.008616000413894653],"max":[4.872489929199219,0.9475510120391846],"type":"VEC2","bufferView":1,"byteOffset":320},{"name":"nosepass-Mesh_1_indices","componentType":5123,"count":138,"min":[0],"max":[67],"type":"SCALAR","bufferView":2,"byteOffset":144},{"name":"nosepass-Mesh_2_positions","componentType":5126,"count":66,"min":[-3.1306540966033936,-2.1208701133728027,-3.3960399627685547],"max":[-0.007218000013381243,2.0420329570770264,-0.000004999999873689376],"type":"VEC3","bufferView":0,"byteOffset":1296},{"name":"nosepass-Mesh_2_texcoords","componentType":5126,"count":66,"min":[1.5434600114822388,0.034772999584674835],"max":[3.1216299533843994,0.9237269759178162],"type":"VEC2","bufferView":1,"byteOffset":864},{"name":"nosepass-Mesh_2_indices","componentType":5123,"count":138,"min":[0],"max":[65],"type":"SCALAR","bufferView":2,"byteOffset":420},{"name":"nosepass-Mesh_3_positions","componentType":5126,"count":48,"min":[-1.844182014465332,2.0654349327087402,-7.798540115356445],"max":[1.8390569686889648,6.70369815826416,-4.793769836425781],"type":"VEC3","bufferView":0,"byteOffset":2088},{"name":"nosepass-Mesh_3_texcoords","componentType":5126,"count":48,"min":[0.25804999470710754,0.27407801151275635],"max":[0.7419499754905701,0.6292549967765808],"type":"VEC2","bufferView":1,"byteOffset":1392},{"name":"nosepass-Mesh_3_indices","componentType":5123,"count":96,"min":[0],"max":[47],"type":"SCALAR","bufferView":2,"byteOffset":696},{"name":"nosepass-Mesh_4_positions","componentType":5126,"count":40,"min":[-2.7203779220581055,0.9817360043525696,-8.253410339355469],"max":[2.7187600135803223,2.507369041442871,-6.166190147399902],"type":"VEC3","bufferView":0,"byteOffset":2664},{"name":"nosepass-Mesh_4_texcoords","componentType":5126,"count":40,"min":[-0.6568379998207092,-0.1585099995136261],"max":[1.3270699977874756,0.4045940041542053],"type":"VEC2","bufferView":1,"byteOffset":1776},{"name":"nosepass-Mesh_4_indices","componentType":5123,"count":126,"min":[0],"max":[39],"type":"SCALAR","bufferView":2,"byteOffset":888},{"name":"nosepass-Mesh_5_positions","componentType":5126,"count":93,"min":[-7.837096214294434,-0.4457310140132904,-6.20451021194458],"max":[2.2547810077667236,3.881679058074951,-3.012269973754883],"type":"VEC3","bufferView":0,"byteOffset":3144},{"name":"nosepass-Mesh_5_texcoords","componentType":5126,"count":93,"min":[0,0.04563099890947342],"max":[0.9502390027046204,0.9274629950523376],"type":"VEC2","bufferView":1,"byteOffset":2096},{"name":"nosepass-Mesh_5_indices","componentType":5123,"count":222,"min":[0],"max":[92],"type":"SCALAR","bufferView":2,"byteOffset":1140},{"name":"nosepass-Mesh_6_positions","componentType":5126,"count":227,"min":[-7.095541000366211,-3.484428882598877,-6.194819927215576],"max":[7.835519790649414,3.4281890392303467,0],"type":"VEC3","bufferView":0,"byteOffset":4260},{"name":"nosepass-Mesh_6_texcoords","componentType":5126,"count":227,"min":[0.04728100076317787,0.3043839931488037],"max":[1,0.9467530250549316],"type":"VEC2","bufferView":1,"byteOffset":2840},{"name":"nosepass-Mesh_6_indices","componentType":5123,"count":912,"min":[0],"max":[226],"type":"SCALAR","bufferView":2,"byteOffset":1584},{"name":"nosepass-Mesh_7_positions","componentType":5126,"count":14,"min":[-1.8524090051651,-1.444322943687439,-10.138199806213379],"max":[1.8492289781570435,2.507369041442871,-7.930260181427002],"type":"VEC3","bufferView":0,"byteOffset":6984},{"name":"nosepass-Mesh_7_texcoords","componentType":5126,"count":14,"min":[0.02078000083565712,0.3852039873600006],"max":[0.5784890055656433,1.0537819862365723],"type":"VEC2","bufferView":1,"byteOffset":4656},{"name":"nosepass-Mesh_7_indices","componentType":5123,"count":36,"min":[0],"max":[13],"type":"SCALAR","bufferView":2,"byteOffset":3408},{"name":"nosepass-Mesh_8_positions","componentType":5126,"count":71,"min":[-3.804210901260376,-2.285283088684082,-10.137200355529785],"max":[3.807365894317627,1.9349709749221802,-3.012269973754883],"type":"VEC3","bufferView":0,"byteOffset":7152},{"name":"nosepass-Mesh_8_texcoords","componentType":5126,"count":71,"min":[0.0884609967470169,0.018943000584840775],"max":[0.8536580204963684,0.9981529712677002],"type":"VEC2","bufferView":1,"byteOffset":4768},{"name":"nosepass-Mesh_8_indices","componentType":5123,"count":231,"min":[0],"max":[70],"type":"SCALAR","bufferView":2,"byteOffset":3480},{"name":"nosepass-Mesh_9_positions","componentType":5126,"count":30,"min":[-3.804210901260376,-4.057417869567871,-9.754340171813965],"max":[3.807365894317627,-1.7135180234909058,-1.6572999954223633],"type":"VEC3","bufferView":0,"byteOffset":8004},{"name":"nosepass-Mesh_9_texcoords","componentType":5126,"count":30,"min":[0.02382499910891056,0.06007000058889389],"max":[0.9761729836463928,0.9729440212249756],"type":"VEC2","bufferView":1,"byteOffset":5336},{"name":"nosepass-Mesh_9_indices","componentType":5123,"count":78,"min":[0],"max":[29],"type":"SCALAR","bufferView":2,"byteOffset":3944},{"name":"nosepass-Mesh_10_positions","componentType":5126,"count":12,"min":[-3.627995014190674,0.9817360043525696,-6.241580009460449],"max":[3.625462055206299,3.7808260917663574,-3.012269973754883],"type":"VEC3","bufferView":0,"byteOffset":8364},{"name":"nosepass-Mesh_10_texcoords","componentType":5126,"count":12,"min":[0.4086199998855591,0.45334500074386597],"max":[0.9081019759178162,0.9681670069694519],"type":"VEC2","bufferView":1,"byteOffset":5576},{"name":"nosepass-Mesh_10_indices","componentType":5123,"count":24,"min":[0],"max":[11],"type":"SCALAR","bufferView":2,"byteOffset":4100},{"name":"nosepass-Mesh_11_positions","componentType":5126,"count":14,"min":[-3.804210901260376,-1.9217489957809448,-3.012269973754883],"max":[3.807365894317627,3.7808260917663574,-1.6572999954223633],"type":"VEC3","bufferView":0,"byteOffset":8508},{"name":"nosepass-Mesh_11_texcoords","componentType":5126,"count":14,"min":[0.08761200308799744,0.4468989968299866],"max":[0.9497849941253662,0.686053991317749],"type":"VEC2","bufferView":1,"byteOffset":5672},{"name":"nosepass-Mesh_11_indices","componentType":5123,"count":30,"min":[0],"max":[13],"type":"SCALAR","bufferView":2,"byteOffset":4148},{"name":"nosepass-Mesh_12_positions","componentType":5126,"count":6,"min":[-2.2609970569610596,3.338479995727539,-3.012269973754883],"max":[2.2547810077667236,3.881679058074951,-1.6572999954223633],"type":"VEC3","bufferView":0,"byteOffset":8676},{"name":"nosepass-Mesh_12_texcoords","componentType":5126,"count":6,"min":[0.15384499728679657,0.3966670036315918],"max":[0.9326390027999878,0.6886489987373352],"type":"VEC2","bufferView":1,"byteOffset":5784},{"name":"nosepass-Mesh_12_indices","componentType":5123,"count":12,"min":[0],"max":[5],"type":"SCALAR","bufferView":2,"byteOffset":4208},{"name":"nosepass-Mesh_13_positions","componentType":5126,"count":7,"min":[-1.3768609762191772,-3.1961190700531006,-10.138199806213379],"max":[1.3806179761886597,-0.9183880090713501,-9.416489601135254],"type":"VEC3","bufferView":0,"byteOffset":8748},{"name":"nosepass-Mesh_13_texcoords","componentType":5126,"count":7,"min":[0.3797540068626404,0.2056249976158142],"max":[0.8207449913024902,0.6454790234565735],"type":"VEC2","bufferView":1,"byteOffset":5832},{"name":"nosepass-Mesh_13_indices","componentType":5123,"count":15,"min":[0],"max":[6],"type":"SCALAR","bufferView":2,"byteOffset":4232},{"name":"nosepass-Mesh_14_positions","componentType":5126,"count":6,"min":[-0.5142250061035156,2.495497941970825,-6.217229843139648],"max":[0.5101199746131897,3.402409076690674,-5.883440017700195],"type":"VEC3","bufferView":0,"byteOffset":8832},{"name":"nosepass-Mesh_14_texcoords","componentType":5126,"count":6,"min":[0.6089829802513123,0.38675200939178467],"max":[0.6931819915771484,0.4196760058403015],"type":"VEC2","bufferView":1,"byteOffset":5888},{"name":"nosepass-Mesh_14_indices","componentType":5123,"count":6,"min":[0],"max":[5],"type":"SCALAR","bufferView":2,"byteOffset":4264}],"asset":{"generator":"obj2gltf","version":"2.0"},"buffers":[{"name":"BR_Nosepass-Shiny01","byteLength":134004,"uri":"data:application/octet-stream;base64,"}],"bufferViews":[{"name":"bufferView_0","buffer":0,"byteLength":8904,"byteOffset":0,"byteStride":12,"target":34962},{"name":"bufferView_1","buffer":0,"byteLength":5936,"byteOffset":8904,"byteStride":8,"target":34962},{"name":"bufferView_2","buffer":0,"byteLength":4276,"byteOffset":14840,"target":34963},{"buffer":0,"byteOffset":19116,"byteLength":65554},{"buffer":0,"byteOffset":84670,"byteLength":82},{"buffer":0,"byteOffset":84752,"byteLength":49170},{"buffer":0,"byteOffset":133922,"byteLength":82}],"images":[{"name":"nosepass_1_0","mimeType":"image/x-tga","bufferView":3},{"name":"nosepass_1_6","mimeType":"image/x-tga","bufferView":4},{"name":"nosepass_1_7","mimeType":"image/x-tga","bufferView":5},{"name":"nosepass_1_10","mimeType":"image/x-tga","bufferView":6}],"materials":[{"name":"mat_0","pbrMetallicRoughness":{"baseColorTexture":{"index":0},"baseColorFactor":[1,1,1,1],"metallicFactor":0,"roughnessFactor":0.903921569},"emissiveFactor":[0,0,0],"alphaMode":"BLEND","doubleSided":true},{"name":"mat_1","pbrMetallicRoughness":{"baseColorTexture":{"index":0},"baseColorFactor":[1,1,1,1],"metallicFactor":0,"roughnessFactor":0.903921569},"emissiveFactor":[0,0,0],"alphaMode":"BLEND","doubleSided":true},{"name":"mat_2","pbrMetallicRoughness":{"baseColorTexture":{"index":0},"baseColorFactor":[1,1,1,1],"metallicFactor":0,"roughnessFactor":0.903921569},"emissiveFactor":[0,0,0],"alphaMode":"BLEND","doubleSided":true},{"name":"mat_3","pbrMetallicRoughness":{"baseColorTexture":{"index":1},"baseColorFactor":[1,1,1,1],"metallicFactor":0,"roughnessFactor":0.903921569},"emissiveFactor":[0,0,0],"alphaMode":"BLEND","doubleSided":true},{"name":"mat_4","pbrMetallicRoughness":{"baseColorTexture":{"index":2},"baseColorFactor":[1,1,1,1],"metallicFactor":0,"roughnessFactor":0.903921569},"emissiveFactor":[0,0,0],"alphaMode":"BLEND","doubleSided":true},{"name":"mat_5","pbrMetallicRoughness":{"baseColorTexture":{"index":0},"baseColorFactor":[1,1,1,1],"metallicFactor":0,"roughnessFactor":0.903921569},"emissiveFactor":[0,0,0],"alphaMode":"BLEND","doubleSided":true},{"name":"mat_6","pbrMetallicRoughness":{"baseColorTexture":{"index":3},"baseColorFactor":[1,1,1,1],"metallicFactor":0,"roughnessFactor":0.903921569},"emissiveFactor":[0,0,0],"alphaMode":"BLEND","doubleSided":true},{"name":"mat_7","pbrMetallicRoughness":{"baseColorTexture":{"index":0},"baseColorFactor":[1,1,1,1],"metallicFactor":0,"roughnessFactor":0.903921569},"emissiveFactor":[0,0,0],"alphaMode":"BLEND","doubleSided":true},{"name":"mat_8","pbrMetallicRoughness":{"baseColorTexture":{"index":0},"baseColorFactor":[1,1,1,1],"metallicFactor":0,"roughnessFactor":0.903921569},"emissiveFactor":[0,0,0],"alphaMode":"BLEND","doubleSided":true},{"name":"mat_9","pbrMetallicRoughness":{"baseColorTexture":{"index":0},"baseColorFactor":[1,1,1,1],"metallicFactor":0,"roughnessFactor":0.903921569},"emissiveFactor":[0,0,0],"alphaMode":"BLEND","doubleSided":true},{"name":"mat_10","pbrMetallicRoughness":{"baseColorTexture":{"index":0},"baseColorFactor":[1,1,1,1],"metallicFactor":0,"roughnessFactor":0.903921569},"emissiveFactor":[0,0,0],"alphaMode":"BLEND","doubleSided":true},{"name":"mat_11","pbrMetallicRoughness":{"baseColorTexture":{"index":0},"baseColorFactor":[1,1,1,1],"metallicFactor":0,"roughnessFactor":0.903921569},"emissiveFactor":[0,0,0],"alphaMode":"BLEND","doubleSided":true},{"name":"mat_12","pbrMetallicRoughness":{"baseColorTexture":{"index":0},"baseColorFactor":[1,1,1,1],"metallicFactor":0,"roughnessFactor":0.903921569},"emissiveFactor":[0,0,0],"alphaMode":"BLEND","doubleSided":true},{"name":"mat_13","pbrMetallicRoughness":{"baseColorTexture":{"index":0},"baseColorFactor":[1,1,1,1],"metallicFactor":0,"roughnessFactor":0.903921569},"emissiveFactor":[0,0,0],"alphaMode":"BLEND","doubleSided":true},{"name":"mat_14","pbrMetallicRoughness":{"baseColorTexture":{"index":1},"baseColorFactor":[1,1,1,1],"metallicFactor":0,"roughnessFactor":0.903921569},"emissiveFactor":[0,0,0],"alphaMode":"BLEND","doubleSided":true}],"meshes":[{"name":"nosepass-Mesh","primitives":[{"attributes":{"POSITION":0,"TEXCOORD_0":1},"indices":2,"material":0,"mode":4},{"attributes":{"POSITION":3,"TEXCOORD_0":4},"indices":5,"material":1,"mode":4},{"attributes":{"POSITION":6,"TEXCOORD_0":7},"indices":8,"material":2,"mode":4},{"attributes":{"POSITION":9,"TEXCOORD_0":10},"indices":11,"material":3,"mode":4},{"attributes":{"POSITION":12,"TEXCOORD_0":13},"indices":14,"material":4,"mode":4},{"attributes":{"POSITION":15,"TEXCOORD_0":16},"indices":17,"material":5,"mode":4},{"attributes":{"POSITION":18,"TEXCOORD_0":19},"indices":20,"material":6,"mode":4},{"attributes":{"POSITION":21,"TEXCOORD_0":22},"indices":23,"material":7,"mode":4},{"attributes":{"POSITION":24,"TEXCOORD_0":25},"indices":26,"material":8,"mode":4},{"attributes":{"POSITION":27,"TEXCOORD_0":28},"indices":29,"material":9,"mode":4},{"attributes":{"POSITION":30,"TEXCOORD_0":31},"indices":32,"material":10,"mode":4},{"attributes":{"POSITION":33,"TEXCOORD_0":34},"indices":35,"material":11,"mode":4},{"attributes":{"POSITION":36,"TEXCOORD_0":37},"indices":38,"material":12,"mode":4},{"attributes":{"POSITION":39,"TEXCOORD_0":40},"indices":41,"material":13,"mode":4},{"attributes":{"POSITION":42,"TEXCOORD_0":43},"indices":44,"material":14,"mode":4}]}],"nodes":[{"name":"nosepass","mesh":0}],"samplers":[{"wrapS":10497,"wrapT":10497}],"scene":0,"scenes":[{"nodes":[0]}],"textures":[{"name":"nosepass_1_0","sampler":0,"source":0},{"name":"nosepass_1_6","sampler":0,"source":1},{"name":"nosepass_1_7","sampler":0,"source":2},{"name":"nosepass_1_10","sampler":0,"source":3}]}