{"accessors":[{"name":"eneco_c-Mesh_0_positions","componentType":5126,"count":3,"min":[-0.22847899794578552,-1.4036799669265747,0],"max":[0.22807300090789795,0,0.39535900950431824],"type":"VEC3","bufferView":0,"byteOffset":0},{"name":"eneco_c-Mesh_0_texcoords","componentType":5126,"count":3,"min":[0.035948000848293304,0.013888999819755554],"max":[0.9836599826812744,1],"type":"VEC2","bufferView":1,"byteOffset":0},{"name":"eneco_c-Mesh_0_indices","componentType":5123,"count":3,"min":[0],"max":[2],"type":"SCALAR","bufferView":2,"byteOffset":0},{"name":"eneco_c-Mesh_1_positions","componentType":5126,"count":3,"min":[-0.00020300000323913991,-1.46288001537323,0],"max":[0,0,0.6150929927825928],"type":"VEC3","bufferView":0,"byteOffset":36},{"name":"eneco_c-Mesh_1_texcoords","componentType":5126,"count":3,"min":[0.035948000848293304,0.013888999819755554],"max":[0.9836599826812744,1],"type":"VEC2","bufferView":1,"byteOffset":24},{"name":"eneco_c-Mesh_1_indices","componentType":5123,"count":3,"min":[0],"max":[2],"type":"SCALAR","bufferView":2,"byteOffset":8}],"asset":{"generator":"obj2gltf","version":"2.0"},"buffers":[{"name":"BR_Skitty-Shiny01","byteLength":4252,"uri":"data:application/octet-stream;base64,"}],"bufferViews":[{"name":"bufferView_0","buffer":0,"byteLength":72,"byteOffset":0,"byteStride":12,"target":34962},{"name":"bufferView_1","buffer":0,"byteLength":48,"byteOffset":72,"byteStride":8,"target":34962},{"name":"bufferView_2","buffer":0,"byteLength":16,"byteOffset":120,"target":34963},{"buffer":0,"byteOffset":136,"byteLength":4114}],"images":[{"name":"eneco_c_1_0","mimeType":"image/x-tga","bufferView":3}],"materials":[{"name":"mat_0","pbrMetallicRoughness":{"baseColorTexture":{"index":0},"baseColorFactor":[1,1,1,1],"metallicFactor":0,"roughnessFactor":0.903921569},"emissiveFactor":[0,0,0],"alphaMode":"BLEND","doubleSided":true},{"name":"mat_1","pbrMetallicRoughness":{"baseColorTexture":{"index":0},"baseColorFactor":[1,1,1,1],"metallicFactor":0,"roughnessFactor":0.903921569},"emissiveFactor":[0,0,0],"alphaMode":"BLEND","doubleSided":true}],"meshes":[{"name":"eneco_c-Mesh","primitives":[{"attributes":{"POSITION":0,"TEXCOORD_0":1},"indices":2,"material":0,"mode":4},{"attributes":{"POSITION":3,"TEXCOORD_0":4},"indices":5,"material":1,"mode":4}]}],"nodes":[{"name":"eneco_c","mesh":0}],"samplers":[{"wrapS":10497,"wrapT":10497}],"scene":0,"scenes":[{"nodes":[0]}],"textures":[{"name":"eneco_c_1_0","sampler":0,"source":0}]}