{"accessors":[{"name":"enekororo_c-Mesh_0_positions","componentType":5126,"count":21,"min":[-0.2436479926109314,0,-0.9107990264892578],"max":[0.4999989867210388,0.9107959866523743,0.4003550112247467],"type":"VEC3","bufferView":0,"byteOffset":0},{"name":"enekororo_c-Mesh_0_texcoords","componentType":5126,"count":21,"min":[0,0],"max":[1,1],"type":"VEC2","bufferView":1,"byteOffset":0},{"name":"enekororo_c-Mesh_0_indices","componentType":5123,"count":48,"min":[0],"max":[20],"type":"SCALAR","bufferView":2,"byteOffset":0}],"asset":{"generator":"obj2gltf","version":"2.0"},"buffers":[{"name":"BR_Delcatty-Shiny01","byteLength":1560,"uri":"data:application/octet-stream;base64,"}],"bufferViews":[{"name":"bufferView_0","buffer":0,"byteLength":252,"byteOffset":0,"byteStride":12,"target":34962},{"name":"bufferView_1","buffer":0,"byteLength":168,"byteOffset":252,"byteStride":8,"target":34962},{"name":"bufferView_2","buffer":0,"byteLength":96,"byteOffset":420,"target":34963},{"buffer":0,"byteOffset":516,"byteLength":1042}],"images":[{"name":"enekororo_c_1_0","mimeType":"image/x-tga","bufferView":3}],"materials":[{"name":"mat_0","pbrMetallicRoughness":{"baseColorTexture":{"index":0},"baseColorFactor":[1,1,1,1],"metallicFactor":0,"roughnessFactor":0.903921569},"emissiveFactor":[0,0,0],"alphaMode":"BLEND","doubleSided":true}],"meshes":[{"name":"enekororo_c-Mesh","primitives":[{"attributes":{"POSITION":0,"TEXCOORD_0":1},"indices":2,"material":0,"mode":4}]}],"nodes":[{"name":"enekororo_c","mesh":0}],"samplers":[{"wrapS":10497,"wrapT":10497}],"scene":0,"scenes":[{"nodes":[0]}],"textures":[{"name":"enekororo_c_1_0","sampler":0,"source":0}]}