{"accessors":[{"name":"polygon0_1_0_positions","componentType":5126,"count":28,"min":[-1.1514110565185547,3.2776670455932617,0.30618101358413696],"max":[1.1514110565185547,4.451988220214844,1.3786280155181885],"type":"VEC3","bufferView":0,"byteOffset":0},{"name":"polygon0_1_0_normals","componentType":5126,"count":28,"min":[-0.9225668907165527,-0.5427801609039307,0.34864097833633423],"max":[0.9225668907165527,0.7031648755073547,0.8821877241134644],"type":"VEC3","bufferView":1,"byteOffset":0},{"name":"polygon0_1_0_texcoords","componentType":5126,"count":28,"min":[-0.0030519999563694,-0.001281999982893467],"max":[0.9839479923248291,0.9882199764251709],"type":"VEC2","bufferView":2,"byteOffset":0},{"name":"polygon0_1_0_indices","componentType":5123,"count":84,"min":[0],"max":[27],"type":"SCALAR","bufferView":3,"byteOffset":0},{"name":"polygon1_1_0_positions","componentType":5126,"count":35,"min":[-0.42233800888061523,1.6123169660568237,-0.49064901471138],"max":[0.5260189771652222,2.805743932723999,0.42813900113105774],"type":"VEC3","bufferView":0,"byteOffset":336},{"name":"polygon1_1_0_normals","componentType":5126,"count":35,"min":[-0.47393786907196045,-0.2631169855594635,-0.9995248317718506],"max":[0.9178563356399536,0.15112103521823883,0.9999291896820068],"type":"VEC3","bufferView":1,"byteOffset":336},{"name":"polygon1_1_0_texcoords","componentType":5126,"count":35,"min":[-1.0078129768371582,0.006835999898612499],"max":[0.9954829812049866,1.996948003768921],"type":"VEC2","bufferView":2,"byteOffset":224},{"name":"polygon1_1_0_indices","componentType":5123,"count":102,"min":[0],"max":[34],"type":"SCALAR","bufferView":3,"byteOffset":168},{"name":"polygon3_1_0_positions","componentType":5126,"count":22,"min":[-0.5849670171737671,1.5759060382843018,-0.5003089904785156],"max":[0.19148699939250946,2.372459888458252,-0.09526900202035904],"type":"VEC3","bufferView":0,"byteOffset":756},{"name":"polygon3_1_0_normals","componentType":5126,"count":22,"min":[-0.9471119046211243,-0.08734098076820374,-0.9921292662620544],"max":[0.18121103942394257,0.3266559839248657,-0.3197519779205322],"type":"VEC3","bufferView":1,"byteOffset":756},{"name":"polygon3_1_0_texcoords","componentType":5126,"count":22,"min":[-0.03674300014972687,0],"max":[1.016113042831421,1],"type":"VEC2","bufferView":2,"byteOffset":504},{"name":"polygon3_1_0_indices","componentType":5123,"count":75,"min":[0],"max":[21],"type":"SCALAR","bufferView":3,"byteOffset":372},{"name":"polygon4_1_0_positions","componentType":5126,"count":11,"min":[0.0003910000086762011,1.46560800075531,-0.4946120083332062],"max":[0.49219000339508057,1.9206260442733765,-0.3575339913368225],"type":"VEC3","bufferView":0,"byteOffset":1020},{"name":"polygon4_1_0_normals","componentType":5126,"count":11,"min":[0.10980099439620972,-0.43193596601486206,-0.9925439953804016],"max":[0.3824538290500641,0.2581770718097687,-0.8866989612579346],"type":"VEC3","bufferView":1,"byteOffset":1020},{"name":"polygon4_1_0_texcoords","componentType":5126,"count":11,"min":[-0.012206999585032463,1.0249019861221313],"max":[1.0114749670028687,2.006347894668579],"type":"VEC2","bufferView":2,"byteOffset":680},{"name":"polygon4_1_0_indices","componentType":5123,"count":33,"min":[0],"max":[10],"type":"SCALAR","bufferView":3,"byteOffset":524},{"name":"polygon5_1_0_positions","componentType":5126,"count":60,"min":[-0.9497399926185608,3.5714359283447266,0.763867974281311],"max":[0.9497399926185608,4.315485000610352,1.220249056816101],"type":"VEC3","bufferView":0,"byteOffset":1152},{"name":"polygon5_1_0_normals","componentType":5126,"count":60,"min":[-0.9919552803039551,-0.4428122341632843,0.0634160190820694],"max":[0.9919552803039551,0.8675515651702881,0.9863160848617554],"type":"VEC3","bufferView":1,"byteOffset":1152},{"name":"polygon5_1_0_texcoords","componentType":5126,"count":60,"min":[0.8584290146827698,0.010344999842345715],"max":[0.9882810115814209,0.12103299796581268],"type":"VEC2","bufferView":2,"byteOffset":768},{"name":"polygon5_1_0_indices","componentType":5123,"count":96,"min":[0],"max":[59],"type":"SCALAR","bufferView":3,"byteOffset":592},{"name":"polygon6_1_0_positions","componentType":5126,"count":584,"min":[-3.2956790924072266,-0.0007329999934881926,-1.529579997062683],"max":[3.295670986175537,5.330589771270752,1.3635319471359253],"type":"VEC3","bufferView":0,"byteOffset":1872},{"name":"polygon6_1_0_normals","componentType":5126,"count":584,"min":[-0.9988658428192139,-0.999896228313446,-0.999739408493042],"max":[0.9988658428192139,0.999932587146759,0.9999862909317017],"type":"VEC3","bufferView":1,"byteOffset":1872},{"name":"polygon6_1_0_texcoords","componentType":5126,"count":584,"min":[0.009429999627172947,0.007934999652206898],"max":[0.9936829805374146,0.9930109977722168],"type":"VEC2","bufferView":2,"byteOffset":1248},{"name":"polygon6_1_0_indices","componentType":5123,"count":2415,"min":[0],"max":[583],"type":"SCALAR","bufferView":3,"byteOffset":784},{"name":"polygon7_1_0_positions","componentType":5126,"count":10,"min":[-1.1490169763565063,3.1948370933532715,0.28380799293518066],"max":[1.14901602268219,3.5714359283447266,1.3635319471359253],"type":"VEC3","bufferView":0,"byteOffset":8880},{"name":"polygon7_1_0_normals","componentType":5126,"count":10,"min":[-0.8869733214378357,-0.7282930612564087,0.29004308581352234],"max":[0.8869733214378357,-0.2735579013824463,0.8550966382026672],"type":"VEC3","bufferView":1,"byteOffset":8880},{"name":"polygon7_1_0_texcoords","componentType":5126,"count":10,"min":[0.06802400201559067,0.03903200104832649],"max":[0.98089599609375,0.21762099862098694],"type":"VEC2","bufferView":2,"byteOffset":5920},{"name":"polygon7_1_0_indices","componentType":5123,"count":18,"min":[0],"max":[9],"type":"SCALAR","bufferView":3,"byteOffset":5616},{"name":"polygon8_1_0_positions","componentType":5126,"count":51,"min":[-0.47238999605178833,1.579982042312622,-0.6152999997138977],"max":[0.4260849952697754,2.6753759384155273,0.5391039848327637],"type":"VEC3","bufferView":0,"byteOffset":9000},{"name":"polygon8_1_0_normals","componentType":5126,"count":51,"min":[-0.9930140972137451,-0.8718240857124329,-0.9688732028007507],"max":[0.9755381345748901,0.9481146931648254,0.9954686164855957],"type":"VEC3","bufferView":1,"byteOffset":9000},{"name":"polygon8_1_0_texcoords","componentType":5126,"count":51,"min":[0.6637570261955261,0.012206999585032463],"max":[0.9757689833641052,0.2626039981842041],"type":"VEC2","bufferView":2,"byteOffset":6000},{"name":"polygon8_1_0_indices","componentType":5123,"count":207,"min":[0],"max":[50],"type":"SCALAR","bufferView":3,"byteOffset":5652}],"asset":{"generator":"obj2gltf","version":"2.0"},"buffers":[{"name":"Sableye","byteLength":281612,"uri":"data:application/octet-stream;base64,"}],"bufferViews":[{"name":"bufferView_0","buffer":0,"byteLength":9612,"byteOffset":0,"byteStride":12,"target":34962},{"name":"bufferView_1","buffer":0,"byteLength":9612,"byteOffset":9612,"byteStride":12,"target":34962},{"name":"bufferView_2","buffer":0,"byteLength":6408,"byteOffset":19224,"byteStride":8,"target":34962},{"name":"bufferView_3","buffer":0,"byteLength":6068,"byteOffset":25632,"target":34963},{"buffer":0,"byteOffset":31700,"byteLength":4114},{"buffer":0,"byteOffset":35814,"byteLength":196626},{"buffer":0,"byteOffset":232440,"byteLength":49170}],"images":[{"name":"YamiramiGlowDh","mimeType":"image/x-tga","bufferView":4},{"name":"YamiramiDh","mimeType":"image/x-tga","bufferView":5},{"name":"YamiramiMouthDh","mimeType":"image/x-tga","bufferView":6}],"materials":[{"name":"mat2","pbrMetallicRoughness":{"baseColorTexture":{"index":0},"baseColorFactor":[1,1,1,1],"metallicFactor":0,"roughnessFactor":0.99},"emissiveFactor":[0,0,0],"alphaMode":"OPAQUE","doubleSided":false},{"name":"mat3","pbrMetallicRoughness":{"baseColorTexture":{"index":0},"baseColorFactor":[1,1,1,1],"metallicFactor":0,"roughnessFactor":0.99},"emissiveFactor":[0,0,0],"alphaMode":"OPAQUE","doubleSided":false},{"name":"mat4","pbrMetallicRoughness":{"baseColorTexture":{"index":0},"baseColorFactor":[1,1,1,1],"metallicFactor":0,"roughnessFactor":0.99},"emissiveFactor":[0,0,0],"alphaMode":"OPAQUE","doubleSided":false},{"name":"mat5","pbrMetallicRoughness":{"baseColorTexture":{"index":0},"baseColorFactor":[1,1,1,1],"metallicFactor":0,"roughnessFactor":0.99},"emissiveFactor":[0,0,0],"alphaMode":"OPAQUE","doubleSided":false},{"name":"mat7","pbrMetallicRoughness":{"baseColorTexture":{"index":1},"baseColorFactor":[1,1,1,1],"metallicFactor":0,"roughnessFactor":0.99},"emissiveFactor":[0,0,0],"alphaMode":"OPAQUE","doubleSided":false},{"name":"mat1","pbrMetallicRoughness":{"baseColorTexture":{"index":1},"baseColorFactor":[1,1,1,1],"metallicFactor":0,"roughnessFactor":0.99},"emissiveFactor":[0,0,0],"alphaMode":"OPAQUE","doubleSided":false},{"name":"mat6","pbrMetallicRoughness":{"baseColorTexture":{"index":2},"baseColorFactor":[1,1,1,1],"metallicFactor":0,"roughnessFactor":0.99},"emissiveFactor":[0,0,0],"alphaMode":"OPAQUE","doubleSided":false}],"meshes":[{"name":"polygon0_1","primitives":[{"attributes":{"POSITION":0,"NORMAL":1,"TEXCOORD_0":2},"indices":3,"material":0,"mode":4}]},{"name":"polygon1_1","primitives":[{"attributes":{"POSITION":4,"NORMAL":5,"TEXCOORD_0":6},"indices":7,"material":1,"mode":4}]},{"name":"polygon3_1","primitives":[{"attributes":{"POSITION":8,"NORMAL":9,"TEXCOORD_0":10},"indices":11,"material":2,"mode":4}]},{"name":"polygon4_1","primitives":[{"attributes":{"POSITION":12,"NORMAL":13,"TEXCOORD_0":14},"indices":15,"material":3,"mode":4}]},{"name":"polygon5_1","primitives":[{"attributes":{"POSITION":16,"NORMAL":17,"TEXCOORD_0":18},"indices":19,"material":4,"mode":4}]},{"name":"polygon6_1","primitives":[{"attributes":{"POSITION":20,"NORMAL":21,"TEXCOORD_0":22},"indices":23,"material":5,"mode":4}]},{"name":"polygon7_1","primitives":[{"attributes":{"POSITION":24,"NORMAL":25,"TEXCOORD_0":26},"indices":27,"material":6,"mode":4}]},{"name":"polygon8_1","primitives":[{"attributes":{"POSITION":28,"NORMAL":29,"TEXCOORD_0":30},"indices":31,"material":4,"mode":4}]}],"nodes":[{"name":"polygon0","mesh":0},{"name":"polygon1","mesh":1},{"name":"polygon3","mesh":2},{"name":"polygon4","mesh":3},{"name":"polygon5","mesh":4},{"name":"polygon6","mesh":5},{"name":"polygon7","mesh":6},{"name":"polygon8","mesh":7}],"samplers":[{"wrapS":10497,"wrapT":10497}],"scene":0,"scenes":[{"nodes":[0,1,2,3,4,5,6,7]}],"textures":[{"name":"YamiramiGlowDh","sampler":0,"source":0},{"name":"YamiramiDh","sampler":0,"source":1},{"name":"YamiramiMouthDh","sampler":0,"source":2}]}