{"accessors":[{"name":"polygon0_1_0_positions","componentType":5126,"count":42,"min":[-0.9395310282707214,3.276848077774048,0.14583200216293335],"max":[0.9395310282707214,4.247631072998047,1.0284039974212646],"type":"VEC3","bufferView":0,"byteOffset":0},{"name":"polygon0_1_0_normals","componentType":5126,"count":42,"min":[-0.973392903804779,-0.448294997215271,0.1668110191822052],"max":[0.973392903804779,0.28357312083244324,0.8808680176734924],"type":"VEC3","bufferView":1,"byteOffset":0},{"name":"polygon0_1_0_texcoords","componentType":5126,"count":42,"min":[0.011718999594449997,0.0078119998797774315],"max":[0.4921880066394806,0.2421869933605194],"type":"VEC2","bufferView":2,"byteOffset":0},{"name":"polygon0_1_0_indices","componentType":5123,"count":150,"min":[0],"max":[41],"type":"SCALAR","bufferView":3,"byteOffset":0},{"name":"polygon1_1_0_positions","componentType":5126,"count":983,"min":[-2.685309886932373,0,-8.825596809387207],"max":[2.685309886932373,6.0015339851379395,1.1749329566955566],"type":"VEC3","bufferView":0,"byteOffset":504},{"name":"polygon1_1_0_normals","componentType":5126,"count":983,"min":[-0.9985531568527222,-1,-0.9987461566925049],"max":[0.9984411001205444,0.9998900294303894,0.9988314509391785],"type":"VEC3","bufferView":1,"byteOffset":504},{"name":"polygon1_1_0_texcoords","componentType":5126,"count":983,"min":[0.006438999902456999,0.011443999595940113],"max":[0.9787290096282959,0.9924010038375854],"type":"VEC2","bufferView":2,"byteOffset":336},{"name":"polygon1_1_0_indices","componentType":5123,"count":4332,"min":[0],"max":[982],"type":"SCALAR","bufferView":3,"byteOffset":300},{"name":"polygon2_1_0_positions","componentType":5126,"count":99,"min":[-1.9657020568847656,0.9626380205154419,-8.825596809387207],"max":[1.9657020568847656,4.699010848999023,0.9495630264282227],"type":"VEC3","bufferView":0,"byteOffset":12300},{"name":"polygon2_1_0_normals","componentType":5126,"count":99,"min":[-0.9798555374145508,-0.9453808069229126,-0.9908466935157776],"max":[0.9798555374145508,0.9914894700050354,0.7867702841758728],"type":"VEC3","bufferView":1,"byteOffset":12300},{"name":"polygon2_1_0_texcoords","componentType":5126,"count":99,"min":[0.3042599856853485,0.009612999856472015],"max":[0.9772030115127563,0.9826350212097168],"type":"VEC2","bufferView":2,"byteOffset":8200},{"name":"polygon2_1_0_indices","componentType":5123,"count":444,"min":[0],"max":[98],"type":"SCALAR","bufferView":3,"byteOffset":8964}],"asset":{"generator":"obj2gltf","version":"2.0"},"buffers":[{"name":"Mawile","byteLength":340768,"uri":"data:application/octet-stream;base64,"}],"bufferViews":[{"name":"bufferView_0","buffer":0,"byteLength":13488,"byteOffset":0,"byteStride":12,"target":34962},{"name":"bufferView_1","buffer":0,"byteLength":13488,"byteOffset":13488,"byteStride":12,"target":34962},{"name":"bufferView_2","buffer":0,"byteLength":8992,"byteOffset":26976,"byteStride":8,"target":34962},{"name":"bufferView_3","buffer":0,"byteLength":9852,"byteOffset":35968,"target":34963},{"buffer":0,"byteOffset":45820,"byteLength":98322},{"buffer":0,"byteOffset":144142,"byteLength":196626}],"images":[{"name":"KucheatEyeDh","mimeType":"image/x-tga","bufferView":4},{"name":"KucheatDh","mimeType":"image/x-tga","bufferView":5}],"materials":[{"name":"mat2","pbrMetallicRoughness":{"baseColorTexture":{"index":0},"baseColorFactor":[1,1,1,1],"metallicFactor":0,"roughnessFactor":0.99},"emissiveFactor":[0,0,0],"alphaMode":"OPAQUE","doubleSided":false},{"name":"mat1","pbrMetallicRoughness":{"baseColorTexture":{"index":1},"baseColorFactor":[1,1,1,1],"metallicFactor":0,"roughnessFactor":0.99},"emissiveFactor":[0,0,0],"alphaMode":"OPAQUE","doubleSided":false},{"name":"mat3","pbrMetallicRoughness":{"baseColorTexture":{"index":1},"baseColorFactor":[1,1,1,1],"metallicFactor":0,"roughnessFactor":0.99},"emissiveFactor":[0,0,0],"alphaMode":"OPAQUE","doubleSided":false}],"meshes":[{"name":"polygon0_1","primitives":[{"attributes":{"POSITION":0,"NORMAL":1,"TEXCOORD_0":2},"indices":3,"material":0,"mode":4}]},{"name":"polygon1_1","primitives":[{"attributes":{"POSITION":4,"NORMAL":5,"TEXCOORD_0":6},"indices":7,"material":1,"mode":4}]},{"name":"polygon2_1","primitives":[{"attributes":{"POSITION":8,"NORMAL":9,"TEXCOORD_0":10},"indices":11,"material":2,"mode":4}]}],"nodes":[{"name":"polygon0","mesh":0},{"name":"polygon1","mesh":1},{"name":"polygon2","mesh":2}],"samplers":[{"wrapS":10497,"wrapT":10497}],"scene":0,"scenes":[{"nodes":[0,1,2]}],"textures":[{"name":"KucheatEyeDh","sampler":0,"source":0},{"name":"KucheatDh","sampler":0,"source":1}]}