{"accessors":[{"name":"polygon0_1_0_positions","componentType":5126,"count":966,"min":[-1.519590973854065,0.005047000013291836,-1.604159951210022],"max":[1.519590973854065,4.143281936645508,3.3575899600982666],"type":"VEC3","bufferView":0,"byteOffset":0},{"name":"polygon0_1_0_normals","componentType":5126,"count":966,"min":[-0.9990711212158203,-1,-0.9998200535774231],"max":[0.9990711212158203,0.9980165958404541,0.9999897480010986],"type":"VEC3","bufferView":1,"byteOffset":0},{"name":"polygon0_1_0_texcoords","componentType":5126,"count":966,"min":[0.005828999914228916,0.00824000034481287],"max":[0.9871219992637634,0.983489990234375],"type":"VEC2","bufferView":2,"byteOffset":0},{"name":"polygon0_1_0_indices","componentType":5123,"count":3732,"min":[0],"max":[965],"type":"SCALAR","bufferView":3,"byteOffset":0},{"name":"polygon1_1_0_positions","componentType":5126,"count":102,"min":[-1.190574049949646,2.146902084350586,2.229063034057617],"max":[1.190574049949646,3.1019320487976074,2.973750114440918],"type":"VEC3","bufferView":0,"byteOffset":11592},{"name":"polygon1_1_0_normals","componentType":5126,"count":102,"min":[-0.9951467514038086,-0.4475909471511841,0.09825398027896881],"max":[0.9951467514038086,0.5647819638252258,0.9283308982849121],"type":"VEC3","bufferView":1,"byteOffset":11592},{"name":"polygon1_1_0_texcoords","componentType":5126,"count":102,"min":[0.03125,0.019531000405550003],"max":[0.46875,0.234375],"type":"VEC2","bufferView":2,"byteOffset":7728},{"name":"polygon1_1_0_indices","componentType":5123,"count":456,"min":[0],"max":[101],"type":"SCALAR","bufferView":3,"byteOffset":7464},{"name":"polygon2_1_0_positions","componentType":5126,"count":9,"min":[-0.46779200434684753,0.9179919958114624,1.5752099752426147],"max":[0.46779200434684753,1.3938900232315063,2.6005890369415283],"type":"VEC3","bufferView":0,"byteOffset":12816},{"name":"polygon2_1_0_normals","componentType":5126,"count":9,"min":[-0.35981398820877075,-0.9992706775665283,-0.5856250524520874],"max":[0.35981398820877075,-0.7799449563026428,-0.008896995335817337],"type":"VEC3","bufferView":1,"byteOffset":12816},{"name":"polygon2_1_0_texcoords","componentType":5126,"count":9,"min":[0.021942000836133957,0.0070500001311302185],"max":[0.9773250222206116,0.24060100317001343],"type":"VEC2","bufferView":2,"byteOffset":8544},{"name":"polygon2_1_0_indices","componentType":5123,"count":24,"min":[0],"max":[8],"type":"SCALAR","bufferView":3,"byteOffset":8376}],"asset":{"generator":"obj2gltf","version":"2.0"},"buffers":[{"name":"Aron","byteLength":387008,"uri":"data:application/octet-stream;base64,"}],"bufferViews":[{"name":"bufferView_0","buffer":0,"byteLength":12924,"byteOffset":0,"byteStride":12,"target":34962},{"name":"bufferView_1","buffer":0,"byteLength":12924,"byteOffset":12924,"byteStride":12,"target":34962},{"name":"bufferView_2","buffer":0,"byteLength":8616,"byteOffset":25848,"byteStride":8,"target":34962},{"name":"bufferView_3","buffer":0,"byteLength":8424,"byteOffset":34464,"target":34963},{"buffer":0,"byteOffset":42888,"byteLength":196626},{"buffer":0,"byteOffset":239514,"byteLength":98322},{"buffer":0,"byteOffset":337836,"byteLength":49170}],"images":[{"name":"CokodoraDh","mimeType":"image/x-tga","bufferView":4},{"name":"CokodoraEyeDh","mimeType":"image/x-tga","bufferView":5},{"name":"CokodoraMouthDh","mimeType":"image/x-tga","bufferView":6}],"materials":[{"name":"mat1","pbrMetallicRoughness":{"baseColorTexture":{"index":0},"baseColorFactor":[1,1,1,1],"metallicFactor":0,"roughnessFactor":0.99},"emissiveFactor":[0,0,0],"alphaMode":"OPAQUE","doubleSided":false},{"name":"mat2","pbrMetallicRoughness":{"baseColorTexture":{"index":1},"baseColorFactor":[1,1,1,1],"metallicFactor":0,"roughnessFactor":0.99},"emissiveFactor":[0,0,0],"alphaMode":"OPAQUE","doubleSided":false},{"name":"mat3","pbrMetallicRoughness":{"baseColorTexture":{"index":2},"baseColorFactor":[1,1,1,1],"metallicFactor":0,"roughnessFactor":0.99},"emissiveFactor":[0,0,0],"alphaMode":"OPAQUE","doubleSided":false}],"meshes":[{"name":"polygon0_1","primitives":[{"attributes":{"POSITION":0,"NORMAL":1,"TEXCOORD_0":2},"indices":3,"material":0,"mode":4}]},{"name":"polygon1_1","primitives":[{"attributes":{"POSITION":4,"NORMAL":5,"TEXCOORD_0":6},"indices":7,"material":1,"mode":4}]},{"name":"polygon2_1","primitives":[{"attributes":{"POSITION":8,"NORMAL":9,"TEXCOORD_0":10},"indices":11,"material":2,"mode":4}]}],"nodes":[{"name":"polygon0","mesh":0},{"name":"polygon1","mesh":1},{"name":"polygon2","mesh":2}],"samplers":[{"wrapS":10497,"wrapT":10497}],"scene":0,"scenes":[{"nodes":[0,1,2]}],"textures":[{"name":"CokodoraDh","sampler":0,"source":0},{"name":"CokodoraEyeDh","sampler":0,"source":1},{"name":"CokodoraMouthDh","sampler":0,"source":2}]}