{"accessors":[{"name":"kodora-Mesh_0_positions","componentType":5126,"count":976,"min":[-4.987209796905518,-6.578804969787598,-5.354403018951416],"max":[4.987209796905518,8.858316421508789,0.05489400029182434],"type":"VEC3","bufferView":0,"byteOffset":0},{"name":"kodora-Mesh_0_texcoords","componentType":5126,"count":976,"min":[0.015625,0],"max":[0.9910709857940674,1.4821430444717407],"type":"VEC2","bufferView":1,"byteOffset":0},{"name":"kodora-Mesh_0_indices","componentType":5123,"count":1929,"min":[0],"max":[975],"type":"SCALAR","bufferView":2,"byteOffset":0},{"name":"kodora-Mesh_1_positions","componentType":5126,"count":187,"min":[-5.410830020904541,-5.818471908569336,-9.023164749145508],"max":[5.410830020904541,3.78426194190979,-0.6577339768409729],"type":"VEC3","bufferView":0,"byteOffset":11712},{"name":"kodora-Mesh_1_texcoords","componentType":5126,"count":187,"min":[-0.08258900046348572,0.16517899930477142],"max":[0.9888389706611633,0.8652340173721313],"type":"VEC2","bufferView":1,"byteOffset":7808},{"name":"kodora-Mesh_1_indices","componentType":5123,"count":297,"min":[0],"max":[186],"type":"SCALAR","bufferView":2,"byteOffset":3860},{"name":"kodora-Mesh_2_positions","componentType":5126,"count":144,"min":[-2.531169891357422,-5.818471908569336,-9.023164749145508],"max":[2.531169891357422,4.339654922485352,-2.3388569355010986],"type":"VEC3","bufferView":0,"byteOffset":13956},{"name":"kodora-Mesh_2_texcoords","componentType":5126,"count":144,"min":[0,0.04017899930477142],"max":[0.9910709857940674,0.997767984867096],"type":"VEC2","bufferView":1,"byteOffset":9304},{"name":"kodora-Mesh_2_indices","componentType":5123,"count":306,"min":[0],"max":[143],"type":"SCALAR","bufferView":2,"byteOffset":4456},{"name":"kodora-Mesh_3_positions","componentType":5126,"count":69,"min":[-3.7180700302124023,3.4046480655670166,-8.464373588562012],"max":[3.7180700302124023,9.313541412353516,-3.250515937805176],"type":"VEC3","bufferView":0,"byteOffset":15684},{"name":"kodora-Mesh_3_texcoords","componentType":5126,"count":69,"min":[0.03125,0.00520800007507205],"max":[0.9895830154418945,0.9817709922790527],"type":"VEC2","bufferView":1,"byteOffset":10456},{"name":"kodora-Mesh_3_indices","componentType":5123,"count":171,"min":[0],"max":[68],"type":"SCALAR","bufferView":2,"byteOffset":5068},{"name":"kodora-Mesh_4_positions","componentType":5126,"count":29,"min":[-2.821690082550049,4.060062885284424,-4.835962772369385],"max":[2.821690082550049,9.313541412353516,-2.9615700244903564],"type":"VEC3","bufferView":0,"byteOffset":16512},{"name":"kodora-Mesh_4_texcoords","componentType":5126,"count":29,"min":[0,-0.05982999876141548],"max":[0.9408019781112671,1],"type":"VEC2","bufferView":1,"byteOffset":11008},{"name":"kodora-Mesh_4_indices","componentType":5123,"count":75,"min":[0],"max":[28],"type":"SCALAR","bufferView":2,"byteOffset":5412},{"name":"kodora-Mesh_5_positions","componentType":5126,"count":16,"min":[-0.9393510222434998,8.167888641357422,-4.053709983825684],"max":[0.9393510222434998,8.507587432861328,-3.4198551177978516],"type":"VEC3","bufferView":0,"byteOffset":16860},{"name":"kodora-Mesh_5_texcoords","componentType":5126,"count":16,"min":[0.9642860293388367,0.11383900046348572],"max":[0.982142984867096,0.861607015132904],"type":"VEC2","bufferView":1,"byteOffset":11240},{"name":"kodora-Mesh_5_indices","componentType":5123,"count":18,"min":[0],"max":[15],"type":"SCALAR","bufferView":2,"byteOffset":5564},{"name":"kodora-Mesh_6_positions","componentType":5126,"count":14,"min":[-2.9931299686431885,5.503967761993408,-4.671259880065918],"max":[2.9931299686431885,7.870139122009277,-3.300684928894043],"type":"VEC3","bufferView":0,"byteOffset":17052},{"name":"kodora-Mesh_6_texcoords","componentType":5126,"count":14,"min":[-0.006744000129401684,0.016947999596595764],"max":[1.0628900527954102,0.214355006814003],"type":"VEC2","bufferView":1,"byteOffset":11368},{"name":"kodora-Mesh_6_indices","componentType":5123,"count":30,"min":[0],"max":[13],"type":"SCALAR","bufferView":2,"byteOffset":5600}],"asset":{"generator":"obj2gltf","version":"2.0"},"buffers":[{"name":"BR_Lairon-Shiny01","byteLength":169636,"uri":"data:application/octet-stream;base64,"}],"bufferViews":[{"name":"bufferView_0","buffer":0,"byteLength":17220,"byteOffset":0,"byteStride":12,"target":34962},{"name":"bufferView_1","buffer":0,"byteLength":11480,"byteOffset":17220,"byteStride":8,"target":34962},{"name":"bufferView_2","buffer":0,"byteLength":5660,"byteOffset":28700,"target":34963},{"buffer":0,"byteOffset":34360,"byteLength":16402},{"buffer":0,"byteOffset":50762,"byteLength":4114},{"buffer":0,"byteOffset":54876,"byteLength":16402},{"buffer":0,"byteOffset":71278,"byteLength":16402},{"buffer":0,"byteOffset":87680,"byteLength":16402},{"buffer":0,"byteOffset":104082,"byteLength":65554}],"images":[{"name":"kodora_1_0","mimeType":"image/x-tga","bufferView":3},{"name":"kodora_1_1","mimeType":"image/x-tga","bufferView":4},{"name":"kodora_1_2","mimeType":"image/x-tga","bufferView":5},{"name":"kodora_1_3","mimeType":"image/x-tga","bufferView":6},{"name":"kodora_1_4","mimeType":"image/x-tga","bufferView":7},{"name":"kodora_1_6","mimeType":"image/x-tga","bufferView":8}],"materials":[{"name":"mat_0","pbrMetallicRoughness":{"baseColorTexture":{"index":0},"baseColorFactor":[1,1,1,1],"metallicFactor":0,"roughnessFactor":0.903921569},"emissiveFactor":[0,0,0],"alphaMode":"BLEND","doubleSided":true},{"name":"mat_1","pbrMetallicRoughness":{"baseColorTexture":{"index":1},"baseColorFactor":[1,1,1,1],"metallicFactor":0,"roughnessFactor":0.903921569},"emissiveFactor":[0,0,0],"alphaMode":"BLEND","doubleSided":true},{"name":"mat_2","pbrMetallicRoughness":{"baseColorTexture":{"index":2},"baseColorFactor":[1,1,1,1],"metallicFactor":0,"roughnessFactor":0.903921569},"emissiveFactor":[0,0,0],"alphaMode":"BLEND","doubleSided":true},{"name":"mat_3","pbrMetallicRoughness":{"baseColorTexture":{"index":3},"baseColorFactor":[1,1,1,1],"metallicFactor":0,"roughnessFactor":0.903921569},"emissiveFactor":[0,0,0],"alphaMode":"BLEND","doubleSided":true},{"name":"mat_4","pbrMetallicRoughness":{"baseColorTexture":{"index":4},"baseColorFactor":[1,1,1,1],"metallicFactor":0,"roughnessFactor":0.903921569},"emissiveFactor":[0,0,0],"alphaMode":"BLEND","doubleSided":true},{"name":"mat_5","pbrMetallicRoughness":{"baseColorTexture":{"index":1},"baseColorFactor":[1,1,1,1],"metallicFactor":0,"roughnessFactor":0.903921569},"emissiveFactor":[0,0,0],"alphaMode":"BLEND","doubleSided":true},{"name":"mat_6","pbrMetallicRoughness":{"baseColorTexture":{"index":5},"baseColorFactor":[1,1,1,1],"metallicFactor":0,"roughnessFactor":0.903921569},"emissiveFactor":[0,0,0],"alphaMode":"BLEND","doubleSided":true}],"meshes":[{"name":"kodora-Mesh","primitives":[{"attributes":{"POSITION":0,"TEXCOORD_0":1},"indices":2,"material":0,"mode":4},{"attributes":{"POSITION":3,"TEXCOORD_0":4},"indices":5,"material":1,"mode":4},{"attributes":{"POSITION":6,"TEXCOORD_0":7},"indices":8,"material":2,"mode":4},{"attributes":{"POSITION":9,"TEXCOORD_0":10},"indices":11,"material":3,"mode":4},{"attributes":{"POSITION":12,"TEXCOORD_0":13},"indices":14,"material":4,"mode":4},{"attributes":{"POSITION":15,"TEXCOORD_0":16},"indices":17,"material":5,"mode":4},{"attributes":{"POSITION":18,"TEXCOORD_0":19},"indices":20,"material":6,"mode":4}]}],"nodes":[{"name":"kodora","mesh":0}],"samplers":[{"wrapS":10497,"wrapT":10497}],"scene":0,"scenes":[{"nodes":[0]}],"textures":[{"name":"kodora_1_0","sampler":0,"source":0},{"name":"kodora_1_1","sampler":0,"source":1},{"name":"kodora_1_2","sampler":0,"source":2},{"name":"kodora_1_3","sampler":0,"source":3},{"name":"kodora_1_4","sampler":0,"source":4},{"name":"kodora_1_6","sampler":0,"source":5}]}