{"accessors":[{"name":"bossgodora-Mesh_0_positions","componentType":5126,"count":434,"min":[-6.041409969329834,-21.131799697875977,-17.276399612426758],"max":[6.041409969329834,7.481249809265137,-0.5473999977111816],"type":"VEC3","bufferView":0,"byteOffset":0},{"name":"bossgodora-Mesh_0_texcoords","componentType":5126,"count":434,"min":[-0.37063300609588623,0.0044639999978244305],"max":[0.955357015132904,1.0022319555282593],"type":"VEC2","bufferView":1,"byteOffset":0},{"name":"bossgodora-Mesh_0_indices","componentType":5123,"count":840,"min":[0],"max":[433],"type":"SCALAR","bufferView":2,"byteOffset":0},{"name":"bossgodora-Mesh_1_positions","componentType":5126,"count":24,"min":[-3.134779930114746,-6.8161702156066895,-15.769100189208984],"max":[3.134779930114746,0.8860030174255371,-6.038849830627441],"type":"VEC3","bufferView":0,"byteOffset":5208},{"name":"bossgodora-Mesh_1_texcoords","componentType":5126,"count":24,"min":[0.006696000229567289,0.011160999536514282],"max":[0.997767984867096,1.0625],"type":"VEC2","bufferView":1,"byteOffset":3472},{"name":"bossgodora-Mesh_1_indices","componentType":5123,"count":48,"min":[0],"max":[23],"type":"SCALAR","bufferView":2,"byteOffset":1680}],"asset":{"generator":"obj2gltf","version":"2.0"},"buffers":[{"name":"BR_Aggron-Shiny01","byteLength":31452,"uri":"data:application/octet-stream;base64,"}],"bufferViews":[{"name":"bufferView_0","buffer":0,"byteLength":5496,"byteOffset":0,"byteStride":12,"target":34962},{"name":"bufferView_1","buffer":0,"byteLength":3664,"byteOffset":5496,"byteStride":8,"target":34962},{"name":"bufferView_2","buffer":0,"byteLength":1776,"byteOffset":9160,"target":34963},{"buffer":0,"byteOffset":10936,"byteLength":16402},{"buffer":0,"byteOffset":27338,"byteLength":4114}],"images":[{"name":"bossgodora_1_0","mimeType":"image/x-tga","bufferView":3},{"name":"bossgodora_1_1","mimeType":"image/x-tga","bufferView":4}],"materials":[{"name":"mat_0","pbrMetallicRoughness":{"baseColorTexture":{"index":0},"baseColorFactor":[1,1,1,1],"metallicFactor":0,"roughnessFactor":0.903921569},"emissiveFactor":[0,0,0],"alphaMode":"BLEND","doubleSided":true},{"name":"mat_1","pbrMetallicRoughness":{"baseColorTexture":{"index":1},"baseColorFactor":[1,1,1,1],"metallicFactor":0,"roughnessFactor":0.903921569},"emissiveFactor":[0,0,0],"alphaMode":"BLEND","doubleSided":true}],"meshes":[{"name":"bossgodora-Mesh","primitives":[{"attributes":{"POSITION":0,"TEXCOORD_0":1},"indices":2,"material":0,"mode":4},{"attributes":{"POSITION":3,"TEXCOORD_0":4},"indices":5,"material":1,"mode":4}]}],"nodes":[{"name":"bossgodora","mesh":0}],"samplers":[{"wrapS":10497,"wrapT":10497}],"scene":0,"scenes":[{"nodes":[0]}],"textures":[{"name":"bossgodora_1_0","sampler":0,"source":0},{"name":"bossgodora_1_1","sampler":0,"source":1}]}