{"accessors":[{"name":"polygon0_1_0_positions","componentType":5126,"count":903,"min":[-2.2026290893554688,9.999999974752427e-7,-0.9150699973106384],"max":[2.202630043029785,5.426301956176758,1.5067180395126343],"type":"VEC3","bufferView":0,"byteOffset":0},{"name":"polygon0_1_0_normals","componentType":5126,"count":903,"min":[-0.9992865324020386,-0.9981727600097656,-0.9999814033508301],"max":[0.9992865324020386,0.9933314323425293,0.9999991059303284],"type":"VEC3","bufferView":1,"byteOffset":0},{"name":"polygon0_1_0_texcoords","componentType":5126,"count":903,"min":[0.005919999908655882,0.004821999929845333],"max":[0.9931640028953552,0.9955139756202698],"type":"VEC2","bufferView":2,"byteOffset":0},{"name":"polygon0_1_0_indices","componentType":5123,"count":4356,"min":[0],"max":[902],"type":"SCALAR","bufferView":3,"byteOffset":0},{"name":"polygon1_1_0_positions","componentType":5126,"count":12,"min":[-0.3360840082168579,3.0323879718780518,0.8551419973373413],"max":[0.3360840082168579,3.570833921432495,1.22012197971344],"type":"VEC3","bufferView":0,"byteOffset":10836},{"name":"polygon1_1_0_normals","componentType":5126,"count":12,"min":[-0.30291691422462463,-0.8384730815887451,0.5433417558670044],"max":[0.30291691422462463,-0.24321800470352173,0.9593644738197327],"type":"VEC3","bufferView":1,"byteOffset":10836},{"name":"polygon1_1_0_texcoords","componentType":5126,"count":12,"min":[0.14315800368785858,0.010344999842345715],"max":[0.6463930010795593,0.24362200498580933],"type":"VEC2","bufferView":2,"byteOffset":7224},{"name":"polygon1_1_0_indices","componentType":5123,"count":36,"min":[0],"max":[11],"type":"SCALAR","bufferView":3,"byteOffset":8712},{"name":"polygon2_1_0_positions","componentType":5126,"count":30,"min":[-0.900933027267456,3.181027889251709,0.6726809740066528],"max":[0.900933027267456,3.885248899459839,1.2109019756317139],"type":"VEC3","bufferView":0,"byteOffset":10980},{"name":"polygon2_1_0_normals","componentType":5126,"count":30,"min":[-0.8626732230186462,-0.6842147707939148,0.2926678955554962],"max":[0.8626732230186462,0.020629987120628357,0.9586044549942017],"type":"VEC3","bufferView":1,"byteOffset":10980},{"name":"polygon2_1_0_texcoords","componentType":5126,"count":30,"min":[0.0039059999398887157,0.011718999594449997],"max":[0.4882810115814209,0.2109369933605194],"type":"VEC2","bufferView":2,"byteOffset":7320},{"name":"polygon2_1_0_indices","componentType":5123,"count":96,"min":[0],"max":[29],"type":"SCALAR","bufferView":3,"byteOffset":8784}],"asset":{"generator":"obj2gltf","version":"2.0"},"buffers":[{"name":"Meditite","byteLength":383336,"uri":"data:application/octet-stream;base64,"}],"bufferViews":[{"name":"bufferView_0","buffer":0,"byteLength":11340,"byteOffset":0,"byteStride":12,"target":34962},{"name":"bufferView_1","buffer":0,"byteLength":11340,"byteOffset":11340,"byteStride":12,"target":34962},{"name":"bufferView_2","buffer":0,"byteLength":7560,"byteOffset":22680,"byteStride":8,"target":34962},{"name":"bufferView_3","buffer":0,"byteLength":8976,"byteOffset":30240,"target":34963},{"buffer":0,"byteOffset":39216,"byteLength":196626},{"buffer":0,"byteOffset":235842,"byteLength":49170},{"buffer":0,"byteOffset":285012,"byteLength":98322}],"images":[{"name":"AsananDh","mimeType":"image/x-tga","bufferView":4},{"name":"AsananMouthDh","mimeType":"image/x-tga","bufferView":5},{"name":"AsananEyeDh","mimeType":"image/x-tga","bufferView":6}],"materials":[{"name":"mat1","pbrMetallicRoughness":{"baseColorTexture":{"index":0},"baseColorFactor":[1,1,1,1],"metallicFactor":0,"roughnessFactor":0.99},"emissiveFactor":[0,0,0],"alphaMode":"OPAQUE","doubleSided":false},{"name":"mat3","pbrMetallicRoughness":{"baseColorTexture":{"index":1},"baseColorFactor":[1,1,1,1],"metallicFactor":0,"roughnessFactor":0.99},"emissiveFactor":[0,0,0],"alphaMode":"OPAQUE","doubleSided":false},{"name":"mat2","pbrMetallicRoughness":{"baseColorTexture":{"index":2},"baseColorFactor":[1,1,1,1],"metallicFactor":0,"roughnessFactor":0.99},"emissiveFactor":[0,0,0],"alphaMode":"OPAQUE","doubleSided":false}],"meshes":[{"name":"polygon0_1","primitives":[{"attributes":{"POSITION":0,"NORMAL":1,"TEXCOORD_0":2},"indices":3,"material":0,"mode":4}]},{"name":"polygon1_1","primitives":[{"attributes":{"POSITION":4,"NORMAL":5,"TEXCOORD_0":6},"indices":7,"material":1,"mode":4}]},{"name":"polygon2_1","primitives":[{"attributes":{"POSITION":8,"NORMAL":9,"TEXCOORD_0":10},"indices":11,"material":2,"mode":4}]}],"nodes":[{"name":"polygon0","mesh":0},{"name":"polygon1","mesh":1},{"name":"polygon2","mesh":2}],"samplers":[{"wrapS":10497,"wrapT":10497}],"scene":0,"scenes":[{"nodes":[0,1,2]}],"textures":[{"name":"AsananDh","sampler":0,"source":0},{"name":"AsananMouthDh","sampler":0,"source":1},{"name":"AsananEyeDh","sampler":0,"source":2}]}