{"accessors":[{"name":"charem-Mesh_0_positions","componentType":5126,"count":216,"min":[-6.489059925079346,-1.1943700313568115,-10.879310607910156],"max":[6.489059925079346,2.0525500774383545,-0.0001900000061141327],"type":"VEC3","bufferView":0,"byteOffset":0},{"name":"charem-Mesh_0_texcoords","componentType":5126,"count":216,"min":[-0.4941850006580353,0.24434100091457367],"max":[1.392989993095398,2.1370298862457275],"type":"VEC2","bufferView":1,"byteOffset":0},{"name":"charem-Mesh_0_indices","componentType":5123,"count":1002,"min":[0],"max":[215],"type":"SCALAR","bufferView":2,"byteOffset":0},{"name":"charem-Mesh_1_positions","componentType":5126,"count":44,"min":[-3.0316500663757324,-1.172374963760376,-10.985340118408203],"max":[3.0316600799560547,2.16510009765625,-1.0391900539398193],"type":"VEC3","bufferView":0,"byteOffset":2592},{"name":"charem-Mesh_1_texcoords","componentType":5126,"count":44,"min":[-2.248960018157959,-0.6873700022697449],"max":[3.248960018157959,1.601011037826538],"type":"VEC2","bufferView":1,"byteOffset":1728},{"name":"charem-Mesh_1_indices","componentType":5123,"count":108,"min":[0],"max":[43],"type":"SCALAR","bufferView":2,"byteOffset":2004},{"name":"charem-Mesh_2_positions","componentType":5126,"count":28,"min":[-1.515720009803772,-1.4075599908828735,-5.759779930114746],"max":[1.515720009803772,1.1047300100326538,-3.3590710163116455],"type":"VEC3","bufferView":0,"byteOffset":3120},{"name":"charem-Mesh_2_texcoords","componentType":5126,"count":28,"min":[0.011363999918103218,0.5484539866447449],"max":[0.9817709922790527,1.0026040077209473],"type":"VEC2","bufferView":1,"byteOffset":2080},{"name":"charem-Mesh_2_indices","componentType":5123,"count":96,"min":[0],"max":[27],"type":"SCALAR","bufferView":2,"byteOffset":2220},{"name":"charem-Mesh_3_positions","componentType":5126,"count":145,"min":[-3.5137200355529785,-2.0685598850250244,-13.816113471984863],"max":[3.5137200355529785,1.73989999294281,-0.6800699830055237],"type":"VEC3","bufferView":0,"byteOffset":3456},{"name":"charem-Mesh_3_texcoords","componentType":5126,"count":145,"min":[0.03486299887299538,0.041985999792814255],"max":[0.9651399850845337,0.9729480147361755],"type":"VEC2","bufferView":1,"byteOffset":2304},{"name":"charem-Mesh_3_indices","componentType":5123,"count":678,"min":[0],"max":[144],"type":"SCALAR","bufferView":2,"byteOffset":2412},{"name":"charem-Mesh_4_positions","componentType":5126,"count":7,"min":[-1.476349949836731,0.39853501319885254,-10.403160095214844],"max":[0,2.0615100860595703,-9.40625],"type":"VEC3","bufferView":0,"byteOffset":5196},{"name":"charem-Mesh_4_texcoords","componentType":5126,"count":7,"min":[-0.22032800316810608,0.06519299745559692],"max":[2.041490077972412,0.24940499663352966],"type":"VEC2","bufferView":1,"byteOffset":3464},{"name":"charem-Mesh_4_indices","componentType":5123,"count":15,"min":[0],"max":[6],"type":"SCALAR","bufferView":2,"byteOffset":3768},{"name":"charem-Mesh_5_positions","componentType":5126,"count":29,"min":[-1.404129981994629,-0.9256899952888489,-11.133939743041992],"max":[1.404129981994629,2.1838700771331787,-8.671040534973145],"type":"VEC3","bufferView":0,"byteOffset":5280},{"name":"charem-Mesh_5_texcoords","componentType":5126,"count":29,"min":[0.059036001563072205,-0.10537999868392944],"max":[0.96875,0.9293299913406372],"type":"VEC2","bufferView":1,"byteOffset":3520},{"name":"charem-Mesh_5_indices","componentType":5123,"count":84,"min":[0],"max":[28],"type":"SCALAR","bufferView":2,"byteOffset":3800},{"name":"charem-Mesh_6_positions","componentType":5126,"count":37,"min":[-0.4714770019054413,1.8935400247573853,-9.068540573120117],"max":[0.4714759886264801,2.2771999835968018,-8.358499526977539],"type":"VEC3","bufferView":0,"byteOffset":5628},{"name":"charem-Mesh_6_texcoords","componentType":5126,"count":37,"min":[0.16020800173282623,0.30190399289131165],"max":[0.8397300243377686,0.8713909983634949],"type":"VEC2","bufferView":1,"byteOffset":3752},{"name":"charem-Mesh_6_indices","componentType":5123,"count":174,"min":[0],"max":[36],"type":"SCALAR","bufferView":2,"byteOffset":3968},{"name":"charem-Mesh_7_positions","componentType":5126,"count":46,"min":[-5.545330047607422,-1.2436000108718872,-11.076530456542969],"max":[5.545340061187744,2.128740072250366,-4.08364200592041],"type":"VEC3","bufferView":0,"byteOffset":6072},{"name":"charem-Mesh_7_texcoords","componentType":5126,"count":46,"min":[-0.12816199660301208,-0.06528999656438828],"max":[1.128159999847412,1.0639100074768066],"type":"VEC2","bufferView":1,"byteOffset":4048},{"name":"charem-Mesh_7_indices","componentType":5123,"count":114,"min":[0],"max":[45],"type":"SCALAR","bufferView":2,"byteOffset":4316},{"name":"charem-Mesh_8_positions","componentType":5126,"count":23,"min":[-2.1404099464416504,-0.5509030222892761,-0.7150800228118896],"max":[2.1404099464416504,0.29864999651908875,-0.3221200108528137],"type":"VEC3","bufferView":0,"byteOffset":6624},{"name":"charem-Mesh_8_texcoords","componentType":5126,"count":23,"min":[-0.1269419938325882,0.0064409999176859856],"max":[1.0087000131607056,2.142169952392578],"type":"VEC2","bufferView":1,"byteOffset":4416},{"name":"charem-Mesh_8_indices","componentType":5123,"count":60,"min":[0],"max":[22],"type":"SCALAR","bufferView":2,"byteOffset":4544},{"name":"charem-Mesh_9_positions","componentType":5126,"count":7,"min":[0,0.39853501319885254,-10.403160095214844],"max":[1.476349949836731,2.0615100860595703,-9.40625],"type":"VEC3","bufferView":0,"byteOffset":6900},{"name":"charem-Mesh_9_texcoords","componentType":5126,"count":7,"min":[-0.22032800316810608,0.06519299745559692],"max":[2.041490077972412,0.24940499663352966],"type":"VEC2","bufferView":1,"byteOffset":4600},{"name":"charem-Mesh_9_indices","componentType":5123,"count":15,"min":[0],"max":[6],"type":"SCALAR","bufferView":2,"byteOffset":4664}],"asset":{"generator":"obj2gltf","version":"2.0"},"buffers":[{"name":"BR_Medicham-Shiny01","byteLength":60704,"uri":"data:application/octet-stream;base64,"}],"bufferViews":[{"name":"bufferView_0","buffer":0,"byteLength":6984,"byteOffset":0,"byteStride":12,"target":34962},{"name":"bufferView_1","buffer":0,"byteLength":4656,"byteOffset":6984,"byteStride":8,"target":34962},{"name":"bufferView_2","buffer":0,"byteLength":4696,"byteOffset":11640,"target":34963},{"buffer":0,"byteOffset":16336,"byteLength":82},{"buffer":0,"byteOffset":16418,"byteLength":4114},{"buffer":0,"byteOffset":20532,"byteLength":4114},{"buffer":0,"byteOffset":24646,"byteLength":82},{"buffer":0,"byteOffset":24728,"byteLength":30738},{"buffer":0,"byteOffset":55466,"byteLength":82},{"buffer":0,"byteOffset":55548,"byteLength":4114},{"buffer":0,"byteOffset":59662,"byteLength":1042}],"images":[{"name":"charem_1_0","mimeType":"image/x-tga","bufferView":3},{"name":"charem_1_1","mimeType":"image/x-tga","bufferView":4},{"name":"charem_1_2","mimeType":"image/x-tga","bufferView":5},{"name":"charem_1_3","mimeType":"image/x-tga","bufferView":6},{"name":"charem_1_4","mimeType":"image/x-tga","bufferView":7},{"name":"charem_1_5","mimeType":"image/x-tga","bufferView":8},{"name":"charem_1_8","mimeType":"image/x-tga","bufferView":9},{"name":"charem_1_9","mimeType":"image/x-tga","bufferView":10}],"materials":[{"name":"mat_0","pbrMetallicRoughness":{"baseColorTexture":{"index":0},"baseColorFactor":[1,1,1,1],"metallicFactor":0,"roughnessFactor":0.903921569},"emissiveFactor":[0,0,0],"alphaMode":"BLEND","doubleSided":true},{"name":"mat_1","pbrMetallicRoughness":{"baseColorTexture":{"index":1},"baseColorFactor":[1,1,1,1],"metallicFactor":0,"roughnessFactor":0.903921569},"emissiveFactor":[0,0,0],"alphaMode":"BLEND","doubleSided":true},{"name":"mat_2","pbrMetallicRoughness":{"baseColorTexture":{"index":2},"baseColorFactor":[1,1,1,1],"metallicFactor":0,"roughnessFactor":0.903921569},"emissiveFactor":[0,0,0],"alphaMode":"BLEND","doubleSided":true},{"name":"mat_3","pbrMetallicRoughness":{"baseColorTexture":{"index":3},"baseColorFactor":[1,1,1,1],"metallicFactor":0,"roughnessFactor":0.903921569},"emissiveFactor":[0,0,0],"alphaMode":"BLEND","doubleSided":true},{"name":"mat_4","pbrMetallicRoughness":{"baseColorTexture":{"index":4},"baseColorFactor":[1,1,1,1],"metallicFactor":0,"roughnessFactor":0.903921569},"emissiveFactor":[0,0,0],"alphaMode":"BLEND","doubleSided":true},{"name":"mat_5","pbrMetallicRoughness":{"baseColorTexture":{"index":5},"baseColorFactor":[1,1,1,1],"metallicFactor":0,"roughnessFactor":0.903921569},"emissiveFactor":[0,0,0],"alphaMode":"BLEND","doubleSided":true},{"name":"mat_6","pbrMetallicRoughness":{"baseColorTexture":{"index":3},"baseColorFactor":[1,1,1,1],"metallicFactor":0,"roughnessFactor":0.903921569},"emissiveFactor":[0,0,0],"alphaMode":"BLEND","doubleSided":true},{"name":"mat_7","pbrMetallicRoughness":{"baseColorTexture":{"index":6},"baseColorFactor":[1,1,1,1],"metallicFactor":0,"roughnessFactor":0.903921569},"emissiveFactor":[0,0,0],"alphaMode":"BLEND","doubleSided":true},{"name":"mat_8","pbrMetallicRoughness":{"baseColorTexture":{"index":7},"baseColorFactor":[1,1,1,1],"metallicFactor":0,"roughnessFactor":0.903921569},"emissiveFactor":[0,0,0],"alphaMode":"BLEND","doubleSided":true},{"name":"mat_9","pbrMetallicRoughness":{"baseColorTexture":{"index":4},"baseColorFactor":[1,1,1,1],"metallicFactor":0,"roughnessFactor":0.903921569},"emissiveFactor":[0,0,0],"alphaMode":"BLEND","doubleSided":true}],"meshes":[{"name":"charem-Mesh","primitives":[{"attributes":{"POSITION":0,"TEXCOORD_0":1},"indices":2,"material":0,"mode":4},{"attributes":{"POSITION":3,"TEXCOORD_0":4},"indices":5,"material":1,"mode":4},{"attributes":{"POSITION":6,"TEXCOORD_0":7},"indices":8,"material":2,"mode":4},{"attributes":{"POSITION":9,"TEXCOORD_0":10},"indices":11,"material":3,"mode":4},{"attributes":{"POSITION":12,"TEXCOORD_0":13},"indices":14,"material":4,"mode":4},{"attributes":{"POSITION":15,"TEXCOORD_0":16},"indices":17,"material":5,"mode":4},{"attributes":{"POSITION":18,"TEXCOORD_0":19},"indices":20,"material":6,"mode":4},{"attributes":{"POSITION":21,"TEXCOORD_0":22},"indices":23,"material":7,"mode":4},{"attributes":{"POSITION":24,"TEXCOORD_0":25},"indices":26,"material":8,"mode":4},{"attributes":{"POSITION":27,"TEXCOORD_0":28},"indices":29,"material":9,"mode":4}]}],"nodes":[{"name":"charem","mesh":0}],"samplers":[{"wrapS":10497,"wrapT":10497}],"scene":0,"scenes":[{"nodes":[0]}],"textures":[{"name":"charem_1_0","sampler":0,"source":0},{"name":"charem_1_1","sampler":0,"source":1},{"name":"charem_1_2","sampler":0,"source":2},{"name":"charem_1_3","sampler":0,"source":3},{"name":"charem_1_4","sampler":0,"source":4},{"name":"charem_1_5","sampler":0,"source":5},{"name":"charem_1_8","sampler":0,"source":6},{"name":"charem_1_9","sampler":0,"source":7}]}