{"accessors":[{"name":"livolt-Mesh_0_positions","componentType":5126,"count":94,"min":[-0.4181169867515564,-0.07933499664068222,-2.9962260723114014],"max":[0.4181169867515564,1.1104379892349243,-1.2967400550842285],"type":"VEC3","bufferView":0,"byteOffset":0},{"name":"livolt-Mesh_0_texcoords","componentType":5126,"count":94,"min":[0.007813000120222569,0.0078119998797774315],"max":[0.996874988079071,0.9921870231628418],"type":"VEC2","bufferView":1,"byteOffset":0},{"name":"livolt-Mesh_0_indices","componentType":5123,"count":300,"min":[0],"max":[93],"type":"SCALAR","bufferView":2,"byteOffset":0},{"name":"livolt-Mesh_1_positions","componentType":5126,"count":222,"min":[-0.3653140068054199,-1.139719009399414,-2.091053009033203],"max":[0.3653140068054199,1.1104379892349243,-0.0039029999170452356],"type":"VEC3","bufferView":0,"byteOffset":1128},{"name":"livolt-Mesh_1_texcoords","componentType":5126,"count":222,"min":[0.0851840004324913,0.04340299963951111],"max":[0.9570310115814209,0.7421870231628418],"type":"VEC2","bufferView":1,"byteOffset":752},{"name":"livolt-Mesh_1_indices","componentType":5123,"count":435,"min":[0],"max":[221],"type":"SCALAR","bufferView":2,"byteOffset":600},{"name":"livolt-Mesh_2_positions","componentType":5126,"count":24,"min":[-0.3388960063457489,-0.5790420174598694,-0.19887100160121918],"max":[0.3388960063457489,-0.3763650059700012,-0.003246000036597252],"type":"VEC3","bufferView":0,"byteOffset":3792},{"name":"livolt-Mesh_2_texcoords","componentType":5126,"count":24,"min":[0.07356899976730347,0.1531749963760376],"max":[0.9540200233459473,0.9213600158691406],"type":"VEC2","bufferView":1,"byteOffset":2528},{"name":"livolt-Mesh_2_indices","componentType":5123,"count":90,"min":[0],"max":[23],"type":"SCALAR","bufferView":2,"byteOffset":1472},{"name":"livolt-Mesh_3_positions","componentType":5126,"count":14,"min":[-0.3388960063457489,-0.6046440005302429,-0.0039029999170452356],"max":[0.3388960063457489,-0.3783220052719116,-0.003246000036597252],"type":"VEC3","bufferView":0,"byteOffset":4080},{"name":"livolt-Mesh_3_texcoords","componentType":5126,"count":14,"min":[0.07356899976730347,0.05218999832868576],"max":[0.9540200233459473,0.9136369824409485],"type":"VEC2","bufferView":1,"byteOffset":2720},{"name":"livolt-Mesh_3_indices","componentType":5123,"count":30,"min":[0],"max":[13],"type":"SCALAR","bufferView":2,"byteOffset":1652},{"name":"livolt-Mesh_4_positions","componentType":5126,"count":21,"min":[-0.17157399654388428,0.6945949792861938,-1.6761490106582642],"max":[0.17157399654388428,1.0557990074157715,-1.6594170331954956],"type":"VEC3","bufferView":0,"byteOffset":4248},{"name":"livolt-Mesh_4_texcoords","componentType":5126,"count":21,"min":[0.007466999813914299,0.03348200023174286],"max":[0.9765629768371582,0.9791669845581055],"type":"VEC2","bufferView":1,"byteOffset":2832},{"name":"livolt-Mesh_4_indices","componentType":5123,"count":60,"min":[0],"max":[20],"type":"SCALAR","bufferView":2,"byteOffset":1712},{"name":"livolt-Mesh_5_positions","componentType":5126,"count":8,"min":[-0.26645299792289734,0.6075649857521057,-1.953645944595337],"max":[0.26645299792289734,0.7620589733123779,-1.8660839796066284],"type":"VEC3","bufferView":0,"byteOffset":4500},{"name":"livolt-Mesh_5_texcoords","componentType":5126,"count":8,"min":[0.06445299834012985,0.03320299834012985],"max":[0.9277340173721313,0.20507800579071045],"type":"VEC2","bufferView":1,"byteOffset":3000},{"name":"livolt-Mesh_5_indices","componentType":5123,"count":12,"min":[0],"max":[7],"type":"SCALAR","bufferView":2,"byteOffset":1832},{"name":"livolt-Mesh_6_positions","componentType":5126,"count":113,"min":[-0.4935370087623596,0.20953600108623505,-1.4338469505310059],"max":[0.4935370087623596,0.9071090221405029,-0.2832610011100769],"type":"VEC3","bufferView":0,"byteOffset":4596},{"name":"livolt-Mesh_6_texcoords","componentType":5126,"count":113,"min":[0.03645800054073334,0.04262499883770943],"max":[0.9914060235023499,0.9681079983711243],"type":"VEC2","bufferView":1,"byteOffset":3064},{"name":"livolt-Mesh_6_indices","componentType":5123,"count":393,"min":[0],"max":[112],"type":"SCALAR","bufferView":2,"byteOffset":1856},{"name":"livolt-Mesh_7_positions","componentType":5126,"count":60,"min":[-0.32344600558280945,-1.0022209882736206,-0.8372009992599487],"max":[0.32344600558280945,-0.5790420174598694,-0.1623380035161972],"type":"VEC3","bufferView":0,"byteOffset":5952},{"name":"livolt-Mesh_7_texcoords","componentType":5126,"count":60,"min":[0.15835000574588776,0.11141300201416016],"max":[0.7934449911117554,0.9871370196342468],"type":"VEC2","bufferView":1,"byteOffset":3968},{"name":"livolt-Mesh_7_indices","componentType":5123,"count":282,"min":[0],"max":[59],"type":"SCALAR","bufferView":2,"byteOffset":2644},{"name":"livolt-Mesh_8_positions","componentType":5126,"count":68,"min":[-0.49823400378227234,-0.9728990197181702,-1.735440969467163],"max":[0.49823400378227234,-0.10943900048732758,-0.5530120134353638],"type":"VEC3","bufferView":0,"byteOffset":6672},{"name":"livolt-Mesh_8_texcoords","componentType":5126,"count":68,"min":[0.01064400002360344,0.010417000390589237],"max":[0.9895830154418945,0.9819080233573914],"type":"VEC2","bufferView":1,"byteOffset":4448},{"name":"livolt-Mesh_8_indices","componentType":5123,"count":336,"min":[0],"max":[67],"type":"SCALAR","bufferView":2,"byteOffset":3208}],"asset":{"generator":"obj2gltf","version":"2.0"},"buffers":[{"name":"BR_Manectric-Shiny01","byteLength":168076,"uri":"data:application/octet-stream;base64,"}],"bufferViews":[{"name":"bufferView_0","buffer":0,"byteLength":7488,"byteOffset":0,"byteStride":12,"target":34962},{"name":"bufferView_1","buffer":0,"byteLength":4992,"byteOffset":7488,"byteStride":8,"target":34962},{"name":"bufferView_2","buffer":0,"byteLength":3880,"byteOffset":12480,"target":34963},{"buffer":0,"byteOffset":16360,"byteLength":65554},{"buffer":0,"byteOffset":81914,"byteLength":4114},{"buffer":0,"byteOffset":86028,"byteLength":4114},{"buffer":0,"byteOffset":90142,"byteLength":4114},{"buffer":0,"byteOffset":94256,"byteLength":4114},{"buffer":0,"byteOffset":98370,"byteLength":32786},{"buffer":0,"byteOffset":131156,"byteLength":16402},{"buffer":0,"byteOffset":147558,"byteLength":16402},{"buffer":0,"byteOffset":163960,"byteLength":4114}],"images":[{"name":"livolt_1_0","mimeType":"image/x-tga","bufferView":3},{"name":"livolt_1_1","mimeType":"image/x-tga","bufferView":4},{"name":"livolt_1_2","mimeType":"image/x-tga","bufferView":5},{"name":"livolt_1_3","mimeType":"image/x-tga","bufferView":6},{"name":"livolt_1_4","mimeType":"image/x-tga","bufferView":7},{"name":"livolt_1_5","mimeType":"image/x-tga","bufferView":8},{"name":"livolt_1_6","mimeType":"image/x-tga","bufferView":9},{"name":"livolt_1_7","mimeType":"image/x-tga","bufferView":10},{"name":"livolt_1_8","mimeType":"image/x-tga","bufferView":11}],"materials":[{"name":"mat_0","pbrMetallicRoughness":{"baseColorTexture":{"index":0},"baseColorFactor":[1,1,1,1],"metallicFactor":0,"roughnessFactor":0.903921569},"emissiveFactor":[0,0,0],"alphaMode":"BLEND","doubleSided":true},{"name":"mat_1","pbrMetallicRoughness":{"baseColorTexture":{"index":1},"baseColorFactor":[1,1,1,1],"metallicFactor":0,"roughnessFactor":0.903921569},"emissiveFactor":[0,0,0],"alphaMode":"BLEND","doubleSided":true},{"name":"mat_2","pbrMetallicRoughness":{"baseColorTexture":{"index":2},"baseColorFactor":[1,1,1,1],"metallicFactor":0,"roughnessFactor":0.903921569},"emissiveFactor":[0,0,0],"alphaMode":"BLEND","doubleSided":true},{"name":"mat_3","pbrMetallicRoughness":{"baseColorTexture":{"index":3},"baseColorFactor":[1,1,1,1],"metallicFactor":0,"roughnessFactor":0.903921569},"emissiveFactor":[0,0,0],"alphaMode":"BLEND","doubleSided":true},{"name":"mat_4","pbrMetallicRoughness":{"baseColorTexture":{"index":4},"baseColorFactor":[1,1,1,1],"metallicFactor":0,"roughnessFactor":0.903921569},"emissiveFactor":[0,0,0],"alphaMode":"BLEND","doubleSided":true},{"name":"mat_5","pbrMetallicRoughness":{"baseColorTexture":{"index":5},"baseColorFactor":[1,1,1,1],"metallicFactor":0,"roughnessFactor":0.903921569},"emissiveFactor":[0,0,0],"alphaMode":"BLEND","doubleSided":true},{"name":"mat_6","pbrMetallicRoughness":{"baseColorTexture":{"index":6},"baseColorFactor":[1,1,1,1],"metallicFactor":0,"roughnessFactor":0.903921569},"emissiveFactor":[0,0,0],"alphaMode":"BLEND","doubleSided":true},{"name":"mat_7","pbrMetallicRoughness":{"baseColorTexture":{"index":7},"baseColorFactor":[1,1,1,1],"metallicFactor":0,"roughnessFactor":0.903921569},"emissiveFactor":[0,0,0],"alphaMode":"BLEND","doubleSided":true},{"name":"mat_8","pbrMetallicRoughness":{"baseColorTexture":{"index":8},"baseColorFactor":[1,1,1,1],"metallicFactor":0,"roughnessFactor":0.903921569},"emissiveFactor":[0,0,0],"alphaMode":"BLEND","doubleSided":true}],"meshes":[{"name":"livolt-Mesh","primitives":[{"attributes":{"POSITION":0,"TEXCOORD_0":1},"indices":2,"material":0,"mode":4},{"attributes":{"POSITION":3,"TEXCOORD_0":4},"indices":5,"material":1,"mode":4},{"attributes":{"POSITION":6,"TEXCOORD_0":7},"indices":8,"material":2,"mode":4},{"attributes":{"POSITION":9,"TEXCOORD_0":10},"indices":11,"material":3,"mode":4},{"attributes":{"POSITION":12,"TEXCOORD_0":13},"indices":14,"material":4,"mode":4},{"attributes":{"POSITION":15,"TEXCOORD_0":16},"indices":17,"material":5,"mode":4},{"attributes":{"POSITION":18,"TEXCOORD_0":19},"indices":20,"material":6,"mode":4},{"attributes":{"POSITION":21,"TEXCOORD_0":22},"indices":23,"material":7,"mode":4},{"attributes":{"POSITION":24,"TEXCOORD_0":25},"indices":26,"material":8,"mode":4}]}],"nodes":[{"name":"livolt","mesh":0}],"samplers":[{"wrapS":10497,"wrapT":10497}],"scene":0,"scenes":[{"nodes":[0]}],"textures":[{"name":"livolt_1_0","sampler":0,"source":0},{"name":"livolt_1_1","sampler":0,"source":1},{"name":"livolt_1_2","sampler":0,"source":2},{"name":"livolt_1_3","sampler":0,"source":3},{"name":"livolt_1_4","sampler":0,"source":4},{"name":"livolt_1_5","sampler":0,"source":5},{"name":"livolt_1_6","sampler":0,"source":6},{"name":"livolt_1_7","sampler":0,"source":7},{"name":"livolt_1_8","sampler":0,"source":8}]}