{"accessors":[{"name":"prasle-Mesh_0_positions","componentType":5126,"count":31,"min":[-4.798980236053467,-1.3182300329208374,-6.1742401123046875],"max":[4.798960208892822,0.27630698680877686,-4.532100200653076],"type":"VEC3","bufferView":0,"byteOffset":0},{"name":"prasle-Mesh_0_texcoords","componentType":5126,"count":31,"min":[0.18532699346542358,0.38927099108695984],"max":[2.274060010910034,1.1554850339889526],"type":"VEC2","bufferView":1,"byteOffset":0},{"name":"prasle-Mesh_0_indices","componentType":5123,"count":126,"min":[0],"max":[30],"type":"SCALAR","bufferView":2,"byteOffset":0},{"name":"prasle-Mesh_1_positions","componentType":5126,"count":202,"min":[-4.3049798011779785,-4.1217498779296875,-12.648500442504883],"max":[4.304959774017334,3.016050100326538,-0.007608999963849783],"type":"VEC3","bufferView":0,"byteOffset":372},{"name":"prasle-Mesh_1_texcoords","componentType":5126,"count":202,"min":[0,0],"max":[1,1],"type":"VEC2","bufferView":1,"byteOffset":248},{"name":"prasle-Mesh_1_indices","componentType":5123,"count":1098,"min":[0],"max":[201],"type":"SCALAR","bufferView":2,"byteOffset":252},{"name":"prasle-Mesh_2_positions","componentType":5126,"count":26,"min":[-4.3049798011779785,-0.7768660187721252,-9.760390281677246],"max":[4.304959774017334,3.2045300006866455,-6.714890003204346],"type":"VEC3","bufferView":0,"byteOffset":2796},{"name":"prasle-Mesh_2_texcoords","componentType":5126,"count":26,"min":[-0.31152498722076416,-0.12947000563144684],"max":[1.1991900205612183,1.0486079454421997],"type":"VEC2","bufferView":1,"byteOffset":1864},{"name":"prasle-Mesh_2_indices","componentType":5123,"count":90,"min":[0],"max":[25],"type":"SCALAR","bufferView":2,"byteOffset":2448},{"name":"prasle-Mesh_3_positions","componentType":5126,"count":18,"min":[-3.36299991607666,1.863669991493225,-11.0024995803833],"max":[3.3629798889160156,3.627540111541748,-8.228170394897461],"type":"VEC3","bufferView":0,"byteOffset":3108},{"name":"prasle-Mesh_3_texcoords","componentType":5126,"count":18,"min":[-0.5461680293083191,-0.02928999997675419],"max":[1.2953699827194214,0.15317599475383759],"type":"VEC2","bufferView":1,"byteOffset":2072},{"name":"prasle-Mesh_3_indices","componentType":5123,"count":60,"min":[0],"max":[17],"type":"SCALAR","bufferView":2,"byteOffset":2628},{"name":"prasle-Mesh_4_positions","componentType":5126,"count":10,"min":[-1.78603994846344,2.2171599864959717,-8.957859992980957],"max":[1.786020040512085,3.8493099212646484,-6.342100143432617],"type":"VEC3","bufferView":0,"byteOffset":3324},{"name":"prasle-Mesh_4_texcoords","componentType":5126,"count":10,"min":[-0.16537000238895416,0.18686699867248535],"max":[1.165369987487793,0.33250299096107483],"type":"VEC2","bufferView":1,"byteOffset":2216},{"name":"prasle-Mesh_4_indices","componentType":5123,"count":30,"min":[0],"max":[9],"type":"SCALAR","bufferView":2,"byteOffset":2748},{"name":"prasle-Mesh_5_positions","componentType":5126,"count":4,"min":[-0.9187819957733154,3.53698992729187,-9.962180137634277],"max":[0.9187020063400269,3.8493099212646484,-8.855239868164062],"type":"VEC3","bufferView":0,"byteOffset":3444},{"name":"prasle-Mesh_5_texcoords","componentType":5126,"count":4,"min":[-1.2905499935150146,-1.417799949645996],"max":[2.2904300689697266,0.8441309928894043],"type":"VEC2","bufferView":1,"byteOffset":2296},{"name":"prasle-Mesh_5_indices","componentType":5123,"count":6,"min":[0],"max":[3],"type":"SCALAR","bufferView":2,"byteOffset":2808},{"name":"prasle-Mesh_6_positions","componentType":5126,"count":18,"min":[-0.783145010471344,-3.6451900005340576,-2.9900100231170654],"max":[0.7831259965896606,-1.7956899404525757,-1.3802499771118164],"type":"VEC3","bufferView":0,"byteOffset":3492},{"name":"prasle-Mesh_6_texcoords","componentType":5126,"count":18,"min":[0,0],"max":[1,1],"type":"VEC2","bufferView":1,"byteOffset":2328},{"name":"prasle-Mesh_6_indices","componentType":5123,"count":96,"min":[0],"max":[17],"type":"SCALAR","bufferView":2,"byteOffset":2820},{"name":"prasle-Mesh_7_positions","componentType":5126,"count":16,"min":[-0.22270900011062622,-5.503029823303223,-4.727729797363281],"max":[0.22269000113010406,-2.5173399448394775,0.017931999638676643],"type":"VEC3","bufferView":0,"byteOffset":3708},{"name":"prasle-Mesh_7_texcoords","componentType":5126,"count":16,"min":[0,0],"max":[1,1],"type":"VEC2","bufferView":1,"byteOffset":2472},{"name":"prasle-Mesh_7_indices","componentType":5123,"count":84,"min":[0],"max":[15],"type":"SCALAR","bufferView":2,"byteOffset":3012},{"name":"prasle-Mesh_8_positions","componentType":5126,"count":40,"min":[-4.416409969329834,-1.474410057067871,-13.918600082397461],"max":[4.487689971923828,-0.4403359889984131,-11.15310001373291],"type":"VEC3","bufferView":0,"byteOffset":3900},{"name":"prasle-Mesh_8_texcoords","componentType":5126,"count":40,"min":[0,0],"max":[1,1],"type":"VEC2","bufferView":1,"byteOffset":2600},{"name":"prasle-Mesh_8_indices","componentType":5123,"count":216,"min":[0],"max":[39],"type":"SCALAR","bufferView":2,"byteOffset":3180},{"name":"prasle-Mesh_9_positions","componentType":5126,"count":54,"min":[-8.125309944152832,-1.61381995677948,-21.18600082397461],"max":[8.42199993133545,-0.25913500785827637,-11.231499671936035],"type":"VEC3","bufferView":0,"byteOffset":4380},{"name":"prasle-Mesh_9_texcoords","componentType":5126,"count":54,"min":[0.010250000283122063,-0.02191999927163124],"max":[1.0102499723434448,1.0219210386276245],"type":"VEC2","bufferView":1,"byteOffset":2920},{"name":"prasle-Mesh_9_indices","componentType":5123,"count":300,"min":[0],"max":[53],"type":"SCALAR","bufferView":2,"byteOffset":3612}],"asset":{"generator":"obj2gltf","version":"2.0"},"buffers":[{"name":"BR_Plusle-Shiny01","byteLength":178724,"uri":"data:application/octet-stream;base64,"}],"bufferViews":[{"name":"bufferView_0","buffer":0,"byteLength":5028,"byteOffset":0,"byteStride":12,"target":34962},{"name":"bufferView_1","buffer":0,"byteLength":3352,"byteOffset":5028,"byteStride":8,"target":34962},{"name":"bufferView_2","buffer":0,"byteLength":4212,"byteOffset":8380,"target":34963},{"buffer":0,"byteOffset":12592,"byteLength":2066},{"buffer":0,"byteOffset":14658,"byteLength":1042},{"buffer":0,"byteOffset":15700,"byteLength":16402},{"buffer":0,"byteOffset":32102,"byteLength":34834},{"buffer":0,"byteOffset":66936,"byteLength":98322},{"buffer":0,"byteOffset":165258,"byteLength":1042},{"buffer":0,"byteOffset":166300,"byteLength":4114},{"buffer":0,"byteOffset":170414,"byteLength":82},{"buffer":0,"byteOffset":170496,"byteLength":4114},{"buffer":0,"byteOffset":174610,"byteLength":4114}],"images":[{"name":"prasle_1_0","mimeType":"image/x-tga","bufferView":3},{"name":"prasle_1_1","mimeType":"image/x-tga","bufferView":4},{"name":"prasle_1_2","mimeType":"image/x-tga","bufferView":5},{"name":"prasle_1_3","mimeType":"image/x-tga","bufferView":6},{"name":"prasle_1_4","mimeType":"image/x-tga","bufferView":7},{"name":"prasle_1_5","mimeType":"image/x-tga","bufferView":8},{"name":"prasle_1_6","mimeType":"image/x-tga","bufferView":9},{"name":"prasle_1_7","mimeType":"image/x-tga","bufferView":10},{"name":"prasle_1_8","mimeType":"image/x-tga","bufferView":11},{"name":"prasle_1_9","mimeType":"image/x-tga","bufferView":12}],"materials":[{"name":"mat_0","pbrMetallicRoughness":{"baseColorTexture":{"index":0},"baseColorFactor":[1,1,1,1],"metallicFactor":0,"roughnessFactor":0.903921569},"emissiveFactor":[0,0,0],"alphaMode":"BLEND","doubleSided":true},{"name":"mat_1","pbrMetallicRoughness":{"baseColorTexture":{"index":1},"baseColorFactor":[1,1,1,1],"metallicFactor":0,"roughnessFactor":0.903921569},"emissiveFactor":[0,0,0],"alphaMode":"BLEND","doubleSided":true},{"name":"mat_2","pbrMetallicRoughness":{"baseColorTexture":{"index":2},"baseColorFactor":[1,1,1,1],"metallicFactor":0,"roughnessFactor":0.903921569},"emissiveFactor":[0,0,0],"alphaMode":"BLEND","doubleSided":true},{"name":"mat_3","pbrMetallicRoughness":{"baseColorTexture":{"index":3},"baseColorFactor":[1,1,1,1],"metallicFactor":0,"roughnessFactor":0.903921569},"emissiveFactor":[0,0,0],"alphaMode":"BLEND","doubleSided":true},{"name":"mat_4","pbrMetallicRoughness":{"baseColorTexture":{"index":4},"baseColorFactor":[1,1,1,1],"metallicFactor":0,"roughnessFactor":0.903921569},"emissiveFactor":[0,0,0],"alphaMode":"BLEND","doubleSided":true},{"name":"mat_5","pbrMetallicRoughness":{"baseColorTexture":{"index":5},"baseColorFactor":[1,1,1,1],"metallicFactor":0,"roughnessFactor":0.903921569},"emissiveFactor":[0,0,0],"alphaMode":"BLEND","doubleSided":true},{"name":"mat_6","pbrMetallicRoughness":{"baseColorTexture":{"index":6},"baseColorFactor":[1,1,1,1],"metallicFactor":0,"roughnessFactor":0.903921569},"emissiveFactor":[0,0,0],"alphaMode":"BLEND","doubleSided":true},{"name":"mat_7","pbrMetallicRoughness":{"baseColorTexture":{"index":7},"baseColorFactor":[1,1,1,1],"metallicFactor":0,"roughnessFactor":0.903921569},"emissiveFactor":[0,0,0],"alphaMode":"BLEND","doubleSided":true},{"name":"mat_8","pbrMetallicRoughness":{"baseColorTexture":{"index":8},"baseColorFactor":[1,1,1,1],"metallicFactor":0,"roughnessFactor":0.903921569},"emissiveFactor":[0,0,0],"alphaMode":"BLEND","doubleSided":true},{"name":"mat_9","pbrMetallicRoughness":{"baseColorTexture":{"index":9},"baseColorFactor":[1,1,1,1],"metallicFactor":0,"roughnessFactor":0.903921569},"emissiveFactor":[0,0,0],"alphaMode":"BLEND","doubleSided":true}],"meshes":[{"name":"prasle-Mesh","primitives":[{"attributes":{"POSITION":0,"TEXCOORD_0":1},"indices":2,"material":0,"mode":4},{"attributes":{"POSITION":3,"TEXCOORD_0":4},"indices":5,"material":1,"mode":4},{"attributes":{"POSITION":6,"TEXCOORD_0":7},"indices":8,"material":2,"mode":4},{"attributes":{"POSITION":9,"TEXCOORD_0":10},"indices":11,"material":3,"mode":4},{"attributes":{"POSITION":12,"TEXCOORD_0":13},"indices":14,"material":4,"mode":4},{"attributes":{"POSITION":15,"TEXCOORD_0":16},"indices":17,"material":5,"mode":4},{"attributes":{"POSITION":18,"TEXCOORD_0":19},"indices":20,"material":6,"mode":4},{"attributes":{"POSITION":21,"TEXCOORD_0":22},"indices":23,"material":7,"mode":4},{"attributes":{"POSITION":24,"TEXCOORD_0":25},"indices":26,"material":8,"mode":4},{"attributes":{"POSITION":27,"TEXCOORD_0":28},"indices":29,"material":9,"mode":4}]}],"nodes":[{"name":"prasle","mesh":0}],"samplers":[{"wrapS":10497,"wrapT":10497}],"scene":0,"scenes":[{"nodes":[0]}],"textures":[{"name":"prasle_1_0","sampler":0,"source":0},{"name":"prasle_1_1","sampler":0,"source":1},{"name":"prasle_1_2","sampler":0,"source":2},{"name":"prasle_1_3","sampler":0,"source":3},{"name":"prasle_1_4","sampler":0,"source":4},{"name":"prasle_1_5","sampler":0,"source":5},{"name":"prasle_1_6","sampler":0,"source":6},{"name":"prasle_1_7","sampler":0,"source":7},{"name":"prasle_1_8","sampler":0,"source":8},{"name":"prasle_1_9","sampler":0,"source":9}]}