{"accessors":[{"name":"Plusle_1_0_positions","componentType":5126,"count":11244,"min":[-17.690401077270508,-0.8297920227050781,-11.28380012512207],"max":[17.690399169921875,38.88629913330078,8.449581146240234],"type":"VEC3","bufferView":0,"byteOffset":0},{"name":"Plusle_1_0_normals","componentType":5126,"count":11244,"min":[-0.9992232322692871,-0.997198760509491,-0.9981047511100769],"max":[0.9992232322692871,0.9999970197677612,0.9971767663955688],"type":"VEC3","bufferView":1,"byteOffset":0},{"name":"Plusle_1_0_texcoords","componentType":5126,"count":11244,"min":[0,0.011220999993383884],"max":[1,0.9892420172691345],"type":"VEC2","bufferView":2,"byteOffset":0},{"name":"Plusle_1_0_indices","componentType":5123,"count":11244,"min":[0],"max":[11243],"type":"SCALAR","bufferView":3,"byteOffset":0},{"name":"Plusle_1_1_positions","componentType":5126,"count":528,"min":[-8.155420303344727,11.92939281463623,-0.008377999998629093],"max":[8.155380249023438,21.15680694580078,8.032880783081055],"type":"VEC3","bufferView":0,"byteOffset":134928},{"name":"Plusle_1_1_normals","componentType":5126,"count":528,"min":[-0.9979954957962036,-0.9739916920661926,-0.04258599877357483],"max":[0.9992233514785767,0.9807940125465393,0.9831936359405518],"type":"VEC3","bufferView":1,"byteOffset":134928},{"name":"Plusle_1_1_texcoords","componentType":5126,"count":528,"min":[0.009654000401496887,-0.9921900033950806],"max":[0.49035000801086426,-0.7604900002479553],"type":"VEC2","bufferView":2,"byteOffset":89952},{"name":"Plusle_1_1_indices","componentType":5123,"count":528,"min":[0],"max":[527],"type":"SCALAR","bufferView":3,"byteOffset":22488},{"name":"Plusle_1_2_positions","componentType":5126,"count":108,"min":[-3.1180760860443115,11.889699935913086,4.355420112609863],"max":[3.118043899536133,16.198104858398438,8.244388580322266],"type":"VEC3","bufferView":0,"byteOffset":141264},{"name":"Plusle_1_2_normals","componentType":5126,"count":108,"min":[-0.590595006942749,-0.9739916920661926,0.021588999778032303],"max":[0.9850155711174011,0.9807940125465393,0.9237942099571228],"type":"VEC3","bufferView":1,"byteOffset":141264},{"name":"Plusle_1_2_texcoords","componentType":5126,"count":108,"min":[0.12196499854326248,-1.9891400337219238],"max":[0.378030002117157,-1.7585200071334839],"type":"VEC2","bufferView":2,"byteOffset":94176},{"name":"Plusle_1_2_indices","componentType":5123,"count":108,"min":[0],"max":[107],"type":"SCALAR","bufferView":3,"byteOffset":23544}],"asset":{"generator":"obj2gltf","version":"2.0"},"buffers":[{"name":"XY_Plusle","byteLength":469660,"uri":"data:application/octet-stream;base64,"}],"bufferViews":[{"name":"bufferView_0","buffer":0,"byteLength":142560,"byteOffset":0,"byteStride":12,"target":34962},{"name":"bufferView_1","buffer":0,"byteLength":142560,"byteOffset":142560,"byteStride":12,"target":34962},{"name":"bufferView_2","buffer":0,"byteLength":95040,"byteOffset":285120,"byteStride":8,"target":34962},{"name":"bufferView_3","buffer":0,"byteLength":23760,"byteOffset":380160,"target":34963},{"buffer":0,"byteOffset":403920,"byteLength":18745},{"buffer":0,"byteOffset":422665,"byteLength":29894},{"buffer":0,"byteOffset":452559,"byteLength":17099}],"images":[{"name":"pm0311_00_Body1","mimeType":"image/png","bufferView":4},{"name":"pm0311_00_Eye1","mimeType":"image/png","bufferView":5},{"name":"pm0311_00_Mouth1","mimeType":"image/png","bufferView":6}],"materials":[{"name":"Material__36","pbrMetallicRoughness":{"baseColorTexture":{"index":0},"baseColorFactor":[1,1,1,1],"metallicFactor":0,"roughnessFactor":0.998},"emissiveFactor":[0,0,0],"alphaMode":"OPAQUE","doubleSided":false},{"name":"Material__37","pbrMetallicRoughness":{"baseColorTexture":{"index":1},"baseColorFactor":[1,1,1,1],"metallicFactor":0,"roughnessFactor":0.998},"emissiveFactor":[0,0,0],"alphaMode":"OPAQUE","doubleSided":false},{"name":"Material__38","pbrMetallicRoughness":{"baseColorTexture":{"index":2},"baseColorFactor":[1,1,1,1],"metallicFactor":0,"roughnessFactor":0.998},"emissiveFactor":[0,0,0],"alphaMode":"OPAQUE","doubleSided":false}],"meshes":[{"name":"Plusle_1","primitives":[{"attributes":{"POSITION":0,"NORMAL":1,"TEXCOORD_0":2},"indices":3,"material":0,"mode":4},{"attributes":{"POSITION":4,"NORMAL":5,"TEXCOORD_0":6},"indices":7,"material":1,"mode":4},{"attributes":{"POSITION":8,"NORMAL":9,"TEXCOORD_0":10},"indices":11,"material":2,"mode":4}]}],"nodes":[{"name":"Plusle","mesh":0}],"samplers":[{"wrapS":10497,"wrapT":10497}],"scene":0,"scenes":[{"nodes":[0]}],"textures":[{"name":"pm0311_00_Body1","sampler":0,"source":0},{"name":"pm0311_00_Eye1","sampler":0,"source":1},{"name":"pm0311_00_Mouth1","sampler":0,"source":2}]}