{"accessors":[{"name":"minun-Mesh_0_positions","componentType":5126,"count":31,"min":[-4.798980236053467,-1.3182300329208374,-6.1742401123046875],"max":[4.798960208892822,0.27630698680877686,-4.532100200653076],"type":"VEC3","bufferView":0,"byteOffset":0},{"name":"minun-Mesh_0_texcoords","componentType":5126,"count":31,"min":[0.18532699346542358,0.38927099108695984],"max":[2.274060010910034,1.1554850339889526],"type":"VEC2","bufferView":1,"byteOffset":0},{"name":"minun-Mesh_0_indices","componentType":5123,"count":126,"min":[0],"max":[30],"type":"SCALAR","bufferView":2,"byteOffset":0},{"name":"minun-Mesh_1_positions","componentType":5126,"count":202,"min":[-4.3049798011779785,-4.1217498779296875,-12.648500442504883],"max":[4.304959774017334,3.016050100326538,-0.007608999963849783],"type":"VEC3","bufferView":0,"byteOffset":372},{"name":"minun-Mesh_1_texcoords","componentType":5126,"count":202,"min":[0,0],"max":[1,1],"type":"VEC2","bufferView":1,"byteOffset":248},{"name":"minun-Mesh_1_indices","componentType":5123,"count":1098,"min":[0],"max":[201],"type":"SCALAR","bufferView":2,"byteOffset":252},{"name":"minun-Mesh_2_positions","componentType":5126,"count":26,"min":[-4.3049798011779785,-0.7768660187721252,-9.760390281677246],"max":[4.304959774017334,3.2045300006866455,-6.714890003204346],"type":"VEC3","bufferView":0,"byteOffset":2796},{"name":"minun-Mesh_2_texcoords","componentType":5126,"count":26,"min":[-0.31152498722076416,-0.12947000563144684],"max":[1.1991900205612183,1.0486079454421997],"type":"VEC2","bufferView":1,"byteOffset":1864},{"name":"minun-Mesh_2_indices","componentType":5123,"count":90,"min":[0],"max":[25],"type":"SCALAR","bufferView":2,"byteOffset":2448},{"name":"minun-Mesh_3_positions","componentType":5126,"count":18,"min":[-3.36299991607666,1.863669991493225,-11.0024995803833],"max":[3.3629798889160156,3.627540111541748,-8.228170394897461],"type":"VEC3","bufferView":0,"byteOffset":3108},{"name":"minun-Mesh_3_texcoords","componentType":5126,"count":18,"min":[-0.5461680293083191,-0.02928999997675419],"max":[1.2953699827194214,0.15317599475383759],"type":"VEC2","bufferView":1,"byteOffset":2072},{"name":"minun-Mesh_3_indices","componentType":5123,"count":60,"min":[0],"max":[17],"type":"SCALAR","bufferView":2,"byteOffset":2628},{"name":"minun-Mesh_4_positions","componentType":5126,"count":10,"min":[-1.78603994846344,2.2171599864959717,-8.957859992980957],"max":[1.786020040512085,3.8493099212646484,-6.342100143432617],"type":"VEC3","bufferView":0,"byteOffset":3324},{"name":"minun-Mesh_4_texcoords","componentType":5126,"count":10,"min":[-0.16537000238895416,0.18686699867248535],"max":[1.165369987487793,0.33250299096107483],"type":"VEC2","bufferView":1,"byteOffset":2216},{"name":"minun-Mesh_4_indices","componentType":5123,"count":30,"min":[0],"max":[9],"type":"SCALAR","bufferView":2,"byteOffset":2748},{"name":"minun-Mesh_5_positions","componentType":5126,"count":4,"min":[-0.9187819957733154,3.53698992729187,-9.962180137634277],"max":[0.9187020063400269,3.8493099212646484,-8.855239868164062],"type":"VEC3","bufferView":0,"byteOffset":3444},{"name":"minun-Mesh_5_texcoords","componentType":5126,"count":4,"min":[-1.2905499935150146,-1.417799949645996],"max":[2.2904300689697266,0.8441309928894043],"type":"VEC2","bufferView":1,"byteOffset":2296},{"name":"minun-Mesh_5_indices","componentType":5123,"count":6,"min":[0],"max":[3],"type":"SCALAR","bufferView":2,"byteOffset":2808},{"name":"minun-Mesh_6_positions","componentType":5126,"count":40,"min":[-4.416409969329834,-1.474410057067871,-13.918600082397461],"max":[4.487689971923828,-0.4403359889984131,-11.15310001373291],"type":"VEC3","bufferView":0,"byteOffset":3492},{"name":"minun-Mesh_6_texcoords","componentType":5126,"count":40,"min":[0,0],"max":[1,1],"type":"VEC2","bufferView":1,"byteOffset":2328},{"name":"minun-Mesh_6_indices","componentType":5123,"count":216,"min":[0],"max":[39],"type":"SCALAR","bufferView":2,"byteOffset":2820},{"name":"minun-Mesh_7_positions","componentType":5126,"count":54,"min":[-8.125309944152832,-1.61381995677948,-21.18600082397461],"max":[8.42199993133545,-0.25913500785827637,-11.231499671936035],"type":"VEC3","bufferView":0,"byteOffset":3972},{"name":"minun-Mesh_7_texcoords","componentType":5126,"count":54,"min":[0.010250000283122063,-0.02191999927163124],"max":[1.0102499723434448,1.0219210386276245],"type":"VEC2","bufferView":1,"byteOffset":2648},{"name":"minun-Mesh_7_indices","componentType":5123,"count":300,"min":[0],"max":[53],"type":"SCALAR","bufferView":2,"byteOffset":3252}],"asset":{"generator":"obj2gltf","version":"2.0"},"buffers":[{"name":"BR_Minun-Shiny01","byteLength":169456,"uri":"data:application/octet-stream;base64,"}],"bufferViews":[{"name":"bufferView_0","buffer":0,"byteLength":4620,"byteOffset":0,"byteStride":12,"target":34962},{"name":"bufferView_1","buffer":0,"byteLength":3080,"byteOffset":4620,"byteStride":8,"target":34962},{"name":"bufferView_2","buffer":0,"byteLength":3852,"byteOffset":7700,"target":34963},{"buffer":0,"byteOffset":11552,"byteLength":2066},{"buffer":0,"byteOffset":13618,"byteLength":82},{"buffer":0,"byteOffset":13700,"byteLength":16402},{"buffer":0,"byteOffset":30102,"byteLength":34834},{"buffer":0,"byteOffset":64936,"byteLength":98322},{"buffer":0,"byteOffset":163258,"byteLength":1042},{"buffer":0,"byteOffset":164300,"byteLength":4114},{"buffer":0,"byteOffset":168414,"byteLength":1042}],"images":[{"name":"minun_1_0","mimeType":"image/x-tga","bufferView":3},{"name":"minun_1_1","mimeType":"image/x-tga","bufferView":4},{"name":"minun_1_2","mimeType":"image/x-tga","bufferView":5},{"name":"minun_1_3","mimeType":"image/x-tga","bufferView":6},{"name":"minun_1_4","mimeType":"image/x-tga","bufferView":7},{"name":"minun_1_5","mimeType":"image/x-tga","bufferView":8},{"name":"minun_1_6","mimeType":"image/x-tga","bufferView":9},{"name":"minun_1_7","mimeType":"image/x-tga","bufferView":10}],"materials":[{"name":"mat_0","pbrMetallicRoughness":{"baseColorTexture":{"index":0},"baseColorFactor":[1,1,1,1],"metallicFactor":0,"roughnessFactor":0.903921569},"emissiveFactor":[0,0,0],"alphaMode":"BLEND","doubleSided":true},{"name":"mat_1","pbrMetallicRoughness":{"baseColorTexture":{"index":1},"baseColorFactor":[1,1,1,1],"metallicFactor":0,"roughnessFactor":0.903921569},"emissiveFactor":[0,0,0],"alphaMode":"BLEND","doubleSided":true},{"name":"mat_2","pbrMetallicRoughness":{"baseColorTexture":{"index":2},"baseColorFactor":[1,1,1,1],"metallicFactor":0,"roughnessFactor":0.903921569},"emissiveFactor":[0,0,0],"alphaMode":"BLEND","doubleSided":true},{"name":"mat_3","pbrMetallicRoughness":{"baseColorTexture":{"index":3},"baseColorFactor":[1,1,1,1],"metallicFactor":0,"roughnessFactor":0.903921569},"emissiveFactor":[0,0,0],"alphaMode":"BLEND","doubleSided":true},{"name":"mat_4","pbrMetallicRoughness":{"baseColorTexture":{"index":4},"baseColorFactor":[1,1,1,1],"metallicFactor":0,"roughnessFactor":0.903921569},"emissiveFactor":[0,0,0],"alphaMode":"BLEND","doubleSided":true},{"name":"mat_5","pbrMetallicRoughness":{"baseColorTexture":{"index":5},"baseColorFactor":[1,1,1,1],"metallicFactor":0,"roughnessFactor":0.903921569},"emissiveFactor":[0,0,0],"alphaMode":"BLEND","doubleSided":true},{"name":"mat_6","pbrMetallicRoughness":{"baseColorTexture":{"index":6},"baseColorFactor":[1,1,1,1],"metallicFactor":0,"roughnessFactor":0.903921569},"emissiveFactor":[0,0,0],"alphaMode":"BLEND","doubleSided":true},{"name":"mat_7","pbrMetallicRoughness":{"baseColorTexture":{"index":7},"baseColorFactor":[1,1,1,1],"metallicFactor":0,"roughnessFactor":0.903921569},"emissiveFactor":[0,0,0],"alphaMode":"BLEND","doubleSided":true}],"meshes":[{"name":"minun-Mesh","primitives":[{"attributes":{"POSITION":0,"TEXCOORD_0":1},"indices":2,"material":0,"mode":4},{"attributes":{"POSITION":3,"TEXCOORD_0":4},"indices":5,"material":1,"mode":4},{"attributes":{"POSITION":6,"TEXCOORD_0":7},"indices":8,"material":2,"mode":4},{"attributes":{"POSITION":9,"TEXCOORD_0":10},"indices":11,"material":3,"mode":4},{"attributes":{"POSITION":12,"TEXCOORD_0":13},"indices":14,"material":4,"mode":4},{"attributes":{"POSITION":15,"TEXCOORD_0":16},"indices":17,"material":5,"mode":4},{"attributes":{"POSITION":18,"TEXCOORD_0":19},"indices":20,"material":6,"mode":4},{"attributes":{"POSITION":21,"TEXCOORD_0":22},"indices":23,"material":7,"mode":4}]}],"nodes":[{"name":"minun","mesh":0}],"samplers":[{"wrapS":10497,"wrapT":10497}],"scene":0,"scenes":[{"nodes":[0]}],"textures":[{"name":"minun_1_0","sampler":0,"source":0},{"name":"minun_1_1","sampler":0,"source":1},{"name":"minun_1_2","sampler":0,"source":2},{"name":"minun_1_3","sampler":0,"source":3},{"name":"minun_1_4","sampler":0,"source":4},{"name":"minun_1_5","sampler":0,"source":5},{"name":"minun_1_6","sampler":0,"source":6},{"name":"minun_1_7","sampler":0,"source":7}]}