{"accessors":[{"name":"barubeat-Mesh_0_positions","componentType":5126,"count":3,"min":[-0.09696699678897858,-5.009565830230713,-4.922647953033447],"max":[5.395843982696533,-0.06911599636077881,-2.1434860229492188],"type":"VEC3","bufferView":0,"byteOffset":0},{"name":"barubeat-Mesh_0_texcoords","componentType":5126,"count":3,"min":[-0.27428799867630005,-0.5337499976158142],"max":[1.4931199550628662,1.352632999420166],"type":"VEC2","bufferView":1,"byteOffset":0},{"name":"barubeat-Mesh_0_indices","componentType":5123,"count":3,"min":[0],"max":[2],"type":"SCALAR","bufferView":2,"byteOffset":0}],"asset":{"generator":"obj2gltf","version":"2.0"},"buffers":[{"name":"BR_Volbeat-Shiny01","byteLength":16472,"uri":"data:application/octet-stream;base64,"}],"bufferViews":[{"name":"bufferView_0","buffer":0,"byteLength":36,"byteOffset":0,"byteStride":12,"target":34962},{"name":"bufferView_1","buffer":0,"byteLength":24,"byteOffset":36,"byteStride":8,"target":34962},{"name":"bufferView_2","buffer":0,"byteLength":8,"byteOffset":60,"target":34963},{"buffer":0,"byteOffset":68,"byteLength":16402}],"images":[{"name":"barubeat_1_0","mimeType":"image/x-tga","bufferView":3}],"materials":[{"name":"mat_0","pbrMetallicRoughness":{"baseColorTexture":{"index":0},"baseColorFactor":[1,1,1,1],"metallicFactor":0,"roughnessFactor":0.903921569},"emissiveFactor":[0,0,0],"alphaMode":"BLEND","doubleSided":true}],"meshes":[{"name":"barubeat-Mesh","primitives":[{"attributes":{"POSITION":0,"TEXCOORD_0":1},"indices":2,"material":0,"mode":4}]}],"nodes":[{"name":"barubeat","mesh":0}],"samplers":[{"wrapS":10497,"wrapT":10497}],"scene":0,"scenes":[{"nodes":[0]}],"textures":[{"name":"barubeat_1_0","sampler":0,"source":0}]}