{"accessors":[{"name":"illumise-Mesh_0_positions","componentType":5126,"count":3,"min":[-2.916198968887329,-5.096785068511963,-3.262969970703125],"max":[1.024610996246338,-1.1559749841690063,-3.262969970703125],"type":"VEC3","bufferView":0,"byteOffset":0},{"name":"illumise-Mesh_0_texcoords","componentType":5126,"count":3,"min":[-0.007879000157117844,-0.008700000122189522],"max":[1.486680030822754,1.4358479976654053],"type":"VEC2","bufferView":1,"byteOffset":0},{"name":"illumise-Mesh_0_indices","componentType":5123,"count":3,"min":[0],"max":[2],"type":"SCALAR","bufferView":2,"byteOffset":0}],"asset":{"generator":"obj2gltf","version":"2.0"},"buffers":[{"name":"BR_Illumise-Shiny01","byteLength":16472,"uri":"data:application/octet-stream;base64,"}],"bufferViews":[{"name":"bufferView_0","buffer":0,"byteLength":36,"byteOffset":0,"byteStride":12,"target":34962},{"name":"bufferView_1","buffer":0,"byteLength":24,"byteOffset":36,"byteStride":8,"target":34962},{"name":"bufferView_2","buffer":0,"byteLength":8,"byteOffset":60,"target":34963},{"buffer":0,"byteOffset":68,"byteLength":16402}],"images":[{"name":"illumise_1_0","mimeType":"image/x-tga","bufferView":3}],"materials":[{"name":"mat_0","pbrMetallicRoughness":{"baseColorTexture":{"index":0},"baseColorFactor":[1,1,1,1],"metallicFactor":0,"roughnessFactor":0.903921569},"emissiveFactor":[0,0,0],"alphaMode":"BLEND","doubleSided":true}],"meshes":[{"name":"illumise-Mesh","primitives":[{"attributes":{"POSITION":0,"TEXCOORD_0":1},"indices":2,"material":0,"mode":4}]}],"nodes":[{"name":"illumise","mesh":0}],"samplers":[{"wrapS":10497,"wrapT":10497}],"scene":0,"scenes":[{"nodes":[0]}],"textures":[{"name":"illumise_1_0","sampler":0,"source":0}]}