{"accessors":[{"name":"roselia-Mesh_0_positions","componentType":5126,"count":10,"min":[-0.4610559940338135,0.3043709993362427,-1.9821820259094238],"max":[0.4610559940338135,0.6195619702339172,-1.7758320569992065],"type":"VEC3","bufferView":0,"byteOffset":0},{"name":"roselia-Mesh_0_texcoords","componentType":5126,"count":10,"min":[-0.3898110091686249,0.02558399923145771],"max":[1.3569899797439575,0.13822700083255768],"type":"VEC2","bufferView":1,"byteOffset":0},{"name":"roselia-Mesh_0_indices","componentType":5123,"count":24,"min":[0],"max":[9],"type":"SCALAR","bufferView":2,"byteOffset":0},{"name":"roselia-Mesh_1_positions","componentType":5126,"count":68,"min":[-0.9821680188179016,-0.5591570138931274,-3.1538069248199463],"max":[0.9821680188179016,0.17092299461364746,-1.364778995513916],"type":"VEC3","bufferView":0,"byteOffset":120},{"name":"roselia-Mesh_1_texcoords","componentType":5126,"count":68,"min":[0.24923300743103027,0],"max":[0.7457129955291748,0.5666840076446533],"type":"VEC2","bufferView":1,"byteOffset":80},{"name":"roselia-Mesh_1_indices","componentType":5123,"count":285,"min":[0],"max":[67],"type":"SCALAR","bufferView":2,"byteOffset":48},{"name":"roselia-Mesh_2_positions","componentType":5126,"count":9,"min":[-0.4041439890861511,0.1771239936351776,-1.7758320569992065],"max":[0.4041439890861511,0.55240398645401,-1.5025080442428589],"type":"VEC3","bufferView":0,"byteOffset":936},{"name":"roselia-Mesh_2_texcoords","componentType":5126,"count":9,"min":[-0.7648770213127136,0.017764000222086906],"max":[1.7648799419403076,0.11574500054121017],"type":"VEC2","bufferView":1,"byteOffset":624},{"name":"roselia-Mesh_2_indices","componentType":5123,"count":24,"min":[0],"max":[8],"type":"SCALAR","bufferView":2,"byteOffset":620},{"name":"roselia-Mesh_3_positions","componentType":5126,"count":106,"min":[-1.968256950378418,-0.7274249792098999,-1.9874529838562012],"max":[-1.0730400085449219,0.5842850208282471,-0.6618949770927429],"type":"VEC3","bufferView":0,"byteOffset":1044},{"name":"roselia-Mesh_3_texcoords","componentType":5126,"count":106,"min":[-0.006058000028133392,0],"max":[1.0081000328063965,1.09375],"type":"VEC2","bufferView":1,"byteOffset":696},{"name":"roselia-Mesh_3_indices","componentType":5123,"count":324,"min":[0],"max":[105],"type":"SCALAR","bufferView":2,"byteOffset":668},{"name":"roselia-Mesh_4_positions","componentType":5126,"count":106,"min":[1.0730400085449219,-0.7270129919052124,-1.9929779767990112],"max":[1.9882570505142212,0.5833770036697388,-0.6686009764671326],"type":"VEC3","bufferView":0,"byteOffset":2316},{"name":"roselia-Mesh_4_texcoords","componentType":5126,"count":106,"min":[-0.006058000028133392,0],"max":[1.0081000328063965,1.09375],"type":"VEC2","bufferView":1,"byteOffset":1544},{"name":"roselia-Mesh_4_indices","componentType":5123,"count":324,"min":[0],"max":[105],"type":"SCALAR","bufferView":2,"byteOffset":1316},{"name":"roselia-Mesh_5_positions","componentType":5126,"count":163,"min":[-1.1691590547561646,-0.2803359925746918,-1.515207052230835],"max":[1.1689339876174927,0.3277609944343567,0.003206999972462654],"type":"VEC3","bufferView":0,"byteOffset":3588},{"name":"roselia-Mesh_5_texcoords","componentType":5126,"count":163,"min":[0.20196999609470367,0.5190349817276001],"max":[0.7929180264472961,1],"type":"VEC2","bufferView":1,"byteOffset":2392},{"name":"roselia-Mesh_5_indices","componentType":5123,"count":840,"min":[0],"max":[162],"type":"SCALAR","bufferView":2,"byteOffset":1964},{"name":"roselia-Mesh_6_positions","componentType":5126,"count":45,"min":[-0.5376129746437073,-0.39486798644065857,-2.6036760807037354],"max":[0.5376129746437073,0.6195619702339172,-1.4581029415130615],"type":"VEC3","bufferView":0,"byteOffset":5544},{"name":"roselia-Mesh_6_texcoords","componentType":5126,"count":45,"min":[-0.00520800007507205,-0.32653000950813293],"max":[1.263069987297058,1.171875],"type":"VEC2","bufferView":1,"byteOffset":3696},{"name":"roselia-Mesh_6_indices","componentType":5123,"count":189,"min":[0],"max":[44],"type":"SCALAR","bufferView":2,"byteOffset":3644}],"asset":{"generator":"obj2gltf","version":"2.0"},"buffers":[{"name":"BR_Roselia-Shiny01","byteLength":458708,"uri":"data:application/octet-stream;base64,"}],"bufferViews":[{"name":"bufferView_0","buffer":0,"byteLength":6084,"byteOffset":0,"byteStride":12,"target":34962},{"name":"bufferView_1","buffer":0,"byteLength":4056,"byteOffset":6084,"byteStride":8,"target":34962},{"name":"bufferView_2","buffer":0,"byteLength":4024,"byteOffset":10140,"target":34963},{"buffer":0,"byteOffset":14164,"byteLength":114706},{"buffer":0,"byteOffset":128870,"byteLength":1042},{"buffer":0,"byteOffset":129912,"byteLength":131090},{"buffer":0,"byteOffset":261002,"byteLength":65554},{"buffer":0,"byteOffset":326556,"byteLength":65554},{"buffer":0,"byteOffset":392110,"byteLength":1042},{"buffer":0,"byteOffset":393152,"byteLength":65554}],"images":[{"name":"roselia_1_0","mimeType":"image/x-tga","bufferView":3},{"name":"roselia_1_1","mimeType":"image/x-tga","bufferView":4},{"name":"roselia_1_2","mimeType":"image/x-tga","bufferView":5},{"name":"roselia_1_3","mimeType":"image/x-tga","bufferView":6},{"name":"roselia_1_4","mimeType":"image/x-tga","bufferView":7},{"name":"roselia_1_5","mimeType":"image/x-tga","bufferView":8},{"name":"roselia_1_6","mimeType":"image/x-tga","bufferView":9}],"materials":[{"name":"mat_0","pbrMetallicRoughness":{"baseColorTexture":{"index":0},"baseColorFactor":[1,1,1,1],"metallicFactor":0,"roughnessFactor":0.903921569},"emissiveFactor":[0,0,0],"alphaMode":"BLEND","doubleSided":true},{"name":"mat_1","pbrMetallicRoughness":{"baseColorTexture":{"index":1},"baseColorFactor":[1,1,1,1],"metallicFactor":0,"roughnessFactor":0.903921569},"emissiveFactor":[0,0,0],"alphaMode":"BLEND","doubleSided":true},{"name":"mat_2","pbrMetallicRoughness":{"baseColorTexture":{"index":2},"baseColorFactor":[1,1,1,1],"metallicFactor":0,"roughnessFactor":0.903921569},"emissiveFactor":[0,0,0],"alphaMode":"BLEND","doubleSided":true},{"name":"mat_3","pbrMetallicRoughness":{"baseColorTexture":{"index":3},"baseColorFactor":[1,1,1,1],"metallicFactor":0,"roughnessFactor":0.903921569},"emissiveFactor":[0,0,0],"alphaMode":"BLEND","doubleSided":true},{"name":"mat_4","pbrMetallicRoughness":{"baseColorTexture":{"index":4},"baseColorFactor":[1,1,1,1],"metallicFactor":0,"roughnessFactor":0.903921569},"emissiveFactor":[0,0,0],"alphaMode":"BLEND","doubleSided":true},{"name":"mat_5","pbrMetallicRoughness":{"baseColorTexture":{"index":5},"baseColorFactor":[1,1,1,1],"metallicFactor":0,"roughnessFactor":0.903921569},"emissiveFactor":[0,0,0],"alphaMode":"BLEND","doubleSided":true},{"name":"mat_6","pbrMetallicRoughness":{"baseColorTexture":{"index":6},"baseColorFactor":[1,1,1,1],"metallicFactor":0,"roughnessFactor":0.903921569},"emissiveFactor":[0,0,0],"alphaMode":"BLEND","doubleSided":true}],"meshes":[{"name":"roselia-Mesh","primitives":[{"attributes":{"POSITION":0,"TEXCOORD_0":1},"indices":2,"material":0,"mode":4},{"attributes":{"POSITION":3,"TEXCOORD_0":4},"indices":5,"material":1,"mode":4},{"attributes":{"POSITION":6,"TEXCOORD_0":7},"indices":8,"material":2,"mode":4},{"attributes":{"POSITION":9,"TEXCOORD_0":10},"indices":11,"material":3,"mode":4},{"attributes":{"POSITION":12,"TEXCOORD_0":13},"indices":14,"material":4,"mode":4},{"attributes":{"POSITION":15,"TEXCOORD_0":16},"indices":17,"material":5,"mode":4},{"attributes":{"POSITION":18,"TEXCOORD_0":19},"indices":20,"material":6,"mode":4}]}],"nodes":[{"name":"roselia","mesh":0}],"samplers":[{"wrapS":10497,"wrapT":10497}],"scene":0,"scenes":[{"nodes":[0]}],"textures":[{"name":"roselia_1_0","sampler":0,"source":0},{"name":"roselia_1_1","sampler":0,"source":1},{"name":"roselia_1_2","sampler":0,"source":2},{"name":"roselia_1_3","sampler":0,"source":3},{"name":"roselia_1_4","sampler":0,"source":4},{"name":"roselia_1_5","sampler":0,"source":5},{"name":"roselia_1_6","sampler":0,"source":6}]}