{"accessors":[{"name":"gokulin-Mesh_0_positions","componentType":5126,"count":177,"min":[-2.2379651069641113,-3.3015799522399902,-4.285264015197754],"max":[2.2452309131622314,2.7483201026916504,-1.1861319541931152],"type":"VEC3","bufferView":0,"byteOffset":0},{"name":"gokulin-Mesh_0_texcoords","componentType":5126,"count":177,"min":[-0.06716600060462952,-0.16527000069618225],"max":[1.0671700239181519,0.9576330184936523],"type":"VEC2","bufferView":1,"byteOffset":0},{"name":"gokulin-Mesh_0_indices","componentType":5123,"count":822,"min":[0],"max":[176],"type":"SCALAR","bufferView":2,"byteOffset":0},{"name":"gokulin-Mesh_1_positions","componentType":5126,"count":78,"min":[-2.047868013381958,0.5762770175933838,-2.7317049503326416],"max":[2.0554990768432617,2.8135900497436523,-1.1863809823989868],"type":"VEC3","bufferView":0,"byteOffset":2124},{"name":"gokulin-Mesh_1_texcoords","componentType":5126,"count":78,"min":[0.05016399919986725,0.04268699884414673],"max":[0.15060700476169586,0.093019999563694],"type":"VEC2","bufferView":1,"byteOffset":1416},{"name":"gokulin-Mesh_1_indices","componentType":5123,"count":378,"min":[0],"max":[77],"type":"SCALAR","bufferView":2,"byteOffset":1644},{"name":"gokulin-Mesh_2_positions","componentType":5126,"count":29,"min":[-0.7841150164604187,-0.5436760187149048,-3.112776041030884],"max":[0.7932000160217285,2.1418700218200684,-1.5176030397415161],"type":"VEC3","bufferView":0,"byteOffset":3060},{"name":"gokulin-Mesh_2_texcoords","componentType":5126,"count":29,"min":[0.05700000002980232,0.03799999877810478],"max":[0.9430000185966492,0.9860000014305115],"type":"VEC2","bufferView":1,"byteOffset":2040},{"name":"gokulin-Mesh_2_indices","componentType":5123,"count":102,"min":[0],"max":[28],"type":"SCALAR","bufferView":2,"byteOffset":2400},{"name":"gokulin-Mesh_3_positions","componentType":5126,"count":14,"min":[-1.4120010137557983,1.4407199621200562,-3.4185431003570557],"max":[1.4223699569702148,2.0046799182891846,-2.968003988265991],"type":"VEC3","bufferView":0,"byteOffset":3408},{"name":"gokulin-Mesh_3_texcoords","componentType":5126,"count":14,"min":[-0.40187498927116394,-0.07724999636411667],"max":[1.8951200246810913,0.20900000631809235],"type":"VEC2","bufferView":1,"byteOffset":2272},{"name":"gokulin-Mesh_3_indices","componentType":5123,"count":30,"min":[0],"max":[13],"type":"SCALAR","bufferView":2,"byteOffset":2604}],"asset":{"generator":"obj2gltf","version":"2.0"},"buffers":[{"name":"BR_Gulpin-Shiny01","byteLength":209400,"uri":"data:application/octet-stream;base64,"}],"bufferViews":[{"name":"bufferView_0","buffer":0,"byteLength":3576,"byteOffset":0,"byteStride":12,"target":34962},{"name":"bufferView_1","buffer":0,"byteLength":2384,"byteOffset":3576,"byteStride":8,"target":34962},{"name":"bufferView_2","buffer":0,"byteLength":2664,"byteOffset":5960,"target":34963},{"buffer":0,"byteOffset":8624,"byteLength":65554},{"buffer":0,"byteOffset":74178,"byteLength":36882},{"buffer":0,"byteOffset":111060,"byteLength":32786},{"buffer":0,"byteOffset":143846,"byteLength":65554}],"images":[{"name":"gokulin_1_0","mimeType":"image/x-tga","bufferView":3},{"name":"gokulin_1_1","mimeType":"image/x-tga","bufferView":4},{"name":"gokulin_1_2","mimeType":"image/x-tga","bufferView":5},{"name":"gokulin_1_4","mimeType":"image/x-tga","bufferView":6}],"materials":[{"name":"mat_0","pbrMetallicRoughness":{"baseColorTexture":{"index":0},"baseColorFactor":[1,1,1,1],"metallicFactor":0,"roughnessFactor":0.903921569},"emissiveFactor":[0,0,0],"alphaMode":"BLEND","doubleSided":true},{"name":"mat_1","pbrMetallicRoughness":{"baseColorTexture":{"index":1},"baseColorFactor":[1,1,1,1],"metallicFactor":0,"roughnessFactor":0.903921569},"emissiveFactor":[0,0,0],"alphaMode":"BLEND","doubleSided":true},{"name":"mat_2","pbrMetallicRoughness":{"baseColorTexture":{"index":2},"baseColorFactor":[1,1,1,1],"metallicFactor":0,"roughnessFactor":0.903921569},"emissiveFactor":[0,0,0],"alphaMode":"BLEND","doubleSided":true},{"name":"mat_3","pbrMetallicRoughness":{"baseColorTexture":{"index":3},"baseColorFactor":[1,1,1,1],"metallicFactor":0,"roughnessFactor":0.903921569},"emissiveFactor":[0,0,0],"alphaMode":"BLEND","doubleSided":true}],"meshes":[{"name":"gokulin-Mesh","primitives":[{"attributes":{"POSITION":0,"TEXCOORD_0":1},"indices":2,"material":0,"mode":4},{"attributes":{"POSITION":3,"TEXCOORD_0":4},"indices":5,"material":1,"mode":4},{"attributes":{"POSITION":6,"TEXCOORD_0":7},"indices":8,"material":2,"mode":4},{"attributes":{"POSITION":9,"TEXCOORD_0":10},"indices":11,"material":3,"mode":4}]}],"nodes":[{"name":"gokulin","mesh":0}],"samplers":[{"wrapS":10497,"wrapT":10497}],"scene":0,"scenes":[{"nodes":[0]}],"textures":[{"name":"gokulin_1_0","sampler":0,"source":0},{"name":"gokulin_1_1","sampler":0,"source":1},{"name":"gokulin_1_2","sampler":0,"source":2},{"name":"gokulin_1_4","sampler":0,"source":3}]}