{"accessors":[{"name":"marunoom-Mesh_0_positions","componentType":5126,"count":234,"min":[-9.906549453735352,-12.42096996307373,-24.412479400634766],"max":[9.361480712890625,8.405970573425293,-6.795098781585693],"type":"VEC3","bufferView":0,"byteOffset":0},{"name":"marunoom-Mesh_0_texcoords","componentType":5126,"count":234,"min":[-0.36614298820495605,-0.35321998596191406],"max":[1.3661400079727173,1.3762880563735962],"type":"VEC2","bufferView":1,"byteOffset":0},{"name":"marunoom-Mesh_0_indices","componentType":5123,"count":918,"min":[0],"max":[233],"type":"SCALAR","bufferView":2,"byteOffset":0},{"name":"marunoom-Mesh_1_positions","componentType":5126,"count":65,"min":[-6.7654547691345215,2.510930061340332,-21.05591583251953],"max":[4.581550121307373,8.7439603805542,-16.62652587890625],"type":"VEC3","bufferView":0,"byteOffset":2808},{"name":"marunoom-Mesh_1_texcoords","componentType":5126,"count":65,"min":[0.041749998927116394,0.04268699884414673],"max":[0.15060700476169586,0.09408300369977951],"type":"VEC2","bufferView":1,"byteOffset":1872},{"name":"marunoom-Mesh_1_indices","componentType":5123,"count":294,"min":[0],"max":[64],"type":"SCALAR","bufferView":2,"byteOffset":1836},{"name":"marunoom-Mesh_2_positions","componentType":5126,"count":29,"min":[-3.3794469833374023,-7.628339767456055,-21.329641342163086],"max":[0.9305559992790222,6.531350135803223,-8.606634140014648],"type":"VEC3","bufferView":0,"byteOffset":3588},{"name":"marunoom-Mesh_2_texcoords","componentType":5126,"count":29,"min":[0.05700000002980232,0.03799999877810478],"max":[0.9430000185966492,0.9860000014305115],"type":"VEC2","bufferView":1,"byteOffset":2392},{"name":"marunoom-Mesh_2_indices","componentType":5123,"count":102,"min":[0],"max":[28],"type":"SCALAR","bufferView":2,"byteOffset":2424},{"name":"marunoom-Mesh_3_positions","componentType":5126,"count":14,"min":[-5.070448875427246,4.00846004486084,-22.851083755493164],"max":[2.5149850845336914,5.889500141143799,-20.94489097595215],"type":"VEC3","bufferView":0,"byteOffset":3936},{"name":"marunoom-Mesh_3_texcoords","componentType":5126,"count":14,"min":[-1.8895200490951538,-0.04095999896526337],"max":[1.6020900011062622,0.1576489955186844],"type":"VEC2","bufferView":1,"byteOffset":2624},{"name":"marunoom-Mesh_3_indices","componentType":5123,"count":30,"min":[0],"max":[13],"type":"SCALAR","bufferView":2,"byteOffset":2628},{"name":"marunoom-Mesh_4_positions","componentType":5126,"count":28,"min":[-9.906549453735352,-12.42096996307373,-8.92177677154541],"max":[9.361480712890625,8.405970573425293,-6.795098781585693],"type":"VEC3","bufferView":0,"byteOffset":4104},{"name":"marunoom-Mesh_4_texcoords","componentType":5126,"count":28,"min":[0.015625,0.013159999623894691],"max":[0.984375,0.9819110035896301],"type":"VEC2","bufferView":1,"byteOffset":2736},{"name":"marunoom-Mesh_4_indices","componentType":5123,"count":96,"min":[0],"max":[27],"type":"SCALAR","bufferView":2,"byteOffset":2688}],"asset":{"generator":"obj2gltf","version":"2.0"},"buffers":[{"name":"BR_Swalot-Shiny01","byteLength":219248,"uri":"data:application/octet-stream;base64,"}],"bufferViews":[{"name":"bufferView_0","buffer":0,"byteLength":4440,"byteOffset":0,"byteStride":12,"target":34962},{"name":"bufferView_1","buffer":0,"byteLength":2960,"byteOffset":4440,"byteStride":8,"target":34962},{"name":"bufferView_2","buffer":0,"byteLength":2880,"byteOffset":7400,"target":34963},{"buffer":0,"byteOffset":10280,"byteLength":36882},{"buffer":0,"byteOffset":47162,"byteLength":32786},{"buffer":0,"byteOffset":79948,"byteLength":122898},{"buffer":0,"byteOffset":202846,"byteLength":16402}],"images":[{"name":"marunoom_1_0","mimeType":"image/x-tga","bufferView":3},{"name":"marunoom_1_2","mimeType":"image/x-tga","bufferView":4},{"name":"marunoom_1_4","mimeType":"image/x-tga","bufferView":5},{"name":"marunoom_1_5","mimeType":"image/x-tga","bufferView":6}],"materials":[{"name":"mat_0","pbrMetallicRoughness":{"baseColorTexture":{"index":0},"baseColorFactor":[1,1,1,1],"metallicFactor":0,"roughnessFactor":0.903921569},"emissiveFactor":[0,0,0],"alphaMode":"BLEND","doubleSided":true},{"name":"mat_1","pbrMetallicRoughness":{"baseColorTexture":{"index":0},"baseColorFactor":[1,1,1,1],"metallicFactor":0,"roughnessFactor":0.903921569},"emissiveFactor":[0,0,0],"alphaMode":"BLEND","doubleSided":true},{"name":"mat_2","pbrMetallicRoughness":{"baseColorTexture":{"index":1},"baseColorFactor":[1,1,1,1],"metallicFactor":0,"roughnessFactor":0.903921569},"emissiveFactor":[0,0,0],"alphaMode":"BLEND","doubleSided":true},{"name":"mat_3","pbrMetallicRoughness":{"baseColorTexture":{"index":2},"baseColorFactor":[1,1,1,1],"metallicFactor":0,"roughnessFactor":0.903921569},"emissiveFactor":[0,0,0],"alphaMode":"BLEND","doubleSided":true},{"name":"mat_4","pbrMetallicRoughness":{"baseColorTexture":{"index":3},"baseColorFactor":[1,1,1,1],"metallicFactor":0,"roughnessFactor":0.903921569},"emissiveFactor":[0,0,0],"alphaMode":"BLEND","doubleSided":true}],"meshes":[{"name":"marunoom-Mesh","primitives":[{"attributes":{"POSITION":0,"TEXCOORD_0":1},"indices":2,"material":0,"mode":4},{"attributes":{"POSITION":3,"TEXCOORD_0":4},"indices":5,"material":1,"mode":4},{"attributes":{"POSITION":6,"TEXCOORD_0":7},"indices":8,"material":2,"mode":4},{"attributes":{"POSITION":9,"TEXCOORD_0":10},"indices":11,"material":3,"mode":4},{"attributes":{"POSITION":12,"TEXCOORD_0":13},"indices":14,"material":4,"mode":4}]}],"nodes":[{"name":"marunoom","mesh":0}],"samplers":[{"wrapS":10497,"wrapT":10497}],"scene":0,"scenes":[{"nodes":[0]}],"textures":[{"name":"marunoom_1_0","sampler":0,"source":0},{"name":"marunoom_1_2","sampler":0,"source":1},{"name":"marunoom_1_4","sampler":0,"source":2},{"name":"marunoom_1_5","sampler":0,"source":3}]}