{"accessors":[{"name":"polygon0_1_0_positions","componentType":5126,"count":44,"min":[-1.725612998008728,-0.23181700706481934,2.362679958343506],"max":[1.7256029844284058,1.2727700471878052,3.883496046066284],"type":"VEC3","bufferView":0,"byteOffset":0},{"name":"polygon0_1_0_normals","componentType":5126,"count":44,"min":[-0.995909571647644,-0.09399399161338806,0.07141096889972687],"max":[0.995909571647644,0.47124502062797546,0.7247858047485352],"type":"VEC3","bufferView":1,"byteOffset":0},{"name":"polygon0_1_0_texcoords","componentType":5126,"count":44,"min":[0.010773000307381153,0.004517000168561935],"max":[1.0822750329971313,0.23419199883937836],"type":"VEC2","bufferView":2,"byteOffset":0},{"name":"polygon0_1_0_indices","componentType":5123,"count":174,"min":[0],"max":[43],"type":"SCALAR","bufferView":3,"byteOffset":0},{"name":"polygon1_1_0_positions","componentType":5126,"count":794,"min":[-5.189401149749756,-4.25098180770874,-3.531251907348633],"max":[5.189381122589111,5.007479190826416,4.516067981719971],"type":"VEC3","bufferView":0,"byteOffset":528},{"name":"polygon1_1_0_normals","componentType":5126,"count":794,"min":[-0.9998711347579956,-0.9983388185501099,-0.9997449517250061],"max":[0.9998711347579956,0.9999962449073792,0.9993324875831604],"type":"VEC3","bufferView":1,"byteOffset":528},{"name":"polygon1_1_0_texcoords","componentType":5126,"count":794,"min":[0.0025629999581724405,0.0016479999758303165],"max":[0.9987180233001709,0.9949949979782104],"type":"VEC2","bufferView":2,"byteOffset":352},{"name":"polygon1_1_0_indices","componentType":5123,"count":3468,"min":[0],"max":[793],"type":"SCALAR","bufferView":3,"byteOffset":348}],"asset":{"generator":"obj2gltf","version":"2.0"},"buffers":[{"name":"Carvanha","byteLength":279896,"uri":"data:application/octet-stream;base64,"}],"bufferViews":[{"name":"bufferView_0","buffer":0,"byteLength":10056,"byteOffset":0,"byteStride":12,"target":34962},{"name":"bufferView_1","buffer":0,"byteLength":10056,"byteOffset":10056,"byteStride":12,"target":34962},{"name":"bufferView_2","buffer":0,"byteLength":6704,"byteOffset":20112,"byteStride":8,"target":34962},{"name":"bufferView_3","buffer":0,"byteLength":7284,"byteOffset":26816,"target":34963},{"buffer":0,"byteOffset":34100,"byteLength":49170},{"buffer":0,"byteOffset":83270,"byteLength":196626}],"images":[{"name":"KibanhaEyeDh","mimeType":"image/x-tga","bufferView":4},{"name":"KibanhaDh","mimeType":"image/x-tga","bufferView":5}],"materials":[{"name":"mat2","pbrMetallicRoughness":{"baseColorTexture":{"index":0},"baseColorFactor":[1,1,1,1],"metallicFactor":0,"roughnessFactor":0.99},"emissiveFactor":[0,0,0],"alphaMode":"OPAQUE","doubleSided":false},{"name":"mat1","pbrMetallicRoughness":{"baseColorTexture":{"index":1},"baseColorFactor":[1,1,1,1],"metallicFactor":0,"roughnessFactor":0.99},"emissiveFactor":[0,0,0],"alphaMode":"OPAQUE","doubleSided":false}],"meshes":[{"name":"polygon0_1","primitives":[{"attributes":{"POSITION":0,"NORMAL":1,"TEXCOORD_0":2},"indices":3,"material":0,"mode":4}]},{"name":"polygon1_1","primitives":[{"attributes":{"POSITION":4,"NORMAL":5,"TEXCOORD_0":6},"indices":7,"material":1,"mode":4}]}],"nodes":[{"name":"polygon0","mesh":0},{"name":"polygon1","mesh":1}],"samplers":[{"wrapS":10497,"wrapT":10497}],"scene":0,"scenes":[{"nodes":[0,1]}],"textures":[{"name":"KibanhaEyeDh","sampler":0,"source":0},{"name":"KibanhaDh","sampler":0,"source":1}]}