{"accessors":[{"name":"polygon0_1_0_positions","componentType":5126,"count":21,"min":[3.382046937942505,-0.6543279886245728,1.3565959930419922],"max":[4.69070291519165,0.6543279886245728,1.3565959930419922],"type":"VEC3","bufferView":0,"byteOffset":0},{"name":"polygon0_1_0_normals","componentType":5126,"count":21,"min":[0,0,1],"max":[0,0,1],"type":"VEC3","bufferView":1,"byteOffset":0},{"name":"polygon0_1_0_texcoords","componentType":5126,"count":21,"min":[0,0],"max":[1,0.25],"type":"VEC2","bufferView":2,"byteOffset":0},{"name":"polygon0_1_0_indices","componentType":5123,"count":60,"min":[0],"max":[20],"type":"SCALAR","bufferView":3,"byteOffset":0},{"name":"polygon1_1_0_positions","componentType":5126,"count":21,"min":[-4.690328121185303,-0.6543279886245728,1.3565959930419922],"max":[-3.381671905517578,0.6543279886245728,1.3565959930419922],"type":"VEC3","bufferView":0,"byteOffset":252},{"name":"polygon1_1_0_normals","componentType":5126,"count":21,"min":[0,0,1],"max":[0,0,1],"type":"VEC3","bufferView":1,"byteOffset":252},{"name":"polygon1_1_0_texcoords","componentType":5126,"count":21,"min":[0,0],"max":[1,0.25],"type":"VEC2","bufferView":2,"byteOffset":168},{"name":"polygon1_1_0_indices","componentType":5123,"count":60,"min":[0],"max":[20],"type":"SCALAR","bufferView":3,"byteOffset":120},{"name":"polygon2_1_0_positions","componentType":5126,"count":795,"min":[-10.403008460998535,-8.501925468444824,-6.404959201812744],"max":[10.40300178527832,12.307601928710938,8.73022174835205],"type":"VEC3","bufferView":0,"byteOffset":504},{"name":"polygon2_1_0_normals","componentType":5126,"count":795,"min":[-0.9991784691810608,-0.9970232248306274,-1],"max":[0.9991784691810608,0.9970235824584961,0.9778533577919006],"type":"VEC3","bufferView":1,"byteOffset":504},{"name":"polygon2_1_0_texcoords","componentType":5126,"count":795,"min":[0.0002749999985098839,0.016753999516367912],"max":[0.9864500164985657,0.9941409826278687],"type":"VEC2","bufferView":2,"byteOffset":336},{"name":"polygon2_1_0_indices","componentType":5123,"count":3804,"min":[0],"max":[794],"type":"SCALAR","bufferView":3,"byteOffset":240},{"name":"polygon3_1_0_positions","componentType":5126,"count":59,"min":[-3.3614470958709717,-3.137706995010376,0.20438699424266815],"max":[3.3614420890808105,-0.4469900131225586,7.700497150421143],"type":"VEC3","bufferView":0,"byteOffset":10044},{"name":"polygon3_1_0_normals","componentType":5126,"count":59,"min":[-0.6358098387718201,-0.9994962215423584,-0.25152987241744995],"max":[0.6358092427253723,0.9903008937835693,0.9322335124015808],"type":"VEC3","bufferView":1,"byteOffset":10044},{"name":"polygon3_1_0_texcoords","componentType":5126,"count":59,"min":[0.7114560008049011,0.0005489999894052744],"max":[0.9727479815483093,0.4653019905090332],"type":"VEC2","bufferView":2,"byteOffset":6696},{"name":"polygon3_1_0_indices","componentType":5123,"count":264,"min":[0],"max":[58],"type":"SCALAR","bufferView":3,"byteOffset":7848},{"name":"polygon4_1_0_positions","componentType":5126,"count":42,"min":[-5.028536796569824,-2.3149139881134033,-1.3930200338363647],"max":[5.028536796569824,2.3280088901519775,3.82259202003479],"type":"VEC3","bufferView":0,"byteOffset":10752},{"name":"polygon4_1_0_normals","componentType":5126,"count":42,"min":[-0.9832081198692322,-0.6811909675598145,-0.8593502044677734],"max":[0.9832081198692322,0.6835908889770508,0.9601297974586487],"type":"VEC3","bufferView":1,"byteOffset":10752},{"name":"polygon4_1_0_texcoords","componentType":5126,"count":42,"min":[0.9500730037689209,0.009033000096678734],"max":[0.9909970164299011,0.06121800094842911],"type":"VEC2","bufferView":2,"byteOffset":7168},{"name":"polygon4_1_0_indices","componentType":5123,"count":132,"min":[0],"max":[41],"type":"SCALAR","bufferView":3,"byteOffset":8376}],"asset":{"generator":"obj2gltf","version":"2.0"},"buffers":[{"name":"Sharpedo","byteLength":284452,"uri":"data:application/octet-stream;base64,"}],"bufferViews":[{"name":"bufferView_0","buffer":0,"byteLength":11256,"byteOffset":0,"byteStride":12,"target":34962},{"name":"bufferView_1","buffer":0,"byteLength":11256,"byteOffset":11256,"byteStride":12,"target":34962},{"name":"bufferView_2","buffer":0,"byteLength":7504,"byteOffset":22512,"byteStride":8,"target":34962},{"name":"bufferView_3","buffer":0,"byteLength":8640,"byteOffset":30016,"target":34963},{"buffer":0,"byteOffset":38656,"byteLength":49170},{"buffer":0,"byteOffset":87826,"byteLength":196626}],"images":[{"name":"SamehaderEyeDh","mimeType":"image/x-tga","bufferView":4},{"name":"SamehaderDh","mimeType":"image/x-tga","bufferView":5}],"materials":[{"name":"mat3","pbrMetallicRoughness":{"baseColorTexture":{"index":0},"baseColorFactor":[1,1,1,1],"metallicFactor":0,"roughnessFactor":0.99},"emissiveFactor":[0,0,0],"alphaMode":"OPAQUE","doubleSided":false},{"name":"mat1","pbrMetallicRoughness":{"baseColorTexture":{"index":1},"baseColorFactor":[1,1,1,1],"metallicFactor":0,"roughnessFactor":0.99},"emissiveFactor":[0,0,0],"alphaMode":"OPAQUE","doubleSided":false},{"name":"mat2","pbrMetallicRoughness":{"baseColorTexture":{"index":1},"baseColorFactor":[1,1,1,1],"metallicFactor":0,"roughnessFactor":0.99},"emissiveFactor":[0,0,0],"alphaMode":"OPAQUE","doubleSided":false}],"meshes":[{"name":"polygon0_1","primitives":[{"attributes":{"POSITION":0,"NORMAL":1,"TEXCOORD_0":2},"indices":3,"material":0,"mode":4}]},{"name":"polygon1_1","primitives":[{"attributes":{"POSITION":4,"NORMAL":5,"TEXCOORD_0":6},"indices":7,"material":0,"mode":4}]},{"name":"polygon2_1","primitives":[{"attributes":{"POSITION":8,"NORMAL":9,"TEXCOORD_0":10},"indices":11,"material":1,"mode":4}]},{"name":"polygon3_1","primitives":[{"attributes":{"POSITION":12,"NORMAL":13,"TEXCOORD_0":14},"indices":15,"material":2,"mode":4}]},{"name":"polygon4_1","primitives":[{"attributes":{"POSITION":16,"NORMAL":17,"TEXCOORD_0":18},"indices":19,"material":0,"mode":4}]}],"nodes":[{"name":"polygon0","mesh":0},{"name":"polygon1","mesh":1},{"name":"polygon2","mesh":2},{"name":"polygon3","mesh":3},{"name":"polygon4","mesh":4}],"samplers":[{"wrapS":10497,"wrapT":10497}],"scene":0,"scenes":[{"nodes":[0,1,2,3,4]}],"textures":[{"name":"SamehaderEyeDh","sampler":0,"source":0},{"name":"SamehaderDh","sampler":0,"source":1}]}