{"accessors":[{"name":"hoeruko-Mesh_0_positions","componentType":5126,"count":251,"min":[-3.259769916534424,-2.475790023803711,-2.203619956970215],"max":[3.259769916534424,2.3824000358581543,1.1188100576400757],"type":"VEC3","bufferView":0,"byteOffset":0},{"name":"hoeruko-Mesh_0_texcoords","componentType":5126,"count":251,"min":[0.040702998638153076,0.023437000811100006],"max":[0.9661459922790527,0.8655040264129639],"type":"VEC2","bufferView":1,"byteOffset":0},{"name":"hoeruko-Mesh_0_indices","componentType":5123,"count":1344,"min":[0],"max":[250],"type":"SCALAR","bufferView":2,"byteOffset":0},{"name":"hoeruko-Mesh_1_positions","componentType":5126,"count":133,"min":[-2.170759916305542,-2.3014400005340576,-0.8566679954528809],"max":[2.170759916305542,2.262320041656494,2.124389886856079],"type":"VEC3","bufferView":0,"byteOffset":3012},{"name":"hoeruko-Mesh_1_texcoords","componentType":5126,"count":133,"min":[0.01822900027036667,0.010417000390589237],"max":[0.8723959922790527,0.9348959922790527],"type":"VEC2","bufferView":1,"byteOffset":2008},{"name":"hoeruko-Mesh_1_indices","componentType":5123,"count":486,"min":[0],"max":[132],"type":"SCALAR","bufferView":2,"byteOffset":2688},{"name":"hoeruko-Mesh_2_positions","componentType":5126,"count":8,"min":[-1.0976200103759766,1.1331199407577515,-1.762529969215393],"max":[1.0976200103759766,2.1189799308776855,-1.136549949645996],"type":"VEC3","bufferView":0,"byteOffset":4608},{"name":"hoeruko-Mesh_2_texcoords","componentType":5126,"count":8,"min":[0.0017359999474138021,0.015625],"max":[0.3324649930000305,0.9817709922790527],"type":"VEC2","bufferView":1,"byteOffset":3072},{"name":"hoeruko-Mesh_2_indices","componentType":5123,"count":12,"min":[0],"max":[7],"type":"SCALAR","bufferView":2,"byteOffset":3660},{"name":"hoeruko-Mesh_3_positions","componentType":5126,"count":6,"min":[-0.4822070002555847,0.5800960063934326,-2.1735999584198],"max":[0.4822070002555847,1.501520037651062,-1.744189977645874],"type":"VEC3","bufferView":0,"byteOffset":4704},{"name":"hoeruko-Mesh_3_texcoords","componentType":5126,"count":6,"min":[0.010417000390589237,0.002604000037536025],"max":[0.984375,0.9973959922790527],"type":"VEC2","bufferView":1,"byteOffset":3136},{"name":"hoeruko-Mesh_3_indices","componentType":5123,"count":12,"min":[0],"max":[5],"type":"SCALAR","bufferView":2,"byteOffset":3684},{"name":"hoeruko-Mesh_4_positions","componentType":5126,"count":40,"min":[-1.6445300579071045,1.1368600130081177,-0.9551849961280823],"max":[1.6445300579071045,2.33705997467041,-0.42778700590133667],"type":"VEC3","bufferView":0,"byteOffset":4776},{"name":"hoeruko-Mesh_4_texcoords","componentType":5126,"count":40,"min":[0.0025309999473392963,0.020833000540733337],"max":[0.9982640147209167,0.9895830154418945],"type":"VEC2","bufferView":1,"byteOffset":3184},{"name":"hoeruko-Mesh_4_indices","componentType":5123,"count":102,"min":[0],"max":[39],"type":"SCALAR","bufferView":2,"byteOffset":3708},{"name":"hoeruko-Mesh_5_positions","componentType":5126,"count":44,"min":[-1.6702899932861328,0.46094000339508057,-1.1040899753570557],"max":[1.6705100536346436,2.262320041656494,0.3648949861526489],"type":"VEC3","bufferView":0,"byteOffset":5256},{"name":"hoeruko-Mesh_5_texcoords","componentType":5126,"count":44,"min":[0.0022319999989122152,0.012400000356137753],"max":[0.986607015132904,0.9330360293388367],"type":"VEC2","bufferView":1,"byteOffset":3504},{"name":"hoeruko-Mesh_5_indices","componentType":5123,"count":126,"min":[0],"max":[43],"type":"SCALAR","bufferView":2,"byteOffset":3912},{"name":"hoeruko-Mesh_6_positions","componentType":5126,"count":4,"min":[-0.12674300372600555,1.374559998512268,-1.7400000095367432],"max":[0.12674300372600555,1.3794599771499634,-1.4766099452972412],"type":"VEC3","bufferView":0,"byteOffset":5784},{"name":"hoeruko-Mesh_6_texcoords","componentType":5126,"count":4,"min":[0.000007000000096013537,0],"max":[1.0000200271606445,0.9999880194664001],"type":"VEC2","bufferView":1,"byteOffset":3856},{"name":"hoeruko-Mesh_6_indices","componentType":5123,"count":6,"min":[0],"max":[3],"type":"SCALAR","bufferView":2,"byteOffset":4164}],"asset":{"generator":"obj2gltf","version":"2.0"},"buffers":[{"name":"BR_Wailmer-Shiny01","byteLength":569096,"uri":"data:application/octet-stream;base64,"}],"bufferViews":[{"name":"bufferView_0","buffer":0,"byteLength":5832,"byteOffset":0,"byteStride":12,"target":34962},{"name":"bufferView_1","buffer":0,"byteLength":3888,"byteOffset":5832,"byteStride":8,"target":34962},{"name":"bufferView_2","buffer":0,"byteLength":4176,"byteOffset":9720,"target":34963},{"buffer":0,"byteOffset":13896,"byteLength":82},{"buffer":0,"byteOffset":13978,"byteLength":65554},{"buffer":0,"byteOffset":79532,"byteLength":196626},{"buffer":0,"byteOffset":276158,"byteLength":18450},{"buffer":0,"byteOffset":294608,"byteLength":8210},{"buffer":0,"byteOffset":302818,"byteLength":4114},{"buffer":0,"byteOffset":306932,"byteLength":262162}],"images":[{"name":"hoeruko_1_0","mimeType":"image/x-tga","bufferView":3},{"name":"hoeruko_1_1","mimeType":"image/x-tga","bufferView":4},{"name":"hoeruko_1_2","mimeType":"image/x-tga","bufferView":5},{"name":"hoeruko_1_3","mimeType":"image/x-tga","bufferView":6},{"name":"hoeruko_1_4","mimeType":"image/x-tga","bufferView":7},{"name":"hoeruko_1_5","mimeType":"image/x-tga","bufferView":8},{"name":"hoeruko_1_6","mimeType":"image/x-tga","bufferView":9}],"materials":[{"name":"mat_0","pbrMetallicRoughness":{"baseColorTexture":{"index":0},"baseColorFactor":[1,1,1,1],"metallicFactor":0,"roughnessFactor":0.903921569},"emissiveFactor":[0,0,0],"alphaMode":"BLEND","doubleSided":true},{"name":"mat_1","pbrMetallicRoughness":{"baseColorTexture":{"index":1},"baseColorFactor":[1,1,1,1],"metallicFactor":0,"roughnessFactor":0.903921569},"emissiveFactor":[0,0,0],"alphaMode":"BLEND","doubleSided":true},{"name":"mat_2","pbrMetallicRoughness":{"baseColorTexture":{"index":2},"baseColorFactor":[1,1,1,1],"metallicFactor":0,"roughnessFactor":0.903921569},"emissiveFactor":[0,0,0],"alphaMode":"BLEND","doubleSided":true},{"name":"mat_3","pbrMetallicRoughness":{"baseColorTexture":{"index":3},"baseColorFactor":[1,1,1,1],"metallicFactor":0,"roughnessFactor":0.903921569},"emissiveFactor":[0,0,0],"alphaMode":"BLEND","doubleSided":true},{"name":"mat_4","pbrMetallicRoughness":{"baseColorTexture":{"index":4},"baseColorFactor":[1,1,1,1],"metallicFactor":0,"roughnessFactor":0.903921569},"emissiveFactor":[0,0,0],"alphaMode":"BLEND","doubleSided":true},{"name":"mat_5","pbrMetallicRoughness":{"baseColorTexture":{"index":5},"baseColorFactor":[1,1,1,1],"metallicFactor":0,"roughnessFactor":0.903921569},"emissiveFactor":[0,0,0],"alphaMode":"BLEND","doubleSided":true},{"name":"mat_6","pbrMetallicRoughness":{"baseColorTexture":{"index":6},"baseColorFactor":[1,1,1,1],"metallicFactor":0,"roughnessFactor":0.903921569},"emissiveFactor":[0,0,0],"alphaMode":"BLEND","doubleSided":true}],"meshes":[{"name":"hoeruko-Mesh","primitives":[{"attributes":{"POSITION":0,"TEXCOORD_0":1},"indices":2,"material":0,"mode":4},{"attributes":{"POSITION":3,"TEXCOORD_0":4},"indices":5,"material":1,"mode":4},{"attributes":{"POSITION":6,"TEXCOORD_0":7},"indices":8,"material":2,"mode":4},{"attributes":{"POSITION":9,"TEXCOORD_0":10},"indices":11,"material":3,"mode":4},{"attributes":{"POSITION":12,"TEXCOORD_0":13},"indices":14,"material":4,"mode":4},{"attributes":{"POSITION":15,"TEXCOORD_0":16},"indices":17,"material":5,"mode":4},{"attributes":{"POSITION":18,"TEXCOORD_0":19},"indices":20,"material":6,"mode":4}]}],"nodes":[{"name":"hoeruko","mesh":0}],"samplers":[{"wrapS":10497,"wrapT":10497}],"scene":0,"scenes":[{"nodes":[0]}],"textures":[{"name":"hoeruko_1_0","sampler":0,"source":0},{"name":"hoeruko_1_1","sampler":0,"source":1},{"name":"hoeruko_1_2","sampler":0,"source":2},{"name":"hoeruko_1_3","sampler":0,"source":3},{"name":"hoeruko_1_4","sampler":0,"source":4},{"name":"hoeruko_1_5","sampler":0,"source":5},{"name":"hoeruko_1_6","sampler":0,"source":6}]}