{"accessors":[{"name":"polygon0_1_0_positions","componentType":5126,"count":144,"min":[-26.537492752075195,-12.484325408935547,32.88434600830078],"max":[26.537492752075195,5.614919185638428,67.9912109375],"type":"VEC3","bufferView":0,"byteOffset":0},{"name":"polygon0_1_0_normals","componentType":5126,"count":144,"min":[-0.9931142330169678,-0.9997971653938293,-0.9193562269210815],"max":[0.9931142330169678,0.9958726763725281,0.9953709840774536],"type":"VEC3","bufferView":1,"byteOffset":0},{"name":"polygon0_1_0_texcoords","componentType":5126,"count":144,"min":[0.010010000318288803,0.5184019804000854],"max":[0.751708984375,0.7780460119247437],"type":"VEC2","bufferView":2,"byteOffset":0},{"name":"polygon0_1_0_indices","componentType":5123,"count":642,"min":[0],"max":[143],"type":"SCALAR","bufferView":3,"byteOffset":0},{"name":"polygon1_1_0_positions","componentType":5126,"count":959,"min":[-47.508018493652344,-22.098777770996094,-76.00550842285156],"max":[47.50798034667969,30.469009399414062,68.59381866455078],"type":"VEC3","bufferView":0,"byteOffset":1728},{"name":"polygon1_1_0_normals","componentType":5126,"count":959,"min":[-0.9995240569114685,-0.9996294379234314,-0.9991357922554016],"max":[0.9995240569114685,1,0.9971502423286438],"type":"VEC3","bufferView":1,"byteOffset":1728},{"name":"polygon1_1_0_texcoords","componentType":5126,"count":959,"min":[0.0027469999622553587,0.0018309999722987413],"max":[0.9946290254592896,0.9863889813423157],"type":"VEC2","bufferView":2,"byteOffset":1152},{"name":"polygon1_1_0_indices","componentType":5123,"count":4326,"min":[0],"max":[958],"type":"SCALAR","bufferView":3,"byteOffset":1284},{"name":"polygon2_1_0_positions","componentType":5126,"count":8,"min":[-25.106948852539062,1.1987919807434082,46.47377014160156],"max":[25.106948852539062,4.7273101806640625,51.93509292602539],"type":"VEC3","bufferView":0,"byteOffset":13236},{"name":"polygon2_1_0_normals","componentType":5126,"count":8,"min":[-0.9733162522315979,-0.00427200086414814,0.1740049570798874],"max":[0.9733162522315979,0.21013695001602173,0.4245070517063141],"type":"VEC3","bufferView":1,"byteOffset":13236},{"name":"polygon2_1_0_texcoords","componentType":5126,"count":8,"min":[0.019592000171542168,0.01043699961155653],"max":[0.9808040261268616,0.2387389987707138],"type":"VEC2","bufferView":2,"byteOffset":8824},{"name":"polygon2_1_0_indices","componentType":5123,"count":12,"min":[0],"max":[7],"type":"SCALAR","bufferView":3,"byteOffset":9936}],"asset":{"generator":"obj2gltf","version":"2.0"},"buffers":[{"name":"Wailord","byteLength":291308,"uri":"data:application/octet-stream;base64,"}],"bufferViews":[{"name":"bufferView_0","buffer":0,"byteLength":13332,"byteOffset":0,"byteStride":12,"target":34962},{"name":"bufferView_1","buffer":0,"byteLength":13332,"byteOffset":13332,"byteStride":12,"target":34962},{"name":"bufferView_2","buffer":0,"byteLength":8888,"byteOffset":26664,"byteStride":8,"target":34962},{"name":"bufferView_3","buffer":0,"byteLength":9960,"byteOffset":35552,"target":34963},{"buffer":0,"byteOffset":45512,"byteLength":196626},{"buffer":0,"byteOffset":242138,"byteLength":49170}],"images":[{"name":"WhalohDh","mimeType":"image/x-tga","bufferView":4},{"name":"WhalohEyeDh","mimeType":"image/x-tga","bufferView":5}],"materials":[{"name":"mat3","pbrMetallicRoughness":{"baseColorTexture":{"index":0},"baseColorFactor":[1,1,1,1],"metallicFactor":0,"roughnessFactor":0.99},"emissiveFactor":[0,0,0],"alphaMode":"OPAQUE","doubleSided":false},{"name":"mat1","pbrMetallicRoughness":{"baseColorTexture":{"index":0},"baseColorFactor":[1,1,1,1],"metallicFactor":0,"roughnessFactor":0.99},"emissiveFactor":[0,0,0],"alphaMode":"OPAQUE","doubleSided":false},{"name":"mat2","pbrMetallicRoughness":{"baseColorTexture":{"index":1},"baseColorFactor":[1,1,1,1],"metallicFactor":0,"roughnessFactor":0.99},"emissiveFactor":[0,0,0],"alphaMode":"OPAQUE","doubleSided":false}],"meshes":[{"name":"polygon0_1","primitives":[{"attributes":{"POSITION":0,"NORMAL":1,"TEXCOORD_0":2},"indices":3,"material":0,"mode":4}]},{"name":"polygon1_1","primitives":[{"attributes":{"POSITION":4,"NORMAL":5,"TEXCOORD_0":6},"indices":7,"material":1,"mode":4}]},{"name":"polygon2_1","primitives":[{"attributes":{"POSITION":8,"NORMAL":9,"TEXCOORD_0":10},"indices":11,"material":2,"mode":4}]}],"nodes":[{"name":"polygon0","mesh":0},{"name":"polygon1","mesh":1},{"name":"polygon2","mesh":2}],"samplers":[{"wrapS":10497,"wrapT":10497}],"scene":0,"scenes":[{"nodes":[0,1,2]}],"textures":[{"name":"WhalohDh","sampler":0,"source":0},{"name":"WhalohEyeDh","sampler":0,"source":1}]}