{"accessors":[{"name":"donmel-Mesh_0_positions","componentType":5126,"count":19,"min":[-0.5099200010299683,3.820707082748413,-5.816938877105713],"max":[0.5099189877510071,5.000168800354004,-5.097137928009033],"type":"VEC3","bufferView":0,"byteOffset":0},{"name":"donmel-Mesh_0_texcoords","componentType":5126,"count":19,"min":[0,0.1843239963054657],"max":[1,1],"type":"VEC2","bufferView":1,"byteOffset":0},{"name":"donmel-Mesh_0_indices","componentType":5123,"count":54,"min":[0],"max":[18],"type":"SCALAR","bufferView":2,"byteOffset":0}],"asset":{"generator":"obj2gltf","version":"2.0"},"buffers":[{"name":"BR_Numel-Shiny01","byteLength":4604,"uri":"data:application/octet-stream;base64,"}],"bufferViews":[{"name":"bufferView_0","buffer":0,"byteLength":228,"byteOffset":0,"byteStride":12,"target":34962},{"name":"bufferView_1","buffer":0,"byteLength":152,"byteOffset":228,"byteStride":8,"target":34962},{"name":"bufferView_2","buffer":0,"byteLength":108,"byteOffset":380,"target":34963},{"buffer":0,"byteOffset":488,"byteLength":4114}],"images":[{"name":"donmel_1_0","mimeType":"image/x-tga","bufferView":3}],"materials":[{"name":"mat_0","pbrMetallicRoughness":{"baseColorTexture":{"index":0},"baseColorFactor":[1,1,1,1],"metallicFactor":0,"roughnessFactor":0.903921569},"emissiveFactor":[0,0,0],"alphaMode":"BLEND","doubleSided":true}],"meshes":[{"name":"donmel-Mesh","primitives":[{"attributes":{"POSITION":0,"TEXCOORD_0":1},"indices":2,"material":0,"mode":4}]}],"nodes":[{"name":"donmel","mesh":0}],"samplers":[{"wrapS":10497,"wrapT":10497}],"scene":0,"scenes":[{"nodes":[0]}],"textures":[{"name":"donmel_1_0","sampler":0,"source":0}]}