{"accessors":[{"name":"CameruptF_1_0_positions","componentType":5126,"count":4815,"min":[-37.21040725708008,110.24401092529297,-74.070068359375],"max":[39.50841522216797,179.94398498535156,79.021484375],"type":"VEC3","bufferView":0,"byteOffset":0},{"name":"CameruptF_1_0_normals","componentType":5126,"count":4815,"min":[-0.981677234172821,-0.9763821363449097,-0.9742011427879333],"max":[0.9709621071815491,0.9928218722343445,0.9995449185371399],"type":"VEC3","bufferView":1,"byteOffset":0},{"name":"CameruptF_1_0_texcoords","componentType":5126,"count":4815,"min":[0.006120000034570694,-0.9928500056266785],"max":[0.9919300079345703,-0.00749000022187829],"type":"VEC2","bufferView":2,"byteOffset":0},{"name":"CameruptF_1_0_indices","componentType":5123,"count":4815,"min":[0],"max":[4814],"type":"SCALAR","bufferView":3,"byteOffset":0},{"name":"CameruptF_1_1_positions","componentType":5126,"count":14556,"min":[-62.10280990600586,-0.0002209999947808683,-136.99099731445312],"max":[62.10276412963867,145.23696899414062,150.04095458984375],"type":"VEC3","bufferView":0,"byteOffset":57780},{"name":"CameruptF_1_1_normals","componentType":5126,"count":14556,"min":[-0.9889804720878601,-0.998785674571991,-0.999099850654602],"max":[0.9989500641822815,0.9940246939659119,0.9944255948066711],"type":"VEC3","bufferView":1,"byteOffset":57780},{"name":"CameruptF_1_1_texcoords","componentType":5126,"count":14556,"min":[0.005859000142663717,0.0078119998797774315],"max":[0.9941409826278687,0.9927769899368286],"type":"VEC2","bufferView":2,"byteOffset":38520},{"name":"CameruptF_1_1_indices","componentType":5123,"count":14556,"min":[0],"max":[14555],"type":"SCALAR","bufferView":3,"byteOffset":9632},{"name":"CameruptF_1_2_positions","componentType":5126,"count":828,"min":[-30.467220306396484,55.52006530761719,103.63998413085938],"max":[30.4671630859375,97.89356231689453,140.62399291992188],"type":"VEC3","bufferView":0,"byteOffset":232452},{"name":"CameruptF_1_2_normals","componentType":5126,"count":828,"min":[-0.9889804720878601,-0.9675427675247192,-0.972532331943512],"max":[0.9600218534469604,0.9804167747497559,0.9962329864501953],"type":"VEC3","bufferView":1,"byteOffset":232452},{"name":"CameruptF_1_2_texcoords","componentType":5126,"count":828,"min":[0.008221999742090702,-1.9869400262832642],"max":[0.49178001284599304,-1.7630599737167358],"type":"VEC2","bufferView":2,"byteOffset":154968},{"name":"CameruptF_1_2_indices","componentType":5123,"count":828,"min":[0],"max":[827],"type":"SCALAR","bufferView":3,"byteOffset":38744}],"asset":{"generator":"obj2gltf","version":"2.0"},"buffers":[{"name":"XY_CameruptF","byteLength":865144,"uri":"data:application/octet-stream;base64,"}],"bufferViews":[{"name":"bufferView_0","buffer":0,"byteLength":242388,"byteOffset":0,"byteStride":12,"target":34962},{"name":"bufferView_1","buffer":0,"byteLength":242388,"byteOffset":242388,"byteStride":12,"target":34962},{"name":"bufferView_2","buffer":0,"byteLength":161592,"byteOffset":484776,"byteStride":8,"target":34962},{"name":"bufferView_3","buffer":0,"byteLength":40400,"byteOffset":646368,"target":34963},{"buffer":0,"byteOffset":686768,"byteLength":71142},{"buffer":0,"byteOffset":757910,"byteLength":63555},{"buffer":0,"byteOffset":821465,"byteLength":43676}],"images":[{"name":"pm0323_00_BodyB1","mimeType":"image/png","bufferView":4},{"name":"pm0323_00_BodyA1","mimeType":"image/png","bufferView":5},{"name":"pm0323_00_Eye1","mimeType":"image/png","bufferView":6}],"materials":[{"name":"Material__10","pbrMetallicRoughness":{"baseColorTexture":{"index":0},"baseColorFactor":[1,1,1,1],"metallicFactor":0,"roughnessFactor":0.998},"emissiveFactor":[0,0,0],"alphaMode":"OPAQUE","doubleSided":false},{"name":"Material__11","pbrMetallicRoughness":{"baseColorTexture":{"index":1},"baseColorFactor":[1,1,1,1],"metallicFactor":0,"roughnessFactor":0.998},"emissiveFactor":[0,0,0],"alphaMode":"OPAQUE","doubleSided":false},{"name":"Material__12","pbrMetallicRoughness":{"baseColorTexture":{"index":2},"baseColorFactor":[1,1,1,1],"metallicFactor":0,"roughnessFactor":0.998},"emissiveFactor":[0,0,0],"alphaMode":"OPAQUE","doubleSided":false}],"meshes":[{"name":"CameruptF_1","primitives":[{"attributes":{"POSITION":0,"NORMAL":1,"TEXCOORD_0":2},"indices":3,"material":0,"mode":4},{"attributes":{"POSITION":4,"NORMAL":5,"TEXCOORD_0":6},"indices":7,"material":1,"mode":4},{"attributes":{"POSITION":8,"NORMAL":9,"TEXCOORD_0":10},"indices":11,"material":2,"mode":4}]}],"nodes":[{"name":"CameruptF","mesh":0}],"samplers":[{"wrapS":10497,"wrapT":10497}],"scene":0,"scenes":[{"nodes":[0]}],"textures":[{"name":"pm0323_00_BodyB1","sampler":0,"source":0},{"name":"pm0323_00_BodyA1","sampler":0,"source":1},{"name":"pm0323_00_Eye1","sampler":0,"source":2}]}