{"accessors":[{"name":"polygon0_1_0_positions","componentType":5126,"count":42,"min":[-2.8013699054718018,6.045441150665283,10.43250846862793],"max":[2.8013699054718018,9.55534839630127,13.717182159423828],"type":"VEC3","bufferView":0,"byteOffset":0},{"name":"polygon0_1_0_normals","componentType":5126,"count":42,"min":[-0.9940422177314758,-0.08807199448347092,0.0892929881811142],"max":[0.9944928884506226,0.34613507986068726,0.8293347358703613],"type":"VEC3","bufferView":1,"byteOffset":0},{"name":"polygon0_1_0_texcoords","componentType":5126,"count":42,"min":[-0.0008539999835193157,0.0014949999749660492],"max":[0.4886780083179474,0.23849500715732574],"type":"VEC2","bufferView":2,"byteOffset":0},{"name":"polygon0_1_0_indices","componentType":5123,"count":174,"min":[0],"max":[41],"type":"SCALAR","bufferView":3,"byteOffset":0},{"name":"polygon1_1_0_positions","componentType":5126,"count":1482,"min":[-5.985136985778809,-0.011442000046372414,-12.914173126220703],"max":[5.985136985778809,17.959381103515625,14.630122184753418],"type":"VEC3","bufferView":0,"byteOffset":504},{"name":"polygon1_1_0_normals","componentType":5126,"count":1482,"min":[-0.9984991550445557,-1,-0.9989797472953796],"max":[0.9993457198143005,0.9999988079071045,0.9999988079071045],"type":"VEC3","bufferView":1,"byteOffset":504},{"name":"polygon1_1_0_texcoords","componentType":5126,"count":1482,"min":[-2.771972894668579,-0.4348140060901642],"max":[0.9935299754142761,1.8258060216903687],"type":"VEC2","bufferView":2,"byteOffset":336},{"name":"polygon1_1_0_indices","componentType":5123,"count":5244,"min":[0],"max":[1481],"type":"SCALAR","bufferView":3,"byteOffset":348}],"asset":{"generator":"obj2gltf","version":"2.0"},"buffers":[{"name":"Camerupt","byteLength":354552,"uri":"data:application/octet-stream;base64,"}],"bufferViews":[{"name":"bufferView_0","buffer":0,"byteLength":18288,"byteOffset":0,"byteStride":12,"target":34962},{"name":"bufferView_1","buffer":0,"byteLength":18288,"byteOffset":18288,"byteStride":12,"target":34962},{"name":"bufferView_2","buffer":0,"byteLength":12192,"byteOffset":36576,"byteStride":8,"target":34962},{"name":"bufferView_3","buffer":0,"byteLength":10836,"byteOffset":48768,"target":34963},{"buffer":0,"byteOffset":59604,"byteLength":98322},{"buffer":0,"byteOffset":157926,"byteLength":196626}],"images":[{"name":"BakuudaEyeDh","mimeType":"image/x-tga","bufferView":4},{"name":"BakuudaDh","mimeType":"image/x-tga","bufferView":5}],"materials":[{"name":"mat2","pbrMetallicRoughness":{"baseColorTexture":{"index":0},"baseColorFactor":[1,1,1,1],"metallicFactor":0,"roughnessFactor":0.99},"emissiveFactor":[0,0,0],"alphaMode":"OPAQUE","doubleSided":false},{"name":"mat1","pbrMetallicRoughness":{"baseColorTexture":{"index":1},"baseColorFactor":[1,1,1,1],"metallicFactor":0,"roughnessFactor":0.99},"emissiveFactor":[0,0,0],"alphaMode":"OPAQUE","doubleSided":false}],"meshes":[{"name":"polygon0_1","primitives":[{"attributes":{"POSITION":0,"NORMAL":1,"TEXCOORD_0":2},"indices":3,"material":0,"mode":4}]},{"name":"polygon1_1","primitives":[{"attributes":{"POSITION":4,"NORMAL":5,"TEXCOORD_0":6},"indices":7,"material":1,"mode":4}]}],"nodes":[{"name":"polygon0","mesh":0},{"name":"polygon1","mesh":1}],"samplers":[{"wrapS":10497,"wrapT":10497}],"scene":0,"scenes":[{"nodes":[0,1]}],"textures":[{"name":"BakuudaEyeDh","sampler":0,"source":0},{"name":"BakuudaDh","sampler":0,"source":1}]}