{"accessors":[{"name":"polygon0_1_0_positions","componentType":5126,"count":36,"min":[-0.266198992729187,1.7017110586166382,-0.06749600172042847],"max":[0.2662000060081482,4.355906009674072,6.597487926483154],"type":"VEC3","bufferView":0,"byteOffset":0},{"name":"polygon0_1_0_normals","componentType":5126,"count":36,"min":[-0.8793215155601501,-0.4606872498989105,-0.8875004649162292],"max":[0.8793215155601501,0.7389622330665588,0.5662801861763],"type":"VEC3","bufferView":1,"byteOffset":0},{"name":"polygon0_1_0_texcoords","componentType":5126,"count":36,"min":[0.054687999188899994,0.006653000134974718],"max":[1.9609990119934082,0.9888610243797302],"type":"VEC2","bufferView":2,"byteOffset":0},{"name":"polygon0_1_0_indices","componentType":5123,"count":54,"min":[0],"max":[35],"type":"SCALAR","bufferView":3,"byteOffset":0},{"name":"polygon1_1_0_positions","componentType":5126,"count":1035,"min":[-3.118243932723999,-0.000014000000192027073,-4.421306133270264],"max":[3.1182448863983154,4.619781017303467,6.755703926086426],"type":"VEC3","bufferView":0,"byteOffset":432},{"name":"polygon1_1_0_normals","componentType":5126,"count":1035,"min":[-0.9995244145393372,-1,-0.9995453357696533],"max":[0.999524712562561,0.9999880790710449,0.9997501969337463],"type":"VEC3","bufferView":1,"byteOffset":432},{"name":"polygon1_1_0_texcoords","componentType":5126,"count":1035,"min":[0.012145999819040298,0.0013429999817162752],"max":[0.9958189725875854,0.9981989860534668],"type":"VEC2","bufferView":2,"byteOffset":288},{"name":"polygon1_1_0_indices","componentType":5123,"count":4512,"min":[0],"max":[1034],"type":"SCALAR","bufferView":3,"byteOffset":108},{"name":"polygon2_1_0_positions","componentType":5126,"count":34,"min":[-0.8730390071868896,1.804103970527649,5.409257888793945],"max":[0.8730390071868896,2.7579190731048584,6.30344820022583],"type":"VEC3","bufferView":0,"byteOffset":12852},{"name":"polygon2_1_0_normals","componentType":5126,"count":34,"min":[-0.9959094524383545,-0.43390795588493347,-0.194611057639122],"max":[0.9959094524383545,0.5747660398483276,0.5695439577102661],"type":"VEC3","bufferView":1,"byteOffset":12852},{"name":"polygon2_1_0_texcoords","componentType":5126,"count":34,"min":[0.03125,0.0078119998797774315],"max":[0.4570310115814209,0.234375],"type":"VEC2","bufferView":2,"byteOffset":8568},{"name":"polygon2_1_0_indices","componentType":5123,"count":126,"min":[0],"max":[33],"type":"SCALAR","bufferView":3,"byteOffset":9132}],"asset":{"generator":"obj2gltf","version":"2.0"},"buffers":[{"name":"Torkoal","byteLength":343808,"uri":"data:application/octet-stream;base64,"}],"bufferViews":[{"name":"bufferView_0","buffer":0,"byteLength":13260,"byteOffset":0,"byteStride":12,"target":34962},{"name":"bufferView_1","buffer":0,"byteLength":13260,"byteOffset":13260,"byteStride":12,"target":34962},{"name":"bufferView_2","buffer":0,"byteLength":8840,"byteOffset":26520,"byteStride":8,"target":34962},{"name":"bufferView_3","buffer":0,"byteLength":9384,"byteOffset":35360,"target":34963},{"buffer":0,"byteOffset":44744,"byteLength":4114},{"buffer":0,"byteOffset":48858,"byteLength":196626},{"buffer":0,"byteOffset":245484,"byteLength":98322}],"images":[{"name":"CotoiseSmoke","mimeType":"image/x-tga","bufferView":4},{"name":"CotoiseDh","mimeType":"image/x-tga","bufferView":5},{"name":"CotoiseEyeDh","mimeType":"image/x-tga","bufferView":6}],"materials":[{"name":"mat3","pbrMetallicRoughness":{"baseColorTexture":{"index":0},"baseColorFactor":[1,1,1,1],"metallicFactor":0,"roughnessFactor":0.99},"emissiveFactor":[0,0,0],"alphaMode":"OPAQUE","doubleSided":false},{"name":"mat1","pbrMetallicRoughness":{"baseColorTexture":{"index":1},"baseColorFactor":[1,1,1,1],"metallicFactor":0,"roughnessFactor":0.99},"emissiveFactor":[0,0,0],"alphaMode":"OPAQUE","doubleSided":false},{"name":"mat2","pbrMetallicRoughness":{"baseColorTexture":{"index":2},"baseColorFactor":[1,1,1,1],"metallicFactor":0,"roughnessFactor":0.99},"emissiveFactor":[0,0,0],"alphaMode":"OPAQUE","doubleSided":false}],"meshes":[{"name":"polygon0_1","primitives":[{"attributes":{"POSITION":0,"NORMAL":1,"TEXCOORD_0":2},"indices":3,"material":0,"mode":4}]},{"name":"polygon1_1","primitives":[{"attributes":{"POSITION":4,"NORMAL":5,"TEXCOORD_0":6},"indices":7,"material":1,"mode":4}]},{"name":"polygon2_1","primitives":[{"attributes":{"POSITION":8,"NORMAL":9,"TEXCOORD_0":10},"indices":11,"material":2,"mode":4}]}],"nodes":[{"name":"polygon0","mesh":0},{"name":"polygon1","mesh":1},{"name":"polygon2","mesh":2}],"samplers":[{"wrapS":10497,"wrapT":10497}],"scene":0,"scenes":[{"nodes":[0,1,2]}],"textures":[{"name":"CotoiseSmoke","sampler":0,"source":0},{"name":"CotoiseDh","sampler":0,"source":1},{"name":"CotoiseEyeDh","sampler":0,"source":2}]}