{"accessors":[{"name":"baneboo-Mesh_0_positions","componentType":5126,"count":394,"min":[-1.8533999919891357,-1.260599970817566,-5.367646217346191],"max":[1.8533999919891357,1.5707999467849731,0.002051000017672777],"type":"VEC3","bufferView":0,"byteOffset":0},{"name":"baneboo-Mesh_0_texcoords","componentType":5126,"count":394,"min":[0,0],"max":[0.9170250296592712,1],"type":"VEC2","bufferView":1,"byteOffset":0},{"name":"baneboo-Mesh_0_indices","componentType":5123,"count":1908,"min":[0],"max":[393],"type":"SCALAR","bufferView":2,"byteOffset":0},{"name":"baneboo-Mesh_1_positions","componentType":5126,"count":12,"min":[-0.4918450117111206,1.3843799829483032,-4.1649861335754395],"max":[0.4918450117111206,1.5707999467849731,-3.6646459102630615],"type":"VEC3","bufferView":0,"byteOffset":4728},{"name":"baneboo-Mesh_1_texcoords","componentType":5126,"count":12,"min":[-0.32145199179649353,-0.3406200110912323],"max":[0.9839699864387512,1.0390629768371582],"type":"VEC2","bufferView":1,"byteOffset":3152},{"name":"baneboo-Mesh_1_indices","componentType":5123,"count":24,"min":[0],"max":[11],"type":"SCALAR","bufferView":2,"byteOffset":3816},{"name":"baneboo-Mesh_2_positions","componentType":5126,"count":12,"min":[-1.1412400007247925,0.5258820056915283,-4.3934760093688965],"max":[1.1412400007247925,1.1813100576400757,-3.8904759883880615],"type":"VEC3","bufferView":0,"byteOffset":4872},{"name":"baneboo-Mesh_2_texcoords","componentType":5126,"count":12,"min":[-0.19295500218868256,-0.4099299907684326],"max":[1.4242099523544312,1.2966020107269287],"type":"VEC2","bufferView":1,"byteOffset":3248},{"name":"baneboo-Mesh_2_indices","componentType":5123,"count":24,"min":[0],"max":[11],"type":"SCALAR","bufferView":2,"byteOffset":3864},{"name":"baneboo-Mesh_3_positions","componentType":5126,"count":10,"min":[-0.7342910170555115,0.7957770228385925,-4.683536052703857],"max":[0.7342910170555115,1.2019000053405762,-4.085336208343506],"type":"VEC3","bufferView":0,"byteOffset":5016},{"name":"baneboo-Mesh_3_texcoords","componentType":5126,"count":10,"min":[-0.32886800169944763,-0.06125999987125397],"max":[1.2395700216293335,0.13059799373149872],"type":"VEC2","bufferView":1,"byteOffset":3344},{"name":"baneboo-Mesh_3_indices","componentType":5123,"count":18,"min":[0],"max":[9],"type":"SCALAR","bufferView":2,"byteOffset":3912}],"asset":{"generator":"obj2gltf","version":"2.0"},"buffers":[{"name":"BR_Spoink-Shiny01","byteLength":59748,"uri":"data:application/octet-stream;base64,"}],"bufferViews":[{"name":"bufferView_0","buffer":0,"byteLength":5136,"byteOffset":0,"byteStride":12,"target":34962},{"name":"bufferView_1","buffer":0,"byteLength":3424,"byteOffset":5136,"byteStride":8,"target":34962},{"name":"bufferView_2","buffer":0,"byteLength":3948,"byteOffset":8560,"target":34963},{"buffer":0,"byteOffset":12508,"byteLength":82},{"buffer":0,"byteOffset":12590,"byteLength":2066},{"buffer":0,"byteOffset":14656,"byteLength":2066},{"buffer":0,"byteOffset":16722,"byteLength":43026}],"images":[{"name":"baneboo_1_0","mimeType":"image/x-tga","bufferView":3},{"name":"baneboo_1_1","mimeType":"image/x-tga","bufferView":4},{"name":"baneboo_1_2","mimeType":"image/x-tga","bufferView":5},{"name":"baneboo_1_3","mimeType":"image/x-tga","bufferView":6}],"materials":[{"name":"mat_0","pbrMetallicRoughness":{"baseColorTexture":{"index":0},"baseColorFactor":[1,1,1,1],"metallicFactor":0,"roughnessFactor":0.903921569},"emissiveFactor":[0,0,0],"alphaMode":"BLEND","doubleSided":true},{"name":"mat_1","pbrMetallicRoughness":{"baseColorTexture":{"index":1},"baseColorFactor":[1,1,1,1],"metallicFactor":0,"roughnessFactor":0.903921569},"emissiveFactor":[0,0,0],"alphaMode":"BLEND","doubleSided":true},{"name":"mat_2","pbrMetallicRoughness":{"baseColorTexture":{"index":2},"baseColorFactor":[1,1,1,1],"metallicFactor":0,"roughnessFactor":0.903921569},"emissiveFactor":[0,0,0],"alphaMode":"BLEND","doubleSided":true},{"name":"mat_3","pbrMetallicRoughness":{"baseColorTexture":{"index":3},"baseColorFactor":[1,1,1,1],"metallicFactor":0,"roughnessFactor":0.903921569},"emissiveFactor":[0,0,0],"alphaMode":"BLEND","doubleSided":true}],"meshes":[{"name":"baneboo-Mesh","primitives":[{"attributes":{"POSITION":0,"TEXCOORD_0":1},"indices":2,"material":0,"mode":4},{"attributes":{"POSITION":3,"TEXCOORD_0":4},"indices":5,"material":1,"mode":4},{"attributes":{"POSITION":6,"TEXCOORD_0":7},"indices":8,"material":2,"mode":4},{"attributes":{"POSITION":9,"TEXCOORD_0":10},"indices":11,"material":3,"mode":4}]}],"nodes":[{"name":"baneboo","mesh":0}],"samplers":[{"wrapS":10497,"wrapT":10497}],"scene":0,"scenes":[{"nodes":[0]}],"textures":[{"name":"baneboo_1_0","sampler":0,"source":0},{"name":"baneboo_1_1","sampler":0,"source":1},{"name":"baneboo_1_2","sampler":0,"source":2},{"name":"baneboo_1_3","sampler":0,"source":3}]}