{"accessors":[{"name":"boopig-Mesh_0_positions","componentType":5126,"count":36,"min":[-4.618928909301758,-0.4117029905319214,-4.999989986419678],"max":[3.5355300903320312,4.855346202850342,5.000011920928955],"type":"VEC3","bufferView":0,"byteOffset":0},{"name":"boopig-Mesh_0_texcoords","componentType":5126,"count":36,"min":[-0.43852099776268005,-0.43767601251602173],"max":[1.6552159786224365,-0.31803399324417114],"type":"VEC2","bufferView":1,"byteOffset":0},{"name":"boopig-Mesh_0_indices","componentType":5123,"count":120,"min":[0],"max":[35],"type":"SCALAR","bufferView":2,"byteOffset":0}],"asset":{"generator":"obj2gltf","version":"2.0"},"buffers":[{"name":"BR_Grumpig-Shiny01","byteLength":2004,"uri":"data:application/octet-stream;base64,"}],"bufferViews":[{"name":"bufferView_0","buffer":0,"byteLength":432,"byteOffset":0,"byteStride":12,"target":34962},{"name":"bufferView_1","buffer":0,"byteLength":288,"byteOffset":432,"byteStride":8,"target":34962},{"name":"bufferView_2","buffer":0,"byteLength":240,"byteOffset":720,"target":34963},{"buffer":0,"byteOffset":960,"byteLength":1042}],"images":[{"name":"boopig_1_0","mimeType":"image/x-tga","bufferView":3}],"materials":[{"name":"mat_0","pbrMetallicRoughness":{"baseColorTexture":{"index":0},"baseColorFactor":[1,1,1,1],"metallicFactor":0,"roughnessFactor":0.903921569},"emissiveFactor":[0,0,0],"alphaMode":"BLEND","doubleSided":true}],"meshes":[{"name":"boopig-Mesh","primitives":[{"attributes":{"POSITION":0,"TEXCOORD_0":1},"indices":2,"material":0,"mode":4}]}],"nodes":[{"name":"boopig","mesh":0}],"samplers":[{"wrapS":10497,"wrapT":10497}],"scene":0,"scenes":[{"nodes":[0]}],"textures":[{"name":"boopig_1_0","sampler":0,"source":0}]}