{"accessors":[{"name":"patcheel-Mesh_0_positions","componentType":5126,"count":118,"min":[-2.0634899139404297,-1.6072499752044678,-4.438350200653076],"max":[2.063469886779785,1.6822400093078613,-0.7214570045471191],"type":"VEC3","bufferView":0,"byteOffset":0},{"name":"patcheel-Mesh_0_texcoords","componentType":5126,"count":118,"min":[0,-0.14063000679016113],"max":[1.0647000074386597,1.0226130485534668],"type":"VEC2","bufferView":1,"byteOffset":0},{"name":"patcheel-Mesh_0_indices","componentType":5123,"count":504,"min":[0],"max":[117],"type":"SCALAR","bufferView":2,"byteOffset":0},{"name":"patcheel-Mesh_1_positions","componentType":5126,"count":54,"min":[-3.6093199253082275,-1.0057400465011597,-4.500659942626953],"max":[3.609299898147583,0.42386001348495483,-2.9391698837280273],"type":"VEC3","bufferView":0,"byteOffset":1416},{"name":"patcheel-Mesh_1_texcoords","componentType":5126,"count":54,"min":[0.5449219942092896,0.5],"max":[0.7519530057907104,0.6113280057907104],"type":"VEC2","bufferView":1,"byteOffset":944},{"name":"patcheel-Mesh_1_indices","componentType":5123,"count":198,"min":[0],"max":[53],"type":"SCALAR","bufferView":2,"byteOffset":1008},{"name":"patcheel-Mesh_2_positions","componentType":5126,"count":48,"min":[-1.8157600164413452,-0.9803850054740906,-0.9029039740562439],"max":[1.8157399892807007,0.9711189866065979,-0.016724999994039536],"type":"VEC3","bufferView":0,"byteOffset":2064},{"name":"patcheel-Mesh_2_texcoords","componentType":5126,"count":48,"min":[0.19136899709701538,0.8811770081520081],"max":[0.7819120287895203,1.0437500476837158],"type":"VEC2","bufferView":1,"byteOffset":1376},{"name":"patcheel-Mesh_2_indices","componentType":5123,"count":192,"min":[0],"max":[47],"type":"SCALAR","bufferView":2,"byteOffset":1404},{"name":"patcheel-Mesh_3_positions","componentType":5126,"count":14,"min":[-1.6375099420547485,-0.8111079931259155,-0.016724999994039536],"max":[1.5981500148773193,0.7641159892082214,-0.016724999994039536],"type":"VEC3","bufferView":0,"byteOffset":2640},{"name":"patcheel-Mesh_3_texcoords","componentType":5126,"count":14,"min":[-0.17800000309944153,-0.3540000021457672],"max":[1.1749999523162842,1.25],"type":"VEC2","bufferView":1,"byteOffset":1760},{"name":"patcheel-Mesh_3_indices","componentType":5123,"count":30,"min":[0],"max":[13],"type":"SCALAR","bufferView":2,"byteOffset":1788},{"name":"patcheel-Mesh_4_positions","componentType":5126,"count":16,"min":[-0.9042549729347229,-2.7135000228881836,-2.3059499263763428],"max":[0.9042549729347229,-1.849020004272461,-0.8644310235977173],"type":"VEC3","bufferView":0,"byteOffset":2808},{"name":"patcheel-Mesh_4_texcoords","componentType":5126,"count":16,"min":[-0.06982400268316269,-0.02071000076830387],"max":[1.1167000532150269,1.006376028060913],"type":"VEC2","bufferView":1,"byteOffset":1872},{"name":"patcheel-Mesh_4_indices","componentType":5123,"count":72,"min":[0],"max":[15],"type":"SCALAR","bufferView":2,"byteOffset":1848},{"name":"patcheel-Mesh_5_positions","componentType":5126,"count":16,"min":[-0.9042549729347229,-2.1031999588012695,-2.3059499263763428],"max":[0.9042549729347229,-1.2387299537658691,-0.8644310235977173],"type":"VEC3","bufferView":0,"byteOffset":3000},{"name":"patcheel-Mesh_5_texcoords","componentType":5126,"count":16,"min":[-0.1289059966802597,-0.08594000339508057],"max":[1.128909945487976,0.9770510196685791],"type":"VEC2","bufferView":1,"byteOffset":2000},{"name":"patcheel-Mesh_5_indices","componentType":5123,"count":72,"min":[0],"max":[15],"type":"SCALAR","bufferView":2,"byteOffset":1992}],"asset":{"generator":"obj2gltf","version":"2.0"},"buffers":[{"name":"BR_Spinda-Shiny01","byteLength":192908,"uri":"data:application/octet-stream;base64,"}],"bufferViews":[{"name":"bufferView_0","buffer":0,"byteLength":3192,"byteOffset":0,"byteStride":12,"target":34962},{"name":"bufferView_1","buffer":0,"byteLength":2128,"byteOffset":3192,"byteStride":8,"target":34962},{"name":"bufferView_2","buffer":0,"byteLength":2136,"byteOffset":5320,"target":34963},{"buffer":0,"byteOffset":7456,"byteLength":65554},{"buffer":0,"byteOffset":73010,"byteLength":32786},{"buffer":0,"byteOffset":105796,"byteLength":1042},{"buffer":0,"byteOffset":106838,"byteLength":4114},{"buffer":0,"byteOffset":110952,"byteLength":65554},{"buffer":0,"byteOffset":176506,"byteLength":16402}],"images":[{"name":"patcheel_3_0","mimeType":"image/x-tga","bufferView":3},{"name":"patcheel_3_1","mimeType":"image/x-tga","bufferView":4},{"name":"patcheel_3_2","mimeType":"image/x-tga","bufferView":5},{"name":"patcheel_3_3","mimeType":"image/x-tga","bufferView":6},{"name":"patcheel_3_4","mimeType":"image/x-tga","bufferView":7},{"name":"patcheel_3_5","mimeType":"image/x-tga","bufferView":8}],"materials":[{"name":"mat_0","pbrMetallicRoughness":{"baseColorTexture":{"index":0},"baseColorFactor":[1,1,1,1],"metallicFactor":0,"roughnessFactor":0.903921569},"emissiveFactor":[0,0,0],"alphaMode":"BLEND","doubleSided":true},{"name":"mat_1","pbrMetallicRoughness":{"baseColorTexture":{"index":1},"baseColorFactor":[1,1,1,1],"metallicFactor":0,"roughnessFactor":0.903921569},"emissiveFactor":[0,0,0],"alphaMode":"BLEND","doubleSided":true},{"name":"mat_2","pbrMetallicRoughness":{"baseColorTexture":{"index":2},"baseColorFactor":[1,1,1,1],"metallicFactor":0,"roughnessFactor":0.903921569},"emissiveFactor":[0,0,0],"alphaMode":"BLEND","doubleSided":true},{"name":"mat_3","pbrMetallicRoughness":{"baseColorTexture":{"index":3},"baseColorFactor":[1,1,1,1],"metallicFactor":0,"roughnessFactor":0.903921569},"emissiveFactor":[0,0,0],"alphaMode":"BLEND","doubleSided":true},{"name":"mat_4","pbrMetallicRoughness":{"baseColorTexture":{"index":4},"baseColorFactor":[1,1,1,1],"metallicFactor":0,"roughnessFactor":0.903921569},"emissiveFactor":[0,0,0],"alphaMode":"BLEND","doubleSided":true},{"name":"mat_5","pbrMetallicRoughness":{"baseColorTexture":{"index":5},"baseColorFactor":[1,1,1,1],"metallicFactor":0,"roughnessFactor":0.903921569},"emissiveFactor":[0,0,0],"alphaMode":"BLEND","doubleSided":true}],"meshes":[{"name":"patcheel-Mesh","primitives":[{"attributes":{"POSITION":0,"TEXCOORD_0":1},"indices":2,"material":0,"mode":4},{"attributes":{"POSITION":3,"TEXCOORD_0":4},"indices":5,"material":1,"mode":4},{"attributes":{"POSITION":6,"TEXCOORD_0":7},"indices":8,"material":2,"mode":4},{"attributes":{"POSITION":9,"TEXCOORD_0":10},"indices":11,"material":3,"mode":4},{"attributes":{"POSITION":12,"TEXCOORD_0":13},"indices":14,"material":4,"mode":4},{"attributes":{"POSITION":15,"TEXCOORD_0":16},"indices":17,"material":5,"mode":4}]}],"nodes":[{"name":"patcheel","mesh":0}],"samplers":[{"wrapS":10497,"wrapT":10497}],"scene":0,"scenes":[{"nodes":[0]}],"textures":[{"name":"patcheel_3_0","sampler":0,"source":0},{"name":"patcheel_3_1","sampler":0,"source":1},{"name":"patcheel_3_2","sampler":0,"source":2},{"name":"patcheel_3_3","sampler":0,"source":3},{"name":"patcheel_3_4","sampler":0,"source":4},{"name":"patcheel_3_5","sampler":0,"source":5}]}