{"accessors":[{"name":"nuckrar_c-Mesh_0_positions","componentType":5126,"count":129,"min":[-2.746659994125366,1.533310055732727,-7.016670227050781],"max":[2.746659994125366,8.151309967041016,-1.542930006980896],"type":"VEC3","bufferView":0,"byteOffset":0},{"name":"nuckrar_c-Mesh_0_texcoords","componentType":5126,"count":129,"min":[0,-0.8105199933052063],"max":[2.386280059814453,1.1024060249328613],"type":"VEC2","bufferView":1,"byteOffset":0},{"name":"nuckrar_c-Mesh_0_indices","componentType":5123,"count":576,"min":[0],"max":[128],"type":"SCALAR","bufferView":2,"byteOffset":0},{"name":"nuckrar_c-Mesh_1_positions","componentType":5126,"count":64,"min":[-2.746659994125366,2.522200107574463,-5.685929775238037],"max":[2.746659994125366,8.151309967041016,-2.772160053253174],"type":"VEC3","bufferView":0,"byteOffset":1548},{"name":"nuckrar_c-Mesh_1_texcoords","componentType":5126,"count":64,"min":[0,0.2392529994249344],"max":[1,0.7631180286407471],"type":"VEC2","bufferView":1,"byteOffset":1032},{"name":"nuckrar_c-Mesh_1_indices","componentType":5123,"count":270,"min":[0],"max":[63],"type":"SCALAR","bufferView":2,"byteOffset":1152},{"name":"nuckrar_c-Mesh_2_positions","componentType":5126,"count":128,"min":[-2.628740072250366,-1.4739500284194946,-2.303070068359375],"max":[2.628740072250366,1.521239995956421,0.020980000495910645],"type":"VEC3","bufferView":0,"byteOffset":2316},{"name":"nuckrar_c-Mesh_2_texcoords","componentType":5126,"count":128,"min":[0.021466000005602837,0.6697689890861511],"max":[0.9785339832305908,1],"type":"VEC2","bufferView":1,"byteOffset":1544},{"name":"nuckrar_c-Mesh_2_indices","componentType":5123,"count":648,"min":[0],"max":[127],"type":"SCALAR","bufferView":2,"byteOffset":1692},{"name":"nuckrar_c-Mesh_3_positions","componentType":5126,"count":26,"min":[-0.9328870177268982,1.3574800491333008,-4.184030055999756],"max":[0.9238700270652771,3.0759799480438232,-2.0439600944519043],"type":"VEC3","bufferView":0,"byteOffset":3852},{"name":"nuckrar_c-Mesh_3_texcoords","componentType":5126,"count":26,"min":[-0.13128900527954102,-0.012500000186264515],"max":[1.1187100410461426,1.1437499523162842],"type":"VEC2","bufferView":1,"byteOffset":2568},{"name":"nuckrar_c-Mesh_3_indices","componentType":5123,"count":78,"min":[0],"max":[25],"type":"SCALAR","bufferView":2,"byteOffset":2988},{"name":"nuckrar_c-Mesh_4_positions","componentType":5126,"count":21,"min":[-1.4101899862289429,-1.574139952659607,-0.8568379878997803],"max":[1.4541599750518799,1.6222599744796753,-0.37803301215171814],"type":"VEC3","bufferView":0,"byteOffset":4164},{"name":"nuckrar_c-Mesh_4_texcoords","componentType":5126,"count":21,"min":[0.13654300570487976,0.87425297498703],"max":[0.8634570240974426,1],"type":"VEC2","bufferView":1,"byteOffset":2776},{"name":"nuckrar_c-Mesh_4_indices","componentType":5123,"count":90,"min":[0],"max":[20],"type":"SCALAR","bufferView":2,"byteOffset":3144},{"name":"nuckrar_c-Mesh_5_positions","componentType":5126,"count":84,"min":[-2.0169899463653564,-2.174139976501465,-4.062079906463623],"max":[2.029370069503784,2.1658899784088135,-0.7755839824676514],"type":"VEC3","bufferView":0,"byteOffset":4416},{"name":"nuckrar_c-Mesh_5_texcoords","componentType":5126,"count":84,"min":[-0.1818840056657791,-0.7355300188064575],"max":[1.1559300422668457,1.230173945426941],"type":"VEC2","bufferView":1,"byteOffset":2944},{"name":"nuckrar_c-Mesh_5_indices","componentType":5123,"count":432,"min":[0],"max":[83],"type":"SCALAR","bufferView":2,"byteOffset":3324}],"asset":{"generator":"obj2gltf","version":"2.0"},"buffers":[{"name":"BR_Trapinch-Shiny01","byteLength":276168,"uri":"data:application/octet-stream;base64,"}],"bufferViews":[{"name":"bufferView_0","buffer":0,"byteLength":5424,"byteOffset":0,"byteStride":12,"target":34962},{"name":"bufferView_1","buffer":0,"byteLength":3616,"byteOffset":5424,"byteStride":8,"target":34962},{"name":"bufferView_2","buffer":0,"byteLength":4188,"byteOffset":9040,"target":34963},{"buffer":0,"byteOffset":13228,"byteLength":82},{"buffer":0,"byteOffset":13310,"byteLength":82},{"buffer":0,"byteOffset":13392,"byteLength":530},{"buffer":0,"byteOffset":13922,"byteLength":82},{"buffer":0,"byteOffset":14004,"byteLength":262162}],"images":[{"name":"nuckrar_c_1_0","mimeType":"image/x-tga","bufferView":3},{"name":"nuckrar_c_1_2","mimeType":"image/x-tga","bufferView":4},{"name":"nuckrar_c_1_5","mimeType":"image/x-tga","bufferView":5},{"name":"nuckrar_c_1_7","mimeType":"image/x-tga","bufferView":6},{"name":"nuckrar_c_1_9","mimeType":"image/x-tga","bufferView":7}],"materials":[{"name":"mat_0","pbrMetallicRoughness":{"baseColorTexture":{"index":0},"baseColorFactor":[1,1,1,1],"metallicFactor":0,"roughnessFactor":0.903921569},"emissiveFactor":[0,0,0],"alphaMode":"BLEND","doubleSided":true},{"name":"mat_1","pbrMetallicRoughness":{"baseColorTexture":{"index":1},"baseColorFactor":[1,1,1,1],"metallicFactor":0,"roughnessFactor":0.903921569},"emissiveFactor":[0,0,0],"alphaMode":"BLEND","doubleSided":true},{"name":"mat_2","pbrMetallicRoughness":{"baseColorTexture":{"index":0},"baseColorFactor":[1,1,1,1],"metallicFactor":0,"roughnessFactor":0.903921569},"emissiveFactor":[0,0,0],"alphaMode":"BLEND","doubleSided":true},{"name":"mat_3","pbrMetallicRoughness":{"baseColorTexture":{"index":2},"baseColorFactor":[1,1,1,1],"metallicFactor":0,"roughnessFactor":0.903921569},"emissiveFactor":[0,0,0],"alphaMode":"BLEND","doubleSided":true},{"name":"mat_4","pbrMetallicRoughness":{"baseColorTexture":{"index":3},"baseColorFactor":[1,1,1,1],"metallicFactor":0,"roughnessFactor":0.903921569},"emissiveFactor":[0,0,0],"alphaMode":"BLEND","doubleSided":true},{"name":"mat_5","pbrMetallicRoughness":{"baseColorTexture":{"index":4},"baseColorFactor":[1,1,1,1],"metallicFactor":0,"roughnessFactor":0.903921569},"emissiveFactor":[0,0,0],"alphaMode":"BLEND","doubleSided":true}],"meshes":[{"name":"nuckrar_c-Mesh","primitives":[{"attributes":{"POSITION":0,"TEXCOORD_0":1},"indices":2,"material":0,"mode":4},{"attributes":{"POSITION":3,"TEXCOORD_0":4},"indices":5,"material":1,"mode":4},{"attributes":{"POSITION":6,"TEXCOORD_0":7},"indices":8,"material":2,"mode":4},{"attributes":{"POSITION":9,"TEXCOORD_0":10},"indices":11,"material":3,"mode":4},{"attributes":{"POSITION":12,"TEXCOORD_0":13},"indices":14,"material":4,"mode":4},{"attributes":{"POSITION":15,"TEXCOORD_0":16},"indices":17,"material":5,"mode":4}]}],"nodes":[{"name":"nuckrar_c","mesh":0}],"samplers":[{"wrapS":10497,"wrapT":10497}],"scene":0,"scenes":[{"nodes":[0]}],"textures":[{"name":"nuckrar_c_1_0","sampler":0,"source":0},{"name":"nuckrar_c_1_2","sampler":0,"source":1},{"name":"nuckrar_c_1_5","sampler":0,"source":2},{"name":"nuckrar_c_1_7","sampler":0,"source":3},{"name":"nuckrar_c_1_9","sampler":0,"source":4}]}