{"accessors":[{"name":"vibrava-Mesh_0_positions","componentType":5126,"count":101,"min":[-3.257740020751953,-2.286979913711548,-1.5735700130462646],"max":[3.257740020751953,-0.7417730093002319,-0.05017499998211861],"type":"VEC3","bufferView":0,"byteOffset":0},{"name":"vibrava-Mesh_0_texcoords","componentType":5126,"count":101,"min":[0,0],"max":[1,1],"type":"VEC2","bufferView":1,"byteOffset":0},{"name":"vibrava-Mesh_0_indices","componentType":5123,"count":504,"min":[0],"max":[100],"type":"SCALAR","bufferView":2,"byteOffset":0},{"name":"vibrava-Mesh_1_positions","componentType":5126,"count":4,"min":[-0.5314520001411438,0.1781339943408966,-0.34819599986076355],"max":[0.5209439992904663,0.2474769949913025,-0.22539499402046204],"type":"VEC3","bufferView":0,"byteOffset":1212},{"name":"vibrava-Mesh_1_texcoords","componentType":5126,"count":4,"min":[0.01720299944281578,0.11142099648714066],"max":[0.5,1.235321044921875],"type":"VEC2","bufferView":1,"byteOffset":808},{"name":"vibrava-Mesh_1_indices","componentType":5123,"count":6,"min":[0],"max":[3],"type":"SCALAR","bufferView":2,"byteOffset":1008},{"name":"vibrava-Mesh_2_positions","componentType":5126,"count":158,"min":[-0.7731189727783203,-7.224830150604248,-2.229520082473755],"max":[0.7731180191040039,2.6950600147247314,-0.3111400008201599],"type":"VEC3","bufferView":0,"byteOffset":1260},{"name":"vibrava-Mesh_2_texcoords","componentType":5126,"count":158,"min":[0,0],"max":[0.9730769991874695,1],"type":"VEC2","bufferView":1,"byteOffset":840},{"name":"vibrava-Mesh_2_indices","componentType":5123,"count":756,"min":[0],"max":[157],"type":"SCALAR","bufferView":2,"byteOffset":1020},{"name":"vibrava-Mesh_3_positions","componentType":5126,"count":34,"min":[-0.9630039930343628,-0.6826339960098267,-1.5840699672698975],"max":[0.9630039930343628,0.6826339960098267,-0.38228699564933777],"type":"VEC3","bufferView":0,"byteOffset":3156},{"name":"vibrava-Mesh_3_texcoords","componentType":5126,"count":34,"min":[-0.7315930128097534,-0.5680199861526489],"max":[1.4609299898147583,1.5573749542236328],"type":"VEC2","bufferView":1,"byteOffset":2104},{"name":"vibrava-Mesh_3_indices","componentType":5123,"count":144,"min":[0],"max":[33],"type":"SCALAR","bufferView":2,"byteOffset":2532},{"name":"vibrava-Mesh_4_positions","componentType":5126,"count":15,"min":[-0.6892169713973999,-0.6488850116729736,-0.5079749822616577],"max":[0.6892169713973999,0.6488850116729736,-0.13338899612426758],"type":"VEC3","bufferView":0,"byteOffset":3564},{"name":"vibrava-Mesh_4_texcoords","componentType":5126,"count":15,"min":[-0.10950200259685516,-0.08861000090837479],"max":[1.1095000505447388,0.2578119933605194],"type":"VEC2","bufferView":1,"byteOffset":2376},{"name":"vibrava-Mesh_4_indices","componentType":5123,"count":48,"min":[0],"max":[14],"type":"SCALAR","bufferView":2,"byteOffset":2820},{"name":"vibrava-Mesh_5_positions","componentType":5126,"count":24,"min":[-0.9317600131034851,-3.61011004447937,-1.6045399904251099],"max":[0.9317600131034851,-1.182229995727539,-0.2754650115966797],"type":"VEC3","bufferView":0,"byteOffset":3744},{"name":"vibrava-Mesh_5_texcoords","componentType":5126,"count":24,"min":[-0.6012420058250427,-0.1154400035738945],"max":[1.6012400388717651,1.235321044921875],"type":"VEC2","bufferView":1,"byteOffset":2496},{"name":"vibrava-Mesh_5_indices","componentType":5123,"count":96,"min":[0],"max":[23],"type":"SCALAR","bufferView":2,"byteOffset":2916}],"asset":{"generator":"obj2gltf","version":"2.0"},"buffers":[{"name":"BR_Vibrava-Shiny01","byteLength":102208,"uri":"data:application/octet-stream;base64,"}],"bufferViews":[{"name":"bufferView_0","buffer":0,"byteLength":4032,"byteOffset":0,"byteStride":12,"target":34962},{"name":"bufferView_1","buffer":0,"byteLength":2688,"byteOffset":4032,"byteStride":8,"target":34962},{"name":"bufferView_2","buffer":0,"byteLength":3108,"byteOffset":6720,"target":34963},{"buffer":0,"byteOffset":9828,"byteLength":82},{"buffer":0,"byteOffset":9910,"byteLength":82},{"buffer":0,"byteOffset":9992,"byteLength":16402},{"buffer":0,"byteOffset":26394,"byteLength":73746},{"buffer":0,"byteOffset":100140,"byteLength":2066}],"images":[{"name":"vibrava_1_0","mimeType":"image/x-tga","bufferView":3},{"name":"vibrava_1_1","mimeType":"image/x-tga","bufferView":4},{"name":"vibrava_1_2","mimeType":"image/x-tga","bufferView":5},{"name":"vibrava_1_3","mimeType":"image/x-tga","bufferView":6},{"name":"vibrava_1_4","mimeType":"image/x-tga","bufferView":7}],"materials":[{"name":"mat_0","pbrMetallicRoughness":{"baseColorTexture":{"index":0},"baseColorFactor":[1,1,1,1],"metallicFactor":0,"roughnessFactor":0.903921569},"emissiveFactor":[0,0,0],"alphaMode":"BLEND","doubleSided":true},{"name":"mat_1","pbrMetallicRoughness":{"baseColorFactor":[0.8,0.8,0.8,1],"metallicFactor":0,"roughnessFactor":0.903921569},"emissiveFactor":[0,0,0],"alphaMode":"OPAQUE","doubleSided":false},{"name":"mat_2","pbrMetallicRoughness":{"baseColorTexture":{"index":1},"baseColorFactor":[1,1,1,1],"metallicFactor":0,"roughnessFactor":0.903921569},"emissiveFactor":[0,0,0],"alphaMode":"BLEND","doubleSided":true},{"name":"mat_3","pbrMetallicRoughness":{"baseColorTexture":{"index":2},"baseColorFactor":[1,1,1,1],"metallicFactor":0,"roughnessFactor":0.903921569},"emissiveFactor":[0,0,0],"alphaMode":"BLEND","doubleSided":true},{"name":"mat_4","pbrMetallicRoughness":{"baseColorTexture":{"index":3},"baseColorFactor":[1,1,1,1],"metallicFactor":0,"roughnessFactor":0.903921569},"emissiveFactor":[0,0,0],"alphaMode":"BLEND","doubleSided":true},{"name":"mat_5","pbrMetallicRoughness":{"baseColorTexture":{"index":4},"baseColorFactor":[1,1,1,1],"metallicFactor":0,"roughnessFactor":0.903921569},"emissiveFactor":[0,0,0],"alphaMode":"BLEND","doubleSided":true}],"meshes":[{"name":"vibrava-Mesh","primitives":[{"attributes":{"POSITION":0,"TEXCOORD_0":1},"indices":2,"material":0,"mode":4},{"attributes":{"POSITION":3,"TEXCOORD_0":4},"indices":5,"material":1,"mode":4},{"attributes":{"POSITION":6,"TEXCOORD_0":7},"indices":8,"material":2,"mode":4},{"attributes":{"POSITION":9,"TEXCOORD_0":10},"indices":11,"material":3,"mode":4},{"attributes":{"POSITION":12,"TEXCOORD_0":13},"indices":14,"material":4,"mode":4},{"attributes":{"POSITION":15,"TEXCOORD_0":16},"indices":17,"material":5,"mode":4}]}],"nodes":[{"name":"vibrava","mesh":0}],"samplers":[{"wrapS":10497,"wrapT":10497}],"scene":0,"scenes":[{"nodes":[0]}],"textures":[{"name":"vibrava_1_0","sampler":0,"source":0},{"name":"vibrava_1_1","sampler":0,"source":1},{"name":"vibrava_1_2","sampler":0,"source":2},{"name":"vibrava_1_3","sampler":0,"source":3},{"name":"vibrava_1_4","sampler":0,"source":4}]}