{"accessors":[{"name":"polygon0_1_0_positions","componentType":5126,"count":26,"min":[-1.373723030090332,14.509102821350098,1.360713005065918],"max":[1.373723030090332,15.675348281860352,3.263211965560913],"type":"VEC3","bufferView":0,"byteOffset":0},{"name":"polygon0_1_0_normals","componentType":5126,"count":26,"min":[-0.8521586060523987,-0.9124572277069092,0.26928508281707764],"max":[0.8521586060523987,-0.0007319998112507164,0.9999997615814209],"type":"VEC3","bufferView":1,"byteOffset":0},{"name":"polygon0_1_0_texcoords","componentType":5126,"count":26,"min":[0.08792100101709366,0.02102700062096119],"max":[0.9101259708404541,0.2356570065021515],"type":"VEC2","bufferView":2,"byteOffset":0},{"name":"polygon0_1_0_indices","componentType":5123,"count":102,"min":[0],"max":[25],"type":"SCALAR","bufferView":3,"byteOffset":0},{"name":"polygon1_1_0_positions","componentType":5126,"count":80,"min":[-2.7058780193328857,15.259526252746582,-1.0871249437332153],"max":[2.7058780193328857,17.700702667236328,1.9529470205307007],"type":"VEC3","bufferView":0,"byteOffset":312},{"name":"polygon1_1_0_normals","componentType":5126,"count":80,"min":[-0.9657469987869263,-0.9461669325828552,-0.9696789979934692],"max":[0.9657469987869263,0.9802572727203369,0.9714667201042175],"type":"VEC3","bufferView":1,"byteOffset":312},{"name":"polygon1_1_0_texcoords","componentType":5126,"count":80,"min":[0.8288570046424866,0.025513000786304474],"max":[0.9694520235061646,0.13793900609016418],"type":"VEC2","bufferView":2,"byteOffset":208},{"name":"polygon1_1_0_indices","componentType":5123,"count":378,"min":[0],"max":[79],"type":"SCALAR","bufferView":3,"byteOffset":204},{"name":"polygon2_1_0_positions","componentType":5126,"count":30,"min":[-2.292367935180664,15.472014427185059,-0.4901379942893982],"max":[2.292367935180664,17.700702667236328,1.9529470205307007],"type":"VEC3","bufferView":0,"byteOffset":1272},{"name":"polygon2_1_0_normals","componentType":5126,"count":30,"min":[-0.9945664405822754,-0.35363808274269104,-0.5388309359550476],"max":[0.9945664405822754,0.5634868144989014,0.5413417816162109],"type":"VEC3","bufferView":1,"byteOffset":1272},{"name":"polygon2_1_0_texcoords","componentType":5126,"count":30,"min":[0.019531000405550003,0.027343999594449997],"max":[0.4804689884185791,0.2226559966802597],"type":"VEC2","bufferView":2,"byteOffset":848},{"name":"polygon2_1_0_indices","componentType":5123,"count":102,"min":[0],"max":[29],"type":"SCALAR","bufferView":3,"byteOffset":960},{"name":"polygon3_1_0_positions","componentType":5126,"count":1020,"min":[-18.999998092651367,-9.999999974752427e-7,-26.55866813659668],"max":[19,20.847997665405273,5.324242115020752],"type":"VEC3","bufferView":0,"byteOffset":1632},{"name":"polygon3_1_0_normals","componentType":5126,"count":1020,"min":[-0.9998680353164673,-1,-1],"max":[0.9998679757118225,1,1],"type":"VEC3","bufferView":1,"byteOffset":1632},{"name":"polygon3_1_0_texcoords","componentType":5126,"count":1020,"min":[0.009460000321269035,0.012543000280857086],"max":[0.9909970164299011,0.9942929744720459],"type":"VEC2","bufferView":2,"byteOffset":1088},{"name":"polygon3_1_0_indices","componentType":5123,"count":4182,"min":[0],"max":[1019],"type":"SCALAR","bufferView":3,"byteOffset":1164}],"asset":{"generator":"obj2gltf","version":"2.0"},"buffers":[{"name":"Flygon","byteLength":390640,"uri":"data:application/octet-stream;base64,"}],"bufferViews":[{"name":"bufferView_0","buffer":0,"byteLength":13872,"byteOffset":0,"byteStride":12,"target":34962},{"name":"bufferView_1","buffer":0,"byteLength":13872,"byteOffset":13872,"byteStride":12,"target":34962},{"name":"bufferView_2","buffer":0,"byteLength":9248,"byteOffset":27744,"byteStride":8,"target":34962},{"name":"bufferView_3","buffer":0,"byteLength":9528,"byteOffset":36992,"target":34963},{"buffer":0,"byteOffset":46520,"byteLength":49170},{"buffer":0,"byteOffset":95690,"byteLength":196626},{"buffer":0,"byteOffset":292316,"byteLength":98322}],"images":[{"name":"FlygonMouthDh","mimeType":"image/x-tga","bufferView":4},{"name":"FlygonDh","mimeType":"image/x-tga","bufferView":5},{"name":"FlygonEyeDh","mimeType":"image/x-tga","bufferView":6}],"materials":[{"name":"mat4","pbrMetallicRoughness":{"baseColorTexture":{"index":0},"baseColorFactor":[1,1,1,1],"metallicFactor":0,"roughnessFactor":0.99},"emissiveFactor":[0,0,0],"alphaMode":"OPAQUE","doubleSided":false},{"name":"mat3","pbrMetallicRoughness":{"baseColorTexture":{"index":1},"baseColorFactor":[1,1,1,1],"metallicFactor":0,"roughnessFactor":0.99},"emissiveFactor":[0,0,0],"alphaMode":"OPAQUE","doubleSided":false},{"name":"mat2","pbrMetallicRoughness":{"baseColorTexture":{"index":2},"baseColorFactor":[1,1,1,1],"metallicFactor":0,"roughnessFactor":0.99},"emissiveFactor":[0,0,0],"alphaMode":"OPAQUE","doubleSided":false},{"name":"mat1","pbrMetallicRoughness":{"baseColorTexture":{"index":1},"baseColorFactor":[1,1,1,1],"metallicFactor":0,"roughnessFactor":0.99},"emissiveFactor":[0,0,0],"alphaMode":"OPAQUE","doubleSided":false}],"meshes":[{"name":"polygon0_1","primitives":[{"attributes":{"POSITION":0,"NORMAL":1,"TEXCOORD_0":2},"indices":3,"material":0,"mode":4}]},{"name":"polygon1_1","primitives":[{"attributes":{"POSITION":4,"NORMAL":5,"TEXCOORD_0":6},"indices":7,"material":1,"mode":4}]},{"name":"polygon2_1","primitives":[{"attributes":{"POSITION":8,"NORMAL":9,"TEXCOORD_0":10},"indices":11,"material":2,"mode":4}]},{"name":"polygon3_1","primitives":[{"attributes":{"POSITION":12,"NORMAL":13,"TEXCOORD_0":14},"indices":15,"material":3,"mode":4}]}],"nodes":[{"name":"polygon0","mesh":0},{"name":"polygon1","mesh":1},{"name":"polygon2","mesh":2},{"name":"polygon3","mesh":3}],"samplers":[{"wrapS":10497,"wrapT":10497}],"scene":0,"scenes":[{"nodes":[0,1,2,3]}],"textures":[{"name":"FlygonMouthDh","sampler":0,"source":0},{"name":"FlygonDh","sampler":0,"source":1},{"name":"FlygonEyeDh","sampler":0,"source":2}]}