{"accessors":[{"name":"sabonea-Mesh_0_positions","componentType":5126,"count":20,"min":[-0.49172601103782654,-0.5232800245285034,1.7453199625015259],"max":[0.4929549992084503,0.49236398935317993,2.5115199089050293],"type":"VEC3","bufferView":0,"byteOffset":0},{"name":"sabonea-Mesh_0_texcoords","componentType":5126,"count":20,"min":[0.25106900930404663,0.2943840026855469],"max":[0.7510690093040466,0.7943840026855469],"type":"VEC2","bufferView":1,"byteOffset":0},{"name":"sabonea-Mesh_0_indices","componentType":5123,"count":48,"min":[0],"max":[19],"type":"SCALAR","bufferView":2,"byteOffset":0}],"asset":{"generator":"obj2gltf","version":"2.0"},"buffers":[{"name":"BR_Cacnea-Shiny01","byteLength":66052,"uri":"data:application/octet-stream;base64,"}],"bufferViews":[{"name":"bufferView_0","buffer":0,"byteLength":240,"byteOffset":0,"byteStride":12,"target":34962},{"name":"bufferView_1","buffer":0,"byteLength":160,"byteOffset":240,"byteStride":8,"target":34962},{"name":"bufferView_2","buffer":0,"byteLength":96,"byteOffset":400,"target":34963},{"buffer":0,"byteOffset":496,"byteLength":65554}],"images":[{"name":"sabonea_1_0","mimeType":"image/x-tga","bufferView":3}],"materials":[{"name":"mat_0","pbrMetallicRoughness":{"baseColorTexture":{"index":0},"baseColorFactor":[1,1,1,1],"metallicFactor":0,"roughnessFactor":0.903921569},"emissiveFactor":[0,0,0],"alphaMode":"BLEND","doubleSided":true}],"meshes":[{"name":"sabonea-Mesh","primitives":[{"attributes":{"POSITION":0,"TEXCOORD_0":1},"indices":2,"material":0,"mode":4}]}],"nodes":[{"name":"sabonea","mesh":0}],"samplers":[{"wrapS":10497,"wrapT":10497}],"scene":0,"scenes":[{"nodes":[0]}],"textures":[{"name":"sabonea_1_0","sampler":0,"source":0}]}