{"accessors":[{"name":"tyltto_c-Mesh_0_positions","componentType":5126,"count":150,"min":[-1.3693020343780518,-3.5501608848571777,-2.9533400535583496],"max":[1.369297981262207,1.177706003189087,-0.22404000163078308],"type":"VEC3","bufferView":0,"byteOffset":0},{"name":"tyltto_c-Mesh_0_texcoords","componentType":5126,"count":150,"min":[-0.6822919845581055,-2.2119300365448],"max":[2.372730016708374,1.021875023841858],"type":"VEC2","bufferView":1,"byteOffset":0},{"name":"tyltto_c-Mesh_0_indices","componentType":5123,"count":744,"min":[0],"max":[149],"type":"SCALAR","bufferView":2,"byteOffset":0},{"name":"tyltto_c-Mesh_1_positions","componentType":5126,"count":8,"min":[-0.7797530293464661,0.5501120090484619,-2.414846897125244],"max":[0.7797430157661438,0.8739209771156311,-2.0397069454193115],"type":"VEC3","bufferView":0,"byteOffset":1800},{"name":"tyltto_c-Mesh_1_texcoords","componentType":5126,"count":8,"min":[-0.5422059893608093,0.31846699118614197],"max":[1.1683399677276611,0.5161569714546204],"type":"VEC2","bufferView":1,"byteOffset":1200},{"name":"tyltto_c-Mesh_1_indices","componentType":5123,"count":12,"min":[0],"max":[7],"type":"SCALAR","bufferView":2,"byteOffset":1488},{"name":"tyltto_c-Mesh_2_positions","componentType":5126,"count":6,"min":[-0.24795599281787872,0.9829689860343933,-1.8337830305099487],"max":[0.43683600425720215,1.441483974456787,-1.5518670082092285],"type":"VEC3","bufferView":0,"byteOffset":1896},{"name":"tyltto_c-Mesh_2_texcoords","componentType":5126,"count":6,"min":[0.08333300054073334,0.0945110023021698],"max":[0.8559970259666443,0.9375],"type":"VEC2","bufferView":1,"byteOffset":1264},{"name":"tyltto_c-Mesh_2_indices","componentType":5123,"count":12,"min":[0],"max":[5],"type":"SCALAR","bufferView":2,"byteOffset":1512},{"name":"tyltto_c-Mesh_3_positions","componentType":5126,"count":11,"min":[-0.4205699861049652,0.6959859728813171,-2.013951063156128],"max":[0.43683600425720215,1.4989869594573975,-1.6551309823989868],"type":"VEC3","bufferView":0,"byteOffset":1968},{"name":"tyltto_c-Mesh_3_texcoords","componentType":5126,"count":11,"min":[0.01887200027704239,0.0945110023021698],"max":[0.9820830225944519,1.3003159761428833],"type":"VEC2","bufferView":1,"byteOffset":1312},{"name":"tyltto_c-Mesh_3_indices","componentType":5123,"count":36,"min":[0],"max":[10],"type":"SCALAR","bufferView":2,"byteOffset":1536}],"asset":{"generator":"obj2gltf","version":"2.0"},"buffers":[{"name":"BR_Swablu-Shiny01","byteLength":64300,"uri":"data:application/octet-stream;base64,"}],"bufferViews":[{"name":"bufferView_0","buffer":0,"byteLength":2100,"byteOffset":0,"byteStride":12,"target":34962},{"name":"bufferView_1","buffer":0,"byteLength":1400,"byteOffset":2100,"byteStride":8,"target":34962},{"name":"bufferView_2","buffer":0,"byteLength":1608,"byteOffset":3500,"target":34963},{"buffer":0,"byteOffset":5108,"byteLength":9234},{"buffer":0,"byteOffset":14342,"byteLength":29458},{"buffer":0,"byteOffset":43800,"byteLength":20498}],"images":[{"name":"tyltto_c_1_0","mimeType":"image/x-tga","bufferView":3},{"name":"tyltto_c_1_1","mimeType":"image/x-tga","bufferView":4},{"name":"tyltto_c_1_2","mimeType":"image/x-tga","bufferView":5}],"materials":[{"name":"mat_0","pbrMetallicRoughness":{"baseColorTexture":{"index":0},"baseColorFactor":[1,1,1,1],"metallicFactor":0,"roughnessFactor":0.903921569},"emissiveFactor":[0,0,0],"alphaMode":"BLEND","doubleSided":true},{"name":"mat_1","pbrMetallicRoughness":{"baseColorTexture":{"index":1},"baseColorFactor":[1,1,1,1],"metallicFactor":0,"roughnessFactor":0.903921569},"emissiveFactor":[0,0,0],"alphaMode":"BLEND","doubleSided":true},{"name":"mat_2","pbrMetallicRoughness":{"baseColorFactor":[0.8,0.8,0.8,1],"metallicFactor":0,"roughnessFactor":0.903921569},"emissiveFactor":[0,0,0],"alphaMode":"OPAQUE","doubleSided":false},{"name":"mat_3","pbrMetallicRoughness":{"baseColorTexture":{"index":2},"baseColorFactor":[1,1,1,1],"metallicFactor":0,"roughnessFactor":0.903921569},"emissiveFactor":[0,0,0],"alphaMode":"BLEND","doubleSided":true}],"meshes":[{"name":"tyltto_c-Mesh","primitives":[{"attributes":{"POSITION":0,"TEXCOORD_0":1},"indices":2,"material":0,"mode":4},{"attributes":{"POSITION":3,"TEXCOORD_0":4},"indices":5,"material":1,"mode":4},{"attributes":{"POSITION":6,"TEXCOORD_0":7},"indices":8,"material":2,"mode":4},{"attributes":{"POSITION":9,"TEXCOORD_0":10},"indices":11,"material":3,"mode":4}]}],"nodes":[{"name":"tyltto_c","mesh":0}],"samplers":[{"wrapS":10497,"wrapT":10497}],"scene":0,"scenes":[{"nodes":[0]}],"textures":[{"name":"tyltto_c_1_0","sampler":0,"source":0},{"name":"tyltto_c_1_1","sampler":0,"source":1},{"name":"tyltto_c_1_2","sampler":0,"source":2}]}