{"accessors":[{"name":"tyltalis_c-Mesh_0_positions","componentType":5126,"count":36,"min":[-2.526247978210449,-6.434638977050781,-2.8127400875091553],"max":[2.6487529277801514,-2.1921489238739014,-2.0294899940490723],"type":"VEC3","bufferView":0,"byteOffset":0},{"name":"tyltalis_c-Mesh_0_texcoords","componentType":5126,"count":36,"min":[0,0],"max":[1,1],"type":"VEC2","bufferView":1,"byteOffset":0},{"name":"tyltalis_c-Mesh_0_indices","componentType":5123,"count":72,"min":[0],"max":[35],"type":"SCALAR","bufferView":2,"byteOffset":0},{"name":"tyltalis_c-Mesh_1_positions","componentType":5126,"count":28,"min":[-1.5479060411453247,-4.820746898651123,-10.66510009765625],"max":[1.6421550512313843,2.7590830326080322,-8.947970390319824],"type":"VEC3","bufferView":0,"byteOffset":432},{"name":"tyltalis_c-Mesh_1_texcoords","componentType":5126,"count":28,"min":[0,0],"max":[1,1],"type":"VEC2","bufferView":1,"byteOffset":288},{"name":"tyltalis_c-Mesh_1_indices","componentType":5123,"count":72,"min":[0],"max":[27],"type":"SCALAR","bufferView":2,"byteOffset":144},{"name":"tyltalis_c-Mesh_2_positions","componentType":5126,"count":17,"min":[-0.9769359827041626,3.632030963897705,-8.4866304397583],"max":[0.9029809832572937,4.082955837249756,-7.6637701988220215],"type":"VEC3","bufferView":0,"byteOffset":768},{"name":"tyltalis_c-Mesh_2_texcoords","componentType":5126,"count":17,"min":[-0.9128249883651733,-0.08333999663591385],"max":[1.6600799560546875,0.17442800104618073],"type":"VEC2","bufferView":1,"byteOffset":512},{"name":"tyltalis_c-Mesh_2_indices","componentType":5123,"count":54,"min":[0],"max":[16],"type":"SCALAR","bufferView":2,"byteOffset":288},{"name":"tyltalis_c-Mesh_3_positions","componentType":5126,"count":113,"min":[-2.088848114013672,-2.8954250812530518,-9.077070236206055],"max":[2.103703022003174,3.9658119678497314,-1.3229199647903442],"type":"VEC3","bufferView":0,"byteOffset":972},{"name":"tyltalis_c-Mesh_3_texcoords","componentType":5126,"count":113,"min":[0.015625,0.1666630059480667],"max":[0.9591619968414307,1.0773229598999023],"type":"VEC2","bufferView":1,"byteOffset":648},{"name":"tyltalis_c-Mesh_3_indices","componentType":5123,"count":516,"min":[0],"max":[112],"type":"SCALAR","bufferView":2,"byteOffset":396},{"name":"tyltalis_c-Mesh_4_positions","componentType":5126,"count":18,"min":[-0.5771700143814087,3.85782790184021,-7.787899971008301],"max":[0.498647004365921,4.3806610107421875,-7.303850173950195],"type":"VEC3","bufferView":0,"byteOffset":2328},{"name":"tyltalis_c-Mesh_4_texcoords","componentType":5126,"count":18,"min":[0,0.020999999716877937],"max":[1,1],"type":"VEC2","bufferView":1,"byteOffset":1552},{"name":"tyltalis_c-Mesh_4_indices","componentType":5123,"count":48,"min":[0],"max":[17],"type":"SCALAR","bufferView":2,"byteOffset":1428},{"name":"tyltalis_c-Mesh_5_positions","componentType":5126,"count":4,"min":[-0.648455023765564,3.7405970096588135,-7.805970191955566],"max":[0.9576979875564575,3.895150899887085,-7.6637701988220215],"type":"VEC3","bufferView":0,"byteOffset":2544},{"name":"tyltalis_c-Mesh_5_texcoords","componentType":5126,"count":4,"min":[0.03125,-0.08333999663591385],"max":[1.3101099729537964,0.96875],"type":"VEC2","bufferView":1,"byteOffset":1696},{"name":"tyltalis_c-Mesh_5_indices","componentType":5123,"count":6,"min":[0],"max":[3],"type":"SCALAR","bufferView":2,"byteOffset":1524},{"name":"tyltalis_c-Mesh_6_positions","componentType":5126,"count":60,"min":[-1.4350709915161133,-1.1310640573501587,-2.1192400455474854],"max":[1.4174870252609253,1.3001149892807007,0.00018600000475998968],"type":"VEC3","bufferView":0,"byteOffset":2592},{"name":"tyltalis_c-Mesh_6_texcoords","componentType":5126,"count":60,"min":[0.04399999976158142,0.11050000041723251],"max":[0.9559999704360962,1.0479999780654907],"type":"VEC2","bufferView":1,"byteOffset":1728},{"name":"tyltalis_c-Mesh_6_indices","componentType":5123,"count":216,"min":[0],"max":[59],"type":"SCALAR","bufferView":2,"byteOffset":1536},{"name":"tyltalis_c-Mesh_7_positions","componentType":5126,"count":11,"min":[-0.5771700143814087,3.917694091796875,-7.503890037536621],"max":[0.498647004365921,4.3806610107421875,-7.343810081481934],"type":"VEC3","bufferView":0,"byteOffset":3312},{"name":"tyltalis_c-Mesh_7_texcoords","componentType":5126,"count":11,"min":[0,0],"max":[1,1],"type":"VEC2","bufferView":1,"byteOffset":2208},{"name":"tyltalis_c-Mesh_7_indices","componentType":5123,"count":30,"min":[0],"max":[10],"type":"SCALAR","bufferView":2,"byteOffset":1968}],"asset":{"generator":"obj2gltf","version":"2.0"},"buffers":[{"name":"BR_Altaria-Shiny01","byteLength":174296,"uri":"data:application/octet-stream;base64,"}],"bufferViews":[{"name":"bufferView_0","buffer":0,"byteLength":3444,"byteOffset":0,"byteStride":12,"target":34962},{"name":"bufferView_1","buffer":0,"byteLength":2296,"byteOffset":3444,"byteStride":8,"target":34962},{"name":"bufferView_2","buffer":0,"byteLength":2028,"byteOffset":5740,"target":34963},{"buffer":0,"byteOffset":7768,"byteLength":65554},{"buffer":0,"byteOffset":73322,"byteLength":32786},{"buffer":0,"byteOffset":106108,"byteLength":55314},{"buffer":0,"byteOffset":161422,"byteLength":4114},{"buffer":0,"byteOffset":165536,"byteLength":4114},{"buffer":0,"byteOffset":169650,"byteLength":530},{"buffer":0,"byteOffset":170180,"byteLength":4114}],"images":[{"name":"tyltalis_c_1_0","mimeType":"image/x-tga","bufferView":3},{"name":"tyltalis_c_1_1","mimeType":"image/x-tga","bufferView":4},{"name":"tyltalis_c_1_2","mimeType":"image/x-tga","bufferView":5},{"name":"tyltalis_c_1_3","mimeType":"image/x-tga","bufferView":6},{"name":"tyltalis_c_1_4","mimeType":"image/x-tga","bufferView":7},{"name":"tyltalis_c_1_5","mimeType":"image/x-tga","bufferView":8},{"name":"tyltalis_c_1_6","mimeType":"image/x-tga","bufferView":9}],"materials":[{"name":"mat_0","pbrMetallicRoughness":{"baseColorTexture":{"index":0},"baseColorFactor":[1,1,1,1],"metallicFactor":0,"roughnessFactor":0.903921569},"emissiveFactor":[0,0,0],"alphaMode":"BLEND","doubleSided":true},{"name":"mat_1","pbrMetallicRoughness":{"baseColorTexture":{"index":1},"baseColorFactor":[1,1,1,1],"metallicFactor":0,"roughnessFactor":0.903921569},"emissiveFactor":[0,0,0],"alphaMode":"BLEND","doubleSided":true},{"name":"mat_2","pbrMetallicRoughness":{"baseColorTexture":{"index":2},"baseColorFactor":[1,1,1,1],"metallicFactor":0,"roughnessFactor":0.903921569},"emissiveFactor":[0,0,0],"alphaMode":"BLEND","doubleSided":true},{"name":"mat_3","pbrMetallicRoughness":{"baseColorTexture":{"index":3},"baseColorFactor":[1,1,1,1],"metallicFactor":0,"roughnessFactor":0.903921569},"emissiveFactor":[0,0,0],"alphaMode":"BLEND","doubleSided":true},{"name":"mat_4","pbrMetallicRoughness":{"baseColorTexture":{"index":4},"baseColorFactor":[1,1,1,1],"metallicFactor":0,"roughnessFactor":0.903921569},"emissiveFactor":[0,0,0],"alphaMode":"BLEND","doubleSided":true},{"name":"mat_5","pbrMetallicRoughness":{"baseColorFactor":[0.8,0.8,0.8,1],"metallicFactor":0,"roughnessFactor":0.903921569},"emissiveFactor":[0,0,0],"alphaMode":"OPAQUE","doubleSided":false},{"name":"mat_6","pbrMetallicRoughness":{"baseColorTexture":{"index":5},"baseColorFactor":[1,1,1,1],"metallicFactor":0,"roughnessFactor":0.903921569},"emissiveFactor":[0,0,0],"alphaMode":"BLEND","doubleSided":true},{"name":"mat_7","pbrMetallicRoughness":{"baseColorTexture":{"index":6},"baseColorFactor":[1,1,1,1],"metallicFactor":0,"roughnessFactor":0.903921569},"emissiveFactor":[0,0,0],"alphaMode":"BLEND","doubleSided":true}],"meshes":[{"name":"tyltalis_c-Mesh","primitives":[{"attributes":{"POSITION":0,"TEXCOORD_0":1},"indices":2,"material":0,"mode":4},{"attributes":{"POSITION":3,"TEXCOORD_0":4},"indices":5,"material":1,"mode":4},{"attributes":{"POSITION":6,"TEXCOORD_0":7},"indices":8,"material":2,"mode":4},{"attributes":{"POSITION":9,"TEXCOORD_0":10},"indices":11,"material":3,"mode":4},{"attributes":{"POSITION":12,"TEXCOORD_0":13},"indices":14,"material":4,"mode":4},{"attributes":{"POSITION":15,"TEXCOORD_0":16},"indices":17,"material":5,"mode":4},{"attributes":{"POSITION":18,"TEXCOORD_0":19},"indices":20,"material":6,"mode":4},{"attributes":{"POSITION":21,"TEXCOORD_0":22},"indices":23,"material":7,"mode":4}]}],"nodes":[{"name":"tyltalis_c","mesh":0}],"samplers":[{"wrapS":10497,"wrapT":10497}],"scene":0,"scenes":[{"nodes":[0]}],"textures":[{"name":"tyltalis_c_1_0","sampler":0,"source":0},{"name":"tyltalis_c_1_1","sampler":0,"source":1},{"name":"tyltalis_c_1_2","sampler":0,"source":2},{"name":"tyltalis_c_1_3","sampler":0,"source":3},{"name":"tyltalis_c_1_4","sampler":0,"source":4},{"name":"tyltalis_c_1_5","sampler":0,"source":5},{"name":"tyltalis_c_1_6","sampler":0,"source":6}]}