{"accessors":[{"name":"Zangoose_1_0_positions","componentType":5126,"count":10182,"min":[-86.32779693603516,16.337200164794922,-40.75260925292969],"max":[86.3277816772461,126.78800964355469,26.35750389099121],"type":"VEC3","bufferView":0,"byteOffset":0},{"name":"Zangoose_1_0_normals","componentType":5126,"count":10182,"min":[-0.9954782724380493,-0.9970125555992126,-0.9998405575752258],"max":[0.9954781532287598,0.9984527826309204,0.986635148525238],"type":"VEC3","bufferView":1,"byteOffset":0},{"name":"Zangoose_1_0_texcoords","componentType":5126,"count":10182,"min":[0,0.03294000029563904],"max":[0.8948739767074585,0.9808949828147888],"type":"VEC2","bufferView":2,"byteOffset":0},{"name":"Zangoose_1_0_indices","componentType":5123,"count":10182,"min":[0],"max":[10181],"type":"SCALAR","bufferView":3,"byteOffset":0},{"name":"Zangoose_1_1_positions","componentType":5126,"count":4716,"min":[-36.010597229003906,-0.5940430164337158,-113.73101043701172],"max":[36.0106086730957,108.69998168945312,22.885801315307617],"type":"VEC3","bufferView":0,"byteOffset":122184},{"name":"Zangoose_1_1_normals","componentType":5126,"count":4716,"min":[-0.9954782128334045,-0.9389912486076355,-0.917123556137085],"max":[0.9945150017738342,0.9986845850944519,0.986635148525238],"type":"VEC3","bufferView":1,"byteOffset":122184},{"name":"Zangoose_1_1_texcoords","componentType":5126,"count":4716,"min":[0.018893999978899956,-0.9881700277328491],"max":[0.9811059832572937,-0.015629999339580536],"type":"VEC2","bufferView":2,"byteOffset":81456},{"name":"Zangoose_1_1_indices","componentType":5123,"count":4716,"min":[0],"max":[4715],"type":"SCALAR","bufferView":3,"byteOffset":20364},{"name":"Zangoose_1_2_positions","componentType":5126,"count":672,"min":[-14.591300010681152,103.25099182128906,6.0623698234558105],"max":[14.591300010681152,115.89799499511719,19.684898376464844],"type":"VEC3","bufferView":0,"byteOffset":178776},{"name":"Zangoose_1_2_normals","componentType":5126,"count":672,"min":[-0.9944360852241516,-0.9864876866340637,-0.9802458882331848],"max":[0.909612238407135,0.8435764312744141,0.986635148525238],"type":"VEC3","bufferView":1,"byteOffset":178776},{"name":"Zangoose_1_2_texcoords","componentType":5126,"count":672,"min":[0.009140999987721443,-1.9928900003433228],"max":[0.4908590018749237,-1.7568199634552002],"type":"VEC2","bufferView":2,"byteOffset":119184},{"name":"Zangoose_1_2_indices","componentType":5123,"count":672,"min":[0],"max":[671],"type":"SCALAR","bufferView":3,"byteOffset":29796},{"name":"Zangoose_1_3_positions","componentType":5126,"count":144,"min":[-5.701650142669678,91.64028930664062,16.912702560424805],"max":[5.701651096343994,104.91299438476562,22.105302810668945],"type":"VEC3","bufferView":0,"byteOffset":186840},{"name":"Zangoose_1_3_normals","componentType":5126,"count":144,"min":[-0.7007387280464172,-0.9782647490501404,-0.9331775307655334],"max":[0.9085066914558411,0.783073365688324,0.5961178541183472],"type":"VEC3","bufferView":1,"byteOffset":186840},{"name":"Zangoose_1_3_texcoords","componentType":5126,"count":144,"min":[0.03786500170826912,-2.992189884185791],"max":[0.4621399939060211,-2.757810115814209],"type":"VEC2","bufferView":2,"byteOffset":124560},{"name":"Zangoose_1_3_indices","componentType":5123,"count":144,"min":[0],"max":[143],"type":"SCALAR","bufferView":3,"byteOffset":31140},{"name":"Zangoose_1_4_positions","componentType":5126,"count":672,"min":[-14.702500343322754,103.37300109863281,6.111145973205566],"max":[14.702500343322754,116.01399230957031,19.75910186767578],"type":"VEC3","bufferView":0,"byteOffset":188568},{"name":"Zangoose_1_4_normals","componentType":5126,"count":672,"min":[-0.9958764910697937,-0.8183863162994385,-0.848613977432251],"max":[0.7247370481491089,0.9986845850944519,0.4235062003135681],"type":"VEC3","bufferView":1,"byteOffset":188568},{"name":"Zangoose_1_4_texcoords","componentType":5126,"count":672,"min":[-0.9634360074996948,-10.971559524536133],"max":[1,-10.0272798538208],"type":"VEC2","bufferView":2,"byteOffset":125712},{"name":"Zangoose_1_4_indices","componentType":5123,"count":672,"min":[0],"max":[671],"type":"SCALAR","bufferView":3,"byteOffset":31428}],"asset":{"generator":"obj2gltf","version":"2.0"},"buffers":[{"name":"XY_Zangoose","byteLength":682296,"uri":"data:application/octet-stream;base64,"}],"bufferViews":[{"name":"bufferView_0","buffer":0,"byteLength":196632,"byteOffset":0,"byteStride":12,"target":34962},{"name":"bufferView_1","buffer":0,"byteLength":196632,"byteOffset":196632,"byteStride":12,"target":34962},{"name":"bufferView_2","buffer":0,"byteLength":131088,"byteOffset":393264,"byteStride":8,"target":34962},{"name":"bufferView_3","buffer":0,"byteLength":32772,"byteOffset":524352,"target":34963},{"buffer":0,"byteOffset":557124,"byteLength":57989},{"buffer":0,"byteOffset":615113,"byteLength":24007},{"buffer":0,"byteOffset":639120,"byteLength":32873},{"buffer":0,"byteOffset":671993,"byteLength":9818},{"buffer":0,"byteOffset":681811,"byteLength":485}],"images":[{"name":"pm0335_00_BodyA1","mimeType":"image/png","bufferView":4},{"name":"pm0335_00_BodyB1","mimeType":"image/png","bufferView":5},{"name":"pm0335_00_Eye1","mimeType":"image/png","bufferView":6},{"name":"pm0335_00_Mouth1","mimeType":"image/png","bufferView":7},{"name":"pm0335_00_Iris1","mimeType":"image/png","bufferView":8}],"materials":[{"name":"Material__100","pbrMetallicRoughness":{"baseColorTexture":{"index":0},"baseColorFactor":[1,1,1,1],"metallicFactor":0,"roughnessFactor":0.998},"emissiveFactor":[0,0,0],"alphaMode":"OPAQUE","doubleSided":false},{"name":"Material__101","pbrMetallicRoughness":{"baseColorTexture":{"index":1},"baseColorFactor":[1,1,1,1],"metallicFactor":0,"roughnessFactor":0.998},"emissiveFactor":[0,0,0],"alphaMode":"OPAQUE","doubleSided":false},{"name":"Material__102","pbrMetallicRoughness":{"baseColorTexture":{"index":2},"baseColorFactor":[1,1,1,1],"metallicFactor":0,"roughnessFactor":0.998},"emissiveFactor":[0,0,0],"alphaMode":"OPAQUE","doubleSided":false},{"name":"Material__103","pbrMetallicRoughness":{"baseColorTexture":{"index":3},"baseColorFactor":[1,1,1,1],"metallicFactor":0,"roughnessFactor":0.998},"emissiveFactor":[0,0,0],"alphaMode":"OPAQUE","doubleSided":false},{"name":"Material__104","pbrMetallicRoughness":{"baseColorTexture":{"index":4},"baseColorFactor":[1,1,1,1],"metallicFactor":0,"roughnessFactor":0.998},"emissiveFactor":[0,0,0],"alphaMode":"OPAQUE","doubleSided":false}],"meshes":[{"name":"Zangoose_1","primitives":[{"attributes":{"POSITION":0,"NORMAL":1,"TEXCOORD_0":2},"indices":3,"material":0,"mode":4},{"attributes":{"POSITION":4,"NORMAL":5,"TEXCOORD_0":6},"indices":7,"material":1,"mode":4},{"attributes":{"POSITION":8,"NORMAL":9,"TEXCOORD_0":10},"indices":11,"material":2,"mode":4},{"attributes":{"POSITION":12,"NORMAL":13,"TEXCOORD_0":14},"indices":15,"material":3,"mode":4},{"attributes":{"POSITION":16,"NORMAL":17,"TEXCOORD_0":18},"indices":19,"material":4,"mode":4}]}],"nodes":[{"name":"Zangoose","mesh":0}],"samplers":[{"wrapS":10497,"wrapT":10497}],"scene":0,"scenes":[{"nodes":[0]}],"textures":[{"name":"pm0335_00_BodyA1","sampler":0,"source":0},{"name":"pm0335_00_BodyB1","sampler":0,"source":1},{"name":"pm0335_00_Eye1","sampler":0,"source":2},{"name":"pm0335_00_Mouth1","sampler":0,"source":3},{"name":"pm0335_00_Iris1","sampler":0,"source":4}]}