{"accessors":[{"name":"zangoose-Mesh_0_positions","componentType":5126,"count":341,"min":[-3.8408899307250977,-7.103260040283203,-11.748800277709961],"max":[3.8408799171447754,1.978971004486084,-0.0021250001154839993],"type":"VEC3","bufferView":0,"byteOffset":0},{"name":"zangoose-Mesh_0_texcoords","componentType":5126,"count":341,"min":[0,0],"max":[1,1],"type":"VEC2","bufferView":1,"byteOffset":0},{"name":"zangoose-Mesh_0_indices","componentType":5123,"count":1152,"min":[0],"max":[340],"type":"SCALAR","bufferView":2,"byteOffset":0},{"name":"zangoose-Mesh_1_positions","componentType":5126,"count":94,"min":[-6.511449813842773,-1.3221499919891357,-7.705639839172363],"max":[6.511439800262451,0.6671630144119263,-6.2470598220825195],"type":"VEC3","bufferView":0,"byteOffset":4092},{"name":"zangoose-Mesh_1_texcoords","componentType":5126,"count":94,"min":[0,0],"max":[0.9780150055885315,1],"type":"VEC2","bufferView":1,"byteOffset":2728},{"name":"zangoose-Mesh_1_indices","componentType":5123,"count":264,"min":[0],"max":[93],"type":"SCALAR","bufferView":2,"byteOffset":2304},{"name":"zangoose-Mesh_2_positions","componentType":5126,"count":56,"min":[-7.46028995513916,-1.0968300104141235,-7.380259990692139],"max":[7.460279941558838,0.10969199985265732,-5.712870121002197],"type":"VEC3","bufferView":0,"byteOffset":5220},{"name":"zangoose-Mesh_2_texcoords","componentType":5126,"count":56,"min":[0,0.21989500522613525],"max":[1,1],"type":"VEC2","bufferView":1,"byteOffset":3480},{"name":"zangoose-Mesh_2_indices","componentType":5123,"count":192,"min":[0],"max":[55],"type":"SCALAR","bufferView":2,"byteOffset":2832},{"name":"zangoose-Mesh_3_positions","componentType":5126,"count":7,"min":[0,0.4434939920902252,-10.269499778747559],"max":[1.429610013961792,1.6005510091781616,-8.994210243225098],"type":"VEC3","bufferView":0,"byteOffset":5892},{"name":"zangoose-Mesh_3_texcoords","componentType":5126,"count":7,"min":[-0.0549359992146492,-0.005979999899864197],"max":[1.2000000476837158,0.10645300149917603],"type":"VEC2","bufferView":1,"byteOffset":3928},{"name":"zangoose-Mesh_3_indices","componentType":5123,"count":18,"min":[0],"max":[6],"type":"SCALAR","bufferView":2,"byteOffset":3216},{"name":"zangoose-Mesh_4_positions","componentType":5126,"count":40,"min":[-2.978760004043579,-1.6337800025939941,-0.10601399838924408],"max":[2.978760004043579,1.2778300046920776,-0.0021250001154839993],"type":"VEC3","bufferView":0,"byteOffset":5976},{"name":"zangoose-Mesh_4_texcoords","componentType":5126,"count":40,"min":[-0.33002299070358276,-0.34088000655174255],"max":[1.3779499530792236,0.9678739905357361],"type":"VEC2","bufferView":1,"byteOffset":3984},{"name":"zangoose-Mesh_4_indices","componentType":5123,"count":72,"min":[0],"max":[39],"type":"SCALAR","bufferView":2,"byteOffset":3252},{"name":"zangoose-Mesh_5_positions","componentType":5126,"count":37,"min":[-2.355410099029541,-0.26035600900650024,-7.791230201721191],"max":[2.318589925765991,2.0023000240325928,-2.5224900245666504],"type":"VEC3","bufferView":0,"byteOffset":6456},{"name":"zangoose-Mesh_5_texcoords","componentType":5126,"count":37,"min":[-0.012516999617218971,-0.03956000134348869],"max":[1.1285300254821777,1.1065069437026978],"type":"VEC2","bufferView":1,"byteOffset":4304},{"name":"zangoose-Mesh_5_indices","componentType":5123,"count":90,"min":[0],"max":[36],"type":"SCALAR","bufferView":2,"byteOffset":3396},{"name":"zangoose-Mesh_6_positions","componentType":5126,"count":10,"min":[-6.029590129852295,-1.0242600440979004,-6.419159889221191],"max":[6.029580116271973,0.29025501012802124,-6.324309825897217],"type":"VEC3","bufferView":0,"byteOffset":6900},{"name":"zangoose-Mesh_6_texcoords","componentType":5126,"count":10,"min":[-0.22111600637435913,-0.08747000247240067],"max":[0.9848290085792542,0.99093097448349],"type":"VEC2","bufferView":1,"byteOffset":4600},{"name":"zangoose-Mesh_6_indices","componentType":5123,"count":18,"min":[0],"max":[9],"type":"SCALAR","bufferView":2,"byteOffset":3576},{"name":"zangoose-Mesh_7_positions","componentType":5126,"count":29,"min":[-5.021130084991455,-1.2331700325012207,-7.601059913635254],"max":[5.0211100578308105,0.4059920012950897,-6.371009826660156],"type":"VEC3","bufferView":0,"byteOffset":7020},{"name":"zangoose-Mesh_7_texcoords","componentType":5126,"count":29,"min":[-0.0044639999978244305,0],"max":[0.997767984867096,1],"type":"VEC2","bufferView":1,"byteOffset":4680},{"name":"zangoose-Mesh_7_indices","componentType":5123,"count":60,"min":[0],"max":[28],"type":"SCALAR","bufferView":2,"byteOffset":3612},{"name":"zangoose-Mesh_8_positions","componentType":5126,"count":4,"min":[1.1149100065231323,-1.3769789934158325,-9.563509941101074],"max":[1.5797799825668335,-0.5902630090713501,-8.76375961303711],"type":"VEC3","bufferView":0,"byteOffset":7368},{"name":"zangoose-Mesh_8_texcoords","componentType":5126,"count":4,"min":[0.005681999959051609,0.0028409999795258045],"max":[1.3562500476837158,1.1687500476837158],"type":"VEC2","bufferView":1,"byteOffset":4912},{"name":"zangoose-Mesh_8_indices","componentType":5123,"count":6,"min":[0],"max":[3],"type":"SCALAR","bufferView":2,"byteOffset":3732},{"name":"zangoose-Mesh_9_positions","componentType":5126,"count":15,"min":[0,-0.97918301820755,-11.030200004577637],"max":[1.6144700050354004,1.5348999500274658,-8.220470428466797],"type":"VEC3","bufferView":0,"byteOffset":7416},{"name":"zangoose-Mesh_9_texcoords","componentType":5126,"count":15,"min":[-0.24367499351501465,-0.4280399978160858],"max":[1.1305299997329712,1.0100959539413452],"type":"VEC2","bufferView":1,"byteOffset":4944},{"name":"zangoose-Mesh_9_indices","componentType":5123,"count":45,"min":[0],"max":[14],"type":"SCALAR","bufferView":2,"byteOffset":3744},{"name":"zangoose-Mesh_10_positions","componentType":5126,"count":8,"min":[-1.429610013961792,0.16710500419139862,-10.269499778747559],"max":[0,1.6005510091781616,-8.994210243225098],"type":"VEC3","bufferView":0,"byteOffset":7596},{"name":"zangoose-Mesh_10_texcoords","componentType":5126,"count":8,"min":[-0.058517999947071075,-0.03652999922633171],"max":[1.2038500308990479,0.10701999813318253],"type":"VEC2","bufferView":1,"byteOffset":5064},{"name":"zangoose-Mesh_10_indices","componentType":5123,"count":24,"min":[0],"max":[7],"type":"SCALAR","bufferView":2,"byteOffset":3836},{"name":"zangoose-Mesh_11_positions","componentType":5126,"count":5,"min":[-0.4051769971847534,-9.802789688110352,-7.486519813537598],"max":[0.4051769971847534,-6.4423089027404785,-6.076200008392334],"type":"VEC3","bufferView":0,"byteOffset":7692},{"name":"zangoose-Mesh_11_texcoords","componentType":5126,"count":5,"min":[0.008681000210344791,0.08917000144720078],"max":[0.9300330281257629,0.6118209958076477],"type":"VEC2","bufferView":1,"byteOffset":5128},{"name":"zangoose-Mesh_11_indices","componentType":5123,"count":6,"min":[0],"max":[4],"type":"SCALAR","bufferView":2,"byteOffset":3884},{"name":"zangoose-Mesh_12_positions","componentType":5126,"count":7,"min":[-0.4051769971847534,-9.802789688110352,-7.486519813537598],"max":[0.4051769971847534,-6.343019008636475,-5.715159893035889],"type":"VEC3","bufferView":0,"byteOffset":7752},{"name":"zangoose-Mesh_12_texcoords","componentType":5126,"count":7,"min":[0.008929000236093998,-0.19912000000476837],"max":[0.9124450087547302,1.1209959983825684],"type":"VEC2","bufferView":1,"byteOffset":5168},{"name":"zangoose-Mesh_12_indices","componentType":5123,"count":12,"min":[0],"max":[6],"type":"SCALAR","bufferView":2,"byteOffset":3896},{"name":"zangoose-Mesh_13_positions","componentType":5126,"count":5,"min":[0.8698390126228333,-8.981610298156738,-6.775469779968262],"max":[1.6059199571609497,-6.021399021148682,-4.866789817810059],"type":"VEC3","bufferView":0,"byteOffset":7836},{"name":"zangoose-Mesh_13_texcoords","componentType":5126,"count":5,"min":[0.010417000390589237,-0.02703000046312809],"max":[0.9260820150375366,1.01991605758667],"type":"VEC2","bufferView":1,"byteOffset":5224},{"name":"zangoose-Mesh_13_indices","componentType":5123,"count":12,"min":[0],"max":[4],"type":"SCALAR","bufferView":2,"byteOffset":3920},{"name":"zangoose-Mesh_14_positions","componentType":5126,"count":5,"min":[-1.6059199571609497,-8.981610298156738,-6.775469779968262],"max":[-0.8698390126228333,-6.021399021148682,-4.866789817810059],"type":"VEC3","bufferView":0,"byteOffset":7896},{"name":"zangoose-Mesh_14_texcoords","componentType":5126,"count":5,"min":[0.012152999639511108,-0.0587100014090538],"max":[0.8991439938545227,1.1795690059661865],"type":"VEC2","bufferView":1,"byteOffset":5264},{"name":"zangoose-Mesh_14_indices","componentType":5123,"count":12,"min":[0],"max":[4],"type":"SCALAR","bufferView":2,"byteOffset":3944},{"name":"zangoose-Mesh_15_positions","componentType":5126,"count":72,"min":[-2.6385200023651123,-3.020869016647339,-11.748800277709961],"max":[2.6385200023651123,1.978971004486084,-7.192279815673828],"type":"VEC3","bufferView":0,"byteOffset":7956},{"name":"zangoose-Mesh_15_texcoords","componentType":5126,"count":72,"min":[-0.13194699585437775,-0.08829999715089798],"max":[1.1319500207901,1.1484830379486084],"type":"VEC2","bufferView":1,"byteOffset":5304},{"name":"zangoose-Mesh_15_indices","componentType":5123,"count":156,"min":[0],"max":[71],"type":"SCALAR","bufferView":2,"byteOffset":3968}],"asset":{"generator":"obj2gltf","version":"2.0"},"buffers":[{"name":"BR_Zangoose-Shiny01","byteLength":425916,"uri":"data:application/octet-stream;base64,"}],"bufferViews":[{"name":"bufferView_0","buffer":0,"byteLength":8820,"byteOffset":0,"byteStride":12,"target":34962},{"name":"bufferView_1","buffer":0,"byteLength":5880,"byteOffset":8820,"byteStride":8,"target":34962},{"name":"bufferView_2","buffer":0,"byteLength":4280,"byteOffset":14700,"target":34963},{"buffer":0,"byteOffset":18980,"byteLength":82},{"buffer":0,"byteOffset":19062,"byteLength":82},{"buffer":0,"byteOffset":19144,"byteLength":82},{"buffer":0,"byteOffset":19226,"byteLength":147474},{"buffer":0,"byteOffset":166700,"byteLength":32786},{"buffer":0,"byteOffset":199486,"byteLength":16402},{"buffer":0,"byteOffset":215888,"byteLength":32786},{"buffer":0,"byteOffset":248674,"byteLength":4114},{"buffer":0,"byteOffset":252788,"byteLength":1042},{"buffer":0,"byteOffset":253830,"byteLength":16402},{"buffer":0,"byteOffset":270232,"byteLength":147474},{"buffer":0,"byteOffset":417706,"byteLength":8210}],"images":[{"name":"zangoose_1_0","mimeType":"image/x-tga","bufferView":3},{"name":"zangoose_1_1","mimeType":"image/x-tga","bufferView":4},{"name":"zangoose_1_2","mimeType":"image/x-tga","bufferView":5},{"name":"zangoose_1_3","mimeType":"image/x-tga","bufferView":6},{"name":"zangoose_1_4","mimeType":"image/x-tga","bufferView":7},{"name":"zangoose_1_5","mimeType":"image/x-tga","bufferView":8},{"name":"zangoose_1_6","mimeType":"image/x-tga","bufferView":9},{"name":"zangoose_1_7","mimeType":"image/x-tga","bufferView":10},{"name":"zangoose_1_8","mimeType":"image/x-tga","bufferView":11},{"name":"zangoose_1_9","mimeType":"image/x-tga","bufferView":12},{"name":"zangoose_1_10","mimeType":"image/x-tga","bufferView":13},{"name":"zangoose_1_11","mimeType":"image/x-tga","bufferView":14}],"materials":[{"name":"mat_0","pbrMetallicRoughness":{"baseColorTexture":{"index":0},"baseColorFactor":[1,1,1,1],"metallicFactor":0,"roughnessFactor":0.903921569},"emissiveFactor":[0,0,0],"alphaMode":"BLEND","doubleSided":true},{"name":"mat_1","pbrMetallicRoughness":{"baseColorTexture":{"index":1},"baseColorFactor":[1,1,1,1],"metallicFactor":0,"roughnessFactor":0.903921569},"emissiveFactor":[0,0,0],"alphaMode":"BLEND","doubleSided":true},{"name":"mat_2","pbrMetallicRoughness":{"baseColorTexture":{"index":2},"baseColorFactor":[1,1,1,1],"metallicFactor":0,"roughnessFactor":0.903921569},"emissiveFactor":[0,0,0],"alphaMode":"BLEND","doubleSided":true},{"name":"mat_3","pbrMetallicRoughness":{"baseColorTexture":{"index":3},"baseColorFactor":[1,1,1,1],"metallicFactor":0,"roughnessFactor":0.903921569},"emissiveFactor":[0,0,0],"alphaMode":"BLEND","doubleSided":true},{"name":"mat_4","pbrMetallicRoughness":{"baseColorTexture":{"index":4},"baseColorFactor":[1,1,1,1],"metallicFactor":0,"roughnessFactor":0.903921569},"emissiveFactor":[0,0,0],"alphaMode":"BLEND","doubleSided":true},{"name":"mat_5","pbrMetallicRoughness":{"baseColorTexture":{"index":5},"baseColorFactor":[1,1,1,1],"metallicFactor":0,"roughnessFactor":0.903921569},"emissiveFactor":[0,0,0],"alphaMode":"BLEND","doubleSided":true},{"name":"mat_6","pbrMetallicRoughness":{"baseColorTexture":{"index":6},"baseColorFactor":[1,1,1,1],"metallicFactor":0,"roughnessFactor":0.903921569},"emissiveFactor":[0,0,0],"alphaMode":"BLEND","doubleSided":true},{"name":"mat_7","pbrMetallicRoughness":{"baseColorTexture":{"index":7},"baseColorFactor":[1,1,1,1],"metallicFactor":0,"roughnessFactor":0.903921569},"emissiveFactor":[0,0,0],"alphaMode":"BLEND","doubleSided":true},{"name":"mat_8","pbrMetallicRoughness":{"baseColorTexture":{"index":8},"baseColorFactor":[1,1,1,1],"metallicFactor":0,"roughnessFactor":0.903921569},"emissiveFactor":[0,0,0],"alphaMode":"BLEND","doubleSided":true},{"name":"mat_9","pbrMetallicRoughness":{"baseColorTexture":{"index":9},"baseColorFactor":[1,1,1,1],"metallicFactor":0,"roughnessFactor":0.903921569},"emissiveFactor":[0,0,0],"alphaMode":"BLEND","doubleSided":true},{"name":"mat_10","pbrMetallicRoughness":{"baseColorTexture":{"index":10},"baseColorFactor":[1,1,1,1],"metallicFactor":0,"roughnessFactor":0.903921569},"emissiveFactor":[0,0,0],"alphaMode":"BLEND","doubleSided":true},{"name":"mat_11","pbrMetallicRoughness":{"baseColorTexture":{"index":11},"baseColorFactor":[1,1,1,1],"metallicFactor":0,"roughnessFactor":0.903921569},"emissiveFactor":[0,0,0],"alphaMode":"BLEND","doubleSided":true},{"name":"mat_12","pbrMetallicRoughness":{"baseColorTexture":{"index":11},"baseColorFactor":[1,1,1,1],"metallicFactor":0,"roughnessFactor":0.903921569},"emissiveFactor":[0,0,0],"alphaMode":"BLEND","doubleSided":true},{"name":"mat_13","pbrMetallicRoughness":{"baseColorTexture":{"index":11},"baseColorFactor":[1,1,1,1],"metallicFactor":0,"roughnessFactor":0.903921569},"emissiveFactor":[0,0,0],"alphaMode":"BLEND","doubleSided":true},{"name":"mat_14","pbrMetallicRoughness":{"baseColorTexture":{"index":11},"baseColorFactor":[1,1,1,1],"metallicFactor":0,"roughnessFactor":0.903921569},"emissiveFactor":[0,0,0],"alphaMode":"BLEND","doubleSided":true},{"name":"mat_14_NONE","pbrMetallicRoughness":{"baseColorTexture":{"index":11},"baseColorFactor":[1,1,1,1],"metallicFactor":0,"roughnessFactor":0.903921569},"emissiveFactor":[0,0,0],"alphaMode":"BLEND","doubleSided":true}],"meshes":[{"name":"zangoose-Mesh","primitives":[{"attributes":{"POSITION":0,"TEXCOORD_0":1},"indices":2,"material":0,"mode":4},{"attributes":{"POSITION":3,"TEXCOORD_0":4},"indices":5,"material":1,"mode":4},{"attributes":{"POSITION":6,"TEXCOORD_0":7},"indices":8,"material":2,"mode":4},{"attributes":{"POSITION":9,"TEXCOORD_0":10},"indices":11,"material":3,"mode":4},{"attributes":{"POSITION":12,"TEXCOORD_0":13},"indices":14,"material":4,"mode":4},{"attributes":{"POSITION":15,"TEXCOORD_0":16},"indices":17,"material":5,"mode":4},{"attributes":{"POSITION":18,"TEXCOORD_0":19},"indices":20,"material":6,"mode":4},{"attributes":{"POSITION":21,"TEXCOORD_0":22},"indices":23,"material":7,"mode":4},{"attributes":{"POSITION":24,"TEXCOORD_0":25},"indices":26,"material":8,"mode":4},{"attributes":{"POSITION":27,"TEXCOORD_0":28},"indices":29,"material":9,"mode":4},{"attributes":{"POSITION":30,"TEXCOORD_0":31},"indices":32,"material":10,"mode":4},{"attributes":{"POSITION":33,"TEXCOORD_0":34},"indices":35,"material":11,"mode":4},{"attributes":{"POSITION":36,"TEXCOORD_0":37},"indices":38,"material":12,"mode":4},{"attributes":{"POSITION":39,"TEXCOORD_0":40},"indices":41,"material":13,"mode":4},{"attributes":{"POSITION":42,"TEXCOORD_0":43},"indices":44,"material":14,"mode":4},{"attributes":{"POSITION":45,"TEXCOORD_0":46},"indices":47,"material":15,"mode":4}]}],"nodes":[{"name":"zangoose","mesh":0}],"samplers":[{"wrapS":10497,"wrapT":10497}],"scene":0,"scenes":[{"nodes":[0]}],"textures":[{"name":"zangoose_1_0","sampler":0,"source":0},{"name":"zangoose_1_1","sampler":0,"source":1},{"name":"zangoose_1_2","sampler":0,"source":2},{"name":"zangoose_1_3","sampler":0,"source":3},{"name":"zangoose_1_4","sampler":0,"source":4},{"name":"zangoose_1_5","sampler":0,"source":5},{"name":"zangoose_1_6","sampler":0,"source":6},{"name":"zangoose_1_7","sampler":0,"source":7},{"name":"zangoose_1_8","sampler":0,"source":8},{"name":"zangoose_1_9","sampler":0,"source":9},{"name":"zangoose_1_10","sampler":0,"source":10},{"name":"zangoose_1_11","sampler":0,"source":11}]}