{"accessors":[{"name":"habunake-Mesh_0_positions","componentType":5126,"count":61,"min":[-1.7567299604415894,2.602950096130371,-10.095100402832031],"max":[1.690269947052002,8.37440013885498,-5.6118597984313965],"type":"VEC3","bufferView":0,"byteOffset":0},{"name":"habunake-Mesh_0_texcoords","componentType":5126,"count":61,"min":[0.006579000037163496,0.05651099979877472],"max":[1.0222699642181396,1.3807810544967651],"type":"VEC2","bufferView":1,"byteOffset":0},{"name":"habunake-Mesh_0_indices","componentType":5123,"count":183,"min":[0],"max":[60],"type":"SCALAR","bufferView":2,"byteOffset":0},{"name":"habunake-Mesh_1_positions","componentType":5126,"count":252,"min":[-1.9977699518203735,-6.740839958190918,-6.647950172424316],"max":[1.9994299411773682,4.68503999710083,0.058045998215675354],"type":"VEC3","bufferView":0,"byteOffset":732},{"name":"habunake-Mesh_1_texcoords","componentType":5126,"count":252,"min":[-0.02777799963951111,0.5103759765625],"max":[0.9964830279350281,1.2239580154418945],"type":"VEC2","bufferView":1,"byteOffset":488},{"name":"habunake-Mesh_1_indices","componentType":5123,"count":984,"min":[0],"max":[251],"type":"SCALAR","bufferView":2,"byteOffset":368},{"name":"habunake-Mesh_2_positions","componentType":5126,"count":23,"min":[-1.954259991645813,3.669650077819824,-5.864369869232178],"max":[1.9565500020980835,6.056920051574707,-0.05870800092816353],"type":"VEC3","bufferView":0,"byteOffset":3756},{"name":"habunake-Mesh_2_texcoords","componentType":5126,"count":23,"min":[-0.03712400048971176,-0.12415999919176102],"max":[1.0227500200271606,1.1445519924163818],"type":"VEC2","bufferView":1,"byteOffset":2504},{"name":"habunake-Mesh_2_indices","componentType":5123,"count":84,"min":[0],"max":[22],"type":"SCALAR","bufferView":2,"byteOffset":2336},{"name":"habunake-Mesh_3_positions","componentType":5126,"count":30,"min":[-2.0107200145721436,-5.195849895477295,-2.1199700832366943],"max":[2.0147900581359863,5.397719860076904,-0.35798799991607666],"type":"VEC3","bufferView":0,"byteOffset":4032},{"name":"habunake-Mesh_3_texcoords","componentType":5126,"count":30,"min":[-0.04474399983882904,0.08081900328397751],"max":[1.0104000568389893,0.9370390176773071],"type":"VEC2","bufferView":1,"byteOffset":2688},{"name":"habunake-Mesh_3_indices","componentType":5123,"count":72,"min":[0],"max":[29],"type":"SCALAR","bufferView":2,"byteOffset":2504},{"name":"habunake-Mesh_4_positions","componentType":5126,"count":48,"min":[-1.2001700401306152,-5.0937299728393555,-7.007339954376221],"max":[1.2006200551986694,3.4518699645996094,-2.5063400268554688],"type":"VEC3","bufferView":0,"byteOffset":4392},{"name":"habunake-Mesh_4_texcoords","componentType":5126,"count":48,"min":[0.004794000182300806,-0.006769999861717224],"max":[0.9586570262908936,1.3128060102462769],"type":"VEC2","bufferView":1,"byteOffset":2928},{"name":"habunake-Mesh_4_indices","componentType":5123,"count":144,"min":[0],"max":[47],"type":"SCALAR","bufferView":2,"byteOffset":2648},{"name":"habunake-Mesh_5_positions","componentType":5126,"count":43,"min":[-0.4539659917354584,-7.165589809417725,-12.17650032043457],"max":[0.4538860023021698,-5.011579990386963,-4.7078399658203125],"type":"VEC3","bufferView":0,"byteOffset":4968},{"name":"habunake-Mesh_5_texcoords","componentType":5126,"count":43,"min":[0,0],"max":[0.9906250238418579,0.9923290014266968],"type":"VEC2","bufferView":1,"byteOffset":3312},{"name":"habunake-Mesh_5_indices","componentType":5123,"count":180,"min":[0],"max":[42],"type":"SCALAR","bufferView":2,"byteOffset":2936},{"name":"habunake-Mesh_6_positions","componentType":5126,"count":84,"min":[-1.7567299604415894,-6.740839958190918,-9.968440055847168],"max":[1.7473399639129639,8.37440013885498,-3.0712199211120605],"type":"VEC3","bufferView":0,"byteOffset":5484},{"name":"habunake-Mesh_6_texcoords","componentType":5126,"count":84,"min":[-0.0022319999989122152,0],"max":[1.0044599771499634,1.001736044883728],"type":"VEC2","bufferView":1,"byteOffset":3656},{"name":"habunake-Mesh_6_indices","componentType":5123,"count":213,"min":[0],"max":[83],"type":"SCALAR","bufferView":2,"byteOffset":3296},{"name":"habunake-Mesh_7_positions","componentType":5126,"count":33,"min":[-1.7249799966812134,4.667079925537109,-7.900489807128906],"max":[1.7196300029754639,8.37440013885498,-6.997580051422119],"type":"VEC3","bufferView":0,"byteOffset":6492},{"name":"habunake-Mesh_7_texcoords","componentType":5126,"count":33,"min":[0,-0.007809999864548445],"max":[0.9947919845581055,0.9447119832038879],"type":"VEC2","bufferView":1,"byteOffset":4328},{"name":"habunake-Mesh_7_indices","componentType":5123,"count":108,"min":[0],"max":[32],"type":"SCALAR","bufferView":2,"byteOffset":3724},{"name":"habunake-Mesh_8_positions","componentType":5126,"count":18,"min":[-1.6825300455093384,5.274479866027832,-8.836429595947266],"max":[1.6692299842834473,6.452380180358887,-8.08450984954834],"type":"VEC3","bufferView":0,"byteOffset":6888},{"name":"habunake-Mesh_8_texcoords","componentType":5126,"count":18,"min":[0.008934999816119671,0.006943999789655209],"max":[0.9861109852790833,0.2465279996395111],"type":"VEC2","bufferView":1,"byteOffset":4592},{"name":"habunake-Mesh_8_indices","componentType":5123,"count":42,"min":[0],"max":[17],"type":"SCALAR","bufferView":2,"byteOffset":3940},{"name":"habunake-Mesh_9_positions","componentType":5126,"count":26,"min":[-1.571179986000061,4.308460235595703,-7.992090225219727],"max":[1.5688999891281128,8.17296028137207,-6.196969985961914],"type":"VEC3","bufferView":0,"byteOffset":7104},{"name":"habunake-Mesh_9_texcoords","componentType":5126,"count":26,"min":[0.0034719998948276043,0.0034719998948276043],"max":[0.9858919978141785,1],"type":"VEC2","bufferView":1,"byteOffset":4736},{"name":"habunake-Mesh_9_indices","componentType":5123,"count":96,"min":[0],"max":[25],"type":"SCALAR","bufferView":2,"byteOffset":4024}],"asset":{"generator":"obj2gltf","version":"2.0"},"buffers":[{"name":"BR_Seviper-Shiny01","byteLength":217716,"uri":"data:application/octet-stream;base64,"}],"bufferViews":[{"name":"bufferView_0","buffer":0,"byteLength":7416,"byteOffset":0,"byteStride":12,"target":34962},{"name":"bufferView_1","buffer":0,"byteLength":4944,"byteOffset":7416,"byteStride":8,"target":34962},{"name":"bufferView_2","buffer":0,"byteLength":4216,"byteOffset":12360,"target":34963},{"buffer":0,"byteOffset":16576,"byteLength":8210},{"buffer":0,"byteOffset":24786,"byteLength":274},{"buffer":0,"byteOffset":25060,"byteLength":16402},{"buffer":0,"byteOffset":41462,"byteLength":16402},{"buffer":0,"byteOffset":57864,"byteLength":65554},{"buffer":0,"byteOffset":123418,"byteLength":16402},{"buffer":0,"byteOffset":139820,"byteLength":32786},{"buffer":0,"byteOffset":172606,"byteLength":4114},{"buffer":0,"byteOffset":176720,"byteLength":32786},{"buffer":0,"byteOffset":209506,"byteLength":8210}],"images":[{"name":"habunake_1_0","mimeType":"image/x-tga","bufferView":3},{"name":"habunake_1_1","mimeType":"image/x-tga","bufferView":4},{"name":"habunake_1_2","mimeType":"image/x-tga","bufferView":5},{"name":"habunake_1_3","mimeType":"image/x-tga","bufferView":6},{"name":"habunake_1_4","mimeType":"image/x-tga","bufferView":7},{"name":"habunake_1_5","mimeType":"image/x-tga","bufferView":8},{"name":"habunake_1_6","mimeType":"image/x-tga","bufferView":9},{"name":"habunake_1_7","mimeType":"image/x-tga","bufferView":10},{"name":"habunake_1_8","mimeType":"image/x-tga","bufferView":11},{"name":"habunake_1_9","mimeType":"image/x-tga","bufferView":12}],"materials":[{"name":"mat_0","pbrMetallicRoughness":{"baseColorTexture":{"index":0},"baseColorFactor":[1,1,1,1],"metallicFactor":0,"roughnessFactor":0.903921569},"emissiveFactor":[0,0,0],"alphaMode":"BLEND","doubleSided":true},{"name":"mat_1","pbrMetallicRoughness":{"baseColorTexture":{"index":1},"baseColorFactor":[1,1,1,1],"metallicFactor":0,"roughnessFactor":0.903921569},"emissiveFactor":[0,0,0],"alphaMode":"BLEND","doubleSided":true},{"name":"mat_2","pbrMetallicRoughness":{"baseColorTexture":{"index":2},"baseColorFactor":[1,1,1,1],"metallicFactor":0,"roughnessFactor":0.903921569},"emissiveFactor":[0,0,0],"alphaMode":"BLEND","doubleSided":true},{"name":"mat_3","pbrMetallicRoughness":{"baseColorTexture":{"index":3},"baseColorFactor":[1,1,1,1],"metallicFactor":0,"roughnessFactor":0.903921569},"emissiveFactor":[0,0,0],"alphaMode":"BLEND","doubleSided":true},{"name":"mat_4","pbrMetallicRoughness":{"baseColorTexture":{"index":4},"baseColorFactor":[1,1,1,1],"metallicFactor":0,"roughnessFactor":0.903921569},"emissiveFactor":[0,0,0],"alphaMode":"BLEND","doubleSided":true},{"name":"mat_5","pbrMetallicRoughness":{"baseColorTexture":{"index":5},"baseColorFactor":[1,1,1,1],"metallicFactor":0,"roughnessFactor":0.903921569},"emissiveFactor":[0,0,0],"alphaMode":"BLEND","doubleSided":true},{"name":"mat_6","pbrMetallicRoughness":{"baseColorTexture":{"index":6},"baseColorFactor":[1,1,1,1],"metallicFactor":0,"roughnessFactor":0.903921569},"emissiveFactor":[0,0,0],"alphaMode":"BLEND","doubleSided":true},{"name":"mat_7","pbrMetallicRoughness":{"baseColorTexture":{"index":7},"baseColorFactor":[1,1,1,1],"metallicFactor":0,"roughnessFactor":0.903921569},"emissiveFactor":[0,0,0],"alphaMode":"BLEND","doubleSided":true},{"name":"mat_8","pbrMetallicRoughness":{"baseColorTexture":{"index":8},"baseColorFactor":[1,1,1,1],"metallicFactor":0,"roughnessFactor":0.903921569},"emissiveFactor":[0,0,0],"alphaMode":"BLEND","doubleSided":true},{"name":"mat_9","pbrMetallicRoughness":{"baseColorTexture":{"index":9},"baseColorFactor":[1,1,1,1],"metallicFactor":0,"roughnessFactor":0.903921569},"emissiveFactor":[0,0,0],"alphaMode":"BLEND","doubleSided":true}],"meshes":[{"name":"habunake-Mesh","primitives":[{"attributes":{"POSITION":0,"TEXCOORD_0":1},"indices":2,"material":0,"mode":4},{"attributes":{"POSITION":3,"TEXCOORD_0":4},"indices":5,"material":1,"mode":4},{"attributes":{"POSITION":6,"TEXCOORD_0":7},"indices":8,"material":2,"mode":4},{"attributes":{"POSITION":9,"TEXCOORD_0":10},"indices":11,"material":3,"mode":4},{"attributes":{"POSITION":12,"TEXCOORD_0":13},"indices":14,"material":4,"mode":4},{"attributes":{"POSITION":15,"TEXCOORD_0":16},"indices":17,"material":5,"mode":4},{"attributes":{"POSITION":18,"TEXCOORD_0":19},"indices":20,"material":6,"mode":4},{"attributes":{"POSITION":21,"TEXCOORD_0":22},"indices":23,"material":7,"mode":4},{"attributes":{"POSITION":24,"TEXCOORD_0":25},"indices":26,"material":8,"mode":4},{"attributes":{"POSITION":27,"TEXCOORD_0":28},"indices":29,"material":9,"mode":4}]}],"nodes":[{"name":"habunake","mesh":0}],"samplers":[{"wrapS":10497,"wrapT":10497}],"scene":0,"scenes":[{"nodes":[0]}],"textures":[{"name":"habunake_1_0","sampler":0,"source":0},{"name":"habunake_1_1","sampler":0,"source":1},{"name":"habunake_1_2","sampler":0,"source":2},{"name":"habunake_1_3","sampler":0,"source":3},{"name":"habunake_1_4","sampler":0,"source":4},{"name":"habunake_1_5","sampler":0,"source":5},{"name":"habunake_1_6","sampler":0,"source":6},{"name":"habunake_1_7","sampler":0,"source":7},{"name":"habunake_1_8","sampler":0,"source":8},{"name":"habunake_1_9","sampler":0,"source":9}]}