{"accessors":[{"name":"Lunatone_1_0_positions","componentType":5126,"count":6540,"min":[-21.485885620117188,-0.5798850059509277,-51.49821090698242],"max":[21.48562240600586,100.58000183105469,42.525394439697266],"type":"VEC3","bufferView":0,"byteOffset":0},{"name":"Lunatone_1_0_normals","componentType":5126,"count":6540,"min":[-0.000004000000899395673,-0.9998172521591187,-1],"max":[0.9912441968917847,0.9953131675720215,0.998019278049469],"type":"VEC3","bufferView":1,"byteOffset":0},{"name":"Lunatone_1_0_texcoords","componentType":5126,"count":6540,"min":[0.0078119998797774315,0.011243999935686588],"max":[0.9921879768371582,0.9887599945068359],"type":"VEC2","bufferView":2,"byteOffset":0},{"name":"Lunatone_1_0_indices","componentType":5123,"count":6540,"min":[0],"max":[6539],"type":"SCALAR","bufferView":3,"byteOffset":0},{"name":"Lunatone_1_1_positions","componentType":5126,"count":768,"min":[-19.229930877685547,42.057735443115234,-24.28411102294922],"max":[19.22966766357422,57.942256927490234,-8.493792533874512],"type":"VEC3","bufferView":0,"byteOffset":78480},{"name":"Lunatone_1_1_normals","componentType":5126,"count":768,"min":[-0.0000029999994239915395,-0.9571008682250977,-0.9715120792388916],"max":[0.9895755052566528,0.8044178485870361,0.5242211222648621],"type":"VEC3","bufferView":1,"byteOffset":78480},{"name":"Lunatone_1_1_texcoords","componentType":5126,"count":768,"min":[0.007919000461697578,-0.9918400049209595],"max":[0.4920800030231476,-0.7581999897956848],"type":"VEC2","bufferView":2,"byteOffset":52320},{"name":"Lunatone_1_1_indices","componentType":5123,"count":768,"min":[0],"max":[767],"type":"SCALAR","bufferView":3,"byteOffset":13080}],"asset":{"generator":"obj2gltf","version":"2.0"},"buffers":[{"name":"XY_Lunatone","byteLength":330732,"uri":"data:application/octet-stream;base64,"}],"bufferViews":[{"name":"bufferView_0","buffer":0,"byteLength":87696,"byteOffset":0,"byteStride":12,"target":34962},{"name":"bufferView_1","buffer":0,"byteLength":87696,"byteOffset":87696,"byteStride":12,"target":34962},{"name":"bufferView_2","buffer":0,"byteLength":58464,"byteOffset":175392,"byteStride":8,"target":34962},{"name":"bufferView_3","buffer":0,"byteLength":14616,"byteOffset":233856,"target":34963},{"buffer":0,"byteOffset":248472,"byteLength":57460},{"buffer":0,"byteOffset":305932,"byteLength":24800}],"images":[{"name":"pm0337_00_Body1","mimeType":"image/png","bufferView":4},{"name":"pm0337_00_Eye1","mimeType":"image/png","bufferView":5}],"materials":[{"name":"Material__35","pbrMetallicRoughness":{"baseColorTexture":{"index":0},"baseColorFactor":[1,1,1,1],"metallicFactor":0,"roughnessFactor":0.998},"emissiveFactor":[0,0,0],"alphaMode":"OPAQUE","doubleSided":false},{"name":"Material__36","pbrMetallicRoughness":{"baseColorTexture":{"index":1},"baseColorFactor":[1,1,1,1],"metallicFactor":0,"roughnessFactor":0.998},"emissiveFactor":[0,0,0],"alphaMode":"OPAQUE","doubleSided":false}],"meshes":[{"name":"Lunatone_1","primitives":[{"attributes":{"POSITION":0,"NORMAL":1,"TEXCOORD_0":2},"indices":3,"material":0,"mode":4},{"attributes":{"POSITION":4,"NORMAL":5,"TEXCOORD_0":6},"indices":7,"material":1,"mode":4}]}],"nodes":[{"name":"Lunatone","mesh":0}],"samplers":[{"wrapS":10497,"wrapT":10497}],"scene":0,"scenes":[{"nodes":[0]}],"textures":[{"name":"pm0337_00_Body1","sampler":0,"source":0},{"name":"pm0337_00_Eye1","sampler":0,"source":1}]}