{"accessors":[{"name":"lunatone-Mesh_0_positions","componentType":5126,"count":218,"min":[-2.367530107498169,-5.313267230987549,-10],"max":[2.367530107498169,4.755282878875732,0],"type":"VEC3","bufferView":0,"byteOffset":0},{"name":"lunatone-Mesh_0_texcoords","componentType":5126,"count":218,"min":[0.07142899930477142,0.005386000033468008],"max":[1.0696500539779663,0.994608998298645],"type":"VEC2","bufferView":1,"byteOffset":0},{"name":"lunatone-Mesh_0_indices","componentType":5123,"count":960,"min":[0],"max":[217],"type":"SCALAR","bufferView":2,"byteOffset":0},{"name":"lunatone-Mesh_1_positions","componentType":5126,"count":50,"min":[-2.367530107498169,-3.438007116317749,-6.50609016418457],"max":[2.367530107498169,-0.2694770097732544,-3.4939000606536865],"type":"VEC3","bufferView":0,"byteOffset":2616},{"name":"lunatone-Mesh_1_texcoords","componentType":5126,"count":50,"min":[0.1862490028142929,0.34939101338386536],"max":[0.500944972038269,0.6506100296974182],"type":"VEC2","bufferView":1,"byteOffset":1744},{"name":"lunatone-Mesh_1_indices","componentType":5123,"count":156,"min":[0],"max":[49],"type":"SCALAR","bufferView":2,"byteOffset":1920}],"asset":{"generator":"obj2gltf","version":"2.0"},"buffers":[{"name":"BR_Lunatone-Shiny01","byteLength":74188,"uri":"data:application/octet-stream;base64,"}],"bufferViews":[{"name":"bufferView_0","buffer":0,"byteLength":3216,"byteOffset":0,"byteStride":12,"target":34962},{"name":"bufferView_1","buffer":0,"byteLength":2144,"byteOffset":3216,"byteStride":8,"target":34962},{"name":"bufferView_2","buffer":0,"byteLength":2232,"byteOffset":5360,"target":34963},{"buffer":0,"byteOffset":7592,"byteLength":65554},{"buffer":0,"byteOffset":73146,"byteLength":1042}],"images":[{"name":"lunatone_1_0","mimeType":"image/x-tga","bufferView":3},{"name":"lunatone_1_2","mimeType":"image/x-tga","bufferView":4}],"materials":[{"name":"mat_0","pbrMetallicRoughness":{"baseColorTexture":{"index":0},"baseColorFactor":[1,1,1,1],"metallicFactor":0,"roughnessFactor":0.903921569},"emissiveFactor":[0,0,0],"alphaMode":"BLEND","doubleSided":true},{"name":"mat_1","pbrMetallicRoughness":{"baseColorTexture":{"index":1},"baseColorFactor":[1,1,1,1],"metallicFactor":0,"roughnessFactor":0.903921569},"emissiveFactor":[0,0,0],"alphaMode":"BLEND","doubleSided":true}],"meshes":[{"name":"lunatone-Mesh","primitives":[{"attributes":{"POSITION":0,"TEXCOORD_0":1},"indices":2,"material":0,"mode":4},{"attributes":{"POSITION":3,"TEXCOORD_0":4},"indices":5,"material":1,"mode":4}]}],"nodes":[{"name":"lunatone","mesh":0}],"samplers":[{"wrapS":10497,"wrapT":10497}],"scene":0,"scenes":[{"nodes":[0]}],"textures":[{"name":"lunatone_1_0","sampler":0,"source":0},{"name":"lunatone_1_2","sampler":0,"source":1}]}