{"accessors":[{"name":"Solrock_1_0_positions","componentType":5126,"count":5514,"min":[-29.383621215820312,32.99015426635742,-30.989002227783203],"max":[30.245283126831055,86.18930053710938,32.10639953613281],"type":"VEC3","bufferView":0,"byteOffset":0},{"name":"Solrock_1_0_normals","componentType":5126,"count":5514,"min":[-0.9898815751075745,-0.9994035363197327,-1],"max":[0.8149340152740479,9.999996564147295e-7,0.8240659236907959],"type":"VEC3","bufferView":1,"byteOffset":0},{"name":"Solrock_1_0_texcoords","componentType":5126,"count":5514,"min":[0,0.00558000011369586],"max":[1,0.9947829842567444],"type":"VEC2","bufferView":2,"byteOffset":0},{"name":"Solrock_1_0_indices","componentType":5123,"count":5514,"min":[0],"max":[5513],"type":"SCALAR","bufferView":3,"byteOffset":0},{"name":"Solrock_1_1_positions","componentType":5126,"count":384,"min":[-26.156497955322266,45.30051803588867,10.07089614868164],"max":[26.15650177001953,74.07308197021484,28.79070281982422],"type":"VEC3","bufferView":0,"byteOffset":66168},{"name":"Solrock_1_1_normals","componentType":5126,"count":384,"min":[-0.9440615177154541,-0.9935088753700256,-0.8240651488304138],"max":[0.000003999999080406269,-0.30057185888290405,0.8240659236907959],"type":"VEC3","bufferView":1,"byteOffset":66168},{"name":"Solrock_1_1_texcoords","componentType":5126,"count":384,"min":[0.007813000120222569,-1.9921900033950806],"max":[0.49219000339508057,-1.7578099966049194],"type":"VEC2","bufferView":2,"byteOffset":44112},{"name":"Solrock_1_1_indices","componentType":5123,"count":384,"min":[0],"max":[383],"type":"SCALAR","bufferView":3,"byteOffset":11028},{"name":"Solrock_1_2_positions","componentType":5126,"count":9228,"min":[-66.27269744873047,0.041405998170375824,-18.58681869506836],"max":[65.50779724121094,119.91999053955078,16.706409454345703],"type":"VEC3","bufferView":0,"byteOffset":70776},{"name":"Solrock_1_2_normals","componentType":5126,"count":9228,"min":[-0.9898815751075745,-0.680203914642334,-1],"max":[0.9898815751075745,0.9994029998779297,1],"type":"VEC3","bufferView":1,"byteOffset":70776},{"name":"Solrock_1_2_texcoords","componentType":5126,"count":9228,"min":[0.007813000120222569,-0.989139974117279],"max":[0.9888169765472412,-0.007309999782592058],"type":"VEC2","bufferView":2,"byteOffset":47184},{"name":"Solrock_1_2_indices","componentType":5123,"count":9228,"min":[0],"max":[9227],"type":"SCALAR","bufferView":3,"byteOffset":11796}],"asset":{"generator":"obj2gltf","version":"2.0"},"buffers":[{"name":"XY_Solrock","byteLength":615276,"uri":"data:application/octet-stream;base64,"}],"bufferViews":[{"name":"bufferView_0","buffer":0,"byteLength":181512,"byteOffset":0,"byteStride":12,"target":34962},{"name":"bufferView_1","buffer":0,"byteLength":181512,"byteOffset":181512,"byteStride":12,"target":34962},{"name":"bufferView_2","buffer":0,"byteLength":121008,"byteOffset":363024,"byteStride":8,"target":34962},{"name":"bufferView_3","buffer":0,"byteLength":30252,"byteOffset":484032,"target":34963},{"buffer":0,"byteOffset":514284,"byteLength":31425},{"buffer":0,"byteOffset":545709,"byteLength":27152},{"buffer":0,"byteOffset":572861,"byteLength":42414}],"images":[{"name":"pm0338_00_BodyA1","mimeType":"image/png","bufferView":4},{"name":"pm0338_00_Eye1","mimeType":"image/png","bufferView":5},{"name":"pm0338_00_BodyB1","mimeType":"image/png","bufferView":6}],"materials":[{"name":"Material__59","pbrMetallicRoughness":{"baseColorTexture":{"index":0},"baseColorFactor":[1,1,1,1],"metallicFactor":0,"roughnessFactor":0.998},"emissiveFactor":[0,0,0],"alphaMode":"OPAQUE","doubleSided":false},{"name":"Material__60","pbrMetallicRoughness":{"baseColorTexture":{"index":1},"baseColorFactor":[1,1,1,1],"metallicFactor":0,"roughnessFactor":0.998},"emissiveFactor":[0,0,0],"alphaMode":"OPAQUE","doubleSided":false},{"name":"Material__61","pbrMetallicRoughness":{"baseColorTexture":{"index":2},"baseColorFactor":[1,1,1,1],"metallicFactor":0,"roughnessFactor":0.998},"emissiveFactor":[0,0,0],"alphaMode":"OPAQUE","doubleSided":false}],"meshes":[{"name":"Solrock_1","primitives":[{"attributes":{"POSITION":0,"NORMAL":1,"TEXCOORD_0":2},"indices":3,"material":0,"mode":4},{"attributes":{"POSITION":4,"NORMAL":5,"TEXCOORD_0":6},"indices":7,"material":1,"mode":4},{"attributes":{"POSITION":8,"NORMAL":9,"TEXCOORD_0":10},"indices":11,"material":2,"mode":4}]}],"nodes":[{"name":"Solrock","mesh":0}],"samplers":[{"wrapS":10497,"wrapT":10497}],"scene":0,"scenes":[{"nodes":[0]}],"textures":[{"name":"pm0338_00_BodyA1","sampler":0,"source":0},{"name":"pm0338_00_Eye1","sampler":0,"source":1},{"name":"pm0338_00_BodyB1","sampler":0,"source":2}]}