{"accessors":[{"name":"solrock-Mesh_0_positions","componentType":5126,"count":112,"min":[-2.47475004196167,-2.602109909057617,-8.518228530883789],"max":[2.47475004196167,2.602109909057617,-3.31400990486145],"type":"VEC3","bufferView":0,"byteOffset":0},{"name":"solrock-Mesh_0_texcoords","componentType":5126,"count":112,"min":[0.05563399940729141,0.022326000034809113],"max":[1.4716099500656128,0.9776740074157715],"type":"VEC2","bufferView":1,"byteOffset":0},{"name":"solrock-Mesh_0_indices","componentType":5123,"count":540,"min":[0],"max":[111],"type":"SCALAR","bufferView":2,"byteOffset":0},{"name":"solrock-Mesh_1_positions","componentType":5126,"count":101,"min":[-1.9232800006866455,-2.8362998962402344,-8.433589935302734],"max":[2.8345799446105957,2.9011800289154053,-3.6684699058532715],"type":"VEC3","bufferView":0,"byteOffset":1344},{"name":"solrock-Mesh_1_texcoords","componentType":5126,"count":101,"min":[0.10386800020933151,0.016263000667095184],"max":[1,0.9318910241127014],"type":"VEC2","bufferView":1,"byteOffset":896},{"name":"solrock-Mesh_1_indices","componentType":5123,"count":339,"min":[0],"max":[100],"type":"SCALAR","bufferView":2,"byteOffset":1080}],"asset":{"generator":"obj2gltf","version":"2.0"},"buffers":[{"name":"BR_Solrock-Shiny01","byteLength":77736,"uri":"data:application/octet-stream;base64,"}],"bufferViews":[{"name":"bufferView_0","buffer":0,"byteLength":2556,"byteOffset":0,"byteStride":12,"target":34962},{"name":"bufferView_1","buffer":0,"byteLength":1704,"byteOffset":2556,"byteStride":8,"target":34962},{"name":"bufferView_2","buffer":0,"byteLength":1760,"byteOffset":4260,"target":34963},{"buffer":0,"byteOffset":6020,"byteLength":65554},{"buffer":0,"byteOffset":71574,"byteLength":6162}],"images":[{"name":"solrock_1_0","mimeType":"image/x-tga","bufferView":3},{"name":"solrock_1_3","mimeType":"image/x-tga","bufferView":4}],"materials":[{"name":"mat_0","pbrMetallicRoughness":{"baseColorTexture":{"index":0},"baseColorFactor":[1,1,1,1],"metallicFactor":0,"roughnessFactor":0.903921569},"emissiveFactor":[0,0,0],"alphaMode":"BLEND","doubleSided":true},{"name":"mat_1","pbrMetallicRoughness":{"baseColorTexture":{"index":1},"baseColorFactor":[1,1,1,1],"metallicFactor":0,"roughnessFactor":0.903921569},"emissiveFactor":[0,0,0],"alphaMode":"BLEND","doubleSided":true}],"meshes":[{"name":"solrock-Mesh","primitives":[{"attributes":{"POSITION":0,"TEXCOORD_0":1},"indices":2,"material":0,"mode":4},{"attributes":{"POSITION":3,"TEXCOORD_0":4},"indices":5,"material":1,"mode":4}]}],"nodes":[{"name":"solrock","mesh":0}],"samplers":[{"wrapS":10497,"wrapT":10497}],"scene":0,"scenes":[{"nodes":[0]}],"textures":[{"name":"solrock_1_0","sampler":0,"source":0},{"name":"solrock_1_3","sampler":0,"source":1}]}