{"accessors":[{"name":"dojoach-Mesh_0_positions","componentType":5126,"count":24,"min":[-0.05541599914431572,0.08287099748849869,-2.573662042617798],"max":[0.05541599914431572,0.5637329816818237,-1.6929370164871216],"type":"VEC3","bufferView":0,"byteOffset":0},{"name":"dojoach-Mesh_0_texcoords","componentType":5126,"count":24,"min":[0,0],"max":[1,1.125],"type":"VEC2","bufferView":1,"byteOffset":0},{"name":"dojoach-Mesh_0_indices","componentType":5123,"count":120,"min":[0],"max":[23],"type":"SCALAR","bufferView":2,"byteOffset":0},{"name":"dojoach-Mesh_1_positions","componentType":5126,"count":180,"min":[-0.38817399740219116,-1.5104440450668335,-1.9195330142974854],"max":[0.38817399740219116,1.780434012413025,-1.0918810367584229],"type":"VEC3","bufferView":0,"byteOffset":288},{"name":"dojoach-Mesh_1_texcoords","componentType":5126,"count":180,"min":[0,-0.003120000008493662],"max":[0.9832220077514648,1.0031249523162842],"type":"VEC2","bufferView":1,"byteOffset":192},{"name":"dojoach-Mesh_1_indices","componentType":5123,"count":918,"min":[0],"max":[179],"type":"SCALAR","bufferView":2,"byteOffset":240},{"name":"dojoach-Mesh_2_positions","componentType":5126,"count":66,"min":[-0.26457300782203674,1.6860510110855103,-1.5832350254058838],"max":[0.26457300782203674,1.9603040218353271,-1.1730079650878906],"type":"VEC3","bufferView":0,"byteOffset":2448},{"name":"dojoach-Mesh_2_texcoords","componentType":5126,"count":66,"min":[-0.004987999796867371,0.00937500037252903],"max":[0.9959620237350464,0.996874988079071],"type":"VEC2","bufferView":1,"byteOffset":1632},{"name":"dojoach-Mesh_2_indices","componentType":5123,"count":324,"min":[0],"max":[65],"type":"SCALAR","bufferView":2,"byteOffset":2076},{"name":"dojoach-Mesh_3_positions","componentType":5126,"count":11,"min":[-0.01696000061929226,1.7853449583053589,-1.3648669719696045],"max":[0.01696000061929226,1.9359910488128662,-1.33371901512146],"type":"VEC3","bufferView":0,"byteOffset":3240},{"name":"dojoach-Mesh_3_texcoords","componentType":5126,"count":11,"min":[0,9.999999974752427e-7],"max":[1,0.9999949932098389],"type":"VEC2","bufferView":1,"byteOffset":2160},{"name":"dojoach-Mesh_3_indices","componentType":5123,"count":30,"min":[0],"max":[10],"type":"SCALAR","bufferView":2,"byteOffset":2724},{"name":"dojoach-Mesh_4_positions","componentType":5126,"count":31,"min":[-0.11960899829864502,1.8266539573669434,-2.481264114379883],"max":[0.11960899829864502,1.8679640293121338,-1.5336329936981201],"type":"VEC3","bufferView":0,"byteOffset":3372},{"name":"dojoach-Mesh_4_texcoords","componentType":5126,"count":31,"min":[0.000018000000636675395,0],"max":[1,1],"type":"VEC2","bufferView":1,"byteOffset":2248},{"name":"dojoach-Mesh_4_indices","componentType":5123,"count":153,"min":[0],"max":[30],"type":"SCALAR","bufferView":2,"byteOffset":2784},{"name":"dojoach-Mesh_5_positions","componentType":5126,"count":26,"min":[-0.33397001028060913,1.71956205368042,-1.3014609813690186],"max":[0.33397001028060913,1.758681058883667,-0.9904320240020752],"type":"VEC3","bufferView":0,"byteOffset":3744},{"name":"dojoach-Mesh_5_texcoords","componentType":5126,"count":26,"min":[0,0],"max":[1,1],"type":"VEC2","bufferView":1,"byteOffset":2496},{"name":"dojoach-Mesh_5_indices","componentType":5123,"count":120,"min":[0],"max":[25],"type":"SCALAR","bufferView":2,"byteOffset":3092},{"name":"dojoach-Mesh_6_positions","componentType":5126,"count":30,"min":[-0.0441260002553463,-0.8984439969062805,-1.3413699865341187],"max":[0.0441260002553463,-0.07505399733781815,-0.776075005531311],"type":"VEC3","bufferView":0,"byteOffset":4056},{"name":"dojoach-Mesh_6_texcoords","componentType":5126,"count":30,"min":[0,0],"max":[1,1],"type":"VEC2","bufferView":1,"byteOffset":2704},{"name":"dojoach-Mesh_6_indices","componentType":5123,"count":144,"min":[0],"max":[29],"type":"SCALAR","bufferView":2,"byteOffset":3332},{"name":"dojoach-Mesh_7_positions","componentType":5126,"count":30,"min":[-0.018386999145150185,-2.1591498851776123,-2.076975107192993],"max":[0.018386999145150185,-1.1709150075912476,-0.9255099892616272],"type":"VEC3","bufferView":0,"byteOffset":4416},{"name":"dojoach-Mesh_7_texcoords","componentType":5126,"count":30,"min":[0.026820000261068344,0.030347000807523727],"max":[0.9814550280570984,0.9771789908409119],"type":"VEC2","bufferView":1,"byteOffset":2944},{"name":"dojoach-Mesh_7_indices","componentType":5123,"count":84,"min":[0],"max":[29],"type":"SCALAR","bufferView":2,"byteOffset":3620},{"name":"dojoach-Mesh_8_positions","componentType":5126,"count":12,"min":[-0.2731750011444092,1.5526700019836426,-1.7765560150146484],"max":[0.2731750011444092,1.763092041015625,-1.4851080179214478],"type":"VEC3","bufferView":0,"byteOffset":4776},{"name":"dojoach-Mesh_8_texcoords","componentType":5126,"count":12,"min":[-0.19176000356674194,-0.061159998178482056],"max":[0.83992999792099,0.18499299883842468],"type":"VEC2","bufferView":1,"byteOffset":3184},{"name":"dojoach-Mesh_8_indices","componentType":5123,"count":24,"min":[0],"max":[11],"type":"SCALAR","bufferView":2,"byteOffset":3788}],"asset":{"generator":"obj2gltf","version":"2.0"},"buffers":[{"name":"BR_Barboach-Shiny01","byteLength":194472,"uri":"data:application/octet-stream;base64,"}],"bufferViews":[{"name":"bufferView_0","buffer":0,"byteLength":4920,"byteOffset":0,"byteStride":12,"target":34962},{"name":"bufferView_1","buffer":0,"byteLength":3280,"byteOffset":4920,"byteStride":8,"target":34962},{"name":"bufferView_2","buffer":0,"byteLength":3836,"byteOffset":8200,"target":34963},{"buffer":0,"byteOffset":12036,"byteLength":4114},{"buffer":0,"byteOffset":16150,"byteLength":65554},{"buffer":0,"byteOffset":81704,"byteLength":4114},{"buffer":0,"byteOffset":85818,"byteLength":4114},{"buffer":0,"byteOffset":89932,"byteLength":1042},{"buffer":0,"byteOffset":90974,"byteLength":1042},{"buffer":0,"byteOffset":92016,"byteLength":4114},{"buffer":0,"byteOffset":96130,"byteLength":16402},{"buffer":0,"byteOffset":112532,"byteLength":81938}],"images":[{"name":"dojoach_1_0","mimeType":"image/x-tga","bufferView":3},{"name":"dojoach_1_2","mimeType":"image/x-tga","bufferView":4},{"name":"dojoach_1_4","mimeType":"image/x-tga","bufferView":5},{"name":"dojoach_1_6","mimeType":"image/x-tga","bufferView":6},{"name":"dojoach_1_8","mimeType":"image/x-tga","bufferView":7},{"name":"dojoach_1_10","mimeType":"image/x-tga","bufferView":8},{"name":"dojoach_1_12","mimeType":"image/x-tga","bufferView":9},{"name":"dojoach_1_14","mimeType":"image/x-tga","bufferView":10},{"name":"dojoach_1_16","mimeType":"image/x-tga","bufferView":11}],"materials":[{"name":"mat_1","pbrMetallicRoughness":{"baseColorTexture":{"index":0},"baseColorFactor":[1,1,1,1],"metallicFactor":0,"roughnessFactor":0.903921569},"emissiveFactor":[0,0,0],"alphaMode":"BLEND","doubleSided":true},{"name":"mat_2","pbrMetallicRoughness":{"baseColorTexture":{"index":1},"baseColorFactor":[1,1,1,1],"metallicFactor":0,"roughnessFactor":0.903921569},"emissiveFactor":[0,0,0],"alphaMode":"BLEND","doubleSided":true},{"name":"mat_3","pbrMetallicRoughness":{"baseColorTexture":{"index":2},"baseColorFactor":[1,1,1,1],"metallicFactor":0,"roughnessFactor":0.903921569},"emissiveFactor":[0,0,0],"alphaMode":"BLEND","doubleSided":true},{"name":"mat_4","pbrMetallicRoughness":{"baseColorTexture":{"index":3},"baseColorFactor":[1,1,1,1],"metallicFactor":0,"roughnessFactor":0.903921569},"emissiveFactor":[0,0,0],"alphaMode":"BLEND","doubleSided":true},{"name":"mat_5","pbrMetallicRoughness":{"baseColorTexture":{"index":4},"baseColorFactor":[1,1,1,1],"metallicFactor":0,"roughnessFactor":0.903921569},"emissiveFactor":[0,0,0],"alphaMode":"BLEND","doubleSided":true},{"name":"mat_6","pbrMetallicRoughness":{"baseColorTexture":{"index":5},"baseColorFactor":[1,1,1,1],"metallicFactor":0,"roughnessFactor":0.903921569},"emissiveFactor":[0,0,0],"alphaMode":"BLEND","doubleSided":true},{"name":"mat_7","pbrMetallicRoughness":{"baseColorTexture":{"index":6},"baseColorFactor":[1,1,1,1],"metallicFactor":0,"roughnessFactor":0.903921569},"emissiveFactor":[0,0,0],"alphaMode":"BLEND","doubleSided":true},{"name":"mat_8","pbrMetallicRoughness":{"baseColorTexture":{"index":7},"baseColorFactor":[1,1,1,1],"metallicFactor":0,"roughnessFactor":0.903921569},"emissiveFactor":[0,0,0],"alphaMode":"BLEND","doubleSided":true},{"name":"mat_9","pbrMetallicRoughness":{"baseColorTexture":{"index":8},"baseColorFactor":[1,1,1,1],"metallicFactor":0,"roughnessFactor":0.903921569},"emissiveFactor":[0,0,0],"alphaMode":"BLEND","doubleSided":true}],"meshes":[{"name":"dojoach-Mesh","primitives":[{"attributes":{"POSITION":0,"TEXCOORD_0":1},"indices":2,"material":0,"mode":4},{"attributes":{"POSITION":3,"TEXCOORD_0":4},"indices":5,"material":1,"mode":4},{"attributes":{"POSITION":6,"TEXCOORD_0":7},"indices":8,"material":2,"mode":4},{"attributes":{"POSITION":9,"TEXCOORD_0":10},"indices":11,"material":3,"mode":4},{"attributes":{"POSITION":12,"TEXCOORD_0":13},"indices":14,"material":4,"mode":4},{"attributes":{"POSITION":15,"TEXCOORD_0":16},"indices":17,"material":5,"mode":4},{"attributes":{"POSITION":18,"TEXCOORD_0":19},"indices":20,"material":6,"mode":4},{"attributes":{"POSITION":21,"TEXCOORD_0":22},"indices":23,"material":7,"mode":4},{"attributes":{"POSITION":24,"TEXCOORD_0":25},"indices":26,"material":8,"mode":4}]}],"nodes":[{"name":"dojoach","mesh":0}],"samplers":[{"wrapS":10497,"wrapT":10497}],"scene":0,"scenes":[{"nodes":[0]}],"textures":[{"name":"dojoach_1_0","sampler":0,"source":0},{"name":"dojoach_1_2","sampler":0,"source":1},{"name":"dojoach_1_4","sampler":0,"source":2},{"name":"dojoach_1_6","sampler":0,"source":3},{"name":"dojoach_1_8","sampler":0,"source":4},{"name":"dojoach_1_10","sampler":0,"source":5},{"name":"dojoach_1_12","sampler":0,"source":6},{"name":"dojoach_1_14","sampler":0,"source":7},{"name":"dojoach_1_16","sampler":0,"source":8}]}