{"accessors":[{"name":"namazun-Mesh_0_positions","componentType":5126,"count":105,"min":[-1.8074009418487549,-6.5009379386901855,-0.421750009059906],"max":[1.7324659824371338,3.185563087463379,1.3801599740982056],"type":"VEC3","bufferView":0,"byteOffset":0},{"name":"namazun-Mesh_0_texcoords","componentType":5126,"count":105,"min":[0.11080899834632874,0.06537800282239914],"max":[0.9698759913444519,0.5347129702568054],"type":"VEC2","bufferView":1,"byteOffset":0},{"name":"namazun-Mesh_0_indices","componentType":5123,"count":471,"min":[0],"max":[104],"type":"SCALAR","bufferView":2,"byteOffset":0},{"name":"namazun-Mesh_1_positions","componentType":5126,"count":18,"min":[-1.568503975868225,1.8429889678955078,-0.37037599086761475],"max":[1.56850004196167,3.0688250064849854,0.24190199375152588],"type":"VEC3","bufferView":0,"byteOffset":1260},{"name":"namazun-Mesh_1_texcoords","componentType":5126,"count":18,"min":[0.013392999768257141,0.0420369990170002],"max":[0.9910709857940674,0.898714005947113],"type":"VEC2","bufferView":1,"byteOffset":840},{"name":"namazun-Mesh_1_indices","componentType":5123,"count":66,"min":[0],"max":[17],"type":"SCALAR","bufferView":2,"byteOffset":944},{"name":"namazun-Mesh_2_positions","componentType":5126,"count":152,"min":[-3.067564010620117,-4.968070983886719,-2.034158945083618],"max":[3.0675599575042725,2.8369760513305664,1.6722309589385986],"type":"VEC3","bufferView":0,"byteOffset":1476},{"name":"namazun-Mesh_2_texcoords","componentType":5126,"count":152,"min":[0,0],"max":[1,1],"type":"VEC2","bufferView":1,"byteOffset":984},{"name":"namazun-Mesh_2_indices","componentType":5123,"count":789,"min":[0],"max":[151],"type":"SCALAR","bufferView":2,"byteOffset":1076},{"name":"namazun-Mesh_3_positions","componentType":5126,"count":38,"min":[-2.035949945449829,-4.976347923278809,0.12999899685382843],"max":[2.0360260009765625,2.6898200511932373,1.305981993675232],"type":"VEC3","bufferView":0,"byteOffset":3300},{"name":"namazun-Mesh_3_texcoords","componentType":5126,"count":38,"min":[0.16813600063323975,0.5690730214118958],"max":[0.8318520188331604,0.8984619975090027],"type":"VEC2","bufferView":1,"byteOffset":2200},{"name":"namazun-Mesh_3_indices","componentType":5123,"count":144,"min":[0],"max":[37],"type":"SCALAR","bufferView":2,"byteOffset":2656},{"name":"namazun-Mesh_4_positions","componentType":5126,"count":3,"min":[-0.10316500067710876,-1.318276047706604,-1.875756025314331],"max":[0.10316699743270874,-0.5465250015258789,-1.5436389446258545],"type":"VEC3","bufferView":0,"byteOffset":3756},{"name":"namazun-Mesh_4_texcoords","componentType":5126,"count":3,"min":[0.73164302110672,1.4140169620513916],"max":[1.3069299459457397,1.4374990463256836],"type":"VEC2","bufferView":1,"byteOffset":2504},{"name":"namazun-Mesh_4_indices","componentType":5123,"count":3,"min":[0],"max":[2],"type":"SCALAR","bufferView":2,"byteOffset":2944},{"name":"namazun-Mesh_5_positions","componentType":5126,"count":27,"min":[-1.5494890213012695,2.5324630737304688,0.33148398995399475],"max":[1.5494920015335083,2.8131630420684814,1.3853249549865723],"type":"VEC3","bufferView":0,"byteOffset":3792},{"name":"namazun-Mesh_5_texcoords","componentType":5126,"count":27,"min":[-0.20006899535655975,-0.45603999495506287],"max":[0.8664339780807495,0.9108110070228577],"type":"VEC2","bufferView":1,"byteOffset":2528},{"name":"namazun-Mesh_5_indices","componentType":5123,"count":99,"min":[0],"max":[26],"type":"SCALAR","bufferView":2,"byteOffset":2952}],"asset":{"generator":"obj2gltf","version":"2.0"},"buffers":[{"name":"BR_Whiscash-Shiny01","byteLength":38756,"uri":"data:application/octet-stream;base64,"}],"bufferViews":[{"name":"bufferView_0","buffer":0,"byteLength":4116,"byteOffset":0,"byteStride":12,"target":34962},{"name":"bufferView_1","buffer":0,"byteLength":2744,"byteOffset":4116,"byteStride":8,"target":34962},{"name":"bufferView_2","buffer":0,"byteLength":3152,"byteOffset":6860,"target":34963},{"buffer":0,"byteOffset":10012,"byteLength":4114},{"buffer":0,"byteOffset":14126,"byteLength":16402},{"buffer":0,"byteOffset":30528,"byteLength":4114},{"buffer":0,"byteOffset":34642,"byteLength":4114}],"images":[{"name":"namazun_1_0","mimeType":"image/x-tga","bufferView":3},{"name":"namazun_1_2","mimeType":"image/x-tga","bufferView":4},{"name":"namazun_1_4","mimeType":"image/x-tga","bufferView":5},{"name":"namazun_1_6","mimeType":"image/x-tga","bufferView":6}],"materials":[{"name":"mat_0","pbrMetallicRoughness":{"baseColorTexture":{"index":0},"baseColorFactor":[1,1,1,1],"metallicFactor":0,"roughnessFactor":0.903921569},"emissiveFactor":[0,0,0],"alphaMode":"BLEND","doubleSided":true},{"name":"mat_1","pbrMetallicRoughness":{"baseColorTexture":{"index":1},"baseColorFactor":[1,1,1,1],"metallicFactor":0,"roughnessFactor":0.903921569},"emissiveFactor":[0,0,0],"alphaMode":"BLEND","doubleSided":true},{"name":"mat_2","pbrMetallicRoughness":{"baseColorTexture":{"index":2},"baseColorFactor":[1,1,1,1],"metallicFactor":0,"roughnessFactor":0.903921569},"emissiveFactor":[0,0,0],"alphaMode":"BLEND","doubleSided":true},{"name":"mat_3","pbrMetallicRoughness":{"baseColorTexture":{"index":3},"baseColorFactor":[1,1,1,1],"metallicFactor":0,"roughnessFactor":0.903921569},"emissiveFactor":[0,0,0],"alphaMode":"BLEND","doubleSided":true},{"name":"mat_4","pbrMetallicRoughness":{"baseColorTexture":{"index":0},"baseColorFactor":[1,1,1,1],"metallicFactor":0,"roughnessFactor":0.903921569},"emissiveFactor":[0,0,0],"alphaMode":"BLEND","doubleSided":true},{"name":"mat_5","pbrMetallicRoughness":{"baseColorTexture":{"index":0},"baseColorFactor":[1,1,1,1],"metallicFactor":0,"roughnessFactor":0.903921569},"emissiveFactor":[0,0,0],"alphaMode":"BLEND","doubleSided":true}],"meshes":[{"name":"namazun-Mesh","primitives":[{"attributes":{"POSITION":0,"TEXCOORD_0":1},"indices":2,"material":0,"mode":4},{"attributes":{"POSITION":3,"TEXCOORD_0":4},"indices":5,"material":1,"mode":4},{"attributes":{"POSITION":6,"TEXCOORD_0":7},"indices":8,"material":2,"mode":4},{"attributes":{"POSITION":9,"TEXCOORD_0":10},"indices":11,"material":3,"mode":4},{"attributes":{"POSITION":12,"TEXCOORD_0":13},"indices":14,"material":4,"mode":4},{"attributes":{"POSITION":15,"TEXCOORD_0":16},"indices":17,"material":5,"mode":4}]}],"nodes":[{"name":"namazun","mesh":0}],"samplers":[{"wrapS":10497,"wrapT":10497}],"scene":0,"scenes":[{"nodes":[0]}],"textures":[{"name":"namazun_1_0","sampler":0,"source":0},{"name":"namazun_1_2","sampler":0,"source":1},{"name":"namazun_1_4","sampler":0,"source":2},{"name":"namazun_1_6","sampler":0,"source":3}]}