{"accessors":[{"name":"polygon0_1_0_positions","componentType":5126,"count":1100,"min":[-4.560823917388916,-9.999999974752427e-7,-3.9524240493774414],"max":[4.560823917388916,6.333016872406006,2.1376678943634033],"type":"VEC3","bufferView":0,"byteOffset":0},{"name":"polygon0_1_0_normals","componentType":5126,"count":1100,"min":[-0.9999868273735046,-0.9999868273735046,-0.9930395483970642],"max":[0.9999868273735046,0.9999817609786987,0.9978249669075012],"type":"VEC3","bufferView":1,"byteOffset":0},{"name":"polygon0_1_0_texcoords","componentType":5126,"count":1100,"min":[0.012389999814331532,0.003203999949619174],"max":[0.9932860136032104,0.9873660206794739],"type":"VEC2","bufferView":2,"byteOffset":0},{"name":"polygon0_1_0_indices","componentType":5123,"count":4170,"min":[0],"max":[1099],"type":"SCALAR","bufferView":3,"byteOffset":0},{"name":"polygon1_1_0_positions","componentType":5126,"count":82,"min":[-1.0907469987869263,3.680875062942505,1.038743019104004],"max":[1.0907469987869263,4.600870132446289,1.7800960540771484],"type":"VEC3","bufferView":0,"byteOffset":13200},{"name":"polygon1_1_0_normals","componentType":5126,"count":82,"min":[-0.9611518979072571,-0.9909542202949524,-0.984998345375061],"max":[0.9611518979072571,0.9969115257263184,0.9915959239006042],"type":"VEC3","bufferView":1,"byteOffset":13200},{"name":"polygon1_1_0_texcoords","componentType":5126,"count":82,"min":[-0.9936519861221313,0.003478999948129058],"max":[-0.5094599723815918,0.24627700448036194],"type":"VEC2","bufferView":2,"byteOffset":8800},{"name":"polygon1_1_0_indices","componentType":5123,"count":384,"min":[0],"max":[81],"type":"SCALAR","bufferView":3,"byteOffset":8340}],"asset":{"generator":"obj2gltf","version":"2.0"},"buffers":[{"name":"Corphish","byteLength":341880,"uri":"data:application/octet-stream;base64,"}],"bufferViews":[{"name":"bufferView_0","buffer":0,"byteLength":14184,"byteOffset":0,"byteStride":12,"target":34962},{"name":"bufferView_1","buffer":0,"byteLength":14184,"byteOffset":14184,"byteStride":12,"target":34962},{"name":"bufferView_2","buffer":0,"byteLength":9456,"byteOffset":28368,"byteStride":8,"target":34962},{"name":"bufferView_3","buffer":0,"byteLength":9108,"byteOffset":37824,"target":34963},{"buffer":0,"byteOffset":46932,"byteLength":196626},{"buffer":0,"byteOffset":243558,"byteLength":98322}],"images":[{"name":"HeiganiDh","mimeType":"image/x-tga","bufferView":4},{"name":"HeiganiEyeDh","mimeType":"image/x-tga","bufferView":5}],"materials":[{"name":"mat1","pbrMetallicRoughness":{"baseColorTexture":{"index":0},"baseColorFactor":[1,1,1,1],"metallicFactor":0,"roughnessFactor":0.99},"emissiveFactor":[0,0,0],"alphaMode":"OPAQUE","doubleSided":false},{"name":"mat2","pbrMetallicRoughness":{"baseColorTexture":{"index":1},"baseColorFactor":[1,1,1,1],"metallicFactor":0,"roughnessFactor":0.99},"emissiveFactor":[0,0,0],"alphaMode":"OPAQUE","doubleSided":false}],"meshes":[{"name":"polygon0_1","primitives":[{"attributes":{"POSITION":0,"NORMAL":1,"TEXCOORD_0":2},"indices":3,"material":0,"mode":4}]},{"name":"polygon1_1","primitives":[{"attributes":{"POSITION":4,"NORMAL":5,"TEXCOORD_0":6},"indices":7,"material":1,"mode":4}]}],"nodes":[{"name":"polygon0","mesh":0},{"name":"polygon1","mesh":1}],"samplers":[{"wrapS":10497,"wrapT":10497}],"scene":0,"scenes":[{"nodes":[0,1]}],"textures":[{"name":"HeiganiDh","sampler":0,"source":0},{"name":"HeiganiEyeDh","sampler":0,"source":1}]}