{"accessors":[{"name":"polygon0_1_0_positions","componentType":5126,"count":66,"min":[-1.0731769800186157,2.5280299186706543,0.6816269755363464],"max":[1.0731760263442993,3.2710840702056885,1.2017409801483154],"type":"VEC3","bufferView":0,"byteOffset":0},{"name":"polygon0_1_0_normals","componentType":5126,"count":66,"min":[-0.8485548496246338,-0.6328207850456238,0.5230247378349304],"max":[0.8485548496246338,0.5307586789131165,0.996908962726593],"type":"VEC3","bufferView":1,"byteOffset":0},{"name":"polygon0_1_0_texcoords","componentType":5126,"count":66,"min":[0.01574699953198433,0.04107699915766716],"max":[0.9882199764251709,0.21780399978160858],"type":"VEC2","bufferView":2,"byteOffset":0},{"name":"polygon0_1_0_indices","componentType":5123,"count":288,"min":[0],"max":[65],"type":"SCALAR","bufferView":3,"byteOffset":0},{"name":"polygon1_1_0_positions","componentType":5126,"count":425,"min":[-3.136965036392212,0.00612299982458353,-1.202610969543457],"max":[3.1369659900665283,4.959020137786865,1.246250033378601],"type":"VEC3","bufferView":0,"byteOffset":792},{"name":"polygon1_1_0_normals","componentType":5126,"count":425,"min":[-0.9984530210494995,-1,-0.9984530210494995],"max":[0.9984530210494995,1,0.9995341897010803],"type":"VEC3","bufferView":1,"byteOffset":792},{"name":"polygon1_1_0_texcoords","componentType":5126,"count":425,"min":[0.006591999903321266,0.007354999892413616],"max":[0.9936220049858093,0.9942020177841187],"type":"VEC2","bufferView":2,"byteOffset":528},{"name":"polygon1_1_0_indices","componentType":5123,"count":2076,"min":[0],"max":[424],"type":"SCALAR","bufferView":3,"byteOffset":576}],"asset":{"generator":"obj2gltf","version":"2.0"},"buffers":[{"name":"Baltoy","byteLength":266236,"uri":"data:application/octet-stream;base64,"}],"bufferViews":[{"name":"bufferView_0","buffer":0,"byteLength":5892,"byteOffset":0,"byteStride":12,"target":34962},{"name":"bufferView_1","buffer":0,"byteLength":5892,"byteOffset":5892,"byteStride":12,"target":34962},{"name":"bufferView_2","buffer":0,"byteLength":3928,"byteOffset":11784,"byteStride":8,"target":34962},{"name":"bufferView_3","buffer":0,"byteLength":4728,"byteOffset":15712,"target":34963},{"buffer":0,"byteOffset":20440,"byteLength":49170},{"buffer":0,"byteOffset":69610,"byteLength":196626}],"images":[{"name":"YajilonEyeDh","mimeType":"image/x-tga","bufferView":4},{"name":"YajironDh","mimeType":"image/x-tga","bufferView":5}],"materials":[{"name":"mat2","pbrMetallicRoughness":{"baseColorTexture":{"index":0},"baseColorFactor":[1,1,1,1],"metallicFactor":0,"roughnessFactor":0.99},"emissiveFactor":[0,0,0],"alphaMode":"OPAQUE","doubleSided":false},{"name":"mat1","pbrMetallicRoughness":{"baseColorTexture":{"index":1},"baseColorFactor":[1,1,1,1],"metallicFactor":0,"roughnessFactor":0.99},"emissiveFactor":[0,0,0],"alphaMode":"OPAQUE","doubleSided":false}],"meshes":[{"name":"polygon0_1","primitives":[{"attributes":{"POSITION":0,"NORMAL":1,"TEXCOORD_0":2},"indices":3,"material":0,"mode":4}]},{"name":"polygon1_1","primitives":[{"attributes":{"POSITION":4,"NORMAL":5,"TEXCOORD_0":6},"indices":7,"material":1,"mode":4}]}],"nodes":[{"name":"polygon0","mesh":0},{"name":"polygon1","mesh":1}],"samplers":[{"wrapS":10497,"wrapT":10497}],"scene":0,"scenes":[{"nodes":[0,1]}],"textures":[{"name":"YajilonEyeDh","sampler":0,"source":0},{"name":"YajironDh","sampler":0,"source":1}]}