{"accessors":[{"name":"polygon0_1_0_positions","componentType":5126,"count":150,"min":[-5.33808708190918,6.713019847869873,-5.33808708190918],"max":[5.33808708190918,9.968803405761719,5.33808708190918],"type":"VEC3","bufferView":0,"byteOffset":0},{"name":"polygon0_1_0_normals","componentType":5126,"count":150,"min":[-1,-0.6312471628189087,-1],"max":[1,0.609997034072876,1],"type":"VEC3","bufferView":1,"byteOffset":0},{"name":"polygon0_1_0_texcoords","componentType":5126,"count":150,"min":[-0.9559940099716187,0.01202400028705597],"max":[-0.5335080027580261,0.22979700565338135],"type":"VEC2","bufferView":2,"byteOffset":0},{"name":"polygon0_1_0_indices","componentType":5123,"count":576,"min":[0],"max":[149],"type":"SCALAR","bufferView":3,"byteOffset":0},{"name":"polygon1_1_0_positions","componentType":5126,"count":963,"min":[-6.796166896820068,0.2505219876766205,-4.858428955078125],"max":[6.796167850494385,14.579609870910645,4.858428955078125],"type":"VEC3","bufferView":0,"byteOffset":1800},{"name":"polygon1_1_0_normals","componentType":5126,"count":963,"min":[-1,-1,-0.9993138313293457],"max":[1,0.9960325956344604,0.9993138313293457],"type":"VEC3","bufferView":1,"byteOffset":1800},{"name":"polygon1_1_0_texcoords","componentType":5126,"count":963,"min":[0.01644900068640709,0.015807999297976494],"max":[0.9644169807434082,0.9865720272064209],"type":"VEC2","bufferView":2,"byteOffset":1200},{"name":"polygon1_1_0_indices","componentType":5123,"count":3894,"min":[0],"max":[962],"type":"SCALAR","bufferView":3,"byteOffset":1152},{"name":"polygon2_1_0_positions","componentType":5126,"count":50,"min":[-4.465190887451172,6.713019847869873,2.252134084701538],"max":[4.465190887451172,9.968803405761719,4.465190887451172],"type":"VEC3","bufferView":0,"byteOffset":13356},{"name":"polygon2_1_0_normals","componentType":5126,"count":50,"min":[-0.9764291644096375,-0.6312471628189087,0.1904260665178299],"max":[0.9764291644096375,0.609997034072876,0.9764291644096375],"type":"VEC3","bufferView":1,"byteOffset":13356},{"name":"polygon2_1_0_texcoords","componentType":5126,"count":50,"min":[-0.9559940099716187,0.01202400028705597],"max":[-0.5335080027580261,0.22979700565338135],"type":"VEC2","bufferView":2,"byteOffset":8904},{"name":"polygon2_1_0_indices","componentType":5123,"count":192,"min":[0],"max":[49],"type":"SCALAR","bufferView":3,"byteOffset":8940}],"asset":{"generator":"obj2gltf","version":"2.0"},"buffers":[{"name":"Claydol","byteLength":341488,"uri":"data:application/octet-stream;base64,"}],"bufferViews":[{"name":"bufferView_0","buffer":0,"byteLength":13956,"byteOffset":0,"byteStride":12,"target":34962},{"name":"bufferView_1","buffer":0,"byteLength":13956,"byteOffset":13956,"byteStride":12,"target":34962},{"name":"bufferView_2","buffer":0,"byteLength":9304,"byteOffset":27912,"byteStride":8,"target":34962},{"name":"bufferView_3","buffer":0,"byteLength":9324,"byteOffset":37216,"target":34963},{"buffer":0,"byteOffset":46540,"byteLength":98322},{"buffer":0,"byteOffset":144862,"byteLength":196626}],"images":[{"name":"NendollEyeDh","mimeType":"image/x-tga","bufferView":4},{"name":"NendollDh","mimeType":"image/x-tga","bufferView":5}],"materials":[{"name":"mat2","pbrMetallicRoughness":{"baseColorTexture":{"index":0},"baseColorFactor":[1,1,1,1],"metallicFactor":0,"roughnessFactor":0.99},"emissiveFactor":[0,0,0],"alphaMode":"OPAQUE","doubleSided":false},{"name":"mat1","pbrMetallicRoughness":{"baseColorTexture":{"index":1},"baseColorFactor":[1,1,1,1],"metallicFactor":0,"roughnessFactor":0.99},"emissiveFactor":[0,0,0],"alphaMode":"OPAQUE","doubleSided":false},{"name":"mat3","pbrMetallicRoughness":{"baseColorTexture":{"index":0},"baseColorFactor":[1,1,1,1],"metallicFactor":0,"roughnessFactor":0.99},"emissiveFactor":[0,0,0],"alphaMode":"OPAQUE","doubleSided":false}],"meshes":[{"name":"polygon0_1","primitives":[{"attributes":{"POSITION":0,"NORMAL":1,"TEXCOORD_0":2},"indices":3,"material":0,"mode":4}]},{"name":"polygon1_1","primitives":[{"attributes":{"POSITION":4,"NORMAL":5,"TEXCOORD_0":6},"indices":7,"material":1,"mode":4}]},{"name":"polygon2_1","primitives":[{"attributes":{"POSITION":8,"NORMAL":9,"TEXCOORD_0":10},"indices":11,"material":2,"mode":4}]}],"nodes":[{"name":"polygon0","mesh":0},{"name":"polygon1","mesh":1},{"name":"polygon2","mesh":2}],"samplers":[{"wrapS":10497,"wrapT":10497}],"scene":0,"scenes":[{"nodes":[0,1,2]}],"textures":[{"name":"NendollEyeDh","sampler":0,"source":0},{"name":"NendollDh","sampler":0,"source":1}]}