{"accessors":[{"name":"lilyla-Mesh_0_positions","componentType":5126,"count":22,"min":[-0.5769990086555481,-0.5769990086555481,-4.978059768676758],"max":[0.5769990086555481,0.5769990086555481,-2.4763801097869873],"type":"VEC3","bufferView":0,"byteOffset":0},{"name":"lilyla-Mesh_0_texcoords","componentType":5126,"count":22,"min":[0.03125,0.012039000168442726],"max":[0.96875,0.9886019825935364],"type":"VEC2","bufferView":1,"byteOffset":0},{"name":"lilyla-Mesh_0_indices","componentType":5123,"count":72,"min":[0],"max":[21],"type":"SCALAR","bufferView":2,"byteOffset":0},{"name":"lilyla-Mesh_1_positions","componentType":5126,"count":264,"min":[-3.9592700004577637,-3.9592700004577637,-12.3064603805542],"max":[3.9592700004577637,3.9592700004577637,-8.895880699157715],"type":"VEC3","bufferView":0,"byteOffset":264},{"name":"lilyla-Mesh_1_texcoords","componentType":5126,"count":264,"min":[0.030665000900626183,0.00989300012588501],"max":[0.9693359732627869,0.9862110018730164],"type":"VEC2","bufferView":1,"byteOffset":176},{"name":"lilyla-Mesh_1_indices","componentType":5123,"count":1008,"min":[0],"max":[263],"type":"SCALAR","bufferView":2,"byteOffset":144},{"name":"lilyla-Mesh_2_positions","componentType":5126,"count":107,"min":[-2.3039700984954834,-2.783989906311035,-2.5303099155426025],"max":[2.3039700984954834,2.3039700984954834,0.056627001613378525],"type":"VEC3","bufferView":0,"byteOffset":3432},{"name":"lilyla-Mesh_2_texcoords","componentType":5126,"count":107,"min":[0.03107599914073944,0.03083699941635132],"max":[1,0.9683369994163513],"type":"VEC2","bufferView":1,"byteOffset":2288},{"name":"lilyla-Mesh_2_indices","componentType":5123,"count":564,"min":[0],"max":[106],"type":"SCALAR","bufferView":2,"byteOffset":2160},{"name":"lilyla-Mesh_3_positions","componentType":5126,"count":8,"min":[-0.5963789820671082,-0.5963799953460693,-2.5303099155426025],"max":[0.5963799953460693,0.5963789820671082,-2.5303099155426025],"type":"VEC3","bufferView":0,"byteOffset":4716},{"name":"lilyla-Mesh_3_texcoords","componentType":5126,"count":8,"min":[0.01296599954366684,0.01961199939250946],"max":[0.987034022808075,0.9707970023155212],"type":"VEC2","bufferView":1,"byteOffset":3144},{"name":"lilyla-Mesh_3_indices","componentType":5123,"count":18,"min":[0],"max":[7],"type":"SCALAR","bufferView":2,"byteOffset":3288},{"name":"lilyla-Mesh_4_positions","componentType":5126,"count":17,"min":[-1.405750036239624,-1.405750036239624,-9.647680282592773],"max":[1.405750036239624,1.405750036239624,-8.885920524597168],"type":"VEC3","bufferView":0,"byteOffset":4812},{"name":"lilyla-Mesh_4_texcoords","componentType":5126,"count":17,"min":[0.025008000433444977,0.00595800019800663],"max":[0.9565640091896057,0.1951500028371811],"type":"VEC2","bufferView":1,"byteOffset":3208},{"name":"lilyla-Mesh_4_indices","componentType":5123,"count":72,"min":[0],"max":[16],"type":"SCALAR","bufferView":2,"byteOffset":3324},{"name":"lilyla-Mesh_5_positions","componentType":5126,"count":45,"min":[-2.501189947128296,-2.501189947128296,-8.84713077545166],"max":[2.501189947128296,0,-4.912149906158447],"type":"VEC3","bufferView":0,"byteOffset":5016},{"name":"lilyla-Mesh_5_texcoords","componentType":5126,"count":45,"min":[0.02144799940288067,0.03379800170660019],"max":[0.9637709856033325,0.9477699995040894],"type":"VEC2","bufferView":1,"byteOffset":3344},{"name":"lilyla-Mesh_5_indices","componentType":5123,"count":192,"min":[0],"max":[44],"type":"SCALAR","bufferView":2,"byteOffset":3468},{"name":"lilyla-Mesh_6_positions","componentType":5126,"count":32,"min":[-2.501189947128296,-2.501189947128296,-9.13369083404541],"max":[2.501189947128296,2.501189947128296,-8.84713077545166],"type":"VEC3","bufferView":0,"byteOffset":5556},{"name":"lilyla-Mesh_6_texcoords","componentType":5126,"count":32,"min":[0.06080399826169014,0.05714400112628937],"max":[0.939195990562439,0.9428560137748718],"type":"VEC2","bufferView":1,"byteOffset":3704},{"name":"lilyla-Mesh_6_indices","componentType":5123,"count":144,"min":[0],"max":[31],"type":"SCALAR","bufferView":2,"byteOffset":3852},{"name":"lilyla-Mesh_7_positions","componentType":5126,"count":27,"min":[-2.501189947128296,0,-8.84713077545166],"max":[0.0009319999953731894,2.501189947128296,-4.912149906158447],"type":"VEC3","bufferView":0,"byteOffset":5940},{"name":"lilyla-Mesh_7_texcoords","componentType":5126,"count":27,"min":[0.1436839997768402,0.018154999241232872],"max":[0.8563159704208374,0.9987720251083374],"type":"VEC2","bufferView":1,"byteOffset":3960},{"name":"lilyla-Mesh_7_indices","componentType":5123,"count":96,"min":[0],"max":[26],"type":"SCALAR","bufferView":2,"byteOffset":4140},{"name":"lilyla-Mesh_8_positions","componentType":5126,"count":30,"min":[0,0,-8.84713077545166],"max":[2.501189947128296,2.501189947128296,-4.912149906158447],"type":"VEC3","bufferView":0,"byteOffset":6264},{"name":"lilyla-Mesh_8_texcoords","componentType":5126,"count":30,"min":[0.14644600450992584,0.021779000759124756],"max":[0.8535540103912354,0.9880149960517883],"type":"VEC2","bufferView":1,"byteOffset":4176},{"name":"lilyla-Mesh_8_indices","componentType":5123,"count":96,"min":[0],"max":[29],"type":"SCALAR","bufferView":2,"byteOffset":4332}],"asset":{"generator":"obj2gltf","version":"2.0"},"buffers":[{"name":"BR_Lileep-Shiny01","byteLength":524656,"uri":"data:application/octet-stream;base64,"}],"bufferViews":[{"name":"bufferView_0","buffer":0,"byteLength":6624,"byteOffset":0,"byteStride":12,"target":34962},{"name":"bufferView_1","buffer":0,"byteLength":4416,"byteOffset":6624,"byteStride":8,"target":34962},{"name":"bufferView_2","buffer":0,"byteLength":4524,"byteOffset":11040,"target":34963},{"buffer":0,"byteOffset":15564,"byteLength":32786},{"buffer":0,"byteOffset":48350,"byteLength":32786},{"buffer":0,"byteOffset":81136,"byteLength":1042},{"buffer":0,"byteOffset":82178,"byteLength":16402},{"buffer":0,"byteOffset":98580,"byteLength":163858},{"buffer":0,"byteOffset":262438,"byteLength":65554},{"buffer":0,"byteOffset":327992,"byteLength":65554},{"buffer":0,"byteOffset":393546,"byteLength":65554},{"buffer":0,"byteOffset":459100,"byteLength":65554}],"images":[{"name":"lilyla_1_0","mimeType":"image/x-tga","bufferView":3},{"name":"lilyla_1_1","mimeType":"image/x-tga","bufferView":4},{"name":"lilyla_1_3","mimeType":"image/x-tga","bufferView":5},{"name":"lilyla_1_4","mimeType":"image/x-tga","bufferView":6},{"name":"lilyla_1_5","mimeType":"image/x-tga","bufferView":7},{"name":"lilyla_1_6","mimeType":"image/x-tga","bufferView":8},{"name":"lilyla_1_7","mimeType":"image/x-tga","bufferView":9},{"name":"lilyla_1_8","mimeType":"image/x-tga","bufferView":10},{"name":"lilyla_1_9","mimeType":"image/x-tga","bufferView":11}],"materials":[{"name":"mat_0","pbrMetallicRoughness":{"baseColorTexture":{"index":0},"baseColorFactor":[1,1,1,1],"metallicFactor":0,"roughnessFactor":0.903921569},"emissiveFactor":[0,0,0],"alphaMode":"BLEND","doubleSided":true},{"name":"mat_1","pbrMetallicRoughness":{"baseColorTexture":{"index":1},"baseColorFactor":[1,1,1,1],"metallicFactor":0,"roughnessFactor":0.903921569},"emissiveFactor":[0,0,0],"alphaMode":"BLEND","doubleSided":true},{"name":"mat_2","pbrMetallicRoughness":{"baseColorTexture":{"index":2},"baseColorFactor":[1,1,1,1],"metallicFactor":0,"roughnessFactor":0.903921569},"emissiveFactor":[0,0,0],"alphaMode":"BLEND","doubleSided":true},{"name":"mat_3","pbrMetallicRoughness":{"baseColorTexture":{"index":3},"baseColorFactor":[1,1,1,1],"metallicFactor":0,"roughnessFactor":0.903921569},"emissiveFactor":[0,0,0],"alphaMode":"BLEND","doubleSided":true},{"name":"mat_4","pbrMetallicRoughness":{"baseColorTexture":{"index":4},"baseColorFactor":[1,1,1,1],"metallicFactor":0,"roughnessFactor":0.903921569},"emissiveFactor":[0,0,0],"alphaMode":"BLEND","doubleSided":true},{"name":"mat_5","pbrMetallicRoughness":{"baseColorTexture":{"index":5},"baseColorFactor":[1,1,1,1],"metallicFactor":0,"roughnessFactor":0.903921569},"emissiveFactor":[0,0,0],"alphaMode":"BLEND","doubleSided":true},{"name":"mat_6","pbrMetallicRoughness":{"baseColorTexture":{"index":6},"baseColorFactor":[1,1,1,1],"metallicFactor":0,"roughnessFactor":0.903921569},"emissiveFactor":[0,0,0],"alphaMode":"BLEND","doubleSided":true},{"name":"mat_7","pbrMetallicRoughness":{"baseColorTexture":{"index":7},"baseColorFactor":[1,1,1,1],"metallicFactor":0,"roughnessFactor":0.903921569},"emissiveFactor":[0,0,0],"alphaMode":"BLEND","doubleSided":true},{"name":"mat_8","pbrMetallicRoughness":{"baseColorTexture":{"index":8},"baseColorFactor":[1,1,1,1],"metallicFactor":0,"roughnessFactor":0.903921569},"emissiveFactor":[0,0,0],"alphaMode":"BLEND","doubleSided":true}],"meshes":[{"name":"lilyla-Mesh","primitives":[{"attributes":{"POSITION":0,"TEXCOORD_0":1},"indices":2,"material":0,"mode":4},{"attributes":{"POSITION":3,"TEXCOORD_0":4},"indices":5,"material":1,"mode":4},{"attributes":{"POSITION":6,"TEXCOORD_0":7},"indices":8,"material":2,"mode":4},{"attributes":{"POSITION":9,"TEXCOORD_0":10},"indices":11,"material":3,"mode":4},{"attributes":{"POSITION":12,"TEXCOORD_0":13},"indices":14,"material":4,"mode":4},{"attributes":{"POSITION":15,"TEXCOORD_0":16},"indices":17,"material":5,"mode":4},{"attributes":{"POSITION":18,"TEXCOORD_0":19},"indices":20,"material":6,"mode":4},{"attributes":{"POSITION":21,"TEXCOORD_0":22},"indices":23,"material":7,"mode":4},{"attributes":{"POSITION":24,"TEXCOORD_0":25},"indices":26,"material":8,"mode":4}]}],"nodes":[{"name":"lilyla","mesh":0}],"samplers":[{"wrapS":10497,"wrapT":10497}],"scene":0,"scenes":[{"nodes":[0]}],"textures":[{"name":"lilyla_1_0","sampler":0,"source":0},{"name":"lilyla_1_1","sampler":0,"source":1},{"name":"lilyla_1_3","sampler":0,"source":2},{"name":"lilyla_1_4","sampler":0,"source":3},{"name":"lilyla_1_5","sampler":0,"source":4},{"name":"lilyla_1_6","sampler":0,"source":5},{"name":"lilyla_1_7","sampler":0,"source":6},{"name":"lilyla_1_8","sampler":0,"source":7},{"name":"lilyla_1_9","sampler":0,"source":8}]}