{"accessors":[{"name":"yuradle-Mesh_0_positions","componentType":5126,"count":167,"min":[-3.814150094985962,-4.268579959869385,-9.486701965332031],"max":[3.8040199279785156,2.380270004272461,0.1604280024766922],"type":"VEC3","bufferView":0,"byteOffset":0},{"name":"yuradle-Mesh_0_texcoords","componentType":5126,"count":167,"min":[0.20721200108528137,0.43678799271583557],"max":[0.7920100092887878,1],"type":"VEC2","bufferView":1,"byteOffset":0},{"name":"yuradle-Mesh_0_indices","componentType":5123,"count":864,"min":[0],"max":[166],"type":"SCALAR","bufferView":2,"byteOffset":0},{"name":"yuradle-Mesh_1_positions","componentType":5126,"count":20,"min":[-2.1079699993133545,0,-2.478411912918091],"max":[2.1079699993133545,2.5297300815582275,0.1604280024766922],"type":"VEC3","bufferView":0,"byteOffset":2004},{"name":"yuradle-Mesh_1_texcoords","componentType":5126,"count":20,"min":[0.0003239999932702631,0.10745900124311447],"max":[0.7135419845581055,0.8246319890022278],"type":"VEC2","bufferView":1,"byteOffset":1336},{"name":"yuradle-Mesh_1_indices","componentType":5123,"count":78,"min":[0],"max":[19],"type":"SCALAR","bufferView":2,"byteOffset":1728},{"name":"yuradle-Mesh_2_positions","componentType":5126,"count":12,"min":[-0.7409849762916565,-0.7397300004959106,-7.642062187194824],"max":[0.7409849762916565,0.7397300004959106,-4.132991790771484],"type":"VEC3","bufferView":0,"byteOffset":2244},{"name":"yuradle-Mesh_2_texcoords","componentType":5126,"count":12,"min":[0.042840998619794846,0.07175999879837036],"max":[0.9571589827537537,0.9564189910888672],"type":"VEC2","bufferView":1,"byteOffset":1496},{"name":"yuradle-Mesh_2_indices","componentType":5123,"count":48,"min":[0],"max":[11],"type":"SCALAR","bufferView":2,"byteOffset":1884},{"name":"yuradle-Mesh_3_positions","componentType":5126,"count":28,"min":[-2.3204500675201416,-2.083199977874756,-16.968351364135742],"max":[2.320729970932007,-0.35300400853157043,-14.055851936340332],"type":"VEC3","bufferView":0,"byteOffset":2388},{"name":"yuradle-Mesh_3_texcoords","componentType":5126,"count":28,"min":[0.002001000102609396,0.004370000213384628],"max":[0.9982389807701111,1.0023880004882812],"type":"VEC2","bufferView":1,"byteOffset":1592},{"name":"yuradle-Mesh_3_indices","componentType":5123,"count":108,"min":[0],"max":[27],"type":"SCALAR","bufferView":2,"byteOffset":1980},{"name":"yuradle-Mesh_4_positions","componentType":5126,"count":65,"min":[-2.4623799324035645,-2.2629899978637695,-16.968351364135742],"max":[2.4623799324035645,2.4608500003814697,-12.812051773071289],"type":"VEC3","bufferView":0,"byteOffset":2724},{"name":"yuradle-Mesh_4_texcoords","componentType":5126,"count":65,"min":[0.3109790086746216,0],"max":[0.6890209913253784,0.24265000224113464],"type":"VEC2","bufferView":1,"byteOffset":1816},{"name":"yuradle-Mesh_4_indices","componentType":5123,"count":276,"min":[0],"max":[64],"type":"SCALAR","bufferView":2,"byteOffset":2196},{"name":"yuradle-Mesh_5_positions","componentType":5126,"count":100,"min":[-2.4623799324035645,-2.1370298862457275,-16.968351364135742],"max":[2.4623799324035645,2.1265499591827393,-9.486701965332031],"type":"VEC3","bufferView":0,"byteOffset":3504},{"name":"yuradle-Mesh_5_texcoords","componentType":5126,"count":100,"min":[-0.0009609999833628535,-0.0004400000034365803],"max":[0.9990379810333252,1.000978946685791],"type":"VEC2","bufferView":1,"byteOffset":2336},{"name":"yuradle-Mesh_5_indices","componentType":5123,"count":348,"min":[0],"max":[99],"type":"SCALAR","bufferView":2,"byteOffset":2748},{"name":"yuradle-Mesh_6_positions","componentType":5126,"count":33,"min":[-2.1468000411987305,-1.5745899677276611,-16.714252471923828],"max":[2.1468000411987305,1.5641200542449951,-11.042251586914062],"type":"VEC3","bufferView":0,"byteOffset":4704},{"name":"yuradle-Mesh_6_texcoords","componentType":5126,"count":33,"min":[-0.2658270001411438,-0.007139999885112047],"max":[1.4958200454711914,0.20427699387073517],"type":"VEC2","bufferView":1,"byteOffset":3136},{"name":"yuradle-Mesh_6_indices","componentType":5123,"count":90,"min":[0],"max":[32],"type":"SCALAR","bufferView":2,"byteOffset":3444},{"name":"yuradle-Mesh_7_positions","componentType":5126,"count":208,"min":[-6.513510227203369,-6.052879810333252,-11.250351905822754],"max":[6.513510227203369,6.052879810333252,-10.905952453613281],"type":"VEC3","bufferView":0,"byteOffset":5100},{"name":"yuradle-Mesh_7_texcoords","componentType":5126,"count":208,"min":[0,0],"max":[1,1],"type":"VEC2","bufferView":1,"byteOffset":3400},{"name":"yuradle-Mesh_7_indices","componentType":5123,"count":1104,"min":[0],"max":[207],"type":"SCALAR","bufferView":2,"byteOffset":3624}],"asset":{"generator":"obj2gltf","version":"2.0"},"buffers":[{"name":"BR_Cradily-Shiny01","byteLength":187580,"uri":"data:application/octet-stream;base64,"}],"bufferViews":[{"name":"bufferView_0","buffer":0,"byteLength":7596,"byteOffset":0,"byteStride":12,"target":34962},{"name":"bufferView_1","buffer":0,"byteLength":5064,"byteOffset":7596,"byteStride":8,"target":34962},{"name":"bufferView_2","buffer":0,"byteLength":5832,"byteOffset":12660,"target":34963},{"buffer":0,"byteOffset":18492,"byteLength":1042},{"buffer":0,"byteOffset":19534,"byteLength":32786},{"buffer":0,"byteOffset":52320,"byteLength":8210},{"buffer":0,"byteOffset":60530,"byteLength":32786},{"buffer":0,"byteOffset":93316,"byteLength":4114},{"buffer":0,"byteOffset":97430,"byteLength":81938},{"buffer":0,"byteOffset":179368,"byteLength":8210}],"images":[{"name":"yuradle_1_0","mimeType":"image/x-tga","bufferView":3},{"name":"yuradle_1_1","mimeType":"image/x-tga","bufferView":4},{"name":"yuradle_1_2","mimeType":"image/x-tga","bufferView":5},{"name":"yuradle_1_3","mimeType":"image/x-tga","bufferView":6},{"name":"yuradle_1_5","mimeType":"image/x-tga","bufferView":7},{"name":"yuradle_1_6","mimeType":"image/x-tga","bufferView":8},{"name":"yuradle_1_7","mimeType":"image/x-tga","bufferView":9}],"materials":[{"name":"mat_0","pbrMetallicRoughness":{"baseColorTexture":{"index":0},"baseColorFactor":[1,1,1,1],"metallicFactor":0,"roughnessFactor":0.903921569},"emissiveFactor":[0,0,0],"alphaMode":"BLEND","doubleSided":true},{"name":"mat_1","pbrMetallicRoughness":{"baseColorTexture":{"index":1},"baseColorFactor":[1,1,1,1],"metallicFactor":0,"roughnessFactor":0.903921569},"emissiveFactor":[0,0,0],"alphaMode":"BLEND","doubleSided":true},{"name":"mat_2","pbrMetallicRoughness":{"baseColorTexture":{"index":2},"baseColorFactor":[1,1,1,1],"metallicFactor":0,"roughnessFactor":0.903921569},"emissiveFactor":[0,0,0],"alphaMode":"BLEND","doubleSided":true},{"name":"mat_3","pbrMetallicRoughness":{"baseColorTexture":{"index":3},"baseColorFactor":[1,1,1,1],"metallicFactor":0,"roughnessFactor":0.903921569},"emissiveFactor":[0,0,0],"alphaMode":"BLEND","doubleSided":true},{"name":"mat_4","pbrMetallicRoughness":{"baseColorTexture":{"index":0},"baseColorFactor":[1,1,1,1],"metallicFactor":0,"roughnessFactor":0.903921569},"emissiveFactor":[0,0,0],"alphaMode":"BLEND","doubleSided":true},{"name":"mat_5","pbrMetallicRoughness":{"baseColorTexture":{"index":4},"baseColorFactor":[1,1,1,1],"metallicFactor":0,"roughnessFactor":0.903921569},"emissiveFactor":[0,0,0],"alphaMode":"BLEND","doubleSided":true},{"name":"mat_6","pbrMetallicRoughness":{"baseColorTexture":{"index":5},"baseColorFactor":[1,1,1,1],"metallicFactor":0,"roughnessFactor":0.903921569},"emissiveFactor":[0,0,0],"alphaMode":"BLEND","doubleSided":true},{"name":"mat_7","pbrMetallicRoughness":{"baseColorTexture":{"index":6},"baseColorFactor":[1,1,1,1],"metallicFactor":0,"roughnessFactor":0.903921569},"emissiveFactor":[0,0,0],"alphaMode":"BLEND","doubleSided":true}],"meshes":[{"name":"yuradle-Mesh","primitives":[{"attributes":{"POSITION":0,"TEXCOORD_0":1},"indices":2,"material":0,"mode":4},{"attributes":{"POSITION":3,"TEXCOORD_0":4},"indices":5,"material":1,"mode":4},{"attributes":{"POSITION":6,"TEXCOORD_0":7},"indices":8,"material":2,"mode":4},{"attributes":{"POSITION":9,"TEXCOORD_0":10},"indices":11,"material":3,"mode":4},{"attributes":{"POSITION":12,"TEXCOORD_0":13},"indices":14,"material":4,"mode":4},{"attributes":{"POSITION":15,"TEXCOORD_0":16},"indices":17,"material":5,"mode":4},{"attributes":{"POSITION":18,"TEXCOORD_0":19},"indices":20,"material":6,"mode":4},{"attributes":{"POSITION":21,"TEXCOORD_0":22},"indices":23,"material":7,"mode":4}]}],"nodes":[{"name":"yuradle","mesh":0}],"samplers":[{"wrapS":10497,"wrapT":10497}],"scene":0,"scenes":[{"nodes":[0]}],"textures":[{"name":"yuradle_1_0","sampler":0,"source":0},{"name":"yuradle_1_1","sampler":0,"source":1},{"name":"yuradle_1_2","sampler":0,"source":2},{"name":"yuradle_1_3","sampler":0,"source":3},{"name":"yuradle_1_5","sampler":0,"source":4},{"name":"yuradle_1_6","sampler":0,"source":5},{"name":"yuradle_1_7","sampler":0,"source":6}]}