{"accessors":[{"name":"armaldo-Mesh_0_positions","componentType":5126,"count":10,"min":[-0.014147999696433544,-0.019818000495433807,-0.7526940107345581],"max":[3.887239933013916,0.027507999911904335,0.5926499962806702],"type":"VEC3","bufferView":0,"byteOffset":0},{"name":"armaldo-Mesh_0_texcoords","componentType":5126,"count":10,"min":[0,0.0625],"max":[1,0.9375],"type":"VEC2","bufferView":1,"byteOffset":0},{"name":"armaldo-Mesh_0_indices","componentType":5123,"count":18,"min":[0],"max":[9],"type":"SCALAR","bufferView":2,"byteOffset":0}],"asset":{"generator":"obj2gltf","version":"2.0"},"buffers":[{"name":"BR_Armaldo-Shiny01","byteLength":33024,"uri":"data:application/octet-stream;base64,"}],"bufferViews":[{"name":"bufferView_0","buffer":0,"byteLength":120,"byteOffset":0,"byteStride":12,"target":34962},{"name":"bufferView_1","buffer":0,"byteLength":80,"byteOffset":120,"byteStride":8,"target":34962},{"name":"bufferView_2","buffer":0,"byteLength":36,"byteOffset":200,"target":34963},{"buffer":0,"byteOffset":236,"byteLength":32786}],"images":[{"name":"armaldo_1_0","mimeType":"image/x-tga","bufferView":3}],"materials":[{"name":"mat_0","pbrMetallicRoughness":{"baseColorTexture":{"index":0},"baseColorFactor":[1,1,1,1],"metallicFactor":0,"roughnessFactor":0.903921569},"emissiveFactor":[0,0,0],"alphaMode":"BLEND","doubleSided":true}],"meshes":[{"name":"armaldo-Mesh","primitives":[{"attributes":{"POSITION":0,"TEXCOORD_0":1},"indices":2,"material":0,"mode":4}]}],"nodes":[{"name":"armaldo","mesh":0}],"samplers":[{"wrapS":10497,"wrapT":10497}],"scene":0,"scenes":[{"nodes":[0]}],"textures":[{"name":"armaldo_1_0","sampler":0,"source":0}]}