{"accessors":[{"name":"hinbass-Mesh_0_positions","componentType":5126,"count":94,"min":[-1.0442719459533691,-2.2866389751434326,-3.667241096496582],"max":[0.015038999728858471,2.005146026611328,-0.00005700000110664405],"type":"VEC3","bufferView":0,"byteOffset":0},{"name":"hinbass-Mesh_0_texcoords","componentType":5126,"count":94,"min":[0,0],"max":[1.3264700174331665,1],"type":"VEC2","bufferView":1,"byteOffset":0},{"name":"hinbass-Mesh_0_indices","componentType":5123,"count":387,"min":[0],"max":[93],"type":"SCALAR","bufferView":2,"byteOffset":0},{"name":"hinbass-Mesh_1_positions","componentType":5126,"count":67,"min":[-0.5181130170822144,1.2339880466461182,-1.2516789436340332],"max":[0.5481899976730347,2.1124870777130127,-0.5450729727745056],"type":"VEC3","bufferView":0,"byteOffset":1128},{"name":"hinbass-Mesh_1_texcoords","componentType":5126,"count":67,"min":[0.010999999940395355,0.3731679916381836],"max":[0.9899550080299377,1.0301339626312256],"type":"VEC2","bufferView":1,"byteOffset":752},{"name":"hinbass-Mesh_1_indices","componentType":5123,"count":234,"min":[0],"max":[66],"type":"SCALAR","bufferView":2,"byteOffset":776},{"name":"hinbass-Mesh_2_positions","componentType":5126,"count":17,"min":[-0.47915300726890564,1.6602389812469482,-1.83364999294281],"max":[0.5092300176620483,2.0320050716400146,-1.2431039810180664],"type":"VEC3","bufferView":0,"byteOffset":1932},{"name":"hinbass-Mesh_2_texcoords","componentType":5126,"count":17,"min":[0.008313000202178955,0.15625],"max":[0.9589849710464478,1.0022319555282593],"type":"VEC2","bufferView":1,"byteOffset":1288},{"name":"hinbass-Mesh_2_indices","componentType":5123,"count":54,"min":[0],"max":[16],"type":"SCALAR","bufferView":2,"byteOffset":1244},{"name":"hinbass-Mesh_3_positions","componentType":5126,"count":68,"min":[-0.12241800129413605,-3.935934066772461,-3.5601189136505127],"max":[0.15249599516391754,-2.2842280864715576,-0.10717599838972092],"type":"VEC3","bufferView":0,"byteOffset":2136},{"name":"hinbass-Mesh_3_texcoords","componentType":5126,"count":68,"min":[0,-0.0008299999753944576],"max":[0.9881269931793213,0.9972429871559143],"type":"VEC2","bufferView":1,"byteOffset":1424},{"name":"hinbass-Mesh_3_indices","componentType":5123,"count":240,"min":[0],"max":[67],"type":"SCALAR","bufferView":2,"byteOffset":1352},{"name":"hinbass-Mesh_4_positions","componentType":5126,"count":34,"min":[-0.8540570139884949,0.67603999376297,-2.303025007247925],"max":[0.8841339945793152,1.330361008644104,-1.3642760515213013],"type":"VEC3","bufferView":0,"byteOffset":2952},{"name":"hinbass-Mesh_4_texcoords","componentType":5126,"count":34,"min":[0.02191999927163124,0],"max":[0.9867939949035645,0.20000000298023224],"type":"VEC2","bufferView":1,"byteOffset":1968},{"name":"hinbass-Mesh_4_indices","componentType":5123,"count":96,"min":[0],"max":[33],"type":"SCALAR","bufferView":2,"byteOffset":1832},{"name":"hinbass-Mesh_5_positions","componentType":5126,"count":64,"min":[-0.9620180130004883,0.447613000869751,-2.5353360176086426],"max":[0.9920960068702698,1.5367430448532104,-1.1319650411605835],"type":"VEC3","bufferView":0,"byteOffset":3360},{"name":"hinbass-Mesh_5_texcoords","componentType":5126,"count":64,"min":[9.999999974752427e-7,0],"max":[1,1.0000020265579224],"type":"VEC2","bufferView":1,"byteOffset":2240},{"name":"hinbass-Mesh_5_indices","componentType":5123,"count":192,"min":[0],"max":[63],"type":"SCALAR","bufferView":2,"byteOffset":2024},{"name":"hinbass-Mesh_6_positions","componentType":5126,"count":17,"min":[-0.7548670172691345,0.5549089908599854,-3.5276660919189453],"max":[0.784945011138916,1.789592981338501,-2.500251054763794],"type":"VEC3","bufferView":0,"byteOffset":4128},{"name":"hinbass-Mesh_6_texcoords","componentType":5126,"count":17,"min":[0.019999999552965164,9.999999974752427e-7],"max":[0.9800000190734863,1.0000009536743164],"type":"VEC2","bufferView":1,"byteOffset":2752},{"name":"hinbass-Mesh_6_indices","componentType":5123,"count":60,"min":[0],"max":[16],"type":"SCALAR","bufferView":2,"byteOffset":2408},{"name":"hinbass-Mesh_7_positions","componentType":5126,"count":95,"min":[0.015038999728858471,-2.2866389751434326,-3.667241096496582],"max":[1.0743499994277954,2.005146026611328,-0.00005700000110664405],"type":"VEC3","bufferView":0,"byteOffset":4332},{"name":"hinbass-Mesh_7_texcoords","componentType":5126,"count":95,"min":[0,0],"max":[1.3264700174331665,1],"type":"VEC2","bufferView":1,"byteOffset":2888},{"name":"hinbass-Mesh_7_indices","componentType":5123,"count":387,"min":[0],"max":[94],"type":"SCALAR","bufferView":2,"byteOffset":2528},{"name":"hinbass-Mesh_8_positions","componentType":5126,"count":81,"min":[-1.8295040130615234,-0.7487940192222595,-5.23952579498291],"max":[1.8595809936523438,0.5628479719161987,0.0740630030632019],"type":"VEC3","bufferView":0,"byteOffset":5472},{"name":"hinbass-Mesh_8_texcoords","componentType":5126,"count":81,"min":[-0.00044800000614486635,-0.00004999999873689376],"max":[1.0004500150680542,1.0039939880371094],"type":"VEC2","bufferView":1,"byteOffset":3648},{"name":"hinbass-Mesh_8_indices","componentType":5123,"count":270,"min":[0],"max":[80],"type":"SCALAR","bufferView":2,"byteOffset":3304},{"name":"hinbass-Mesh_9_positions","componentType":5126,"count":12,"min":[-0.43036699295043945,1.2381900548934937,-1.0183390378952026],"max":[0.46044498682022095,2.0794498920440674,-0.8100789785385132],"type":"VEC3","bufferView":0,"byteOffset":6444},{"name":"hinbass-Mesh_9_texcoords","componentType":5126,"count":12,"min":[-9.999999974752427e-7,-0.03133000060915947],"max":[0.9999970197677612,1.0000009536743164],"type":"VEC2","bufferView":1,"byteOffset":4296},{"name":"hinbass-Mesh_9_indices","componentType":5123,"count":30,"min":[0],"max":[11],"type":"SCALAR","bufferView":2,"byteOffset":3844},{"name":"hinbass-Mesh_10_positions","componentType":5126,"count":12,"min":[-0.43036699295043945,1.2381900548934937,-1.01528799533844],"max":[0.46044498682022095,1.982450008392334,-0.8100789785385132],"type":"VEC3","bufferView":0,"byteOffset":6588},{"name":"hinbass-Mesh_10_texcoords","componentType":5126,"count":12,"min":[-9.999999974752427e-7,0.08735299855470657],"max":[0.9999970197677612,1.0000009536743164],"type":"VEC2","bufferView":1,"byteOffset":4392},{"name":"hinbass-Mesh_10_indices","componentType":5123,"count":30,"min":[0],"max":[11],"type":"SCALAR","bufferView":2,"byteOffset":3904}],"asset":{"generator":"obj2gltf","version":"2.0"},"buffers":[{"name":"BR_Feebas-Shiny01","byteLength":303108,"uri":"data:application/octet-stream;base64,"}],"bufferViews":[{"name":"bufferView_0","buffer":0,"byteLength":6732,"byteOffset":0,"byteStride":12,"target":34962},{"name":"bufferView_1","buffer":0,"byteLength":4488,"byteOffset":6732,"byteStride":8,"target":34962},{"name":"bufferView_2","buffer":0,"byteLength":3964,"byteOffset":11220,"target":34963},{"buffer":0,"byteOffset":15184,"byteLength":65554},{"buffer":0,"byteOffset":80738,"byteLength":4114},{"buffer":0,"byteOffset":84852,"byteLength":16402},{"buffer":0,"byteOffset":101254,"byteLength":4114},{"buffer":0,"byteOffset":105368,"byteLength":81938},{"buffer":0,"byteOffset":187306,"byteLength":1042},{"buffer":0,"byteOffset":188348,"byteLength":16402},{"buffer":0,"byteOffset":204750,"byteLength":65554},{"buffer":0,"byteOffset":270304,"byteLength":16402},{"buffer":0,"byteOffset":286706,"byteLength":16402}],"images":[{"name":"hinbass_1_0","mimeType":"image/x-tga","bufferView":3},{"name":"hinbass_1_1","mimeType":"image/x-tga","bufferView":4},{"name":"hinbass_1_2","mimeType":"image/x-tga","bufferView":5},{"name":"hinbass_1_3","mimeType":"image/x-tga","bufferView":6},{"name":"hinbass_1_4","mimeType":"image/x-tga","bufferView":7},{"name":"hinbass_1_5","mimeType":"image/x-tga","bufferView":8},{"name":"hinbass_1_6","mimeType":"image/x-tga","bufferView":9},{"name":"hinbass_1_7","mimeType":"image/x-tga","bufferView":10},{"name":"hinbass_1_9","mimeType":"image/x-tga","bufferView":11},{"name":"hinbass_1_10","mimeType":"image/x-tga","bufferView":12}],"materials":[{"name":"mat_0","pbrMetallicRoughness":{"baseColorTexture":{"index":0},"baseColorFactor":[1,1,1,1],"metallicFactor":0,"roughnessFactor":0.903921569},"emissiveFactor":[0,0,0],"alphaMode":"BLEND","doubleSided":true},{"name":"mat_1","pbrMetallicRoughness":{"baseColorTexture":{"index":1},"baseColorFactor":[1,1,1,1],"metallicFactor":0,"roughnessFactor":0.903921569},"emissiveFactor":[0,0,0],"alphaMode":"BLEND","doubleSided":true},{"name":"mat_2","pbrMetallicRoughness":{"baseColorTexture":{"index":2},"baseColorFactor":[1,1,1,1],"metallicFactor":0,"roughnessFactor":0.903921569},"emissiveFactor":[0,0,0],"alphaMode":"BLEND","doubleSided":true},{"name":"mat_3","pbrMetallicRoughness":{"baseColorTexture":{"index":3},"baseColorFactor":[1,1,1,1],"metallicFactor":0,"roughnessFactor":0.903921569},"emissiveFactor":[0,0,0],"alphaMode":"BLEND","doubleSided":true},{"name":"mat_4","pbrMetallicRoughness":{"baseColorTexture":{"index":4},"baseColorFactor":[1,1,1,1],"metallicFactor":0,"roughnessFactor":0.903921569},"emissiveFactor":[0,0,0],"alphaMode":"BLEND","doubleSided":true},{"name":"mat_5","pbrMetallicRoughness":{"baseColorTexture":{"index":5},"baseColorFactor":[1,1,1,1],"metallicFactor":0,"roughnessFactor":0.903921569},"emissiveFactor":[0,0,0],"alphaMode":"BLEND","doubleSided":true},{"name":"mat_6","pbrMetallicRoughness":{"baseColorTexture":{"index":6},"baseColorFactor":[1,1,1,1],"metallicFactor":0,"roughnessFactor":0.903921569},"emissiveFactor":[0,0,0],"alphaMode":"BLEND","doubleSided":true},{"name":"mat_7","pbrMetallicRoughness":{"baseColorTexture":{"index":7},"baseColorFactor":[1,1,1,1],"metallicFactor":0,"roughnessFactor":0.903921569},"emissiveFactor":[0,0,0],"alphaMode":"BLEND","doubleSided":true},{"name":"mat_8","pbrMetallicRoughness":{"baseColorTexture":{"index":3},"baseColorFactor":[1,1,1,1],"metallicFactor":0,"roughnessFactor":0.903921569},"emissiveFactor":[0,0,0],"alphaMode":"BLEND","doubleSided":true},{"name":"mat_9","pbrMetallicRoughness":{"baseColorTexture":{"index":8},"baseColorFactor":[1,1,1,1],"metallicFactor":0,"roughnessFactor":0.903921569},"emissiveFactor":[0,0,0],"alphaMode":"BLEND","doubleSided":true},{"name":"mat_10","pbrMetallicRoughness":{"baseColorTexture":{"index":9},"baseColorFactor":[1,1,1,1],"metallicFactor":0,"roughnessFactor":0.903921569},"emissiveFactor":[0,0,0],"alphaMode":"BLEND","doubleSided":true}],"meshes":[{"name":"hinbass-Mesh","primitives":[{"attributes":{"POSITION":0,"TEXCOORD_0":1},"indices":2,"material":0,"mode":4},{"attributes":{"POSITION":3,"TEXCOORD_0":4},"indices":5,"material":1,"mode":4},{"attributes":{"POSITION":6,"TEXCOORD_0":7},"indices":8,"material":2,"mode":4},{"attributes":{"POSITION":9,"TEXCOORD_0":10},"indices":11,"material":3,"mode":4},{"attributes":{"POSITION":12,"TEXCOORD_0":13},"indices":14,"material":4,"mode":4},{"attributes":{"POSITION":15,"TEXCOORD_0":16},"indices":17,"material":5,"mode":4},{"attributes":{"POSITION":18,"TEXCOORD_0":19},"indices":20,"material":6,"mode":4},{"attributes":{"POSITION":21,"TEXCOORD_0":22},"indices":23,"material":7,"mode":4},{"attributes":{"POSITION":24,"TEXCOORD_0":25},"indices":26,"material":8,"mode":4},{"attributes":{"POSITION":27,"TEXCOORD_0":28},"indices":29,"material":9,"mode":4},{"attributes":{"POSITION":30,"TEXCOORD_0":31},"indices":32,"material":10,"mode":4}]}],"nodes":[{"name":"hinbass","mesh":0}],"samplers":[{"wrapS":10497,"wrapT":10497}],"scene":0,"scenes":[{"nodes":[0]}],"textures":[{"name":"hinbass_1_0","sampler":0,"source":0},{"name":"hinbass_1_1","sampler":0,"source":1},{"name":"hinbass_1_2","sampler":0,"source":2},{"name":"hinbass_1_3","sampler":0,"source":3},{"name":"hinbass_1_4","sampler":0,"source":4},{"name":"hinbass_1_5","sampler":0,"source":5},{"name":"hinbass_1_6","sampler":0,"source":6},{"name":"hinbass_1_7","sampler":0,"source":7},{"name":"hinbass_1_9","sampler":0,"source":8},{"name":"hinbass_1_10","sampler":0,"source":9}]}