{"accessors":[{"name":"milokaross-Mesh_0_positions","componentType":5126,"count":390,"min":[-5.412735939025879,-31.11073875427246,-31.539493560791016],"max":[1.5327379703521729,4.754632949829102,-22.168846130371094],"type":"VEC3","bufferView":0,"byteOffset":0},{"name":"milokaross-Mesh_0_texcoords","componentType":5126,"count":390,"min":[0.011718999594449997,0.012500000186264515],"max":[0.9910709857940674,0.996874988079071],"type":"VEC2","bufferView":1,"byteOffset":0},{"name":"milokaross-Mesh_0_indices","componentType":5123,"count":1698,"min":[0],"max":[389],"type":"SCALAR","bufferView":2,"byteOffset":0},{"name":"milokaross-Mesh_1_positions","componentType":5126,"count":40,"min":[-3.889620065689087,0.16460299491882324,-26.360815048217773],"max":[0.009619999676942825,4.174577236175537,-23.74837303161621],"type":"VEC3","bufferView":0,"byteOffset":4680},{"name":"milokaross-Mesh_1_texcoords","componentType":5126,"count":40,"min":[0.006696000229567289,0.005357000045478344],"max":[0.986607015132904,0.2473209947347641],"type":"VEC2","bufferView":1,"byteOffset":3120},{"name":"milokaross-Mesh_1_indices","componentType":5123,"count":162,"min":[0],"max":[39],"type":"SCALAR","bufferView":2,"byteOffset":3396},{"name":"milokaross-Mesh_2_positions","componentType":5126,"count":16,"min":[-3.519200086593628,0.6321229934692383,-23.974348068237305],"max":[-0.36079999804496765,4.754632949829102,-23.108264923095703],"type":"VEC3","bufferView":0,"byteOffset":5160},{"name":"milokaross-Mesh_2_texcoords","componentType":5126,"count":16,"min":[-0.821940004825592,-4.311079978942871],"max":[1.8092800378799438,9.53104019165039],"type":"VEC2","bufferView":1,"byteOffset":3440},{"name":"milokaross-Mesh_2_indices","componentType":5123,"count":60,"min":[0],"max":[15],"type":"SCALAR","bufferView":2,"byteOffset":3720},{"name":"milokaross-Mesh_3_positions","componentType":5126,"count":100,"min":[-11.575770378112793,-6.902805805206299,-27.993898391723633],"max":[7.955265045166016,2.1411919593811035,-25.8618106842041],"type":"VEC3","bufferView":0,"byteOffset":5352},{"name":"milokaross-Mesh_3_texcoords","componentType":5126,"count":100,"min":[0.03348200023174286,0.020833000540733337],"max":[0.9620540142059326,0.9799110293388367],"type":"VEC2","bufferView":1,"byteOffset":3568},{"name":"milokaross-Mesh_3_indices","componentType":5123,"count":234,"min":[0],"max":[99],"type":"SCALAR","bufferView":2,"byteOffset":3840},{"name":"milokaross-Mesh_4_positions","componentType":5126,"count":270,"min":[-3.3507299423217773,-60.125511169433594,-26.41361427307129],"max":[-0.5292900204658508,-31.061809539794922,-23.507179260253906],"type":"VEC3","bufferView":0,"byteOffset":6552},{"name":"milokaross-Mesh_4_texcoords","componentType":5126,"count":270,"min":[0.020312000066041946,0.007792000193148851],"max":[0.9765629768371582,0.9922080039978027],"type":"VEC2","bufferView":1,"byteOffset":4368},{"name":"milokaross-Mesh_4_indices","componentType":5123,"count":1368,"min":[0],"max":[269],"type":"SCALAR","bufferView":2,"byteOffset":4308},{"name":"milokaross-Mesh_5_positions","componentType":5126,"count":35,"min":[-3.1559998989105225,-4.218451023101807,-25.969863891601562],"max":[-0.7239999771118164,-0.6343039870262146,-25.003040313720703],"type":"VEC3","bufferView":0,"byteOffset":9792},{"name":"milokaross-Mesh_5_texcoords","componentType":5126,"count":35,"min":[-0.09960900247097015,0.2906680107116699],"max":[0.8027060031890869,0.9634169936180115],"type":"VEC2","bufferView":1,"byteOffset":6528},{"name":"milokaross-Mesh_5_indices","componentType":5123,"count":96,"min":[0],"max":[34],"type":"SCALAR","bufferView":2,"byteOffset":7044}],"asset":{"generator":"obj2gltf","version":"2.0"},"buffers":[{"name":"BR_Milotic-Shiny01","byteLength":175916,"uri":"data:application/octet-stream;base64,"}],"bufferViews":[{"name":"bufferView_0","buffer":0,"byteLength":10212,"byteOffset":0,"byteStride":12,"target":34962},{"name":"bufferView_1","buffer":0,"byteLength":6808,"byteOffset":10212,"byteStride":8,"target":34962},{"name":"bufferView_2","buffer":0,"byteLength":7236,"byteOffset":17020,"target":34963},{"buffer":0,"byteOffset":24256,"byteLength":16402},{"buffer":0,"byteOffset":40658,"byteLength":32786},{"buffer":0,"byteOffset":73444,"byteLength":16402},{"buffer":0,"byteOffset":89846,"byteLength":4114},{"buffer":0,"byteOffset":93960,"byteLength":65554},{"buffer":0,"byteOffset":159514,"byteLength":16402}],"images":[{"name":"milokaross_1_0","mimeType":"image/x-tga","bufferView":3},{"name":"milokaross_1_2","mimeType":"image/x-tga","bufferView":4},{"name":"milokaross_1_4","mimeType":"image/x-tga","bufferView":5},{"name":"milokaross_1_6","mimeType":"image/x-tga","bufferView":6},{"name":"milokaross_1_8","mimeType":"image/x-tga","bufferView":7},{"name":"milokaross_1_11","mimeType":"image/x-tga","bufferView":8}],"materials":[{"name":"mat_0","pbrMetallicRoughness":{"baseColorTexture":{"index":0},"baseColorFactor":[1,1,1,1],"metallicFactor":0,"roughnessFactor":0.903921569},"emissiveFactor":[0,0,0],"alphaMode":"BLEND","doubleSided":true},{"name":"mat_1","pbrMetallicRoughness":{"baseColorTexture":{"index":1},"baseColorFactor":[1,1,1,1],"metallicFactor":0,"roughnessFactor":0.903921569},"emissiveFactor":[0,0,0],"alphaMode":"BLEND","doubleSided":true},{"name":"mat_2","pbrMetallicRoughness":{"baseColorTexture":{"index":2},"baseColorFactor":[1,1,1,1],"metallicFactor":0,"roughnessFactor":0.903921569},"emissiveFactor":[0,0,0],"alphaMode":"BLEND","doubleSided":true},{"name":"mat_3","pbrMetallicRoughness":{"baseColorTexture":{"index":3},"baseColorFactor":[1,1,1,1],"metallicFactor":0,"roughnessFactor":0.903921569},"emissiveFactor":[0,0,0],"alphaMode":"BLEND","doubleSided":true},{"name":"mat_4","pbrMetallicRoughness":{"baseColorTexture":{"index":4},"baseColorFactor":[1,1,1,1],"metallicFactor":0,"roughnessFactor":0.903921569},"emissiveFactor":[0,0,0],"alphaMode":"BLEND","doubleSided":true},{"name":"mat_5","pbrMetallicRoughness":{"baseColorTexture":{"index":5},"baseColorFactor":[1,1,1,1],"metallicFactor":0,"roughnessFactor":0.903921569},"emissiveFactor":[0,0,0],"alphaMode":"BLEND","doubleSided":true}],"meshes":[{"name":"milokaross-Mesh","primitives":[{"attributes":{"POSITION":0,"TEXCOORD_0":1},"indices":2,"material":0,"mode":4},{"attributes":{"POSITION":3,"TEXCOORD_0":4},"indices":5,"material":1,"mode":4},{"attributes":{"POSITION":6,"TEXCOORD_0":7},"indices":8,"material":2,"mode":4},{"attributes":{"POSITION":9,"TEXCOORD_0":10},"indices":11,"material":3,"mode":4},{"attributes":{"POSITION":12,"TEXCOORD_0":13},"indices":14,"material":4,"mode":4},{"attributes":{"POSITION":15,"TEXCOORD_0":16},"indices":17,"material":5,"mode":4}]}],"nodes":[{"name":"milokaross","mesh":0}],"samplers":[{"wrapS":10497,"wrapT":10497}],"scene":0,"scenes":[{"nodes":[0]}],"textures":[{"name":"milokaross_1_0","sampler":0,"source":0},{"name":"milokaross_1_2","sampler":0,"source":1},{"name":"milokaross_1_4","sampler":0,"source":2},{"name":"milokaross_1_6","sampler":0,"source":3},{"name":"milokaross_1_8","sampler":0,"source":4},{"name":"milokaross_1_11","sampler":0,"source":5}]}