{"accessors":[{"name":"powalen-Mesh_0_positions","componentType":5126,"count":288,"min":[-0.893123984336853,-0.8382120132446289,-3.05964994430542],"max":[0.893123984336853,0.8800510168075562,-0.000060999998822808266],"type":"VEC3","bufferView":0,"byteOffset":0},{"name":"powalen-Mesh_0_texcoords","componentType":5126,"count":288,"min":[0.3619999885559082,0.6439999938011169],"max":[0.3619999885559082,0.6439999938011169],"type":"VEC2","bufferView":1,"byteOffset":0},{"name":"powalen-Mesh_0_indices","componentType":5123,"count":1560,"min":[0],"max":[287],"type":"SCALAR","bufferView":2,"byteOffset":0},{"name":"powalen-Mesh_1_positions","componentType":5126,"count":52,"min":[-0.893123984336853,0.05491200089454651,-1.7466399669647217],"max":[0.893123984336853,0.9480360150337219,-0.7733229994773865],"type":"VEC3","bufferView":0,"byteOffset":3456},{"name":"powalen-Mesh_1_texcoords","componentType":5126,"count":52,"min":[-0.08361999690532684,0.005809000227600336],"max":[1.0520800352096558,0.18630099296569824],"type":"VEC2","bufferView":1,"byteOffset":2304},{"name":"powalen-Mesh_1_indices","componentType":5123,"count":240,"min":[0],"max":[51],"type":"SCALAR","bufferView":2,"byteOffset":3120}],"asset":{"generator":"obj2gltf","version":"2.0"},"buffers":[{"name":"BR_Castform-Shiny01","byteLength":379140,"uri":"data:application/octet-stream;base64,"}],"bufferViews":[{"name":"bufferView_0","buffer":0,"byteLength":4080,"byteOffset":0,"byteStride":12,"target":34962},{"name":"bufferView_1","buffer":0,"byteLength":2720,"byteOffset":4080,"byteStride":8,"target":34962},{"name":"bufferView_2","buffer":0,"byteLength":3600,"byteOffset":6800,"target":34963},{"buffer":0,"byteOffset":10400,"byteLength":82},{"buffer":0,"byteOffset":10482,"byteLength":368658}],"images":[{"name":"powalen_1_0","mimeType":"image/x-tga","bufferView":3},{"name":"powalen_1_1","mimeType":"image/x-tga","bufferView":4}],"materials":[{"name":"mat_0","pbrMetallicRoughness":{"baseColorTexture":{"index":0},"baseColorFactor":[1,1,1,1],"metallicFactor":0,"roughnessFactor":0.903921569},"emissiveFactor":[0,0,0],"alphaMode":"BLEND","doubleSided":true},{"name":"mat_1","pbrMetallicRoughness":{"baseColorTexture":{"index":1},"baseColorFactor":[1,1,1,1],"metallicFactor":0,"roughnessFactor":0.903921569},"emissiveFactor":[0,0,0],"alphaMode":"BLEND","doubleSided":true}],"meshes":[{"name":"powalen-Mesh","primitives":[{"attributes":{"POSITION":0,"TEXCOORD_0":1},"indices":2,"material":0,"mode":4},{"attributes":{"POSITION":3,"TEXCOORD_0":4},"indices":5,"material":1,"mode":4}]}],"nodes":[{"name":"powalen","mesh":0}],"samplers":[{"wrapS":10497,"wrapT":10497}],"scene":0,"scenes":[{"nodes":[0]}],"textures":[{"name":"powalen_1_0","sampler":0,"source":0},{"name":"powalen_1_1","sampler":0,"source":1}]}