{"accessors":[{"name":"Castform_1_0_positions","componentType":5126,"count":132,"min":[-7.624711036682129,19.680889129638672,5.117427825927734],"max":[7.624650001525879,25.88412094116211,9.053909301757812],"type":"VEC3","bufferView":0,"byteOffset":0},{"name":"Castform_1_0_normals","componentType":5126,"count":132,"min":[0.18496695160865784,-0.36649805307388306,0.6564472317695618],"max":[0.6985921859741211,0.36632394790649414,0.9827447533607483],"type":"VEC3","bufferView":1,"byteOffset":0},{"name":"Castform_1_0_texcoords","componentType":5126,"count":132,"min":[0.012461000122129917,-0.9745500087738037],"max":[0.48754000663757324,-0.7754499912261963],"type":"VEC2","bufferView":2,"byteOffset":0},{"name":"Castform_1_0_indices","componentType":5123,"count":132,"min":[0],"max":[131],"type":"SCALAR","bufferView":3,"byteOffset":0},{"name":"Castform_1_1_positions","componentType":5126,"count":5268,"min":[-9.119100570678711,8.035828590393066,-9.434558868408203],"max":[9.119039535522461,38.710792541503906,9.221037864685059],"type":"VEC3","bufferView":0,"byteOffset":1584},{"name":"Castform_1_1_normals","componentType":5126,"count":5268,"min":[-1,-0.976142406463623,-0.23722900450229645],"max":[1,0.7290008068084717,1],"type":"VEC3","bufferView":1,"byteOffset":1584},{"name":"Castform_1_1_texcoords","componentType":5126,"count":5268,"min":[0,0.013189000077545643],"max":[1,0.9882810115814209],"type":"VEC2","bufferView":2,"byteOffset":1056},{"name":"Castform_1_1_indices","componentType":5123,"count":5268,"min":[0],"max":[5267],"type":"SCALAR","bufferView":3,"byteOffset":264},{"name":"Castform_1_2_positions","componentType":5126,"count":72,"min":[-3.3866090774536133,16.757701873779297,6.181408882141113],"max":[3.386570930480957,22.854703903198242,9.221037864685059],"type":"VEC3","bufferView":0,"byteOffset":64800},{"name":"Castform_1_2_normals","componentType":5126,"count":72,"min":[-0.6985909938812256,-0.9699038863182068,0.1274709850549698],"max":[0.9036245346069336,0.19211307168006897,0.9634266495704651],"type":"VEC3","bufferView":1,"byteOffset":64800},{"name":"Castform_1_2_texcoords","componentType":5126,"count":72,"min":[0.13782000541687012,-1.9845099449157715],"max":[0.3621799945831299,-1.769629955291748],"type":"VEC2","bufferView":2,"byteOffset":43200},{"name":"Castform_1_2_indices","componentType":5123,"count":72,"min":[0],"max":[71],"type":"SCALAR","bufferView":3,"byteOffset":10800}],"asset":{"generator":"obj2gltf","version":"2.0"},"buffers":[{"name":"XY_Castform","byteLength":245736,"uri":"data:application/octet-stream;base64,"}],"bufferViews":[{"name":"bufferView_0","buffer":0,"byteLength":65664,"byteOffset":0,"byteStride":12,"target":34962},{"name":"bufferView_1","buffer":0,"byteLength":65664,"byteOffset":65664,"byteStride":12,"target":34962},{"name":"bufferView_2","buffer":0,"byteLength":43776,"byteOffset":131328,"byteStride":8,"target":34962},{"name":"bufferView_3","buffer":0,"byteLength":10944,"byteOffset":175104,"target":34963},{"buffer":0,"byteOffset":186048,"byteLength":20875},{"buffer":0,"byteOffset":206923,"byteLength":20330},{"buffer":0,"byteOffset":227253,"byteLength":18480}],"images":[{"name":"pm0351_11_Eye1","mimeType":"image/png","bufferView":4},{"name":"pm0351_11_Body1","mimeType":"image/png","bufferView":5},{"name":"pm0351_11_Mouth1","mimeType":"image/png","bufferView":6}],"materials":[{"name":"Material__10","pbrMetallicRoughness":{"baseColorTexture":{"index":0},"baseColorFactor":[1,1,1,1],"metallicFactor":0,"roughnessFactor":0.998},"emissiveFactor":[0,0,0],"alphaMode":"OPAQUE","doubleSided":false},{"name":"Material__11","pbrMetallicRoughness":{"baseColorTexture":{"index":1},"baseColorFactor":[1,1,1,1],"metallicFactor":0,"roughnessFactor":0.998},"emissiveFactor":[0,0,0],"alphaMode":"OPAQUE","doubleSided":false},{"name":"Material__12","pbrMetallicRoughness":{"baseColorTexture":{"index":2},"baseColorFactor":[1,1,1,1],"metallicFactor":0,"roughnessFactor":0.998},"emissiveFactor":[0,0,0],"alphaMode":"OPAQUE","doubleSided":false}],"meshes":[{"name":"Castform_1","primitives":[{"attributes":{"POSITION":0,"NORMAL":1,"TEXCOORD_0":2},"indices":3,"material":0,"mode":4},{"attributes":{"POSITION":4,"NORMAL":5,"TEXCOORD_0":6},"indices":7,"material":1,"mode":4},{"attributes":{"POSITION":8,"NORMAL":9,"TEXCOORD_0":10},"indices":11,"material":2,"mode":4}]}],"nodes":[{"name":"Castform","mesh":0}],"samplers":[{"wrapS":10497,"wrapT":10497}],"scene":0,"scenes":[{"nodes":[0]}],"textures":[{"name":"pm0351_11_Eye1","sampler":0,"source":0},{"name":"pm0351_11_Body1","sampler":0,"source":1},{"name":"pm0351_11_Mouth1","sampler":0,"source":2}]}