{"accessors":[{"name":"kakureon-Mesh_0_positions","componentType":5126,"count":207,"min":[-3.802324056625366,-14.669427871704102,-5.680305004119873],"max":[3.9016149044036865,0.3617669939994812,0.019895000383257866],"type":"VEC3","bufferView":0,"byteOffset":0},{"name":"kakureon-Mesh_0_texcoords","componentType":5126,"count":207,"min":[0.18348699808120728,0.5073050260543823],"max":[0.8798450231552124,0.7824519872665405],"type":"VEC2","bufferView":1,"byteOffset":0},{"name":"kakureon-Mesh_0_indices","componentType":5123,"count":1020,"min":[0],"max":[206],"type":"SCALAR","bufferView":2,"byteOffset":0},{"name":"kakureon-Mesh_1_positions","componentType":5126,"count":20,"min":[-1.0295259952545166,-1.4600590467453003,-6.918057918548584],"max":[1.152804970741272,1.8626660108566284,-6.082286834716797],"type":"VEC3","bufferView":0,"byteOffset":2484},{"name":"kakureon-Mesh_1_texcoords","componentType":5126,"count":20,"min":[0.006696000229567289,0.008929000236093998],"max":[0.9910709857940674,0.9958710074424744],"type":"VEC2","bufferView":1,"byteOffset":1656},{"name":"kakureon-Mesh_1_indices","componentType":5123,"count":84,"min":[0],"max":[19],"type":"SCALAR","bufferView":2,"byteOffset":2040},{"name":"kakureon-Mesh_2_positions","componentType":5126,"count":67,"min":[-1.7469249963760376,-3.6799919605255127,-10.24804973602295],"max":[1.9079519510269165,0.8448529839515686,-5.521522045135498],"type":"VEC3","bufferView":0,"byteOffset":2724},{"name":"kakureon-Mesh_2_texcoords","componentType":5126,"count":67,"min":[0.0019529999699443579,-0.04297000169754028],"max":[0.8726410269737244,0.953125],"type":"VEC2","bufferView":1,"byteOffset":1816},{"name":"kakureon-Mesh_2_indices","componentType":5123,"count":258,"min":[0],"max":[66],"type":"SCALAR","bufferView":2,"byteOffset":2208},{"name":"kakureon-Mesh_3_positions","componentType":5126,"count":27,"min":[-1.4839940071105957,-0.8453480005264282,-5.098442077636719],"max":[1.5343329906463623,0.7848629951477051,-1.251979947090149],"type":"VEC3","bufferView":0,"byteOffset":3528},{"name":"kakureon-Mesh_3_texcoords","componentType":5126,"count":27,"min":[0.12038200348615646,0.00776199996471405],"max":[0.8800910115242004,0.9867050051689148],"type":"VEC2","bufferView":1,"byteOffset":2352},{"name":"kakureon-Mesh_3_indices","componentType":5123,"count":96,"min":[0],"max":[26],"type":"SCALAR","bufferView":2,"byteOffset":2724},{"name":"kakureon-Mesh_4_positions","componentType":5126,"count":26,"min":[-1.5865190029144287,-2.5777900218963623,-4.928277015686035],"max":[1.6414090394973755,-1.1379129886627197,-1.363157033920288],"type":"VEC3","bufferView":0,"byteOffset":3852},{"name":"kakureon-Mesh_4_texcoords","componentType":5126,"count":26,"min":[0.12405399978160858,0.03125299885869026],"max":[0.8702970147132874,1.002925992012024],"type":"VEC2","bufferView":1,"byteOffset":2568},{"name":"kakureon-Mesh_4_indices","componentType":5123,"count":96,"min":[0],"max":[25],"type":"SCALAR","bufferView":2,"byteOffset":2916},{"name":"kakureon-Mesh_5_positions","componentType":5126,"count":16,"min":[-1.5865190029144287,-1.6825549602508545,-4.8566060066223145],"max":[1.6414090394973755,-0.07270800322294235,-1.4627619981765747],"type":"VEC3","bufferView":0,"byteOffset":4164},{"name":"kakureon-Mesh_5_texcoords","componentType":5126,"count":16,"min":[0.23867399990558624,0.08484499901533127],"max":[0.774806022644043,0.9916499853134155],"type":"VEC2","bufferView":1,"byteOffset":2776},{"name":"kakureon-Mesh_5_indices","componentType":5123,"count":36,"min":[0],"max":[15],"type":"SCALAR","bufferView":2,"byteOffset":3108},{"name":"kakureon-Mesh_6_positions","componentType":5126,"count":48,"min":[-1.7073709964752197,-3.6799919605255127,-10.24804973602295],"max":[1.9079519510269165,0.9476979970932007,-6.999392986297607],"type":"VEC3","bufferView":0,"byteOffset":4356},{"name":"kakureon-Mesh_6_texcoords","componentType":5126,"count":48,"min":[0,9.999999974752427e-7],"max":[1,1.0000009536743164],"type":"VEC2","bufferView":1,"byteOffset":2904},{"name":"kakureon-Mesh_6_indices","componentType":5123,"count":138,"min":[0],"max":[47],"type":"SCALAR","bufferView":2,"byteOffset":3180},{"name":"kakureon-Mesh_7_positions","componentType":5126,"count":17,"min":[3.796858072280884,-1.2957570552825928,-4.920122146606445],"max":[4.904530048370361,-0.34551700949668884,-4.242483139038086],"type":"VEC3","bufferView":0,"byteOffset":4932},{"name":"kakureon-Mesh_7_texcoords","componentType":5126,"count":17,"min":[0.09765800088644028,0.000007000000096013537],"max":[0.92985600233078,1.0000020265579224],"type":"VEC2","bufferView":1,"byteOffset":3288},{"name":"kakureon-Mesh_7_indices","componentType":5123,"count":84,"min":[0],"max":[16],"type":"SCALAR","bufferView":2,"byteOffset":3456},{"name":"kakureon-Mesh_8_positions","componentType":5126,"count":17,"min":[-4.817047119140625,-1.2957550287246704,-4.99717378616333],"max":[-3.706609010696411,-0.3455139994621277,-4.33781099319458],"type":"VEC3","bufferView":0,"byteOffset":5136},{"name":"kakureon-Mesh_8_texcoords","componentType":5126,"count":17,"min":[0.062497999519109726,0.000007000000096013537],"max":[0.92985600233078,1.0000020265579224],"type":"VEC2","bufferView":1,"byteOffset":3424},{"name":"kakureon-Mesh_8_indices","componentType":5123,"count":84,"min":[0],"max":[16],"type":"SCALAR","bufferView":2,"byteOffset":3624},{"name":"kakureon-Mesh_9_positions","componentType":5126,"count":73,"min":[-1.7469249963760376,-1.3921200037002563,-8.819917678833008],"max":[1.8778630495071411,1.9272609949111938,-5.596636772155762],"type":"VEC3","bufferView":0,"byteOffset":5340},{"name":"kakureon-Mesh_9_texcoords","componentType":5126,"count":73,"min":[0.023437999188899994,0.24414099752902985],"max":[0.9953659772872925,0.49739599227905273],"type":"VEC2","bufferView":1,"byteOffset":3560},{"name":"kakureon-Mesh_9_indices","componentType":5123,"count":354,"min":[0],"max":[72],"type":"SCALAR","bufferView":2,"byteOffset":3792},{"name":"kakureon-Mesh_10_positions","componentType":5126,"count":24,"min":[-1.5742030143737793,-0.8397300243377686,-0.14098399877548218],"max":[1.5742030143737793,-0.0967240035533905,0.020910000428557396],"type":"VEC3","bufferView":0,"byteOffset":6216},{"name":"kakureon-Mesh_10_texcoords","componentType":5126,"count":24,"min":[0.12605899572372437,0.12312900274991989],"max":[0.8937839865684509,0.9602100253105164],"type":"VEC2","bufferView":1,"byteOffset":4144},{"name":"kakureon-Mesh_10_indices","componentType":5123,"count":60,"min":[0],"max":[23],"type":"SCALAR","bufferView":2,"byteOffset":4500},{"name":"kakureon-Mesh_11_positions","componentType":5126,"count":20,"min":[-1.5742030143737793,-1.4126319885253906,-0.010576999746263027],"max":[1.5742030143737793,-0.0967240035533905,0.020910000428557396],"type":"VEC3","bufferView":0,"byteOffset":6504},{"name":"kakureon-Mesh_11_texcoords","componentType":5126,"count":20,"min":[0.33807098865509033,0.12193699926137924],"max":[0.6619279980659485,0.20122499763965607],"type":"VEC2","bufferView":1,"byteOffset":4336},{"name":"kakureon-Mesh_11_indices","componentType":5123,"count":48,"min":[0],"max":[19],"type":"SCALAR","bufferView":2,"byteOffset":4620}],"asset":{"generator":"obj2gltf","version":"2.0"},"buffers":[{"name":"BR_Kecleon-Shiny01","byteLength":184532,"uri":"data:application/octet-stream;base64,"}],"bufferViews":[{"name":"bufferView_0","buffer":0,"byteLength":6744,"byteOffset":0,"byteStride":12,"target":34962},{"name":"bufferView_1","buffer":0,"byteLength":4496,"byteOffset":6744,"byteStride":8,"target":34962},{"name":"bufferView_2","buffer":0,"byteLength":4716,"byteOffset":11240,"target":34963},{"buffer":0,"byteOffset":15956,"byteLength":274},{"buffer":0,"byteOffset":16230,"byteLength":16402},{"buffer":0,"byteOffset":32632,"byteLength":65554},{"buffer":0,"byteOffset":98186,"byteLength":16402},{"buffer":0,"byteOffset":114588,"byteLength":4114},{"buffer":0,"byteOffset":118702,"byteLength":65554},{"buffer":0,"byteOffset":184256,"byteLength":274}],"images":[{"name":"kakureon_1_0","mimeType":"image/x-tga","bufferView":3},{"name":"kakureon_1_1","mimeType":"image/x-tga","bufferView":4},{"name":"kakureon_1_2","mimeType":"image/x-tga","bufferView":5},{"name":"kakureon_1_3","mimeType":"image/x-tga","bufferView":6},{"name":"kakureon_1_7","mimeType":"image/x-tga","bufferView":7},{"name":"kakureon_1_9","mimeType":"image/x-tga","bufferView":8},{"name":"kakureon_1_11","mimeType":"image/x-tga","bufferView":9}],"materials":[{"name":"mat_0","pbrMetallicRoughness":{"baseColorTexture":{"index":0},"baseColorFactor":[1,1,1,1],"metallicFactor":0,"roughnessFactor":0.903921569},"emissiveFactor":[0,0,0],"alphaMode":"BLEND","doubleSided":true},{"name":"mat_1","pbrMetallicRoughness":{"baseColorTexture":{"index":1},"baseColorFactor":[1,1,1,1],"metallicFactor":0,"roughnessFactor":0.903921569},"emissiveFactor":[0,0,0],"alphaMode":"BLEND","doubleSided":true},{"name":"mat_2","pbrMetallicRoughness":{"baseColorTexture":{"index":2},"baseColorFactor":[1,1,1,1],"metallicFactor":0,"roughnessFactor":0.903921569},"emissiveFactor":[0,0,0],"alphaMode":"BLEND","doubleSided":true},{"name":"mat_3","pbrMetallicRoughness":{"baseColorTexture":{"index":3},"baseColorFactor":[1,1,1,1],"metallicFactor":0,"roughnessFactor":0.903921569},"emissiveFactor":[0,0,0],"alphaMode":"BLEND","doubleSided":true},{"name":"mat_4","pbrMetallicRoughness":{"baseColorTexture":{"index":3},"baseColorFactor":[1,1,1,1],"metallicFactor":0,"roughnessFactor":0.903921569},"emissiveFactor":[0,0,0],"alphaMode":"BLEND","doubleSided":true},{"name":"mat_5","pbrMetallicRoughness":{"baseColorTexture":{"index":3},"baseColorFactor":[1,1,1,1],"metallicFactor":0,"roughnessFactor":0.903921569},"emissiveFactor":[0,0,0],"alphaMode":"BLEND","doubleSided":true},{"name":"mat_6","pbrMetallicRoughness":{"baseColorTexture":{"index":0},"baseColorFactor":[1,1,1,1],"metallicFactor":0,"roughnessFactor":0.903921569},"emissiveFactor":[0,0,0],"alphaMode":"BLEND","doubleSided":true},{"name":"mat_7","pbrMetallicRoughness":{"baseColorTexture":{"index":4},"baseColorFactor":[1,1,1,1],"metallicFactor":0,"roughnessFactor":0.903921569},"emissiveFactor":[0,0,0],"alphaMode":"BLEND","doubleSided":true},{"name":"mat_8","pbrMetallicRoughness":{"baseColorTexture":{"index":4},"baseColorFactor":[1,1,1,1],"metallicFactor":0,"roughnessFactor":0.903921569},"emissiveFactor":[0,0,0],"alphaMode":"BLEND","doubleSided":true},{"name":"mat_9","pbrMetallicRoughness":{"baseColorTexture":{"index":5},"baseColorFactor":[1,1,1,1],"metallicFactor":0,"roughnessFactor":0.903921569},"emissiveFactor":[0,0,0],"alphaMode":"BLEND","doubleSided":true},{"name":"mat_10","pbrMetallicRoughness":{"baseColorTexture":{"index":4},"baseColorFactor":[1,1,1,1],"metallicFactor":0,"roughnessFactor":0.903921569},"emissiveFactor":[0,0,0],"alphaMode":"BLEND","doubleSided":true},{"name":"mat_11","pbrMetallicRoughness":{"baseColorTexture":{"index":6},"baseColorFactor":[1,1,1,1],"metallicFactor":0,"roughnessFactor":0.903921569},"emissiveFactor":[0,0,0],"alphaMode":"BLEND","doubleSided":true}],"meshes":[{"name":"kakureon-Mesh","primitives":[{"attributes":{"POSITION":0,"TEXCOORD_0":1},"indices":2,"material":0,"mode":4},{"attributes":{"POSITION":3,"TEXCOORD_0":4},"indices":5,"material":1,"mode":4},{"attributes":{"POSITION":6,"TEXCOORD_0":7},"indices":8,"material":2,"mode":4},{"attributes":{"POSITION":9,"TEXCOORD_0":10},"indices":11,"material":3,"mode":4},{"attributes":{"POSITION":12,"TEXCOORD_0":13},"indices":14,"material":4,"mode":4},{"attributes":{"POSITION":15,"TEXCOORD_0":16},"indices":17,"material":5,"mode":4},{"attributes":{"POSITION":18,"TEXCOORD_0":19},"indices":20,"material":6,"mode":4},{"attributes":{"POSITION":21,"TEXCOORD_0":22},"indices":23,"material":7,"mode":4},{"attributes":{"POSITION":24,"TEXCOORD_0":25},"indices":26,"material":8,"mode":4},{"attributes":{"POSITION":27,"TEXCOORD_0":28},"indices":29,"material":9,"mode":4},{"attributes":{"POSITION":30,"TEXCOORD_0":31},"indices":32,"material":10,"mode":4},{"attributes":{"POSITION":33,"TEXCOORD_0":34},"indices":35,"material":11,"mode":4}]}],"nodes":[{"name":"kakureon","mesh":0}],"samplers":[{"wrapS":10497,"wrapT":10497}],"scene":0,"scenes":[{"nodes":[0]}],"textures":[{"name":"kakureon_1_0","sampler":0,"source":0},{"name":"kakureon_1_1","sampler":0,"source":1},{"name":"kakureon_1_2","sampler":0,"source":2},{"name":"kakureon_1_3","sampler":0,"source":3},{"name":"kakureon_1_7","sampler":0,"source":4},{"name":"kakureon_1_9","sampler":0,"source":5},{"name":"kakureon_1_11","sampler":0,"source":6}]}