{"accessors":[{"name":"kagebouzu-Mesh_0_positions","componentType":5126,"count":260,"min":[-1.975790023803711,-1.975790023803711,-4.507780075073242],"max":[1.975790023803711,1.975790023803711,-0.00020300000323913991],"type":"VEC3","bufferView":0,"byteOffset":0},{"name":"kagebouzu-Mesh_0_texcoords","componentType":5126,"count":260,"min":[-0.14740300178527832,-0.14574000239372253],"max":[1.1257400512695312,1.3004859685897827],"type":"VEC2","bufferView":1,"byteOffset":0},{"name":"kagebouzu-Mesh_0_indices","componentType":5123,"count":1224,"min":[0],"max":[259],"type":"SCALAR","bufferView":2,"byteOffset":0},{"name":"kagebouzu-Mesh_1_positions","componentType":5126,"count":38,"min":[-1.6677199602127075,0.3148620128631592,-4.313769817352295],"max":[1.6677199602127075,1.648419976234436,-2.894659996032715],"type":"VEC3","bufferView":0,"byteOffset":3120},{"name":"kagebouzu-Mesh_1_texcoords","componentType":5126,"count":38,"min":[0.0415709987282753,-0.029370000585913658],"max":[1.0754200220108032,0.1937749981880188],"type":"VEC2","bufferView":1,"byteOffset":2080},{"name":"kagebouzu-Mesh_1_indices","componentType":5123,"count":138,"min":[0],"max":[37],"type":"SCALAR","bufferView":2,"byteOffset":2448},{"name":"kagebouzu-Mesh_2_positions","componentType":5126,"count":16,"min":[-0.8597109913825989,1.0361499786376953,-3.4018399715423584],"max":[0.8597109913825989,1.6920299530029297,-2.4646899700164795],"type":"VEC3","bufferView":0,"byteOffset":3576},{"name":"kagebouzu-Mesh_2_texcoords","componentType":5126,"count":16,"min":[0.03449299931526184,-0.015039999969303608],"max":[0.9862300157546997,0.20027799904346466],"type":"VEC2","bufferView":1,"byteOffset":2384},{"name":"kagebouzu-Mesh_2_indices","componentType":5123,"count":60,"min":[0],"max":[15],"type":"SCALAR","bufferView":2,"byteOffset":2724},{"name":"kagebouzu-Mesh_3_positions","componentType":5126,"count":77,"min":[-0.8192830085754395,-0.7291589975357056,-6.0000200271606445],"max":[0.8192830085754395,0.7291589975357056,-4.507780075073242],"type":"VEC3","bufferView":0,"byteOffset":3768},{"name":"kagebouzu-Mesh_3_texcoords","componentType":5126,"count":77,"min":[0.004387999884784222,0.05890699848532677],"max":[0.9956120252609253,0.9410930275917053],"type":"VEC2","bufferView":1,"byteOffset":2512},{"name":"kagebouzu-Mesh_3_indices","componentType":5123,"count":420,"min":[0],"max":[76],"type":"SCALAR","bufferView":2,"byteOffset":2844}],"asset":{"generator":"obj2gltf","version":"2.0"},"buffers":[{"name":"BR_Shuppet-Shiny01","byteLength":143736,"uri":"data:application/octet-stream;base64,"}],"bufferViews":[{"name":"bufferView_0","buffer":0,"byteLength":4692,"byteOffset":0,"byteStride":12,"target":34962},{"name":"bufferView_1","buffer":0,"byteLength":3128,"byteOffset":4692,"byteStride":8,"target":34962},{"name":"bufferView_2","buffer":0,"byteLength":3684,"byteOffset":7820,"target":34963},{"buffer":0,"byteOffset":11504,"byteLength":82},{"buffer":0,"byteOffset":11586,"byteLength":98322},{"buffer":0,"byteOffset":109908,"byteLength":24594},{"buffer":0,"byteOffset":134502,"byteLength":9234}],"images":[{"name":"kagebouzu_1_0","mimeType":"image/x-tga","bufferView":3},{"name":"kagebouzu_1_1","mimeType":"image/x-tga","bufferView":4},{"name":"kagebouzu_1_2","mimeType":"image/x-tga","bufferView":5},{"name":"kagebouzu_1_3","mimeType":"image/x-tga","bufferView":6}],"materials":[{"name":"mat_0","pbrMetallicRoughness":{"baseColorTexture":{"index":0},"baseColorFactor":[1,1,1,1],"metallicFactor":0,"roughnessFactor":0.903921569},"emissiveFactor":[0,0,0],"alphaMode":"BLEND","doubleSided":true},{"name":"mat_1","pbrMetallicRoughness":{"baseColorTexture":{"index":1},"baseColorFactor":[1,1,1,1],"metallicFactor":0,"roughnessFactor":0.903921569},"emissiveFactor":[0,0,0],"alphaMode":"BLEND","doubleSided":true},{"name":"mat_2","pbrMetallicRoughness":{"baseColorTexture":{"index":2},"baseColorFactor":[1,1,1,1],"metallicFactor":0,"roughnessFactor":0.903921569},"emissiveFactor":[0,0,0],"alphaMode":"BLEND","doubleSided":true},{"name":"mat_3","pbrMetallicRoughness":{"baseColorTexture":{"index":3},"baseColorFactor":[1,1,1,1],"metallicFactor":0,"roughnessFactor":0.903921569},"emissiveFactor":[0,0,0],"alphaMode":"BLEND","doubleSided":true}],"meshes":[{"name":"kagebouzu-Mesh","primitives":[{"attributes":{"POSITION":0,"TEXCOORD_0":1},"indices":2,"material":0,"mode":4},{"attributes":{"POSITION":3,"TEXCOORD_0":4},"indices":5,"material":1,"mode":4},{"attributes":{"POSITION":6,"TEXCOORD_0":7},"indices":8,"material":2,"mode":4},{"attributes":{"POSITION":9,"TEXCOORD_0":10},"indices":11,"material":3,"mode":4}]}],"nodes":[{"name":"kagebouzu","mesh":0}],"samplers":[{"wrapS":10497,"wrapT":10497}],"scene":0,"scenes":[{"nodes":[0]}],"textures":[{"name":"kagebouzu_1_0","sampler":0,"source":0},{"name":"kagebouzu_1_1","sampler":0,"source":1},{"name":"kagebouzu_1_2","sampler":0,"source":2},{"name":"kagebouzu_1_3","sampler":0,"source":3}]}