{"accessors":[{"name":"juppeta_c-Mesh_0_positions","componentType":5126,"count":8,"min":[-0.2843509912490845,-0.1345839947462082,-0.10199999809265137],"max":[0.3067629933357239,0.13141599297523499,1.4220000505447388],"type":"VEC3","bufferView":0,"byteOffset":0},{"name":"juppeta_c-Mesh_0_texcoords","componentType":5126,"count":8,"min":[0,0],"max":[0.9599999785423279,1],"type":"VEC2","bufferView":1,"byteOffset":0},{"name":"juppeta_c-Mesh_0_indices","componentType":5123,"count":24,"min":[0],"max":[7],"type":"SCALAR","bufferView":2,"byteOffset":0}],"asset":{"generator":"obj2gltf","version":"2.0"},"buffers":[{"name":"BR_Banette-Shiny01","byteLength":4324,"uri":"data:application/octet-stream;base64,"}],"bufferViews":[{"name":"bufferView_0","buffer":0,"byteLength":96,"byteOffset":0,"byteStride":12,"target":34962},{"name":"bufferView_1","buffer":0,"byteLength":64,"byteOffset":96,"byteStride":8,"target":34962},{"name":"bufferView_2","buffer":0,"byteLength":48,"byteOffset":160,"target":34963},{"buffer":0,"byteOffset":208,"byteLength":4114}],"images":[{"name":"juppeta_c_1_0","mimeType":"image/x-tga","bufferView":3}],"materials":[{"name":"mat_0","pbrMetallicRoughness":{"baseColorTexture":{"index":0},"baseColorFactor":[1,1,1,1],"metallicFactor":0,"roughnessFactor":0.903921569},"emissiveFactor":[0,0,0],"alphaMode":"BLEND","doubleSided":true}],"meshes":[{"name":"juppeta_c-Mesh","primitives":[{"attributes":{"POSITION":0,"TEXCOORD_0":1},"indices":2,"material":0,"mode":4}]}],"nodes":[{"name":"juppeta_c","mesh":0}],"samplers":[{"wrapS":10497,"wrapT":10497}],"scene":0,"scenes":[{"nodes":[0]}],"textures":[{"name":"juppeta_c_1_0","sampler":0,"source":0}]}