{"accessors":[{"name":"polygon0_1_0_positions","componentType":5126,"count":919,"min":[-5.474398136138916,0.01512099988758564,-3.3518199920654297],"max":[5.474400043487549,6.5779948234558105,2.5220439434051514],"type":"VEC3","bufferView":0,"byteOffset":0},{"name":"polygon0_1_0_normals","componentType":5126,"count":919,"min":[-0.9977169036865234,-0.9998311996459961,-1],"max":[0.9957429766654968,0.9982218742370605,0.9987465143203735],"type":"VEC3","bufferView":1,"byteOffset":0},{"name":"polygon0_1_0_texcoords","componentType":5126,"count":919,"min":[0.013611000031232834,0.004639000166207552],"max":[0.9962459802627563,0.9899290204048157],"type":"VEC2","bufferView":2,"byteOffset":0},{"name":"polygon0_1_0_indices","componentType":5123,"count":4428,"min":[0],"max":[918],"type":"SCALAR","bufferView":3,"byteOffset":0},{"name":"polygon1_1_0_positions","componentType":5126,"count":32,"min":[-1.383031964302063,2.1071929931640625,1.5294359922409058],"max":[1.383031964302063,3.548051118850708,2.280440092086792],"type":"VEC3","bufferView":0,"byteOffset":11028},{"name":"polygon1_1_0_normals","componentType":5126,"count":32,"min":[-0.5786199569702148,0.06255299597978592,0.813194990158081],"max":[0.5786199569702148,0.06255299597978592,0.813194990158081],"type":"VEC3","bufferView":1,"byteOffset":11028},{"name":"polygon1_1_0_texcoords","componentType":5126,"count":32,"min":[-0.6333010196685791,-0.053711000829935074],"max":[1.6274410486221313,1.0537110567092896],"type":"VEC2","bufferView":2,"byteOffset":7352},{"name":"polygon1_1_0_indices","componentType":5123,"count":84,"min":[0],"max":[31],"type":"SCALAR","bufferView":3,"byteOffset":8856}],"asset":{"generator":"obj2gltf","version":"2.0"},"buffers":[{"name":"Duskull","byteLength":432708,"uri":"data:application/octet-stream;base64,"}],"bufferViews":[{"name":"bufferView_0","buffer":0,"byteLength":11412,"byteOffset":0,"byteStride":12,"target":34962},{"name":"bufferView_1","buffer":0,"byteLength":11412,"byteOffset":11412,"byteStride":12,"target":34962},{"name":"bufferView_2","buffer":0,"byteLength":7608,"byteOffset":22824,"byteStride":8,"target":34962},{"name":"bufferView_3","buffer":0,"byteLength":9024,"byteOffset":30432,"target":34963},{"buffer":0,"byteOffset":39456,"byteLength":196626},{"buffer":0,"byteOffset":236082,"byteLength":196626}],"images":[{"name":"YomawaruDh","mimeType":"image/x-tga","bufferView":4},{"name":"YomawaruEyeDh","mimeType":"image/x-tga","bufferView":5}],"materials":[{"name":"mat1","pbrMetallicRoughness":{"baseColorTexture":{"index":0},"baseColorFactor":[1,1,1,1],"metallicFactor":0,"roughnessFactor":0.99},"emissiveFactor":[0,0,0],"alphaMode":"OPAQUE","doubleSided":false},{"name":"mat2","pbrMetallicRoughness":{"baseColorTexture":{"index":1},"baseColorFactor":[1,1,1,1],"metallicFactor":0,"roughnessFactor":0.99},"emissiveFactor":[0,0,0],"alphaMode":"OPAQUE","doubleSided":false}],"meshes":[{"name":"polygon0_1","primitives":[{"attributes":{"POSITION":0,"NORMAL":1,"TEXCOORD_0":2},"indices":3,"material":0,"mode":4}]},{"name":"polygon1_1","primitives":[{"attributes":{"POSITION":4,"NORMAL":5,"TEXCOORD_0":6},"indices":7,"material":1,"mode":4}]}],"nodes":[{"name":"polygon0","mesh":0},{"name":"polygon1","mesh":1}],"samplers":[{"wrapS":10497,"wrapT":10497}],"scene":0,"scenes":[{"nodes":[0,1]}],"textures":[{"name":"YomawaruDh","sampler":0,"source":0},{"name":"YomawaruEyeDh","sampler":0,"source":1}]}