{"accessors":[{"name":"polygon0_1_0_positions","componentType":5126,"count":42,"min":[-1.5596950054168701,18.29817008972168,10.365546226501465],"max":[1.5596940517425537,20.485727310180664,13.830791473388672],"type":"VEC3","bufferView":0,"byteOffset":0},{"name":"polygon0_1_0_normals","componentType":5126,"count":42,"min":[-0.9880555868148804,-0.8666743636131287,0.10626601427793503],"max":[0.9880555868148804,0.8090882301330566,0.9694932103157043],"type":"VEC3","bufferView":1,"byteOffset":0},{"name":"polygon0_1_0_texcoords","componentType":5126,"count":42,"min":[0.0023799999617040157,-0.01043699961155653],"max":[0.6092529892921448,0.19543500244617462],"type":"VEC2","bufferView":2,"byteOffset":0},{"name":"polygon0_1_0_indices","componentType":5123,"count":144,"min":[0],"max":[41],"type":"SCALAR","bufferView":3,"byteOffset":0},{"name":"polygon1_1_0_positions","componentType":5126,"count":1248,"min":[-4.514523029327393,-9.999999974752427e-7,-17.399715423583984],"max":[4.514523029327393,29.58477783203125,14.43051815032959],"type":"VEC3","bufferView":0,"byteOffset":504},{"name":"polygon1_1_0_normals","componentType":5126,"count":1248,"min":[-0.9999915957450867,-0.9997833371162415,-0.9999532103538513],"max":[0.9999915957450867,0.9998311996459961,0.9973897337913513],"type":"VEC3","bufferView":1,"byteOffset":504},{"name":"polygon1_1_0_texcoords","componentType":5126,"count":1248,"min":[0.0011599999852478504,0.004395000170916319],"max":[0.9955440163612366,0.9913330078125],"type":"VEC2","bufferView":2,"byteOffset":336},{"name":"polygon1_1_0_indices","componentType":5123,"count":4716,"min":[0],"max":[1247],"type":"SCALAR","bufferView":3,"byteOffset":288}],"asset":{"generator":"obj2gltf","version":"2.0"},"buffers":[{"name":"Tropius","byteLength":512652,"uri":"data:application/octet-stream;base64,"}],"bufferViews":[{"name":"bufferView_0","buffer":0,"byteLength":15480,"byteOffset":0,"byteStride":12,"target":34962},{"name":"bufferView_1","buffer":0,"byteLength":15480,"byteOffset":15480,"byteStride":12,"target":34962},{"name":"bufferView_2","buffer":0,"byteLength":10320,"byteOffset":30960,"byteStride":8,"target":34962},{"name":"bufferView_3","buffer":0,"byteLength":9720,"byteOffset":41280,"target":34963},{"buffer":0,"byteOffset":51000,"byteLength":98322},{"buffer":0,"byteOffset":149322,"byteLength":363330}],"images":[{"name":"TropiusEyeDh","mimeType":"image/x-tga","bufferView":4},{"name":"TropiusDh","mimeType":"image/x-tga","bufferView":5}],"materials":[{"name":"mat2","pbrMetallicRoughness":{"baseColorTexture":{"index":0},"baseColorFactor":[1,1,1,1],"metallicFactor":0,"roughnessFactor":0.99},"emissiveFactor":[0,0,0],"alphaMode":"OPAQUE","doubleSided":false},{"name":"mat1","pbrMetallicRoughness":{"baseColorTexture":{"index":1},"baseColorFactor":[1,1,1,1],"metallicFactor":0,"roughnessFactor":0.99},"emissiveFactor":[0,0,0],"alphaMode":"OPAQUE","doubleSided":false}],"meshes":[{"name":"polygon0_1","primitives":[{"attributes":{"POSITION":0,"NORMAL":1,"TEXCOORD_0":2},"indices":3,"material":0,"mode":4}]},{"name":"polygon1_1","primitives":[{"attributes":{"POSITION":4,"NORMAL":5,"TEXCOORD_0":6},"indices":7,"material":1,"mode":4}]}],"nodes":[{"name":"polygon0","mesh":0},{"name":"polygon1","mesh":1}],"samplers":[{"wrapS":10497,"wrapT":10497}],"scene":0,"scenes":[{"nodes":[0,1]}],"textures":[{"name":"TropiusEyeDh","sampler":0,"source":0},{"name":"TropiusDh","sampler":0,"source":1}]}