{"accessors":[{"name":"chirean-Mesh_0_positions","componentType":5126,"count":218,"min":[-0.8745660185813904,-1.0167499780654907,-5.260849952697754],"max":[0.8781440258026123,0.6807519793510437,-1.3000999689102173],"type":"VEC3","bufferView":0,"byteOffset":0},{"name":"chirean-Mesh_0_texcoords","componentType":5126,"count":218,"min":[-0.41146600246429443,-0.18818999826908112],"max":[1.4151899814605713,1.5596519708633423],"type":"VEC2","bufferView":1,"byteOffset":0},{"name":"chirean-Mesh_0_indices","componentType":5123,"count":1044,"min":[0],"max":[217],"type":"SCALAR","bufferView":2,"byteOffset":0},{"name":"chirean-Mesh_1_positions","componentType":5126,"count":58,"min":[-0.8414559960365295,-0.8414559960365295,-4.998869895935059],"max":[0.8414559960365295,0.7287219762802124,-4.251760005950928],"type":"VEC3","bufferView":0,"byteOffset":2616},{"name":"chirean-Mesh_1_texcoords","componentType":5126,"count":58,"min":[0.07211700081825256,0.0019529999699443579],"max":[0.9951080083847046,1.001952052116394],"type":"VEC2","bufferView":1,"byteOffset":1744},{"name":"chirean-Mesh_1_indices","componentType":5123,"count":240,"min":[0],"max":[57],"type":"SCALAR","bufferView":2,"byteOffset":2088},{"name":"chirean-Mesh_2_positions","componentType":5126,"count":15,"min":[-0.42072799801826477,0.5895490050315857,-4.998869895935059],"max":[0.42072799801826477,0.8414559960365295,-4.251760005950928],"type":"VEC3","bufferView":0,"byteOffset":3312},{"name":"chirean-Mesh_2_texcoords","componentType":5126,"count":15,"min":[0.001563000027090311,0],"max":[0.09824199974536896,1.0000009536743164],"type":"VEC2","bufferView":1,"byteOffset":2208},{"name":"chirean-Mesh_2_indices","componentType":5123,"count":48,"min":[0],"max":[14],"type":"SCALAR","bufferView":2,"byteOffset":2568},{"name":"chirean-Mesh_3_positions","componentType":5126,"count":105,"min":[-0.47890299558639526,-0.47890299558639526,-5.9846601486206055],"max":[0.47890299558639526,0.47890299558639526,-5.177969932556152],"type":"VEC3","bufferView":0,"byteOffset":3492},{"name":"chirean-Mesh_3_texcoords","componentType":5126,"count":105,"min":[0,0],"max":[1,1],"type":"VEC2","bufferView":1,"byteOffset":2328},{"name":"chirean-Mesh_3_indices","componentType":5123,"count":552,"min":[0],"max":[104],"type":"SCALAR","bufferView":2,"byteOffset":2664},{"name":"chirean-Mesh_4_positions","componentType":5126,"count":30,"min":[-0.6799539923667908,-0.004623000044375658,-2.0223801136016846],"max":[0.6799569725990295,0.004623000044375658,9.999999974752427e-7],"type":"VEC3","bufferView":0,"byteOffset":4752},{"name":"chirean-Mesh_4_texcoords","componentType":5126,"count":30,"min":[-0.0039059999398887157,-0.00039999998989515007],"max":[0.9973959922790527,0.9996039867401123],"type":"VEC2","bufferView":1,"byteOffset":3168},{"name":"chirean-Mesh_4_indices","componentType":5123,"count":126,"min":[0],"max":[29],"type":"SCALAR","bufferView":2,"byteOffset":3768}],"asset":{"generator":"obj2gltf","version":"2.0"},"buffers":[{"name":"BR_Chimecho-Shiny01","byteLength":524632,"uri":"data:application/octet-stream;base64,"}],"bufferViews":[{"name":"bufferView_0","buffer":0,"byteLength":5112,"byteOffset":0,"byteStride":12,"target":34962},{"name":"bufferView_1","buffer":0,"byteLength":3408,"byteOffset":5112,"byteStride":8,"target":34962},{"name":"bufferView_2","buffer":0,"byteLength":4020,"byteOffset":8520,"target":34963},{"buffer":0,"byteOffset":12540,"byteLength":16402},{"buffer":0,"byteOffset":28942,"byteLength":131090},{"buffer":0,"byteOffset":160032,"byteLength":327698},{"buffer":0,"byteOffset":487730,"byteLength":4114},{"buffer":0,"byteOffset":491844,"byteLength":32786}],"images":[{"name":"chirean_1_0","mimeType":"image/x-tga","bufferView":3},{"name":"chirean_1_1","mimeType":"image/x-tga","bufferView":4},{"name":"chirean_1_2","mimeType":"image/x-tga","bufferView":5},{"name":"chirean_1_3","mimeType":"image/x-tga","bufferView":6},{"name":"chirean_1_4","mimeType":"image/x-tga","bufferView":7}],"materials":[{"name":"mat_0","pbrMetallicRoughness":{"baseColorTexture":{"index":0},"baseColorFactor":[1,1,1,1],"metallicFactor":0,"roughnessFactor":0.903921569},"emissiveFactor":[0,0,0],"alphaMode":"BLEND","doubleSided":true},{"name":"mat_1","pbrMetallicRoughness":{"baseColorTexture":{"index":1},"baseColorFactor":[1,1,1,1],"metallicFactor":0,"roughnessFactor":0.903921569},"emissiveFactor":[0,0,0],"alphaMode":"BLEND","doubleSided":true},{"name":"mat_2","pbrMetallicRoughness":{"baseColorTexture":{"index":2},"baseColorFactor":[1,1,1,1],"metallicFactor":0,"roughnessFactor":0.903921569},"emissiveFactor":[0,0,0],"alphaMode":"BLEND","doubleSided":true},{"name":"mat_3","pbrMetallicRoughness":{"baseColorTexture":{"index":3},"baseColorFactor":[1,1,1,1],"metallicFactor":0,"roughnessFactor":0.903921569},"emissiveFactor":[0,0,0],"alphaMode":"BLEND","doubleSided":true},{"name":"mat_4","pbrMetallicRoughness":{"baseColorTexture":{"index":4},"baseColorFactor":[1,1,1,1],"metallicFactor":0,"roughnessFactor":0.903921569},"emissiveFactor":[0,0,0],"alphaMode":"BLEND","doubleSided":true}],"meshes":[{"name":"chirean-Mesh","primitives":[{"attributes":{"POSITION":0,"TEXCOORD_0":1},"indices":2,"material":0,"mode":4},{"attributes":{"POSITION":3,"TEXCOORD_0":4},"indices":5,"material":1,"mode":4},{"attributes":{"POSITION":6,"TEXCOORD_0":7},"indices":8,"material":2,"mode":4},{"attributes":{"POSITION":9,"TEXCOORD_0":10},"indices":11,"material":3,"mode":4},{"attributes":{"POSITION":12,"TEXCOORD_0":13},"indices":14,"material":4,"mode":4}]}],"nodes":[{"name":"chirean","mesh":0}],"samplers":[{"wrapS":10497,"wrapT":10497}],"scene":0,"scenes":[{"nodes":[0]}],"textures":[{"name":"chirean_1_0","sampler":0,"source":0},{"name":"chirean_1_1","sampler":0,"source":1},{"name":"chirean_1_2","sampler":0,"source":2},{"name":"chirean_1_3","sampler":0,"source":3},{"name":"chirean_1_4","sampler":0,"source":4}]}