{"accessors":[{"name":"polygon0_1_0_positions","componentType":5126,"count":26,"min":[-0.4510200023651123,6.8699631690979,3.055341958999634],"max":[0.4604640007019043,7.584514141082764,3.857609987258911],"type":"VEC3","bufferView":0,"byteOffset":0},{"name":"polygon0_1_0_normals","componentType":5126,"count":26,"min":[-0.5395510792732239,-0.9647217988967896,0.2630619406700134],"max":[0.5260029435157776,0.4533689618110657,0.949346125125885],"type":"VEC3","bufferView":1,"byteOffset":0},{"name":"polygon0_1_0_texcoords","componentType":5126,"count":26,"min":[0.27191200852394104,0.0221560001373291],"max":[0.7172549962997437,0.2247920036315918],"type":"VEC2","bufferView":2,"byteOffset":0},{"name":"polygon0_1_0_indices","componentType":5123,"count":108,"min":[0],"max":[25],"type":"SCALAR","bufferView":3,"byteOffset":0},{"name":"polygon1_1_0_positions","componentType":5126,"count":1151,"min":[-2.902848958969116,-0.0000019999999949504854,-9.209906578063965],"max":[2.3911259174346924,12.200578689575195,3.949410915374756],"type":"VEC3","bufferView":0,"byteOffset":312},{"name":"polygon1_1_0_normals","componentType":5126,"count":1151,"min":[-0.9997585415840149,-0.9999974370002747,-0.9999362826347351],"max":[0.9990211725234985,0.9992038011550903,0.9999974370002747],"type":"VEC3","bufferView":1,"byteOffset":312},{"name":"polygon1_1_0_texcoords","componentType":5126,"count":1151,"min":[0.009917999617755413,0.00534099992364645],"max":[0.9906619787216187,0.9933469891548157],"type":"VEC2","bufferView":2,"byteOffset":208},{"name":"polygon1_1_0_indices","componentType":5123,"count":4524,"min":[0],"max":[1150],"type":"SCALAR","bufferView":3,"byteOffset":216},{"name":"polygon2_1_0_positions","componentType":5126,"count":68,"min":[-1.0313869714736938,7.6803131103515625,2.9665839672088623],"max":[1.0930310487747192,8.42053508758545,3.654366970062256],"type":"VEC3","bufferView":0,"byteOffset":14124},{"name":"polygon2_1_0_normals","componentType":5126,"count":68,"min":[-0.9182901382446289,-0.2689819931983948,0.39575904607772827],"max":[0.8941095471382141,0.559991717338562,0.9336308836936951],"type":"VEC3","bufferView":1,"byteOffset":14124},{"name":"polygon2_1_0_texcoords","componentType":5126,"count":68,"min":[0.027343999594449997,0.023437000811100006],"max":[0.484375,0.1953119933605194],"type":"VEC2","bufferView":2,"byteOffset":9416},{"name":"polygon2_1_0_indices","componentType":5123,"count":312,"min":[0],"max":[67],"type":"SCALAR","bufferView":3,"byteOffset":9264}],"asset":{"generator":"obj2gltf","version":"2.0"},"buffers":[{"name":"Absol","byteLength":393848,"uri":"data:application/octet-stream;base64,"}],"bufferViews":[{"name":"bufferView_0","buffer":0,"byteLength":14940,"byteOffset":0,"byteStride":12,"target":34962},{"name":"bufferView_1","buffer":0,"byteLength":14940,"byteOffset":14940,"byteStride":12,"target":34962},{"name":"bufferView_2","buffer":0,"byteLength":9960,"byteOffset":29880,"byteStride":8,"target":34962},{"name":"bufferView_3","buffer":0,"byteLength":9888,"byteOffset":39840,"target":34963},{"buffer":0,"byteOffset":49728,"byteLength":49170},{"buffer":0,"byteOffset":98898,"byteLength":196626},{"buffer":0,"byteOffset":295524,"byteLength":98322}],"images":[{"name":"AbsolMouthDh","mimeType":"image/x-tga","bufferView":4},{"name":"AbsolDh","mimeType":"image/x-tga","bufferView":5},{"name":"AbsolEyeDh","mimeType":"image/x-tga","bufferView":6}],"materials":[{"name":"mat3","pbrMetallicRoughness":{"baseColorTexture":{"index":0},"baseColorFactor":[1,1,1,1],"metallicFactor":0,"roughnessFactor":0.99},"emissiveFactor":[0,0,0],"alphaMode":"OPAQUE","doubleSided":false},{"name":"mat1","pbrMetallicRoughness":{"baseColorTexture":{"index":1},"baseColorFactor":[1,1,1,1],"metallicFactor":0,"roughnessFactor":0.99},"emissiveFactor":[0,0,0],"alphaMode":"OPAQUE","doubleSided":false},{"name":"mat2","pbrMetallicRoughness":{"baseColorTexture":{"index":2},"baseColorFactor":[1,1,1,1],"metallicFactor":0,"roughnessFactor":0.99},"emissiveFactor":[0,0,0],"alphaMode":"OPAQUE","doubleSided":false}],"meshes":[{"name":"polygon0_1","primitives":[{"attributes":{"POSITION":0,"NORMAL":1,"TEXCOORD_0":2},"indices":3,"material":0,"mode":4}]},{"name":"polygon1_1","primitives":[{"attributes":{"POSITION":4,"NORMAL":5,"TEXCOORD_0":6},"indices":7,"material":1,"mode":4}]},{"name":"polygon2_1","primitives":[{"attributes":{"POSITION":8,"NORMAL":9,"TEXCOORD_0":10},"indices":11,"material":2,"mode":4}]}],"nodes":[{"name":"polygon0","mesh":0},{"name":"polygon1","mesh":1},{"name":"polygon2","mesh":2}],"samplers":[{"wrapS":10497,"wrapT":10497}],"scene":0,"scenes":[{"nodes":[0,1,2]}],"textures":[{"name":"AbsolMouthDh","sampler":0,"source":0},{"name":"AbsolDh","sampler":0,"source":1},{"name":"AbsolEyeDh","sampler":0,"source":2}]}