{"accessors":[{"name":"Absol_1_0_positions","componentType":5126,"count":108,"min":[-5.135540962219238,66.03559112548828,34.205406188964844],"max":[5.135517120361328,70.67719268798828,42.02981185913086],"type":"VEC3","bufferView":0,"byteOffset":0},{"name":"Absol_1_0_normals","componentType":5126,"count":108,"min":[-0.5580212473869324,-0.9640243053436279,0.1286870390176773],"max":[0,-0.38777315616607666,0.7530742883682251],"type":"VEC3","bufferView":1,"byteOffset":0},{"name":"Absol_1_0_texcoords","componentType":5126,"count":108,"min":[0.08173999935388565,-1.9920300245285034],"max":[0.41826000809669495,-1.7566800117492676],"type":"VEC2","bufferView":2,"byteOffset":0},{"name":"Absol_1_0_indices","componentType":5123,"count":108,"min":[0],"max":[107],"type":"SCALAR","bufferView":3,"byteOffset":0},{"name":"Absol_1_1_positions","componentType":5126,"count":16992,"min":[-29.781505584716797,-0.36481499671936035,-84.12618255615234],"max":[22.093093872070312,119.73897552490234,45.91211700439453],"type":"VEC3","bufferView":0,"byteOffset":1296},{"name":"Absol_1_1_normals","componentType":5126,"count":16992,"min":[-0.999661922454834,-0.9985288977622986,-0.9999540448188782],"max":[0.999661922454834,0.9998548030853271,0.9996803998947144],"type":"VEC3","bufferView":1,"byteOffset":1296},{"name":"Absol_1_1_texcoords","componentType":5126,"count":16992,"min":[0.005859000142663717,0.009789999574422836],"max":[0.9941409826278687,0.9921870231628418],"type":"VEC2","bufferView":2,"byteOffset":864},{"name":"Absol_1_1_indices","componentType":5123,"count":16992,"min":[0],"max":[16991],"type":"SCALAR","bufferView":3,"byteOffset":216},{"name":"Absol_1_2_positions","componentType":5126,"count":258,"min":[-10.89111042022705,73.2365951538086,35.36601257324219],"max":[10.891085624694824,80.36878967285156,42.17661666870117],"type":"VEC3","bufferView":0,"byteOffset":205200},{"name":"Absol_1_2_normals","componentType":5126,"count":258,"min":[-0.9992262721061707,-0.7127292156219482,-0.8629291653633118],"max":[0.03873799368739128,0.8058834075927734,0.9471356868743896],"type":"VEC3","bufferView":1,"byteOffset":205200},{"name":"Absol_1_2_texcoords","componentType":5126,"count":258,"min":[0.007916999980807304,-0.92399001121521],"max":[0.4920800030231476,-0.8125],"type":"VEC2","bufferView":2,"byteOffset":136800},{"name":"Absol_1_2_indices","componentType":5123,"count":258,"min":[0],"max":[257],"type":"SCALAR","bufferView":3,"byteOffset":34200}],"asset":{"generator":"obj2gltf","version":"2.0"},"buffers":[{"name":"XY_Absol","byteLength":708844,"uri":"data:application/octet-stream;base64,"}],"bufferViews":[{"name":"bufferView_0","buffer":0,"byteLength":208296,"byteOffset":0,"byteStride":12,"target":34962},{"name":"bufferView_1","buffer":0,"byteLength":208296,"byteOffset":208296,"byteStride":12,"target":34962},{"name":"bufferView_2","buffer":0,"byteLength":138864,"byteOffset":416592,"byteStride":8,"target":34962},{"name":"bufferView_3","buffer":0,"byteLength":34716,"byteOffset":555456,"target":34963},{"buffer":0,"byteOffset":590172,"byteLength":13614},{"buffer":0,"byteOffset":603786,"byteLength":76785},{"buffer":0,"byteOffset":680571,"byteLength":28270}],"images":[{"name":"pm0359_00_Mouth1","mimeType":"image/png","bufferView":4},{"name":"pm0359_00_Body1","mimeType":"image/png","bufferView":5},{"name":"pm0359_00_Eye1","mimeType":"image/png","bufferView":6}],"materials":[{"name":"Material__10","pbrMetallicRoughness":{"baseColorTexture":{"index":0},"baseColorFactor":[1,1,1,1],"metallicFactor":0,"roughnessFactor":0.998},"emissiveFactor":[0,0,0],"alphaMode":"OPAQUE","doubleSided":false},{"name":"Material__11","pbrMetallicRoughness":{"baseColorTexture":{"index":1},"baseColorFactor":[1,1,1,1],"metallicFactor":0,"roughnessFactor":0.998},"emissiveFactor":[0,0,0],"alphaMode":"OPAQUE","doubleSided":false},{"name":"Material__12","pbrMetallicRoughness":{"baseColorTexture":{"index":2},"baseColorFactor":[1,1,1,1],"metallicFactor":0,"roughnessFactor":0.998},"emissiveFactor":[0,0,0],"alphaMode":"OPAQUE","doubleSided":false}],"meshes":[{"name":"Absol_1","primitives":[{"attributes":{"POSITION":0,"NORMAL":1,"TEXCOORD_0":2},"indices":3,"material":0,"mode":4},{"attributes":{"POSITION":4,"NORMAL":5,"TEXCOORD_0":6},"indices":7,"material":1,"mode":4},{"attributes":{"POSITION":8,"NORMAL":9,"TEXCOORD_0":10},"indices":11,"material":2,"mode":4}]}],"nodes":[{"name":"Absol","mesh":0}],"samplers":[{"wrapS":10497,"wrapT":10497}],"scene":0,"scenes":[{"nodes":[0]}],"textures":[{"name":"pm0359_00_Mouth1","sampler":0,"source":0},{"name":"pm0359_00_Body1","sampler":0,"source":1},{"name":"pm0359_00_Eye1","sampler":0,"source":2}]}