{"accessors":[{"name":"polygon0_1_0_positions","componentType":5126,"count":787,"min":[-5.299598217010498,-0.046737998723983765,-3.9124419689178467],"max":[5.299363136291504,6.104074954986572,2.63687801361084],"type":"VEC3","bufferView":0,"byteOffset":0},{"name":"polygon0_1_0_normals","componentType":5126,"count":787,"min":[-0.99983149766922,-1,-1],"max":[0.9994458556175232,0.9999793171882629,0.9990764260292053],"type":"VEC3","bufferView":1,"byteOffset":0},{"name":"polygon0_1_0_texcoords","componentType":5126,"count":787,"min":[0.010010000318288803,0.008697999641299248],"max":[0.9836429953575134,0.9945979714393616],"type":"VEC2","bufferView":2,"byteOffset":0},{"name":"polygon0_1_0_indices","componentType":5123,"count":4068,"min":[0],"max":[786],"type":"SCALAR","bufferView":3,"byteOffset":0},{"name":"polygon1_1_0_positions","componentType":5126,"count":40,"min":[-1.3624290227890015,3.3937599658966064,0.9685930013656616],"max":[1.3624299764633179,4.269643783569336,1.8035229444503784],"type":"VEC3","bufferView":0,"byteOffset":9444},{"name":"polygon1_1_0_normals","componentType":5126,"count":40,"min":[-0.8378947377204895,0.15960794687271118,0.46728789806365967],"max":[0.8378947377204895,0.7335576415061951,0.9502270221710205],"type":"VEC3","bufferView":1,"byteOffset":9444},{"name":"polygon1_1_0_texcoords","componentType":5126,"count":40,"min":[1.016510009765625,0.017548000440001488],"max":[1.486083984375,0.23446699976921082],"type":"VEC2","bufferView":2,"byteOffset":6296},{"name":"polygon1_1_0_indices","componentType":5123,"count":144,"min":[0],"max":[39],"type":"SCALAR","bufferView":3,"byteOffset":8136},{"name":"polygon2_1_0_positions","componentType":5126,"count":94,"min":[-1.2028100490570068,2.000631093978882,0.04121299833059311],"max":[1.2028119564056396,3.637852907180786,1.896101951599121],"type":"VEC3","bufferView":0,"byteOffset":9924},{"name":"polygon2_1_0_normals","componentType":5126,"count":94,"min":[-0.9841329455375671,-0.998528778553009,-0.608163058757782],"max":[0.9841226935386658,0.9985127449035645,0.9963067770004272],"type":"VEC3","bufferView":1,"byteOffset":9924},{"name":"polygon2_1_0_texcoords","componentType":5126,"count":94,"min":[0.04492200165987015,0.3944399952888489],"max":[0.9439089894294739,0.7797549962997437],"type":"VEC2","bufferView":2,"byteOffset":6616},{"name":"polygon2_1_0_indices","componentType":5123,"count":414,"min":[0],"max":[93],"type":"SCALAR","bufferView":3,"byteOffset":8424}],"asset":{"generator":"obj2gltf","version":"2.0"},"buffers":[{"name":"Wynaut","byteLength":333672,"uri":"data:application/octet-stream;base64,"}],"bufferViews":[{"name":"bufferView_0","buffer":0,"byteLength":11052,"byteOffset":0,"byteStride":12,"target":34962},{"name":"bufferView_1","buffer":0,"byteLength":11052,"byteOffset":11052,"byteStride":12,"target":34962},{"name":"bufferView_2","buffer":0,"byteLength":7368,"byteOffset":22104,"byteStride":8,"target":34962},{"name":"bufferView_3","buffer":0,"byteLength":9252,"byteOffset":29472,"target":34963},{"buffer":0,"byteOffset":38724,"byteLength":196626},{"buffer":0,"byteOffset":235350,"byteLength":98322}],"images":[{"name":"SohnanoDh","mimeType":"image/x-tga","bufferView":4},{"name":"SohnanoEyeDh","mimeType":"image/x-tga","bufferView":5}],"materials":[{"name":"mat1","pbrMetallicRoughness":{"baseColorTexture":{"index":0},"baseColorFactor":[1,1,1,1],"metallicFactor":0,"roughnessFactor":0.99},"emissiveFactor":[0,0,0],"alphaMode":"OPAQUE","doubleSided":false},{"name":"mat2","pbrMetallicRoughness":{"baseColorTexture":{"index":1},"baseColorFactor":[1,1,1,1],"metallicFactor":0,"roughnessFactor":0.99},"emissiveFactor":[0,0,0],"alphaMode":"OPAQUE","doubleSided":false},{"name":"mat3","pbrMetallicRoughness":{"baseColorTexture":{"index":0},"baseColorFactor":[1,1,1,1],"metallicFactor":0,"roughnessFactor":0.99},"emissiveFactor":[0,0,0],"alphaMode":"OPAQUE","doubleSided":false}],"meshes":[{"name":"polygon0_1","primitives":[{"attributes":{"POSITION":0,"NORMAL":1,"TEXCOORD_0":2},"indices":3,"material":0,"mode":4}]},{"name":"polygon1_1","primitives":[{"attributes":{"POSITION":4,"NORMAL":5,"TEXCOORD_0":6},"indices":7,"material":1,"mode":4}]},{"name":"polygon2_1","primitives":[{"attributes":{"POSITION":8,"NORMAL":9,"TEXCOORD_0":10},"indices":11,"material":2,"mode":4}]}],"nodes":[{"name":"polygon0","mesh":0},{"name":"polygon1","mesh":1},{"name":"polygon2","mesh":2}],"samplers":[{"wrapS":10497,"wrapT":10497}],"scene":0,"scenes":[{"nodes":[0,1,2]}],"textures":[{"name":"SohnanoDh","sampler":0,"source":0},{"name":"SohnanoEyeDh","sampler":0,"source":1}]}