{"accessors":[{"name":"yukiwarashi-Mesh_0_positions","componentType":5126,"count":151,"min":[-1.3832999467849731,-0.8671929836273193,-2.0999999046325684],"max":[1.3832999467849731,2.299999952316284,-0.00010699999984353781],"type":"VEC3","bufferView":0,"byteOffset":0},{"name":"yukiwarashi-Mesh_0_texcoords","componentType":5126,"count":151,"min":[0,0],"max":[1,1],"type":"VEC2","bufferView":1,"byteOffset":0},{"name":"yukiwarashi-Mesh_0_indices","componentType":5123,"count":828,"min":[0],"max":[150],"type":"SCALAR","bufferView":2,"byteOffset":0},{"name":"yukiwarashi-Mesh_1_positions","componentType":5126,"count":58,"min":[-2.2626399993896484,-2.253079891204834,-5.883780002593994],"max":[2.2626399993896484,1.7942999601364136,-0.7888969779014587],"type":"VEC3","bufferView":0,"byteOffset":1812},{"name":"yukiwarashi-Mesh_1_texcoords","componentType":5126,"count":58,"min":[0.045527998358011246,0.026328999549150467],"max":[1,1],"type":"VEC2","bufferView":1,"byteOffset":1208},{"name":"yukiwarashi-Mesh_1_indices","componentType":5123,"count":270,"min":[0],"max":[57],"type":"SCALAR","bufferView":2,"byteOffset":1656},{"name":"yukiwarashi-Mesh_2_positions","componentType":5126,"count":21,"min":[-2.1649999618530273,-2.253079891204834,-6.096049785614014],"max":[2.1649999618530273,1.0174299478530884,-3.0395500659942627],"type":"VEC3","bufferView":0,"byteOffset":2508},{"name":"yukiwarashi-Mesh_2_texcoords","componentType":5126,"count":21,"min":[-0.125,-0.1238899976015091],"max":[1.125,1.3324309587478638],"type":"VEC2","bufferView":1,"byteOffset":1672},{"name":"yukiwarashi-Mesh_2_indices","componentType":5123,"count":84,"min":[0],"max":[20],"type":"SCALAR","bufferView":2,"byteOffset":2196},{"name":"yukiwarashi-Mesh_3_positions","componentType":5126,"count":15,"min":[-2.2626399993896484,0.4106619954109192,-3.0395500659942627],"max":[2.2626399993896484,2.007730007171631,-1.6526999473571777],"type":"VEC3","bufferView":0,"byteOffset":2760},{"name":"yukiwarashi-Mesh_3_texcoords","componentType":5126,"count":15,"min":[-0.12602399289608002,0.01857900060713291],"max":[1.1081600189208984,1.119392991065979],"type":"VEC2","bufferView":1,"byteOffset":1840},{"name":"yukiwarashi-Mesh_3_indices","componentType":5123,"count":48,"min":[0],"max":[14],"type":"SCALAR","bufferView":2,"byteOffset":2364},{"name":"yukiwarashi-Mesh_4_positions","componentType":5126,"count":6,"min":[-1.3984299898147583,1.4722299575805664,-3.9452099800109863],"max":[1.4070700407028198,2.007730007171631,-3.032370090484619],"type":"VEC3","bufferView":0,"byteOffset":2940},{"name":"yukiwarashi-Mesh_4_texcoords","componentType":5126,"count":6,"min":[-3.2502501010894775,-0.15137000381946564],"max":[1.591599941253662,0.12415999919176102],"type":"VEC2","bufferView":1,"byteOffset":1960},{"name":"yukiwarashi-Mesh_4_indices","componentType":5123,"count":12,"min":[0],"max":[5],"type":"SCALAR","bufferView":2,"byteOffset":2460}],"asset":{"generator":"obj2gltf","version":"2.0"},"buffers":[{"name":"BR_Snorunt-Shiny01","byteLength":171544,"uri":"data:application/octet-stream;base64,"}],"bufferViews":[{"name":"bufferView_0","buffer":0,"byteLength":3012,"byteOffset":0,"byteStride":12,"target":34962},{"name":"bufferView_1","buffer":0,"byteLength":2008,"byteOffset":3012,"byteStride":8,"target":34962},{"name":"bufferView_2","buffer":0,"byteLength":2484,"byteOffset":5020,"target":34963},{"buffer":0,"byteOffset":7504,"byteLength":82},{"buffer":0,"byteOffset":7586,"byteLength":82},{"buffer":0,"byteOffset":7668,"byteLength":32786},{"buffer":0,"byteOffset":40454,"byteLength":131090}],"images":[{"name":"yukiwarashi_1_0","mimeType":"image/x-tga","bufferView":3},{"name":"yukiwarashi_1_2","mimeType":"image/x-tga","bufferView":4},{"name":"yukiwarashi_1_3","mimeType":"image/x-tga","bufferView":5},{"name":"yukiwarashi_1_4","mimeType":"image/x-tga","bufferView":6}],"materials":[{"name":"mat_0","pbrMetallicRoughness":{"baseColorTexture":{"index":0},"baseColorFactor":[1,1,1,1],"metallicFactor":0,"roughnessFactor":0.903921569},"emissiveFactor":[0,0,0],"alphaMode":"BLEND","doubleSided":true},{"name":"mat_1","pbrMetallicRoughness":{"baseColorTexture":{"index":0},"baseColorFactor":[1,1,1,1],"metallicFactor":0,"roughnessFactor":0.903921569},"emissiveFactor":[0,0,0],"alphaMode":"BLEND","doubleSided":true},{"name":"mat_2","pbrMetallicRoughness":{"baseColorTexture":{"index":1},"baseColorFactor":[1,1,1,1],"metallicFactor":0,"roughnessFactor":0.903921569},"emissiveFactor":[0,0,0],"alphaMode":"BLEND","doubleSided":true},{"name":"mat_3","pbrMetallicRoughness":{"baseColorTexture":{"index":2},"baseColorFactor":[1,1,1,1],"metallicFactor":0,"roughnessFactor":0.903921569},"emissiveFactor":[0,0,0],"alphaMode":"BLEND","doubleSided":true},{"name":"mat_4","pbrMetallicRoughness":{"baseColorTexture":{"index":3},"baseColorFactor":[1,1,1,1],"metallicFactor":0,"roughnessFactor":0.903921569},"emissiveFactor":[0,0,0],"alphaMode":"BLEND","doubleSided":true}],"meshes":[{"name":"yukiwarashi-Mesh","primitives":[{"attributes":{"POSITION":0,"TEXCOORD_0":1},"indices":2,"material":0,"mode":4},{"attributes":{"POSITION":3,"TEXCOORD_0":4},"indices":5,"material":1,"mode":4},{"attributes":{"POSITION":6,"TEXCOORD_0":7},"indices":8,"material":2,"mode":4},{"attributes":{"POSITION":9,"TEXCOORD_0":10},"indices":11,"material":3,"mode":4},{"attributes":{"POSITION":12,"TEXCOORD_0":13},"indices":14,"material":4,"mode":4}]}],"nodes":[{"name":"yukiwarashi","mesh":0}],"samplers":[{"wrapS":10497,"wrapT":10497}],"scene":0,"scenes":[{"nodes":[0]}],"textures":[{"name":"yukiwarashi_1_0","sampler":0,"source":0},{"name":"yukiwarashi_1_2","sampler":0,"source":1},{"name":"yukiwarashi_1_3","sampler":0,"source":2},{"name":"yukiwarashi_1_4","sampler":0,"source":3}]}