{"accessors":[{"name":"polygon0_1_0_positions","componentType":5126,"count":74,"min":[-1.8998479843139648,-4.17073917388916,4.590318202972412],"max":[1.8998370170593262,-1.0880390405654907,6.31345796585083],"type":"VEC3","bufferView":0,"byteOffset":0},{"name":"polygon0_1_0_normals","componentType":5126,"count":74,"min":[-0.3577931821346283,-0.7619513273239136,-0.9739397168159485],"max":[0.3577931821346283,0.9812010526657104,0.9739397168159485],"type":"VEC3","bufferView":1,"byteOffset":0},{"name":"polygon0_1_0_texcoords","componentType":5126,"count":74,"min":[0.8257449865341187,0.6454769968986511],"max":[0.9902949929237366,0.9847109913825989],"type":"VEC2","bufferView":2,"byteOffset":0},{"name":"polygon0_1_0_indices","componentType":5123,"count":336,"min":[0],"max":[73],"type":"SCALAR","bufferView":3,"byteOffset":0},{"name":"polygon2_1_0_positions","componentType":5126,"count":36,"min":[-4.597030162811279,-0.7349230051040649,4.369987964630127],"max":[4.597019195556641,2.4376819133758545,6.274878978729248],"type":"VEC3","bufferView":0,"byteOffset":888},{"name":"polygon2_1_0_normals","componentType":5126,"count":36,"min":[-0.9766009449958801,-0.7776960730552673,0.08410399407148361],"max":[0.9611451625823975,0.3395971655845642,0.9882822632789612],"type":"VEC3","bufferView":1,"byteOffset":888},{"name":"polygon2_1_0_texcoords","componentType":5126,"count":36,"min":[0.0003969999961555004,0.05471799895167351],"max":[0.5557860136032104,0.2600710093975067],"type":"VEC2","bufferView":2,"byteOffset":592},{"name":"polygon2_1_0_indices","componentType":5123,"count":132,"min":[0],"max":[35],"type":"SCALAR","bufferView":3,"byteOffset":672},{"name":"polygon3_1_0_positions","componentType":5126,"count":1272,"min":[-8.87901496887207,-6.938808917999268,-6.902740955352783],"max":[8.879003524780273,8.74294376373291,6.9894700050354],"type":"VEC3","bufferView":0,"byteOffset":1320},{"name":"polygon3_1_0_normals","componentType":5126,"count":1272,"min":[-0.9991255402565002,-0.9993381500244141,-0.9980606436729431],"max":[0.9991255402565002,0.9999376535415649,0.9996023178100586],"type":"VEC3","bufferView":1,"byteOffset":1320},{"name":"polygon3_1_0_texcoords","componentType":5126,"count":1272,"min":[0.014374000020325184,0.0019529999699443579],"max":[0.9943540096282959,0.9909970164299011],"type":"VEC2","bufferView":2,"byteOffset":880},{"name":"polygon3_1_0_indices","componentType":5123,"count":4092,"min":[0],"max":[1271],"type":"SCALAR","bufferView":3,"byteOffset":936}],"asset":{"generator":"obj2gltf","version":"2.0"},"buffers":[{"name":"Glalie","byteLength":348292,"uri":"data:application/octet-stream;base64,"}],"bufferViews":[{"name":"bufferView_0","buffer":0,"byteLength":16584,"byteOffset":0,"byteStride":12,"target":34962},{"name":"bufferView_1","buffer":0,"byteLength":16584,"byteOffset":16584,"byteStride":12,"target":34962},{"name":"bufferView_2","buffer":0,"byteLength":11056,"byteOffset":33168,"byteStride":8,"target":34962},{"name":"bufferView_3","buffer":0,"byteLength":9120,"byteOffset":44224,"target":34963},{"buffer":0,"byteOffset":53344,"byteLength":196626},{"buffer":0,"byteOffset":249970,"byteLength":98322}],"images":[{"name":"OnigohriDh","mimeType":"image/x-tga","bufferView":4},{"name":"OnigohriEyeDh","mimeType":"image/x-tga","bufferView":5}],"materials":[{"name":"mat1","pbrMetallicRoughness":{"baseColorTexture":{"index":0},"baseColorFactor":[1,1,1,1],"metallicFactor":0,"roughnessFactor":0.99},"emissiveFactor":[0,0,0],"alphaMode":"OPAQUE","doubleSided":false},{"name":"mat2","pbrMetallicRoughness":{"baseColorTexture":{"index":1},"baseColorFactor":[1,1,1,1],"metallicFactor":0,"roughnessFactor":0.99},"emissiveFactor":[0,0,0],"alphaMode":"OPAQUE","doubleSided":false}],"meshes":[{"name":"polygon0_1","primitives":[{"attributes":{"POSITION":0,"NORMAL":1,"TEXCOORD_0":2},"indices":3,"material":0,"mode":4}]},{"name":"polygon2_1","primitives":[{"attributes":{"POSITION":4,"NORMAL":5,"TEXCOORD_0":6},"indices":7,"material":1,"mode":4}]},{"name":"polygon3_1","primitives":[{"attributes":{"POSITION":8,"NORMAL":9,"TEXCOORD_0":10},"indices":11,"material":0,"mode":4}]}],"nodes":[{"name":"polygon0","mesh":0},{"name":"polygon2","mesh":1},{"name":"polygon3","mesh":2}],"samplers":[{"wrapS":10497,"wrapT":10497}],"scene":0,"scenes":[{"nodes":[0,1,2]}],"textures":[{"name":"OnigohriDh","sampler":0,"source":0},{"name":"OnigohriEyeDh","sampler":0,"source":1}]}