{"accessors":[{"name":"Glalie_1_0_positions","componentType":5126,"count":228,"min":[-45.45302200317383,59.137020111083984,43.96320343017578],"max":[45.45297622680664,88.6937484741211,62.670494079589844],"type":"VEC3","bufferView":0,"byteOffset":0},{"name":"Glalie_1_0_normals","componentType":5126,"count":228,"min":[-0.6588206887245178,-0.08138999342918396,0.7385770678520203],"max":[-0.4029339551925659,0.23753392696380615,0.9116029143333435],"type":"VEC3","bufferView":1,"byteOffset":0},{"name":"Glalie_1_0_texcoords","componentType":5126,"count":228,"min":[0.011254999786615372,-1.9595099687576294],"max":[0.4887399971485138,-1.7988699674606323],"type":"VEC2","bufferView":2,"byteOffset":0},{"name":"Glalie_1_0_indices","componentType":5123,"count":228,"min":[0],"max":[227],"type":"SCALAR","bufferView":3,"byteOffset":0},{"name":"Glalie_1_1_positions","componentType":5126,"count":7758,"min":[-67.21554565429688,0.09102199971675873,-68.83740234375],"max":[67.2154541015625,132.77304077148438,69.7666015625],"type":"VEC3","bufferView":0,"byteOffset":2736},{"name":"Glalie_1_1_normals","componentType":5126,"count":7758,"min":[-0.998126745223999,-0.9928861856460571,-0.9998595118522644],"max":[0.942075252532959,0.9985949993133545,0.9687856435775757],"type":"VEC3","bufferView":1,"byteOffset":2736},{"name":"Glalie_1_1_texcoords","componentType":5126,"count":7758,"min":[0,0.010029000230133533],"max":[1,0.984375],"type":"VEC2","bufferView":2,"byteOffset":1824},{"name":"Glalie_1_1_indices","componentType":5123,"count":7758,"min":[0],"max":[7757],"type":"SCALAR","bufferView":3,"byteOffset":456},{"name":"Glalie_1_2_positions","componentType":5126,"count":3660,"min":[-87.9774169921875,9.548140525817871,-62.09090042114258],"max":[87.97677612304688,152.9053192138672,66.30130004882812],"type":"VEC3","bufferView":0,"byteOffset":95832},{"name":"Glalie_1_2_normals","componentType":5126,"count":3660,"min":[-0.9981265068054199,-0.9973958730697632,-0.9954550266265869],"max":[0.942075252532959,0.9985949993133545,0.9687856435775757],"type":"VEC3","bufferView":1,"byteOffset":95832},{"name":"Glalie_1_2_texcoords","componentType":5126,"count":3660,"min":[0,-0.9862599968910217],"max":[1,-0.010859999805688858],"type":"VEC2","bufferView":2,"byteOffset":63888},{"name":"Glalie_1_2_indices","componentType":5123,"count":3660,"min":[0],"max":[3659],"type":"SCALAR","bufferView":3,"byteOffset":15972},{"name":"Glalie_1_3_positions","componentType":5126,"count":228,"min":[-45.58472442626953,59.12091827392578,44.1123046875],"max":[45.584678649902344,88.74124145507812,62.86420440673828],"type":"VEC3","bufferView":0,"byteOffset":139752},{"name":"Glalie_1_3_normals","componentType":5126,"count":228,"min":[-0.9929085373878479,-0.8650497198104858,-0.8574163317680359],"max":[-0.30320191383361816,0.8980770707130432,0.6821901798248291],"type":"VEC3","bufferView":1,"byteOffset":139752},{"name":"Glalie_1_3_texcoords","componentType":5126,"count":228,"min":[0.04501999914646149,-1.8380399942398071],"max":[0.9619600176811218,-1.1954799890518188],"type":"VEC2","bufferView":2,"byteOffset":93168},{"name":"Glalie_1_3_indices","componentType":5123,"count":228,"min":[0],"max":[227],"type":"SCALAR","bufferView":3,"byteOffset":23292}],"asset":{"generator":"obj2gltf","version":"2.0"},"buffers":[{"name":"XY_Glalie","byteLength":540884,"uri":"data:application/octet-stream;base64,"}],"bufferViews":[{"name":"bufferView_0","buffer":0,"byteLength":142488,"byteOffset":0,"byteStride":12,"target":34962},{"name":"bufferView_1","buffer":0,"byteLength":142488,"byteOffset":142488,"byteStride":12,"target":34962},{"name":"bufferView_2","buffer":0,"byteLength":94992,"byteOffset":284976,"byteStride":8,"target":34962},{"name":"bufferView_3","buffer":0,"byteLength":23748,"byteOffset":379968,"target":34963},{"buffer":0,"byteOffset":403716,"byteLength":29243},{"buffer":0,"byteOffset":432959,"byteLength":71930},{"buffer":0,"byteOffset":504889,"byteLength":35525},{"buffer":0,"byteOffset":540414,"byteLength":468}],"images":[{"name":"pm0362_00_Eye1","mimeType":"image/png","bufferView":4},{"name":"pm0362_00_BodyA1","mimeType":"image/png","bufferView":5},{"name":"pm0362_00_BodyB1","mimeType":"image/png","bufferView":6},{"name":"pm0362_00_Iris1","mimeType":"image/png","bufferView":7}],"materials":[{"name":"Material__48","pbrMetallicRoughness":{"baseColorTexture":{"index":0},"baseColorFactor":[1,1,1,1],"metallicFactor":0,"roughnessFactor":0.998},"emissiveFactor":[0,0,0],"alphaMode":"OPAQUE","doubleSided":false},{"name":"Material__49","pbrMetallicRoughness":{"baseColorTexture":{"index":1},"baseColorFactor":[1,1,1,1],"metallicFactor":0,"roughnessFactor":0.998},"emissiveFactor":[0,0,0],"alphaMode":"OPAQUE","doubleSided":false},{"name":"Material__50","pbrMetallicRoughness":{"baseColorTexture":{"index":2},"baseColorFactor":[1,1,1,1],"metallicFactor":0,"roughnessFactor":0.998},"emissiveFactor":[0,0,0],"alphaMode":"OPAQUE","doubleSided":false},{"name":"Material__51","pbrMetallicRoughness":{"baseColorTexture":{"index":3},"baseColorFactor":[1,1,1,1],"metallicFactor":0,"roughnessFactor":0.998},"emissiveFactor":[0,0,0],"alphaMode":"OPAQUE","doubleSided":false}],"meshes":[{"name":"Glalie_1","primitives":[{"attributes":{"POSITION":0,"NORMAL":1,"TEXCOORD_0":2},"indices":3,"material":0,"mode":4},{"attributes":{"POSITION":4,"NORMAL":5,"TEXCOORD_0":6},"indices":7,"material":1,"mode":4},{"attributes":{"POSITION":8,"NORMAL":9,"TEXCOORD_0":10},"indices":11,"material":2,"mode":4},{"attributes":{"POSITION":12,"NORMAL":13,"TEXCOORD_0":14},"indices":15,"material":3,"mode":4}]}],"nodes":[{"name":"Glalie","mesh":0}],"samplers":[{"wrapS":10497,"wrapT":10497}],"scene":0,"scenes":[{"nodes":[0]}],"textures":[{"name":"pm0362_00_Eye1","sampler":0,"source":0},{"name":"pm0362_00_BodyA1","sampler":0,"source":1},{"name":"pm0362_00_BodyB1","sampler":0,"source":2},{"name":"pm0362_00_Iris1","sampler":0,"source":3}]}