{"accessors":[{"name":"polygon0_1_0_positions","componentType":5126,"count":768,"min":[-3.9717190265655518,-1.5529669523239136,-5.873629093170166],"max":[3.9717190265655518,8.120302200317383,4.109474182128906],"type":"VEC3","bufferView":0,"byteOffset":0},{"name":"polygon0_1_0_normals","componentType":5126,"count":768,"min":[-1,-0.9999018907546997,-1],"max":[1,1,0.9999997615814209],"type":"VEC3","bufferView":1,"byteOffset":0},{"name":"polygon0_1_0_texcoords","componentType":5126,"count":768,"min":[0.0028989999555051327,0.014159999787807465],"max":[1.0003050565719604,0.9889529943466187],"type":"VEC2","bufferView":2,"byteOffset":0},{"name":"polygon0_1_0_indices","componentType":5123,"count":4092,"min":[0],"max":[767],"type":"SCALAR","bufferView":3,"byteOffset":0},{"name":"polygon1_1_0_positions","componentType":5126,"count":22,"min":[-1.6950370073318481,6.5202131271362305,1.980023980140686],"max":[1.6950360536575317,7.214188098907471,2.8006529808044434],"type":"VEC3","bufferView":0,"byteOffset":9216},{"name":"polygon1_1_0_normals","componentType":5126,"count":22,"min":[-0.511841893196106,0.647820234298706,0.40006715059280396],"max":[0.511841893196106,0.8783938884735107,0.7175243496894836],"type":"VEC3","bufferView":1,"byteOffset":9216},{"name":"polygon1_1_0_texcoords","componentType":5126,"count":22,"min":[-0.020569000393152237,-0.033385999500751495],"max":[0.5024409890174866,0.24584999680519104],"type":"VEC2","bufferView":2,"byteOffset":6144},{"name":"polygon1_1_0_indices","componentType":5123,"count":72,"min":[0],"max":[21],"type":"SCALAR","bufferView":3,"byteOffset":8184},{"name":"polygon2_1_0_positions","componentType":5126,"count":43,"min":[-1.6881979703903198,5.24739408493042,1.778952956199646],"max":[1.6881970167160034,6.0110249519348145,3.353851079940796],"type":"VEC3","bufferView":0,"byteOffset":9480},{"name":"polygon2_1_0_normals","componentType":5126,"count":43,"min":[-0.9533883333206177,-0.9994942545890808,-0.9783639907836914],"max":[0.9533883333206177,0.9991540908813477,0.8567513823509216],"type":"VEC3","bufferView":1,"byteOffset":9480},{"name":"polygon2_1_0_texcoords","componentType":5126,"count":43,"min":[0.8507080078125,0.2317499965429306],"max":[0.9866939783096313,0.5997620224952698],"type":"VEC2","bufferView":2,"byteOffset":6320},{"name":"polygon2_1_0_indices","componentType":5123,"count":150,"min":[0],"max":[42],"type":"SCALAR","bufferView":3,"byteOffset":8328}],"asset":{"generator":"obj2gltf","version":"2.0"},"buffers":[{"name":"Spheal","byteLength":330232,"uri":"data:application/octet-stream;base64,"}],"bufferViews":[{"name":"bufferView_0","buffer":0,"byteLength":9996,"byteOffset":0,"byteStride":12,"target":34962},{"name":"bufferView_1","buffer":0,"byteLength":9996,"byteOffset":9996,"byteStride":12,"target":34962},{"name":"bufferView_2","buffer":0,"byteLength":6664,"byteOffset":19992,"byteStride":8,"target":34962},{"name":"bufferView_3","buffer":0,"byteLength":8628,"byteOffset":26656,"target":34963},{"buffer":0,"byteOffset":35284,"byteLength":196626},{"buffer":0,"byteOffset":231910,"byteLength":98322}],"images":[{"name":"TamazarashiDh","mimeType":"image/x-tga","bufferView":4},{"name":"TamazarashiEyeDh","mimeType":"image/x-tga","bufferView":5}],"materials":[{"name":"mat1","pbrMetallicRoughness":{"baseColorTexture":{"index":0},"baseColorFactor":[1,1,1,1],"metallicFactor":0,"roughnessFactor":0.99},"emissiveFactor":[0,0,0],"alphaMode":"OPAQUE","doubleSided":false},{"name":"mat2","pbrMetallicRoughness":{"baseColorTexture":{"index":1},"baseColorFactor":[1,1,1,1],"metallicFactor":0,"roughnessFactor":0.99},"emissiveFactor":[0,0,0],"alphaMode":"OPAQUE","doubleSided":false},{"name":"mat3","pbrMetallicRoughness":{"baseColorTexture":{"index":0},"baseColorFactor":[1,1,1,1],"metallicFactor":0,"roughnessFactor":0.99},"emissiveFactor":[0,0,0],"alphaMode":"OPAQUE","doubleSided":false}],"meshes":[{"name":"polygon0_1","primitives":[{"attributes":{"POSITION":0,"NORMAL":1,"TEXCOORD_0":2},"indices":3,"material":0,"mode":4}]},{"name":"polygon1_1","primitives":[{"attributes":{"POSITION":4,"NORMAL":5,"TEXCOORD_0":6},"indices":7,"material":1,"mode":4}]},{"name":"polygon2_1","primitives":[{"attributes":{"POSITION":8,"NORMAL":9,"TEXCOORD_0":10},"indices":11,"material":2,"mode":4}]}],"nodes":[{"name":"polygon0","mesh":0},{"name":"polygon1","mesh":1},{"name":"polygon2","mesh":2}],"samplers":[{"wrapS":10497,"wrapT":10497}],"scene":0,"scenes":[{"nodes":[0,1,2]}],"textures":[{"name":"TamazarashiDh","sampler":0,"source":0},{"name":"TamazarashiEyeDh","sampler":0,"source":1}]}