{"accessors":[{"name":"todoggler-Mesh_0_positions","componentType":5126,"count":51,"min":[-4.17855978012085,1.5616300106048584,-6.958049774169922],"max":[0,8.930689811706543,0.47905999422073364],"type":"VEC3","bufferView":0,"byteOffset":0},{"name":"todoggler-Mesh_0_texcoords","componentType":5126,"count":51,"min":[0.18960900604724884,0],"max":[1,0.907567024230957],"type":"VEC2","bufferView":1,"byteOffset":0},{"name":"todoggler-Mesh_0_indices","componentType":5123,"count":183,"min":[0],"max":[50],"type":"SCALAR","bufferView":2,"byteOffset":0},{"name":"todoggler-Mesh_1_positions","componentType":5126,"count":227,"min":[-5.721590042114258,-12.152899742126465,-9.100870132446289],"max":[5.721590042114258,9.128120422363281,1.8504999876022339],"type":"VEC3","bufferView":0,"byteOffset":612},{"name":"todoggler-Mesh_1_texcoords","componentType":5126,"count":227,"min":[0.1696999967098236,0],"max":[0.8302990198135376,1],"type":"VEC2","bufferView":1,"byteOffset":408},{"name":"todoggler-Mesh_1_indices","componentType":5123,"count":1152,"min":[0],"max":[226],"type":"SCALAR","bufferView":2,"byteOffset":368},{"name":"todoggler-Mesh_2_positions","componentType":5126,"count":13,"min":[-1.1465500593185425,-14.775099754333496,-0.6113960146903992],"max":[1.1465599536895752,-9.325130462646484,1.0046600103378296],"type":"VEC3","bufferView":0,"byteOffset":3336},{"name":"todoggler-Mesh_2_texcoords","componentType":5126,"count":13,"min":[0.0039059999398887157,9.999999974752427e-7],"max":[0.9882810115814209,1],"type":"VEC2","bufferView":1,"byteOffset":2224},{"name":"todoggler-Mesh_2_indices","componentType":5123,"count":60,"min":[0],"max":[12],"type":"SCALAR","bufferView":2,"byteOffset":2672},{"name":"todoggler-Mesh_3_positions","componentType":5126,"count":22,"min":[-1.0314199924468994,7.037529945373535,-6.747039794921875],"max":[1.0314199924468994,9.061949729919434,-6.07804012298584],"type":"VEC3","bufferView":0,"byteOffset":3492},{"name":"todoggler-Mesh_3_texcoords","componentType":5126,"count":22,"min":[0,0.015561000443994999],"max":[0.9107139706611633,0.9927089810371399],"type":"VEC2","bufferView":1,"byteOffset":2328},{"name":"todoggler-Mesh_3_indices","componentType":5123,"count":84,"min":[0],"max":[21],"type":"SCALAR","bufferView":2,"byteOffset":2792},{"name":"todoggler-Mesh_4_positions","componentType":5126,"count":21,"min":[-2.2002899646759033,6.818860054016113,-8.46697998046875],"max":[2.2002899646759033,9.128120422363281,-6.958049774169922],"type":"VEC3","bufferView":0,"byteOffset":3756},{"name":"todoggler-Mesh_4_texcoords","componentType":5126,"count":21,"min":[0,0.0026000000070780516],"max":[0.9980000257492065,0.1991499960422516],"type":"VEC2","bufferView":1,"byteOffset":2504},{"name":"todoggler-Mesh_4_indices","componentType":5123,"count":78,"min":[0],"max":[20],"type":"SCALAR","bufferView":2,"byteOffset":2960},{"name":"todoggler-Mesh_5_positions","componentType":5126,"count":34,"min":[-4.146450042724609,1.9315400123596191,-0.6275579929351807],"max":[4.146450042724609,5.761769771575928,1.5150099992752075],"type":"VEC3","bufferView":0,"byteOffset":4008},{"name":"todoggler-Mesh_5_texcoords","componentType":5126,"count":34,"min":[-1.5449899435043335,-1.0141799449920654],"max":[2.5586700439453125,1.5859379768371582],"type":"VEC2","bufferView":1,"byteOffset":2672},{"name":"todoggler-Mesh_5_indices","componentType":5123,"count":54,"min":[0],"max":[33],"type":"SCALAR","bufferView":2,"byteOffset":3116},{"name":"todoggler-Mesh_6_positions","componentType":5126,"count":46,"min":[-8.661219596862793,2.1349000930786133,-1.3079099655151367],"max":[8.661219596862793,4.898069858551025,0.08647400140762329],"type":"VEC3","bufferView":0,"byteOffset":4416},{"name":"todoggler-Mesh_6_texcoords","componentType":5126,"count":46,"min":[0,0.039000000804662704],"max":[1,1],"type":"VEC2","bufferView":1,"byteOffset":2944},{"name":"todoggler-Mesh_6_indices","componentType":5123,"count":216,"min":[0],"max":[45],"type":"SCALAR","bufferView":2,"byteOffset":3224},{"name":"todoggler-Mesh_7_positions","componentType":5126,"count":45,"min":[0,1.5616300106048584,-6.958049774169922],"max":[4.17855978012085,8.930689811706543,0.47905999422073364],"type":"VEC3","bufferView":0,"byteOffset":4968},{"name":"todoggler-Mesh_7_texcoords","componentType":5126,"count":45,"min":[0.18960900604724884,0],"max":[1,0.907567024230957],"type":"VEC2","bufferView":1,"byteOffset":3312},{"name":"todoggler-Mesh_7_indices","componentType":5123,"count":183,"min":[0],"max":[44],"type":"SCALAR","bufferView":2,"byteOffset":3656},{"name":"todoggler-Mesh_8_positions","componentType":5126,"count":60,"min":[-4.350989818572998,8.259010314941406,-7.63277006149292],"max":[4.350959777832031,8.98678970336914,-4.19980001449585],"type":"VEC3","bufferView":0,"byteOffset":5508},{"name":"todoggler-Mesh_8_texcoords","componentType":5126,"count":60,"min":[0,0],"max":[1,1],"type":"VEC2","bufferView":1,"byteOffset":3672},{"name":"todoggler-Mesh_8_indices","componentType":5123,"count":120,"min":[0],"max":[59],"type":"SCALAR","bufferView":2,"byteOffset":4024},{"name":"todoggler-Mesh_9_positions","componentType":5126,"count":3,"min":[0.5966780185699463,8.596529960632324,-6.594069957733154],"max":[1.0703599452972412,8.776439666748047,-6.594069957733154],"type":"VEC3","bufferView":0,"byteOffset":6228},{"name":"todoggler-Mesh_9_texcoords","componentType":5126,"count":3,"min":[0.3776339888572693,0.107123002409935],"max":[0.8474140167236328,0.2074279934167862],"type":"VEC2","bufferView":1,"byteOffset":4152},{"name":"todoggler-Mesh_9_indices","componentType":5123,"count":3,"min":[0],"max":[2],"type":"SCALAR","bufferView":2,"byteOffset":4264}],"asset":{"generator":"obj2gltf","version":"2.0"},"buffers":[{"name":"BR_Sealeo-Shiny01","byteLength":269852,"uri":"data:application/octet-stream;base64,"}],"bufferViews":[{"name":"bufferView_0","buffer":0,"byteLength":6264,"byteOffset":0,"byteStride":12,"target":34962},{"name":"bufferView_1","buffer":0,"byteLength":4176,"byteOffset":6264,"byteStride":8,"target":34962},{"name":"bufferView_2","buffer":0,"byteLength":4272,"byteOffset":10440,"target":34963},{"buffer":0,"byteOffset":14712,"byteLength":65554},{"buffer":0,"byteOffset":80266,"byteLength":1042},{"buffer":0,"byteOffset":81308,"byteLength":8210},{"buffer":0,"byteOffset":89518,"byteLength":8210},{"buffer":0,"byteOffset":97728,"byteLength":81938},{"buffer":0,"byteOffset":179666,"byteLength":4114},{"buffer":0,"byteOffset":183780,"byteLength":16402},{"buffer":0,"byteOffset":200182,"byteLength":65554},{"buffer":0,"byteOffset":265736,"byteLength":4114}],"images":[{"name":"todoggler_1_0","mimeType":"image/x-tga","bufferView":3},{"name":"todoggler_1_1","mimeType":"image/x-tga","bufferView":4},{"name":"todoggler_1_2","mimeType":"image/x-tga","bufferView":5},{"name":"todoggler_1_3","mimeType":"image/x-tga","bufferView":6},{"name":"todoggler_1_4","mimeType":"image/x-tga","bufferView":7},{"name":"todoggler_1_5","mimeType":"image/x-tga","bufferView":8},{"name":"todoggler_1_6","mimeType":"image/x-tga","bufferView":9},{"name":"todoggler_1_7","mimeType":"image/x-tga","bufferView":10},{"name":"todoggler_1_8","mimeType":"image/x-tga","bufferView":11}],"materials":[{"name":"mat_0","pbrMetallicRoughness":{"baseColorTexture":{"index":0},"baseColorFactor":[1,1,1,1],"metallicFactor":0,"roughnessFactor":0.903921569},"emissiveFactor":[0,0,0],"alphaMode":"BLEND","doubleSided":true},{"name":"mat_1","pbrMetallicRoughness":{"baseColorTexture":{"index":1},"baseColorFactor":[1,1,1,1],"metallicFactor":0,"roughnessFactor":0.903921569},"emissiveFactor":[0,0,0],"alphaMode":"BLEND","doubleSided":true},{"name":"mat_2","pbrMetallicRoughness":{"baseColorTexture":{"index":2},"baseColorFactor":[1,1,1,1],"metallicFactor":0,"roughnessFactor":0.903921569},"emissiveFactor":[0,0,0],"alphaMode":"BLEND","doubleSided":true},{"name":"mat_3","pbrMetallicRoughness":{"baseColorTexture":{"index":3},"baseColorFactor":[1,1,1,1],"metallicFactor":0,"roughnessFactor":0.903921569},"emissiveFactor":[0,0,0],"alphaMode":"BLEND","doubleSided":true},{"name":"mat_4","pbrMetallicRoughness":{"baseColorTexture":{"index":4},"baseColorFactor":[1,1,1,1],"metallicFactor":0,"roughnessFactor":0.903921569},"emissiveFactor":[0,0,0],"alphaMode":"BLEND","doubleSided":true},{"name":"mat_5","pbrMetallicRoughness":{"baseColorTexture":{"index":5},"baseColorFactor":[1,1,1,1],"metallicFactor":0,"roughnessFactor":0.903921569},"emissiveFactor":[0,0,0],"alphaMode":"BLEND","doubleSided":true},{"name":"mat_6","pbrMetallicRoughness":{"baseColorTexture":{"index":6},"baseColorFactor":[1,1,1,1],"metallicFactor":0,"roughnessFactor":0.903921569},"emissiveFactor":[0,0,0],"alphaMode":"BLEND","doubleSided":true},{"name":"mat_7","pbrMetallicRoughness":{"baseColorTexture":{"index":7},"baseColorFactor":[1,1,1,1],"metallicFactor":0,"roughnessFactor":0.903921569},"emissiveFactor":[0,0,0],"alphaMode":"BLEND","doubleSided":true},{"name":"mat_8","pbrMetallicRoughness":{"baseColorTexture":{"index":8},"baseColorFactor":[1,1,1,1],"metallicFactor":0,"roughnessFactor":0.903921569},"emissiveFactor":[0,0,0],"alphaMode":"BLEND","doubleSided":true},{"name":"mat_9","pbrMetallicRoughness":{"baseColorFactor":[0.8,0.8,0.8,1],"metallicFactor":0,"roughnessFactor":0.903921569},"emissiveFactor":[0,0,0],"alphaMode":"OPAQUE","doubleSided":false}],"meshes":[{"name":"todoggler-Mesh","primitives":[{"attributes":{"POSITION":0,"TEXCOORD_0":1},"indices":2,"material":0,"mode":4},{"attributes":{"POSITION":3,"TEXCOORD_0":4},"indices":5,"material":1,"mode":4},{"attributes":{"POSITION":6,"TEXCOORD_0":7},"indices":8,"material":2,"mode":4},{"attributes":{"POSITION":9,"TEXCOORD_0":10},"indices":11,"material":3,"mode":4},{"attributes":{"POSITION":12,"TEXCOORD_0":13},"indices":14,"material":4,"mode":4},{"attributes":{"POSITION":15,"TEXCOORD_0":16},"indices":17,"material":5,"mode":4},{"attributes":{"POSITION":18,"TEXCOORD_0":19},"indices":20,"material":6,"mode":4},{"attributes":{"POSITION":21,"TEXCOORD_0":22},"indices":23,"material":7,"mode":4},{"attributes":{"POSITION":24,"TEXCOORD_0":25},"indices":26,"material":8,"mode":4},{"attributes":{"POSITION":27,"TEXCOORD_0":28},"indices":29,"material":9,"mode":4}]}],"nodes":[{"name":"todoggler","mesh":0}],"samplers":[{"wrapS":10497,"wrapT":10497}],"scene":0,"scenes":[{"nodes":[0]}],"textures":[{"name":"todoggler_1_0","sampler":0,"source":0},{"name":"todoggler_1_1","sampler":0,"source":1},{"name":"todoggler_1_2","sampler":0,"source":2},{"name":"todoggler_1_3","sampler":0,"source":3},{"name":"todoggler_1_4","sampler":0,"source":4},{"name":"todoggler_1_5","sampler":0,"source":5},{"name":"todoggler_1_6","sampler":0,"source":6},{"name":"todoggler_1_7","sampler":0,"source":7},{"name":"todoggler_1_8","sampler":0,"source":8}]}