{"accessors":[{"name":"todoseruga-Mesh_0_positions","componentType":5126,"count":20,"min":[-1.6162199974060059,7.267139911651611,-11.557100296020508],"max":[1.6163400411605835,8.006210327148438,-8.07843017578125],"type":"VEC3","bufferView":0,"byteOffset":0},{"name":"todoseruga-Mesh_0_texcoords","componentType":5126,"count":20,"min":[-0.19457300007343292,-0.06485000252723694],"max":[0.6764789819717407,2.993069887161255],"type":"VEC2","bufferView":1,"byteOffset":0},{"name":"todoseruga-Mesh_0_indices","componentType":5123,"count":90,"min":[0],"max":[19],"type":"SCALAR","bufferView":2,"byteOffset":0},{"name":"todoseruga-Mesh_1_positions","componentType":5126,"count":48,"min":[-3.834549903869629,0.43352100253105164,-10.254400253295898],"max":[3.834660053253174,7.023409843444824,-5.530489921569824],"type":"VEC3","bufferView":0,"byteOffset":240},{"name":"todoseruga-Mesh_1_texcoords","componentType":5126,"count":48,"min":[-3.4519200325012207,-2.109380006790161],"max":[4.833330154418945,1.361111044883728],"type":"VEC2","bufferView":1,"byteOffset":160},{"name":"todoseruga-Mesh_1_indices","componentType":5123,"count":168,"min":[0],"max":[47],"type":"SCALAR","bufferView":2,"byteOffset":180},{"name":"todoseruga-Mesh_2_positions","componentType":5126,"count":57,"min":[-2.693809986114502,3.059570074081421,-13.994600296020508],"max":[2.6939198970794678,8.257630348205566,-10.24370002746582],"type":"VEC3","bufferView":0,"byteOffset":816},{"name":"todoseruga-Mesh_2_texcoords","componentType":5126,"count":57,"min":[0.3603860139846802,0.375],"max":[0.6396200060844421,0.6429089903831482],"type":"VEC2","bufferView":1,"byteOffset":544},{"name":"todoseruga-Mesh_2_indices","componentType":5123,"count":198,"min":[0],"max":[56],"type":"SCALAR","bufferView":2,"byteOffset":516},{"name":"todoseruga-Mesh_3_positions","componentType":5126,"count":13,"min":[-2.014699935913086,6.182909965515137,-13.264900207519531],"max":[2.014810085296631,8.196399688720703,-12.160799980163574],"type":"VEC3","bufferView":0,"byteOffset":1500},{"name":"todoseruga-Mesh_3_texcoords","componentType":5126,"count":13,"min":[-0.30159899592399597,0.012500000186264515],"max":[1.0750000476837158,0.24250000715255737],"type":"VEC2","bufferView":1,"byteOffset":1000},{"name":"todoseruga-Mesh_3_indices","componentType":5123,"count":30,"min":[0],"max":[12],"type":"SCALAR","bufferView":2,"byteOffset":912},{"name":"todoseruga-Mesh_4_positions","componentType":5126,"count":82,"min":[-9.647339820861816,-5.622459888458252,-1.6370699405670166],"max":[9.647339820861816,5.519000053405762,0.006027999799698591],"type":"VEC3","bufferView":0,"byteOffset":1656},{"name":"todoseruga-Mesh_4_texcoords","componentType":5126,"count":82,"min":[0.01585800014436245,0.10676000267267227],"max":[0.9802619814872742,1.0013680458068848],"type":"VEC2","bufferView":1,"byteOffset":1104},{"name":"todoseruga-Mesh_4_indices","componentType":5123,"count":396,"min":[0],"max":[81],"type":"SCALAR","bufferView":2,"byteOffset":972},{"name":"todoseruga-Mesh_5_positions","componentType":5126,"count":239,"min":[-6.157340049743652,-7.567180156707764,-12.625499725341797],"max":[6.157340049743652,8.827910423278809,0.006027999799698591],"type":"VEC3","bufferView":0,"byteOffset":2640},{"name":"todoseruga-Mesh_5_texcoords","componentType":5126,"count":239,"min":[0.18087899684906006,0.09779000282287598],"max":[0.8191210031509399,1],"type":"VEC2","bufferView":1,"byteOffset":1760},{"name":"todoseruga-Mesh_5_indices","componentType":5123,"count":1164,"min":[0],"max":[238],"type":"SCALAR","bufferView":2,"byteOffset":1764},{"name":"todoseruga-Mesh_6_positions","componentType":5126,"count":20,"min":[-3.704619884490967,-12.200799942016602,-2.836780071258545],"max":[3.7047300338745117,-7.467510223388672,-1.1777100563049316],"type":"VEC3","bufferView":0,"byteOffset":5508},{"name":"todoseruga-Mesh_6_texcoords","componentType":5126,"count":20,"min":[-0.0717109963297844,0.001475999946705997],"max":[1.130329966545105,0.977666974067688],"type":"VEC2","bufferView":1,"byteOffset":3672},{"name":"todoseruga-Mesh_6_indices","componentType":5123,"count":84,"min":[0],"max":[19],"type":"SCALAR","bufferView":2,"byteOffset":4092},{"name":"todoseruga-Mesh_7_positions","componentType":5126,"count":7,"min":[-0.6073390245437622,8.718549728393555,-12.494400024414062],"max":[0.6074470281600952,8.827910423278809,-11.671799659729004],"type":"VEC3","bufferView":0,"byteOffset":5748},{"name":"todoseruga-Mesh_7_texcoords","componentType":5126,"count":7,"min":[-0.09252499788999557,-0.1596599966287613],"max":[1.112779974937439,1.3705819845199585],"type":"VEC2","bufferView":1,"byteOffset":3832},{"name":"todoseruga-Mesh_7_indices","componentType":5123,"count":12,"min":[0],"max":[6],"type":"SCALAR","bufferView":2,"byteOffset":4260},{"name":"todoseruga-Mesh_8_positions","componentType":5126,"count":11,"min":[-1.9515299797058105,5.237090110778809,-11.59220027923584],"max":[1.9516299962997437,8.12909984588623,-10.52340030670166],"type":"VEC3","bufferView":0,"byteOffset":5832},{"name":"todoseruga-Mesh_8_texcoords","componentType":5126,"count":11,"min":[-0.023437999188899994,0.011718999594449997],"max":[0.9955360293388367,0.9575889706611633],"type":"VEC2","bufferView":1,"byteOffset":3888},{"name":"todoseruga-Mesh_8_indices","componentType":5123,"count":36,"min":[0],"max":[10],"type":"SCALAR","bufferView":2,"byteOffset":4284},{"name":"todoseruga-Mesh_9_positions","componentType":5126,"count":6,"min":[-1.9515299797058105,5.237090110778809,-11.4443998336792],"max":[1.9516299962997437,8.187769889831543,-11.203300476074219],"type":"VEC3","bufferView":0,"byteOffset":5964},{"name":"todoseruga-Mesh_9_texcoords","componentType":5126,"count":6,"min":[0.015625,0.11160700023174286],"max":[0.997767984867096,0.9933040142059326],"type":"VEC2","bufferView":1,"byteOffset":3976},{"name":"todoseruga-Mesh_9_indices","componentType":5123,"count":12,"min":[0],"max":[5],"type":"SCALAR","bufferView":2,"byteOffset":4356},{"name":"todoseruga-Mesh_10_positions","componentType":5126,"count":70,"min":[-5.869810104370117,0.9288960099220276,-12.913000106811523],"max":[5.869919776916504,5.169010162353516,-7.3432297706604],"type":"VEC3","bufferView":0,"byteOffset":6036},{"name":"todoseruga-Mesh_10_texcoords","componentType":5126,"count":70,"min":[0.026110999286174774,0.028186000883579254],"max":[0.9888389706611633,0.9767720103263855],"type":"VEC2","bufferView":1,"byteOffset":4024},{"name":"todoseruga-Mesh_10_indices","componentType":5123,"count":324,"min":[0],"max":[69],"type":"SCALAR","bufferView":2,"byteOffset":4380},{"name":"todoseruga-Mesh_11_positions","componentType":5126,"count":45,"min":[-2.848129987716675,0.2040639966726303,-13.006999969482422],"max":[2.8482398986816406,3.612459897994995,-9.088809967041016],"type":"VEC3","bufferView":0,"byteOffset":6876},{"name":"todoseruga-Mesh_11_texcoords","componentType":5126,"count":45,"min":[0.09253399819135666,0.06948299705982208],"max":[0.9888389706611633,0.9732139706611633],"type":"VEC2","bufferView":1,"byteOffset":4584},{"name":"todoseruga-Mesh_11_indices","componentType":5123,"count":198,"min":[0],"max":[44],"type":"SCALAR","bufferView":2,"byteOffset":5028},{"name":"todoseruga-Mesh_12_positions","componentType":5126,"count":52,"min":[-5.869810104370117,3.5271899700164795,-11.920599937438965],"max":[5.869919776916504,6.122159957885742,-7.3432297706604],"type":"VEC3","bufferView":0,"byteOffset":7416},{"name":"todoseruga-Mesh_12_texcoords","componentType":5126,"count":52,"min":[0.051208000630140305,0.04648499935865402],"max":[0.8783569931983948,0.9678720235824585],"type":"VEC2","bufferView":1,"byteOffset":4944},{"name":"todoseruga-Mesh_12_indices","componentType":5123,"count":222,"min":[0],"max":[51],"type":"SCALAR","bufferView":2,"byteOffset":5424},{"name":"todoseruga-Mesh_13_positions","componentType":5126,"count":25,"min":[-4.403969764709473,0.5872480273246765,-10.254400253295898],"max":[4.404079914093018,5.088329792022705,-7.3432297706604],"type":"VEC3","bufferView":0,"byteOffset":8040},{"name":"todoseruga-Mesh_13_texcoords","componentType":5126,"count":25,"min":[0.11634799838066101,0.08868999779224396],"max":[0.9568880200386047,0.8268319964408875],"type":"VEC2","bufferView":1,"byteOffset":5360},{"name":"todoseruga-Mesh_13_indices","componentType":5123,"count":78,"min":[0],"max":[24],"type":"SCALAR","bufferView":2,"byteOffset":5868},{"name":"todoseruga-Mesh_14_positions","componentType":5126,"count":52,"min":[-3.9327399730682373,5.325200080871582,-13.410699844360352],"max":[3.932849884033203,7.45904016494751,-9.88955020904541],"type":"VEC3","bufferView":0,"byteOffset":8340},{"name":"todoseruga-Mesh_14_texcoords","componentType":5126,"count":52,"min":[0.04278799891471863,0.047331999987363815],"max":[0.9474340081214905,0.9329689741134644],"type":"VEC2","bufferView":1,"byteOffset":5560},{"name":"todoseruga-Mesh_14_indices","componentType":5123,"count":174,"min":[0],"max":[51],"type":"SCALAR","bufferView":2,"byteOffset":6024},{"name":"todoseruga-Mesh_15_positions","componentType":5126,"count":84,"min":[-4.041989803314209,4.9110798835754395,-13.527400016784668],"max":[4.042099952697754,7.293409824371338,-9.88955020904541],"type":"VEC3","bufferView":0,"byteOffset":8964},{"name":"todoseruga-Mesh_15_texcoords","componentType":5126,"count":84,"min":[0.02097400091588497,0.03125],"max":[0.9555220007896423,0.970982015132904],"type":"VEC2","bufferView":1,"byteOffset":5976},{"name":"todoseruga-Mesh_15_indices","componentType":5123,"count":324,"min":[0],"max":[83],"type":"SCALAR","bufferView":2,"byteOffset":6372}],"asset":{"generator":"obj2gltf","version":"2.0"},"buffers":[{"name":"BR_Walrein-Shiny01","byteLength":119144,"uri":"data:application/octet-stream;base64,"}],"bufferViews":[{"name":"bufferView_0","buffer":0,"byteLength":9972,"byteOffset":0,"byteStride":12,"target":34962},{"name":"bufferView_1","buffer":0,"byteLength":6648,"byteOffset":9972,"byteStride":8,"target":34962},{"name":"bufferView_2","buffer":0,"byteLength":7020,"byteOffset":16620,"target":34963},{"buffer":0,"byteOffset":23640,"byteLength":274},{"buffer":0,"byteOffset":23914,"byteLength":274},{"buffer":0,"byteOffset":24188,"byteLength":274},{"buffer":0,"byteOffset":24462,"byteLength":49170},{"buffer":0,"byteOffset":73632,"byteLength":4114},{"buffer":0,"byteOffset":77746,"byteLength":274},{"buffer":0,"byteOffset":78020,"byteLength":4114},{"buffer":0,"byteOffset":82134,"byteLength":4114},{"buffer":0,"byteOffset":86248,"byteLength":8210},{"buffer":0,"byteOffset":94458,"byteLength":4114},{"buffer":0,"byteOffset":98572,"byteLength":4114},{"buffer":0,"byteOffset":102686,"byteLength":4114},{"buffer":0,"byteOffset":106800,"byteLength":4114},{"buffer":0,"byteOffset":110914,"byteLength":4114},{"buffer":0,"byteOffset":115028,"byteLength":4114}],"images":[{"name":"todoseruga_1_0","mimeType":"image/x-tga","bufferView":3},{"name":"todoseruga_1_2","mimeType":"image/x-tga","bufferView":4},{"name":"todoseruga_1_4","mimeType":"image/x-tga","bufferView":5},{"name":"todoseruga_1_5","mimeType":"image/x-tga","bufferView":6},{"name":"todoseruga_1_6","mimeType":"image/x-tga","bufferView":7},{"name":"todoseruga_1_8","mimeType":"image/x-tga","bufferView":8},{"name":"todoseruga_1_10","mimeType":"image/x-tga","bufferView":9},{"name":"todoseruga_1_12","mimeType":"image/x-tga","bufferView":10},{"name":"todoseruga_1_14","mimeType":"image/x-tga","bufferView":11},{"name":"todoseruga_1_15","mimeType":"image/x-tga","bufferView":12},{"name":"todoseruga_1_16","mimeType":"image/x-tga","bufferView":13},{"name":"todoseruga_1_17","mimeType":"image/x-tga","bufferView":14},{"name":"todoseruga_1_18","mimeType":"image/x-tga","bufferView":15},{"name":"todoseruga_1_19","mimeType":"image/x-tga","bufferView":16},{"name":"todoseruga_1_20","mimeType":"image/x-tga","bufferView":17}],"materials":[{"name":"mat_0","pbrMetallicRoughness":{"baseColorTexture":{"index":0},"baseColorFactor":[1,1,1,1],"metallicFactor":0,"roughnessFactor":0.903921569},"emissiveFactor":[0,0,0],"alphaMode":"BLEND","doubleSided":true},{"name":"mat_1","pbrMetallicRoughness":{"baseColorTexture":{"index":1},"baseColorFactor":[1,1,1,1],"metallicFactor":0,"roughnessFactor":0.903921569},"emissiveFactor":[0,0,0],"alphaMode":"BLEND","doubleSided":true},{"name":"mat_2","pbrMetallicRoughness":{"baseColorTexture":{"index":2},"baseColorFactor":[1,1,1,1],"metallicFactor":0,"roughnessFactor":0.903921569},"emissiveFactor":[0,0,0],"alphaMode":"BLEND","doubleSided":true},{"name":"mat_3","pbrMetallicRoughness":{"baseColorTexture":{"index":3},"baseColorFactor":[1,1,1,1],"metallicFactor":0,"roughnessFactor":0.903921569},"emissiveFactor":[0,0,0],"alphaMode":"BLEND","doubleSided":true},{"name":"mat_4","pbrMetallicRoughness":{"baseColorTexture":{"index":4},"baseColorFactor":[1,1,1,1],"metallicFactor":0,"roughnessFactor":0.903921569},"emissiveFactor":[0,0,0],"alphaMode":"BLEND","doubleSided":true},{"name":"mat_5","pbrMetallicRoughness":{"baseColorTexture":{"index":5},"baseColorFactor":[1,1,1,1],"metallicFactor":0,"roughnessFactor":0.903921569},"emissiveFactor":[0,0,0],"alphaMode":"BLEND","doubleSided":true},{"name":"mat_6","pbrMetallicRoughness":{"baseColorTexture":{"index":6},"baseColorFactor":[1,1,1,1],"metallicFactor":0,"roughnessFactor":0.903921569},"emissiveFactor":[0,0,0],"alphaMode":"BLEND","doubleSided":true},{"name":"mat_7","pbrMetallicRoughness":{"baseColorTexture":{"index":7},"baseColorFactor":[1,1,1,1],"metallicFactor":0,"roughnessFactor":0.903921569},"emissiveFactor":[0,0,0],"alphaMode":"BLEND","doubleSided":true},{"name":"mat_8","pbrMetallicRoughness":{"baseColorTexture":{"index":8},"baseColorFactor":[1,1,1,1],"metallicFactor":0,"roughnessFactor":0.903921569},"emissiveFactor":[0,0,0],"alphaMode":"BLEND","doubleSided":true},{"name":"mat_9","pbrMetallicRoughness":{"baseColorTexture":{"index":9},"baseColorFactor":[1,1,1,1],"metallicFactor":0,"roughnessFactor":0.903921569},"emissiveFactor":[0,0,0],"alphaMode":"BLEND","doubleSided":true},{"name":"mat_10","pbrMetallicRoughness":{"baseColorTexture":{"index":10},"baseColorFactor":[1,1,1,1],"metallicFactor":0,"roughnessFactor":0.903921569},"emissiveFactor":[0,0,0],"alphaMode":"BLEND","doubleSided":true},{"name":"mat_11","pbrMetallicRoughness":{"baseColorTexture":{"index":11},"baseColorFactor":[1,1,1,1],"metallicFactor":0,"roughnessFactor":0.903921569},"emissiveFactor":[0,0,0],"alphaMode":"BLEND","doubleSided":true},{"name":"mat_12","pbrMetallicRoughness":{"baseColorTexture":{"index":12},"baseColorFactor":[1,1,1,1],"metallicFactor":0,"roughnessFactor":0.903921569},"emissiveFactor":[0,0,0],"alphaMode":"BLEND","doubleSided":true},{"name":"mat_13","pbrMetallicRoughness":{"baseColorTexture":{"index":13},"baseColorFactor":[1,1,1,1],"metallicFactor":0,"roughnessFactor":0.903921569},"emissiveFactor":[0,0,0],"alphaMode":"BLEND","doubleSided":true},{"name":"mat_14","pbrMetallicRoughness":{"baseColorTexture":{"index":14},"baseColorFactor":[1,1,1,1],"metallicFactor":0,"roughnessFactor":0.903921569},"emissiveFactor":[0,0,0],"alphaMode":"BLEND","doubleSided":true},{"name":"mat_14_NONE","pbrMetallicRoughness":{"baseColorTexture":{"index":14},"baseColorFactor":[1,1,1,1],"metallicFactor":0,"roughnessFactor":0.903921569},"emissiveFactor":[0,0,0],"alphaMode":"BLEND","doubleSided":true}],"meshes":[{"name":"todoseruga-Mesh","primitives":[{"attributes":{"POSITION":0,"TEXCOORD_0":1},"indices":2,"material":0,"mode":4},{"attributes":{"POSITION":3,"TEXCOORD_0":4},"indices":5,"material":1,"mode":4},{"attributes":{"POSITION":6,"TEXCOORD_0":7},"indices":8,"material":2,"mode":4},{"attributes":{"POSITION":9,"TEXCOORD_0":10},"indices":11,"material":3,"mode":4},{"attributes":{"POSITION":12,"TEXCOORD_0":13},"indices":14,"material":4,"mode":4},{"attributes":{"POSITION":15,"TEXCOORD_0":16},"indices":17,"material":5,"mode":4},{"attributes":{"POSITION":18,"TEXCOORD_0":19},"indices":20,"material":6,"mode":4},{"attributes":{"POSITION":21,"TEXCOORD_0":22},"indices":23,"material":7,"mode":4},{"attributes":{"POSITION":24,"TEXCOORD_0":25},"indices":26,"material":8,"mode":4},{"attributes":{"POSITION":27,"TEXCOORD_0":28},"indices":29,"material":9,"mode":4},{"attributes":{"POSITION":30,"TEXCOORD_0":31},"indices":32,"material":10,"mode":4},{"attributes":{"POSITION":33,"TEXCOORD_0":34},"indices":35,"material":11,"mode":4},{"attributes":{"POSITION":36,"TEXCOORD_0":37},"indices":38,"material":12,"mode":4},{"attributes":{"POSITION":39,"TEXCOORD_0":40},"indices":41,"material":13,"mode":4},{"attributes":{"POSITION":42,"TEXCOORD_0":43},"indices":44,"material":14,"mode":4},{"attributes":{"POSITION":45,"TEXCOORD_0":46},"indices":47,"material":15,"mode":4}]}],"nodes":[{"name":"todoseruga","mesh":0}],"samplers":[{"wrapS":10497,"wrapT":10497}],"scene":0,"scenes":[{"nodes":[0]}],"textures":[{"name":"todoseruga_1_0","sampler":0,"source":0},{"name":"todoseruga_1_2","sampler":0,"source":1},{"name":"todoseruga_1_4","sampler":0,"source":2},{"name":"todoseruga_1_5","sampler":0,"source":3},{"name":"todoseruga_1_6","sampler":0,"source":4},{"name":"todoseruga_1_8","sampler":0,"source":5},{"name":"todoseruga_1_10","sampler":0,"source":6},{"name":"todoseruga_1_12","sampler":0,"source":7},{"name":"todoseruga_1_14","sampler":0,"source":8},{"name":"todoseruga_1_15","sampler":0,"source":9},{"name":"todoseruga_1_16","sampler":0,"source":10},{"name":"todoseruga_1_17","sampler":0,"source":11},{"name":"todoseruga_1_18","sampler":0,"source":12},{"name":"todoseruga_1_19","sampler":0,"source":13},{"name":"todoseruga_1_20","sampler":0,"source":14}]}