{"accessors":[{"name":"pearlulu-Mesh_0_positions","componentType":5126,"count":166,"min":[-1.5451600551605225,-1.5211000442504883,-1.910730004310608],"max":[1.5451600551605225,1.375980019569397,-0.5552250146865845],"type":"VEC3","bufferView":0,"byteOffset":0},{"name":"pearlulu-Mesh_0_texcoords","componentType":5126,"count":166,"min":[0,0.0625],"max":[0.9375,1],"type":"VEC2","bufferView":1,"byteOffset":0},{"name":"pearlulu-Mesh_0_indices","componentType":5123,"count":696,"min":[0],"max":[165],"type":"SCALAR","bufferView":2,"byteOffset":0},{"name":"pearlulu-Mesh_1_positions","componentType":5126,"count":73,"min":[-2.096669912338257,-2.389050006866455,-4.251259803771973],"max":[2.096669912338257,1.909119963645935,-0.19330599904060364],"type":"VEC3","bufferView":0,"byteOffset":1992},{"name":"pearlulu-Mesh_1_texcoords","componentType":5126,"count":73,"min":[0.027723999693989754,0.023276999592781067],"max":[0.9806540012359619,0.9765580296516418],"type":"VEC2","bufferView":1,"byteOffset":1328},{"name":"pearlulu-Mesh_1_indices","componentType":5123,"count":246,"min":[0],"max":[72],"type":"SCALAR","bufferView":2,"byteOffset":1392},{"name":"pearlulu-Mesh_2_positions","componentType":5126,"count":36,"min":[-2.1169700622558594,-1.9409099817276,-1.0499999523162842],"max":[2.1169700622558594,2.007080078125,-1.0499999523162842],"type":"VEC3","bufferView":0,"byteOffset":2868},{"name":"pearlulu-Mesh_2_texcoords","componentType":5126,"count":36,"min":[0,0.0625],"max":[0.9713540077209473,1.03125],"type":"VEC2","bufferView":1,"byteOffset":1912},{"name":"pearlulu-Mesh_2_indices","componentType":5123,"count":105,"min":[0],"max":[35],"type":"SCALAR","bufferView":2,"byteOffset":1884},{"name":"pearlulu-Mesh_3_positions","componentType":5126,"count":134,"min":[-2.20278000831604,-2.6401898860931396,-4.354229927062988],"max":[2.20278000831604,2.007080078125,-0.001158999977633357],"type":"VEC3","bufferView":0,"byteOffset":3300},{"name":"pearlulu-Mesh_3_texcoords","componentType":5126,"count":134,"min":[0.011363999918103218,0.03125],"max":[0.9448969960212708,1.0817309617996216],"type":"VEC2","bufferView":1,"byteOffset":2200},{"name":"pearlulu-Mesh_3_indices","componentType":5123,"count":306,"min":[0],"max":[133],"type":"SCALAR","bufferView":2,"byteOffset":2096},{"name":"pearlulu-Mesh_4_positions","componentType":5126,"count":181,"min":[-2.0779099464416504,-2.6401898860931396,-4.354229927062988],"max":[2.0779099464416504,2.007080078125,-0.001158999977633357],"type":"VEC3","bufferView":0,"byteOffset":4908},{"name":"pearlulu-Mesh_4_texcoords","componentType":5126,"count":181,"min":[-0.026785999536514282,0.18080399930477142],"max":[1,1.09375],"type":"VEC2","bufferView":1,"byteOffset":3272},{"name":"pearlulu-Mesh_4_indices","componentType":5123,"count":432,"min":[0],"max":[180],"type":"SCALAR","bufferView":2,"byteOffset":2708},{"name":"pearlulu-Mesh_5_positions","componentType":5126,"count":104,"min":[-2.20278000831604,-2.4367799758911133,-2.8439700603485107],"max":[2.20278000831604,0.06798499822616577,-0.5639140009880066],"type":"VEC3","bufferView":0,"byteOffset":7080},{"name":"pearlulu-Mesh_5_texcoords","componentType":5126,"count":104,"min":[-0.8557689785957336,-0.18243999779224396],"max":[0.8365380167961121,0.9278849959373474],"type":"VEC2","bufferView":1,"byteOffset":4720},{"name":"pearlulu-Mesh_5_indices","componentType":5123,"count":294,"min":[0],"max":[103],"type":"SCALAR","bufferView":2,"byteOffset":3572}],"asset":{"generator":"obj2gltf","version":"2.0"},"buffers":[{"name":"BR_Clamperl-Shiny01","byteLength":26836,"uri":"data:application/octet-stream;base64,"}],"bufferViews":[{"name":"bufferView_0","buffer":0,"byteLength":8328,"byteOffset":0,"byteStride":12,"target":34962},{"name":"bufferView_1","buffer":0,"byteLength":5552,"byteOffset":8328,"byteStride":8,"target":34962},{"name":"bufferView_2","buffer":0,"byteLength":4160,"byteOffset":13880,"target":34963},{"buffer":0,"byteOffset":18040,"byteLength":274},{"buffer":0,"byteOffset":18314,"byteLength":274},{"buffer":0,"byteOffset":18588,"byteLength":2066},{"buffer":0,"byteOffset":20654,"byteLength":4114},{"buffer":0,"byteOffset":24768,"byteLength":2066}],"images":[{"name":"pearlulu_1_0","mimeType":"image/x-tga","bufferView":3},{"name":"pearlulu_1_1","mimeType":"image/x-tga","bufferView":4},{"name":"pearlulu_1_2","mimeType":"image/x-tga","bufferView":5},{"name":"pearlulu_1_3","mimeType":"image/x-tga","bufferView":6},{"name":"pearlulu_1_4","mimeType":"image/x-tga","bufferView":7}],"materials":[{"name":"mat_0","pbrMetallicRoughness":{"baseColorTexture":{"index":0},"baseColorFactor":[1,1,1,1],"metallicFactor":0,"roughnessFactor":0.903921569},"emissiveFactor":[0,0,0],"alphaMode":"BLEND","doubleSided":true},{"name":"mat_1","pbrMetallicRoughness":{"baseColorTexture":{"index":1},"baseColorFactor":[1,1,1,1],"metallicFactor":0,"roughnessFactor":0.903921569},"emissiveFactor":[0,0,0],"alphaMode":"BLEND","doubleSided":true},{"name":"mat_2","pbrMetallicRoughness":{"baseColorFactor":[0.8,0.8,0.8,1],"metallicFactor":0,"roughnessFactor":0.903921569},"emissiveFactor":[0,0,0],"alphaMode":"OPAQUE","doubleSided":false},{"name":"mat_3","pbrMetallicRoughness":{"baseColorTexture":{"index":2},"baseColorFactor":[1,1,1,1],"metallicFactor":0,"roughnessFactor":0.903921569},"emissiveFactor":[0,0,0],"alphaMode":"BLEND","doubleSided":true},{"name":"mat_4","pbrMetallicRoughness":{"baseColorTexture":{"index":3},"baseColorFactor":[1,1,1,1],"metallicFactor":0,"roughnessFactor":0.903921569},"emissiveFactor":[0,0,0],"alphaMode":"BLEND","doubleSided":true},{"name":"mat_5","pbrMetallicRoughness":{"baseColorTexture":{"index":4},"baseColorFactor":[1,1,1,1],"metallicFactor":0,"roughnessFactor":0.903921569},"emissiveFactor":[0,0,0],"alphaMode":"BLEND","doubleSided":true}],"meshes":[{"name":"pearlulu-Mesh","primitives":[{"attributes":{"POSITION":0,"TEXCOORD_0":1},"indices":2,"material":0,"mode":4},{"attributes":{"POSITION":3,"TEXCOORD_0":4},"indices":5,"material":1,"mode":4},{"attributes":{"POSITION":6,"TEXCOORD_0":7},"indices":8,"material":2,"mode":4},{"attributes":{"POSITION":9,"TEXCOORD_0":10},"indices":11,"material":3,"mode":4},{"attributes":{"POSITION":12,"TEXCOORD_0":13},"indices":14,"material":4,"mode":4},{"attributes":{"POSITION":15,"TEXCOORD_0":16},"indices":17,"material":5,"mode":4}]}],"nodes":[{"name":"pearlulu","mesh":0}],"samplers":[{"wrapS":10497,"wrapT":10497}],"scene":0,"scenes":[{"nodes":[0]}],"textures":[{"name":"pearlulu_1_0","sampler":0,"source":0},{"name":"pearlulu_1_1","sampler":0,"source":1},{"name":"pearlulu_1_2","sampler":0,"source":2},{"name":"pearlulu_1_3","sampler":0,"source":3},{"name":"pearlulu_1_4","sampler":0,"source":4}]}