{"accessors":[{"name":"huntail-Mesh_0_positions","componentType":5126,"count":16,"min":[0.7143009901046753,-0.8936920166015625,-0.4263339936733246],"max":[1.4137550592422485,1.2446630001068115,1.1805499792099],"type":"VEC3","bufferView":0,"byteOffset":0},{"name":"huntail-Mesh_0_texcoords","componentType":5126,"count":16,"min":[0,0],"max":[1,1],"type":"VEC2","bufferView":1,"byteOffset":0},{"name":"huntail-Mesh_0_indices","componentType":5123,"count":48,"min":[0],"max":[15],"type":"SCALAR","bufferView":2,"byteOffset":0}],"asset":{"generator":"obj2gltf","version":"2.0"},"buffers":[{"name":"BR_Huntail-Shiny01","byteLength":4532,"uri":"data:application/octet-stream;base64,"}],"bufferViews":[{"name":"bufferView_0","buffer":0,"byteLength":192,"byteOffset":0,"byteStride":12,"target":34962},{"name":"bufferView_1","buffer":0,"byteLength":128,"byteOffset":192,"byteStride":8,"target":34962},{"name":"bufferView_2","buffer":0,"byteLength":96,"byteOffset":320,"target":34963},{"buffer":0,"byteOffset":416,"byteLength":4114}],"images":[{"name":"huntail_1_0","mimeType":"image/x-tga","bufferView":3}],"materials":[{"name":"mat_0","pbrMetallicRoughness":{"baseColorTexture":{"index":0},"baseColorFactor":[1,1,1,1],"metallicFactor":0,"roughnessFactor":0.903921569},"emissiveFactor":[0,0,0],"alphaMode":"BLEND","doubleSided":true}],"meshes":[{"name":"huntail-Mesh","primitives":[{"attributes":{"POSITION":0,"TEXCOORD_0":1},"indices":2,"material":0,"mode":4}]}],"nodes":[{"name":"huntail","mesh":0}],"samplers":[{"wrapS":10497,"wrapT":10497}],"scene":0,"scenes":[{"nodes":[0]}],"textures":[{"name":"huntail_1_0","sampler":0,"source":0}]}