{"accessors":[{"name":"glanth-Mesh_0_positions","componentType":5126,"count":258,"min":[-2.0520200729370117,-6.7411298751831055,-5.732190132141113],"max":[1.9362599849700928,6.229529857635498,0.9621769785881042],"type":"VEC3","bufferView":0,"byteOffset":0},{"name":"glanth-Mesh_0_texcoords","componentType":5126,"count":258,"min":[-0.16634100675582886,0.06165299937129021],"max":[1.048799991607666,1.126945972442627],"type":"VEC2","bufferView":1,"byteOffset":0},{"name":"glanth-Mesh_0_indices","componentType":5123,"count":768,"min":[0],"max":[257],"type":"SCALAR","bufferView":2,"byteOffset":0},{"name":"glanth-Mesh_1_positions","componentType":5126,"count":100,"min":[-2.227060079574585,-1.0688300132751465,-0.6179019808769226],"max":[2.2246599197387695,3.249500036239624,1.5314099788665771],"type":"VEC3","bufferView":0,"byteOffset":3096},{"name":"glanth-Mesh_1_texcoords","componentType":5126,"count":100,"min":[0,0],"max":[1,1],"type":"VEC2","bufferView":1,"byteOffset":2064},{"name":"glanth-Mesh_1_indices","componentType":5123,"count":444,"min":[0],"max":[99],"type":"SCALAR","bufferView":2,"byteOffset":1536},{"name":"glanth-Mesh_2_positions","componentType":5126,"count":84,"min":[-2.2996199131011963,0.36148500442504883,-7.031650066375732],"max":[2.005079984664917,6.0449700355529785,0.7820370197296143],"type":"VEC3","bufferView":0,"byteOffset":4296},{"name":"glanth-Mesh_2_texcoords","componentType":5126,"count":84,"min":[0,0],"max":[0.9006419777870178,1],"type":"VEC2","bufferView":1,"byteOffset":2864},{"name":"glanth-Mesh_2_indices","componentType":5123,"count":264,"min":[0],"max":[83],"type":"SCALAR","bufferView":2,"byteOffset":2424},{"name":"glanth-Mesh_3_positions","componentType":5126,"count":52,"min":[-2.2996199131011963,2.4931399822235107,-5.564390182495117],"max":[2.2484500408172607,6.523530006408691,-1.0709999799728394],"type":"VEC3","bufferView":0,"byteOffset":5304},{"name":"glanth-Mesh_3_texcoords","componentType":5126,"count":52,"min":[0,0],"max":[1,1],"type":"VEC2","bufferView":1,"byteOffset":3536},{"name":"glanth-Mesh_3_indices","componentType":5123,"count":186,"min":[0],"max":[51],"type":"SCALAR","bufferView":2,"byteOffset":2952},{"name":"glanth-Mesh_4_positions","componentType":5126,"count":26,"min":[-2.227950096130371,2.149199962615967,-5.679870128631592],"max":[2.196969985961914,4.860750198364258,0.5848580002784729],"type":"VEC3","bufferView":0,"byteOffset":5928},{"name":"glanth-Mesh_4_texcoords","componentType":5126,"count":26,"min":[0.6672449707984924,0.22690799832344055],"max":[0.8707550168037415,0.7898160219192505],"type":"VEC2","bufferView":1,"byteOffset":3952},{"name":"glanth-Mesh_4_indices","componentType":5123,"count":66,"min":[0],"max":[25],"type":"SCALAR","bufferView":2,"byteOffset":3324},{"name":"glanth-Mesh_5_positions","componentType":5126,"count":36,"min":[-0.1941470056772232,-5.718830108642578,-7.902190208435059],"max":[0.1941470056772232,-0.3887070119380951,-4.976749897003174],"type":"VEC3","bufferView":0,"byteOffset":6240},{"name":"glanth-Mesh_5_texcoords","componentType":5126,"count":36,"min":[0,0],"max":[1,1],"type":"VEC2","bufferView":1,"byteOffset":4160},{"name":"glanth-Mesh_5_indices","componentType":5123,"count":189,"min":[0],"max":[35],"type":"SCALAR","bufferView":2,"byteOffset":3456},{"name":"glanth-Mesh_6_positions","componentType":5126,"count":36,"min":[-0.1941470056772232,-5.718830108642578,-1.0337200164794922],"max":[0.1941470056772232,-0.532709002494812,1.8917200565338135],"type":"VEC3","bufferView":0,"byteOffset":6672},{"name":"glanth-Mesh_6_texcoords","componentType":5126,"count":36,"min":[0,0],"max":[1,1],"type":"VEC2","bufferView":1,"byteOffset":4448},{"name":"glanth-Mesh_6_indices","componentType":5123,"count":189,"min":[0],"max":[35],"type":"SCALAR","bufferView":2,"byteOffset":3836},{"name":"glanth-Mesh_7_positions","componentType":5126,"count":33,"min":[-1.1841299533843994,3.6740500926971436,-2.318389892578125],"max":[1.1419199705123901,6.523530006408691,-0.5684840083122253],"type":"VEC3","bufferView":0,"byteOffset":7104},{"name":"glanth-Mesh_7_texcoords","componentType":5126,"count":33,"min":[-0.19136999547481537,-0.06397999823093414],"max":[1.2061100006103516,1.0250879526138306],"type":"VEC2","bufferView":1,"byteOffset":4736},{"name":"glanth-Mesh_7_indices","componentType":5123,"count":84,"min":[0],"max":[32],"type":"SCALAR","bufferView":2,"byteOffset":4216}],"asset":{"generator":"obj2gltf","version":"2.0"},"buffers":[{"name":"BR_Relicanth-Shiny01","byteLength":296800,"uri":"data:application/octet-stream;base64,"}],"bufferViews":[{"name":"bufferView_0","buffer":0,"byteLength":7500,"byteOffset":0,"byteStride":12,"target":34962},{"name":"bufferView_1","buffer":0,"byteLength":5000,"byteOffset":7500,"byteStride":8,"target":34962},{"name":"bufferView_2","buffer":0,"byteLength":4384,"byteOffset":12500,"target":34963},{"buffer":0,"byteOffset":16884,"byteLength":164882},{"buffer":0,"byteOffset":181766,"byteLength":16402},{"buffer":0,"byteOffset":198168,"byteLength":65554},{"buffer":0,"byteOffset":263722,"byteLength":274},{"buffer":0,"byteOffset":263996,"byteLength":16402},{"buffer":0,"byteOffset":280398,"byteLength":16402}],"images":[{"name":"glanth_1_0","mimeType":"image/x-tga","bufferView":3},{"name":"glanth_1_1","mimeType":"image/x-tga","bufferView":4},{"name":"glanth_1_2","mimeType":"image/x-tga","bufferView":5},{"name":"glanth_1_4","mimeType":"image/x-tga","bufferView":6},{"name":"glanth_1_5","mimeType":"image/x-tga","bufferView":7},{"name":"glanth_1_7","mimeType":"image/x-tga","bufferView":8}],"materials":[{"name":"mat_0","pbrMetallicRoughness":{"baseColorTexture":{"index":0},"baseColorFactor":[1,1,1,1],"metallicFactor":0,"roughnessFactor":0.903921569},"emissiveFactor":[0,0,0],"alphaMode":"BLEND","doubleSided":true},{"name":"mat_1","pbrMetallicRoughness":{"baseColorTexture":{"index":1},"baseColorFactor":[1,1,1,1],"metallicFactor":0,"roughnessFactor":0.903921569},"emissiveFactor":[0,0,0],"alphaMode":"BLEND","doubleSided":true},{"name":"mat_2","pbrMetallicRoughness":{"baseColorTexture":{"index":2},"baseColorFactor":[1,1,1,1],"metallicFactor":0,"roughnessFactor":0.903921569},"emissiveFactor":[0,0,0],"alphaMode":"BLEND","doubleSided":true},{"name":"mat_3","pbrMetallicRoughness":{"baseColorTexture":{"index":2},"baseColorFactor":[1,1,1,1],"metallicFactor":0,"roughnessFactor":0.903921569},"emissiveFactor":[0,0,0],"alphaMode":"BLEND","doubleSided":true},{"name":"mat_4","pbrMetallicRoughness":{"baseColorTexture":{"index":3},"baseColorFactor":[1,1,1,1],"metallicFactor":0,"roughnessFactor":0.903921569},"emissiveFactor":[0,0,0],"alphaMode":"BLEND","doubleSided":true},{"name":"mat_5","pbrMetallicRoughness":{"baseColorTexture":{"index":4},"baseColorFactor":[1,1,1,1],"metallicFactor":0,"roughnessFactor":0.903921569},"emissiveFactor":[0,0,0],"alphaMode":"BLEND","doubleSided":true},{"name":"mat_6","pbrMetallicRoughness":{"baseColorTexture":{"index":1},"baseColorFactor":[1,1,1,1],"metallicFactor":0,"roughnessFactor":0.903921569},"emissiveFactor":[0,0,0],"alphaMode":"BLEND","doubleSided":true},{"name":"mat_7","pbrMetallicRoughness":{"baseColorTexture":{"index":5},"baseColorFactor":[1,1,1,1],"metallicFactor":0,"roughnessFactor":0.903921569},"emissiveFactor":[0,0,0],"alphaMode":"BLEND","doubleSided":true}],"meshes":[{"name":"glanth-Mesh","primitives":[{"attributes":{"POSITION":0,"TEXCOORD_0":1},"indices":2,"material":0,"mode":4},{"attributes":{"POSITION":3,"TEXCOORD_0":4},"indices":5,"material":1,"mode":4},{"attributes":{"POSITION":6,"TEXCOORD_0":7},"indices":8,"material":2,"mode":4},{"attributes":{"POSITION":9,"TEXCOORD_0":10},"indices":11,"material":3,"mode":4},{"attributes":{"POSITION":12,"TEXCOORD_0":13},"indices":14,"material":4,"mode":4},{"attributes":{"POSITION":15,"TEXCOORD_0":16},"indices":17,"material":5,"mode":4},{"attributes":{"POSITION":18,"TEXCOORD_0":19},"indices":20,"material":6,"mode":4},{"attributes":{"POSITION":21,"TEXCOORD_0":22},"indices":23,"material":7,"mode":4}]}],"nodes":[{"name":"glanth","mesh":0}],"samplers":[{"wrapS":10497,"wrapT":10497}],"scene":0,"scenes":[{"nodes":[0]}],"textures":[{"name":"glanth_1_0","sampler":0,"source":0},{"name":"glanth_1_1","sampler":0,"source":1},{"name":"glanth_1_2","sampler":0,"source":2},{"name":"glanth_1_4","sampler":0,"source":3},{"name":"glanth_1_5","sampler":0,"source":4},{"name":"glanth_1_7","sampler":0,"source":5}]}