{"accessors":[{"name":"lovecus-Mesh_0_positions","componentType":5126,"count":163,"min":[-0.8828759789466858,-3.0246999263763428,-3.0666000843048096],"max":[0.8828759789466858,1.4805699586868286,3.0666000843048096],"type":"VEC3","bufferView":0,"byteOffset":0},{"name":"lovecus-Mesh_0_texcoords","componentType":5126,"count":163,"min":[0.08754699677228928,0.059344999492168427],"max":[0.7493379712104797,0.940654993057251],"type":"VEC2","bufferView":1,"byteOffset":0},{"name":"lovecus-Mesh_0_indices","componentType":5123,"count":828,"min":[0],"max":[162],"type":"SCALAR","bufferView":2,"byteOffset":0},{"name":"lovecus-Mesh_1_positions","componentType":5126,"count":80,"min":[-0.5888159871101379,1.47038996219635,-1.420930027961731],"max":[0.5888159871101379,2.974980115890503,1.420930027961731],"type":"VEC3","bufferView":0,"byteOffset":1956},{"name":"lovecus-Mesh_1_texcoords","componentType":5126,"count":80,"min":[0.01726599968969822,-0.09570000320672989],"max":[1.0172699689865112,0.9042980074882507],"type":"VEC2","bufferView":1,"byteOffset":1304},{"name":"lovecus-Mesh_1_indices","componentType":5123,"count":396,"min":[0],"max":[79],"type":"SCALAR","bufferView":2,"byteOffset":1656},{"name":"lovecus-Mesh_2_positions","componentType":5126,"count":58,"min":[-0.8828759789466858,-0.8116359710693359,-1.462499976158142],"max":[0.8828759789466858,1.4805699586868286,0.8265349864959717],"type":"VEC3","bufferView":0,"byteOffset":2916},{"name":"lovecus-Mesh_2_texcoords","componentType":5126,"count":58,"min":[0.03034299984574318,-0.021309999749064445],"max":[1.2241100072860718,0.09833700209856033],"type":"VEC2","bufferView":1,"byteOffset":1944},{"name":"lovecus-Mesh_2_indices","componentType":5123,"count":168,"min":[0],"max":[57],"type":"SCALAR","bufferView":2,"byteOffset":2448},{"name":"lovecus-Mesh_3_positions","componentType":5126,"count":8,"min":[-0.15407699346542358,2.006089925765991,0],"max":[0.15407699346542358,2.974980115890503,0.02575499936938286],"type":"VEC3","bufferView":0,"byteOffset":3612},{"name":"lovecus-Mesh_3_texcoords","componentType":5126,"count":8,"min":[0,-0.000009999999747378752],"max":[1,1.0000250339508057],"type":"VEC2","bufferView":1,"byteOffset":2408},{"name":"lovecus-Mesh_3_indices","componentType":5123,"count":18,"min":[0],"max":[7],"type":"SCALAR","bufferView":2,"byteOffset":2784},{"name":"lovecus-Mesh_4_positions","componentType":5126,"count":8,"min":[-0.15407699346542358,2.006089925765991,0.02575399912893772],"max":[0.15407699346542358,2.974980115890503,0.05150900036096573],"type":"VEC3","bufferView":0,"byteOffset":3708},{"name":"lovecus-Mesh_4_texcoords","componentType":5126,"count":8,"min":[0,0],"max":[1,1.0000250339508057],"type":"VEC2","bufferView":1,"byteOffset":2472},{"name":"lovecus-Mesh_4_indices","componentType":5123,"count":18,"min":[0],"max":[7],"type":"SCALAR","bufferView":2,"byteOffset":2820}],"asset":{"generator":"obj2gltf","version":"2.0"},"buffers":[{"name":"BR_Luvdisc-Shiny01","byteLength":223304,"uri":"data:application/octet-stream;base64,"}],"bufferViews":[{"name":"bufferView_0","buffer":0,"byteLength":3804,"byteOffset":0,"byteStride":12,"target":34962},{"name":"bufferView_1","buffer":0,"byteLength":2536,"byteOffset":3804,"byteStride":8,"target":34962},{"name":"bufferView_2","buffer":0,"byteLength":2856,"byteOffset":6340,"target":34963},{"buffer":0,"byteOffset":9196,"byteLength":1042},{"buffer":0,"byteOffset":10238,"byteLength":16402},{"buffer":0,"byteOffset":26640,"byteLength":163858},{"buffer":0,"byteOffset":190498,"byteLength":16402},{"buffer":0,"byteOffset":206900,"byteLength":16402}],"images":[{"name":"lovecus_1_0","mimeType":"image/x-tga","bufferView":3},{"name":"lovecus_1_2","mimeType":"image/x-tga","bufferView":4},{"name":"lovecus_1_4","mimeType":"image/x-tga","bufferView":5},{"name":"lovecus_1_7","mimeType":"image/x-tga","bufferView":6},{"name":"lovecus_1_9","mimeType":"image/x-tga","bufferView":7}],"materials":[{"name":"mat_0","pbrMetallicRoughness":{"baseColorTexture":{"index":0},"baseColorFactor":[1,1,1,1],"metallicFactor":0,"roughnessFactor":0.903921569},"emissiveFactor":[0,0,0],"alphaMode":"BLEND","doubleSided":true},{"name":"mat_1","pbrMetallicRoughness":{"baseColorTexture":{"index":1},"baseColorFactor":[1,1,1,1],"metallicFactor":0,"roughnessFactor":0.903921569},"emissiveFactor":[0,0,0],"alphaMode":"BLEND","doubleSided":true},{"name":"mat_2","pbrMetallicRoughness":{"baseColorTexture":{"index":2},"baseColorFactor":[1,1,1,1],"metallicFactor":0,"roughnessFactor":0.903921569},"emissiveFactor":[0,0,0],"alphaMode":"BLEND","doubleSided":true},{"name":"mat_3","pbrMetallicRoughness":{"baseColorTexture":{"index":3},"baseColorFactor":[1,1,1,1],"metallicFactor":0,"roughnessFactor":0.903921569},"emissiveFactor":[0,0,0],"alphaMode":"BLEND","doubleSided":true},{"name":"mat_4","pbrMetallicRoughness":{"baseColorTexture":{"index":4},"baseColorFactor":[1,1,1,1],"metallicFactor":0,"roughnessFactor":0.903921569},"emissiveFactor":[0,0,0],"alphaMode":"BLEND","doubleSided":true}],"meshes":[{"name":"lovecus-Mesh","primitives":[{"attributes":{"POSITION":0,"TEXCOORD_0":1},"indices":2,"material":0,"mode":4},{"attributes":{"POSITION":3,"TEXCOORD_0":4},"indices":5,"material":1,"mode":4},{"attributes":{"POSITION":6,"TEXCOORD_0":7},"indices":8,"material":2,"mode":4},{"attributes":{"POSITION":9,"TEXCOORD_0":10},"indices":11,"material":3,"mode":4},{"attributes":{"POSITION":12,"TEXCOORD_0":13},"indices":14,"material":4,"mode":4}]}],"nodes":[{"name":"lovecus","mesh":0}],"samplers":[{"wrapS":10497,"wrapT":10497}],"scene":0,"scenes":[{"nodes":[0]}],"textures":[{"name":"lovecus_1_0","sampler":0,"source":0},{"name":"lovecus_1_2","sampler":0,"source":1},{"name":"lovecus_1_4","sampler":0,"source":2},{"name":"lovecus_1_7","sampler":0,"source":3},{"name":"lovecus_1_9","sampler":0,"source":4}]}