{"accessors":[{"name":"komoruu-Mesh_0_positions","componentType":5126,"count":27,"min":[0.9086390137672424,1.410040020942688,-2.8525400161743164],"max":[3.1142399311065674,3.5078299045562744,0.2980000078678131],"type":"VEC3","bufferView":0,"byteOffset":0},{"name":"komoruu-Mesh_0_texcoords","componentType":5126,"count":27,"min":[0,0],"max":[1,1],"type":"VEC2","bufferView":1,"byteOffset":0},{"name":"komoruu-Mesh_0_indices","componentType":5123,"count":90,"min":[0],"max":[26],"type":"SCALAR","bufferView":2,"byteOffset":0},{"name":"komoruu-Mesh_1_positions","componentType":5126,"count":19,"min":[0.7476930022239685,-3.689389944076538,-3.318540096282959],"max":[3.0014500617980957,-1.5847300291061401,0.2663800120353699],"type":"VEC3","bufferView":0,"byteOffset":324},{"name":"komoruu-Mesh_1_texcoords","componentType":5126,"count":19,"min":[0,0],"max":[1,1],"type":"VEC2","bufferView":1,"byteOffset":216},{"name":"komoruu-Mesh_1_indices","componentType":5123,"count":90,"min":[0],"max":[18],"type":"SCALAR","bufferView":2,"byteOffset":180},{"name":"komoruu-Mesh_2_positions","componentType":5126,"count":96,"min":[-4.712160110473633,-4.999800205230713,-4.828030109405518],"max":[4.712160110473633,4.999800205230713,-1.32600998878479],"type":"VEC3","bufferView":0,"byteOffset":552},{"name":"komoruu-Mesh_2_texcoords","componentType":5126,"count":96,"min":[0.02501400001347065,0.017903000116348267],"max":[0.9919530153274536,0.9780740141868591],"type":"VEC2","bufferView":1,"byteOffset":368},{"name":"komoruu-Mesh_2_indices","componentType":5123,"count":444,"min":[0],"max":[95],"type":"SCALAR","bufferView":2,"byteOffset":360},{"name":"komoruu-Mesh_3_positions","componentType":5126,"count":86,"min":[0.7688990235328674,-4.999800205230713,-9.452420234680176],"max":[4.934889793395996,4.999800205230713,-4.828030109405518],"type":"VEC3","bufferView":0,"byteOffset":1704},{"name":"komoruu-Mesh_3_texcoords","componentType":5126,"count":86,"min":[0.011517000384628773,0.07009699940681458],"max":[0.964601993560791,0.9646580219268799],"type":"VEC2","bufferView":1,"byteOffset":1136},{"name":"komoruu-Mesh_3_indices","componentType":5123,"count":366,"min":[0],"max":[85],"type":"SCALAR","bufferView":2,"byteOffset":1248},{"name":"komoruu-Mesh_4_positions","componentType":5126,"count":83,"min":[-2.3122498989105225,-4.999800205230713,-10.969799995422363],"max":[2.3122498989105225,4.999800205230713,-6.162759780883789],"type":"VEC3","bufferView":0,"byteOffset":2736},{"name":"komoruu-Mesh_4_texcoords","componentType":5126,"count":83,"min":[0.02641499973833561,0.013604000210762024],"max":[0.9735850095748901,0.9863960146903992],"type":"VEC2","bufferView":1,"byteOffset":1824},{"name":"komoruu-Mesh_4_indices","componentType":5123,"count":366,"min":[0],"max":[82],"type":"SCALAR","bufferView":2,"byteOffset":1980},{"name":"komoruu-Mesh_5_positions","componentType":5126,"count":83,"min":[-4.934889793395996,-4.999800205230713,-9.452420234680176],"max":[-0.7688990235328674,4.999800205230713,-4.828030109405518],"type":"VEC3","bufferView":0,"byteOffset":3732},{"name":"komoruu-Mesh_5_texcoords","componentType":5126,"count":83,"min":[0.013864000327885151,0.0221599992364645],"max":[0.9834499955177307,0.989126980304718],"type":"VEC2","bufferView":1,"byteOffset":2488},{"name":"komoruu-Mesh_5_indices","componentType":5123,"count":366,"min":[0],"max":[82],"type":"SCALAR","bufferView":2,"byteOffset":2712},{"name":"komoruu-Mesh_6_positions","componentType":5126,"count":48,"min":[-2.2479500770568848,-4.999800205230713,-3.830359935760498],"max":[2.2479500770568848,4.999800205230713,-0.8852369785308838],"type":"VEC3","bufferView":0,"byteOffset":4728},{"name":"komoruu-Mesh_6_texcoords","componentType":5126,"count":48,"min":[0.0034260000102221966,0.012648000381886959],"max":[0.9965729713439941,0.9873520135879517],"type":"VEC2","bufferView":1,"byteOffset":3152},{"name":"komoruu-Mesh_6_indices","componentType":5123,"count":222,"min":[0],"max":[47],"type":"SCALAR","bufferView":2,"byteOffset":3444},{"name":"komoruu-Mesh_7_positions","componentType":5126,"count":8,"min":[-1.447029948234558,4.769269943237305,-6.162759780883789],"max":[1.447029948234558,5.024199962615967,-3.830359935760498],"type":"VEC3","bufferView":0,"byteOffset":5304},{"name":"komoruu-Mesh_7_texcoords","componentType":5126,"count":8,"min":[0.007954999804496765,0.016719000414013863],"max":[0.9853240251541138,0.18089599907398224],"type":"VEC2","bufferView":1,"byteOffset":3536},{"name":"komoruu-Mesh_7_indices","componentType":5123,"count":24,"min":[0],"max":[7],"type":"SCALAR","bufferView":2,"byteOffset":3888},{"name":"komoruu-Mesh_8_positions","componentType":5126,"count":8,"min":[-1.3349000215530396,-5.024199962615967,-6.162759780883789],"max":[1.3349000215530396,-4.769269943237305,-3.830359935760498],"type":"VEC3","bufferView":0,"byteOffset":5400},{"name":"komoruu-Mesh_8_texcoords","componentType":5126,"count":8,"min":[0.005630000028759241,0.013957999646663666],"max":[0.9943709969520569,0.9839360117912292],"type":"VEC2","bufferView":1,"byteOffset":3600},{"name":"komoruu-Mesh_8_indices","componentType":5123,"count":24,"min":[0],"max":[7],"type":"SCALAR","bufferView":2,"byteOffset":3936},{"name":"komoruu-Mesh_9_positions","componentType":5126,"count":19,"min":[-3.1142399311065674,1.410040020942688,-2.8525400161743164],"max":[-0.9086390137672424,3.5078299045562744,0.2980000078678131],"type":"VEC3","bufferView":0,"byteOffset":5496},{"name":"komoruu-Mesh_9_texcoords","componentType":5126,"count":19,"min":[0,0],"max":[1,1],"type":"VEC2","bufferView":1,"byteOffset":3664},{"name":"komoruu-Mesh_9_indices","componentType":5123,"count":90,"min":[0],"max":[18],"type":"SCALAR","bufferView":2,"byteOffset":3984},{"name":"komoruu-Mesh_10_positions","componentType":5126,"count":19,"min":[-3.0014500617980957,-3.689389944076538,-3.318540096282959],"max":[-0.7476930022239685,-1.5847300291061401,0.2663800120353699],"type":"VEC3","bufferView":0,"byteOffset":5724},{"name":"komoruu-Mesh_10_texcoords","componentType":5126,"count":19,"min":[0,0],"max":[1,1],"type":"VEC2","bufferView":1,"byteOffset":3816},{"name":"komoruu-Mesh_10_indices","componentType":5123,"count":90,"min":[0],"max":[18],"type":"SCALAR","bufferView":2,"byteOffset":4164}],"asset":{"generator":"obj2gltf","version":"2.0"},"buffers":[{"name":"BR_Shelgon-Shiny01","byteLength":489492,"uri":"data:application/octet-stream;base64,"}],"bufferViews":[{"name":"bufferView_0","buffer":0,"byteLength":5952,"byteOffset":0,"byteStride":12,"target":34962},{"name":"bufferView_1","buffer":0,"byteLength":3968,"byteOffset":5952,"byteStride":8,"target":34962},{"name":"bufferView_2","buffer":0,"byteLength":4344,"byteOffset":9920,"target":34963},{"buffer":0,"byteOffset":14264,"byteLength":65554},{"buffer":0,"byteOffset":79818,"byteLength":32786},{"buffer":0,"byteOffset":112604,"byteLength":32786},{"buffer":0,"byteOffset":145390,"byteLength":327698},{"buffer":0,"byteOffset":473088,"byteLength":16402}],"images":[{"name":"komoruu_1_0","mimeType":"image/x-tga","bufferView":3},{"name":"komoruu_1_2","mimeType":"image/x-tga","bufferView":4},{"name":"komoruu_1_4","mimeType":"image/x-tga","bufferView":5},{"name":"komoruu_1_12","mimeType":"image/x-tga","bufferView":6},{"name":"komoruu_1_13","mimeType":"image/x-tga","bufferView":7}],"materials":[{"name":"mat_0","pbrMetallicRoughness":{"baseColorTexture":{"index":0},"baseColorFactor":[1,1,1,1],"metallicFactor":0,"roughnessFactor":0.903921569},"emissiveFactor":[0,0,0],"alphaMode":"BLEND","doubleSided":true},{"name":"mat_1","pbrMetallicRoughness":{"baseColorTexture":{"index":0},"baseColorFactor":[1,1,1,1],"metallicFactor":0,"roughnessFactor":0.903921569},"emissiveFactor":[0,0,0],"alphaMode":"BLEND","doubleSided":true},{"name":"mat_2","pbrMetallicRoughness":{"baseColorTexture":{"index":1},"baseColorFactor":[1,1,1,1],"metallicFactor":0,"roughnessFactor":0.903921569},"emissiveFactor":[0,0,0],"alphaMode":"BLEND","doubleSided":true},{"name":"mat_3","pbrMetallicRoughness":{"baseColorTexture":{"index":2},"baseColorFactor":[1,1,1,1],"metallicFactor":0,"roughnessFactor":0.903921569},"emissiveFactor":[0,0,0],"alphaMode":"BLEND","doubleSided":true},{"name":"mat_4","pbrMetallicRoughness":{"baseColorTexture":{"index":2},"baseColorFactor":[1,1,1,1],"metallicFactor":0,"roughnessFactor":0.903921569},"emissiveFactor":[0,0,0],"alphaMode":"BLEND","doubleSided":true},{"name":"mat_5","pbrMetallicRoughness":{"baseColorTexture":{"index":2},"baseColorFactor":[1,1,1,1],"metallicFactor":0,"roughnessFactor":0.903921569},"emissiveFactor":[0,0,0],"alphaMode":"BLEND","doubleSided":true},{"name":"mat_6","pbrMetallicRoughness":{"baseColorTexture":{"index":1},"baseColorFactor":[1,1,1,1],"metallicFactor":0,"roughnessFactor":0.903921569},"emissiveFactor":[0,0,0],"alphaMode":"BLEND","doubleSided":true},{"name":"mat_7","pbrMetallicRoughness":{"baseColorTexture":{"index":3},"baseColorFactor":[1,1,1,1],"metallicFactor":0,"roughnessFactor":0.903921569},"emissiveFactor":[0,0,0],"alphaMode":"BLEND","doubleSided":true},{"name":"mat_8","pbrMetallicRoughness":{"baseColorTexture":{"index":4},"baseColorFactor":[1,1,1,1],"metallicFactor":0,"roughnessFactor":0.903921569},"emissiveFactor":[0,0,0],"alphaMode":"BLEND","doubleSided":true},{"name":"mat_9","pbrMetallicRoughness":{"baseColorTexture":{"index":0},"baseColorFactor":[1,1,1,1],"metallicFactor":0,"roughnessFactor":0.903921569},"emissiveFactor":[0,0,0],"alphaMode":"BLEND","doubleSided":true},{"name":"mat_10","pbrMetallicRoughness":{"baseColorTexture":{"index":0},"baseColorFactor":[1,1,1,1],"metallicFactor":0,"roughnessFactor":0.903921569},"emissiveFactor":[0,0,0],"alphaMode":"BLEND","doubleSided":true}],"meshes":[{"name":"komoruu-Mesh","primitives":[{"attributes":{"POSITION":0,"TEXCOORD_0":1},"indices":2,"material":0,"mode":4},{"attributes":{"POSITION":3,"TEXCOORD_0":4},"indices":5,"material":1,"mode":4},{"attributes":{"POSITION":6,"TEXCOORD_0":7},"indices":8,"material":2,"mode":4},{"attributes":{"POSITION":9,"TEXCOORD_0":10},"indices":11,"material":3,"mode":4},{"attributes":{"POSITION":12,"TEXCOORD_0":13},"indices":14,"material":4,"mode":4},{"attributes":{"POSITION":15,"TEXCOORD_0":16},"indices":17,"material":5,"mode":4},{"attributes":{"POSITION":18,"TEXCOORD_0":19},"indices":20,"material":6,"mode":4},{"attributes":{"POSITION":21,"TEXCOORD_0":22},"indices":23,"material":7,"mode":4},{"attributes":{"POSITION":24,"TEXCOORD_0":25},"indices":26,"material":8,"mode":4},{"attributes":{"POSITION":27,"TEXCOORD_0":28},"indices":29,"material":9,"mode":4},{"attributes":{"POSITION":30,"TEXCOORD_0":31},"indices":32,"material":10,"mode":4}]}],"nodes":[{"name":"komoruu","mesh":0}],"samplers":[{"wrapS":10497,"wrapT":10497}],"scene":0,"scenes":[{"nodes":[0]}],"textures":[{"name":"komoruu_1_0","sampler":0,"source":0},{"name":"komoruu_1_2","sampler":0,"source":1},{"name":"komoruu_1_4","sampler":0,"source":2},{"name":"komoruu_1_12","sampler":0,"source":3},{"name":"komoruu_1_13","sampler":0,"source":4}]}