{"accessors":[{"name":"polygon0_1_0_positions","componentType":5126,"count":10,"min":[-1.5929290056228638,10.813812255859375,13.740416526794434],"max":[1.5929280519485474,11.906790733337402,15.596263885498047],"type":"VEC3","bufferView":0,"byteOffset":0},{"name":"polygon0_1_0_normals","componentType":5126,"count":10,"min":[-0.8467222452163696,0.17729197442531586,0.435398131608963],"max":[0.8467222452163696,0.4972359836101532,0.6190879940986633],"type":"VEC3","bufferView":1,"byteOffset":0},{"name":"polygon0_1_0_texcoords","componentType":5126,"count":10,"min":[-0.9580690264701843,0.016234999522566795],"max":[-0.13336199522018433,0.23846399784088135],"type":"VEC2","bufferView":2,"byteOffset":0},{"name":"polygon0_1_0_indices","componentType":5123,"count":18,"min":[0],"max":[9],"type":"SCALAR","bufferView":3,"byteOffset":0},{"name":"polygon1_1_0_positions","componentType":5126,"count":1277,"min":[-11.26411247253418,-0.14259900152683258,-29.52899932861328],"max":[11.264108657836914,16.797636032104492,16.443395614624023],"type":"VEC3","bufferView":0,"byteOffset":120},{"name":"polygon1_1_0_normals","componentType":5126,"count":1277,"min":[-0.9954197406768799,-0.9999704360961914,-0.9977230429649353],"max":[0.9954197406768799,0.9998716711997986,0.9996393322944641],"type":"VEC3","bufferView":1,"byteOffset":120},{"name":"polygon1_1_0_texcoords","componentType":5126,"count":1277,"min":[0.009583000093698502,0.015441999770700932],"max":[0.9935610294342041,0.9969180226325989],"type":"VEC2","bufferView":2,"byteOffset":80},{"name":"polygon1_1_0_indices","componentType":5123,"count":5148,"min":[0],"max":[1276],"type":"SCALAR","bufferView":3,"byteOffset":36}],"asset":{"generator":"obj2gltf","version":"2.0"},"buffers":[{"name":"P2_Salamence","byteLength":297312,"uri":"data:application/octet-stream;base64,"}],"bufferViews":[{"name":"bufferView_0","buffer":0,"byteLength":15444,"byteOffset":0,"byteStride":12,"target":34962},{"name":"bufferView_1","buffer":0,"byteLength":15444,"byteOffset":15444,"byteStride":12,"target":34962},{"name":"bufferView_2","buffer":0,"byteLength":10296,"byteOffset":30888,"byteStride":8,"target":34962},{"name":"bufferView_3","buffer":0,"byteLength":10332,"byteOffset":41184,"target":34963},{"buffer":0,"byteOffset":51516,"byteLength":49170},{"buffer":0,"byteOffset":100686,"byteLength":196626}],"images":[{"name":"BohmanderEyeDh","mimeType":"image/x-tga","bufferView":4},{"name":"BohmanderDh","mimeType":"image/x-tga","bufferView":5}],"materials":[{"name":"mat2","pbrMetallicRoughness":{"baseColorTexture":{"index":0},"baseColorFactor":[1,1,1,1],"metallicFactor":0,"roughnessFactor":0.99},"emissiveFactor":[0,0,0],"alphaMode":"OPAQUE","doubleSided":false},{"name":"mat1","pbrMetallicRoughness":{"baseColorTexture":{"index":1},"baseColorFactor":[1,1,1,1],"metallicFactor":0,"roughnessFactor":0.99},"emissiveFactor":[0,0,0],"alphaMode":"OPAQUE","doubleSided":false}],"meshes":[{"name":"polygon0_1","primitives":[{"attributes":{"POSITION":0,"NORMAL":1,"TEXCOORD_0":2},"indices":3,"material":0,"mode":4}]},{"name":"polygon1_1","primitives":[{"attributes":{"POSITION":4,"NORMAL":5,"TEXCOORD_0":6},"indices":7,"material":1,"mode":4}]}],"nodes":[{"name":"polygon0","mesh":0},{"name":"polygon1","mesh":1}],"samplers":[{"wrapS":10497,"wrapT":10497}],"scene":0,"scenes":[{"nodes":[0,1]}],"textures":[{"name":"BohmanderEyeDh","sampler":0,"source":0},{"name":"BohmanderDh","sampler":0,"source":1}]}