{"accessors":[{"name":"dumbber-Mesh_0_positions","componentType":5126,"count":401,"min":[-1.2587180137634277,-1.2956620454788208,-5.988937854766846],"max":[1.2587180137634277,1.2587180137634277,-0.9422169923782349],"type":"VEC3","bufferView":0,"byteOffset":0},{"name":"dumbber-Mesh_0_texcoords","componentType":5126,"count":401,"min":[0,0],"max":[0.9562990069389343,1],"type":"VEC2","bufferView":1,"byteOffset":0},{"name":"dumbber-Mesh_0_indices","componentType":5123,"count":1128,"min":[0],"max":[400],"type":"SCALAR","bufferView":2,"byteOffset":0},{"name":"dumbber-Mesh_1_positions","componentType":5126,"count":66,"min":[-0.41092100739479065,0.8249210119247437,-5.0380539894104],"max":[0.6080939769744873,1.1388740539550781,-4.066350936889648],"type":"VEC3","bufferView":0,"byteOffset":4812},{"name":"dumbber-Mesh_1_texcoords","componentType":5126,"count":66,"min":[0.0831729993224144,0.057406000792980194],"max":[0.9503800272941589,0.9004309773445129],"type":"VEC2","bufferView":1,"byteOffset":3208},{"name":"dumbber-Mesh_1_indices","componentType":5123,"count":285,"min":[0],"max":[65],"type":"SCALAR","bufferView":2,"byteOffset":2256},{"name":"dumbber-Mesh_2_positions","componentType":5126,"count":10,"min":[-0.47192299365997314,-0.38518500328063965,-3.7677979469299316],"max":[0.47192299365997314,0.6414240002632141,-3.480470895767212],"type":"VEC3","bufferView":0,"byteOffset":5604},{"name":"dumbber-Mesh_2_texcoords","componentType":5126,"count":10,"min":[0.07988700270652771,0.18659299612045288],"max":[0.9201130270957947,0.6176789999008179],"type":"VEC2","bufferView":1,"byteOffset":3736},{"name":"dumbber-Mesh_2_indices","componentType":5123,"count":24,"min":[0],"max":[9],"type":"SCALAR","bufferView":2,"byteOffset":2828},{"name":"dumbber-Mesh_3_positions","componentType":5126,"count":33,"min":[-0.9465569853782654,-0.6765249967575073,-0.9414200186729431],"max":[0.9465569853782654,1.071861982345581,-0.022391000762581825],"type":"VEC3","bufferView":0,"byteOffset":5724},{"name":"dumbber-Mesh_3_texcoords","componentType":5126,"count":33,"min":[0.015625,0.01916399970650673],"max":[0.984375,0.9722890257835388],"type":"VEC2","bufferView":1,"byteOffset":3816},{"name":"dumbber-Mesh_3_indices","componentType":5123,"count":108,"min":[0],"max":[32],"type":"SCALAR","bufferView":2,"byteOffset":2876},{"name":"dumbber-Mesh_4_positions","componentType":5126,"count":15,"min":[-0.7806810140609741,-0.6765249967575073,-0.9414200186729431],"max":[0.7806810140609741,0.6756539940834045,-0.022391000762581825],"type":"VEC3","bufferView":0,"byteOffset":6120},{"name":"dumbber-Mesh_4_texcoords","componentType":5126,"count":15,"min":[0.03125,0.05110299959778786],"max":[0.96875,0.9261029958724976],"type":"VEC2","bufferView":1,"byteOffset":4080},{"name":"dumbber-Mesh_4_indices","componentType":5123,"count":27,"min":[0],"max":[14],"type":"SCALAR","bufferView":2,"byteOffset":3092},{"name":"dumbber-Mesh_5_positions","componentType":5126,"count":13,"min":[0.47225698828697205,-0.6491280198097229,-3.4858500957489014],"max":[1.0771679878234863,0.9560009837150574,-1.5451810359954834],"type":"VEC3","bufferView":0,"byteOffset":6300},{"name":"dumbber-Mesh_5_texcoords","componentType":5126,"count":13,"min":[0.2180439978837967,0.3833410143852234],"max":[0.7696070075035095,0.7392579913139343],"type":"VEC2","bufferView":1,"byteOffset":4200},{"name":"dumbber-Mesh_5_indices","componentType":5123,"count":27,"min":[0],"max":[12],"type":"SCALAR","bufferView":2,"byteOffset":3148},{"name":"dumbber-Mesh_6_positions","componentType":5126,"count":49,"min":[0.47225698828697205,-0.843455970287323,-3.8795580863952637],"max":[1.1249639987945557,0.9560009837150574,-1.5451810359954834],"type":"VEC3","bufferView":0,"byteOffset":6456},{"name":"dumbber-Mesh_6_texcoords","componentType":5126,"count":49,"min":[0.1458979994058609,0],"max":[1,1],"type":"VEC2","bufferView":1,"byteOffset":4304},{"name":"dumbber-Mesh_6_indices","componentType":5123,"count":165,"min":[0],"max":[48],"type":"SCALAR","bufferView":2,"byteOffset":3204},{"name":"dumbber-Mesh_7_positions","componentType":5126,"count":20,"min":[-0.44199898838996887,-0.5103769898414612,-4.643398761749268],"max":[0.44199898838996887,0.5103769898414612,-3.281348943710327],"type":"VEC3","bufferView":0,"byteOffset":7044},{"name":"dumbber-Mesh_7_texcoords","componentType":5126,"count":20,"min":[0,0],"max":[1,1],"type":"VEC2","bufferView":1,"byteOffset":4696},{"name":"dumbber-Mesh_7_indices","componentType":5123,"count":36,"min":[0],"max":[19],"type":"SCALAR","bufferView":2,"byteOffset":3536},{"name":"dumbber-Mesh_8_positions","componentType":5126,"count":41,"min":[-0.29042500257492065,0.9175009727478027,-4.908627986907959],"max":[0.29042500257492065,1.1393630504608154,-4.297893047332764],"type":"VEC3","bufferView":0,"byteOffset":7284},{"name":"dumbber-Mesh_8_texcoords","componentType":5126,"count":41,"min":[0.011121000163257122,0.00041700000292621553],"max":[0.9888790249824524,0.1970749944448471],"type":"VEC2","bufferView":1,"byteOffset":4856},{"name":"dumbber-Mesh_8_indices","componentType":5123,"count":210,"min":[0],"max":[40],"type":"SCALAR","bufferView":2,"byteOffset":3608}],"asset":{"generator":"obj2gltf","version":"2.0"},"buffers":[{"name":"BR_Beldum-Shiny01","byteLength":248520,"uri":"data:application/octet-stream;base64,"}],"bufferViews":[{"name":"bufferView_0","buffer":0,"byteLength":7776,"byteOffset":0,"byteStride":12,"target":34962},{"name":"bufferView_1","buffer":0,"byteLength":5184,"byteOffset":7776,"byteStride":8,"target":34962},{"name":"bufferView_2","buffer":0,"byteLength":4028,"byteOffset":12960,"target":34963},{"buffer":0,"byteOffset":16988,"byteLength":65554},{"buffer":0,"byteOffset":82542,"byteLength":1042},{"buffer":0,"byteOffset":83584,"byteLength":16402},{"buffer":0,"byteOffset":99986,"byteLength":1042},{"buffer":0,"byteOffset":101028,"byteLength":65554},{"buffer":0,"byteOffset":166582,"byteLength":81938}],"images":[{"name":"dumbber_1_0","mimeType":"image/x-tga","bufferView":3},{"name":"dumbber_1_1","mimeType":"image/x-tga","bufferView":4},{"name":"dumbber_1_3","mimeType":"image/x-tga","bufferView":5},{"name":"dumbber_1_4","mimeType":"image/x-tga","bufferView":6},{"name":"dumbber_1_5","mimeType":"image/x-tga","bufferView":7},{"name":"dumbber_1_8","mimeType":"image/x-tga","bufferView":8}],"materials":[{"name":"mat_0","pbrMetallicRoughness":{"baseColorTexture":{"index":0},"baseColorFactor":[1,1,1,1],"metallicFactor":0,"roughnessFactor":0.903921569},"emissiveFactor":[0,0,0],"alphaMode":"BLEND","doubleSided":true},{"name":"mat_1","pbrMetallicRoughness":{"baseColorTexture":{"index":1},"baseColorFactor":[1,1,1,1],"metallicFactor":0,"roughnessFactor":0.903921569},"emissiveFactor":[0,0,0],"alphaMode":"BLEND","doubleSided":true},{"name":"mat_2","pbrMetallicRoughness":{"baseColorTexture":{"index":1},"baseColorFactor":[1,1,1,1],"metallicFactor":0,"roughnessFactor":0.903921569},"emissiveFactor":[0,0,0],"alphaMode":"BLEND","doubleSided":true},{"name":"mat_3","pbrMetallicRoughness":{"baseColorTexture":{"index":2},"baseColorFactor":[1,1,1,1],"metallicFactor":0,"roughnessFactor":0.903921569},"emissiveFactor":[0,0,0],"alphaMode":"BLEND","doubleSided":true},{"name":"mat_4","pbrMetallicRoughness":{"baseColorTexture":{"index":3},"baseColorFactor":[1,1,1,1],"metallicFactor":0,"roughnessFactor":0.903921569},"emissiveFactor":[0,0,0],"alphaMode":"BLEND","doubleSided":true},{"name":"mat_5","pbrMetallicRoughness":{"baseColorTexture":{"index":4},"baseColorFactor":[1,1,1,1],"metallicFactor":0,"roughnessFactor":0.903921569},"emissiveFactor":[0,0,0],"alphaMode":"BLEND","doubleSided":true},{"name":"mat_6","pbrMetallicRoughness":{"baseColorTexture":{"index":0},"baseColorFactor":[1,1,1,1],"metallicFactor":0,"roughnessFactor":0.903921569},"emissiveFactor":[0,0,0],"alphaMode":"BLEND","doubleSided":true},{"name":"mat_7","pbrMetallicRoughness":{"baseColorTexture":{"index":1},"baseColorFactor":[1,1,1,1],"metallicFactor":0,"roughnessFactor":0.903921569},"emissiveFactor":[0,0,0],"alphaMode":"BLEND","doubleSided":true},{"name":"mat_8","pbrMetallicRoughness":{"baseColorTexture":{"index":5},"baseColorFactor":[1,1,1,1],"metallicFactor":0,"roughnessFactor":0.903921569},"emissiveFactor":[0,0,0],"alphaMode":"BLEND","doubleSided":true}],"meshes":[{"name":"dumbber-Mesh","primitives":[{"attributes":{"POSITION":0,"TEXCOORD_0":1},"indices":2,"material":0,"mode":4},{"attributes":{"POSITION":3,"TEXCOORD_0":4},"indices":5,"material":1,"mode":4},{"attributes":{"POSITION":6,"TEXCOORD_0":7},"indices":8,"material":2,"mode":4},{"attributes":{"POSITION":9,"TEXCOORD_0":10},"indices":11,"material":3,"mode":4},{"attributes":{"POSITION":12,"TEXCOORD_0":13},"indices":14,"material":4,"mode":4},{"attributes":{"POSITION":15,"TEXCOORD_0":16},"indices":17,"material":5,"mode":4},{"attributes":{"POSITION":18,"TEXCOORD_0":19},"indices":20,"material":6,"mode":4},{"attributes":{"POSITION":21,"TEXCOORD_0":22},"indices":23,"material":7,"mode":4},{"attributes":{"POSITION":24,"TEXCOORD_0":25},"indices":26,"material":8,"mode":4}]}],"nodes":[{"name":"dumbber","mesh":0}],"samplers":[{"wrapS":10497,"wrapT":10497}],"scene":0,"scenes":[{"nodes":[0]}],"textures":[{"name":"dumbber_1_0","sampler":0,"source":0},{"name":"dumbber_1_1","sampler":0,"source":1},{"name":"dumbber_1_3","sampler":0,"source":2},{"name":"dumbber_1_4","sampler":0,"source":3},{"name":"dumbber_1_5","sampler":0,"source":4},{"name":"dumbber_1_8","sampler":0,"source":5}]}