{"accessors":[{"name":"metang-Mesh_0_positions","componentType":5126,"count":422,"min":[-10.729700088500977,0.22161400318145752,-11.394499778747559],"max":[10.742600440979004,4.613369941711426,-1.9931600093841553],"type":"VEC3","bufferView":0,"byteOffset":0},{"name":"metang-Mesh_0_texcoords","componentType":5126,"count":422,"min":[0,0.0625],"max":[0.950203001499176,1],"type":"VEC2","bufferView":1,"byteOffset":0},{"name":"metang-Mesh_0_indices","componentType":5123,"count":1236,"min":[0],"max":[421],"type":"SCALAR","bufferView":2,"byteOffset":0},{"name":"metang-Mesh_1_positions","componentType":5126,"count":164,"min":[-9.772729873657227,-7.788300037384033,-11.255900382995605],"max":[9.78555965423584,7.788300037384033,-0.031094999983906746],"type":"VEC3","bufferView":0,"byteOffset":5064},{"name":"metang-Mesh_1_texcoords","componentType":5126,"count":164,"min":[0.02573399990797043,0.031644001603126526],"max":[0.96875,0.9819759726524353],"type":"VEC2","bufferView":1,"byteOffset":3376},{"name":"metang-Mesh_1_indices","componentType":5123,"count":330,"min":[0],"max":[163],"type":"SCALAR","bufferView":2,"byteOffset":2472},{"name":"metang-Mesh_2_positions","componentType":5126,"count":24,"min":[-6.183539867401123,-6.183539867401123,-8.038960456848145],"max":[6.183539867401123,6.183539867401123,-6.3415398597717285],"type":"VEC3","bufferView":0,"byteOffset":7032},{"name":"metang-Mesh_2_texcoords","componentType":5126,"count":24,"min":[0.014000000432133675,0.014000000432133675],"max":[0.9860000014305115,0.9860000014305115],"type":"VEC2","bufferView":1,"byteOffset":4688},{"name":"metang-Mesh_2_indices","componentType":5123,"count":102,"min":[0],"max":[23],"type":"SCALAR","bufferView":2,"byteOffset":3132},{"name":"metang-Mesh_3_positions","componentType":5126,"count":14,"min":[-6.361670017242432,-6.361670017242432,-9.392720222473145],"max":[6.361670017242432,0,-8.038960456848145],"type":"VEC3","bufferView":0,"byteOffset":7320},{"name":"metang-Mesh_3_texcoords","componentType":5126,"count":14,"min":[0.00392200006172061,0.052841998636722565],"max":[0.9960780143737793,0.9685919880867004],"type":"VEC2","bufferView":1,"byteOffset":4880},{"name":"metang-Mesh_3_indices","componentType":5123,"count":36,"min":[0],"max":[13],"type":"SCALAR","bufferView":2,"byteOffset":3336},{"name":"metang-Mesh_4_positions","componentType":5126,"count":75,"min":[-6.361670017242432,-6.361670017242432,-11.965900421142578],"max":[6.361670017242432,6.361670017242432,-9.392720222473145],"type":"VEC3","bufferView":0,"byteOffset":7488},{"name":"metang-Mesh_4_texcoords","componentType":5126,"count":75,"min":[0.005859000142663717,0.00583800021559],"max":[0.9941409826278687,0.9941189885139465],"type":"VEC2","bufferView":1,"byteOffset":4992},{"name":"metang-Mesh_4_indices","componentType":5123,"count":234,"min":[0],"max":[74],"type":"SCALAR","bufferView":2,"byteOffset":3408},{"name":"metang-Mesh_5_positions","componentType":5126,"count":14,"min":[-6.361670017242432,0,-9.392720222473145],"max":[6.361670017242432,6.361670017242432,-8.038960456848145],"type":"VEC3","bufferView":0,"byteOffset":8388},{"name":"metang-Mesh_5_texcoords","componentType":5126,"count":14,"min":[0.007813000120222569,0.09466800093650818],"max":[0.9921879768371582,0.9143810272216797],"type":"VEC2","bufferView":1,"byteOffset":5592},{"name":"metang-Mesh_5_indices","componentType":5123,"count":36,"min":[0],"max":[13],"type":"SCALAR","bufferView":2,"byteOffset":3876},{"name":"metang-Mesh_6_positions","componentType":5126,"count":12,"min":[-3.361330032348633,2.5861799716949463,-11.176300048828125],"max":[3.3717799186706543,4.353919982910156,-9.715579986572266],"type":"VEC3","bufferView":0,"byteOffset":8556},{"name":"metang-Mesh_6_texcoords","componentType":5126,"count":12,"min":[0.022590000182390213,0.04167399927973747],"max":[0.9754419922828674,0.1566459983587265],"type":"VEC2","bufferView":1,"byteOffset":5704},{"name":"metang-Mesh_6_indices","componentType":5123,"count":24,"min":[0],"max":[11],"type":"SCALAR","bufferView":2,"byteOffset":3948},{"name":"metang-Mesh_7_positions","componentType":5126,"count":36,"min":[-9.772729873657227,0.5607439875602722,-2.0119800567626953],"max":[9.78555965423584,4.274230003356934,-0.031094999983906746],"type":"VEC3","bufferView":0,"byteOffset":8700},{"name":"metang-Mesh_7_texcoords","componentType":5126,"count":36,"min":[0.015625,0.01916399970650673],"max":[0.984375,0.9722890257835388],"type":"VEC2","bufferView":1,"byteOffset":5800},{"name":"metang-Mesh_7_indices","componentType":5123,"count":72,"min":[0],"max":[35],"type":"SCALAR","bufferView":2,"byteOffset":3996},{"name":"metang-Mesh_8_positions","componentType":5126,"count":48,"min":[-10.156599998474121,0.44142499566078186,-7.190810203552246],"max":[10.169500350952148,4.393549919128418,-3.2734100818634033],"type":"VEC3","bufferView":0,"byteOffset":9132},{"name":"metang-Mesh_8_texcoords","componentType":5126,"count":48,"min":[0.1188260018825531,0.2099519968032837],"max":[0.8766379952430725,0.8952429890632629],"type":"VEC2","bufferView":1,"byteOffset":6088},{"name":"metang-Mesh_8_indices","componentType":5123,"count":96,"min":[0],"max":[47],"type":"SCALAR","bufferView":2,"byteOffset":4140}],"asset":{"generator":"obj2gltf","version":"2.0"},"buffers":[{"name":"BR_Metang-Shiny01","byteLength":733380,"uri":"data:application/octet-stream;base64,"}],"bufferViews":[{"name":"bufferView_0","buffer":0,"byteLength":9708,"byteOffset":0,"byteStride":12,"target":34962},{"name":"bufferView_1","buffer":0,"byteLength":6472,"byteOffset":9708,"byteStride":8,"target":34962},{"name":"bufferView_2","buffer":0,"byteLength":4332,"byteOffset":16180,"target":34963},{"buffer":0,"byteOffset":20512,"byteLength":4114},{"buffer":0,"byteOffset":24626,"byteLength":16402},{"buffer":0,"byteOffset":41028,"byteLength":262162},{"buffer":0,"byteOffset":303190,"byteLength":32786},{"buffer":0,"byteOffset":335976,"byteLength":262162},{"buffer":0,"byteOffset":598138,"byteLength":32786},{"buffer":0,"byteOffset":630924,"byteLength":81938},{"buffer":0,"byteOffset":712862,"byteLength":16402},{"buffer":0,"byteOffset":729264,"byteLength":4114}],"images":[{"name":"metang_1_0","mimeType":"image/x-tga","bufferView":3},{"name":"metang_1_1","mimeType":"image/x-tga","bufferView":4},{"name":"metang_1_2","mimeType":"image/x-tga","bufferView":5},{"name":"metang_1_3","mimeType":"image/x-tga","bufferView":6},{"name":"metang_1_4","mimeType":"image/x-tga","bufferView":7},{"name":"metang_1_5","mimeType":"image/x-tga","bufferView":8},{"name":"metang_1_6","mimeType":"image/x-tga","bufferView":9},{"name":"metang_1_7","mimeType":"image/x-tga","bufferView":10},{"name":"metang_1_8","mimeType":"image/x-tga","bufferView":11}],"materials":[{"name":"mat_0","pbrMetallicRoughness":{"baseColorTexture":{"index":0},"baseColorFactor":[1,1,1,1],"metallicFactor":0,"roughnessFactor":0.903921569},"emissiveFactor":[0,0,0],"alphaMode":"BLEND","doubleSided":true},{"name":"mat_1","pbrMetallicRoughness":{"baseColorTexture":{"index":1},"baseColorFactor":[1,1,1,1],"metallicFactor":0,"roughnessFactor":0.903921569},"emissiveFactor":[0,0,0],"alphaMode":"BLEND","doubleSided":true},{"name":"mat_2","pbrMetallicRoughness":{"baseColorTexture":{"index":2},"baseColorFactor":[1,1,1,1],"metallicFactor":0,"roughnessFactor":0.903921569},"emissiveFactor":[0,0,0],"alphaMode":"BLEND","doubleSided":true},{"name":"mat_3","pbrMetallicRoughness":{"baseColorTexture":{"index":3},"baseColorFactor":[1,1,1,1],"metallicFactor":0,"roughnessFactor":0.903921569},"emissiveFactor":[0,0,0],"alphaMode":"BLEND","doubleSided":true},{"name":"mat_4","pbrMetallicRoughness":{"baseColorTexture":{"index":4},"baseColorFactor":[1,1,1,1],"metallicFactor":0,"roughnessFactor":0.903921569},"emissiveFactor":[0,0,0],"alphaMode":"BLEND","doubleSided":true},{"name":"mat_5","pbrMetallicRoughness":{"baseColorTexture":{"index":5},"baseColorFactor":[1,1,1,1],"metallicFactor":0,"roughnessFactor":0.903921569},"emissiveFactor":[0,0,0],"alphaMode":"BLEND","doubleSided":true},{"name":"mat_6","pbrMetallicRoughness":{"baseColorTexture":{"index":6},"baseColorFactor":[1,1,1,1],"metallicFactor":0,"roughnessFactor":0.903921569},"emissiveFactor":[0,0,0],"alphaMode":"BLEND","doubleSided":true},{"name":"mat_7","pbrMetallicRoughness":{"baseColorTexture":{"index":7},"baseColorFactor":[1,1,1,1],"metallicFactor":0,"roughnessFactor":0.903921569},"emissiveFactor":[0,0,0],"alphaMode":"BLEND","doubleSided":true},{"name":"mat_8","pbrMetallicRoughness":{"baseColorTexture":{"index":8},"baseColorFactor":[1,1,1,1],"metallicFactor":0,"roughnessFactor":0.903921569},"emissiveFactor":[0,0,0],"alphaMode":"BLEND","doubleSided":true}],"meshes":[{"name":"metang-Mesh","primitives":[{"attributes":{"POSITION":0,"TEXCOORD_0":1},"indices":2,"material":0,"mode":4},{"attributes":{"POSITION":3,"TEXCOORD_0":4},"indices":5,"material":1,"mode":4},{"attributes":{"POSITION":6,"TEXCOORD_0":7},"indices":8,"material":2,"mode":4},{"attributes":{"POSITION":9,"TEXCOORD_0":10},"indices":11,"material":3,"mode":4},{"attributes":{"POSITION":12,"TEXCOORD_0":13},"indices":14,"material":4,"mode":4},{"attributes":{"POSITION":15,"TEXCOORD_0":16},"indices":17,"material":5,"mode":4},{"attributes":{"POSITION":18,"TEXCOORD_0":19},"indices":20,"material":6,"mode":4},{"attributes":{"POSITION":21,"TEXCOORD_0":22},"indices":23,"material":7,"mode":4},{"attributes":{"POSITION":24,"TEXCOORD_0":25},"indices":26,"material":8,"mode":4}]}],"nodes":[{"name":"metang","mesh":0}],"samplers":[{"wrapS":10497,"wrapT":10497}],"scene":0,"scenes":[{"nodes":[0]}],"textures":[{"name":"metang_1_0","sampler":0,"source":0},{"name":"metang_1_1","sampler":0,"source":1},{"name":"metang_1_2","sampler":0,"source":2},{"name":"metang_1_3","sampler":0,"source":3},{"name":"metang_1_4","sampler":0,"source":4},{"name":"metang_1_5","sampler":0,"source":5},{"name":"metang_1_6","sampler":0,"source":6},{"name":"metang_1_7","sampler":0,"source":7},{"name":"metang_1_8","sampler":0,"source":8}]}