{"accessors":[{"name":"polygon0_1_0_positions","componentType":5126,"count":18,"min":[-3.4493350982666016,12.233174324035645,5.69753885269165],"max":[3.4493350982666016,13.185096740722656,6.518142223358154],"type":"VEC3","bufferView":0,"byteOffset":0},{"name":"polygon0_1_0_normals","componentType":5126,"count":18,"min":[-0.5140399932861328,0.2809828817844391,0.45939984917640686],"max":[0.514045774936676,0.8816840052604675,0.9348443746566772],"type":"VEC3","bufferView":1,"byteOffset":0},{"name":"polygon0_1_0_texcoords","componentType":5126,"count":18,"min":[0.007813000120222569,0.0078119998797774315],"max":[0.4960939884185791,0.2382809966802597],"type":"VEC2","bufferView":2,"byteOffset":0},{"name":"polygon0_1_0_indices","componentType":5123,"count":48,"min":[0],"max":[17],"type":"SCALAR","bufferView":3,"byteOffset":0},{"name":"polygon1_1_0_positions","componentType":5126,"count":1670,"min":[-13.463600158691406,-0.2943289875984192,-9.82056999206543],"max":[13.463600158691406,16.49078941345215,9.820569038391113],"type":"VEC3","bufferView":0,"byteOffset":216},{"name":"polygon1_1_0_normals","componentType":5126,"count":1670,"min":[-0.9991090893745422,-1,-0.9954941272735596],"max":[0.9991090893745422,1,0.9994404911994934],"type":"VEC3","bufferView":1,"byteOffset":216},{"name":"polygon1_1_0_texcoords","componentType":5126,"count":1670,"min":[-0.000060999998822808266,0.025696000084280968],"max":[0.9747310280799866,0.9874269962310791],"type":"VEC2","bufferView":2,"byteOffset":144},{"name":"polygon1_1_0_indices","componentType":5123,"count":4365,"min":[0],"max":[1669],"type":"SCALAR","bufferView":3,"byteOffset":96},{"name":"polygon2_1_0_positions","componentType":5126,"count":81,"min":[-7.836750030517578,8.177702903747559,-5.810622215270996],"max":[7.836750030517578,14.483882904052734,7.088089942932129],"type":"VEC3","bufferView":0,"byteOffset":20256},{"name":"polygon2_1_0_normals","componentType":5126,"count":81,"min":[-0.9116382598876953,-0.9999908804893494,-0.9637543559074402],"max":[0.9116382598876953,1,0.9637568593025208],"type":"VEC3","bufferView":1,"byteOffset":20256},{"name":"polygon2_1_0_texcoords","componentType":5126,"count":81,"min":[0.7040709853172302,0.8316959738731384],"max":[0.9815059900283813,0.9889829754829407],"type":"VEC2","bufferView":2,"byteOffset":13504},{"name":"polygon2_1_0_indices","componentType":5123,"count":204,"min":[0],"max":[80],"type":"SCALAR","bufferView":3,"byteOffset":8828}],"asset":{"generator":"obj2gltf","version":"2.0"},"buffers":[{"name":"Metagross","byteLength":360792,"uri":"data:application/octet-stream;base64,"}],"bufferViews":[{"name":"bufferView_0","buffer":0,"byteLength":21228,"byteOffset":0,"byteStride":12,"target":34962},{"name":"bufferView_1","buffer":0,"byteLength":21228,"byteOffset":21228,"byteStride":12,"target":34962},{"name":"bufferView_2","buffer":0,"byteLength":14152,"byteOffset":42456,"byteStride":8,"target":34962},{"name":"bufferView_3","buffer":0,"byteLength":9236,"byteOffset":56608,"target":34963},{"buffer":0,"byteOffset":65844,"byteLength":98322},{"buffer":0,"byteOffset":164166,"byteLength":196626}],"images":[{"name":"MetagrossEyeDh","mimeType":"image/x-tga","bufferView":4},{"name":"MetagrossDh","mimeType":"image/x-tga","bufferView":5}],"materials":[{"name":"mat3","pbrMetallicRoughness":{"baseColorTexture":{"index":0},"baseColorFactor":[1,1,1,1],"metallicFactor":0,"roughnessFactor":0.99},"emissiveFactor":[0,0,0],"alphaMode":"OPAQUE","doubleSided":false},{"name":"mat1","pbrMetallicRoughness":{"baseColorTexture":{"index":1},"baseColorFactor":[1,1,1,1],"metallicFactor":0,"roughnessFactor":0.99},"emissiveFactor":[0,0,0],"alphaMode":"OPAQUE","doubleSided":false},{"name":"mat2","pbrMetallicRoughness":{"baseColorTexture":{"index":1},"baseColorFactor":[1,1,1,1],"metallicFactor":0,"roughnessFactor":0.99},"emissiveFactor":[0,0,0],"alphaMode":"OPAQUE","doubleSided":false}],"meshes":[{"name":"polygon0_1","primitives":[{"attributes":{"POSITION":0,"NORMAL":1,"TEXCOORD_0":2},"indices":3,"material":0,"mode":4}]},{"name":"polygon1_1","primitives":[{"attributes":{"POSITION":4,"NORMAL":5,"TEXCOORD_0":6},"indices":7,"material":1,"mode":4}]},{"name":"polygon2_1","primitives":[{"attributes":{"POSITION":8,"NORMAL":9,"TEXCOORD_0":10},"indices":11,"material":2,"mode":4}]}],"nodes":[{"name":"polygon0","mesh":0},{"name":"polygon1","mesh":1},{"name":"polygon2","mesh":2}],"samplers":[{"wrapS":10497,"wrapT":10497}],"scene":0,"scenes":[{"nodes":[0,1,2]}],"textures":[{"name":"MetagrossEyeDh","sampler":0,"source":0},{"name":"MetagrossDh","sampler":0,"source":1}]}