{"accessors":[{"name":"regice-Mesh_0_positions","componentType":5126,"count":92,"min":[-4.581812858581543,-4.836258888244629,-17.870054244995117],"max":[4.581802845001221,4.836258888244629,-5.099999904632568],"type":"VEC3","bufferView":0,"byteOffset":0},{"name":"regice-Mesh_0_texcoords","componentType":5126,"count":92,"min":[0.43162301182746887,0.6026870012283325],"max":[0.43162301182746887,0.6026870012283325],"type":"VEC2","bufferView":1,"byteOffset":0},{"name":"regice-Mesh_0_indices","componentType":5123,"count":468,"min":[0],"max":[91],"type":"SCALAR","bufferView":2,"byteOffset":0},{"name":"regice-Mesh_1_positions","componentType":5126,"count":798,"min":[-1.704671025276184,2.561574935913086,-14.528255462646484],"max":[1.704671025276184,3.9608631134033203,-12.019323348999023],"type":"VEC3","bufferView":0,"byteOffset":1104},{"name":"regice-Mesh_1_texcoords","componentType":5126,"count":798,"min":[0.29021400213241577,0.3961690068244934],"max":[0.4991590082645416,0.6108599901199341],"type":"VEC2","bufferView":1,"byteOffset":736},{"name":"regice-Mesh_1_indices","componentType":5123,"count":4704,"min":[0],"max":[797],"type":"SCALAR","bufferView":2,"byteOffset":936},{"name":"regice-Mesh_2_positions","componentType":5126,"count":26,"min":[0.38642698526382446,-6.077513217926025,-16.32520866394043],"max":[4.24085807800293,-0.2561349868774414,-11.618075370788574],"type":"VEC3","bufferView":0,"byteOffset":10680},{"name":"regice-Mesh_2_texcoords","componentType":5126,"count":26,"min":[0,1],"max":[0,1],"type":"VEC2","bufferView":1,"byteOffset":7120},{"name":"regice-Mesh_2_indices","componentType":5123,"count":54,"min":[0],"max":[25],"type":"SCALAR","bufferView":2,"byteOffset":10344},{"name":"regice-Mesh_3_positions","componentType":5126,"count":26,"min":[0.7608550190925598,-6.128448009490967,-13.009293556213379],"max":[4.225550174713135,-0.3794670104980469,-9.72233772277832],"type":"VEC3","bufferView":0,"byteOffset":10992},{"name":"regice-Mesh_3_texcoords","componentType":5126,"count":26,"min":[0,1],"max":[0,1],"type":"VEC2","bufferView":1,"byteOffset":7328},{"name":"regice-Mesh_3_indices","componentType":5123,"count":54,"min":[0],"max":[25],"type":"SCALAR","bufferView":2,"byteOffset":10452},{"name":"regice-Mesh_4_positions","componentType":5126,"count":60,"min":[0.05624699965119362,-2.4898300170898438,-5.125],"max":[5.743752956390381,2.4898300170898438,-3.8749990463256836],"type":"VEC3","bufferView":0,"byteOffset":11304},{"name":"regice-Mesh_4_texcoords","componentType":5126,"count":60,"min":[0,0.6026870012283325],"max":[0.43162301182746887,1],"type":"VEC2","bufferView":1,"byteOffset":7536},{"name":"regice-Mesh_4_indices","componentType":5123,"count":216,"min":[0],"max":[59],"type":"SCALAR","bufferView":2,"byteOffset":10560},{"name":"regice-Mesh_5_positions","componentType":5126,"count":26,"min":[-4.563651084899902,-1.8752679824829102,-3.8833301067352295],"max":[4.563651084899902,1.8752679824829102,-0.14791299402713776],"type":"VEC3","bufferView":0,"byteOffset":12024},{"name":"regice-Mesh_5_texcoords","componentType":5126,"count":26,"min":[0.43162301182746887,0.6026870012283325],"max":[0.43162301182746887,0.6026870012283325],"type":"VEC2","bufferView":1,"byteOffset":8016},{"name":"regice-Mesh_5_indices","componentType":5123,"count":72,"min":[0],"max":[25],"type":"SCALAR","bufferView":2,"byteOffset":10992},{"name":"regice-Mesh_6_positions","componentType":5126,"count":62,"min":[3.081878900527954,-2.463304042816162,-13.239331245422363],"max":[9.468222618103027,2.463304042816162,-6.532465934753418],"type":"VEC3","bufferView":0,"byteOffset":12336},{"name":"regice-Mesh_6_texcoords","componentType":5126,"count":62,"min":[0.43162301182746887,0.6026870012283325],"max":[0.43162301182746887,0.6026870012283325],"type":"VEC2","bufferView":1,"byteOffset":8224},{"name":"regice-Mesh_6_indices","componentType":5123,"count":360,"min":[0],"max":[61],"type":"SCALAR","bufferView":2,"byteOffset":11136},{"name":"regice-Mesh_7_positions","componentType":5126,"count":26,"min":[6.934464931488037,0.30425599217414856,-8.748259544372559],"max":[8.945651054382324,1.8637410402297974,-5.175135135650635],"type":"VEC3","bufferView":0,"byteOffset":13080},{"name":"regice-Mesh_7_texcoords","componentType":5126,"count":26,"min":[0,1],"max":[0,1],"type":"VEC2","bufferView":1,"byteOffset":8720},{"name":"regice-Mesh_7_indices","componentType":5123,"count":72,"min":[0],"max":[25],"type":"SCALAR","bufferView":2,"byteOffset":11856},{"name":"regice-Mesh_8_positions","componentType":5126,"count":26,"min":[6.630857944488525,-1.6611820459365845,-8.696952819824219],"max":[8.946981430053711,-0.17050300538539886,-4.701128005981445],"type":"VEC3","bufferView":0,"byteOffset":13392},{"name":"regice-Mesh_8_texcoords","componentType":5126,"count":26,"min":[0,1],"max":[0,1],"type":"VEC2","bufferView":1,"byteOffset":8928},{"name":"regice-Mesh_8_indices","componentType":5123,"count":72,"min":[0],"max":[25],"type":"SCALAR","bufferView":2,"byteOffset":12000},{"name":"regice-Mesh_9_positions","componentType":5126,"count":30,"min":[-4.585102081298828,-5.807748794555664,-16.24312400817871],"max":[-0.1365250051021576,-0.09783100336790085,-11.552804946899414],"type":"VEC3","bufferView":0,"byteOffset":13704},{"name":"regice-Mesh_9_texcoords","componentType":5126,"count":30,"min":[0,1],"max":[0,1],"type":"VEC2","bufferView":1,"byteOffset":9136},{"name":"regice-Mesh_9_indices","componentType":5123,"count":54,"min":[0],"max":[29],"type":"SCALAR","bufferView":2,"byteOffset":12144},{"name":"regice-Mesh_10_positions","componentType":5126,"count":30,"min":[-4.635526180267334,-6.981001853942871,-13.028579711914062],"max":[-1.0506099462509155,-0.9313700199127197,-10.010397911071777],"type":"VEC3","bufferView":0,"byteOffset":14064},{"name":"regice-Mesh_10_texcoords","componentType":5126,"count":30,"min":[0,1],"max":[0,1],"type":"VEC2","bufferView":1,"byteOffset":9376},{"name":"regice-Mesh_10_indices","componentType":5123,"count":54,"min":[0],"max":[29],"type":"SCALAR","bufferView":2,"byteOffset":12252},{"name":"regice-Mesh_11_positions","componentType":5126,"count":62,"min":[-5.743752956390381,-2.4898200035095215,-5.125],"max":[-0.05624699965119362,2.489820957183838,-3.875],"type":"VEC3","bufferView":0,"byteOffset":14424},{"name":"regice-Mesh_11_texcoords","componentType":5126,"count":62,"min":[0,0.6026870012283325],"max":[0.43162301182746887,1],"type":"VEC2","bufferView":1,"byteOffset":9616},{"name":"regice-Mesh_11_indices","componentType":5123,"count":216,"min":[0],"max":[61],"type":"SCALAR","bufferView":2,"byteOffset":12360},{"name":"regice-Mesh_12_positions","componentType":5126,"count":62,"min":[-9.467521667480469,-2.4647738933563232,-13.239319801330566],"max":[-3.0822620391845703,2.4647700786590576,-6.5325188636779785],"type":"VEC3","bufferView":0,"byteOffset":15168},{"name":"regice-Mesh_12_texcoords","componentType":5126,"count":62,"min":[0.43162301182746887,0.6026870012283325],"max":[0.43162301182746887,0.6026870012283325],"type":"VEC2","bufferView":1,"byteOffset":10112},{"name":"regice-Mesh_12_indices","componentType":5123,"count":360,"min":[0],"max":[61],"type":"SCALAR","bufferView":2,"byteOffset":12792},{"name":"regice-Mesh_13_positions","componentType":5126,"count":24,"min":[-9.492988586425781,0.317782998085022,-8.741046905517578],"max":[-6.88306188583374,1.9275840520858765,-5.723803997039795],"type":"VEC3","bufferView":0,"byteOffset":15912},{"name":"regice-Mesh_13_texcoords","componentType":5126,"count":24,"min":[0,1],"max":[0,1],"type":"VEC2","bufferView":1,"byteOffset":10608},{"name":"regice-Mesh_13_indices","componentType":5123,"count":72,"min":[0],"max":[23],"type":"SCALAR","bufferView":2,"byteOffset":13512},{"name":"regice-Mesh_14_positions","componentType":5126,"count":36,"min":[-11.657526016235352,-0.8043990135192871,-9.461496353149414],"max":[-7.536101818084717,0.4665600061416626,-7.305744171142578],"type":"VEC3","bufferView":0,"byteOffset":16200},{"name":"regice-Mesh_14_texcoords","componentType":5126,"count":36,"min":[0,1],"max":[0,1],"type":"VEC2","bufferView":1,"byteOffset":10800},{"name":"regice-Mesh_14_indices","componentType":5123,"count":72,"min":[0],"max":[35],"type":"SCALAR","bufferView":2,"byteOffset":13656}],"asset":{"generator":"obj2gltf","version":"2.0"},"buffers":[{"name":"BR_Regice-Shiny01","byteLength":111188,"uri":"data:application/octet-stream;base64,"}],"bufferViews":[{"name":"bufferView_0","buffer":0,"byteLength":16632,"byteOffset":0,"byteStride":12,"target":34962},{"name":"bufferView_1","buffer":0,"byteLength":11088,"byteOffset":16632,"byteStride":8,"target":34962},{"name":"bufferView_2","buffer":0,"byteLength":13800,"byteOffset":27720,"target":34963},{"buffer":0,"byteOffset":41520,"byteLength":4114},{"buffer":0,"byteOffset":45634,"byteLength":65554}],"images":[{"name":"regice_1_0","mimeType":"image/x-tga","bufferView":3},{"name":"regice_1_1","mimeType":"image/x-tga","bufferView":4}],"materials":[{"name":"mat_1","pbrMetallicRoughness":{"baseColorTexture":{"index":0},"baseColorFactor":[1,1,1,1],"metallicFactor":0,"roughnessFactor":0.903921569},"emissiveFactor":[0,0,0],"alphaMode":"BLEND","doubleSided":true},{"name":"mat_2","pbrMetallicRoughness":{"baseColorTexture":{"index":1},"baseColorFactor":[1,1,1,1],"metallicFactor":0,"roughnessFactor":0.903921569},"emissiveFactor":[0,0,0],"alphaMode":"BLEND","doubleSided":true},{"name":"mat_3","pbrMetallicRoughness":{"baseColorTexture":{"index":0},"baseColorFactor":[1,1,1,1],"metallicFactor":0,"roughnessFactor":0.903921569},"emissiveFactor":[0,0,0],"alphaMode":"BLEND","doubleSided":true},{"name":"mat_4","pbrMetallicRoughness":{"baseColorTexture":{"index":0},"baseColorFactor":[1,1,1,1],"metallicFactor":0,"roughnessFactor":0.903921569},"emissiveFactor":[0,0,0],"alphaMode":"BLEND","doubleSided":true},{"name":"mat_5","pbrMetallicRoughness":{"baseColorTexture":{"index":0},"baseColorFactor":[1,1,1,1],"metallicFactor":0,"roughnessFactor":0.903921569},"emissiveFactor":[0,0,0],"alphaMode":"BLEND","doubleSided":true},{"name":"mat_6","pbrMetallicRoughness":{"baseColorTexture":{"index":0},"baseColorFactor":[1,1,1,1],"metallicFactor":0,"roughnessFactor":0.903921569},"emissiveFactor":[0,0,0],"alphaMode":"BLEND","doubleSided":true},{"name":"mat_7","pbrMetallicRoughness":{"baseColorTexture":{"index":0},"baseColorFactor":[1,1,1,1],"metallicFactor":0,"roughnessFactor":0.903921569},"emissiveFactor":[0,0,0],"alphaMode":"BLEND","doubleSided":true},{"name":"mat_8","pbrMetallicRoughness":{"baseColorTexture":{"index":0},"baseColorFactor":[1,1,1,1],"metallicFactor":0,"roughnessFactor":0.903921569},"emissiveFactor":[0,0,0],"alphaMode":"BLEND","doubleSided":true},{"name":"mat_9","pbrMetallicRoughness":{"baseColorTexture":{"index":0},"baseColorFactor":[1,1,1,1],"metallicFactor":0,"roughnessFactor":0.903921569},"emissiveFactor":[0,0,0],"alphaMode":"BLEND","doubleSided":true},{"name":"mat_10","pbrMetallicRoughness":{"baseColorTexture":{"index":0},"baseColorFactor":[1,1,1,1],"metallicFactor":0,"roughnessFactor":0.903921569},"emissiveFactor":[0,0,0],"alphaMode":"BLEND","doubleSided":true},{"name":"mat_11","pbrMetallicRoughness":{"baseColorTexture":{"index":0},"baseColorFactor":[1,1,1,1],"metallicFactor":0,"roughnessFactor":0.903921569},"emissiveFactor":[0,0,0],"alphaMode":"BLEND","doubleSided":true},{"name":"mat_12","pbrMetallicRoughness":{"baseColorTexture":{"index":0},"baseColorFactor":[1,1,1,1],"metallicFactor":0,"roughnessFactor":0.903921569},"emissiveFactor":[0,0,0],"alphaMode":"BLEND","doubleSided":true},{"name":"mat_13","pbrMetallicRoughness":{"baseColorTexture":{"index":0},"baseColorFactor":[1,1,1,1],"metallicFactor":0,"roughnessFactor":0.903921569},"emissiveFactor":[0,0,0],"alphaMode":"BLEND","doubleSided":true},{"name":"mat_14","pbrMetallicRoughness":{"baseColorTexture":{"index":0},"baseColorFactor":[1,1,1,1],"metallicFactor":0,"roughnessFactor":0.903921569},"emissiveFactor":[0,0,0],"alphaMode":"BLEND","doubleSided":true},{"name":"mat_14_NONE","pbrMetallicRoughness":{"baseColorTexture":{"index":0},"baseColorFactor":[1,1,1,1],"metallicFactor":0,"roughnessFactor":0.903921569},"emissiveFactor":[0,0,0],"alphaMode":"BLEND","doubleSided":true}],"meshes":[{"name":"regice-Mesh","primitives":[{"attributes":{"POSITION":0,"TEXCOORD_0":1},"indices":2,"material":0,"mode":4},{"attributes":{"POSITION":3,"TEXCOORD_0":4},"indices":5,"material":1,"mode":4},{"attributes":{"POSITION":6,"TEXCOORD_0":7},"indices":8,"material":2,"mode":4},{"attributes":{"POSITION":9,"TEXCOORD_0":10},"indices":11,"material":3,"mode":4},{"attributes":{"POSITION":12,"TEXCOORD_0":13},"indices":14,"material":4,"mode":4},{"attributes":{"POSITION":15,"TEXCOORD_0":16},"indices":17,"material":5,"mode":4},{"attributes":{"POSITION":18,"TEXCOORD_0":19},"indices":20,"material":6,"mode":4},{"attributes":{"POSITION":21,"TEXCOORD_0":22},"indices":23,"material":7,"mode":4},{"attributes":{"POSITION":24,"TEXCOORD_0":25},"indices":26,"material":8,"mode":4},{"attributes":{"POSITION":27,"TEXCOORD_0":28},"indices":29,"material":9,"mode":4},{"attributes":{"POSITION":30,"TEXCOORD_0":31},"indices":32,"material":10,"mode":4},{"attributes":{"POSITION":33,"TEXCOORD_0":34},"indices":35,"material":11,"mode":4},{"attributes":{"POSITION":36,"TEXCOORD_0":37},"indices":38,"material":12,"mode":4},{"attributes":{"POSITION":39,"TEXCOORD_0":40},"indices":41,"material":13,"mode":4},{"attributes":{"POSITION":42,"TEXCOORD_0":43},"indices":44,"material":14,"mode":4}]}],"nodes":[{"name":"regice","mesh":0}],"samplers":[{"wrapS":10497,"wrapT":10497}],"scene":0,"scenes":[{"nodes":[0]}],"textures":[{"name":"regice_1_0","sampler":0,"source":0},{"name":"regice_1_1","sampler":0,"source":1}]}