{"accessors":[{"name":"registeel-Mesh_0_positions","componentType":5126,"count":357,"min":[-1.9823930263519287,4.762691020965576,-14.592462539672852],"max":[1.9823930263519287,5.405477046966553,-11.33410930633545],"type":"VEC3","bufferView":0,"byteOffset":0},{"name":"registeel-Mesh_0_texcoords","componentType":5126,"count":357,"min":[0,0.011265999637544155],"max":[1,0.3053629994392395],"type":"VEC2","bufferView":1,"byteOffset":0},{"name":"registeel-Mesh_0_indices","componentType":5123,"count":1260,"min":[0],"max":[356],"type":"SCALAR","bufferView":2,"byteOffset":0},{"name":"registeel-Mesh_1_positions","componentType":5126,"count":272,"min":[-8.920360565185547,-2.2974319458007812,-18.968399047851562],"max":[8.920392036437988,5.445169925689697,-7.686540126800537],"type":"VEC3","bufferView":0,"byteOffset":4284},{"name":"registeel-Mesh_1_texcoords","componentType":5126,"count":272,"min":[0,0],"max":[1,1],"type":"VEC2","bufferView":1,"byteOffset":2856},{"name":"registeel-Mesh_1_indices","componentType":5123,"count":1422,"min":[0],"max":[271],"type":"SCALAR","bufferView":2,"byteOffset":2520},{"name":"registeel-Mesh_2_positions","componentType":5126,"count":58,"min":[-5.995450019836426,-6.1559600830078125,-18.968399047851562],"max":[5.995450019836426,0.011583000421524048,-7.686540126800537],"type":"VEC3","bufferView":0,"byteOffset":7548},{"name":"registeel-Mesh_2_texcoords","componentType":5126,"count":58,"min":[0.0044200001284480095,0.012388000264763832],"max":[0.9955800175666809,0.9875119924545288],"type":"VEC2","bufferView":1,"byteOffset":5032},{"name":"registeel-Mesh_2_indices","componentType":5123,"count":228,"min":[0],"max":[57],"type":"SCALAR","bufferView":2,"byteOffset":5364},{"name":"registeel-Mesh_3_positions","componentType":5126,"count":58,"min":[-2.198580026626587,-5.651179790496826,-18.49920082092285],"max":[2.198580026626587,5.328269958496094,-5.867609977722168],"type":"VEC3","bufferView":0,"byteOffset":8244},{"name":"registeel-Mesh_3_texcoords","componentType":5126,"count":58,"min":[0.027456000447273254,0.035944998264312744],"max":[0.971900999546051,0.9767540097236633],"type":"VEC2","bufferView":1,"byteOffset":5496},{"name":"registeel-Mesh_3_indices","componentType":5123,"count":207,"min":[0],"max":[57],"type":"SCALAR","bufferView":2,"byteOffset":5820},{"name":"registeel-Mesh_4_positions","componentType":5126,"count":93,"min":[-4.9423699378967285,-3.711819887161255,-7.686540126800537],"max":[4.9423699378967285,3.711819887161255,-4.50137996673584],"type":"VEC3","bufferView":0,"byteOffset":8940},{"name":"registeel-Mesh_4_texcoords","componentType":5126,"count":93,"min":[0.020569000393152237,0.03068399988114834],"max":[0.9779869914054871,0.9705470204353333],"type":"VEC2","bufferView":1,"byteOffset":5960},{"name":"registeel-Mesh_4_indices","componentType":5123,"count":303,"min":[0],"max":[92],"type":"SCALAR","bufferView":2,"byteOffset":6236},{"name":"registeel-Mesh_5_positions","componentType":5126,"count":95,"min":[-2.5474600791931152,-6.1559600830078125,-18.968399047851562],"max":[2.5474600791931152,5.445169925689697,-5.867609977722168],"type":"VEC3","bufferView":0,"byteOffset":10056},{"name":"registeel-Mesh_5_texcoords","componentType":5126,"count":95,"min":[0.07472600042819977,0.17451299726963043],"max":[0.9497259855270386,0.9502879977226257],"type":"VEC2","bufferView":1,"byteOffset":6704},{"name":"registeel-Mesh_5_indices","componentType":5123,"count":270,"min":[0],"max":[94],"type":"SCALAR","bufferView":2,"byteOffset":6844},{"name":"registeel-Mesh_6_positions","componentType":5126,"count":74,"min":[-8.136070251464844,-0.8625370264053345,-11.209500312805176],"max":[8.136070251464844,0.8625370264053345,-1.6352499723434448],"type":"VEC3","bufferView":0,"byteOffset":11196},{"name":"registeel-Mesh_6_texcoords","componentType":5126,"count":74,"min":[0.04717399924993515,0.07374200224876404],"max":[0.9553719758987427,0.9856389760971069],"type":"VEC2","bufferView":1,"byteOffset":7464},{"name":"registeel-Mesh_6_indices","componentType":5123,"count":384,"min":[0],"max":[73],"type":"SCALAR","bufferView":2,"byteOffset":7384},{"name":"registeel-Mesh_7_positions","componentType":5126,"count":8,"min":[-7.974339962005615,0.7236049771308899,-5.479599952697754],"max":[7.974339962005615,0.8625370264053345,-1.9591100215911865],"type":"VEC3","bufferView":0,"byteOffset":12084},{"name":"registeel-Mesh_7_texcoords","componentType":5126,"count":8,"min":[0.006912999786436558,0.03056200034916401],"max":[0.993332028388977,0.9559569954872131],"type":"VEC2","bufferView":1,"byteOffset":8056},{"name":"registeel-Mesh_7_indices","componentType":5123,"count":12,"min":[0],"max":[7],"type":"SCALAR","bufferView":2,"byteOffset":8152},{"name":"registeel-Mesh_8_positions","componentType":5126,"count":946,"min":[-7.956980228424072,-2.679759979248047,-4.5014801025390625],"max":[7.949615001678467,2.679759979248047,0.705265998840332],"type":"VEC3","bufferView":0,"byteOffset":12180},{"name":"registeel-Mesh_8_texcoords","componentType":5126,"count":946,"min":[0.021782999858260155,0.024427000433206558],"max":[0.9765629768371582,1],"type":"VEC2","bufferView":1,"byteOffset":8120},{"name":"registeel-Mesh_8_indices","componentType":5123,"count":3894,"min":[0],"max":[945],"type":"SCALAR","bufferView":2,"byteOffset":8176},{"name":"registeel-Mesh_9_positions","componentType":5126,"count":56,"min":[-3.206589937210083,-1.1371899843215942,-3.631779909133911],"max":[3.206589937210083,1.1348299980163574,-2.078350067138672],"type":"VEC3","bufferView":0,"byteOffset":23532},{"name":"registeel-Mesh_9_texcoords","componentType":5126,"count":56,"min":[0.049268998205661774,0.06658700108528137],"max":[0.9242690205574036,0.9415860176086426],"type":"VEC2","bufferView":1,"byteOffset":15688},{"name":"registeel-Mesh_9_indices","componentType":5123,"count":180,"min":[0],"max":[55],"type":"SCALAR","bufferView":2,"byteOffset":15964}],"asset":{"generator":"obj2gltf","version":"2.0"},"buffers":[{"name":"BR_Registeel-Shiny01","byteLength":175796,"uri":"data:application/octet-stream;base64,"}],"bufferViews":[{"name":"bufferView_0","buffer":0,"byteLength":24204,"byteOffset":0,"byteStride":12,"target":34962},{"name":"bufferView_1","buffer":0,"byteLength":16136,"byteOffset":24204,"byteStride":8,"target":34962},{"name":"bufferView_2","buffer":0,"byteLength":16324,"byteOffset":40340,"target":34963},{"buffer":0,"byteOffset":56664,"byteLength":4114},{"buffer":0,"byteOffset":60778,"byteLength":16402},{"buffer":0,"byteOffset":77180,"byteLength":32786},{"buffer":0,"byteOffset":109966,"byteLength":274},{"buffer":0,"byteOffset":110240,"byteLength":65554}],"images":[{"name":"registeel_1_0","mimeType":"image/x-tga","bufferView":3},{"name":"registeel_1_2","mimeType":"image/x-tga","bufferView":4},{"name":"registeel_1_6","mimeType":"image/x-tga","bufferView":5},{"name":"registeel_1_8","mimeType":"image/x-tga","bufferView":6},{"name":"registeel_1_10","mimeType":"image/x-tga","bufferView":7}],"materials":[{"name":"mat_0","pbrMetallicRoughness":{"baseColorTexture":{"index":0},"baseColorFactor":[1,1,1,1],"metallicFactor":0,"roughnessFactor":0.903921569},"emissiveFactor":[0,0,0],"alphaMode":"BLEND","doubleSided":true},{"name":"mat_1","pbrMetallicRoughness":{"baseColorTexture":{"index":1},"baseColorFactor":[1,1,1,1],"metallicFactor":0,"roughnessFactor":0.903921569},"emissiveFactor":[0,0,0],"alphaMode":"BLEND","doubleSided":true},{"name":"mat_2","pbrMetallicRoughness":{"baseColorTexture":{"index":1},"baseColorFactor":[1,1,1,1],"metallicFactor":0,"roughnessFactor":0.903921569},"emissiveFactor":[0,0,0],"alphaMode":"BLEND","doubleSided":true},{"name":"mat_3","pbrMetallicRoughness":{"baseColorTexture":{"index":2},"baseColorFactor":[1,1,1,1],"metallicFactor":0,"roughnessFactor":0.903921569},"emissiveFactor":[0,0,0],"alphaMode":"BLEND","doubleSided":true},{"name":"mat_4","pbrMetallicRoughness":{"baseColorTexture":{"index":1},"baseColorFactor":[1,1,1,1],"metallicFactor":0,"roughnessFactor":0.903921569},"emissiveFactor":[0,0,0],"alphaMode":"BLEND","doubleSided":true},{"name":"mat_5","pbrMetallicRoughness":{"baseColorTexture":{"index":3},"baseColorFactor":[1,1,1,1],"metallicFactor":0,"roughnessFactor":0.903921569},"emissiveFactor":[0,0,0],"alphaMode":"BLEND","doubleSided":true},{"name":"mat_6","pbrMetallicRoughness":{"baseColorTexture":{"index":2},"baseColorFactor":[1,1,1,1],"metallicFactor":0,"roughnessFactor":0.903921569},"emissiveFactor":[0,0,0],"alphaMode":"BLEND","doubleSided":true},{"name":"mat_7","pbrMetallicRoughness":{"baseColorTexture":{"index":4},"baseColorFactor":[1,1,1,1],"metallicFactor":0,"roughnessFactor":0.903921569},"emissiveFactor":[0,0,0],"alphaMode":"BLEND","doubleSided":true},{"name":"mat_8","pbrMetallicRoughness":{"baseColorTexture":{"index":1},"baseColorFactor":[1,1,1,1],"metallicFactor":0,"roughnessFactor":0.903921569},"emissiveFactor":[0,0,0],"alphaMode":"BLEND","doubleSided":true},{"name":"mat_9","pbrMetallicRoughness":{"baseColorTexture":{"index":3},"baseColorFactor":[1,1,1,1],"metallicFactor":0,"roughnessFactor":0.903921569},"emissiveFactor":[0,0,0],"alphaMode":"BLEND","doubleSided":true}],"meshes":[{"name":"registeel-Mesh","primitives":[{"attributes":{"POSITION":0,"TEXCOORD_0":1},"indices":2,"material":0,"mode":4},{"attributes":{"POSITION":3,"TEXCOORD_0":4},"indices":5,"material":1,"mode":4},{"attributes":{"POSITION":6,"TEXCOORD_0":7},"indices":8,"material":2,"mode":4},{"attributes":{"POSITION":9,"TEXCOORD_0":10},"indices":11,"material":3,"mode":4},{"attributes":{"POSITION":12,"TEXCOORD_0":13},"indices":14,"material":4,"mode":4},{"attributes":{"POSITION":15,"TEXCOORD_0":16},"indices":17,"material":5,"mode":4},{"attributes":{"POSITION":18,"TEXCOORD_0":19},"indices":20,"material":6,"mode":4},{"attributes":{"POSITION":21,"TEXCOORD_0":22},"indices":23,"material":7,"mode":4},{"attributes":{"POSITION":24,"TEXCOORD_0":25},"indices":26,"material":8,"mode":4},{"attributes":{"POSITION":27,"TEXCOORD_0":28},"indices":29,"material":9,"mode":4}]}],"nodes":[{"name":"registeel","mesh":0}],"samplers":[{"wrapS":10497,"wrapT":10497}],"scene":0,"scenes":[{"nodes":[0]}],"textures":[{"name":"registeel_1_0","sampler":0,"source":0},{"name":"registeel_1_2","sampler":0,"source":1},{"name":"registeel_1_6","sampler":0,"source":2},{"name":"registeel_1_8","sampler":0,"source":3},{"name":"registeel_1_10","sampler":0,"source":4}]}