{"accessors":[{"name":"Latias_1_0_positions","componentType":5126,"count":168,"min":[-7.693473815917969,54.22600555419922,68.6104965209961],"max":[7.693486213684082,56.78450393676758,81.45602416992188],"type":"VEC3","bufferView":0,"byteOffset":0},{"name":"Latias_1_0_normals","componentType":5126,"count":168,"min":[-0.1739060878753662,-0.9998822212219238,0.015346003696322441],"max":[0.592384934425354,-0.7476490139961243,0.3558570146560669],"type":"VEC3","bufferView":1,"byteOffset":0},{"name":"Latias_1_0_texcoords","componentType":5126,"count":168,"min":[0.10352499783039093,-1.9921900033950806],"max":[0.396479994058609,-1.7604199647903442],"type":"VEC2","bufferView":2,"byteOffset":0},{"name":"Latias_1_0_indices","componentType":5123,"count":168,"min":[0],"max":[167],"type":"SCALAR","bufferView":3,"byteOffset":0},{"name":"Latias_1_1_positions","componentType":5126,"count":14742,"min":[-56.99909591674805,36.05097961425781,-49.45447540283203],"max":[56.99910354614258,111.74600219726562,82.1529312133789],"type":"VEC3","bufferView":0,"byteOffset":2016},{"name":"Latias_1_1_normals","componentType":5126,"count":14742,"min":[-0.9984426498413086,-0.9999918341636658,-0.9925661087036133],"max":[0.998429536819458,0.999981701374054,0.9925573468208313],"type":"VEC3","bufferView":1,"byteOffset":2016},{"name":"Latias_1_1_texcoords","componentType":5126,"count":14742,"min":[0,0.009583000093698502],"max":[1,0.9921870231628418],"type":"VEC2","bufferView":2,"byteOffset":1344},{"name":"Latias_1_1_indices","componentType":5123,"count":14742,"min":[0],"max":[14741],"type":"SCALAR","bufferView":3,"byteOffset":336},{"name":"Latias_1_2_positions","componentType":5126,"count":186,"min":[-9.961004257202148,55.4598388671875,67.99295806884766],"max":[9.961015701293945,66.3290023803711,79.51654815673828],"type":"VEC3","bufferView":0,"byteOffset":178920},{"name":"Latias_1_2_normals","componentType":5126,"count":186,"min":[-0.6563130021095276,-0.998867928981781,-0.9925661087036133],"max":[0.8406926989555359,0.9925476908683777,0.9925569891929626],"type":"VEC3","bufferView":1,"byteOffset":178920},{"name":"Latias_1_2_texcoords","componentType":5126,"count":186,"min":[0.009638000279664993,-0.981249988079071],"max":[0.49035999178886414,-0.7631099820137024],"type":"VEC2","bufferView":2,"byteOffset":119280},{"name":"Latias_1_2_indices","componentType":5123,"count":186,"min":[0],"max":[185],"type":"SCALAR","bufferView":3,"byteOffset":29820}],"asset":{"generator":"obj2gltf","version":"2.0"},"buffers":[{"name":"XY_Latias","byteLength":614604,"uri":"data:application/octet-stream;base64,"}],"bufferViews":[{"name":"bufferView_0","buffer":0,"byteLength":181152,"byteOffset":0,"byteStride":12,"target":34962},{"name":"bufferView_1","buffer":0,"byteLength":181152,"byteOffset":181152,"byteStride":12,"target":34962},{"name":"bufferView_2","buffer":0,"byteLength":120768,"byteOffset":362304,"byteStride":8,"target":34962},{"name":"bufferView_3","buffer":0,"byteLength":30192,"byteOffset":483072,"target":34963},{"buffer":0,"byteOffset":513264,"byteLength":10628},{"buffer":0,"byteOffset":523892,"byteLength":49249},{"buffer":0,"byteOffset":573141,"byteLength":41461}],"images":[{"name":"pm0380_00_Mouth1","mimeType":"image/png","bufferView":4},{"name":"pm0380_00_Body1","mimeType":"image/png","bufferView":5},{"name":"pm0380_00_Eye1","mimeType":"image/png","bufferView":6}],"materials":[{"name":"Material__10","pbrMetallicRoughness":{"baseColorTexture":{"index":0},"baseColorFactor":[1,1,1,1],"metallicFactor":0,"roughnessFactor":0.998},"emissiveFactor":[0,0,0],"alphaMode":"OPAQUE","doubleSided":false},{"name":"Material__11","pbrMetallicRoughness":{"baseColorTexture":{"index":1},"baseColorFactor":[1,1,1,1],"metallicFactor":0,"roughnessFactor":0.998},"emissiveFactor":[0,0,0],"alphaMode":"OPAQUE","doubleSided":false},{"name":"Material__13","pbrMetallicRoughness":{"baseColorTexture":{"index":2},"baseColorFactor":[1,1,1,1],"metallicFactor":0,"roughnessFactor":0.998},"emissiveFactor":[0,0,0],"alphaMode":"OPAQUE","doubleSided":false}],"meshes":[{"name":"Latias_1","primitives":[{"attributes":{"POSITION":0,"NORMAL":1,"TEXCOORD_0":2},"indices":3,"material":0,"mode":4},{"attributes":{"POSITION":4,"NORMAL":5,"TEXCOORD_0":6},"indices":7,"material":1,"mode":4},{"attributes":{"POSITION":8,"NORMAL":9,"TEXCOORD_0":10},"indices":11,"material":2,"mode":4}]}],"nodes":[{"name":"Latias","mesh":0}],"samplers":[{"wrapS":10497,"wrapT":10497}],"scene":0,"scenes":[{"nodes":[0]}],"textures":[{"name":"pm0380_00_Mouth1","sampler":0,"source":0},{"name":"pm0380_00_Body1","sampler":0,"source":1},{"name":"pm0380_00_Eye1","sampler":0,"source":2}]}