{"accessors":[{"name":"polygon0_1_0_positions","componentType":5126,"count":984,"min":[-5.687265872955322,3.9913909435272217,-4.90822696685791],"max":[5.687264919281006,11.584001541137695,8.366095542907715],"type":"VEC3","bufferView":0,"byteOffset":0},{"name":"polygon0_1_0_normals","componentType":5126,"count":984,"min":[-1,-1,-0.9995337724685669],"max":[1,1,0.9991481304168701],"type":"VEC3","bufferView":1,"byteOffset":0},{"name":"polygon0_1_0_texcoords","componentType":5126,"count":984,"min":[0.010254000313580036,0.014403999783098698],"max":[0.9961850047111511,0.9908750057220459],"type":"VEC2","bufferView":2,"byteOffset":0},{"name":"polygon0_1_0_indices","componentType":5123,"count":4770,"min":[0],"max":[983],"type":"SCALAR","bufferView":3,"byteOffset":0},{"name":"polygon1_1_0_positions","componentType":5126,"count":12,"min":[-0.8960509896278381,5.260409832000732,7.188501834869385],"max":[0.8960509896278381,5.888996124267578,7.87578010559082],"type":"VEC3","bufferView":0,"byteOffset":11808},{"name":"polygon1_1_0_normals","componentType":5126,"count":12,"min":[-0.9560628533363342,-0.48418378829956055,0.10851895064115524],"max":[0.9560628533363342,0.19769401848316193,0.5457790493965149],"type":"VEC3","bufferView":1,"byteOffset":11808},{"name":"polygon1_1_0_texcoords","componentType":5126,"count":12,"min":[0.011718999594449997,0.027343999594449997],"max":[0.4882810115814209,0.2304690033197403],"type":"VEC2","bufferView":2,"byteOffset":7872},{"name":"polygon1_1_0_indices","componentType":5123,"count":24,"min":[0],"max":[11],"type":"SCALAR","bufferView":3,"byteOffset":9540},{"name":"polygon2_1_0_positions","componentType":5126,"count":7,"min":[-0.36145201325416565,4.898861885070801,6.8893351554870605],"max":[0.36145201325416565,4.995481967926025,7.797054767608643],"type":"VEC3","bufferView":0,"byteOffset":11952},{"name":"polygon2_1_0_normals","componentType":5126,"count":7,"min":[-0.28478798270225525,-0.9992883205413818,-0.17010396718978882],"max":[0.28478798270225525,-0.9533628225326538,-0.03772101178765297],"type":"VEC3","bufferView":1,"byteOffset":11952},{"name":"polygon2_1_0_texcoords","componentType":5126,"count":7,"min":[0.17858900129795074,0.004668999928981066],"max":[0.9173579812049866,0.24337799847126007],"type":"VEC2","bufferView":2,"byteOffset":7968},{"name":"polygon2_1_0_indices","componentType":5123,"count":18,"min":[0],"max":[6],"type":"SCALAR","bufferView":3,"byteOffset":9588}],"asset":{"generator":"obj2gltf","version":"2.0"},"buffers":[{"name":"Latias","byteLength":385840,"uri":"data:application/octet-stream;base64,"}],"bufferViews":[{"name":"bufferView_0","buffer":0,"byteLength":12036,"byteOffset":0,"byteStride":12,"target":34962},{"name":"bufferView_1","buffer":0,"byteLength":12036,"byteOffset":12036,"byteStride":12,"target":34962},{"name":"bufferView_2","buffer":0,"byteLength":8024,"byteOffset":24072,"byteStride":8,"target":34962},{"name":"bufferView_3","buffer":0,"byteLength":9624,"byteOffset":32096,"target":34963},{"buffer":0,"byteOffset":41720,"byteLength":196626},{"buffer":0,"byteOffset":238346,"byteLength":98322},{"buffer":0,"byteOffset":336668,"byteLength":49170}],"images":[{"name":"LatiasDh","mimeType":"image/x-tga","bufferView":4},{"name":"LatiasEyeDh","mimeType":"image/x-tga","bufferView":5},{"name":"LatiasMouthDh","mimeType":"image/x-tga","bufferView":6}],"materials":[{"name":"mat1","pbrMetallicRoughness":{"baseColorTexture":{"index":0},"baseColorFactor":[1,1,1,1],"metallicFactor":0,"roughnessFactor":0.99},"emissiveFactor":[0,0,0],"alphaMode":"OPAQUE","doubleSided":false},{"name":"mat2","pbrMetallicRoughness":{"baseColorTexture":{"index":1},"baseColorFactor":[1,1,1,1],"metallicFactor":0,"roughnessFactor":0.99},"emissiveFactor":[0,0,0],"alphaMode":"OPAQUE","doubleSided":false},{"name":"mat3","pbrMetallicRoughness":{"baseColorTexture":{"index":2},"baseColorFactor":[1,1,1,1],"metallicFactor":0,"roughnessFactor":0.99},"emissiveFactor":[0,0,0],"alphaMode":"OPAQUE","doubleSided":false}],"meshes":[{"name":"polygon0_1","primitives":[{"attributes":{"POSITION":0,"NORMAL":1,"TEXCOORD_0":2},"indices":3,"material":0,"mode":4}]},{"name":"polygon1_1","primitives":[{"attributes":{"POSITION":4,"NORMAL":5,"TEXCOORD_0":6},"indices":7,"material":1,"mode":4}]},{"name":"polygon2_1","primitives":[{"attributes":{"POSITION":8,"NORMAL":9,"TEXCOORD_0":10},"indices":11,"material":2,"mode":4}]}],"nodes":[{"name":"polygon0","mesh":0},{"name":"polygon1","mesh":1},{"name":"polygon2","mesh":2}],"samplers":[{"wrapS":10497,"wrapT":10497}],"scene":0,"scenes":[{"nodes":[0,1,2]}],"textures":[{"name":"LatiasDh","sampler":0,"source":0},{"name":"LatiasEyeDh","sampler":0,"source":1},{"name":"LatiasMouthDh","sampler":0,"source":2}]}