{"accessors":[{"name":"Latios_1_0_positions","componentType":5126,"count":72,"min":[-4.501123905181885,52.76668930053711,119.27699279785156],"max":[4.501215934753418,53.754791259765625,129.01498413085938],"type":"VEC3","bufferView":0,"byteOffset":0},{"name":"Latios_1_0_normals","componentType":5126,"count":72,"min":[0,-0.9999768733978271,-0.031174998730421066],"max":[0.39942410588264465,-0.9166781902313232,0.03869299590587616],"type":"VEC3","bufferView":1,"byteOffset":0},{"name":"Latios_1_0_texcoords","componentType":5126,"count":72,"min":[0.14127600193023682,-2.9882800579071045],"max":[0.35872000455856323,-2.759079933166504],"type":"VEC2","bufferView":2,"byteOffset":0},{"name":"Latios_1_0_indices","componentType":5123,"count":72,"min":[0],"max":[71],"type":"SCALAR","bufferView":3,"byteOffset":0},{"name":"Latios_1_1_positions","componentType":5126,"count":8694,"min":[-81.40511322021484,40.56290054321289,-63.88159942626953],"max":[81.40510559082031,143.0919952392578,89.82553100585938],"type":"VEC3","bufferView":0,"byteOffset":864},{"name":"Latios_1_1_normals","componentType":5126,"count":8694,"min":[-0.997788667678833,-0.999993622303009,-0.9992520213127136],"max":[0.5223898887634277,0.9995989799499512,0.811152994632721],"type":"VEC3","bufferView":1,"byteOffset":864},{"name":"Latios_1_1_texcoords","componentType":5126,"count":8694,"min":[0,0.011718999594449997],"max":[1,0.9855819940567017],"type":"VEC2","bufferView":2,"byteOffset":576},{"name":"Latios_1_1_indices","componentType":5123,"count":8694,"min":[0],"max":[8693],"type":"SCALAR","bufferView":3,"byteOffset":144},{"name":"Latios_1_2_positions","componentType":5126,"count":6804,"min":[-35.65185546875,52.7361946105957,17.432098388671875],"max":[35.65186309814453,91.62833404541016,135.12197875976562],"type":"VEC3","bufferView":0,"byteOffset":105192},{"name":"Latios_1_2_normals","componentType":5126,"count":6804,"min":[-0.9956601858139038,-0.9999768733978271,-0.5881550908088684],"max":[0.9938767552375793,0.9995988607406616,0.7037864923477173],"type":"VEC3","bufferView":1,"byteOffset":105192},{"name":"Latios_1_2_texcoords","componentType":5126,"count":6804,"min":[0,-0.9882799983024597],"max":[1,-0.014449999667704105],"type":"VEC2","bufferView":2,"byteOffset":70128},{"name":"Latios_1_2_indices","componentType":5123,"count":6804,"min":[0],"max":[6803],"type":"SCALAR","bufferView":3,"byteOffset":17532},{"name":"Latios_1_3_positions","componentType":5126,"count":216,"min":[-9.958762168884277,54.0369873046875,119.83397674560547],"max":[9.958856582641602,70.12258911132812,131.8470001220703],"type":"VEC3","bufferView":0,"byteOffset":186840},{"name":"Latios_1_3_normals","componentType":5126,"count":216,"min":[-0.9574517607688904,-0.9071410894393921,-0.7362895607948303],"max":[0.4438607394695282,0.6196820735931396,0.2600719630718231],"type":"VEC3","bufferView":1,"byteOffset":186840},{"name":"Latios_1_3_texcoords","componentType":5126,"count":216,"min":[0.01208799984306097,-1.9914499521255493],"max":[0.4879100024700165,-1.7585500478744507],"type":"VEC2","bufferView":2,"byteOffset":124560},{"name":"Latios_1_3_indices","componentType":5123,"count":216,"min":[0],"max":[215],"type":"SCALAR","bufferView":3,"byteOffset":31140}],"asset":{"generator":"obj2gltf","version":"2.0"},"buffers":[{"name":"XY_Latios","byteLength":648708,"uri":"data:application/octet-stream;base64,"}],"bufferViews":[{"name":"bufferView_0","buffer":0,"byteLength":189432,"byteOffset":0,"byteStride":12,"target":34962},{"name":"bufferView_1","buffer":0,"byteLength":189432,"byteOffset":189432,"byteStride":12,"target":34962},{"name":"bufferView_2","buffer":0,"byteLength":126288,"byteOffset":378864,"byteStride":8,"target":34962},{"name":"bufferView_3","buffer":0,"byteLength":31572,"byteOffset":505152,"target":34963},{"buffer":0,"byteOffset":536724,"byteLength":12533},{"buffer":0,"byteOffset":549257,"byteLength":47802},{"buffer":0,"byteOffset":597059,"byteLength":20459},{"buffer":0,"byteOffset":617518,"byteLength":31189}],"images":[{"name":"pm0381_00_Mouth1","mimeType":"image/png","bufferView":4},{"name":"pm0381_00_BodyA1","mimeType":"image/png","bufferView":5},{"name":"pm0381_00_BodyB1","mimeType":"image/png","bufferView":6},{"name":"pm0381_00_Eye1","mimeType":"image/png","bufferView":7}],"materials":[{"name":"Material__417","pbrMetallicRoughness":{"baseColorTexture":{"index":0},"baseColorFactor":[1,1,1,1],"metallicFactor":0,"roughnessFactor":0.998},"emissiveFactor":[0,0,0],"alphaMode":"OPAQUE","doubleSided":false},{"name":"Material__418","pbrMetallicRoughness":{"baseColorTexture":{"index":1},"baseColorFactor":[1,1,1,1],"metallicFactor":0,"roughnessFactor":0.998},"emissiveFactor":[0,0,0],"alphaMode":"OPAQUE","doubleSided":false},{"name":"Material__419","pbrMetallicRoughness":{"baseColorTexture":{"index":2},"baseColorFactor":[1,1,1,1],"metallicFactor":0,"roughnessFactor":0.998},"emissiveFactor":[0,0,0],"alphaMode":"OPAQUE","doubleSided":false},{"name":"Material__420","pbrMetallicRoughness":{"baseColorTexture":{"index":3},"baseColorFactor":[1,1,1,1],"metallicFactor":0,"roughnessFactor":0.998},"emissiveFactor":[0,0,0],"alphaMode":"OPAQUE","doubleSided":false}],"meshes":[{"name":"Latios_1","primitives":[{"attributes":{"POSITION":0,"NORMAL":1,"TEXCOORD_0":2},"indices":3,"material":0,"mode":4},{"attributes":{"POSITION":4,"NORMAL":5,"TEXCOORD_0":6},"indices":7,"material":1,"mode":4},{"attributes":{"POSITION":8,"NORMAL":9,"TEXCOORD_0":10},"indices":11,"material":2,"mode":4},{"attributes":{"POSITION":12,"NORMAL":13,"TEXCOORD_0":14},"indices":15,"material":3,"mode":4}]}],"nodes":[{"name":"Latios","mesh":0}],"samplers":[{"wrapS":10497,"wrapT":10497}],"scene":0,"scenes":[{"nodes":[0]}],"textures":[{"name":"pm0381_00_Mouth1","sampler":0,"source":0},{"name":"pm0381_00_BodyA1","sampler":0,"source":1},{"name":"pm0381_00_BodyB1","sampler":0,"source":2},{"name":"pm0381_00_Eye1","sampler":0,"source":3}]}