{"accessors":[{"name":"polygon0_1_0_positions","componentType":5126,"count":9,"min":[-0.6332299709320068,5.296022891998291,11.97962760925293],"max":[0.6332299709320068,5.480731010437012,12.927689552307129],"type":"VEC3","bufferView":0,"byteOffset":0},{"name":"polygon0_1_0_normals","componentType":5126,"count":9,"min":[-0.4951798915863037,-0.9999269843101501,0.012085000053048134],"max":[0.4951798915863037,-0.8676187992095947,0.14294299483299255],"type":"VEC3","bufferView":1,"byteOffset":0},{"name":"polygon0_1_0_texcoords","componentType":5126,"count":9,"min":[0.029694000259041786,0.004302999936044216],"max":[0.9737849831581116,0.24490399658679962],"type":"VEC2","bufferView":2,"byteOffset":0},{"name":"polygon0_1_0_indices","componentType":5123,"count":24,"min":[0],"max":[8],"type":"SCALAR","bufferView":3,"byteOffset":0},{"name":"polygon1_1_0_positions","componentType":5126,"count":1061,"min":[-8.213224411010742,4.098617076873779,-6.5144572257995605],"max":[8.213224411010742,14.217477798461914,13.504558563232422],"type":"VEC3","bufferView":0,"byteOffset":108},{"name":"polygon1_1_0_normals","componentType":5126,"count":1061,"min":[-1,-1,-1],"max":[1,1,1],"type":"VEC3","bufferView":1,"byteOffset":108},{"name":"polygon1_1_0_texcoords","componentType":5126,"count":1061,"min":[0.005615000147372484,0.005065999925136566],"max":[0.9947509765625,0.990447998046875],"type":"VEC2","bufferView":2,"byteOffset":72},{"name":"polygon1_1_0_indices","componentType":5123,"count":4698,"min":[0],"max":[1060],"type":"SCALAR","bufferView":3,"byteOffset":48},{"name":"polygon2_1_0_positions","componentType":5126,"count":12,"min":[-0.9509000182151794,5.735022068023682,12.111177444458008],"max":[0.9509000182151794,6.743070125579834,13.048477172851562],"type":"VEC3","bufferView":0,"byteOffset":12840},{"name":"polygon2_1_0_normals","componentType":5126,"count":12,"min":[-0.9457374215126038,-0.08599703013896942,0.29894912242889404],"max":[0.9457374215126038,0.18829308450222015,0.5832409858703613],"type":"VEC3","bufferView":1,"byteOffset":12840},{"name":"polygon2_1_0_texcoords","componentType":5126,"count":12,"min":[0.023437999188899994,0.0078119998797774315],"max":[0.4804689884185791,0.2421869933605194],"type":"VEC2","bufferView":2,"byteOffset":8560},{"name":"polygon2_1_0_indices","componentType":5123,"count":24,"min":[0],"max":[11],"type":"SCALAR","bufferView":3,"byteOffset":9444}],"asset":{"generator":"obj2gltf","version":"2.0"},"buffers":[{"name":"Latios","byteLength":388236,"uri":"data:application/octet-stream;base64,"}],"bufferViews":[{"name":"bufferView_0","buffer":0,"byteLength":12984,"byteOffset":0,"byteStride":12,"target":34962},{"name":"bufferView_1","buffer":0,"byteLength":12984,"byteOffset":12984,"byteStride":12,"target":34962},{"name":"bufferView_2","buffer":0,"byteLength":8656,"byteOffset":25968,"byteStride":8,"target":34962},{"name":"bufferView_3","buffer":0,"byteLength":9492,"byteOffset":34624,"target":34963},{"buffer":0,"byteOffset":44116,"byteLength":49170},{"buffer":0,"byteOffset":93286,"byteLength":196626},{"buffer":0,"byteOffset":289912,"byteLength":98322}],"images":[{"name":"LatiosMouthDh","mimeType":"image/x-tga","bufferView":4},{"name":"LatiosDh","mimeType":"image/x-tga","bufferView":5},{"name":"LatiosEyeDh","mimeType":"image/x-tga","bufferView":6}],"materials":[{"name":"mat3","pbrMetallicRoughness":{"baseColorTexture":{"index":0},"baseColorFactor":[1,1,1,1],"metallicFactor":0,"roughnessFactor":0.99},"emissiveFactor":[0,0,0],"alphaMode":"OPAQUE","doubleSided":false},{"name":"mat1","pbrMetallicRoughness":{"baseColorTexture":{"index":1},"baseColorFactor":[1,1,1,1],"metallicFactor":0,"roughnessFactor":0.99},"emissiveFactor":[0,0,0],"alphaMode":"OPAQUE","doubleSided":false},{"name":"mat2","pbrMetallicRoughness":{"baseColorTexture":{"index":2},"baseColorFactor":[1,1,1,1],"metallicFactor":0,"roughnessFactor":0.99},"emissiveFactor":[0,0,0],"alphaMode":"OPAQUE","doubleSided":false}],"meshes":[{"name":"polygon0_1","primitives":[{"attributes":{"POSITION":0,"NORMAL":1,"TEXCOORD_0":2},"indices":3,"material":0,"mode":4}]},{"name":"polygon1_1","primitives":[{"attributes":{"POSITION":4,"NORMAL":5,"TEXCOORD_0":6},"indices":7,"material":1,"mode":4}]},{"name":"polygon2_1","primitives":[{"attributes":{"POSITION":8,"NORMAL":9,"TEXCOORD_0":10},"indices":11,"material":2,"mode":4}]}],"nodes":[{"name":"polygon0","mesh":0},{"name":"polygon1","mesh":1},{"name":"polygon2","mesh":2}],"samplers":[{"wrapS":10497,"wrapT":10497}],"scene":0,"scenes":[{"nodes":[0,1,2]}],"textures":[{"name":"LatiosMouthDh","sampler":0,"source":0},{"name":"LatiosDh","sampler":0,"source":1},{"name":"LatiosEyeDh","sampler":0,"source":2}]}