{"accessors":[{"name":"kyogre-Mesh_0_positions","componentType":5126,"count":1236,"min":[-10.732881546020508,-28.51250648498535,-24.76445198059082],"max":[10.732881546020508,15.136673927307129,-11.599920272827148],"type":"VEC3","bufferView":0,"byteOffset":0},{"name":"kyogre-Mesh_0_texcoords","componentType":5126,"count":1236,"min":[0.03175399824976921,0.001964000053703785],"max":[0.990664005279541,0.9980360269546509],"type":"VEC2","bufferView":1,"byteOffset":0},{"name":"kyogre-Mesh_0_indices","componentType":5123,"count":6042,"min":[0],"max":[1235],"type":"SCALAR","bufferView":2,"byteOffset":0},{"name":"kyogre-Mesh_1_positions","componentType":5126,"count":40,"min":[-5.5465898513793945,9.244194984436035,-17.78742027282715],"max":[5.5465898513793945,12.580503463745117,-16.026477813720703],"type":"VEC3","bufferView":0,"byteOffset":14832},{"name":"kyogre-Mesh_1_texcoords","componentType":5126,"count":40,"min":[0.884332001209259,0.027922000735998154],"max":[0.9972019791603088,0.08680800348520279],"type":"VEC2","bufferView":1,"byteOffset":9888},{"name":"kyogre-Mesh_1_indices","componentType":5123,"count":144,"min":[0],"max":[39],"type":"SCALAR","bufferView":2,"byteOffset":12084},{"name":"kyogre-Mesh_2_positions","componentType":5126,"count":272,"min":[-27.171566009521484,-7.2045488357543945,-22.606626510620117],"max":[27.171566009521484,10.839966773986816,-16.740312576293945],"type":"VEC3","bufferView":0,"byteOffset":15312},{"name":"kyogre-Mesh_2_texcoords","componentType":5126,"count":272,"min":[0.021320000290870667,0.13175900280475616],"max":[0.9747080206871033,0.8881000280380249],"type":"VEC2","bufferView":1,"byteOffset":10208},{"name":"kyogre-Mesh_2_indices","componentType":5123,"count":1152,"min":[0],"max":[271],"type":"SCALAR","bufferView":2,"byteOffset":12372},{"name":"kyogre-Mesh_3_positions","componentType":5126,"count":256,"min":[-30.508230209350586,-7.8582048416137695,-23.50557518005371],"max":[30.508230209350586,14.761906623840332,-15.86357307434082],"type":"VEC3","bufferView":0,"byteOffset":18576},{"name":"kyogre-Mesh_3_texcoords","componentType":5126,"count":256,"min":[0.6386590003967285,0.007207999937236309],"max":[0.8678249716758728,0.1040629968047142],"type":"VEC2","bufferView":1,"byteOffset":12384},{"name":"kyogre-Mesh_3_indices","componentType":5123,"count":960,"min":[0],"max":[255],"type":"SCALAR","bufferView":2,"byteOffset":14676}],"asset":{"generator":"obj2gltf","version":"2.0"},"buffers":[{"name":"BR_Kyogre-Shiny01","byteLength":1625576,"uri":"data:application/octet-stream;base64,"}],"bufferViews":[{"name":"bufferView_0","buffer":0,"byteLength":21648,"byteOffset":0,"byteStride":12,"target":34962},{"name":"bufferView_1","buffer":0,"byteLength":14432,"byteOffset":21648,"byteStride":8,"target":34962},{"name":"bufferView_2","buffer":0,"byteLength":16596,"byteOffset":36080,"target":34963},{"buffer":0,"byteOffset":52676,"byteLength":1048594},{"buffer":0,"byteOffset":1101270,"byteLength":524306}],"images":[{"name":"kyogre_1_0","mimeType":"image/x-tga","bufferView":3},{"name":"kyogre_1_6","mimeType":"image/x-tga","bufferView":4}],"materials":[{"name":"mat_0","pbrMetallicRoughness":{"baseColorTexture":{"index":0},"baseColorFactor":[1,1,1,1],"metallicFactor":0,"roughnessFactor":0.903921569},"emissiveFactor":[0,0,0],"alphaMode":"BLEND","doubleSided":true},{"name":"mat_1","pbrMetallicRoughness":{"baseColorTexture":{"index":0},"baseColorFactor":[1,1,1,1],"metallicFactor":0,"roughnessFactor":0.903921569},"emissiveFactor":[0,0,0],"alphaMode":"BLEND","doubleSided":true},{"name":"mat_2","pbrMetallicRoughness":{"baseColorTexture":{"index":1},"baseColorFactor":[1,1,1,1],"metallicFactor":0,"roughnessFactor":0.903921569},"emissiveFactor":[0,0,0],"alphaMode":"BLEND","doubleSided":true},{"name":"mat_3","pbrMetallicRoughness":{"baseColorTexture":{"index":0},"baseColorFactor":[1,1,1,1],"metallicFactor":0,"roughnessFactor":0.903921569},"emissiveFactor":[0,0,0],"alphaMode":"BLEND","doubleSided":true}],"meshes":[{"name":"kyogre-Mesh","primitives":[{"attributes":{"POSITION":0,"TEXCOORD_0":1},"indices":2,"material":0,"mode":4},{"attributes":{"POSITION":3,"TEXCOORD_0":4},"indices":5,"material":1,"mode":4},{"attributes":{"POSITION":6,"TEXCOORD_0":7},"indices":8,"material":2,"mode":4},{"attributes":{"POSITION":9,"TEXCOORD_0":10},"indices":11,"material":3,"mode":4}]}],"nodes":[{"name":"kyogre","mesh":0}],"samplers":[{"wrapS":10497,"wrapT":10497}],"scene":0,"scenes":[{"nodes":[0]}],"textures":[{"name":"kyogre_1_0","sampler":0,"source":0},{"name":"kyogre_1_6","sampler":0,"source":1}]}