{"accessors":[{"name":"polygon0_1_0_positions","componentType":5126,"count":2778,"min":[-17.16351318359375,-0.02848600037395954,-35.45096206665039],"max":[17.163599014282227,36.27300262451172,29.632360458374023],"type":"VEC3","bufferView":0,"byteOffset":0},{"name":"polygon0_1_0_normals","componentType":5126,"count":2778,"min":[-1,-1,-0.9994177222251892],"max":[0.9999997615814209,0.9999511241912842,0.9980667233467102],"type":"VEC3","bufferView":1,"byteOffset":0},{"name":"polygon0_1_0_texcoords","componentType":5126,"count":2778,"min":[0.005859000142663717,0.0065310001373291016],"max":[0.9927369952201843,0.9920349717140198],"type":"VEC2","bufferView":2,"byteOffset":0},{"name":"polygon0_1_0_indices","componentType":5123,"count":8235,"min":[0],"max":[2777],"type":"SCALAR","bufferView":3,"byteOffset":0},{"name":"polygon1_1_0_positions","componentType":5126,"count":6,"min":[-5.142348766326904,25.500734329223633,20.999521255493164],"max":[5.142433166503906,29.27627182006836,26.056520462036133],"type":"VEC3","bufferView":0,"byteOffset":33336},{"name":"polygon1_1_0_normals","componentType":5126,"count":6,"min":[-0.9799588918685913,-0.0028919996693730354,0.19917897880077362],"max":[0.9799588918685913,0.031139986589550972,0.5028940439224243],"type":"VEC3","bufferView":1,"byteOffset":33336},{"name":"polygon1_1_0_texcoords","componentType":5126,"count":6,"min":[1.0245360136032104,0.05529800057411194],"max":[1.967529058456421,0.1884160041809082],"type":"VEC2","bufferView":2,"byteOffset":22224},{"name":"polygon1_1_0_indices","componentType":5123,"count":6,"min":[0],"max":[5],"type":"SCALAR","bufferView":3,"byteOffset":16472}],"asset":{"generator":"obj2gltf","version":"2.0"},"buffers":[{"name":"Groudon","byteLength":351368,"uri":"data:application/octet-stream;base64,"}],"bufferViews":[{"name":"bufferView_0","buffer":0,"byteLength":33408,"byteOffset":0,"byteStride":12,"target":34962},{"name":"bufferView_1","buffer":0,"byteLength":33408,"byteOffset":33408,"byteStride":12,"target":34962},{"name":"bufferView_2","buffer":0,"byteLength":22272,"byteOffset":66816,"byteStride":8,"target":34962},{"name":"bufferView_3","buffer":0,"byteLength":16484,"byteOffset":89088,"target":34963},{"buffer":0,"byteOffset":105572,"byteLength":196626},{"buffer":0,"byteOffset":302198,"byteLength":49170}],"images":[{"name":"GroudonDh","mimeType":"image/x-tga","bufferView":4},{"name":"GroudonEyeDh","mimeType":"image/x-tga","bufferView":5}],"materials":[{"name":"mat1","pbrMetallicRoughness":{"baseColorTexture":{"index":0},"baseColorFactor":[1,1,1,1],"metallicFactor":0,"roughnessFactor":0.99},"emissiveFactor":[0,0,0],"alphaMode":"OPAQUE","doubleSided":false},{"name":"mat2","pbrMetallicRoughness":{"baseColorTexture":{"index":1},"baseColorFactor":[1,1,1,1],"metallicFactor":0,"roughnessFactor":0.99},"emissiveFactor":[0,0,0],"alphaMode":"OPAQUE","doubleSided":false}],"meshes":[{"name":"polygon0_1","primitives":[{"attributes":{"POSITION":0,"NORMAL":1,"TEXCOORD_0":2},"indices":3,"material":0,"mode":4}]},{"name":"polygon1_1","primitives":[{"attributes":{"POSITION":4,"NORMAL":5,"TEXCOORD_0":6},"indices":7,"material":1,"mode":4}]}],"nodes":[{"name":"polygon0","mesh":0},{"name":"polygon1","mesh":1}],"samplers":[{"wrapS":10497,"wrapT":10497}],"scene":0,"scenes":[{"nodes":[0,1]}],"textures":[{"name":"GroudonDh","sampler":0,"source":0},{"name":"GroudonEyeDh","sampler":0,"source":1}]}