{"accessors":[{"name":"polygon0_1_0_positions","componentType":5126,"count":1462,"min":[-9.856197357177734,-3.519421100616455,-59.464385986328125],"max":[9.856197357177734,6.552159786224365,11.394216537475586],"type":"VEC3","bufferView":0,"byteOffset":0},{"name":"polygon0_1_0_normals","componentType":5126,"count":1462,"min":[-1,-1,-1],"max":[1,1,1],"type":"VEC3","bufferView":1,"byteOffset":0},{"name":"polygon0_1_0_texcoords","componentType":5126,"count":1462,"min":[0.011107999831438065,0.004790999926626682],"max":[0.9951779842376709,0.9855960011482239],"type":"VEC2","bufferView":2,"byteOffset":0},{"name":"polygon0_1_0_indices","componentType":5123,"count":5112,"min":[0],"max":[1461],"type":"SCALAR","bufferView":3,"byteOffset":0},{"name":"polygon1_1_0_positions","componentType":5126,"count":93,"min":[-1.9820129871368408,-1.8709490299224854,6.5741119384765625],"max":[1.9820129871368408,0.02046399936079979,11.334687232971191],"type":"VEC3","bufferView":0,"byteOffset":17544},{"name":"polygon1_1_0_normals","componentType":5126,"count":93,"min":[-0.9903668761253357,-0.9999999403953552,-0.44317299127578735],"max":[0.9903668761253357,0.9359468221664429,0.9877946376800537],"type":"VEC3","bufferView":1,"byteOffset":17544},{"name":"polygon1_1_0_texcoords","componentType":5126,"count":93,"min":[0.1914059966802597,0.015625],"max":[0.3671880066394806,0.4804689884185791],"type":"VEC2","bufferView":2,"byteOffset":11696},{"name":"polygon1_1_0_indices","componentType":5123,"count":378,"min":[0],"max":[92],"type":"SCALAR","bufferView":3,"byteOffset":10224},{"name":"polygon2_1_0_positions","componentType":5126,"count":12,"min":[-1.9766149520874023,-0.4595879912376404,7.119631767272949],"max":[1.9766149520874023,1.3237489461898804,9.845314025878906],"type":"VEC3","bufferView":0,"byteOffset":18660},{"name":"polygon2_1_0_normals","componentType":5126,"count":12,"min":[-0.993195116519928,-0.02673300728201866,0.0982700064778328],"max":[0.993195116519928,0.14215196669101715,0.5009799003601074],"type":"VEC3","bufferView":1,"byteOffset":18660},{"name":"polygon2_1_0_texcoords","componentType":5126,"count":12,"min":[-0.9976810216903687,0.03253199905157089],"max":[-0.021178999915719032,0.19238300621509552],"type":"VEC2","bufferView":2,"byteOffset":12440},{"name":"polygon2_1_0_indices","componentType":5123,"count":24,"min":[0],"max":[11],"type":"SCALAR","bufferView":3,"byteOffset":10980}],"asset":{"generator":"obj2gltf","version":"2.0"},"buffers":[{"name":"Rayquaza","byteLength":552728,"uri":"data:application/octet-stream;base64,"}],"bufferViews":[{"name":"bufferView_0","buffer":0,"byteLength":18804,"byteOffset":0,"byteStride":12,"target":34962},{"name":"bufferView_1","buffer":0,"byteLength":18804,"byteOffset":18804,"byteStride":12,"target":34962},{"name":"bufferView_2","buffer":0,"byteLength":12536,"byteOffset":37608,"byteStride":8,"target":34962},{"name":"bufferView_3","buffer":0,"byteLength":11028,"byteOffset":50144,"target":34963},{"buffer":0,"byteOffset":61172,"byteLength":442386},{"buffer":0,"byteOffset":503558,"byteLength":49170}],"images":[{"name":"RayquazaDh","mimeType":"image/x-tga","bufferView":4},{"name":"RayquazaEyeDh","mimeType":"image/x-tga","bufferView":5}],"materials":[{"name":"mat1","pbrMetallicRoughness":{"baseColorTexture":{"index":0},"baseColorFactor":[1,1,1,1],"metallicFactor":0,"roughnessFactor":0.99},"emissiveFactor":[0,0,0],"alphaMode":"OPAQUE","doubleSided":false},{"name":"mat2","pbrMetallicRoughness":{"baseColorTexture":{"index":0},"baseColorFactor":[1,1,1,1],"metallicFactor":0,"roughnessFactor":0.99},"emissiveFactor":[0,0,0],"alphaMode":"OPAQUE","doubleSided":false},{"name":"mat3","pbrMetallicRoughness":{"baseColorTexture":{"index":1},"baseColorFactor":[1,1,1,1],"metallicFactor":0,"roughnessFactor":0.99},"emissiveFactor":[0,0,0],"alphaMode":"OPAQUE","doubleSided":false}],"meshes":[{"name":"polygon0_1","primitives":[{"attributes":{"POSITION":0,"NORMAL":1,"TEXCOORD_0":2},"indices":3,"material":0,"mode":4}]},{"name":"polygon1_1","primitives":[{"attributes":{"POSITION":4,"NORMAL":5,"TEXCOORD_0":6},"indices":7,"material":1,"mode":4}]},{"name":"polygon2_1","primitives":[{"attributes":{"POSITION":8,"NORMAL":9,"TEXCOORD_0":10},"indices":11,"material":2,"mode":4}]}],"nodes":[{"name":"polygon0","mesh":0},{"name":"polygon1","mesh":1},{"name":"polygon2","mesh":2}],"samplers":[{"wrapS":10497,"wrapT":10497}],"scene":0,"scenes":[{"nodes":[0,1,2]}],"textures":[{"name":"RayquazaDh","sampler":0,"source":0},{"name":"RayquazaEyeDh","sampler":0,"source":1}]}