{"accessors":[{"name":"polygon0_1_0_positions","componentType":5126,"count":33,"min":[-0.38048601150512695,0.26133498549461365,0.0656760036945343],"max":[0.380484014749527,0.8439919948577881,0.30205899477005005],"type":"VEC3","bufferView":0,"byteOffset":0},{"name":"polygon0_1_0_normals","componentType":5126,"count":33,"min":[-0.9096953272819519,-0.5141477584838867,0.3768271207809448],"max":[0.9096953272819519,0.47975894808769226,0.9995077848434448],"type":"VEC3","bufferView":1,"byteOffset":0},{"name":"polygon0_1_0_texcoords","componentType":5126,"count":33,"min":[0.006378000136464834,0.04055799916386604],"max":[1.001343011856079,0.2621150016784668],"type":"VEC2","bufferView":2,"byteOffset":0},{"name":"polygon0_1_0_indices","componentType":5123,"count":138,"min":[0],"max":[32],"type":"SCALAR","bufferView":3,"byteOffset":0},{"name":"polygon1_1_0_positions","componentType":5126,"count":35,"min":[-0.3365820050239563,0.9922879934310913,0.28880301117897034],"max":[0.3365800082683563,1.4069459438323975,0.6204730272293091],"type":"VEC3","bufferView":0,"byteOffset":396},{"name":"polygon1_1_0_normals","componentType":5126,"count":35,"min":[-0.46575719118118286,-0.9244912266731262,0.3411429524421692],"max":[0.46575719118118286,-0.1330539584159851,0.9547207951545715],"type":"VEC3","bufferView":1,"byteOffset":396},{"name":"polygon1_1_0_texcoords","componentType":5126,"count":35,"min":[0.009093999862670898,-0.12103299796581268],"max":[0.9942629933357239,0.27453601360321045],"type":"VEC2","bufferView":2,"byteOffset":264},{"name":"polygon1_1_0_indices","componentType":5123,"count":144,"min":[0],"max":[34],"type":"SCALAR","bufferView":3,"byteOffset":276},{"name":"polygon2_1_0_positions","componentType":5126,"count":34,"min":[-0.5119580030441284,1.200767993927002,0.3372969925403595],"max":[0.511955976486206,1.6090819835662842,0.601855993270874],"type":"VEC3","bufferView":0,"byteOffset":816},{"name":"polygon2_1_0_normals","componentType":5126,"count":34,"min":[-0.8287650942802429,-0.5100867748260498,0.47552791237831116],"max":[0.8287650942802429,0.2489721029996872,0.942561686038971],"type":"VEC3","bufferView":1,"byteOffset":816},{"name":"polygon2_1_0_texcoords","componentType":5126,"count":34,"min":[0.04296899959445,0.023437000811100006],"max":[0.484375,0.28125],"type":"VEC2","bufferView":2,"byteOffset":544},{"name":"polygon2_1_0_indices","componentType":5123,"count":126,"min":[0],"max":[33],"type":"SCALAR","bufferView":3,"byteOffset":564},{"name":"polygon3_1_0_positions","componentType":5126,"count":865,"min":[-1.649796962738037,0.02659500017762184,-2.7298378944396973],"max":[1.6497950553894043,2.9697909355163574,0.650646984577179],"type":"VEC3","bufferView":0,"byteOffset":1224},{"name":"polygon3_1_0_normals","componentType":5126,"count":865,"min":[-0.9999812245368958,-0.999969482421875,-0.9983107447624207],"max":[0.9999812245368958,0.9999942779541016,0.9995713233947754],"type":"VEC3","bufferView":1,"byteOffset":1224},{"name":"polygon3_1_0_texcoords","componentType":5126,"count":865,"min":[0.0083619998767972,0.008880999870598316],"max":[0.9715880155563354,0.9955139756202698],"type":"VEC2","bufferView":2,"byteOffset":816},{"name":"polygon3_1_0_indices","componentType":5123,"count":4308,"min":[0],"max":[864],"type":"SCALAR","bufferView":3,"byteOffset":816}],"asset":{"generator":"obj2gltf","version":"2.0"},"buffers":[{"name":"Jirachi","byteLength":433664,"uri":"data:application/octet-stream;base64,"}],"bufferViews":[{"name":"bufferView_0","buffer":0,"byteLength":11604,"byteOffset":0,"byteStride":12,"target":34962},{"name":"bufferView_1","buffer":0,"byteLength":11604,"byteOffset":11604,"byteStride":12,"target":34962},{"name":"bufferView_2","buffer":0,"byteLength":7736,"byteOffset":23208,"byteStride":8,"target":34962},{"name":"bufferView_3","buffer":0,"byteLength":9432,"byteOffset":30944,"target":34963},{"buffer":0,"byteOffset":40376,"byteLength":49170},{"buffer":0,"byteOffset":89546,"byteLength":49170},{"buffer":0,"byteOffset":138716,"byteLength":98322},{"buffer":0,"byteOffset":237038,"byteLength":196626}],"images":[{"name":"JirachiEye3Dh","mimeType":"image/x-tga","bufferView":4},{"name":"JirachiMouthDh","mimeType":"image/x-tga","bufferView":5},{"name":"JirachiEyeDh","mimeType":"image/x-tga","bufferView":6},{"name":"JirachiDh","mimeType":"image/x-tga","bufferView":7}],"materials":[{"name":"mat3","pbrMetallicRoughness":{"baseColorTexture":{"index":0},"baseColorFactor":[1,1,1,1],"metallicFactor":0,"roughnessFactor":0.99},"emissiveFactor":[0,0,0],"alphaMode":"OPAQUE","doubleSided":false},{"name":"mat4","pbrMetallicRoughness":{"baseColorTexture":{"index":1},"baseColorFactor":[1,1,1,1],"metallicFactor":0,"roughnessFactor":0.99},"emissiveFactor":[0,0,0],"alphaMode":"OPAQUE","doubleSided":false},{"name":"mat2","pbrMetallicRoughness":{"baseColorTexture":{"index":2},"baseColorFactor":[1,1,1,1],"metallicFactor":0,"roughnessFactor":0.99},"emissiveFactor":[0,0,0],"alphaMode":"OPAQUE","doubleSided":false},{"name":"mat1","pbrMetallicRoughness":{"baseColorTexture":{"index":3},"baseColorFactor":[1,1,1,1],"metallicFactor":0,"roughnessFactor":0.99},"emissiveFactor":[0,0,0],"alphaMode":"OPAQUE","doubleSided":false}],"meshes":[{"name":"polygon0_1","primitives":[{"attributes":{"POSITION":0,"NORMAL":1,"TEXCOORD_0":2},"indices":3,"material":0,"mode":4}]},{"name":"polygon1_1","primitives":[{"attributes":{"POSITION":4,"NORMAL":5,"TEXCOORD_0":6},"indices":7,"material":1,"mode":4}]},{"name":"polygon2_1","primitives":[{"attributes":{"POSITION":8,"NORMAL":9,"TEXCOORD_0":10},"indices":11,"material":2,"mode":4}]},{"name":"polygon3_1","primitives":[{"attributes":{"POSITION":12,"NORMAL":13,"TEXCOORD_0":14},"indices":15,"material":3,"mode":4}]}],"nodes":[{"name":"polygon0","mesh":0},{"name":"polygon1","mesh":1},{"name":"polygon2","mesh":2},{"name":"polygon3","mesh":3}],"samplers":[{"wrapS":10497,"wrapT":10497}],"scene":0,"scenes":[{"nodes":[0,1,2,3]}],"textures":[{"name":"JirachiEye3Dh","sampler":0,"source":0},{"name":"JirachiMouthDh","sampler":0,"source":1},{"name":"JirachiEyeDh","sampler":0,"source":2},{"name":"JirachiDh","sampler":0,"source":3}]}