{"accessors":[{"name":"polygon0_1_0_positions","componentType":5126,"count":1249,"min":[-14.097799301147461,0.0032099999953061342,-2.290566921234131],"max":[14.097801208496094,17.7691707611084,2.018125057220459],"type":"VEC3","bufferView":0,"byteOffset":0},{"name":"polygon0_1_0_normals","componentType":5126,"count":1249,"min":[-1,-0.9999998211860657,-0.9999998211860657],"max":[1,1,0.9999998211860657],"type":"VEC3","bufferView":1,"byteOffset":0},{"name":"polygon0_1_0_texcoords","componentType":5126,"count":1249,"min":[0.007079999893903732,0.0103150000795722],"max":[0.9923099875450134,0.9950259923934937],"type":"VEC2","bufferView":2,"byteOffset":0},{"name":"polygon0_1_0_indices","componentType":5123,"count":5268,"min":[0],"max":[1248],"type":"SCALAR","bufferView":3,"byteOffset":0},{"name":"polygon1_1_0_positions","componentType":5126,"count":14,"min":[-1.0697139501571655,15.593457221984863,1.1642229557037354],"max":[1.0697150230407715,16.26416778564453,1.7387549877166748],"type":"VEC3","bufferView":0,"byteOffset":14988},{"name":"polygon1_1_0_normals","componentType":5126,"count":14,"min":[-0.7685440182685852,0.02502400241792202,0.6356120109558105],"max":[0.7685440182685852,0.07586603611707687,0.9127131104469299],"type":"VEC3","bufferView":1,"byteOffset":14988},{"name":"polygon1_1_0_texcoords","componentType":5126,"count":14,"min":[-0.9626460075378418,0.05224600061774254],"max":[-0.042114000767469406,0.19964599609375],"type":"VEC2","bufferView":2,"byteOffset":9992},{"name":"polygon1_1_0_indices","componentType":5123,"count":30,"min":[0],"max":[13],"type":"SCALAR","bufferView":3,"byteOffset":10536},{"name":"polygon3_1_0_positions","componentType":5126,"count":25,"min":[-0.5838479995727539,11.84533405303955,1.1942720413208008],"max":[0.5838479995727539,13.013030052185059,1.4215799570083618],"type":"VEC3","bufferView":0,"byteOffset":15156},{"name":"polygon3_1_0_normals","componentType":5126,"count":25,"min":[-0.684886634349823,-0.684886634349823,0.7286496162414551],"max":[0.684886634349823,0.684886634349823,1],"type":"VEC3","bufferView":1,"byteOffset":15156},{"name":"polygon3_1_0_texcoords","componentType":5126,"count":25,"min":[0.2929689884185791,0.015625],"max":[0.484375,0.203125],"type":"VEC2","bufferView":2,"byteOffset":10104},{"name":"polygon3_1_0_indices","componentType":5123,"count":96,"min":[0],"max":[24],"type":"SCALAR","bufferView":3,"byteOffset":10596}],"asset":{"generator":"obj2gltf","version":"2.0"},"buffers":[{"name":"Deoxys000","byteLength":297800,"uri":"data:application/octet-stream;base64,"}],"bufferViews":[{"name":"bufferView_0","buffer":0,"byteLength":15456,"byteOffset":0,"byteStride":12,"target":34962},{"name":"bufferView_1","buffer":0,"byteLength":15456,"byteOffset":15456,"byteStride":12,"target":34962},{"name":"bufferView_2","buffer":0,"byteLength":10304,"byteOffset":30912,"byteStride":8,"target":34962},{"name":"bufferView_3","buffer":0,"byteLength":10788,"byteOffset":41216,"target":34963},{"buffer":0,"byteOffset":52004,"byteLength":196626},{"buffer":0,"byteOffset":248630,"byteLength":49170}],"images":[{"name":"Deoxys000Dh","mimeType":"image/x-tga","bufferView":4},{"name":"Deoxys000EyeDh","mimeType":"image/x-tga","bufferView":5}],"materials":[{"name":"mat1","pbrMetallicRoughness":{"baseColorTexture":{"index":0},"baseColorFactor":[1,1,1,1],"metallicFactor":0,"roughnessFactor":0.99},"emissiveFactor":[0,0,0],"alphaMode":"OPAQUE","doubleSided":false},{"name":"mat2","pbrMetallicRoughness":{"baseColorTexture":{"index":1},"baseColorFactor":[1,1,1,1],"metallicFactor":0,"roughnessFactor":0.99},"emissiveFactor":[0,0,0],"alphaMode":"OPAQUE","doubleSided":false},{"name":"mat3","pbrMetallicRoughness":{"baseColorTexture":{"index":0},"baseColorFactor":[1,1,1,1],"metallicFactor":0,"roughnessFactor":0.99},"emissiveFactor":[0,0,0],"alphaMode":"OPAQUE","doubleSided":false}],"meshes":[{"name":"polygon0_1","primitives":[{"attributes":{"POSITION":0,"NORMAL":1,"TEXCOORD_0":2},"indices":3,"material":0,"mode":4}]},{"name":"polygon1_1","primitives":[{"attributes":{"POSITION":4,"NORMAL":5,"TEXCOORD_0":6},"indices":7,"material":1,"mode":4}]},{"name":"polygon3_1","primitives":[{"attributes":{"POSITION":8,"NORMAL":9,"TEXCOORD_0":10},"indices":11,"material":2,"mode":4}]}],"nodes":[{"name":"polygon0","mesh":0},{"name":"polygon1","mesh":1},{"name":"polygon3","mesh":2}],"samplers":[{"wrapS":10497,"wrapT":10497}],"scene":0,"scenes":[{"nodes":[0,1,2]}],"textures":[{"name":"Deoxys000Dh","sampler":0,"source":0},{"name":"Deoxys000EyeDh","sampler":0,"source":1}]}