{"accessors":[{"name":"deoxys-Mesh_0_positions","componentType":5126,"count":112,"min":[-14.097800254821777,-0.5222780108451843,-13.512100219726562],"max":[14.097800254821777,0.5222769975662231,-12.487899780273438],"type":"VEC3","bufferView":0,"byteOffset":0},{"name":"deoxys-Mesh_0_texcoords","componentType":5126,"count":112,"min":[1.3919999599456787,0.6600000262260437],"max":[2.3919999599456787,1.659999966621399],"type":"VEC2","bufferView":1,"byteOffset":0},{"name":"deoxys-Mesh_0_indices","componentType":5123,"count":600,"min":[0],"max":[111],"type":"SCALAR","bufferView":2,"byteOffset":0},{"name":"deoxys-Mesh_1_positions","componentType":5126,"count":106,"min":[-13.89780044555664,-0.5222780108451843,-12.7121000289917],"max":[13.89780044555664,0.5222769975662231,-11.687899589538574],"type":"VEC3","bufferView":0,"byteOffset":1344},{"name":"deoxys-Mesh_1_texcoords","componentType":5126,"count":106,"min":[-0.821757972240448,0.15266799926757812],"max":[-0.1294499933719635,0.9339179992675781],"type":"VEC2","bufferView":1,"byteOffset":896},{"name":"deoxys-Mesh_1_indices","componentType":5123,"count":600,"min":[0],"max":[105],"type":"SCALAR","bufferView":2,"byteOffset":1200}],"asset":{"generator":"obj2gltf","version":"2.0"},"buffers":[{"name":"BR_Deoxys-Shiny01","byteLength":9868,"uri":"data:application/octet-stream;base64,"}],"bufferViews":[{"name":"bufferView_0","buffer":0,"byteLength":2616,"byteOffset":0,"byteStride":12,"target":34962},{"name":"bufferView_1","buffer":0,"byteLength":1744,"byteOffset":2616,"byteStride":8,"target":34962},{"name":"bufferView_2","buffer":0,"byteLength":2400,"byteOffset":4360,"target":34963},{"buffer":0,"byteOffset":6760,"byteLength":2066},{"buffer":0,"byteOffset":8826,"byteLength":1042}],"images":[{"name":"deoxys_1_0","mimeType":"image/x-tga","bufferView":3},{"name":"deoxys_1_1","mimeType":"image/x-tga","bufferView":4}],"materials":[{"name":"mat_0","pbrMetallicRoughness":{"baseColorTexture":{"index":0},"baseColorFactor":[1,1,1,1],"metallicFactor":0,"roughnessFactor":0.903921569},"emissiveFactor":[0,0,0],"alphaMode":"BLEND","doubleSided":true},{"name":"mat_1","pbrMetallicRoughness":{"baseColorTexture":{"index":1},"baseColorFactor":[1,1,1,1],"metallicFactor":0,"roughnessFactor":0.903921569},"emissiveFactor":[0,0,0],"alphaMode":"BLEND","doubleSided":true}],"meshes":[{"name":"deoxys-Mesh","primitives":[{"attributes":{"POSITION":0,"TEXCOORD_0":1},"indices":2,"material":0,"mode":4},{"attributes":{"POSITION":3,"TEXCOORD_0":4},"indices":5,"material":1,"mode":4}]}],"nodes":[{"name":"deoxys","mesh":0}],"samplers":[{"wrapS":10497,"wrapT":10497}],"scene":0,"scenes":[{"nodes":[0]}],"textures":[{"name":"deoxys_1_0","sampler":0,"source":0},{"name":"deoxys_1_1","sampler":0,"source":1}]}