{"accessors":[{"name":"polygon0_1_0_positions","componentType":5126,"count":24,"min":[-0.7616519927978516,1.2531260251998901,1.8488249778747559],"max":[0.7616519927978516,1.9705959558486938,2.3743810653686523],"type":"VEC3","bufferView":0,"byteOffset":0},{"name":"polygon0_1_0_normals","componentType":5126,"count":24,"min":[-0.9683968424797058,-0.4814409911632538,0.24933196604251862],"max":[0.9683968424797058,0.3713979721069336,0.8169717192649841],"type":"VEC3","bufferView":1,"byteOffset":0},{"name":"polygon0_1_0_texcoords","componentType":5126,"count":24,"min":[0.0820309966802597,0.0078119998797774315],"max":[0.421875,0.2421869933605194],"type":"VEC2","bufferView":2,"byteOffset":0},{"name":"polygon0_1_0_indices","componentType":5123,"count":72,"min":[0],"max":[23],"type":"SCALAR","bufferView":3,"byteOffset":0},{"name":"polygon1_1_0_positions","componentType":5126,"count":1035,"min":[-0.9848210215568542,-9.999999974752427e-7,-1.3818919658660889],"max":[0.9848210215568542,4.002933025360107,2.51304292678833],"type":"VEC3","bufferView":0,"byteOffset":288},{"name":"polygon1_1_0_normals","componentType":5126,"count":1035,"min":[-0.9999199509620667,-1,-0.9999905824661255],"max":[0.9999199509620667,1,0.9999892115592957],"type":"VEC3","bufferView":1,"byteOffset":288},{"name":"polygon1_1_0_texcoords","componentType":5126,"count":1035,"min":[0.0029299999587237835,0.0042420001700520515],"max":[0.9965819716453552,0.9765620231628418],"type":"VEC2","bufferView":2,"byteOffset":192},{"name":"polygon1_1_0_indices","componentType":5123,"count":4542,"min":[0],"max":[1034],"type":"SCALAR","bufferView":3,"byteOffset":144}],"asset":{"generator":"obj2gltf","version":"2.0"},"buffers":[{"name":"Turtwig","byteLength":338064,"uri":"data:application/octet-stream;base64,"}],"bufferViews":[{"name":"bufferView_0","buffer":0,"byteLength":12708,"byteOffset":0,"byteStride":12,"target":34962},{"name":"bufferView_1","buffer":0,"byteLength":12708,"byteOffset":12708,"byteStride":12,"target":34962},{"name":"bufferView_2","buffer":0,"byteLength":8472,"byteOffset":25416,"byteStride":8,"target":34962},{"name":"bufferView_3","buffer":0,"byteLength":9228,"byteOffset":33888,"target":34963},{"buffer":0,"byteOffset":43116,"byteLength":98322},{"buffer":0,"byteOffset":141438,"byteLength":196626}],"images":[{"name":"NaetleEyeDh","mimeType":"image/x-tga","bufferView":4},{"name":"NaetleDh","mimeType":"image/x-tga","bufferView":5}],"materials":[{"name":"mat2","pbrMetallicRoughness":{"baseColorTexture":{"index":0},"baseColorFactor":[1,1,1,1],"metallicFactor":0,"roughnessFactor":0.99},"emissiveFactor":[0,0,0],"alphaMode":"OPAQUE","doubleSided":false},{"name":"mat1","pbrMetallicRoughness":{"baseColorTexture":{"index":1},"baseColorFactor":[1,1,1,1],"metallicFactor":0,"roughnessFactor":0.99},"emissiveFactor":[0,0,0],"alphaMode":"OPAQUE","doubleSided":false}],"meshes":[{"name":"polygon0_1","primitives":[{"attributes":{"POSITION":0,"NORMAL":1,"TEXCOORD_0":2},"indices":3,"material":0,"mode":4}]},{"name":"polygon1_1","primitives":[{"attributes":{"POSITION":4,"NORMAL":5,"TEXCOORD_0":6},"indices":7,"material":1,"mode":4}]}],"nodes":[{"name":"polygon0","mesh":0},{"name":"polygon1","mesh":1}],"samplers":[{"wrapS":10497,"wrapT":10497}],"scene":0,"scenes":[{"nodes":[0,1]}],"textures":[{"name":"NaetleEyeDh","sampler":0,"source":0},{"name":"NaetleDh","sampler":0,"source":1}]}