{"accessors":[{"name":"hayashigame-Mesh_0_positions","componentType":5126,"count":2034,"min":[-4.586802959442139,-8.012374877929688,-11.127312660217285],"max":[4.586802959442139,6.755813121795654,0.000006000000212225132],"type":"VEC3","bufferView":0,"byteOffset":0},{"name":"hayashigame-Mesh_0_texcoords","componentType":5126,"count":2034,"min":[0.012023000046610832,0.010653000324964523],"max":[0.7630159854888916,0.9952980279922485],"type":"VEC2","bufferView":1,"byteOffset":0},{"name":"hayashigame-Mesh_0_indices","componentType":5123,"count":8214,"min":[0],"max":[2033],"type":"SCALAR","bufferView":2,"byteOffset":0},{"name":"hayashigame-Mesh_1_positions","componentType":5126,"count":18,"min":[-1.2668700218200684,5.223845958709717,-3.894834041595459],"max":[1.2668700218200684,6.297961235046387,-2.532296895980835],"type":"VEC3","bufferView":0,"byteOffset":24408},{"name":"hayashigame-Mesh_1_texcoords","componentType":5126,"count":18,"min":[0.814864993095398,0.08895000070333481],"max":[0.9219260215759277,0.2144169956445694],"type":"VEC2","bufferView":1,"byteOffset":16272},{"name":"hayashigame-Mesh_1_indices","componentType":5123,"count":48,"min":[0],"max":[17],"type":"SCALAR","bufferView":2,"byteOffset":16428}],"asset":{"generator":"obj2gltf","version":"2.0"},"buffers":[{"name":"BR_Grotle-Shiny01","byteLength":1106160,"uri":"data:application/octet-stream;base64,"}],"bufferViews":[{"name":"bufferView_0","buffer":0,"byteLength":24624,"byteOffset":0,"byteStride":12,"target":34962},{"name":"bufferView_1","buffer":0,"byteLength":16416,"byteOffset":24624,"byteStride":8,"target":34962},{"name":"bufferView_2","buffer":0,"byteLength":16524,"byteOffset":41040,"target":34963},{"buffer":0,"byteOffset":57564,"byteLength":1048594}],"images":[{"name":"hayashigame_1_0","mimeType":"image/x-tga","bufferView":3}],"materials":[{"name":"mat_0","pbrMetallicRoughness":{"baseColorTexture":{"index":0},"baseColorFactor":[1,1,1,1],"metallicFactor":0,"roughnessFactor":0.903921569},"emissiveFactor":[0,0,0],"alphaMode":"BLEND","doubleSided":true},{"name":"mat_1","pbrMetallicRoughness":{"baseColorTexture":{"index":0},"baseColorFactor":[1,1,1,1],"metallicFactor":0,"roughnessFactor":0.903921569},"emissiveFactor":[0,0,0],"alphaMode":"BLEND","doubleSided":true}],"meshes":[{"name":"hayashigame-Mesh","primitives":[{"attributes":{"POSITION":0,"TEXCOORD_0":1},"indices":2,"material":0,"mode":4},{"attributes":{"POSITION":3,"TEXCOORD_0":4},"indices":5,"material":1,"mode":4}]}],"nodes":[{"name":"hayashigame","mesh":0}],"samplers":[{"wrapS":10497,"wrapT":10497}],"scene":0,"scenes":[{"nodes":[0]}],"textures":[{"name":"hayashigame_1_0","sampler":0,"source":0}]}