{"accessors":[{"name":"polygon0_1_0_positions","componentType":5126,"count":535,"min":[-6.612119197845459,5.53127384185791,-8.659932136535645],"max":[10.478923797607422,22.511083602905273,12.182247161865234],"type":"VEC3","bufferView":0,"byteOffset":0},{"name":"polygon0_1_0_normals","componentType":5126,"count":535,"min":[-0.9997518062591553,-0.9992343187332153,-0.9926464557647705],"max":[0.9996446967124939,0.9981138706207275,0.9802040457725525],"type":"VEC3","bufferView":1,"byteOffset":0},{"name":"polygon0_1_0_texcoords","componentType":5126,"count":535,"min":[0.004668999928981066,0.0037539999466389418],"max":[0.9869379997253418,0.9918519854545593],"type":"VEC2","bufferView":2,"byteOffset":0},{"name":"polygon0_1_0_indices","componentType":5123,"count":1965,"min":[0],"max":[534],"type":"SCALAR","bufferView":3,"byteOffset":0},{"name":"polygon1_1_0_positions","componentType":5126,"count":821,"min":[-7.460277080535889,0.032193999737501144,-16.327322006225586],"max":[7.460276126861572,10.027946472167969,14.087284088134766],"type":"VEC3","bufferView":0,"byteOffset":6420},{"name":"polygon1_1_0_normals","componentType":5126,"count":821,"min":[-0.9980620741844177,-1,-0.9967607259750366],"max":[0.9980620741844177,0.9982649683952332,0.9986153244972229],"type":"VEC3","bufferView":1,"byteOffset":6420},{"name":"polygon1_1_0_texcoords","componentType":5126,"count":821,"min":[0.0005489999894052744,0.0036619999445974827],"max":[1.0001829862594604,0.5229799747467041],"type":"VEC2","bufferView":2,"byteOffset":4280},{"name":"polygon1_1_0_indices","componentType":5123,"count":2706,"min":[0],"max":[820],"type":"SCALAR","bufferView":3,"byteOffset":3932},{"name":"polygon2_1_0_positions","componentType":5126,"count":24,"min":[-2.2691190242767334,4.236417770385742,11.090082168579102],"max":[2.2691171169281006,5.474752902984619,12.589431762695312],"type":"VEC3","bufferView":0,"byteOffset":16272},{"name":"polygon2_1_0_normals","componentType":5126,"count":24,"min":[-0.9264088869094849,-0.33396288752555847,0.3191259801387787],"max":[0.9349033236503601,0.06611400097608566,0.6143297553062439],"type":"VEC3","bufferView":1,"byteOffset":16272},{"name":"polygon2_1_0_texcoords","componentType":5126,"count":24,"min":[-0.9890140295028687,0.013732999563217163],"max":[-0.5286250114440918,0.2317499965429306],"type":"VEC2","bufferView":2,"byteOffset":10848},{"name":"polygon2_1_0_indices","componentType":5123,"count":66,"min":[0],"max":[23],"type":"SCALAR","bufferView":3,"byteOffset":9344}],"asset":{"generator":"obj2gltf","version":"2.0"},"buffers":[{"name":"Torterra","byteLength":754088,"uri":"data:application/octet-stream;base64,"}],"bufferViews":[{"name":"bufferView_0","buffer":0,"byteLength":16560,"byteOffset":0,"byteStride":12,"target":34962},{"name":"bufferView_1","buffer":0,"byteLength":16560,"byteOffset":16560,"byteStride":12,"target":34962},{"name":"bufferView_2","buffer":0,"byteLength":11040,"byteOffset":33120,"byteStride":8,"target":34962},{"name":"bufferView_3","buffer":0,"byteLength":9476,"byteOffset":44160,"target":34963},{"buffer":0,"byteOffset":53636,"byteLength":602130},{"buffer":0,"byteOffset":655766,"byteLength":98322}],"images":[{"name":"DodaitoseDh","mimeType":"image/x-tga","bufferView":4},{"name":"DodaitoseEyeDh","mimeType":"image/x-tga","bufferView":5}],"materials":[{"name":"mat2","pbrMetallicRoughness":{"baseColorTexture":{"index":0},"baseColorFactor":[1,1,1,1],"metallicFactor":0,"roughnessFactor":0.99},"emissiveFactor":[0,0,0],"alphaMode":"OPAQUE","doubleSided":false},{"name":"mat1","pbrMetallicRoughness":{"baseColorTexture":{"index":0},"baseColorFactor":[1,1,1,1],"metallicFactor":0,"roughnessFactor":0.99},"emissiveFactor":[0,0,0],"alphaMode":"OPAQUE","doubleSided":false},{"name":"mat3","pbrMetallicRoughness":{"baseColorTexture":{"index":1},"baseColorFactor":[1,1,1,1],"metallicFactor":0,"roughnessFactor":0.99},"emissiveFactor":[0,0,0],"alphaMode":"OPAQUE","doubleSided":false}],"meshes":[{"name":"polygon0_1","primitives":[{"attributes":{"POSITION":0,"NORMAL":1,"TEXCOORD_0":2},"indices":3,"material":0,"mode":4}]},{"name":"polygon1_1","primitives":[{"attributes":{"POSITION":4,"NORMAL":5,"TEXCOORD_0":6},"indices":7,"material":1,"mode":4}]},{"name":"polygon2_1","primitives":[{"attributes":{"POSITION":8,"NORMAL":9,"TEXCOORD_0":10},"indices":11,"material":2,"mode":4}]}],"nodes":[{"name":"polygon0","mesh":0},{"name":"polygon1","mesh":1},{"name":"polygon2","mesh":2}],"samplers":[{"wrapS":10497,"wrapT":10497}],"scene":0,"scenes":[{"nodes":[0,1,2]}],"textures":[{"name":"DodaitoseDh","sampler":0,"source":0},{"name":"DodaitoseEyeDh","sampler":0,"source":1}]}