{"accessors":[{"name":"polygon0_1_0_positions","componentType":5126,"count":20,"min":[-0.896789014339447,2.945981025695801,1.1291320323944092],"max":[0.896789014339447,4.135974884033203,1.6459800004959106],"type":"VEC3","bufferView":0,"byteOffset":0},{"name":"polygon0_1_0_normals","componentType":5126,"count":20,"min":[-0.8038537502288818,-0.24047395586967468,0.58650803565979],"max":[0.8038537502288818,0.23394596576690674,0.8766388893127441],"type":"VEC3","bufferView":1,"byteOffset":0},{"name":"polygon0_1_0_texcoords","componentType":5126,"count":20,"min":[0.1171879991889,0.039062000811100006],"max":[0.375,0.2304690033197403],"type":"VEC2","bufferView":2,"byteOffset":0},{"name":"polygon0_1_0_indices","componentType":5123,"count":48,"min":[0],"max":[19],"type":"SCALAR","bufferView":3,"byteOffset":0},{"name":"polygon1_1_0_positions","componentType":5126,"count":21,"min":[-0.6599060297012329,2.5375900268554688,0.4476029872894287],"max":[0.6599060297012329,2.83719801902771,1.3261760473251343],"type":"VEC3","bufferView":0,"byteOffset":240},{"name":"polygon1_1_0_normals","componentType":5126,"count":21,"min":[-0.7056859731674194,-0.9924724698066711,-0.26222705841064453],"max":[0.7056859731674194,-0.4841260015964508,0.5173289775848389],"type":"VEC3","bufferView":1,"byteOffset":240},{"name":"polygon1_1_0_texcoords","componentType":5126,"count":21,"min":[0.20547500252723694,0.00802600011229515],"max":[0.8145750164985657,0.19128400087356567],"type":"VEC2","bufferView":2,"byteOffset":160},{"name":"polygon1_1_0_indices","componentType":5123,"count":78,"min":[0],"max":[20],"type":"SCALAR","bufferView":3,"byteOffset":96},{"name":"polygon2_1_0_positions","componentType":5126,"count":1111,"min":[-2.708498001098633,-0.01253500021994114,-1.162350058555603],"max":[2.708498001098633,6.006493091583252,1.7371560335159302],"type":"VEC3","bufferView":0,"byteOffset":492},{"name":"polygon2_1_0_normals","componentType":5126,"count":1111,"min":[-0.9969385862350464,-0.9997227191925049,-0.9998616576194763],"max":[0.9996562600135803,0.9982277750968933,0.9995006322860718],"type":"VEC3","bufferView":1,"byteOffset":492},{"name":"polygon2_1_0_texcoords","componentType":5126,"count":1111,"min":[0.00912499986588955,0.01116899959743023],"max":[0.9815980195999146,0.9909669756889343],"type":"VEC2","bufferView":2,"byteOffset":328},{"name":"polygon2_1_0_indices","componentType":5123,"count":4302,"min":[0],"max":[1110],"type":"SCALAR","bufferView":3,"byteOffset":252}],"asset":{"generator":"obj2gltf","version":"2.0"},"buffers":[{"name":"Chimchar","byteLength":389840,"uri":"data:application/octet-stream;base64,"}],"bufferViews":[{"name":"bufferView_0","buffer":0,"byteLength":13824,"byteOffset":0,"byteStride":12,"target":34962},{"name":"bufferView_1","buffer":0,"byteLength":13824,"byteOffset":13824,"byteStride":12,"target":34962},{"name":"bufferView_2","buffer":0,"byteLength":9216,"byteOffset":27648,"byteStride":8,"target":34962},{"name":"bufferView_3","buffer":0,"byteLength":8856,"byteOffset":36864,"target":34963},{"buffer":0,"byteOffset":45720,"byteLength":98322},{"buffer":0,"byteOffset":144042,"byteLength":49170},{"buffer":0,"byteOffset":193212,"byteLength":196626}],"images":[{"name":"HikozaruEyeDh","mimeType":"image/x-tga","bufferView":4},{"name":"HikozaruMouthDh","mimeType":"image/x-tga","bufferView":5},{"name":"HikozaruDh","mimeType":"image/x-tga","bufferView":6}],"materials":[{"name":"mat2","pbrMetallicRoughness":{"baseColorTexture":{"index":0},"baseColorFactor":[1,1,1,1],"metallicFactor":0,"roughnessFactor":0.99},"emissiveFactor":[0,0,0],"alphaMode":"OPAQUE","doubleSided":false},{"name":"mat3","pbrMetallicRoughness":{"baseColorTexture":{"index":1},"baseColorFactor":[1,1,1,1],"metallicFactor":0,"roughnessFactor":0.99},"emissiveFactor":[0,0,0],"alphaMode":"OPAQUE","doubleSided":false},{"name":"mat1","pbrMetallicRoughness":{"baseColorTexture":{"index":2},"baseColorFactor":[1,1,1,1],"metallicFactor":0,"roughnessFactor":0.99},"emissiveFactor":[0,0,0],"alphaMode":"OPAQUE","doubleSided":false}],"meshes":[{"name":"polygon0_1","primitives":[{"attributes":{"POSITION":0,"NORMAL":1,"TEXCOORD_0":2},"indices":3,"material":0,"mode":4}]},{"name":"polygon1_1","primitives":[{"attributes":{"POSITION":4,"NORMAL":5,"TEXCOORD_0":6},"indices":7,"material":1,"mode":4}]},{"name":"polygon2_1","primitives":[{"attributes":{"POSITION":8,"NORMAL":9,"TEXCOORD_0":10},"indices":11,"material":2,"mode":4}]}],"nodes":[{"name":"polygon0","mesh":0},{"name":"polygon1","mesh":1},{"name":"polygon2","mesh":2}],"samplers":[{"wrapS":10497,"wrapT":10497}],"scene":0,"scenes":[{"nodes":[0,1,2]}],"textures":[{"name":"HikozaruEyeDh","sampler":0,"source":0},{"name":"HikozaruMouthDh","sampler":0,"source":1},{"name":"HikozaruDh","sampler":0,"source":2}]}