{"accessors":[{"name":"moukazaru-Mesh_0_positions","componentType":5126,"count":1571,"min":[-5.745551109313965,-6.994554042816162,-9.16911792755127],"max":[5.745584011077881,1.5157580375671387,0.14166200160980225],"type":"VEC3","bufferView":0,"byteOffset":0},{"name":"moukazaru-Mesh_0_texcoords","componentType":5126,"count":1571,"min":[0.015297000296413898,0.005692000035196543],"max":[0.7324619889259338,0.9721490144729614],"type":"VEC2","bufferView":1,"byteOffset":0},{"name":"moukazaru-Mesh_0_indices","componentType":5123,"count":6660,"min":[0],"max":[1570],"type":"SCALAR","bufferView":2,"byteOffset":0},{"name":"moukazaru-Mesh_1_positions","componentType":5126,"count":18,"min":[-1.280606985092163,0.7281649708747864,-6.8960747718811035],"max":[1.2806060314178467,1.337628960609436,-5.758594989776611],"type":"VEC3","bufferView":0,"byteOffset":18852},{"name":"moukazaru-Mesh_1_texcoords","componentType":5126,"count":18,"min":[0.8065320253372192,0.010354000143706799],"max":[0.9825189709663391,0.1957399994134903],"type":"VEC2","bufferView":1,"byteOffset":12568},{"name":"moukazaru-Mesh_1_indices","componentType":5123,"count":48,"min":[0],"max":[17],"type":"SCALAR","bufferView":2,"byteOffset":13320},{"name":"moukazaru-Mesh_2_positions","componentType":5126,"count":18,"min":[-0.9720640182495117,0.3251209855079651,-5.46871280670166],"max":[0.9720630049705505,1.4078700542449951,-4.95582914352417],"type":"VEC3","bufferView":0,"byteOffset":19068},{"name":"moukazaru-Mesh_2_texcoords","componentType":5126,"count":18,"min":[0.5418220162391663,0.04556399956345558],"max":[0.7177199721336365,0.20972199738025665],"type":"VEC2","bufferView":1,"byteOffset":12712},{"name":"moukazaru-Mesh_2_indices","componentType":5123,"count":66,"min":[0],"max":[17],"type":"SCALAR","bufferView":2,"byteOffset":13416},{"name":"moukazaru-Mesh_3_positions","componentType":5126,"count":377,"min":[-2.1565101146698,-2.884916067123413,-5.991392135620117],"max":[2.1285810470581055,-0.4060269892215729,-0.25404199957847595],"type":"VEC3","bufferView":0,"byteOffset":19284},{"name":"moukazaru-Mesh_3_texcoords","componentType":5126,"count":377,"min":[0.04334099963307381,0.23079800605773926],"max":[0.3858160078525543,0.5665320158004761],"type":"VEC2","bufferView":1,"byteOffset":12856},{"name":"moukazaru-Mesh_3_indices","componentType":5123,"count":1620,"min":[0],"max":[376],"type":"SCALAR","bufferView":2,"byteOffset":13548}],"asset":{"generator":"obj2gltf","version":"2.0"},"buffers":[{"name":"BR_Monferno-Shiny01","byteLength":1105336,"uri":"data:application/octet-stream;base64,"}],"bufferViews":[{"name":"bufferView_0","buffer":0,"byteLength":23808,"byteOffset":0,"byteStride":12,"target":34962},{"name":"bufferView_1","buffer":0,"byteLength":15872,"byteOffset":23808,"byteStride":8,"target":34962},{"name":"bufferView_2","buffer":0,"byteLength":16788,"byteOffset":39680,"target":34963},{"buffer":0,"byteOffset":56468,"byteLength":1048594},{"buffer":0,"byteOffset":1105062,"byteLength":274}],"images":[{"name":"moukazaru_1_0","mimeType":"image/x-tga","bufferView":3},{"name":"moukazaru_1_3","mimeType":"image/x-tga","bufferView":4}],"materials":[{"name":"mat_0","pbrMetallicRoughness":{"baseColorTexture":{"index":0},"baseColorFactor":[1,1,1,1],"metallicFactor":0,"roughnessFactor":0.903921569},"emissiveFactor":[0,0,0],"alphaMode":"BLEND","doubleSided":true},{"name":"mat_1","pbrMetallicRoughness":{"baseColorTexture":{"index":0},"baseColorFactor":[1,1,1,1],"metallicFactor":0,"roughnessFactor":0.903921569},"emissiveFactor":[0,0,0],"alphaMode":"BLEND","doubleSided":true},{"name":"mat_2","pbrMetallicRoughness":{"baseColorTexture":{"index":0},"baseColorFactor":[1,1,1,1],"metallicFactor":0,"roughnessFactor":0.903921569},"emissiveFactor":[0,0,0],"alphaMode":"BLEND","doubleSided":true},{"name":"mat_3","pbrMetallicRoughness":{"baseColorTexture":{"index":1},"baseColorFactor":[1,1,1,1],"metallicFactor":0,"roughnessFactor":0.903921569},"emissiveFactor":[0,0,0],"alphaMode":"BLEND","doubleSided":true}],"meshes":[{"name":"moukazaru-Mesh","primitives":[{"attributes":{"POSITION":0,"TEXCOORD_0":1},"indices":2,"material":0,"mode":4},{"attributes":{"POSITION":3,"TEXCOORD_0":4},"indices":5,"material":1,"mode":4},{"attributes":{"POSITION":6,"TEXCOORD_0":7},"indices":8,"material":2,"mode":4},{"attributes":{"POSITION":9,"TEXCOORD_0":10},"indices":11,"material":3,"mode":4}]}],"nodes":[{"name":"moukazaru","mesh":0}],"samplers":[{"wrapS":10497,"wrapT":10497}],"scene":0,"scenes":[{"nodes":[0]}],"textures":[{"name":"moukazaru_1_0","sampler":0,"source":0},{"name":"moukazaru_1_3","sampler":0,"source":1}]}