{"accessors":[{"name":"polygon0_1_0_positions","componentType":5126,"count":268,"min":[-2.0205979347229004,15.406643867492676,-8.748915672302246],"max":[2.020936965942383,18.70952606201172,1.3165290355682373],"type":"VEC3","bufferView":0,"byteOffset":0},{"name":"polygon0_1_0_normals","componentType":5126,"count":268,"min":[-0.9975107908248901,-0.9982733130455017,-0.9762951135635376],"max":[0.9938518404960632,0.9894046187400818,0.8301459550857544],"type":"VEC3","bufferView":1,"byteOffset":0},{"name":"polygon0_1_0_texcoords","componentType":5126,"count":268,"min":[0.09313999861478806,-0.2000730037689209],"max":[1.7883299589157104,1.0411380529403687],"type":"VEC2","bufferView":2,"byteOffset":0},{"name":"polygon0_1_0_indices","componentType":5123,"count":864,"min":[0],"max":[267],"type":"SCALAR","bufferView":3,"byteOffset":0},{"name":"polygon1_1_0_positions","componentType":5126,"count":94,"min":[-2.659085988998413,14.683496475219727,-9.992265701293945],"max":[2.578253984451294,18.397598266601562,1.5906250476837158],"type":"VEC3","bufferView":0,"byteOffset":3216},{"name":"polygon1_1_0_normals","componentType":5126,"count":94,"min":[-0.9955453276634216,-0.9550917744636536,-0.9666420221328735],"max":[0.9793533682823181,0.9900084137916565,0.768811047077179],"type":"VEC3","bufferView":1,"byteOffset":3216},{"name":"polygon1_1_0_texcoords","componentType":5126,"count":94,"min":[-1.9416500329971313,-0.3516849875450134],"max":[1.691406011581421,1.1936039924621582],"type":"VEC2","bufferView":2,"byteOffset":2144},{"name":"polygon1_1_0_indices","componentType":5123,"count":336,"min":[0],"max":[93],"type":"SCALAR","bufferView":3,"byteOffset":1728},{"name":"polygon2_1_0_positions","componentType":5126,"count":60,"min":[-1.0622220039367676,15.439287185668945,-6.959200859069824],"max":[1.0622220039367676,17.737871170043945,1.5906250476837158],"type":"VEC3","bufferView":0,"byteOffset":4344},{"name":"polygon2_1_0_normals","componentType":5126,"count":60,"min":[-0.9963545799255371,-0.9988689422607422,-0.9845333695411682],"max":[0.9963539838790894,0.9996657967567444,0.8413213491439819],"type":"VEC3","bufferView":1,"byteOffset":4344},{"name":"polygon2_1_0_texcoords","componentType":5126,"count":60,"min":[-0.1333010047674179,-0.176269993185997],"max":[2.691649913787842,1.189574956893921],"type":"VEC2","bufferView":2,"byteOffset":2896},{"name":"polygon2_1_0_indices","componentType":5123,"count":192,"min":[0],"max":[59],"type":"SCALAR","bufferView":3,"byteOffset":2400},{"name":"polygon3_1_0_positions","componentType":5126,"count":16,"min":[-1.2888929843902588,14.024067878723145,0.8388969898223877],"max":[1.2888929843902588,14.831160545349121,1.4941270351409912],"type":"VEC3","bufferView":0,"byteOffset":5064},{"name":"polygon3_1_0_normals","componentType":5126,"count":16,"min":[-0.8514466881752014,-0.35796594619750977,0.516666829586029],"max":[0.8514466881752014,0.15734997391700745,0.9160029888153076],"type":"VEC3","bufferView":1,"byteOffset":5064},{"name":"polygon3_1_0_texcoords","componentType":5126,"count":16,"min":[-0.9848020076751709,0.039611998945474625],"max":[-0.5099490284919739,0.21814000606536865],"type":"VEC2","bufferView":2,"byteOffset":3376},{"name":"polygon3_1_0_indices","componentType":5123,"count":36,"min":[0],"max":[15],"type":"SCALAR","bufferView":3,"byteOffset":2784},{"name":"polygon4_1_0_positions","componentType":5126,"count":1131,"min":[-11.410475730895996,-9.999999974752427e-7,-15.48585319519043],"max":[11.410473823547363,17.37299919128418,1.959844946861267],"type":"VEC3","bufferView":0,"byteOffset":5256},{"name":"polygon4_1_0_normals","componentType":5126,"count":1131,"min":[-0.9998838305473328,-1,-0.9998476505279541],"max":[0.9998838305473328,0.9999090433120728,0.999985933303833],"type":"VEC3","bufferView":1,"byteOffset":5256},{"name":"polygon4_1_0_texcoords","componentType":5126,"count":1131,"min":[0.007354999892413616,0.006804999895393848],"max":[0.993927001953125,0.9938049912452698],"type":"VEC2","bufferView":2,"byteOffset":3504},{"name":"polygon4_1_0_indices","componentType":5123,"count":4128,"min":[0],"max":[1130],"type":"SCALAR","bufferView":3,"byteOffset":2856},{"name":"polygon5_1_0_positions","componentType":5126,"count":36,"min":[-2.825340986251831,14.133676528930664,-3.1590499877929688],"max":[2.825340986251831,17.213645935058594,1.5906250476837158],"type":"VEC3","bufferView":0,"byteOffset":18828},{"name":"polygon5_1_0_normals","componentType":5126,"count":36,"min":[-0.9870498180389404,-0.3211671710014343,-0.9470224976539612],"max":[0.9870498180389404,0.9982654452323914,0.8774451017379761],"type":"VEC3","bufferView":1,"byteOffset":18828},{"name":"polygon5_1_0_texcoords","componentType":5126,"count":36,"min":[0.47976699471473694,0.4035950005054474],"max":[0.7802429795265198,0.5713499784469604],"type":"VEC2","bufferView":2,"byteOffset":12552},{"name":"polygon5_1_0_indices","componentType":5123,"count":114,"min":[0],"max":[35],"type":"SCALAR","bufferView":3,"byteOffset":11112},{"name":"polygon6_1_0_positions","componentType":5126,"count":4,"min":[-2.836543083190918,14.733187675476074,-8.653241157531738],"max":[2.848994016647339,18.477313995361328,-8.653240203857422],"type":"VEC3","bufferView":0,"byteOffset":19260},{"name":"polygon6_1_0_normals","componentType":5126,"count":4,"min":[0,0,1],"max":[0,0,1],"type":"VEC3","bufferView":1,"byteOffset":19260},{"name":"polygon6_1_0_texcoords","componentType":5126,"count":4,"min":[0.5,0.2000119984149933],"max":[0.5,0.7999879717826843],"type":"VEC2","bufferView":2,"byteOffset":12840},{"name":"polygon6_1_0_indices","componentType":5123,"count":6,"min":[0],"max":[3],"type":"SCALAR","bufferView":3,"byteOffset":11340},{"name":"polygon7_1_0_positions","componentType":5126,"count":4,"min":[-1.3763339519500732,15.650703430175781,-9.489372253417969],"max":[1.416787028312683,17.1829776763916,-9.489372253417969],"type":"VEC3","bufferView":0,"byteOffset":19308},{"name":"polygon7_1_0_normals","componentType":5126,"count":4,"min":[0,0,1],"max":[0,0,1],"type":"VEC3","bufferView":1,"byteOffset":19308},{"name":"polygon7_1_0_texcoords","componentType":5126,"count":4,"min":[0.5,0.2000119984149933],"max":[0.5,0.7999879717826843],"type":"VEC2","bufferView":2,"byteOffset":12872},{"name":"polygon7_1_0_indices","componentType":5123,"count":6,"min":[0],"max":[3],"type":"SCALAR","bufferView":3,"byteOffset":11352},{"name":"polygon8_1_0_positions","componentType":5126,"count":4,"min":[-3.8091909885406494,13.95101547241211,-5.212862014770508],"max":[3.706329107284546,19.726573944091797,-4.7322468757629395],"type":"VEC3","bufferView":0,"byteOffset":19356},{"name":"polygon8_1_0_normals","componentType":5126,"count":4,"min":[0.01559300348162651,-0.062371011823415756,0.9979312419891357],"max":[0.01559300348162651,-0.062371011823415756,0.9979312419891357],"type":"VEC3","bufferView":1,"byteOffset":19356},{"name":"polygon8_1_0_texcoords","componentType":5126,"count":4,"min":[0.5,0.2000119984149933],"max":[0.5,0.7999879717826843],"type":"VEC2","bufferView":2,"byteOffset":12904},{"name":"polygon8_1_0_indices","componentType":5123,"count":6,"min":[0],"max":[3],"type":"SCALAR","bufferView":3,"byteOffset":11364},{"name":"polygon9_1_0_positions","componentType":5126,"count":4,"min":[-3.1912429332733154,14.42877197265625,-7.112925052642822],"max":[3.1554369926452637,18.977205276489258,-7.112925052642822],"type":"VEC3","bufferView":0,"byteOffset":19404},{"name":"polygon9_1_0_normals","componentType":5126,"count":4,"min":[0,0,1],"max":[0,0,1],"type":"VEC3","bufferView":1,"byteOffset":19404},{"name":"polygon9_1_0_texcoords","componentType":5126,"count":4,"min":[0.5,0.2000119984149933],"max":[0.5,0.7999879717826843],"type":"VEC2","bufferView":2,"byteOffset":12936},{"name":"polygon9_1_0_indices","componentType":5123,"count":6,"min":[0],"max":[3],"type":"SCALAR","bufferView":3,"byteOffset":11376},{"name":"polygon10_1_0_positions","componentType":5126,"count":4,"min":[-5.455327987670898,12.12615966796875,-3.0200700759887695],"max":[5.452695846557617,20.839200973510742,-1.7609610557556152],"type":"VEC3","bufferView":0,"byteOffset":19452},{"name":"polygon10_1_0_normals","componentType":5126,"count":4,"min":[-0.015501993708312511,0.12401995062828064,0.9921586513519287],"max":[-0.015501993708312511,0.12401995062828064,0.9921586513519287],"type":"VEC3","bufferView":1,"byteOffset":19452},{"name":"polygon10_1_0_texcoords","componentType":5126,"count":4,"min":[0.5,0.2000119984149933],"max":[0.5,0.7999879717826843],"type":"VEC2","bufferView":2,"byteOffset":12968},{"name":"polygon10_1_0_indices","componentType":5123,"count":6,"min":[0],"max":[3],"type":"SCALAR","bufferView":3,"byteOffset":11388},{"name":"polygon11_1_0_positions","componentType":5126,"count":4,"min":[-5.82875919342041,11.4412841796875,0.04730299860239029],"max":[5.832053184509277,21.119522094726562,0.047304000705480576],"type":"VEC3","bufferView":0,"byteOffset":19500},{"name":"polygon11_1_0_normals","componentType":5126,"count":4,"min":[0,0,1],"max":[0,0,1],"type":"VEC3","bufferView":1,"byteOffset":19500},{"name":"polygon11_1_0_texcoords","componentType":5126,"count":4,"min":[0.5,0.2000119984149933],"max":[0.5,0.7999879717826843],"type":"VEC2","bufferView":2,"byteOffset":13000},{"name":"polygon11_1_0_indices","componentType":5123,"count":6,"min":[0],"max":[3],"type":"SCALAR","bufferView":3,"byteOffset":11400}],"asset":{"generator":"obj2gltf","version":"2.0"},"buffers":[{"name":"Infernape","byteLength":366716,"uri":"data:application/octet-stream;base64,"}],"bufferViews":[{"name":"bufferView_0","buffer":0,"byteLength":19548,"byteOffset":0,"byteStride":12,"target":34962},{"name":"bufferView_1","buffer":0,"byteLength":19548,"byteOffset":19548,"byteStride":12,"target":34962},{"name":"bufferView_2","buffer":0,"byteLength":13032,"byteOffset":39096,"byteStride":8,"target":34962},{"name":"bufferView_3","buffer":0,"byteLength":11412,"byteOffset":52128,"target":34963},{"buffer":0,"byteOffset":63540,"byteLength":4114},{"buffer":0,"byteOffset":67654,"byteLength":98322},{"buffer":0,"byteOffset":165976,"byteLength":196626},{"buffer":0,"byteOffset":362602,"byteLength":4114}],"images":[{"name":"GoukazaruFireDh","mimeType":"image/x-tga","bufferView":4},{"name":"GoukazaruEyeDh","mimeType":"image/x-tga","bufferView":5},{"name":"GoukazaruDh","mimeType":"image/x-tga","bufferView":6},{"name":"GoukazaruGlowAnimDh","mimeType":"image/x-tga","bufferView":7}],"materials":[{"name":"mat4","pbrMetallicRoughness":{"baseColorTexture":{"index":0},"baseColorFactor":[1,1,1,1],"metallicFactor":0,"roughnessFactor":0.99},"emissiveFactor":[0,0,0],"alphaMode":"OPAQUE","doubleSided":false},{"name":"mat9","pbrMetallicRoughness":{"baseColorTexture":{"index":0},"baseColorFactor":[1,1,1,1],"metallicFactor":0,"roughnessFactor":0.99},"emissiveFactor":[0,0,0],"alphaMode":"OPAQUE","doubleSided":false},{"name":"mat8","pbrMetallicRoughness":{"baseColorTexture":{"index":0},"baseColorFactor":[1,1,1,1],"metallicFactor":0,"roughnessFactor":0.99},"emissiveFactor":[0,0,0],"alphaMode":"OPAQUE","doubleSided":false},{"name":"mat3","pbrMetallicRoughness":{"baseColorTexture":{"index":1},"baseColorFactor":[1,1,1,1],"metallicFactor":0,"roughnessFactor":0.99},"emissiveFactor":[0,0,0],"alphaMode":"OPAQUE","doubleSided":false},{"name":"mat1","pbrMetallicRoughness":{"baseColorTexture":{"index":2},"baseColorFactor":[1,1,1,1],"metallicFactor":0,"roughnessFactor":0.99},"emissiveFactor":[0,0,0],"alphaMode":"OPAQUE","doubleSided":false},{"name":"mat2","pbrMetallicRoughness":{"baseColorTexture":{"index":2},"baseColorFactor":[1,1,1,1],"metallicFactor":0,"roughnessFactor":0.99},"emissiveFactor":[0,0,0],"alphaMode":"OPAQUE","doubleSided":false},{"name":"mat7","pbrMetallicRoughness":{"baseColorTexture":{"index":3},"baseColorFactor":[1,1,1,1],"metallicFactor":0,"roughnessFactor":0.99},"emissiveFactor":[0,0,0],"alphaMode":"OPAQUE","doubleSided":false},{"name":"mat6","pbrMetallicRoughness":{"baseColorTexture":{"index":3},"baseColorFactor":[1,1,1,1],"metallicFactor":0,"roughnessFactor":0.99},"emissiveFactor":[0,0,0],"alphaMode":"OPAQUE","doubleSided":false},{"name":"mat5","pbrMetallicRoughness":{"baseColorTexture":{"index":3},"baseColorFactor":[1,1,1,1],"metallicFactor":0,"roughnessFactor":0.99},"emissiveFactor":[0,0,0],"alphaMode":"OPAQUE","doubleSided":false}],"meshes":[{"name":"polygon0_1","primitives":[{"attributes":{"POSITION":0,"NORMAL":1,"TEXCOORD_0":2},"indices":3,"material":0,"mode":4}]},{"name":"polygon1_1","primitives":[{"attributes":{"POSITION":4,"NORMAL":5,"TEXCOORD_0":6},"indices":7,"material":1,"mode":4}]},{"name":"polygon2_1","primitives":[{"attributes":{"POSITION":8,"NORMAL":9,"TEXCOORD_0":10},"indices":11,"material":2,"mode":4}]},{"name":"polygon3_1","primitives":[{"attributes":{"POSITION":12,"NORMAL":13,"TEXCOORD_0":14},"indices":15,"material":3,"mode":4}]},{"name":"polygon4_1","primitives":[{"attributes":{"POSITION":16,"NORMAL":17,"TEXCOORD_0":18},"indices":19,"material":4,"mode":4}]},{"name":"polygon5_1","primitives":[{"attributes":{"POSITION":20,"NORMAL":21,"TEXCOORD_0":22},"indices":23,"material":5,"mode":4}]},{"name":"polygon6_1","primitives":[{"attributes":{"POSITION":24,"NORMAL":25,"TEXCOORD_0":26},"indices":27,"material":6,"mode":4}]},{"name":"polygon7_1","primitives":[{"attributes":{"POSITION":28,"NORMAL":29,"TEXCOORD_0":30},"indices":31,"material":6,"mode":4}]},{"name":"polygon8_1","primitives":[{"attributes":{"POSITION":32,"NORMAL":33,"TEXCOORD_0":34},"indices":35,"material":7,"mode":4}]},{"name":"polygon9_1","primitives":[{"attributes":{"POSITION":36,"NORMAL":37,"TEXCOORD_0":38},"indices":39,"material":7,"mode":4}]},{"name":"polygon10_1","primitives":[{"attributes":{"POSITION":40,"NORMAL":41,"TEXCOORD_0":42},"indices":43,"material":8,"mode":4}]},{"name":"polygon11_1","primitives":[{"attributes":{"POSITION":44,"NORMAL":45,"TEXCOORD_0":46},"indices":47,"material":8,"mode":4}]}],"nodes":[{"name":"polygon0","mesh":0},{"name":"polygon1","mesh":1},{"name":"polygon2","mesh":2},{"name":"polygon3","mesh":3},{"name":"polygon4","mesh":4},{"name":"polygon5","mesh":5},{"name":"polygon6","mesh":6},{"name":"polygon7","mesh":7},{"name":"polygon8","mesh":8},{"name":"polygon9","mesh":9},{"name":"polygon10","mesh":10},{"name":"polygon11","mesh":11}],"samplers":[{"wrapS":10497,"wrapT":10497}],"scene":0,"scenes":[{"nodes":[0,1,2,3,4,5,6,7,8,9,10,11]}],"textures":[{"name":"GoukazaruFireDh","sampler":0,"source":0},{"name":"GoukazaruEyeDh","sampler":0,"source":1},{"name":"GoukazaruDh","sampler":0,"source":2},{"name":"GoukazaruGlowAnimDh","sampler":0,"source":3}]}