{"accessors":[{"name":"polygon0_1_0_positions","componentType":5126,"count":20,"min":[-0.8974670171737671,2.379096031188965,0.8014010190963745],"max":[0.8974670171737671,3.0901620388031006,1.2177799940109253],"type":"VEC3","bufferView":0,"byteOffset":0},{"name":"polygon0_1_0_normals","componentType":5126,"count":20,"min":[-0.782433032989502,-0.4996650516986847,0.4674600660800934],"max":[0.782433032989502,0.17396606504917145,0.8926454782485962],"type":"VEC3","bufferView":1,"byteOffset":0},{"name":"polygon0_1_0_texcoords","componentType":5126,"count":20,"min":[1.0128480195999146,0.0028989999555051327],"max":[1.4810789823532104,0.24795499444007874],"type":"VEC2","bufferView":2,"byteOffset":0},{"name":"polygon0_1_0_indices","componentType":5123,"count":48,"min":[0],"max":[19],"type":"SCALAR","bufferView":3,"byteOffset":0},{"name":"polygon1_1_0_positions","componentType":5126,"count":868,"min":[-1.8079379796981812,0.0037529999390244484,-1.3915610313415527],"max":[1.807939052581787,4.063700199127197,1.469635009765625],"type":"VEC3","bufferView":0,"byteOffset":240},{"name":"polygon1_1_0_normals","componentType":5126,"count":868,"min":[-0.9896644949913025,-1,-0.9946826100349426],"max":[0.9896644949913025,0.9989643692970276,0.9999778866767883],"type":"VEC3","bufferView":1,"byteOffset":240},{"name":"polygon1_1_0_texcoords","componentType":5126,"count":868,"min":[0.020966000854969025,0.0039369999431073666],"max":[0.9941409826278687,0.9978640079498291],"type":"VEC2","bufferView":2,"byteOffset":160},{"name":"polygon1_1_0_indices","componentType":5123,"count":4104,"min":[0],"max":[867],"type":"SCALAR","bufferView":3,"byteOffset":96}],"asset":{"generator":"obj2gltf","version":"2.0"},"buffers":[{"name":"Piplup","byteLength":331668,"uri":"data:application/octet-stream;base64,"}],"bufferViews":[{"name":"bufferView_0","buffer":0,"byteLength":10656,"byteOffset":0,"byteStride":12,"target":34962},{"name":"bufferView_1","buffer":0,"byteLength":10656,"byteOffset":10656,"byteStride":12,"target":34962},{"name":"bufferView_2","buffer":0,"byteLength":7104,"byteOffset":21312,"byteStride":8,"target":34962},{"name":"bufferView_3","buffer":0,"byteLength":8304,"byteOffset":28416,"target":34963},{"buffer":0,"byteOffset":36720,"byteLength":98322},{"buffer":0,"byteOffset":135042,"byteLength":196626}],"images":[{"name":"PochamaEyeDh","mimeType":"image/x-tga","bufferView":4},{"name":"PochamaDh","mimeType":"image/x-tga","bufferView":5}],"materials":[{"name":"mat2","pbrMetallicRoughness":{"baseColorTexture":{"index":0},"baseColorFactor":[1,1,1,1],"metallicFactor":0,"roughnessFactor":0.99},"emissiveFactor":[0,0,0],"alphaMode":"OPAQUE","doubleSided":false},{"name":"mat1","pbrMetallicRoughness":{"baseColorTexture":{"index":1},"baseColorFactor":[1,1,1,1],"metallicFactor":0,"roughnessFactor":0.99},"emissiveFactor":[0,0,0],"alphaMode":"OPAQUE","doubleSided":false}],"meshes":[{"name":"polygon0_1","primitives":[{"attributes":{"POSITION":0,"NORMAL":1,"TEXCOORD_0":2},"indices":3,"material":0,"mode":4}]},{"name":"polygon1_1","primitives":[{"attributes":{"POSITION":4,"NORMAL":5,"TEXCOORD_0":6},"indices":7,"material":1,"mode":4}]}],"nodes":[{"name":"polygon0","mesh":0},{"name":"polygon1","mesh":1}],"samplers":[{"wrapS":10497,"wrapT":10497}],"scene":0,"scenes":[{"nodes":[0,1]}],"textures":[{"name":"PochamaEyeDh","sampler":0,"source":0},{"name":"PochamaDh","sampler":0,"source":1}]}