{"accessors":[{"name":"polygon0_1_0_positions","componentType":5126,"count":20,"min":[-0.8293870091438293,5.955491065979004,0.3135739862918854],"max":[0.8293870091438293,6.557711124420166,0.9692050218582153],"type":"VEC3","bufferView":0,"byteOffset":0},{"name":"polygon0_1_0_normals","componentType":5126,"count":20,"min":[-0.8397621512413025,0.07135198265314102,0.5269650816917419],"max":[0.8397621512413025,0.1622369885444641,0.7731152772903442],"type":"VEC3","bufferView":1,"byteOffset":0},{"name":"polygon0_1_0_texcoords","componentType":5126,"count":20,"min":[0.007813000120222569,0.015625],"max":[0.4960939884185791,0.2382809966802597],"type":"VEC2","bufferView":2,"byteOffset":0},{"name":"polygon0_1_0_indices","componentType":5123,"count":60,"min":[0],"max":[19],"type":"SCALAR","bufferView":3,"byteOffset":0},{"name":"polygon1_1_0_positions","componentType":5126,"count":1023,"min":[-4.39275598526001,-0.00029799999902024865,-2.953927993774414],"max":[4.392755031585693,7.694311141967773,1.731773018836975],"type":"VEC3","bufferView":0,"byteOffset":240},{"name":"polygon1_1_0_normals","componentType":5126,"count":1023,"min":[-0.9951708316802979,-0.9999309778213501,-0.9997286796569824],"max":[0.9951708316802979,1,0.9986266493797302],"type":"VEC3","bufferView":1,"byteOffset":240},{"name":"polygon1_1_0_texcoords","componentType":5126,"count":1023,"min":[0.004790999926626682,0.010986000299453735],"max":[0.9877619743347168,0.9951170086860657],"type":"VEC2","bufferView":2,"byteOffset":160},{"name":"polygon1_1_0_indices","componentType":5123,"count":4368,"min":[0],"max":[1022],"type":"SCALAR","bufferView":3,"byteOffset":120}],"asset":{"generator":"obj2gltf","version":"2.0"},"buffers":[{"name":"Prinplup","byteLength":337180,"uri":"data:application/octet-stream;base64,"}],"bufferViews":[{"name":"bufferView_0","buffer":0,"byteLength":12516,"byteOffset":0,"byteStride":12,"target":34962},{"name":"bufferView_1","buffer":0,"byteLength":12516,"byteOffset":12516,"byteStride":12,"target":34962},{"name":"bufferView_2","buffer":0,"byteLength":8344,"byteOffset":25032,"byteStride":8,"target":34962},{"name":"bufferView_3","buffer":0,"byteLength":8856,"byteOffset":33376,"target":34963},{"buffer":0,"byteOffset":42232,"byteLength":98322},{"buffer":0,"byteOffset":140554,"byteLength":196626}],"images":[{"name":"PottaishiEyeDh","mimeType":"image/x-tga","bufferView":4},{"name":"PottaishiDh","mimeType":"image/x-tga","bufferView":5}],"materials":[{"name":"mat2","pbrMetallicRoughness":{"baseColorTexture":{"index":0},"baseColorFactor":[1,1,1,1],"metallicFactor":0,"roughnessFactor":0.99},"emissiveFactor":[0,0,0],"alphaMode":"OPAQUE","doubleSided":false},{"name":"mat1","pbrMetallicRoughness":{"baseColorTexture":{"index":1},"baseColorFactor":[1,1,1,1],"metallicFactor":0,"roughnessFactor":0.99},"emissiveFactor":[0,0,0],"alphaMode":"OPAQUE","doubleSided":false}],"meshes":[{"name":"polygon0_1","primitives":[{"attributes":{"POSITION":0,"NORMAL":1,"TEXCOORD_0":2},"indices":3,"material":0,"mode":4}]},{"name":"polygon1_1","primitives":[{"attributes":{"POSITION":4,"NORMAL":5,"TEXCOORD_0":6},"indices":7,"material":1,"mode":4}]}],"nodes":[{"name":"polygon0","mesh":0},{"name":"polygon1","mesh":1}],"samplers":[{"wrapS":10497,"wrapT":10497}],"scene":0,"scenes":[{"nodes":[0,1]}],"textures":[{"name":"PottaishiEyeDh","sampler":0,"source":0},{"name":"PottaishiDh","sampler":0,"source":1}]}