{"accessors":[{"name":"polygon0_1_0_positions","componentType":5126,"count":1020,"min":[-7.1486921310424805,-0.007205000147223473,-2.90356707572937],"max":[7.148693084716797,16.457731246948242,2.9369699954986572],"type":"VEC3","bufferView":0,"byteOffset":0},{"name":"polygon0_1_0_normals","componentType":5126,"count":1020,"min":[-0.9907113313674927,-0.9988861083984375,-0.9998779296875],"max":[0.9907113313674927,0.9994437098503113,0.9997254610061646],"type":"VEC3","bufferView":1,"byteOffset":0},{"name":"polygon0_1_0_texcoords","componentType":5126,"count":1020,"min":[0.004790999926626682,0.010619999840855598],"max":[0.9966740012168884,0.9953920245170593],"type":"VEC2","bufferView":2,"byteOffset":0},{"name":"polygon0_1_0_indices","componentType":5123,"count":3948,"min":[0],"max":[1019],"type":"SCALAR","bufferView":3,"byteOffset":0},{"name":"polygon1_1_0_positions","componentType":5126,"count":272,"min":[-7.296263217926025,1.6980400085449219,-6.1392669677734375],"max":[7.296263217926025,13.51887321472168,4.201970100402832],"type":"VEC3","bufferView":0,"byteOffset":12240},{"name":"polygon1_1_0_normals","componentType":5126,"count":272,"min":[-0.9913957715034485,-0.7223250865936279,-0.9272945523262024],"max":[0.9913957715034485,0.9587311744689941,0.9987788796424866],"type":"VEC3","bufferView":1,"byteOffset":12240},{"name":"polygon1_1_0_texcoords","componentType":5126,"count":272,"min":[0.08343499898910522,0.01065099984407425],"max":[0.7638239860534668,0.3690490126609802],"type":"VEC2","bufferView":2,"byteOffset":8160},{"name":"polygon1_1_0_indices","componentType":5123,"count":714,"min":[0],"max":[271],"type":"SCALAR","bufferView":3,"byteOffset":7896},{"name":"polygon2_1_0_positions","componentType":5126,"count":26,"min":[-0.9210090041160583,11.754576683044434,0.5624899864196777],"max":[0.9210090041160583,12.498437881469727,1.192958950996399],"type":"VEC3","bufferView":0,"byteOffset":15504},{"name":"polygon2_1_0_normals","componentType":5126,"count":26,"min":[-0.9502485394477844,-0.5315070152282715,0.08804395794868469],"max":[0.9502485394477844,0.9032241106033325,0.7534340620040894],"type":"VEC3","bufferView":1,"byteOffset":15504},{"name":"polygon2_1_0_texcoords","componentType":5126,"count":26,"min":[-0.9255369901657104,0.02435299940407276],"max":[-0.5099490284919739,0.19213899970054626],"type":"VEC2","bufferView":2,"byteOffset":10336},{"name":"polygon2_1_0_indices","componentType":5123,"count":60,"min":[0],"max":[25],"type":"SCALAR","bufferView":3,"byteOffset":9324}],"asset":{"generator":"obj2gltf","version":"2.0"},"buffers":[{"name":"Empoleon","byteLength":346568,"uri":"data:application/octet-stream;base64,"}],"bufferViews":[{"name":"bufferView_0","buffer":0,"byteLength":15816,"byteOffset":0,"byteStride":12,"target":34962},{"name":"bufferView_1","buffer":0,"byteLength":15816,"byteOffset":15816,"byteStride":12,"target":34962},{"name":"bufferView_2","buffer":0,"byteLength":10544,"byteOffset":31632,"byteStride":8,"target":34962},{"name":"bufferView_3","buffer":0,"byteLength":9444,"byteOffset":42176,"target":34963},{"buffer":0,"byteOffset":51620,"byteLength":196626},{"buffer":0,"byteOffset":248246,"byteLength":98322}],"images":[{"name":"EmperteDh","mimeType":"image/x-tga","bufferView":4},{"name":"EmperteEyeDh","mimeType":"image/x-tga","bufferView":5}],"materials":[{"name":"mat1","pbrMetallicRoughness":{"baseColorTexture":{"index":0},"baseColorFactor":[1,1,1,1],"metallicFactor":0,"roughnessFactor":0.99},"emissiveFactor":[0,0,0],"alphaMode":"OPAQUE","doubleSided":false},{"name":"mat3","pbrMetallicRoughness":{"baseColorTexture":{"index":0},"baseColorFactor":[1,1,1,1],"metallicFactor":0,"roughnessFactor":0.99},"emissiveFactor":[0,0,0],"alphaMode":"OPAQUE","doubleSided":false},{"name":"mat2","pbrMetallicRoughness":{"baseColorTexture":{"index":1},"baseColorFactor":[1,1,1,1],"metallicFactor":0,"roughnessFactor":0.99},"emissiveFactor":[0,0,0],"alphaMode":"OPAQUE","doubleSided":false}],"meshes":[{"name":"polygon0_1","primitives":[{"attributes":{"POSITION":0,"NORMAL":1,"TEXCOORD_0":2},"indices":3,"material":0,"mode":4}]},{"name":"polygon1_1","primitives":[{"attributes":{"POSITION":4,"NORMAL":5,"TEXCOORD_0":6},"indices":7,"material":1,"mode":4}]},{"name":"polygon2_1","primitives":[{"attributes":{"POSITION":8,"NORMAL":9,"TEXCOORD_0":10},"indices":11,"material":2,"mode":4}]}],"nodes":[{"name":"polygon0","mesh":0},{"name":"polygon1","mesh":1},{"name":"polygon2","mesh":2}],"samplers":[{"wrapS":10497,"wrapT":10497}],"scene":0,"scenes":[{"nodes":[0,1,2]}],"textures":[{"name":"EmperteDh","sampler":0,"source":0},{"name":"EmperteEyeDh","sampler":0,"source":1}]}