{"accessors":[{"name":"polygon0_1_0_positions","componentType":5126,"count":32,"min":[-0.591884970664978,1.7849960327148438,0.865776002407074],"max":[0.591884970664978,2.3165640830993652,1.1592600345611572],"type":"VEC3","bufferView":0,"byteOffset":0},{"name":"polygon0_1_0_normals","componentType":5126,"count":32,"min":[-0.8032347559928894,-0.19048795104026794,0.5941368341445923],"max":[0.8032347559928894,0.24805298447608948,0.9122759103775024],"type":"VEC3","bufferView":1,"byteOffset":0},{"name":"polygon0_1_0_texcoords","componentType":5126,"count":32,"min":[0.006256000138819218,0.004608000162988901],"max":[0.5413820147514343,0.2430109977722168],"type":"VEC2","bufferView":2,"byteOffset":0},{"name":"polygon0_1_0_indices","componentType":5123,"count":108,"min":[0],"max":[31],"type":"SCALAR","bufferView":3,"byteOffset":0},{"name":"polygon1_1_0_positions","componentType":5126,"count":1125,"min":[-4.744537830352783,-0.04926599934697151,-2.4186949729919434],"max":[4.744536876678467,3.3564910888671875,1.8761789798736572],"type":"VEC3","bufferView":0,"byteOffset":384},{"name":"polygon1_1_0_normals","componentType":5126,"count":1125,"min":[-0.9957956075668335,-0.999856173992157,-0.9990981817245483],"max":[0.9957956075668335,0.9909522533416748,0.9948413372039795],"type":"VEC3","bufferView":1,"byteOffset":384},{"name":"polygon1_1_0_texcoords","componentType":5126,"count":1125,"min":[0.017090000212192535,0.0014649999793618917],"max":[0.9946290254592896,0.9877319931983948],"type":"VEC2","bufferView":2,"byteOffset":256},{"name":"polygon1_1_0_indices","componentType":5123,"count":4404,"min":[0],"max":[1124],"type":"SCALAR","bufferView":3,"byteOffset":216}],"asset":{"generator":"obj2gltf","version":"2.0"},"buffers":[{"name":"Starly","byteLength":340996,"uri":"data:application/octet-stream;base64,"}],"bufferViews":[{"name":"bufferView_0","buffer":0,"byteLength":13884,"byteOffset":0,"byteStride":12,"target":34962},{"name":"bufferView_1","buffer":0,"byteLength":13884,"byteOffset":13884,"byteStride":12,"target":34962},{"name":"bufferView_2","buffer":0,"byteLength":9256,"byteOffset":27768,"byteStride":8,"target":34962},{"name":"bufferView_3","buffer":0,"byteLength":9024,"byteOffset":37024,"target":34963},{"buffer":0,"byteOffset":46048,"byteLength":98322},{"buffer":0,"byteOffset":144370,"byteLength":196626}],"images":[{"name":"MukkuruEyeDh","mimeType":"image/x-tga","bufferView":4},{"name":"MukkuruDh","mimeType":"image/x-tga","bufferView":5}],"materials":[{"name":"mat2","pbrMetallicRoughness":{"baseColorTexture":{"index":0},"baseColorFactor":[1,1,1,1],"metallicFactor":0,"roughnessFactor":0.99},"emissiveFactor":[0,0,0],"alphaMode":"OPAQUE","doubleSided":false},{"name":"mat1","pbrMetallicRoughness":{"baseColorTexture":{"index":1},"baseColorFactor":[1,1,1,1],"metallicFactor":0,"roughnessFactor":0.99},"emissiveFactor":[0,0,0],"alphaMode":"OPAQUE","doubleSided":false}],"meshes":[{"name":"polygon0_1","primitives":[{"attributes":{"POSITION":0,"NORMAL":1,"TEXCOORD_0":2},"indices":3,"material":0,"mode":4}]},{"name":"polygon1_1","primitives":[{"attributes":{"POSITION":4,"NORMAL":5,"TEXCOORD_0":6},"indices":7,"material":1,"mode":4}]}],"nodes":[{"name":"polygon0","mesh":0},{"name":"polygon1","mesh":1}],"samplers":[{"wrapS":10497,"wrapT":10497}],"scene":0,"scenes":[{"nodes":[0,1]}],"textures":[{"name":"MukkuruEyeDh","sampler":0,"source":0},{"name":"MukkuruDh","sampler":0,"source":1}]}