{"accessors":[{"name":"polygon0_1_0_positions","componentType":5126,"count":22,"min":[-0.642270028591156,3.5197129249572754,1.310811996459961],"max":[0.6422690153121948,3.9454030990600586,1.7034529447555542],"type":"VEC3","bufferView":0,"byteOffset":0},{"name":"polygon0_1_0_normals","componentType":5126,"count":22,"min":[-0.8510844707489014,-0.14718206226825714,0.5024892687797546],"max":[0.8510826230049133,0.15218308568000793,0.8979383111000061],"type":"VEC3","bufferView":1,"byteOffset":0},{"name":"polygon0_1_0_texcoords","componentType":5126,"count":22,"min":[0.054687999188899994,0.05859399959445],"max":[0.4882810115814209,0.2265619933605194],"type":"VEC2","bufferView":2,"byteOffset":0},{"name":"polygon0_1_0_indices","componentType":5123,"count":66,"min":[0],"max":[21],"type":"SCALAR","bufferView":3,"byteOffset":0},{"name":"polygon1_1_0_positions","componentType":5126,"count":1084,"min":[-6.606679916381836,-0.06210000067949295,-3.3655030727386475],"max":[6.6066789627075195,5.98557710647583,2.482822895050049],"type":"VEC3","bufferView":0,"byteOffset":264},{"name":"polygon1_1_0_normals","componentType":5126,"count":1084,"min":[-0.9949702620506287,-0.9985619783401489,-0.9997996091842651],"max":[0.9949702620506287,0.999997615814209,0.9997013807296753],"type":"VEC3","bufferView":1,"byteOffset":264},{"name":"polygon1_1_0_texcoords","componentType":5126,"count":1084,"min":[0.0016169999726116657,0.00762900011613965],"max":[0.9956049919128418,0.9914860129356384],"type":"VEC2","bufferView":2,"byteOffset":176},{"name":"polygon1_1_0_indices","componentType":5123,"count":4530,"min":[0],"max":[1083],"type":"SCALAR","bufferView":3,"byteOffset":132}],"asset":{"generator":"obj2gltf","version":"2.0"},"buffers":[{"name":"Staravia","byteLength":339532,"uri":"data:application/octet-stream;base64,"}],"bufferViews":[{"name":"bufferView_0","buffer":0,"byteLength":13272,"byteOffset":0,"byteStride":12,"target":34962},{"name":"bufferView_1","buffer":0,"byteLength":13272,"byteOffset":13272,"byteStride":12,"target":34962},{"name":"bufferView_2","buffer":0,"byteLength":8848,"byteOffset":26544,"byteStride":8,"target":34962},{"name":"bufferView_3","buffer":0,"byteLength":9192,"byteOffset":35392,"target":34963},{"buffer":0,"byteOffset":44584,"byteLength":98322},{"buffer":0,"byteOffset":142906,"byteLength":196626}],"images":[{"name":"MukubirdEyeDh","mimeType":"image/x-tga","bufferView":4},{"name":"MukubirdDh","mimeType":"image/x-tga","bufferView":5}],"materials":[{"name":"mat2","pbrMetallicRoughness":{"baseColorTexture":{"index":0},"baseColorFactor":[1,1,1,1],"metallicFactor":0,"roughnessFactor":0.99},"emissiveFactor":[0,0,0],"alphaMode":"OPAQUE","doubleSided":false},{"name":"mat1","pbrMetallicRoughness":{"baseColorTexture":{"index":1},"baseColorFactor":[1,1,1,1],"metallicFactor":0,"roughnessFactor":0.99},"emissiveFactor":[0,0,0],"alphaMode":"OPAQUE","doubleSided":false}],"meshes":[{"name":"polygon0_1","primitives":[{"attributes":{"POSITION":0,"NORMAL":1,"TEXCOORD_0":2},"indices":3,"material":0,"mode":4}]},{"name":"polygon1_1","primitives":[{"attributes":{"POSITION":4,"NORMAL":5,"TEXCOORD_0":6},"indices":7,"material":1,"mode":4}]}],"nodes":[{"name":"polygon0","mesh":0},{"name":"polygon1","mesh":1}],"samplers":[{"wrapS":10497,"wrapT":10497}],"scene":0,"scenes":[{"nodes":[0,1]}],"textures":[{"name":"MukubirdEyeDh","sampler":0,"source":0},{"name":"MukubirdDh","sampler":0,"source":1}]}