{"accessors":[{"name":"polygon0_1_0_positions","componentType":5126,"count":23,"min":[-1.08120596408844,7.462563991546631,3.841726064682007],"max":[1.08120596408844,8.339262008666992,4.695265769958496],"type":"VEC3","bufferView":0,"byteOffset":0},{"name":"polygon0_1_0_normals","componentType":5126,"count":23,"min":[-0.8255568742752075,-0.7500491738319397,0.5181053280830383],"max":[0.8255568742752075,-0.1215909868478775,0.8098957538604736],"type":"VEC3","bufferView":1,"byteOffset":0},{"name":"polygon0_1_0_texcoords","componentType":5126,"count":23,"min":[0.012969999574124813,0.007538000121712685],"max":[0.4870299994945526,0.9417110085487366],"type":"VEC2","bufferView":2,"byteOffset":0},{"name":"polygon0_1_0_indices","componentType":5123,"count":60,"min":[0],"max":[22],"type":"SCALAR","bufferView":3,"byteOffset":0},{"name":"polygon1_1_0_positions","componentType":5126,"count":1117,"min":[-18.006383895874023,-0.24384599924087524,-9.566872596740723],"max":[18.006383895874023,11.596290588378906,6.283627986907959],"type":"VEC3","bufferView":0,"byteOffset":276},{"name":"polygon1_1_0_normals","componentType":5126,"count":1117,"min":[-0.9906496405601501,-0.9899453520774841,-0.9963132739067078],"max":[0.9906496405601501,0.9878697395324707,0.9996796250343323],"type":"VEC3","bufferView":1,"byteOffset":276},{"name":"polygon1_1_0_texcoords","componentType":5126,"count":1117,"min":[0.0031739999540150166,0.012360000051558018],"max":[0.9971010088920593,0.9975280165672302],"type":"VEC2","bufferView":2,"byteOffset":184},{"name":"polygon1_1_0_indices","componentType":5123,"count":4650,"min":[0],"max":[1116],"type":"SCALAR","bufferView":3,"byteOffset":120}],"asset":{"generator":"obj2gltf","version":"2.0"},"buffers":[{"name":"Staraptor","byteLength":507552,"uri":"data:application/octet-stream;base64,"}],"bufferViews":[{"name":"bufferView_0","buffer":0,"byteLength":13680,"byteOffset":0,"byteStride":12,"target":34962},{"name":"bufferView_1","buffer":0,"byteLength":13680,"byteOffset":13680,"byteStride":12,"target":34962},{"name":"bufferView_2","buffer":0,"byteLength":9120,"byteOffset":27360,"byteStride":8,"target":34962},{"name":"bufferView_3","buffer":0,"byteLength":9420,"byteOffset":36480,"target":34963},{"buffer":0,"byteOffset":45900,"byteLength":98322},{"buffer":0,"byteOffset":144222,"byteLength":363330}],"images":[{"name":"MukuhawkEyeDh","mimeType":"image/x-tga","bufferView":4},{"name":"MukuhawkDh","mimeType":"image/x-tga","bufferView":5}],"materials":[{"name":"mat2","pbrMetallicRoughness":{"baseColorTexture":{"index":0},"baseColorFactor":[1,1,1,1],"metallicFactor":0,"roughnessFactor":0.99},"emissiveFactor":[0,0,0],"alphaMode":"OPAQUE","doubleSided":false},{"name":"mat1","pbrMetallicRoughness":{"baseColorTexture":{"index":1},"baseColorFactor":[1,1,1,1],"metallicFactor":0,"roughnessFactor":0.99},"emissiveFactor":[0,0,0],"alphaMode":"OPAQUE","doubleSided":false}],"meshes":[{"name":"polygon0_1","primitives":[{"attributes":{"POSITION":0,"NORMAL":1,"TEXCOORD_0":2},"indices":3,"material":0,"mode":4}]},{"name":"polygon1_1","primitives":[{"attributes":{"POSITION":4,"NORMAL":5,"TEXCOORD_0":6},"indices":7,"material":1,"mode":4}]}],"nodes":[{"name":"polygon0","mesh":0},{"name":"polygon1","mesh":1}],"samplers":[{"wrapS":10497,"wrapT":10497}],"scene":0,"scenes":[{"nodes":[0,1]}],"textures":[{"name":"MukuhawkEyeDh","sampler":0,"source":0},{"name":"MukuhawkDh","sampler":0,"source":1}]}