{"accessors":[{"name":"polygon0_1_0_positions","componentType":5126,"count":838,"min":[-1.6191869974136353,-0.005824000108987093,-2.014307975769043],"max":[1.6191869974136353,3.16408109664917,3.0062270164489746],"type":"VEC3","bufferView":0,"byteOffset":0},{"name":"polygon0_1_0_normals","componentType":5126,"count":838,"min":[-0.9990607500076294,-0.9995360970497131,-0.9999554753303528],"max":[0.9990607500076294,0.9985662698745728,0.9973985552787781],"type":"VEC3","bufferView":1,"byteOffset":0},{"name":"polygon0_1_0_texcoords","componentType":5126,"count":838,"min":[0.0057680001482367516,0.005890000145882368],"max":[0.9906920194625854,0.9924010038375854],"type":"VEC2","bufferView":2,"byteOffset":0},{"name":"polygon0_1_0_indices","componentType":5123,"count":3705,"min":[0],"max":[837],"type":"SCALAR","bufferView":3,"byteOffset":0},{"name":"polygon1_1_0_positions","componentType":5126,"count":8,"min":[-0.7145619988441467,1.789957046508789,2.248784065246582],"max":[0.7145619988441467,2.3753669261932373,2.575084924697876],"type":"VEC3","bufferView":0,"byteOffset":10056},{"name":"polygon1_1_0_normals","componentType":5126,"count":8,"min":[-0.6793296337127686,0.22705388069152832,0.6552780270576477],"max":[0.6793296337127686,0.5203219652175903,0.8232571482658386],"type":"VEC3","bufferView":1,"byteOffset":10056},{"name":"polygon1_1_0_texcoords","componentType":5126,"count":8,"min":[0.0859379991889,0.011718999594449997],"max":[0.3554689884185791,0.171875],"type":"VEC2","bufferView":2,"byteOffset":6704},{"name":"polygon1_1_0_indices","componentType":5123,"count":12,"min":[0],"max":[7],"type":"SCALAR","bufferView":3,"byteOffset":7412}],"asset":{"generator":"obj2gltf","version":"2.0"},"buffers":[{"name":"Bidoof","byteLength":329456,"uri":"data:application/octet-stream;base64,"}],"bufferViews":[{"name":"bufferView_0","buffer":0,"byteLength":10152,"byteOffset":0,"byteStride":12,"target":34962},{"name":"bufferView_1","buffer":0,"byteLength":10152,"byteOffset":10152,"byteStride":12,"target":34962},{"name":"bufferView_2","buffer":0,"byteLength":6768,"byteOffset":20304,"byteStride":8,"target":34962},{"name":"bufferView_3","buffer":0,"byteLength":7436,"byteOffset":27072,"target":34963},{"buffer":0,"byteOffset":34508,"byteLength":196626},{"buffer":0,"byteOffset":231134,"byteLength":98322}],"images":[{"name":"BippaDh","mimeType":"image/x-tga","bufferView":4},{"name":"BippaEyeDh","mimeType":"image/x-tga","bufferView":5}],"materials":[{"name":"mat1","pbrMetallicRoughness":{"baseColorTexture":{"index":0},"baseColorFactor":[1,1,1,1],"metallicFactor":0,"roughnessFactor":0.99},"emissiveFactor":[0,0,0],"alphaMode":"OPAQUE","doubleSided":false},{"name":"mat2","pbrMetallicRoughness":{"baseColorTexture":{"index":1},"baseColorFactor":[1,1,1,1],"metallicFactor":0,"roughnessFactor":0.99},"emissiveFactor":[0,0,0],"alphaMode":"OPAQUE","doubleSided":false}],"meshes":[{"name":"polygon0_1","primitives":[{"attributes":{"POSITION":0,"NORMAL":1,"TEXCOORD_0":2},"indices":3,"material":0,"mode":4}]},{"name":"polygon1_1","primitives":[{"attributes":{"POSITION":4,"NORMAL":5,"TEXCOORD_0":6},"indices":7,"material":1,"mode":4}]}],"nodes":[{"name":"polygon0","mesh":0},{"name":"polygon1","mesh":1}],"samplers":[{"wrapS":10497,"wrapT":10497}],"scene":0,"scenes":[{"nodes":[0,1]}],"textures":[{"name":"BippaDh","sampler":0,"source":0},{"name":"BippaEyeDh","sampler":0,"source":1}]}