{"accessors":[{"name":"polygon0_1_0_positions","componentType":5126,"count":1065,"min":[-3.188447952270508,-0.007559000048786402,-9.58366584777832],"max":[3.188447952270508,9.259735107421875,5.904207229614258],"type":"VEC3","bufferView":0,"byteOffset":0},{"name":"polygon0_1_0_normals","componentType":5126,"count":1065,"min":[-0.9993176460266113,-1,-0.9983152151107788],"max":[0.9993176460266113,0.9998032450675964,0.9996598362922668],"type":"VEC3","bufferView":1,"byteOffset":0},{"name":"polygon0_1_0_texcoords","componentType":5126,"count":1065,"min":[0.005249000154435635,0.007110999897122383],"max":[0.995635986328125,0.995635986328125],"type":"VEC2","bufferView":2,"byteOffset":0},{"name":"polygon0_1_0_indices","componentType":5123,"count":4521,"min":[0],"max":[1064],"type":"SCALAR","bufferView":3,"byteOffset":0},{"name":"polygon1_1_0_positions","componentType":5126,"count":16,"min":[-1.4032909870147705,3.2305688858032227,5.146496772766113],"max":[1.4032909870147705,4.089478015899658,5.755724906921387],"type":"VEC3","bufferView":0,"byteOffset":12780},{"name":"polygon1_1_0_normals","componentType":5126,"count":16,"min":[-0.6382219791412354,-0.5465049743652344,0.5665859580039978],"max":[0.6382219791412354,-0.1329350471496582,0.9628353714942932],"type":"VEC3","bufferView":1,"byteOffset":12780},{"name":"polygon1_1_0_texcoords","componentType":5126,"count":16,"min":[0.007813000120222569,0.05078100040555],"max":[0.4921880066394806,0.2382809966802597],"type":"VEC2","bufferView":2,"byteOffset":8520},{"name":"polygon1_1_0_indices","componentType":5123,"count":36,"min":[0],"max":[15],"type":"SCALAR","bufferView":3,"byteOffset":9044}],"asset":{"generator":"obj2gltf","version":"2.0"},"buffers":[{"name":"Bibarel","byteLength":338656,"uri":"data:application/octet-stream;base64,"}],"bufferViews":[{"name":"bufferView_0","buffer":0,"byteLength":12972,"byteOffset":0,"byteStride":12,"target":34962},{"name":"bufferView_1","buffer":0,"byteLength":12972,"byteOffset":12972,"byteStride":12,"target":34962},{"name":"bufferView_2","buffer":0,"byteLength":8648,"byteOffset":25944,"byteStride":8,"target":34962},{"name":"bufferView_3","buffer":0,"byteLength":9116,"byteOffset":34592,"target":34963},{"buffer":0,"byteOffset":43708,"byteLength":196626},{"buffer":0,"byteOffset":240334,"byteLength":98322}],"images":[{"name":"BeadaruDh","mimeType":"image/x-tga","bufferView":4},{"name":"BeadaruEyeDh","mimeType":"image/x-tga","bufferView":5}],"materials":[{"name":"mat1","pbrMetallicRoughness":{"baseColorTexture":{"index":0},"baseColorFactor":[1,1,1,1],"metallicFactor":0,"roughnessFactor":0.99},"emissiveFactor":[0,0,0],"alphaMode":"OPAQUE","doubleSided":false},{"name":"mat2","pbrMetallicRoughness":{"baseColorTexture":{"index":1},"baseColorFactor":[1,1,1,1],"metallicFactor":0,"roughnessFactor":0.99},"emissiveFactor":[0,0,0],"alphaMode":"OPAQUE","doubleSided":false}],"meshes":[{"name":"polygon0_1","primitives":[{"attributes":{"POSITION":0,"NORMAL":1,"TEXCOORD_0":2},"indices":3,"material":0,"mode":4}]},{"name":"polygon1_1","primitives":[{"attributes":{"POSITION":4,"NORMAL":5,"TEXCOORD_0":6},"indices":7,"material":1,"mode":4}]}],"nodes":[{"name":"polygon0","mesh":0},{"name":"polygon1","mesh":1}],"samplers":[{"wrapS":10497,"wrapT":10497}],"scene":0,"scenes":[{"nodes":[0,1]}],"textures":[{"name":"BeadaruDh","sampler":0,"source":0},{"name":"BeadaruEyeDh","sampler":0,"source":1}]}