{"accessors":[{"name":"korobohshi-Mesh_0_positions","componentType":5126,"count":23,"min":[-0.4758549928665161,0.459089994430542,-1.8837130069732666],"max":[0.4758549928665161,0.7169150114059448,-1.6101490259170532],"type":"VEC3","bufferView":0,"byteOffset":0},{"name":"korobohshi-Mesh_0_texcoords","componentType":5126,"count":23,"min":[0.83473801612854,0.06130300089716911],"max":[0.9917479753494263,0.15386100113391876],"type":"VEC2","bufferView":1,"byteOffset":0},{"name":"korobohshi-Mesh_0_indices","componentType":5123,"count":78,"min":[0],"max":[22],"type":"SCALAR","bufferView":2,"byteOffset":0},{"name":"korobohshi-Mesh_1_positions","componentType":5126,"count":1729,"min":[-0.9440690279006958,-0.8773239850997925,-2.9996469020843506],"max":[0.9440699815750122,1.1342990398406982,0.0005050000036135316],"type":"VEC3","bufferView":0,"byteOffset":276},{"name":"korobohshi-Mesh_1_texcoords","componentType":5126,"count":1729,"min":[0.031456999480724335,0.06849599629640579],"max":[0.7965599894523621,0.9784659743309021],"type":"VEC2","bufferView":1,"byteOffset":184},{"name":"korobohshi-Mesh_1_indices","componentType":5123,"count":8298,"min":[0],"max":[1728],"type":"SCALAR","bufferView":2,"byteOffset":156}],"asset":{"generator":"obj2gltf","version":"2.0"},"buffers":[{"name":"BR_Kricketot-Shiny01","byteLength":1100388,"uri":"data:application/octet-stream;base64,"}],"bufferViews":[{"name":"bufferView_0","buffer":0,"byteLength":21024,"byteOffset":0,"byteStride":12,"target":34962},{"name":"bufferView_1","buffer":0,"byteLength":14016,"byteOffset":21024,"byteStride":8,"target":34962},{"name":"bufferView_2","buffer":0,"byteLength":16752,"byteOffset":35040,"target":34963},{"buffer":0,"byteOffset":51792,"byteLength":1048594}],"images":[{"name":"korobohshi_1_0","mimeType":"image/x-tga","bufferView":3}],"materials":[{"name":"mat_0","pbrMetallicRoughness":{"baseColorTexture":{"index":0},"baseColorFactor":[1,1,1,1],"metallicFactor":0,"roughnessFactor":0.903921569},"emissiveFactor":[0,0,0],"alphaMode":"BLEND","doubleSided":true},{"name":"mat_1","pbrMetallicRoughness":{"baseColorTexture":{"index":0},"baseColorFactor":[1,1,1,1],"metallicFactor":0,"roughnessFactor":0.903921569},"emissiveFactor":[0,0,0],"alphaMode":"BLEND","doubleSided":true}],"meshes":[{"name":"korobohshi-Mesh","primitives":[{"attributes":{"POSITION":0,"TEXCOORD_0":1},"indices":2,"material":0,"mode":4},{"attributes":{"POSITION":3,"TEXCOORD_0":4},"indices":5,"material":1,"mode":4}]}],"nodes":[{"name":"korobohshi","mesh":0}],"samplers":[{"wrapS":10497,"wrapT":10497}],"scene":0,"scenes":[{"nodes":[0]}],"textures":[{"name":"korobohshi_1_0","sampler":0,"source":0}]}