{"accessors":[{"name":"polygon0_1_0_positions","componentType":5126,"count":698,"min":[-1.858154058456421,-0.000018999999156221747,-3.5151960849761963],"max":[1.858154058456421,3.9846599102020264,2.3003880977630615],"type":"VEC3","bufferView":0,"byteOffset":0},{"name":"polygon0_1_0_normals","componentType":5126,"count":698,"min":[-1,-1,-0.9996012449264526],"max":[1,1,0.9997476935386658],"type":"VEC3","bufferView":1,"byteOffset":0},{"name":"polygon0_1_0_texcoords","componentType":5126,"count":698,"min":[0.00534099992364645,0.009308000095188618],"max":[0.9969180226325989,0.9935299754142761],"type":"VEC2","bufferView":2,"byteOffset":0},{"name":"polygon0_1_0_indices","componentType":5123,"count":3102,"min":[0],"max":[697],"type":"SCALAR","bufferView":3,"byteOffset":0},{"name":"polygon1_1_0_positions","componentType":5126,"count":20,"min":[-0.8860949873924255,1.9849950075149536,1.6760289669036865],"max":[0.8860949873924255,2.919711112976074,2.115557909011841],"type":"VEC3","bufferView":0,"byteOffset":8376},{"name":"polygon1_1_0_normals","componentType":5126,"count":20,"min":[-0.7610967755317688,-0.4632628262042999,0.4549579918384552],"max":[0.7610967755317688,0.6394079923629761,0.9168118834495544],"type":"VEC3","bufferView":1,"byteOffset":8376},{"name":"polygon1_1_0_texcoords","componentType":5126,"count":20,"min":[0.007813000120222569,0.0039059999398887157],"max":[0.4960939884185791,0.2460940033197403],"type":"VEC2","bufferView":2,"byteOffset":5584},{"name":"polygon1_1_0_indices","componentType":5123,"count":48,"min":[0],"max":[19],"type":"SCALAR","bufferView":3,"byteOffset":6204},{"name":"polygon2_1_0_positions","componentType":5126,"count":12,"min":[-0.40417200326919556,1.5533260107040405,1.5747729539871216],"max":[0.40417200326919556,2.1710970401763916,2.2321579456329346],"type":"VEC3","bufferView":0,"byteOffset":8616},{"name":"polygon2_1_0_normals","componentType":5126,"count":12,"min":[-0.42467403411865234,-0.9336127042770386,0.3055379092693329],"max":[0.42467403411865234,-0.1501450389623642,0.9565897583961487],"type":"VEC3","bufferView":1,"byteOffset":8616},{"name":"polygon2_1_0_texcoords","componentType":5126,"count":12,"min":[0.1367190033197403,0.0039059999398887157],"max":[0.3671880066394806,0.2460940033197403],"type":"VEC2","bufferView":2,"byteOffset":5744},{"name":"polygon2_1_0_indices","componentType":5123,"count":36,"min":[0],"max":[11],"type":"SCALAR","bufferView":3,"byteOffset":6300}],"asset":{"generator":"obj2gltf","version":"2.0"},"buffers":[{"name":"Shinx","byteLength":423004,"uri":"data:application/octet-stream;base64,"}],"bufferViews":[{"name":"bufferView_0","buffer":0,"byteLength":8760,"byteOffset":0,"byteStride":12,"target":34962},{"name":"bufferView_1","buffer":0,"byteLength":8760,"byteOffset":8760,"byteStride":12,"target":34962},{"name":"bufferView_2","buffer":0,"byteLength":5840,"byteOffset":17520,"byteStride":8,"target":34962},{"name":"bufferView_3","buffer":0,"byteLength":6372,"byteOffset":23360,"target":34963},{"buffer":0,"byteOffset":29732,"byteLength":196626},{"buffer":0,"byteOffset":226358,"byteLength":98322},{"buffer":0,"byteOffset":324680,"byteLength":98322}],"images":[{"name":"KolinkDh","mimeType":"image/x-tga","bufferView":4},{"name":"KolinkEyeDh","mimeType":"image/x-tga","bufferView":5},{"name":"KolinkMouthDh","mimeType":"image/x-tga","bufferView":6}],"materials":[{"name":"mat1","pbrMetallicRoughness":{"baseColorTexture":{"index":0},"baseColorFactor":[1,1,1,1],"metallicFactor":0,"roughnessFactor":0.99},"emissiveFactor":[0,0,0],"alphaMode":"OPAQUE","doubleSided":false},{"name":"mat2","pbrMetallicRoughness":{"baseColorTexture":{"index":1},"baseColorFactor":[1,1,1,1],"metallicFactor":0,"roughnessFactor":0.99},"emissiveFactor":[0,0,0],"alphaMode":"OPAQUE","doubleSided":false},{"name":"mat3","pbrMetallicRoughness":{"baseColorTexture":{"index":2},"baseColorFactor":[1,1,1,1],"metallicFactor":0,"roughnessFactor":0.99},"emissiveFactor":[0,0,0],"alphaMode":"OPAQUE","doubleSided":false}],"meshes":[{"name":"polygon0_1","primitives":[{"attributes":{"POSITION":0,"NORMAL":1,"TEXCOORD_0":2},"indices":3,"material":0,"mode":4}]},{"name":"polygon1_1","primitives":[{"attributes":{"POSITION":4,"NORMAL":5,"TEXCOORD_0":6},"indices":7,"material":1,"mode":4}]},{"name":"polygon2_1","primitives":[{"attributes":{"POSITION":8,"NORMAL":9,"TEXCOORD_0":10},"indices":11,"material":2,"mode":4}]}],"nodes":[{"name":"polygon0","mesh":0},{"name":"polygon1","mesh":1},{"name":"polygon2","mesh":2}],"samplers":[{"wrapS":10497,"wrapT":10497}],"scene":0,"scenes":[{"nodes":[0,1,2]}],"textures":[{"name":"KolinkDh","sampler":0,"source":0},{"name":"KolinkEyeDh","sampler":0,"source":1},{"name":"KolinkMouthDh","sampler":0,"source":2}]}