{"accessors":[{"name":"luxio-Mesh_0_positions","componentType":5126,"count":50,"min":[-1.5003830194473267,3.0534720420837402,-6.377098083496094],"max":[1.5003830194473267,4.220667839050293,-4.753756999969482],"type":"VEC3","bufferView":0,"byteOffset":0},{"name":"luxio-Mesh_0_texcoords","componentType":5126,"count":50,"min":[0.7639740109443665,0.006326999980956316],"max":[0.9924240112304688,0.21908700466156006],"type":"VEC2","bufferView":1,"byteOffset":0},{"name":"luxio-Mesh_0_indices","componentType":5123,"count":198,"min":[0],"max":[49],"type":"SCALAR","bufferView":2,"byteOffset":0},{"name":"luxio-Mesh_1_positions","componentType":5126,"count":25,"min":[-0.746412992477417,3.084881067276001,-5.089204788208008],"max":[0.746412992477417,4.2304301261901855,-4.292605876922607],"type":"VEC3","bufferView":0,"byteOffset":600},{"name":"luxio-Mesh_1_texcoords","componentType":5126,"count":25,"min":[0.5238999724388123,0.2988539934158325],"max":[0.6610770225524902,0.4958750009536743],"type":"VEC2","bufferView":1,"byteOffset":400},{"name":"luxio-Mesh_1_indices","componentType":5123,"count":108,"min":[0],"max":[24],"type":"SCALAR","bufferView":2,"byteOffset":396},{"name":"luxio-Mesh_2_positions","componentType":5126,"count":1762,"min":[-3.3626980781555176,-9.327864646911621,-8.952457427978516],"max":[3.3626980781555176,4.362039089202881,0],"type":"VEC3","bufferView":0,"byteOffset":900},{"name":"luxio-Mesh_2_texcoords","componentType":5126,"count":1762,"min":[0.011966999620199203,0.011958000250160694],"max":[0.48106199502944946,0.9798529744148254],"type":"VEC2","bufferView":1,"byteOffset":600},{"name":"luxio-Mesh_2_indices","componentType":5123,"count":8085,"min":[0],"max":[1761],"type":"SCALAR","bufferView":2,"byteOffset":612}],"asset":{"generator":"obj2gltf","version":"2.0"},"buffers":[{"name":"BR_Luxio-Shiny01","byteLength":1102120,"uri":"data:application/octet-stream;base64,"}],"bufferViews":[{"name":"bufferView_0","buffer":0,"byteLength":22044,"byteOffset":0,"byteStride":12,"target":34962},{"name":"bufferView_1","buffer":0,"byteLength":14696,"byteOffset":22044,"byteStride":8,"target":34962},{"name":"bufferView_2","buffer":0,"byteLength":16784,"byteOffset":36740,"target":34963},{"buffer":0,"byteOffset":53524,"byteLength":1048594}],"images":[{"name":"luxio_1_0","mimeType":"image/x-tga","bufferView":3}],"materials":[{"name":"mat_0","pbrMetallicRoughness":{"baseColorTexture":{"index":0},"baseColorFactor":[1,1,1,1],"metallicFactor":0,"roughnessFactor":0.903921569},"emissiveFactor":[0,0,0],"alphaMode":"BLEND","doubleSided":true},{"name":"mat_1","pbrMetallicRoughness":{"baseColorTexture":{"index":0},"baseColorFactor":[1,1,1,1],"metallicFactor":0,"roughnessFactor":0.903921569},"emissiveFactor":[0,0,0],"alphaMode":"BLEND","doubleSided":true},{"name":"mat_2","pbrMetallicRoughness":{"baseColorTexture":{"index":0},"baseColorFactor":[1,1,1,1],"metallicFactor":0,"roughnessFactor":0.903921569},"emissiveFactor":[0,0,0],"alphaMode":"BLEND","doubleSided":true}],"meshes":[{"name":"luxio-Mesh","primitives":[{"attributes":{"POSITION":0,"TEXCOORD_0":1},"indices":2,"material":0,"mode":4},{"attributes":{"POSITION":3,"TEXCOORD_0":4},"indices":5,"material":1,"mode":4},{"attributes":{"POSITION":6,"TEXCOORD_0":7},"indices":8,"material":2,"mode":4}]}],"nodes":[{"name":"luxio","mesh":0}],"samplers":[{"wrapS":10497,"wrapT":10497}],"scene":0,"scenes":[{"nodes":[0]}],"textures":[{"name":"luxio_1_0","sampler":0,"source":0}]}