{"accessors":[{"name":"polygon0_1_0_positions","componentType":5126,"count":14,"min":[-1.6653330326080322,7.916182041168213,4.899085998535156],"max":[1.6653330326080322,8.906702041625977,6.154682159423828],"type":"VEC3","bufferView":0,"byteOffset":0},{"name":"polygon0_1_0_normals","componentType":5126,"count":14,"min":[-0.8243303894996643,-0.1710849553346634,0.5647512674331665],"max":[0.8243303894996643,0.2076409012079239,0.759519636631012],"type":"VEC3","bufferView":1,"byteOffset":0},{"name":"polygon0_1_0_texcoords","componentType":5126,"count":14,"min":[0.011718999594449997,0.0039059999398887157],"max":[0.484375,0.2460940033197403],"type":"VEC2","bufferView":2,"byteOffset":0},{"name":"polygon0_1_0_indices","componentType":5123,"count":36,"min":[0],"max":[13],"type":"SCALAR","bufferView":3,"byteOffset":0},{"name":"polygon1_1_0_positions","componentType":5126,"count":969,"min":[-4.028471946716309,-0.0017930000321939588,-9.19262981414795],"max":[4.028471946716309,13.997501373291016,6.610723972320557],"type":"VEC3","bufferView":0,"byteOffset":168},{"name":"polygon1_1_0_normals","componentType":5126,"count":969,"min":[-1,-0.9981874227523804,-0.9998277425765991],"max":[1,0.9994425177574158,0.9975873827934265],"type":"VEC3","bufferView":1,"byteOffset":168},{"name":"polygon1_1_0_texcoords","componentType":5126,"count":969,"min":[0.005493000149726868,0.004424999933689833],"max":[0.9951170086860657,0.9948729872703552],"type":"VEC2","bufferView":2,"byteOffset":112},{"name":"polygon1_1_0_indices","componentType":5123,"count":4374,"min":[0],"max":[968],"type":"SCALAR","bufferView":3,"byteOffset":72}],"asset":{"generator":"obj2gltf","version":"2.0"},"buffers":[{"name":"Luxray","byteLength":335224,"uri":"data:application/octet-stream;base64,"}],"bufferViews":[{"name":"bufferView_0","buffer":0,"byteLength":11796,"byteOffset":0,"byteStride":12,"target":34962},{"name":"bufferView_1","buffer":0,"byteLength":11796,"byteOffset":11796,"byteStride":12,"target":34962},{"name":"bufferView_2","buffer":0,"byteLength":7864,"byteOffset":23592,"byteStride":8,"target":34962},{"name":"bufferView_3","buffer":0,"byteLength":8820,"byteOffset":31456,"target":34963},{"buffer":0,"byteOffset":40276,"byteLength":98322},{"buffer":0,"byteOffset":138598,"byteLength":196626}],"images":[{"name":"RentorarEyeDh","mimeType":"image/x-tga","bufferView":4},{"name":"RentorarDh","mimeType":"image/x-tga","bufferView":5}],"materials":[{"name":"mat2","pbrMetallicRoughness":{"baseColorTexture":{"index":0},"baseColorFactor":[1,1,1,1],"metallicFactor":0,"roughnessFactor":0.99},"emissiveFactor":[0,0,0],"alphaMode":"OPAQUE","doubleSided":false},{"name":"mat1","pbrMetallicRoughness":{"baseColorTexture":{"index":1},"baseColorFactor":[1,1,1,1],"metallicFactor":0,"roughnessFactor":0.99},"emissiveFactor":[0,0,0],"alphaMode":"OPAQUE","doubleSided":false}],"meshes":[{"name":"polygon0_1","primitives":[{"attributes":{"POSITION":0,"NORMAL":1,"TEXCOORD_0":2},"indices":3,"material":0,"mode":4}]},{"name":"polygon1_1","primitives":[{"attributes":{"POSITION":4,"NORMAL":5,"TEXCOORD_0":6},"indices":7,"material":1,"mode":4}]}],"nodes":[{"name":"polygon0","mesh":0},{"name":"polygon1","mesh":1}],"samplers":[{"wrapS":10497,"wrapT":10497}],"scene":0,"scenes":[{"nodes":[0,1]}],"textures":[{"name":"RentorarEyeDh","sampler":0,"source":0},{"name":"RentorarDh","sampler":0,"source":1}]}