{"accessors":[{"name":"polygon0_1_0_positions","componentType":5126,"count":8,"min":[-0.2769300043582916,0.6551160216331482,0.30668801069259644],"max":[0.2769300043582916,0.8002740144729614,0.45232000946998596],"type":"VEC3","bufferView":0,"byteOffset":0},{"name":"polygon0_1_0_normals","componentType":5126,"count":8,"min":[-0.8033978343009949,0.20306196808815002,0.5287582278251648],"max":[0.8033413290977478,0.4793650209903717,0.8323981761932373],"type":"VEC3","bufferView":1,"byteOffset":0},{"name":"polygon0_1_0_texcoords","componentType":5126,"count":8,"min":[0.03515600040555,0.027343999594449997],"max":[0.4882810115814209,0.2265619933605194],"type":"VEC2","bufferView":2,"byteOffset":0},{"name":"polygon0_1_0_indices","componentType":5123,"count":12,"min":[0],"max":[7],"type":"SCALAR","bufferView":3,"byteOffset":0},{"name":"polygon1_1_0_positions","componentType":5126,"count":638,"min":[-0.5629879832267761,-0.06035900115966797,-0.5560789704322815],"max":[0.5632690191268921,1.960479974746704,0.6251459717750549],"type":"VEC3","bufferView":0,"byteOffset":96},{"name":"polygon1_1_0_normals","componentType":5126,"count":638,"min":[-0.9948809146881104,-0.9999813437461853,-0.9982349872589111],"max":[0.9991501569747925,0.9997157454490662,0.9990580081939697],"type":"VEC3","bufferView":1,"byteOffset":96},{"name":"polygon1_1_0_texcoords","componentType":5126,"count":638,"min":[0.009154999628663063,0.011718999594449997],"max":[0.9865720272064209,0.9915770292282104],"type":"VEC2","bufferView":2,"byteOffset":64},{"name":"polygon1_1_0_indices","componentType":5123,"count":2748,"min":[0],"max":[637],"type":"SCALAR","bufferView":3,"byteOffset":24},{"name":"polygon2_1_0_positions","componentType":5126,"count":6,"min":[-0.1603280007839203,0.5446329712867737,0.45201200246810913],"max":[0.1603280007839203,0.6741080284118652,0.532043993473053],"type":"VEC3","bufferView":0,"byteOffset":7752},{"name":"polygon2_1_0_normals","componentType":5126,"count":6,"min":[-0.45232513546943665,0.23303091526031494,0.8323299884796143],"max":[0.45251184701919556,0.35503289103507996,0.9635019898414612],"type":"VEC3","bufferView":1,"byteOffset":7752},{"name":"polygon2_1_0_texcoords","componentType":5126,"count":6,"min":[0.02450600080192089,0.006926999893039465],"max":[0.9823610186576843,0.24334700405597687],"type":"VEC2","bufferView":2,"byteOffset":5168},{"name":"polygon2_1_0_indices","componentType":5123,"count":12,"min":[0],"max":[5],"type":"SCALAR","bufferView":3,"byteOffset":5520}],"asset":{"generator":"obj2gltf","version":"2.0"},"buffers":[{"name":"Budew","byteLength":370528,"uri":"data:application/octet-stream;base64,"}],"bufferViews":[{"name":"bufferView_0","buffer":0,"byteLength":7824,"byteOffset":0,"byteStride":12,"target":34962},{"name":"bufferView_1","buffer":0,"byteLength":7824,"byteOffset":7824,"byteStride":12,"target":34962},{"name":"bufferView_2","buffer":0,"byteLength":5216,"byteOffset":15648,"byteStride":8,"target":34962},{"name":"bufferView_3","buffer":0,"byteLength":5544,"byteOffset":20864,"target":34963},{"buffer":0,"byteOffset":26408,"byteLength":98322},{"buffer":0,"byteOffset":124730,"byteLength":196626},{"buffer":0,"byteOffset":321356,"byteLength":49170}],"images":[{"name":"SubomieEyeDh","mimeType":"image/x-tga","bufferView":4},{"name":"SubomieDh","mimeType":"image/x-tga","bufferView":5},{"name":"SubomieMouthDh","mimeType":"image/x-tga","bufferView":6}],"materials":[{"name":"mat2","pbrMetallicRoughness":{"baseColorTexture":{"index":0},"baseColorFactor":[1,1,1,1],"metallicFactor":0,"roughnessFactor":0.99},"emissiveFactor":[0,0,0],"alphaMode":"OPAQUE","doubleSided":false},{"name":"mat1","pbrMetallicRoughness":{"baseColorTexture":{"index":1},"baseColorFactor":[1,1,1,1],"metallicFactor":0,"roughnessFactor":0.99},"emissiveFactor":[0,0,0],"alphaMode":"OPAQUE","doubleSided":false},{"name":"mat3","pbrMetallicRoughness":{"baseColorTexture":{"index":2},"baseColorFactor":[1,1,1,1],"metallicFactor":0,"roughnessFactor":0.99},"emissiveFactor":[0,0,0],"alphaMode":"OPAQUE","doubleSided":false}],"meshes":[{"name":"polygon0_1","primitives":[{"attributes":{"POSITION":0,"NORMAL":1,"TEXCOORD_0":2},"indices":3,"material":0,"mode":4}]},{"name":"polygon1_1","primitives":[{"attributes":{"POSITION":4,"NORMAL":5,"TEXCOORD_0":6},"indices":7,"material":1,"mode":4}]},{"name":"polygon2_1","primitives":[{"attributes":{"POSITION":8,"NORMAL":9,"TEXCOORD_0":10},"indices":11,"material":2,"mode":4}]}],"nodes":[{"name":"polygon0","mesh":0},{"name":"polygon1","mesh":1},{"name":"polygon2","mesh":2}],"samplers":[{"wrapS":10497,"wrapT":10497}],"scene":0,"scenes":[{"nodes":[0,1,2]}],"textures":[{"name":"SubomieEyeDh","sampler":0,"source":0},{"name":"SubomieDh","sampler":0,"source":1},{"name":"SubomieMouthDh","sampler":0,"source":2}]}