{"accessors":[{"name":"polygon0_1_0_positions","componentType":5126,"count":18,"min":[-1.7291280031204224,5.928750038146973,1.771286964416504],"max":[1.7291280031204224,6.907674789428711,3.208698034286499],"type":"VEC3","bufferView":0,"byteOffset":0},{"name":"polygon0_1_0_normals","componentType":5126,"count":18,"min":[-0.9940716624259949,-0.38972219824790955,0.10872696340084076],"max":[0.9940716624259949,0,0.5602478384971619],"type":"VEC3","bufferView":1,"byteOffset":0},{"name":"polygon0_1_0_texcoords","componentType":5126,"count":18,"min":[0.03125,0.0078119998797774315],"max":[0.4804689884185791,0.2265619933605194],"type":"VEC2","bufferView":2,"byteOffset":0},{"name":"polygon0_1_0_indices","componentType":5123,"count":42,"min":[0],"max":[17],"type":"SCALAR","bufferView":3,"byteOffset":0},{"name":"polygon1_1_0_positions","componentType":5126,"count":722,"min":[-1.7360140085220337,0.0016410000389441848,-2.8162739276885986],"max":[1.7360140085220337,7.729497909545898,4.173391819000244],"type":"VEC3","bufferView":0,"byteOffset":216},{"name":"polygon1_1_0_normals","componentType":5126,"count":722,"min":[-0.9999620318412781,-1,-0.9998570680618286],"max":[0.9999619126319885,0.9995365738868713,0.9998056888580322],"type":"VEC3","bufferView":1,"byteOffset":216},{"name":"polygon1_1_0_texcoords","componentType":5126,"count":722,"min":[0.008820000104606152,0.013915999792516232],"max":[0.9861149787902832,0.9865419864654541],"type":"VEC2","bufferView":2,"byteOffset":144},{"name":"polygon1_1_0_indices","componentType":5123,"count":2676,"min":[0],"max":[721],"type":"SCALAR","bufferView":3,"byteOffset":84},{"name":"polygon2_1_0_positions","componentType":5126,"count":395,"min":[-2.5134220123291016,0.0016410000389441848,-0.8008049726486206],"max":[2.513421058654785,9.00393009185791,3.807655096054077],"type":"VEC3","bufferView":0,"byteOffset":8880},{"name":"polygon2_1_0_normals","componentType":5126,"count":395,"min":[-0.9855967164039612,-0.94254469871521,-0.9854580163955688],"max":[0.9855967164039612,0.999994158744812,0.9855107665061951],"type":"VEC3","bufferView":1,"byteOffset":8880},{"name":"polygon2_1_0_texcoords","componentType":5126,"count":395,"min":[0.6818850040435791,0.00967399962246418],"max":[0.9795529842376709,0.9772639870643616],"type":"VEC2","bufferView":2,"byteOffset":5920},{"name":"polygon2_1_0_indices","componentType":5123,"count":1710,"min":[0],"max":[394],"type":"SCALAR","bufferView":3,"byteOffset":5436}],"asset":{"generator":"obj2gltf","version":"2.0"},"buffers":[{"name":"Cranidos","byteLength":340124,"uri":"data:application/octet-stream;base64,"}],"bufferViews":[{"name":"bufferView_0","buffer":0,"byteLength":13620,"byteOffset":0,"byteStride":12,"target":34962},{"name":"bufferView_1","buffer":0,"byteLength":13620,"byteOffset":13620,"byteStride":12,"target":34962},{"name":"bufferView_2","buffer":0,"byteLength":9080,"byteOffset":27240,"byteStride":8,"target":34962},{"name":"bufferView_3","buffer":0,"byteLength":8856,"byteOffset":36320,"target":34963},{"buffer":0,"byteOffset":45176,"byteLength":98322},{"buffer":0,"byteOffset":143498,"byteLength":196626}],"images":[{"name":"ZugaidosEyeDh","mimeType":"image/x-tga","bufferView":4},{"name":"ZugaidosDh","mimeType":"image/x-tga","bufferView":5}],"materials":[{"name":"mat2","pbrMetallicRoughness":{"baseColorTexture":{"index":0},"baseColorFactor":[1,1,1,1],"metallicFactor":0,"roughnessFactor":0.99},"emissiveFactor":[0,0,0],"alphaMode":"OPAQUE","doubleSided":false},{"name":"mat1","pbrMetallicRoughness":{"baseColorTexture":{"index":1},"baseColorFactor":[1,1,1,1],"metallicFactor":0,"roughnessFactor":0.99},"emissiveFactor":[0,0,0],"alphaMode":"OPAQUE","doubleSided":false},{"name":"mat3","pbrMetallicRoughness":{"baseColorTexture":{"index":1},"baseColorFactor":[1,1,1,1],"metallicFactor":0,"roughnessFactor":0.99},"emissiveFactor":[0,0,0],"alphaMode":"OPAQUE","doubleSided":false}],"meshes":[{"name":"polygon0_1","primitives":[{"attributes":{"POSITION":0,"NORMAL":1,"TEXCOORD_0":2},"indices":3,"material":0,"mode":4}]},{"name":"polygon1_1","primitives":[{"attributes":{"POSITION":4,"NORMAL":5,"TEXCOORD_0":6},"indices":7,"material":1,"mode":4}]},{"name":"polygon2_1","primitives":[{"attributes":{"POSITION":8,"NORMAL":9,"TEXCOORD_0":10},"indices":11,"material":2,"mode":4}]}],"nodes":[{"name":"polygon0","mesh":0},{"name":"polygon1","mesh":1},{"name":"polygon2","mesh":2}],"samplers":[{"wrapS":10497,"wrapT":10497}],"scene":0,"scenes":[{"nodes":[0,1,2]}],"textures":[{"name":"ZugaidosEyeDh","sampler":0,"source":0},{"name":"ZugaidosDh","sampler":0,"source":1}]}