{"accessors":[{"name":"Rampardos_1_0_positions","componentType":5126,"count":108,"min":[-16.58839988708496,113.00300598144531,48.37080764770508],"max":[16.58839988708496,124.69599914550781,60.8369140625],"type":"VEC3","bufferView":0,"byteOffset":0},{"name":"Rampardos_1_0_normals","componentType":5126,"count":108,"min":[-0.8777382373809814,-0.5153409838676453,0.3005480170249939],"max":[-0.608626663684845,0.12813597917556763,0.7934455275535583],"type":"VEC3","bufferView":1,"byteOffset":0},{"name":"Rampardos_1_0_texcoords","componentType":5126,"count":108,"min":[0.009451000019907951,-0.933929979801178],"max":[0.4905500113964081,-0.7997999787330627],"type":"VEC2","bufferView":2,"byteOffset":0},{"name":"Rampardos_1_0_indices","componentType":5123,"count":108,"min":[0],"max":[107],"type":"SCALAR","bufferView":3,"byteOffset":0},{"name":"Rampardos_1_1_positions","componentType":5126,"count":18102,"min":[-46.50639724731445,-4.885408878326416,-91.78657531738281],"max":[46.506404876708984,151.45199584960938,65.99361419677734],"type":"VEC3","bufferView":0,"byteOffset":1296},{"name":"Rampardos_1_1_normals","componentType":5126,"count":18102,"min":[-0.9979280829429626,-0.9999944567680359,-0.9636273384094238],"max":[0.9979280829429626,0.9023250937461853,0.9963664412498474],"type":"VEC3","bufferView":1,"byteOffset":1296},{"name":"Rampardos_1_1_texcoords","componentType":5126,"count":18102,"min":[0.0078119998797774315,0.007445999886840582],"max":[0.9921879768371582,0.9921870231628418],"type":"VEC2","bufferView":2,"byteOffset":864},{"name":"Rampardos_1_1_indices","componentType":5123,"count":18102,"min":[0],"max":[18101],"type":"SCALAR","bufferView":3,"byteOffset":216}],"asset":{"generator":"obj2gltf","version":"2.0"},"buffers":[{"name":"XY_Rampardos","byteLength":699440,"uri":"data:application/octet-stream;base64,"}],"bufferViews":[{"name":"bufferView_0","buffer":0,"byteLength":218520,"byteOffset":0,"byteStride":12,"target":34962},{"name":"bufferView_1","buffer":0,"byteLength":218520,"byteOffset":218520,"byteStride":12,"target":34962},{"name":"bufferView_2","buffer":0,"byteLength":145680,"byteOffset":437040,"byteStride":8,"target":34962},{"name":"bufferView_3","buffer":0,"byteLength":36420,"byteOffset":582720,"target":34963},{"buffer":0,"byteOffset":619140,"byteLength":23190},{"buffer":0,"byteOffset":642330,"byteLength":57108}],"images":[{"name":"pm0409_00_Eye1","mimeType":"image/png","bufferView":4},{"name":"pm0409_00_Body1","mimeType":"image/png","bufferView":5}],"materials":[{"name":"Material__49","pbrMetallicRoughness":{"baseColorTexture":{"index":0},"baseColorFactor":[1,1,1,1],"metallicFactor":0,"roughnessFactor":0.998},"emissiveFactor":[0,0,0],"alphaMode":"OPAQUE","doubleSided":false},{"name":"Material__50","pbrMetallicRoughness":{"baseColorTexture":{"index":1},"baseColorFactor":[1,1,1,1],"metallicFactor":0,"roughnessFactor":0.998},"emissiveFactor":[0,0,0],"alphaMode":"OPAQUE","doubleSided":false}],"meshes":[{"name":"Rampardos_1","primitives":[{"attributes":{"POSITION":0,"NORMAL":1,"TEXCOORD_0":2},"indices":3,"material":0,"mode":4},{"attributes":{"POSITION":4,"NORMAL":5,"TEXCOORD_0":6},"indices":7,"material":1,"mode":4}]}],"nodes":[{"name":"Rampardos","mesh":0}],"samplers":[{"wrapS":10497,"wrapT":10497}],"scene":0,"scenes":[{"nodes":[0]}],"textures":[{"name":"pm0409_00_Eye1","sampler":0,"source":0},{"name":"pm0409_00_Body1","sampler":0,"source":1}]}