{"accessors":[{"name":"rampald-Mesh_0_positions","componentType":5126,"count":16,"min":[-1.8352869749069214,4.476740837097168,-13.514749526977539],"max":[1.8352869749069214,5.901701927185059,-12.510177612304688],"type":"VEC3","bufferView":0,"byteOffset":0},{"name":"rampald-Mesh_0_texcoords","componentType":5126,"count":16,"min":[0.8861389756202698,0.04062100127339363],"max":[0.9730910062789917,0.08293399959802628],"type":"VEC2","bufferView":1,"byteOffset":0},{"name":"rampald-Mesh_0_indices","componentType":5123,"count":36,"min":[0],"max":[15],"type":"SCALAR","bufferView":2,"byteOffset":0},{"name":"rampald-Mesh_1_positions","componentType":5126,"count":136,"min":[-1.7983659505844116,1.5380799770355225,-16.330766677856445],"max":[1.7983659505844116,5.391936779022217,-13.831671714782715],"type":"VEC3","bufferView":0,"byteOffset":192},{"name":"rampald-Mesh_1_texcoords","componentType":5126,"count":136,"min":[0.6873570084571838,0.6915159821510315],"max":[0.7373570203781128,0.7415159940719604],"type":"VEC2","bufferView":1,"byteOffset":128},{"name":"rampald-Mesh_1_indices","componentType":5123,"count":720,"min":[0],"max":[135],"type":"SCALAR","bufferView":2,"byteOffset":72},{"name":"rampald-Mesh_2_positions","componentType":5126,"count":2076,"min":[-4.788272857666016,-9.621405601501465,-15.241288185119629],"max":[4.788272857666016,6.578873157501221,-0.019315000623464584],"type":"VEC3","bufferView":0,"byteOffset":1824},{"name":"rampald-Mesh_2_texcoords","componentType":5126,"count":2076,"min":[0.010262000374495983,0.014902999624609947],"max":[0.9494680166244507,0.9867839813232422],"type":"VEC2","bufferView":1,"byteOffset":1216},{"name":"rampald-Mesh_2_indices","componentType":5123,"count":7344,"min":[0],"max":[2075],"type":"SCALAR","bufferView":2,"byteOffset":1512}],"asset":{"generator":"obj2gltf","version":"2.0"},"buffers":[{"name":"BR_Rampardos-Shiny01","byteLength":1109356,"uri":"data:application/octet-stream;base64,"}],"bufferViews":[{"name":"bufferView_0","buffer":0,"byteLength":26736,"byteOffset":0,"byteStride":12,"target":34962},{"name":"bufferView_1","buffer":0,"byteLength":17824,"byteOffset":26736,"byteStride":8,"target":34962},{"name":"bufferView_2","buffer":0,"byteLength":16200,"byteOffset":44560,"target":34963},{"buffer":0,"byteOffset":60760,"byteLength":1048594}],"images":[{"name":"rampald_1_0","mimeType":"image/x-tga","bufferView":3}],"materials":[{"name":"mat_0","pbrMetallicRoughness":{"baseColorTexture":{"index":0},"baseColorFactor":[1,1,1,1],"metallicFactor":0,"roughnessFactor":0.903921569},"emissiveFactor":[0,0,0],"alphaMode":"BLEND","doubleSided":true},{"name":"mat_1","pbrMetallicRoughness":{"baseColorTexture":{"index":0},"baseColorFactor":[1,1,1,1],"metallicFactor":0,"roughnessFactor":0.903921569},"emissiveFactor":[0,0,0],"alphaMode":"BLEND","doubleSided":true},{"name":"mat_2","pbrMetallicRoughness":{"baseColorTexture":{"index":0},"baseColorFactor":[1,1,1,1],"metallicFactor":0,"roughnessFactor":0.903921569},"emissiveFactor":[0,0,0],"alphaMode":"BLEND","doubleSided":true}],"meshes":[{"name":"rampald-Mesh","primitives":[{"attributes":{"POSITION":0,"TEXCOORD_0":1},"indices":2,"material":0,"mode":4},{"attributes":{"POSITION":3,"TEXCOORD_0":4},"indices":5,"material":1,"mode":4},{"attributes":{"POSITION":6,"TEXCOORD_0":7},"indices":8,"material":2,"mode":4}]}],"nodes":[{"name":"rampald","mesh":0}],"samplers":[{"wrapS":10497,"wrapT":10497}],"scene":0,"scenes":[{"nodes":[0]}],"textures":[{"name":"rampald_1_0","sampler":0,"source":0}]}