{"accessors":[{"name":"tatetops-Mesh_0_positions","componentType":5126,"count":432,"min":[-1.6498039960861206,-0.5776000022888184,-5.0070271492004395],"max":[1.6498039960861206,2.857228994369507,0],"type":"VEC3","bufferView":0,"byteOffset":0},{"name":"tatetops-Mesh_0_texcoords","componentType":5126,"count":432,"min":[0.021487999707460403,0.044211000204086304],"max":[0.7621229887008667,0.9731789827346802],"type":"VEC2","bufferView":1,"byteOffset":0},{"name":"tatetops-Mesh_0_indices","componentType":5123,"count":1698,"min":[0],"max":[431],"type":"SCALAR","bufferView":2,"byteOffset":0},{"name":"tatetops-Mesh_1_positions","componentType":5126,"count":34,"min":[-1.0450619459152222,2.143075942993164,-2.7646429538726807],"max":[1.0450619459152222,2.570302963256836,-2.0103659629821777],"type":"VEC3","bufferView":0,"byteOffset":5184},{"name":"tatetops-Mesh_1_texcoords","componentType":5126,"count":34,"min":[0.8463889956474304,0.09460800141096115],"max":[0.9862920045852661,0.22708599269390106],"type":"VEC2","bufferView":1,"byteOffset":3456},{"name":"tatetops-Mesh_1_indices","componentType":5123,"count":120,"min":[0],"max":[33],"type":"SCALAR","bufferView":2,"byteOffset":3396},{"name":"tatetops-Mesh_2_positions","componentType":5126,"count":1233,"min":[-1.453950047492981,-2.2438929080963135,-3.208405017852783],"max":[1.453950047492981,2.843961000442505,0],"type":"VEC3","bufferView":0,"byteOffset":5592},{"name":"tatetops-Mesh_2_texcoords","componentType":5126,"count":1233,"min":[0.05861499905586243,0.007811000104993582],"max":[0.7619069814682007,0.9528059959411621],"type":"VEC2","bufferView":1,"byteOffset":3728},{"name":"tatetops-Mesh_2_indices","componentType":5123,"count":6462,"min":[0],"max":[1232],"type":"SCALAR","bufferView":2,"byteOffset":3636}],"asset":{"generator":"obj2gltf","version":"2.0"},"buffers":[{"name":"BR_Shieldon-Shiny01","byteLength":1099136,"uri":"data:application/octet-stream;base64,"}],"bufferViews":[{"name":"bufferView_0","buffer":0,"byteLength":20388,"byteOffset":0,"byteStride":12,"target":34962},{"name":"bufferView_1","buffer":0,"byteLength":13592,"byteOffset":20388,"byteStride":8,"target":34962},{"name":"bufferView_2","buffer":0,"byteLength":16560,"byteOffset":33980,"target":34963},{"buffer":0,"byteOffset":50540,"byteLength":1048594}],"images":[{"name":"tatetops_1_0","mimeType":"image/x-tga","bufferView":3}],"materials":[{"name":"mat_0","pbrMetallicRoughness":{"baseColorTexture":{"index":0},"baseColorFactor":[1,1,1,1],"metallicFactor":0,"roughnessFactor":0.903921569},"emissiveFactor":[0,0,0],"alphaMode":"BLEND","doubleSided":true},{"name":"mat_1","pbrMetallicRoughness":{"baseColorTexture":{"index":0},"baseColorFactor":[1,1,1,1],"metallicFactor":0,"roughnessFactor":0.903921569},"emissiveFactor":[0,0,0],"alphaMode":"BLEND","doubleSided":true},{"name":"mat_2","pbrMetallicRoughness":{"baseColorTexture":{"index":0},"baseColorFactor":[1,1,1,1],"metallicFactor":0,"roughnessFactor":0.903921569},"emissiveFactor":[0,0,0],"alphaMode":"BLEND","doubleSided":true}],"meshes":[{"name":"tatetops-Mesh","primitives":[{"attributes":{"POSITION":0,"TEXCOORD_0":1},"indices":2,"material":0,"mode":4},{"attributes":{"POSITION":3,"TEXCOORD_0":4},"indices":5,"material":1,"mode":4},{"attributes":{"POSITION":6,"TEXCOORD_0":7},"indices":8,"material":2,"mode":4}]}],"nodes":[{"name":"tatetops","mesh":0}],"samplers":[{"wrapS":10497,"wrapT":10497}],"scene":0,"scenes":[{"nodes":[0]}],"textures":[{"name":"tatetops_1_0","sampler":0,"source":0}]}