{"accessors":[{"name":"polygon0_1_0_positions","componentType":5126,"count":14,"min":[-3.5546159744262695,3.206835985183716,6.647267818450928],"max":[3.5546159744262695,4.938577175140381,7.548742771148682],"type":"VEC3","bufferView":0,"byteOffset":0},{"name":"polygon0_1_0_normals","componentType":5126,"count":14,"min":[-0.803494930267334,-0.9159380793571472,0.058959007263183594],"max":[0.803494930267334,0.3079129457473755,0.9599007368087769],"type":"VEC3","bufferView":1,"byteOffset":0},{"name":"polygon0_1_0_texcoords","componentType":5126,"count":14,"min":[-0.9822999835014343,0.05767799913883209],"max":[-0.5216060280799866,0.18945300579071045],"type":"VEC2","bufferView":2,"byteOffset":0},{"name":"polygon0_1_0_indices","componentType":5123,"count":30,"min":[0],"max":[13],"type":"SCALAR","bufferView":3,"byteOffset":0},{"name":"polygon1_1_0_positions","componentType":5126,"count":1130,"min":[-5.777394771575928,-9.999999974752427e-7,-9.25493335723877],"max":[5.777393817901611,11.6179838180542,8.854449272155762],"type":"VEC3","bufferView":0,"byteOffset":168},{"name":"polygon1_1_0_normals","componentType":5126,"count":1130,"min":[-1,-0.9999603033065796,-0.9997613430023193],"max":[1,0.9998098015785217,0.9997034072875977],"type":"VEC3","bufferView":1,"byteOffset":168},{"name":"polygon1_1_0_texcoords","componentType":5126,"count":1130,"min":[0.0057680001482367516,0.004912999924272299],"max":[0.9960939884185791,0.995697021484375],"type":"VEC2","bufferView":2,"byteOffset":112},{"name":"polygon1_1_0_indices","componentType":5123,"count":4644,"min":[0],"max":[1129],"type":"SCALAR","bufferView":3,"byteOffset":60}],"asset":{"generator":"obj2gltf","version":"2.0"},"buffers":[{"name":"Bastiodon","byteLength":586664,"uri":"data:application/octet-stream;base64,"}],"bufferViews":[{"name":"bufferView_0","buffer":0,"byteLength":13728,"byteOffset":0,"byteStride":12,"target":34962},{"name":"bufferView_1","buffer":0,"byteLength":13728,"byteOffset":13728,"byteStride":12,"target":34962},{"name":"bufferView_2","buffer":0,"byteLength":9152,"byteOffset":27456,"byteStride":8,"target":34962},{"name":"bufferView_3","buffer":0,"byteLength":9348,"byteOffset":36608,"target":34963},{"buffer":0,"byteOffset":45956,"byteLength":98322},{"buffer":0,"byteOffset":144278,"byteLength":442386}],"images":[{"name":"ToridepsEyeDh","mimeType":"image/x-tga","bufferView":4},{"name":"ToridepsDh","mimeType":"image/x-tga","bufferView":5}],"materials":[{"name":"mat2","pbrMetallicRoughness":{"baseColorTexture":{"index":0},"baseColorFactor":[1,1,1,1],"metallicFactor":0,"roughnessFactor":0.99},"emissiveFactor":[0,0,0],"alphaMode":"OPAQUE","doubleSided":false},{"name":"mat1","pbrMetallicRoughness":{"baseColorTexture":{"index":1},"baseColorFactor":[1,1,1,1],"metallicFactor":0,"roughnessFactor":0.99},"emissiveFactor":[0,0,0],"alphaMode":"OPAQUE","doubleSided":false}],"meshes":[{"name":"polygon0_1","primitives":[{"attributes":{"POSITION":0,"NORMAL":1,"TEXCOORD_0":2},"indices":3,"material":0,"mode":4}]},{"name":"polygon1_1","primitives":[{"attributes":{"POSITION":4,"NORMAL":5,"TEXCOORD_0":6},"indices":7,"material":1,"mode":4}]}],"nodes":[{"name":"polygon0","mesh":0},{"name":"polygon1","mesh":1}],"samplers":[{"wrapS":10497,"wrapT":10497}],"scene":0,"scenes":[{"nodes":[0,1]}],"textures":[{"name":"ToridepsEyeDh","sampler":0,"source":0},{"name":"ToridepsDh","sampler":0,"source":1}]}