{"accessors":[{"name":"polygon0_1_0_positions","componentType":5126,"count":12,"min":[-0.2773829996585846,1.5847899913787842,0.5212839841842651],"max":[0.2773829996585846,1.8159140348434448,0.6725119948387146],"type":"VEC3","bufferView":0,"byteOffset":0},{"name":"polygon0_1_0_normals","componentType":5126,"count":12,"min":[-0.5283932089805603,0.19727008044719696,0.6629491448402405],"max":[0.5283932089805603,0.5670041441917419,0.8529114127159119],"type":"VEC3","bufferView":1,"byteOffset":0},{"name":"polygon0_1_0_texcoords","componentType":5126,"count":12,"min":[0.019164999946951866,0.008605999872088432],"max":[0.9833070039749146,0.24447600543498993],"type":"VEC2","bufferView":2,"byteOffset":0},{"name":"polygon0_1_0_indices","componentType":5123,"count":24,"min":[0],"max":[11],"type":"SCALAR","bufferView":3,"byteOffset":0},{"name":"polygon1_1_0_positions","componentType":5126,"count":1211,"min":[-0.8689630031585693,0.10269899666309357,-0.7065410017967224],"max":[0.8986999988555908,3.466156005859375,0.8558869957923889],"type":"VEC3","bufferView":0,"byteOffset":144},{"name":"polygon1_1_0_normals","componentType":5126,"count":1211,"min":[-0.9970877170562744,-0.9996634721755981,-0.9999473094940186],"max":[0.9962961077690125,0.9993270039558411,0.9998398423194885],"type":"VEC3","bufferView":1,"byteOffset":144},{"name":"polygon1_1_0_texcoords","componentType":5126,"count":1211,"min":[0.006744000129401684,0.0028689999599009752],"max":[0.9914860129356384,0.9853820204734802],"type":"VEC2","bufferView":2,"byteOffset":96},{"name":"polygon1_1_0_indices","componentType":5123,"count":4401,"min":[0],"max":[1210],"type":"SCALAR","bufferView":3,"byteOffset":48}],"asset":{"generator":"obj2gltf","version":"2.0"},"buffers":[{"name":"Minomucchi000","byteLength":146328,"uri":"data:application/octet-stream;base64,"}],"bufferViews":[{"name":"bufferView_0","buffer":0,"byteLength":14676,"byteOffset":0,"byteStride":12,"target":34962},{"name":"bufferView_1","buffer":0,"byteLength":14676,"byteOffset":14676,"byteStride":12,"target":34962},{"name":"bufferView_2","buffer":0,"byteLength":9784,"byteOffset":29352,"byteStride":8,"target":34962},{"name":"bufferView_3","buffer":0,"byteLength":8852,"byteOffset":39136,"target":34963},{"buffer":0,"byteOffset":47988,"byteLength":49170},{"buffer":0,"byteOffset":97158,"byteLength":49170}],"images":[{"name":"Minomucchi000EyeDh","mimeType":"image/x-tga","bufferView":4},{"name":"Minomucchi000Dh","mimeType":"image/x-tga","bufferView":5}],"materials":[{"name":"mat2","pbrMetallicRoughness":{"baseColorTexture":{"index":0},"baseColorFactor":[1,1,1,1],"metallicFactor":0,"roughnessFactor":0.99},"emissiveFactor":[0,0,0],"alphaMode":"OPAQUE","doubleSided":false},{"name":"mat1","pbrMetallicRoughness":{"baseColorTexture":{"index":1},"baseColorFactor":[1,1,1,1],"metallicFactor":0,"roughnessFactor":0.99},"emissiveFactor":[0,0,0],"alphaMode":"OPAQUE","doubleSided":false}],"meshes":[{"name":"polygon0_1","primitives":[{"attributes":{"POSITION":0,"NORMAL":1,"TEXCOORD_0":2},"indices":3,"material":0,"mode":4}]},{"name":"polygon1_1","primitives":[{"attributes":{"POSITION":4,"NORMAL":5,"TEXCOORD_0":6},"indices":7,"material":1,"mode":4}]}],"nodes":[{"name":"polygon0","mesh":0},{"name":"polygon1","mesh":1}],"samplers":[{"wrapS":10497,"wrapT":10497}],"scene":0,"scenes":[{"nodes":[0,1]}],"textures":[{"name":"Minomucchi000EyeDh","sampler":0,"source":0},{"name":"Minomucchi000Dh","sampler":0,"source":1}]}