{"accessors":[{"name":"polygon0_1_0_positions","componentType":5126,"count":12,"min":[-0.2773829996585846,1.5847879648208618,0.5212839841842651],"max":[0.2773829996585846,1.8159120082855225,0.6725119948387146],"type":"VEC3","bufferView":0,"byteOffset":0},{"name":"polygon0_1_0_normals","componentType":5126,"count":12,"min":[-0.5283932089805603,0.19727008044719696,0.6629491448402405],"max":[0.5283932089805603,0.5670041441917419,0.8529114127159119],"type":"VEC3","bufferView":1,"byteOffset":0},{"name":"polygon0_1_0_texcoords","componentType":5126,"count":12,"min":[0.019164999946951866,0.008605999872088432],"max":[0.9833070039749146,0.24447600543498993],"type":"VEC2","bufferView":2,"byteOffset":0},{"name":"polygon0_1_0_indices","componentType":5123,"count":24,"min":[0],"max":[11],"type":"SCALAR","bufferView":3,"byteOffset":0},{"name":"polygon1_1_0_positions","componentType":5126,"count":1233,"min":[-1.347156047821045,0.10269699990749359,-1.010957956314087],"max":[1.1026630401611328,8.587974548339844,1.3410029411315918],"type":"VEC3","bufferView":0,"byteOffset":144},{"name":"polygon1_1_0_normals","componentType":5126,"count":1233,"min":[-0.9970877170562744,-0.9996634721755981,-0.9999473094940186],"max":[0.9959682822227478,0.9993270039558411,0.9991418719291687],"type":"VEC3","bufferView":1,"byteOffset":144},{"name":"polygon1_1_0_texcoords","componentType":5126,"count":1233,"min":[0.010803000070154667,0.0065310001373291016],"max":[0.9914860129356384,0.9853820204734802],"type":"VEC2","bufferView":2,"byteOffset":96},{"name":"polygon1_1_0_indices","componentType":5123,"count":4686,"min":[0],"max":[1232],"type":"SCALAR","bufferView":3,"byteOffset":48},{"name":"polygon2_1_0_positions","componentType":5126,"count":70,"min":[-0.24529799818992615,2.0032401084899902,-0.262908011674881],"max":[0.2688089907169342,2.8556020259857178,0.3185180127620697],"type":"VEC3","bufferView":0,"byteOffset":14940},{"name":"polygon2_1_0_normals","componentType":5126,"count":70,"min":[-0.9573672413825989,-0.4141159653663635,-0.9882025718688965],"max":[0.92839515209198,0.9449971318244934,0.9876927137374878],"type":"VEC3","bufferView":1,"byteOffset":14940},{"name":"polygon2_1_0_texcoords","componentType":5126,"count":70,"min":[0.1015629991889,0.0078119998797774315],"max":[0.265625,0.1835940033197403],"type":"VEC2","bufferView":2,"byteOffset":9960},{"name":"polygon2_1_0_indices","componentType":5123,"count":300,"min":[0],"max":[69],"type":"SCALAR","bufferView":3,"byteOffset":9420}],"asset":{"generator":"obj2gltf","version":"2.0"},"buffers":[{"name":"P2_Burmy000FR","byteLength":52100,"uri":"data:application/octet-stream;base64,"}],"bufferViews":[{"name":"bufferView_0","buffer":0,"byteLength":15780,"byteOffset":0,"byteStride":12,"target":34962},{"name":"bufferView_1","buffer":0,"byteLength":15780,"byteOffset":15780,"byteStride":12,"target":34962},{"name":"bufferView_2","buffer":0,"byteLength":10520,"byteOffset":31560,"byteStride":8,"target":34962},{"name":"bufferView_3","buffer":0,"byteLength":10020,"byteOffset":42080,"target":34963}],"materials":[{"name":"mat2","pbrMetallicRoughness":{"baseColorFactor":[0.5,0.5,0.5,1],"metallicFactor":0,"roughnessFactor":1},"emissiveFactor":[0,0,0],"alphaMode":"OPAQUE","doubleSided":false},{"name":"mat1","pbrMetallicRoughness":{"baseColorFactor":[0.5,0.5,0.5,1],"metallicFactor":0,"roughnessFactor":1},"emissiveFactor":[0,0,0],"alphaMode":"OPAQUE","doubleSided":false}],"meshes":[{"name":"polygon0_1","primitives":[{"attributes":{"POSITION":0,"NORMAL":1,"TEXCOORD_0":2},"indices":3,"material":0,"mode":4}]},{"name":"polygon1_1","primitives":[{"attributes":{"POSITION":4,"NORMAL":5,"TEXCOORD_0":6},"indices":7,"material":1,"mode":4}]},{"name":"polygon2_1","primitives":[{"attributes":{"POSITION":8,"NORMAL":9,"TEXCOORD_0":10},"indices":11,"material":1,"mode":4}]}],"nodes":[{"name":"polygon0","mesh":0},{"name":"polygon1","mesh":1},{"name":"polygon2","mesh":2}],"scene":0,"scenes":[{"nodes":[0,1,2]}]}