{"accessors":[{"name":"minomadam-Mesh_0_positions","componentType":5126,"count":17,"min":[-0.5014299750328064,0.2593879997730255,-3.811950922012329],"max":[0.5014309883117676,0.6425570249557495,-3.0482490062713623],"type":"VEC3","bufferView":0,"byteOffset":0},{"name":"minomadam-Mesh_0_texcoords","componentType":5126,"count":17,"min":[0.801110029220581,0.04414299875497818],"max":[0.9736689925193787,0.1762010008096695],"type":"VEC2","bufferView":1,"byteOffset":0},{"name":"minomadam-Mesh_0_indices","componentType":5123,"count":48,"min":[0],"max":[16],"type":"SCALAR","bufferView":2,"byteOffset":0},{"name":"minomadam-Mesh_1_positions","componentType":5126,"count":518,"min":[-2.0893759727478027,-1.4656189680099487,-6.016594886779785],"max":[2.0893759727478027,1.3111629486083984,-1.0223749876022339],"type":"VEC3","bufferView":0,"byteOffset":204},{"name":"minomadam-Mesh_1_texcoords","componentType":5126,"count":518,"min":[0.067221999168396,0.11676699668169022],"max":[0.8572909832000732,0.9305369853973389],"type":"VEC2","bufferView":1,"byteOffset":136},{"name":"minomadam-Mesh_1_indices","componentType":5123,"count":2070,"min":[0],"max":[517],"type":"SCALAR","bufferView":2,"byteOffset":96},{"name":"minomadam-Mesh_2_positions","componentType":5126,"count":12,"min":[-0.9852160215377808,0.6373019814491272,-3.44622802734375],"max":[1.0668359994888306,1.4016749858856201,-2.413738965988159],"type":"VEC3","bufferView":0,"byteOffset":6420},{"name":"minomadam-Mesh_2_texcoords","componentType":5126,"count":12,"min":[0.07786600291728973,0.030625000596046448],"max":[0.9221339821815491,0.8748930096626282],"type":"VEC2","bufferView":1,"byteOffset":4280},{"name":"minomadam-Mesh_2_indices","componentType":5123,"count":18,"min":[0],"max":[11],"type":"SCALAR","bufferView":2,"byteOffset":4236}],"asset":{"generator":"obj2gltf","version":"2.0"},"buffers":[{"name":"BR_Wormadam-Shiny01","byteLength":1325968,"uri":"data:application/octet-stream;base64,"}],"bufferViews":[{"name":"bufferView_0","buffer":0,"byteLength":6564,"byteOffset":0,"byteStride":12,"target":34962},{"name":"bufferView_1","buffer":0,"byteLength":4376,"byteOffset":6564,"byteStride":8,"target":34962},{"name":"bufferView_2","buffer":0,"byteLength":4272,"byteOffset":10940,"target":34963},{"buffer":0,"byteOffset":15212,"byteLength":1048594},{"buffer":0,"byteOffset":1063806,"byteLength":262162}],"images":[{"name":"minomadam_1_0","mimeType":"image/x-tga","bufferView":3},{"name":"minomadam_1_2","mimeType":"image/x-tga","bufferView":4}],"materials":[{"name":"mat_0","pbrMetallicRoughness":{"baseColorTexture":{"index":0},"baseColorFactor":[1,1,1,1],"metallicFactor":0,"roughnessFactor":0.903921569},"emissiveFactor":[0,0,0],"alphaMode":"BLEND","doubleSided":true},{"name":"mat_1","pbrMetallicRoughness":{"baseColorTexture":{"index":0},"baseColorFactor":[1,1,1,1],"metallicFactor":0,"roughnessFactor":0.903921569},"emissiveFactor":[0,0,0],"alphaMode":"BLEND","doubleSided":true},{"name":"mat_2","pbrMetallicRoughness":{"baseColorTexture":{"index":1},"baseColorFactor":[1,1,1,1],"metallicFactor":0,"roughnessFactor":0.903921569},"emissiveFactor":[0,0,0],"alphaMode":"BLEND","doubleSided":true}],"meshes":[{"name":"minomadam-Mesh","primitives":[{"attributes":{"POSITION":0,"TEXCOORD_0":1},"indices":2,"material":0,"mode":4},{"attributes":{"POSITION":3,"TEXCOORD_0":4},"indices":5,"material":1,"mode":4},{"attributes":{"POSITION":6,"TEXCOORD_0":7},"indices":8,"material":2,"mode":4}]}],"nodes":[{"name":"minomadam","mesh":0}],"samplers":[{"wrapS":10497,"wrapT":10497}],"scene":0,"scenes":[{"nodes":[0]}],"textures":[{"name":"minomadam_1_0","sampler":0,"source":0},{"name":"minomadam_1_2","sampler":0,"source":1}]}