{"accessors":[{"name":"gamale-Mesh_0_positions","componentType":5126,"count":94,"min":[-9.675435066223145,-2.9915499687194824,-10.742756843566895],"max":[9.675435066223145,-0.48488301038742065,-0.12993699312210083],"type":"VEC3","bufferView":0,"byteOffset":0},{"name":"gamale-Mesh_0_texcoords","componentType":5126,"count":94,"min":[0.31969401240348816,0.004912000149488449],"max":[0.7363370060920715,0.5822020173072815],"type":"VEC2","bufferView":1,"byteOffset":0},{"name":"gamale-Mesh_0_indices","componentType":5123,"count":228,"min":[0],"max":[93],"type":"SCALAR","bufferView":2,"byteOffset":0}],"asset":{"generator":"obj2gltf","version":"2.0"},"buffers":[{"name":"BR_Mothim-Shiny01","byteLength":1050932,"uri":"data:application/octet-stream;base64,"}],"bufferViews":[{"name":"bufferView_0","buffer":0,"byteLength":1128,"byteOffset":0,"byteStride":12,"target":34962},{"name":"bufferView_1","buffer":0,"byteLength":752,"byteOffset":1128,"byteStride":8,"target":34962},{"name":"bufferView_2","buffer":0,"byteLength":456,"byteOffset":1880,"target":34963},{"buffer":0,"byteOffset":2336,"byteLength":1048594}],"images":[{"name":"gamale_1_0","mimeType":"image/x-tga","bufferView":3}],"materials":[{"name":"mat_0","pbrMetallicRoughness":{"baseColorTexture":{"index":0},"baseColorFactor":[1,1,1,1],"metallicFactor":0,"roughnessFactor":0.903921569},"emissiveFactor":[0,0,0],"alphaMode":"BLEND","doubleSided":true}],"meshes":[{"name":"gamale-Mesh","primitives":[{"attributes":{"POSITION":0,"TEXCOORD_0":1},"indices":2,"material":0,"mode":4}]}],"nodes":[{"name":"gamale","mesh":0}],"samplers":[{"wrapS":10497,"wrapT":10497}],"scene":0,"scenes":[{"nodes":[0]}],"textures":[{"name":"gamale_1_0","sampler":0,"source":0}]}