{"accessors":[{"name":"mitsuhoney-Mesh_0_positions","componentType":5126,"count":11,"min":[0.14478400349617004,0.9945409893989563,-1.88646399974823],"max":[1.2213000059127808,1.2026920318603516,-1.3147989511489868],"type":"VEC3","bufferView":0,"byteOffset":0},{"name":"mitsuhoney-Mesh_0_texcoords","componentType":5126,"count":11,"min":[0.5790830254554749,0.5525230169296265],"max":[0.7591990232467651,0.761443018913269],"type":"VEC2","bufferView":1,"byteOffset":0},{"name":"mitsuhoney-Mesh_0_indices","componentType":5123,"count":36,"min":[0],"max":[10],"type":"SCALAR","bufferView":2,"byteOffset":0},{"name":"mitsuhoney-Mesh_1_positions","componentType":5126,"count":13,"min":[0.061535999178886414,0.9945409893989563,-2.1722960472106934],"max":[1.3045480251312256,1.2026920318603516,-1.6006309986114502],"type":"VEC3","bufferView":0,"byteOffset":132},{"name":"mitsuhoney-Mesh_1_texcoords","componentType":5126,"count":13,"min":[0.8009629845619202,0.034324001520872116],"max":[0.9941920042037964,0.21299199759960175],"type":"VEC2","bufferView":1,"byteOffset":88},{"name":"mitsuhoney-Mesh_1_indices","componentType":5123,"count":36,"min":[0],"max":[12],"type":"SCALAR","bufferView":2,"byteOffset":72},{"name":"mitsuhoney-Mesh_2_positions","componentType":5126,"count":11,"min":[-0.5367000102996826,0.9945409893989563,-0.8023149967193604],"max":[0.5395449995994568,1.2026920318603516,-0.23217499256134033],"type":"VEC3","bufferView":0,"byteOffset":288},{"name":"mitsuhoney-Mesh_2_texcoords","componentType":5126,"count":11,"min":[0.5790830254554749,0.5525230169296265],"max":[0.7591990232467651,0.761443018913269],"type":"VEC2","bufferView":1,"byteOffset":192},{"name":"mitsuhoney-Mesh_2_indices","componentType":5123,"count":36,"min":[0],"max":[10],"type":"SCALAR","bufferView":2,"byteOffset":144},{"name":"mitsuhoney-Mesh_3_positions","componentType":5126,"count":13,"min":[-1.3045480251312256,0.9945409893989563,-2.1722960472106934],"max":[-0.061535999178886414,1.2026920318603516,-1.6006309986114502],"type":"VEC3","bufferView":0,"byteOffset":420},{"name":"mitsuhoney-Mesh_3_texcoords","componentType":5126,"count":13,"min":[0.8009629845619202,0.034324001520872116],"max":[0.9941920042037964,0.21299199759960175],"type":"VEC2","bufferView":1,"byteOffset":280},{"name":"mitsuhoney-Mesh_3_indices","componentType":5123,"count":36,"min":[0],"max":[12],"type":"SCALAR","bufferView":2,"byteOffset":216},{"name":"mitsuhoney-Mesh_4_positions","componentType":5126,"count":13,"min":[-0.6199480295181274,0.9945409893989563,-1.0873850584030151],"max":[0.6227930188179016,1.2026920318603516,-0.5172449946403503],"type":"VEC3","bufferView":0,"byteOffset":576},{"name":"mitsuhoney-Mesh_4_texcoords","componentType":5126,"count":13,"min":[0.8009629845619202,0.034324001520872116],"max":[0.9941089749336243,0.21299199759960175],"type":"VEC2","bufferView":1,"byteOffset":384},{"name":"mitsuhoney-Mesh_4_indices","componentType":5123,"count":36,"min":[0],"max":[12],"type":"SCALAR","bufferView":2,"byteOffset":288},{"name":"mitsuhoney-Mesh_5_positions","componentType":5126,"count":11,"min":[-1.2213000059127808,0.9945409893989563,-1.88646399974823],"max":[-0.14478400349617004,1.2026920318603516,-1.3147989511489868],"type":"VEC3","bufferView":0,"byteOffset":732},{"name":"mitsuhoney-Mesh_5_texcoords","componentType":5126,"count":11,"min":[0.5790830254554749,0.5525230169296265],"max":[0.7591990232467651,0.761443018913269],"type":"VEC2","bufferView":1,"byteOffset":488},{"name":"mitsuhoney-Mesh_5_indices","componentType":5123,"count":36,"min":[0],"max":[10],"type":"SCALAR","bufferView":2,"byteOffset":360},{"name":"mitsuhoney-Mesh_6_positions","componentType":5126,"count":447,"min":[-1.5521620512008667,-0.8451200127601624,-2.9932680130004883],"max":[1.5521620512008667,1.5293920040130615,-0.018053000792860985],"type":"VEC3","bufferView":0,"byteOffset":864},{"name":"mitsuhoney-Mesh_6_texcoords","componentType":5126,"count":447,"min":[0.03192000091075897,0.024097999557852745],"max":[0.4483279883861542,0.9865670204162598],"type":"VEC2","bufferView":1,"byteOffset":576},{"name":"mitsuhoney-Mesh_6_indices","componentType":5123,"count":1878,"min":[0],"max":[446],"type":"SCALAR","bufferView":2,"byteOffset":432}],"asset":{"generator":"obj2gltf","version":"2.0"},"buffers":[{"name":"BR_Combee-Shiny01","byteLength":1063164,"uri":"data:application/octet-stream;base64,"}],"bufferViews":[{"name":"bufferView_0","buffer":0,"byteLength":6228,"byteOffset":0,"byteStride":12,"target":34962},{"name":"bufferView_1","buffer":0,"byteLength":4152,"byteOffset":6228,"byteStride":8,"target":34962},{"name":"bufferView_2","buffer":0,"byteLength":4188,"byteOffset":10380,"target":34963},{"buffer":0,"byteOffset":14568,"byteLength":1048594}],"images":[{"name":"mitsuhoney_1_0","mimeType":"image/x-tga","bufferView":3}],"materials":[{"name":"mat_0","pbrMetallicRoughness":{"baseColorTexture":{"index":0},"baseColorFactor":[1,1,1,1],"metallicFactor":0,"roughnessFactor":0.903921569},"emissiveFactor":[0,0,0],"alphaMode":"BLEND","doubleSided":true},{"name":"mat_1","pbrMetallicRoughness":{"baseColorTexture":{"index":0},"baseColorFactor":[1,1,1,1],"metallicFactor":0,"roughnessFactor":0.903921569},"emissiveFactor":[0,0,0],"alphaMode":"BLEND","doubleSided":true},{"name":"mat_2","pbrMetallicRoughness":{"baseColorTexture":{"index":0},"baseColorFactor":[1,1,1,1],"metallicFactor":0,"roughnessFactor":0.903921569},"emissiveFactor":[0,0,0],"alphaMode":"BLEND","doubleSided":true},{"name":"mat_3","pbrMetallicRoughness":{"baseColorTexture":{"index":0},"baseColorFactor":[1,1,1,1],"metallicFactor":0,"roughnessFactor":0.903921569},"emissiveFactor":[0,0,0],"alphaMode":"BLEND","doubleSided":true},{"name":"mat_4","pbrMetallicRoughness":{"baseColorTexture":{"index":0},"baseColorFactor":[1,1,1,1],"metallicFactor":0,"roughnessFactor":0.903921569},"emissiveFactor":[0,0,0],"alphaMode":"BLEND","doubleSided":true},{"name":"mat_5","pbrMetallicRoughness":{"baseColorTexture":{"index":0},"baseColorFactor":[1,1,1,1],"metallicFactor":0,"roughnessFactor":0.903921569},"emissiveFactor":[0,0,0],"alphaMode":"BLEND","doubleSided":true},{"name":"mat_6","pbrMetallicRoughness":{"baseColorTexture":{"index":0},"baseColorFactor":[1,1,1,1],"metallicFactor":0,"roughnessFactor":0.903921569},"emissiveFactor":[0,0,0],"alphaMode":"BLEND","doubleSided":true}],"meshes":[{"name":"mitsuhoney-Mesh","primitives":[{"attributes":{"POSITION":0,"TEXCOORD_0":1},"indices":2,"material":0,"mode":4},{"attributes":{"POSITION":3,"TEXCOORD_0":4},"indices":5,"material":1,"mode":4},{"attributes":{"POSITION":6,"TEXCOORD_0":7},"indices":8,"material":2,"mode":4},{"attributes":{"POSITION":9,"TEXCOORD_0":10},"indices":11,"material":3,"mode":4},{"attributes":{"POSITION":12,"TEXCOORD_0":13},"indices":14,"material":4,"mode":4},{"attributes":{"POSITION":15,"TEXCOORD_0":16},"indices":17,"material":5,"mode":4},{"attributes":{"POSITION":18,"TEXCOORD_0":19},"indices":20,"material":6,"mode":4}]}],"nodes":[{"name":"mitsuhoney","mesh":0}],"samplers":[{"wrapS":10497,"wrapT":10497}],"scene":0,"scenes":[{"nodes":[0]}],"textures":[{"name":"mitsuhoney_1_0","sampler":0,"source":0}]}