{"accessors":[{"name":"beequen-Mesh_0_positions","componentType":5126,"count":34,"min":[-0.9046409726142883,2.3240489959716797,-10.76611328125],"max":[0.9046409726142883,2.9383490085601807,-9.068777084350586],"type":"VEC3","bufferView":0,"byteOffset":0},{"name":"beequen-Mesh_0_texcoords","componentType":5126,"count":34,"min":[0.8599780201911926,0.0629889965057373],"max":[0.953158974647522,0.21505199372768402],"type":"VEC2","bufferView":1,"byteOffset":0},{"name":"beequen-Mesh_0_indices","componentType":5123,"count":126,"min":[0],"max":[33],"type":"SCALAR","bufferView":2,"byteOffset":0},{"name":"beequen-Mesh_1_positions","componentType":5126,"count":1847,"min":[-6.366159915924072,-5.212882995605469,-12.201067924499512],"max":[6.366159915924072,5.21164608001709,-0.03408699855208397],"type":"VEC3","bufferView":0,"byteOffset":408},{"name":"beequen-Mesh_1_texcoords","componentType":5126,"count":1847,"min":[0.006029000040143728,0.016913000494241714],"max":[0.9367679953575134,0.9940500259399414],"type":"VEC2","bufferView":1,"byteOffset":272},{"name":"beequen-Mesh_1_indices","componentType":5123,"count":8220,"min":[0],"max":[1846],"type":"SCALAR","bufferView":2,"byteOffset":252}],"asset":{"generator":"obj2gltf","version":"2.0"},"buffers":[{"name":"BR_Vespiquen-Shiny01","byteLength":1102908,"uri":"data:application/octet-stream;base64,"}],"bufferViews":[{"name":"bufferView_0","buffer":0,"byteLength":22572,"byteOffset":0,"byteStride":12,"target":34962},{"name":"bufferView_1","buffer":0,"byteLength":15048,"byteOffset":22572,"byteStride":8,"target":34962},{"name":"bufferView_2","buffer":0,"byteLength":16692,"byteOffset":37620,"target":34963},{"buffer":0,"byteOffset":54312,"byteLength":1048594}],"images":[{"name":"beequen_1_0","mimeType":"image/x-tga","bufferView":3}],"materials":[{"name":"mat_0","pbrMetallicRoughness":{"baseColorTexture":{"index":0},"baseColorFactor":[1,1,1,1],"metallicFactor":0,"roughnessFactor":0.903921569},"emissiveFactor":[0,0,0],"alphaMode":"BLEND","doubleSided":true},{"name":"mat_1","pbrMetallicRoughness":{"baseColorTexture":{"index":0},"baseColorFactor":[1,1,1,1],"metallicFactor":0,"roughnessFactor":0.903921569},"emissiveFactor":[0,0,0],"alphaMode":"BLEND","doubleSided":true}],"meshes":[{"name":"beequen-Mesh","primitives":[{"attributes":{"POSITION":0,"TEXCOORD_0":1},"indices":2,"material":0,"mode":4},{"attributes":{"POSITION":3,"TEXCOORD_0":4},"indices":5,"material":1,"mode":4}]}],"nodes":[{"name":"beequen","mesh":0}],"samplers":[{"wrapS":10497,"wrapT":10497}],"scene":0,"scenes":[{"nodes":[0]}],"textures":[{"name":"beequen_1_0","sampler":0,"source":0}]}