{"accessors":[{"name":"PachirisuF_1_0_positions","componentType":5126,"count":14586,"min":[-9.696860313415527,-23.121597290039062,-54.67909240722656],"max":[9.696860313415527,31.84869956970215,10.139103889465332],"type":"VEC3","bufferView":0,"byteOffset":0},{"name":"PachirisuF_1_0_normals","componentType":5126,"count":14586,"min":[-0.9989920854568481,-0.9995173215866089,-0.9672151207923889],"max":[0.9989921450614929,1,0.997085690498352],"type":"VEC3","bufferView":1,"byteOffset":0},{"name":"PachirisuF_1_0_texcoords","componentType":5126,"count":14586,"min":[0,0.007422999944537878],"max":[1,0.9925869703292847],"type":"VEC2","bufferView":2,"byteOffset":0},{"name":"PachirisuF_1_0_indices","componentType":5123,"count":14586,"min":[0],"max":[14585],"type":"SCALAR","bufferView":3,"byteOffset":0},{"name":"PachirisuF_1_1_positions","componentType":5126,"count":222,"min":[-6.393064975738525,15.574777603149414,6.659725189208984],"max":[6.393014907836914,20.648202896118164,9.884963035583496],"type":"VEC3","bufferView":0,"byteOffset":175032},{"name":"PachirisuF_1_1_normals","componentType":5126,"count":222,"min":[-0.9417871832847595,0.2327900230884552,-0.9672151207923889],"max":[0.9725013971328735,0.8327801823616028,0.9670397043228149],"type":"VEC3","bufferView":1,"byteOffset":175032},{"name":"PachirisuF_1_1_texcoords","componentType":5126,"count":222,"min":[0.007813000120222569,-0.9841899871826172],"max":[0.49219000339508057,-0.7736200094223022],"type":"VEC2","bufferView":2,"byteOffset":116688},{"name":"PachirisuF_1_1_indices","componentType":5123,"count":222,"min":[0],"max":[221],"type":"SCALAR","bufferView":3,"byteOffset":29172},{"name":"PachirisuF_1_2_positions","componentType":5126,"count":342,"min":[-3.737874984741211,11.545198440551758,5.551900863647461],"max":[3.737844944000244,16.724193572998047,10.471102714538574],"type":"VEC3","bufferView":0,"byteOffset":177696},{"name":"PachirisuF_1_2_normals","componentType":5126,"count":342,"min":[-0.9329565167427063,-0.019861003383994102,-0.8726938366889954],"max":[0.9989922046661377,1,0.9552534818649292],"type":"VEC3","bufferView":1,"byteOffset":177696},{"name":"PachirisuF_1_2_texcoords","componentType":5126,"count":342,"min":[0.12064500153064728,-1.9917700290679932],"max":[0.37935999035835266,-1.7582299709320068],"type":"VEC2","bufferView":2,"byteOffset":118464},{"name":"PachirisuF_1_2_indices","componentType":5123,"count":342,"min":[0],"max":[341],"type":"SCALAR","bufferView":3,"byteOffset":29616}],"asset":{"generator":"obj2gltf","version":"2.0"},"buffers":[{"name":"XY_PachirisuF","byteLength":624144,"uri":"data:application/octet-stream;base64,"}],"bufferViews":[{"name":"bufferView_0","buffer":0,"byteLength":181800,"byteOffset":0,"byteStride":12,"target":34962},{"name":"bufferView_1","buffer":0,"byteLength":181800,"byteOffset":181800,"byteStride":12,"target":34962},{"name":"bufferView_2","buffer":0,"byteLength":121200,"byteOffset":363600,"byteStride":8,"target":34962},{"name":"bufferView_3","buffer":0,"byteLength":30300,"byteOffset":484800,"target":34963},{"buffer":0,"byteOffset":515100,"byteLength":58941},{"buffer":0,"byteOffset":574041,"byteLength":30475},{"buffer":0,"byteOffset":604516,"byteLength":19625}],"images":[{"name":"pm0417_00_Body1","mimeType":"image/png","bufferView":4},{"name":"pm0417_00_Eye1","mimeType":"image/png","bufferView":5},{"name":"pm0417_00_Mouth1","mimeType":"image/png","bufferView":6}],"materials":[{"name":"Material__10","pbrMetallicRoughness":{"baseColorTexture":{"index":0},"baseColorFactor":[1,1,1,1],"metallicFactor":0,"roughnessFactor":0.998},"emissiveFactor":[0,0,0],"alphaMode":"OPAQUE","doubleSided":false},{"name":"Material__11","pbrMetallicRoughness":{"baseColorTexture":{"index":1},"baseColorFactor":[1,1,1,1],"metallicFactor":0,"roughnessFactor":0.998},"emissiveFactor":[0,0,0],"alphaMode":"OPAQUE","doubleSided":false},{"name":"Material__12","pbrMetallicRoughness":{"baseColorTexture":{"index":2},"baseColorFactor":[1,1,1,1],"metallicFactor":0,"roughnessFactor":0.998},"emissiveFactor":[0,0,0],"alphaMode":"OPAQUE","doubleSided":false}],"meshes":[{"name":"PachirisuF_1","primitives":[{"attributes":{"POSITION":0,"NORMAL":1,"TEXCOORD_0":2},"indices":3,"material":0,"mode":4},{"attributes":{"POSITION":4,"NORMAL":5,"TEXCOORD_0":6},"indices":7,"material":1,"mode":4},{"attributes":{"POSITION":8,"NORMAL":9,"TEXCOORD_0":10},"indices":11,"material":2,"mode":4}]}],"nodes":[{"name":"PachirisuF","mesh":0}],"samplers":[{"wrapS":10497,"wrapT":10497}],"scene":0,"scenes":[{"nodes":[0]}],"textures":[{"name":"pm0417_00_Body1","sampler":0,"source":0},{"name":"pm0417_00_Eye1","sampler":0,"source":1},{"name":"pm0417_00_Mouth1","sampler":0,"source":2}]}