{"accessors":[{"name":"polygon0_1_0_positions","componentType":5126,"count":899,"min":[-0.9045190215110779,-0.6010730266571045,-5.334900856018066],"max":[0.9045190215110779,2.996628999710083,0.9786109924316406],"type":"VEC3","bufferView":0,"byteOffset":0},{"name":"polygon0_1_0_normals","componentType":5126,"count":899,"min":[-0.9976450800895691,-0.999996542930603,-0.9999096989631653],"max":[0.9976450800895691,0.9993738532066345,0.9999269843101501],"type":"VEC3","bufferView":1,"byteOffset":0},{"name":"polygon0_1_0_texcoords","componentType":5126,"count":899,"min":[0.0015869999770075083,0.0026859999634325504],"max":[0.9900509715080261,0.9946290254592896],"type":"VEC2","bufferView":2,"byteOffset":0},{"name":"polygon0_1_0_indices","componentType":5123,"count":4548,"min":[0],"max":[898],"type":"SCALAR","bufferView":3,"byteOffset":0},{"name":"polygon1_1_0_positions","componentType":5126,"count":37,"min":[-0.306986004114151,1.0938940048217773,0.45438000559806824],"max":[0.306986004114151,1.520982027053833,0.9786109924316406],"type":"VEC3","bufferView":0,"byteOffset":10788},{"name":"polygon1_1_0_normals","componentType":5126,"count":37,"min":[-0.5232062935829163,-0.9315547943115234,0.2720319926738739],"max":[0.5232062935829163,0.14202608168125153,0.9949100613594055],"type":"VEC3","bufferView":1,"byteOffset":10788},{"name":"polygon1_1_0_texcoords","componentType":5126,"count":37,"min":[1.083251953125,0.00802600011229515],"max":[1.3134160041809082,0.2044070065021515],"type":"VEC2","bufferView":2,"byteOffset":7192},{"name":"polygon1_1_0_indices","componentType":5123,"count":162,"min":[0],"max":[36],"type":"SCALAR","bufferView":3,"byteOffset":9096},{"name":"polygon2_1_0_positions","componentType":5126,"count":36,"min":[-0.6323189735412598,1.4047019481658936,0.582394003868103],"max":[0.6323189735412598,1.9075599908828735,0.8660730123519897],"type":"VEC3","bufferView":0,"byteOffset":11232},{"name":"polygon2_1_0_normals","componentType":5126,"count":36,"min":[-0.6606324315071106,-0.3784729242324829,0.6572778820991516],"max":[0.6606324315071106,0.21771813929080963,0.9071082472801208],"type":"VEC3","bufferView":1,"byteOffset":11232},{"name":"polygon2_1_0_texcoords","componentType":5126,"count":36,"min":[1.168792963027954,0.02322399988770485],"max":[1.446532964706421,0.1913450062274933],"type":"VEC2","bufferView":2,"byteOffset":7488},{"name":"polygon2_1_0_indices","componentType":5123,"count":120,"min":[0],"max":[35],"type":"SCALAR","bufferView":3,"byteOffset":9420}],"asset":{"generator":"obj2gltf","version":"2.0"},"buffers":[{"name":"Pachirisu","byteLength":434036,"uri":"data:application/octet-stream;base64,"}],"bufferViews":[{"name":"bufferView_0","buffer":0,"byteLength":11664,"byteOffset":0,"byteStride":12,"target":34962},{"name":"bufferView_1","buffer":0,"byteLength":11664,"byteOffset":11664,"byteStride":12,"target":34962},{"name":"bufferView_2","buffer":0,"byteLength":7776,"byteOffset":23328,"byteStride":8,"target":34962},{"name":"bufferView_3","buffer":0,"byteLength":9660,"byteOffset":31104,"target":34963},{"buffer":0,"byteOffset":40764,"byteLength":196626},{"buffer":0,"byteOffset":237390,"byteLength":98322},{"buffer":0,"byteOffset":335712,"byteLength":98322}],"images":[{"name":"PachirisuDh","mimeType":"image/x-tga","bufferView":4},{"name":"PachirisuMouthDh","mimeType":"image/x-tga","bufferView":5},{"name":"PachirisuEyeDh","mimeType":"image/x-tga","bufferView":6}],"materials":[{"name":"mat1","pbrMetallicRoughness":{"baseColorTexture":{"index":0},"baseColorFactor":[1,1,1,1],"metallicFactor":0,"roughnessFactor":0.99},"emissiveFactor":[0,0,0],"alphaMode":"OPAQUE","doubleSided":false},{"name":"mat3","pbrMetallicRoughness":{"baseColorTexture":{"index":1},"baseColorFactor":[1,1,1,1],"metallicFactor":0,"roughnessFactor":0.99},"emissiveFactor":[0,0,0],"alphaMode":"OPAQUE","doubleSided":false},{"name":"mat2","pbrMetallicRoughness":{"baseColorTexture":{"index":2},"baseColorFactor":[1,1,1,1],"metallicFactor":0,"roughnessFactor":0.99},"emissiveFactor":[0,0,0],"alphaMode":"OPAQUE","doubleSided":false}],"meshes":[{"name":"polygon0_1","primitives":[{"attributes":{"POSITION":0,"NORMAL":1,"TEXCOORD_0":2},"indices":3,"material":0,"mode":4}]},{"name":"polygon1_1","primitives":[{"attributes":{"POSITION":4,"NORMAL":5,"TEXCOORD_0":6},"indices":7,"material":1,"mode":4}]},{"name":"polygon2_1","primitives":[{"attributes":{"POSITION":8,"NORMAL":9,"TEXCOORD_0":10},"indices":11,"material":2,"mode":4}]}],"nodes":[{"name":"polygon0","mesh":0},{"name":"polygon1","mesh":1},{"name":"polygon2","mesh":2}],"samplers":[{"wrapS":10497,"wrapT":10497}],"scene":0,"scenes":[{"nodes":[0,1,2]}],"textures":[{"name":"PachirisuDh","sampler":0,"source":0},{"name":"PachirisuMouthDh","sampler":0,"source":1},{"name":"PachirisuEyeDh","sampler":0,"source":2}]}