{"accessors":[{"name":"polygon0_1_0_positions","componentType":5126,"count":774,"min":[-1.6288119554519653,-0.3317509889602661,-5.509501934051514],"max":[1.6288119554519653,7.050425052642822,1.8990600109100342],"type":"VEC3","bufferView":0,"byteOffset":0},{"name":"polygon0_1_0_normals","componentType":5126,"count":774,"min":[-0.9984565377235413,-0.9978492259979248,-0.9998674392700195],"max":[0.9984565377235413,0.9997996091842651,0.9999803900718689],"type":"VEC3","bufferView":1,"byteOffset":0},{"name":"polygon0_1_0_texcoords","componentType":5126,"count":774,"min":[0.010559000074863434,0.014069000259041786],"max":[0.9888920187950134,0.9819030165672302],"type":"VEC2","bufferView":2,"byteOffset":0},{"name":"polygon0_1_0_indices","componentType":5123,"count":3564,"min":[0],"max":[773],"type":"SCALAR","bufferView":3,"byteOffset":0},{"name":"polygon1_1_0_positions","componentType":5126,"count":37,"min":[-0.8133350014686584,5.516662120819092,0.7333359718322754],"max":[0.8133360147476196,6.562918186187744,1.6267590522766113],"type":"VEC3","bufferView":0,"byteOffset":9288},{"name":"polygon1_1_0_normals","componentType":5126,"count":37,"min":[-0.9001935720443726,0.2797008454799652,0.23146593570709229],"max":[0.9012408256530762,0.9236517548561096,0.7547409534454346],"type":"VEC3","bufferView":1,"byteOffset":9288},{"name":"polygon1_1_0_texcoords","componentType":5126,"count":37,"min":[-1.996948003768921,0.01879899948835373],"max":[-1.5754389762878418,0.24377399682998657],"type":"VEC2","bufferView":2,"byteOffset":6192},{"name":"polygon1_1_0_indices","componentType":5123,"count":156,"min":[0],"max":[36],"type":"SCALAR","bufferView":3,"byteOffset":7128},{"name":"polygon2_1_0_positions","componentType":5126,"count":24,"min":[-0.49732500314712524,4.8757100105285645,0.8745999932289124],"max":[0.49732500314712524,5.549164772033691,1.853929042816162],"type":"VEC3","bufferView":0,"byteOffset":9732},{"name":"polygon2_1_0_normals","componentType":5126,"count":24,"min":[-0.7396324872970581,-0.9709604382514954,0.2260100394487381],"max":[0.7396324872970581,0.2992348074913025,0.9999803900718689],"type":"VEC3","bufferView":1,"byteOffset":9732},{"name":"polygon2_1_0_texcoords","componentType":5126,"count":24,"min":[-0.9085080027580261,0.008117999881505966],"max":[-0.21637000143527985,0.24365200102329254],"type":"VEC2","bufferView":2,"byteOffset":6488},{"name":"polygon2_1_0_indices","componentType":5123,"count":90,"min":[0],"max":[23],"type":"SCALAR","bufferView":3,"byteOffset":7440}],"asset":{"generator":"obj2gltf","version":"2.0"},"buffers":[{"name":"Buizel","byteLength":378460,"uri":"data:application/octet-stream;base64,"}],"bufferViews":[{"name":"bufferView_0","buffer":0,"byteLength":10020,"byteOffset":0,"byteStride":12,"target":34962},{"name":"bufferView_1","buffer":0,"byteLength":10020,"byteOffset":10020,"byteStride":12,"target":34962},{"name":"bufferView_2","buffer":0,"byteLength":6680,"byteOffset":20040,"byteStride":8,"target":34962},{"name":"bufferView_3","buffer":0,"byteLength":7620,"byteOffset":26720,"target":34963},{"buffer":0,"byteOffset":34340,"byteLength":196626},{"buffer":0,"byteOffset":230966,"byteLength":98322},{"buffer":0,"byteOffset":329288,"byteLength":49170}],"images":[{"name":"BuoyselDh","mimeType":"image/x-tga","bufferView":4},{"name":"BuoyselEyeDh","mimeType":"image/x-tga","bufferView":5},{"name":"BuoyselMouthDh","mimeType":"image/x-tga","bufferView":6}],"materials":[{"name":"mat1","pbrMetallicRoughness":{"baseColorTexture":{"index":0},"baseColorFactor":[1,1,1,1],"metallicFactor":0,"roughnessFactor":0.99},"emissiveFactor":[0,0,0],"alphaMode":"OPAQUE","doubleSided":false},{"name":"mat2","pbrMetallicRoughness":{"baseColorTexture":{"index":1},"baseColorFactor":[1,1,1,1],"metallicFactor":0,"roughnessFactor":0.99},"emissiveFactor":[0,0,0],"alphaMode":"OPAQUE","doubleSided":false},{"name":"mat3","pbrMetallicRoughness":{"baseColorTexture":{"index":2},"baseColorFactor":[1,1,1,1],"metallicFactor":0,"roughnessFactor":0.99},"emissiveFactor":[0,0,0],"alphaMode":"OPAQUE","doubleSided":false}],"meshes":[{"name":"polygon0_1","primitives":[{"attributes":{"POSITION":0,"NORMAL":1,"TEXCOORD_0":2},"indices":3,"material":0,"mode":4}]},{"name":"polygon1_1","primitives":[{"attributes":{"POSITION":4,"NORMAL":5,"TEXCOORD_0":6},"indices":7,"material":1,"mode":4}]},{"name":"polygon2_1","primitives":[{"attributes":{"POSITION":8,"NORMAL":9,"TEXCOORD_0":10},"indices":11,"material":2,"mode":4}]}],"nodes":[{"name":"polygon0","mesh":0},{"name":"polygon1","mesh":1},{"name":"polygon2","mesh":2}],"samplers":[{"wrapS":10497,"wrapT":10497}],"scene":0,"scenes":[{"nodes":[0,1,2]}],"textures":[{"name":"BuoyselDh","sampler":0,"source":0},{"name":"BuoyselEyeDh","sampler":0,"source":1},{"name":"BuoyselMouthDh","sampler":0,"source":2}]}