{"accessors":[{"name":"polygon0_1_0_positions","componentType":5126,"count":16,"min":[-0.8708230257034302,7.137149810791016,2.7517600059509277],"max":[0.8708230257034302,8.239668846130371,3.368541955947876],"type":"VEC3","bufferView":0,"byteOffset":0},{"name":"polygon0_1_0_normals","componentType":5126,"count":16,"min":[-0.9335696697235107,0.01458700094372034,0.3343418836593628],"max":[0.9335696697235107,0.2874230146408081,0.6866911053657532],"type":"VEC3","bufferView":1,"byteOffset":0},{"name":"polygon0_1_0_texcoords","componentType":5126,"count":16,"min":[0.04296899959445,0.0039059999398887157],"max":[0.4453130066394806,0.2460940033197403],"type":"VEC2","bufferView":2,"byteOffset":0},{"name":"polygon0_1_0_indices","componentType":5123,"count":36,"min":[0],"max":[15],"type":"SCALAR","bufferView":3,"byteOffset":0},{"name":"polygon1_1_0_positions","componentType":5126,"count":940,"min":[-4.420159816741943,-1.3741309642791748,-7.304769992828369],"max":[4.420162200927734,10.476158142089844,4.273458957672119],"type":"VEC3","bufferView":0,"byteOffset":192},{"name":"polygon1_1_0_normals","componentType":5126,"count":940,"min":[-0.9995182752609253,-0.9999991059303284,-0.9999369382858276],"max":[0.9995182752609253,0.9958686828613281,0.9999814033508301],"type":"VEC3","bufferView":1,"byteOffset":192},{"name":"polygon1_1_0_texcoords","componentType":5126,"count":940,"min":[0.010192999616265297,0.005981000140309334],"max":[0.9887080192565918,0.9940189719200134],"type":"VEC2","bufferView":2,"byteOffset":128},{"name":"polygon1_1_0_indices","componentType":5123,"count":4428,"min":[0],"max":[939],"type":"SCALAR","bufferView":3,"byteOffset":72}],"asset":{"generator":"obj2gltf","version":"2.0"},"buffers":[{"name":"Floatzel","byteLength":334468,"uri":"data:application/octet-stream;base64,"}],"bufferViews":[{"name":"bufferView_0","buffer":0,"byteLength":11472,"byteOffset":0,"byteStride":12,"target":34962},{"name":"bufferView_1","buffer":0,"byteLength":11472,"byteOffset":11472,"byteStride":12,"target":34962},{"name":"bufferView_2","buffer":0,"byteLength":7648,"byteOffset":22944,"byteStride":8,"target":34962},{"name":"bufferView_3","buffer":0,"byteLength":8928,"byteOffset":30592,"target":34963},{"buffer":0,"byteOffset":39520,"byteLength":98322},{"buffer":0,"byteOffset":137842,"byteLength":196626}],"images":[{"name":"FloazelEyeDh","mimeType":"image/x-tga","bufferView":4},{"name":"FloazelDh","mimeType":"image/x-tga","bufferView":5}],"materials":[{"name":"mat2","pbrMetallicRoughness":{"baseColorTexture":{"index":0},"baseColorFactor":[1,1,1,1],"metallicFactor":0,"roughnessFactor":0.99},"emissiveFactor":[0,0,0],"alphaMode":"OPAQUE","doubleSided":false},{"name":"mat1","pbrMetallicRoughness":{"baseColorTexture":{"index":1},"baseColorFactor":[1,1,1,1],"metallicFactor":0,"roughnessFactor":0.99},"emissiveFactor":[0,0,0],"alphaMode":"OPAQUE","doubleSided":false}],"meshes":[{"name":"polygon0_1","primitives":[{"attributes":{"POSITION":0,"NORMAL":1,"TEXCOORD_0":2},"indices":3,"material":0,"mode":4}]},{"name":"polygon1_1","primitives":[{"attributes":{"POSITION":4,"NORMAL":5,"TEXCOORD_0":6},"indices":7,"material":1,"mode":4}]}],"nodes":[{"name":"polygon0","mesh":0},{"name":"polygon1","mesh":1}],"samplers":[{"wrapS":10497,"wrapT":10497}],"scene":0,"scenes":[{"nodes":[0,1]}],"textures":[{"name":"FloazelEyeDh","sampler":0,"source":0},{"name":"FloazelDh","sampler":0,"source":1}]}