{"accessors":[{"name":"cherinbo-Mesh_0_positions","componentType":5126,"count":12,"min":[-0.32523399591445923,0.8926230072975159,-1.0667680501937866],"max":[0.32523399591445923,0.9949489831924438,-0.6422690153121948],"type":"VEC3","bufferView":0,"byteOffset":0},{"name":"cherinbo-Mesh_0_texcoords","componentType":5126,"count":12,"min":[0.5960639715194702,0.14172500371932983],"max":[0.758433997631073,0.35640498995780945],"type":"VEC2","bufferView":1,"byteOffset":0},{"name":"cherinbo-Mesh_0_indices","componentType":5123,"count":36,"min":[0],"max":[11],"type":"SCALAR","bufferView":2,"byteOffset":0},{"name":"cherinbo-Mesh_1_positions","componentType":5126,"count":809,"min":[-1.0525740385055542,-1.2687569856643677,-2.224684953689575],"max":[1.7463289499282837,0.9892200231552124,-0.0027379998937249184],"type":"VEC3","bufferView":0,"byteOffset":144},{"name":"cherinbo-Mesh_1_texcoords","componentType":5126,"count":809,"min":[0.1583629995584488,0.036479998379945755],"max":[0.9778429865837097,0.9130989909172058],"type":"VEC2","bufferView":1,"byteOffset":96},{"name":"cherinbo-Mesh_1_indices","componentType":5123,"count":4284,"min":[0],"max":[808],"type":"SCALAR","bufferView":2,"byteOffset":72},{"name":"cherinbo-Mesh_2_positions","componentType":5126,"count":16,"min":[-0.6186630129814148,0.7489050030708313,-1.3557109832763672],"max":[0.6186630129814148,0.946262001991272,-0.9204959869384766],"type":"VEC3","bufferView":0,"byteOffset":9852},{"name":"cherinbo-Mesh_2_texcoords","componentType":5126,"count":16,"min":[0.8352580070495605,0.009496999904513359],"max":[0.9372109770774841,0.15365399420261383],"type":"VEC2","bufferView":1,"byteOffset":6568},{"name":"cherinbo-Mesh_2_indices","componentType":5123,"count":36,"min":[0],"max":[15],"type":"SCALAR","bufferView":2,"byteOffset":8640},{"name":"cherinbo-Mesh_3_positions","componentType":5126,"count":740,"min":[-0.9612429738044739,-1.2681889533996582,-3.2900359630584717],"max":[1.537716031074524,0.8561549782752991,-1.9875019788742065],"type":"VEC3","bufferView":0,"byteOffset":10044},{"name":"cherinbo-Mesh_3_texcoords","componentType":5126,"count":740,"min":[0.023135999217629433,0.7701780200004578],"max":[0.2945530116558075,0.9628710150718689],"type":"VEC2","bufferView":1,"byteOffset":6696},{"name":"cherinbo-Mesh_3_indices","componentType":5123,"count":3816,"min":[0],"max":[739],"type":"SCALAR","bufferView":2,"byteOffset":8712}],"asset":{"generator":"obj2gltf","version":"2.0"},"buffers":[{"name":"BR_Cherubi-Shiny01","byteLength":1096480,"uri":"data:application/octet-stream;base64,"}],"bufferViews":[{"name":"bufferView_0","buffer":0,"byteLength":18924,"byteOffset":0,"byteStride":12,"target":34962},{"name":"bufferView_1","buffer":0,"byteLength":12616,"byteOffset":18924,"byteStride":8,"target":34962},{"name":"bufferView_2","buffer":0,"byteLength":16344,"byteOffset":31540,"target":34963},{"buffer":0,"byteOffset":47884,"byteLength":1048594}],"images":[{"name":"cherinbo_1_0","mimeType":"image/x-tga","bufferView":3}],"materials":[{"name":"mat_0","pbrMetallicRoughness":{"baseColorTexture":{"index":0},"baseColorFactor":[1,1,1,1],"metallicFactor":0,"roughnessFactor":0.903921569},"emissiveFactor":[0,0,0],"alphaMode":"BLEND","doubleSided":true},{"name":"mat_1","pbrMetallicRoughness":{"baseColorTexture":{"index":0},"baseColorFactor":[1,1,1,1],"metallicFactor":0,"roughnessFactor":0.903921569},"emissiveFactor":[0,0,0],"alphaMode":"BLEND","doubleSided":true},{"name":"mat_2","pbrMetallicRoughness":{"baseColorTexture":{"index":0},"baseColorFactor":[1,1,1,1],"metallicFactor":0,"roughnessFactor":0.903921569},"emissiveFactor":[0,0,0],"alphaMode":"BLEND","doubleSided":true},{"name":"mat_3","pbrMetallicRoughness":{"baseColorTexture":{"index":0},"baseColorFactor":[1,1,1,1],"metallicFactor":0,"roughnessFactor":0.903921569},"emissiveFactor":[0,0,0],"alphaMode":"BLEND","doubleSided":true}],"meshes":[{"name":"cherinbo-Mesh","primitives":[{"attributes":{"POSITION":0,"TEXCOORD_0":1},"indices":2,"material":0,"mode":4},{"attributes":{"POSITION":3,"TEXCOORD_0":4},"indices":5,"material":1,"mode":4},{"attributes":{"POSITION":6,"TEXCOORD_0":7},"indices":8,"material":2,"mode":4},{"attributes":{"POSITION":9,"TEXCOORD_0":10},"indices":11,"material":3,"mode":4}]}],"nodes":[{"name":"cherinbo","mesh":0}],"samplers":[{"wrapS":10497,"wrapT":10497}],"scene":0,"scenes":[{"nodes":[0]}],"textures":[{"name":"cherinbo_1_0","sampler":0,"source":0}]}