{"accessors":[{"name":"cherrim-Mesh_0_positions","componentType":5126,"count":1515,"min":[-2.056691884994507,-1.4571950435638428,-5.0391459465026855],"max":[2.121427059173584,1.5080519914627075,-0.006304999813437462],"type":"VEC3","bufferView":0,"byteOffset":0},{"name":"cherrim-Mesh_0_texcoords","componentType":5126,"count":1515,"min":[0.05904100090265274,0.032999999821186066],"max":[0.9684309959411621,0.9709740281105042],"type":"VEC2","bufferView":1,"byteOffset":0},{"name":"cherrim-Mesh_0_indices","componentType":5123,"count":8250,"min":[0],"max":[1514],"type":"SCALAR","bufferView":2,"byteOffset":0},{"name":"cherrim-Mesh_1_positions","componentType":5126,"count":22,"min":[-0.8440350294113159,0.46936699748039246,-1.0312260389328003],"max":[0.8440350294113159,0.8190230131149292,-0.39503398537635803],"type":"VEC3","bufferView":0,"byteOffset":18180},{"name":"cherrim-Mesh_1_texcoords","componentType":5126,"count":22,"min":[0.769806981086731,0.030202999711036682],"max":[0.9562090039253235,0.2232609987258911],"type":"VEC2","bufferView":1,"byteOffset":12120},{"name":"cherrim-Mesh_1_indices","componentType":5123,"count":60,"min":[0],"max":[21],"type":"SCALAR","bufferView":2,"byteOffset":16500}],"asset":{"generator":"obj2gltf","version":"2.0"},"buffers":[{"name":"BR_Cherrim-Shiny01","byteLength":1095956,"uri":"data:application/octet-stream;base64,"}],"bufferViews":[{"name":"bufferView_0","buffer":0,"byteLength":18444,"byteOffset":0,"byteStride":12,"target":34962},{"name":"bufferView_1","buffer":0,"byteLength":12296,"byteOffset":18444,"byteStride":8,"target":34962},{"name":"bufferView_2","buffer":0,"byteLength":16620,"byteOffset":30740,"target":34963},{"buffer":0,"byteOffset":47360,"byteLength":1048594}],"images":[{"name":"cherrim_1_0","mimeType":"image/x-tga","bufferView":3}],"materials":[{"name":"mat_0","pbrMetallicRoughness":{"baseColorTexture":{"index":0},"baseColorFactor":[1,1,1,1],"metallicFactor":0,"roughnessFactor":0.903921569},"emissiveFactor":[0,0,0],"alphaMode":"BLEND","doubleSided":true},{"name":"mat_1","pbrMetallicRoughness":{"baseColorTexture":{"index":0},"baseColorFactor":[1,1,1,1],"metallicFactor":0,"roughnessFactor":0.903921569},"emissiveFactor":[0,0,0],"alphaMode":"BLEND","doubleSided":true}],"meshes":[{"name":"cherrim-Mesh","primitives":[{"attributes":{"POSITION":0,"TEXCOORD_0":1},"indices":2,"material":0,"mode":4},{"attributes":{"POSITION":3,"TEXCOORD_0":4},"indices":5,"material":1,"mode":4}]}],"nodes":[{"name":"cherrim","mesh":0}],"samplers":[{"wrapS":10497,"wrapT":10497}],"scene":0,"scenes":[{"nodes":[0]}],"textures":[{"name":"cherrim_1_0","sampler":0,"source":0}]}