{"accessors":[{"name":"karanakushi-Mesh_0_positions","componentType":5126,"count":706,"min":[-0.9050359725952148,-1.4440120458602905,-2.720794916152954],"max":[0.9050359725952148,0.8950759768486023,-0.005123000126332045],"type":"VEC3","bufferView":0,"byteOffset":0},{"name":"karanakushi-Mesh_0_texcoords","componentType":5126,"count":706,"min":[0.5026040077209473,0.0034179999493062496],"max":[0.7431219816207886,0.9961320161819458],"type":"VEC2","bufferView":1,"byteOffset":0},{"name":"karanakushi-Mesh_0_indices","componentType":5123,"count":3006,"min":[0],"max":[705],"type":"SCALAR","bufferView":2,"byteOffset":0},{"name":"karanakushi-Mesh_1_positions","componentType":5126,"count":46,"min":[-0.5886560082435608,0.3439030051231384,-2.0764598846435547],"max":[0.5886560082435608,0.8573629856109619,-1.5528000593185425],"type":"VEC3","bufferView":0,"byteOffset":8472},{"name":"karanakushi-Mesh_1_texcoords","componentType":5126,"count":46,"min":[0.7724339962005615,0.01312199980020523],"max":[0.9775660037994385,0.22756600379943848],"type":"VEC2","bufferView":1,"byteOffset":5648},{"name":"karanakushi-Mesh_1_indices","componentType":5123,"count":180,"min":[0],"max":[45],"type":"SCALAR","bufferView":2,"byteOffset":6012}],"asset":{"generator":"obj2gltf","version":"2.0"},"buffers":[{"name":"BR_Shellos-Shiny01","byteLength":1070008,"uri":"data:application/octet-stream;base64,"}],"bufferViews":[{"name":"bufferView_0","buffer":0,"byteLength":9024,"byteOffset":0,"byteStride":12,"target":34962},{"name":"bufferView_1","buffer":0,"byteLength":6016,"byteOffset":9024,"byteStride":8,"target":34962},{"name":"bufferView_2","buffer":0,"byteLength":6372,"byteOffset":15040,"target":34963},{"buffer":0,"byteOffset":21412,"byteLength":1048594}],"images":[{"name":"karanakushi_1_0","mimeType":"image/x-tga","bufferView":3}],"materials":[{"name":"mat_0","pbrMetallicRoughness":{"baseColorTexture":{"index":0},"baseColorFactor":[1,1,1,1],"metallicFactor":0,"roughnessFactor":0.903921569},"emissiveFactor":[0,0,0],"alphaMode":"BLEND","doubleSided":true},{"name":"mat_1","pbrMetallicRoughness":{"baseColorTexture":{"index":0},"baseColorFactor":[1,1,1,1],"metallicFactor":0,"roughnessFactor":0.903921569},"emissiveFactor":[0,0,0],"alphaMode":"BLEND","doubleSided":true}],"meshes":[{"name":"karanakushi-Mesh","primitives":[{"attributes":{"POSITION":0,"TEXCOORD_0":1},"indices":2,"material":0,"mode":4},{"attributes":{"POSITION":3,"TEXCOORD_0":4},"indices":5,"material":1,"mode":4}]}],"nodes":[{"name":"karanakushi","mesh":0}],"samplers":[{"wrapS":10497,"wrapT":10497}],"scene":0,"scenes":[{"nodes":[0]}],"textures":[{"name":"karanakushi_1_0","sampler":0,"source":0}]}