{"accessors":[{"name":"tritodon-Mesh_0_positions","componentType":5126,"count":1830,"min":[-2.9339160919189453,-4.485019207000732,-8.619304656982422],"max":[2.9339160919189453,4.0646867752075195,0.03102000057697296],"type":"VEC3","bufferView":0,"byteOffset":0},{"name":"tritodon-Mesh_0_texcoords","componentType":5126,"count":1830,"min":[0.5064849853515625,-0.23660999536514282],"max":[0.9753620028495789,0.9961320161819458],"type":"VEC2","bufferView":1,"byteOffset":0},{"name":"tritodon-Mesh_0_indices","componentType":5123,"count":8388,"min":[0],"max":[1829],"type":"SCALAR","bufferView":2,"byteOffset":0}],"asset":{"generator":"obj2gltf","version":"2.0"},"buffers":[{"name":"BR_Gastrodon-Shiny01","byteLength":1101972,"uri":"data:application/octet-stream;base64,"}],"bufferViews":[{"name":"bufferView_0","buffer":0,"byteLength":21960,"byteOffset":0,"byteStride":12,"target":34962},{"name":"bufferView_1","buffer":0,"byteLength":14640,"byteOffset":21960,"byteStride":8,"target":34962},{"name":"bufferView_2","buffer":0,"byteLength":16776,"byteOffset":36600,"target":34963},{"buffer":0,"byteOffset":53376,"byteLength":1048594}],"images":[{"name":"tritodon_1_0","mimeType":"image/x-tga","bufferView":3}],"materials":[{"name":"mat_0","pbrMetallicRoughness":{"baseColorTexture":{"index":0},"baseColorFactor":[1,1,1,1],"metallicFactor":0,"roughnessFactor":0.903921569},"emissiveFactor":[0,0,0],"alphaMode":"BLEND","doubleSided":true}],"meshes":[{"name":"tritodon-Mesh","primitives":[{"attributes":{"POSITION":0,"TEXCOORD_0":1},"indices":2,"material":0,"mode":4}]}],"nodes":[{"name":"tritodon","mesh":0}],"samplers":[{"wrapS":10497,"wrapT":10497}],"scene":0,"scenes":[{"nodes":[0]}],"textures":[{"name":"tritodon_1_0","sampler":0,"source":0}]}