{"accessors":[{"name":"polygon0_1_0_positions","componentType":5126,"count":22,"min":[-1.5707709789276123,6.384812831878662,1.3156490325927734],"max":[1.5707709789276123,7.9535322189331055,1.9696049690246582],"type":"VEC3","bufferView":0,"byteOffset":0},{"name":"polygon0_1_0_normals","componentType":5126,"count":22,"min":[-0.702134907245636,-0.36123499274253845,0.693082869052887],"max":[0.702134907245636,0.4145119786262512,0.9465961456298828],"type":"VEC3","bufferView":1,"byteOffset":0},{"name":"polygon0_1_0_texcoords","componentType":5126,"count":22,"min":[0.0742190033197403,0.0039059999398887157],"max":[0.3828130066394806,0.2460940033197403],"type":"VEC2","bufferView":2,"byteOffset":0},{"name":"polygon0_1_0_indices","componentType":5123,"count":72,"min":[0],"max":[21],"type":"SCALAR","bufferView":3,"byteOffset":0},{"name":"polygon1_1_0_positions","componentType":5126,"count":947,"min":[-7.10349178314209,0.007968000136315823,-17.156932830810547],"max":[7.103490829467773,12.205734252929688,2.0821430683135986],"type":"VEC3","bufferView":0,"byteOffset":264},{"name":"polygon1_1_0_normals","componentType":5126,"count":947,"min":[-0.9987922310829163,-0.9999759793281555,-0.9997983574867249],"max":[0.9987922310829163,0.9999536871910095,0.9999973177909851],"type":"VEC3","bufferView":1,"byteOffset":264},{"name":"polygon1_1_0_texcoords","componentType":5126,"count":947,"min":[0.010986000299453735,0.011322000063955784],"max":[0.9902039766311646,0.9889529943466187],"type":"VEC2","bufferView":2,"byteOffset":176},{"name":"polygon1_1_0_indices","componentType":5123,"count":4542,"min":[0],"max":[946],"type":"SCALAR","bufferView":3,"byteOffset":144},{"name":"polygon2_1_0_positions","componentType":5126,"count":11,"min":[-0.8003389835357666,5.716526031494141,1.367954969406128],"max":[0.8003389835357666,6.586973190307617,1.9997299909591675],"type":"VEC3","bufferView":0,"byteOffset":11628},{"name":"polygon2_1_0_normals","componentType":5126,"count":11,"min":[-0.3598141074180603,-0.8058838248252869,0.5369868874549866],"max":[0.3598141074180603,-0.1942010223865509,0.9573082327842712],"type":"VEC3","bufferView":1,"byteOffset":11628},{"name":"polygon2_1_0_texcoords","componentType":5126,"count":11,"min":[0.07470700144767761,0.032990001142024994],"max":[0.8574830293655396,0.21408100426197052],"type":"VEC2","bufferView":2,"byteOffset":7752},{"name":"polygon2_1_0_indices","componentType":5123,"count":36,"min":[0],"max":[10],"type":"SCALAR","bufferView":3,"byteOffset":9228}],"asset":{"generator":"obj2gltf","version":"2.0"},"buffers":[{"name":"Ambipom","byteLength":384780,"uri":"data:application/octet-stream;base64,"}],"bufferViews":[{"name":"bufferView_0","buffer":0,"byteLength":11760,"byteOffset":0,"byteStride":12,"target":34962},{"name":"bufferView_1","buffer":0,"byteLength":11760,"byteOffset":11760,"byteStride":12,"target":34962},{"name":"bufferView_2","buffer":0,"byteLength":7840,"byteOffset":23520,"byteStride":8,"target":34962},{"name":"bufferView_3","buffer":0,"byteLength":9300,"byteOffset":31360,"target":34963},{"buffer":0,"byteOffset":40660,"byteLength":98322},{"buffer":0,"byteOffset":138982,"byteLength":196626},{"buffer":0,"byteOffset":335608,"byteLength":49170}],"images":[{"name":"EtebothEyeDh","mimeType":"image/x-tga","bufferView":4},{"name":"EtebothDh","mimeType":"image/x-tga","bufferView":5},{"name":"EtebothMouthDh","mimeType":"image/x-tga","bufferView":6}],"materials":[{"name":"mat2","pbrMetallicRoughness":{"baseColorTexture":{"index":0},"baseColorFactor":[1,1,1,1],"metallicFactor":0,"roughnessFactor":0.99},"emissiveFactor":[0,0,0],"alphaMode":"OPAQUE","doubleSided":false},{"name":"mat1","pbrMetallicRoughness":{"baseColorTexture":{"index":1},"baseColorFactor":[1,1,1,1],"metallicFactor":0,"roughnessFactor":0.99},"emissiveFactor":[0,0,0],"alphaMode":"OPAQUE","doubleSided":false},{"name":"mat3","pbrMetallicRoughness":{"baseColorTexture":{"index":2},"baseColorFactor":[1,1,1,1],"metallicFactor":0,"roughnessFactor":0.99},"emissiveFactor":[0,0,0],"alphaMode":"OPAQUE","doubleSided":false}],"meshes":[{"name":"polygon0_1","primitives":[{"attributes":{"POSITION":0,"NORMAL":1,"TEXCOORD_0":2},"indices":3,"material":0,"mode":4}]},{"name":"polygon1_1","primitives":[{"attributes":{"POSITION":4,"NORMAL":5,"TEXCOORD_0":6},"indices":7,"material":1,"mode":4}]},{"name":"polygon2_1","primitives":[{"attributes":{"POSITION":8,"NORMAL":9,"TEXCOORD_0":10},"indices":11,"material":2,"mode":4}]}],"nodes":[{"name":"polygon0","mesh":0},{"name":"polygon1","mesh":1},{"name":"polygon2","mesh":2}],"samplers":[{"wrapS":10497,"wrapT":10497}],"scene":0,"scenes":[{"nodes":[0,1,2]}],"textures":[{"name":"EtebothEyeDh","sampler":0,"source":0},{"name":"EtebothDh","sampler":0,"source":1},{"name":"EtebothMouthDh","sampler":0,"source":2}]}