{"accessors":[{"name":"polygon0_1_0_positions","componentType":5126,"count":755,"min":[-4.3019938468933105,0.01438899990171194,-1.4070969820022583],"max":[4.3019938468933105,3.8217360973358154,1.4002130031585693],"type":"VEC3","bufferView":0,"byteOffset":0},{"name":"polygon0_1_0_normals","componentType":5126,"count":755,"min":[-1,-1,-1],"max":[1,1,0.9984891414642334],"type":"VEC3","bufferView":1,"byteOffset":0},{"name":"polygon0_1_0_texcoords","componentType":5126,"count":755,"min":[0.010834000073373318,0.009643999859690666],"max":[0.9874269962310791,0.9955440163612366],"type":"VEC2","bufferView":2,"byteOffset":0},{"name":"polygon0_1_0_indices","componentType":5123,"count":3750,"min":[0],"max":[754],"type":"SCALAR","bufferView":3,"byteOffset":0},{"name":"polygon2_1_0_positions","componentType":5126,"count":14,"min":[-0.9948989748954773,1.7880350351333618,0.8616080284118652],"max":[0.9950370192527771,2.3873870372772217,1.30007803440094],"type":"VEC3","bufferView":0,"byteOffset":9060},{"name":"polygon2_1_0_normals","componentType":5126,"count":14,"min":[-0.7071372866630554,0,0.5886109471321106],"max":[0.7070762515068054,0.5682799816131592,0.9131605625152588],"type":"VEC3","bufferView":1,"byteOffset":9060},{"name":"polygon2_1_0_texcoords","componentType":5126,"count":14,"min":[0.10317999869585037,-0.03830000013113022],"max":[0.40344199538230896,0.25326499342918396],"type":"VEC2","bufferView":2,"byteOffset":6040},{"name":"polygon2_1_0_indices","componentType":5123,"count":36,"min":[0],"max":[13],"type":"SCALAR","bufferView":3,"byteOffset":7500},{"name":"polygon3_1_0_positions","componentType":5126,"count":7,"min":[-0.26921799778938293,1.7043379545211792,1.3192700147628784],"max":[0.26925501227378845,2.098283052444458,1.4021379947662354],"type":"VEC3","bufferView":0,"byteOffset":9228},{"name":"polygon3_1_0_normals","componentType":5126,"count":7,"min":[-0.19055598974227905,-0.09564098715782166,0.9369958639144897],"max":[0.19085396826267242,0.29712095856666565,0.9972239136695862],"type":"VEC3","bufferView":1,"byteOffset":9228},{"name":"polygon3_1_0_texcoords","componentType":5126,"count":7,"min":[0.18243399262428284,0.012969999574124813],"max":[0.9507750272750854,0.21801799535751343],"type":"VEC2","bufferView":2,"byteOffset":6152},{"name":"polygon3_1_0_indices","componentType":5123,"count":18,"min":[0],"max":[6],"type":"SCALAR","bufferView":3,"byteOffset":7572}],"asset":{"generator":"obj2gltf","version":"2.0"},"buffers":[{"name":"Drifloon","byteLength":278256,"uri":"data:application/octet-stream;base64,"}],"bufferViews":[{"name":"bufferView_0","buffer":0,"byteLength":9312,"byteOffset":0,"byteStride":12,"target":34962},{"name":"bufferView_1","buffer":0,"byteLength":9312,"byteOffset":9312,"byteStride":12,"target":34962},{"name":"bufferView_2","buffer":0,"byteLength":6208,"byteOffset":18624,"byteStride":8,"target":34962},{"name":"bufferView_3","buffer":0,"byteLength":7608,"byteOffset":24832,"target":34963},{"buffer":0,"byteOffset":32440,"byteLength":98322},{"buffer":0,"byteOffset":130762,"byteLength":98322},{"buffer":0,"byteOffset":229084,"byteLength":49170}],"images":[{"name":"FuwanteDh","mimeType":"image/x-tga","bufferView":4},{"name":"FuwanteEyeDh","mimeType":"image/x-tga","bufferView":5},{"name":"FuwanteMouthDh","mimeType":"image/x-tga","bufferView":6}],"materials":[{"name":"mat1","pbrMetallicRoughness":{"baseColorTexture":{"index":0},"baseColorFactor":[1,1,1,1],"metallicFactor":0,"roughnessFactor":0.99},"emissiveFactor":[0,0,0],"alphaMode":"OPAQUE","doubleSided":false},{"name":"mat2","pbrMetallicRoughness":{"baseColorTexture":{"index":1},"baseColorFactor":[1,1,1,1],"metallicFactor":0,"roughnessFactor":0.99},"emissiveFactor":[0,0,0],"alphaMode":"OPAQUE","doubleSided":false},{"name":"mat3","pbrMetallicRoughness":{"baseColorTexture":{"index":2},"baseColorFactor":[1,1,1,1],"metallicFactor":0,"roughnessFactor":0.99},"emissiveFactor":[0,0,0],"alphaMode":"OPAQUE","doubleSided":false}],"meshes":[{"name":"polygon0_1","primitives":[{"attributes":{"POSITION":0,"NORMAL":1,"TEXCOORD_0":2},"indices":3,"material":0,"mode":4}]},{"name":"polygon2_1","primitives":[{"attributes":{"POSITION":4,"NORMAL":5,"TEXCOORD_0":6},"indices":7,"material":1,"mode":4}]},{"name":"polygon3_1","primitives":[{"attributes":{"POSITION":8,"NORMAL":9,"TEXCOORD_0":10},"indices":11,"material":2,"mode":4}]}],"nodes":[{"name":"polygon0","mesh":0},{"name":"polygon2","mesh":1},{"name":"polygon3","mesh":2}],"samplers":[{"wrapS":10497,"wrapT":10497}],"scene":0,"scenes":[{"nodes":[0,1,2]}],"textures":[{"name":"FuwanteDh","sampler":0,"source":0},{"name":"FuwanteEyeDh","sampler":0,"source":1},{"name":"FuwanteMouthDh","sampler":0,"source":2}]}