{"accessors":[{"name":"polygon0_1_0_positions","componentType":5126,"count":812,"min":[-7.095431804656982,-1.4124670028686523,-6.561460018157959],"max":[7.095430850982666,11.71479606628418,6.561460971832275],"type":"VEC3","bufferView":0,"byteOffset":0},{"name":"polygon0_1_0_normals","componentType":5126,"count":812,"min":[-0.9972555637359619,-1,-0.9972555637359619],"max":[0.9972555637359619,1,0.9985827207565308],"type":"VEC3","bufferView":1,"byteOffset":0},{"name":"polygon0_1_0_texcoords","componentType":5126,"count":812,"min":[0.009856999851763248,0.00891099963337183],"max":[0.9822080135345459,1.0009770393371582],"type":"VEC2","bufferView":2,"byteOffset":0},{"name":"polygon0_1_0_indices","componentType":5123,"count":4008,"min":[0],"max":[811],"type":"SCALAR","bufferView":3,"byteOffset":0},{"name":"polygon2_1_0_positions","componentType":5126,"count":12,"min":[-2.909893035888672,5.66279411315918,2.5748450756073],"max":[2.9098920822143555,7.780391216278076,3.505323886871338],"type":"VEC3","bufferView":0,"byteOffset":9744},{"name":"polygon2_1_0_normals","componentType":5126,"count":12,"min":[-0.7055637836456299,-0.07574398070573807,0.6129869222640991],"max":[0.7055637836456299,0.4888230860233307,0.8564578890800476],"type":"VEC3","bufferView":1,"byteOffset":9744},{"name":"polygon2_1_0_texcoords","componentType":5126,"count":12,"min":[0.13909900188446045,1.025635004043579],"max":[0.34231600165367126,1.2740780115127563],"type":"VEC2","bufferView":2,"byteOffset":6496},{"name":"polygon2_1_0_indices","componentType":5123,"count":24,"min":[0],"max":[11],"type":"SCALAR","bufferView":3,"byteOffset":8016},{"name":"polygon3_1_0_positions","componentType":5126,"count":7,"min":[-0.5283380150794983,5.66279411315918,3.99534010887146],"max":[0.5283380150794983,6.70786190032959,4.123706817626953],"type":"VEC3","bufferView":0,"byteOffset":9888},{"name":"polygon3_1_0_normals","componentType":5126,"count":7,"min":[-0.13323797285556793,-0.05322198569774628,0.9677934050559998],"max":[0.13323797285556793,0.22107408940792084,0.9985827207565308],"type":"VEC3","bufferView":1,"byteOffset":9888},{"name":"polygon3_1_0_texcoords","componentType":5126,"count":7,"min":[0.18774400651454926,-0.032958999276161194],"max":[0.9713129997253418,0.51739501953125],"type":"VEC2","bufferView":2,"byteOffset":6592},{"name":"polygon3_1_0_indices","componentType":5123,"count":18,"min":[0],"max":[6],"type":"SCALAR","bufferView":3,"byteOffset":8064}],"asset":{"generator":"obj2gltf","version":"2.0"},"buffers":[{"name":"Drifblim","byteLength":354236,"uri":"data:application/octet-stream;base64,"}],"bufferViews":[{"name":"bufferView_0","buffer":0,"byteLength":9972,"byteOffset":0,"byteStride":12,"target":34962},{"name":"bufferView_1","buffer":0,"byteLength":9972,"byteOffset":9972,"byteStride":12,"target":34962},{"name":"bufferView_2","buffer":0,"byteLength":6648,"byteOffset":19944,"byteStride":8,"target":34962},{"name":"bufferView_3","buffer":0,"byteLength":8100,"byteOffset":26592,"target":34963},{"buffer":0,"byteOffset":34692,"byteLength":196626},{"buffer":0,"byteOffset":231318,"byteLength":98322},{"buffer":0,"byteOffset":329640,"byteLength":24594}],"images":[{"name":"FuwarideDh","mimeType":"image/x-tga","bufferView":4},{"name":"FuwarideEyeDh","mimeType":"image/x-tga","bufferView":5},{"name":"FuwarideMouthDh","mimeType":"image/x-tga","bufferView":6}],"materials":[{"name":"mat1","pbrMetallicRoughness":{"baseColorTexture":{"index":0},"baseColorFactor":[1,1,1,1],"metallicFactor":0,"roughnessFactor":0.99},"emissiveFactor":[0,0,0],"alphaMode":"OPAQUE","doubleSided":false},{"name":"mat2","pbrMetallicRoughness":{"baseColorTexture":{"index":1},"baseColorFactor":[1,1,1,1],"metallicFactor":0,"roughnessFactor":0.99},"emissiveFactor":[0,0,0],"alphaMode":"OPAQUE","doubleSided":false},{"name":"mat3","pbrMetallicRoughness":{"baseColorTexture":{"index":2},"baseColorFactor":[1,1,1,1],"metallicFactor":0,"roughnessFactor":0.99},"emissiveFactor":[0,0,0],"alphaMode":"OPAQUE","doubleSided":false}],"meshes":[{"name":"polygon0_1","primitives":[{"attributes":{"POSITION":0,"NORMAL":1,"TEXCOORD_0":2},"indices":3,"material":0,"mode":4}]},{"name":"polygon2_1","primitives":[{"attributes":{"POSITION":4,"NORMAL":5,"TEXCOORD_0":6},"indices":7,"material":1,"mode":4}]},{"name":"polygon3_1","primitives":[{"attributes":{"POSITION":8,"NORMAL":9,"TEXCOORD_0":10},"indices":11,"material":2,"mode":4}]}],"nodes":[{"name":"polygon0","mesh":0},{"name":"polygon2","mesh":1},{"name":"polygon3","mesh":2}],"samplers":[{"wrapS":10497,"wrapT":10497}],"scene":0,"scenes":[{"nodes":[0,1,2]}],"textures":[{"name":"FuwarideDh","sampler":0,"source":0},{"name":"FuwarideEyeDh","sampler":0,"source":1},{"name":"FuwarideMouthDh","sampler":0,"source":2}]}