{"accessors":[{"name":"polygon0_1_0_positions","componentType":5126,"count":21,"min":[-0.4414849877357483,2.077285051345825,0.5331509709358215],"max":[0.4414840042591095,3.0791680812835693,1.0274779796600342],"type":"VEC3","bufferView":0,"byteOffset":0},{"name":"polygon0_1_0_normals","componentType":5126,"count":21,"min":[-0.45112481713294983,-0.9727002382278442,0.23206506669521332],"max":[0.45112481713294983,0.13823302090168,0.9993612170219421],"type":"VEC3","bufferView":1,"byteOffset":0},{"name":"polygon0_1_0_texcoords","componentType":5126,"count":21,"min":[1.0484919548034668,0.0231929998844862],"max":[1.2038880586624146,0.9241639971733093],"type":"VEC2","bufferView":2,"byteOffset":0},{"name":"polygon0_1_0_indices","componentType":5123,"count":78,"min":[0],"max":[20],"type":"SCALAR","bufferView":3,"byteOffset":0},{"name":"polygon1_1_0_positions","componentType":5126,"count":962,"min":[-2.035517930984497,-0.01629200018942356,-1.083196997642517],"max":[2.035517930984497,5.993718147277832,1.021785020828247],"type":"VEC3","bufferView":0,"byteOffset":252},{"name":"polygon1_1_0_normals","componentType":5126,"count":962,"min":[-0.9999203085899353,-0.9989646673202515,-0.9994686841964722],"max":[0.9999203085899353,0.9991614818572998,0.9996507167816162],"type":"VEC3","bufferView":1,"byteOffset":252},{"name":"polygon1_1_0_texcoords","componentType":5126,"count":962,"min":[0.0030519999563694,0.006256000138819218],"max":[0.9967039823532104,0.9851070046424866],"type":"VEC2","bufferView":2,"byteOffset":168},{"name":"polygon1_1_0_indices","componentType":5123,"count":4410,"min":[0],"max":[961],"type":"SCALAR","bufferView":3,"byteOffset":156},{"name":"polygon2_1_0_positions","componentType":5126,"count":12,"min":[-0.8314480185508728,2.471097946166992,0.6324030160903931],"max":[0.8314470052719116,2.996786117553711,0.9302849769592285],"type":"VEC3","bufferView":0,"byteOffset":11796},{"name":"polygon2_1_0_normals","componentType":5126,"count":12,"min":[-0.6159020066261292,-0.4238659143447876,0.6860058307647705],"max":[0.6159020066261292,0.13823302090168,0.9174851775169373],"type":"VEC3","bufferView":1,"byteOffset":11796},{"name":"polygon2_1_0_texcoords","componentType":5126,"count":12,"min":[1.1145319938659668,0.036713000386953354],"max":[1.4368289709091187,0.23291000723838806],"type":"VEC2","bufferView":2,"byteOffset":7864},{"name":"polygon2_1_0_indices","componentType":5123,"count":24,"min":[0],"max":[11],"type":"SCALAR","bufferView":3,"byteOffset":8976}],"asset":{"generator":"obj2gltf","version":"2.0"},"buffers":[{"name":"Buneary","byteLength":434136,"uri":"data:application/octet-stream;base64,"}],"bufferViews":[{"name":"bufferView_0","buffer":0,"byteLength":11940,"byteOffset":0,"byteStride":12,"target":34962},{"name":"bufferView_1","buffer":0,"byteLength":11940,"byteOffset":11940,"byteStride":12,"target":34962},{"name":"bufferView_2","buffer":0,"byteLength":7960,"byteOffset":23880,"byteStride":8,"target":34962},{"name":"bufferView_3","buffer":0,"byteLength":9024,"byteOffset":31840,"target":34963},{"buffer":0,"byteOffset":40864,"byteLength":98322},{"buffer":0,"byteOffset":139186,"byteLength":196626},{"buffer":0,"byteOffset":335812,"byteLength":98322}],"images":[{"name":"MimirolMouthDh","mimeType":"image/x-tga","bufferView":4},{"name":"MimirolDh","mimeType":"image/x-tga","bufferView":5},{"name":"MimirolEyeDh","mimeType":"image/x-tga","bufferView":6}],"materials":[{"name":"mat3","pbrMetallicRoughness":{"baseColorTexture":{"index":0},"baseColorFactor":[1,1,1,1],"metallicFactor":0,"roughnessFactor":0.99},"emissiveFactor":[0,0,0],"alphaMode":"OPAQUE","doubleSided":false},{"name":"mat1","pbrMetallicRoughness":{"baseColorTexture":{"index":1},"baseColorFactor":[1,1,1,1],"metallicFactor":0,"roughnessFactor":0.99},"emissiveFactor":[0,0,0],"alphaMode":"OPAQUE","doubleSided":false},{"name":"mat2","pbrMetallicRoughness":{"baseColorTexture":{"index":2},"baseColorFactor":[1,1,1,1],"metallicFactor":0,"roughnessFactor":0.99},"emissiveFactor":[0,0,0],"alphaMode":"OPAQUE","doubleSided":false}],"meshes":[{"name":"polygon0_1","primitives":[{"attributes":{"POSITION":0,"NORMAL":1,"TEXCOORD_0":2},"indices":3,"material":0,"mode":4}]},{"name":"polygon1_1","primitives":[{"attributes":{"POSITION":4,"NORMAL":5,"TEXCOORD_0":6},"indices":7,"material":1,"mode":4}]},{"name":"polygon2_1","primitives":[{"attributes":{"POSITION":8,"NORMAL":9,"TEXCOORD_0":10},"indices":11,"material":2,"mode":4}]}],"nodes":[{"name":"polygon0","mesh":0},{"name":"polygon1","mesh":1},{"name":"polygon2","mesh":2}],"samplers":[{"wrapS":10497,"wrapT":10497}],"scene":0,"scenes":[{"nodes":[0,1,2]}],"textures":[{"name":"MimirolMouthDh","sampler":0,"source":0},{"name":"MimirolDh","sampler":0,"source":1},{"name":"MimirolEyeDh","sampler":0,"source":2}]}