{"accessors":[{"name":"polygon0_1_0_positions","componentType":5126,"count":39,"min":[-0.5672069787979126,7.274600982666016,0.5073379874229431],"max":[0.5672069787979126,7.844314098358154,1.4975169897079468],"type":"VEC3","bufferView":0,"byteOffset":0},{"name":"polygon0_1_0_normals","componentType":5126,"count":39,"min":[-0.7320387959480286,-0.9942069053649902,0.10748299211263657],"max":[0.7320387959480286,0.3697480261325836,0.9603988528251648],"type":"VEC3","bufferView":1,"byteOffset":0},{"name":"polygon0_1_0_texcoords","componentType":5126,"count":39,"min":[0.0031129999551922083,0.010131999850273132],"max":[0.9917600154876709,0.23815900087356567],"type":"VEC2","bufferView":2,"byteOffset":0},{"name":"polygon0_1_0_indices","componentType":5123,"count":180,"min":[0],"max":[38],"type":"SCALAR","bufferView":3,"byteOffset":0},{"name":"polygon1_1_0_positions","componentType":5126,"count":30,"min":[-0.8941670060157776,7.783430099487305,0.6727439761161804],"max":[0.8941670060157776,8.331921577453613,1.0063819885253906],"type":"VEC3","bufferView":0,"byteOffset":468},{"name":"polygon1_1_0_normals","componentType":5126,"count":30,"min":[-0.8943102359771729,-0.4163230359554291,0.39783811569213867],"max":[0.8943102359771729,0.20227298140525818,0.726384162902832],"type":"VEC3","bufferView":1,"byteOffset":468},{"name":"polygon1_1_0_texcoords","componentType":5126,"count":30,"min":[-0.9873049855232239,0.004699999932199717],"max":[-0.5097050070762634,0.24182100594043732],"type":"VEC2","bufferView":2,"byteOffset":312},{"name":"polygon1_1_0_indices","componentType":5123,"count":78,"min":[0],"max":[29],"type":"SCALAR","bufferView":3,"byteOffset":360},{"name":"polygon2_1_0_positions","componentType":5126,"count":944,"min":[-10.959314346313477,0.017057999968528748,-2.4842638969421387],"max":[10.959314346313477,12.03561782836914,2.97239089012146],"type":"VEC3","bufferView":0,"byteOffset":828},{"name":"polygon2_1_0_normals","componentType":5126,"count":944,"min":[-0.9997034072875977,-0.9995554685592651,-0.9997063875198364],"max":[0.9997034072875977,0.9999318718910217,0.9990079998970032],"type":"VEC3","bufferView":1,"byteOffset":828},{"name":"polygon2_1_0_texcoords","componentType":5126,"count":944,"min":[0.002715999959036708,0.024109000340104103],"max":[0.9788510203361511,0.9983519911766052],"type":"VEC2","bufferView":2,"byteOffset":552},{"name":"polygon2_1_0_indices","componentType":5123,"count":4218,"min":[0],"max":[943],"type":"SCALAR","bufferView":3,"byteOffset":516}],"asset":{"generator":"obj2gltf","version":"2.0"},"buffers":[{"name":"Lopunny","byteLength":385488,"uri":"data:application/octet-stream;base64,"}],"bufferViews":[{"name":"bufferView_0","buffer":0,"byteLength":12156,"byteOffset":0,"byteStride":12,"target":34962},{"name":"bufferView_1","buffer":0,"byteLength":12156,"byteOffset":12156,"byteStride":12,"target":34962},{"name":"bufferView_2","buffer":0,"byteLength":8104,"byteOffset":24312,"byteStride":8,"target":34962},{"name":"bufferView_3","buffer":0,"byteLength":8952,"byteOffset":32416,"target":34963},{"buffer":0,"byteOffset":41368,"byteLength":49170},{"buffer":0,"byteOffset":90538,"byteLength":98322},{"buffer":0,"byteOffset":188860,"byteLength":196626}],"images":[{"name":"MimilopMouthDh","mimeType":"image/x-tga","bufferView":4},{"name":"MimilopEyeDh","mimeType":"image/x-tga","bufferView":5},{"name":"MimilopDh","mimeType":"image/x-tga","bufferView":6}],"materials":[{"name":"mat3","pbrMetallicRoughness":{"baseColorTexture":{"index":0},"baseColorFactor":[1,1,1,1],"metallicFactor":0,"roughnessFactor":0.99},"emissiveFactor":[0,0,0],"alphaMode":"OPAQUE","doubleSided":false},{"name":"mat2","pbrMetallicRoughness":{"baseColorTexture":{"index":1},"baseColorFactor":[1,1,1,1],"metallicFactor":0,"roughnessFactor":0.99},"emissiveFactor":[0,0,0],"alphaMode":"OPAQUE","doubleSided":false},{"name":"mat1","pbrMetallicRoughness":{"baseColorTexture":{"index":2},"baseColorFactor":[1,1,1,1],"metallicFactor":0,"roughnessFactor":0.99},"emissiveFactor":[0,0,0],"alphaMode":"OPAQUE","doubleSided":false}],"meshes":[{"name":"polygon0_1","primitives":[{"attributes":{"POSITION":0,"NORMAL":1,"TEXCOORD_0":2},"indices":3,"material":0,"mode":4}]},{"name":"polygon1_1","primitives":[{"attributes":{"POSITION":4,"NORMAL":5,"TEXCOORD_0":6},"indices":7,"material":1,"mode":4}]},{"name":"polygon2_1","primitives":[{"attributes":{"POSITION":8,"NORMAL":9,"TEXCOORD_0":10},"indices":11,"material":2,"mode":4}]}],"nodes":[{"name":"polygon0","mesh":0},{"name":"polygon1","mesh":1},{"name":"polygon2","mesh":2}],"samplers":[{"wrapS":10497,"wrapT":10497}],"scene":0,"scenes":[{"nodes":[0,1,2]}],"textures":[{"name":"MimilopMouthDh","sampler":0,"source":0},{"name":"MimilopEyeDh","sampler":0,"source":1},{"name":"MimilopDh","sampler":0,"source":2}]}