{"accessors":[{"name":"polygon0_1_0_positions","componentType":5126,"count":936,"min":[-2.7073171138763428,0.1485529989004135,-3.8109118938446045],"max":[2.7073171138763428,9.235917091369629,1.9109669923782349],"type":"VEC3","bufferView":0,"byteOffset":0},{"name":"polygon0_1_0_normals","componentType":5126,"count":936,"min":[-0.9766089916229248,-0.9986168146133423,-0.998937726020813],"max":[0.9766089916229248,0.9999008774757385,0.9993882179260254],"type":"VEC3","bufferView":1,"byteOffset":0},{"name":"polygon0_1_0_texcoords","componentType":5126,"count":936,"min":[0.006225999910384417,0.00976600032299757],"max":[0.9838870167732239,0.9903560280799866],"type":"VEC2","bufferView":2,"byteOffset":0},{"name":"polygon0_1_0_indices","componentType":5123,"count":4290,"min":[0],"max":[935],"type":"SCALAR","bufferView":3,"byteOffset":0},{"name":"polygon1_1_0_positions","componentType":5126,"count":13,"min":[-0.5247960090637207,5.807960033416748,0.8687450289726257],"max":[0.5247960090637207,6.067232131958008,1.1601459980010986],"type":"VEC3","bufferView":0,"byteOffset":11232},{"name":"polygon1_1_0_normals","componentType":5126,"count":13,"min":[-0.506710946559906,-0.8019858598709106,0.5482281446456909],"max":[0.506710946559906,-0.39771315455436707,0.9036755561828613],"type":"VEC3","bufferView":1,"byteOffset":11232},{"name":"polygon1_1_0_texcoords","componentType":5126,"count":13,"min":[-1.9572750329971313,0.07311999797821045],"max":[-1.0416259765625,0.23120099306106567],"type":"VEC2","bufferView":2,"byteOffset":7488},{"name":"polygon1_1_0_indices","componentType":5123,"count":42,"min":[0],"max":[12],"type":"SCALAR","bufferView":3,"byteOffset":8580},{"name":"polygon2_1_0_positions","componentType":5126,"count":27,"min":[-0.8640779852867126,5.974792957305908,0.7077460289001465],"max":[0.8640779852867126,6.329348087310791,1.190783977508545],"type":"VEC3","bufferView":0,"byteOffset":11388},{"name":"polygon2_1_0_normals","componentType":5126,"count":27,"min":[-0.8551364541053772,-0.5150930285453796,0.40809503197669983],"max":[0.8551364541053772,-0.15526902675628662,0.9036755561828613],"type":"VEC3","bufferView":1,"byteOffset":11388},{"name":"polygon2_1_0_texcoords","componentType":5126,"count":27,"min":[-0.9966430068016052,0.0707399994134903],"max":[-0.5184940099716187,0.17028799653053284],"type":"VEC2","bufferView":2,"byteOffset":7592},{"name":"polygon2_1_0_indices","componentType":5123,"count":90,"min":[0],"max":[26],"type":"SCALAR","bufferView":3,"byteOffset":8664}],"asset":{"generator":"obj2gltf","version":"2.0"},"buffers":[{"name":"Mismagius","byteLength":384196,"uri":"data:application/octet-stream;base64,"}],"bufferViews":[{"name":"bufferView_0","buffer":0,"byteLength":11712,"byteOffset":0,"byteStride":12,"target":34962},{"name":"bufferView_1","buffer":0,"byteLength":11712,"byteOffset":11712,"byteStride":12,"target":34962},{"name":"bufferView_2","buffer":0,"byteLength":7808,"byteOffset":23424,"byteStride":8,"target":34962},{"name":"bufferView_3","buffer":0,"byteLength":8844,"byteOffset":31232,"target":34963},{"buffer":0,"byteOffset":40076,"byteLength":196626},{"buffer":0,"byteOffset":236702,"byteLength":49170},{"buffer":0,"byteOffset":285872,"byteLength":98322}],"images":[{"name":"MumargiDh","mimeType":"image/x-tga","bufferView":4},{"name":"MumargiMouthDh","mimeType":"image/x-tga","bufferView":5},{"name":"MumargiEyeDh","mimeType":"image/x-tga","bufferView":6}],"materials":[{"name":"mat1","pbrMetallicRoughness":{"baseColorTexture":{"index":0},"baseColorFactor":[1,1,1,1],"metallicFactor":0,"roughnessFactor":0.99},"emissiveFactor":[0,0,0],"alphaMode":"OPAQUE","doubleSided":false},{"name":"mat3","pbrMetallicRoughness":{"baseColorTexture":{"index":1},"baseColorFactor":[1,1,1,1],"metallicFactor":0,"roughnessFactor":0.99},"emissiveFactor":[0,0,0],"alphaMode":"OPAQUE","doubleSided":false},{"name":"mat2","pbrMetallicRoughness":{"baseColorTexture":{"index":2},"baseColorFactor":[1,1,1,1],"metallicFactor":0,"roughnessFactor":0.99},"emissiveFactor":[0,0,0],"alphaMode":"OPAQUE","doubleSided":false}],"meshes":[{"name":"polygon0_1","primitives":[{"attributes":{"POSITION":0,"NORMAL":1,"TEXCOORD_0":2},"indices":3,"material":0,"mode":4}]},{"name":"polygon1_1","primitives":[{"attributes":{"POSITION":4,"NORMAL":5,"TEXCOORD_0":6},"indices":7,"material":1,"mode":4}]},{"name":"polygon2_1","primitives":[{"attributes":{"POSITION":8,"NORMAL":9,"TEXCOORD_0":10},"indices":11,"material":2,"mode":4}]}],"nodes":[{"name":"polygon0","mesh":0},{"name":"polygon1","mesh":1},{"name":"polygon2","mesh":2}],"samplers":[{"wrapS":10497,"wrapT":10497}],"scene":0,"scenes":[{"nodes":[0,1,2]}],"textures":[{"name":"MumargiDh","sampler":0,"source":0},{"name":"MumargiMouthDh","sampler":0,"source":1},{"name":"MumargiEyeDh","sampler":0,"source":2}]}