{"accessors":[{"name":"polygon0_1_0_positions","componentType":5126,"count":18,"min":[-0.941552996635437,8.382237434387207,3.07944393157959],"max":[0.941552996635437,9.05688190460205,3.7034199237823486],"type":"VEC3","bufferView":0,"byteOffset":0},{"name":"polygon0_1_0_normals","componentType":5126,"count":18,"min":[-0.9524524807929993,-0.35431110858917236,0.30468714237213135],"max":[0.9524524807929993,0.3575488328933716,0.8198353052139282],"type":"VEC3","bufferView":1,"byteOffset":0},{"name":"polygon0_1_0_texcoords","componentType":5126,"count":18,"min":[0.007813000120222569,0.0039059999398887157],"max":[0.4882810115814209,0.2460940033197403],"type":"VEC2","bufferView":2,"byteOffset":0},{"name":"polygon0_1_0_indices","componentType":5123,"count":48,"min":[0],"max":[17],"type":"SCALAR","bufferView":3,"byteOffset":0},{"name":"polygon1_1_0_positions","componentType":5126,"count":1396,"min":[-18.545215606689453,-0.11318399757146835,-6.475031852722168],"max":[18.545215606689453,11.11557674407959,6.212050914764404],"type":"VEC3","bufferView":0,"byteOffset":216},{"name":"polygon1_1_0_normals","componentType":5126,"count":1396,"min":[-0.9997650384902954,-0.999660313129425,-0.9957416653633118],"max":[0.9997624158859253,0.9999624490737915,0.9942338466644287],"type":"VEC3","bufferView":1,"byteOffset":216},{"name":"polygon1_1_0_texcoords","componentType":5126,"count":1396,"min":[0.001677999971434474,0.003570999950170517],"max":[0.9932249784469604,0.9947509765625],"type":"VEC2","bufferView":2,"byteOffset":144},{"name":"polygon1_1_0_indices","componentType":5123,"count":4860,"min":[0],"max":[1395],"type":"SCALAR","bufferView":3,"byteOffset":96}],"asset":{"generator":"obj2gltf","version":"2.0"},"buffers":[{"name":"Honchkrow","byteLength":350012,"uri":"data:application/octet-stream;base64,"}],"bufferViews":[{"name":"bufferView_0","buffer":0,"byteLength":16968,"byteOffset":0,"byteStride":12,"target":34962},{"name":"bufferView_1","buffer":0,"byteLength":16968,"byteOffset":16968,"byteStride":12,"target":34962},{"name":"bufferView_2","buffer":0,"byteLength":11312,"byteOffset":33936,"byteStride":8,"target":34962},{"name":"bufferView_3","buffer":0,"byteLength":9816,"byteOffset":45248,"target":34963},{"buffer":0,"byteOffset":55064,"byteLength":98322},{"buffer":0,"byteOffset":153386,"byteLength":196626}],"images":[{"name":"DongkarasuEyeDh","mimeType":"image/x-tga","bufferView":4},{"name":"DongkarasuDh","mimeType":"image/x-tga","bufferView":5}],"materials":[{"name":"mat2","pbrMetallicRoughness":{"baseColorTexture":{"index":0},"baseColorFactor":[1,1,1,1],"metallicFactor":0,"roughnessFactor":0.99},"emissiveFactor":[0,0,0],"alphaMode":"OPAQUE","doubleSided":false},{"name":"mat1","pbrMetallicRoughness":{"baseColorTexture":{"index":1},"baseColorFactor":[1,1,1,1],"metallicFactor":0,"roughnessFactor":0.99},"emissiveFactor":[0,0,0],"alphaMode":"OPAQUE","doubleSided":false}],"meshes":[{"name":"polygon0_1","primitives":[{"attributes":{"POSITION":0,"NORMAL":1,"TEXCOORD_0":2},"indices":3,"material":0,"mode":4}]},{"name":"polygon1_1","primitives":[{"attributes":{"POSITION":4,"NORMAL":5,"TEXCOORD_0":6},"indices":7,"material":1,"mode":4}]}],"nodes":[{"name":"polygon0","mesh":0},{"name":"polygon1","mesh":1}],"samplers":[{"wrapS":10497,"wrapT":10497}],"scene":0,"scenes":[{"nodes":[0,1]}],"textures":[{"name":"DongkarasuEyeDh","sampler":0,"source":0},{"name":"DongkarasuDh","sampler":0,"source":1}]}