{"accessors":[{"name":"nyarmar-Mesh_0_positions","componentType":5126,"count":11,"min":[-0.8459129929542542,1.5680960416793823,-3.190541982650757],"max":[-0.2755100131034851,2.2412750720977783,-2.4565820693969727],"type":"VEC3","bufferView":0,"byteOffset":0},{"name":"nyarmar-Mesh_0_texcoords","componentType":5126,"count":11,"min":[0.761684000492096,0.0017160000279545784],"max":[0.9998800158500671,0.3125019967556],"type":"VEC2","bufferView":1,"byteOffset":0},{"name":"nyarmar-Mesh_0_indices","componentType":5123,"count":33,"min":[0],"max":[10],"type":"SCALAR","bufferView":2,"byteOffset":0},{"name":"nyarmar-Mesh_1_positions","componentType":5126,"count":9,"min":[-0.30910900235176086,2.0907809734344482,-2.5354180335998535],"max":[0.30910900235176086,2.3869469165802,-2.2511050701141357],"type":"VEC3","bufferView":0,"byteOffset":132},{"name":"nyarmar-Mesh_1_texcoords","componentType":5126,"count":9,"min":[0.009701999835669994,0.4376170039176941],"max":[0.1497420072555542,0.5549139976501465],"type":"VEC2","bufferView":1,"byteOffset":88},{"name":"nyarmar-Mesh_1_indices","componentType":5123,"count":24,"min":[0],"max":[8],"type":"SCALAR","bufferView":2,"byteOffset":68},{"name":"nyarmar-Mesh_2_positions","componentType":5126,"count":204,"min":[-2.121515989303589,-0.9098290205001831,-3.6235439777374268],"max":[-1.1884959936141968,0.07843100279569626,-1.9871280193328857],"type":"VEC3","bufferView":0,"byteOffset":240},{"name":"nyarmar-Mesh_2_texcoords","componentType":5126,"count":204,"min":[0.018610000610351562,0.013079999946057796],"max":[0.18900099396705627,0.1834699958562851],"type":"VEC2","bufferView":1,"byteOffset":160},{"name":"nyarmar-Mesh_2_indices","componentType":5123,"count":1176,"min":[0],"max":[203],"type":"SCALAR","bufferView":2,"byteOffset":116},{"name":"nyarmar-Mesh_3_positions","componentType":5126,"count":1302,"min":[-1.9613709449768066,-3.059343099594116,-4.4774489402771],"max":[1.9613709449768066,2.3869469165802,0.0000019999999949504854],"type":"VEC3","bufferView":0,"byteOffset":2688},{"name":"nyarmar-Mesh_3_texcoords","componentType":5126,"count":1302,"min":[0.009701999835669994,0.021376000717282295],"max":[0.47023800015449524,0.9979649782180786],"type":"VEC2","bufferView":1,"byteOffset":1792},{"name":"nyarmar-Mesh_3_indices","componentType":5123,"count":6696,"min":[0],"max":[1301],"type":"SCALAR","bufferView":2,"byteOffset":2468},{"name":"nyarmar-Mesh_4_positions","componentType":5126,"count":11,"min":[0.2755100131034851,1.5680960416793823,-3.190541982650757],"max":[0.8459129929542542,2.2412750720977783,-2.4565820693969727],"type":"VEC3","bufferView":0,"byteOffset":18312},{"name":"nyarmar-Mesh_4_texcoords","componentType":5126,"count":11,"min":[0.761684000492096,0.0017160000279545784],"max":[0.9998800158500671,0.3125019967556],"type":"VEC2","bufferView":1,"byteOffset":12208},{"name":"nyarmar-Mesh_4_indices","componentType":5123,"count":33,"min":[0],"max":[10],"type":"SCALAR","bufferView":2,"byteOffset":15860}],"asset":{"generator":"obj2gltf","version":"2.0"},"buffers":[{"name":"BR_Glameow-Shiny01","byteLength":1095264,"uri":"data:application/octet-stream;base64,"}],"bufferViews":[{"name":"bufferView_0","buffer":0,"byteLength":18444,"byteOffset":0,"byteStride":12,"target":34962},{"name":"bufferView_1","buffer":0,"byteLength":12296,"byteOffset":18444,"byteStride":8,"target":34962},{"name":"bufferView_2","buffer":0,"byteLength":15928,"byteOffset":30740,"target":34963},{"buffer":0,"byteOffset":46668,"byteLength":1048594}],"images":[{"name":"nyarmar_1_0","mimeType":"image/x-tga","bufferView":3}],"materials":[{"name":"mat_0","pbrMetallicRoughness":{"baseColorTexture":{"index":0},"baseColorFactor":[1,1,1,1],"metallicFactor":0,"roughnessFactor":0.903921569},"emissiveFactor":[0,0,0],"alphaMode":"BLEND","doubleSided":true},{"name":"mat_1","pbrMetallicRoughness":{"baseColorTexture":{"index":0},"baseColorFactor":[1,1,1,1],"metallicFactor":0,"roughnessFactor":0.903921569},"emissiveFactor":[0,0,0],"alphaMode":"BLEND","doubleSided":true},{"name":"mat_2","pbrMetallicRoughness":{"baseColorTexture":{"index":0},"baseColorFactor":[1,1,1,1],"metallicFactor":0,"roughnessFactor":0.903921569},"emissiveFactor":[0,0,0],"alphaMode":"BLEND","doubleSided":true},{"name":"mat_3","pbrMetallicRoughness":{"baseColorTexture":{"index":0},"baseColorFactor":[1,1,1,1],"metallicFactor":0,"roughnessFactor":0.903921569},"emissiveFactor":[0,0,0],"alphaMode":"BLEND","doubleSided":true},{"name":"mat_4","pbrMetallicRoughness":{"baseColorTexture":{"index":0},"baseColorFactor":[1,1,1,1],"metallicFactor":0,"roughnessFactor":0.903921569},"emissiveFactor":[0,0,0],"alphaMode":"BLEND","doubleSided":true}],"meshes":[{"name":"nyarmar-Mesh","primitives":[{"attributes":{"POSITION":0,"TEXCOORD_0":1},"indices":2,"material":0,"mode":4},{"attributes":{"POSITION":3,"TEXCOORD_0":4},"indices":5,"material":1,"mode":4},{"attributes":{"POSITION":6,"TEXCOORD_0":7},"indices":8,"material":2,"mode":4},{"attributes":{"POSITION":9,"TEXCOORD_0":10},"indices":11,"material":3,"mode":4},{"attributes":{"POSITION":12,"TEXCOORD_0":13},"indices":14,"material":4,"mode":4}]}],"nodes":[{"name":"nyarmar","mesh":0}],"samplers":[{"wrapS":10497,"wrapT":10497}],"scene":0,"scenes":[{"nodes":[0]}],"textures":[{"name":"nyarmar_1_0","sampler":0,"source":0}]}