{"accessors":[{"name":"bunyatto-Mesh_0_positions","componentType":5126,"count":13,"min":[-0.5248029828071594,3.573240041732788,-5.900078773498535],"max":[0.5248029828071594,4.424014091491699,-5.018393039703369],"type":"VEC3","bufferView":0,"byteOffset":0},{"name":"bunyatto-Mesh_0_texcoords","componentType":5126,"count":13,"min":[0.8786429762840271,0.5088409781455994],"max":[0.9536100029945374,0.6186090111732483],"type":"VEC2","bufferView":1,"byteOffset":0},{"name":"bunyatto-Mesh_0_indices","componentType":5123,"count":42,"min":[0],"max":[12],"type":"SCALAR","bufferView":2,"byteOffset":0},{"name":"bunyatto-Mesh_1_positions","componentType":5126,"count":1709,"min":[-4.298378944396973,-4.082054138183594,-9.951896667480469],"max":[4.298378944396973,4.647182941436768,-0.010125000029802322],"type":"VEC3","bufferView":0,"byteOffset":156},{"name":"bunyatto-Mesh_1_texcoords","componentType":5126,"count":1709,"min":[0.002471999963745475,0.0021879998967051506],"max":[0.9443389773368835,0.992385983467102],"type":"VEC2","bufferView":1,"byteOffset":104},{"name":"bunyatto-Mesh_1_indices","componentType":5123,"count":6846,"min":[0],"max":[1708],"type":"SCALAR","bufferView":2,"byteOffset":84},{"name":"bunyatto-Mesh_2_positions","componentType":5126,"count":30,"min":[-1.5877130031585693,3.1870200634002686,-7.039302825927734],"max":[1.5877130031585693,4.249537944793701,-5.70192289352417],"type":"VEC3","bufferView":0,"byteOffset":20664},{"name":"bunyatto-Mesh_2_texcoords","componentType":5126,"count":30,"min":[0.8766289949417114,0.0018629999831318855],"max":[0.99754399061203,0.13572899997234344],"type":"VEC2","bufferView":1,"byteOffset":13776},{"name":"bunyatto-Mesh_2_indices","componentType":5123,"count":108,"min":[0],"max":[29],"type":"SCALAR","bufferView":2,"byteOffset":13776}],"asset":{"generator":"obj2gltf","version":"2.0"},"buffers":[{"name":"BR_Purugly-Shiny01","byteLength":1097628,"uri":"data:application/octet-stream;base64,"}],"bufferViews":[{"name":"bufferView_0","buffer":0,"byteLength":21024,"byteOffset":0,"byteStride":12,"target":34962},{"name":"bufferView_1","buffer":0,"byteLength":14016,"byteOffset":21024,"byteStride":8,"target":34962},{"name":"bufferView_2","buffer":0,"byteLength":13992,"byteOffset":35040,"target":34963},{"buffer":0,"byteOffset":49032,"byteLength":1048594}],"images":[{"name":"bunyatto_1_0","mimeType":"image/x-tga","bufferView":3}],"materials":[{"name":"mat_0","pbrMetallicRoughness":{"baseColorTexture":{"index":0},"baseColorFactor":[1,1,1,1],"metallicFactor":0,"roughnessFactor":0.903921569},"emissiveFactor":[0,0,0],"alphaMode":"BLEND","doubleSided":true},{"name":"mat_1","pbrMetallicRoughness":{"baseColorTexture":{"index":0},"baseColorFactor":[1,1,1,1],"metallicFactor":0,"roughnessFactor":0.903921569},"emissiveFactor":[0,0,0],"alphaMode":"BLEND","doubleSided":true},{"name":"mat_2","pbrMetallicRoughness":{"baseColorTexture":{"index":0},"baseColorFactor":[1,1,1,1],"metallicFactor":0,"roughnessFactor":0.903921569},"emissiveFactor":[0,0,0],"alphaMode":"BLEND","doubleSided":true}],"meshes":[{"name":"bunyatto-Mesh","primitives":[{"attributes":{"POSITION":0,"TEXCOORD_0":1},"indices":2,"material":0,"mode":4},{"attributes":{"POSITION":3,"TEXCOORD_0":4},"indices":5,"material":1,"mode":4},{"attributes":{"POSITION":6,"TEXCOORD_0":7},"indices":8,"material":2,"mode":4}]}],"nodes":[{"name":"bunyatto","mesh":0}],"samplers":[{"wrapS":10497,"wrapT":10497}],"scene":0,"scenes":[{"nodes":[0]}],"textures":[{"name":"bunyatto_1_0","sampler":0,"source":0}]}