{"accessors":[{"name":"lisyan-Mesh_0_positions","componentType":5126,"count":588,"min":[-1.601133942604065,-1.703287959098816,-3.4648220539093018],"max":[1.601133942604065,-0.6655930280685425,-1.5500400066375732],"type":"VEC3","bufferView":0,"byteOffset":0},{"name":"lisyan-Mesh_0_texcoords","componentType":5126,"count":588,"min":[0.041940998286008835,0.013842999935150146],"max":[0.5200150012969971,0.9846559762954712],"type":"VEC2","bufferView":1,"byteOffset":0},{"name":"lisyan-Mesh_0_indices","componentType":5123,"count":2976,"min":[0],"max":[587],"type":"SCALAR","bufferView":2,"byteOffset":0}],"asset":{"generator":"obj2gltf","version":"2.0"},"buffers":[{"name":"BR_Chingling-Shiny01","byteLength":1066308,"uri":"data:application/octet-stream;base64,"}],"bufferViews":[{"name":"bufferView_0","buffer":0,"byteLength":7056,"byteOffset":0,"byteStride":12,"target":34962},{"name":"bufferView_1","buffer":0,"byteLength":4704,"byteOffset":7056,"byteStride":8,"target":34962},{"name":"bufferView_2","buffer":0,"byteLength":5952,"byteOffset":11760,"target":34963},{"buffer":0,"byteOffset":17712,"byteLength":1048594}],"images":[{"name":"lisyan_1_0","mimeType":"image/x-tga","bufferView":3}],"materials":[{"name":"mat_0","pbrMetallicRoughness":{"baseColorTexture":{"index":0},"baseColorFactor":[1,1,1,1],"metallicFactor":0,"roughnessFactor":0.903921569},"emissiveFactor":[0,0,0],"alphaMode":"BLEND","doubleSided":true}],"meshes":[{"name":"lisyan-Mesh","primitives":[{"attributes":{"POSITION":0,"TEXCOORD_0":1},"indices":2,"material":0,"mode":4}]}],"nodes":[{"name":"lisyan","mesh":0}],"samplers":[{"wrapS":10497,"wrapT":10497}],"scene":0,"scenes":[{"nodes":[0]}],"textures":[{"name":"lisyan_1_0","sampler":0,"source":0}]}