{"accessors":[{"name":"polygon0_1_0_positions","componentType":5126,"count":1098,"min":[-3.1726160049438477,0.0014260000316426158,-6.710227012634277],"max":[3.1726160049438477,7.911251068115234,4.274429798126221],"type":"VEC3","bufferView":0,"byteOffset":0},{"name":"polygon0_1_0_normals","componentType":5126,"count":1098,"min":[-1,-0.9995635747909546,-0.9959055185317993],"max":[1,0.9997457265853882,0.9992783069610596],"type":"VEC3","bufferView":1,"byteOffset":0},{"name":"polygon0_1_0_texcoords","componentType":5126,"count":1098,"min":[-1.838989019393921,-0.10534700006246567],"max":[0.9964600205421448,1.9931639432907104],"type":"VEC2","bufferView":2,"byteOffset":0},{"name":"polygon0_1_0_indices","componentType":5123,"count":4332,"min":[0],"max":[1097],"type":"SCALAR","bufferView":3,"byteOffset":0},{"name":"polygon1_1_0_positions","componentType":5126,"count":16,"min":[-0.7513329982757568,2.709078073501587,3.506643056869507],"max":[0.7513329982757568,3.2947630882263184,4.117012977600098],"type":"VEC3","bufferView":0,"byteOffset":13176},{"name":"polygon1_1_0_normals","componentType":5126,"count":16,"min":[-0.6864268183708191,0.05480000004172325,0.6556248068809509],"max":[0.6864268183708191,0.5988870859146118,0.9304185509681702],"type":"VEC3","bufferView":1,"byteOffset":13176},{"name":"polygon1_1_0_texcoords","componentType":5126,"count":16,"min":[0.05078100040555,0.023437000811100006],"max":[0.453125,0.2265619933605194],"type":"VEC2","bufferView":2,"byteOffset":8784},{"name":"polygon1_1_0_indices","componentType":5123,"count":48,"min":[0],"max":[15],"type":"SCALAR","bufferView":3,"byteOffset":8664}],"asset":{"generator":"obj2gltf","version":"2.0"},"buffers":[{"name":"Skunpuu","byteLength":339356,"uri":"data:application/octet-stream;base64,"}],"bufferViews":[{"name":"bufferView_0","buffer":0,"byteLength":13368,"byteOffset":0,"byteStride":12,"target":34962},{"name":"bufferView_1","buffer":0,"byteLength":13368,"byteOffset":13368,"byteStride":12,"target":34962},{"name":"bufferView_2","buffer":0,"byteLength":8912,"byteOffset":26736,"byteStride":8,"target":34962},{"name":"bufferView_3","buffer":0,"byteLength":8760,"byteOffset":35648,"target":34963},{"buffer":0,"byteOffset":44408,"byteLength":196626},{"buffer":0,"byteOffset":241034,"byteLength":98322}],"images":[{"name":"SkunpuuDh","mimeType":"image/x-tga","bufferView":4},{"name":"SkunpuuEyeDh","mimeType":"image/x-tga","bufferView":5}],"materials":[{"name":"mat1","pbrMetallicRoughness":{"baseColorTexture":{"index":0},"baseColorFactor":[1,1,1,1],"metallicFactor":0,"roughnessFactor":0.99},"emissiveFactor":[0,0,0],"alphaMode":"OPAQUE","doubleSided":false},{"name":"mat2","pbrMetallicRoughness":{"baseColorTexture":{"index":1},"baseColorFactor":[1,1,1,1],"metallicFactor":0,"roughnessFactor":0.99},"emissiveFactor":[0,0,0],"alphaMode":"OPAQUE","doubleSided":false}],"meshes":[{"name":"polygon0_1","primitives":[{"attributes":{"POSITION":0,"NORMAL":1,"TEXCOORD_0":2},"indices":3,"material":0,"mode":4}]},{"name":"polygon1_1","primitives":[{"attributes":{"POSITION":4,"NORMAL":5,"TEXCOORD_0":6},"indices":7,"material":1,"mode":4}]}],"nodes":[{"name":"polygon0","mesh":0},{"name":"polygon1","mesh":1}],"samplers":[{"wrapS":10497,"wrapT":10497}],"scene":0,"scenes":[{"nodes":[0,1]}],"textures":[{"name":"SkunpuuDh","sampler":0,"source":0},{"name":"SkunpuuEyeDh","sampler":0,"source":1}]}