{"accessors":[{"name":"polygon0_1_0_positions","componentType":5126,"count":25,"min":[-1.0013970136642456,3.1938979625701904,5.351913928985596],"max":[1.0013970136642456,3.891545057296753,6.141088962554932],"type":"VEC3","bufferView":0,"byteOffset":0},{"name":"polygon0_1_0_normals","componentType":5126,"count":25,"min":[-0.6528290510177612,0.1210339218378067,0.5222833156585693],"max":[0.6528290510177612,0.8463835120201111,0.970910906791687],"type":"VEC3","bufferView":1,"byteOffset":0},{"name":"polygon0_1_0_texcoords","componentType":5126,"count":25,"min":[0.0039059999398887157,0.015625],"max":[0.484375,0.21875],"type":"VEC2","bufferView":2,"byteOffset":0},{"name":"polygon0_1_0_indices","componentType":5123,"count":96,"min":[0],"max":[24],"type":"SCALAR","bufferView":3,"byteOffset":0},{"name":"polygon1_1_0_positions","componentType":5126,"count":1132,"min":[-2.956249952316284,0.001294999965466559,-7.767453193664551],"max":[2.956249952316284,10.174029350280762,9.181160926818848],"type":"VEC3","bufferView":0,"byteOffset":300},{"name":"polygon1_1_0_normals","componentType":5126,"count":1132,"min":[-0.9999474287033081,-0.9999106526374817,-0.9999778866767883],"max":[0.9999991655349731,0.9970899820327759,0.9970360994338989],"type":"VEC3","bufferView":1,"byteOffset":300},{"name":"polygon1_1_0_texcoords","componentType":5126,"count":1132,"min":[0.002013999968767166,0.0030519999563694],"max":[0.9971010088920593,0.9956669807434082],"type":"VEC2","bufferView":2,"byteOffset":200},{"name":"polygon1_1_0_indices","componentType":5123,"count":4338,"min":[0],"max":[1131],"type":"SCALAR","bufferView":3,"byteOffset":192}],"asset":{"generator":"obj2gltf","version":"2.0"},"buffers":[{"name":"Skuntank","byteLength":340840,"uri":"data:application/octet-stream;base64,"}],"bufferViews":[{"name":"bufferView_0","buffer":0,"byteLength":13884,"byteOffset":0,"byteStride":12,"target":34962},{"name":"bufferView_1","buffer":0,"byteLength":13884,"byteOffset":13884,"byteStride":12,"target":34962},{"name":"bufferView_2","buffer":0,"byteLength":9256,"byteOffset":27768,"byteStride":8,"target":34962},{"name":"bufferView_3","buffer":0,"byteLength":8868,"byteOffset":37024,"target":34963},{"buffer":0,"byteOffset":45892,"byteLength":98322},{"buffer":0,"byteOffset":144214,"byteLength":196626}],"images":[{"name":"SkutankEyeDh","mimeType":"image/x-tga","bufferView":4},{"name":"SkutankDh","mimeType":"image/x-tga","bufferView":5}],"materials":[{"name":"mat2","pbrMetallicRoughness":{"baseColorTexture":{"index":0},"baseColorFactor":[1,1,1,1],"metallicFactor":0,"roughnessFactor":0.99},"emissiveFactor":[0,0,0],"alphaMode":"OPAQUE","doubleSided":false},{"name":"mat1","pbrMetallicRoughness":{"baseColorTexture":{"index":1},"baseColorFactor":[1,1,1,1],"metallicFactor":0,"roughnessFactor":0.99},"emissiveFactor":[0,0,0],"alphaMode":"OPAQUE","doubleSided":false}],"meshes":[{"name":"polygon0_1","primitives":[{"attributes":{"POSITION":0,"NORMAL":1,"TEXCOORD_0":2},"indices":3,"material":0,"mode":4}]},{"name":"polygon1_1","primitives":[{"attributes":{"POSITION":4,"NORMAL":5,"TEXCOORD_0":6},"indices":7,"material":1,"mode":4}]}],"nodes":[{"name":"polygon0","mesh":0},{"name":"polygon1","mesh":1}],"samplers":[{"wrapS":10497,"wrapT":10497}],"scene":0,"scenes":[{"nodes":[0,1]}],"textures":[{"name":"SkutankEyeDh","sampler":0,"source":0},{"name":"SkutankDh","sampler":0,"source":1}]}