{"accessors":[{"name":"polygon0_1_0_positions","componentType":5126,"count":971,"min":[-2.1458120346069336,2.5557169914245605,-0.44504600763320923],"max":[2.1458120346069336,7.445044994354248,0.7850250005722046],"type":"VEC3","bufferView":0,"byteOffset":0},{"name":"polygon0_1_0_normals","componentType":5126,"count":971,"min":[-1,-1,-1],"max":[1,1,1],"type":"VEC3","bufferView":1,"byteOffset":0},{"name":"polygon0_1_0_texcoords","componentType":5126,"count":971,"min":[0.014618000015616417,0.01422099955379963],"max":[0.986968994140625,0.9894710183143616],"type":"VEC2","bufferView":2,"byteOffset":0},{"name":"polygon0_1_0_indices","componentType":5123,"count":4608,"min":[0],"max":[970],"type":"SCALAR","bufferView":3,"byteOffset":0},{"name":"polygon1_1_0_positions","componentType":5126,"count":46,"min":[-1.2129930257797241,4.6265549659729,0.23081399500370026],"max":[1.2129930257797241,5.373263835906982,0.3872019946575165],"type":"VEC3","bufferView":0,"byteOffset":11652},{"name":"polygon1_1_0_normals","componentType":5126,"count":46,"min":[-0.35692882537841797,-0.15399500727653503,0.9341315627098083],"max":[0.35692882537841797,0.15399500727653503,0.9986181855201721],"type":"VEC3","bufferView":1,"byteOffset":11652},{"name":"polygon1_1_0_texcoords","componentType":5126,"count":46,"min":[1.0582890510559082,0.017090000212192535],"max":[1.9279170036315918,0.2309570014476776],"type":"VEC2","bufferView":2,"byteOffset":7768},{"name":"polygon1_1_0_indices","componentType":5123,"count":132,"min":[0],"max":[45],"type":"SCALAR","bufferView":3,"byteOffset":9216}],"asset":{"generator":"obj2gltf","version":"2.0"},"buffers":[{"name":"Bronzor","byteLength":287820,"uri":"data:application/octet-stream;base64,"}],"bufferViews":[{"name":"bufferView_0","buffer":0,"byteLength":12204,"byteOffset":0,"byteStride":12,"target":34962},{"name":"bufferView_1","buffer":0,"byteLength":12204,"byteOffset":12204,"byteStride":12,"target":34962},{"name":"bufferView_2","buffer":0,"byteLength":8136,"byteOffset":24408,"byteStride":8,"target":34962},{"name":"bufferView_3","buffer":0,"byteLength":9480,"byteOffset":32544,"target":34963},{"buffer":0,"byteOffset":42024,"byteLength":196626},{"buffer":0,"byteOffset":238650,"byteLength":49170}],"images":[{"name":"DohmirrorDh","mimeType":"image/x-tga","bufferView":4},{"name":"DohmirrorEyeDh","mimeType":"image/x-tga","bufferView":5}],"materials":[{"name":"mat1","pbrMetallicRoughness":{"baseColorTexture":{"index":0},"baseColorFactor":[1,1,1,1],"metallicFactor":0,"roughnessFactor":0.99},"emissiveFactor":[0,0,0],"alphaMode":"OPAQUE","doubleSided":false},{"name":"mat2","pbrMetallicRoughness":{"baseColorTexture":{"index":1},"baseColorFactor":[1,1,1,1],"metallicFactor":0,"roughnessFactor":0.99},"emissiveFactor":[0,0,0],"alphaMode":"OPAQUE","doubleSided":false}],"meshes":[{"name":"polygon0_1","primitives":[{"attributes":{"POSITION":0,"NORMAL":1,"TEXCOORD_0":2},"indices":3,"material":0,"mode":4}]},{"name":"polygon1_1","primitives":[{"attributes":{"POSITION":4,"NORMAL":5,"TEXCOORD_0":6},"indices":7,"material":1,"mode":4}]}],"nodes":[{"name":"polygon0","mesh":0},{"name":"polygon1","mesh":1}],"samplers":[{"wrapS":10497,"wrapT":10497}],"scene":0,"scenes":[{"nodes":[0,1]}],"textures":[{"name":"DohmirrorDh","sampler":0,"source":0},{"name":"DohmirrorEyeDh","sampler":0,"source":1}]}