{"accessors":[{"name":"dohtakun-Mesh_0_positions","componentType":5126,"count":96,"min":[-2.5286331176757812,2.408531904220581,-3.5404319763183594],"max":[2.5286331176757812,3.3962841033935547,-1.4704469442367554],"type":"VEC3","bufferView":0,"byteOffset":0},{"name":"dohtakun-Mesh_0_texcoords","componentType":5126,"count":96,"min":[0.8122509717941284,0.03980100154876709],"max":[0.960548996925354,0.2725430130958557],"type":"VEC2","bufferView":1,"byteOffset":0},{"name":"dohtakun-Mesh_0_indices","componentType":5123,"count":384,"min":[0],"max":[95],"type":"SCALAR","bufferView":2,"byteOffset":0},{"name":"dohtakun-Mesh_1_positions","componentType":5126,"count":834,"min":[-10.137288093566895,-3.892055034637451,-12.978907585144043],"max":[10.137287139892578,3.8920559883117676,0.03192399814724922],"type":"VEC3","bufferView":0,"byteOffset":1152},{"name":"dohtakun-Mesh_1_texcoords","componentType":5126,"count":834,"min":[0.006419000215828419,0.024001000449061394],"max":[0.9035000205039978,0.9985049962997437],"type":"VEC2","bufferView":1,"byteOffset":768},{"name":"dohtakun-Mesh_1_indices","componentType":5123,"count":2718,"min":[0],"max":[833],"type":"SCALAR","bufferView":2,"byteOffset":768}],"asset":{"generator":"obj2gltf","version":"2.0"},"buffers":[{"name":"BR_Bronzong-Shiny01","byteLength":1073400,"uri":"data:application/octet-stream;base64,"}],"bufferViews":[{"name":"bufferView_0","buffer":0,"byteLength":11160,"byteOffset":0,"byteStride":12,"target":34962},{"name":"bufferView_1","buffer":0,"byteLength":7440,"byteOffset":11160,"byteStride":8,"target":34962},{"name":"bufferView_2","buffer":0,"byteLength":6204,"byteOffset":18600,"target":34963},{"buffer":0,"byteOffset":24804,"byteLength":1048594}],"images":[{"name":"dohtakun_1_0","mimeType":"image/x-tga","bufferView":3}],"materials":[{"name":"mat_0","pbrMetallicRoughness":{"baseColorTexture":{"index":0},"baseColorFactor":[1,1,1,1],"metallicFactor":0,"roughnessFactor":0.903921569},"emissiveFactor":[0,0,0],"alphaMode":"BLEND","doubleSided":true},{"name":"mat_1","pbrMetallicRoughness":{"baseColorTexture":{"index":0},"baseColorFactor":[1,1,1,1],"metallicFactor":0,"roughnessFactor":0.903921569},"emissiveFactor":[0,0,0],"alphaMode":"BLEND","doubleSided":true}],"meshes":[{"name":"dohtakun-Mesh","primitives":[{"attributes":{"POSITION":0,"TEXCOORD_0":1},"indices":2,"material":0,"mode":4},{"attributes":{"POSITION":3,"TEXCOORD_0":4},"indices":5,"material":1,"mode":4}]}],"nodes":[{"name":"dohtakun","mesh":0}],"samplers":[{"wrapS":10497,"wrapT":10497}],"scene":0,"scenes":[{"nodes":[0]}],"textures":[{"name":"dohtakun_1_0","sampler":0,"source":0}]}