{"accessors":[{"name":"polygon0_1_0_positions","componentType":5126,"count":6,"min":[0.08736400306224823,-0.15000000596046448,0],"max":[0.31236401200294495,0.15000000596046448,0],"type":"VEC3","bufferView":0,"byteOffset":0},{"name":"polygon0_1_0_normals","componentType":5126,"count":6,"min":[0,0,1],"max":[0,0,1],"type":"VEC3","bufferView":1,"byteOffset":0},{"name":"polygon0_1_0_texcoords","componentType":5126,"count":6,"min":[0.125,0],"max":[0.875,0.5078120231628418],"type":"VEC2","bufferView":2,"byteOffset":0},{"name":"polygon0_1_0_indices","componentType":5123,"count":12,"min":[0],"max":[5],"type":"SCALAR","bufferView":3,"byteOffset":0},{"name":"polygon1_1_0_positions","componentType":5126,"count":6,"min":[-0.31263598799705505,-0.1499989926815033,0],"max":[-0.08763600140810013,0.15000000596046448,9.999999974752427e-7],"type":"VEC3","bufferView":0,"byteOffset":72},{"name":"polygon1_1_0_normals","componentType":5126,"count":6,"min":[0,0.007763999048620462,0.9999698400497437],"max":[0,0.007763999048620462,0.9999698400497437],"type":"VEC3","bufferView":1,"byteOffset":72},{"name":"polygon1_1_0_texcoords","componentType":5126,"count":6,"min":[0.125,0],"max":[0.875,0.5078120231628418],"type":"VEC2","bufferView":2,"byteOffset":48},{"name":"polygon1_1_0_indices","componentType":5123,"count":12,"min":[0],"max":[5],"type":"SCALAR","bufferView":3,"byteOffset":24},{"name":"polygon2_1_0_positions","componentType":5126,"count":9,"min":[-0.27874699234962463,1.4021790027618408,0.7725319862365723],"max":[0.27874699234962463,1.7598129510879517,0.9362040162086487],"type":"VEC3","bufferView":0,"byteOffset":144},{"name":"polygon2_1_0_normals","componentType":5126,"count":9,"min":[-0.29357290267944336,0.22735092043876648,0.8707168698310852],"max":[0.2933899164199829,0.4373719394207001,0.9714070558547974],"type":"VEC3","bufferView":1,"byteOffset":144},{"name":"polygon2_1_0_texcoords","componentType":5126,"count":9,"min":[0.09304799884557724,0.009216000325977802],"max":[0.7816159725189209,0.2314150035381317],"type":"VEC2","bufferView":2,"byteOffset":96},{"name":"polygon2_1_0_indices","componentType":5123,"count":24,"min":[0],"max":[8],"type":"SCALAR","bufferView":3,"byteOffset":48},{"name":"polygon3_1_0_positions","componentType":5126,"count":18,"min":[-0.5948569774627686,1.5414320230484009,0.5225719809532166],"max":[0.5948569774627686,2.020611047744751,0.8316230177879333],"type":"VEC3","bufferView":0,"byteOffset":252},{"name":"polygon3_1_0_normals","componentType":5126,"count":18,"min":[-0.5906991362571716,0.2722209692001343,0.6709709763526917],"max":[0.5906991362571716,0.544306218624115,0.9058786630630493],"type":"VEC3","bufferView":1,"byteOffset":252},{"name":"polygon3_1_0_texcoords","componentType":5126,"count":18,"min":[0.054687999188899994,0.0078119998797774315],"max":[0.4570310115814209,0.234375],"type":"VEC2","bufferView":2,"byteOffset":168},{"name":"polygon3_1_0_indices","componentType":5123,"count":54,"min":[0],"max":[17],"type":"SCALAR","bufferView":3,"byteOffset":96},{"name":"polygon4_1_0_positions","componentType":5126,"count":977,"min":[-1.6667640209197998,0,-1.1858140230178833],"max":[1.6667640209197998,4.929566860198975,1.2050429582595825],"type":"VEC3","bufferView":0,"byteOffset":468},{"name":"polygon4_1_0_normals","componentType":5126,"count":977,"min":[-1,-1,-1],"max":[1,1,1],"type":"VEC3","bufferView":1,"byteOffset":468},{"name":"polygon4_1_0_texcoords","componentType":5126,"count":977,"min":[0.011230000294744968,0.006804999895393848],"max":[1.48602294921875,0.9937130212783813],"type":"VEC2","bufferView":2,"byteOffset":312},{"name":"polygon4_1_0_indices","componentType":5123,"count":4854,"min":[0],"max":[976],"type":"SCALAR","bufferView":3,"byteOffset":204}],"asset":{"generator":"obj2gltf","version":"2.0"},"buffers":[{"name":"Bonsly","byteLength":394752,"uri":"data:application/octet-stream;base64,"}],"bufferViews":[{"name":"bufferView_0","buffer":0,"byteLength":12192,"byteOffset":0,"byteStride":12,"target":34962},{"name":"bufferView_1","buffer":0,"byteLength":12192,"byteOffset":12192,"byteStride":12,"target":34962},{"name":"bufferView_2","buffer":0,"byteLength":8128,"byteOffset":24384,"byteStride":8,"target":34962},{"name":"bufferView_3","buffer":0,"byteLength":9912,"byteOffset":32512,"target":34963},{"buffer":0,"byteOffset":42424,"byteLength":8210},{"buffer":0,"byteOffset":50634,"byteLength":49170},{"buffer":0,"byteOffset":99804,"byteLength":98322},{"buffer":0,"byteOffset":198126,"byteLength":196626}],"images":[{"name":"UsohachiTearDh","mimeType":"image/x-tga","bufferView":4},{"name":"UsohachiMouthDh","mimeType":"image/x-tga","bufferView":5},{"name":"UsohachiEyeDh","mimeType":"image/x-tga","bufferView":6},{"name":"UsohachiDh","mimeType":"image/x-tga","bufferView":7}],"materials":[{"name":"mat3","pbrMetallicRoughness":{"baseColorTexture":{"index":0},"baseColorFactor":[1,1,1,1],"metallicFactor":0,"roughnessFactor":0.99},"emissiveFactor":[0,0,0],"alphaMode":"OPAQUE","doubleSided":false},{"name":"mat5","pbrMetallicRoughness":{"baseColorTexture":{"index":0},"baseColorFactor":[1,1,1,1],"metallicFactor":0,"roughnessFactor":0.99},"emissiveFactor":[0,0,0],"alphaMode":"OPAQUE","doubleSided":false},{"name":"mat4","pbrMetallicRoughness":{"baseColorTexture":{"index":1},"baseColorFactor":[1,1,1,1],"metallicFactor":0,"roughnessFactor":0.99},"emissiveFactor":[0,0,0],"alphaMode":"OPAQUE","doubleSided":false},{"name":"mat2","pbrMetallicRoughness":{"baseColorTexture":{"index":2},"baseColorFactor":[1,1,1,1],"metallicFactor":0,"roughnessFactor":0.99},"emissiveFactor":[0,0,0],"alphaMode":"OPAQUE","doubleSided":false},{"name":"mat1","pbrMetallicRoughness":{"baseColorTexture":{"index":3},"baseColorFactor":[1,1,1,1],"metallicFactor":0,"roughnessFactor":0.99},"emissiveFactor":[0,0,0],"alphaMode":"OPAQUE","doubleSided":false}],"meshes":[{"name":"polygon0_1","primitives":[{"attributes":{"POSITION":0,"NORMAL":1,"TEXCOORD_0":2},"indices":3,"material":0,"mode":4}]},{"name":"polygon1_1","primitives":[{"attributes":{"POSITION":4,"NORMAL":5,"TEXCOORD_0":6},"indices":7,"material":1,"mode":4}]},{"name":"polygon2_1","primitives":[{"attributes":{"POSITION":8,"NORMAL":9,"TEXCOORD_0":10},"indices":11,"material":2,"mode":4}]},{"name":"polygon3_1","primitives":[{"attributes":{"POSITION":12,"NORMAL":13,"TEXCOORD_0":14},"indices":15,"material":3,"mode":4}]},{"name":"polygon4_1","primitives":[{"attributes":{"POSITION":16,"NORMAL":17,"TEXCOORD_0":18},"indices":19,"material":4,"mode":4}]}],"nodes":[{"name":"polygon0","mesh":0},{"name":"polygon1","mesh":1},{"name":"polygon2","mesh":2},{"name":"polygon3","mesh":3},{"name":"polygon4","mesh":4}],"samplers":[{"wrapS":10497,"wrapT":10497}],"scene":0,"scenes":[{"nodes":[0,1,2,3,4]}],"textures":[{"name":"UsohachiTearDh","sampler":0,"source":0},{"name":"UsohachiMouthDh","sampler":0,"source":1},{"name":"UsohachiEyeDh","sampler":0,"source":2},{"name":"UsohachiDh","sampler":0,"source":3}]}