{"accessors":[{"name":"polygon0_1_0_positions","componentType":5126,"count":823,"min":[-3.374346971511841,-0.02402600087225437,-2.4014410972595215],"max":[3.374345064163208,8.783858299255371,2.085078001022339],"type":"VEC3","bufferView":0,"byteOffset":0},{"name":"polygon0_1_0_normals","componentType":5126,"count":823,"min":[-0.9983344078063965,-0.999998927116394,-0.9985762238502502],"max":[0.9983343482017517,0.9998221397399902,0.9889378547668457],"type":"VEC3","bufferView":1,"byteOffset":0},{"name":"polygon0_1_0_texcoords","componentType":5126,"count":823,"min":[0.01119999960064888,0.02310200035572052],"max":[0.9910889863967896,0.9788820147514343],"type":"VEC2","bufferView":2,"byteOffset":0},{"name":"polygon0_1_0_indices","componentType":5123,"count":3834,"min":[0],"max":[822],"type":"SCALAR","bufferView":3,"byteOffset":0},{"name":"polygon1_1_0_positions","componentType":5126,"count":24,"min":[-1.2517269849777222,3.143066883087158,1.1268030405044556],"max":[1.2517260313034058,4.163900852203369,1.6424189805984497],"type":"VEC3","bufferView":0,"byteOffset":9876},{"name":"polygon1_1_0_normals","componentType":5126,"count":24,"min":[-0.7411543130874634,-0.3724861443042755,0.5992861986160278],"max":[0.7411543130874634,0.5163470506668091,0.9651910662651062],"type":"VEC3","bufferView":1,"byteOffset":9876},{"name":"polygon1_1_0_texcoords","componentType":5126,"count":24,"min":[1.0830689668655396,0.01711999997496605],"max":[1.464508056640625,0.27804601192474365],"type":"VEC2","bufferView":2,"byteOffset":6584},{"name":"polygon1_1_0_indices","componentType":5123,"count":72,"min":[0],"max":[23],"type":"SCALAR","bufferView":3,"byteOffset":7668},{"name":"polygon3_1_0_positions","componentType":5126,"count":27,"min":[-1.21629798412323,2.5491790771484375,0.7413840293884277],"max":[1.2162970304489136,3.1749439239501953,1.6279959678649902],"type":"VEC3","bufferView":0,"byteOffset":10164},{"name":"polygon3_1_0_normals","componentType":5126,"count":27,"min":[-0.7085972428321838,-0.8799060583114624,0.2857130169868469],"max":[0.7085972428321838,-0.3395512104034424,0.94058758020401],"type":"VEC3","bufferView":1,"byteOffset":10164},{"name":"polygon3_1_0_texcoords","componentType":5126,"count":27,"min":[0.8488770127296448,0.00976600032299757],"max":[1.8533940315246582,0.7933350205421448],"type":"VEC2","bufferView":2,"byteOffset":6776},{"name":"polygon3_1_0_indices","componentType":5123,"count":72,"min":[0],"max":[26],"type":"SCALAR","bufferView":3,"byteOffset":7812}],"asset":{"generator":"obj2gltf","version":"2.0"},"buffers":[{"name":"Mime Jr.","byteLength":429196,"uri":"data:application/octet-stream;base64,"}],"bufferViews":[{"name":"bufferView_0","buffer":0,"byteLength":10488,"byteOffset":0,"byteStride":12,"target":34962},{"name":"bufferView_1","buffer":0,"byteLength":10488,"byteOffset":10488,"byteStride":12,"target":34962},{"name":"bufferView_2","buffer":0,"byteLength":6992,"byteOffset":20976,"byteStride":8,"target":34962},{"name":"bufferView_3","buffer":0,"byteLength":7956,"byteOffset":27968,"target":34963},{"buffer":0,"byteOffset":35924,"byteLength":196626},{"buffer":0,"byteOffset":232550,"byteLength":98322},{"buffer":0,"byteOffset":330872,"byteLength":98322}],"images":[{"name":"ManeneDh","mimeType":"image/x-tga","bufferView":4},{"name":"ManeneEyeDh","mimeType":"image/x-tga","bufferView":5},{"name":"ManeneMouthDh","mimeType":"image/x-tga","bufferView":6}],"materials":[{"name":"mat1","pbrMetallicRoughness":{"baseColorTexture":{"index":0},"baseColorFactor":[1,1,1,1],"metallicFactor":0,"roughnessFactor":0.99},"emissiveFactor":[0,0,0],"alphaMode":"OPAQUE","doubleSided":false},{"name":"mat2","pbrMetallicRoughness":{"baseColorTexture":{"index":1},"baseColorFactor":[1,1,1,1],"metallicFactor":0,"roughnessFactor":0.99},"emissiveFactor":[0,0,0],"alphaMode":"OPAQUE","doubleSided":false},{"name":"mat3","pbrMetallicRoughness":{"baseColorTexture":{"index":2},"baseColorFactor":[1,1,1,1],"metallicFactor":0,"roughnessFactor":0.99},"emissiveFactor":[0,0,0],"alphaMode":"OPAQUE","doubleSided":false}],"meshes":[{"name":"polygon0_1","primitives":[{"attributes":{"POSITION":0,"NORMAL":1,"TEXCOORD_0":2},"indices":3,"material":0,"mode":4}]},{"name":"polygon1_1","primitives":[{"attributes":{"POSITION":4,"NORMAL":5,"TEXCOORD_0":6},"indices":7,"material":1,"mode":4}]},{"name":"polygon3_1","primitives":[{"attributes":{"POSITION":8,"NORMAL":9,"TEXCOORD_0":10},"indices":11,"material":2,"mode":4}]}],"nodes":[{"name":"polygon0","mesh":0},{"name":"polygon1","mesh":1},{"name":"polygon3","mesh":2}],"samplers":[{"wrapS":10497,"wrapT":10497}],"scene":0,"scenes":[{"nodes":[0,1,2]}],"textures":[{"name":"ManeneDh","sampler":0,"source":0},{"name":"ManeneEyeDh","sampler":0,"source":1},{"name":"ManeneMouthDh","sampler":0,"source":2}]}