{"accessors":[{"name":"pinpuku-Mesh_0_positions","componentType":5126,"count":521,"min":[-2.237117052078247,-2.1568009853363037,-5.969214916229248],"max":[2.2371160984039307,2.3284049034118652,-0.009771999903023243],"type":"VEC3","bufferView":0,"byteOffset":0},{"name":"pinpuku-Mesh_0_texcoords","componentType":5126,"count":521,"min":[0.011509999632835388,0.009699000045657158],"max":[0.868619978427887,0.9920459985733032],"type":"VEC2","bufferView":1,"byteOffset":0},{"name":"pinpuku-Mesh_0_indices","componentType":5123,"count":2574,"min":[0],"max":[520],"type":"SCALAR","bufferView":2,"byteOffset":0},{"name":"pinpuku-Mesh_1_positions","componentType":5126,"count":6,"min":[-0.5259379744529724,1.0188720226287842,-3.558432102203369],"max":[0.525937020778656,1.379328966140747,-3.164022922515869],"type":"VEC3","bufferView":0,"byteOffset":6252},{"name":"pinpuku-Mesh_1_texcoords","componentType":5126,"count":6,"min":[0.8838250041007996,0.0071000000461936],"max":[0.9932399988174438,0.11934199929237366],"type":"VEC2","bufferView":1,"byteOffset":4168},{"name":"pinpuku-Mesh_1_indices","componentType":5123,"count":12,"min":[0],"max":[5],"type":"SCALAR","bufferView":2,"byteOffset":5148},{"name":"pinpuku-Mesh_2_positions","componentType":5126,"count":21,"min":[-0.740032970905304,1.2640329599380493,-3.1658310890197754],"max":[0.7400320172309875,1.6264070272445679,-2.370028018951416],"type":"VEC3","bufferView":0,"byteOffset":6324},{"name":"pinpuku-Mesh_2_texcoords","componentType":5126,"count":21,"min":[0.8791000247001648,0.5032389760017395],"max":[0.9958570003509521,0.6206380128860474],"type":"VEC2","bufferView":1,"byteOffset":4216},{"name":"pinpuku-Mesh_2_indices","componentType":5123,"count":96,"min":[0],"max":[20],"type":"SCALAR","bufferView":2,"byteOffset":5172}],"asset":{"generator":"obj2gltf","version":"2.0"},"buffers":[{"name":"BR_Happiny-Shiny01","byteLength":1064920,"uri":"data:application/octet-stream;base64,"}],"bufferViews":[{"name":"bufferView_0","buffer":0,"byteLength":6576,"byteOffset":0,"byteStride":12,"target":34962},{"name":"bufferView_1","buffer":0,"byteLength":4384,"byteOffset":6576,"byteStride":8,"target":34962},{"name":"bufferView_2","buffer":0,"byteLength":5364,"byteOffset":10960,"target":34963},{"buffer":0,"byteOffset":16324,"byteLength":1048594}],"images":[{"name":"pinpuku_1_0","mimeType":"image/x-tga","bufferView":3}],"materials":[{"name":"mat_0","pbrMetallicRoughness":{"baseColorTexture":{"index":0},"baseColorFactor":[1,1,1,1],"metallicFactor":0,"roughnessFactor":0.903921569},"emissiveFactor":[0,0,0],"alphaMode":"BLEND","doubleSided":true},{"name":"mat_1","pbrMetallicRoughness":{"baseColorTexture":{"index":0},"baseColorFactor":[1,1,1,1],"metallicFactor":0,"roughnessFactor":0.903921569},"emissiveFactor":[0,0,0],"alphaMode":"BLEND","doubleSided":true},{"name":"mat_2","pbrMetallicRoughness":{"baseColorTexture":{"index":0},"baseColorFactor":[1,1,1,1],"metallicFactor":0,"roughnessFactor":0.903921569},"emissiveFactor":[0,0,0],"alphaMode":"BLEND","doubleSided":true}],"meshes":[{"name":"pinpuku-Mesh","primitives":[{"attributes":{"POSITION":0,"TEXCOORD_0":1},"indices":2,"material":0,"mode":4},{"attributes":{"POSITION":3,"TEXCOORD_0":4},"indices":5,"material":1,"mode":4},{"attributes":{"POSITION":6,"TEXCOORD_0":7},"indices":8,"material":2,"mode":4}]}],"nodes":[{"name":"pinpuku","mesh":0}],"samplers":[{"wrapS":10497,"wrapT":10497}],"scene":0,"scenes":[{"nodes":[0]}],"textures":[{"name":"pinpuku_1_0","sampler":0,"source":0}]}