{"accessors":[{"name":"polygon0_1_0_positions","componentType":5126,"count":1003,"min":[-3.9200260639190674,0.022545000538229942,-3.425179958343506],"max":[3.9200260639190674,4.698472023010254,1.709542989730835],"type":"VEC3","bufferView":0,"byteOffset":0},{"name":"polygon0_1_0_normals","componentType":5126,"count":1003,"min":[-0.9998300671577454,-0.999889075756073,-0.9999334812164307],"max":[0.9998356699943542,0.9951357841491699,0.9981750249862671],"type":"VEC3","bufferView":1,"byteOffset":0},{"name":"polygon0_1_0_texcoords","componentType":5126,"count":1003,"min":[0.0017399999778717756,0.00891099963337183],"max":[0.9922789931297302,0.9927060008049011],"type":"VEC2","bufferView":2,"byteOffset":0},{"name":"polygon0_1_0_indices","componentType":5123,"count":3540,"min":[0],"max":[1002],"type":"SCALAR","bufferView":3,"byteOffset":0},{"name":"polygon1_1_0_positions","componentType":5126,"count":20,"min":[-0.673229992389679,2.381603956222534,0.8154680132865906],"max":[0.673229992389679,3.1133229732513428,1.2438640594482422],"type":"VEC3","bufferView":0,"byteOffset":12036},{"name":"polygon1_1_0_normals","componentType":5126,"count":20,"min":[-0.8931366801261902,-0.5239330530166626,0.34821704030036926],"max":[0.8931366801261902,0.2910609543323517,0.7635008096694946],"type":"VEC3","bufferView":1,"byteOffset":12036},{"name":"polygon1_1_0_texcoords","componentType":5126,"count":20,"min":[1.22564697265625,0.017211999744176865],"max":[1.7820429801940918,0.2235109955072403],"type":"VEC2","bufferView":2,"byteOffset":8024},{"name":"polygon1_1_0_indices","componentType":5123,"count":48,"min":[0],"max":[19],"type":"SCALAR","bufferView":3,"byteOffset":7080},{"name":"polygon2_1_0_positions","componentType":5126,"count":3,"min":[-0.07510700076818466,2.279505968093872,-0.08818899840116501],"max":[0.07510700076818466,2.8044919967651367,0.08699700236320496],"type":"VEC3","bufferView":0,"byteOffset":12276},{"name":"polygon2_1_0_normals","componentType":5126,"count":3,"min":[-0.36065399646759033,-0.5577918887138367,-0.9321349859237671],"max":[0.36065399646759033,0.03245000168681145,-0.8299808502197266],"type":"VEC3","bufferView":1,"byteOffset":12276},{"name":"polygon2_1_0_texcoords","componentType":5126,"count":3,"min":[0.1992190033197403,0.21875],"max":[0.2539060115814209,0.2382809966802597],"type":"VEC2","bufferView":2,"byteOffset":8184},{"name":"polygon2_1_0_indices","componentType":5123,"count":3,"min":[0],"max":[2],"type":"SCALAR","bufferView":3,"byteOffset":7176}],"asset":{"generator":"obj2gltf","version":"2.0"},"buffers":[{"name":"Chatot","byteLength":285812,"uri":"data:application/octet-stream;base64,"}],"bufferViews":[{"name":"bufferView_0","buffer":0,"byteLength":12312,"byteOffset":0,"byteStride":12,"target":34962},{"name":"bufferView_1","buffer":0,"byteLength":12312,"byteOffset":12312,"byteStride":12,"target":34962},{"name":"bufferView_2","buffer":0,"byteLength":8208,"byteOffset":24624,"byteStride":8,"target":34962},{"name":"bufferView_3","buffer":0,"byteLength":7184,"byteOffset":32832,"target":34963},{"buffer":0,"byteOffset":40016,"byteLength":196626},{"buffer":0,"byteOffset":236642,"byteLength":49170}],"images":[{"name":"PerapDh","mimeType":"image/x-tga","bufferView":4},{"name":"PerapEyeDh","mimeType":"image/x-tga","bufferView":5}],"materials":[{"name":"mat1","pbrMetallicRoughness":{"baseColorTexture":{"index":0},"baseColorFactor":[1,1,1,1],"metallicFactor":0,"roughnessFactor":0.99},"emissiveFactor":[0,0,0],"alphaMode":"OPAQUE","doubleSided":false},{"name":"mat2","pbrMetallicRoughness":{"baseColorTexture":{"index":1},"baseColorFactor":[1,1,1,1],"metallicFactor":0,"roughnessFactor":0.99},"emissiveFactor":[0,0,0],"alphaMode":"OPAQUE","doubleSided":false}],"meshes":[{"name":"polygon0_1","primitives":[{"attributes":{"POSITION":0,"NORMAL":1,"TEXCOORD_0":2},"indices":3,"material":0,"mode":4}]},{"name":"polygon1_1","primitives":[{"attributes":{"POSITION":4,"NORMAL":5,"TEXCOORD_0":6},"indices":7,"material":1,"mode":4}]},{"name":"polygon2_1","primitives":[{"attributes":{"POSITION":8,"NORMAL":9,"TEXCOORD_0":10},"indices":11,"material":0,"mode":4}]}],"nodes":[{"name":"polygon0","mesh":0},{"name":"polygon1","mesh":1},{"name":"polygon2","mesh":2}],"samplers":[{"wrapS":10497,"wrapT":10497}],"scene":0,"scenes":[{"nodes":[0,1,2]}],"textures":[{"name":"PerapDh","sampler":0,"source":0},{"name":"PerapEyeDh","sampler":0,"source":1}]}