{"accessors":[{"name":"polygon0_1_0_positions","componentType":5126,"count":28,"min":[-1.199599027633667,3.5200650691986084,1.40317702293396],"max":[1.199599027633667,4.7275261878967285,2.4102680683135986],"type":"VEC3","bufferView":0,"byteOffset":0},{"name":"polygon0_1_0_normals","componentType":5126,"count":28,"min":[-0.9199739098548889,-0.032099995762109756,0.3906629681587219],"max":[0.9199739098548889,0.36830398440361023,0.5670353174209595],"type":"VEC3","bufferView":1,"byteOffset":0},{"name":"polygon0_1_0_texcoords","componentType":5126,"count":28,"min":[1.00347900390625,0.032683998346328735],"max":[1.4933780431747437,0.2344360053539276],"type":"VEC2","bufferView":2,"byteOffset":0},{"name":"polygon0_1_0_indices","componentType":5123,"count":90,"min":[0],"max":[27],"type":"SCALAR","bufferView":3,"byteOffset":0},{"name":"polygon1_1_0_positions","componentType":5126,"count":937,"min":[-2.9746150970458984,-0.0025420000310987234,-4.9264678955078125],"max":[2.9746150970458984,6.99418306350708,2.9661660194396973],"type":"VEC3","bufferView":0,"byteOffset":336},{"name":"polygon1_1_0_normals","componentType":5126,"count":937,"min":[-1,-0.9995077848434448,-0.9972262978553772],"max":[1,0.9992078542709351,0.9953339099884033],"type":"VEC3","bufferView":1,"byteOffset":336},{"name":"polygon1_1_0_texcoords","componentType":5126,"count":937,"min":[0.0160520002245903,0.00494399992749095],"max":[0.9914860129356384,0.9926760196685791],"type":"VEC2","bufferView":2,"byteOffset":224},{"name":"polygon1_1_0_indices","componentType":5123,"count":4104,"min":[0],"max":[936],"type":"SCALAR","bufferView":3,"byteOffset":180},{"name":"polygon2_1_0_positions","componentType":5126,"count":80,"min":[-1.3516069650650024,1.460386037826538,0.37783798575401306],"max":[1.3516069650650024,4.280240058898926,2.9661660194396973],"type":"VEC3","bufferView":0,"byteOffset":11580},{"name":"polygon2_1_0_normals","componentType":5126,"count":80,"min":[-0.7388742566108704,-0.9276837706565857,0.04966201260685921],"max":[0.7388742566108704,0.9642431735992432,0.9997131824493408],"type":"VEC3","bufferView":1,"byteOffset":11580},{"name":"polygon2_1_0_texcoords","componentType":5126,"count":80,"min":[0.7441409826278687,0.14550800621509552],"max":[0.9902949929237366,0.7545170187950134],"type":"VEC2","bufferView":2,"byteOffset":7720},{"name":"polygon2_1_0_indices","componentType":5123,"count":312,"min":[0],"max":[79],"type":"SCALAR","bufferView":3,"byteOffset":8388}],"asset":{"generator":"obj2gltf","version":"2.0"},"buffers":[{"name":"Gible","byteLength":337400,"uri":"data:application/octet-stream;base64,"}],"bufferViews":[{"name":"bufferView_0","buffer":0,"byteLength":12540,"byteOffset":0,"byteStride":12,"target":34962},{"name":"bufferView_1","buffer":0,"byteLength":12540,"byteOffset":12540,"byteStride":12,"target":34962},{"name":"bufferView_2","buffer":0,"byteLength":8360,"byteOffset":25080,"byteStride":8,"target":34962},{"name":"bufferView_3","buffer":0,"byteLength":9012,"byteOffset":33440,"target":34963},{"buffer":0,"byteOffset":42452,"byteLength":98322},{"buffer":0,"byteOffset":140774,"byteLength":196626}],"images":[{"name":"FukamaruEyeDh","mimeType":"image/x-tga","bufferView":4},{"name":"FukamaruDh","mimeType":"image/x-tga","bufferView":5}],"materials":[{"name":"mat2","pbrMetallicRoughness":{"baseColorTexture":{"index":0},"baseColorFactor":[1,1,1,1],"metallicFactor":0,"roughnessFactor":0.99},"emissiveFactor":[0,0,0],"alphaMode":"OPAQUE","doubleSided":false},{"name":"mat1","pbrMetallicRoughness":{"baseColorTexture":{"index":1},"baseColorFactor":[1,1,1,1],"metallicFactor":0,"roughnessFactor":0.99},"emissiveFactor":[0,0,0],"alphaMode":"OPAQUE","doubleSided":false},{"name":"mat3","pbrMetallicRoughness":{"baseColorTexture":{"index":1},"baseColorFactor":[1,1,1,1],"metallicFactor":0,"roughnessFactor":0.99},"emissiveFactor":[0,0,0],"alphaMode":"OPAQUE","doubleSided":false}],"meshes":[{"name":"polygon0_1","primitives":[{"attributes":{"POSITION":0,"NORMAL":1,"TEXCOORD_0":2},"indices":3,"material":0,"mode":4}]},{"name":"polygon1_1","primitives":[{"attributes":{"POSITION":4,"NORMAL":5,"TEXCOORD_0":6},"indices":7,"material":1,"mode":4}]},{"name":"polygon2_1","primitives":[{"attributes":{"POSITION":8,"NORMAL":9,"TEXCOORD_0":10},"indices":11,"material":2,"mode":4}]}],"nodes":[{"name":"polygon0","mesh":0},{"name":"polygon1","mesh":1},{"name":"polygon2","mesh":2}],"samplers":[{"wrapS":10497,"wrapT":10497}],"scene":0,"scenes":[{"nodes":[0,1,2]}],"textures":[{"name":"FukamaruEyeDh","sampler":0,"source":0},{"name":"FukamaruDh","sampler":0,"source":1}]}