{"accessors":[{"name":"gabite-Mesh_0_positions","componentType":5126,"count":1883,"min":[-12.145118713378906,-8.696106910705566,-13.997625350952148],"max":[12.145118713378906,5.521894931793213,-0.009971000254154205],"type":"VEC3","bufferView":0,"byteOffset":0},{"name":"gabite-Mesh_0_texcoords","componentType":5126,"count":1883,"min":[0,0.004912000149488449],"max":[0.9313340187072754,0.9885129928588867],"type":"VEC2","bufferView":1,"byteOffset":0},{"name":"gabite-Mesh_0_indices","componentType":5123,"count":8118,"min":[0],"max":[1882],"type":"SCALAR","bufferView":2,"byteOffset":0},{"name":"gabite-Mesh_1_positions","componentType":5126,"count":32,"min":[-1.8725240230560303,2.0980770587921143,-12.883482933044434],"max":[1.8725240230560303,4.9640398025512695,-11.503946304321289],"type":"VEC3","bufferView":0,"byteOffset":22596},{"name":"gabite-Mesh_1_texcoords","componentType":5126,"count":32,"min":[0.8054609894752502,0.005750999785959721],"max":[0.9598749876022339,0.09179700165987015],"type":"VEC2","bufferView":1,"byteOffset":15064},{"name":"gabite-Mesh_1_indices","componentType":5123,"count":108,"min":[0],"max":[31],"type":"SCALAR","bufferView":2,"byteOffset":16236}],"asset":{"generator":"obj2gltf","version":"2.0"},"buffers":[{"name":"BR_Gabite-Shiny01","byteLength":1103348,"uri":"data:application/octet-stream;base64,"}],"bufferViews":[{"name":"bufferView_0","buffer":0,"byteLength":22980,"byteOffset":0,"byteStride":12,"target":34962},{"name":"bufferView_1","buffer":0,"byteLength":15320,"byteOffset":22980,"byteStride":8,"target":34962},{"name":"bufferView_2","buffer":0,"byteLength":16452,"byteOffset":38300,"target":34963},{"buffer":0,"byteOffset":54752,"byteLength":1048594}],"images":[{"name":"gabite_1_0","mimeType":"image/x-tga","bufferView":3}],"materials":[{"name":"mat_0","pbrMetallicRoughness":{"baseColorTexture":{"index":0},"baseColorFactor":[1,1,1,1],"metallicFactor":0,"roughnessFactor":0.903921569},"emissiveFactor":[0,0,0],"alphaMode":"BLEND","doubleSided":true},{"name":"mat_1","pbrMetallicRoughness":{"baseColorTexture":{"index":0},"baseColorFactor":[1,1,1,1],"metallicFactor":0,"roughnessFactor":0.903921569},"emissiveFactor":[0,0,0],"alphaMode":"BLEND","doubleSided":true}],"meshes":[{"name":"gabite-Mesh","primitives":[{"attributes":{"POSITION":0,"TEXCOORD_0":1},"indices":2,"material":0,"mode":4},{"attributes":{"POSITION":3,"TEXCOORD_0":4},"indices":5,"material":1,"mode":4}]}],"nodes":[{"name":"gabite","mesh":0}],"samplers":[{"wrapS":10497,"wrapT":10497}],"scene":0,"scenes":[{"nodes":[0]}],"textures":[{"name":"gabite_1_0","sampler":0,"source":0}]}