{"accessors":[{"name":"polygon0_1_0_positions","componentType":5126,"count":10,"min":[-1.4855949878692627,16.871437072753906,5.356770038604736],"max":[1.4855949878692627,17.444862365722656,6.832843780517578],"type":"VEC3","bufferView":0,"byteOffset":0},{"name":"polygon0_1_0_normals","componentType":5126,"count":10,"min":[-0.827896237373352,-0.7671289443969727,-0.1094389483332634],"max":[0.827896237373352,-0.3978191018104553,0.3953831195831299],"type":"VEC3","bufferView":1,"byteOffset":0},{"name":"polygon0_1_0_texcoords","componentType":5126,"count":10,"min":[0.015625,0.019531000405550003],"max":[0.4804689884185791,0.2382809966802597],"type":"VEC2","bufferView":2,"byteOffset":0},{"name":"polygon0_1_0_indices","componentType":5123,"count":18,"min":[0],"max":[9],"type":"SCALAR","bufferView":3,"byteOffset":0},{"name":"polygon1_1_0_positions","componentType":5126,"count":1150,"min":[-14.458237648010254,-1.808197021484375,-12.586250305175781],"max":[14.458236694335938,18.77166175842285,8.321011543273926],"type":"VEC3","bufferView":0,"byteOffset":120},{"name":"polygon1_1_0_normals","componentType":5126,"count":1150,"min":[-0.9970969557762146,-0.999980092048645,-1],"max":[0.9970969557762146,0.9998104572296143,1],"type":"VEC3","bufferView":1,"byteOffset":120},{"name":"polygon1_1_0_texcoords","componentType":5126,"count":1150,"min":[0.009308000095188618,0.012877999804913998],"max":[0.9949650168418884,0.9879149794578552],"type":"VEC2","bufferView":2,"byteOffset":80},{"name":"polygon1_1_0_indices","componentType":5123,"count":4686,"min":[0],"max":[1149],"type":"SCALAR","bufferView":3,"byteOffset":36}],"asset":{"generator":"obj2gltf","version":"2.0"},"buffers":[{"name":"Garchomp","byteLength":341476,"uri":"data:application/octet-stream;base64,"}],"bufferViews":[{"name":"bufferView_0","buffer":0,"byteLength":13920,"byteOffset":0,"byteStride":12,"target":34962},{"name":"bufferView_1","buffer":0,"byteLength":13920,"byteOffset":13920,"byteStride":12,"target":34962},{"name":"bufferView_2","buffer":0,"byteLength":9280,"byteOffset":27840,"byteStride":8,"target":34962},{"name":"bufferView_3","buffer":0,"byteLength":9408,"byteOffset":37120,"target":34963},{"buffer":0,"byteOffset":46528,"byteLength":98322},{"buffer":0,"byteOffset":144850,"byteLength":196626}],"images":[{"name":"GaburiasEyeDh","mimeType":"image/x-tga","bufferView":4},{"name":"GaburiasDh","mimeType":"image/x-tga","bufferView":5}],"materials":[{"name":"mat2","pbrMetallicRoughness":{"baseColorTexture":{"index":0},"baseColorFactor":[1,1,1,1],"metallicFactor":0,"roughnessFactor":0.99},"emissiveFactor":[0,0,0],"alphaMode":"OPAQUE","doubleSided":false},{"name":"mat1","pbrMetallicRoughness":{"baseColorTexture":{"index":1},"baseColorFactor":[1,1,1,1],"metallicFactor":0,"roughnessFactor":0.99},"emissiveFactor":[0,0,0],"alphaMode":"OPAQUE","doubleSided":false}],"meshes":[{"name":"polygon0_1","primitives":[{"attributes":{"POSITION":0,"NORMAL":1,"TEXCOORD_0":2},"indices":3,"material":0,"mode":4}]},{"name":"polygon1_1","primitives":[{"attributes":{"POSITION":4,"NORMAL":5,"TEXCOORD_0":6},"indices":7,"material":1,"mode":4}]}],"nodes":[{"name":"polygon0","mesh":0},{"name":"polygon1","mesh":1}],"samplers":[{"wrapS":10497,"wrapT":10497}],"scene":0,"scenes":[{"nodes":[0,1]}],"textures":[{"name":"GaburiasEyeDh","sampler":0,"source":0},{"name":"GaburiasDh","sampler":0,"source":1}]}