{"accessors":[{"name":"polygon0_1_0_positions","componentType":5126,"count":56,"min":[-0.45869898796081543,1.7876670360565186,-0.5332149863243103],"max":[0.5299370288848877,2.985285997390747,0.45828598737716675],"type":"VEC3","bufferView":0,"byteOffset":0},{"name":"polygon0_1_0_normals","componentType":5126,"count":56,"min":[-0.9864234328269958,-0.9901308417320251,-0.9979104399681091],"max":[0.9960227012634277,0.989764392375946,0.990446925163269],"type":"VEC3","bufferView":1,"byteOffset":0},{"name":"polygon0_1_0_texcoords","componentType":5126,"count":56,"min":[0.03903200104832649,0.05374100059270859],"max":[0.9675599932670593,0.9442139863967896],"type":"VEC2","bufferView":2,"byteOffset":0},{"name":"polygon0_1_0_indices","componentType":5123,"count":288,"min":[0],"max":[55],"type":"SCALAR","bufferView":3,"byteOffset":0},{"name":"polygon1_1_0_positions","componentType":5126,"count":52,"min":[-1.173704981803894,0.0007110000005923212,-1.1741399765014648],"max":[1.174070954322815,1.26944100856781,1.1736359596252441],"type":"VEC3","bufferView":0,"byteOffset":672},{"name":"polygon1_1_0_normals","componentType":5126,"count":52,"min":[-0.9719588756561279,-1,-0.9719588756561279],"max":[0.9719588756561279,-0.23242498934268951,0.9719588756561279],"type":"VEC3","bufferView":1,"byteOffset":672},{"name":"polygon1_1_0_texcoords","componentType":5126,"count":52,"min":[0.07415799796581268,0.38510099053382874],"max":[0.9065250158309937,0.9534609913825989],"type":"VEC2","bufferView":2,"byteOffset":448},{"name":"polygon1_1_0_indices","componentType":5123,"count":240,"min":[0],"max":[51],"type":"SCALAR","bufferView":3,"byteOffset":576},{"name":"polygon2_1_0_positions","componentType":5126,"count":189,"min":[-1.3062000274658203,0.34899601340293884,-1.2308499813079834],"max":[1.3038489818572998,2.0348060131073,1.2411160469055176],"type":"VEC3","bufferView":0,"byteOffset":1296},{"name":"polygon2_1_0_normals","componentType":5126,"count":189,"min":[-0.9926473498344421,-0.9925369024276733,-0.9930518865585327],"max":[0.9931129813194275,0.9975471496582031,0.9808260798454285],"type":"VEC3","bufferView":1,"byteOffset":1296},{"name":"polygon2_1_0_texcoords","componentType":5126,"count":189,"min":[0.09280399978160858,0.03918499872088432],"max":[0.9062190055847168,0.9731450080871582],"type":"VEC2","bufferView":2,"byteOffset":864},{"name":"polygon2_1_0_indices","componentType":5123,"count":783,"min":[0],"max":[188],"type":"SCALAR","bufferView":3,"byteOffset":1056},{"name":"polygon3_1_0_positions","componentType":5126,"count":12,"min":[-0.7852669954299927,3.3697030544281006,1.5555609464645386],"max":[0.7852669954299927,4.010790824890137,1.830625057220459],"type":"VEC3","bufferView":0,"byteOffset":3564},{"name":"polygon3_1_0_normals","componentType":5126,"count":12,"min":[-0.33367687463760376,0.06512302905321121,0.8391621112823486],"max":[0.33367687463760376,0.4565500319004059,0.9712314009666443],"type":"VEC3","bufferView":1,"byteOffset":3564},{"name":"polygon3_1_0_texcoords","componentType":5126,"count":12,"min":[-0.9658809900283813,0.004027999937534332],"max":[-0.5349119901657104,0.24591100215911865],"type":"VEC2","bufferView":2,"byteOffset":2376},{"name":"polygon3_1_0_indices","componentType":5123,"count":24,"min":[0],"max":[11],"type":"SCALAR","bufferView":3,"byteOffset":2624},{"name":"polygon4_1_0_positions","componentType":5126,"count":901,"min":[-3.094712018966675,-0.06247200071811676,-1.948891043663025],"max":[3.094712018966675,6.067677974700928,2.961724042892456],"type":"VEC3","bufferView":0,"byteOffset":3708},{"name":"polygon4_1_0_normals","componentType":5126,"count":901,"min":[-0.9932645559310913,-0.9999717473983765,-0.9998019933700562],"max":[0.9934719800949097,0.9995617866516113,0.999797523021698],"type":"VEC3","bufferView":1,"byteOffset":3708},{"name":"polygon4_1_0_texcoords","componentType":5126,"count":901,"min":[0.01049800030887127,0.00973500031977892],"max":[0.9923400282859802,0.9932860136032104],"type":"VEC2","bufferView":2,"byteOffset":2472},{"name":"polygon4_1_0_indices","componentType":5123,"count":4068,"min":[0],"max":[900],"type":"SCALAR","bufferView":3,"byteOffset":2672},{"name":"polygon5_1_0_positions","componentType":5126,"count":93,"min":[-1.353266954421997,3.1246540546417236,0.33891400694847107],"max":[1.353266954421997,3.4403810501098633,1.9007580280303955],"type":"VEC3","bufferView":0,"byteOffset":14520},{"name":"polygon5_1_0_normals","componentType":5126,"count":93,"min":[-0.8384436368942261,-0.9989486932754517,-0.8170953392982483],"max":[0.8384436368942261,0.9991839528083801,0.6623232364654541],"type":"VEC3","bufferView":1,"byteOffset":14520},{"name":"polygon5_1_0_texcoords","componentType":5126,"count":93,"min":[0.013855000026524067,0.012817000038921833],"max":[0.9903870224952698,0.4636229872703552],"type":"VEC2","bufferView":2,"byteOffset":9680},{"name":"polygon5_1_0_indices","componentType":5123,"count":306,"min":[0],"max":[92],"type":"SCALAR","bufferView":3,"byteOffset":10808}],"asset":{"generator":"obj2gltf","version":"2.0"},"buffers":[{"name":"P2_MunchlaxWP","byteLength":53116,"uri":"data:application/octet-stream;base64,"}],"bufferViews":[{"name":"bufferView_0","buffer":0,"byteLength":15636,"byteOffset":0,"byteStride":12,"target":34962},{"name":"bufferView_1","buffer":0,"byteLength":15636,"byteOffset":15636,"byteStride":12,"target":34962},{"name":"bufferView_2","buffer":0,"byteLength":10424,"byteOffset":31272,"byteStride":8,"target":34962},{"name":"bufferView_3","buffer":0,"byteLength":11420,"byteOffset":41696,"target":34963}],"materials":[{"name":"mat1","pbrMetallicRoughness":{"baseColorFactor":[0.5,0.5,0.5,1],"metallicFactor":0,"roughnessFactor":1},"emissiveFactor":[0,0,0],"alphaMode":"OPAQUE","doubleSided":false},{"name":"mat3","pbrMetallicRoughness":{"baseColorFactor":[0.5,0.5,0.5,1],"metallicFactor":0,"roughnessFactor":1},"emissiveFactor":[0,0,0],"alphaMode":"OPAQUE","doubleSided":false},{"name":"mat2","pbrMetallicRoughness":{"baseColorFactor":[0.5,0.5,0.5,1],"metallicFactor":0,"roughnessFactor":1},"emissiveFactor":[0,0,0],"alphaMode":"OPAQUE","doubleSided":false},{"name":"mat5","pbrMetallicRoughness":{"baseColorFactor":[0.5,0.5,0.5,1],"metallicFactor":0,"roughnessFactor":1},"emissiveFactor":[0,0,0],"alphaMode":"OPAQUE","doubleSided":false},{"name":"mat4","pbrMetallicRoughness":{"baseColorFactor":[0.5,0.5,0.5,1],"metallicFactor":0,"roughnessFactor":1},"emissiveFactor":[0,0,0],"alphaMode":"OPAQUE","doubleSided":false},{"name":"mat6","pbrMetallicRoughness":{"baseColorFactor":[0.5,0.5,0.5,1],"metallicFactor":0,"roughnessFactor":1},"emissiveFactor":[0,0,0],"alphaMode":"OPAQUE","doubleSided":false}],"meshes":[{"name":"polygon0_1","primitives":[{"attributes":{"POSITION":0,"NORMAL":1,"TEXCOORD_0":2},"indices":3,"material":0,"mode":4}]},{"name":"polygon1_1","primitives":[{"attributes":{"POSITION":4,"NORMAL":5,"TEXCOORD_0":6},"indices":7,"material":1,"mode":4}]},{"name":"polygon2_1","primitives":[{"attributes":{"POSITION":8,"NORMAL":9,"TEXCOORD_0":10},"indices":11,"material":2,"mode":4}]},{"name":"polygon3_1","primitives":[{"attributes":{"POSITION":12,"NORMAL":13,"TEXCOORD_0":14},"indices":15,"material":3,"mode":4}]},{"name":"polygon4_1","primitives":[{"attributes":{"POSITION":16,"NORMAL":17,"TEXCOORD_0":18},"indices":19,"material":4,"mode":4}]},{"name":"polygon5_1","primitives":[{"attributes":{"POSITION":20,"NORMAL":21,"TEXCOORD_0":22},"indices":23,"material":5,"mode":4}]}],"nodes":[{"name":"polygon0","mesh":0},{"name":"polygon1","mesh":1},{"name":"polygon2","mesh":2},{"name":"polygon3","mesh":3},{"name":"polygon4","mesh":4},{"name":"polygon5","mesh":5}],"scene":0,"scenes":[{"nodes":[0,1,2,3,4,5]}]}