{"accessors":[{"name":"Riolu_1_0_positions","componentType":5126,"count":15342,"min":[-31.72010040283203,-0.24988900125026703,-35.08639907836914],"max":[31.72010040283203,69.11380004882812,16.30409812927246],"type":"VEC3","bufferView":0,"byteOffset":0},{"name":"Riolu_1_0_normals","componentType":5126,"count":15342,"min":[-0.9989992380142212,-0.999808669090271,-0.9986582398414612],"max":[0.9993767738342285,0.9995539784431458,0.9986581802368164],"type":"VEC3","bufferView":1,"byteOffset":0},{"name":"Riolu_1_0_texcoords","componentType":5126,"count":15342,"min":[0.005859000142663717,0.0078119998797774315],"max":[0.9941409826278687,0.991569995880127],"type":"VEC2","bufferView":2,"byteOffset":0},{"name":"Riolu_1_0_indices","componentType":5123,"count":15342,"min":[0],"max":[15341],"type":"SCALAR","bufferView":3,"byteOffset":0},{"name":"Riolu_1_1_positions","componentType":5126,"count":360,"min":[-9.62209415435791,47.6745719909668,6.236185073852539],"max":[9.622026443481445,58.97550582885742,14.421096801757812],"type":"VEC3","bufferView":0,"byteOffset":184104},{"name":"Riolu_1_1_normals","componentType":5126,"count":360,"min":[-0.9722630977630615,-0.9990692138671875,-0.973473846912384],"max":[0.9993767738342285,0.9989497661590576,0.9896398782730103],"type":"VEC3","bufferView":1,"byteOffset":184104},{"name":"Riolu_1_1_texcoords","componentType":5126,"count":360,"min":[0.007813000120222569,-0.9921900033950806],"max":[0.49219000339508057,-0.7698000073432922],"type":"VEC2","bufferView":2,"byteOffset":122736},{"name":"Riolu_1_1_indices","componentType":5123,"count":360,"min":[0],"max":[359],"type":"SCALAR","bufferView":3,"byteOffset":30684},{"name":"Riolu_1_2_positions","componentType":5126,"count":72,"min":[-3.279829978942871,42.475502014160156,3.757859945297241],"max":[3.279829978942871,44.394813537597656,10.730097770690918],"type":"VEC3","bufferView":0,"byteOffset":188424},{"name":"Riolu_1_2_normals","componentType":5126,"count":72,"min":[-0.3780379891395569,0.035298991948366165,-0.9360315799713135],"max":[0.9993767738342285,0.9986892938613892,0.9085276126861572],"type":"VEC3","bufferView":1,"byteOffset":188424},{"name":"Riolu_1_2_texcoords","componentType":5126,"count":72,"min":[0.14175599813461304,-1.9921900033950806],"max":[0.358240008354187,-1.7578099966049194],"type":"VEC2","bufferView":2,"byteOffset":125616},{"name":"Riolu_1_2_indices","componentType":5123,"count":72,"min":[0],"max":[71],"type":"SCALAR","bufferView":3,"byteOffset":31404},{"name":"Riolu_1_3_positions","componentType":5126,"count":360,"min":[-9.699463844299316,47.65217208862305,6.296976089477539],"max":[9.699397087097168,58.99490737915039,14.476899147033691],"type":"VEC3","bufferView":0,"byteOffset":189288},{"name":"Riolu_1_3_normals","componentType":5126,"count":360,"min":[0.010494999587535858,0.0000019999990854557836,-0.9970565438270569],"max":[0.16584497690200806,0.9986242055892944,0.9939097762107849],"type":"VEC3","bufferView":1,"byteOffset":189288},{"name":"Riolu_1_3_texcoords","componentType":5126,"count":360,"min":[0.03123999945819378,-1.9687600135803223],"max":[1,-1.079200029373169],"type":"VEC2","bufferView":2,"byteOffset":126192},{"name":"Riolu_1_3_indices","componentType":5123,"count":360,"min":[0],"max":[359],"type":"SCALAR","bufferView":3,"byteOffset":31548}],"asset":{"generator":"obj2gltf","version":"2.0"},"buffers":[{"name":"XY_Riolu","byteLength":644820,"uri":"data:application/octet-stream;base64,"}],"bufferViews":[{"name":"bufferView_0","buffer":0,"byteLength":193608,"byteOffset":0,"byteStride":12,"target":34962},{"name":"bufferView_1","buffer":0,"byteLength":193608,"byteOffset":193608,"byteStride":12,"target":34962},{"name":"bufferView_2","buffer":0,"byteLength":129072,"byteOffset":387216,"byteStride":8,"target":34962},{"name":"bufferView_3","buffer":0,"byteLength":32268,"byteOffset":516288,"target":34963},{"buffer":0,"byteOffset":548556,"byteLength":43185},{"buffer":0,"byteOffset":591741,"byteLength":35321},{"buffer":0,"byteOffset":627062,"byteLength":15334},{"buffer":0,"byteOffset":642396,"byteLength":2424}],"images":[{"name":"pm0447_00_Body1","mimeType":"image/png","bufferView":4},{"name":"pm0447_00_Eye1","mimeType":"image/png","bufferView":5},{"name":"pm0447_00_Mouth1","mimeType":"image/png","bufferView":6},{"name":"pm0447_00_Iris1","mimeType":"image/png","bufferView":7}],"materials":[{"name":"Material__164","pbrMetallicRoughness":{"baseColorTexture":{"index":0},"baseColorFactor":[1,1,1,1],"metallicFactor":0,"roughnessFactor":0.998},"emissiveFactor":[0,0,0],"alphaMode":"OPAQUE","doubleSided":false},{"name":"Material__165","pbrMetallicRoughness":{"baseColorTexture":{"index":1},"baseColorFactor":[1,1,1,1],"metallicFactor":0,"roughnessFactor":0.998},"emissiveFactor":[0,0,0],"alphaMode":"OPAQUE","doubleSided":false},{"name":"Material__166","pbrMetallicRoughness":{"baseColorTexture":{"index":2},"baseColorFactor":[1,1,1,1],"metallicFactor":0,"roughnessFactor":0.998},"emissiveFactor":[0,0,0],"alphaMode":"OPAQUE","doubleSided":false},{"name":"Material__167","pbrMetallicRoughness":{"baseColorTexture":{"index":3},"baseColorFactor":[1,1,1,1],"metallicFactor":0,"roughnessFactor":0.998},"emissiveFactor":[0,0,0],"alphaMode":"OPAQUE","doubleSided":false}],"meshes":[{"name":"Riolu_1","primitives":[{"attributes":{"POSITION":0,"NORMAL":1,"TEXCOORD_0":2},"indices":3,"material":0,"mode":4},{"attributes":{"POSITION":4,"NORMAL":5,"TEXCOORD_0":6},"indices":7,"material":1,"mode":4},{"attributes":{"POSITION":8,"NORMAL":9,"TEXCOORD_0":10},"indices":11,"material":2,"mode":4},{"attributes":{"POSITION":12,"NORMAL":13,"TEXCOORD_0":14},"indices":15,"material":3,"mode":4}]}],"nodes":[{"name":"Riolu","mesh":0}],"samplers":[{"wrapS":10497,"wrapT":10497}],"scene":0,"scenes":[{"nodes":[0]}],"textures":[{"name":"pm0447_00_Body1","sampler":0,"source":0},{"name":"pm0447_00_Eye1","sampler":0,"source":1},{"name":"pm0447_00_Mouth1","sampler":0,"source":2},{"name":"pm0447_00_Iris1","sampler":0,"source":3}]}