{"accessors":[{"name":"polygon0_1_0_positions","componentType":5126,"count":13,"min":[-0.630204975605011,4.3711628913879395,0.697583019733429],"max":[0.630204975605011,4.65077018737793,1.562885046005249],"type":"VEC3","bufferView":0,"byteOffset":0},{"name":"polygon0_1_0_normals","componentType":5126,"count":13,"min":[-0.650711178779602,-0.984617292881012,0.1491280347108841],"max":[0.6507259607315063,-0.6502621173858643,0.49494609236717224],"type":"VEC3","bufferView":1,"byteOffset":0},{"name":"polygon0_1_0_texcoords","componentType":5126,"count":13,"min":[0.10781899839639664,0.011505000293254852],"max":[0.9367979764938354,0.24295000731945038],"type":"VEC2","bufferView":2,"byteOffset":0},{"name":"polygon0_1_0_indices","componentType":5123,"count":42,"min":[0],"max":[12],"type":"SCALAR","bufferView":3,"byteOffset":0},{"name":"polygon1_1_0_positions","componentType":5126,"count":907,"min":[-3.0233569145202637,-9.999999974752427e-7,-3.2827770709991455],"max":[3.0233569145202637,6.983712196350098,1.9264219999313354],"type":"VEC3","bufferView":0,"byteOffset":156},{"name":"polygon1_1_0_normals","componentType":5126,"count":907,"min":[-0.9999808073043823,-1,-0.9996983408927917],"max":[0.9999808073043823,0.999976634979248,0.9999999403953552],"type":"VEC3","bufferView":1,"byteOffset":156},{"name":"polygon1_1_0_texcoords","componentType":5126,"count":907,"min":[0.006957999896258116,0.0030519999563694],"max":[0.9973139762878418,0.9958800077438354],"type":"VEC2","bufferView":2,"byteOffset":104},{"name":"polygon1_1_0_indices","componentType":5123,"count":4398,"min":[0],"max":[906],"type":"SCALAR","bufferView":3,"byteOffset":84},{"name":"polygon2_1_0_positions","componentType":5126,"count":18,"min":[-1.002953052520752,4.892232894897461,0.7060120105743408],"max":[1.002951979637146,6.0843400955200195,1.5326590538024902],"type":"VEC3","bufferView":0,"byteOffset":11040},{"name":"polygon2_1_0_normals","componentType":5126,"count":18,"min":[-0.9156751036643982,-0.2153659611940384,0.339358925819397],"max":[0.9156708121299744,0.31233713030815125,0.883569061756134],"type":"VEC3","bufferView":1,"byteOffset":11040},{"name":"polygon2_1_0_texcoords","componentType":5126,"count":18,"min":[0.0703129991889,0.0039059999398887157],"max":[0.4414060115814209,0.2226559966802597],"type":"VEC2","bufferView":2,"byteOffset":7360},{"name":"polygon2_1_0_indices","componentType":5123,"count":48,"min":[0],"max":[17],"type":"SCALAR","bufferView":3,"byteOffset":8880}],"asset":{"generator":"obj2gltf","version":"2.0"},"buffers":[{"name":"Riolu","byteLength":383112,"uri":"data:application/octet-stream;base64,"}],"bufferViews":[{"name":"bufferView_0","buffer":0,"byteLength":11256,"byteOffset":0,"byteStride":12,"target":34962},{"name":"bufferView_1","buffer":0,"byteLength":11256,"byteOffset":11256,"byteStride":12,"target":34962},{"name":"bufferView_2","buffer":0,"byteLength":7504,"byteOffset":22512,"byteStride":8,"target":34962},{"name":"bufferView_3","buffer":0,"byteLength":8976,"byteOffset":30016,"target":34963},{"buffer":0,"byteOffset":38992,"byteLength":49170},{"buffer":0,"byteOffset":88162,"byteLength":196626},{"buffer":0,"byteOffset":284788,"byteLength":98322}],"images":[{"name":"RioluMouseDh","mimeType":"image/x-tga","bufferView":4},{"name":"RioluDh","mimeType":"image/x-tga","bufferView":5},{"name":"RioluEyeDh","mimeType":"image/x-tga","bufferView":6}],"materials":[{"name":"mat3","pbrMetallicRoughness":{"baseColorTexture":{"index":0},"baseColorFactor":[1,1,1,1],"metallicFactor":0,"roughnessFactor":0.99},"emissiveFactor":[0,0,0],"alphaMode":"OPAQUE","doubleSided":false},{"name":"mat1","pbrMetallicRoughness":{"baseColorTexture":{"index":1},"baseColorFactor":[1,1,1,1],"metallicFactor":0,"roughnessFactor":0.99},"emissiveFactor":[0,0,0],"alphaMode":"OPAQUE","doubleSided":false},{"name":"mat2","pbrMetallicRoughness":{"baseColorTexture":{"index":2},"baseColorFactor":[1,1,1,1],"metallicFactor":0,"roughnessFactor":0.99},"emissiveFactor":[0,0,0],"alphaMode":"OPAQUE","doubleSided":false}],"meshes":[{"name":"polygon0_1","primitives":[{"attributes":{"POSITION":0,"NORMAL":1,"TEXCOORD_0":2},"indices":3,"material":0,"mode":4}]},{"name":"polygon1_1","primitives":[{"attributes":{"POSITION":4,"NORMAL":5,"TEXCOORD_0":6},"indices":7,"material":1,"mode":4}]},{"name":"polygon2_1","primitives":[{"attributes":{"POSITION":8,"NORMAL":9,"TEXCOORD_0":10},"indices":11,"material":2,"mode":4}]}],"nodes":[{"name":"polygon0","mesh":0},{"name":"polygon1","mesh":1},{"name":"polygon2","mesh":2}],"samplers":[{"wrapS":10497,"wrapT":10497}],"scene":0,"scenes":[{"nodes":[0,1,2]}],"textures":[{"name":"RioluMouseDh","sampler":0,"source":0},{"name":"RioluDh","sampler":0,"source":1},{"name":"RioluEyeDh","sampler":0,"source":2}]}