{"accessors":[{"name":"Lucario_1_0_positions","componentType":5126,"count":12876,"min":[-53.59939956665039,-0.45685499906539917,-77.22470092773438],"max":[53.599403381347656,90.35881042480469,14.374201774597168],"type":"VEC3","bufferView":0,"byteOffset":0},{"name":"Lucario_1_0_normals","componentType":5126,"count":12876,"min":[-0.9988483786582947,-0.9999628663063049,-0.9998937249183655],"max":[0.998848557472229,0.9999979138374329,0.9998855590820312],"type":"VEC3","bufferView":1,"byteOffset":0},{"name":"Lucario_1_0_texcoords","componentType":5126,"count":12876,"min":[0.005859000142663717,0.007807000074535608],"max":[0.9941409826278687,0.9921870231628418],"type":"VEC2","bufferView":2,"byteOffset":0},{"name":"Lucario_1_0_indices","componentType":5123,"count":12876,"min":[0],"max":[12875],"type":"SCALAR","bufferView":3,"byteOffset":0},{"name":"Lucario_1_1_positions","componentType":5126,"count":8334,"min":[-44.73179244995117,75.68965148925781,-38.405399322509766],"max":[44.73179626464844,127.22000122070312,20.840900421142578],"type":"VEC3","bufferView":0,"byteOffset":154512},{"name":"Lucario_1_1_normals","componentType":5126,"count":8334,"min":[-0.9994214177131653,-0.9999629259109497,-0.9998937249183655],"max":[0.9985387325286865,0.999920666217804,0.9998855590820312],"type":"VEC3","bufferView":1,"byteOffset":154512},{"name":"Lucario_1_1_texcoords","componentType":5126,"count":8334,"min":[0,-0.9921900033950806],"max":[1,-0.028189999982714653],"type":"VEC2","bufferView":2,"byteOffset":103008},{"name":"Lucario_1_1_indices","componentType":5123,"count":8334,"min":[0],"max":[8333],"type":"SCALAR","bufferView":3,"byteOffset":25752},{"name":"Lucario_1_2_positions","componentType":5126,"count":324,"min":[-9.769268035888672,92.25666046142578,7.170354843139648],"max":[9.76921272277832,104.01798248291016,16.123104095458984],"type":"VEC3","bufferView":0,"byteOffset":254520},{"name":"Lucario_1_2_normals","componentType":5126,"count":324,"min":[-0.9959852695465088,-0.9998869895935059,-0.988186776638031],"max":[0.9959853291511536,0.006316999439150095,0.996833086013794],"type":"VEC3","bufferView":1,"byteOffset":254520},{"name":"Lucario_1_2_texcoords","componentType":5126,"count":324,"min":[0.0078119998797774315,-1.9882800579071045],"max":[0.49219000339508057,-1.7627099752426147],"type":"VEC2","bufferView":2,"byteOffset":169680},{"name":"Lucario_1_2_indices","componentType":5123,"count":324,"min":[0],"max":[323],"type":"SCALAR","bufferView":3,"byteOffset":42420}],"asset":{"generator":"obj2gltf","version":"2.0"},"buffers":[{"name":"XY_Lucario","byteLength":865080,"uri":"data:application/octet-stream;base64,"}],"bufferViews":[{"name":"bufferView_0","buffer":0,"byteLength":258408,"byteOffset":0,"byteStride":12,"target":34962},{"name":"bufferView_1","buffer":0,"byteLength":258408,"byteOffset":258408,"byteStride":12,"target":34962},{"name":"bufferView_2","buffer":0,"byteLength":172272,"byteOffset":516816,"byteStride":8,"target":34962},{"name":"bufferView_3","buffer":0,"byteLength":43068,"byteOffset":689088,"target":34963},{"buffer":0,"byteOffset":732156,"byteLength":61298},{"buffer":0,"byteOffset":793454,"byteLength":37569},{"buffer":0,"byteOffset":831023,"byteLength":34055}],"images":[{"name":"pm0448_00_BodyA1","mimeType":"image/png","bufferView":4},{"name":"pm0448_00_BodyB1","mimeType":"image/png","bufferView":5},{"name":"pm0448_00_Eye1","mimeType":"image/png","bufferView":6}],"materials":[{"name":"Material__178","pbrMetallicRoughness":{"baseColorTexture":{"index":0},"baseColorFactor":[1,1,1,1],"metallicFactor":0,"roughnessFactor":0.998},"emissiveFactor":[0,0,0],"alphaMode":"OPAQUE","doubleSided":false},{"name":"Material__179","pbrMetallicRoughness":{"baseColorTexture":{"index":1},"baseColorFactor":[1,1,1,1],"metallicFactor":0,"roughnessFactor":0.998},"emissiveFactor":[0,0,0],"alphaMode":"OPAQUE","doubleSided":false},{"name":"Material__180","pbrMetallicRoughness":{"baseColorTexture":{"index":2},"baseColorFactor":[1,1,1,1],"metallicFactor":0,"roughnessFactor":0.998},"emissiveFactor":[0,0,0],"alphaMode":"OPAQUE","doubleSided":false}],"meshes":[{"name":"Lucario_1","primitives":[{"attributes":{"POSITION":0,"NORMAL":1,"TEXCOORD_0":2},"indices":3,"material":0,"mode":4},{"attributes":{"POSITION":4,"NORMAL":5,"TEXCOORD_0":6},"indices":7,"material":1,"mode":4},{"attributes":{"POSITION":8,"NORMAL":9,"TEXCOORD_0":10},"indices":11,"material":2,"mode":4}]}],"nodes":[{"name":"Lucario","mesh":0}],"samplers":[{"wrapS":10497,"wrapT":10497}],"scene":0,"scenes":[{"nodes":[0]}],"textures":[{"name":"pm0448_00_BodyA1","sampler":0,"source":0},{"name":"pm0448_00_BodyB1","sampler":0,"source":1},{"name":"pm0448_00_Eye1","sampler":0,"source":2}]}