{"accessors":[{"name":"polygon0_1_0_positions","componentType":5126,"count":1251,"min":[-5.2744951248168945,-0.009162000380456448,-7.878036022186279],"max":[5.2744951248168945,12.756277084350586,2.025784969329834],"type":"VEC3","bufferView":0,"byteOffset":0},{"name":"polygon0_1_0_normals","componentType":5126,"count":1251,"min":[-0.9999865889549255,-0.9999685287475586,-0.9999620318412781],"max":[0.9999865889549255,0.9999465346336365,1],"type":"VEC3","bufferView":1,"byteOffset":0},{"name":"polygon0_1_0_texcoords","componentType":5126,"count":1251,"min":[0.002440999960526824,0.002959999954327941],"max":[0.9983519911766052,0.9979249835014343],"type":"VEC2","bufferView":2,"byteOffset":0},{"name":"polygon0_1_0_indices","componentType":5123,"count":5580,"min":[0],"max":[1250],"type":"SCALAR","bufferView":3,"byteOffset":0},{"name":"polygon1_1_0_positions","componentType":5126,"count":30,"min":[-0.874459981918335,9.53669261932373,0.5307090282440186],"max":[0.874459981918335,10.574433326721191,1.2753880023956299],"type":"VEC3","bufferView":0,"byteOffset":15012},{"name":"polygon1_1_0_normals","componentType":5126,"count":30,"min":[-0.9483018517494202,-0.4598160684108734,0.24660003185272217],"max":[0.9483018517494202,0.18009406328201294,0.6959637403488159],"type":"VEC3","bufferView":1,"byteOffset":15012},{"name":"polygon1_1_0_texcoords","componentType":5126,"count":30,"min":[0.011718999594449997,0.0039059999398887157],"max":[0.4960939884185791,0.2460940033197403],"type":"VEC2","bufferView":2,"byteOffset":10008},{"name":"polygon1_1_0_indices","componentType":5123,"count":102,"min":[0],"max":[29],"type":"SCALAR","bufferView":3,"byteOffset":11160}],"asset":{"generator":"obj2gltf","version":"2.0"},"buffers":[{"name":"Lucario","byteLength":347304,"uri":"data:application/octet-stream;base64,"}],"bufferViews":[{"name":"bufferView_0","buffer":0,"byteLength":15372,"byteOffset":0,"byteStride":12,"target":34962},{"name":"bufferView_1","buffer":0,"byteLength":15372,"byteOffset":15372,"byteStride":12,"target":34962},{"name":"bufferView_2","buffer":0,"byteLength":10248,"byteOffset":30744,"byteStride":8,"target":34962},{"name":"bufferView_3","buffer":0,"byteLength":11364,"byteOffset":40992,"target":34963},{"buffer":0,"byteOffset":52356,"byteLength":196626},{"buffer":0,"byteOffset":248982,"byteLength":98322}],"images":[{"name":"LucarioDh","mimeType":"image/x-tga","bufferView":4},{"name":"LucarioEyeDh","mimeType":"image/x-tga","bufferView":5}],"materials":[{"name":"mat1","pbrMetallicRoughness":{"baseColorTexture":{"index":0},"baseColorFactor":[1,1,1,1],"metallicFactor":0,"roughnessFactor":0.99},"emissiveFactor":[0,0,0],"alphaMode":"OPAQUE","doubleSided":false},{"name":"mat2","pbrMetallicRoughness":{"baseColorTexture":{"index":1},"baseColorFactor":[1,1,1,1],"metallicFactor":0,"roughnessFactor":0.99},"emissiveFactor":[0,0,0],"alphaMode":"OPAQUE","doubleSided":false}],"meshes":[{"name":"polygon0_1","primitives":[{"attributes":{"POSITION":0,"NORMAL":1,"TEXCOORD_0":2},"indices":3,"material":0,"mode":4}]},{"name":"polygon1_1","primitives":[{"attributes":{"POSITION":4,"NORMAL":5,"TEXCOORD_0":6},"indices":7,"material":1,"mode":4}]}],"nodes":[{"name":"polygon0","mesh":0},{"name":"polygon1","mesh":1}],"samplers":[{"wrapS":10497,"wrapT":10497}],"scene":0,"scenes":[{"nodes":[0,1]}],"textures":[{"name":"LucarioDh","sampler":0,"source":0},{"name":"LucarioEyeDh","sampler":0,"source":1}]}