{"accessors":[{"name":"hippopotas-Mesh_0_positions","componentType":5126,"count":1884,"min":[-2.6868700981140137,-3.0884690284729004,-7.7154340744018555],"max":[2.6868700981140137,8.724562644958496,-0.000048999998398358],"type":"VEC3","bufferView":0,"byteOffset":0},{"name":"hippopotas-Mesh_0_texcoords","componentType":5126,"count":1884,"min":[0.00966699980199337,0.013806999661028385],"max":[0.7825180292129517,0.9816989898681641],"type":"VEC2","bufferView":1,"byteOffset":0},{"name":"hippopotas-Mesh_0_indices","componentType":5123,"count":8130,"min":[0],"max":[1883],"type":"SCALAR","bufferView":2,"byteOffset":0},{"name":"hippopotas-Mesh_1_positions","componentType":5126,"count":58,"min":[-1.0998879671096802,4.2140350341796875,-7.574365139007568],"max":[1.0998879671096802,4.410823822021484,-5.880650997161865],"type":"VEC3","bufferView":0,"byteOffset":22608},{"name":"hippopotas-Mesh_1_texcoords","componentType":5126,"count":58,"min":[0.8531190156936646,0.046792998909950256],"max":[0.9460570216178894,0.1767749935388565],"type":"VEC2","bufferView":1,"byteOffset":15072},{"name":"hippopotas-Mesh_1_indices","componentType":5123,"count":252,"min":[0],"max":[57],"type":"SCALAR","bufferView":2,"byteOffset":16260}],"asset":{"generator":"obj2gltf","version":"2.0"},"buffers":[{"name":"BR_Hippopotas-Shiny01","byteLength":1104200,"uri":"data:application/octet-stream;base64,"}],"bufferViews":[{"name":"bufferView_0","buffer":0,"byteLength":23304,"byteOffset":0,"byteStride":12,"target":34962},{"name":"bufferView_1","buffer":0,"byteLength":15536,"byteOffset":23304,"byteStride":8,"target":34962},{"name":"bufferView_2","buffer":0,"byteLength":16764,"byteOffset":38840,"target":34963},{"buffer":0,"byteOffset":55604,"byteLength":1048594}],"images":[{"name":"hippopotas_1_0","mimeType":"image/x-tga","bufferView":3}],"materials":[{"name":"mat_0","pbrMetallicRoughness":{"baseColorTexture":{"index":0},"baseColorFactor":[1,1,1,1],"metallicFactor":0,"roughnessFactor":0.903921569},"emissiveFactor":[0,0,0],"alphaMode":"BLEND","doubleSided":true},{"name":"mat_1","pbrMetallicRoughness":{"baseColorTexture":{"index":0},"baseColorFactor":[1,1,1,1],"metallicFactor":0,"roughnessFactor":0.903921569},"emissiveFactor":[0,0,0],"alphaMode":"BLEND","doubleSided":true}],"meshes":[{"name":"hippopotas-Mesh","primitives":[{"attributes":{"POSITION":0,"TEXCOORD_0":1},"indices":2,"material":0,"mode":4},{"attributes":{"POSITION":3,"TEXCOORD_0":4},"indices":5,"material":1,"mode":4}]}],"nodes":[{"name":"hippopotas","mesh":0}],"samplers":[{"wrapS":10497,"wrapT":10497}],"scene":0,"scenes":[{"nodes":[0]}],"textures":[{"name":"hippopotas_1_0","sampler":0,"source":0}]}