{"accessors":[{"name":"kabaldon-Mesh_0_positions","componentType":5126,"count":2017,"min":[-8.021417617797852,-13.929826736450195,-20.074485778808594],"max":[8.021417617797852,20.458511352539062,-0.0014169999631121755],"type":"VEC3","bufferView":0,"byteOffset":0},{"name":"kabaldon-Mesh_0_texcoords","componentType":5126,"count":2017,"min":[0.00775500014424324,0.013691999949514866],"max":[0.7424349784851074,0.9677540063858032],"type":"VEC2","bufferView":1,"byteOffset":0},{"name":"kabaldon-Mesh_0_indices","componentType":5123,"count":7848,"min":[0],"max":[2016],"type":"SCALAR","bufferView":2,"byteOffset":0},{"name":"kabaldon-Mesh_1_positions","componentType":5126,"count":108,"min":[-4.2186408042907715,8.951471328735352,-16.778472900390625],"max":[4.2186408042907715,13.026631355285645,-13.054929733276367],"type":"VEC3","bufferView":0,"byteOffset":24204},{"name":"kabaldon-Mesh_1_texcoords","componentType":5126,"count":108,"min":[0.7821120023727417,0.04261700063943863],"max":[0.9665200114250183,0.22974400222301483],"type":"VEC2","bufferView":1,"byteOffset":16136},{"name":"kabaldon-Mesh_1_indices","componentType":5123,"count":420,"min":[0],"max":[107],"type":"SCALAR","bufferView":2,"byteOffset":15696}],"asset":{"generator":"obj2gltf","version":"2.0"},"buffers":[{"name":"BR_Hippowdon-Shiny01","byteLength":1107632,"uri":"data:application/octet-stream;base64,"}],"bufferViews":[{"name":"bufferView_0","buffer":0,"byteLength":25500,"byteOffset":0,"byteStride":12,"target":34962},{"name":"bufferView_1","buffer":0,"byteLength":17000,"byteOffset":25500,"byteStride":8,"target":34962},{"name":"bufferView_2","buffer":0,"byteLength":16536,"byteOffset":42500,"target":34963},{"buffer":0,"byteOffset":59036,"byteLength":1048594}],"images":[{"name":"kabaldon_1_0","mimeType":"image/x-tga","bufferView":3}],"materials":[{"name":"mat_0","pbrMetallicRoughness":{"baseColorTexture":{"index":0},"baseColorFactor":[1,1,1,1],"metallicFactor":0,"roughnessFactor":0.903921569},"emissiveFactor":[0,0,0],"alphaMode":"BLEND","doubleSided":true},{"name":"mat_1","pbrMetallicRoughness":{"baseColorTexture":{"index":0},"baseColorFactor":[1,1,1,1],"metallicFactor":0,"roughnessFactor":0.903921569},"emissiveFactor":[0,0,0],"alphaMode":"BLEND","doubleSided":true}],"meshes":[{"name":"kabaldon-Mesh","primitives":[{"attributes":{"POSITION":0,"TEXCOORD_0":1},"indices":2,"material":0,"mode":4},{"attributes":{"POSITION":3,"TEXCOORD_0":4},"indices":5,"material":1,"mode":4}]}],"nodes":[{"name":"kabaldon","mesh":0}],"samplers":[{"wrapS":10497,"wrapT":10497}],"scene":0,"scenes":[{"nodes":[0]}],"textures":[{"name":"kabaldon_1_0","sampler":0,"source":0}]}