{"accessors":[{"name":"polygon0_1_0_positions","componentType":5126,"count":965,"min":[-3.31728196144104,-0.04328199848532677,-8.949174880981445],"max":[3.3172800540924072,4.284677982330322,4.413527011871338],"type":"VEC3","bufferView":0,"byteOffset":0},{"name":"polygon0_1_0_normals","componentType":5126,"count":965,"min":[-1,-0.9999935030937195,-0.9999722838401794],"max":[1,0.9999979138374329,0.9999416470527649],"type":"VEC3","bufferView":1,"byteOffset":0},{"name":"polygon0_1_0_texcoords","componentType":5126,"count":965,"min":[0.00762900011613965,0.015838999301195145],"max":[0.9928889870643616,0.9913330078125],"type":"VEC2","bufferView":2,"byteOffset":0},{"name":"polygon0_1_0_indices","componentType":5123,"count":4404,"min":[0],"max":[964],"type":"SCALAR","bufferView":3,"byteOffset":0},{"name":"polygon1_1_0_positions","componentType":5126,"count":98,"min":[-1.2689520120620728,1.9874520301818848,2.6287848949432373],"max":[1.2689499855041504,3.5363609790802,3.3642539978027344],"type":"VEC3","bufferView":0,"byteOffset":11580},{"name":"polygon1_1_0_normals","componentType":5126,"count":98,"min":[-0.629755973815918,-0.42014992237091064,-0.9412265419960022],"max":[0.629755973815918,0.5381788611412048,0.9990025162696838],"type":"VEC3","bufferView":1,"byteOffset":11580},{"name":"polygon1_1_0_texcoords","componentType":5126,"count":98,"min":[0.02914400026202202,0.02142300084233284],"max":[0.9901430010795593,0.9728699922561646],"type":"VEC2","bufferView":2,"byteOffset":7720},{"name":"polygon1_1_0_indices","componentType":5123,"count":276,"min":[0],"max":[97],"type":"SCALAR","bufferView":3,"byteOffset":8808}],"asset":{"generator":"obj2gltf","version":"2.0"},"buffers":[{"name":"Scorupi","byteLength":338324,"uri":"data:application/octet-stream;base64,"}],"bufferViews":[{"name":"bufferView_0","buffer":0,"byteLength":12756,"byteOffset":0,"byteStride":12,"target":34962},{"name":"bufferView_1","buffer":0,"byteLength":12756,"byteOffset":12756,"byteStride":12,"target":34962},{"name":"bufferView_2","buffer":0,"byteLength":8504,"byteOffset":25512,"byteStride":8,"target":34962},{"name":"bufferView_3","buffer":0,"byteLength":9360,"byteOffset":34016,"target":34963},{"buffer":0,"byteOffset":43376,"byteLength":196626},{"buffer":0,"byteOffset":240002,"byteLength":98322}],"images":[{"name":"ScorupiDh","mimeType":"image/x-tga","bufferView":4},{"name":"ScorupiEyeDh","mimeType":"image/x-tga","bufferView":5}],"materials":[{"name":"mat1","pbrMetallicRoughness":{"baseColorTexture":{"index":0},"baseColorFactor":[1,1,1,1],"metallicFactor":0,"roughnessFactor":0.99},"emissiveFactor":[0,0,0],"alphaMode":"OPAQUE","doubleSided":false},{"name":"mat2","pbrMetallicRoughness":{"baseColorTexture":{"index":1},"baseColorFactor":[1,1,1,1],"metallicFactor":0,"roughnessFactor":0.99},"emissiveFactor":[0,0,0],"alphaMode":"OPAQUE","doubleSided":false}],"meshes":[{"name":"polygon0_1","primitives":[{"attributes":{"POSITION":0,"NORMAL":1,"TEXCOORD_0":2},"indices":3,"material":0,"mode":4}]},{"name":"polygon1_1","primitives":[{"attributes":{"POSITION":4,"NORMAL":5,"TEXCOORD_0":6},"indices":7,"material":1,"mode":4}]}],"nodes":[{"name":"polygon0","mesh":0},{"name":"polygon1","mesh":1}],"samplers":[{"wrapS":10497,"wrapT":10497}],"scene":0,"scenes":[{"nodes":[0,1]}],"textures":[{"name":"ScorupiDh","sampler":0,"source":0},{"name":"ScorupiEyeDh","sampler":0,"source":1}]}