{"accessors":[{"name":"dorapion-Mesh_0_positions","componentType":5126,"count":35,"min":[-2.451327085494995,10.749913215637207,-1.1983599662780762],"max":[2.451327085494995,11.481537818908691,0.3399040102958679],"type":"VEC3","bufferView":0,"byteOffset":0},{"name":"dorapion-Mesh_0_texcoords","componentType":5126,"count":35,"min":[0.8516020178794861,0.007958999834954739],"max":[0.9675650000572205,0.17268499732017517],"type":"VEC2","bufferView":1,"byteOffset":0},{"name":"dorapion-Mesh_0_indices","componentType":5123,"count":96,"min":[0],"max":[34],"type":"SCALAR","bufferView":2,"byteOffset":0},{"name":"dorapion-Mesh_1_positions","componentType":5126,"count":1798,"min":[-13.878573417663574,-18.24292755126953,-3.0577330589294434],"max":[13.878573417663574,12.489228248596191,4.710303783416748],"type":"VEC3","bufferView":0,"byteOffset":420},{"name":"dorapion-Mesh_1_texcoords","componentType":5126,"count":1798,"min":[0.044204000383615494,0.01095299981534481],"max":[0.7431939840316772,0.9628520011901855],"type":"VEC2","bufferView":1,"byteOffset":280},{"name":"dorapion-Mesh_1_indices","componentType":5123,"count":8292,"min":[0],"max":[1797],"type":"SCALAR","bufferView":2,"byteOffset":192}],"asset":{"generator":"obj2gltf","version":"2.0"},"buffers":[{"name":"BR_Drapion-Shiny01","byteLength":1102032,"uri":"data:application/octet-stream;base64,"}],"bufferViews":[{"name":"bufferView_0","buffer":0,"byteLength":21996,"byteOffset":0,"byteStride":12,"target":34962},{"name":"bufferView_1","buffer":0,"byteLength":14664,"byteOffset":21996,"byteStride":8,"target":34962},{"name":"bufferView_2","buffer":0,"byteLength":16776,"byteOffset":36660,"target":34963},{"buffer":0,"byteOffset":53436,"byteLength":1048594}],"images":[{"name":"dorapion_1_0","mimeType":"image/x-tga","bufferView":3}],"materials":[{"name":"mat_0","pbrMetallicRoughness":{"baseColorTexture":{"index":0},"baseColorFactor":[1,1,1,1],"metallicFactor":0,"roughnessFactor":0.903921569},"emissiveFactor":[0,0,0],"alphaMode":"BLEND","doubleSided":true},{"name":"mat_1","pbrMetallicRoughness":{"baseColorTexture":{"index":0},"baseColorFactor":[1,1,1,1],"metallicFactor":0,"roughnessFactor":0.903921569},"emissiveFactor":[0,0,0],"alphaMode":"BLEND","doubleSided":true}],"meshes":[{"name":"dorapion-Mesh","primitives":[{"attributes":{"POSITION":0,"TEXCOORD_0":1},"indices":2,"material":0,"mode":4},{"attributes":{"POSITION":3,"TEXCOORD_0":4},"indices":5,"material":1,"mode":4}]}],"nodes":[{"name":"dorapion","mesh":0}],"samplers":[{"wrapS":10497,"wrapT":10497}],"scene":0,"scenes":[{"nodes":[0]}],"textures":[{"name":"dorapion_1_0","sampler":0,"source":0}]}