{"accessors":[{"name":"polygon0_1_0_positions","componentType":5126,"count":1105,"min":[-5.487637996673584,0.037884000688791275,-1.408247947692871],"max":[5.487637996673584,6.984458923339844,2.7687809467315674],"type":"VEC3","bufferView":0,"byteOffset":0},{"name":"polygon0_1_0_normals","componentType":5126,"count":1105,"min":[-0.9991446137428284,-0.9999939203262329,-0.9982855916023254],"max":[0.9991453886032104,0.9999939203262329,0.9999253749847412],"type":"VEC3","bufferView":1,"byteOffset":0},{"name":"polygon0_1_0_texcoords","componentType":5126,"count":1105,"min":[0.005675999913364649,0.009917999617755413],"max":[0.9992070198059082,0.9938960075378418],"type":"VEC2","bufferView":2,"byteOffset":0},{"name":"polygon0_1_0_indices","componentType":5123,"count":4512,"min":[0],"max":[1104],"type":"SCALAR","bufferView":3,"byteOffset":0},{"name":"polygon1_1_0_positions","componentType":5126,"count":64,"min":[-1.372630000114441,5.427868843078613,1.4656850099563599],"max":[1.372630000114441,6.735468864440918,2.605264902114868],"type":"VEC3","bufferView":0,"byteOffset":13260},{"name":"polygon1_1_0_normals","componentType":5126,"count":64,"min":[-0.8046854138374329,-0.2602101266384125,0.24453990161418915],"max":[0.8046854138374329,0.7775641083717346,0.9617330431938171],"type":"VEC3","bufferView":1,"byteOffset":13260},{"name":"polygon1_1_0_texcoords","componentType":5126,"count":64,"min":[0.043212998658418655,0.048308998346328735],"max":[0.5375369787216187,0.22152699530124664],"type":"VEC2","bufferView":2,"byteOffset":8840},{"name":"polygon1_1_0_indices","componentType":5123,"count":294,"min":[0],"max":[63],"type":"SCALAR","bufferView":3,"byteOffset":9024}],"asset":{"generator":"obj2gltf","version":"2.0"},"buffers":[{"name":"Guregguru","byteLength":47020,"uri":"data:application/octet-stream;base64,"}],"bufferViews":[{"name":"bufferView_0","buffer":0,"byteLength":14028,"byteOffset":0,"byteStride":12,"target":34962},{"name":"bufferView_1","buffer":0,"byteLength":14028,"byteOffset":14028,"byteStride":12,"target":34962},{"name":"bufferView_2","buffer":0,"byteLength":9352,"byteOffset":28056,"byteStride":8,"target":34962},{"name":"bufferView_3","buffer":0,"byteLength":9612,"byteOffset":37408,"target":34963}],"materials":[{"name":"mat1","pbrMetallicRoughness":{"baseColorFactor":[0.5,0.5,0.5,1],"metallicFactor":0,"roughnessFactor":1},"emissiveFactor":[0,0,0],"alphaMode":"OPAQUE","doubleSided":false},{"name":"mat2","pbrMetallicRoughness":{"baseColorFactor":[0.5,0.5,0.5,1],"metallicFactor":0,"roughnessFactor":1},"emissiveFactor":[0,0,0],"alphaMode":"OPAQUE","doubleSided":false}],"meshes":[{"name":"polygon0_1","primitives":[{"attributes":{"POSITION":0,"NORMAL":1,"TEXCOORD_0":2},"indices":3,"material":0,"mode":4}]},{"name":"polygon1_1","primitives":[{"attributes":{"POSITION":4,"NORMAL":5,"TEXCOORD_0":6},"indices":7,"material":1,"mode":4}]}],"nodes":[{"name":"polygon0","mesh":0},{"name":"polygon1","mesh":1}],"scene":0,"scenes":[{"nodes":[0,1]}]}