{"accessors":[{"name":"dokurog-Mesh_0_positions","componentType":5126,"count":863,"min":[-9.947550773620605,-1.3898429870605469,-12.85831069946289],"max":[9.947550773620605,3.2513070106506348,0.001905999961309135],"type":"VEC3","bufferView":0,"byteOffset":0},{"name":"dokurog-Mesh_0_texcoords","componentType":5126,"count":863,"min":[0.012728000059723854,0.025043999776244164],"max":[0.935371994972229,0.9888070225715637],"type":"VEC2","bufferView":1,"byteOffset":0},{"name":"dokurog-Mesh_0_indices","componentType":5123,"count":3624,"min":[0],"max":[862],"type":"SCALAR","bufferView":2,"byteOffset":0},{"name":"dokurog-Mesh_1_positions","componentType":5126,"count":43,"min":[-1.4940840005874634,0.9881790280342102,-9.514359474182129],"max":[1.4940840005874634,3.6012790203094482,-6.744649887084961],"type":"VEC3","bufferView":0,"byteOffset":10356},{"name":"dokurog-Mesh_1_texcoords","componentType":5126,"count":43,"min":[0.5675250291824341,0.7865899801254272],"max":[0.6738139986991882,0.982915997505188],"type":"VEC2","bufferView":1,"byteOffset":6904},{"name":"dokurog-Mesh_1_indices","componentType":5123,"count":216,"min":[0],"max":[42],"type":"SCALAR","bufferView":2,"byteOffset":7248},{"name":"dokurog-Mesh_2_positions","componentType":5126,"count":22,"min":[-1.7046270370483398,0.8282999992370605,-11.041728973388672],"max":[1.7046270370483398,2.624229907989502,-9.913421630859375],"type":"VEC3","bufferView":0,"byteOffset":10872},{"name":"dokurog-Mesh_2_texcoords","componentType":5126,"count":22,"min":[0.7393079996109009,0.01933700032532215],"max":[0.935371994972229,0.15295900404453278],"type":"VEC2","bufferView":1,"byteOffset":7248},{"name":"dokurog-Mesh_2_indices","componentType":5123,"count":54,"min":[0],"max":[21],"type":"SCALAR","bufferView":2,"byteOffset":7680}],"asset":{"generator":"obj2gltf","version":"2.0"},"buffers":[{"name":"BR_Toxicroak-Shiny01","byteLength":1074944,"uri":"data:application/octet-stream;base64,"}],"bufferViews":[{"name":"bufferView_0","buffer":0,"byteLength":11136,"byteOffset":0,"byteStride":12,"target":34962},{"name":"bufferView_1","buffer":0,"byteLength":7424,"byteOffset":11136,"byteStride":8,"target":34962},{"name":"bufferView_2","buffer":0,"byteLength":7788,"byteOffset":18560,"target":34963},{"buffer":0,"byteOffset":26348,"byteLength":1048594}],"images":[{"name":"dokurog_1_0","mimeType":"image/x-tga","bufferView":3}],"materials":[{"name":"mat_0","pbrMetallicRoughness":{"baseColorTexture":{"index":0},"baseColorFactor":[1,1,1,1],"metallicFactor":0,"roughnessFactor":0.903921569},"emissiveFactor":[0,0,0],"alphaMode":"BLEND","doubleSided":true},{"name":"mat_1","pbrMetallicRoughness":{"baseColorTexture":{"index":0},"baseColorFactor":[1,1,1,1],"metallicFactor":0,"roughnessFactor":0.903921569},"emissiveFactor":[0,0,0],"alphaMode":"BLEND","doubleSided":true},{"name":"mat_2","pbrMetallicRoughness":{"baseColorTexture":{"index":0},"baseColorFactor":[1,1,1,1],"metallicFactor":0,"roughnessFactor":0.903921569},"emissiveFactor":[0,0,0],"alphaMode":"BLEND","doubleSided":true}],"meshes":[{"name":"dokurog-Mesh","primitives":[{"attributes":{"POSITION":0,"TEXCOORD_0":1},"indices":2,"material":0,"mode":4},{"attributes":{"POSITION":3,"TEXCOORD_0":4},"indices":5,"material":1,"mode":4},{"attributes":{"POSITION":6,"TEXCOORD_0":7},"indices":8,"material":2,"mode":4}]}],"nodes":[{"name":"dokurog","mesh":0}],"samplers":[{"wrapS":10497,"wrapT":10497}],"scene":0,"scenes":[{"nodes":[0]}],"textures":[{"name":"dokurog_1_0","sampler":0,"source":0}]}