{"accessors":[{"name":"muskippa-Mesh_0_positions","componentType":5126,"count":1531,"min":[-10.483511924743652,-3.622853994369507,-14.970024108886719],"max":[10.483511924743652,4.911773204803467,0.29339399933815],"type":"VEC3","bufferView":0,"byteOffset":0},{"name":"muskippa-Mesh_0_texcoords","componentType":5126,"count":1531,"min":[0.025499999523162842,0.012497999705374241],"max":[0.7304109930992126,0.9541289806365967],"type":"VEC2","bufferView":1,"byteOffset":0},{"name":"muskippa-Mesh_0_indices","componentType":5123,"count":6996,"min":[0],"max":[1530],"type":"SCALAR","bufferView":2,"byteOffset":0},{"name":"muskippa-Mesh_1_positions","componentType":5126,"count":18,"min":[-2.7203500270843506,2.928584098815918,-13.871520042419434],"max":[2.7203500270843506,4.2159857749938965,-13.025431632995605],"type":"VEC3","bufferView":0,"byteOffset":18372},{"name":"muskippa-Mesh_1_texcoords","componentType":5126,"count":18,"min":[0.7928060293197632,0.03419899940490723],"max":[0.9893220067024231,0.18657700717449188],"type":"VEC2","bufferView":1,"byteOffset":12248},{"name":"muskippa-Mesh_1_indices","componentType":5123,"count":48,"min":[0],"max":[17],"type":"SCALAR","bufferView":2,"byteOffset":13992}],"asset":{"generator":"obj2gltf","version":"2.0"},"buffers":[{"name":"BR_Carnivine-Shiny01","byteLength":1093664,"uri":"data:application/octet-stream;base64,"}],"bufferViews":[{"name":"bufferView_0","buffer":0,"byteLength":18588,"byteOffset":0,"byteStride":12,"target":34962},{"name":"bufferView_1","buffer":0,"byteLength":12392,"byteOffset":18588,"byteStride":8,"target":34962},{"name":"bufferView_2","buffer":0,"byteLength":14088,"byteOffset":30980,"target":34963},{"buffer":0,"byteOffset":45068,"byteLength":1048594}],"images":[{"name":"muskippa_1_0","mimeType":"image/x-tga","bufferView":3}],"materials":[{"name":"mat_0","pbrMetallicRoughness":{"baseColorTexture":{"index":0},"baseColorFactor":[1,1,1,1],"metallicFactor":0,"roughnessFactor":0.903921569},"emissiveFactor":[0,0,0],"alphaMode":"BLEND","doubleSided":true},{"name":"mat_1","pbrMetallicRoughness":{"baseColorTexture":{"index":0},"baseColorFactor":[1,1,1,1],"metallicFactor":0,"roughnessFactor":0.903921569},"emissiveFactor":[0,0,0],"alphaMode":"BLEND","doubleSided":true}],"meshes":[{"name":"muskippa-Mesh","primitives":[{"attributes":{"POSITION":0,"TEXCOORD_0":1},"indices":2,"material":0,"mode":4},{"attributes":{"POSITION":3,"TEXCOORD_0":4},"indices":5,"material":1,"mode":4}]}],"nodes":[{"name":"muskippa","mesh":0}],"samplers":[{"wrapS":10497,"wrapT":10497}],"scene":0,"scenes":[{"nodes":[0]}],"textures":[{"name":"muskippa_1_0","sampler":0,"source":0}]}