{"accessors":[{"name":"neolant-Mesh_0_positions","componentType":5126,"count":1079,"min":[-5.768342018127441,-7.780657768249512,-11.12564754486084],"max":[5.768342018127441,5.96565580368042,0.13252100348472595],"type":"VEC3","bufferView":0,"byteOffset":0},{"name":"neolant-Mesh_0_texcoords","componentType":5126,"count":1079,"min":[0.014023000374436378,0.0284620001912117],"max":[0.7157840132713318,0.973691999912262],"type":"VEC2","bufferView":1,"byteOffset":0},{"name":"neolant-Mesh_0_indices","componentType":5123,"count":4548,"min":[0],"max":[1078],"type":"SCALAR","bufferView":2,"byteOffset":0},{"name":"neolant-Mesh_1_positions","componentType":5126,"count":74,"min":[-1.1067689657211304,3.989763021469116,-5.760894775390625],"max":[1.1067689657211304,5.0426130294799805,-3.05781888961792],"type":"VEC3","bufferView":0,"byteOffset":12948},{"name":"neolant-Mesh_1_texcoords","componentType":5126,"count":74,"min":[0.8130540251731873,0.06027200073003769],"max":[0.9528970122337341,0.42077600955963135],"type":"VEC2","bufferView":1,"byteOffset":8632},{"name":"neolant-Mesh_1_indices","componentType":5123,"count":342,"min":[0],"max":[73],"type":"SCALAR","bufferView":2,"byteOffset":9096},{"name":"neolant-Mesh_2_positions","componentType":5126,"count":17,"min":[-0.39162200689315796,5.6574201583862305,-3.5374679565429688],"max":[0.39162200689315796,5.96565580368042,-3.105670928955078],"type":"VEC3","bufferView":0,"byteOffset":13836},{"name":"neolant-Mesh_2_texcoords","componentType":5126,"count":17,"min":[0.5252469778060913,0.6306840181350708],"max":[0.5867959856987,0.6965500116348267],"type":"VEC2","bufferView":1,"byteOffset":9224},{"name":"neolant-Mesh_2_indices","componentType":5123,"count":60,"min":[0],"max":[16],"type":"SCALAR","bufferView":2,"byteOffset":9780}],"asset":{"generator":"obj2gltf","version":"2.0"},"buffers":[{"name":"BR_Lumineon-Shiny01","byteLength":1081896,"uri":"data:application/octet-stream;base64,"}],"bufferViews":[{"name":"bufferView_0","buffer":0,"byteLength":14040,"byteOffset":0,"byteStride":12,"target":34962},{"name":"bufferView_1","buffer":0,"byteLength":9360,"byteOffset":14040,"byteStride":8,"target":34962},{"name":"bufferView_2","buffer":0,"byteLength":9900,"byteOffset":23400,"target":34963},{"buffer":0,"byteOffset":33300,"byteLength":1048594}],"images":[{"name":"neolant_1_0","mimeType":"image/x-tga","bufferView":3}],"materials":[{"name":"mat_0","pbrMetallicRoughness":{"baseColorTexture":{"index":0},"baseColorFactor":[1,1,1,1],"metallicFactor":0,"roughnessFactor":0.903921569},"emissiveFactor":[0,0,0],"alphaMode":"BLEND","doubleSided":true},{"name":"mat_1","pbrMetallicRoughness":{"baseColorTexture":{"index":0},"baseColorFactor":[1,1,1,1],"metallicFactor":0,"roughnessFactor":0.903921569},"emissiveFactor":[0,0,0],"alphaMode":"BLEND","doubleSided":true},{"name":"mat_2","pbrMetallicRoughness":{"baseColorTexture":{"index":0},"baseColorFactor":[1,1,1,1],"metallicFactor":0,"roughnessFactor":0.903921569},"emissiveFactor":[0,0,0],"alphaMode":"BLEND","doubleSided":true}],"meshes":[{"name":"neolant-Mesh","primitives":[{"attributes":{"POSITION":0,"TEXCOORD_0":1},"indices":2,"material":0,"mode":4},{"attributes":{"POSITION":3,"TEXCOORD_0":4},"indices":5,"material":1,"mode":4},{"attributes":{"POSITION":6,"TEXCOORD_0":7},"indices":8,"material":2,"mode":4}]}],"nodes":[{"name":"neolant","mesh":0}],"samplers":[{"wrapS":10497,"wrapT":10497}],"scene":0,"scenes":[{"nodes":[0]}],"textures":[{"name":"neolant_1_0","sampler":0,"source":0}]}