{"accessors":[{"name":"tamanta-Mesh_0_positions","componentType":5126,"count":1598,"min":[-4.9912638664245605,-4.811246871948242,-4.336980819702148],"max":[4.9912638664245605,4.811246871948242,-0.09365099668502808],"type":"VEC3","bufferView":0,"byteOffset":0},{"name":"tamanta-Mesh_0_texcoords","componentType":5126,"count":1598,"min":[0.006812000181525946,0.017273999750614166],"max":[0.9987919926643372,0.9910029768943787],"type":"VEC2","bufferView":1,"byteOffset":0},{"name":"tamanta-Mesh_0_indices","componentType":5123,"count":2274,"min":[0],"max":[1597],"type":"SCALAR","bufferView":2,"byteOffset":0},{"name":"tamanta-Mesh_1_positions","componentType":5126,"count":42,"min":[-1.6834499835968018,0.25964799523353577,-1.3979209661483765],"max":[1.6834499835968018,1.494431972503662,-0.6585789918899536],"type":"VEC3","bufferView":0,"byteOffset":19176},{"name":"tamanta-Mesh_1_texcoords","componentType":5126,"count":42,"min":[0.027817999944090843,0.03021400049328804],"max":[0.11326800286769867,0.6865540146827698],"type":"VEC2","bufferView":1,"byteOffset":12784},{"name":"tamanta-Mesh_1_indices","componentType":5123,"count":42,"min":[0],"max":[41],"type":"SCALAR","bufferView":2,"byteOffset":4548}],"asset":{"generator":"obj2gltf","version":"2.0"},"buffers":[{"name":"BR_Mantyke-Shiny01","byteLength":1086028,"uri":"data:application/octet-stream;base64,"}],"bufferViews":[{"name":"bufferView_0","buffer":0,"byteLength":19680,"byteOffset":0,"byteStride":12,"target":34962},{"name":"bufferView_1","buffer":0,"byteLength":13120,"byteOffset":19680,"byteStride":8,"target":34962},{"name":"bufferView_2","buffer":0,"byteLength":4632,"byteOffset":32800,"target":34963},{"buffer":0,"byteOffset":37432,"byteLength":1048594}],"images":[{"name":"tamanta_1_0","mimeType":"image/x-tga","bufferView":3}],"materials":[{"name":"mat_0","pbrMetallicRoughness":{"baseColorTexture":{"index":0},"baseColorFactor":[1,1,1,1],"metallicFactor":0,"roughnessFactor":0.903921569},"emissiveFactor":[0,0,0],"alphaMode":"BLEND","doubleSided":true},{"name":"mat_1","pbrMetallicRoughness":{"baseColorTexture":{"index":0},"baseColorFactor":[1,1,1,1],"metallicFactor":0,"roughnessFactor":0.903921569},"emissiveFactor":[0,0,0],"alphaMode":"BLEND","doubleSided":true}],"meshes":[{"name":"tamanta-Mesh","primitives":[{"attributes":{"POSITION":0,"TEXCOORD_0":1},"indices":2,"material":0,"mode":4},{"attributes":{"POSITION":3,"TEXCOORD_0":4},"indices":5,"material":1,"mode":4}]}],"nodes":[{"name":"tamanta","mesh":0}],"samplers":[{"wrapS":10497,"wrapT":10497}],"scene":0,"scenes":[{"nodes":[0]}],"textures":[{"name":"tamanta_1_0","sampler":0,"source":0}]}