{"accessors":[{"name":"yukikaburi-Mesh_0_positions","componentType":5126,"count":1958,"min":[-9.127367973327637,-5.573322772979736,-9.99255084991455],"max":[9.127367973327637,2.910043954849243,0.023080000653862953],"type":"VEC3","bufferView":0,"byteOffset":0},{"name":"yukikaburi-Mesh_0_texcoords","componentType":5126,"count":1958,"min":[0.0035689999349415302,0.002741999924182892],"max":[0.6656290292739868,0.9924759864807129],"type":"VEC2","bufferView":1,"byteOffset":0},{"name":"yukikaburi-Mesh_0_indices","componentType":5123,"count":8334,"min":[0],"max":[1957],"type":"SCALAR","bufferView":2,"byteOffset":0},{"name":"yukikaburi-Mesh_1_positions","componentType":5126,"count":18,"min":[-1.646765947341919,1.5593680143356323,-6.023613929748535],"max":[1.646765947341919,2.5246329307556152,-4.565176010131836],"type":"VEC3","bufferView":0,"byteOffset":23496},{"name":"yukikaburi-Mesh_1_texcoords","componentType":5126,"count":18,"min":[0.8198860287666321,0.0912569984793663],"max":[0.9465829730033875,0.239655002951622],"type":"VEC2","bufferView":1,"byteOffset":15664},{"name":"yukikaburi-Mesh_1_indices","componentType":5123,"count":48,"min":[0],"max":[17],"type":"SCALAR","bufferView":2,"byteOffset":16668}],"asset":{"generator":"obj2gltf","version":"2.0"},"buffers":[{"name":"BR_Snover-Shiny01","byteLength":1104880,"uri":"data:application/octet-stream;base64,"}],"bufferViews":[{"name":"bufferView_0","buffer":0,"byteLength":23712,"byteOffset":0,"byteStride":12,"target":34962},{"name":"bufferView_1","buffer":0,"byteLength":15808,"byteOffset":23712,"byteStride":8,"target":34962},{"name":"bufferView_2","buffer":0,"byteLength":16764,"byteOffset":39520,"target":34963},{"buffer":0,"byteOffset":56284,"byteLength":1048594}],"images":[{"name":"yukikaburi_1_0","mimeType":"image/x-tga","bufferView":3}],"materials":[{"name":"mat_0","pbrMetallicRoughness":{"baseColorTexture":{"index":0},"baseColorFactor":[1,1,1,1],"metallicFactor":0,"roughnessFactor":0.903921569},"emissiveFactor":[0,0,0],"alphaMode":"BLEND","doubleSided":true},{"name":"mat_1","pbrMetallicRoughness":{"baseColorTexture":{"index":0},"baseColorFactor":[1,1,1,1],"metallicFactor":0,"roughnessFactor":0.903921569},"emissiveFactor":[0,0,0],"alphaMode":"BLEND","doubleSided":true}],"meshes":[{"name":"yukikaburi-Mesh","primitives":[{"attributes":{"POSITION":0,"TEXCOORD_0":1},"indices":2,"material":0,"mode":4},{"attributes":{"POSITION":3,"TEXCOORD_0":4},"indices":5,"material":1,"mode":4}]}],"nodes":[{"name":"yukikaburi","mesh":0}],"samplers":[{"wrapS":10497,"wrapT":10497}],"scene":0,"scenes":[{"nodes":[0]}],"textures":[{"name":"yukikaburi_1_0","sampler":0,"source":0}]}