{"accessors":[{"name":"yukinooh-Mesh_0_positions","componentType":5126,"count":22,"min":[-2.7850639820098877,2.6216890811920166,-18.837432861328125],"max":[2.7850639820098877,3.9247469902038574,-16.670948028564453],"type":"VEC3","bufferView":0,"byteOffset":0},{"name":"yukinooh-Mesh_0_texcoords","componentType":5126,"count":22,"min":[0.772674024105072,0.01158200018107891],"max":[0.8934100270271301,0.11287999898195267],"type":"VEC2","bufferView":1,"byteOffset":0},{"name":"yukinooh-Mesh_0_indices","componentType":5123,"count":72,"min":[0],"max":[21],"type":"SCALAR","bufferView":2,"byteOffset":0},{"name":"yukinooh-Mesh_1_positions","componentType":5126,"count":2575,"min":[-20.351621627807617,-15.484556198120117,-21.959749221801758],"max":[20.351621627807617,6.440415859222412,-0.007747999858111143],"type":"VEC3","bufferView":0,"byteOffset":264},{"name":"yukinooh-Mesh_1_texcoords","componentType":5126,"count":2575,"min":[0.003965999931097031,-0.20705099403858185],"max":[0.9114279747009277,0.9964510202407837],"type":"VEC2","bufferView":1,"byteOffset":176},{"name":"yukinooh-Mesh_1_indices","componentType":5123,"count":7950,"min":[0],"max":[2574],"type":"SCALAR","bufferView":2,"byteOffset":144}],"asset":{"generator":"obj2gltf","version":"2.0"},"buffers":[{"name":"BR_Abomasnow-Shiny01","byteLength":1116580,"uri":"data:application/octet-stream;base64,"}],"bufferViews":[{"name":"bufferView_0","buffer":0,"byteLength":31164,"byteOffset":0,"byteStride":12,"target":34962},{"name":"bufferView_1","buffer":0,"byteLength":20776,"byteOffset":31164,"byteStride":8,"target":34962},{"name":"bufferView_2","buffer":0,"byteLength":16044,"byteOffset":51940,"target":34963},{"buffer":0,"byteOffset":67984,"byteLength":1048594}],"images":[{"name":"yukinooh_1_0","mimeType":"image/x-tga","bufferView":3}],"materials":[{"name":"mat_0","pbrMetallicRoughness":{"baseColorTexture":{"index":0},"baseColorFactor":[1,1,1,1],"metallicFactor":0,"roughnessFactor":0.903921569},"emissiveFactor":[0,0,0],"alphaMode":"BLEND","doubleSided":true},{"name":"mat_1","pbrMetallicRoughness":{"baseColorTexture":{"index":0},"baseColorFactor":[1,1,1,1],"metallicFactor":0,"roughnessFactor":0.903921569},"emissiveFactor":[0,0,0],"alphaMode":"BLEND","doubleSided":true}],"meshes":[{"name":"yukinooh-Mesh","primitives":[{"attributes":{"POSITION":0,"TEXCOORD_0":1},"indices":2,"material":0,"mode":4},{"attributes":{"POSITION":3,"TEXCOORD_0":4},"indices":5,"material":1,"mode":4}]}],"nodes":[{"name":"yukinooh","mesh":0}],"samplers":[{"wrapS":10497,"wrapT":10497}],"scene":0,"scenes":[{"nodes":[0]}],"textures":[{"name":"yukinooh_1_0","sampler":0,"source":0}]}