{"accessors":[{"name":"manyula-Mesh_0_positions","componentType":5126,"count":54,"min":[-0.2113959938287735,1.5363689661026,-7.19436502456665],"max":[0.21133700013160706,1.7217199802398682,-6.408295154571533],"type":"VEC3","bufferView":0,"byteOffset":0},{"name":"manyula-Mesh_0_texcoords","componentType":5126,"count":54,"min":[0.000455000001238659,0.06350299715995789],"max":[0.0321040004491806,0.1719209998846054],"type":"VEC2","bufferView":1,"byteOffset":0},{"name":"manyula-Mesh_0_indices","componentType":5123,"count":252,"min":[0],"max":[53],"type":"SCALAR","bufferView":2,"byteOffset":0},{"name":"manyula-Mesh_1_positions","componentType":5126,"count":103,"min":[-1.6915489435195923,-5.000256061553955,-5.1839680671691895],"max":[1.6914900541305542,1.4379630088806152,-2.234376907348633],"type":"VEC3","bufferView":0,"byteOffset":648},{"name":"manyula-Mesh_1_texcoords","componentType":5126,"count":103,"min":[0.3956280052661896,0.293630987405777],"max":[0.7306119799613953,0.49264898896217346],"type":"VEC2","bufferView":1,"byteOffset":432},{"name":"manyula-Mesh_1_indices","componentType":5123,"count":492,"min":[0],"max":[102],"type":"SCALAR","bufferView":2,"byteOffset":504},{"name":"manyula-Mesh_2_positions","componentType":5126,"count":1535,"min":[-4.435747146606445,-3.195159912109375,-10.874486923217773],"max":[4.435688018798828,1.8860069513320923,0.0087909996509552],"type":"VEC3","bufferView":0,"byteOffset":1884},{"name":"manyula-Mesh_2_texcoords","componentType":5126,"count":1535,"min":[0.0003910000086762011,0.0048870001919567585],"max":[0.7374460101127625,1.0005929470062256],"type":"VEC2","bufferView":1,"byteOffset":1256},{"name":"manyula-Mesh_2_indices","componentType":5123,"count":7200,"min":[0],"max":[1534],"type":"SCALAR","bufferView":2,"byteOffset":1488},{"name":"manyula-Mesh_3_positions","componentType":5126,"count":70,"min":[-1.4087779521942139,0.9456019997596741,-7.043440818786621],"max":[1.4087189435958862,1.6171189546585083,-6.104413986206055],"type":"VEC3","bufferView":0,"byteOffset":20304},{"name":"manyula-Mesh_3_texcoords","componentType":5126,"count":70,"min":[0.5212470293045044,0.8084099888801575],"max":[0.7636839747428894,0.9714149832725525],"type":"VEC2","bufferView":1,"byteOffset":13536},{"name":"manyula-Mesh_3_indices","componentType":5123,"count":288,"min":[0],"max":[69],"type":"SCALAR","bufferView":2,"byteOffset":15888}],"asset":{"generator":"obj2gltf","version":"2.0"},"buffers":[{"name":"BR_Weavile-Shiny01","byteLength":1104412,"uri":"data:application/octet-stream;base64,"}],"bufferViews":[{"name":"bufferView_0","buffer":0,"byteLength":21144,"byteOffset":0,"byteStride":12,"target":34962},{"name":"bufferView_1","buffer":0,"byteLength":14096,"byteOffset":21144,"byteStride":8,"target":34962},{"name":"bufferView_2","buffer":0,"byteLength":16464,"byteOffset":35240,"target":34963},{"buffer":0,"byteOffset":51704,"byteLength":4114},{"buffer":0,"byteOffset":55818,"byteLength":1048594}],"images":[{"name":"manyula_1_0","mimeType":"image/x-tga","bufferView":3},{"name":"manyula_1_1","mimeType":"image/x-tga","bufferView":4}],"materials":[{"name":"mat_0","pbrMetallicRoughness":{"baseColorTexture":{"index":0},"baseColorFactor":[1,1,1,1],"metallicFactor":0,"roughnessFactor":0.903921569},"emissiveFactor":[0,0,0],"alphaMode":"BLEND","doubleSided":true},{"name":"mat_1","pbrMetallicRoughness":{"baseColorTexture":{"index":1},"baseColorFactor":[1,1,1,1],"metallicFactor":0,"roughnessFactor":0.903921569},"emissiveFactor":[0,0,0],"alphaMode":"BLEND","doubleSided":true},{"name":"mat_2","pbrMetallicRoughness":{"baseColorTexture":{"index":1},"baseColorFactor":[1,1,1,1],"metallicFactor":0,"roughnessFactor":0.903921569},"emissiveFactor":[0,0,0],"alphaMode":"BLEND","doubleSided":true},{"name":"mat_3","pbrMetallicRoughness":{"baseColorTexture":{"index":1},"baseColorFactor":[1,1,1,1],"metallicFactor":0,"roughnessFactor":0.903921569},"emissiveFactor":[0,0,0],"alphaMode":"BLEND","doubleSided":true}],"meshes":[{"name":"manyula-Mesh","primitives":[{"attributes":{"POSITION":0,"TEXCOORD_0":1},"indices":2,"material":0,"mode":4},{"attributes":{"POSITION":3,"TEXCOORD_0":4},"indices":5,"material":1,"mode":4},{"attributes":{"POSITION":6,"TEXCOORD_0":7},"indices":8,"material":2,"mode":4},{"attributes":{"POSITION":9,"TEXCOORD_0":10},"indices":11,"material":3,"mode":4}]}],"nodes":[{"name":"manyula","mesh":0}],"samplers":[{"wrapS":10497,"wrapT":10497}],"scene":0,"scenes":[{"nodes":[0]}],"textures":[{"name":"manyula_1_0","sampler":0,"source":0},{"name":"manyula_1_1","sampler":0,"source":1}]}