{"accessors":[{"name":"polygon0_1_0_positions","componentType":5126,"count":35,"min":[-2.564563035964966,4.467235088348389,4.441954135894775],"max":[2.564563035964966,6.838147163391113,6.621600151062012],"type":"VEC3","bufferView":0,"byteOffset":0},{"name":"polygon0_1_0_normals","componentType":5126,"count":35,"min":[-0.31677594780921936,0.1677219420671463,0.6226679086685181],"max":[0.31677594780921936,0.7387539148330688,0.9855940937995911],"type":"VEC3","bufferView":1,"byteOffset":0},{"name":"polygon0_1_0_texcoords","componentType":5126,"count":35,"min":[0.01876799948513508,0.23123200237751007],"max":[0.98260498046875,0.8164979815483093],"type":"VEC2","bufferView":2,"byteOffset":0},{"name":"polygon0_1_0_indices","componentType":5123,"count":102,"min":[0],"max":[34],"type":"SCALAR","bufferView":3,"byteOffset":0},{"name":"polygon1_1_0_positions","componentType":5126,"count":749,"min":[-10.961689949035645,-0.6266430020332336,-11.948787689208984],"max":[10.961689949035645,6.86683988571167,8.805583953857422],"type":"VEC3","bufferView":0,"byteOffset":420},{"name":"polygon1_1_0_normals","componentType":5126,"count":749,"min":[-0.9999740123748779,-0.999990701675415,-0.999930739402771],"max":[0.999997079372406,1,1],"type":"VEC3","bufferView":1,"byteOffset":420},{"name":"polygon1_1_0_texcoords","componentType":5126,"count":749,"min":[0.014832000248134136,0.012360000051558018],"max":[0.5517269968986511,0.9742130041122437],"type":"VEC2","bufferView":2,"byteOffset":280},{"name":"polygon1_1_0_indices","componentType":5123,"count":2784,"min":[0],"max":[748],"type":"SCALAR","bufferView":3,"byteOffset":204},{"name":"polygon2_1_0_positions","componentType":5126,"count":52,"min":[-8.374496459960938,4.091091156005859,1.6661690473556519],"max":[8.374496459960938,6.211667060852051,2.9269208908081055],"type":"VEC3","bufferView":0,"byteOffset":9408},{"name":"polygon2_1_0_normals","componentType":5126,"count":52,"min":[-0.6548617482185364,-0.13415499031543732,0.4290253221988678],"max":[0.6548617482185364,0.857886016368866,0.9955906271934509],"type":"VEC3","bufferView":1,"byteOffset":9408},{"name":"polygon2_1_0_texcoords","componentType":5126,"count":52,"min":[0.019531000405550003,0.023437000811100006],"max":[0.4804689884185791,0.2421869933605194],"type":"VEC2","bufferView":2,"byteOffset":6272},{"name":"polygon2_1_0_indices","componentType":5123,"count":198,"min":[0],"max":[51],"type":"SCALAR","bufferView":3,"byteOffset":5772},{"name":"polygon3_1_0_positions","componentType":5126,"count":402,"min":[-8.614788055419922,4.849158763885498,-5.082367897033691],"max":[8.614788055419922,11.970369338989258,5.129125118255615],"type":"VEC3","bufferView":0,"byteOffset":10032},{"name":"polygon3_1_0_normals","componentType":5126,"count":402,"min":[-1,-0.8774536848068237,-1],"max":[1,1,1],"type":"VEC3","bufferView":1,"byteOffset":10032},{"name":"polygon3_1_0_texcoords","componentType":5126,"count":402,"min":[0.2356870025396347,0.01641800068318844],"max":[0.9834290146827698,0.9888309836387634],"type":"VEC2","bufferView":2,"byteOffset":6688},{"name":"polygon3_1_0_indices","componentType":5123,"count":1446,"min":[0],"max":[401],"type":"SCALAR","bufferView":3,"byteOffset":6168},{"name":"polygon4_1_0_positions","componentType":5126,"count":24,"min":[-10.961689949035645,-0.6266430020332336,-11.948787689208984],"max":[10.961689949035645,0.3243120014667511,8.805583953857422],"type":"VEC3","bufferView":0,"byteOffset":14856},{"name":"polygon4_1_0_normals","componentType":5126,"count":24,"min":[-0.4345150887966156,-0.5840660929679871,-0.8117061257362366],"max":[0.43451401591300964,-0.5757750868797302,0.6925891041755676],"type":"VEC3","bufferView":1,"byteOffset":14856},{"name":"polygon4_1_0_texcoords","componentType":5126,"count":24,"min":[0.20373499393463135,0.1307069957256317],"max":[0.7755740284919739,0.17770400643348694],"type":"VEC2","bufferView":2,"byteOffset":9904},{"name":"polygon4_1_0_indices","componentType":5123,"count":36,"min":[0],"max":[23],"type":"SCALAR","bufferView":3,"byteOffset":9060}],"asset":{"generator":"obj2gltf","version":"2.0"},"buffers":[{"name":"Magnezone","byteLength":395956,"uri":"data:application/octet-stream;base64,"}],"bufferViews":[{"name":"bufferView_0","buffer":0,"byteLength":15144,"byteOffset":0,"byteStride":12,"target":34962},{"name":"bufferView_1","buffer":0,"byteLength":15144,"byteOffset":15144,"byteStride":12,"target":34962},{"name":"bufferView_2","buffer":0,"byteLength":10096,"byteOffset":30288,"byteStride":8,"target":34962},{"name":"bufferView_3","buffer":0,"byteLength":9132,"byteOffset":40384,"target":34963},{"buffer":0,"byteOffset":49516,"byteLength":196626},{"buffer":0,"byteOffset":246142,"byteLength":49170},{"buffer":0,"byteOffset":295312,"byteLength":98322},{"buffer":0,"byteOffset":393634,"byteLength":2322}],"images":[{"name":"JibacoilCenterEyeDh","mimeType":"image/x-tga","bufferView":4},{"name":"JibacoilDh","mimeType":"image/x-tga","bufferView":5},{"name":"JibacoilEyeDh","mimeType":"image/x-tga","bufferView":6},{"name":"JibacoilFlashDh","mimeType":"image/x-tga","bufferView":7}],"materials":[{"name":"mat5","pbrMetallicRoughness":{"baseColorTexture":{"index":0},"baseColorFactor":[1,1,1,1],"metallicFactor":0,"roughnessFactor":0.99},"emissiveFactor":[0,0,0],"alphaMode":"OPAQUE","doubleSided":false},{"name":"mat1","pbrMetallicRoughness":{"baseColorTexture":{"index":1},"baseColorFactor":[1,1,1,1],"metallicFactor":0,"roughnessFactor":0.99},"emissiveFactor":[0,0,0],"alphaMode":"OPAQUE","doubleSided":false},{"name":"mat3","pbrMetallicRoughness":{"baseColorTexture":{"index":2},"baseColorFactor":[1,1,1,1],"metallicFactor":0,"roughnessFactor":0.99},"emissiveFactor":[0,0,0],"alphaMode":"OPAQUE","doubleSided":false},{"name":"mat2","pbrMetallicRoughness":{"baseColorTexture":{"index":1},"baseColorFactor":[1,1,1,1],"metallicFactor":0,"roughnessFactor":0.99},"emissiveFactor":[0,0,0],"alphaMode":"OPAQUE","doubleSided":false},{"name":"mat4","pbrMetallicRoughness":{"baseColorTexture":{"index":3},"baseColorFactor":[1,1,1,1],"metallicFactor":0,"roughnessFactor":0.99},"emissiveFactor":[0,0,0],"alphaMode":"OPAQUE","doubleSided":false}],"meshes":[{"name":"polygon0_1","primitives":[{"attributes":{"POSITION":0,"NORMAL":1,"TEXCOORD_0":2},"indices":3,"material":0,"mode":4}]},{"name":"polygon1_1","primitives":[{"attributes":{"POSITION":4,"NORMAL":5,"TEXCOORD_0":6},"indices":7,"material":1,"mode":4}]},{"name":"polygon2_1","primitives":[{"attributes":{"POSITION":8,"NORMAL":9,"TEXCOORD_0":10},"indices":11,"material":2,"mode":4}]},{"name":"polygon3_1","primitives":[{"attributes":{"POSITION":12,"NORMAL":13,"TEXCOORD_0":14},"indices":15,"material":3,"mode":4}]},{"name":"polygon4_1","primitives":[{"attributes":{"POSITION":16,"NORMAL":17,"TEXCOORD_0":18},"indices":19,"material":4,"mode":4}]}],"nodes":[{"name":"polygon0","mesh":0},{"name":"polygon1","mesh":1},{"name":"polygon2","mesh":2},{"name":"polygon3","mesh":3},{"name":"polygon4","mesh":4}],"samplers":[{"wrapS":10497,"wrapT":10497}],"scene":0,"scenes":[{"nodes":[0,1,2,3,4]}],"textures":[{"name":"JibacoilCenterEyeDh","sampler":0,"source":0},{"name":"JibacoilDh","sampler":0,"source":1},{"name":"JibacoilEyeDh","sampler":0,"source":2},{"name":"JibacoilFlashDh","sampler":0,"source":3}]}