{"accessors":[{"name":"berobelt-Mesh_0_positions","componentType":5126,"count":1644,"min":[-9.620901107788086,-14.608722686767578,-21.93576431274414],"max":[9.620901107788086,13.386439323425293,-0.015201999805867672],"type":"VEC3","bufferView":0,"byteOffset":0},{"name":"berobelt-Mesh_0_texcoords","componentType":5126,"count":1644,"min":[0.003932000137865543,0.008949999697506428],"max":[0.9755910038948059,0.9938300251960754],"type":"VEC2","bufferView":1,"byteOffset":0},{"name":"berobelt-Mesh_0_indices","componentType":5123,"count":8358,"min":[0],"max":[1643],"type":"SCALAR","bufferView":2,"byteOffset":0},{"name":"berobelt-Mesh_1_positions","componentType":5126,"count":16,"min":[-3.4767000675201416,1.5295259952545166,-17.681602478027344],"max":[3.4767000675201416,3.291121006011963,-16.49790382385254],"type":"VEC3","bufferView":0,"byteOffset":19728},{"name":"berobelt-Mesh_1_texcoords","componentType":5126,"count":16,"min":[0.751679003238678,0.09974399954080582],"max":[0.9711139798164368,0.2310190051794052],"type":"VEC2","bufferView":1,"byteOffset":13152},{"name":"berobelt-Mesh_1_indices","componentType":5123,"count":42,"min":[0],"max":[15],"type":"SCALAR","bufferView":2,"byteOffset":16716}],"asset":{"generator":"obj2gltf","version":"2.0"},"buffers":[{"name":"BR_Lickilicky-Shiny01","byteLength":1098596,"uri":"data:application/octet-stream;base64,"}],"bufferViews":[{"name":"bufferView_0","buffer":0,"byteLength":19920,"byteOffset":0,"byteStride":12,"target":34962},{"name":"bufferView_1","buffer":0,"byteLength":13280,"byteOffset":19920,"byteStride":8,"target":34962},{"name":"bufferView_2","buffer":0,"byteLength":16800,"byteOffset":33200,"target":34963},{"buffer":0,"byteOffset":50000,"byteLength":1048594}],"images":[{"name":"berobelt_1_0","mimeType":"image/x-tga","bufferView":3}],"materials":[{"name":"mat_0","pbrMetallicRoughness":{"baseColorTexture":{"index":0},"baseColorFactor":[1,1,1,1],"metallicFactor":0,"roughnessFactor":0.903921569},"emissiveFactor":[0,0,0],"alphaMode":"BLEND","doubleSided":true},{"name":"mat_1","pbrMetallicRoughness":{"baseColorTexture":{"index":0},"baseColorFactor":[1,1,1,1],"metallicFactor":0,"roughnessFactor":0.903921569},"emissiveFactor":[0,0,0],"alphaMode":"BLEND","doubleSided":true}],"meshes":[{"name":"berobelt-Mesh","primitives":[{"attributes":{"POSITION":0,"TEXCOORD_0":1},"indices":2,"material":0,"mode":4},{"attributes":{"POSITION":3,"TEXCOORD_0":4},"indices":5,"material":1,"mode":4}]}],"nodes":[{"name":"berobelt","mesh":0}],"samplers":[{"wrapS":10497,"wrapT":10497}],"scene":0,"scenes":[{"nodes":[0]}],"textures":[{"name":"berobelt_1_0","sampler":0,"source":0}]}