{"accessors":[{"name":"polygon0_1_0_positions","componentType":5126,"count":10,"min":[-3.49944806098938,19.28396987915039,8.92038345336914],"max":[3.49944806098938,21.18671226501465,11.830023765563965],"type":"VEC3","bufferView":0,"byteOffset":0},{"name":"polygon0_1_0_normals","componentType":5126,"count":10,"min":[-0.7860849499702454,0.4418409764766693,0.4322579801082611],"max":[0.7860849499702454,0.675171971321106,0.6994128227233887],"type":"VEC3","bufferView":1,"byteOffset":0},{"name":"polygon0_1_0_texcoords","componentType":5126,"count":10,"min":[-0.9805909991264343,0.03460700064897537],"max":[-0.5187990069389343,0.2279050052165985],"type":"VEC2","bufferView":2,"byteOffset":0},{"name":"polygon0_1_0_indices","componentType":5123,"count":18,"min":[0],"max":[9],"type":"SCALAR","bufferView":3,"byteOffset":0},{"name":"polygon1_1_0_positions","componentType":5126,"count":1569,"min":[-15.803536415100098,-0.29653701186180115,-20.384729385375977],"max":[15.803539276123047,26.195188522338867,16.989742279052734],"type":"VEC3","bufferView":0,"byteOffset":120},{"name":"polygon1_1_0_normals","componentType":5126,"count":1569,"min":[-0.9999675154685974,-0.9997678399085999,-1],"max":[0.9999992251396179,0.9978612065315247,1],"type":"VEC3","bufferView":1,"byteOffset":120},{"name":"polygon1_1_0_texcoords","componentType":5126,"count":1569,"min":[0.007019000127911568,0.006165000144392252],"max":[0.99822998046875,0.9923710227012634],"type":"VEC2","bufferView":2,"byteOffset":80},{"name":"polygon1_1_0_indices","componentType":5123,"count":4824,"min":[0],"max":[1568],"type":"SCALAR","bufferView":3,"byteOffset":36}],"asset":{"generator":"obj2gltf","version":"2.0"},"buffers":[{"name":"Rhyperior","byteLength":600920,"uri":"data:application/octet-stream;base64,"}],"bufferViews":[{"name":"bufferView_0","buffer":0,"byteLength":18948,"byteOffset":0,"byteStride":12,"target":34962},{"name":"bufferView_1","buffer":0,"byteLength":18948,"byteOffset":18948,"byteStride":12,"target":34962},{"name":"bufferView_2","buffer":0,"byteLength":12632,"byteOffset":37896,"byteStride":8,"target":34962},{"name":"bufferView_3","buffer":0,"byteLength":9684,"byteOffset":50528,"target":34963},{"buffer":0,"byteOffset":60212,"byteLength":98322},{"buffer":0,"byteOffset":158534,"byteLength":442386}],"images":[{"name":"DosidonEyeDh","mimeType":"image/x-tga","bufferView":4},{"name":"DosidonDh","mimeType":"image/x-tga","bufferView":5}],"materials":[{"name":"mat2","pbrMetallicRoughness":{"baseColorTexture":{"index":0},"baseColorFactor":[1,1,1,1],"metallicFactor":0,"roughnessFactor":0.99},"emissiveFactor":[0,0,0],"alphaMode":"OPAQUE","doubleSided":false},{"name":"mat1","pbrMetallicRoughness":{"baseColorTexture":{"index":1},"baseColorFactor":[1,1,1,1],"metallicFactor":0,"roughnessFactor":0.99},"emissiveFactor":[0,0,0],"alphaMode":"OPAQUE","doubleSided":false}],"meshes":[{"name":"polygon0_1","primitives":[{"attributes":{"POSITION":0,"NORMAL":1,"TEXCOORD_0":2},"indices":3,"material":0,"mode":4}]},{"name":"polygon1_1","primitives":[{"attributes":{"POSITION":4,"NORMAL":5,"TEXCOORD_0":6},"indices":7,"material":1,"mode":4}]}],"nodes":[{"name":"polygon0","mesh":0},{"name":"polygon1","mesh":1}],"samplers":[{"wrapS":10497,"wrapT":10497}],"scene":0,"scenes":[{"nodes":[0,1]}],"textures":[{"name":"DosidonEyeDh","sampler":0,"source":0},{"name":"DosidonDh","sampler":0,"source":1}]}