{"accessors":[{"name":"polygon0_1_0_positions","componentType":5126,"count":14,"min":[-2.2758800983428955,11.456482887268066,6.888947010040283],"max":[2.176248073577881,14.88778018951416,7.50308895111084],"type":"VEC3","bufferView":0,"byteOffset":0},{"name":"polygon0_1_0_normals","componentType":5126,"count":14,"min":[0,0.1720009595155716,0.9850967526435852],"max":[0,0.1720009595155716,0.9850967526435852],"type":"VEC3","bufferView":1,"byteOffset":0},{"name":"polygon0_1_0_texcoords","componentType":5126,"count":14,"min":[-0.9008179903030396,0.0114139998331666],"max":[-0.5897219777107239,0.23675499856472015],"type":"VEC2","bufferView":2,"byteOffset":0},{"name":"polygon0_1_0_indices","componentType":5123,"count":36,"min":[0],"max":[13],"type":"SCALAR","bufferView":3,"byteOffset":0},{"name":"polygon1_1_0_positions","componentType":5126,"count":1217,"min":[-26.472139358520508,0.02214300073683262,-9.760770797729492],"max":[26.47214126586914,19.28708839416504,10.178906440734863],"type":"VEC3","bufferView":0,"byteOffset":168},{"name":"polygon1_1_0_normals","componentType":5126,"count":1217,"min":[-0.999505877494812,-1,-0.998788595199585],"max":[0.999505877494812,0.999998927116394,0.999442994594574],"type":"VEC3","bufferView":1,"byteOffset":168},{"name":"polygon1_1_0_texcoords","componentType":5126,"count":1217,"min":[0.008635999634861946,0.012268000282347202],"max":[0.9938960075378418,0.9891359806060791],"type":"VEC2","bufferView":2,"byteOffset":112},{"name":"polygon1_1_0_indices","componentType":5123,"count":4914,"min":[0],"max":[1216],"type":"SCALAR","bufferView":3,"byteOffset":72}],"asset":{"generator":"obj2gltf","version":"2.0"},"buffers":[{"name":"Tangrowth","byteLength":344240,"uri":"data:application/octet-stream;base64,"}],"bufferViews":[{"name":"bufferView_0","buffer":0,"byteLength":14772,"byteOffset":0,"byteStride":12,"target":34962},{"name":"bufferView_1","buffer":0,"byteLength":14772,"byteOffset":14772,"byteStride":12,"target":34962},{"name":"bufferView_2","buffer":0,"byteLength":9848,"byteOffset":29544,"byteStride":8,"target":34962},{"name":"bufferView_3","buffer":0,"byteLength":9900,"byteOffset":39392,"target":34963},{"buffer":0,"byteOffset":49292,"byteLength":98322},{"buffer":0,"byteOffset":147614,"byteLength":196626}],"images":[{"name":"MojumboEyeDh","mimeType":"image/x-tga","bufferView":4},{"name":"MojumboDh","mimeType":"image/x-tga","bufferView":5}],"materials":[{"name":"mat2","pbrMetallicRoughness":{"baseColorTexture":{"index":0},"baseColorFactor":[1,1,1,1],"metallicFactor":0,"roughnessFactor":0.99},"emissiveFactor":[0,0,0],"alphaMode":"OPAQUE","doubleSided":false},{"name":"mat1","pbrMetallicRoughness":{"baseColorTexture":{"index":1},"baseColorFactor":[1,1,1,1],"metallicFactor":0,"roughnessFactor":0.99},"emissiveFactor":[0,0,0],"alphaMode":"OPAQUE","doubleSided":false}],"meshes":[{"name":"polygon0_1","primitives":[{"attributes":{"POSITION":0,"NORMAL":1,"TEXCOORD_0":2},"indices":3,"material":0,"mode":4}]},{"name":"polygon1_1","primitives":[{"attributes":{"POSITION":4,"NORMAL":5,"TEXCOORD_0":6},"indices":7,"material":1,"mode":4}]}],"nodes":[{"name":"polygon0","mesh":0},{"name":"polygon1","mesh":1}],"samplers":[{"wrapS":10497,"wrapT":10497}],"scene":0,"scenes":[{"nodes":[0,1]}],"textures":[{"name":"MojumboEyeDh","sampler":0,"source":0},{"name":"MojumboDh","sampler":0,"source":1}]}