{"accessors":[{"name":"polygon0_1_0_positions","componentType":5126,"count":12,"min":[-1.8869049549102783,12.509830474853516,3.6572821140289307],"max":[1.8869049549102783,13.52734661102295,4.395398139953613],"type":"VEC3","bufferView":0,"byteOffset":0},{"name":"polygon0_1_0_normals","componentType":5126,"count":12,"min":[-0.5048292279243469,0.00598199712112546,0.8180032968521118],"max":[0.5048292279243469,0.3247111141681671,0.9262666702270508],"type":"VEC3","bufferView":1,"byteOffset":0},{"name":"polygon0_1_0_texcoords","componentType":5126,"count":12,"min":[0.019531000405550003,0.011718999594449997],"max":[0.484375,0.2421869933605194],"type":"VEC2","bufferView":2,"byteOffset":0},{"name":"polygon0_1_0_indices","componentType":5123,"count":24,"min":[0],"max":[11],"type":"SCALAR","bufferView":3,"byteOffset":0},{"name":"polygon1_1_0_positions","componentType":5126,"count":1358,"min":[-11.700101852416992,-0.00803299993276596,-20.87884521484375],"max":[11.700100898742676,17.497722625732422,4.597822189331055],"type":"VEC3","bufferView":0,"byteOffset":144},{"name":"polygon1_1_0_normals","componentType":5126,"count":1358,"min":[-1,-1,-0.9997609257698059],"max":[0.9999533891677856,0.9999997615814209,0.9999974370002747],"type":"VEC3","bufferView":1,"byteOffset":144},{"name":"polygon1_1_0_texcoords","componentType":5126,"count":1358,"min":[0.006804999895393848,0.011687999591231346],"max":[0.9926760196685791,0.9965819716453552],"type":"VEC2","bufferView":2,"byteOffset":96},{"name":"polygon1_1_0_indices","componentType":5123,"count":4782,"min":[0],"max":[1357],"type":"SCALAR","bufferView":3,"byteOffset":48}],"asset":{"generator":"obj2gltf","version":"2.0"},"buffers":[{"name":"P2_Electivire","byteLength":348400,"uri":"data:application/octet-stream;base64,"}],"bufferViews":[{"name":"bufferView_0","buffer":0,"byteLength":16440,"byteOffset":0,"byteStride":12,"target":34962},{"name":"bufferView_1","buffer":0,"byteLength":16440,"byteOffset":16440,"byteStride":12,"target":34962},{"name":"bufferView_2","buffer":0,"byteLength":10960,"byteOffset":32880,"byteStride":8,"target":34962},{"name":"bufferView_3","buffer":0,"byteLength":9612,"byteOffset":43840,"target":34963},{"buffer":0,"byteOffset":53452,"byteLength":98322},{"buffer":0,"byteOffset":151774,"byteLength":196626}],"images":[{"name":"ElekibleEyeDh","mimeType":"image/x-tga","bufferView":4},{"name":"ElekibleDh","mimeType":"image/x-tga","bufferView":5}],"materials":[{"name":"mat2","pbrMetallicRoughness":{"baseColorTexture":{"index":0},"baseColorFactor":[1,1,1,1],"metallicFactor":0,"roughnessFactor":0.99},"emissiveFactor":[0,0,0],"alphaMode":"OPAQUE","doubleSided":false},{"name":"mat1","pbrMetallicRoughness":{"baseColorTexture":{"index":1},"baseColorFactor":[1,1,1,1],"metallicFactor":0,"roughnessFactor":0.99},"emissiveFactor":[0,0,0],"alphaMode":"OPAQUE","doubleSided":false}],"meshes":[{"name":"polygon0_1","primitives":[{"attributes":{"POSITION":0,"NORMAL":1,"TEXCOORD_0":2},"indices":3,"material":0,"mode":4}]},{"name":"polygon1_1","primitives":[{"attributes":{"POSITION":4,"NORMAL":5,"TEXCOORD_0":6},"indices":7,"material":1,"mode":4}]}],"nodes":[{"name":"polygon0","mesh":0},{"name":"polygon1","mesh":1}],"samplers":[{"wrapS":10497,"wrapT":10497}],"scene":0,"scenes":[{"nodes":[0,1]}],"textures":[{"name":"ElekibleEyeDh","sampler":0,"source":0},{"name":"ElekibleDh","sampler":0,"source":1}]}