{"accessors":[{"name":"polygon0_1_0_positions","componentType":5126,"count":14,"min":[-1.2245440483093262,9.972071647644043,1.9170759916305542],"max":[1.2245440483093262,10.825790405273438,2.927854061126709],"type":"VEC3","bufferView":0,"byteOffset":0},{"name":"polygon0_1_0_normals","componentType":5126,"count":14,"min":[-0.7900350689888,-0.7932929992675781,0.3665020167827606],"max":[0.7900350689888,0.47741013765335083,0.9617493152618408],"type":"VEC3","bufferView":1,"byteOffset":0},{"name":"polygon0_1_0_texcoords","componentType":5126,"count":14,"min":[0.015625,0.015625],"max":[0.484375,0.234375],"type":"VEC2","bufferView":2,"byteOffset":0},{"name":"polygon0_1_0_indices","componentType":5123,"count":36,"min":[0],"max":[13],"type":"SCALAR","bufferView":3,"byteOffset":0},{"name":"polygon1_1_0_positions","componentType":5126,"count":1235,"min":[-8.231776237487793,-9.999999974752427e-7,-10.824530601501465],"max":[8.231776237487793,14.916812896728516,8.33108139038086],"type":"VEC3","bufferView":0,"byteOffset":168},{"name":"polygon1_1_0_normals","componentType":5126,"count":1235,"min":[-0.9999280571937561,-0.9992319345474243,-0.9999876022338867],"max":[0.9999281167984009,0.9986693263053894,1],"type":"VEC3","bufferView":1,"byteOffset":168},{"name":"polygon1_1_0_texcoords","componentType":5126,"count":1235,"min":[0.004211000166833401,0.005096000153571367],"max":[0.9990230202674866,0.9943240284919739],"type":"VEC2","bufferView":2,"byteOffset":112},{"name":"polygon1_1_0_indices","componentType":5123,"count":4518,"min":[0],"max":[1234],"type":"SCALAR","bufferView":3,"byteOffset":72},{"name":"polygon2_1_0_positions","componentType":5126,"count":267,"min":[-8.284097671508789,1.9844690561294556,-10.861628532409668],"max":[8.267903327941895,14.954853057861328,3.215938091278076],"type":"VEC3","bufferView":0,"byteOffset":14988},{"name":"polygon2_1_0_normals","componentType":5126,"count":267,"min":[-0.9933894872665405,-0.9644767045974731,-0.9786882400512695],"max":[0.9946901202201843,0.9978965520858765,0.9912020564079285],"type":"VEC3","bufferView":1,"byteOffset":14988},{"name":"polygon2_1_0_texcoords","componentType":5126,"count":267,"min":[-0.6099849939346313,0.026611000299453735],"max":[2.5521240234375,0.9677730202674866],"type":"VEC2","bufferView":2,"byteOffset":9992},{"name":"polygon2_1_0_indices","componentType":5123,"count":1188,"min":[0],"max":[266],"type":"SCALAR","bufferView":3,"byteOffset":9108},{"name":"polygon5_1_0_positions","componentType":5126,"count":4,"min":[-2.547868013381958,11.631973266601562,1.1815719604492188],"max":[2.547868013381958,15.861330032348633,1.1815719604492188],"type":"VEC3","bufferView":0,"byteOffset":18192},{"name":"polygon5_1_0_normals","componentType":5126,"count":4,"min":[0,0,1],"max":[0,0,1],"type":"VEC3","bufferView":1,"byteOffset":18192},{"name":"polygon5_1_0_texcoords","componentType":5126,"count":4,"min":[0.5,0],"max":[0.5,1],"type":"VEC2","bufferView":2,"byteOffset":12128},{"name":"polygon5_1_0_indices","componentType":5123,"count":6,"min":[0],"max":[3],"type":"SCALAR","bufferView":3,"byteOffset":11484},{"name":"polygon6_1_0_positions","componentType":5126,"count":4,"min":[-3.5857620239257812,9.737285614013672,1.657438039779663],"max":[3.5857620239257812,15.689504623413086,1.657438039779663],"type":"VEC3","bufferView":0,"byteOffset":18240},{"name":"polygon6_1_0_normals","componentType":5126,"count":4,"min":[0,0,1],"max":[0,0,1],"type":"VEC3","bufferView":1,"byteOffset":18240},{"name":"polygon6_1_0_texcoords","componentType":5126,"count":4,"min":[0.5,0],"max":[0.5,1],"type":"VEC2","bufferView":2,"byteOffset":12160},{"name":"polygon6_1_0_indices","componentType":5123,"count":6,"min":[0],"max":[3],"type":"SCALAR","bufferView":3,"byteOffset":11496},{"name":"polygon7_1_0_positions","componentType":5126,"count":4,"min":[2.5694398880004883,9.16659164428711,0.28208601474761963],"max":[9.128660202026367,14.610611915588379,0.28208601474761963],"type":"VEC3","bufferView":0,"byteOffset":18288},{"name":"polygon7_1_0_normals","componentType":5126,"count":4,"min":[0,0,1],"max":[0,0,1],"type":"VEC3","bufferView":1,"byteOffset":18288},{"name":"polygon7_1_0_texcoords","componentType":5126,"count":4,"min":[0.5,0],"max":[0.5,1],"type":"VEC2","bufferView":2,"byteOffset":12192},{"name":"polygon7_1_0_indices","componentType":5123,"count":6,"min":[0],"max":[3],"type":"SCALAR","bufferView":3,"byteOffset":11508},{"name":"polygon8_1_0_positions","componentType":5126,"count":4,"min":[5.749118804931641,11.156913757324219,-0.17574399709701538],"max":[10.714434623718262,15.278024673461914,-0.17574399709701538],"type":"VEC3","bufferView":0,"byteOffset":18336},{"name":"polygon8_1_0_normals","componentType":5126,"count":4,"min":[0,0,1],"max":[0,0,1],"type":"VEC3","bufferView":1,"byteOffset":18336},{"name":"polygon8_1_0_texcoords","componentType":5126,"count":4,"min":[0.5,0],"max":[0.5,1],"type":"VEC2","bufferView":2,"byteOffset":12224},{"name":"polygon8_1_0_indices","componentType":5123,"count":6,"min":[0],"max":[3],"type":"SCALAR","bufferView":3,"byteOffset":11520},{"name":"polygon9_1_0_positions","componentType":5126,"count":4,"min":[4.478879928588867,10.448474884033203,-0.17574399709701538],"max":[9.444195747375488,14.569585800170898,-0.17574399709701538],"type":"VEC3","bufferView":0,"byteOffset":18384},{"name":"polygon9_1_0_normals","componentType":5126,"count":4,"min":[0,0,1],"max":[0,0,1],"type":"VEC3","bufferView":1,"byteOffset":18384},{"name":"polygon9_1_0_texcoords","componentType":5126,"count":4,"min":[0.5,0],"max":[0.5,1],"type":"VEC2","bufferView":2,"byteOffset":12256},{"name":"polygon9_1_0_indices","componentType":5123,"count":6,"min":[0],"max":[3],"type":"SCALAR","bufferView":3,"byteOffset":11532},{"name":"polygon10_1_0_positions","componentType":5126,"count":4,"min":[4.949386119842529,9.604852676391602,-0.17574399709701538],"max":[9.914701461791992,13.725963592529297,-0.17574399709701538],"type":"VEC3","bufferView":0,"byteOffset":18432},{"name":"polygon10_1_0_normals","componentType":5126,"count":4,"min":[0,0,1],"max":[0,0,1],"type":"VEC3","bufferView":1,"byteOffset":18432},{"name":"polygon10_1_0_texcoords","componentType":5126,"count":4,"min":[0.5,0],"max":[0.5,1],"type":"VEC2","bufferView":2,"byteOffset":12288},{"name":"polygon10_1_0_indices","componentType":5123,"count":6,"min":[0],"max":[3],"type":"SCALAR","bufferView":3,"byteOffset":11544},{"name":"polygon11_1_0_positions","componentType":5126,"count":4,"min":[-1.3536059856414795,6.453070163726807,0.28208601474761963],"max":[9.310586929321289,15.304133415222168,0.28208601474761963],"type":"VEC3","bufferView":0,"byteOffset":18480},{"name":"polygon11_1_0_normals","componentType":5126,"count":4,"min":[0,0,1],"max":[0,0,1],"type":"VEC3","bufferView":1,"byteOffset":18480},{"name":"polygon11_1_0_texcoords","componentType":5126,"count":4,"min":[0.5,0],"max":[0.5,1],"type":"VEC2","bufferView":2,"byteOffset":12320},{"name":"polygon11_1_0_indices","componentType":5123,"count":6,"min":[0],"max":[3],"type":"SCALAR","bufferView":3,"byteOffset":11556},{"name":"polygon12_1_0_positions","componentType":5126,"count":4,"min":[-0.32258498668670654,7.219162940979004,0.28208601474761963],"max":[6.339284896850586,12.748379707336426,0.28208601474761963],"type":"VEC3","bufferView":0,"byteOffset":18528},{"name":"polygon12_1_0_normals","componentType":5126,"count":4,"min":[0,0,1],"max":[0,0,1],"type":"VEC3","bufferView":1,"byteOffset":18528},{"name":"polygon12_1_0_texcoords","componentType":5126,"count":4,"min":[0.5,0],"max":[0.5,1],"type":"VEC2","bufferView":2,"byteOffset":12352},{"name":"polygon12_1_0_indices","componentType":5123,"count":6,"min":[0],"max":[3],"type":"SCALAR","bufferView":3,"byteOffset":11568},{"name":"polygon13_1_0_positions","componentType":5126,"count":4,"min":[-9.101664543151855,9.189000129699707,0.28208601474761963],"max":[-2.5964279174804688,14.588215827941895,0.28208601474761963],"type":"VEC3","bufferView":0,"byteOffset":18576},{"name":"polygon13_1_0_normals","componentType":5126,"count":4,"min":[0,0,1],"max":[0,0,1],"type":"VEC3","bufferView":1,"byteOffset":18576},{"name":"polygon13_1_0_texcoords","componentType":5126,"count":4,"min":[0.5,0],"max":[0.5,1],"type":"VEC2","bufferView":2,"byteOffset":12384},{"name":"polygon13_1_0_indices","componentType":5123,"count":6,"min":[0],"max":[3],"type":"SCALAR","bufferView":3,"byteOffset":11580},{"name":"polygon14_1_0_positions","componentType":5126,"count":4,"min":[-10.88070297241211,11.018914222717285,-0.17574399709701538],"max":[-5.582850933074951,15.416024208068848,-0.17574399709701538],"type":"VEC3","bufferView":0,"byteOffset":18624},{"name":"polygon14_1_0_normals","componentType":5126,"count":4,"min":[0,0,1],"max":[0,0,1],"type":"VEC3","bufferView":1,"byteOffset":18624},{"name":"polygon14_1_0_texcoords","componentType":5126,"count":4,"min":[0.5,0],"max":[0.5,1],"type":"VEC2","bufferView":2,"byteOffset":12416},{"name":"polygon14_1_0_indices","componentType":5123,"count":6,"min":[0],"max":[3],"type":"SCALAR","bufferView":3,"byteOffset":11592},{"name":"polygon15_1_0_positions","componentType":5126,"count":4,"min":[-9.591931343078613,10.30016040802002,-0.17574399709701538],"max":[-4.294078826904297,14.697270393371582,-0.17574399709701538],"type":"VEC3","bufferView":0,"byteOffset":18672},{"name":"polygon15_1_0_normals","componentType":5126,"count":4,"min":[0,0,1],"max":[0,0,1],"type":"VEC3","bufferView":1,"byteOffset":18672},{"name":"polygon15_1_0_texcoords","componentType":5126,"count":4,"min":[0.5,0],"max":[0.5,1],"type":"VEC2","bufferView":2,"byteOffset":12448},{"name":"polygon15_1_0_indices","componentType":5123,"count":6,"min":[0],"max":[3],"type":"SCALAR","bufferView":3,"byteOffset":11604},{"name":"polygon16_1_0_positions","componentType":5126,"count":4,"min":[-9.968620300292969,9.486708641052246,-0.17574399709701538],"max":[-4.670767784118652,13.883818626403809,-0.17574399709701538],"type":"VEC3","bufferView":0,"byteOffset":18720},{"name":"polygon16_1_0_normals","componentType":5126,"count":4,"min":[0,0,1],"max":[0,0,1],"type":"VEC3","bufferView":1,"byteOffset":18720},{"name":"polygon16_1_0_texcoords","componentType":5126,"count":4,"min":[0.5,0],"max":[0.5,1],"type":"VEC2","bufferView":2,"byteOffset":12480},{"name":"polygon16_1_0_indices","componentType":5123,"count":6,"min":[0],"max":[3],"type":"SCALAR","bufferView":3,"byteOffset":11616},{"name":"polygon17_1_0_positions","componentType":5126,"count":4,"min":[-9.268800735473633,6.487730026245117,0.28208601474761963],"max":[1.3118289709091187,15.269437789916992,0.28208601474761963],"type":"VEC3","bufferView":0,"byteOffset":18768},{"name":"polygon17_1_0_normals","componentType":5126,"count":4,"min":[0,0,1],"max":[0,0,1],"type":"VEC3","bufferView":1,"byteOffset":18768},{"name":"polygon17_1_0_texcoords","componentType":5126,"count":4,"min":[0.5,0],"max":[0.5,1],"type":"VEC2","bufferView":2,"byteOffset":12512},{"name":"polygon17_1_0_indices","componentType":5123,"count":6,"min":[0],"max":[3],"type":"SCALAR","bufferView":3,"byteOffset":11628},{"name":"polygon18_1_0_positions","componentType":5126,"count":4,"min":[-6.323762893676758,7.232039928436279,0.28208601474761963],"max":[0.3070710003376007,12.735498428344727,0.28208601474761963],"type":"VEC3","bufferView":0,"byteOffset":18816},{"name":"polygon18_1_0_normals","componentType":5126,"count":4,"min":[0,0,1],"max":[0,0,1],"type":"VEC3","bufferView":1,"byteOffset":18816},{"name":"polygon18_1_0_texcoords","componentType":5126,"count":4,"min":[0.5,0],"max":[0.5,1],"type":"VEC2","bufferView":2,"byteOffset":12544},{"name":"polygon18_1_0_indices","componentType":5123,"count":6,"min":[0],"max":[3],"type":"SCALAR","bufferView":3,"byteOffset":11640},{"name":"polygon19_1_0_positions","componentType":5126,"count":4,"min":[-3.0114800930023193,5.08829402923584,-10.824530601501465],"max":[1.783545970916748,9.068069458007812,-10.824530601501465],"type":"VEC3","bufferView":0,"byteOffset":18864},{"name":"polygon19_1_0_normals","componentType":5126,"count":4,"min":[0,0,1],"max":[0,0,1],"type":"VEC3","bufferView":1,"byteOffset":18864},{"name":"polygon19_1_0_texcoords","componentType":5126,"count":4,"min":[0.5,0],"max":[0.5,1],"type":"VEC2","bufferView":2,"byteOffset":12576},{"name":"polygon19_1_0_indices","componentType":5123,"count":6,"min":[0],"max":[3],"type":"SCALAR","bufferView":3,"byteOffset":11652},{"name":"polygon20_1_0_positions","componentType":5126,"count":4,"min":[-4.316165924072266,3.678972005844116,-9.04041862487793],"max":[4.316165924072266,10.843632698059082,-9.04041862487793],"type":"VEC3","bufferView":0,"byteOffset":18912},{"name":"polygon20_1_0_normals","componentType":5126,"count":4,"min":[0,0,1],"max":[0,0,1],"type":"VEC3","bufferView":1,"byteOffset":18912},{"name":"polygon20_1_0_texcoords","componentType":5126,"count":4,"min":[0.5,0],"max":[0.5,1],"type":"VEC2","bufferView":2,"byteOffset":12608},{"name":"polygon20_1_0_indices","componentType":5123,"count":6,"min":[0],"max":[3],"type":"SCALAR","bufferView":3,"byteOffset":11664},{"name":"polygon21_1_0_positions","componentType":5126,"count":4,"min":[-4.835165977478027,2.351771116256714,-6.697701930999756],"max":[4.835165977478027,10.377952575683594,-6.697701930999756],"type":"VEC3","bufferView":0,"byteOffset":18960},{"name":"polygon21_1_0_normals","componentType":5126,"count":4,"min":[0,0,1],"max":[0,0,1],"type":"VEC3","bufferView":1,"byteOffset":18960},{"name":"polygon21_1_0_texcoords","componentType":5126,"count":4,"min":[0.5,0],"max":[0.5,1],"type":"VEC2","bufferView":2,"byteOffset":12640},{"name":"polygon21_1_0_indices","componentType":5123,"count":6,"min":[0],"max":[3],"type":"SCALAR","bufferView":3,"byteOffset":11676},{"name":"polygon22_1_0_positions","componentType":5126,"count":4,"min":[-3.8241379261016846,0.06980299949645996,-5.609218120574951],"max":[3.8241379261016846,8.509965896606445,-5.609217166900635],"type":"VEC3","bufferView":0,"byteOffset":19008},{"name":"polygon22_1_0_normals","componentType":5126,"count":4,"min":[0,0,1],"max":[0,0,1],"type":"VEC3","bufferView":1,"byteOffset":19008},{"name":"polygon22_1_0_texcoords","componentType":5126,"count":4,"min":[0.5,0],"max":[0.5,1],"type":"VEC2","bufferView":2,"byteOffset":12672},{"name":"polygon22_1_0_indices","componentType":5123,"count":6,"min":[0],"max":[3],"type":"SCALAR","bufferView":3,"byteOffset":11688},{"name":"polygon23_1_0_positions","componentType":5126,"count":4,"min":[-6.071255207061768,-0.8452739715576172,-3.6322529315948486],"max":[6.071255207061768,9.232763290405273,-3.6322529315948486],"type":"VEC3","bufferView":0,"byteOffset":19056},{"name":"polygon23_1_0_normals","componentType":5126,"count":4,"min":[0,0,1],"max":[0,0,1],"type":"VEC3","bufferView":1,"byteOffset":19056},{"name":"polygon23_1_0_texcoords","componentType":5126,"count":4,"min":[0.5,0],"max":[0.5,1],"type":"VEC2","bufferView":2,"byteOffset":12704},{"name":"polygon23_1_0_indices","componentType":5123,"count":6,"min":[0],"max":[3],"type":"SCALAR","bufferView":3,"byteOffset":11700}],"asset":{"generator":"obj2gltf","version":"2.0"},"buffers":[{"name":"P2_Magmortar","byteLength":378120,"uri":"data:application/octet-stream;base64,"}],"bufferViews":[{"name":"bufferView_0","buffer":0,"byteLength":19104,"byteOffset":0,"byteStride":12,"target":34962},{"name":"bufferView_1","buffer":0,"byteLength":19104,"byteOffset":19104,"byteStride":12,"target":34962},{"name":"bufferView_2","buffer":0,"byteLength":12736,"byteOffset":38208,"byteStride":8,"target":34962},{"name":"bufferView_3","buffer":0,"byteLength":11712,"byteOffset":50944,"target":34963},{"buffer":0,"byteOffset":62656,"byteLength":98322},{"buffer":0,"byteOffset":160978,"byteLength":196626},{"buffer":0,"byteOffset":357604,"byteLength":16402},{"buffer":0,"byteOffset":374006,"byteLength":4114}],"images":[{"name":"BooburnEyeDh","mimeType":"image/x-tga","bufferView":4},{"name":"BooburnDh","mimeType":"image/x-tga","bufferView":5},{"name":"BooburnCDh","mimeType":"image/x-tga","bufferView":6},{"name":"BooburnGlowAnimDh","mimeType":"image/x-tga","bufferView":7}],"materials":[{"name":"mat3","pbrMetallicRoughness":{"baseColorTexture":{"index":0},"baseColorFactor":[1,1,1,1],"metallicFactor":0,"roughnessFactor":0.99},"emissiveFactor":[0,0,0],"alphaMode":"OPAQUE","doubleSided":false},{"name":"mat1","pbrMetallicRoughness":{"baseColorTexture":{"index":1},"baseColorFactor":[1,1,1,1],"metallicFactor":0,"roughnessFactor":0.99},"emissiveFactor":[0,0,0],"alphaMode":"OPAQUE","doubleSided":false},{"name":"mat2","pbrMetallicRoughness":{"baseColorTexture":{"index":2},"baseColorFactor":[1,1,1,1],"metallicFactor":0,"roughnessFactor":0.99},"emissiveFactor":[0,0,0],"alphaMode":"OPAQUE","doubleSided":false},{"name":"mat4","pbrMetallicRoughness":{"baseColorTexture":{"index":3},"baseColorFactor":[1,1,1,1],"metallicFactor":0,"roughnessFactor":0.99},"emissiveFactor":[0,0,0],"alphaMode":"OPAQUE","doubleSided":false}],"meshes":[{"name":"polygon0_1","primitives":[{"attributes":{"POSITION":0,"NORMAL":1,"TEXCOORD_0":2},"indices":3,"material":0,"mode":4}]},{"name":"polygon1_1","primitives":[{"attributes":{"POSITION":4,"NORMAL":5,"TEXCOORD_0":6},"indices":7,"material":1,"mode":4}]},{"name":"polygon2_1","primitives":[{"attributes":{"POSITION":8,"NORMAL":9,"TEXCOORD_0":10},"indices":11,"material":2,"mode":4}]},{"name":"polygon5_1","primitives":[{"attributes":{"POSITION":12,"NORMAL":13,"TEXCOORD_0":14},"indices":15,"material":3,"mode":4}]},{"name":"polygon6_1","primitives":[{"attributes":{"POSITION":16,"NORMAL":17,"TEXCOORD_0":18},"indices":19,"material":3,"mode":4}]},{"name":"polygon7_1","primitives":[{"attributes":{"POSITION":20,"NORMAL":21,"TEXCOORD_0":22},"indices":23,"material":3,"mode":4}]},{"name":"polygon8_1","primitives":[{"attributes":{"POSITION":24,"NORMAL":25,"TEXCOORD_0":26},"indices":27,"material":3,"mode":4}]},{"name":"polygon9_1","primitives":[{"attributes":{"POSITION":28,"NORMAL":29,"TEXCOORD_0":30},"indices":31,"material":3,"mode":4}]},{"name":"polygon10_1","primitives":[{"attributes":{"POSITION":32,"NORMAL":33,"TEXCOORD_0":34},"indices":35,"material":3,"mode":4}]},{"name":"polygon11_1","primitives":[{"attributes":{"POSITION":36,"NORMAL":37,"TEXCOORD_0":38},"indices":39,"material":3,"mode":4}]},{"name":"polygon12_1","primitives":[{"attributes":{"POSITION":40,"NORMAL":41,"TEXCOORD_0":42},"indices":43,"material":3,"mode":4}]},{"name":"polygon13_1","primitives":[{"attributes":{"POSITION":44,"NORMAL":45,"TEXCOORD_0":46},"indices":47,"material":3,"mode":4}]},{"name":"polygon14_1","primitives":[{"attributes":{"POSITION":48,"NORMAL":49,"TEXCOORD_0":50},"indices":51,"material":3,"mode":4}]},{"name":"polygon15_1","primitives":[{"attributes":{"POSITION":52,"NORMAL":53,"TEXCOORD_0":54},"indices":55,"material":3,"mode":4}]},{"name":"polygon16_1","primitives":[{"attributes":{"POSITION":56,"NORMAL":57,"TEXCOORD_0":58},"indices":59,"material":3,"mode":4}]},{"name":"polygon17_1","primitives":[{"attributes":{"POSITION":60,"NORMAL":61,"TEXCOORD_0":62},"indices":63,"material":3,"mode":4}]},{"name":"polygon18_1","primitives":[{"attributes":{"POSITION":64,"NORMAL":65,"TEXCOORD_0":66},"indices":67,"material":3,"mode":4}]},{"name":"polygon19_1","primitives":[{"attributes":{"POSITION":68,"NORMAL":69,"TEXCOORD_0":70},"indices":71,"material":3,"mode":4}]},{"name":"polygon20_1","primitives":[{"attributes":{"POSITION":72,"NORMAL":73,"TEXCOORD_0":74},"indices":75,"material":3,"mode":4}]},{"name":"polygon21_1","primitives":[{"attributes":{"POSITION":76,"NORMAL":77,"TEXCOORD_0":78},"indices":79,"material":3,"mode":4}]},{"name":"polygon22_1","primitives":[{"attributes":{"POSITION":80,"NORMAL":81,"TEXCOORD_0":82},"indices":83,"material":3,"mode":4}]},{"name":"polygon23_1","primitives":[{"attributes":{"POSITION":84,"NORMAL":85,"TEXCOORD_0":86},"indices":87,"material":3,"mode":4}]}],"nodes":[{"name":"polygon0","mesh":0},{"name":"polygon1","mesh":1},{"name":"polygon2","mesh":2},{"name":"polygon5","mesh":3},{"name":"polygon6","mesh":4},{"name":"polygon7","mesh":5},{"name":"polygon8","mesh":6},{"name":"polygon9","mesh":7},{"name":"polygon10","mesh":8},{"name":"polygon11","mesh":9},{"name":"polygon12","mesh":10},{"name":"polygon13","mesh":11},{"name":"polygon14","mesh":12},{"name":"polygon15","mesh":13},{"name":"polygon16","mesh":14},{"name":"polygon17","mesh":15},{"name":"polygon18","mesh":16},{"name":"polygon19","mesh":17},{"name":"polygon20","mesh":18},{"name":"polygon21","mesh":19},{"name":"polygon22","mesh":20},{"name":"polygon23","mesh":21}],"samplers":[{"wrapS":10497,"wrapT":10497}],"scene":0,"scenes":[{"nodes":[0,1,2,3,4,5,6,7,8,9,10,11,12,13,14,15,16,17,18,19,20,21]}],"textures":[{"name":"BooburnEyeDh","sampler":0,"source":0},{"name":"BooburnDh","sampler":0,"source":1},{"name":"BooburnCDh","sampler":0,"source":2},{"name":"BooburnGlowAnimDh","sampler":0,"source":3}]}