{"accessors":[{"name":"polygon0_1_0_positions","componentType":5126,"count":17,"min":[-1.1616569757461548,5.62311315536499,4.665338039398193],"max":[1.1616569757461548,6.538536071777344,5.524331092834473],"type":"VEC3","bufferView":0,"byteOffset":0},{"name":"polygon0_1_0_normals","componentType":5126,"count":17,"min":[-0.6642960906028748,0.028198009356856346,0.6358540654182434],"max":[0.6642960906028748,0.4536769688129425,0.9402398467063904],"type":"VEC3","bufferView":1,"byteOffset":0},{"name":"polygon0_1_0_texcoords","componentType":5126,"count":17,"min":[1.0184329748153687,0.023468000814318657],"max":[1.460510015487671,0.23318499326705933],"type":"VEC2","bufferView":2,"byteOffset":0},{"name":"polygon0_1_0_indices","componentType":5123,"count":48,"min":[0],"max":[16],"type":"SCALAR","bufferView":3,"byteOffset":0},{"name":"polygon1_1_0_positions","componentType":5126,"count":19,"min":[-0.9990400075912476,4.725285053253174,4.978583812713623],"max":[0.9990400075912476,6.538536071777344,5.525150775909424],"type":"VEC3","bufferView":0,"byteOffset":204},{"name":"polygon1_1_0_normals","componentType":5126,"count":19,"min":[-0.5073811411857605,-0.44105100631713867,0.8218517899513245],"max":[0.5073811411857605,0.3405129313468933,0.9983912706375122],"type":"VEC3","bufferView":1,"byteOffset":204},{"name":"polygon1_1_0_texcoords","componentType":5126,"count":19,"min":[1.056946039199829,0.03277600184082985],"max":[1.6204830408096313,0.2348019927740097],"type":"VEC2","bufferView":2,"byteOffset":136},{"name":"polygon1_1_0_indices","componentType":5123,"count":72,"min":[0],"max":[18],"type":"SCALAR","bufferView":3,"byteOffset":96},{"name":"polygon2_1_0_positions","componentType":5126,"count":953,"min":[-10.670012474060059,-0.08679600059986115,-9.541142463684082],"max":[10.670012474060059,9.627278327941895,5.524331092834473],"type":"VEC3","bufferView":0,"byteOffset":432},{"name":"polygon2_1_0_normals","componentType":5126,"count":953,"min":[-0.9904102087020874,-0.99991375207901,-0.9994425177574158],"max":[0.9904102087020874,0.9999416470527649,0.9999513030052185],"type":"VEC3","bufferView":1,"byteOffset":432},{"name":"polygon2_1_0_texcoords","componentType":5126,"count":953,"min":[0.014739999547600746,0.009979000315070152],"max":[0.9918209910392761,0.9945369958877563],"type":"VEC2","bufferView":2,"byteOffset":288},{"name":"polygon2_1_0_indices","componentType":5123,"count":4446,"min":[0],"max":[952],"type":"SCALAR","bufferView":3,"byteOffset":240}],"asset":{"generator":"obj2gltf","version":"2.0"},"buffers":[{"name":"Togekiss","byteLength":384900,"uri":"data:application/octet-stream;base64,"}],"bufferViews":[{"name":"bufferView_0","buffer":0,"byteLength":11868,"byteOffset":0,"byteStride":12,"target":34962},{"name":"bufferView_1","buffer":0,"byteLength":11868,"byteOffset":11868,"byteStride":12,"target":34962},{"name":"bufferView_2","buffer":0,"byteLength":7912,"byteOffset":23736,"byteStride":8,"target":34962},{"name":"bufferView_3","buffer":0,"byteLength":9132,"byteOffset":31648,"target":34963},{"buffer":0,"byteOffset":40780,"byteLength":98322},{"buffer":0,"byteOffset":139102,"byteLength":49170},{"buffer":0,"byteOffset":188272,"byteLength":196626}],"images":[{"name":"TogekissEyeDh","mimeType":"image/x-tga","bufferView":4},{"name":"TogekissMouthDh","mimeType":"image/x-tga","bufferView":5},{"name":"TogekissDh","mimeType":"image/x-tga","bufferView":6}],"materials":[{"name":"mat2","pbrMetallicRoughness":{"baseColorTexture":{"index":0},"baseColorFactor":[1,1,1,1],"metallicFactor":0,"roughnessFactor":0.99},"emissiveFactor":[0,0,0],"alphaMode":"OPAQUE","doubleSided":false},{"name":"mat3","pbrMetallicRoughness":{"baseColorTexture":{"index":1},"baseColorFactor":[1,1,1,1],"metallicFactor":0,"roughnessFactor":0.99},"emissiveFactor":[0,0,0],"alphaMode":"OPAQUE","doubleSided":false},{"name":"mat1","pbrMetallicRoughness":{"baseColorTexture":{"index":2},"baseColorFactor":[1,1,1,1],"metallicFactor":0,"roughnessFactor":0.99},"emissiveFactor":[0,0,0],"alphaMode":"OPAQUE","doubleSided":false}],"meshes":[{"name":"polygon0_1","primitives":[{"attributes":{"POSITION":0,"NORMAL":1,"TEXCOORD_0":2},"indices":3,"material":0,"mode":4}]},{"name":"polygon1_1","primitives":[{"attributes":{"POSITION":4,"NORMAL":5,"TEXCOORD_0":6},"indices":7,"material":1,"mode":4}]},{"name":"polygon2_1","primitives":[{"attributes":{"POSITION":8,"NORMAL":9,"TEXCOORD_0":10},"indices":11,"material":2,"mode":4}]}],"nodes":[{"name":"polygon0","mesh":0},{"name":"polygon1","mesh":1},{"name":"polygon2","mesh":2}],"samplers":[{"wrapS":10497,"wrapT":10497}],"scene":0,"scenes":[{"nodes":[0,1,2]}],"textures":[{"name":"TogekissEyeDh","sampler":0,"source":0},{"name":"TogekissMouthDh","sampler":0,"source":1},{"name":"TogekissDh","sampler":0,"source":2}]}