{"accessors":[{"name":"Yanmega_1_0_positions","componentType":5126,"count":16158,"min":[-19.13799476623535,-16.159494400024414,-100.42302703857422],"max":[19.138002395629883,56.59381103515625,83.15071105957031],"type":"VEC3","bufferView":0,"byteOffset":0},{"name":"Yanmega_1_0_normals","componentType":5126,"count":16158,"min":[-0.9999892115592957,-1,-0.9999855756759644],"max":[0.9999892115592957,1,0.9999895095825195],"type":"VEC3","bufferView":1,"byteOffset":0},{"name":"Yanmega_1_0_texcoords","componentType":5126,"count":16158,"min":[0,0.0078119998797774315],"max":[1,0.9921879768371582],"type":"VEC2","bufferView":2,"byteOffset":0},{"name":"Yanmega_1_0_indices","componentType":5123,"count":16158,"min":[0],"max":[16157],"type":"SCALAR","bufferView":3,"byteOffset":0},{"name":"Yanmega_1_1_positions","componentType":5126,"count":1632,"min":[-103.3689956665039,23.92902183532715,-80.5078125],"max":[103.36898803710938,32.66830062866211,64.82991790771484],"type":"VEC3","bufferView":0,"byteOffset":193896},{"name":"Yanmega_1_1_normals","componentType":5126,"count":1632,"min":[-0.9999887943267822,-1,-0.9883566498756409],"max":[0.00000399999953515362,1,0.9542954564094543],"type":"VEC3","bufferView":1,"byteOffset":193896},{"name":"Yanmega_1_1_texcoords","componentType":5126,"count":1632,"min":[0.047150999307632446,-0.981440007686615],"max":[0.9528489708900452,-0.024000000208616257],"type":"VEC2","bufferView":2,"byteOffset":129264},{"name":"Yanmega_1_1_indices","componentType":5123,"count":1632,"min":[0],"max":[1631],"type":"SCALAR","bufferView":3,"byteOffset":32316}],"asset":{"generator":"obj2gltf","version":"2.0"},"buffers":[{"name":"XY_Yanmega","byteLength":709084,"uri":"data:application/octet-stream;base64,"}],"bufferViews":[{"name":"bufferView_0","buffer":0,"byteLength":213480,"byteOffset":0,"byteStride":12,"target":34962},{"name":"bufferView_1","buffer":0,"byteLength":213480,"byteOffset":213480,"byteStride":12,"target":34962},{"name":"bufferView_2","buffer":0,"byteLength":142320,"byteOffset":426960,"byteStride":8,"target":34962},{"name":"bufferView_3","buffer":0,"byteLength":35580,"byteOffset":569280,"target":34963},{"buffer":0,"byteOffset":604860,"byteLength":75731},{"buffer":0,"byteOffset":680591,"byteLength":28493}],"images":[{"name":"pm0469_00_BodyA1","mimeType":"image/png","bufferView":4},{"name":"pm0469_00_BodyB1","mimeType":"image/png","bufferView":5}],"materials":[{"name":"Material__10","pbrMetallicRoughness":{"baseColorTexture":{"index":0},"baseColorFactor":[1,1,1,1],"metallicFactor":0,"roughnessFactor":0.998},"emissiveFactor":[0,0,0],"alphaMode":"OPAQUE","doubleSided":false},{"name":"Material__11","pbrMetallicRoughness":{"baseColorTexture":{"index":1},"baseColorFactor":[1,1,1,1],"metallicFactor":0,"roughnessFactor":0.998},"emissiveFactor":[0,0,0],"alphaMode":"OPAQUE","doubleSided":false}],"meshes":[{"name":"Yanmega_1","primitives":[{"attributes":{"POSITION":0,"NORMAL":1,"TEXCOORD_0":2},"indices":3,"material":0,"mode":4},{"attributes":{"POSITION":4,"NORMAL":5,"TEXCOORD_0":6},"indices":7,"material":1,"mode":4}]}],"nodes":[{"name":"Yanmega","mesh":0}],"samplers":[{"wrapS":10497,"wrapT":10497}],"scene":0,"scenes":[{"nodes":[0]}],"textures":[{"name":"pm0469_00_BodyA1","sampler":0,"source":0},{"name":"pm0469_00_BodyB1","sampler":0,"source":1}]}