{"accessors":[{"name":"megayanma-Mesh_0_positions","componentType":5126,"count":776,"min":[-1.7483370304107666,-9.543648719787598,-5.262589931488037],"max":[1.7483359575271606,9.43659496307373,1.6083170175552368],"type":"VEC3","bufferView":0,"byteOffset":0},{"name":"megayanma-Mesh_0_texcoords","componentType":5126,"count":776,"min":[0.003984000068157911,0],"max":[0.9664350152015686,1.000898003578186],"type":"VEC2","bufferView":1,"byteOffset":0},{"name":"megayanma-Mesh_0_indices","componentType":5123,"count":3240,"min":[0],"max":[775],"type":"SCALAR","bufferView":2,"byteOffset":0}],"asset":{"generator":"obj2gltf","version":"2.0"},"buffers":[{"name":"BR_Yanmega-Shiny01","byteLength":1070596,"uri":"data:application/octet-stream;base64,"}],"bufferViews":[{"name":"bufferView_0","buffer":0,"byteLength":9312,"byteOffset":0,"byteStride":12,"target":34962},{"name":"bufferView_1","buffer":0,"byteLength":6208,"byteOffset":9312,"byteStride":8,"target":34962},{"name":"bufferView_2","buffer":0,"byteLength":6480,"byteOffset":15520,"target":34963},{"buffer":0,"byteOffset":22000,"byteLength":1048594}],"images":[{"name":"megayanma_1_0","mimeType":"image/x-tga","bufferView":3}],"materials":[{"name":"mat_0","pbrMetallicRoughness":{"baseColorTexture":{"index":0},"baseColorFactor":[1,1,1,1],"metallicFactor":0,"roughnessFactor":0.903921569},"emissiveFactor":[0,0,0],"alphaMode":"BLEND","doubleSided":true}],"meshes":[{"name":"megayanma-Mesh","primitives":[{"attributes":{"POSITION":0,"TEXCOORD_0":1},"indices":2,"material":0,"mode":4}]}],"nodes":[{"name":"megayanma","mesh":0}],"samplers":[{"wrapS":10497,"wrapT":10497}],"scene":0,"scenes":[{"nodes":[0]}],"textures":[{"name":"megayanma_1_0","sampler":0,"source":0}]}