{"accessors":[{"name":"polygon0_1_0_positions","componentType":5126,"count":20,"min":[-1.06637704372406,5.164272785186768,3.291361093521118],"max":[1.06637704372406,5.93863582611084,3.8136909008026123],"type":"VEC3","bufferView":0,"byteOffset":0},{"name":"polygon0_1_0_normals","componentType":5126,"count":20,"min":[-0.8001736998558044,-0.033752989023923874,0.598817765712738],"max":[0.8001736998558044,0.5441789627075195,0.9118001461029053],"type":"VEC3","bufferView":1,"byteOffset":0},{"name":"polygon0_1_0_texcoords","componentType":5126,"count":20,"min":[0.007813000120222569,0.015625],"max":[0.4921880066394806,0.2421869933605194],"type":"VEC2","bufferView":2,"byteOffset":0},{"name":"polygon0_1_0_indices","componentType":5123,"count":60,"min":[0],"max":[19],"type":"SCALAR","bufferView":3,"byteOffset":0},{"name":"polygon1_1_0_positions","componentType":5126,"count":1248,"min":[-2.562747001647949,-9.999999974752427e-7,-3.806597948074341],"max":[2.562747001647949,9.98131275177002,4.095026016235352],"type":"VEC3","bufferView":0,"byteOffset":240},{"name":"polygon1_1_0_normals","componentType":5126,"count":1248,"min":[-0.9944729804992676,-0.9989684224128723,-0.998998761177063],"max":[0.9944729804992676,0.9996227622032166,0.9995614290237427],"type":"VEC3","bufferView":1,"byteOffset":240},{"name":"polygon1_1_0_texcoords","componentType":5126,"count":1248,"min":[0.0114139998331666,0.005127000156790018],"max":[0.9528809785842896,0.9937440156936646],"type":"VEC2","bufferView":2,"byteOffset":160},{"name":"polygon1_1_0_indices","componentType":5123,"count":4584,"min":[0],"max":[1247],"type":"SCALAR","bufferView":3,"byteOffset":120},{"name":"polygon2_1_0_positions","componentType":5126,"count":12,"min":[-0.3375850021839142,4.523209095001221,3.468538999557495],"max":[0.3375850021839142,4.924564838409424,4.022503852844238],"type":"VEC3","bufferView":0,"byteOffset":15216},{"name":"polygon2_1_0_normals","componentType":5126,"count":12,"min":[-0.43808892369270325,-0.9337460994720459,0.3579360544681549],"max":[0.43808892369270325,-0.4693809151649475,0.8272168040275574],"type":"VEC3","bufferView":1,"byteOffset":15216},{"name":"polygon2_1_0_texcoords","componentType":5126,"count":12,"min":[0.030852999538183212,0.0171509999781847],"max":[0.9659420251846313,0.23428300023078918],"type":"VEC2","bufferView":2,"byteOffset":10144},{"name":"polygon2_1_0_indices","componentType":5123,"count":42,"min":[0],"max":[11],"type":"SCALAR","bufferView":3,"byteOffset":9288}],"asset":{"generator":"obj2gltf","version":"2.0"},"buffers":[{"name":"Leafeon","byteLength":394452,"uri":"data:application/octet-stream;base64,"}],"bufferViews":[{"name":"bufferView_0","buffer":0,"byteLength":15360,"byteOffset":0,"byteStride":12,"target":34962},{"name":"bufferView_1","buffer":0,"byteLength":15360,"byteOffset":15360,"byteStride":12,"target":34962},{"name":"bufferView_2","buffer":0,"byteLength":10240,"byteOffset":30720,"byteStride":8,"target":34962},{"name":"bufferView_3","buffer":0,"byteLength":9372,"byteOffset":40960,"target":34963},{"buffer":0,"byteOffset":50332,"byteLength":98322},{"buffer":0,"byteOffset":148654,"byteLength":196626},{"buffer":0,"byteOffset":345280,"byteLength":49170}],"images":[{"name":"LeafiaEyeDh","mimeType":"image/x-tga","bufferView":4},{"name":"LeafiaDh","mimeType":"image/x-tga","bufferView":5},{"name":"LeafiaMouthDh","mimeType":"image/x-tga","bufferView":6}],"materials":[{"name":"mat2","pbrMetallicRoughness":{"baseColorTexture":{"index":0},"baseColorFactor":[1,1,1,1],"metallicFactor":0,"roughnessFactor":0.99},"emissiveFactor":[0,0,0],"alphaMode":"OPAQUE","doubleSided":false},{"name":"mat1","pbrMetallicRoughness":{"baseColorTexture":{"index":1},"baseColorFactor":[1,1,1,1],"metallicFactor":0,"roughnessFactor":0.99},"emissiveFactor":[0,0,0],"alphaMode":"OPAQUE","doubleSided":false},{"name":"mat3","pbrMetallicRoughness":{"baseColorTexture":{"index":2},"baseColorFactor":[1,1,1,1],"metallicFactor":0,"roughnessFactor":0.99},"emissiveFactor":[0,0,0],"alphaMode":"OPAQUE","doubleSided":false}],"meshes":[{"name":"polygon0_1","primitives":[{"attributes":{"POSITION":0,"NORMAL":1,"TEXCOORD_0":2},"indices":3,"material":0,"mode":4}]},{"name":"polygon1_1","primitives":[{"attributes":{"POSITION":4,"NORMAL":5,"TEXCOORD_0":6},"indices":7,"material":1,"mode":4}]},{"name":"polygon2_1","primitives":[{"attributes":{"POSITION":8,"NORMAL":9,"TEXCOORD_0":10},"indices":11,"material":2,"mode":4}]}],"nodes":[{"name":"polygon0","mesh":0},{"name":"polygon1","mesh":1},{"name":"polygon2","mesh":2}],"samplers":[{"wrapS":10497,"wrapT":10497}],"scene":0,"scenes":[{"nodes":[0,1,2]}],"textures":[{"name":"LeafiaEyeDh","sampler":0,"source":0},{"name":"LeafiaDh","sampler":0,"source":1},{"name":"LeafiaMouthDh","sampler":0,"source":2}]}