{"accessors":[{"name":"polygon0_1_0_positions","componentType":5126,"count":36,"min":[-0.6487540006637573,4.418839931488037,2.555793046951294],"max":[0.6486420035362244,4.963054180145264,3.309286117553711],"type":"VEC3","bufferView":0,"byteOffset":0},{"name":"polygon0_1_0_normals","componentType":5126,"count":36,"min":[-0.65716552734375,-0.9895777106285095,0.0812930166721344],"max":[0.65716552734375,0.2645840346813202,0.9241987466812134],"type":"VEC3","bufferView":1,"byteOffset":0},{"name":"polygon0_1_0_texcoords","componentType":5126,"count":36,"min":[0.10382100194692612,-0.023987000808119774],"max":[0.6910399794578552,0.5104979872703552],"type":"VEC2","bufferView":2,"byteOffset":0},{"name":"polygon0_1_0_indices","componentType":5123,"count":120,"min":[0],"max":[35],"type":"SCALAR","bufferView":3,"byteOffset":0},{"name":"polygon1_1_0_positions","componentType":5126,"count":824,"min":[-3.422347068786621,-0.008906999602913857,-7.425148963928223],"max":[3.4222359657287598,7.369454860687256,3.535533905029297],"type":"VEC3","bufferView":0,"byteOffset":432},{"name":"polygon1_1_0_normals","componentType":5126,"count":824,"min":[-0.9999895095825195,-0.999996542930603,-0.9999720454216003],"max":[0.9999895095825195,0.9999971389770508,0.9999455213546753],"type":"VEC3","bufferView":1,"byteOffset":432},{"name":"polygon1_1_0_texcoords","componentType":5126,"count":824,"min":[0.0005949999904260039,0.003447999944910407],"max":[0.4991460144519806,0.49633800983428955],"type":"VEC2","bufferView":2,"byteOffset":288},{"name":"polygon1_1_0_indices","componentType":5123,"count":3942,"min":[0],"max":[823],"type":"SCALAR","bufferView":3,"byteOffset":240},{"name":"polygon2_1_0_positions","componentType":5126,"count":34,"min":[-0.928193986415863,4.972795009613037,2.618835926055908],"max":[0.9280830025672913,5.610678195953369,3.132642984390259],"type":"VEC3","bufferView":0,"byteOffset":10320},{"name":"polygon2_1_0_normals","componentType":5126,"count":34,"min":[-0.876704752445221,-0.24676395952701569,0.47594988346099854],"max":[0.876704752445221,0.1797119528055191,0.8874526023864746],"type":"VEC3","bufferView":1,"byteOffset":10320},{"name":"polygon2_1_0_texcoords","componentType":5126,"count":34,"min":[0.0039059999398887157,0.019531000405550003],"max":[0.5,0.2226559966802597],"type":"VEC2","bufferView":2,"byteOffset":6880},{"name":"polygon2_1_0_indices","componentType":5123,"count":126,"min":[0],"max":[33],"type":"SCALAR","bufferView":3,"byteOffset":8124}],"asset":{"generator":"obj2gltf","version":"2.0"},"buffers":[{"name":"Glaceon","byteLength":381104,"uri":"data:application/octet-stream;base64,"}],"bufferViews":[{"name":"bufferView_0","buffer":0,"byteLength":10728,"byteOffset":0,"byteStride":12,"target":34962},{"name":"bufferView_1","buffer":0,"byteLength":10728,"byteOffset":10728,"byteStride":12,"target":34962},{"name":"bufferView_2","buffer":0,"byteLength":7152,"byteOffset":21456,"byteStride":8,"target":34962},{"name":"bufferView_3","buffer":0,"byteLength":8376,"byteOffset":28608,"target":34963},{"buffer":0,"byteOffset":36984,"byteLength":49170},{"buffer":0,"byteOffset":86154,"byteLength":196626},{"buffer":0,"byteOffset":282780,"byteLength":98322}],"images":[{"name":"GlaciaMouthDh","mimeType":"image/x-tga","bufferView":4},{"name":"GlaciaDh","mimeType":"image/x-tga","bufferView":5},{"name":"GlaciaEyeDh","mimeType":"image/x-tga","bufferView":6}],"materials":[{"name":"mat3","pbrMetallicRoughness":{"baseColorTexture":{"index":0},"baseColorFactor":[1,1,1,1],"metallicFactor":0,"roughnessFactor":0.99},"emissiveFactor":[0,0,0],"alphaMode":"OPAQUE","doubleSided":false},{"name":"mat1","pbrMetallicRoughness":{"baseColorTexture":{"index":1},"baseColorFactor":[1,1,1,1],"metallicFactor":0,"roughnessFactor":0.99},"emissiveFactor":[0,0,0],"alphaMode":"OPAQUE","doubleSided":false},{"name":"mat2","pbrMetallicRoughness":{"baseColorTexture":{"index":2},"baseColorFactor":[1,1,1,1],"metallicFactor":0,"roughnessFactor":0.99},"emissiveFactor":[0,0,0],"alphaMode":"OPAQUE","doubleSided":false}],"meshes":[{"name":"polygon0_1","primitives":[{"attributes":{"POSITION":0,"NORMAL":1,"TEXCOORD_0":2},"indices":3,"material":0,"mode":4}]},{"name":"polygon1_1","primitives":[{"attributes":{"POSITION":4,"NORMAL":5,"TEXCOORD_0":6},"indices":7,"material":1,"mode":4}]},{"name":"polygon2_1","primitives":[{"attributes":{"POSITION":8,"NORMAL":9,"TEXCOORD_0":10},"indices":11,"material":2,"mode":4}]}],"nodes":[{"name":"polygon0","mesh":0},{"name":"polygon1","mesh":1},{"name":"polygon2","mesh":2}],"samplers":[{"wrapS":10497,"wrapT":10497}],"scene":0,"scenes":[{"nodes":[0,1,2]}],"textures":[{"name":"GlaciaMouthDh","sampler":0,"source":0},{"name":"GlaciaDh","sampler":0,"source":1},{"name":"GlaciaEyeDh","sampler":0,"source":2}]}