{"accessors":[{"name":"polygon0_1_0_positions","componentType":5126,"count":1139,"min":[-11.2982759475708,-0.028237000107765198,-3.5801620483398438],"max":[11.297886848449707,19.978416442871094,2.8704779148101807],"type":"VEC3","bufferView":0,"byteOffset":0},{"name":"polygon0_1_0_normals","componentType":5126,"count":1139,"min":[-1,-0.9999997615814209,-1],"max":[1,1,0.9999900460243225],"type":"VEC3","bufferView":1,"byteOffset":0},{"name":"polygon0_1_0_texcoords","componentType":5126,"count":1139,"min":[0.002532999962568283,0.006438999902456999],"max":[0.9885560274124146,0.9961550235748291],"type":"VEC2","bufferView":2,"byteOffset":0},{"name":"polygon0_1_0_indices","componentType":5123,"count":4926,"min":[0],"max":[1138],"type":"SCALAR","bufferView":3,"byteOffset":0},{"name":"polygon1_1_0_positions","componentType":5126,"count":22,"min":[-1.718979001045227,16.209369659423828,1.3910690546035767],"max":[1.718979001045227,18.240848541259766,2.807749032974243],"type":"VEC3","bufferView":0,"byteOffset":13668},{"name":"polygon1_1_0_normals","componentType":5126,"count":22,"min":[-0.894733190536499,-0.4136429727077484,0.1885409951210022],"max":[0.894733190536499,0.177854984998703,0.9363731741905212],"type":"VEC3","bufferView":1,"byteOffset":13668},{"name":"polygon1_1_0_texcoords","componentType":5126,"count":22,"min":[-0.9222409725189209,0.016234999522566795],"max":[-0.05419899895787239,0.23638899624347687],"type":"VEC2","bufferView":2,"byteOffset":9112},{"name":"polygon1_1_0_indices","componentType":5123,"count":66,"min":[0],"max":[21],"type":"SCALAR","bufferView":3,"byteOffset":9852}],"asset":{"generator":"obj2gltf","version":"2.0"},"buffers":[{"name":"Gliscor","byteLength":292932,"uri":"data:application/octet-stream;base64,"}],"bufferViews":[{"name":"bufferView_0","buffer":0,"byteLength":13932,"byteOffset":0,"byteStride":12,"target":34962},{"name":"bufferView_1","buffer":0,"byteLength":13932,"byteOffset":13932,"byteStride":12,"target":34962},{"name":"bufferView_2","buffer":0,"byteLength":9288,"byteOffset":27864,"byteStride":8,"target":34962},{"name":"bufferView_3","buffer":0,"byteLength":9984,"byteOffset":37152,"target":34963},{"buffer":0,"byteOffset":47136,"byteLength":196626},{"buffer":0,"byteOffset":243762,"byteLength":49170}],"images":[{"name":"GlionDh","mimeType":"image/x-tga","bufferView":4},{"name":"GlionEyeDh","mimeType":"image/x-tga","bufferView":5}],"materials":[{"name":"mat1","pbrMetallicRoughness":{"baseColorTexture":{"index":0},"baseColorFactor":[1,1,1,1],"metallicFactor":0,"roughnessFactor":0.99},"emissiveFactor":[0,0,0],"alphaMode":"OPAQUE","doubleSided":false},{"name":"mat2","pbrMetallicRoughness":{"baseColorTexture":{"index":1},"baseColorFactor":[1,1,1,1],"metallicFactor":0,"roughnessFactor":0.99},"emissiveFactor":[0,0,0],"alphaMode":"OPAQUE","doubleSided":false}],"meshes":[{"name":"polygon0_1","primitives":[{"attributes":{"POSITION":0,"NORMAL":1,"TEXCOORD_0":2},"indices":3,"material":0,"mode":4}]},{"name":"polygon1_1","primitives":[{"attributes":{"POSITION":4,"NORMAL":5,"TEXCOORD_0":6},"indices":7,"material":1,"mode":4}]}],"nodes":[{"name":"polygon0","mesh":0},{"name":"polygon1","mesh":1}],"samplers":[{"wrapS":10497,"wrapT":10497}],"scene":0,"scenes":[{"nodes":[0,1]}],"textures":[{"name":"GlionDh","sampler":0,"source":0},{"name":"GlionEyeDh","sampler":0,"source":1}]}