{"accessors":[{"name":"polygon0_1_0_positions","componentType":5126,"count":8,"min":[-4.925220012664795,17.454439163208008,9.77022933959961],"max":[4.925220012664795,20.632762908935547,12.43469524383545],"type":"VEC3","bufferView":0,"byteOffset":0},{"name":"polygon0_1_0_normals","componentType":5126,"count":8,"min":[-0.4963949918746948,0.2937030494213104,0.7467250823974609],"max":[0.4963949918746948,0.5100040435791016,0.9082071781158447],"type":"VEC3","bufferView":1,"byteOffset":0},{"name":"polygon0_1_0_texcoords","componentType":5126,"count":8,"min":[-1.9746090173721313,0.028687000274658203],"max":[-1.5078129768371582,0.22717300057411194],"type":"VEC2","bufferView":2,"byteOffset":0},{"name":"polygon0_1_0_indices","componentType":5123,"count":12,"min":[0],"max":[7],"type":"SCALAR","bufferView":3,"byteOffset":0},{"name":"polygon1_1_0_positions","componentType":5126,"count":1229,"min":[-12.025208473205566,-0.005518000107258558,-14.173145294189453],"max":[12.025206565856934,24.892005920410156,24.149381637573242],"type":"VEC3","bufferView":0,"byteOffset":96},{"name":"polygon1_1_0_normals","componentType":5126,"count":1229,"min":[-0.999535083770752,-0.999972939491272,-0.999967634677887],"max":[0.999535083770752,0.9999619126319885,0.9999597668647766],"type":"VEC3","bufferView":1,"byteOffset":96},{"name":"polygon1_1_0_texcoords","componentType":5126,"count":1229,"min":[0.008117999881505966,0.010559000074863434],"max":[0.9933170080184937,0.9934999942779541],"type":"VEC2","bufferView":2,"byteOffset":64},{"name":"polygon1_1_0_indices","componentType":5123,"count":4818,"min":[0],"max":[1228],"type":"SCALAR","bufferView":3,"byteOffset":24},{"name":"polygon2_1_0_positions","componentType":5126,"count":9,"min":[-4.834428787231445,6.185957908630371,10.752129554748535],"max":[4.834428787231445,13.01354694366455,13.51612377166748],"type":"VEC3","bufferView":0,"byteOffset":14844},{"name":"polygon2_1_0_normals","componentType":5126,"count":9,"min":[-0.4763069450855255,-0.7674503922462463,0.6411083340644836],"max":[0.4763069450855255,0.12072498351335526,0.9970852732658386],"type":"VEC3","bufferView":1,"byteOffset":14844},{"name":"polygon2_1_0_texcoords","componentType":5126,"count":9,"min":[-0.9419559836387634,0.004639000166207552],"max":[-0.28411900997161865,0.2430420070886612],"type":"VEC2","bufferView":2,"byteOffset":9896},{"name":"polygon2_1_0_indices","componentType":5123,"count":24,"min":[0],"max":[8],"type":"SCALAR","bufferView":3,"byteOffset":9660}],"asset":{"generator":"obj2gltf","version":"2.0"},"buffers":[{"name":"Mamoswine","byteLength":393700,"uri":"data:application/octet-stream;base64,"}],"bufferViews":[{"name":"bufferView_0","buffer":0,"byteLength":14952,"byteOffset":0,"byteStride":12,"target":34962},{"name":"bufferView_1","buffer":0,"byteLength":14952,"byteOffset":14952,"byteStride":12,"target":34962},{"name":"bufferView_2","buffer":0,"byteLength":9968,"byteOffset":29904,"byteStride":8,"target":34962},{"name":"bufferView_3","buffer":0,"byteLength":9708,"byteOffset":39872,"target":34963},{"buffer":0,"byteOffset":49580,"byteLength":98322},{"buffer":0,"byteOffset":147902,"byteLength":196626},{"buffer":0,"byteOffset":344528,"byteLength":49170}],"images":[{"name":"MammooEyeDh","mimeType":"image/x-tga","bufferView":4},{"name":"MammooDh","mimeType":"image/x-tga","bufferView":5},{"name":"MammooMouthDh","mimeType":"image/x-tga","bufferView":6}],"materials":[{"name":"mat2","pbrMetallicRoughness":{"baseColorTexture":{"index":0},"baseColorFactor":[1,1,1,1],"metallicFactor":0,"roughnessFactor":0.99},"emissiveFactor":[0,0,0],"alphaMode":"OPAQUE","doubleSided":false},{"name":"mat1","pbrMetallicRoughness":{"baseColorTexture":{"index":1},"baseColorFactor":[1,1,1,1],"metallicFactor":0,"roughnessFactor":0.99},"emissiveFactor":[0,0,0],"alphaMode":"OPAQUE","doubleSided":false},{"name":"mat3","pbrMetallicRoughness":{"baseColorTexture":{"index":2},"baseColorFactor":[1,1,1,1],"metallicFactor":0,"roughnessFactor":0.99},"emissiveFactor":[0,0,0],"alphaMode":"OPAQUE","doubleSided":false}],"meshes":[{"name":"polygon0_1","primitives":[{"attributes":{"POSITION":0,"NORMAL":1,"TEXCOORD_0":2},"indices":3,"material":0,"mode":4}]},{"name":"polygon1_1","primitives":[{"attributes":{"POSITION":4,"NORMAL":5,"TEXCOORD_0":6},"indices":7,"material":1,"mode":4}]},{"name":"polygon2_1","primitives":[{"attributes":{"POSITION":8,"NORMAL":9,"TEXCOORD_0":10},"indices":11,"material":2,"mode":4}]}],"nodes":[{"name":"polygon0","mesh":0},{"name":"polygon1","mesh":1},{"name":"polygon2","mesh":2}],"samplers":[{"wrapS":10497,"wrapT":10497}],"scene":0,"scenes":[{"nodes":[0,1,2]}],"textures":[{"name":"MammooEyeDh","sampler":0,"source":0},{"name":"MammooDh","sampler":0,"source":1},{"name":"MammooMouthDh","sampler":0,"source":2}]}