{"accessors":[{"name":"polygon0_1_0_positions","componentType":5126,"count":910,"min":[-5.18471097946167,0.3526740074157715,-1.4324040412902832],"max":[5.18471097946167,10.15235710144043,2.9489870071411133],"type":"VEC3","bufferView":0,"byteOffset":0},{"name":"polygon0_1_0_normals","componentType":5126,"count":910,"min":[-1,-1,-1],"max":[1,1,0.999992311000824],"type":"VEC3","bufferView":1,"byteOffset":0},{"name":"polygon0_1_0_texcoords","componentType":5126,"count":910,"min":[0.015838999301195145,0.03610200062394142],"max":[0.9806209802627563,0.9739990234375],"type":"VEC2","bufferView":2,"byteOffset":0},{"name":"polygon0_1_0_indices","componentType":5123,"count":4746,"min":[0],"max":[909],"type":"SCALAR","bufferView":3,"byteOffset":0},{"name":"polygon1_1_0_positions","componentType":5126,"count":194,"min":[-1.4116230010986328,6.943274974822998,0.0005329999839887023],"max":[1.4116230010986328,8.46265697479248,1.0315990447998047],"type":"VEC3","bufferView":0,"byteOffset":10920},{"name":"polygon1_1_0_normals","componentType":5126,"count":194,"min":[-0.9990890622138977,-0.7950929403305054,-0.005277000367641449],"max":[0.9990890622138977,0.6351040601730347,0.6810360550880432],"type":"VEC3","bufferView":1,"byteOffset":10920},{"name":"polygon1_1_0_texcoords","componentType":5126,"count":194,"min":[0.007813000120222569,0.0078119998797774315],"max":[0.4921880066394806,0.25],"type":"VEC2","bufferView":2,"byteOffset":7280},{"name":"polygon1_1_0_indices","componentType":5123,"count":930,"min":[0],"max":[193],"type":"SCALAR","bufferView":3,"byteOffset":9492}],"asset":{"generator":"obj2gltf","version":"2.0"},"buffers":[{"name":"Porygon-Z","byteLength":341628,"uri":"data:application/octet-stream;base64,"}],"bufferViews":[{"name":"bufferView_0","buffer":0,"byteLength":13248,"byteOffset":0,"byteStride":12,"target":34962},{"name":"bufferView_1","buffer":0,"byteLength":13248,"byteOffset":13248,"byteStride":12,"target":34962},{"name":"bufferView_2","buffer":0,"byteLength":8832,"byteOffset":26496,"byteStride":8,"target":34962},{"name":"bufferView_3","buffer":0,"byteLength":11352,"byteOffset":35328,"target":34963},{"buffer":0,"byteOffset":46680,"byteLength":196626},{"buffer":0,"byteOffset":243306,"byteLength":98322}],"images":[{"name":"PorygonZDh","mimeType":"image/x-tga","bufferView":4},{"name":"PorygonZEyeDh","mimeType":"image/x-tga","bufferView":5}],"materials":[{"name":"mat1","pbrMetallicRoughness":{"baseColorTexture":{"index":0},"baseColorFactor":[1,1,1,1],"metallicFactor":0,"roughnessFactor":0.99},"emissiveFactor":[0,0,0],"alphaMode":"OPAQUE","doubleSided":false},{"name":"mat2","pbrMetallicRoughness":{"baseColorTexture":{"index":1},"baseColorFactor":[1,1,1,1],"metallicFactor":0,"roughnessFactor":0.99},"emissiveFactor":[0,0,0],"alphaMode":"OPAQUE","doubleSided":false}],"meshes":[{"name":"polygon0_1","primitives":[{"attributes":{"POSITION":0,"NORMAL":1,"TEXCOORD_0":2},"indices":3,"material":0,"mode":4}]},{"name":"polygon1_1","primitives":[{"attributes":{"POSITION":4,"NORMAL":5,"TEXCOORD_0":6},"indices":7,"material":1,"mode":4}]}],"nodes":[{"name":"polygon0","mesh":0},{"name":"polygon1","mesh":1}],"samplers":[{"wrapS":10497,"wrapT":10497}],"scene":0,"scenes":[{"nodes":[0,1]}],"textures":[{"name":"PorygonZDh","sampler":0,"source":0},{"name":"PorygonZEyeDh","sampler":0,"source":1}]}