{"accessors":[{"name":"Porygon_Z_1_0_positions","componentType":5126,"count":9954,"min":[-50.91559982299805,4.3316569328308105,-14.698603630065918],"max":[50.91559600830078,101.68299865722656,29.748899459838867],"type":"VEC3","bufferView":0,"byteOffset":0},{"name":"Porygon_Z_1_0_normals","componentType":5126,"count":9954,"min":[-1,-1,-1],"max":[1,1,1],"type":"VEC3","bufferView":1,"byteOffset":0},{"name":"Porygon_Z_1_0_texcoords","componentType":5126,"count":9954,"min":[0,0.0067540002055466175],"max":[1,0.9921879768371582],"type":"VEC2","bufferView":2,"byteOffset":0},{"name":"Porygon_Z_1_0_indices","componentType":5123,"count":9954,"min":[0],"max":[9953],"type":"SCALAR","bufferView":3,"byteOffset":0},{"name":"Porygon_Z_1_1_positions","componentType":5126,"count":522,"min":[-14.399041175842285,67.64727020263672,-0.14466099441051483],"max":[14.398959159851074,86.71974182128906,13.347896575927734],"type":"VEC3","bufferView":0,"byteOffset":119448},{"name":"Porygon_Z_1_1_normals","componentType":5126,"count":522,"min":[-0.9858213663101196,-0.6450029015541077,-1],"max":[0.19749696552753448,0,0],"type":"VEC3","bufferView":1,"byteOffset":119448},{"name":"Porygon_Z_1_1_texcoords","componentType":5126,"count":522,"min":[0.05834300071001053,-0.9942499995231628],"max":[0.44165998697280884,-0.7586299777030945],"type":"VEC2","bufferView":2,"byteOffset":79632},{"name":"Porygon_Z_1_1_indices","componentType":5123,"count":522,"min":[0],"max":[521],"type":"SCALAR","bufferView":3,"byteOffset":19908}],"asset":{"generator":"obj2gltf","version":"2.0"},"buffers":[{"name":"XY_Porygon-Z","byteLength":435600,"uri":"data:application/octet-stream;base64,"}],"bufferViews":[{"name":"bufferView_0","buffer":0,"byteLength":125712,"byteOffset":0,"byteStride":12,"target":34962},{"name":"bufferView_1","buffer":0,"byteLength":125712,"byteOffset":125712,"byteStride":12,"target":34962},{"name":"bufferView_2","buffer":0,"byteLength":83808,"byteOffset":251424,"byteStride":8,"target":34962},{"name":"bufferView_3","buffer":0,"byteLength":20952,"byteOffset":335232,"target":34963},{"buffer":0,"byteOffset":356184,"byteLength":41627},{"buffer":0,"byteOffset":397811,"byteLength":37786}],"images":[{"name":"pm0474_00_Body1","mimeType":"image/png","bufferView":4},{"name":"pm0474_00_Eye1","mimeType":"image/png","bufferView":5}],"materials":[{"name":"Material__35","pbrMetallicRoughness":{"baseColorTexture":{"index":0},"baseColorFactor":[1,1,1,1],"metallicFactor":0,"roughnessFactor":0.998},"emissiveFactor":[0,0,0],"alphaMode":"OPAQUE","doubleSided":false},{"name":"Material__36","pbrMetallicRoughness":{"baseColorTexture":{"index":1},"baseColorFactor":[1,1,1,1],"metallicFactor":0,"roughnessFactor":0.998},"emissiveFactor":[0,0,0],"alphaMode":"OPAQUE","doubleSided":false}],"meshes":[{"name":"Porygon_Z_1","primitives":[{"attributes":{"POSITION":0,"NORMAL":1,"TEXCOORD_0":2},"indices":3,"material":0,"mode":4},{"attributes":{"POSITION":4,"NORMAL":5,"TEXCOORD_0":6},"indices":7,"material":1,"mode":4}]}],"nodes":[{"name":"Porygon_Z","mesh":0}],"samplers":[{"wrapS":10497,"wrapT":10497}],"scene":0,"scenes":[{"nodes":[0]}],"textures":[{"name":"pm0474_00_Body1","sampler":0,"source":0},{"name":"pm0474_00_Eye1","sampler":0,"source":1}]}