{"accessors":[{"name":"Gallade_1_0_positions","componentType":5126,"count":15288,"min":[-51.677101135253906,-0.000009999999747378752,-23.1683406829834],"max":[51.67710494995117,187.6836700439453,52.71001052856445],"type":"VEC3","bufferView":0,"byteOffset":0},{"name":"Gallade_1_0_normals","componentType":5126,"count":15288,"min":[-0.9999505877494812,-0.9999955296516418,-0.9999542832374573],"max":[0.9999862909317017,0.9999670386314392,0.9999634623527527],"type":"VEC3","bufferView":1,"byteOffset":0},{"name":"Gallade_1_0_texcoords","componentType":5126,"count":15288,"min":[0,0.006990000139921904],"max":[1,0.9921870231628418],"type":"VEC2","bufferView":2,"byteOffset":0},{"name":"Gallade_1_0_indices","componentType":5123,"count":15288,"min":[0],"max":[15287],"type":"SCALAR","bufferView":3,"byteOffset":0},{"name":"Gallade_1_1_positions","componentType":5126,"count":288,"min":[-15.613349914550781,129.03955078125,0.30388501286506653],"max":[15.613250732421875,142.7771759033203,11.892622947692871],"type":"VEC3","bufferView":0,"byteOffset":183456},{"name":"Gallade_1_1_normals","componentType":5126,"count":288,"min":[-0.9999505877494812,-0.9999955296516418,-0.041541989892721176],"max":[0.9996646642684937,0.01194800529628992,0.38023191690444946],"type":"VEC3","bufferView":1,"byteOffset":183456},{"name":"Gallade_1_1_texcoords","componentType":5126,"count":288,"min":[0.009019000455737114,-0.9511399865150452],"max":[0.49097999930381775,-0.7760800123214722],"type":"VEC2","bufferView":2,"byteOffset":122304},{"name":"Gallade_1_1_indices","componentType":5123,"count":288,"min":[0],"max":[287],"type":"SCALAR","bufferView":3,"byteOffset":30576},{"name":"Gallade_1_2_positions","componentType":5126,"count":168,"min":[-8.905349731445312,126.59500885009766,-0.04906800016760826],"max":[8.905330657958984,131.0029754638672,11.892622947692871],"type":"VEC3","bufferView":0,"byteOffset":186912},{"name":"Gallade_1_2_normals","componentType":5126,"count":168,"min":[-0.9998595118522644,-0.9999955296516418,-0.04642000049352646],"max":[0.9997382164001465,0.01773899234831333,0.3228778541088104],"type":"VEC3","bufferView":1,"byteOffset":186912},{"name":"Gallade_1_2_texcoords","componentType":5126,"count":168,"min":[0.0788860023021698,-1.9886800050735474],"max":[0.42111000418663025,-1.7570300102233887],"type":"VEC2","bufferView":2,"byteOffset":124608},{"name":"Gallade_1_2_indices","componentType":5123,"count":168,"min":[0],"max":[167],"type":"SCALAR","bufferView":3,"byteOffset":31152}],"asset":{"generator":"obj2gltf","version":"2.0"},"buffers":[{"name":"XY_Gallade","byteLength":654684,"uri":"data:application/octet-stream;base64,"}],"bufferViews":[{"name":"bufferView_0","buffer":0,"byteLength":188928,"byteOffset":0,"byteStride":12,"target":34962},{"name":"bufferView_1","buffer":0,"byteLength":188928,"byteOffset":188928,"byteStride":12,"target":34962},{"name":"bufferView_2","buffer":0,"byteLength":125952,"byteOffset":377856,"byteStride":8,"target":34962},{"name":"bufferView_3","buffer":0,"byteLength":31488,"byteOffset":503808,"target":34963},{"buffer":0,"byteOffset":535296,"byteLength":53529},{"buffer":0,"byteOffset":588825,"byteLength":46030},{"buffer":0,"byteOffset":634855,"byteLength":19829}],"images":[{"name":"pm0475_00_Body1","mimeType":"image/png","bufferView":4},{"name":"pm0475_00_Eye1","mimeType":"image/png","bufferView":5},{"name":"pm0475_00_Mouth1","mimeType":"image/png","bufferView":6}],"materials":[{"name":"Material__110","pbrMetallicRoughness":{"baseColorTexture":{"index":0},"baseColorFactor":[1,1,1,1],"metallicFactor":0,"roughnessFactor":0.998},"emissiveFactor":[0,0,0],"alphaMode":"OPAQUE","doubleSided":false},{"name":"Material__111","pbrMetallicRoughness":{"baseColorTexture":{"index":1},"baseColorFactor":[1,1,1,1],"metallicFactor":0,"roughnessFactor":0.998},"emissiveFactor":[0,0,0],"alphaMode":"OPAQUE","doubleSided":false},{"name":"Material__112","pbrMetallicRoughness":{"baseColorTexture":{"index":2},"baseColorFactor":[1,1,1,1],"metallicFactor":0,"roughnessFactor":0.998},"emissiveFactor":[0,0,0],"alphaMode":"OPAQUE","doubleSided":false}],"meshes":[{"name":"Gallade_1","primitives":[{"attributes":{"POSITION":0,"NORMAL":1,"TEXCOORD_0":2},"indices":3,"material":0,"mode":4},{"attributes":{"POSITION":4,"NORMAL":5,"TEXCOORD_0":6},"indices":7,"material":1,"mode":4},{"attributes":{"POSITION":8,"NORMAL":9,"TEXCOORD_0":10},"indices":11,"material":2,"mode":4}]}],"nodes":[{"name":"Gallade","mesh":0}],"samplers":[{"wrapS":10497,"wrapT":10497}],"scene":0,"scenes":[{"nodes":[0]}],"textures":[{"name":"pm0475_00_Body1","sampler":0,"source":0},{"name":"pm0475_00_Eye1","sampler":0,"source":1},{"name":"pm0475_00_Mouth1","sampler":0,"source":2}]}