{"accessors":[{"name":"erureido-Mesh_0_positions","componentType":5126,"count":7,"min":[-0.33393698930740356,0.46011099219322205,-10.740774154663086],"max":[0.33184000849723816,1.0030889511108398,-10.486547470092773],"type":"VEC3","bufferView":0,"byteOffset":0},{"name":"erureido-Mesh_0_texcoords","componentType":5126,"count":7,"min":[0.5439050197601318,0.011130000464618206],"max":[0.6929559707641602,0.14687000215053558],"type":"VEC2","bufferView":1,"byteOffset":0},{"name":"erureido-Mesh_0_indices","componentType":5123,"count":18,"min":[0],"max":[6],"type":"SCALAR","bufferView":2,"byteOffset":0},{"name":"erureido-Mesh_1_positions","componentType":5126,"count":710,"min":[-7.597315788269043,-2.096359968185425,-16.001874923706055],"max":[7.597315788269043,2.0081260204315186,-0.00003400000059627928],"type":"VEC3","bufferView":0,"byteOffset":84},{"name":"erureido-Mesh_1_texcoords","componentType":5126,"count":710,"min":[0.006198999937623739,0.013615000061690807],"max":[0.46153101325035095,0.9858409762382507],"type":"VEC2","bufferView":1,"byteOffset":56},{"name":"erureido-Mesh_1_indices","componentType":5123,"count":3120,"min":[0],"max":[709],"type":"SCALAR","bufferView":2,"byteOffset":36},{"name":"erureido-Mesh_2_positions","componentType":5126,"count":14,"min":[-1.3751469850540161,0.3544819951057434,-12.12159538269043],"max":[1.3730499744415283,1.0481820106506348,-10.97541618347168],"type":"VEC3","bufferView":0,"byteOffset":8604},{"name":"erureido-Mesh_2_texcoords","componentType":5126,"count":14,"min":[0.7844840288162231,0.007215000223368406],"max":[0.9852340221405029,0.23515300452709198],"type":"VEC2","bufferView":1,"byteOffset":5736},{"name":"erureido-Mesh_2_indices","componentType":5123,"count":30,"min":[0],"max":[13],"type":"SCALAR","bufferView":2,"byteOffset":6276}],"asset":{"generator":"obj2gltf","version":"2.0"},"buffers":[{"name":"BR_Gallade-Shiny01","byteLength":1069552,"uri":"data:application/octet-stream;base64,"}],"bufferViews":[{"name":"bufferView_0","buffer":0,"byteLength":8772,"byteOffset":0,"byteStride":12,"target":34962},{"name":"bufferView_1","buffer":0,"byteLength":5848,"byteOffset":8772,"byteStride":8,"target":34962},{"name":"bufferView_2","buffer":0,"byteLength":6336,"byteOffset":14620,"target":34963},{"buffer":0,"byteOffset":20956,"byteLength":1048594}],"images":[{"name":"erureido_1_0","mimeType":"image/x-tga","bufferView":3}],"materials":[{"name":"mat_0","pbrMetallicRoughness":{"baseColorTexture":{"index":0},"baseColorFactor":[1,1,1,1],"metallicFactor":0,"roughnessFactor":0.903921569},"emissiveFactor":[0,0,0],"alphaMode":"BLEND","doubleSided":true},{"name":"mat_1","pbrMetallicRoughness":{"baseColorTexture":{"index":0},"baseColorFactor":[1,1,1,1],"metallicFactor":0,"roughnessFactor":0.903921569},"emissiveFactor":[0,0,0],"alphaMode":"BLEND","doubleSided":true},{"name":"mat_2","pbrMetallicRoughness":{"baseColorTexture":{"index":0},"baseColorFactor":[1,1,1,1],"metallicFactor":0,"roughnessFactor":0.903921569},"emissiveFactor":[0,0,0],"alphaMode":"BLEND","doubleSided":true}],"meshes":[{"name":"erureido-Mesh","primitives":[{"attributes":{"POSITION":0,"TEXCOORD_0":1},"indices":2,"material":0,"mode":4},{"attributes":{"POSITION":3,"TEXCOORD_0":4},"indices":5,"material":1,"mode":4},{"attributes":{"POSITION":6,"TEXCOORD_0":7},"indices":8,"material":2,"mode":4}]}],"nodes":[{"name":"erureido","mesh":0}],"samplers":[{"wrapS":10497,"wrapT":10497}],"scene":0,"scenes":[{"nodes":[0]}],"textures":[{"name":"erureido_1_0","sampler":0,"source":0}]}