{"accessors":[{"name":"dainose-Mesh_0_positions","componentType":5126,"count":1784,"min":[-14.173901557922363,-14.271995544433594,-20.200092315673828],"max":[14.173903465270996,11.91679859161377,0.011927999556064606],"type":"VEC3","bufferView":0,"byteOffset":0},{"name":"dainose-Mesh_0_texcoords","componentType":5126,"count":1784,"min":[0.003602999961003661,0.0052640000358223915],"max":[0.7942129969596863,0.9791370034217834],"type":"VEC2","bufferView":1,"byteOffset":0},{"name":"dainose-Mesh_0_indices","componentType":5123,"count":3486,"min":[0],"max":[1783],"type":"SCALAR","bufferView":2,"byteOffset":0},{"name":"dainose-Mesh_1_positions","componentType":5126,"count":66,"min":[-2.9786219596862793,1.449753999710083,-14.699651718139648],"max":[2.9786219596862793,3.15310001373291,-12.633779525756836],"type":"VEC3","bufferView":0,"byteOffset":21408},{"name":"dainose-Mesh_1_texcoords","componentType":5126,"count":66,"min":[0.8482270240783691,0.048565998673439026],"max":[0.9603570103645325,0.16069599986076355],"type":"VEC2","bufferView":1,"byteOffset":14272},{"name":"dainose-Mesh_1_indices","componentType":5123,"count":336,"min":[0],"max":[65],"type":"SCALAR","bufferView":2,"byteOffset":6972}],"asset":{"generator":"obj2gltf","version":"2.0"},"buffers":[{"name":"BR_Probopass-Shiny01","byteLength":1093240,"uri":"data:application/octet-stream;base64,"}],"bufferViews":[{"name":"bufferView_0","buffer":0,"byteLength":22200,"byteOffset":0,"byteStride":12,"target":34962},{"name":"bufferView_1","buffer":0,"byteLength":14800,"byteOffset":22200,"byteStride":8,"target":34962},{"name":"bufferView_2","buffer":0,"byteLength":7644,"byteOffset":37000,"target":34963},{"buffer":0,"byteOffset":44644,"byteLength":1048594}],"images":[{"name":"dainose_1_0","mimeType":"image/x-tga","bufferView":3}],"materials":[{"name":"mat_0","pbrMetallicRoughness":{"baseColorTexture":{"index":0},"baseColorFactor":[1,1,1,1],"metallicFactor":0,"roughnessFactor":0.903921569},"emissiveFactor":[0,0,0],"alphaMode":"BLEND","doubleSided":true},{"name":"mat_1","pbrMetallicRoughness":{"baseColorTexture":{"index":0},"baseColorFactor":[1,1,1,1],"metallicFactor":0,"roughnessFactor":0.903921569},"emissiveFactor":[0,0,0],"alphaMode":"BLEND","doubleSided":true}],"meshes":[{"name":"dainose-Mesh","primitives":[{"attributes":{"POSITION":0,"TEXCOORD_0":1},"indices":2,"material":0,"mode":4},{"attributes":{"POSITION":3,"TEXCOORD_0":4},"indices":5,"material":1,"mode":4}]}],"nodes":[{"name":"dainose","mesh":0}],"samplers":[{"wrapS":10497,"wrapT":10497}],"scene":0,"scenes":[{"nodes":[0]}],"textures":[{"name":"dainose_1_0","sampler":0,"source":0}]}