{"accessors":[{"name":"polygon0_1_0_positions","componentType":5126,"count":836,"min":[-19.04497528076172,0.5065990090370178,-5.957579135894775],"max":[19.044971466064453,20.338926315307617,5.432870864868164],"type":"VEC3","bufferView":0,"byteOffset":0},{"name":"polygon0_1_0_normals","componentType":5126,"count":836,"min":[-0.999761700630188,-0.9998323321342468,-0.9999680519104004],"max":[0.999761700630188,0.9933096766471863,0.9999993443489075],"type":"VEC3","bufferView":1,"byteOffset":0},{"name":"polygon0_1_0_texcoords","componentType":5126,"count":836,"min":[0.01043699961155653,0.015227999538183212],"max":[0.98785400390625,0.9790650010108948],"type":"VEC2","bufferView":2,"byteOffset":0},{"name":"polygon0_1_0_indices","componentType":5123,"count":3258,"min":[0],"max":[835],"type":"SCALAR","bufferView":3,"byteOffset":0},{"name":"polygon1_1_0_positions","componentType":5126,"count":106,"min":[-0.6131060123443604,15.056751251220703,1.934306025505066],"max":[0.6131060123443604,16.337940216064453,3.23050594329834],"type":"VEC3","bufferView":0,"byteOffset":10032},{"name":"polygon1_1_0_normals","componentType":5126,"count":106,"min":[-0.9553715586662292,-0.9338551163673401,-0.942916214466095],"max":[0.9553715586662292,0.9530965685844421,0.9790206551551819],"type":"VEC3","bufferView":1,"byteOffset":10032},{"name":"polygon1_1_0_texcoords","componentType":5126,"count":106,"min":[0.024109000340104103,0.015685999765992165],"max":[0.9761959910392761,0.23144499957561493],"type":"VEC2","bufferView":2,"byteOffset":6688},{"name":"polygon1_1_0_indices","componentType":5123,"count":612,"min":[0],"max":[105],"type":"SCALAR","bufferView":3,"byteOffset":6516},{"name":"polygon2_1_0_positions","componentType":5126,"count":349,"min":[-10.2293062210083,6.096293926239014,-5.957579135894775],"max":[10.229308128356934,21.66489601135254,5.417459011077881],"type":"VEC3","bufferView":0,"byteOffset":11304},{"name":"polygon2_1_0_normals","componentType":5126,"count":349,"min":[-0.984282374382019,-0.9947894215583801,-0.999505877494812],"max":[0.9849963188171387,0.9998589754104614,0.9993305206298828],"type":"VEC3","bufferView":1,"byteOffset":11304},{"name":"polygon2_1_0_texcoords","componentType":5126,"count":349,"min":[0.003783999942243099,0.014526000246405602],"max":[0.984375,0.9875789880752563],"type":"VEC2","bufferView":2,"byteOffset":7536},{"name":"polygon2_1_0_indices","componentType":5123,"count":1110,"min":[0],"max":[348],"type":"SCALAR","bufferView":3,"byteOffset":7740}],"asset":{"generator":"obj2gltf","version":"2.0"},"buffers":[{"name":"Dusknoir","byteLength":260204,"uri":"data:application/octet-stream;base64,"}],"bufferViews":[{"name":"bufferView_0","buffer":0,"byteLength":15492,"byteOffset":0,"byteStride":12,"target":34962},{"name":"bufferView_1","buffer":0,"byteLength":15492,"byteOffset":15492,"byteStride":12,"target":34962},{"name":"bufferView_2","buffer":0,"byteLength":10328,"byteOffset":30984,"byteStride":8,"target":34962},{"name":"bufferView_3","buffer":0,"byteLength":9960,"byteOffset":41312,"target":34963},{"buffer":0,"byteOffset":51272,"byteLength":196626},{"buffer":0,"byteOffset":247898,"byteLength":12306}],"images":[{"name":"YonoirDh","mimeType":"image/x-tga","bufferView":4},{"name":"YonoirEyeDh","mimeType":"image/x-tga","bufferView":5}],"materials":[{"name":"mat1","pbrMetallicRoughness":{"baseColorTexture":{"index":0},"baseColorFactor":[1,1,1,1],"metallicFactor":0,"roughnessFactor":0.99},"emissiveFactor":[0,0,0],"alphaMode":"OPAQUE","doubleSided":false},{"name":"mat3","pbrMetallicRoughness":{"baseColorTexture":{"index":1},"baseColorFactor":[1,1,1,1],"metallicFactor":0,"roughnessFactor":0.99},"emissiveFactor":[0,0,0],"alphaMode":"OPAQUE","doubleSided":false},{"name":"mat2","pbrMetallicRoughness":{"baseColorTexture":{"index":0},"baseColorFactor":[1,1,1,1],"metallicFactor":0,"roughnessFactor":0.99},"emissiveFactor":[0,0,0],"alphaMode":"OPAQUE","doubleSided":false}],"meshes":[{"name":"polygon0_1","primitives":[{"attributes":{"POSITION":0,"NORMAL":1,"TEXCOORD_0":2},"indices":3,"material":0,"mode":4}]},{"name":"polygon1_1","primitives":[{"attributes":{"POSITION":4,"NORMAL":5,"TEXCOORD_0":6},"indices":7,"material":1,"mode":4}]},{"name":"polygon2_1","primitives":[{"attributes":{"POSITION":8,"NORMAL":9,"TEXCOORD_0":10},"indices":11,"material":2,"mode":4}]}],"nodes":[{"name":"polygon0","mesh":0},{"name":"polygon1","mesh":1},{"name":"polygon2","mesh":2}],"samplers":[{"wrapS":10497,"wrapT":10497}],"scene":0,"scenes":[{"nodes":[0,1,2]}],"textures":[{"name":"YonoirDh","sampler":0,"source":0},{"name":"YonoirEyeDh","sampler":0,"source":1}]}