{"accessors":[{"name":"polygon0_1_0_positions","componentType":5126,"count":958,"min":[-2.4625749588012695,0.10645599663257599,-4.67052698135376],"max":[2.462574005126953,13.042760848999023,2.2099430561065674],"type":"VEC3","bufferView":0,"byteOffset":0},{"name":"polygon0_1_0_normals","componentType":5126,"count":958,"min":[-0.9996760487556458,-1,-0.9990599751472473],"max":[0.9996760487556458,0.9998863339424133,0.9990472793579102],"type":"VEC3","bufferView":1,"byteOffset":0},{"name":"polygon0_1_0_texcoords","componentType":5126,"count":958,"min":[0.007507000118494034,0.003783999942243099],"max":[0.9954829812049866,0.9937739968299866],"type":"VEC2","bufferView":2,"byteOffset":0},{"name":"polygon0_1_0_indices","componentType":5123,"count":4356,"min":[0],"max":[957],"type":"SCALAR","bufferView":3,"byteOffset":0},{"name":"polygon1_1_0_positions","componentType":5126,"count":50,"min":[-1.851423978805542,9.285880088806152,0.942156970500946],"max":[1.8514230251312256,10.99298095703125,1.799536943435669],"type":"VEC3","bufferView":0,"byteOffset":11496},{"name":"polygon1_1_0_normals","componentType":5126,"count":50,"min":[-0.8021189570426941,-0.49425792694091797,0.5950889587402344],"max":[0.8021189570426941,0.2744811475276947,0.9679637551307678],"type":"VEC3","bufferView":1,"byteOffset":11496},{"name":"polygon1_1_0_texcoords","componentType":5126,"count":50,"min":[0.007813000120222569,0.0078119998797774315],"max":[0.4960939884185791,0.2460940033197403],"type":"VEC2","bufferView":2,"byteOffset":7664},{"name":"polygon1_1_0_indices","componentType":5123,"count":210,"min":[0],"max":[49],"type":"SCALAR","bufferView":3,"byteOffset":8712},{"name":"polygon2_1_0_positions","componentType":5126,"count":13,"min":[-0.8950960040092468,8.170722007751465,0.7326070070266724],"max":[0.8950939774513245,9.096898078918457,1.4443880319595337],"type":"VEC3","bufferView":0,"byteOffset":12096},{"name":"polygon2_1_0_normals","componentType":5126,"count":13,"min":[-0.5930150747299194,-0.9156494140625,0.36944276094436646],"max":[0.5930150747299194,-0.4111310541629791,0.8708380460739136],"type":"VEC3","bufferView":1,"byteOffset":12096},{"name":"polygon2_1_0_texcoords","componentType":5126,"count":13,"min":[0.08621200174093246,0.01617399975657463],"max":[0.7319639921188354,0.3758240044116974],"type":"VEC2","bufferView":2,"byteOffset":8064},{"name":"polygon2_1_0_indices","componentType":5123,"count":36,"min":[0],"max":[12],"type":"SCALAR","bufferView":3,"byteOffset":9132},{"name":"polygon3_1_0_positions","componentType":5126,"count":84,"min":[-2.252574920654297,11.68940544128418,-0.28962498903274536],"max":[2.252574920654297,13.166074752807617,1.1949490308761597],"type":"VEC3","bufferView":0,"byteOffset":12252},{"name":"polygon3_1_0_normals","componentType":5126,"count":84,"min":[-0.9927723407745361,-0.4038029611110687,-0.891301155090332],"max":[0.9927723407745361,0.9191381931304932,0.9621695280075073],"type":"VEC3","bufferView":1,"byteOffset":12252},{"name":"polygon3_1_0_texcoords","componentType":5126,"count":84,"min":[0.8952640295028687,0.9264529943466187],"max":[0.9616699814796448,0.9882509708404541],"type":"VEC2","bufferView":2,"byteOffset":8168},{"name":"polygon3_1_0_indices","componentType":5123,"count":108,"min":[0],"max":[83],"type":"SCALAR","bufferView":3,"byteOffset":9204}],"asset":{"generator":"obj2gltf","version":"2.0"},"buffers":[{"name":"Froslass","byteLength":364324,"uri":"data:application/octet-stream;base64,"}],"bufferViews":[{"name":"bufferView_0","buffer":0,"byteLength":13260,"byteOffset":0,"byteStride":12,"target":34962},{"name":"bufferView_1","buffer":0,"byteLength":13260,"byteOffset":13260,"byteStride":12,"target":34962},{"name":"bufferView_2","buffer":0,"byteLength":8840,"byteOffset":26520,"byteStride":8,"target":34962},{"name":"bufferView_3","buffer":0,"byteLength":9420,"byteOffset":35360,"target":34963},{"buffer":0,"byteOffset":44780,"byteLength":196626},{"buffer":0,"byteOffset":241406,"byteLength":98322},{"buffer":0,"byteOffset":339728,"byteLength":24594}],"images":[{"name":"YukimenokoDh","mimeType":"image/x-tga","bufferView":4},{"name":"YukimenokoEyeDH","mimeType":"image/x-tga","bufferView":5},{"name":"YukimenokoMouthDh","mimeType":"image/x-tga","bufferView":6}],"materials":[{"name":"mat1","pbrMetallicRoughness":{"baseColorTexture":{"index":0},"baseColorFactor":[1,1,1,1],"metallicFactor":0,"roughnessFactor":0.99},"emissiveFactor":[0,0,0],"alphaMode":"OPAQUE","doubleSided":false},{"name":"mat2","pbrMetallicRoughness":{"baseColorTexture":{"index":1},"baseColorFactor":[1,1,1,1],"metallicFactor":0,"roughnessFactor":0.99},"emissiveFactor":[0,0,0],"alphaMode":"OPAQUE","doubleSided":false},{"name":"mat3","pbrMetallicRoughness":{"baseColorTexture":{"index":2},"baseColorFactor":[1,1,1,1],"metallicFactor":0,"roughnessFactor":0.99},"emissiveFactor":[0,0,0],"alphaMode":"OPAQUE","doubleSided":false},{"name":"mat4","pbrMetallicRoughness":{"baseColorTexture":{"index":0},"baseColorFactor":[1,1,1,1],"metallicFactor":0,"roughnessFactor":0.99},"emissiveFactor":[0,0,0],"alphaMode":"OPAQUE","doubleSided":false}],"meshes":[{"name":"polygon0_1","primitives":[{"attributes":{"POSITION":0,"NORMAL":1,"TEXCOORD_0":2},"indices":3,"material":0,"mode":4}]},{"name":"polygon1_1","primitives":[{"attributes":{"POSITION":4,"NORMAL":5,"TEXCOORD_0":6},"indices":7,"material":1,"mode":4}]},{"name":"polygon2_1","primitives":[{"attributes":{"POSITION":8,"NORMAL":9,"TEXCOORD_0":10},"indices":11,"material":2,"mode":4}]},{"name":"polygon3_1","primitives":[{"attributes":{"POSITION":12,"NORMAL":13,"TEXCOORD_0":14},"indices":15,"material":3,"mode":4}]}],"nodes":[{"name":"polygon0","mesh":0},{"name":"polygon1","mesh":1},{"name":"polygon2","mesh":2},{"name":"polygon3","mesh":3}],"samplers":[{"wrapS":10497,"wrapT":10497}],"scene":0,"scenes":[{"nodes":[0,1,2,3]}],"textures":[{"name":"YukimenokoDh","sampler":0,"source":0},{"name":"YukimenokoEyeDH","sampler":0,"source":1},{"name":"YukimenokoMouthDh","sampler":0,"source":2}]}