{"accessors":[{"name":"polygon0_1_0_positions","componentType":5126,"count":721,"min":[-2.2592949867248535,-1.1105400323867798,-1.0484960079193115],"max":[2.3025970458984375,1.8142249584197998,0.9328740239143372],"type":"VEC3","bufferView":0,"byteOffset":0},{"name":"polygon0_1_0_normals","componentType":5126,"count":721,"min":[-0.9994567036628723,-0.9999743103981018,-1],"max":[0.9994567036628723,0.9999743103981018,1],"type":"VEC3","bufferView":1,"byteOffset":0},{"name":"polygon0_1_0_texcoords","componentType":5126,"count":721,"min":[0.1809999942779541,0.19583100080490112],"max":[0.3937990069389343,0.8600770235061646],"type":"VEC2","bufferView":2,"byteOffset":0},{"name":"polygon0_1_0_indices","componentType":5123,"count":3174,"min":[0],"max":[720],"type":"SCALAR","bufferView":3,"byteOffset":0},{"name":"polygon1_1_0_positions","componentType":5126,"count":659,"min":[-0.7851639986038208,-1.051982045173645,-1.0061399936676025],"max":[0.7851639986038208,1.7803330421447754,0.866864025592804],"type":"VEC3","bufferView":0,"byteOffset":8652},{"name":"polygon1_1_0_normals","componentType":5126,"count":659,"min":[-1,-1,-1],"max":[1,1,1],"type":"VEC3","bufferView":1,"byteOffset":8652},{"name":"polygon1_1_0_texcoords","componentType":5126,"count":659,"min":[0.0008849999867379665,0.015197999775409698],"max":[0.9962769746780396,0.9951480031013489],"type":"VEC2","bufferView":2,"byteOffset":5768},{"name":"polygon1_1_0_indices","componentType":5123,"count":2532,"min":[0],"max":[658],"type":"SCALAR","bufferView":3,"byteOffset":6348},{"name":"polygon3_1_0_positions","componentType":5126,"count":6,"min":[-0.3377549946308136,0.6193450093269348,0.7543709874153137],"max":[0.3377549946308136,0.8194699883460999,0.7589290142059326],"type":"VEC3","bufferView":0,"byteOffset":16560},{"name":"polygon3_1_0_normals","componentType":5126,"count":6,"min":[0,-0.015622999519109726,0.9998779296875],"max":[0,-0.015622999519109726,0.9998779296875],"type":"VEC3","bufferView":1,"byteOffset":16560},{"name":"polygon3_1_0_texcoords","componentType":5126,"count":6,"min":[0.0252080000936985,0.009368999861180782],"max":[0.9747920036315918,0.243134006857872],"type":"VEC2","bufferView":2,"byteOffset":11040},{"name":"polygon3_1_0_indices","componentType":5123,"count":12,"min":[0],"max":[5],"type":"SCALAR","bufferView":3,"byteOffset":11412}],"asset":{"generator":"obj2gltf","version":"2.0"},"buffers":[{"name":"Rotom005","byteLength":301584,"uri":"data:application/octet-stream;base64,"}],"bufferViews":[{"name":"bufferView_0","buffer":0,"byteLength":16632,"byteOffset":0,"byteStride":12,"target":34962},{"name":"bufferView_1","buffer":0,"byteLength":16632,"byteOffset":16632,"byteStride":12,"target":34962},{"name":"bufferView_2","buffer":0,"byteLength":11088,"byteOffset":33264,"byteStride":8,"target":34962},{"name":"bufferView_3","buffer":0,"byteLength":11436,"byteOffset":44352,"target":34963},{"buffer":0,"byteOffset":55788,"byteLength":196626},{"buffer":0,"byteOffset":252414,"byteLength":49170}],"images":[{"name":"Rotom005Dh","mimeType":"image/x-tga","bufferView":4},{"name":"Rotom005MouthDh","mimeType":"image/x-tga","bufferView":5}],"materials":[{"name":"mat2","pbrMetallicRoughness":{"baseColorTexture":{"index":0},"baseColorFactor":[1,1,1,1],"metallicFactor":0,"roughnessFactor":0.99},"emissiveFactor":[0,0,0],"alphaMode":"OPAQUE","doubleSided":false},{"name":"mat1","pbrMetallicRoughness":{"baseColorTexture":{"index":0},"baseColorFactor":[1,1,1,1],"metallicFactor":0,"roughnessFactor":0.99},"emissiveFactor":[0,0,0],"alphaMode":"OPAQUE","doubleSided":false},{"name":"mat3","pbrMetallicRoughness":{"baseColorTexture":{"index":1},"baseColorFactor":[1,1,1,1],"metallicFactor":0,"roughnessFactor":0.99},"emissiveFactor":[0,0,0],"alphaMode":"OPAQUE","doubleSided":false}],"meshes":[{"name":"polygon0_1","primitives":[{"attributes":{"POSITION":0,"NORMAL":1,"TEXCOORD_0":2},"indices":3,"material":0,"mode":4}]},{"name":"polygon1_1","primitives":[{"attributes":{"POSITION":4,"NORMAL":5,"TEXCOORD_0":6},"indices":7,"material":1,"mode":4}]},{"name":"polygon3_1","primitives":[{"attributes":{"POSITION":8,"NORMAL":9,"TEXCOORD_0":10},"indices":11,"material":2,"mode":4}]}],"nodes":[{"name":"polygon0","mesh":0},{"name":"polygon1","mesh":1},{"name":"polygon3","mesh":2}],"samplers":[{"wrapS":10497,"wrapT":10497}],"scene":0,"scenes":[{"nodes":[0,1,2]}],"textures":[{"name":"Rotom005Dh","sampler":0,"source":0},{"name":"Rotom005MouthDh","sampler":0,"source":1}]}