{"accessors":[{"name":"polygon0_1_0_positions","componentType":5126,"count":491,"min":[-2.5202150344848633,-0.33393800258636475,-2.2276840209960938],"max":[2.520210027694702,2.714226007461548,0.7677760124206543],"type":"VEC3","bufferView":0,"byteOffset":0},{"name":"polygon0_1_0_normals","componentType":5126,"count":491,"min":[-1,-0.9998591542243958,-0.9999613761901855],"max":[1,1,0.9999613761901855],"type":"VEC3","bufferView":1,"byteOffset":0},{"name":"polygon0_1_0_texcoords","componentType":5126,"count":491,"min":[0.04296899959445,0.019531000405550003],"max":[0.4609380066394806,0.4765619933605194],"type":"VEC2","bufferView":2,"byteOffset":0},{"name":"polygon0_1_0_indices","componentType":5123,"count":2370,"min":[0],"max":[490],"type":"SCALAR","bufferView":3,"byteOffset":0},{"name":"polygon1_1_0_positions","componentType":5126,"count":854,"min":[-1.3172390460968018,-0.27799299359321594,-2.1818320751190186],"max":[1.3172390460968018,2.648197889328003,0.7179830074310303],"type":"VEC3","bufferView":0,"byteOffset":5892},{"name":"polygon1_1_0_normals","componentType":5126,"count":854,"min":[-1,-0.9998104572296143,-0.9998911619186401],"max":[1,0.9979943037033081,0.9999008178710938],"type":"VEC3","bufferView":1,"byteOffset":5892},{"name":"polygon1_1_0_texcoords","componentType":5126,"count":854,"min":[0.015502999536693096,0.005371000152081251],"max":[0.99481201171875,0.9918209910392761],"type":"VEC2","bufferView":2,"byteOffset":3928},{"name":"polygon1_1_0_indices","componentType":5123,"count":3588,"min":[0],"max":[853],"type":"SCALAR","bufferView":3,"byteOffset":4740}],"asset":{"generator":"obj2gltf","version":"2.0"},"buffers":[{"name":"Rotom002","byteLength":251584,"uri":"data:application/octet-stream;base64,"}],"bufferViews":[{"name":"bufferView_0","buffer":0,"byteLength":16140,"byteOffset":0,"byteStride":12,"target":34962},{"name":"bufferView_1","buffer":0,"byteLength":16140,"byteOffset":16140,"byteStride":12,"target":34962},{"name":"bufferView_2","buffer":0,"byteLength":10760,"byteOffset":32280,"byteStride":8,"target":34962},{"name":"bufferView_3","buffer":0,"byteLength":11916,"byteOffset":43040,"target":34963},{"buffer":0,"byteOffset":54956,"byteLength":196626}],"images":[{"name":"Rotom002Dh","mimeType":"image/x-tga","bufferView":4}],"materials":[{"name":"mat2","pbrMetallicRoughness":{"baseColorTexture":{"index":0},"baseColorFactor":[1,1,1,1],"metallicFactor":0,"roughnessFactor":0.99},"emissiveFactor":[0,0,0],"alphaMode":"OPAQUE","doubleSided":false},{"name":"mat1","pbrMetallicRoughness":{"baseColorTexture":{"index":0},"baseColorFactor":[1,1,1,1],"metallicFactor":0,"roughnessFactor":0.99},"emissiveFactor":[0,0,0],"alphaMode":"OPAQUE","doubleSided":false}],"meshes":[{"name":"polygon0_1","primitives":[{"attributes":{"POSITION":0,"NORMAL":1,"TEXCOORD_0":2},"indices":3,"material":0,"mode":4}]},{"name":"polygon1_1","primitives":[{"attributes":{"POSITION":4,"NORMAL":5,"TEXCOORD_0":6},"indices":7,"material":1,"mode":4}]}],"nodes":[{"name":"polygon0","mesh":0},{"name":"polygon1","mesh":1}],"samplers":[{"wrapS":10497,"wrapT":10497}],"scene":0,"scenes":[{"nodes":[0,1]}],"textures":[{"name":"Rotom002Dh","sampler":0,"source":0}]}