{"accessors":[{"name":"polygon0_1_0_positions","componentType":5126,"count":571,"min":[-2.5922799110412598,-0.9995499849319458,-0.9679809808731079],"max":[2.768678903579712,2.0462119579315186,1.0322970151901245],"type":"VEC3","bufferView":0,"byteOffset":0},{"name":"polygon0_1_0_normals","componentType":5126,"count":571,"min":[-0.9999940395355225,-0.9999940395355225,-1],"max":[1,1,0.9999997615814209],"type":"VEC3","bufferView":1,"byteOffset":0},{"name":"polygon0_1_0_texcoords","componentType":5126,"count":571,"min":[0.01620499975979328,0.4826050102710724],"max":[0.2752690017223358,0.9801030158996582],"type":"VEC2","bufferView":2,"byteOffset":0},{"name":"polygon0_1_0_indices","componentType":5123,"count":2388,"min":[0],"max":[570],"type":"SCALAR","bufferView":3,"byteOffset":0},{"name":"polygon1_1_0_positions","componentType":5126,"count":678,"min":[-2.544497013092041,-0.9359149932861328,-0.9042500257492065],"max":[0.9274659752845764,1.978171944618225,0.984703004360199],"type":"VEC3","bufferView":0,"byteOffset":6852},{"name":"polygon1_1_0_normals","componentType":5126,"count":678,"min":[-0.9999969005584717,-1,-1],"max":[1,1,1],"type":"VEC3","bufferView":1,"byteOffset":6852},{"name":"polygon1_1_0_texcoords","componentType":5126,"count":678,"min":[0.008666999638080597,0.0036319999489933252],"max":[0.9848020076751709,0.9830629825592041],"type":"VEC2","bufferView":2,"byteOffset":4568},{"name":"polygon1_1_0_indices","componentType":5123,"count":2580,"min":[0],"max":[677],"type":"SCALAR","bufferView":3,"byteOffset":4776},{"name":"polygon2_1_0_positions","componentType":5126,"count":13,"min":[-0.2928990125656128,0.7418990135192871,0.7194219827651978],"max":[0.2928990125656128,0.9951000213623047,0.8212869763374329],"type":"VEC3","bufferView":0,"byteOffset":14988},{"name":"polygon2_1_0_normals","componentType":5126,"count":13,"min":[-0.1348319947719574,0.3593200743198395,0.8666090369224548],"max":[0.1348319947719574,0.48042601346969604,0.9328771829605103],"type":"VEC3","bufferView":1,"byteOffset":14988},{"name":"polygon2_1_0_texcoords","componentType":5126,"count":13,"min":[0.014526000246405602,0.010711999610066414],"max":[0.948822021484375,0.25201401114463806],"type":"VEC2","bufferView":2,"byteOffset":9992},{"name":"polygon2_1_0_indices","componentType":5123,"count":42,"min":[0],"max":[12],"type":"SCALAR","bufferView":3,"byteOffset":9936}],"asset":{"generator":"obj2gltf","version":"2.0"},"buffers":[{"name":"Rotom001","byteLength":296200,"uri":"data:application/octet-stream;base64,"}],"bufferViews":[{"name":"bufferView_0","buffer":0,"byteLength":15144,"byteOffset":0,"byteStride":12,"target":34962},{"name":"bufferView_1","buffer":0,"byteLength":15144,"byteOffset":15144,"byteStride":12,"target":34962},{"name":"bufferView_2","buffer":0,"byteLength":10096,"byteOffset":30288,"byteStride":8,"target":34962},{"name":"bufferView_3","buffer":0,"byteLength":10020,"byteOffset":40384,"target":34963},{"buffer":0,"byteOffset":50404,"byteLength":196626},{"buffer":0,"byteOffset":247030,"byteLength":49170}],"images":[{"name":"Rotom001Dh","mimeType":"image/x-tga","bufferView":4},{"name":"Rotom001MouthDh","mimeType":"image/x-tga","bufferView":5}],"materials":[{"name":"mat2","pbrMetallicRoughness":{"baseColorTexture":{"index":0},"baseColorFactor":[1,1,1,1],"metallicFactor":0,"roughnessFactor":0.99},"emissiveFactor":[0,0,0],"alphaMode":"OPAQUE","doubleSided":false},{"name":"mat1","pbrMetallicRoughness":{"baseColorTexture":{"index":0},"baseColorFactor":[1,1,1,1],"metallicFactor":0,"roughnessFactor":0.99},"emissiveFactor":[0,0,0],"alphaMode":"OPAQUE","doubleSided":false},{"name":"mat3","pbrMetallicRoughness":{"baseColorTexture":{"index":1},"baseColorFactor":[1,1,1,1],"metallicFactor":0,"roughnessFactor":0.99},"emissiveFactor":[0,0,0],"alphaMode":"OPAQUE","doubleSided":false}],"meshes":[{"name":"polygon0_1","primitives":[{"attributes":{"POSITION":0,"NORMAL":1,"TEXCOORD_0":2},"indices":3,"material":0,"mode":4}]},{"name":"polygon1_1","primitives":[{"attributes":{"POSITION":4,"NORMAL":5,"TEXCOORD_0":6},"indices":7,"material":1,"mode":4}]},{"name":"polygon2_1","primitives":[{"attributes":{"POSITION":8,"NORMAL":9,"TEXCOORD_0":10},"indices":11,"material":2,"mode":4}]}],"nodes":[{"name":"polygon0","mesh":0},{"name":"polygon1","mesh":1},{"name":"polygon2","mesh":2}],"samplers":[{"wrapS":10497,"wrapT":10497}],"scene":0,"scenes":[{"nodes":[0,1,2]}],"textures":[{"name":"Rotom001Dh","sampler":0,"source":0},{"name":"Rotom001MouthDh","sampler":0,"source":1}]}