{"accessors":[{"name":"polygon0_1_0_positions","componentType":5126,"count":629,"min":[-2.7126450538635254,-0.8837699890136719,-1.0346479415893555],"max":[2.787990093231201,1.7072750329971313,1.1684650182724],"type":"VEC3","bufferView":0,"byteOffset":0},{"name":"polygon0_1_0_normals","componentType":5126,"count":629,"min":[-1,-1,-1],"max":[1,1,1],"type":"VEC3","bufferView":1,"byteOffset":0},{"name":"polygon0_1_0_texcoords","componentType":5126,"count":629,"min":[0.22448700666427612,0.4651179909706116],"max":[0.4241330027580261,0.6922910213470459],"type":"VEC2","bufferView":2,"byteOffset":0},{"name":"polygon0_1_0_indices","componentType":5123,"count":2406,"min":[0],"max":[628],"type":"SCALAR","bufferView":3,"byteOffset":0},{"name":"polygon1_1_0_positions","componentType":5126,"count":627,"min":[-0.8360059857368469,-0.8096280097961426,-0.9631230235099792],"max":[0.8360059857368469,1.630748987197876,1.0965579748153687],"type":"VEC3","bufferView":0,"byteOffset":7548},{"name":"polygon1_1_0_normals","componentType":5126,"count":627,"min":[-1,-1,-1],"max":[1,0.9999997615814209,1],"type":"VEC3","bufferView":1,"byteOffset":7548},{"name":"polygon1_1_0_texcoords","componentType":5126,"count":627,"min":[0.017760999500751495,0.009917999617755413],"max":[0.9803159832954407,0.9921870231628418],"type":"VEC2","bufferView":2,"byteOffset":5032},{"name":"polygon1_1_0_indices","componentType":5123,"count":2292,"min":[0],"max":[626],"type":"SCALAR","bufferView":3,"byteOffset":4812},{"name":"polygon2_1_0_positions","componentType":5126,"count":9,"min":[-0.39448800683021545,0.4467729926109314,0.7938140034675598],"max":[0.39448800683021545,0.6972230076789856,0.8684030175209045],"type":"VEC3","bufferView":0,"byteOffset":15072},{"name":"polygon2_1_0_normals","componentType":5126,"count":9,"min":[-0.1126680076122284,0.17675597965717316,0.9183539748191833],"max":[0.1126680076122284,0.3957599997520447,0.9842429161071777],"type":"VEC3","bufferView":1,"byteOffset":15072},{"name":"polygon2_1_0_texcoords","componentType":5126,"count":9,"min":[0.0252080000936985,0.009368999861180782],"max":[0.9747920036315918,0.243134006857872],"type":"VEC2","bufferView":2,"byteOffset":10048},{"name":"polygon2_1_0_indices","componentType":5123,"count":24,"min":[0],"max":[8],"type":"SCALAR","bufferView":3,"byteOffset":9396}],"asset":{"generator":"obj2gltf","version":"2.0"},"buffers":[{"name":"Rotom004","byteLength":295720,"uri":"data:application/octet-stream;base64,"}],"bufferViews":[{"name":"bufferView_0","buffer":0,"byteLength":15180,"byteOffset":0,"byteStride":12,"target":34962},{"name":"bufferView_1","buffer":0,"byteLength":15180,"byteOffset":15180,"byteStride":12,"target":34962},{"name":"bufferView_2","buffer":0,"byteLength":10120,"byteOffset":30360,"byteStride":8,"target":34962},{"name":"bufferView_3","buffer":0,"byteLength":9444,"byteOffset":40480,"target":34963},{"buffer":0,"byteOffset":49924,"byteLength":196626},{"buffer":0,"byteOffset":246550,"byteLength":49170}],"images":[{"name":"Rotom004Dh","mimeType":"image/x-tga","bufferView":4},{"name":"Rotom004MouthDh","mimeType":"image/x-tga","bufferView":5}],"materials":[{"name":"mat2","pbrMetallicRoughness":{"baseColorTexture":{"index":0},"baseColorFactor":[1,1,1,1],"metallicFactor":0,"roughnessFactor":0.99},"emissiveFactor":[0,0,0],"alphaMode":"OPAQUE","doubleSided":false},{"name":"mat1","pbrMetallicRoughness":{"baseColorTexture":{"index":0},"baseColorFactor":[1,1,1,1],"metallicFactor":0,"roughnessFactor":0.99},"emissiveFactor":[0,0,0],"alphaMode":"OPAQUE","doubleSided":false},{"name":"mat3","pbrMetallicRoughness":{"baseColorTexture":{"index":1},"baseColorFactor":[1,1,1,1],"metallicFactor":0,"roughnessFactor":0.99},"emissiveFactor":[0,0,0],"alphaMode":"OPAQUE","doubleSided":false}],"meshes":[{"name":"polygon0_1","primitives":[{"attributes":{"POSITION":0,"NORMAL":1,"TEXCOORD_0":2},"indices":3,"material":0,"mode":4}]},{"name":"polygon1_1","primitives":[{"attributes":{"POSITION":4,"NORMAL":5,"TEXCOORD_0":6},"indices":7,"material":1,"mode":4}]},{"name":"polygon2_1","primitives":[{"attributes":{"POSITION":8,"NORMAL":9,"TEXCOORD_0":10},"indices":11,"material":2,"mode":4}]}],"nodes":[{"name":"polygon0","mesh":0},{"name":"polygon1","mesh":1},{"name":"polygon2","mesh":2}],"samplers":[{"wrapS":10497,"wrapT":10497}],"scene":0,"scenes":[{"nodes":[0,1,2]}],"textures":[{"name":"Rotom004Dh","sampler":0,"source":0},{"name":"Rotom004MouthDh","sampler":0,"source":1}]}