{"accessors":[{"name":"polygon0_1_0_positions","componentType":5126,"count":420,"min":[-2.7749669551849365,-0.35580599308013916,-0.5309590101242065],"max":[2.774967908859253,2.63456392288208,0.7458029985427856],"type":"VEC3","bufferView":0,"byteOffset":0},{"name":"polygon0_1_0_normals","componentType":5126,"count":420,"min":[-0.9982962012290955,-0.9998265504837036,-1],"max":[0.9982962012290955,1,0.9999973177909851],"type":"VEC3","bufferView":1,"byteOffset":0},{"name":"polygon0_1_0_texcoords","componentType":5126,"count":420,"min":[0.0057680001482367516,0.27368199825286865],"max":[0.9341430068016052,0.9780579805374146],"type":"VEC2","bufferView":2,"byteOffset":0},{"name":"polygon0_1_0_indices","componentType":5123,"count":2316,"min":[0],"max":[419],"type":"SCALAR","bufferView":3,"byteOffset":0},{"name":"polygon1_1_0_positions","componentType":5126,"count":591,"min":[-0.9738289713859558,-0.292834997177124,-0.42647600173950195],"max":[0.9738280177116394,2.5694289207458496,0.6948860287666321],"type":"VEC3","bufferView":0,"byteOffset":5040},{"name":"polygon1_1_0_normals","componentType":5126,"count":591,"min":[-0.9933357238769531,-1,-1],"max":[0.9933357238769531,0.9744604825973511,1],"type":"VEC3","bufferView":1,"byteOffset":5040},{"name":"polygon1_1_0_texcoords","componentType":5126,"count":591,"min":[0.007232999894768,0.011382999829947948],"max":[0.9804689884185791,0.9820250272750854],"type":"VEC2","bufferView":2,"byteOffset":3360},{"name":"polygon1_1_0_indices","componentType":5123,"count":2934,"min":[0],"max":[590],"type":"SCALAR","bufferView":3,"byteOffset":4632},{"name":"polygon2_1_0_positions","componentType":5126,"count":20,"min":[-0.24648700654506683,-0.019788000732660294,0.33167898654937744],"max":[0.24648700654506683,0.08795599639415741,0.40720298886299133],"type":"VEC3","bufferView":0,"byteOffset":12132},{"name":"polygon2_1_0_normals","componentType":5126,"count":20,"min":[-0.39270904660224915,-0.4645237624645233,0.8479790687561035],"max":[0.39270904660224915,-0.1805409938097,0.982612133026123],"type":"VEC3","bufferView":1,"byteOffset":12132},{"name":"polygon2_1_0_texcoords","componentType":5126,"count":20,"min":[0.01507600024342537,0.0160520002245903],"max":[0.9755550026893616,0.22814899682998657],"type":"VEC2","bufferView":2,"byteOffset":8088},{"name":"polygon2_1_0_indices","componentType":5123,"count":72,"min":[0],"max":[19],"type":"SCALAR","bufferView":3,"byteOffset":10500}],"asset":{"generator":"obj2gltf","version":"2.0"},"buffers":[{"name":"Rotom003","byteLength":289432,"uri":"data:application/octet-stream;base64,"}],"bufferViews":[{"name":"bufferView_0","buffer":0,"byteLength":12372,"byteOffset":0,"byteStride":12,"target":34962},{"name":"bufferView_1","buffer":0,"byteLength":12372,"byteOffset":12372,"byteStride":12,"target":34962},{"name":"bufferView_2","buffer":0,"byteLength":8248,"byteOffset":24744,"byteStride":8,"target":34962},{"name":"bufferView_3","buffer":0,"byteLength":10644,"byteOffset":32992,"target":34963},{"buffer":0,"byteOffset":43636,"byteLength":196626},{"buffer":0,"byteOffset":240262,"byteLength":49170}],"images":[{"name":"Rotom003Dh","mimeType":"image/x-tga","bufferView":4},{"name":"Rotom003MouthDh","mimeType":"image/x-tga","bufferView":5}],"materials":[{"name":"mat2","pbrMetallicRoughness":{"baseColorTexture":{"index":0},"baseColorFactor":[1,1,1,1],"metallicFactor":0,"roughnessFactor":0.99},"emissiveFactor":[0,0,0],"alphaMode":"OPAQUE","doubleSided":false},{"name":"mat1","pbrMetallicRoughness":{"baseColorTexture":{"index":0},"baseColorFactor":[1,1,1,1],"metallicFactor":0,"roughnessFactor":0.99},"emissiveFactor":[0,0,0],"alphaMode":"OPAQUE","doubleSided":false},{"name":"mat3","pbrMetallicRoughness":{"baseColorTexture":{"index":1},"baseColorFactor":[1,1,1,1],"metallicFactor":0,"roughnessFactor":0.99},"emissiveFactor":[0,0,0],"alphaMode":"OPAQUE","doubleSided":false}],"meshes":[{"name":"polygon0_1","primitives":[{"attributes":{"POSITION":0,"NORMAL":1,"TEXCOORD_0":2},"indices":3,"material":0,"mode":4}]},{"name":"polygon1_1","primitives":[{"attributes":{"POSITION":4,"NORMAL":5,"TEXCOORD_0":6},"indices":7,"material":1,"mode":4}]},{"name":"polygon2_1","primitives":[{"attributes":{"POSITION":8,"NORMAL":9,"TEXCOORD_0":10},"indices":11,"material":2,"mode":4}]}],"nodes":[{"name":"polygon0","mesh":0},{"name":"polygon1","mesh":1},{"name":"polygon2","mesh":2}],"samplers":[{"wrapS":10497,"wrapT":10497}],"scene":0,"scenes":[{"nodes":[0,1,2]}],"textures":[{"name":"Rotom003Dh","sampler":0,"source":0},{"name":"Rotom003MouthDh","sampler":0,"source":1}]}