{"accessors":[{"name":"polygon0_1_0_positions","componentType":5126,"count":271,"min":[-0.5182099938392639,-0.5113099813461304,-0.524075984954834],"max":[0.5182099938392639,1.6547960042953491,0.5078139901161194],"type":"VEC3","bufferView":0,"byteOffset":0},{"name":"polygon0_1_0_normals","componentType":5126,"count":271,"min":[-0.999978244304657,-1,-0.999978244304657],"max":[0.999978244304657,1,0.999978244304657],"type":"VEC3","bufferView":1,"byteOffset":0},{"name":"polygon0_1_0_texcoords","componentType":5126,"count":271,"min":[0.014464999549090862,0.011382999829947948],"max":[0.9804689884185791,0.9820250272750854],"type":"VEC2","bufferView":2,"byteOffset":0},{"name":"polygon0_1_0_indices","componentType":5123,"count":1422,"min":[0],"max":[270],"type":"SCALAR","bufferView":3,"byteOffset":0},{"name":"polygon1_1_0_positions","componentType":5126,"count":20,"min":[-0.2558239996433258,-0.024317000061273575,0.4075849950313568],"max":[0.2558239996433258,0.10808499902486801,0.5003929734230042],"type":"VEC3","bufferView":0,"byteOffset":3252},{"name":"polygon1_1_0_normals","componentType":5126,"count":20,"min":[-0.448550820350647,-0.46257779002189636,0.8241417407989502],"max":[0.4485998749732971,-0.1798100471496582,0.982612133026123],"type":"VEC3","bufferView":1,"byteOffset":3252},{"name":"polygon1_1_0_texcoords","componentType":5126,"count":20,"min":[0.01507600024342537,0.0160520002245903],"max":[0.9755550026893616,0.22814899682998657],"type":"VEC2","bufferView":2,"byteOffset":2168},{"name":"polygon1_1_0_indices","componentType":5123,"count":72,"min":[0],"max":[19],"type":"SCALAR","bufferView":3,"byteOffset":2844},{"name":"polygon2_1_0_positions","componentType":5126,"count":391,"min":[-2.245527982711792,-1.7397609949111938,-0.6262890100479126],"max":[2.245527982711792,1.875581979751587,0.6262890100479126],"type":"VEC3","bufferView":0,"byteOffset":3492},{"name":"polygon2_1_0_normals","componentType":5126,"count":391,"min":[-0.9998422265052795,-1,-0.9999945163726807],"max":[0.9998422265052795,1,1],"type":"VEC3","bufferView":1,"byteOffset":3492},{"name":"polygon2_1_0_texcoords","componentType":5126,"count":391,"min":[0.005187999922782183,-0.01507600024342537],"max":[0.9844970107078552,0.9892579913139343],"type":"VEC2","bufferView":2,"byteOffset":2328},{"name":"polygon2_1_0_indices","componentType":5123,"count":1488,"min":[0],"max":[390],"type":"SCALAR","bufferView":3,"byteOffset":2988},{"name":"polygon3_1_0_positions","componentType":5126,"count":40,"min":[-1.7976080179214478,-1.455386996269226,-0.01788399927318096],"max":[1.7976080179214478,-0.19410200417041779,0.01788399927318096],"type":"VEC3","bufferView":0,"byteOffset":8184},{"name":"polygon3_1_0_normals","componentType":5126,"count":40,"min":[-0.03811901807785034,-0.04979000613093376,-0.9999651908874512],"max":[0.03811901807785034,0.056978024542331696,0.9999651908874512],"type":"VEC3","bufferView":1,"byteOffset":8184},{"name":"polygon3_1_0_texcoords","componentType":5126,"count":40,"min":[0.04669199883937836,0.3141170144081116],"max":[0.14688099920749664,0.657958984375],"type":"VEC2","bufferView":2,"byteOffset":5456},{"name":"polygon3_1_0_indices","componentType":5123,"count":48,"min":[0],"max":[39],"type":"SCALAR","bufferView":3,"byteOffset":5964}],"asset":{"generator":"obj2gltf","version":"2.0"},"buffers":[{"name":"Rotom000","byteLength":127504,"uri":"data:application/octet-stream;base64,"}],"bufferViews":[{"name":"bufferView_0","buffer":0,"byteLength":8664,"byteOffset":0,"byteStride":12,"target":34962},{"name":"bufferView_1","buffer":0,"byteLength":8664,"byteOffset":8664,"byteStride":12,"target":34962},{"name":"bufferView_2","buffer":0,"byteLength":5776,"byteOffset":17328,"byteStride":8,"target":34962},{"name":"bufferView_3","buffer":0,"byteLength":6060,"byteOffset":23104,"target":34963},{"buffer":0,"byteOffset":29164,"byteLength":49170},{"buffer":0,"byteOffset":78334,"byteLength":49170}],"images":[{"name":"Rotom000Dh","mimeType":"image/x-tga","bufferView":4},{"name":"Rotom000MouthDh","mimeType":"image/x-tga","bufferView":5}],"materials":[{"name":"mat1","pbrMetallicRoughness":{"baseColorTexture":{"index":0},"baseColorFactor":[1,1,1,1],"metallicFactor":0,"roughnessFactor":0.99},"emissiveFactor":[0,0,0],"alphaMode":"OPAQUE","doubleSided":false},{"name":"mat4","pbrMetallicRoughness":{"baseColorTexture":{"index":1},"baseColorFactor":[1,1,1,1],"metallicFactor":0,"roughnessFactor":0.99},"emissiveFactor":[0,0,0],"alphaMode":"OPAQUE","doubleSided":false},{"name":"mat2","pbrMetallicRoughness":{"baseColorTexture":{"index":0},"baseColorFactor":[1,1,1,1],"metallicFactor":0,"roughnessFactor":0.99},"emissiveFactor":[0,0,0],"alphaMode":"OPAQUE","doubleSided":false},{"name":"mat3","pbrMetallicRoughness":{"baseColorTexture":{"index":0},"baseColorFactor":[1,1,1,1],"metallicFactor":0,"roughnessFactor":0.99},"emissiveFactor":[0,0,0],"alphaMode":"OPAQUE","doubleSided":false}],"meshes":[{"name":"polygon0_1","primitives":[{"attributes":{"POSITION":0,"NORMAL":1,"TEXCOORD_0":2},"indices":3,"material":0,"mode":4}]},{"name":"polygon1_1","primitives":[{"attributes":{"POSITION":4,"NORMAL":5,"TEXCOORD_0":6},"indices":7,"material":1,"mode":4}]},{"name":"polygon2_1","primitives":[{"attributes":{"POSITION":8,"NORMAL":9,"TEXCOORD_0":10},"indices":11,"material":2,"mode":4}]},{"name":"polygon3_1","primitives":[{"attributes":{"POSITION":12,"NORMAL":13,"TEXCOORD_0":14},"indices":15,"material":3,"mode":4}]}],"nodes":[{"name":"polygon0","mesh":0},{"name":"polygon1","mesh":1},{"name":"polygon2","mesh":2},{"name":"polygon3","mesh":3}],"samplers":[{"wrapS":10497,"wrapT":10497}],"scene":0,"scenes":[{"nodes":[0,1,2,3]}],"textures":[{"name":"Rotom000Dh","sampler":0,"source":0},{"name":"Rotom000MouthDh","sampler":0,"source":1}]}