{"accessors":[{"name":"rotom-Mesh_0_positions","componentType":5126,"count":720,"min":[-0.5182099938392639,-0.524075984954834,-2.7592101097106934],"max":[0.5182099938392639,0.524075984954834,-0.5931040048599243],"type":"VEC3","bufferView":0,"byteOffset":0},{"name":"rotom-Mesh_0_texcoords","componentType":5126,"count":720,"min":[0.047095999121665955,0.2765760123729706],"max":[0.3985530138015747,0.9538400173187256],"type":"VEC2","bufferView":1,"byteOffset":0},{"name":"rotom-Mesh_0_indices","componentType":5123,"count":936,"min":[0],"max":[719],"type":"SCALAR","bufferView":2,"byteOffset":0},{"name":"rotom-Mesh_1_positions","componentType":5126,"count":30,"min":[-0.24425099790096283,0.3148539960384369,-1.299267053604126],"max":[0.24425099790096283,0.524075984954834,-0.96321702003479],"type":"VEC3","bufferView":0,"byteOffset":8640},{"name":"rotom-Mesh_1_texcoords","componentType":5126,"count":30,"min":[0.7450240254402161,0.10644199699163437],"max":[0.9660090208053589,0.4189879894256592],"type":"VEC2","bufferView":1,"byteOffset":5760},{"name":"rotom-Mesh_1_indices","componentType":5123,"count":30,"min":[0],"max":[29],"type":"SCALAR","bufferView":2,"byteOffset":1872}],"asset":{"generator":"obj2gltf","version":"2.0"},"buffers":[{"name":"BR_Rotom-Shiny01","byteLength":279096,"uri":"data:application/octet-stream;base64,"}],"bufferViews":[{"name":"bufferView_0","buffer":0,"byteLength":9000,"byteOffset":0,"byteStride":12,"target":34962},{"name":"bufferView_1","buffer":0,"byteLength":6000,"byteOffset":9000,"byteStride":8,"target":34962},{"name":"bufferView_2","buffer":0,"byteLength":1932,"byteOffset":15000,"target":34963},{"buffer":0,"byteOffset":16932,"byteLength":262162}],"images":[{"name":"rotom_1_0","mimeType":"image/x-tga","bufferView":3}],"materials":[{"name":"mat_0","pbrMetallicRoughness":{"baseColorTexture":{"index":0},"baseColorFactor":[1,1,1,1],"metallicFactor":0,"roughnessFactor":0.903921569},"emissiveFactor":[0,0,0],"alphaMode":"BLEND","doubleSided":true},{"name":"mat_1","pbrMetallicRoughness":{"baseColorTexture":{"index":0},"baseColorFactor":[1,1,1,1],"metallicFactor":0,"roughnessFactor":0.903921569},"emissiveFactor":[0,0,0],"alphaMode":"BLEND","doubleSided":true}],"meshes":[{"name":"rotom-Mesh","primitives":[{"attributes":{"POSITION":0,"TEXCOORD_0":1},"indices":2,"material":0,"mode":4},{"attributes":{"POSITION":3,"TEXCOORD_0":4},"indices":5,"material":1,"mode":4}]}],"nodes":[{"name":"rotom","mesh":0}],"samplers":[{"wrapS":10497,"wrapT":10497}],"scene":0,"scenes":[{"nodes":[0]}],"textures":[{"name":"rotom_1_0","sampler":0,"source":0}]}