{"accessors":[{"name":"Rotom_1_0_positions","componentType":5126,"count":7668,"min":[-6.465826988220215,4.921420097351074,-6.329131126403809],"max":[6.465813159942627,28.508499145507812,6.329129219055176],"type":"VEC3","bufferView":0,"byteOffset":0},{"name":"Rotom_1_0_normals","componentType":5126,"count":7668,"min":[-0.000003000001697728294,-1,-0.9999157786369324],"max":[0.9999991059303284,0.8571228981018066,0.9999158382415771],"type":"VEC3","bufferView":1,"byteOffset":0},{"name":"Rotom_1_0_texcoords","componentType":5126,"count":7668,"min":[0.0007130000158213079,0.006635999772697687],"max":[0.9992870092391968,0.9882810115814209],"type":"VEC2","bufferView":2,"byteOffset":0},{"name":"Rotom_1_0_indices","componentType":5123,"count":7668,"min":[0],"max":[7667],"type":"SCALAR","bufferView":3,"byteOffset":0},{"name":"Rotom_1_1_positions","componentType":5126,"count":108,"min":[-2.294311046600342,9.512009620666504,3.14766001701355],"max":[2.2943100929260254,11.910301208496094,4.909049987792969],"type":"VEC3","bufferView":0,"byteOffset":92016},{"name":"Rotom_1_1_normals","componentType":5126,"count":108,"min":[0,-0.4548220932483673,0.24238796532154083],"max":[0.8721829056739807,-0.012973997741937637,0.9999158382415771],"type":"VEC3","bufferView":1,"byteOffset":92016},{"name":"Rotom_1_1_texcoords","componentType":5126,"count":108,"min":[0.07536300271749496,-0.9757699966430664],"max":[0.4246399998664856,-0.7610300183296204],"type":"VEC2","bufferView":2,"byteOffset":61344},{"name":"Rotom_1_1_indices","componentType":5123,"count":108,"min":[0],"max":[107],"type":"SCALAR","bufferView":3,"byteOffset":15336},{"name":"Rotom_Arms_1_0_positions","componentType":5126,"count":864,"min":[-21.10219955444336,-5.720590114593506,-0.224140003323555],"max":[21.102201461791992,9.706060409545898,0.224140003323555],"type":"VEC3","bufferView":0,"byteOffset":93312},{"name":"Rotom_Arms_1_0_normals","componentType":5126,"count":864,"min":[-0.04195801913738251,-0.07427903264760971,-0.999710202217102],"max":[0.06377999484539032,0.08986199647188187,0.9999804496765137],"type":"VEC3","bufferView":1,"byteOffset":93312},{"name":"Rotom_Arms_1_0_texcoords","componentType":5126,"count":864,"min":[0.07321599870920181,0.3242189884185791],"max":[0.9267839789390564,0.9861649870872498],"type":"VEC2","bufferView":2,"byteOffset":62208},{"name":"Rotom_Arms_1_0_indices","componentType":5123,"count":864,"min":[0],"max":[863],"type":"SCALAR","bufferView":3,"byteOffset":15552},{"name":"Rotom_Bottom_1_0_positions","componentType":5126,"count":216,"min":[-1.566849946975708,0.02085600048303604,-1.5602879524230957],"max":[1.566890001296997,5.465886116027832,1.5665119886398315],"type":"VEC3","bufferView":0,"byteOffset":103680},{"name":"Rotom_Bottom_1_0_normals","componentType":5126,"count":216,"min":[-0.9763187766075134,0.21621696650981903,-0.9738320112228394],"max":[-9.999997701015673e-7,0.29618602991104126,0.690405011177063],"type":"VEC3","bufferView":1,"byteOffset":103680},{"name":"Rotom_Bottom_1_0_texcoords","componentType":5126,"count":216,"min":[0.16761399805545807,0.40625],"max":[0.8323860168457031,0.5002850294113159],"type":"VEC2","bufferView":2,"byteOffset":69120},{"name":"Rotom_Bottom_1_0_indices","componentType":5123,"count":216,"min":[0],"max":[215],"type":"SCALAR","bufferView":3,"byteOffset":17280},{"name":"Rotom_Tail_1_0_positions","componentType":5126,"count":612,"min":[-0.38062500953674316,10.855500221252441,-66.73213195800781],"max":[0.38062500953674316,14.644800186157227,-5.565680980682373],"type":"VEC3","bufferView":0,"byteOffset":106272},{"name":"Rotom_Tail_1_0_normals","componentType":5126,"count":612,"min":[-0.9999887943267822,-0.006666998378932476,-0.04253000766038895],"max":[0,0.9993703365325928,0.0021889996714890003],"type":"VEC3","bufferView":1,"byteOffset":106272},{"name":"Rotom_Tail_1_0_texcoords","componentType":5126,"count":612,"min":[0.01743900030851364,0.2530199885368347],"max":[0.9825609922409058,0.9882810115814209],"type":"VEC2","bufferView":2,"byteOffset":70848},{"name":"Rotom_Tail_1_0_indices","componentType":5123,"count":612,"min":[0],"max":[611],"type":"SCALAR","bufferView":3,"byteOffset":17712}],"asset":{"generator":"obj2gltf","version":"2.0"},"buffers":[{"name":"XY_Rotom","byteLength":375112,"uri":"data:application/octet-stream;base64,"}],"bufferViews":[{"name":"bufferView_0","buffer":0,"byteLength":113616,"byteOffset":0,"byteStride":12,"target":34962},{"name":"bufferView_1","buffer":0,"byteLength":113616,"byteOffset":113616,"byteStride":12,"target":34962},{"name":"bufferView_2","buffer":0,"byteLength":75744,"byteOffset":227232,"byteStride":8,"target":34962},{"name":"bufferView_3","buffer":0,"byteLength":18936,"byteOffset":302976,"target":34963},{"buffer":0,"byteOffset":321912,"byteLength":27110},{"buffer":0,"byteOffset":349022,"byteLength":26087}],"images":[{"name":"pm0479_11_Body1","mimeType":"image/png","bufferView":4},{"name":"pm0479_11_Mouth1","mimeType":"image/png","bufferView":5}],"materials":[{"name":"Material__10","pbrMetallicRoughness":{"baseColorTexture":{"index":0},"baseColorFactor":[1,1,1,1],"metallicFactor":0,"roughnessFactor":0.998},"emissiveFactor":[0,0,0],"alphaMode":"OPAQUE","doubleSided":false},{"name":"Material__11","pbrMetallicRoughness":{"baseColorTexture":{"index":1},"baseColorFactor":[1,1,1,1],"metallicFactor":0,"roughnessFactor":0.998},"emissiveFactor":[0,0,0],"alphaMode":"OPAQUE","doubleSided":false}],"meshes":[{"name":"Rotom_1","primitives":[{"attributes":{"POSITION":0,"NORMAL":1,"TEXCOORD_0":2},"indices":3,"material":0,"mode":4},{"attributes":{"POSITION":4,"NORMAL":5,"TEXCOORD_0":6},"indices":7,"material":1,"mode":4}]},{"name":"Rotom_Arms_1","primitives":[{"attributes":{"POSITION":8,"NORMAL":9,"TEXCOORD_0":10},"indices":11,"material":0,"mode":4}]},{"name":"Rotom_Bottom_1","primitives":[{"attributes":{"POSITION":12,"NORMAL":13,"TEXCOORD_0":14},"indices":15,"material":0,"mode":4}]},{"name":"Rotom_Tail_1","primitives":[{"attributes":{"POSITION":16,"NORMAL":17,"TEXCOORD_0":18},"indices":19,"material":0,"mode":4}]}],"nodes":[{"name":"Rotom","mesh":0},{"name":"Rotom_Arms","mesh":1},{"name":"Rotom_Bottom","mesh":2},{"name":"Rotom_Tail","mesh":3}],"samplers":[{"wrapS":10497,"wrapT":10497}],"scene":0,"scenes":[{"nodes":[0,1,2,3]}],"textures":[{"name":"pm0479_11_Body1","sampler":0,"source":0},{"name":"pm0479_11_Mouth1","sampler":0,"source":1}]}