{"accessors":[{"name":"yuxie-Mesh_0_positions","componentType":5126,"count":1458,"min":[-1.5136499404907227,-3.978851079940796,-3.0427680015563965],"max":[1.5136510133743286,0.6466109752655029,0.0005549999768845737],"type":"VEC3","bufferView":0,"byteOffset":0},{"name":"yuxie-Mesh_0_texcoords","componentType":5126,"count":1458,"min":[0.10134799778461456,0.1681080013513565],"max":[0.7149180173873901,0.991474986076355],"type":"VEC2","bufferView":1,"byteOffset":0},{"name":"yuxie-Mesh_0_indices","componentType":5123,"count":7128,"min":[0],"max":[1457],"type":"SCALAR","bufferView":2,"byteOffset":0},{"name":"yuxie-Mesh_1_positions","componentType":5126,"count":149,"min":[-0.2672460079193115,-3.3633298873901367,-2.6495039463043213],"max":[0.2672460079193115,0.7214509844779968,-0.33387601375579834],"type":"VEC3","bufferView":0,"byteOffset":17496},{"name":"yuxie-Mesh_1_texcoords","componentType":5126,"count":149,"min":[0.33017098903656006,0.8326020240783691],"max":[0.4196990132331848,0.8481770157814026],"type":"VEC2","bufferView":1,"byteOffset":11664},{"name":"yuxie-Mesh_1_indices","componentType":5123,"count":816,"min":[0],"max":[148],"type":"SCALAR","bufferView":2,"byteOffset":14256},{"name":"yuxie-Mesh_2_positions","componentType":5126,"count":28,"min":[-0.44175300002098083,-0.02355699986219406,-1.8782639503479004],"max":[0.44175300002098083,0.5480250120162964,-1.6548789739608765],"type":"VEC3","bufferView":0,"byteOffset":19284},{"name":"yuxie-Mesh_2_texcoords","componentType":5126,"count":28,"min":[0.010308999568223953,0.05947599932551384],"max":[0.22581100463867188,0.2280150055885315],"type":"VEC2","bufferView":1,"byteOffset":12856},{"name":"yuxie-Mesh_2_indices","componentType":5123,"count":120,"min":[0],"max":[27],"type":"SCALAR","bufferView":2,"byteOffset":15888},{"name":"yuxie-Mesh_3_positions","componentType":5126,"count":63,"min":[-0.6148660182952881,0.10260900110006332,-2.4430930614471436],"max":[0.6148660182952881,0.6834620237350464,-1.8782639503479004],"type":"VEC3","bufferView":0,"byteOffset":19620},{"name":"yuxie-Mesh_3_texcoords","componentType":5126,"count":63,"min":[0.7575560212135315,0.04918399825692177],"max":[0.996740996837616,0.22583599388599396],"type":"VEC2","bufferView":1,"byteOffset":13080},{"name":"yuxie-Mesh_3_indices","componentType":5123,"count":264,"min":[0],"max":[62],"type":"SCALAR","bufferView":2,"byteOffset":16128}],"asset":{"generator":"obj2gltf","version":"2.0"},"buffers":[{"name":"BR_Uxie-Shiny01","byteLength":1099212,"uri":"data:application/octet-stream;base64,"}],"bufferViews":[{"name":"bufferView_0","buffer":0,"byteLength":20376,"byteOffset":0,"byteStride":12,"target":34962},{"name":"bufferView_1","buffer":0,"byteLength":13584,"byteOffset":20376,"byteStride":8,"target":34962},{"name":"bufferView_2","buffer":0,"byteLength":16656,"byteOffset":33960,"target":34963},{"buffer":0,"byteOffset":50616,"byteLength":1048594}],"images":[{"name":"yuxie_1_0","mimeType":"image/x-tga","bufferView":3}],"materials":[{"name":"mat_0","pbrMetallicRoughness":{"baseColorTexture":{"index":0},"baseColorFactor":[1,1,1,1],"metallicFactor":0,"roughnessFactor":0.903921569},"emissiveFactor":[0,0,0],"alphaMode":"BLEND","doubleSided":true},{"name":"mat_1","pbrMetallicRoughness":{"baseColorTexture":{"index":0},"baseColorFactor":[1,1,1,1],"metallicFactor":0,"roughnessFactor":0.903921569},"emissiveFactor":[0,0,0],"alphaMode":"BLEND","doubleSided":true},{"name":"mat_2","pbrMetallicRoughness":{"baseColorTexture":{"index":0},"baseColorFactor":[1,1,1,1],"metallicFactor":0,"roughnessFactor":0.903921569},"emissiveFactor":[0,0,0],"alphaMode":"BLEND","doubleSided":true},{"name":"mat_3","pbrMetallicRoughness":{"baseColorTexture":{"index":0},"baseColorFactor":[1,1,1,1],"metallicFactor":0,"roughnessFactor":0.903921569},"emissiveFactor":[0,0,0],"alphaMode":"BLEND","doubleSided":true}],"meshes":[{"name":"yuxie-Mesh","primitives":[{"attributes":{"POSITION":0,"TEXCOORD_0":1},"indices":2,"material":0,"mode":4},{"attributes":{"POSITION":3,"TEXCOORD_0":4},"indices":5,"material":1,"mode":4},{"attributes":{"POSITION":6,"TEXCOORD_0":7},"indices":8,"material":2,"mode":4},{"attributes":{"POSITION":9,"TEXCOORD_0":10},"indices":11,"material":3,"mode":4}]}],"nodes":[{"name":"yuxie","mesh":0}],"samplers":[{"wrapS":10497,"wrapT":10497}],"scene":0,"scenes":[{"nodes":[0]}],"textures":[{"name":"yuxie_1_0","sampler":0,"source":0}]}