{"accessors":[{"name":"emrit-Mesh_0_positions","componentType":5126,"count":162,"min":[-0.2672460079193115,-3.3633298873901367,-2.71293306350708],"max":[0.2672460079193115,0.6897580027580261,-0.33387601375579834],"type":"VEC3","bufferView":0,"byteOffset":0},{"name":"emrit-Mesh_0_texcoords","componentType":5126,"count":162,"min":[0.5790870189666748,0.8995429873466492],"max":[0.6838459968566895,0.9728929996490479],"type":"VEC2","bufferView":1,"byteOffset":0},{"name":"emrit-Mesh_0_indices","componentType":5123,"count":816,"min":[0],"max":[161],"type":"SCALAR","bufferView":2,"byteOffset":0},{"name":"emrit-Mesh_1_positions","componentType":5126,"count":60,"min":[-0.6239259839057922,0.14550499618053436,-2.71293306350708],"max":[0.6239259839057922,0.6716769933700562,-1.8854520320892334],"type":"VEC3","bufferView":0,"byteOffset":1944},{"name":"emrit-Mesh_1_texcoords","componentType":5126,"count":60,"min":[0.764162003993988,0.02795800007879734],"max":[0.9518030285835266,0.23869000375270844],"type":"VEC2","bufferView":1,"byteOffset":1296},{"name":"emrit-Mesh_1_indices","componentType":5123,"count":234,"min":[0],"max":[59],"type":"SCALAR","bufferView":2,"byteOffset":1632},{"name":"emrit-Mesh_2_positions","componentType":5126,"count":1280,"min":[-1.9493850469589233,-3.978851079940796,-3.0150489807128906],"max":[1.9493850469589233,0.8461769819259644,0.0005549999768845737],"type":"VEC3","bufferView":0,"byteOffset":2664},{"name":"emrit-Mesh_2_texcoords","componentType":5126,"count":1280,"min":[0.31844601035118103,0.6335989832878113],"max":[0.7233530282974243,0.9764620065689087],"type":"VEC2","bufferView":1,"byteOffset":1776},{"name":"emrit-Mesh_2_indices","componentType":5123,"count":7200,"min":[0],"max":[1279],"type":"SCALAR","bufferView":2,"byteOffset":2100},{"name":"emrit-Mesh_3_positions","componentType":5126,"count":22,"min":[-0.47785699367523193,-0.016114000231027603,-1.8854520320892334],"max":[0.47785699367523193,0.5463209748268127,-1.6660139560699463],"type":"VEC3","bufferView":0,"byteOffset":18024},{"name":"emrit-Mesh_3_texcoords","componentType":5126,"count":22,"min":[0.024529999122023582,0.09345900267362595],"max":[0.25609999895095825,0.25081801414489746],"type":"VEC2","bufferView":1,"byteOffset":12016},{"name":"emrit-Mesh_3_indices","componentType":5123,"count":90,"min":[0],"max":[21],"type":"SCALAR","bufferView":2,"byteOffset":16500}],"asset":{"generator":"obj2gltf","version":"2.0"},"buffers":[{"name":"BR_Mesprit-Shiny01","byteLength":1095756,"uri":"data:application/octet-stream;base64,"}],"bufferViews":[{"name":"bufferView_0","buffer":0,"byteLength":18288,"byteOffset":0,"byteStride":12,"target":34962},{"name":"bufferView_1","buffer":0,"byteLength":12192,"byteOffset":18288,"byteStride":8,"target":34962},{"name":"bufferView_2","buffer":0,"byteLength":16680,"byteOffset":30480,"target":34963},{"buffer":0,"byteOffset":47160,"byteLength":1048594}],"images":[{"name":"emrit_1_0","mimeType":"image/x-tga","bufferView":3}],"materials":[{"name":"mat_0","pbrMetallicRoughness":{"baseColorTexture":{"index":0},"baseColorFactor":[1,1,1,1],"metallicFactor":0,"roughnessFactor":0.903921569},"emissiveFactor":[0,0,0],"alphaMode":"BLEND","doubleSided":true},{"name":"mat_1","pbrMetallicRoughness":{"baseColorTexture":{"index":0},"baseColorFactor":[1,1,1,1],"metallicFactor":0,"roughnessFactor":0.903921569},"emissiveFactor":[0,0,0],"alphaMode":"BLEND","doubleSided":true},{"name":"mat_2","pbrMetallicRoughness":{"baseColorTexture":{"index":0},"baseColorFactor":[1,1,1,1],"metallicFactor":0,"roughnessFactor":0.903921569},"emissiveFactor":[0,0,0],"alphaMode":"BLEND","doubleSided":true},{"name":"mat_3","pbrMetallicRoughness":{"baseColorTexture":{"index":0},"baseColorFactor":[1,1,1,1],"metallicFactor":0,"roughnessFactor":0.903921569},"emissiveFactor":[0,0,0],"alphaMode":"BLEND","doubleSided":true}],"meshes":[{"name":"emrit-Mesh","primitives":[{"attributes":{"POSITION":0,"TEXCOORD_0":1},"indices":2,"material":0,"mode":4},{"attributes":{"POSITION":3,"TEXCOORD_0":4},"indices":5,"material":1,"mode":4},{"attributes":{"POSITION":6,"TEXCOORD_0":7},"indices":8,"material":2,"mode":4},{"attributes":{"POSITION":9,"TEXCOORD_0":10},"indices":11,"material":3,"mode":4}]}],"nodes":[{"name":"emrit","mesh":0}],"samplers":[{"wrapS":10497,"wrapT":10497}],"scene":0,"scenes":[{"nodes":[0]}],"textures":[{"name":"emrit_1_0","sampler":0,"source":0}]}