{"accessors":[{"name":"agnome-Mesh_0_positions","componentType":5126,"count":42,"min":[-0.5973330140113831,0.332161009311676,-2.387463092803955],"max":[0.5973330140113831,0.6650329828262329,-1.9850289821624756],"type":"VEC3","bufferView":0,"byteOffset":0},{"name":"agnome-Mesh_0_texcoords","componentType":5126,"count":42,"min":[0.7855309844017029,0.06999500095844269],"max":[0.9768890142440796,0.19013600051403046],"type":"VEC2","bufferView":1,"byteOffset":0},{"name":"agnome-Mesh_0_indices","componentType":5123,"count":162,"min":[0],"max":[41],"type":"SCALAR","bufferView":2,"byteOffset":0},{"name":"agnome-Mesh_1_positions","componentType":5126,"count":1324,"min":[-1.5136510133743286,-3.978851079940796,-3.126991033554077],"max":[1.5136510133743286,0.6618019938468933,0.0005549999768845737],"type":"VEC3","bufferView":0,"byteOffset":504},{"name":"agnome-Mesh_1_texcoords","componentType":5126,"count":1324,"min":[0.04668699949979782,0.0574520006775856],"max":[0.9460849761962891,0.9844390153884888],"type":"VEC2","bufferView":1,"byteOffset":336},{"name":"agnome-Mesh_1_indices","componentType":5123,"count":6936,"min":[0],"max":[1323],"type":"SCALAR","bufferView":2,"byteOffset":324},{"name":"agnome-Mesh_2_positions","componentType":5126,"count":155,"min":[-0.2672460079193115,-3.3633298873901367,-2.7709450721740723],"max":[0.2672460079193115,0.6866229772567749,-0.33387601375579834],"type":"VEC3","bufferView":0,"byteOffset":16392},{"name":"agnome-Mesh_2_texcoords","componentType":5126,"count":155,"min":[0.38877201080322266,0.9026280045509338],"max":[0.47458499670028687,0.9759780168533325],"type":"VEC2","bufferView":1,"byteOffset":10928},{"name":"agnome-Mesh_2_indices","componentType":5123,"count":816,"min":[0],"max":[154],"type":"SCALAR","bufferView":2,"byteOffset":14196},{"name":"agnome-Mesh_3_positions","componentType":5126,"count":18,"min":[-0.2803640067577362,0.23348699510097504,-1.9944169521331787],"max":[0.2803640067577362,0.5973719954490662,-1.7188069820404053],"type":"VEC3","bufferView":0,"byteOffset":18252},{"name":"agnome-Mesh_3_texcoords","componentType":5126,"count":18,"min":[0.04119399935007095,0.062036000192165375],"max":[0.1350730061531067,0.19298399984836578],"type":"VEC2","bufferView":1,"byteOffset":12168},{"name":"agnome-Mesh_3_indices","componentType":5123,"count":60,"min":[0],"max":[17],"type":"SCALAR","bufferView":2,"byteOffset":15828}],"asset":{"generator":"obj2gltf","version":"2.0"},"buffers":[{"name":"BR_Azelf-Shiny01","byteLength":1095324,"uri":"data:application/octet-stream;base64,"}],"bufferViews":[{"name":"bufferView_0","buffer":0,"byteLength":18468,"byteOffset":0,"byteStride":12,"target":34962},{"name":"bufferView_1","buffer":0,"byteLength":12312,"byteOffset":18468,"byteStride":8,"target":34962},{"name":"bufferView_2","buffer":0,"byteLength":15948,"byteOffset":30780,"target":34963},{"buffer":0,"byteOffset":46728,"byteLength":1048594}],"images":[{"name":"agnome_1_0","mimeType":"image/x-tga","bufferView":3}],"materials":[{"name":"mat_0","pbrMetallicRoughness":{"baseColorTexture":{"index":0},"baseColorFactor":[1,1,1,1],"metallicFactor":0,"roughnessFactor":0.903921569},"emissiveFactor":[0,0,0],"alphaMode":"BLEND","doubleSided":true},{"name":"mat_1","pbrMetallicRoughness":{"baseColorTexture":{"index":0},"baseColorFactor":[1,1,1,1],"metallicFactor":0,"roughnessFactor":0.903921569},"emissiveFactor":[0,0,0],"alphaMode":"BLEND","doubleSided":true},{"name":"mat_2","pbrMetallicRoughness":{"baseColorTexture":{"index":0},"baseColorFactor":[1,1,1,1],"metallicFactor":0,"roughnessFactor":0.903921569},"emissiveFactor":[0,0,0],"alphaMode":"BLEND","doubleSided":true},{"name":"mat_3","pbrMetallicRoughness":{"baseColorTexture":{"index":0},"baseColorFactor":[1,1,1,1],"metallicFactor":0,"roughnessFactor":0.903921569},"emissiveFactor":[0,0,0],"alphaMode":"BLEND","doubleSided":true}],"meshes":[{"name":"agnome-Mesh","primitives":[{"attributes":{"POSITION":0,"TEXCOORD_0":1},"indices":2,"material":0,"mode":4},{"attributes":{"POSITION":3,"TEXCOORD_0":4},"indices":5,"material":1,"mode":4},{"attributes":{"POSITION":6,"TEXCOORD_0":7},"indices":8,"material":2,"mode":4},{"attributes":{"POSITION":9,"TEXCOORD_0":10},"indices":11,"material":3,"mode":4}]}],"nodes":[{"name":"agnome","mesh":0}],"samplers":[{"wrapS":10497,"wrapT":10497}],"scene":0,"scenes":[{"nodes":[0]}],"textures":[{"name":"agnome_1_0","sampler":0,"source":0}]}