{"accessors":[{"name":"dialga-Mesh_0_positions","componentType":5126,"count":102,"min":[-14.887338638305664,-7.677812099456787,-37.927825927734375],"max":[14.887338638305664,22.06112289428711,0.02155500091612339],"type":"VEC3","bufferView":0,"byteOffset":0},{"name":"dialga-Mesh_0_texcoords","componentType":5126,"count":102,"min":[0.007873999886214733,0.186708003282547],"max":[0.44558900594711304,0.8497009873390198],"type":"VEC2","bufferView":1,"byteOffset":0},{"name":"dialga-Mesh_0_indices","componentType":5123,"count":216,"min":[0],"max":[101],"type":"SCALAR","bufferView":2,"byteOffset":0},{"name":"dialga-Mesh_1_positions","componentType":5126,"count":47,"min":[-3.011225938796997,15.895520210266113,-41.28178024291992],"max":[3.011225938796997,21.675512313842773,-37.249263763427734],"type":"VEC3","bufferView":0,"byteOffset":1224},{"name":"dialga-Mesh_1_texcoords","componentType":5126,"count":47,"min":[0.7290430068969727,0.051440998911857605],"max":[0.909741997718811,0.15662799775600433],"type":"VEC2","bufferView":1,"byteOffset":816},{"name":"dialga-Mesh_1_indices","componentType":5123,"count":198,"min":[0],"max":[46],"type":"SCALAR","bufferView":2,"byteOffset":432},{"name":"dialga-Mesh_2_positions","componentType":5126,"count":939,"min":[-14.879369735717773,-57.21270751953125,-48.512168884277344],"max":[14.879369735717773,21.675512313842773,0.0320729985833168],"type":"VEC3","bufferView":0,"byteOffset":1788},{"name":"dialga-Mesh_2_texcoords","componentType":5126,"count":939,"min":[0.007342999801039696,0.024677999317646027],"max":[0.9681519865989685,0.9933800101280212],"type":"VEC2","bufferView":1,"byteOffset":1192},{"name":"dialga-Mesh_2_indices","componentType":5123,"count":4344,"min":[0],"max":[938],"type":"SCALAR","bufferView":2,"byteOffset":828}],"asset":{"generator":"obj2gltf","version":"2.0"},"buffers":[{"name":"BR_Dialga-Shiny01","byteLength":1079872,"uri":"data:application/octet-stream;base64,"}],"bufferViews":[{"name":"bufferView_0","buffer":0,"byteLength":13056,"byteOffset":0,"byteStride":12,"target":34962},{"name":"bufferView_1","buffer":0,"byteLength":8704,"byteOffset":13056,"byteStride":8,"target":34962},{"name":"bufferView_2","buffer":0,"byteLength":9516,"byteOffset":21760,"target":34963},{"buffer":0,"byteOffset":31276,"byteLength":1048594}],"images":[{"name":"dialga_1_0","mimeType":"image/x-tga","bufferView":3}],"materials":[{"name":"mat_0","pbrMetallicRoughness":{"baseColorTexture":{"index":0},"baseColorFactor":[1,1,1,1],"metallicFactor":0,"roughnessFactor":0.903921569},"emissiveFactor":[0,0,0],"alphaMode":"BLEND","doubleSided":true},{"name":"mat_1","pbrMetallicRoughness":{"baseColorTexture":{"index":0},"baseColorFactor":[1,1,1,1],"metallicFactor":0,"roughnessFactor":0.903921569},"emissiveFactor":[0,0,0],"alphaMode":"BLEND","doubleSided":true},{"name":"mat_2","pbrMetallicRoughness":{"baseColorTexture":{"index":0},"baseColorFactor":[1,1,1,1],"metallicFactor":0,"roughnessFactor":0.903921569},"emissiveFactor":[0,0,0],"alphaMode":"BLEND","doubleSided":true}],"meshes":[{"name":"dialga-Mesh","primitives":[{"attributes":{"POSITION":0,"TEXCOORD_0":1},"indices":2,"material":0,"mode":4},{"attributes":{"POSITION":3,"TEXCOORD_0":4},"indices":5,"material":1,"mode":4},{"attributes":{"POSITION":6,"TEXCOORD_0":7},"indices":8,"material":2,"mode":4}]}],"nodes":[{"name":"dialga","mesh":0}],"samplers":[{"wrapS":10497,"wrapT":10497}],"scene":0,"scenes":[{"nodes":[0]}],"textures":[{"name":"dialga_1_0","sampler":0,"source":0}]}