{"accessors":[{"name":"palkia-Mesh_0_positions","componentType":5126,"count":1746,"min":[-18.777040481567383,-43.599143981933594,-39.04114532470703],"max":[18.777040481567383,22.520586013793945,0.1068509966135025],"type":"VEC3","bufferView":0,"byteOffset":0},{"name":"palkia-Mesh_0_texcoords","componentType":5126,"count":1746,"min":[-0.7055050134658813,0.009655999951064587],"max":[0.9694300293922424,0.9980040192604065],"type":"VEC2","bufferView":1,"byteOffset":0},{"name":"palkia-Mesh_0_indices","componentType":5123,"count":5700,"min":[0],"max":[1745],"type":"SCALAR","bufferView":2,"byteOffset":0},{"name":"palkia-Mesh_1_positions","componentType":5126,"count":10,"min":[-1.818565011024475,19.235963821411133,-38.41450500488281],"max":[1.818565011024475,20.996999740600586,-37.59488296508789],"type":"VEC3","bufferView":0,"byteOffset":20952},{"name":"palkia-Mesh_1_texcoords","componentType":5126,"count":10,"min":[0.9379289746284485,0.015561000443994999],"max":[0.9942669868469238,0.04286399856209755],"type":"VEC2","bufferView":1,"byteOffset":13968},{"name":"palkia-Mesh_1_indices","componentType":5123,"count":18,"min":[0],"max":[9],"type":"SCALAR","bufferView":2,"byteOffset":11400},{"name":"palkia-Mesh_2_positions","componentType":5126,"count":66,"min":[-11.3409423828125,2.079632043838501,-31.520740509033203],"max":[11.340943336486816,6.458533763885498,-27.392478942871094],"type":"VEC3","bufferView":0,"byteOffset":21072},{"name":"palkia-Mesh_2_texcoords","componentType":5126,"count":66,"min":[0.011744000017642975,0.8825929760932922],"max":[0.11545199900865555,0.9936609864234924],"type":"VEC2","bufferView":1,"byteOffset":14048},{"name":"palkia-Mesh_2_indices","componentType":5123,"count":288,"min":[0],"max":[65],"type":"SCALAR","bufferView":2,"byteOffset":11436},{"name":"palkia-Mesh_3_positions","componentType":5126,"count":476,"min":[-18.48248863220215,-9.799763679504395,-41.025535583496094],"max":[18.48248863220215,24.115978240966797,0.08000600337982178],"type":"VEC3","bufferView":0,"byteOffset":21864},{"name":"palkia-Mesh_3_texcoords","componentType":5126,"count":476,"min":[0.01471600029617548,0.09014999866485596],"max":[0.9945080280303955,0.8665419816970825],"type":"VEC2","bufferView":1,"byteOffset":14576},{"name":"palkia-Mesh_3_indices","componentType":5123,"count":1206,"min":[0],"max":[475],"type":"SCALAR","bufferView":2,"byteOffset":12012},{"name":"palkia-Mesh_4_positions","componentType":5126,"count":294,"min":[-16.341108322143555,-5.5181708335876465,-33.64129638671875],"max":[16.341108322143555,8.558812141418457,-10.181537628173828],"type":"VEC3","bufferView":0,"byteOffset":27576},{"name":"palkia-Mesh_4_texcoords","componentType":5126,"count":294,"min":[-0.9787319898605347,0.05083199962973595],"max":[0.9943959712982178,0.993798017501831],"type":"VEC2","bufferView":1,"byteOffset":18384},{"name":"palkia-Mesh_4_indices","componentType":5123,"count":1086,"min":[0],"max":[293],"type":"SCALAR","bufferView":2,"byteOffset":14424}],"asset":{"generator":"obj2gltf","version":"2.0"},"buffers":[{"name":"BR_Palkia-Shiny01","byteLength":1117032,"uri":"data:application/octet-stream;base64,"}],"bufferViews":[{"name":"bufferView_0","buffer":0,"byteLength":31104,"byteOffset":0,"byteStride":12,"target":34962},{"name":"bufferView_1","buffer":0,"byteLength":20736,"byteOffset":31104,"byteStride":8,"target":34962},{"name":"bufferView_2","buffer":0,"byteLength":16596,"byteOffset":51840,"target":34963},{"buffer":0,"byteOffset":68436,"byteLength":1048594}],"images":[{"name":"palkia_1_0","mimeType":"image/x-tga","bufferView":3}],"materials":[{"name":"mat_0","pbrMetallicRoughness":{"baseColorTexture":{"index":0},"baseColorFactor":[1,1,1,1],"metallicFactor":0,"roughnessFactor":0.903921569},"emissiveFactor":[0,0,0],"alphaMode":"BLEND","doubleSided":true},{"name":"mat_1","pbrMetallicRoughness":{"baseColorTexture":{"index":0},"baseColorFactor":[1,1,1,1],"metallicFactor":0,"roughnessFactor":0.903921569},"emissiveFactor":[0,0,0],"alphaMode":"BLEND","doubleSided":true},{"name":"mat_2","pbrMetallicRoughness":{"baseColorTexture":{"index":0},"baseColorFactor":[1,1,1,1],"metallicFactor":0,"roughnessFactor":0.903921569},"emissiveFactor":[0,0,0],"alphaMode":"BLEND","doubleSided":true},{"name":"mat_3","pbrMetallicRoughness":{"baseColorTexture":{"index":0},"baseColorFactor":[1,1,1,1],"metallicFactor":0,"roughnessFactor":0.903921569},"emissiveFactor":[0,0,0],"alphaMode":"BLEND","doubleSided":true},{"name":"mat_4","pbrMetallicRoughness":{"baseColorTexture":{"index":0},"baseColorFactor":[1,1,1,1],"metallicFactor":0,"roughnessFactor":0.903921569},"emissiveFactor":[0,0,0],"alphaMode":"BLEND","doubleSided":true}],"meshes":[{"name":"palkia-Mesh","primitives":[{"attributes":{"POSITION":0,"TEXCOORD_0":1},"indices":2,"material":0,"mode":4},{"attributes":{"POSITION":3,"TEXCOORD_0":4},"indices":5,"material":1,"mode":4},{"attributes":{"POSITION":6,"TEXCOORD_0":7},"indices":8,"material":2,"mode":4},{"attributes":{"POSITION":9,"TEXCOORD_0":10},"indices":11,"material":3,"mode":4},{"attributes":{"POSITION":12,"TEXCOORD_0":13},"indices":14,"material":4,"mode":4}]}],"nodes":[{"name":"palkia","mesh":0}],"samplers":[{"wrapS":10497,"wrapT":10497}],"scene":0,"scenes":[{"nodes":[0]}],"textures":[{"name":"palkia_1_0","sampler":0,"source":0}]}