{"accessors":[{"name":"polygon0_1_0_positions","componentType":5126,"count":362,"min":[-13.619049072265625,-0.0011180000146850944,-8.986331939697266],"max":[13.619047164916992,15.309617042541504,12.315937995910645],"type":"VEC3","bufferView":0,"byteOffset":0},{"name":"polygon0_1_0_normals","componentType":5126,"count":362,"min":[-0.9843211770057678,-1,-0.9968123435974121],"max":[0.990391194820404,0.9978731274604797,0.9953307509422302],"type":"VEC3","bufferView":1,"byteOffset":0},{"name":"polygon0_1_0_texcoords","componentType":5126,"count":362,"min":[0.008605999872088432,0.012054000049829483],"max":[0.9903560280799866,0.933135986328125],"type":"VEC2","bufferView":2,"byteOffset":0},{"name":"polygon0_1_0_indices","componentType":5123,"count":1338,"min":[0],"max":[361],"type":"SCALAR","bufferView":3,"byteOffset":0},{"name":"polygon1_1_0_positions","componentType":5126,"count":1270,"min":[-16.322736740112305,0.07387900352478027,-9.978208541870117],"max":[16.322734832763672,16.087360382080078,12.587976455688477],"type":"VEC3","bufferView":0,"byteOffset":4344},{"name":"polygon1_1_0_normals","componentType":5126,"count":1270,"min":[-0.9985543489456177,-1,-0.9984779357910156],"max":[0.9985543489456177,0.9988660216331482,0.9996569752693176],"type":"VEC3","bufferView":1,"byteOffset":4344},{"name":"polygon1_1_0_texcoords","componentType":5126,"count":1270,"min":[0.004486000165343285,0.6239320039749146],"max":[0.9682620167732239,0.9903259873390198],"type":"VEC2","bufferView":2,"byteOffset":2896},{"name":"polygon1_1_0_indices","componentType":5123,"count":3660,"min":[0],"max":[1269],"type":"SCALAR","bufferView":3,"byteOffset":2676},{"name":"polygon2_1_0_positions","componentType":5126,"count":38,"min":[-3.1029698848724365,9.674347877502441,9.697549819946289],"max":[3.1029698848724365,11.46785831451416,11.777389526367188],"type":"VEC3","bufferView":0,"byteOffset":19584},{"name":"polygon2_1_0_normals","componentType":5126,"count":38,"min":[-0.9633986949920654,-0.9369814395904541,-0.5964361429214478],"max":[0.9633986949920654,0.5794269442558289,0.9489606618881226],"type":"VEC3","bufferView":1,"byteOffset":19584},{"name":"polygon2_1_0_texcoords","componentType":5126,"count":38,"min":[-0.9812620282173157,0.042236000299453735],"max":[-0.047363001853227615,0.1970829963684082],"type":"VEC2","bufferView":2,"byteOffset":13056},{"name":"polygon2_1_0_indices","componentType":5123,"count":156,"min":[0],"max":[37],"type":"SCALAR","bufferView":3,"byteOffset":9996}],"asset":{"generator":"obj2gltf","version":"2.0"},"buffers":[{"name":"Heatran","byteLength":555304,"uri":"data:application/octet-stream;base64,"}],"bufferViews":[{"name":"bufferView_0","buffer":0,"byteLength":20040,"byteOffset":0,"byteStride":12,"target":34962},{"name":"bufferView_1","buffer":0,"byteLength":20040,"byteOffset":20040,"byteStride":12,"target":34962},{"name":"bufferView_2","buffer":0,"byteLength":13360,"byteOffset":40080,"byteStride":8,"target":34962},{"name":"bufferView_3","buffer":0,"byteLength":10308,"byteOffset":53440,"target":34963},{"buffer":0,"byteOffset":63748,"byteLength":442386},{"buffer":0,"byteOffset":506134,"byteLength":49170}],"images":[{"name":"HeatranDh","mimeType":"image/x-tga","bufferView":4},{"name":"HeatranEyeDh","mimeType":"image/x-tga","bufferView":5}],"materials":[{"name":"mat1","pbrMetallicRoughness":{"baseColorTexture":{"index":0},"baseColorFactor":[1,1,1,1],"metallicFactor":0,"roughnessFactor":0.99},"emissiveFactor":[0,0,0],"alphaMode":"OPAQUE","doubleSided":false},{"name":"mat2","pbrMetallicRoughness":{"baseColorTexture":{"index":0},"baseColorFactor":[1,1,1,1],"metallicFactor":0,"roughnessFactor":0.99},"emissiveFactor":[0,0,0],"alphaMode":"OPAQUE","doubleSided":false},{"name":"mat3","pbrMetallicRoughness":{"baseColorTexture":{"index":1},"baseColorFactor":[1,1,1,1],"metallicFactor":0,"roughnessFactor":0.99},"emissiveFactor":[0,0,0],"alphaMode":"OPAQUE","doubleSided":false}],"meshes":[{"name":"polygon0_1","primitives":[{"attributes":{"POSITION":0,"NORMAL":1,"TEXCOORD_0":2},"indices":3,"material":0,"mode":4}]},{"name":"polygon1_1","primitives":[{"attributes":{"POSITION":4,"NORMAL":5,"TEXCOORD_0":6},"indices":7,"material":1,"mode":4}]},{"name":"polygon2_1","primitives":[{"attributes":{"POSITION":8,"NORMAL":9,"TEXCOORD_0":10},"indices":11,"material":2,"mode":4}]}],"nodes":[{"name":"polygon0","mesh":0},{"name":"polygon1","mesh":1},{"name":"polygon2","mesh":2}],"samplers":[{"wrapS":10497,"wrapT":10497}],"scene":0,"scenes":[{"nodes":[0,1,2]}],"textures":[{"name":"HeatranDh","sampler":0,"source":0},{"name":"HeatranEyeDh","sampler":0,"source":1}]}