{"accessors":[{"name":"regigigas-Mesh_0_positions","componentType":5126,"count":1420,"min":[-34.84698486328125,-6.4676690101623535,-31.59270477294922],"max":[34.84698486328125,5.582096099853516,0.026763999834656715],"type":"VEC3","bufferView":0,"byteOffset":0},{"name":"regigigas-Mesh_0_texcoords","componentType":5126,"count":1420,"min":[0.019137000665068626,0.01592399924993515],"max":[0.5576840043067932,0.9875029921531677],"type":"VEC2","bufferView":1,"byteOffset":0},{"name":"regigigas-Mesh_0_indices","componentType":5123,"count":6012,"min":[0],"max":[1419],"type":"SCALAR","bufferView":2,"byteOffset":0},{"name":"regigigas-Mesh_1_positions","componentType":5126,"count":84,"min":[-1.9739559888839722,3.2480719089508057,-30.986541748046875],"max":[1.9739559888839722,7.846944808959961,-15.159782409667969],"type":"VEC3","bufferView":0,"byteOffset":17040},{"name":"regigigas-Mesh_1_texcoords","componentType":5126,"count":84,"min":[0.5832989811897278,0.008484000340104103],"max":[0.9883599877357483,0.9952719807624817],"type":"VEC2","bufferView":1,"byteOffset":11360},{"name":"regigigas-Mesh_1_indices","componentType":5123,"count":264,"min":[0],"max":[83],"type":"SCALAR","bufferView":2,"byteOffset":12024},{"name":"regigigas-Mesh_2_positions","componentType":5126,"count":381,"min":[-30.514278411865234,-6.552248954772949,-31.908050537109375],"max":[30.514278411865234,6.703258991241455,-17.755874633789062],"type":"VEC3","bufferView":0,"byteOffset":18048},{"name":"regigigas-Mesh_2_texcoords","componentType":5126,"count":381,"min":[0.2613379955291748,0.524990975856781],"max":[0.5605689883232117,0.8556889891624451],"type":"VEC2","bufferView":1,"byteOffset":12032},{"name":"regigigas-Mesh_2_indices","componentType":5123,"count":1938,"min":[0],"max":[380],"type":"SCALAR","bufferView":2,"byteOffset":12552}],"asset":{"generator":"obj2gltf","version":"2.0"},"buffers":[{"name":"BR_Regigigas-Shiny01","byteLength":1102724,"uri":"data:application/octet-stream;base64,"}],"bufferViews":[{"name":"bufferView_0","buffer":0,"byteLength":22620,"byteOffset":0,"byteStride":12,"target":34962},{"name":"bufferView_1","buffer":0,"byteLength":15080,"byteOffset":22620,"byteStride":8,"target":34962},{"name":"bufferView_2","buffer":0,"byteLength":16428,"byteOffset":37700,"target":34963},{"buffer":0,"byteOffset":54128,"byteLength":1048594}],"images":[{"name":"regigigas_1_0","mimeType":"image/x-tga","bufferView":3}],"materials":[{"name":"mat_0","pbrMetallicRoughness":{"baseColorTexture":{"index":0},"baseColorFactor":[1,1,1,1],"metallicFactor":0,"roughnessFactor":0.903921569},"emissiveFactor":[0,0,0],"alphaMode":"BLEND","doubleSided":true},{"name":"mat_1","pbrMetallicRoughness":{"baseColorTexture":{"index":0},"baseColorFactor":[1,1,1,1],"metallicFactor":0,"roughnessFactor":0.903921569},"emissiveFactor":[0,0,0],"alphaMode":"BLEND","doubleSided":true},{"name":"mat_2","pbrMetallicRoughness":{"baseColorTexture":{"index":0},"baseColorFactor":[1,1,1,1],"metallicFactor":0,"roughnessFactor":0.903921569},"emissiveFactor":[0,0,0],"alphaMode":"BLEND","doubleSided":true}],"meshes":[{"name":"regigigas-Mesh","primitives":[{"attributes":{"POSITION":0,"TEXCOORD_0":1},"indices":2,"material":0,"mode":4},{"attributes":{"POSITION":3,"TEXCOORD_0":4},"indices":5,"material":1,"mode":4},{"attributes":{"POSITION":6,"TEXCOORD_0":7},"indices":8,"material":2,"mode":4}]}],"nodes":[{"name":"regigigas","mesh":0}],"samplers":[{"wrapS":10497,"wrapT":10497}],"scene":0,"scenes":[{"nodes":[0]}],"textures":[{"name":"regigigas_1_0","sampler":0,"source":0}]}