{"accessors":[{"name":"giratina-Mesh_0_positions","componentType":5126,"count":949,"min":[-9.653790473937988,-12.653717041015625,-33.90690612792969],"max":[9.653790473937988,15.775633811950684,0.004927999805659056],"type":"VEC3","bufferView":0,"byteOffset":0},{"name":"giratina-Mesh_0_texcoords","componentType":5126,"count":949,"min":[0.30223900079727173,0.8896129727363586],"max":[0.44144299626350403,0.9782249927520752],"type":"VEC2","bufferView":1,"byteOffset":0},{"name":"giratina-Mesh_0_indices","componentType":5123,"count":2250,"min":[0],"max":[948],"type":"SCALAR","bufferView":2,"byteOffset":0},{"name":"giratina-Mesh_1_positions","componentType":5126,"count":16,"min":[-1.9133529663085938,13.589086532592773,-30.756380081176758],"max":[1.9133529663085938,15.53155517578125,-29.248628616333008],"type":"VEC3","bufferView":0,"byteOffset":11388},{"name":"giratina-Mesh_1_texcoords","componentType":5126,"count":16,"min":[0.7111570239067078,0.038385000079870224],"max":[0.9835759997367859,0.2087869942188263],"type":"VEC2","bufferView":1,"byteOffset":7592},{"name":"giratina-Mesh_1_indices","componentType":5123,"count":42,"min":[0],"max":[15],"type":"SCALAR","bufferView":2,"byteOffset":4500},{"name":"giratina-Mesh_2_positions","componentType":5126,"count":1292,"min":[-19.451791763305664,-26.30560302734375,-32.68840026855469],"max":[19.451791763305664,15.53155517578125,0.004927999805659056],"type":"VEC3","bufferView":0,"byteOffset":11580},{"name":"giratina-Mesh_2_texcoords","componentType":5126,"count":1292,"min":[0.01998100057244301,0.02086699940264225],"max":[0.6660789847373962,0.9926919937133789],"type":"VEC2","bufferView":1,"byteOffset":7720},{"name":"giratina-Mesh_2_indices","componentType":5123,"count":4698,"min":[0],"max":[1291],"type":"SCALAR","bufferView":2,"byteOffset":4584},{"name":"giratina-Mesh_3_positions","componentType":5126,"count":216,"min":[-28.303794860839844,1.3626439571380615,-37.22943115234375],"max":[28.303794860839844,6.142250061035156,-14.505677223205566],"type":"VEC3","bufferView":0,"byteOffset":27084},{"name":"giratina-Mesh_3_texcoords","componentType":5126,"count":216,"min":[0.225272998213768,0.9408119916915894],"max":[0.278889000415802,0.9891420006752014],"type":"VEC2","bufferView":1,"byteOffset":18056},{"name":"giratina-Mesh_3_indices","componentType":5123,"count":1236,"min":[0],"max":[215],"type":"SCALAR","bufferView":2,"byteOffset":13980}],"asset":{"generator":"obj2gltf","version":"2.0"},"buffers":[{"name":"BR_Giratina-Shiny01","byteLength":1376668,"uri":"data:application/octet-stream;base64,"}],"bufferViews":[{"name":"bufferView_0","buffer":0,"byteLength":29676,"byteOffset":0,"byteStride":12,"target":34962},{"name":"bufferView_1","buffer":0,"byteLength":19784,"byteOffset":29676,"byteStride":8,"target":34962},{"name":"bufferView_2","buffer":0,"byteLength":16452,"byteOffset":49460,"target":34963},{"buffer":0,"byteOffset":65912,"byteLength":1048594},{"buffer":0,"byteOffset":1114506,"byteLength":262162}],"images":[{"name":"giratina_1_0","mimeType":"image/x-tga","bufferView":3},{"name":"giratina_1_4","mimeType":"image/x-tga","bufferView":4}],"materials":[{"name":"mat_0","pbrMetallicRoughness":{"baseColorTexture":{"index":0},"baseColorFactor":[1,1,1,1],"metallicFactor":0,"roughnessFactor":0.903921569},"emissiveFactor":[0,0,0],"alphaMode":"BLEND","doubleSided":true},{"name":"mat_1","pbrMetallicRoughness":{"baseColorTexture":{"index":0},"baseColorFactor":[1,1,1,1],"metallicFactor":0,"roughnessFactor":0.903921569},"emissiveFactor":[0,0,0],"alphaMode":"BLEND","doubleSided":true},{"name":"mat_2","pbrMetallicRoughness":{"baseColorTexture":{"index":1},"baseColorFactor":[1,1,1,1],"metallicFactor":0,"roughnessFactor":0.903921569},"emissiveFactor":[0,0,0],"alphaMode":"BLEND","doubleSided":true},{"name":"mat_3","pbrMetallicRoughness":{"baseColorTexture":{"index":0},"baseColorFactor":[1,1,1,1],"metallicFactor":0,"roughnessFactor":0.903921569},"emissiveFactor":[0,0,0],"alphaMode":"BLEND","doubleSided":true}],"meshes":[{"name":"giratina-Mesh","primitives":[{"attributes":{"POSITION":0,"TEXCOORD_0":1},"indices":2,"material":0,"mode":4},{"attributes":{"POSITION":3,"TEXCOORD_0":4},"indices":5,"material":1,"mode":4},{"attributes":{"POSITION":6,"TEXCOORD_0":7},"indices":8,"material":2,"mode":4},{"attributes":{"POSITION":9,"TEXCOORD_0":10},"indices":11,"material":3,"mode":4}]}],"nodes":[{"name":"giratina","mesh":0}],"samplers":[{"wrapS":10497,"wrapT":10497}],"scene":0,"scenes":[{"nodes":[0]}],"textures":[{"name":"giratina_1_0","sampler":0,"source":0},{"name":"giratina_1_4","sampler":0,"source":1}]}