{"accessors":[{"name":"cresselia-Mesh_0_positions","componentType":5126,"count":201,"min":[-10.98546314239502,-10.552591323852539,-12.459718704223633],"max":[10.985462188720703,4.750288963317871,-2.186491012573242],"type":"VEC3","bufferView":0,"byteOffset":0},{"name":"cresselia-Mesh_0_texcoords","componentType":5126,"count":201,"min":[0.10784400254487991,0.314642995595932],"max":[0.9808639883995056,0.8964189887046814],"type":"VEC2","bufferView":1,"byteOffset":0},{"name":"cresselia-Mesh_0_indices","componentType":5123,"count":612,"min":[0],"max":[200],"type":"SCALAR","bufferView":2,"byteOffset":0}],"asset":{"generator":"obj2gltf","version":"2.0"},"buffers":[{"name":"BR_Cresselia-Shiny01","byteLength":1053840,"uri":"data:application/octet-stream;base64,"}],"bufferViews":[{"name":"bufferView_0","buffer":0,"byteLength":2412,"byteOffset":0,"byteStride":12,"target":34962},{"name":"bufferView_1","buffer":0,"byteLength":1608,"byteOffset":2412,"byteStride":8,"target":34962},{"name":"bufferView_2","buffer":0,"byteLength":1224,"byteOffset":4020,"target":34963},{"buffer":0,"byteOffset":5244,"byteLength":1048594}],"images":[{"name":"cresselia_1_0","mimeType":"image/x-tga","bufferView":3}],"materials":[{"name":"mat_0","pbrMetallicRoughness":{"baseColorTexture":{"index":0},"baseColorFactor":[1,1,1,1],"metallicFactor":0,"roughnessFactor":0.903921569},"emissiveFactor":[0,0,0],"alphaMode":"BLEND","doubleSided":true}],"meshes":[{"name":"cresselia-Mesh","primitives":[{"attributes":{"POSITION":0,"TEXCOORD_0":1},"indices":2,"material":0,"mode":4}]}],"nodes":[{"name":"cresselia","mesh":0}],"samplers":[{"wrapS":10497,"wrapT":10497}],"scene":0,"scenes":[{"nodes":[0]}],"textures":[{"name":"cresselia_1_0","sampler":0,"source":0}]}