{"accessors":[{"name":"phione-Mesh_0_positions","componentType":5126,"count":21,"min":[-0.3134779930114746,0.548891007900238,-1.8589110374450684],"max":[0.3134779930114746,0.8423479795455933,-1.1297930479049683],"type":"VEC3","bufferView":0,"byteOffset":0},{"name":"phione-Mesh_0_texcoords","componentType":5126,"count":21,"min":[0.31692901253700256,0.009960000403225422],"max":[0.43168699741363525,0.14529399573802948],"type":"VEC2","bufferView":1,"byteOffset":0},{"name":"phione-Mesh_0_indices","componentType":5123,"count":72,"min":[0],"max":[20],"type":"SCALAR","bufferView":2,"byteOffset":0},{"name":"phione-Mesh_1_positions","componentType":5126,"count":94,"min":[-1.0628700256347656,0.2654249966144562,-2.6940560340881348],"max":[1.0628700256347656,0.8399119973182678,-1.2209759950637817],"type":"VEC3","bufferView":0,"byteOffset":252},{"name":"phione-Mesh_1_texcoords","componentType":5126,"count":94,"min":[0.8252999782562256,0.02562600001692772],"max":[0.9778649806976318,0.2394469976425171],"type":"VEC2","bufferView":1,"byteOffset":168},{"name":"phione-Mesh_1_indices","componentType":5123,"count":420,"min":[0],"max":[93],"type":"SCALAR","bufferView":2,"byteOffset":144},{"name":"phione-Mesh_2_positions","componentType":5126,"count":1554,"min":[-1.9985120296478271,-4.752378940582275,-3.594680070877075],"max":[1.9985120296478271,0.6675009727478027,-0.007561999838799238],"type":"VEC3","bufferView":0,"byteOffset":1380},{"name":"phione-Mesh_2_texcoords","componentType":5126,"count":1554,"min":[0.011634999886155128,0.014043999835848808],"max":[0.731082022190094,0.9674320220947266],"type":"VEC2","bufferView":1,"byteOffset":920},{"name":"phione-Mesh_2_indices","componentType":5123,"count":7884,"min":[0],"max":[1553],"type":"SCALAR","bufferView":2,"byteOffset":984}],"asset":{"generator":"obj2gltf","version":"2.0"},"buffers":[{"name":"BR_Phione-Shiny01","byteLength":1098728,"uri":"data:application/octet-stream;base64,"}],"bufferViews":[{"name":"bufferView_0","buffer":0,"byteLength":20028,"byteOffset":0,"byteStride":12,"target":34962},{"name":"bufferView_1","buffer":0,"byteLength":13352,"byteOffset":20028,"byteStride":8,"target":34962},{"name":"bufferView_2","buffer":0,"byteLength":16752,"byteOffset":33380,"target":34963},{"buffer":0,"byteOffset":50132,"byteLength":1048594}],"images":[{"name":"phione_1_0","mimeType":"image/x-tga","bufferView":3}],"materials":[{"name":"mat_0","pbrMetallicRoughness":{"baseColorTexture":{"index":0},"baseColorFactor":[1,1,1,1],"metallicFactor":0,"roughnessFactor":0.903921569},"emissiveFactor":[0,0,0],"alphaMode":"BLEND","doubleSided":true},{"name":"mat_1","pbrMetallicRoughness":{"baseColorTexture":{"index":0},"baseColorFactor":[1,1,1,1],"metallicFactor":0,"roughnessFactor":0.903921569},"emissiveFactor":[0,0,0],"alphaMode":"BLEND","doubleSided":true},{"name":"mat_2","pbrMetallicRoughness":{"baseColorTexture":{"index":0},"baseColorFactor":[1,1,1,1],"metallicFactor":0,"roughnessFactor":0.903921569},"emissiveFactor":[0,0,0],"alphaMode":"BLEND","doubleSided":true}],"meshes":[{"name":"phione-Mesh","primitives":[{"attributes":{"POSITION":0,"TEXCOORD_0":1},"indices":2,"material":0,"mode":4},{"attributes":{"POSITION":3,"TEXCOORD_0":4},"indices":5,"material":1,"mode":4},{"attributes":{"POSITION":6,"TEXCOORD_0":7},"indices":8,"material":2,"mode":4}]}],"nodes":[{"name":"phione","mesh":0}],"samplers":[{"wrapS":10497,"wrapT":10497}],"scene":0,"scenes":[{"nodes":[0]}],"textures":[{"name":"phione_1_0","sampler":0,"source":0}]}