{"accessors":[{"name":"polygon0_1_0_positions","componentType":5126,"count":20,"min":[-0.41784098744392395,1.3670289516448975,0.6616349816322327],"max":[0.41784098744392395,1.7821409702301025,0.7634159922599792],"type":"VEC3","bufferView":0,"byteOffset":0},{"name":"polygon0_1_0_normals","componentType":5126,"count":20,"min":[-0.23455607891082764,-0.5581546425819397,0.8212714195251465],"max":[0.23455607891082764,0.0606679804623127,0.9988011717796326],"type":"VEC3","bufferView":1,"byteOffset":0},{"name":"polygon0_1_0_texcoords","componentType":5126,"count":20,"min":[0.02322399988770485,0.01464799977838993],"max":[0.97564697265625,0.24316400289535522],"type":"VEC2","bufferView":2,"byteOffset":0},{"name":"polygon0_1_0_indices","componentType":5123,"count":72,"min":[0],"max":[19],"type":"SCALAR","bufferView":3,"byteOffset":0},{"name":"polygon1_1_0_positions","componentType":5126,"count":941,"min":[-2.347675085067749,-0.00008199999865610152,-0.8577139973640442],"max":[2.347675085067749,7.792846202850342,0.7618409991264343],"type":"VEC3","bufferView":0,"byteOffset":240},{"name":"polygon1_1_0_normals","componentType":5126,"count":941,"min":[-0.9986900687217712,-0.9966044425964355,-0.9999532103538513],"max":[0.9986900687217712,0.9996666312217712,0.9999937415122986],"type":"VEC3","bufferView":1,"byteOffset":240},{"name":"polygon1_1_0_texcoords","componentType":5126,"count":941,"min":[0.007751000113785267,0.015502999536693096],"max":[0.9740599989891052,0.9867249727249146],"type":"VEC2","bufferView":2,"byteOffset":160},{"name":"polygon1_1_0_indices","componentType":5123,"count":4410,"min":[0],"max":[940],"type":"SCALAR","bufferView":3,"byteOffset":144},{"name":"polygon2_1_0_positions","componentType":5126,"count":82,"min":[-0.8451439738273621,1.4997769594192505,0.4914340078830719],"max":[0.8451439738273621,2.135617971420288,0.6991119980812073],"type":"VEC3","bufferView":0,"byteOffset":11532},{"name":"polygon2_1_0_normals","componentType":5126,"count":82,"min":[-0.7323002219200134,-0.3520468473434448,0.6761481761932373],"max":[0.7323002219200134,0.3753059506416321,0.9912078976631165],"type":"VEC3","bufferView":1,"byteOffset":11532},{"name":"polygon2_1_0_texcoords","componentType":5126,"count":82,"min":[0.007813000120222569,0.011718999594449997],"max":[0.4882810115814209,0.234375],"type":"VEC2","bufferView":2,"byteOffset":7688},{"name":"polygon2_1_0_indices","componentType":5123,"count":324,"min":[0],"max":[81],"type":"SCALAR","bufferView":3,"byteOffset":8964},{"name":"polygon3_1_0_positions","componentType":5126,"count":98,"min":[-0.498089998960495,6.359947204589844,-0.30087900161743164],"max":[0.498089998960495,7.792846202850342,0.22682100534439087],"type":"VEC3","bufferView":0,"byteOffset":12516},{"name":"polygon3_1_0_normals","componentType":5126,"count":98,"min":[-0.9968546628952026,-0.828630805015564,-0.9040899276733398],"max":[0.9968546628952026,0.9996666312217712,0.890047013759613],"type":"VEC3","bufferView":1,"byteOffset":12516},{"name":"polygon3_1_0_texcoords","componentType":5126,"count":98,"min":[0.1788329929113388,0.017638999968767166],"max":[0.4274289906024933,0.5974730253219604],"type":"VEC2","bufferView":2,"byteOffset":8344},{"name":"polygon3_1_0_indices","componentType":5123,"count":468,"min":[0],"max":[97],"type":"SCALAR","bufferView":3,"byteOffset":9612},{"name":"polygon5_1_0_positions","componentType":5126,"count":4,"min":[-0.9373300075531006,6.357285976409912,-0.038683000952005386],"max":[1.3122379779815674,8.606854438781738,-0.038683000952005386],"type":"VEC3","bufferView":0,"byteOffset":13692},{"name":"polygon5_1_0_normals","componentType":5126,"count":4,"min":[0,0,1],"max":[0,0,1],"type":"VEC3","bufferView":1,"byteOffset":13692},{"name":"polygon5_1_0_texcoords","componentType":5126,"count":4,"min":[0.028656000271439552,0.02459700033068657],"max":[0.971343994140625,0.2282709926366806],"type":"VEC2","bufferView":2,"byteOffset":9128},{"name":"polygon5_1_0_indices","componentType":5123,"count":6,"min":[0],"max":[3],"type":"SCALAR","bufferView":3,"byteOffset":10548},{"name":"polygon6_1_0_positions","componentType":5126,"count":4,"min":[-1.3122379779815674,6.357285976409912,-0.038683000952005386],"max":[0.9373300075531006,8.606854438781738,-0.038683000952005386],"type":"VEC3","bufferView":0,"byteOffset":13740},{"name":"polygon6_1_0_normals","componentType":5126,"count":4,"min":[0,0,1],"max":[0,0,1],"type":"VEC3","bufferView":1,"byteOffset":13740},{"name":"polygon6_1_0_texcoords","componentType":5126,"count":4,"min":[0.028656000271439552,0.02459700033068657],"max":[0.971343994140625,0.2282709926366806],"type":"VEC2","bufferView":2,"byteOffset":9160},{"name":"polygon6_1_0_indices","componentType":5123,"count":6,"min":[0],"max":[3],"type":"SCALAR","bufferView":3,"byteOffset":10560}],"asset":{"generator":"obj2gltf","version":"2.0"},"buffers":[{"name":"Manaphy","byteLength":457012,"uri":"data:application/octet-stream;base64,"}],"bufferViews":[{"name":"bufferView_0","buffer":0,"byteLength":13788,"byteOffset":0,"byteStride":12,"target":34962},{"name":"bufferView_1","buffer":0,"byteLength":13788,"byteOffset":13788,"byteStride":12,"target":34962},{"name":"bufferView_2","buffer":0,"byteLength":9192,"byteOffset":27576,"byteStride":8,"target":34962},{"name":"bufferView_3","buffer":0,"byteLength":10572,"byteOffset":36768,"target":34963},{"buffer":0,"byteOffset":47340,"byteLength":49170},{"buffer":0,"byteOffset":96510,"byteLength":196626},{"buffer":0,"byteOffset":293136,"byteLength":98322},{"buffer":0,"byteOffset":391458,"byteLength":65554}],"images":[{"name":"ManaphyMouthDh","mimeType":"image/x-tga","bufferView":4},{"name":"ManaphyDh","mimeType":"image/x-tga","bufferView":5},{"name":"ManaphyEyeDh","mimeType":"image/x-tga","bufferView":6},{"name":"ManaphyLightDh","mimeType":"image/x-tga","bufferView":7}],"materials":[{"name":"mat5","pbrMetallicRoughness":{"baseColorTexture":{"index":0},"baseColorFactor":[1,1,1,1],"metallicFactor":0,"roughnessFactor":0.99},"emissiveFactor":[0,0,0],"alphaMode":"OPAQUE","doubleSided":false},{"name":"mat1","pbrMetallicRoughness":{"baseColorTexture":{"index":1},"baseColorFactor":[1,1,1,1],"metallicFactor":0,"roughnessFactor":0.99},"emissiveFactor":[0,0,0],"alphaMode":"OPAQUE","doubleSided":false},{"name":"mat3","pbrMetallicRoughness":{"baseColorTexture":{"index":2},"baseColorFactor":[1,1,1,1],"metallicFactor":0,"roughnessFactor":0.99},"emissiveFactor":[0,0,0],"alphaMode":"OPAQUE","doubleSided":false},{"name":"mat2","pbrMetallicRoughness":{"baseColorTexture":{"index":1},"baseColorFactor":[1,1,1,1],"metallicFactor":0,"roughnessFactor":0.99},"emissiveFactor":[0,0,0],"alphaMode":"OPAQUE","doubleSided":false},{"name":"mat4","pbrMetallicRoughness":{"baseColorTexture":{"index":3},"baseColorFactor":[1,1,1,1],"metallicFactor":0,"roughnessFactor":0.99},"emissiveFactor":[0,0,0],"alphaMode":"OPAQUE","doubleSided":false}],"meshes":[{"name":"polygon0_1","primitives":[{"attributes":{"POSITION":0,"NORMAL":1,"TEXCOORD_0":2},"indices":3,"material":0,"mode":4}]},{"name":"polygon1_1","primitives":[{"attributes":{"POSITION":4,"NORMAL":5,"TEXCOORD_0":6},"indices":7,"material":1,"mode":4}]},{"name":"polygon2_1","primitives":[{"attributes":{"POSITION":8,"NORMAL":9,"TEXCOORD_0":10},"indices":11,"material":2,"mode":4}]},{"name":"polygon3_1","primitives":[{"attributes":{"POSITION":12,"NORMAL":13,"TEXCOORD_0":14},"indices":15,"material":3,"mode":4}]},{"name":"polygon5_1","primitives":[{"attributes":{"POSITION":16,"NORMAL":17,"TEXCOORD_0":18},"indices":19,"material":4,"mode":4}]},{"name":"polygon6_1","primitives":[{"attributes":{"POSITION":20,"NORMAL":21,"TEXCOORD_0":22},"indices":23,"material":4,"mode":4}]}],"nodes":[{"name":"polygon0","mesh":0},{"name":"polygon1","mesh":1},{"name":"polygon2","mesh":2},{"name":"polygon3","mesh":3},{"name":"polygon5","mesh":4},{"name":"polygon6","mesh":5}],"samplers":[{"wrapS":10497,"wrapT":10497}],"scene":0,"scenes":[{"nodes":[0,1,2,3,4,5]}],"textures":[{"name":"ManaphyMouthDh","sampler":0,"source":0},{"name":"ManaphyDh","sampler":0,"source":1},{"name":"ManaphyEyeDh","sampler":0,"source":2},{"name":"ManaphyLightDh","sampler":0,"source":3}]}