{"accessors":[{"name":"polygon0_1_0_positions","componentType":5126,"count":956,"min":[-9.471841812133789,0.1349409967660904,-8.760748863220215],"max":[9.471840858459473,19.01180076599121,2.8414909839630127],"type":"VEC3","bufferView":0,"byteOffset":0},{"name":"polygon0_1_0_normals","componentType":5126,"count":956,"min":[-0.9992434978485107,-0.9990773797035217,-0.999902069568634],"max":[0.9992434978485107,0.9994599223136902,0.998084306716919],"type":"VEC3","bufferView":1,"byteOffset":0},{"name":"polygon0_1_0_texcoords","componentType":5126,"count":956,"min":[0.0057069999165833,0.005156999919563532],"max":[0.9951779842376709,0.9945369958877563],"type":"VEC2","bufferView":2,"byteOffset":0},{"name":"polygon0_1_0_indices","componentType":5123,"count":4266,"min":[0],"max":[955],"type":"SCALAR","bufferView":3,"byteOffset":0},{"name":"polygon1_1_0_positions","componentType":5126,"count":107,"min":[-1.679399013519287,13.992301940917969,-1.655357003211975],"max":[1.679399013519287,18.659507751464844,2.595777988433838],"type":"VEC3","bufferView":0,"byteOffset":11472},{"name":"polygon1_1_0_normals","componentType":5126,"count":107,"min":[-0.8373814225196838,-0.8198341131210327,-0.48778924345970154],"max":[0.8373814225196838,0.9998447895050049,0.9960986971855164],"type":"VEC3","bufferView":1,"byteOffset":11472},{"name":"polygon1_1_0_texcoords","componentType":5126,"count":107,"min":[0.10714700073003769,0.7698969841003418],"max":[0.5926210284233093,0.9945679903030396],"type":"VEC2","bufferView":2,"byteOffset":7648},{"name":"polygon1_1_0_indices","componentType":5123,"count":396,"min":[0],"max":[106],"type":"SCALAR","bufferView":3,"byteOffset":8532},{"name":"polygon2_1_0_positions","componentType":5126,"count":28,"min":[-0.7295960187911987,15.73231315612793,-0.07357999682426453],"max":[0.8842399716377258,17.477462768554688,1.6480510234832764],"type":"VEC3","bufferView":0,"byteOffset":12756},{"name":"polygon2_1_0_normals","componentType":5126,"count":28,"min":[-0.8887519836425781,-0.9907660484313965,-0.5512068867683411],"max":[0.9469983577728271,-0.24551309645175934,0.8186542391777039],"type":"VEC3","bufferView":1,"byteOffset":12756},{"name":"polygon2_1_0_texcoords","componentType":5126,"count":28,"min":[0.008820000104606152,0.8545839786529541],"max":[0.1245729997754097,0.9848330020904541],"type":"VEC2","bufferView":2,"byteOffset":8504},{"name":"polygon2_1_0_indices","componentType":5123,"count":105,"min":[0],"max":[27],"type":"SCALAR","bufferView":3,"byteOffset":9324},{"name":"polygon3_1_0_positions","componentType":5126,"count":10,"min":[0.33713600039482117,16.82109832763672,1.0181100368499756],"max":[0.7582200169563293,17.556167602539062,1.522995948791504],"type":"VEC3","bufferView":0,"byteOffset":13092},{"name":"polygon3_1_0_normals","componentType":5126,"count":10,"min":[0.6975140571594238,-0.5039628148078918,-0.2809448838233948],"max":[0.9019387364387512,-0.24595391750335693,0.6046480536460876],"type":"VEC3","bufferView":1,"byteOffset":13092},{"name":"polygon3_1_0_texcoords","componentType":5126,"count":10,"min":[0.05859399959445,0],"max":[0.4453130066394806,0.2382809966802597],"type":"VEC2","bufferView":2,"byteOffset":8728},{"name":"polygon3_1_0_indices","componentType":5123,"count":24,"min":[0],"max":[9],"type":"SCALAR","bufferView":3,"byteOffset":9536},{"name":"polygon4_1_0_positions","componentType":5126,"count":223,"min":[-0.952472984790802,15.9027738571167,-7.451591968536377],"max":[1.0387120246887207,23.22171401977539,2.3529529571533203],"type":"VEC3","bufferView":0,"byteOffset":13212},{"name":"polygon4_1_0_normals","componentType":5126,"count":223,"min":[-0.9993206262588501,-0.9887793660163879,-0.9964947700500488],"max":[0.9958242774009705,0.9959428906440735,0.9973627328872681],"type":"VEC3","bufferView":1,"byteOffset":13212},{"name":"polygon4_1_0_texcoords","componentType":5126,"count":223,"min":[0.008880999870598316,0.4109500050544739],"max":[0.8218079805374146,0.8247380256652832],"type":"VEC2","bufferView":2,"byteOffset":8808},{"name":"polygon4_1_0_indices","componentType":5123,"count":1113,"min":[0],"max":[222],"type":"SCALAR","bufferView":3,"byteOffset":9584}],"asset":{"generator":"obj2gltf","version":"2.0"},"buffers":[{"name":"P2_Darkrai","byteLength":299976,"uri":"data:application/octet-stream;base64,"}],"bufferViews":[{"name":"bufferView_0","buffer":0,"byteLength":15888,"byteOffset":0,"byteStride":12,"target":34962},{"name":"bufferView_1","buffer":0,"byteLength":15888,"byteOffset":15888,"byteStride":12,"target":34962},{"name":"bufferView_2","buffer":0,"byteLength":10592,"byteOffset":31776,"byteStride":8,"target":34962},{"name":"bufferView_3","buffer":0,"byteLength":11812,"byteOffset":42368,"target":34963},{"buffer":0,"byteOffset":54180,"byteLength":196626},{"buffer":0,"byteOffset":250806,"byteLength":49170}],"images":[{"name":"DarkraiDh","mimeType":"image/x-tga","bufferView":4},{"name":"DarkraiEyeDh","mimeType":"image/x-tga","bufferView":5}],"materials":[{"name":"mat1","pbrMetallicRoughness":{"baseColorTexture":{"index":0},"baseColorFactor":[1,1,1,1],"metallicFactor":0,"roughnessFactor":0.99},"emissiveFactor":[0,0,0],"alphaMode":"OPAQUE","doubleSided":false},{"name":"mat4","pbrMetallicRoughness":{"baseColorFactor":[0.5,0.5,0.5,1],"metallicFactor":0,"roughnessFactor":1},"emissiveFactor":[0,0,0],"alphaMode":"OPAQUE","doubleSided":false},{"name":"mat2","pbrMetallicRoughness":{"baseColorTexture":{"index":1},"baseColorFactor":[1,1,1,1],"metallicFactor":0,"roughnessFactor":0.99},"emissiveFactor":[0,0,0],"alphaMode":"OPAQUE","doubleSided":false},{"name":"mat3","pbrMetallicRoughness":{"baseColorFactor":[0.5,0.5,0.5,1],"metallicFactor":0,"roughnessFactor":1},"emissiveFactor":[0,0,0],"alphaMode":"OPAQUE","doubleSided":false}],"meshes":[{"name":"polygon0_1","primitives":[{"attributes":{"POSITION":0,"NORMAL":1,"TEXCOORD_0":2},"indices":3,"material":0,"mode":4}]},{"name":"polygon1_1","primitives":[{"attributes":{"POSITION":4,"NORMAL":5,"TEXCOORD_0":6},"indices":7,"material":1,"mode":4}]},{"name":"polygon2_1","primitives":[{"attributes":{"POSITION":8,"NORMAL":9,"TEXCOORD_0":10},"indices":11,"material":0,"mode":4}]},{"name":"polygon3_1","primitives":[{"attributes":{"POSITION":12,"NORMAL":13,"TEXCOORD_0":14},"indices":15,"material":2,"mode":4}]},{"name":"polygon4_1","primitives":[{"attributes":{"POSITION":16,"NORMAL":17,"TEXCOORD_0":18},"indices":19,"material":3,"mode":4}]}],"nodes":[{"name":"polygon0","mesh":0},{"name":"polygon1","mesh":1},{"name":"polygon2","mesh":2},{"name":"polygon3","mesh":3},{"name":"polygon4","mesh":4}],"samplers":[{"wrapS":10497,"wrapT":10497}],"scene":0,"scenes":[{"nodes":[0,1,2,3,4]}],"textures":[{"name":"DarkraiDh","sampler":0,"source":0},{"name":"DarkraiEyeDh","sampler":0,"source":1}]}