{"accessors":[{"name":"polygon0_1_0_positions","componentType":5126,"count":24,"min":[-0.27358299493789673,0.36724400520324707,1.2207789421081543],"max":[0.27358299493789673,0.8060539960861206,1.6362470388412476],"type":"VEC3","bufferView":0,"byteOffset":0},{"name":"polygon0_1_0_normals","componentType":5126,"count":24,"min":[-0.6584920883178711,-0.9722652435302734,0.23388105630874634],"max":[0.6584920883178711,0.8814100027084351,0.9432076215744019],"type":"VEC3","bufferView":1,"byteOffset":0},{"name":"polygon0_1_0_texcoords","componentType":5126,"count":24,"min":[1.0407710075378418,0.10864300280809402],"max":[1.9498289823532104,0.2235109955072403],"type":"VEC2","bufferView":2,"byteOffset":0},{"name":"polygon0_1_0_indices","componentType":5123,"count":102,"min":[0],"max":[23],"type":"SCALAR","bufferView":3,"byteOffset":0},{"name":"polygon1_1_0_positions","componentType":5126,"count":1406,"min":[-1.397987961769104,-0.0044999998062849045,-1.6088160276412964],"max":[1.397987961769104,2.17090106010437,1.6004300117492676],"type":"VEC3","bufferView":0,"byteOffset":288},{"name":"polygon1_1_0_normals","componentType":5126,"count":1406,"min":[-0.9936511516571045,-0.9999645352363586,-0.9810913801193237],"max":[0.9975743889808655,0.9999400973320007,0.9999958872795105],"type":"VEC3","bufferView":1,"byteOffset":288},{"name":"polygon1_1_0_texcoords","componentType":5126,"count":1406,"min":[0.008545000106096268,0.009429999627172947],"max":[0.9897770285606384,0.9876099824905396],"type":"VEC2","bufferView":2,"byteOffset":192},{"name":"polygon1_1_0_indices","componentType":5123,"count":5232,"min":[0],"max":[1405],"type":"SCALAR","bufferView":3,"byteOffset":204},{"name":"polygon2_1_0_positions","componentType":5126,"count":16,"min":[-0.3962779939174652,0.7689380049705505,1.2856329679489136],"max":[0.3962779939174652,1.0300740003585815,1.4574860334396362],"type":"VEC3","bufferView":0,"byteOffset":17160},{"name":"polygon2_1_0_normals","componentType":5126,"count":16,"min":[-0.7239962220191956,0.056946996599435806,0.6762672066688538],"max":[0.7239962220191956,0.6008280515670776,0.9400269389152527],"type":"VEC3","bufferView":1,"byteOffset":17160},{"name":"polygon2_1_0_texcoords","componentType":5126,"count":16,"min":[1.047394037246704,0.015869000926613808],"max":[1.462188959121704,0.22320599853992462],"type":"VEC2","bufferView":2,"byteOffset":11440},{"name":"polygon2_1_0_indices","componentType":5123,"count":48,"min":[0],"max":[15],"type":"SCALAR","bufferView":3,"byteOffset":10668}],"asset":{"generator":"obj2gltf","version":"2.0"},"buffers":[{"name":"Shaymin000","byteLength":401156,"uri":"data:application/octet-stream;base64,"}],"bufferViews":[{"name":"bufferView_0","buffer":0,"byteLength":17352,"byteOffset":0,"byteStride":12,"target":34962},{"name":"bufferView_1","buffer":0,"byteLength":17352,"byteOffset":17352,"byteStride":12,"target":34962},{"name":"bufferView_2","buffer":0,"byteLength":11568,"byteOffset":34704,"byteStride":8,"target":34962},{"name":"bufferView_3","buffer":0,"byteLength":10764,"byteOffset":46272,"target":34963},{"buffer":0,"byteOffset":57036,"byteLength":49170},{"buffer":0,"byteOffset":106206,"byteLength":196626},{"buffer":0,"byteOffset":302832,"byteLength":98322}],"images":[{"name":"ShayminMouth000Dh","mimeType":"image/x-tga","bufferView":4},{"name":"Shaymin000Dh","mimeType":"image/x-tga","bufferView":5},{"name":"ShayminEye000Dh","mimeType":"image/x-tga","bufferView":6}],"materials":[{"name":"mat3","pbrMetallicRoughness":{"baseColorTexture":{"index":0},"baseColorFactor":[1,1,1,1],"metallicFactor":0,"roughnessFactor":0.99},"emissiveFactor":[0,0,0],"alphaMode":"OPAQUE","doubleSided":false},{"name":"mat1","pbrMetallicRoughness":{"baseColorTexture":{"index":1},"baseColorFactor":[1,1,1,1],"metallicFactor":0,"roughnessFactor":0.99},"emissiveFactor":[0,0,0],"alphaMode":"OPAQUE","doubleSided":false},{"name":"mat2","pbrMetallicRoughness":{"baseColorTexture":{"index":2},"baseColorFactor":[1,1,1,1],"metallicFactor":0,"roughnessFactor":0.99},"emissiveFactor":[0,0,0],"alphaMode":"OPAQUE","doubleSided":false}],"meshes":[{"name":"polygon0_1","primitives":[{"attributes":{"POSITION":0,"NORMAL":1,"TEXCOORD_0":2},"indices":3,"material":0,"mode":4}]},{"name":"polygon1_1","primitives":[{"attributes":{"POSITION":4,"NORMAL":5,"TEXCOORD_0":6},"indices":7,"material":1,"mode":4}]},{"name":"polygon2_1","primitives":[{"attributes":{"POSITION":8,"NORMAL":9,"TEXCOORD_0":10},"indices":11,"material":2,"mode":4}]}],"nodes":[{"name":"polygon0","mesh":0},{"name":"polygon1","mesh":1},{"name":"polygon2","mesh":2}],"samplers":[{"wrapS":10497,"wrapT":10497}],"scene":0,"scenes":[{"nodes":[0,1,2]}],"textures":[{"name":"ShayminMouth000Dh","sampler":0,"source":0},{"name":"Shaymin000Dh","sampler":0,"source":1},{"name":"ShayminEye000Dh","sampler":0,"source":2}]}