{"accessors":[{"name":"polygon0_1_0_positions","componentType":5126,"count":999,"min":[-2.434346914291382,-0.00203000009059906,-1.3349770307540894],"max":[2.4343459606170654,4.068245887756348,2.1656479835510254],"type":"VEC3","bufferView":0,"byteOffset":0},{"name":"polygon0_1_0_normals","componentType":5126,"count":999,"min":[-0.9997914433479309,-0.9999139308929443,-0.9988479614257812],"max":[0.999739944934845,0.9999262094497681,0.9990663528442383],"type":"VEC3","bufferView":1,"byteOffset":0},{"name":"polygon0_1_0_texcoords","componentType":5126,"count":999,"min":[0.009460000321269035,0.013152999803423882],"max":[0.9893490076065063,0.9913020133972168],"type":"VEC2","bufferView":2,"byteOffset":0},{"name":"polygon0_1_0_indices","componentType":5123,"count":4647,"min":[0],"max":[998],"type":"SCALAR","bufferView":3,"byteOffset":0},{"name":"polygon1_1_0_positions","componentType":5126,"count":43,"min":[-0.5469020009040833,2.1424789428710938,1.2243319749832153],"max":[0.5469020009040833,2.7969610691070557,1.639793038368225],"type":"VEC3","bufferView":0,"byteOffset":11988},{"name":"polygon1_1_0_normals","componentType":5126,"count":43,"min":[-0.9396387934684753,-0.9568035006523132,0.29011115431785583],"max":[0.9396387934684753,0.4709201157093048,0.9929420948028564],"type":"VEC3","bufferView":1,"byteOffset":11988},{"name":"polygon1_1_0_texcoords","componentType":5126,"count":43,"min":[1.024780035018921,0.00891099963337183],"max":[1.472991943359375,0.24191300570964813],"type":"VEC2","bufferView":2,"byteOffset":7992},{"name":"polygon1_1_0_indices","componentType":5123,"count":186,"min":[0],"max":[42],"type":"SCALAR","bufferView":3,"byteOffset":9296},{"name":"polygon2_1_0_positions","componentType":5126,"count":25,"min":[-0.29721200466156006,1.6500320434570312,1.223391056060791],"max":[0.29721200466156006,1.8975399732589722,1.7487469911575317],"type":"VEC3","bufferView":0,"byteOffset":12504},{"name":"polygon2_1_0_normals","componentType":5126,"count":25,"min":[-0.6385446190834045,-0.9586273431777954,0.11021099984645844],"max":[0.6385620832443237,-0.40730807185173035,0.6723517775535583],"type":"VEC3","bufferView":1,"byteOffset":12504},{"name":"polygon2_1_0_texcoords","componentType":5126,"count":25,"min":[1.1397709846496582,0.013062000274658203],"max":[1.7802729606628418,0.23150600492954254],"type":"VEC2","bufferView":2,"byteOffset":8336},{"name":"polygon2_1_0_indices","componentType":5123,"count":96,"min":[0],"max":[24],"type":"SCALAR","bufferView":3,"byteOffset":9668}],"asset":{"generator":"obj2gltf","version":"2.0"},"buffers":[{"name":"Shaymin001","byteLength":388124,"uri":"data:application/octet-stream;base64,"}],"bufferViews":[{"name":"bufferView_0","buffer":0,"byteLength":12804,"byteOffset":0,"byteStride":12,"target":34962},{"name":"bufferView_1","buffer":0,"byteLength":12804,"byteOffset":12804,"byteStride":12,"target":34962},{"name":"bufferView_2","buffer":0,"byteLength":8536,"byteOffset":25608,"byteStride":8,"target":34962},{"name":"bufferView_3","buffer":0,"byteLength":9860,"byteOffset":34144,"target":34963},{"buffer":0,"byteOffset":44004,"byteLength":196626},{"buffer":0,"byteOffset":240630,"byteLength":98322},{"buffer":0,"byteOffset":338952,"byteLength":49170}],"images":[{"name":"Shaymin001Dh","mimeType":"image/x-tga","bufferView":4},{"name":"ShayminEye001Dh","mimeType":"image/x-tga","bufferView":5},{"name":"ShayminMouth001Dh","mimeType":"image/x-tga","bufferView":6}],"materials":[{"name":"mat1","pbrMetallicRoughness":{"baseColorTexture":{"index":0},"baseColorFactor":[1,1,1,1],"metallicFactor":0,"roughnessFactor":0.99},"emissiveFactor":[0,0,0],"alphaMode":"OPAQUE","doubleSided":false},{"name":"mat2","pbrMetallicRoughness":{"baseColorTexture":{"index":1},"baseColorFactor":[1,1,1,1],"metallicFactor":0,"roughnessFactor":0.99},"emissiveFactor":[0,0,0],"alphaMode":"OPAQUE","doubleSided":false},{"name":"mat3","pbrMetallicRoughness":{"baseColorTexture":{"index":2},"baseColorFactor":[1,1,1,1],"metallicFactor":0,"roughnessFactor":0.99},"emissiveFactor":[0,0,0],"alphaMode":"OPAQUE","doubleSided":false}],"meshes":[{"name":"polygon0_1","primitives":[{"attributes":{"POSITION":0,"NORMAL":1,"TEXCOORD_0":2},"indices":3,"material":0,"mode":4}]},{"name":"polygon1_1","primitives":[{"attributes":{"POSITION":4,"NORMAL":5,"TEXCOORD_0":6},"indices":7,"material":1,"mode":4}]},{"name":"polygon2_1","primitives":[{"attributes":{"POSITION":8,"NORMAL":9,"TEXCOORD_0":10},"indices":11,"material":2,"mode":4}]}],"nodes":[{"name":"polygon0","mesh":0},{"name":"polygon1","mesh":1},{"name":"polygon2","mesh":2}],"samplers":[{"wrapS":10497,"wrapT":10497}],"scene":0,"scenes":[{"nodes":[0,1,2]}],"textures":[{"name":"Shaymin001Dh","sampler":0,"source":0},{"name":"ShayminEye001Dh","sampler":0,"source":1},{"name":"ShayminMouth001Dh","sampler":0,"source":2}]}