{"accessors":[{"name":"shaymin-Mesh_0_positions","componentType":5126,"count":49,"min":[-0.44189101457595825,-1.6088149547576904,-1.8563870191574097],"max":[0.7395989894866943,-0.8988749980926514,-0.9817299842834473],"type":"VEC3","bufferView":0,"byteOffset":0},{"name":"shaymin-Mesh_0_texcoords","componentType":5126,"count":49,"min":[0.04760900139808655,0.7949730157852173],"max":[0.1961279958486557,0.9664689898490906],"type":"VEC2","bufferView":1,"byteOffset":0},{"name":"shaymin-Mesh_0_indices","componentType":5123,"count":144,"min":[0],"max":[48],"type":"SCALAR","bufferView":2,"byteOffset":0},{"name":"shaymin-Mesh_1_positions","componentType":5126,"count":45,"min":[-0.44189101457595825,-1.6088149547576904,-1.8563870191574097],"max":[0.7395989894866943,-0.8988749980926514,-0.9817299842834473],"type":"VEC3","bufferView":0,"byteOffset":588},{"name":"shaymin-Mesh_1_texcoords","componentType":5126,"count":45,"min":[0.04760900139808655,0.7949730157852173],"max":[0.1961279958486557,0.9664689898490906],"type":"VEC2","bufferView":1,"byteOffset":392},{"name":"shaymin-Mesh_1_indices","componentType":5123,"count":117,"min":[0],"max":[44],"type":"SCALAR","bufferView":2,"byteOffset":288}],"asset":{"generator":"obj2gltf","version":"2.0"},"buffers":[{"name":"BR_Shaymin-Shiny01","byteLength":1051000,"uri":"data:application/octet-stream;base64,"}],"bufferViews":[{"name":"bufferView_0","buffer":0,"byteLength":1128,"byteOffset":0,"byteStride":12,"target":34962},{"name":"bufferView_1","buffer":0,"byteLength":752,"byteOffset":1128,"byteStride":8,"target":34962},{"name":"bufferView_2","buffer":0,"byteLength":524,"byteOffset":1880,"target":34963},{"buffer":0,"byteOffset":2404,"byteLength":1048594}],"images":[{"name":"shaymin_1_0","mimeType":"image/x-tga","bufferView":3}],"materials":[{"name":"mat_0","pbrMetallicRoughness":{"baseColorTexture":{"index":0},"baseColorFactor":[1,1,1,1],"metallicFactor":0,"roughnessFactor":0.903921569},"emissiveFactor":[0,0,0],"alphaMode":"BLEND","doubleSided":true},{"name":"mat_1","pbrMetallicRoughness":{"baseColorTexture":{"index":0},"baseColorFactor":[1,1,1,1],"metallicFactor":0,"roughnessFactor":0.903921569},"emissiveFactor":[0,0,0],"alphaMode":"BLEND","doubleSided":true}],"meshes":[{"name":"shaymin-Mesh","primitives":[{"attributes":{"POSITION":0,"TEXCOORD_0":1},"indices":2,"material":0,"mode":4},{"attributes":{"POSITION":3,"TEXCOORD_0":4},"indices":5,"material":1,"mode":4}]}],"nodes":[{"name":"shaymin","mesh":0}],"samplers":[{"wrapS":10497,"wrapT":10497}],"scene":0,"scenes":[{"nodes":[0]}],"textures":[{"name":"shaymin_1_0","sampler":0,"source":0}]}