{"accessors":[{"name":"arceus-Mesh_0_positions","componentType":5126,"count":61,"min":[-1.3893170356750488,6.412170886993408,-20.40423011779785],"max":[1.3893170356750488,8.621408462524414,-18.951480865478516],"type":"VEC3","bufferView":0,"byteOffset":0},{"name":"arceus-Mesh_0_texcoords","componentType":5126,"count":61,"min":[0.3478679955005646,0.018510999158024788],"max":[0.9944009780883789,0.4467509984970093],"type":"VEC2","bufferView":1,"byteOffset":0},{"name":"arceus-Mesh_0_indices","componentType":5123,"count":282,"min":[0],"max":[60],"type":"SCALAR","bufferView":2,"byteOffset":0},{"name":"arceus-Mesh_1_positions","componentType":5126,"count":609,"min":[-7.110336780548096,-7.848522186279297,-21.26031494140625],"max":[7.110336780548096,8.621408462524414,0.043533001095056534],"type":"VEC3","bufferView":0,"byteOffset":732},{"name":"arceus-Mesh_1_texcoords","componentType":5126,"count":609,"min":[0.020469000563025475,0.11766599863767624],"max":[0.4383139908313751,0.9754329919815063],"type":"VEC2","bufferView":1,"byteOffset":488},{"name":"arceus-Mesh_1_indices","componentType":5123,"count":2406,"min":[0],"max":[608],"type":"SCALAR","bufferView":2,"byteOffset":564},{"name":"arceus-Mesh_2_positions","componentType":5126,"count":100,"min":[-5.312812805175781,-1.7972190380096436,-16.174209594726562],"max":[5.312812805175781,-1.4703420400619507,-6.000306129455566],"type":"VEC3","bufferView":0,"byteOffset":8040},{"name":"arceus-Mesh_2_texcoords","componentType":5126,"count":100,"min":[0.03406200185418129,0.005636000074446201],"max":[0.09926199913024902,0.1212100014090538],"type":"VEC2","bufferView":1,"byteOffset":5360},{"name":"arceus-Mesh_2_indices","componentType":5123,"count":480,"min":[0],"max":[99],"type":"SCALAR","bufferView":2,"byteOffset":5376},{"name":"arceus-Mesh_3_positions","componentType":5126,"count":1233,"min":[-4.211857795715332,-14.00054931640625,-23.032655715942383],"max":[4.211857795715332,8.446578979492188,-1.017861008644104],"type":"VEC3","bufferView":0,"byteOffset":9240},{"name":"arceus-Mesh_3_texcoords","componentType":5126,"count":1233,"min":[0.01027000043541193,0.021359000355005264],"max":[0.9766870141029358,0.9879559874534607],"type":"VEC2","bufferView":1,"byteOffset":6160},{"name":"arceus-Mesh_3_indices","componentType":5123,"count":5202,"min":[0],"max":[1232],"type":"SCALAR","bufferView":2,"byteOffset":6336}],"asset":{"generator":"obj2gltf","version":"2.0"},"buffers":[{"name":"BR_Arceus-Shiny01","byteLength":1367556,"uri":"data:application/octet-stream;base64,"}],"bufferViews":[{"name":"bufferView_0","buffer":0,"byteLength":24036,"byteOffset":0,"byteStride":12,"target":34962},{"name":"bufferView_1","buffer":0,"byteLength":16024,"byteOffset":24036,"byteStride":8,"target":34962},{"name":"bufferView_2","buffer":0,"byteLength":16740,"byteOffset":40060,"target":34963},{"buffer":0,"byteOffset":56800,"byteLength":262162},{"buffer":0,"byteOffset":318962,"byteLength":1048594}],"images":[{"name":"arceus_1_0","mimeType":"image/x-tga","bufferView":3},{"name":"arceus_1_1","mimeType":"image/x-tga","bufferView":4}],"materials":[{"name":"mat_0","pbrMetallicRoughness":{"baseColorTexture":{"index":0},"baseColorFactor":[1,1,1,1],"metallicFactor":0,"roughnessFactor":0.903921569},"emissiveFactor":[0,0,0],"alphaMode":"BLEND","doubleSided":true},{"name":"mat_1","pbrMetallicRoughness":{"baseColorTexture":{"index":1},"baseColorFactor":[1,1,1,1],"metallicFactor":0,"roughnessFactor":0.903921569},"emissiveFactor":[0,0,0],"alphaMode":"BLEND","doubleSided":true},{"name":"mat_2","pbrMetallicRoughness":{"baseColorTexture":{"index":0},"baseColorFactor":[1,1,1,1],"metallicFactor":0,"roughnessFactor":0.903921569},"emissiveFactor":[0,0,0],"alphaMode":"BLEND","doubleSided":true},{"name":"mat_3","pbrMetallicRoughness":{"baseColorTexture":{"index":1},"baseColorFactor":[1,1,1,1],"metallicFactor":0,"roughnessFactor":0.903921569},"emissiveFactor":[0,0,0],"alphaMode":"BLEND","doubleSided":true}],"meshes":[{"name":"arceus-Mesh","primitives":[{"attributes":{"POSITION":0,"TEXCOORD_0":1},"indices":2,"material":0,"mode":4},{"attributes":{"POSITION":3,"TEXCOORD_0":4},"indices":5,"material":1,"mode":4},{"attributes":{"POSITION":6,"TEXCOORD_0":7},"indices":8,"material":2,"mode":4},{"attributes":{"POSITION":9,"TEXCOORD_0":10},"indices":11,"material":3,"mode":4}]}],"nodes":[{"name":"arceus","mesh":0}],"samplers":[{"wrapS":10497,"wrapT":10497}],"scene":0,"scenes":[{"nodes":[0]}],"textures":[{"name":"arceus_1_0","sampler":0,"source":0},{"name":"arceus_1_1","sampler":0,"source":1}]}