{"accessors":[{"name":"polygon0_1_0_positions","componentType":5126,"count":44,"min":[-0.6393340229988098,1.2087030410766602,0.35793599486351013],"max":[0.6393340229988098,2.108733892440796,0.7153859734535217],"type":"VEC3","bufferView":0,"byteOffset":0},{"name":"polygon0_1_0_normals","componentType":5126,"count":44,"min":[-0.8101711869239807,-0.8577526211738586,0.35779598355293274],"max":[0.8101750016212463,0.7076559662818909,0.9906262755393982],"type":"VEC3","bufferView":1,"byteOffset":0},{"name":"polygon0_1_0_texcoords","componentType":5126,"count":44,"min":[1.033447027206421,0.016631999984383583],"max":[1.464324951171875,0.23205600678920746],"type":"VEC2","bufferView":2,"byteOffset":0},{"name":"polygon0_1_0_indices","componentType":5123,"count":168,"min":[0],"max":[43],"type":"SCALAR","bufferView":3,"byteOffset":0},{"name":"polygon1_1_0_positions","componentType":5126,"count":15,"min":[-0.26049599051475525,1.121090054512024,0.18471600115299225],"max":[0.26049500703811646,1.4332109689712524,0.6905019879341125],"type":"VEC3","bufferView":0,"byteOffset":528},{"name":"polygon1_1_0_normals","componentType":5126,"count":15,"min":[-0.30749213695526123,-0.9853417873382568,0.16301892697811127],"max":[0.30749213695526123,-0.3211129605770111,0.9470409154891968],"type":"VEC3","bufferView":1,"byteOffset":528},{"name":"polygon1_1_0_texcoords","componentType":5126,"count":15,"min":[2.138366937637329,0.016112999990582466],"max":[2.904968023300171,0.2343139946460724],"type":"VEC2","bufferView":2,"byteOffset":352},{"name":"polygon1_1_0_indices","componentType":5123,"count":48,"min":[0],"max":[14],"type":"SCALAR","bufferView":3,"byteOffset":336},{"name":"polygon2_1_0_positions","componentType":5126,"count":1001,"min":[-1.4634549617767334,0,-0.9047729969024658],"max":[1.4634549617767334,3.9856491088867188,0.7271749973297119],"type":"VEC3","bufferView":0,"byteOffset":708},{"name":"polygon2_1_0_normals","componentType":5126,"count":1001,"min":[-0.9999991655349731,-0.9999786615371704,-0.9999276995658875],"max":[0.9999991655349731,0.9997946619987488,0.9999334812164307],"type":"VEC3","bufferView":1,"byteOffset":708},{"name":"polygon2_1_0_texcoords","componentType":5126,"count":1001,"min":[0.008330999873578548,0.021911999210715294],"max":[0.9884639978408813,0.976593017578125],"type":"VEC2","bufferView":2,"byteOffset":472},{"name":"polygon2_1_0_indices","componentType":5123,"count":4284,"min":[0],"max":[1000],"type":"SCALAR","bufferView":3,"byteOffset":432}],"asset":{"generator":"obj2gltf","version":"2.0"},"buffers":[{"name":"P2_Victini","byteLength":42920,"uri":"data:application/octet-stream;base64,"}],"bufferViews":[{"name":"bufferView_0","buffer":0,"byteLength":12720,"byteOffset":0,"byteStride":12,"target":34962},{"name":"bufferView_1","buffer":0,"byteLength":12720,"byteOffset":12720,"byteStride":12,"target":34962},{"name":"bufferView_2","buffer":0,"byteLength":8480,"byteOffset":25440,"byteStride":8,"target":34962},{"name":"bufferView_3","buffer":0,"byteLength":9000,"byteOffset":33920,"target":34963}],"materials":[{"name":"mat2","pbrMetallicRoughness":{"baseColorFactor":[0.5,0.5,0.5,1],"metallicFactor":0,"roughnessFactor":1},"emissiveFactor":[0,0,0],"alphaMode":"OPAQUE","doubleSided":false},{"name":"mat3","pbrMetallicRoughness":{"baseColorFactor":[0.5,0.5,0.5,1],"metallicFactor":0,"roughnessFactor":1},"emissiveFactor":[0,0,0],"alphaMode":"OPAQUE","doubleSided":false},{"name":"mat1","pbrMetallicRoughness":{"baseColorFactor":[0.5,0.5,0.5,1],"metallicFactor":0,"roughnessFactor":1},"emissiveFactor":[0,0,0],"alphaMode":"OPAQUE","doubleSided":false}],"meshes":[{"name":"polygon0_1","primitives":[{"attributes":{"POSITION":0,"NORMAL":1,"TEXCOORD_0":2},"indices":3,"material":0,"mode":4}]},{"name":"polygon1_1","primitives":[{"attributes":{"POSITION":4,"NORMAL":5,"TEXCOORD_0":6},"indices":7,"material":1,"mode":4}]},{"name":"polygon2_1","primitives":[{"attributes":{"POSITION":8,"NORMAL":9,"TEXCOORD_0":10},"indices":11,"material":2,"mode":4}]}],"nodes":[{"name":"polygon0","mesh":0},{"name":"polygon1","mesh":1},{"name":"polygon2","mesh":2}],"scene":0,"scenes":[{"nodes":[0,1,2]}]}