{"accessors":[{"name":"polygon0_1_0_positions","componentType":5126,"count":28,"min":[-0.5256040096282959,3.743772029876709,0.6362659931182861],"max":[0.5255159735679626,4.335398197174072,1.7541199922561646],"type":"VEC3","bufferView":0,"byteOffset":0},{"name":"polygon0_1_0_normals","componentType":5126,"count":28,"min":[-0.7885218858718872,-0.9637552499771118,0.22948695719242096],"max":[0.7885218858718872,-0.4536179304122925,0.46697798371315],"type":"VEC3","bufferView":1,"byteOffset":0},{"name":"polygon0_1_0_texcoords","componentType":5126,"count":28,"min":[0.007813000120222569,0.019531000405550003],"max":[0.4257810115814209,0.2382809966802597],"type":"VEC2","bufferView":2,"byteOffset":0},{"name":"polygon0_1_0_indices","componentType":5123,"count":108,"min":[0],"max":[27],"type":"SCALAR","bufferView":3,"byteOffset":0},{"name":"polygon1_1_0_positions","componentType":5126,"count":116,"min":[-1.056704044342041,3.6738109588623047,-0.5380079746246338],"max":[1.056617021560669,5.53088903427124,0.9702020287513733],"type":"VEC3","bufferView":0,"byteOffset":336},{"name":"polygon1_1_0_normals","componentType":5126,"count":116,"min":[-0.9983633160591125,-0.8071225881576538,-0.5419262051582336],"max":[0.9983633160591125,0.6052071452140808,0.4936549663543701],"type":"VEC3","bufferView":1,"byteOffset":336},{"name":"polygon1_1_0_texcoords","componentType":5126,"count":116,"min":[0.023437999188899994,0.0078119998797774315],"max":[0.4921880066394806,0.234375],"type":"VEC2","bufferView":2,"byteOffset":224},{"name":"polygon1_1_0_indices","componentType":5123,"count":420,"min":[0],"max":[115],"type":"SCALAR","bufferView":3,"byteOffset":216},{"name":"polygon2_1_0_positions","componentType":5126,"count":1144,"min":[-1.5504989624023438,-0.07044199854135513,-6.054759979248047],"max":[1.5504159927368164,13.380301475524902,2.872252941131592],"type":"VEC3","bufferView":0,"byteOffset":1728},{"name":"polygon2_1_0_normals","componentType":5126,"count":1144,"min":[-0.9999935626983643,-0.9999831914901733,-0.9996914267539978],"max":[0.999994158744812,0.999994158744812,0.9997625946998596],"type":"VEC3","bufferView":1,"byteOffset":1728},{"name":"polygon2_1_0_texcoords","componentType":5126,"count":1144,"min":[0.004395000170916319,0.0036009999457746744],"max":[0.98956298828125,0.9969789981842041],"type":"VEC2","bufferView":2,"byteOffset":1152},{"name":"polygon2_1_0_indices","componentType":5123,"count":5280,"min":[0],"max":[1143],"type":"SCALAR","bufferView":3,"byteOffset":1056}],"asset":{"generator":"obj2gltf","version":"2.0"},"buffers":[{"name":"P2_Snivy","byteLength":52832,"uri":"data:application/octet-stream;base64,"}],"bufferViews":[{"name":"bufferView_0","buffer":0,"byteLength":15456,"byteOffset":0,"byteStride":12,"target":34962},{"name":"bufferView_1","buffer":0,"byteLength":15456,"byteOffset":15456,"byteStride":12,"target":34962},{"name":"bufferView_2","buffer":0,"byteLength":10304,"byteOffset":30912,"byteStride":8,"target":34962},{"name":"bufferView_3","buffer":0,"byteLength":11616,"byteOffset":41216,"target":34963}],"materials":[{"name":"mat3","pbrMetallicRoughness":{"baseColorFactor":[0.5,0.5,0.5,1],"metallicFactor":0,"roughnessFactor":1},"emissiveFactor":[0,0,0],"alphaMode":"OPAQUE","doubleSided":false},{"name":"mat2","pbrMetallicRoughness":{"baseColorFactor":[0.5,0.5,0.5,1],"metallicFactor":0,"roughnessFactor":1},"emissiveFactor":[0,0,0],"alphaMode":"OPAQUE","doubleSided":false},{"name":"mat1","pbrMetallicRoughness":{"baseColorFactor":[0.5,0.5,0.5,1],"metallicFactor":0,"roughnessFactor":1},"emissiveFactor":[0,0,0],"alphaMode":"OPAQUE","doubleSided":false}],"meshes":[{"name":"polygon0_1","primitives":[{"attributes":{"POSITION":0,"NORMAL":1,"TEXCOORD_0":2},"indices":3,"material":0,"mode":4}]},{"name":"polygon1_1","primitives":[{"attributes":{"POSITION":4,"NORMAL":5,"TEXCOORD_0":6},"indices":7,"material":1,"mode":4}]},{"name":"polygon2_1","primitives":[{"attributes":{"POSITION":8,"NORMAL":9,"TEXCOORD_0":10},"indices":11,"material":2,"mode":4}]}],"nodes":[{"name":"polygon0","mesh":0},{"name":"polygon1","mesh":1},{"name":"polygon2","mesh":2}],"scene":0,"scenes":[{"nodes":[0,1,2]}]}