{"accessors":[{"name":"polygon0_1_0_positions","componentType":5126,"count":4,"min":[-0.8697810173034668,1.610334038734436,-2.588318109512329],"max":[0.6888449788093567,3.1689600944519043,-2.588318109512329],"type":"VEC3","bufferView":0,"byteOffset":0},{"name":"polygon0_1_0_normals","componentType":5126,"count":4,"min":[0,0,1],"max":[0,0,1],"type":"VEC3","bufferView":1,"byteOffset":0},{"name":"polygon0_1_0_texcoords","componentType":5126,"count":4,"min":[0,0],"max":[1,1],"type":"VEC2","bufferView":2,"byteOffset":0},{"name":"polygon0_1_0_indices","componentType":5123,"count":6,"min":[0],"max":[3],"type":"SCALAR","bufferView":3,"byteOffset":0},{"name":"polygon1_1_0_positions","componentType":5126,"count":28,"min":[-1.0655900239944458,1.0680290460586548,1.6709589958190918],"max":[1.0655900239944458,1.937999963760376,2.685091972351074],"type":"VEC3","bufferView":0,"byteOffset":48},{"name":"polygon1_1_0_normals","componentType":5126,"count":28,"min":[-0.8462831974029541,-0.9243288040161133,0.2747710645198822],"max":[0.8462831974029541,-0.2563460171222687,0.5432249903678894],"type":"VEC3","bufferView":1,"byteOffset":48},{"name":"polygon1_1_0_texcoords","componentType":5126,"count":28,"min":[0.0039059999398887157,0.0078119998797774315],"max":[0.4960939884185791,0.2460940033197403],"type":"VEC2","bufferView":2,"byteOffset":32},{"name":"polygon1_1_0_indices","componentType":5123,"count":108,"min":[0],"max":[27],"type":"SCALAR","bufferView":3,"byteOffset":12},{"name":"polygon2_1_0_positions","componentType":5126,"count":44,"min":[-0.5181810259819031,1.9433670043945312,-2.9988911151885986],"max":[0.34594398736953735,2.8290929794311523,-2.1366310119628906],"type":"VEC3","bufferView":0,"byteOffset":384},{"name":"polygon2_1_0_normals","componentType":5126,"count":44,"min":[-0.9608719348907471,-0.9572086930274963,-0.9199201464653015],"max":[0.9638763070106506,0.9922366738319397,0.9825251698493958],"type":"VEC3","bufferView":1,"byteOffset":384},{"name":"polygon2_1_0_texcoords","componentType":5126,"count":44,"min":[0.08581499755382538,-0.9141849875450134],"max":[0.9141849875450134,-0.08581499755382538],"type":"VEC2","bufferView":2,"byteOffset":256},{"name":"polygon2_1_0_indices","componentType":5123,"count":168,"min":[0],"max":[43],"type":"SCALAR","bufferView":3,"byteOffset":228},{"name":"polygon3_1_0_positions","componentType":5126,"count":1035,"min":[-1.2456560134887695,-0.0004330000083427876,-2.3130619525909424],"max":[1.2456560134887695,4.990274906158447,3.0898890495300293],"type":"VEC3","bufferView":0,"byteOffset":912},{"name":"polygon3_1_0_normals","componentType":5126,"count":1035,"min":[-0.9980894923210144,-0.998665988445282,-0.9997782707214355],"max":[0.9980894923210144,0.9999871850013733,0.9997545480728149],"type":"VEC3","bufferView":1,"byteOffset":912},{"name":"polygon3_1_0_texcoords","componentType":5126,"count":1035,"min":[0.007201999891549349,-0.9960939884185791],"max":[0.9829710125923157,0.6768190264701843],"type":"VEC2","bufferView":2,"byteOffset":608},{"name":"polygon3_1_0_indices","componentType":5123,"count":4656,"min":[0],"max":[1034],"type":"SCALAR","bufferView":3,"byteOffset":564},{"name":"polygon5_1_0_positions","componentType":5126,"count":46,"min":[-1.0691479444503784,2.1474480628967285,1.8718600273132324],"max":[1.0691479444503784,3.0029220581054688,2.3640658855438232],"type":"VEC3","bufferView":0,"byteOffset":13332},{"name":"polygon5_1_0_normals","componentType":5126,"count":46,"min":[-0.8503056168556213,0.07843396812677383,0.4979640543460846],"max":[0.8503056168556213,0.45082300901412964,0.7466397881507874],"type":"VEC3","bufferView":1,"byteOffset":13332},{"name":"polygon5_1_0_texcoords","componentType":5126,"count":46,"min":[0.02532999962568283,-0.9924319982528687],"max":[0.4686279892921448,-0.7649539709091187],"type":"VEC2","bufferView":2,"byteOffset":8888},{"name":"polygon5_1_0_indices","componentType":5123,"count":138,"min":[0],"max":[45],"type":"SCALAR","bufferView":3,"byteOffset":9876},{"name":"polygon6_1_0_positions","componentType":5126,"count":44,"min":[-0.5501369833946228,1.9106119871139526,-3.030776023864746],"max":[0.3778989911079407,2.8618459701538086,-2.1047449111938477],"type":"VEC3","bufferView":0,"byteOffset":13884},{"name":"polygon6_1_0_normals","componentType":5126,"count":44,"min":[-0.9608719348907471,-0.9572086930274963,-0.9199201464653015],"max":[0.9638763070106506,0.9922366738319397,0.9825251698493958],"type":"VEC3","bufferView":1,"byteOffset":13884},{"name":"polygon6_1_0_texcoords","componentType":5126,"count":44,"min":[0.08569300174713135,-3.914307117462158],"max":[0.9143069982528687,-3.085692882537842],"type":"VEC2","bufferView":2,"byteOffset":9256},{"name":"polygon6_1_0_indices","componentType":5123,"count":168,"min":[0],"max":[43],"type":"SCALAR","bufferView":3,"byteOffset":10152}],"asset":{"generator":"obj2gltf","version":"2.0"},"buffers":[{"name":"P2_Tepig","byteLength":48920,"uri":"data:application/octet-stream;base64,"}],"bufferViews":[{"name":"bufferView_0","buffer":0,"byteLength":14412,"byteOffset":0,"byteStride":12,"target":34962},{"name":"bufferView_1","buffer":0,"byteLength":14412,"byteOffset":14412,"byteStride":12,"target":34962},{"name":"bufferView_2","buffer":0,"byteLength":9608,"byteOffset":28824,"byteStride":8,"target":34962},{"name":"bufferView_3","buffer":0,"byteLength":10488,"byteOffset":38432,"target":34963}],"materials":[{"name":"mat3","pbrMetallicRoughness":{"baseColorFactor":[0.5,0.5,0.5,1],"metallicFactor":0,"roughnessFactor":1},"emissiveFactor":[0,0,0],"alphaMode":"OPAQUE","doubleSided":false},{"name":"mat4","pbrMetallicRoughness":{"baseColorFactor":[0.5,0.5,0.5,1],"metallicFactor":0,"roughnessFactor":1},"emissiveFactor":[0,0,0],"alphaMode":"OPAQUE","doubleSided":false},{"name":"mat5","pbrMetallicRoughness":{"baseColorFactor":[0.5,0.5,0.5,1],"metallicFactor":0,"roughnessFactor":1},"emissiveFactor":[0,0,0],"alphaMode":"OPAQUE","doubleSided":false},{"name":"mat1","pbrMetallicRoughness":{"baseColorFactor":[0.5,0.5,0.5,1],"metallicFactor":0,"roughnessFactor":1},"emissiveFactor":[0,0,0],"alphaMode":"OPAQUE","doubleSided":false},{"name":"mat2","pbrMetallicRoughness":{"baseColorFactor":[0.5,0.5,0.5,1],"metallicFactor":0,"roughnessFactor":1},"emissiveFactor":[0,0,0],"alphaMode":"OPAQUE","doubleSided":false},{"name":"mat6","pbrMetallicRoughness":{"baseColorFactor":[0.5,0.5,0.5,1],"metallicFactor":0,"roughnessFactor":1},"emissiveFactor":[0,0,0],"alphaMode":"OPAQUE","doubleSided":false}],"meshes":[{"name":"polygon0_1","primitives":[{"attributes":{"POSITION":0,"NORMAL":1,"TEXCOORD_0":2},"indices":3,"material":0,"mode":4}]},{"name":"polygon1_1","primitives":[{"attributes":{"POSITION":4,"NORMAL":5,"TEXCOORD_0":6},"indices":7,"material":1,"mode":4}]},{"name":"polygon2_1","primitives":[{"attributes":{"POSITION":8,"NORMAL":9,"TEXCOORD_0":10},"indices":11,"material":2,"mode":4}]},{"name":"polygon3_1","primitives":[{"attributes":{"POSITION":12,"NORMAL":13,"TEXCOORD_0":14},"indices":15,"material":3,"mode":4}]},{"name":"polygon5_1","primitives":[{"attributes":{"POSITION":16,"NORMAL":17,"TEXCOORD_0":18},"indices":19,"material":4,"mode":4}]},{"name":"polygon6_1","primitives":[{"attributes":{"POSITION":20,"NORMAL":21,"TEXCOORD_0":22},"indices":23,"material":5,"mode":4}]}],"nodes":[{"name":"polygon0","mesh":0},{"name":"polygon1","mesh":1},{"name":"polygon2","mesh":2},{"name":"polygon3","mesh":3},{"name":"polygon5","mesh":4},{"name":"polygon6","mesh":5}],"scene":0,"scenes":[{"nodes":[0,1,2,3,4,5]}]}