{"accessors":[{"name":"polygon0_1_0_positions","componentType":5126,"count":24,"min":[-2.007201910018921,6.225264072418213,0.4293389916419983],"max":[2.007201910018921,7.6538848876953125,1.8930890560150146],"type":"VEC3","bufferView":0,"byteOffset":0},{"name":"polygon0_1_0_normals","componentType":5126,"count":24,"min":[-0.8498438000679016,0.3705509603023529,0.25817593932151794],"max":[0.8498438000679016,0.7745442986488342,0.7772958874702454],"type":"VEC3","bufferView":1,"byteOffset":0},{"name":"polygon0_1_0_texcoords","componentType":5126,"count":24,"min":[0.029418999329209328,-0.9526979923248291],"max":[0.44335898756980896,-0.7839969992637634],"type":"VEC2","bufferView":2,"byteOffset":0},{"name":"polygon0_1_0_indices","componentType":5123,"count":72,"min":[0],"max":[23],"type":"SCALAR","bufferView":3,"byteOffset":0},{"name":"polygon1_1_0_positions","componentType":5126,"count":951,"min":[-6.218352794647217,-0.0004400000034365803,-6.8496479988098145],"max":[6.218352794647217,9.995708465576172,3.1282880306243896],"type":"VEC3","bufferView":0,"byteOffset":288},{"name":"polygon1_1_0_normals","componentType":5126,"count":951,"min":[-1,-0.9999998807907104,-0.9993964433670044],"max":[1,1,0.9999971389770508],"type":"VEC3","bufferView":1,"byteOffset":288},{"name":"polygon1_1_0_texcoords","componentType":5126,"count":951,"min":[0.018463000655174255,0.01388499978929758],"max":[0.9936519861221313,0.9967039823532104],"type":"VEC2","bufferView":2,"byteOffset":192},{"name":"polygon1_1_0_indices","componentType":5123,"count":4374,"min":[0],"max":[950],"type":"SCALAR","bufferView":3,"byteOffset":144}],"asset":{"generator":"obj2gltf","version":"2.0"},"buffers":[{"name":"P2_Pignite","byteLength":40092,"uri":"data:application/octet-stream;base64,"}],"bufferViews":[{"name":"bufferView_0","buffer":0,"byteLength":11700,"byteOffset":0,"byteStride":12,"target":34962},{"name":"bufferView_1","buffer":0,"byteLength":11700,"byteOffset":11700,"byteStride":12,"target":34962},{"name":"bufferView_2","buffer":0,"byteLength":7800,"byteOffset":23400,"byteStride":8,"target":34962},{"name":"bufferView_3","buffer":0,"byteLength":8892,"byteOffset":31200,"target":34963}],"materials":[{"name":"mat2","pbrMetallicRoughness":{"baseColorFactor":[0.5,0.5,0.5,1],"metallicFactor":0,"roughnessFactor":1},"emissiveFactor":[0,0,0],"alphaMode":"OPAQUE","doubleSided":false},{"name":"mat1","pbrMetallicRoughness":{"baseColorFactor":[0.5,0.5,0.5,1],"metallicFactor":0,"roughnessFactor":1},"emissiveFactor":[0,0,0],"alphaMode":"OPAQUE","doubleSided":false}],"meshes":[{"name":"polygon0_1","primitives":[{"attributes":{"POSITION":0,"NORMAL":1,"TEXCOORD_0":2},"indices":3,"material":0,"mode":4}]},{"name":"polygon1_1","primitives":[{"attributes":{"POSITION":4,"NORMAL":5,"TEXCOORD_0":6},"indices":7,"material":1,"mode":4}]}],"nodes":[{"name":"polygon0","mesh":0},{"name":"polygon1","mesh":1}],"scene":0,"scenes":[{"nodes":[0,1]}]}