{"accessors":[{"name":"polygon0_1_0_positions","componentType":5126,"count":334,"min":[-3.863701105117798,10.614453315734863,-3.525475025177002],"max":[3.8637139797210693,16.827449798583984,3.3057029247283936],"type":"VEC3","bufferView":0,"byteOffset":0},{"name":"polygon0_1_0_normals","componentType":5126,"count":334,"min":[-0.9972540140151978,-0.8581666946411133,-0.9945677518844604],"max":[0.9972540140151978,0.7829481959342957,0.9725353121757507],"type":"VEC3","bufferView":1,"byteOffset":0},{"name":"polygon0_1_0_texcoords","componentType":5126,"count":334,"min":[0.20471200346946716,-0.07495100051164627],"max":[1.4082030057907104,1.6317139863967896],"type":"VEC2","bufferView":2,"byteOffset":0},{"name":"polygon0_1_0_indices","componentType":5123,"count":1002,"min":[0],"max":[333],"type":"SCALAR","bufferView":3,"byteOffset":0},{"name":"polygon1_1_0_positions","componentType":5126,"count":419,"min":[-3.547002077102661,9.823648452758789,-3.209549903869629],"max":[3.547002077102661,16.424890518188477,3.464024066925049],"type":"VEC3","bufferView":0,"byteOffset":4008},{"name":"polygon1_1_0_normals","componentType":5126,"count":419,"min":[-0.9987484812736511,-0.9827855825424194,-0.9909578561782837],"max":[0.9987484812736511,0.997769832611084,0.9739736318588257],"type":"VEC3","bufferView":1,"byteOffset":4008},{"name":"polygon1_1_0_texcoords","componentType":5126,"count":419,"min":[0.004821999929845333,0.0025939999613910913],"max":[0.5802919864654541,0.7327269911766052],"type":"VEC2","bufferView":2,"byteOffset":2672},{"name":"polygon1_1_0_indices","componentType":5123,"count":1338,"min":[0],"max":[418],"type":"SCALAR","bufferView":3,"byteOffset":2004},{"name":"polygon2_1_0_positions","componentType":5126,"count":1313,"min":[-12.649198532104492,0.028927000239491463,-13.099113464355469],"max":[12.649198532104492,16.257335662841797,4.541067123413086],"type":"VEC3","bufferView":0,"byteOffset":9036},{"name":"polygon2_1_0_normals","componentType":5126,"count":1313,"min":[-1,-1,-0.999020516872406],"max":[1,0.9999918937683105,0.9994177222251892],"type":"VEC3","bufferView":1,"byteOffset":9036},{"name":"polygon2_1_0_texcoords","componentType":5126,"count":1313,"min":[0.004395000170916319,0.0028989999555051327],"max":[0.9973139762878418,0.9934689998626709],"type":"VEC2","bufferView":2,"byteOffset":6024},{"name":"polygon2_1_0_indices","componentType":5123,"count":4698,"min":[0],"max":[1312],"type":"SCALAR","bufferView":3,"byteOffset":4680},{"name":"polygon3_1_0_positions","componentType":5126,"count":8,"min":[-1.367753028869629,12.704137802124023,1.604200005531311],"max":[1.367751955986023,13.451842308044434,2.1154160499572754],"type":"VEC3","bufferView":0,"byteOffset":24792},{"name":"polygon3_1_0_normals","componentType":5126,"count":8,"min":[-0.6380599141120911,0.18674898147583008,0.6886780858039856],"max":[0.6380599141120911,0.517524003982544,0.7808688879013062],"type":"VEC3","bufferView":1,"byteOffset":24792},{"name":"polygon3_1_0_texcoords","componentType":5126,"count":8,"min":[0.027343999594449997,0.0820309966802597],"max":[0.4765630066394806,0.203125],"type":"VEC2","bufferView":2,"byteOffset":16528},{"name":"polygon3_1_0_indices","componentType":5123,"count":12,"min":[0],"max":[7],"type":"SCALAR","bufferView":3,"byteOffset":14076}],"asset":{"generator":"obj2gltf","version":"2.0"},"buffers":[{"name":"P2_Emboar","byteLength":80468,"uri":"data:application/octet-stream;base64,"}],"bufferViews":[{"name":"bufferView_0","buffer":0,"byteLength":24888,"byteOffset":0,"byteStride":12,"target":34962},{"name":"bufferView_1","buffer":0,"byteLength":24888,"byteOffset":24888,"byteStride":12,"target":34962},{"name":"bufferView_2","buffer":0,"byteLength":16592,"byteOffset":49776,"byteStride":8,"target":34962},{"name":"bufferView_3","buffer":0,"byteLength":14100,"byteOffset":66368,"target":34963}],"materials":[{"name":"mat4","pbrMetallicRoughness":{"baseColorFactor":[0.5,0.5,0.5,1],"metallicFactor":0,"roughnessFactor":1},"emissiveFactor":[0,0,0],"alphaMode":"OPAQUE","doubleSided":false},{"name":"mat3","pbrMetallicRoughness":{"baseColorFactor":[0.5,0.5,0.5,1],"metallicFactor":0,"roughnessFactor":1},"emissiveFactor":[0,0,0],"alphaMode":"OPAQUE","doubleSided":false},{"name":"mat1","pbrMetallicRoughness":{"baseColorFactor":[0.5,0.5,0.5,1],"metallicFactor":0,"roughnessFactor":1},"emissiveFactor":[0,0,0],"alphaMode":"OPAQUE","doubleSided":false},{"name":"mat2","pbrMetallicRoughness":{"baseColorFactor":[0.5,0.5,0.5,1],"metallicFactor":0,"roughnessFactor":1},"emissiveFactor":[0,0,0],"alphaMode":"OPAQUE","doubleSided":false}],"meshes":[{"name":"polygon0_1","primitives":[{"attributes":{"POSITION":0,"NORMAL":1,"TEXCOORD_0":2},"indices":3,"material":0,"mode":4}]},{"name":"polygon1_1","primitives":[{"attributes":{"POSITION":4,"NORMAL":5,"TEXCOORD_0":6},"indices":7,"material":1,"mode":4}]},{"name":"polygon2_1","primitives":[{"attributes":{"POSITION":8,"NORMAL":9,"TEXCOORD_0":10},"indices":11,"material":2,"mode":4}]},{"name":"polygon3_1","primitives":[{"attributes":{"POSITION":12,"NORMAL":13,"TEXCOORD_0":14},"indices":15,"material":3,"mode":4}]}],"nodes":[{"name":"polygon0","mesh":0},{"name":"polygon1","mesh":1},{"name":"polygon2","mesh":2},{"name":"polygon3","mesh":3}],"scene":0,"scenes":[{"nodes":[0,1,2,3]}]}