{"accessors":[{"name":"polygon0_1_0_positions","componentType":5126,"count":62,"min":[-0.7124210000038147,0.8146979808807373,1.0600160360336304],"max":[5.324580192565918,2.6217141151428223,1.3756259679794312],"type":"VEC3","bufferView":0,"byteOffset":0},{"name":"polygon0_1_0_normals","componentType":5126,"count":62,"min":[-0.9958807826042175,-0.9957670569419861,-0.999225914478302],"max":[0.8140120506286621,0.4589638113975525,0.9983132481575012],"type":"VEC3","bufferView":1,"byteOffset":0},{"name":"polygon0_1_0_texcoords","componentType":5126,"count":62,"min":[0.008880999870598316,0.04669199883937836],"max":[0.9757080078125,0.96527099609375],"type":"VEC2","bufferView":2,"byteOffset":0},{"name":"polygon0_1_0_indices","componentType":5123,"count":288,"min":[0],"max":[61],"type":"SCALAR","bufferView":3,"byteOffset":0},{"name":"polygon1_1_0_positions","componentType":5126,"count":16,"min":[-1.1578099727630615,3.2224090099334717,1.1181910037994385],"max":[1.1578099727630615,4.1359171867370605,1.5472379922866821],"type":"VEC3","bufferView":0,"byteOffset":744},{"name":"polygon1_1_0_normals","componentType":5126,"count":16,"min":[-0.7193971276283264,-0.2978690564632416,0.6711049675941467],"max":[0.7193971276283264,0.4637249708175659,0.9248449802398682],"type":"VEC3","bufferView":1,"byteOffset":744},{"name":"polygon1_1_0_texcoords","componentType":5126,"count":16,"min":[0.03125,0.019531000405550003],"max":[0.4648439884185791,0.2460940033197403],"type":"VEC2","bufferView":2,"byteOffset":496},{"name":"polygon1_1_0_indices","componentType":5123,"count":36,"min":[0],"max":[15],"type":"SCALAR","bufferView":3,"byteOffset":576},{"name":"polygon2_1_0_positions","componentType":5126,"count":1068,"min":[-1.8774110078811646,0.00047500000800937414,-3.2123050689697266],"max":[1.8774110078811646,5.010962009429932,1.9189000129699707],"type":"VEC3","bufferView":0,"byteOffset":936},{"name":"polygon2_1_0_normals","componentType":5126,"count":1068,"min":[-0.9999645352363586,-1,-0.9999988079071045],"max":[0.9999645352363586,1,0.9999988079071045],"type":"VEC3","bufferView":1,"byteOffset":936},{"name":"polygon2_1_0_texcoords","componentType":5126,"count":1068,"min":[0.018921000882983208,1.01556396484375],"max":[0.9872440099716187,1.9898070096969604],"type":"VEC2","bufferView":2,"byteOffset":624},{"name":"polygon2_1_0_indices","componentType":5123,"count":4674,"min":[0],"max":[1067],"type":"SCALAR","bufferView":3,"byteOffset":648},{"name":"polygon3_1_0_positions","componentType":5126,"count":12,"min":[-0.6249639987945557,2.526155948638916,1.0642789602279663],"max":[0.6249639987945557,3.2224090099334717,1.620898962020874],"type":"VEC3","bufferView":0,"byteOffset":13752},{"name":"polygon3_1_0_normals","componentType":5126,"count":12,"min":[-0.3233030438423157,-0.8210251331329346,0.5694223046302795],"max":[0.3233030438423157,-0.2741719186306,0.9616807103157043],"type":"VEC3","bufferView":1,"byteOffset":13752},{"name":"polygon3_1_0_texcoords","componentType":5126,"count":12,"min":[0.019043000414967537,-1.954468011856079],"max":[0.4551999866962433,-1.8011469841003418],"type":"VEC2","bufferView":2,"byteOffset":9168},{"name":"polygon3_1_0_indices","componentType":5123,"count":42,"min":[0],"max":[11],"type":"SCALAR","bufferView":3,"byteOffset":9996}],"asset":{"generator":"obj2gltf","version":"2.0"},"buffers":[{"name":"P2_Oshawott","byteLength":47136,"uri":"data:application/octet-stream;base64,"}],"bufferViews":[{"name":"bufferView_0","buffer":0,"byteLength":13896,"byteOffset":0,"byteStride":12,"target":34962},{"name":"bufferView_1","buffer":0,"byteLength":13896,"byteOffset":13896,"byteStride":12,"target":34962},{"name":"bufferView_2","buffer":0,"byteLength":9264,"byteOffset":27792,"byteStride":8,"target":34962},{"name":"bufferView_3","buffer":0,"byteLength":10080,"byteOffset":37056,"target":34963}],"materials":[{"name":"mat4","pbrMetallicRoughness":{"baseColorFactor":[0.5,0.5,0.5,1],"metallicFactor":0,"roughnessFactor":1},"emissiveFactor":[0,0,0],"alphaMode":"OPAQUE","doubleSided":false},{"name":"mat2","pbrMetallicRoughness":{"baseColorFactor":[0.5,0.5,0.5,1],"metallicFactor":0,"roughnessFactor":1},"emissiveFactor":[0,0,0],"alphaMode":"OPAQUE","doubleSided":false},{"name":"mat1","pbrMetallicRoughness":{"baseColorFactor":[0.5,0.5,0.5,1],"metallicFactor":0,"roughnessFactor":1},"emissiveFactor":[0,0,0],"alphaMode":"OPAQUE","doubleSided":false},{"name":"mat3","pbrMetallicRoughness":{"baseColorFactor":[0.5,0.5,0.5,1],"metallicFactor":0,"roughnessFactor":1},"emissiveFactor":[0,0,0],"alphaMode":"OPAQUE","doubleSided":false}],"meshes":[{"name":"polygon0_1","primitives":[{"attributes":{"POSITION":0,"NORMAL":1,"TEXCOORD_0":2},"indices":3,"material":0,"mode":4}]},{"name":"polygon1_1","primitives":[{"attributes":{"POSITION":4,"NORMAL":5,"TEXCOORD_0":6},"indices":7,"material":1,"mode":4}]},{"name":"polygon2_1","primitives":[{"attributes":{"POSITION":8,"NORMAL":9,"TEXCOORD_0":10},"indices":11,"material":2,"mode":4}]},{"name":"polygon3_1","primitives":[{"attributes":{"POSITION":12,"NORMAL":13,"TEXCOORD_0":14},"indices":15,"material":3,"mode":4}]}],"nodes":[{"name":"polygon0","mesh":0},{"name":"polygon1","mesh":1},{"name":"polygon2","mesh":2},{"name":"polygon3","mesh":3}],"scene":0,"scenes":[{"nodes":[0,1,2,3]}]}