{"accessors":[{"name":"polygon0_1_0_positions","componentType":5126,"count":124,"min":[-3.882983922958374,1.344359040260315,-3.076559066772461],"max":[3.8829851150512695,4.405397891998291,1.2550280094146729],"type":"VEC3","bufferView":0,"byteOffset":0},{"name":"polygon0_1_0_normals","componentType":5126,"count":124,"min":[-0.9951182007789612,-0.9227628707885742,-0.7627741694450378],"max":[0.9951183795928955,0.9765267372131348,0.9622334241867065],"type":"VEC3","bufferView":1,"byteOffset":0},{"name":"polygon0_1_0_texcoords","componentType":5126,"count":124,"min":[0.008880999870598316,0.04669199883937836],"max":[0.9757080078125,0.96527099609375],"type":"VEC2","bufferView":2,"byteOffset":0},{"name":"polygon0_1_0_indices","componentType":5123,"count":576,"min":[0],"max":[123],"type":"SCALAR","bufferView":3,"byteOffset":0},{"name":"polygon1_1_0_positions","componentType":5126,"count":1008,"min":[-2.8995800018310547,-9.999999974752427e-7,-4.3419270515441895],"max":[2.8995800018310547,8.003453254699707,1.444761037826538],"type":"VEC3","bufferView":0,"byteOffset":1488},{"name":"polygon1_1_0_normals","componentType":5126,"count":1008,"min":[-0.9997819066047668,-1,-0.9999998807907104],"max":[0.9997819066047668,0.9996126294136047,0.999983549118042],"type":"VEC3","bufferView":1,"byteOffset":1488},{"name":"polygon1_1_0_texcoords","componentType":5126,"count":1008,"min":[0.018340999260544777,0.013855000026524067],"max":[0.9917299747467041,0.9848020076751709],"type":"VEC2","bufferView":2,"byteOffset":992},{"name":"polygon1_1_0_indices","componentType":5123,"count":4230,"min":[0],"max":[1007],"type":"SCALAR","bufferView":3,"byteOffset":1152},{"name":"polygon2_1_0_positions","componentType":5126,"count":15,"min":[-1.013319969177246,5.533164024353027,0.8070949912071228],"max":[1.013321042060852,6.44563102722168,1.3031669855117798],"type":"VEC3","bufferView":0,"byteOffset":13584},{"name":"polygon2_1_0_normals","componentType":5126,"count":15,"min":[-0.694995105266571,-0.21020211279392242,0.6321377754211426],"max":[0.6949966549873352,0.49670401215553284,0.9803500175476074],"type":"VEC3","bufferView":1,"byteOffset":13584},{"name":"polygon2_1_0_texcoords","componentType":5126,"count":15,"min":[0.018310999497771263,-1.9880369901657104],"max":[0.4738770127296448,-1.7971190214157104],"type":"VEC2","bufferView":2,"byteOffset":9056},{"name":"polygon2_1_0_indices","componentType":5123,"count":48,"min":[0],"max":[14],"type":"SCALAR","bufferView":3,"byteOffset":9612},{"name":"polygon3_1_0_positions","componentType":5126,"count":15,"min":[-1.0031039714813232,4.758999824523926,0.5065850019454956],"max":[1.0031050443649292,5.546188831329346,1.3031669855117798],"type":"VEC3","bufferView":0,"byteOffset":13764},{"name":"polygon3_1_0_normals","componentType":5126,"count":15,"min":[-0.689198911190033,-0.8455749154090881,0.3955049514770508],"max":[0.6892003417015076,-0.20648092031478882,0.9784506559371948],"type":"VEC3","bufferView":1,"byteOffset":13764},{"name":"polygon3_1_0_texcoords","componentType":5126,"count":15,"min":[0,-0.9833980202674866],"max":[0.4304499924182892,-0.7661740183830261],"type":"VEC2","bufferView":2,"byteOffset":9176},{"name":"polygon3_1_0_indices","componentType":5123,"count":48,"min":[0],"max":[14],"type":"SCALAR","bufferView":3,"byteOffset":9708}],"asset":{"generator":"obj2gltf","version":"2.0"},"buffers":[{"name":"P2_DewottFR","byteLength":46988,"uri":"data:application/octet-stream;base64,"}],"bufferViews":[{"name":"bufferView_0","buffer":0,"byteLength":13944,"byteOffset":0,"byteStride":12,"target":34962},{"name":"bufferView_1","buffer":0,"byteLength":13944,"byteOffset":13944,"byteStride":12,"target":34962},{"name":"bufferView_2","buffer":0,"byteLength":9296,"byteOffset":27888,"byteStride":8,"target":34962},{"name":"bufferView_3","buffer":0,"byteLength":9804,"byteOffset":37184,"target":34963}],"materials":[{"name":"mat4","pbrMetallicRoughness":{"baseColorFactor":[0.5,0.5,0.5,1],"metallicFactor":0,"roughnessFactor":1},"emissiveFactor":[0,0,0],"alphaMode":"OPAQUE","doubleSided":false},{"name":"mat1","pbrMetallicRoughness":{"baseColorFactor":[0.5,0.5,0.5,1],"metallicFactor":0,"roughnessFactor":1},"emissiveFactor":[0,0,0],"alphaMode":"OPAQUE","doubleSided":false},{"name":"mat2","pbrMetallicRoughness":{"baseColorFactor":[0.5,0.5,0.5,1],"metallicFactor":0,"roughnessFactor":1},"emissiveFactor":[0,0,0],"alphaMode":"OPAQUE","doubleSided":false},{"name":"mat3","pbrMetallicRoughness":{"baseColorFactor":[0.5,0.5,0.5,1],"metallicFactor":0,"roughnessFactor":1},"emissiveFactor":[0,0,0],"alphaMode":"OPAQUE","doubleSided":false}],"meshes":[{"name":"polygon0_1","primitives":[{"attributes":{"POSITION":0,"NORMAL":1,"TEXCOORD_0":2},"indices":3,"material":0,"mode":4}]},{"name":"polygon1_1","primitives":[{"attributes":{"POSITION":4,"NORMAL":5,"TEXCOORD_0":6},"indices":7,"material":1,"mode":4}]},{"name":"polygon2_1","primitives":[{"attributes":{"POSITION":8,"NORMAL":9,"TEXCOORD_0":10},"indices":11,"material":2,"mode":4}]},{"name":"polygon3_1","primitives":[{"attributes":{"POSITION":12,"NORMAL":13,"TEXCOORD_0":14},"indices":15,"material":3,"mode":4}]}],"nodes":[{"name":"polygon0","mesh":0},{"name":"polygon1","mesh":1},{"name":"polygon2","mesh":2},{"name":"polygon3","mesh":3}],"scene":0,"scenes":[{"nodes":[0,1,2,3]}]}