{"accessors":[{"name":"polygon0_1_0_positions","componentType":5126,"count":699,"min":[-5.300766944885254,-0.39860999584198,-8.641702651977539],"max":[5.300765037536621,11.515044212341309,9.106650352478027],"type":"VEC3","bufferView":0,"byteOffset":0},{"name":"polygon0_1_0_normals","componentType":5126,"count":699,"min":[-0.9991702437400818,-0.9997769594192505,-0.9938113689422607],"max":[0.9992000460624695,0.9999960660934448,0.9995022416114807],"type":"VEC3","bufferView":1,"byteOffset":0},{"name":"polygon0_1_0_texcoords","componentType":5126,"count":699,"min":[0.004974000155925751,0.005737000145018101],"max":[0.9950259923934937,0.9876710176467896],"type":"VEC2","bufferView":2,"byteOffset":0},{"name":"polygon0_1_0_indices","componentType":5123,"count":2862,"min":[0],"max":[698],"type":"SCALAR","bufferView":3,"byteOffset":0},{"name":"polygon1_1_0_positions","componentType":5126,"count":746,"min":[-5.017127990722656,-1.250120997428894,-8.632522583007812],"max":[4.815610885620117,14.977048873901367,17.561302185058594],"type":"VEC3","bufferView":0,"byteOffset":8388},{"name":"polygon1_1_0_normals","componentType":5126,"count":746,"min":[-0.9993579387664795,-0.9998539686203003,-0.9990786910057068],"max":[0.999566912651062,1,0.9921647906303406],"type":"VEC3","bufferView":1,"byteOffset":8388},{"name":"polygon1_1_0_texcoords","componentType":5126,"count":746,"min":[0.23031599819660187,0.31570398807525635],"max":[0.9974669814109802,0.9969789981842041],"type":"VEC2","bufferView":2,"byteOffset":5592},{"name":"polygon1_1_0_indices","componentType":5123,"count":2484,"min":[0],"max":[745],"type":"SCALAR","bufferView":3,"byteOffset":5724},{"name":"polygon4_1_0_positions","componentType":5126,"count":17,"min":[-0.9736369848251343,10.199243545532227,6.962835788726807],"max":[0.9736359715461731,11.575440406799316,8.173999786376953],"type":"VEC3","bufferView":0,"byteOffset":17340},{"name":"polygon4_1_0_normals","componentType":5126,"count":17,"min":[-0.9546424746513367,-0.02789301425218582,0.2020859718322754],"max":[0.9546424746513367,0.974137544631958,0.8262490034103394],"type":"VEC3","bufferView":1,"byteOffset":17340},{"name":"polygon4_1_0_texcoords","componentType":5126,"count":17,"min":[0.007813000120222569,0.0039059999398887157],"max":[0.4921880066394806,0.2460940033197403],"type":"VEC2","bufferView":2,"byteOffset":11560},{"name":"polygon4_1_0_indices","componentType":5123,"count":54,"min":[0],"max":[16],"type":"SCALAR","bufferView":3,"byteOffset":10692},{"name":"polygon5_1_0_positions","componentType":5126,"count":7,"min":[-0.14907699823379517,10.418290138244629,9.030055046081543],"max":[0.14907599985599518,10.724023818969727,9.143768310546875],"type":"VEC3","bufferView":0,"byteOffset":17544},{"name":"polygon5_1_0_normals","componentType":5126,"count":7,"min":[-0.7648259401321411,-0.38232994079589844,0.42639097571372986],"max":[0.7648259401321411,0.9045389890670776,0.9446981549263],"type":"VEC3","bufferView":1,"byteOffset":17544},{"name":"polygon5_1_0_texcoords","componentType":5126,"count":7,"min":[0.6237789988517761,0.19989000260829926],"max":[0.6805419921875,0.2191469967365265],"type":"VEC2","bufferView":2,"byteOffset":11696},{"name":"polygon5_1_0_indices","componentType":5123,"count":18,"min":[0],"max":[6],"type":"SCALAR","bufferView":3,"byteOffset":10800}],"asset":{"generator":"obj2gltf","version":"2.0"},"buffers":[{"name":"P2_Samurott","byteLength":57844,"uri":"data:application/octet-stream;base64,"}],"bufferViews":[{"name":"bufferView_0","buffer":0,"byteLength":17628,"byteOffset":0,"byteStride":12,"target":34962},{"name":"bufferView_1","buffer":0,"byteLength":17628,"byteOffset":17628,"byteStride":12,"target":34962},{"name":"bufferView_2","buffer":0,"byteLength":11752,"byteOffset":35256,"byteStride":8,"target":34962},{"name":"bufferView_3","buffer":0,"byteLength":10836,"byteOffset":47008,"target":34963}],"materials":[{"name":"mat2","pbrMetallicRoughness":{"baseColorFactor":[0.5,0.5,0.5,1],"metallicFactor":0,"roughnessFactor":1},"emissiveFactor":[0,0,0],"alphaMode":"OPAQUE","doubleSided":false},{"name":"mat1","pbrMetallicRoughness":{"baseColorFactor":[0.5,0.5,0.5,1],"metallicFactor":0,"roughnessFactor":1},"emissiveFactor":[0,0,0],"alphaMode":"OPAQUE","doubleSided":false},{"name":"mat3","pbrMetallicRoughness":{"baseColorFactor":[0.5,0.5,0.5,1],"metallicFactor":0,"roughnessFactor":1},"emissiveFactor":[0,0,0],"alphaMode":"OPAQUE","doubleSided":false}],"meshes":[{"name":"polygon0_1","primitives":[{"attributes":{"POSITION":0,"NORMAL":1,"TEXCOORD_0":2},"indices":3,"material":0,"mode":4}]},{"name":"polygon1_1","primitives":[{"attributes":{"POSITION":4,"NORMAL":5,"TEXCOORD_0":6},"indices":7,"material":1,"mode":4}]},{"name":"polygon4_1","primitives":[{"attributes":{"POSITION":8,"NORMAL":9,"TEXCOORD_0":10},"indices":11,"material":2,"mode":4}]},{"name":"polygon5_1","primitives":[{"attributes":{"POSITION":12,"NORMAL":13,"TEXCOORD_0":14},"indices":15,"material":1,"mode":4}]}],"nodes":[{"name":"polygon0","mesh":0},{"name":"polygon1","mesh":1},{"name":"polygon4","mesh":2},{"name":"polygon5","mesh":3}],"scene":0,"scenes":[{"nodes":[0,1,2,3]}]}