{"accessors":[{"name":"polygon0_1_0_positions","componentType":5126,"count":56,"min":[-0.45869898796081543,1.7876689434051514,-0.5332149863243103],"max":[0.5299370288848877,2.98528790473938,0.45828598737716675],"type":"VEC3","bufferView":0,"byteOffset":0},{"name":"polygon0_1_0_normals","componentType":5126,"count":56,"min":[-0.9864234328269958,-0.9901308417320251,-0.9979104399681091],"max":[0.9960227012634277,0.989764392375946,0.990446925163269],"type":"VEC3","bufferView":1,"byteOffset":0},{"name":"polygon0_1_0_texcoords","componentType":5126,"count":56,"min":[0.03903200104832649,0.05374100059270859],"max":[0.9675599932670593,0.9442139863967896],"type":"VEC2","bufferView":2,"byteOffset":0},{"name":"polygon0_1_0_indices","componentType":5123,"count":288,"min":[0],"max":[55],"type":"SCALAR","bufferView":3,"byteOffset":0},{"name":"polygon1_1_0_positions","componentType":5126,"count":52,"min":[-1.173704981803894,0.0007140000234358013,-1.1741390228271484],"max":[1.174070954322815,1.2694430351257324,1.1736359596252441],"type":"VEC3","bufferView":0,"byteOffset":672},{"name":"polygon1_1_0_normals","componentType":5126,"count":52,"min":[-0.9719588756561279,-1,-0.9719588756561279],"max":[0.9719588756561279,-0.23242498934268951,0.9719588756561279],"type":"VEC3","bufferView":1,"byteOffset":672},{"name":"polygon1_1_0_texcoords","componentType":5126,"count":52,"min":[0.07415799796581268,0.38510099053382874],"max":[0.9065250158309937,0.9534609913825989],"type":"VEC2","bufferView":2,"byteOffset":448},{"name":"polygon1_1_0_indices","componentType":5123,"count":240,"min":[0],"max":[51],"type":"SCALAR","bufferView":3,"byteOffset":576},{"name":"polygon2_1_0_positions","componentType":5126,"count":189,"min":[-1.3062000274658203,0.3489980101585388,-1.2308499813079834],"max":[1.3038489818572998,2.034806966781616,1.2411160469055176],"type":"VEC3","bufferView":0,"byteOffset":1296},{"name":"polygon2_1_0_normals","componentType":5126,"count":189,"min":[-0.9926473498344421,-0.9925369024276733,-0.9930518865585327],"max":[0.9931129813194275,0.9975471496582031,0.9808260798454285],"type":"VEC3","bufferView":1,"byteOffset":1296},{"name":"polygon2_1_0_texcoords","componentType":5126,"count":189,"min":[0.09280399978160858,0.03918499872088432],"max":[0.9062190055847168,0.9731450080871582],"type":"VEC2","bufferView":2,"byteOffset":864},{"name":"polygon2_1_0_indices","componentType":5123,"count":783,"min":[0],"max":[188],"type":"SCALAR","bufferView":3,"byteOffset":1056},{"name":"polygon3_1_0_positions","componentType":5126,"count":981,"min":[-4.5657148361206055,-0.004290999844670296,-11.484796524047852],"max":[4.565713882446289,11.000106811523438,1.763293981552124],"type":"VEC3","bufferView":0,"byteOffset":3564},{"name":"polygon3_1_0_normals","componentType":5126,"count":981,"min":[-0.9952718615531921,-1,-0.9995173215866089],"max":[0.9983242750167847,1,0.9997487664222717],"type":"VEC3","bufferView":1,"byteOffset":3564},{"name":"polygon3_1_0_texcoords","componentType":5126,"count":981,"min":[0.005981000140309334,0.007538000121712685],"max":[0.9950870275497437,0.9919130206108093],"type":"VEC2","bufferView":2,"byteOffset":2376},{"name":"polygon3_1_0_indices","componentType":5123,"count":4446,"min":[0],"max":[980],"type":"SCALAR","bufferView":3,"byteOffset":2624},{"name":"polygon4_1_0_positions","componentType":5126,"count":56,"min":[-1.1730749607086182,9.729033470153809,0.47588300704956055],"max":[1.1730749607086182,10.770183563232422,1.2872469425201416],"type":"VEC3","bufferView":0,"byteOffset":15336},{"name":"polygon4_1_0_normals","componentType":5126,"count":56,"min":[-0.9163387417793274,0.07794898003339767,0.21500208973884583],"max":[0.9163387417793274,0.7767961621284485,0.9678685069084167],"type":"VEC3","bufferView":1,"byteOffset":15336},{"name":"polygon4_1_0_texcoords","componentType":5126,"count":56,"min":[0.0095210000872612,-0.9764400124549866],"max":[0.4903559982776642,-0.7799069881439209],"type":"VEC2","bufferView":2,"byteOffset":10224},{"name":"polygon4_1_0_indices","componentType":5123,"count":258,"min":[0],"max":[55],"type":"SCALAR","bufferView":3,"byteOffset":11516}],"asset":{"generator":"obj2gltf","version":"2.0"},"buffers":[{"name":"P2_WatchogWP","byteLength":54720,"uri":"data:application/octet-stream;base64,"}],"bufferViews":[{"name":"bufferView_0","buffer":0,"byteLength":16008,"byteOffset":0,"byteStride":12,"target":34962},{"name":"bufferView_1","buffer":0,"byteLength":16008,"byteOffset":16008,"byteStride":12,"target":34962},{"name":"bufferView_2","buffer":0,"byteLength":10672,"byteOffset":32016,"byteStride":8,"target":34962},{"name":"bufferView_3","buffer":0,"byteLength":12032,"byteOffset":42688,"target":34963}],"materials":[{"name":"mat1","pbrMetallicRoughness":{"baseColorFactor":[0.5,0.5,0.5,1],"metallicFactor":0,"roughnessFactor":1},"emissiveFactor":[0,0,0],"alphaMode":"OPAQUE","doubleSided":false},{"name":"mat3","pbrMetallicRoughness":{"baseColorFactor":[0.5,0.5,0.5,1],"metallicFactor":0,"roughnessFactor":1},"emissiveFactor":[0,0,0],"alphaMode":"OPAQUE","doubleSided":false},{"name":"mat2","pbrMetallicRoughness":{"baseColorFactor":[0.5,0.5,0.5,1],"metallicFactor":0,"roughnessFactor":1},"emissiveFactor":[0,0,0],"alphaMode":"OPAQUE","doubleSided":false},{"name":"mat4","pbrMetallicRoughness":{"baseColorFactor":[0.5,0.5,0.5,1],"metallicFactor":0,"roughnessFactor":1},"emissiveFactor":[0,0,0],"alphaMode":"OPAQUE","doubleSided":false},{"name":"mat5","pbrMetallicRoughness":{"baseColorFactor":[0.5,0.5,0.5,1],"metallicFactor":0,"roughnessFactor":1},"emissiveFactor":[0,0,0],"alphaMode":"OPAQUE","doubleSided":false}],"meshes":[{"name":"polygon0_1","primitives":[{"attributes":{"POSITION":0,"NORMAL":1,"TEXCOORD_0":2},"indices":3,"material":0,"mode":4}]},{"name":"polygon1_1","primitives":[{"attributes":{"POSITION":4,"NORMAL":5,"TEXCOORD_0":6},"indices":7,"material":1,"mode":4}]},{"name":"polygon2_1","primitives":[{"attributes":{"POSITION":8,"NORMAL":9,"TEXCOORD_0":10},"indices":11,"material":2,"mode":4}]},{"name":"polygon3_1","primitives":[{"attributes":{"POSITION":12,"NORMAL":13,"TEXCOORD_0":14},"indices":15,"material":3,"mode":4}]},{"name":"polygon4_1","primitives":[{"attributes":{"POSITION":16,"NORMAL":17,"TEXCOORD_0":18},"indices":19,"material":4,"mode":4}]}],"nodes":[{"name":"polygon0","mesh":0},{"name":"polygon1","mesh":1},{"name":"polygon2","mesh":2},{"name":"polygon3","mesh":3},{"name":"polygon4","mesh":4}],"scene":0,"scenes":[{"nodes":[0,1,2,3,4]}]}