{"accessors":[{"name":"Lillipup_1_0_positions","componentType":5126,"count":14328,"min":[-15.531002044677734,-0.09685999900102615,-16.773000717163086],"max":[15.531001091003418,42.32670211791992,18.040000915527344],"type":"VEC3","bufferView":0,"byteOffset":0},{"name":"Lillipup_1_0_normals","componentType":5126,"count":14328,"min":[-0.999704897403717,-0.9996525049209595,-0.9998049139976501],"max":[0.9997048377990723,0.9992745518684387,0.9991689920425415],"type":"VEC3","bufferView":1,"byteOffset":0},{"name":"Lillipup_1_0_texcoords","componentType":5126,"count":14328,"min":[0,0.004838000051677227],"max":[1,0.9950670003890991],"type":"VEC2","bufferView":2,"byteOffset":0},{"name":"Lillipup_1_0_indices","componentType":5123,"count":14328,"min":[0],"max":[14327],"type":"SCALAR","bufferView":3,"byteOffset":0},{"name":"Lillipup_1_1_positions","componentType":5126,"count":402,"min":[-7.390110015869141,15.759700775146484,14.58580207824707],"max":[7.390110015869141,26.660701751708984,17.92650032043457],"type":"VEC3","bufferView":0,"byteOffset":171936},{"name":"Lillipup_1_1_normals","componentType":5126,"count":402,"min":[0.06674397736787796,-0.5641857385635376,-0.5587950348854065],"max":[0.9763227701187134,0.9959926009178162,0.9415485262870789],"type":"VEC3","bufferView":1,"byteOffset":171936},{"name":"Lillipup_1_1_texcoords","componentType":5126,"count":402,"min":[0.04748300090432167,-0.9939200282096863],"max":[0.4525200128555298,-0.7560799717903137],"type":"VEC2","bufferView":2,"byteOffset":114624},{"name":"Lillipup_1_1_indices","componentType":5123,"count":402,"min":[0],"max":[401],"type":"SCALAR","bufferView":3,"byteOffset":28656},{"name":"Lillipup_1_2_positions","componentType":5126,"count":330,"min":[-6.374820232391357,14.03330135345459,14.927599906921387],"max":[6.374820232391357,19.787418365478516,18.5516300201416],"type":"VEC3","bufferView":0,"byteOffset":176760},{"name":"Lillipup_1_2_normals","componentType":5126,"count":330,"min":[-0.2835519015789032,-0.27449801564216614,-0.5225252509117126],"max":[0.9764608144760132,0.9588346481323242,0.9415485262870789],"type":"VEC3","bufferView":1,"byteOffset":176760},{"name":"Lillipup_1_2_texcoords","componentType":5126,"count":330,"min":[0.009929000400006771,-1.9917999505996704],"max":[0.4900699853897095,-1.7582000494003296],"type":"VEC2","bufferView":2,"byteOffset":117840},{"name":"Lillipup_1_2_indices","componentType":5123,"count":330,"min":[0],"max":[329],"type":"SCALAR","bufferView":3,"byteOffset":29460}],"asset":{"generator":"obj2gltf","version":"2.0"},"buffers":[{"name":"XY_Lillipup","byteLength":645272,"uri":"data:application/octet-stream;base64,"}],"bufferViews":[{"name":"bufferView_0","buffer":0,"byteLength":180720,"byteOffset":0,"byteStride":12,"target":34962},{"name":"bufferView_1","buffer":0,"byteLength":180720,"byteOffset":180720,"byteStride":12,"target":34962},{"name":"bufferView_2","buffer":0,"byteLength":120480,"byteOffset":361440,"byteStride":8,"target":34962},{"name":"bufferView_3","buffer":0,"byteLength":30120,"byteOffset":481920,"target":34963},{"buffer":0,"byteOffset":512040,"byteLength":76056},{"buffer":0,"byteOffset":588096,"byteLength":32985},{"buffer":0,"byteOffset":621081,"byteLength":24188}],"images":[{"name":"pm0506_00_Body1","mimeType":"image/png","bufferView":4},{"name":"pm0506_00_Eye1","mimeType":"image/png","bufferView":5},{"name":"pm0506_00_Mouth1","mimeType":"image/png","bufferView":6}],"materials":[{"name":"Material__92","pbrMetallicRoughness":{"baseColorTexture":{"index":0},"baseColorFactor":[1,1,1,1],"metallicFactor":0,"roughnessFactor":0.998},"emissiveFactor":[0,0,0],"alphaMode":"OPAQUE","doubleSided":false},{"name":"Material__93","pbrMetallicRoughness":{"baseColorTexture":{"index":1},"baseColorFactor":[1,1,1,1],"metallicFactor":0,"roughnessFactor":0.998},"emissiveFactor":[0,0,0],"alphaMode":"OPAQUE","doubleSided":false},{"name":"Material__94","pbrMetallicRoughness":{"baseColorTexture":{"index":2},"baseColorFactor":[1,1,1,1],"metallicFactor":0,"roughnessFactor":0.998},"emissiveFactor":[0,0,0],"alphaMode":"OPAQUE","doubleSided":false}],"meshes":[{"name":"Lillipup_1","primitives":[{"attributes":{"POSITION":0,"NORMAL":1,"TEXCOORD_0":2},"indices":3,"material":0,"mode":4},{"attributes":{"POSITION":4,"NORMAL":5,"TEXCOORD_0":6},"indices":7,"material":1,"mode":4},{"attributes":{"POSITION":8,"NORMAL":9,"TEXCOORD_0":10},"indices":11,"material":2,"mode":4}]}],"nodes":[{"name":"Lillipup","mesh":0}],"samplers":[{"wrapS":10497,"wrapT":10497}],"scene":0,"scenes":[{"nodes":[0]}],"textures":[{"name":"pm0506_00_Body1","sampler":0,"source":0},{"name":"pm0506_00_Eye1","sampler":0,"source":1},{"name":"pm0506_00_Mouth1","sampler":0,"source":2}]}