{"accessors":[{"name":"Herdier_1_0_positions","componentType":5126,"count":15126,"min":[-22.081602096557617,0.09313599765300751,-44.442901611328125],"max":[22.081607818603516,91.35202026367188,44.73469543457031],"type":"VEC3","bufferView":0,"byteOffset":0},{"name":"Herdier_1_0_normals","componentType":5126,"count":15126,"min":[-0.9980339407920837,-0.9977387189865112,-0.9898940324783325],"max":[0.998033881187439,0.9776618480682373,0.9985001087188721],"type":"VEC3","bufferView":1,"byteOffset":0},{"name":"Herdier_1_0_texcoords","componentType":5126,"count":15126,"min":[0,0.005537000019103289],"max":[1,0.9950060248374939],"type":"VEC2","bufferView":2,"byteOffset":0},{"name":"Herdier_1_0_indices","componentType":5123,"count":15126,"min":[0],"max":[15125],"type":"SCALAR","bufferView":3,"byteOffset":0},{"name":"Herdier_1_1_positions","componentType":5126,"count":192,"min":[-10.663299560546875,51.75650405883789,33.51190185546875],"max":[10.663299560546875,63.70640563964844,38.07939910888672],"type":"VEC3","bufferView":0,"byteOffset":181512},{"name":"Herdier_1_1_normals","componentType":5126,"count":192,"min":[-0.9831833243370056,-0.527459979057312,-0.9389364719390869],"max":[0.8443269729614258,0.8835657238960266,0.9853423833847046],"type":"VEC3","bufferView":1,"byteOffset":181512},{"name":"Herdier_1_1_texcoords","componentType":5126,"count":192,"min":[0.03660200163722038,-0.993179976940155],"max":[0.4634000062942505,-0.7572500109672546],"type":"VEC2","bufferView":2,"byteOffset":121008},{"name":"Herdier_1_1_indices","componentType":5123,"count":192,"min":[0],"max":[191],"type":"SCALAR","bufferView":3,"byteOffset":30252},{"name":"Herdier_1_2_positions","componentType":5126,"count":192,"min":[-10.738900184631348,51.75080490112305,33.57959747314453],"max":[10.738900184631348,63.72350311279297,38.17110061645508],"type":"VEC3","bufferView":0,"byteOffset":183816},{"name":"Herdier_1_2_normals","componentType":5126,"count":192,"min":[-0.29627400636672974,-0.9715749025344849,-0.9891445636749268],"max":[0.9973560571670532,0.2634550929069519,0.9866513013839722],"type":"VEC3","bufferView":1,"byteOffset":183816},{"name":"Herdier_1_2_texcoords","componentType":5126,"count":192,"min":[0.14640000462532043,-1.9727200269699097],"max":[0.8818039894104004,-1.0290000438690186],"type":"VEC2","bufferView":2,"byteOffset":122544},{"name":"Herdier_1_2_indices","componentType":5123,"count":192,"min":[0],"max":[191],"type":"SCALAR","bufferView":3,"byteOffset":30636}],"asset":{"generator":"obj2gltf","version":"2.0"},"buffers":[{"name":"XY_Herdier","byteLength":644692,"uri":"data:application/octet-stream;base64,"}],"bufferViews":[{"name":"bufferView_0","buffer":0,"byteLength":186120,"byteOffset":0,"byteStride":12,"target":34962},{"name":"bufferView_1","buffer":0,"byteLength":186120,"byteOffset":186120,"byteStride":12,"target":34962},{"name":"bufferView_2","buffer":0,"byteLength":124080,"byteOffset":372240,"byteStride":8,"target":34962},{"name":"bufferView_3","buffer":0,"byteLength":31020,"byteOffset":496320,"target":34963},{"buffer":0,"byteOffset":527340,"byteLength":80281},{"buffer":0,"byteOffset":607621,"byteLength":34983},{"buffer":0,"byteOffset":642604,"byteLength":2087}],"images":[{"name":"pm0507_00_Body1","mimeType":"image/png","bufferView":4},{"name":"pm0507_00_Eye1","mimeType":"image/png","bufferView":5},{"name":"pm0507_00_Iris1","mimeType":"image/png","bufferView":6}],"materials":[{"name":"Material__118","pbrMetallicRoughness":{"baseColorTexture":{"index":0},"baseColorFactor":[1,1,1,1],"metallicFactor":0,"roughnessFactor":0.998},"emissiveFactor":[0,0,0],"alphaMode":"OPAQUE","doubleSided":false},{"name":"Material__119","pbrMetallicRoughness":{"baseColorTexture":{"index":1},"baseColorFactor":[1,1,1,1],"metallicFactor":0,"roughnessFactor":0.998},"emissiveFactor":[0,0,0],"alphaMode":"OPAQUE","doubleSided":false},{"name":"Material__120","pbrMetallicRoughness":{"baseColorTexture":{"index":2},"baseColorFactor":[1,1,1,1],"metallicFactor":0,"roughnessFactor":0.998},"emissiveFactor":[0,0,0],"alphaMode":"OPAQUE","doubleSided":false}],"meshes":[{"name":"Herdier_1","primitives":[{"attributes":{"POSITION":0,"NORMAL":1,"TEXCOORD_0":2},"indices":3,"material":0,"mode":4},{"attributes":{"POSITION":4,"NORMAL":5,"TEXCOORD_0":6},"indices":7,"material":1,"mode":4},{"attributes":{"POSITION":8,"NORMAL":9,"TEXCOORD_0":10},"indices":11,"material":2,"mode":4}]}],"nodes":[{"name":"Herdier","mesh":0}],"samplers":[{"wrapS":10497,"wrapT":10497}],"scene":0,"scenes":[{"nodes":[0]}],"textures":[{"name":"pm0507_00_Body1","sampler":0,"source":0},{"name":"pm0507_00_Eye1","sampler":0,"source":1},{"name":"pm0507_00_Iris1","sampler":0,"source":2}]}