{"accessors":[{"name":"Stoutland_1_0_positions","componentType":5126,"count":15132,"min":[-42.99449920654297,-0.003969000186771154,-79.80048370361328],"max":[42.9944953918457,120.125,66.51270294189453],"type":"VEC3","bufferView":0,"byteOffset":0},{"name":"Stoutland_1_0_normals","componentType":5126,"count":15132,"min":[-0.9996620416641235,-0.9999639391899109,-0.9998981356620789],"max":[0.9996620416641235,0.9999491572380066,0.8511637449264526],"type":"VEC3","bufferView":1,"byteOffset":0},{"name":"Stoutland_1_0_texcoords","componentType":5126,"count":15132,"min":[0.009139000438153744,0.008011999540030956],"max":[0.9908609986305237,0.9904620051383972],"type":"VEC2","bufferView":2,"byteOffset":0},{"name":"Stoutland_1_0_indices","componentType":5123,"count":15132,"min":[0],"max":[15131],"type":"SCALAR","bufferView":3,"byteOffset":0},{"name":"Stoutland_1_1_positions","componentType":5126,"count":282,"min":[-13.071200370788574,79.09230041503906,55.6547966003418],"max":[13.071200370788574,90.59529876708984,64.02558135986328],"type":"VEC3","bufferView":0,"byteOffset":181584},{"name":"Stoutland_1_1_normals","componentType":5126,"count":282,"min":[-0.4014001190662384,-0.9763657450675964,-0.9878663420677185],"max":[0.9939610958099365,0.9999491572380066,0.4582180082798004],"type":"VEC3","bufferView":1,"byteOffset":181584},{"name":"Stoutland_1_1_texcoords","componentType":5126,"count":282,"min":[0.009259000420570374,-1.9668899774551392],"max":[0.49074000120162964,-1.7936899662017822],"type":"VEC2","bufferView":2,"byteOffset":121056},{"name":"Stoutland_1_1_indices","componentType":5123,"count":282,"min":[0],"max":[281],"type":"SCALAR","bufferView":3,"byteOffset":30264},{"name":"Stoutland_1_2_positions","componentType":5126,"count":7314,"min":[-59.313106536865234,38.247982025146484,-71.60314178466797],"max":[59.3131217956543,119.63500213623047,71.1033935546875],"type":"VEC3","bufferView":0,"byteOffset":184968},{"name":"Stoutland_1_2_normals","componentType":5126,"count":7314,"min":[-0.9907041788101196,-0.9657140970230103,-0.9992817640304565],"max":[0.9975286722183228,0.9994945526123047,0.9996582865715027],"type":"VEC3","bufferView":1,"byteOffset":184968},{"name":"Stoutland_1_2_texcoords","componentType":5126,"count":7314,"min":[0.010518999770283699,-0.9899500012397766],"max":[0.9894809722900391,-0.010579999536275864],"type":"VEC2","bufferView":2,"byteOffset":123312},{"name":"Stoutland_1_2_indices","componentType":5123,"count":7314,"min":[0],"max":[7313],"type":"SCALAR","bufferView":3,"byteOffset":30828}],"asset":{"generator":"obj2gltf","version":"2.0"},"buffers":[{"name":"XY_Stoutland","byteLength":924080,"uri":"data:application/octet-stream;base64,"}],"bufferViews":[{"name":"bufferView_0","buffer":0,"byteLength":272736,"byteOffset":0,"byteStride":12,"target":34962},{"name":"bufferView_1","buffer":0,"byteLength":272736,"byteOffset":272736,"byteStride":12,"target":34962},{"name":"bufferView_2","buffer":0,"byteLength":181824,"byteOffset":545472,"byteStride":8,"target":34962},{"name":"bufferView_3","buffer":0,"byteLength":45456,"byteOffset":727296,"target":34963},{"buffer":0,"byteOffset":772752,"byteLength":85875},{"buffer":0,"byteOffset":858627,"byteLength":30759},{"buffer":0,"byteOffset":889386,"byteLength":34694}],"images":[{"name":"pm0508_00_BodyA1","mimeType":"image/png","bufferView":4},{"name":"pm0508_00_Eye1","mimeType":"image/png","bufferView":5},{"name":"pm0508_00_BodyB1","mimeType":"image/png","bufferView":6}],"materials":[{"name":"Material__35","pbrMetallicRoughness":{"baseColorTexture":{"index":0},"baseColorFactor":[1,1,1,1],"metallicFactor":0,"roughnessFactor":0.998},"emissiveFactor":[0,0,0],"alphaMode":"OPAQUE","doubleSided":false},{"name":"Material__36","pbrMetallicRoughness":{"baseColorTexture":{"index":1},"baseColorFactor":[1,1,1,1],"metallicFactor":0,"roughnessFactor":0.998},"emissiveFactor":[0,0,0],"alphaMode":"OPAQUE","doubleSided":false},{"name":"Material__37","pbrMetallicRoughness":{"baseColorTexture":{"index":2},"baseColorFactor":[1,1,1,1],"metallicFactor":0,"roughnessFactor":0.998},"emissiveFactor":[0,0,0],"alphaMode":"OPAQUE","doubleSided":false}],"meshes":[{"name":"Stoutland_1","primitives":[{"attributes":{"POSITION":0,"NORMAL":1,"TEXCOORD_0":2},"indices":3,"material":0,"mode":4},{"attributes":{"POSITION":4,"NORMAL":5,"TEXCOORD_0":6},"indices":7,"material":1,"mode":4},{"attributes":{"POSITION":8,"NORMAL":9,"TEXCOORD_0":10},"indices":11,"material":2,"mode":4}]}],"nodes":[{"name":"Stoutland","mesh":0}],"samplers":[{"wrapS":10497,"wrapT":10497}],"scene":0,"scenes":[{"nodes":[0]}],"textures":[{"name":"pm0508_00_BodyA1","sampler":0,"source":0},{"name":"pm0508_00_Eye1","sampler":0,"source":1},{"name":"pm0508_00_BodyB1","sampler":0,"source":2}]}