{"accessors":[{"name":"polygon0_1_0_positions","componentType":5126,"count":936,"min":[-2.8891589641571045,-0.0006079999729990959,-4.52630090713501],"max":[2.8891589641571045,6.0386528968811035,1.2564690113067627],"type":"VEC3","bufferView":0,"byteOffset":0},{"name":"polygon0_1_0_normals","componentType":5126,"count":936,"min":[-0.9999997615814209,-0.9999999403953552,-0.9992613792419434],"max":[0.9999997615814209,0.999993085861206,0.9996944665908813],"type":"VEC3","bufferView":1,"byteOffset":0},{"name":"polygon0_1_0_texcoords","componentType":5126,"count":936,"min":[0.014526000246405602,0.00897200033068657],"max":[0.9922490119934082,0.9934999942779541],"type":"VEC2","bufferView":2,"byteOffset":0},{"name":"polygon0_1_0_indices","componentType":5123,"count":3768,"min":[0],"max":[935],"type":"SCALAR","bufferView":3,"byteOffset":0},{"name":"polygon1_1_0_positions","componentType":5126,"count":24,"min":[-0.8898540139198303,2.802457094192505,0.8292059898376465],"max":[0.8898540139198303,3.8338749408721924,1.224297046661377],"type":"VEC3","bufferView":0,"byteOffset":11232},{"name":"polygon1_1_0_normals","componentType":5126,"count":24,"min":[-0.6646652817726135,-0.2616588771343231,0.5950299501419067],"max":[0.6646652817726135,0.5839219689369202,0.9780165553092957],"type":"VEC3","bufferView":1,"byteOffset":11232},{"name":"polygon1_1_0_texcoords","componentType":5126,"count":24,"min":[1.0831910371780396,0.00973500031977892],"max":[1.40460205078125,0.24365200102329254],"type":"VEC2","bufferView":2,"byteOffset":7488},{"name":"polygon1_1_0_indices","componentType":5123,"count":72,"min":[0],"max":[23],"type":"SCALAR","bufferView":3,"byteOffset":7536},{"name":"polygon2_1_0_positions","componentType":5126,"count":25,"min":[-0.588208019733429,2.2695600986480713,0.5760480165481567],"max":[0.5882070064544678,2.814965009689331,1.1993069648742676],"type":"VEC3","bufferView":0,"byteOffset":11520},{"name":"polygon2_1_0_normals","componentType":5126,"count":25,"min":[-0.37043482065200806,-0.9359152913093567,0.2865661084651947],"max":[0.37043482065200806,-0.25525787472724915,0.9622870683670044],"type":"VEC3","bufferView":1,"byteOffset":11520},{"name":"polygon2_1_0_texcoords","componentType":5126,"count":25,"min":[0.03411899879574776,-0.9885860085487366],"max":[0.5767210125923157,-0.7796019911766052],"type":"VEC2","bufferView":2,"byteOffset":7680},{"name":"polygon2_1_0_indices","componentType":5123,"count":96,"min":[0],"max":[24],"type":"SCALAR","bufferView":3,"byteOffset":7680}],"asset":{"generator":"obj2gltf","version":"2.0"},"buffers":[{"name":"P2_PansageFR","byteLength":39392,"uri":"data:application/octet-stream;base64,"}],"bufferViews":[{"name":"bufferView_0","buffer":0,"byteLength":11820,"byteOffset":0,"byteStride":12,"target":34962},{"name":"bufferView_1","buffer":0,"byteLength":11820,"byteOffset":11820,"byteStride":12,"target":34962},{"name":"bufferView_2","buffer":0,"byteLength":7880,"byteOffset":23640,"byteStride":8,"target":34962},{"name":"bufferView_3","buffer":0,"byteLength":7872,"byteOffset":31520,"target":34963}],"materials":[{"name":"mat1","pbrMetallicRoughness":{"baseColorFactor":[0.5,0.5,0.5,1],"metallicFactor":0,"roughnessFactor":1},"emissiveFactor":[0,0,0],"alphaMode":"OPAQUE","doubleSided":false},{"name":"mat2","pbrMetallicRoughness":{"baseColorFactor":[0.5,0.5,0.5,1],"metallicFactor":0,"roughnessFactor":1},"emissiveFactor":[0,0,0],"alphaMode":"OPAQUE","doubleSided":false},{"name":"mat3","pbrMetallicRoughness":{"baseColorFactor":[0.5,0.5,0.5,1],"metallicFactor":0,"roughnessFactor":1},"emissiveFactor":[0,0,0],"alphaMode":"OPAQUE","doubleSided":false}],"meshes":[{"name":"polygon0_1","primitives":[{"attributes":{"POSITION":0,"NORMAL":1,"TEXCOORD_0":2},"indices":3,"material":0,"mode":4}]},{"name":"polygon1_1","primitives":[{"attributes":{"POSITION":4,"NORMAL":5,"TEXCOORD_0":6},"indices":7,"material":1,"mode":4}]},{"name":"polygon2_1","primitives":[{"attributes":{"POSITION":8,"NORMAL":9,"TEXCOORD_0":10},"indices":11,"material":2,"mode":4}]}],"nodes":[{"name":"polygon0","mesh":0},{"name":"polygon1","mesh":1},{"name":"polygon2","mesh":2}],"scene":0,"scenes":[{"nodes":[0,1,2]}]}