{"accessors":[{"name":"polygon0_1_0_positions","componentType":5126,"count":24,"min":[-0.8898540139198303,2.802457094192505,0.8292059898376465],"max":[0.8898540139198303,3.833875894546509,1.224297046661377],"type":"VEC3","bufferView":0,"byteOffset":0},{"name":"polygon0_1_0_normals","componentType":5126,"count":24,"min":[-0.6378861665725708,-0.250858873128891,0.6145027875900269],"max":[0.6378861665725708,0.49413996934890747,0.9781244397163391],"type":"VEC3","bufferView":1,"byteOffset":0},{"name":"polygon0_1_0_texcoords","componentType":5126,"count":24,"min":[0.0976559966802597,0.023437000811100006],"max":[0.3984380066394806,0.2382809966802597],"type":"VEC2","bufferView":2,"byteOffset":0},{"name":"polygon0_1_0_indices","componentType":5123,"count":72,"min":[0],"max":[23],"type":"SCALAR","bufferView":3,"byteOffset":0},{"name":"polygon1_1_0_positions","componentType":5126,"count":935,"min":[-2.8891589641571045,-0.0006079999729990959,-5.089710235595703],"max":[2.8891589641571045,6.036006927490234,1.4443639516830444],"type":"VEC3","bufferView":0,"byteOffset":288},{"name":"polygon1_1_0_normals","componentType":5126,"count":935,"min":[-0.9999986886978149,-0.9999999403953552,-1],"max":[1,0.999993085861206,0.9995540380477905],"type":"VEC3","bufferView":1,"byteOffset":288},{"name":"polygon1_1_0_texcoords","componentType":5126,"count":935,"min":[0.014526000246405602,0.006347999908030033],"max":[0.9942629933357239,0.9934999942779541],"type":"VEC2","bufferView":2,"byteOffset":192},{"name":"polygon1_1_0_indices","componentType":5123,"count":3834,"min":[0],"max":[934],"type":"SCALAR","bufferView":3,"byteOffset":144},{"name":"polygon2_1_0_positions","componentType":5126,"count":25,"min":[-0.588208019733429,2.2695600986480713,0.5760480165481567],"max":[0.5882070064544678,2.814965009689331,1.1993069648742676],"type":"VEC3","bufferView":0,"byteOffset":11508},{"name":"polygon2_1_0_normals","componentType":5126,"count":25,"min":[-0.3750667870044708,-0.9359152913093567,0.2865661084651947],"max":[0.3750667870044708,-0.23400704562664032,0.9622870683670044],"type":"VEC3","bufferView":1,"byteOffset":11508},{"name":"polygon2_1_0_texcoords","componentType":5126,"count":25,"min":[0.03411899879574776,-0.9885860085487366],"max":[0.5767210125923157,-0.7796019911766052],"type":"VEC2","bufferView":2,"byteOffset":7672},{"name":"polygon2_1_0_indices","componentType":5123,"count":96,"min":[0],"max":[24],"type":"SCALAR","bufferView":3,"byteOffset":7812}],"asset":{"generator":"obj2gltf","version":"2.0"},"buffers":[{"name":"P2_Pansear","byteLength":39492,"uri":"data:application/octet-stream;base64,"}],"bufferViews":[{"name":"bufferView_0","buffer":0,"byteLength":11808,"byteOffset":0,"byteStride":12,"target":34962},{"name":"bufferView_1","buffer":0,"byteLength":11808,"byteOffset":11808,"byteStride":12,"target":34962},{"name":"bufferView_2","buffer":0,"byteLength":7872,"byteOffset":23616,"byteStride":8,"target":34962},{"name":"bufferView_3","buffer":0,"byteLength":8004,"byteOffset":31488,"target":34963}],"materials":[{"name":"mat2","pbrMetallicRoughness":{"baseColorFactor":[0.5,0.5,0.5,1],"metallicFactor":0,"roughnessFactor":1},"emissiveFactor":[0,0,0],"alphaMode":"OPAQUE","doubleSided":false},{"name":"mat1","pbrMetallicRoughness":{"baseColorFactor":[0.5,0.5,0.5,1],"metallicFactor":0,"roughnessFactor":1},"emissiveFactor":[0,0,0],"alphaMode":"OPAQUE","doubleSided":false},{"name":"mat3","pbrMetallicRoughness":{"baseColorFactor":[0.5,0.5,0.5,1],"metallicFactor":0,"roughnessFactor":1},"emissiveFactor":[0,0,0],"alphaMode":"OPAQUE","doubleSided":false}],"meshes":[{"name":"polygon0_1","primitives":[{"attributes":{"POSITION":0,"NORMAL":1,"TEXCOORD_0":2},"indices":3,"material":0,"mode":4}]},{"name":"polygon1_1","primitives":[{"attributes":{"POSITION":4,"NORMAL":5,"TEXCOORD_0":6},"indices":7,"material":1,"mode":4}]},{"name":"polygon2_1","primitives":[{"attributes":{"POSITION":8,"NORMAL":9,"TEXCOORD_0":10},"indices":11,"material":2,"mode":4}]}],"nodes":[{"name":"polygon0","mesh":0},{"name":"polygon1","mesh":1},{"name":"polygon2","mesh":2}],"scene":0,"scenes":[{"nodes":[0,1,2]}]}