{"accessors":[{"name":"polygon0_1_0_positions","componentType":5126,"count":25,"min":[-0.588208019733429,2.2695600986480713,0.48448100686073303],"max":[0.5882070064544678,2.814965009689331,1.1993069648742676],"type":"VEC3","bufferView":0,"byteOffset":0},{"name":"polygon0_1_0_normals","componentType":5126,"count":25,"min":[-0.37230384349823,-0.9378747940063477,0.2250290960073471],"max":[0.37230384349823,-0.23400704562664032,0.9622870683670044],"type":"VEC3","bufferView":1,"byteOffset":0},{"name":"polygon0_1_0_texcoords","componentType":5126,"count":25,"min":[0.03411899879574776,-0.9885860085487366],"max":[0.5767210125923157,-0.7796019911766052],"type":"VEC2","bufferView":2,"byteOffset":0},{"name":"polygon0_1_0_indices","componentType":5123,"count":96,"min":[0],"max":[24],"type":"SCALAR","bufferView":3,"byteOffset":0},{"name":"polygon1_1_0_positions","componentType":5126,"count":932,"min":[-2.889159917831421,-9.999999974752427e-7,-4.693204879760742],"max":[2.8891589641571045,5.594030857086182,1.3843560218811035],"type":"VEC3","bufferView":0,"byteOffset":300},{"name":"polygon1_1_0_normals","componentType":5126,"count":932,"min":[-1,-0.9999947547912598,-1],"max":[1,0.999993085861206,0.9991357922554016],"type":"VEC3","bufferView":1,"byteOffset":300},{"name":"polygon1_1_0_texcoords","componentType":5126,"count":932,"min":[0.014526000246405602,0.0031429999507963657],"max":[0.9955750107765198,0.9934999942779541],"type":"VEC2","bufferView":2,"byteOffset":200},{"name":"polygon1_1_0_indices","componentType":5123,"count":4002,"min":[0],"max":[931],"type":"SCALAR","bufferView":3,"byteOffset":192},{"name":"polygon2_1_0_positions","componentType":5126,"count":24,"min":[-0.8898550271987915,2.802457094192505,0.8292059898376465],"max":[0.8898540139198303,3.8338749408721924,1.224297046661377],"type":"VEC3","bufferView":0,"byteOffset":11484},{"name":"polygon2_1_0_normals","componentType":5126,"count":24,"min":[-0.6378861665725708,-0.24694406986236572,0.6034761071205139],"max":[0.6378861665725708,0.5623360872268677,0.9781244397163391],"type":"VEC3","bufferView":1,"byteOffset":11484},{"name":"polygon2_1_0_texcoords","componentType":5126,"count":24,"min":[0.0976559966802597,0.023437000811100006],"max":[0.3984380066394806,0.2382809966802597],"type":"VEC2","bufferView":2,"byteOffset":7656},{"name":"polygon2_1_0_indices","componentType":5123,"count":72,"min":[0],"max":[23],"type":"SCALAR","bufferView":3,"byteOffset":8196}],"asset":{"generator":"obj2gltf","version":"2.0"},"buffers":[{"name":"P2_Panpour","byteLength":39732,"uri":"data:application/octet-stream;base64,"}],"bufferViews":[{"name":"bufferView_0","buffer":0,"byteLength":11772,"byteOffset":0,"byteStride":12,"target":34962},{"name":"bufferView_1","buffer":0,"byteLength":11772,"byteOffset":11772,"byteStride":12,"target":34962},{"name":"bufferView_2","buffer":0,"byteLength":7848,"byteOffset":23544,"byteStride":8,"target":34962},{"name":"bufferView_3","buffer":0,"byteLength":8340,"byteOffset":31392,"target":34963}],"materials":[{"name":"mat3","pbrMetallicRoughness":{"baseColorFactor":[0.5,0.5,0.5,1],"metallicFactor":0,"roughnessFactor":1},"emissiveFactor":[0,0,0],"alphaMode":"OPAQUE","doubleSided":false},{"name":"mat1","pbrMetallicRoughness":{"baseColorFactor":[0.5,0.5,0.5,1],"metallicFactor":0,"roughnessFactor":1},"emissiveFactor":[0,0,0],"alphaMode":"OPAQUE","doubleSided":false},{"name":"mat2","pbrMetallicRoughness":{"baseColorFactor":[0.5,0.5,0.5,1],"metallicFactor":0,"roughnessFactor":1},"emissiveFactor":[0,0,0],"alphaMode":"OPAQUE","doubleSided":false}],"meshes":[{"name":"polygon0_1","primitives":[{"attributes":{"POSITION":0,"NORMAL":1,"TEXCOORD_0":2},"indices":3,"material":0,"mode":4}]},{"name":"polygon1_1","primitives":[{"attributes":{"POSITION":4,"NORMAL":5,"TEXCOORD_0":6},"indices":7,"material":1,"mode":4}]},{"name":"polygon2_1","primitives":[{"attributes":{"POSITION":8,"NORMAL":9,"TEXCOORD_0":10},"indices":11,"material":2,"mode":4}]}],"nodes":[{"name":"polygon0","mesh":0},{"name":"polygon1","mesh":1},{"name":"polygon2","mesh":2}],"scene":0,"scenes":[{"nodes":[0,1,2]}]}