{"accessors":[{"name":"polygon0_1_0_positions","componentType":5126,"count":22,"min":[-1.1023550033569336,11.960092544555664,6.14011812210083],"max":[1.1023550033569336,13.313176155090332,7.2807841300964355],"type":"VEC3","bufferView":0,"byteOffset":0},{"name":"polygon0_1_0_normals","componentType":5126,"count":22,"min":[-0.9683244228363037,-0.0688919648528099,0.24173609912395477],"max":[0.9683244228363037,0.29010507464408875,0.51410311460495],"type":"VEC3","bufferView":1,"byteOffset":0},{"name":"polygon0_1_0_texcoords","componentType":5126,"count":22,"min":[0.015625,0.011718999594449997],"max":[0.453125,0.25],"type":"VEC2","bufferView":2,"byteOffset":0},{"name":"polygon0_1_0_indices","componentType":5123,"count":60,"min":[0],"max":[21],"type":"SCALAR","bufferView":3,"byteOffset":0},{"name":"polygon1_1_0_positions","componentType":5126,"count":1091,"min":[-2.676723003387451,-0.015463000163435936,-13.478318214416504],"max":[2.676723003387451,17.938642501831055,8.545411109924316],"type":"VEC3","bufferView":0,"byteOffset":264},{"name":"polygon1_1_0_normals","componentType":5126,"count":1091,"min":[-0.9999932646751404,-1,-0.9995167255401611],"max":[0.9999727010726929,0.9998080730438232,0.9999805092811584],"type":"VEC3","bufferView":1,"byteOffset":264},{"name":"polygon1_1_0_texcoords","componentType":5126,"count":1091,"min":[0.004974000155925751,0.006591999903321266],"max":[0.9928889870643616,0.9908139705657959],"type":"VEC2","bufferView":2,"byteOffset":176},{"name":"polygon1_1_0_indices","componentType":5123,"count":5160,"min":[0],"max":[1090],"type":"SCALAR","bufferView":3,"byteOffset":120}],"asset":{"generator":"obj2gltf","version":"2.0"},"buffers":[{"name":"P2_Zebstrika","byteLength":46056,"uri":"data:application/octet-stream;base64,"}],"bufferViews":[{"name":"bufferView_0","buffer":0,"byteLength":13356,"byteOffset":0,"byteStride":12,"target":34962},{"name":"bufferView_1","buffer":0,"byteLength":13356,"byteOffset":13356,"byteStride":12,"target":34962},{"name":"bufferView_2","buffer":0,"byteLength":8904,"byteOffset":26712,"byteStride":8,"target":34962},{"name":"bufferView_3","buffer":0,"byteLength":10440,"byteOffset":35616,"target":34963}],"materials":[{"name":"mat2","pbrMetallicRoughness":{"baseColorFactor":[0.5,0.5,0.5,1],"metallicFactor":0,"roughnessFactor":1},"emissiveFactor":[0,0,0],"alphaMode":"OPAQUE","doubleSided":false},{"name":"mat1","pbrMetallicRoughness":{"baseColorFactor":[0.5,0.5,0.5,1],"metallicFactor":0,"roughnessFactor":1},"emissiveFactor":[0,0,0],"alphaMode":"OPAQUE","doubleSided":false}],"meshes":[{"name":"polygon0_1","primitives":[{"attributes":{"POSITION":0,"NORMAL":1,"TEXCOORD_0":2},"indices":3,"material":0,"mode":4}]},{"name":"polygon1_1","primitives":[{"attributes":{"POSITION":4,"NORMAL":5,"TEXCOORD_0":6},"indices":7,"material":1,"mode":4}]}],"nodes":[{"name":"polygon0","mesh":0},{"name":"polygon1","mesh":1}],"scene":0,"scenes":[{"nodes":[0,1]}]}