{"accessors":[{"name":"polygon0_1_0_positions","componentType":5126,"count":752,"min":[-1.8043019771575928,-0.004542999900877476,-1.0675139427185059],"max":[1.8043060302734375,3.033039093017578,1.9907879829406738],"type":"VEC3","bufferView":0,"byteOffset":0},{"name":"polygon0_1_0_normals","componentType":5126,"count":752,"min":[-0.9939181208610535,-0.9999690055847168,-0.9999082088470459],"max":[0.9939181208610535,0.9993089437484741,0.9970479607582092],"type":"VEC3","bufferView":1,"byteOffset":0},{"name":"polygon0_1_0_texcoords","componentType":5126,"count":752,"min":[0.00967399962246418,0.010131999850273132],"max":[0.9746400117874146,0.9883419871330261],"type":"VEC2","bufferView":2,"byteOffset":0},{"name":"polygon0_1_0_indices","componentType":5123,"count":3510,"min":[0],"max":[751],"type":"SCALAR","bufferView":3,"byteOffset":0},{"name":"polygon1_1_0_positions","componentType":5126,"count":288,"min":[-3.239326000213623,0.8408600091934204,-0.4007140100002289],"max":[3.2393290996551514,2.207468032836914,0.14858800172805786],"type":"VEC3","bufferView":0,"byteOffset":9024},{"name":"polygon1_1_0_normals","componentType":5126,"count":288,"min":[-0.5890321135520935,-0.990601658821106,-0.9858057498931885],"max":[0.5890333652496338,0.9905998706817627,0.9999260306358337],"type":"VEC3","bufferView":1,"byteOffset":9024},{"name":"polygon1_1_0_texcoords","componentType":5126,"count":288,"min":[0.29711899161338806,0.008574999868869781],"max":[0.9913330078125,0.9522709846496582],"type":"VEC2","bufferView":2,"byteOffset":6016},{"name":"polygon1_1_0_indices","componentType":5123,"count":894,"min":[0],"max":[287],"type":"SCALAR","bufferView":3,"byteOffset":7020},{"name":"polygon2_1_0_positions","componentType":5126,"count":211,"min":[-0.6903669834136963,2.4871339797973633,-0.7004259824752808],"max":[0.6903669834136963,3.8962221145629883,0.6959360241889954],"type":"VEC3","bufferView":0,"byteOffset":12480},{"name":"polygon2_1_0_normals","componentType":5126,"count":211,"min":[-0.9937872886657715,0.07330401241779327,-0.9870201945304871],"max":[0.9937872886657715,0.9461625814437866,0.9924831390380859],"type":"VEC3","bufferView":1,"byteOffset":12480},{"name":"polygon2_1_0_texcoords","componentType":5126,"count":211,"min":[0.3979189991950989,0.008574999868869781],"max":[0.9330750107765198,0.9476929903030396],"type":"VEC2","bufferView":2,"byteOffset":8320},{"name":"polygon2_1_0_indices","componentType":5123,"count":612,"min":[0],"max":[210],"type":"SCALAR","bufferView":3,"byteOffset":8808},{"name":"polygon3_1_0_positions","componentType":5126,"count":394,"min":[-0.9068920016288757,-0.39302998781204224,-1.0675139427185059],"max":[0.9068949818611145,2.5000600814819336,0.7962620258331299],"type":"VEC3","bufferView":0,"byteOffset":15012},{"name":"polygon3_1_0_normals","componentType":5126,"count":394,"min":[-0.9988428354263306,-0.9995954036712646,-0.9999423027038574],"max":[0.9988428354263306,0.9941368699073792,0.9999923706054688],"type":"VEC3","bufferView":1,"byteOffset":15012},{"name":"polygon3_1_0_texcoords","componentType":5126,"count":394,"min":[0.01278700027614832,0.18771399557590485],"max":[0.8147580027580261,0.9883419871330261],"type":"VEC2","bufferView":2,"byteOffset":10008},{"name":"polygon3_1_0_indices","componentType":5123,"count":1746,"min":[0],"max":[393],"type":"SCALAR","bufferView":3,"byteOffset":10032},{"name":"polygon5_1_0_positions","componentType":5126,"count":20,"min":[-0.5661579966545105,2.1711740493774414,0.1239980012178421],"max":[0.5661609768867493,2.6583030223846436,0.6140000224113464],"type":"VEC3","bufferView":0,"byteOffset":19740},{"name":"polygon5_1_0_normals","componentType":5126,"count":20,"min":[-0.9726099371910095,-0.08026000112295151,0.19561803340911865],"max":[0.9725289344787598,0.46871912479400635,0.3877401053905487],"type":"VEC3","bufferView":1,"byteOffset":19740},{"name":"polygon5_1_0_texcoords","componentType":5126,"count":20,"min":[0.023437999188899994,0.023437000811100006],"max":[0.4726560115814209,0.2382809966802597],"type":"VEC2","bufferView":2,"byteOffset":13160},{"name":"polygon5_1_0_indices","componentType":5123,"count":54,"min":[0],"max":[19],"type":"SCALAR","bufferView":3,"byteOffset":13524}],"asset":{"generator":"obj2gltf","version":"2.0"},"buffers":[{"name":"P2_DrilburFR","byteLength":66912,"uri":"data:application/octet-stream;base64,"}],"bufferViews":[{"name":"bufferView_0","buffer":0,"byteLength":19980,"byteOffset":0,"byteStride":12,"target":34962},{"name":"bufferView_1","buffer":0,"byteLength":19980,"byteOffset":19980,"byteStride":12,"target":34962},{"name":"bufferView_2","buffer":0,"byteLength":13320,"byteOffset":39960,"byteStride":8,"target":34962},{"name":"bufferView_3","buffer":0,"byteLength":13632,"byteOffset":53280,"target":34963}],"materials":[{"name":"mat1","pbrMetallicRoughness":{"baseColorFactor":[0.5,0.5,0.5,1],"metallicFactor":0,"roughnessFactor":1},"emissiveFactor":[0,0,0],"alphaMode":"OPAQUE","doubleSided":false},{"name":"mat2","pbrMetallicRoughness":{"baseColorFactor":[0.5,0.5,0.5,1],"metallicFactor":0,"roughnessFactor":1},"emissiveFactor":[0,0,0],"alphaMode":"OPAQUE","doubleSided":false},{"name":"mat3","pbrMetallicRoughness":{"baseColorFactor":[0.5,0.5,0.5,1],"metallicFactor":0,"roughnessFactor":1},"emissiveFactor":[0,0,0],"alphaMode":"OPAQUE","doubleSided":false}],"meshes":[{"name":"polygon0_1","primitives":[{"attributes":{"POSITION":0,"NORMAL":1,"TEXCOORD_0":2},"indices":3,"material":0,"mode":4}]},{"name":"polygon1_1","primitives":[{"attributes":{"POSITION":4,"NORMAL":5,"TEXCOORD_0":6},"indices":7,"material":1,"mode":4}]},{"name":"polygon2_1","primitives":[{"attributes":{"POSITION":8,"NORMAL":9,"TEXCOORD_0":10},"indices":11,"material":1,"mode":4}]},{"name":"polygon3_1","primitives":[{"attributes":{"POSITION":12,"NORMAL":13,"TEXCOORD_0":14},"indices":15,"material":0,"mode":4}]},{"name":"polygon5_1","primitives":[{"attributes":{"POSITION":16,"NORMAL":17,"TEXCOORD_0":18},"indices":19,"material":2,"mode":4}]}],"nodes":[{"name":"polygon0","mesh":0},{"name":"polygon1","mesh":1},{"name":"polygon2","mesh":2},{"name":"polygon3","mesh":3},{"name":"polygon5","mesh":4}],"scene":0,"scenes":[{"nodes":[0,1,2,3,4]}]}