{"accessors":[{"name":"polygon0_1_0_positions","componentType":5126,"count":204,"min":[-1.8250999450683594,0.08609099686145782,-2.1074440479278564],"max":[1.8250999450683594,9.012523651123047,1.7286640405654907],"type":"VEC3","bufferView":0,"byteOffset":0},{"name":"polygon0_1_0_normals","componentType":5126,"count":204,"min":[-0.9905408620834351,-0.9955725073814392,-0.9908198118209839],"max":[0.9905408620834351,0.5988860130310059,0.9454589486122131],"type":"VEC3","bufferView":1,"byteOffset":0},{"name":"polygon0_1_0_texcoords","componentType":5126,"count":204,"min":[0.4050599932670593,0.011017000302672386],"max":[0.9779660105705261,0.9762269854545593],"type":"VEC2","bufferView":2,"byteOffset":0},{"name":"polygon0_1_0_indices","componentType":5123,"count":342,"min":[0],"max":[203],"type":"SCALAR","bufferView":3,"byteOffset":0},{"name":"polygon1_1_0_positions","componentType":5126,"count":108,"min":[-1.7477960586547852,-0.026497000828385353,-1.7694799900054932],"max":[1.7477960586547852,4.250794887542725,1.7631030082702637],"type":"VEC3","bufferView":0,"byteOffset":2448},{"name":"polygon1_1_0_normals","componentType":5126,"count":108,"min":[-0.9966386556625366,-0.9975977540016174,-0.999291181564331],"max":[0.9966386556625366,0.818673849105835,0.9977355003356934],"type":"VEC3","bufferView":1,"byteOffset":2448},{"name":"polygon1_1_0_texcoords","componentType":5126,"count":108,"min":[0.007813000120222569,0.0078119998797774315],"max":[0.9921879768371582,0.984375],"type":"VEC2","bufferView":2,"byteOffset":1632},{"name":"polygon1_1_0_indices","componentType":5123,"count":432,"min":[0],"max":[107],"type":"SCALAR","bufferView":3,"byteOffset":684},{"name":"polygon2_1_0_positions","componentType":5126,"count":162,"min":[-1.6588289737701416,-0.7794920206069946,-1.7167589664459229],"max":[1.6588289737701416,6.5033769607543945,1.5729650259017944],"type":"VEC3","bufferView":0,"byteOffset":3744},{"name":"polygon2_1_0_normals","componentType":5126,"count":162,"min":[-0.997299313545227,-0.8609619736671448,-0.999291181564331],"max":[0.997299313545227,0.818673849105835,0.9975677728652954],"type":"VEC3","bufferView":1,"byteOffset":3744},{"name":"polygon2_1_0_texcoords","componentType":5126,"count":162,"min":[0.092009998857975,0.26416000723838806],"max":[0.7956240177154541,0.6094359755516052],"type":"VEC2","bufferView":2,"byteOffset":2496},{"name":"polygon2_1_0_indices","componentType":5123,"count":624,"min":[0],"max":[161],"type":"SCALAR","bufferView":3,"byteOffset":1548},{"name":"polygon3_1_0_positions","componentType":5126,"count":772,"min":[-3.508544921875,-0.000004999999873689376,-2.005048990249634],"max":[3.5085461139678955,6.3077287673950195,3.3378429412841797],"type":"VEC3","bufferView":0,"byteOffset":5688},{"name":"polygon3_1_0_normals","componentType":5126,"count":772,"min":[-0.9972883462905884,-0.9998980164527893,-0.9992790818214417],"max":[0.9972883462905884,0.997784435749054,0.9999974370002747],"type":"VEC3","bufferView":1,"byteOffset":5688},{"name":"polygon3_1_0_texcoords","componentType":5126,"count":772,"min":[0.011566000059247017,0.20758099853992462],"max":[0.9848939776420593,0.9895020127296448],"type":"VEC2","bufferView":2,"byteOffset":3792},{"name":"polygon3_1_0_indices","componentType":5123,"count":3210,"min":[0],"max":[771],"type":"SCALAR","bufferView":3,"byteOffset":2796},{"name":"polygon4_1_0_positions","componentType":5126,"count":16,"min":[-0.6457380056381226,5.019559860229492,1.9355089664459229],"max":[0.6457380056381226,5.403039932250977,2.420836925506592],"type":"VEC3","bufferView":0,"byteOffset":14952},{"name":"polygon4_1_0_normals","componentType":5126,"count":16,"min":[-0.9057307243347168,-0.2509600520133972,0.34447088837623596],"max":[0.9057307243347168,0.4874272048473358,0.5044989585876465],"type":"VEC3","bufferView":1,"byteOffset":14952},{"name":"polygon4_1_0_texcoords","componentType":5126,"count":16,"min":[0.027343999594449997,0.046875],"max":[0.4648439884185791,0.1914059966802597],"type":"VEC2","bufferView":2,"byteOffset":9968},{"name":"polygon4_1_0_indices","componentType":5123,"count":42,"min":[0],"max":[15],"type":"SCALAR","bufferView":3,"byteOffset":9216},{"name":"polygon5_1_0_positions","componentType":5126,"count":525,"min":[-5.822869777679443,0.5057629942893982,-2.184483051300049],"max":[5.822869777679443,7.029417991638184,4.176791191101074],"type":"VEC3","bufferView":0,"byteOffset":15144},{"name":"polygon5_1_0_normals","componentType":5126,"count":525,"min":[-0.9954847097396851,-0.9994449019432068,-0.9975080490112305],"max":[0.9954847097396851,0.9980303645133972,0.9998388290405273],"type":"VEC3","bufferView":1,"byteOffset":15144},{"name":"polygon5_1_0_texcoords","componentType":5126,"count":525,"min":[0.01278700027614832,0.010803000070154667],"max":[0.9789729714393616,0.9762269854545593],"type":"VEC2","bufferView":2,"byteOffset":10096},{"name":"polygon5_1_0_indices","componentType":5123,"count":1248,"min":[0],"max":[524],"type":"SCALAR","bufferView":3,"byteOffset":9300}],"asset":{"generator":"obj2gltf","version":"2.0"},"buffers":[{"name":"P2_Excadrill","byteLength":68980,"uri":"data:application/octet-stream;base64,"}],"bufferViews":[{"name":"bufferView_0","buffer":0,"byteLength":21444,"byteOffset":0,"byteStride":12,"target":34962},{"name":"bufferView_1","buffer":0,"byteLength":21444,"byteOffset":21444,"byteStride":12,"target":34962},{"name":"bufferView_2","buffer":0,"byteLength":14296,"byteOffset":42888,"byteStride":8,"target":34962},{"name":"bufferView_3","buffer":0,"byteLength":11796,"byteOffset":57184,"target":34963}],"materials":[{"name":"mat2","pbrMetallicRoughness":{"baseColorFactor":[0.5,0.5,0.5,1],"metallicFactor":0,"roughnessFactor":1},"emissiveFactor":[0,0,0],"alphaMode":"OPAQUE","doubleSided":false},{"name":"mat3","pbrMetallicRoughness":{"baseColorFactor":[0.5,0.5,0.5,1],"metallicFactor":0,"roughnessFactor":1},"emissiveFactor":[0,0,0],"alphaMode":"OPAQUE","doubleSided":false},{"name":"mat1","pbrMetallicRoughness":{"baseColorFactor":[0.5,0.5,0.5,1],"metallicFactor":0,"roughnessFactor":1},"emissiveFactor":[0,0,0],"alphaMode":"OPAQUE","doubleSided":false},{"name":"mat4","pbrMetallicRoughness":{"baseColorFactor":[0.5,0.5,0.5,1],"metallicFactor":0,"roughnessFactor":1},"emissiveFactor":[0,0,0],"alphaMode":"OPAQUE","doubleSided":false}],"meshes":[{"name":"polygon0_1","primitives":[{"attributes":{"POSITION":0,"NORMAL":1,"TEXCOORD_0":2},"indices":3,"material":0,"mode":4}]},{"name":"polygon1_1","primitives":[{"attributes":{"POSITION":4,"NORMAL":5,"TEXCOORD_0":6},"indices":7,"material":1,"mode":4}]},{"name":"polygon2_1","primitives":[{"attributes":{"POSITION":8,"NORMAL":9,"TEXCOORD_0":10},"indices":11,"material":2,"mode":4}]},{"name":"polygon3_1","primitives":[{"attributes":{"POSITION":12,"NORMAL":13,"TEXCOORD_0":14},"indices":15,"material":2,"mode":4}]},{"name":"polygon4_1","primitives":[{"attributes":{"POSITION":16,"NORMAL":17,"TEXCOORD_0":18},"indices":19,"material":3,"mode":4}]},{"name":"polygon5_1","primitives":[{"attributes":{"POSITION":20,"NORMAL":21,"TEXCOORD_0":22},"indices":23,"material":0,"mode":4}]}],"nodes":[{"name":"polygon0","mesh":0},{"name":"polygon1","mesh":1},{"name":"polygon2","mesh":2},{"name":"polygon3","mesh":3},{"name":"polygon4","mesh":4},{"name":"polygon5","mesh":5}],"scene":0,"scenes":[{"nodes":[0,1,2,3,4,5]}]}