{"accessors":[{"name":"polygon0_1_0_positions","componentType":5126,"count":784,"min":[-9.703198432922363,-0.0036879999097436666,-2.187005043029785],"max":[9.70319938659668,8.32652473449707,2.1861979961395264],"type":"VEC3","bufferView":0,"byteOffset":0},{"name":"polygon0_1_0_normals","componentType":5126,"count":784,"min":[-1,-0.9999998211860657,-0.9955610632896423],"max":[1,0.9992312788963318,0.9982926249504089],"type":"VEC3","bufferView":1,"byteOffset":0},{"name":"polygon0_1_0_texcoords","componentType":5126,"count":784,"min":[0.009917999617755413,0.01065099984407425],"max":[0.9945070147514343,0.9839479923248291],"type":"VEC2","bufferView":2,"byteOffset":0},{"name":"polygon0_1_0_indices","componentType":5123,"count":3666,"min":[0],"max":[783],"type":"SCALAR","bufferView":3,"byteOffset":0},{"name":"polygon2_1_0_positions","componentType":5126,"count":10,"min":[-1.3091609477996826,8.200751304626465,1.4457499980926514],"max":[1.3091599941253662,9.28026294708252,1.963489055633545],"type":"VEC3","bufferView":0,"byteOffset":9408},{"name":"polygon2_1_0_normals","componentType":5126,"count":10,"min":[-0.6755828857421875,-0.3539349436759949,0.6467748880386353],"max":[0.6755828857421875,0.03600900247693062,0.9998056888580322],"type":"VEC3","bufferView":1,"byteOffset":9408},{"name":"polygon2_1_0_texcoords","componentType":5126,"count":10,"min":[0.03582800179719925,-0.9827269911766052],"max":[0.46814000606536865,-0.7674559950828552],"type":"VEC2","bufferView":2,"byteOffset":6272},{"name":"polygon2_1_0_indices","componentType":5123,"count":24,"min":[0],"max":[9],"type":"SCALAR","bufferView":3,"byteOffset":7332},{"name":"polygon3_1_0_positions","componentType":5126,"count":13,"min":[-1.2130169868469238,7.379524230957031,0.8753849864006042],"max":[1.2130160331726074,8.32181453704834,1.9130610227584839],"type":"VEC3","bufferView":0,"byteOffset":9528},{"name":"polygon3_1_0_normals","componentType":5126,"count":13,"min":[-0.6755828857421875,-0.9477207660675049,0.21477800607681274],"max":[0.6755828857421875,-0.2677539587020874,0.9563642144203186],"type":"VEC3","bufferView":1,"byteOffset":9528},{"name":"polygon3_1_0_texcoords","componentType":5126,"count":13,"min":[0.07934600114822388,-0.9822390079498291],"max":[0.9285889863967896,-0.7694699764251709],"type":"VEC2","bufferView":2,"byteOffset":6352},{"name":"polygon3_1_0_indices","componentType":5123,"count":42,"min":[0],"max":[12],"type":"SCALAR","bufferView":3,"byteOffset":7380},{"name":"polygon4_1_0_positions","componentType":5126,"count":248,"min":[-2.533937931060791,7.336548805236816,-2.28669810295105],"max":[2.533937931060791,11.970136642456055,3.0047600269317627],"type":"VEC3","bufferView":0,"byteOffset":9684},{"name":"polygon4_1_0_normals","componentType":5126,"count":248,"min":[-0.9998637437820435,-0.9998044371604919,-0.9999828338623047],"max":[0.9998637437820435,0.9999645352363586,0.9998056888580322],"type":"VEC3","bufferView":1,"byteOffset":9684},{"name":"polygon4_1_0_texcoords","componentType":5126,"count":248,"min":[0.518218994140625,0.018187999725341797],"max":[0.9888920187950134,0.7743840217590332],"type":"VEC2","bufferView":2,"byteOffset":6456},{"name":"polygon4_1_0_indices","componentType":5123,"count":1434,"min":[0],"max":[247],"type":"SCALAR","bufferView":3,"byteOffset":7464},{"name":"polygon5_1_0_positions","componentType":5126,"count":76,"min":[-10.000000953674316,-1,-1.2720049619674683],"max":[9.999999046325684,1,1.2720049619674683],"type":"VEC3","bufferView":0,"byteOffset":12660},{"name":"polygon5_1_0_normals","componentType":5126,"count":76,"min":[-1,-1,-1],"max":[1,1,1],"type":"VEC3","bufferView":1,"byteOffset":12660},{"name":"polygon5_1_0_texcoords","componentType":5126,"count":76,"min":[0.019286999478936195,0.6553959846496582],"max":[0.9841610193252563,0.9881899952888489],"type":"VEC2","bufferView":2,"byteOffset":8440},{"name":"polygon5_1_0_indices","componentType":5123,"count":132,"min":[0],"max":[75],"type":"SCALAR","bufferView":3,"byteOffset":10332}],"asset":{"generator":"obj2gltf","version":"2.0"},"buffers":[{"name":"P2_Gurdurr","byteLength":46788,"uri":"data:application/octet-stream;base64,"}],"bufferViews":[{"name":"bufferView_0","buffer":0,"byteLength":13572,"byteOffset":0,"byteStride":12,"target":34962},{"name":"bufferView_1","buffer":0,"byteLength":13572,"byteOffset":13572,"byteStride":12,"target":34962},{"name":"bufferView_2","buffer":0,"byteLength":9048,"byteOffset":27144,"byteStride":8,"target":34962},{"name":"bufferView_3","buffer":0,"byteLength":10596,"byteOffset":36192,"target":34963}],"materials":[{"name":"mat1","pbrMetallicRoughness":{"baseColorFactor":[0.5,0.5,0.5,1],"metallicFactor":0,"roughnessFactor":1},"emissiveFactor":[0,0,0],"alphaMode":"OPAQUE","doubleSided":false},{"name":"mat2","pbrMetallicRoughness":{"baseColorFactor":[0.5,0.5,0.5,1],"metallicFactor":0,"roughnessFactor":1},"emissiveFactor":[0,0,0],"alphaMode":"OPAQUE","doubleSided":false},{"name":"mat3","pbrMetallicRoughness":{"baseColorFactor":[0.5,0.5,0.5,1],"metallicFactor":0,"roughnessFactor":1},"emissiveFactor":[0,0,0],"alphaMode":"OPAQUE","doubleSided":false},{"name":"mat4","pbrMetallicRoughness":{"baseColorFactor":[0.5,0.5,0.5,1],"metallicFactor":0,"roughnessFactor":1},"emissiveFactor":[0,0,0],"alphaMode":"OPAQUE","doubleSided":false}],"meshes":[{"name":"polygon0_1","primitives":[{"attributes":{"POSITION":0,"NORMAL":1,"TEXCOORD_0":2},"indices":3,"material":0,"mode":4}]},{"name":"polygon2_1","primitives":[{"attributes":{"POSITION":4,"NORMAL":5,"TEXCOORD_0":6},"indices":7,"material":1,"mode":4}]},{"name":"polygon3_1","primitives":[{"attributes":{"POSITION":8,"NORMAL":9,"TEXCOORD_0":10},"indices":11,"material":2,"mode":4}]},{"name":"polygon4_1","primitives":[{"attributes":{"POSITION":12,"NORMAL":13,"TEXCOORD_0":14},"indices":15,"material":0,"mode":4}]},{"name":"polygon5_1","primitives":[{"attributes":{"POSITION":16,"NORMAL":17,"TEXCOORD_0":18},"indices":19,"material":3,"mode":4}]}],"nodes":[{"name":"polygon0","mesh":0},{"name":"polygon2","mesh":1},{"name":"polygon3","mesh":2},{"name":"polygon4","mesh":3},{"name":"polygon5","mesh":4}],"scene":0,"scenes":[{"nodes":[0,1,2,3,4]}]}