{"accessors":[{"name":"polygon0_1_0_positions","componentType":5126,"count":16,"min":[-1.8887189626693726,6.8860602378845215,4.9402689933776855],"max":[1.8887159824371338,9.048240661621094,6.292726993560791],"type":"VEC3","bufferView":0,"byteOffset":0},{"name":"polygon0_1_0_normals","componentType":5126,"count":16,"min":[-0.9231644868850708,-0.9774076342582703,0.21136292815208435],"max":[0.9231644868850708,-0.13995106518268585,0.9901584386825562],"type":"VEC3","bufferView":1,"byteOffset":0},{"name":"polygon0_1_0_texcoords","componentType":5126,"count":16,"min":[-0.9627079963684082,0.011657999828457832],"max":[-0.05700699985027313,0.23083500564098358],"type":"VEC2","bufferView":2,"byteOffset":0},{"name":"polygon0_1_0_indices","componentType":5123,"count":54,"min":[0],"max":[15],"type":"SCALAR","bufferView":3,"byteOffset":0},{"name":"polygon1_1_0_positions","componentType":5126,"count":1037,"min":[-14.605175018310547,-9.999999974752427e-7,-2.5713789463043213],"max":[14.60517406463623,13.9133939743042,7.826107978820801],"type":"VEC3","bufferView":0,"byteOffset":192},{"name":"polygon1_1_0_normals","componentType":5126,"count":1037,"min":[-0.9999991655349731,-0.9999998807907104,-0.9997395873069763],"max":[0.9999991655349731,0.999818742275238,1],"type":"VEC3","bufferView":1,"byteOffset":192},{"name":"polygon1_1_0_texcoords","componentType":5126,"count":1037,"min":[0.008697999641299248,0.00824000034481287],"max":[0.9918209910392761,0.9908139705657959],"type":"VEC2","bufferView":2,"byteOffset":128},{"name":"polygon1_1_0_indices","componentType":5123,"count":4878,"min":[0],"max":[1036],"type":"SCALAR","bufferView":3,"byteOffset":108},{"name":"polygon2_1_0_positions","componentType":5126,"count":20,"min":[-1.8887189626693726,8.840298652648926,4.9402689933776855],"max":[1.8887159824371338,10.931286811828613,6.292726993560791],"type":"VEC3","bufferView":0,"byteOffset":12636},{"name":"polygon2_1_0_normals","componentType":5126,"count":20,"min":[-0.9231644868850708,-0.1667490452528,0.35266420245170593],"max":[0.9231644868850708,0.6314750909805298,0.997237503528595],"type":"VEC3","bufferView":1,"byteOffset":12636},{"name":"polygon2_1_0_texcoords","componentType":5126,"count":20,"min":[0.011718999594449997,0.0078119998797774315],"max":[0.4609380066394806,0.2382809966802597],"type":"VEC2","bufferView":2,"byteOffset":8424},{"name":"polygon2_1_0_indices","componentType":5123,"count":72,"min":[0],"max":[19],"type":"SCALAR","bufferView":3,"byteOffset":9864},{"name":"polygon3_1_0_positions","componentType":5126,"count":81,"min":[10.333694458007812,-4.9929938316345215,-2.1663060188293457],"max":[14.666305541992188,5.136043071746826,2.1663060188293457],"type":"VEC3","bufferView":0,"byteOffset":12876},{"name":"polygon3_1_0_normals","componentType":5126,"count":81,"min":[-1,-0.9968183040618896,-1],"max":[1,1,1],"type":"VEC3","bufferView":1,"byteOffset":12876},{"name":"polygon3_1_0_texcoords","componentType":5126,"count":81,"min":[0.026854999363422394,0.41986098885536194],"max":[0.9648439884185791,0.9836429953575134],"type":"VEC2","bufferView":2,"byteOffset":8584},{"name":"polygon3_1_0_indices","componentType":5123,"count":198,"min":[0],"max":[80],"type":"SCALAR","bufferView":3,"byteOffset":10008},{"name":"polygon4_1_0_positions","componentType":5126,"count":78,"min":[-14.667404174804688,-5.416200160980225,-2.167401075363159],"max":[-10.332595825195312,5.136044025421143,2.167401075363159],"type":"VEC3","bufferView":0,"byteOffset":13848},{"name":"polygon4_1_0_normals","componentType":5126,"count":78,"min":[-1,-0.9980272054672241,-1],"max":[1,1,1],"type":"VEC3","bufferView":1,"byteOffset":13848},{"name":"polygon4_1_0_texcoords","componentType":5126,"count":78,"min":[0.026854999363422394,0.02227799966931343],"max":[0.9479979872703552,0.9836429953575134],"type":"VEC2","bufferView":2,"byteOffset":9232},{"name":"polygon4_1_0_indices","componentType":5123,"count":198,"min":[0],"max":[77],"type":"SCALAR","bufferView":3,"byteOffset":10404}],"asset":{"generator":"obj2gltf","version":"2.0"},"buffers":[{"name":"P2_Conkeldurr","byteLength":50224,"uri":"data:application/octet-stream;base64,"}],"bufferViews":[{"name":"bufferView_0","buffer":0,"byteLength":14784,"byteOffset":0,"byteStride":12,"target":34962},{"name":"bufferView_1","buffer":0,"byteLength":14784,"byteOffset":14784,"byteStride":12,"target":34962},{"name":"bufferView_2","buffer":0,"byteLength":9856,"byteOffset":29568,"byteStride":8,"target":34962},{"name":"bufferView_3","buffer":0,"byteLength":10800,"byteOffset":39424,"target":34963}],"materials":[{"name":"mat4","pbrMetallicRoughness":{"baseColorFactor":[0.5,0.5,0.5,1],"metallicFactor":0,"roughnessFactor":1},"emissiveFactor":[0,0,0],"alphaMode":"OPAQUE","doubleSided":false},{"name":"mat1","pbrMetallicRoughness":{"baseColorFactor":[0.5,0.5,0.5,1],"metallicFactor":0,"roughnessFactor":1},"emissiveFactor":[0,0,0],"alphaMode":"OPAQUE","doubleSided":false},{"name":"mat3","pbrMetallicRoughness":{"baseColorFactor":[0.5,0.5,0.5,1],"metallicFactor":0,"roughnessFactor":1},"emissiveFactor":[0,0,0],"alphaMode":"OPAQUE","doubleSided":false},{"name":"mat2","pbrMetallicRoughness":{"baseColorFactor":[0.5,0.5,0.5,1],"metallicFactor":0,"roughnessFactor":1},"emissiveFactor":[0,0,0],"alphaMode":"OPAQUE","doubleSided":false}],"meshes":[{"name":"polygon0_1","primitives":[{"attributes":{"POSITION":0,"NORMAL":1,"TEXCOORD_0":2},"indices":3,"material":0,"mode":4}]},{"name":"polygon1_1","primitives":[{"attributes":{"POSITION":4,"NORMAL":5,"TEXCOORD_0":6},"indices":7,"material":1,"mode":4}]},{"name":"polygon2_1","primitives":[{"attributes":{"POSITION":8,"NORMAL":9,"TEXCOORD_0":10},"indices":11,"material":2,"mode":4}]},{"name":"polygon3_1","primitives":[{"attributes":{"POSITION":12,"NORMAL":13,"TEXCOORD_0":14},"indices":15,"material":3,"mode":4}]},{"name":"polygon4_1","primitives":[{"attributes":{"POSITION":16,"NORMAL":17,"TEXCOORD_0":18},"indices":19,"material":3,"mode":4}]}],"nodes":[{"name":"polygon0","mesh":0},{"name":"polygon1","mesh":1},{"name":"polygon2","mesh":2},{"name":"polygon3","mesh":3},{"name":"polygon4","mesh":4}],"scene":0,"scenes":[{"nodes":[0,1,2,3,4]}]}