{"accessors":[{"name":"polygon0_1_0_positions","componentType":5126,"count":16,"min":[-2.6354100704193115,11.349323272705078,5.682446002960205],"max":[2.635409116744995,12.73405647277832,6.943345069885254],"type":"VEC3","bufferView":0,"byteOffset":0},{"name":"polygon0_1_0_normals","componentType":5126,"count":16,"min":[-0.713013231754303,0.1023540124297142,0.6368411779403687],"max":[0.713013231754303,0.45648786425590515,0.9220671653747559],"type":"VEC3","bufferView":1,"byteOffset":0},{"name":"polygon0_1_0_texcoords","componentType":5126,"count":16,"min":[1.0196529626846313,0.004546999931335449],"max":[1.4835209846496582,0.2443850040435791],"type":"VEC2","bufferView":2,"byteOffset":0},{"name":"polygon0_1_0_indices","componentType":5123,"count":36,"min":[0],"max":[15],"type":"SCALAR","bufferView":3,"byteOffset":0},{"name":"polygon1_1_0_positions","componentType":5126,"count":1390,"min":[-11.262138366699219,-0.020496999844908714,-4.580598831176758],"max":[11.262138366699219,14.935614585876465,7.229824066162109],"type":"VEC3","bufferView":0,"byteOffset":192},{"name":"polygon1_1_0_normals","componentType":5126,"count":1390,"min":[-0.9993431568145752,-0.9978651404380798,-0.9977403283119202],"max":[0.999446451663971,0.9996650815010071,0.9990293979644775],"type":"VEC3","bufferView":1,"byteOffset":192},{"name":"polygon1_1_0_texcoords","componentType":5126,"count":1390,"min":[0.001800999976694584,0.0012209999840706587],"max":[0.9961850047111511,0.9982600212097168],"type":"VEC2","bufferView":2,"byteOffset":128},{"name":"polygon1_1_0_indices","componentType":5123,"count":5832,"min":[0],"max":[1389],"type":"SCALAR","bufferView":3,"byteOffset":72}],"asset":{"generator":"obj2gltf","version":"2.0"},"buffers":[{"name":"P2_Seismitoad","byteLength":56728,"uri":"data:application/octet-stream;base64,"}],"bufferViews":[{"name":"bufferView_0","buffer":0,"byteLength":16872,"byteOffset":0,"byteStride":12,"target":34962},{"name":"bufferView_1","buffer":0,"byteLength":16872,"byteOffset":16872,"byteStride":12,"target":34962},{"name":"bufferView_2","buffer":0,"byteLength":11248,"byteOffset":33744,"byteStride":8,"target":34962},{"name":"bufferView_3","buffer":0,"byteLength":11736,"byteOffset":44992,"target":34963}],"materials":[{"name":"mat2","pbrMetallicRoughness":{"baseColorFactor":[0.5,0.5,0.5,1],"metallicFactor":0,"roughnessFactor":1},"emissiveFactor":[0,0,0],"alphaMode":"OPAQUE","doubleSided":false},{"name":"mat1","pbrMetallicRoughness":{"baseColorFactor":[0.5,0.5,0.5,1],"metallicFactor":0,"roughnessFactor":1},"emissiveFactor":[0,0,0],"alphaMode":"OPAQUE","doubleSided":false}],"meshes":[{"name":"polygon0_1","primitives":[{"attributes":{"POSITION":0,"NORMAL":1,"TEXCOORD_0":2},"indices":3,"material":0,"mode":4}]},{"name":"polygon1_1","primitives":[{"attributes":{"POSITION":4,"NORMAL":5,"TEXCOORD_0":6},"indices":7,"material":1,"mode":4}]}],"nodes":[{"name":"polygon0","mesh":0},{"name":"polygon1","mesh":1}],"scene":0,"scenes":[{"nodes":[0,1]}]}