{"accessors":[{"name":"polygon0_1_0_positions","componentType":5126,"count":32,"min":[-1.699813961982727,9.578935623168945,3.085170030593872],"max":[1.699813961982727,11.201126098632812,4.076165199279785],"type":"VEC3","bufferView":0,"byteOffset":0},{"name":"polygon0_1_0_normals","componentType":5126,"count":32,"min":[-0.8413692712783813,-0.6455270648002625,0.3102370500564575],"max":[0.8413692712783813,0.30363985896110535,0.8956499099731445],"type":"VEC3","bufferView":1,"byteOffset":0},{"name":"polygon0_1_0_texcoords","componentType":5126,"count":32,"min":[0.011718999594449997,0.0039059999398887157],"max":[0.4960939884185791,0.2421869933605194],"type":"VEC2","bufferView":2,"byteOffset":0},{"name":"polygon0_1_0_indices","componentType":5123,"count":120,"min":[0],"max":[31],"type":"SCALAR","bufferView":3,"byteOffset":0},{"name":"polygon1_1_0_positions","componentType":5126,"count":1158,"min":[-14.329134941101074,0.03634300082921982,-3.8964309692382812],"max":[14.329137802124023,12.96767807006836,5.113500118255615],"type":"VEC3","bufferView":0,"byteOffset":384},{"name":"polygon1_1_0_normals","componentType":5126,"count":1158,"min":[-0.9996650815010071,-1,-0.9998347759246826],"max":[0.9996629953384399,0.9999366998672485,0.9996466636657715],"type":"VEC3","bufferView":1,"byteOffset":384},{"name":"polygon1_1_0_texcoords","componentType":5126,"count":1158,"min":[0.0050050001591444016,0.003722999943420291],"max":[0.9976500272750854,0.9938660264015198],"type":"VEC2","bufferView":2,"byteOffset":256},{"name":"polygon1_1_0_indices","componentType":5123,"count":4350,"min":[0],"max":[1157],"type":"SCALAR","bufferView":3,"byteOffset":240}],"asset":{"generator":"obj2gltf","version":"2.0"},"buffers":[{"name":"P2_Throh","byteLength":47020,"uri":"data:application/octet-stream;base64,"}],"bufferViews":[{"name":"bufferView_0","buffer":0,"byteLength":14280,"byteOffset":0,"byteStride":12,"target":34962},{"name":"bufferView_1","buffer":0,"byteLength":14280,"byteOffset":14280,"byteStride":12,"target":34962},{"name":"bufferView_2","buffer":0,"byteLength":9520,"byteOffset":28560,"byteStride":8,"target":34962},{"name":"bufferView_3","buffer":0,"byteLength":8940,"byteOffset":38080,"target":34963}],"materials":[{"name":"mat2","pbrMetallicRoughness":{"baseColorFactor":[0.5,0.5,0.5,1],"metallicFactor":0,"roughnessFactor":1},"emissiveFactor":[0,0,0],"alphaMode":"OPAQUE","doubleSided":false},{"name":"mat1","pbrMetallicRoughness":{"baseColorFactor":[0.5,0.5,0.5,1],"metallicFactor":0,"roughnessFactor":1},"emissiveFactor":[0,0,0],"alphaMode":"OPAQUE","doubleSided":false}],"meshes":[{"name":"polygon0_1","primitives":[{"attributes":{"POSITION":0,"NORMAL":1,"TEXCOORD_0":2},"indices":3,"material":0,"mode":4}]},{"name":"polygon1_1","primitives":[{"attributes":{"POSITION":4,"NORMAL":5,"TEXCOORD_0":6},"indices":7,"material":1,"mode":4}]}],"nodes":[{"name":"polygon0","mesh":0},{"name":"polygon1","mesh":1}],"scene":0,"scenes":[{"nodes":[0,1]}]}