{"accessors":[{"name":"polygon0_1_0_positions","componentType":5126,"count":979,"min":[-11.005491256713867,0.03233800083398819,-1.960198998451233],"max":[7.580953121185303,13.927482604980469,3.1374781131744385],"type":"VEC3","bufferView":0,"byteOffset":0},{"name":"polygon0_1_0_normals","componentType":5126,"count":979,"min":[-0.9992901682853699,-1,-0.999944269657135],"max":[1,0.9997226595878601,0.9996491074562073],"type":"VEC3","bufferView":1,"byteOffset":0},{"name":"polygon0_1_0_texcoords","componentType":5126,"count":979,"min":[0.003967000171542168,0.003478999948129058],"max":[0.9967349767684937,0.9970399737358093],"type":"VEC2","bufferView":2,"byteOffset":0},{"name":"polygon0_1_0_indices","componentType":5123,"count":3807,"min":[0],"max":[978],"type":"SCALAR","bufferView":3,"byteOffset":0},{"name":"polygon1_1_0_positions","componentType":5126,"count":50,"min":[-1.197816014289856,11.330877304077148,2.1406240463256836],"max":[1.197816014289856,12.181097984313965,3.000325918197632],"type":"VEC3","bufferView":0,"byteOffset":11748},{"name":"polygon1_1_0_normals","componentType":5126,"count":50,"min":[-0.9461448788642883,-0.6917831301689148,-0.7661877870559692],"max":[0.9461448788642883,0.10952004045248032,0.910086452960968],"type":"VEC3","bufferView":1,"byteOffset":11748},{"name":"polygon1_1_0_texcoords","componentType":5126,"count":50,"min":[0.005859000142663717,-0.9970089793205261],"max":[0.49414101243019104,-0.7528690099716187],"type":"VEC2","bufferView":2,"byteOffset":7832},{"name":"polygon1_1_0_indices","componentType":5123,"count":162,"min":[0],"max":[49],"type":"SCALAR","bufferView":3,"byteOffset":7616},{"name":"polygon2_1_0_positions","componentType":5126,"count":124,"min":[7.235116004943848,9.501290321350098,-1.0994700193405151],"max":[9.820854187011719,11.224198341369629,0.897475004196167],"type":"VEC3","bufferView":0,"byteOffset":12348},{"name":"polygon2_1_0_normals","componentType":5126,"count":124,"min":[-0.9974064230918884,-0.9811468720436096,-0.993848443031311],"max":[0.9423327445983887,0.9923295974731445,0.9790157675743103],"type":"VEC3","bufferView":1,"byteOffset":12348},{"name":"polygon2_1_0_texcoords","componentType":5126,"count":124,"min":[0.7826229929924011,0.6925050020217896],"max":[0.9967349767684937,0.9957280158996582],"type":"VEC2","bufferView":2,"byteOffset":8232},{"name":"polygon2_1_0_indices","componentType":5123,"count":510,"min":[0],"max":[123],"type":"SCALAR","bufferView":3,"byteOffset":7940}],"asset":{"generator":"obj2gltf","version":"2.0"},"buffers":[{"name":"P2_Sawk","byteLength":45856,"uri":"data:application/octet-stream;base64,"}],"bufferViews":[{"name":"bufferView_0","buffer":0,"byteLength":13836,"byteOffset":0,"byteStride":12,"target":34962},{"name":"bufferView_1","buffer":0,"byteLength":13836,"byteOffset":13836,"byteStride":12,"target":34962},{"name":"bufferView_2","buffer":0,"byteLength":9224,"byteOffset":27672,"byteStride":8,"target":34962},{"name":"bufferView_3","buffer":0,"byteLength":8960,"byteOffset":36896,"target":34963}],"materials":[{"name":"mat1","pbrMetallicRoughness":{"baseColorFactor":[0.5,0.5,0.5,1],"metallicFactor":0,"roughnessFactor":1},"emissiveFactor":[0,0,0],"alphaMode":"OPAQUE","doubleSided":false},{"name":"mat2","pbrMetallicRoughness":{"baseColorFactor":[0.5,0.5,0.5,1],"metallicFactor":0,"roughnessFactor":1},"emissiveFactor":[0,0,0],"alphaMode":"OPAQUE","doubleSided":false}],"meshes":[{"name":"polygon0_1","primitives":[{"attributes":{"POSITION":0,"NORMAL":1,"TEXCOORD_0":2},"indices":3,"material":0,"mode":4}]},{"name":"polygon1_1","primitives":[{"attributes":{"POSITION":4,"NORMAL":5,"TEXCOORD_0":6},"indices":7,"material":1,"mode":4}]},{"name":"polygon2_1","primitives":[{"attributes":{"POSITION":8,"NORMAL":9,"TEXCOORD_0":10},"indices":11,"material":0,"mode":4}]}],"nodes":[{"name":"polygon0","mesh":0},{"name":"polygon1","mesh":1},{"name":"polygon2","mesh":2}],"scene":0,"scenes":[{"nodes":[0,1,2]}]}