{"accessors":[{"name":"polygon0_1_0_positions","componentType":5126,"count":264,"min":[-3.6538870334625244,1.5936729907989502,-9.593790054321289],"max":[3.6538870334625244,17.630779266357422,9.615484237670898],"type":"VEC3","bufferView":0,"byteOffset":0},{"name":"polygon0_1_0_normals","componentType":5126,"count":264,"min":[-0.9997836351394653,-0.9999603033065796,-0.9949284791946411],"max":[0.9997836351394653,0.9340628981590271,0.9996541142463684],"type":"VEC3","bufferView":1,"byteOffset":0},{"name":"polygon0_1_0_texcoords","componentType":5126,"count":264,"min":[0.00973500031977892,0.1914370059967041],"max":[0.7490540146827698,0.9884340167045593],"type":"VEC2","bufferView":2,"byteOffset":0},{"name":"polygon0_1_0_indices","componentType":5123,"count":1176,"min":[0],"max":[263],"type":"SCALAR","bufferView":3,"byteOffset":0},{"name":"polygon1_1_0_positions","componentType":5126,"count":26,"min":[-1.8516709804534912,16.529109954833984,6.860464096069336],"max":[1.8516650199890137,17.903907775878906,8.511722564697266],"type":"VEC3","bufferView":0,"byteOffset":3168},{"name":"polygon1_1_0_normals","componentType":5126,"count":26,"min":[-0.9953868985176086,-0.4369751811027527,0.0140990000218153],"max":[0.9953868985176086,0.23491407930850983,0.5581183433532715],"type":"VEC3","bufferView":1,"byteOffset":3168},{"name":"polygon1_1_0_texcoords","componentType":5126,"count":26,"min":[0.019531000405550003,0.023437000811100006],"max":[0.4765630066394806,0.2226559966802597],"type":"VEC2","bufferView":2,"byteOffset":2112},{"name":"polygon1_1_0_indices","componentType":5123,"count":72,"min":[0],"max":[25],"type":"SCALAR","bufferView":3,"byteOffset":2352},{"name":"polygon2_1_0_positions","componentType":5126,"count":1352,"min":[-4.634545803070068,-0.0000019999999949504854,-15.517691612243652],"max":[4.63454008102417,24.55150604248047,13.976431846618652],"type":"VEC3","bufferView":0,"byteOffset":3480},{"name":"polygon2_1_0_normals","componentType":5126,"count":1352,"min":[-0.9998926520347595,-1,-0.9999995827674866],"max":[0.9998926520347595,0.9999048709869385,0.9996541142463684],"type":"VEC3","bufferView":1,"byteOffset":3480},{"name":"polygon2_1_0_texcoords","componentType":5126,"count":1352,"min":[0.008514000102877617,0.006897000130265951],"max":[0.9931949973106384,0.9880980253219604],"type":"VEC2","bufferView":2,"byteOffset":2320},{"name":"polygon2_1_0_indices","componentType":5123,"count":5010,"min":[0],"max":[1351],"type":"SCALAR","bufferView":3,"byteOffset":2496}],"asset":{"generator":"obj2gltf","version":"2.0"},"buffers":[{"name":"P2_Scolipede","byteLength":65060,"uri":"data:application/octet-stream;base64,"}],"bufferViews":[{"name":"bufferView_0","buffer":0,"byteLength":19704,"byteOffset":0,"byteStride":12,"target":34962},{"name":"bufferView_1","buffer":0,"byteLength":19704,"byteOffset":19704,"byteStride":12,"target":34962},{"name":"bufferView_2","buffer":0,"byteLength":13136,"byteOffset":39408,"byteStride":8,"target":34962},{"name":"bufferView_3","buffer":0,"byteLength":12516,"byteOffset":52544,"target":34963}],"materials":[{"name":"mat1","pbrMetallicRoughness":{"baseColorFactor":[0.5,0.5,0.5,1],"metallicFactor":0,"roughnessFactor":1},"emissiveFactor":[0,0,0],"alphaMode":"OPAQUE","doubleSided":false},{"name":"mat2","pbrMetallicRoughness":{"baseColorFactor":[0.5,0.5,0.5,1],"metallicFactor":0,"roughnessFactor":1},"emissiveFactor":[0,0,0],"alphaMode":"OPAQUE","doubleSided":false},{"name":"mat3","pbrMetallicRoughness":{"baseColorFactor":[0.5,0.5,0.5,1],"metallicFactor":0,"roughnessFactor":1},"emissiveFactor":[0,0,0],"alphaMode":"OPAQUE","doubleSided":false}],"meshes":[{"name":"polygon0_1","primitives":[{"attributes":{"POSITION":0,"NORMAL":1,"TEXCOORD_0":2},"indices":3,"material":0,"mode":4}]},{"name":"polygon1_1","primitives":[{"attributes":{"POSITION":4,"NORMAL":5,"TEXCOORD_0":6},"indices":7,"material":1,"mode":4}]},{"name":"polygon2_1","primitives":[{"attributes":{"POSITION":8,"NORMAL":9,"TEXCOORD_0":10},"indices":11,"material":2,"mode":4}]}],"nodes":[{"name":"polygon0","mesh":0},{"name":"polygon1","mesh":1},{"name":"polygon2","mesh":2}],"scene":0,"scenes":[{"nodes":[0,1,2]}]}