{"accessors":[{"name":"Lilligant_1_0_positions","componentType":5126,"count":10410,"min":[-21.447799682617188,11.774194717407227,-34.62919235229492],"max":[32.14390182495117,107.86900329589844,26.2760009765625],"type":"VEC3","bufferView":0,"byteOffset":0},{"name":"Lilligant_1_0_normals","componentType":5126,"count":10410,"min":[-0.9897779822349548,-0.9997203946113586,-0.9892232418060303],"max":[0.9823459386825562,0.9936691522598267,0.996175229549408],"type":"VEC3","bufferView":1,"byteOffset":0},{"name":"Lilligant_1_0_texcoords","componentType":5126,"count":10410,"min":[0.0078119998797774315,-0.9941200017929077],"max":[0.9968159794807434,-0.0052999998442828655],"type":"VEC2","bufferView":2,"byteOffset":0},{"name":"Lilligant_1_0_indices","componentType":5123,"count":10410,"min":[0],"max":[10409],"type":"SCALAR","bufferView":3,"byteOffset":0},{"name":"Lilligant_1_1_positions","componentType":5126,"count":7500,"min":[-38.85640335083008,-0.037064000964164734,-29.42659568786621],"max":[38.85639953613281,80.12779998779297,29.426603317260742],"type":"VEC3","bufferView":0,"byteOffset":124920},{"name":"Lilligant_1_1_normals","componentType":5126,"count":7500,"min":[-0.9844076633453369,-0.9997202754020691,-0.9848698973655701],"max":[0.9888718724250793,0.9997400045394897,0.9978123307228088],"type":"VEC3","bufferView":1,"byteOffset":124920},{"name":"Lilligant_1_1_texcoords","componentType":5126,"count":7500,"min":[0,0.006521000061184168],"max":[1,0.9951440095901489],"type":"VEC2","bufferView":2,"byteOffset":83280},{"name":"Lilligant_1_1_indices","componentType":5123,"count":7500,"min":[0],"max":[7499],"type":"SCALAR","bufferView":3,"byteOffset":20820},{"name":"Lilligant_1_2_positions","componentType":5126,"count":96,"min":[-8.97648811340332,61.852291107177734,7.502353191375732],"max":[8.976451873779297,71.50243377685547,12.033894538879395],"type":"VEC3","bufferView":0,"byteOffset":214920},{"name":"Lilligant_1_2_normals","componentType":5126,"count":96,"min":[-0.19075003266334534,-0.11404598504304886,-0.8348502516746521],"max":[0.9888718724250793,0.9558261036872864,0.8315055966377258],"type":"VEC3","bufferView":1,"byteOffset":214920},{"name":"Lilligant_1_2_texcoords","componentType":5126,"count":96,"min":[0.04199500009417534,-1.9936000108718872],"max":[0.4580000042915344,-1.7563999891281128],"type":"VEC2","bufferView":2,"byteOffset":143280},{"name":"Lilligant_1_2_indices","componentType":5123,"count":96,"min":[0],"max":[95],"type":"SCALAR","bufferView":3,"byteOffset":35820}],"asset":{"generator":"obj2gltf","version":"2.0"},"buffers":[{"name":"XY_Lilligant","byteLength":713276,"uri":"data:application/octet-stream;base64,"}],"bufferViews":[{"name":"bufferView_0","buffer":0,"byteLength":216072,"byteOffset":0,"byteStride":12,"target":34962},{"name":"bufferView_1","buffer":0,"byteLength":216072,"byteOffset":216072,"byteStride":12,"target":34962},{"name":"bufferView_2","buffer":0,"byteLength":144048,"byteOffset":432144,"byteStride":8,"target":34962},{"name":"bufferView_3","buffer":0,"byteLength":36012,"byteOffset":576192,"target":34963},{"buffer":0,"byteOffset":612204,"byteLength":23316},{"buffer":0,"byteOffset":635520,"byteLength":49858},{"buffer":0,"byteOffset":685378,"byteLength":27895}],"images":[{"name":"pm0549_00_BodyA1","mimeType":"image/png","bufferView":4},{"name":"pm0549_00_BodyB1","mimeType":"image/png","bufferView":5},{"name":"pm0549_00_Eye1","mimeType":"image/png","bufferView":6}],"materials":[{"name":"Material__74","pbrMetallicRoughness":{"baseColorTexture":{"index":0},"baseColorFactor":[1,1,1,1],"metallicFactor":0,"roughnessFactor":0.998},"emissiveFactor":[0,0,0],"alphaMode":"OPAQUE","doubleSided":false},{"name":"Material__75","pbrMetallicRoughness":{"baseColorTexture":{"index":1},"baseColorFactor":[1,1,1,1],"metallicFactor":0,"roughnessFactor":0.998},"emissiveFactor":[0,0,0],"alphaMode":"OPAQUE","doubleSided":false},{"name":"Material__76","pbrMetallicRoughness":{"baseColorTexture":{"index":2},"baseColorFactor":[1,1,1,1],"metallicFactor":0,"roughnessFactor":0.998},"emissiveFactor":[0,0,0],"alphaMode":"OPAQUE","doubleSided":false}],"meshes":[{"name":"Lilligant_1","primitives":[{"attributes":{"POSITION":0,"NORMAL":1,"TEXCOORD_0":2},"indices":3,"material":0,"mode":4},{"attributes":{"POSITION":4,"NORMAL":5,"TEXCOORD_0":6},"indices":7,"material":1,"mode":4},{"attributes":{"POSITION":8,"NORMAL":9,"TEXCOORD_0":10},"indices":11,"material":2,"mode":4}]}],"nodes":[{"name":"Lilligant","mesh":0}],"samplers":[{"wrapS":10497,"wrapT":10497}],"scene":0,"scenes":[{"nodes":[0]}],"textures":[{"name":"pm0549_00_BodyA1","sampler":0,"source":0},{"name":"pm0549_00_BodyB1","sampler":0,"source":1},{"name":"pm0549_00_Eye1","sampler":0,"source":2}]}