{"accessors":[{"name":"Krookodile_1_0_positions","componentType":5126,"count":7740,"min":[-78.84150695800781,-0.000018000000636675395,-142.36097717285156],"max":[78.84150695800781,131.40008544921875,79.10750579833984],"type":"VEC3","bufferView":0,"byteOffset":0},{"name":"Krookodile_1_0_normals","componentType":5126,"count":7740,"min":[-0.9995108842849731,-1,-0.9992002844810486],"max":[0.9996798038482666,0.995539665222168,0.9996880292892456],"type":"VEC3","bufferView":1,"byteOffset":0},{"name":"Krookodile_1_0_texcoords","componentType":5126,"count":7740,"min":[0.0056940000504255295,0.005859000142663717],"max":[0.9943060278892517,0.994255006313324],"type":"VEC2","bufferView":2,"byteOffset":0},{"name":"Krookodile_1_0_indices","componentType":5123,"count":7740,"min":[0],"max":[7739],"type":"SCALAR","bufferView":3,"byteOffset":0},{"name":"Krookodile_1_1_positions","componentType":5126,"count":9264,"min":[-78.62940979003906,-0.000018000000636675395,-24.341812133789062],"max":[78.62940979003906,152.21109008789062,80.74758911132812],"type":"VEC3","bufferView":0,"byteOffset":92880},{"name":"Krookodile_1_1_normals","componentType":5126,"count":9264,"min":[-0.9995108842849731,-1,-0.9188898205757141],"max":[0.9996798038482666,0.9895070791244507,0.9996880292892456],"type":"VEC3","bufferView":1,"byteOffset":92880},{"name":"Krookodile_1_1_texcoords","componentType":5126,"count":9264,"min":[0.005859000142663717,-0.9941400289535522],"max":[0.9941409826278687,-0.005859999917447567],"type":"VEC2","bufferView":2,"byteOffset":61920},{"name":"Krookodile_1_1_indices","componentType":5123,"count":9264,"min":[0],"max":[9263],"type":"SCALAR","bufferView":3,"byteOffset":15480},{"name":"Krookodile_1_2_positions","componentType":5126,"count":72,"min":[-15.487228393554688,129.65896606445312,12.883585929870605],"max":[15.486970901489258,143.02407836914062,23.11209487915039],"type":"VEC3","bufferView":0,"byteOffset":204048},{"name":"Krookodile_1_2_normals","componentType":5126,"count":72,"min":[-9.999999974752427e-7,0.28101998567581177,0.6261259913444519],"max":[0.6922449469566345,0.4455050528049469,0.9269839525222778],"type":"VEC3","bufferView":1,"byteOffset":204048},{"name":"Krookodile_1_2_texcoords","componentType":5126,"count":72,"min":[0.011718999594449997,-1.9660899639129639],"max":[0.4882799983024597,-1.7820099592208862],"type":"VEC2","bufferView":2,"byteOffset":136032},{"name":"Krookodile_1_2_indices","componentType":5123,"count":72,"min":[0],"max":[71],"type":"SCALAR","bufferView":3,"byteOffset":34008}],"asset":{"generator":"obj2gltf","version":"2.0"},"buffers":[{"name":"XY_Krookodile","byteLength":709272,"uri":"data:application/octet-stream;base64,"}],"bufferViews":[{"name":"bufferView_0","buffer":0,"byteLength":204912,"byteOffset":0,"byteStride":12,"target":34962},{"name":"bufferView_1","buffer":0,"byteLength":204912,"byteOffset":204912,"byteStride":12,"target":34962},{"name":"bufferView_2","buffer":0,"byteLength":136608,"byteOffset":409824,"byteStride":8,"target":34962},{"name":"bufferView_3","buffer":0,"byteLength":34152,"byteOffset":546432,"target":34963},{"buffer":0,"byteOffset":580584,"byteLength":63937},{"buffer":0,"byteOffset":644521,"byteLength":53207},{"buffer":0,"byteOffset":697728,"byteLength":11543}],"images":[{"name":"pm0553_00_BodyA1","mimeType":"image/png","bufferView":4},{"name":"pm0553_00_BodyB1","mimeType":"image/png","bufferView":5},{"name":"pm0553_00_Eye1","mimeType":"image/png","bufferView":6}],"materials":[{"name":"Material__123","pbrMetallicRoughness":{"baseColorTexture":{"index":0},"baseColorFactor":[1,1,1,1],"metallicFactor":0,"roughnessFactor":0.998},"emissiveFactor":[0,0,0],"alphaMode":"OPAQUE","doubleSided":false},{"name":"Material__124","pbrMetallicRoughness":{"baseColorTexture":{"index":1},"baseColorFactor":[1,1,1,1],"metallicFactor":0,"roughnessFactor":0.998},"emissiveFactor":[0,0,0],"alphaMode":"OPAQUE","doubleSided":false},{"name":"Material__125","pbrMetallicRoughness":{"baseColorTexture":{"index":2},"baseColorFactor":[1,1,1,1],"metallicFactor":0,"roughnessFactor":0.998},"emissiveFactor":[0,0,0],"alphaMode":"OPAQUE","doubleSided":false}],"meshes":[{"name":"Krookodile_1","primitives":[{"attributes":{"POSITION":0,"NORMAL":1,"TEXCOORD_0":2},"indices":3,"material":0,"mode":4},{"attributes":{"POSITION":4,"NORMAL":5,"TEXCOORD_0":6},"indices":7,"material":1,"mode":4},{"attributes":{"POSITION":8,"NORMAL":9,"TEXCOORD_0":10},"indices":11,"material":2,"mode":4}]}],"nodes":[{"name":"Krookodile","mesh":0}],"samplers":[{"wrapS":10497,"wrapT":10497}],"scene":0,"scenes":[{"nodes":[0]}],"textures":[{"name":"pm0553_00_BodyA1","sampler":0,"source":0},{"name":"pm0553_00_BodyB1","sampler":0,"source":1},{"name":"pm0553_00_Eye1","sampler":0,"source":2}]}