{"accessors":[{"name":"polygon0_1_0_positions","componentType":5126,"count":1286,"min":[-9.265939712524414,0.05155299976468086,-14.236120223999023],"max":[9.265935897827148,15.221128463745117,8.074762344360352],"type":"VEC3","bufferView":0,"byteOffset":0},{"name":"polygon0_1_0_normals","componentType":5126,"count":1286,"min":[-0.9964256286621094,-0.9999984502792358,-0.9921064972877502],"max":[0.9964256286621094,0.9998432993888855,0.9995299577713013],"type":"VEC3","bufferView":1,"byteOffset":0},{"name":"polygon0_1_0_texcoords","componentType":5126,"count":1286,"min":[0.002624999964609742,0.0045779999345541],"max":[0.9979249835014343,0.9941409826278687],"type":"VEC2","bufferView":2,"byteOffset":0},{"name":"polygon0_1_0_indices","componentType":5123,"count":5088,"min":[0],"max":[1285],"type":"SCALAR","bufferView":3,"byteOffset":0},{"name":"polygon1_1_0_positions","componentType":5126,"count":23,"min":[-1.5973589420318604,12.974808692932129,1.535187005996704],"max":[1.5973570346832275,14.188883781433105,2.423691987991333],"type":"VEC3","bufferView":0,"byteOffset":15432},{"name":"polygon1_1_0_normals","componentType":5126,"count":23,"min":[-0.7348160743713379,0.16443200409412384,0.23736609518527985],"max":[0.7348160743713379,0.9077783823013306,0.7934358716011047],"type":"VEC3","bufferView":1,"byteOffset":15432},{"name":"polygon1_1_0_texcoords","componentType":5126,"count":23,"min":[0.007813000120222569,0.0039059999398887157],"max":[0.4804689884185791,0.2460940033197403],"type":"VEC2","bufferView":2,"byteOffset":10288},{"name":"polygon1_1_0_indices","componentType":5123,"count":72,"min":[0],"max":[22],"type":"SCALAR","bufferView":3,"byteOffset":10176}],"asset":{"generator":"obj2gltf","version":"2.0"},"buffers":[{"name":"P2_Krookodile","byteLength":52208,"uri":"data:application/octet-stream;base64,"}],"bufferViews":[{"name":"bufferView_0","buffer":0,"byteLength":15708,"byteOffset":0,"byteStride":12,"target":34962},{"name":"bufferView_1","buffer":0,"byteLength":15708,"byteOffset":15708,"byteStride":12,"target":34962},{"name":"bufferView_2","buffer":0,"byteLength":10472,"byteOffset":31416,"byteStride":8,"target":34962},{"name":"bufferView_3","buffer":0,"byteLength":10320,"byteOffset":41888,"target":34963}],"materials":[{"name":"mat1","pbrMetallicRoughness":{"baseColorFactor":[0.5,0.5,0.5,1],"metallicFactor":0,"roughnessFactor":1},"emissiveFactor":[0,0,0],"alphaMode":"OPAQUE","doubleSided":false},{"name":"mat2","pbrMetallicRoughness":{"baseColorFactor":[0.5,0.5,0.5,1],"metallicFactor":0,"roughnessFactor":1},"emissiveFactor":[0,0,0],"alphaMode":"OPAQUE","doubleSided":false}],"meshes":[{"name":"polygon0_1","primitives":[{"attributes":{"POSITION":0,"NORMAL":1,"TEXCOORD_0":2},"indices":3,"material":0,"mode":4}]},{"name":"polygon1_1","primitives":[{"attributes":{"POSITION":4,"NORMAL":5,"TEXCOORD_0":6},"indices":7,"material":1,"mode":4}]}],"nodes":[{"name":"polygon0","mesh":0},{"name":"polygon1","mesh":1}],"scene":0,"scenes":[{"nodes":[0,1]}]}