{"accessors":[{"name":"polygon0_1_0_positions","componentType":5126,"count":90,"min":[-5.30407190322876,8.727909088134766,4.519816875457764],"max":[5.30407190322876,11.697504997253418,7.226614952087402],"type":"VEC3","bufferView":0,"byteOffset":0},{"name":"polygon0_1_0_normals","componentType":5126,"count":90,"min":[-0.7885850071907043,-0.8868401646614075,-0.8315789699554443],"max":[0.7885850071907043,0.7896145582199097,0.9339677095413208],"type":"VEC3","bufferView":1,"byteOffset":0},{"name":"polygon0_1_0_texcoords","componentType":5126,"count":90,"min":[-1.505126953125,0.06994599848985672],"max":[0.9566649794578552,1],"type":"VEC2","bufferView":2,"byteOffset":0},{"name":"polygon0_1_0_indices","componentType":5123,"count":336,"min":[0],"max":[89],"type":"SCALAR","bufferView":3,"byteOffset":0},{"name":"polygon1_1_0_positions","componentType":5126,"count":64,"min":[-1.8610049486160278,8.104827880859375,6.748851776123047],"max":[1.8610049486160278,9.485405921936035,7.842626094818115],"type":"VEC3","bufferView":0,"byteOffset":1080},{"name":"polygon1_1_0_normals","componentType":5126,"count":64,"min":[-0.9769386649131775,-0.9099406599998474,-0.8061917424201965],"max":[0.9769386649131775,0.8801469802856445,0.9758967757225037],"type":"VEC3","bufferView":1,"byteOffset":1080},{"name":"polygon1_1_0_texcoords","componentType":5126,"count":64,"min":[0.8490300178527832,0.8403630256652832],"max":[0.9681400060653687,0.981781005859375],"type":"VEC2","bufferView":2,"byteOffset":720},{"name":"polygon1_1_0_indices","componentType":5123,"count":282,"min":[0],"max":[63],"type":"SCALAR","bufferView":3,"byteOffset":672},{"name":"polygon2_1_0_positions","componentType":5126,"count":274,"min":[-7.694766044616699,9.090917587280273,2.679049015045166],"max":[7.694766044616699,13.692049026489258,6.935555934906006],"type":"VEC3","bufferView":0,"byteOffset":1848},{"name":"polygon2_1_0_normals","componentType":5126,"count":274,"min":[-0.8600000739097595,-0.9321595430374146,-0.8084523677825928],"max":[0.8600000739097595,0.9199828505516052,0.9876415133476257],"type":"VEC3","bufferView":1,"byteOffset":1848},{"name":"polygon2_1_0_texcoords","componentType":5126,"count":274,"min":[-4.541259765625,-1.4064940214157104],"max":[2.46875,2.410645008087158],"type":"VEC2","bufferView":2,"byteOffset":1232},{"name":"polygon2_1_0_indices","componentType":5123,"count":804,"min":[0],"max":[273],"type":"SCALAR","bufferView":3,"byteOffset":1236},{"name":"polygon7_1_0_positions","componentType":5126,"count":16,"min":[-2.6330409049987793,6.855381011962891,6.422393798828125],"max":[2.6330389976501465,8.993077278137207,7.939014911651611],"type":"VEC3","bufferView":0,"byteOffset":5136},{"name":"polygon7_1_0_normals","componentType":5126,"count":16,"min":[-0.4124109148979187,0.2464538812637329,0.6512448191642761],"max":[0.4124109148979187,0.6461178660392761,0.9691545367240906],"type":"VEC3","bufferView":1,"byteOffset":5136},{"name":"polygon7_1_0_texcoords","componentType":5126,"count":16,"min":[0.027343999594449997,0.011718999594449997],"max":[0.4609380066394806,0.1992190033197403],"type":"VEC2","bufferView":2,"byteOffset":3424},{"name":"polygon7_1_0_indices","componentType":5123,"count":42,"min":[0],"max":[15],"type":"SCALAR","bufferView":3,"byteOffset":2844},{"name":"polygon8_1_0_positions","componentType":5126,"count":1183,"min":[-15.08269214630127,0.8132650256156921,-3.2752270698547363],"max":[15.082691192626953,10.659955978393555,8.19294261932373],"type":"VEC3","bufferView":0,"byteOffset":5328},{"name":"polygon8_1_0_normals","componentType":5126,"count":1183,"min":[-0.9992587566375732,-0.999430239200592,-0.9998735189437866],"max":[0.9992569088935852,0.9998378753662109,0.9953832030296326],"type":"VEC3","bufferView":1,"byteOffset":5328},{"name":"polygon8_1_0_texcoords","componentType":5126,"count":1183,"min":[0.012085000053048134,0.011443999595940113],"max":[0.9819340109825134,0.9815670251846313],"type":"VEC2","bufferView":2,"byteOffset":3552},{"name":"polygon8_1_0_indices","componentType":5123,"count":4656,"min":[0],"max":[1182],"type":"SCALAR","bufferView":3,"byteOffset":2928},{"name":"polygon9_1_0_positions","componentType":5126,"count":427,"min":[-5.316026210784912,0,-4.91692590713501],"max":[5.316030025482178,9.456567764282227,4.91692590713501],"type":"VEC3","bufferView":0,"byteOffset":19524},{"name":"polygon9_1_0_normals","componentType":5126,"count":427,"min":[-0.9906327724456787,-0.9817187786102295,-0.9999580979347229],"max":[0.9906327724456787,0.9987499117851257,0.99955815076828],"type":"VEC3","bufferView":1,"byteOffset":19524},{"name":"polygon9_1_0_texcoords","componentType":5126,"count":427,"min":[0.023468000814318657,0.021942000836133957],"max":[0.9785460233688354,0.9747009873390198],"type":"VEC2","bufferView":2,"byteOffset":13016},{"name":"polygon9_1_0_indices","componentType":5123,"count":1776,"min":[0],"max":[426],"type":"SCALAR","bufferView":3,"byteOffset":12240}],"asset":{"generator":"obj2gltf","version":"2.0"},"buffers":[{"name":"P2_Darmanitan","byteLength":81520,"uri":"data:application/octet-stream;base64,"}],"bufferViews":[{"name":"bufferView_0","buffer":0,"byteLength":24648,"byteOffset":0,"byteStride":12,"target":34962},{"name":"bufferView_1","buffer":0,"byteLength":24648,"byteOffset":24648,"byteStride":12,"target":34962},{"name":"bufferView_2","buffer":0,"byteLength":16432,"byteOffset":49296,"byteStride":8,"target":34962},{"name":"bufferView_3","buffer":0,"byteLength":15792,"byteOffset":65728,"target":34963}],"materials":[{"name":"mat4","pbrMetallicRoughness":{"baseColorFactor":[0.5,0.5,0.5,1],"metallicFactor":0,"roughnessFactor":1},"emissiveFactor":[0,0,0],"alphaMode":"OPAQUE","doubleSided":false},{"name":"mat6","pbrMetallicRoughness":{"baseColorFactor":[0.5,0.5,0.5,1],"metallicFactor":0,"roughnessFactor":1},"emissiveFactor":[0,0,0],"alphaMode":"OPAQUE","doubleSided":false},{"name":"mat5","pbrMetallicRoughness":{"baseColorFactor":[0.5,0.5,0.5,1],"metallicFactor":0,"roughnessFactor":1},"emissiveFactor":[0,0,0],"alphaMode":"OPAQUE","doubleSided":false},{"name":"mat2","pbrMetallicRoughness":{"baseColorFactor":[0.5,0.5,0.5,1],"metallicFactor":0,"roughnessFactor":1},"emissiveFactor":[0,0,0],"alphaMode":"OPAQUE","doubleSided":false},{"name":"mat1","pbrMetallicRoughness":{"baseColorFactor":[0.5,0.5,0.5,1],"metallicFactor":0,"roughnessFactor":1},"emissiveFactor":[0,0,0],"alphaMode":"OPAQUE","doubleSided":false},{"name":"mat3","pbrMetallicRoughness":{"baseColorFactor":[0.5,0.5,0.5,1],"metallicFactor":0,"roughnessFactor":1},"emissiveFactor":[0,0,0],"alphaMode":"OPAQUE","doubleSided":false}],"meshes":[{"name":"polygon0_1","primitives":[{"attributes":{"POSITION":0,"NORMAL":1,"TEXCOORD_0":2},"indices":3,"material":0,"mode":4}]},{"name":"polygon1_1","primitives":[{"attributes":{"POSITION":4,"NORMAL":5,"TEXCOORD_0":6},"indices":7,"material":1,"mode":4}]},{"name":"polygon2_1","primitives":[{"attributes":{"POSITION":8,"NORMAL":9,"TEXCOORD_0":10},"indices":11,"material":2,"mode":4}]},{"name":"polygon7_1","primitives":[{"attributes":{"POSITION":12,"NORMAL":13,"TEXCOORD_0":14},"indices":15,"material":3,"mode":4}]},{"name":"polygon8_1","primitives":[{"attributes":{"POSITION":16,"NORMAL":17,"TEXCOORD_0":18},"indices":19,"material":4,"mode":4}]},{"name":"polygon9_1","primitives":[{"attributes":{"POSITION":20,"NORMAL":21,"TEXCOORD_0":22},"indices":23,"material":5,"mode":4}]}],"nodes":[{"name":"polygon0","mesh":0},{"name":"polygon1","mesh":1},{"name":"polygon2","mesh":2},{"name":"polygon7","mesh":3},{"name":"polygon8","mesh":4},{"name":"polygon9","mesh":5}],"scene":0,"scenes":[{"nodes":[0,1,2,3,4,5]}]}