{"accessors":[{"name":"polygon0_1_0_positions","componentType":5126,"count":851,"min":[-2.4055979251861572,0.03022100031375885,-3.9851109981536865],"max":[2.405596971511841,5.953911781311035,1.5992779731750488],"type":"VEC3","bufferView":0,"byteOffset":0},{"name":"polygon0_1_0_normals","componentType":5126,"count":851,"min":[-0.9999915361404419,-0.9998968839645386,-0.9997345805168152],"max":[0.9999915361404419,0.9998968839645386,0.9983772039413452],"type":"VEC3","bufferView":1,"byteOffset":0},{"name":"polygon0_1_0_texcoords","componentType":5126,"count":851,"min":[0.0098879998549819,0.010161999613046646],"max":[0.987030029296875,0.9743350148200989],"type":"VEC2","bufferView":2,"byteOffset":0},{"name":"polygon0_1_0_indices","componentType":5123,"count":3822,"min":[0],"max":[850],"type":"SCALAR","bufferView":3,"byteOffset":0},{"name":"polygon1_1_0_positions","componentType":5126,"count":40,"min":[-1.3971519470214844,3.46708607673645,0.167930006980896],"max":[1.3971519470214844,4.8222479820251465,1.4389770030975342],"type":"VEC3","bufferView":0,"byteOffset":10212},{"name":"polygon1_1_0_normals","componentType":5126,"count":40,"min":[-0.9974898099899292,-0.6307468414306641,-0.05296798422932625],"max":[0.9974898099899292,0.6247549653053284,0.8189072608947754],"type":"VEC3","bufferView":1,"byteOffset":10212},{"name":"polygon1_1_0_texcoords","componentType":5126,"count":40,"min":[1.0085140466690063,0.008330999873578548],"max":[1.463196039199829,0.24316400289535522],"type":"VEC2","bufferView":2,"byteOffset":6808},{"name":"polygon1_1_0_indices","componentType":5123,"count":144,"min":[0],"max":[39],"type":"SCALAR","bufferView":3,"byteOffset":7644},{"name":"polygon2_1_0_positions","componentType":5126,"count":20,"min":[-0.7859950065612793,3.4521660804748535,1.2390719652175903],"max":[0.7859950065612793,4.5032429695129395,1.7006030082702637],"type":"VEC3","bufferView":0,"byteOffset":10692},{"name":"polygon2_1_0_normals","componentType":5126,"count":20,"min":[-0.572090208530426,-0.6376720070838928,0.6184578537940979],"max":[0.572090208530426,0.3801499605178833,0.999447226524353],"type":"VEC3","bufferView":1,"byteOffset":10692},{"name":"polygon2_1_0_texcoords","componentType":5126,"count":20,"min":[0.0659789964556694,-0.9872440099716187],"max":[0.4208979904651642,-0.7664179801940918],"type":"VEC2","bufferView":2,"byteOffset":7128},{"name":"polygon2_1_0_indices","componentType":5123,"count":72,"min":[0],"max":[19],"type":"SCALAR","bufferView":3,"byteOffset":7932},{"name":"polygon3_1_0_positions","componentType":5126,"count":77,"min":[-1.3971519470214844,3.105875015258789,-1.1431529521942139],"max":[1.3971519470214844,5.371872901916504,0.20528200268745422],"type":"VEC3","bufferView":0,"byteOffset":10932},{"name":"polygon3_1_0_normals","componentType":5126,"count":77,"min":[-0.9974898099899292,-0.9462811350822449,-0.9999219179153442],"max":[0.9974898099899292,0.9846231341362,-0.02859099954366684],"type":"VEC3","bufferView":1,"byteOffset":10932},{"name":"polygon3_1_0_texcoords","componentType":5126,"count":77,"min":[0.2950739860534668,0.0148930000141263],"max":[0.6824039816856384,0.29010000824928284],"type":"VEC2","bufferView":2,"byteOffset":7288},{"name":"polygon3_1_0_indices","componentType":5123,"count":390,"min":[0],"max":[76],"type":"SCALAR","bufferView":3,"byteOffset":8076}],"asset":{"generator":"obj2gltf","version":"2.0"},"buffers":[{"name":"P2_Scraggy","byteLength":40472,"uri":"data:application/octet-stream;base64,"}],"bufferViews":[{"name":"bufferView_0","buffer":0,"byteLength":11856,"byteOffset":0,"byteStride":12,"target":34962},{"name":"bufferView_1","buffer":0,"byteLength":11856,"byteOffset":11856,"byteStride":12,"target":34962},{"name":"bufferView_2","buffer":0,"byteLength":7904,"byteOffset":23712,"byteStride":8,"target":34962},{"name":"bufferView_3","buffer":0,"byteLength":8856,"byteOffset":31616,"target":34963}],"materials":[{"name":"mat1","pbrMetallicRoughness":{"baseColorFactor":[0.5,0.5,0.5,1],"metallicFactor":0,"roughnessFactor":1},"emissiveFactor":[0,0,0],"alphaMode":"OPAQUE","doubleSided":false},{"name":"mat2","pbrMetallicRoughness":{"baseColorFactor":[0.5,0.5,0.5,1],"metallicFactor":0,"roughnessFactor":1},"emissiveFactor":[0,0,0],"alphaMode":"OPAQUE","doubleSided":false},{"name":"mat3","pbrMetallicRoughness":{"baseColorFactor":[0.5,0.5,0.5,1],"metallicFactor":0,"roughnessFactor":1},"emissiveFactor":[0,0,0],"alphaMode":"OPAQUE","doubleSided":false}],"meshes":[{"name":"polygon0_1","primitives":[{"attributes":{"POSITION":0,"NORMAL":1,"TEXCOORD_0":2},"indices":3,"material":0,"mode":4}]},{"name":"polygon1_1","primitives":[{"attributes":{"POSITION":4,"NORMAL":5,"TEXCOORD_0":6},"indices":7,"material":1,"mode":4}]},{"name":"polygon2_1","primitives":[{"attributes":{"POSITION":8,"NORMAL":9,"TEXCOORD_0":10},"indices":11,"material":2,"mode":4}]},{"name":"polygon3_1","primitives":[{"attributes":{"POSITION":12,"NORMAL":13,"TEXCOORD_0":14},"indices":15,"material":0,"mode":4}]}],"nodes":[{"name":"polygon0","mesh":0},{"name":"polygon1","mesh":1},{"name":"polygon2","mesh":2},{"name":"polygon3","mesh":3}],"scene":0,"scenes":[{"nodes":[0,1,2,3]}]}