{"accessors":[{"name":"Scrafty_1_0_positions","componentType":5126,"count":7044,"min":[-47.048797607421875,25.11554718017578,-32.376708984375],"max":[47.048797607421875,110.0780029296875,31.222694396972656],"type":"VEC3","bufferView":0,"byteOffset":0},{"name":"Scrafty_1_0_normals","componentType":5126,"count":7044,"min":[-0.9999927878379822,-0.9987239837646484,-0.9980292916297913],"max":[0.9999904036521912,0.9986295700073242,0.9992752075195312],"type":"VEC3","bufferView":1,"byteOffset":0},{"name":"Scrafty_1_0_texcoords","componentType":5126,"count":7044,"min":[0.005570000037550926,0.006802000105381012],"max":[0.9944300055503845,0.9942640066146851],"type":"VEC2","bufferView":2,"byteOffset":0},{"name":"Scrafty_1_0_indices","componentType":5123,"count":7044,"min":[0],"max":[7043],"type":"SCALAR","bufferView":3,"byteOffset":0},{"name":"Scrafty_1_1_positions","componentType":5126,"count":7248,"min":[-26.751197814941406,-1.4889390468597412,-58.81680679321289],"max":[27.78799819946289,61.77501678466797,16.709800720214844],"type":"VEC3","bufferView":0,"byteOffset":84528},{"name":"Scrafty_1_1_normals","componentType":5126,"count":7248,"min":[-0.9975159168243408,-0.9987240433692932,-0.9980292916297913],"max":[0.9999927878379822,0.9986295700073242,0.9992752075195312],"type":"VEC3","bufferView":1,"byteOffset":84528},{"name":"Scrafty_1_1_texcoords","componentType":5126,"count":7248,"min":[0.01132499985396862,-0.9954299926757812],"max":[0.9898219704627991,-0.004889999981969595],"type":"VEC2","bufferView":2,"byteOffset":56352},{"name":"Scrafty_1_1_indices","componentType":5123,"count":7248,"min":[0],"max":[7247],"type":"SCALAR","bufferView":3,"byteOffset":14088},{"name":"Scrafty_1_2_positions","componentType":5126,"count":192,"min":[-14.380518913269043,66.49591064453125,13.687994003295898],"max":[14.380480766296387,81.10460662841797,20.961698532104492],"type":"VEC3","bufferView":0,"byteOffset":171504},{"name":"Scrafty_1_2_normals","componentType":5126,"count":192,"min":[-0.9051821827888489,-0.9987239837646484,-0.8989269733428955],"max":[0.9925779700279236,0.8852373957633972,0.7736499309539795],"type":"VEC3","bufferView":1,"byteOffset":171504},{"name":"Scrafty_1_2_texcoords","componentType":5126,"count":192,"min":[0.005654000211507082,-2.9867899417877197],"max":[0.49434998631477356,-2.762660026550293],"type":"VEC2","bufferView":2,"byteOffset":114336},{"name":"Scrafty_1_2_indices","componentType":5123,"count":192,"min":[0],"max":[191],"type":"SCALAR","bufferView":3,"byteOffset":28584},{"name":"Scrafty_1_3_positions","componentType":5126,"count":528,"min":[-20.746139526367188,66.27294158935547,2.650355100631714],"max":[20.74605941772461,85.30924224853516,15.682994842529297],"type":"VEC3","bufferView":0,"byteOffset":173808},{"name":"Scrafty_1_3_normals","componentType":5126,"count":528,"min":[-0.8320499062538147,-0.9933302402496338,-0.9979615807533264],"max":[0.9723953008651733,0.977295994758606,0.8901916742324829],"type":"VEC3","bufferView":1,"byteOffset":173808},{"name":"Scrafty_1_3_texcoords","componentType":5126,"count":528,"min":[0.04763700067996979,-1.9928200244903564],"max":[0.45236000418663025,-1.7554199695587158],"type":"VEC2","bufferView":2,"byteOffset":115872},{"name":"Scrafty_1_3_indices","componentType":5123,"count":528,"min":[0],"max":[527],"type":"SCALAR","bufferView":3,"byteOffset":28968},{"name":"Scrafty_1_4_positions","componentType":5126,"count":528,"min":[-20.844640731811523,66.2379379272461,2.659532070159912],"max":[20.844560623168945,85.39224243164062,15.75479507446289],"type":"VEC3","bufferView":0,"byteOffset":180144},{"name":"Scrafty_1_4_normals","componentType":5126,"count":528,"min":[-0.9999904036521912,-0.8702982068061829,-0.7806510329246521],"max":[0.000003000000788233592,0.6012409329414368,0.6647530794143677],"type":"VEC3","bufferView":1,"byteOffset":180144},{"name":"Scrafty_1_4_texcoords","componentType":5126,"count":528,"min":[-3.8094398975372314,-10.971280097961426],"max":[3.867971897125244,-10.021679878234863],"type":"VEC2","bufferView":2,"byteOffset":120096},{"name":"Scrafty_1_4_indices","componentType":5123,"count":528,"min":[0],"max":[527],"type":"SCALAR","bufferView":3,"byteOffset":30024}],"asset":{"generator":"obj2gltf","version":"2.0"},"buffers":[{"name":"XY_Scrafty","byteLength":634724,"uri":"data:application/octet-stream;base64,"}],"bufferViews":[{"name":"bufferView_0","buffer":0,"byteLength":186480,"byteOffset":0,"byteStride":12,"target":34962},{"name":"bufferView_1","buffer":0,"byteLength":186480,"byteOffset":186480,"byteStride":12,"target":34962},{"name":"bufferView_2","buffer":0,"byteLength":124320,"byteOffset":372960,"byteStride":8,"target":34962},{"name":"bufferView_3","buffer":0,"byteLength":31080,"byteOffset":497280,"target":34963},{"buffer":0,"byteOffset":528360,"byteLength":26750},{"buffer":0,"byteOffset":555110,"byteLength":16578},{"buffer":0,"byteOffset":571688,"byteLength":27369},{"buffer":0,"byteOffset":599057,"byteLength":35354},{"buffer":0,"byteOffset":634411,"byteLength":310}],"images":[{"name":"pm0560_00_BodyA1","mimeType":"image/png","bufferView":4},{"name":"pm0560_00_BodyB1","mimeType":"image/png","bufferView":5},{"name":"pm0560_00_Mouth1","mimeType":"image/png","bufferView":6},{"name":"pm0560_00_Eye1","mimeType":"image/png","bufferView":7},{"name":"pm0560_00_Iris1","mimeType":"image/png","bufferView":8}],"materials":[{"name":"Material__35","pbrMetallicRoughness":{"baseColorTexture":{"index":0},"baseColorFactor":[1,1,1,1],"metallicFactor":0,"roughnessFactor":0.998},"emissiveFactor":[0,0,0],"alphaMode":"OPAQUE","doubleSided":false},{"name":"Material__36","pbrMetallicRoughness":{"baseColorTexture":{"index":1},"baseColorFactor":[1,1,1,1],"metallicFactor":0,"roughnessFactor":0.998},"emissiveFactor":[0,0,0],"alphaMode":"OPAQUE","doubleSided":false},{"name":"Material__37","pbrMetallicRoughness":{"baseColorTexture":{"index":2},"baseColorFactor":[1,1,1,1],"metallicFactor":0,"roughnessFactor":0.998},"emissiveFactor":[0,0,0],"alphaMode":"OPAQUE","doubleSided":false},{"name":"Material__38","pbrMetallicRoughness":{"baseColorTexture":{"index":3},"baseColorFactor":[1,1,1,1],"metallicFactor":0,"roughnessFactor":0.998},"emissiveFactor":[0,0,0],"alphaMode":"OPAQUE","doubleSided":false},{"name":"Material__39","pbrMetallicRoughness":{"baseColorTexture":{"index":4},"baseColorFactor":[1,1,1,1],"metallicFactor":0,"roughnessFactor":0.998},"emissiveFactor":[0,0,0],"alphaMode":"OPAQUE","doubleSided":false}],"meshes":[{"name":"Scrafty_1","primitives":[{"attributes":{"POSITION":0,"NORMAL":1,"TEXCOORD_0":2},"indices":3,"material":0,"mode":4},{"attributes":{"POSITION":4,"NORMAL":5,"TEXCOORD_0":6},"indices":7,"material":1,"mode":4},{"attributes":{"POSITION":8,"NORMAL":9,"TEXCOORD_0":10},"indices":11,"material":2,"mode":4},{"attributes":{"POSITION":12,"NORMAL":13,"TEXCOORD_0":14},"indices":15,"material":3,"mode":4},{"attributes":{"POSITION":16,"NORMAL":17,"TEXCOORD_0":18},"indices":19,"material":4,"mode":4}]}],"nodes":[{"name":"Scrafty","mesh":0}],"samplers":[{"wrapS":10497,"wrapT":10497}],"scene":0,"scenes":[{"nodes":[0]}],"textures":[{"name":"pm0560_00_BodyA1","sampler":0,"source":0},{"name":"pm0560_00_BodyB1","sampler":0,"source":1},{"name":"pm0560_00_Mouth1","sampler":0,"source":2},{"name":"pm0560_00_Eye1","sampler":0,"source":3},{"name":"pm0560_00_Iris1","sampler":0,"source":4}]}