{"accessors":[{"name":"polygon0_1_0_positions","componentType":5126,"count":159,"min":[-3.5419580936431885,0.6234809756278992,-1.4119830131530762],"max":[3.5419580936431885,16.187271118164062,2.7745180130004883],"type":"VEC3","bufferView":0,"byteOffset":0},{"name":"polygon0_1_0_normals","componentType":5126,"count":159,"min":[-0.997623860836029,-0.999954104423523,-0.9998068809509277],"max":[0.9976237416267395,0.9899236559867859,0.9919621348381042],"type":"VEC3","bufferView":1,"byteOffset":0},{"name":"polygon0_1_0_texcoords","componentType":5126,"count":159,"min":[0.5021060109138489,0.008666999638080597],"max":[0.9851070046424866,0.9855650067329407],"type":"VEC2","bufferView":2,"byteOffset":0},{"name":"polygon0_1_0_indices","componentType":5123,"count":696,"min":[0],"max":[158],"type":"SCALAR","bufferView":3,"byteOffset":0},{"name":"polygon1_1_0_positions","componentType":5126,"count":760,"min":[-29.998756408691406,4.639438152313232,-3.0268819332122803],"max":[29.998756408691406,11.227327346801758,3.3935658931732178],"type":"VEC3","bufferView":0,"byteOffset":1908},{"name":"polygon1_1_0_normals","componentType":5126,"count":760,"min":[-0.9999680519104004,-0.9999570846557617,-0.9999187588691711],"max":[0.9999675154685974,0.999922513961792,0.9999187588691711],"type":"VEC3","bufferView":1,"byteOffset":1908},{"name":"polygon1_1_0_texcoords","componentType":5126,"count":760,"min":[0.8370969891548157,0.8300169706344604],"max":[0.9917299747467041,0.9294739961624146],"type":"VEC2","bufferView":2,"byteOffset":1272},{"name":"polygon1_1_0_indices","componentType":5123,"count":3360,"min":[0],"max":[759],"type":"SCALAR","bufferView":3,"byteOffset":1392},{"name":"polygon2_1_0_positions","componentType":5126,"count":382,"min":[-3.8450191020965576,8.391874313354492,-1.4254670143127441],"max":[3.8450169563293457,16.303808212280273,3.2816879749298096],"type":"VEC3","bufferView":0,"byteOffset":11028},{"name":"polygon2_1_0_normals","componentType":5126,"count":382,"min":[-0.9999904632568359,-0.9995238780975342,-0.9999975562095642],"max":[0.9999904036521912,0.9996393322944641,1],"type":"VEC3","bufferView":1,"byteOffset":11028},{"name":"polygon2_1_0_texcoords","componentType":5126,"count":382,"min":[0.010986000299453735,0.013000000268220901],"max":[0.5767520070075989,0.9869999885559082],"type":"VEC2","bufferView":2,"byteOffset":7352},{"name":"polygon2_1_0_indices","componentType":5123,"count":1206,"min":[0],"max":[381],"type":"SCALAR","bufferView":3,"byteOffset":8112},{"name":"polygon3_1_0_positions","componentType":5126,"count":78,"min":[-1.8819979429244995,10.80076789855957,2.598836898803711],"max":[1.881996989250183,12.676523208618164,2.8304059505462646],"type":"VEC3","bufferView":0,"byteOffset":15612},{"name":"polygon3_1_0_normals","componentType":5126,"count":78,"min":[-0.8054603338241577,-0.7999708652496338,-0.9988299012184143],"max":[0.8054587841033936,0.8538460731506348,0.9848275184631348],"type":"VEC3","bufferView":1,"byteOffset":15612},{"name":"polygon3_1_0_texcoords","componentType":5126,"count":78,"min":[0.2638239860534668,0.7789000272750854],"max":[0.4614560008049011,0.9833369851112366],"type":"VEC2","bufferView":2,"byteOffset":10408},{"name":"polygon3_1_0_indices","componentType":5123,"count":300,"min":[0],"max":[77],"type":"SCALAR","bufferView":3,"byteOffset":10524},{"name":"polygon4_1_0_positions","componentType":5126,"count":12,"min":[-1.6611089706420898,11.035961151123047,2.694627046585083],"max":[1.6611069440841675,12.539386749267578,2.8294920921325684],"type":"VEC3","bufferView":0,"byteOffset":16548},{"name":"polygon4_1_0_normals","componentType":5126,"count":12,"min":[-0.32321587204933167,-0.5158169269561768,0.7967938780784607],"max":[0.32317405939102173,0.40270107984542847,0.9846550226211548],"type":"VEC3","bufferView":1,"byteOffset":16548},{"name":"polygon4_1_0_texcoords","componentType":5126,"count":12,"min":[0.039062999188899994,0.011718999594449997],"max":[0.453125,0.2382809966802597],"type":"VEC2","bufferView":2,"byteOffset":11032},{"name":"polygon4_1_0_indices","componentType":5123,"count":24,"min":[0],"max":[11],"type":"SCALAR","bufferView":3,"byteOffset":11124},{"name":"polygon5_1_0_positions","componentType":5126,"count":80,"min":[-1.4362610578536987,9.302468299865723,1.9294309616088867],"max":[1.4362610578536987,11.97254467010498,2.5390210151672363],"type":"VEC3","bufferView":0,"byteOffset":16692},{"name":"polygon5_1_0_normals","componentType":5126,"count":80,"min":[-0.992841899394989,-0.9999378323554993,-0.9989234209060669],"max":[0.992841899394989,0.08911404013633728,0.9999948740005493],"type":"VEC3","bufferView":1,"byteOffset":16692},{"name":"polygon5_1_0_texcoords","componentType":5126,"count":80,"min":[0.010834000073373318,0.454010009765625],"max":[0.45080599188804626,0.7776179909706116],"type":"VEC2","bufferView":2,"byteOffset":11128},{"name":"polygon5_1_0_indices","componentType":5123,"count":348,"min":[0],"max":[79],"type":"SCALAR","bufferView":3,"byteOffset":11172},{"name":"polygon6_1_0_positions","componentType":5126,"count":410,"min":[-4.295019149780273,8.391876220703125,-1.4254670143127441],"max":[4.295018196105957,16.95380973815918,3.2986888885498047],"type":"VEC3","bufferView":0,"byteOffset":17652},{"name":"polygon6_1_0_normals","componentType":5126,"count":410,"min":[-0.9999740123748779,-0.9995238780975342,-1],"max":[0.9999739527702332,0.9996393322944641,1],"type":"VEC3","bufferView":1,"byteOffset":17652},{"name":"polygon6_1_0_texcoords","componentType":5126,"count":410,"min":[0.010986000299453735,0.013000000268220901],"max":[0.5767520070075989,0.9869999885559082],"type":"VEC2","bufferView":2,"byteOffset":11768},{"name":"polygon6_1_0_indices","componentType":5123,"count":1314,"min":[0],"max":[409],"type":"SCALAR","bufferView":3,"byteOffset":11868},{"name":"polygon7_1_0_positions","componentType":5126,"count":126,"min":[-4.832921028137207,0.30962198972702026,-1.9599369764328003],"max":[4.832921981811523,17.235618591308594,3.7618110179901123],"type":"VEC3","bufferView":0,"byteOffset":22572},{"name":"polygon7_1_0_normals","componentType":5126,"count":126,"min":[-0.9973655939102173,-0.9930447936058044,-0.9999713897705078],"max":[0.9973655939102173,0.9746733903884888,1],"type":"VEC3","bufferView":1,"byteOffset":22572},{"name":"polygon7_1_0_texcoords","componentType":5126,"count":126,"min":[0.8630369901657104,0.9316099882125854],"max":[0.9731749892234802,0.9899290204048157],"type":"VEC2","bufferView":2,"byteOffset":15048},{"name":"polygon7_1_0_indices","componentType":5123,"count":744,"min":[0],"max":[125],"type":"SCALAR","bufferView":3,"byteOffset":14496}],"asset":{"generator":"obj2gltf","version":"2.0"},"buffers":[{"name":"P2_Cofagrigus","byteLength":80208,"uri":"data:application/octet-stream;base64,"}],"bufferViews":[{"name":"bufferView_0","buffer":0,"byteLength":24084,"byteOffset":0,"byteStride":12,"target":34962},{"name":"bufferView_1","buffer":0,"byteLength":24084,"byteOffset":24084,"byteStride":12,"target":34962},{"name":"bufferView_2","buffer":0,"byteLength":16056,"byteOffset":48168,"byteStride":8,"target":34962},{"name":"bufferView_3","buffer":0,"byteLength":15984,"byteOffset":64224,"target":34963}],"materials":[{"name":"mat1","pbrMetallicRoughness":{"baseColorFactor":[0.5,0.5,0.5,1],"metallicFactor":0,"roughnessFactor":1},"emissiveFactor":[0,0,0],"alphaMode":"OPAQUE","doubleSided":false},{"name":"mat4","pbrMetallicRoughness":{"baseColorFactor":[0.5,0.5,0.5,1],"metallicFactor":0,"roughnessFactor":1},"emissiveFactor":[0,0,0],"alphaMode":"OPAQUE","doubleSided":false},{"name":"mat3","pbrMetallicRoughness":{"baseColorFactor":[0.5,0.5,0.5,1],"metallicFactor":0,"roughnessFactor":1},"emissiveFactor":[0,0,0],"alphaMode":"OPAQUE","doubleSided":false},{"name":"mat2","pbrMetallicRoughness":{"baseColorFactor":[0.5,0.5,0.5,1],"metallicFactor":0,"roughnessFactor":1},"emissiveFactor":[0,0,0],"alphaMode":"OPAQUE","doubleSided":false}],"meshes":[{"name":"polygon0_1","primitives":[{"attributes":{"POSITION":0,"NORMAL":1,"TEXCOORD_0":2},"indices":3,"material":0,"mode":4}]},{"name":"polygon1_1","primitives":[{"attributes":{"POSITION":4,"NORMAL":5,"TEXCOORD_0":6},"indices":7,"material":1,"mode":4}]},{"name":"polygon2_1","primitives":[{"attributes":{"POSITION":8,"NORMAL":9,"TEXCOORD_0":10},"indices":11,"material":0,"mode":4}]},{"name":"polygon3_1","primitives":[{"attributes":{"POSITION":12,"NORMAL":13,"TEXCOORD_0":14},"indices":15,"material":2,"mode":4}]},{"name":"polygon4_1","primitives":[{"attributes":{"POSITION":16,"NORMAL":17,"TEXCOORD_0":18},"indices":19,"material":3,"mode":4}]},{"name":"polygon5_1","primitives":[{"attributes":{"POSITION":20,"NORMAL":21,"TEXCOORD_0":22},"indices":23,"material":0,"mode":4}]},{"name":"polygon6_1","primitives":[{"attributes":{"POSITION":24,"NORMAL":25,"TEXCOORD_0":26},"indices":27,"material":0,"mode":4}]},{"name":"polygon7_1","primitives":[{"attributes":{"POSITION":28,"NORMAL":29,"TEXCOORD_0":30},"indices":31,"material":1,"mode":4}]}],"nodes":[{"name":"polygon0","mesh":0},{"name":"polygon1","mesh":1},{"name":"polygon2","mesh":2},{"name":"polygon3","mesh":3},{"name":"polygon4","mesh":4},{"name":"polygon5","mesh":5},{"name":"polygon6","mesh":6},{"name":"polygon7","mesh":7}],"scene":0,"scenes":[{"nodes":[0,1,2,3,4,5,6,7]}]}