{"accessors":[{"name":"Archen_1_0_positions","componentType":5126,"count":7566,"min":[-57.78898239135742,11.639304161071777,-60.86349868774414],"max":[57.78899383544922,34.303104400634766,9.66576862335205],"type":"VEC3","bufferView":0,"byteOffset":0},{"name":"Archen_1_0_normals","componentType":5126,"count":7566,"min":[-0.9910213351249695,-0.999150812625885,-0.9994657039642334],"max":[0.9910213351249695,0.9999963641166687,0.9994657039642334],"type":"VEC3","bufferView":1,"byteOffset":0},{"name":"Archen_1_0_texcoords","componentType":5126,"count":7566,"min":[0,-0.9939799904823303],"max":[1,-0.007809999864548445],"type":"VEC2","bufferView":2,"byteOffset":0},{"name":"Archen_1_0_indices","componentType":5123,"count":7566,"min":[0],"max":[7565],"type":"SCALAR","bufferView":3,"byteOffset":0},{"name":"Archen_1_1_positions","componentType":5126,"count":8796,"min":[-9.64454174041748,0.012903000228106976,-13.020298957824707],"max":[9.644536018371582,49.73896789550781,26.978145599365234],"type":"VEC3","bufferView":0,"byteOffset":90792},{"name":"Archen_1_1_normals","componentType":5126,"count":8796,"min":[-0.9975293278694153,-0.9999761581420898,-0.9988667368888855],"max":[0.9999852776527405,0.9997370839118958,0.995516836643219],"type":"VEC3","bufferView":1,"byteOffset":90792},{"name":"Archen_1_1_texcoords","componentType":5126,"count":8796,"min":[0,0.0078119998797774315],"max":[1,0.9951720237731934],"type":"VEC2","bufferView":2,"byteOffset":60528},{"name":"Archen_1_1_indices","componentType":5123,"count":8796,"min":[0],"max":[8795],"type":"SCALAR","bufferView":3,"byteOffset":15132},{"name":"Archen_1_2_positions","componentType":5126,"count":540,"min":[-9.041230201721191,33.6884765625,0.7606670260429382],"max":[9.04118537902832,47.49468994140625,11.346060752868652],"type":"VEC3","bufferView":0,"byteOffset":196344},{"name":"Archen_1_2_normals","componentType":5126,"count":540,"min":[-0.9295950531959534,-0.999620258808136,-0.997331440448761],"max":[0.7138710618019104,0.6923027634620667,0.995516836643219],"type":"VEC3","bufferView":1,"byteOffset":196344},{"name":"Archen_1_2_texcoords","componentType":5126,"count":540,"min":[0.04255999997258186,-1.9932600259780884],"max":[0.45743998885154724,-1.7552499771118164],"type":"VEC2","bufferView":2,"byteOffset":130896},{"name":"Archen_1_2_indices","componentType":5123,"count":540,"min":[0],"max":[539],"type":"SCALAR","bufferView":3,"byteOffset":32724},{"name":"Archen_1_3_positions","componentType":5126,"count":540,"min":[-9.24114990234375,33.62397384643555,0.735031008720398],"max":[9.241105079650879,47.64019012451172,11.370262145996094],"type":"VEC3","bufferView":0,"byteOffset":202824},{"name":"Archen_1_3_normals","componentType":5126,"count":540,"min":[-0.7528353929519653,-0.9999569058418274,-0.9857729077339172],"max":[0.7214792966842651,0.008772996254265308,0.9913482069969177],"type":"VEC3","bufferView":1,"byteOffset":202824},{"name":"Archen_1_3_texcoords","componentType":5126,"count":540,"min":[0.17023999989032745,-1.9730240106582642],"max":[0.8618839979171753,-1.0209879875183105],"type":"VEC2","bufferView":2,"byteOffset":135216},{"name":"Archen_1_3_indices","componentType":5123,"count":540,"min":[0],"max":[539],"type":"SCALAR","bufferView":3,"byteOffset":33804}],"asset":{"generator":"obj2gltf","version":"2.0"},"buffers":[{"name":"XY_Archen","byteLength":740180,"uri":"data:application/octet-stream;base64,"}],"bufferViews":[{"name":"bufferView_0","buffer":0,"byteLength":209304,"byteOffset":0,"byteStride":12,"target":34962},{"name":"bufferView_1","buffer":0,"byteLength":209304,"byteOffset":209304,"byteStride":12,"target":34962},{"name":"bufferView_2","buffer":0,"byteLength":139536,"byteOffset":418608,"byteStride":8,"target":34962},{"name":"bufferView_3","buffer":0,"byteLength":34884,"byteOffset":558144,"target":34963},{"buffer":0,"byteOffset":593028,"byteLength":48719},{"buffer":0,"byteOffset":641747,"byteLength":63446},{"buffer":0,"byteOffset":705193,"byteLength":33909},{"buffer":0,"byteOffset":739102,"byteLength":1077}],"images":[{"name":"pm0566_00_BodyB1","mimeType":"image/png","bufferView":4},{"name":"pm0566_00_BodyA1","mimeType":"image/png","bufferView":5},{"name":"pm0566_00_Eye1","mimeType":"image/png","bufferView":6},{"name":"pm0566_00_Iris1","mimeType":"image/png","bufferView":7}],"materials":[{"name":"Material__49","pbrMetallicRoughness":{"baseColorTexture":{"index":0},"baseColorFactor":[1,1,1,1],"metallicFactor":0,"roughnessFactor":0.998},"emissiveFactor":[0,0,0],"alphaMode":"OPAQUE","doubleSided":false},{"name":"Material__50","pbrMetallicRoughness":{"baseColorTexture":{"index":1},"baseColorFactor":[1,1,1,1],"metallicFactor":0,"roughnessFactor":0.998},"emissiveFactor":[0,0,0],"alphaMode":"OPAQUE","doubleSided":false},{"name":"Material__51","pbrMetallicRoughness":{"baseColorTexture":{"index":2},"baseColorFactor":[1,1,1,1],"metallicFactor":0,"roughnessFactor":0.998},"emissiveFactor":[0,0,0],"alphaMode":"OPAQUE","doubleSided":false},{"name":"Material__52","pbrMetallicRoughness":{"baseColorTexture":{"index":3},"baseColorFactor":[1,1,1,1],"metallicFactor":0,"roughnessFactor":0.998},"emissiveFactor":[0,0,0],"alphaMode":"OPAQUE","doubleSided":false}],"meshes":[{"name":"Archen_1","primitives":[{"attributes":{"POSITION":0,"NORMAL":1,"TEXCOORD_0":2},"indices":3,"material":0,"mode":4},{"attributes":{"POSITION":4,"NORMAL":5,"TEXCOORD_0":6},"indices":7,"material":1,"mode":4},{"attributes":{"POSITION":8,"NORMAL":9,"TEXCOORD_0":10},"indices":11,"material":2,"mode":4},{"attributes":{"POSITION":12,"NORMAL":13,"TEXCOORD_0":14},"indices":15,"material":3,"mode":4}]}],"nodes":[{"name":"Archen","mesh":0}],"samplers":[{"wrapS":10497,"wrapT":10497}],"scene":0,"scenes":[{"nodes":[0]}],"textures":[{"name":"pm0566_00_BodyB1","sampler":0,"source":0},{"name":"pm0566_00_BodyA1","sampler":0,"source":1},{"name":"pm0566_00_Eye1","sampler":0,"source":2},{"name":"pm0566_00_Iris1","sampler":0,"source":3}]}