{"accessors":[{"name":"polygon0_1_0_positions","componentType":5126,"count":690,"min":[-21.838253021240234,-0.0001500000071246177,-7.565399169921875],"max":[18.039867401123047,18.994213104248047,7.93536901473999],"type":"VEC3","bufferView":0,"byteOffset":0},{"name":"polygon0_1_0_normals","componentType":5126,"count":690,"min":[-0.9996243119239807,-0.9999985098838806,-0.9975342750549316],"max":[0.9949709177017212,1,0.998888373374939],"type":"VEC3","bufferView":1,"byteOffset":0},{"name":"polygon0_1_0_texcoords","componentType":5126,"count":690,"min":[0.06842000037431717,0.004852000158280134],"max":[0.9935910105705261,0.9950870275497437],"type":"VEC2","bufferView":2,"byteOffset":0},{"name":"polygon0_1_0_indices","componentType":5123,"count":2991,"min":[0],"max":[689],"type":"SCALAR","bufferView":3,"byteOffset":0},{"name":"polygon1_1_0_positions","componentType":5126,"count":112,"min":[-20.31256675720215,1.2425600290298462,-4.095147132873535],"max":[7.4365057945251465,18.451448440551758,7.848155975341797],"type":"VEC3","bufferView":0,"byteOffset":8280},{"name":"polygon1_1_0_normals","componentType":5126,"count":112,"min":[-0.8988735675811768,-0.993039071559906,-0.9926063418388367],"max":[0.9391469955444336,0.9984827041625977,0.9970043897628784],"type":"VEC3","bufferView":1,"byteOffset":8280},{"name":"polygon1_1_0_texcoords","componentType":5126,"count":112,"min":[0.1241459995508194,0.005615000147372484],"max":[0.9709780216217041,0.9714360237121582],"type":"VEC2","bufferView":2,"byteOffset":5520},{"name":"polygon1_1_0_indices","componentType":5123,"count":288,"min":[0],"max":[111],"type":"SCALAR","bufferView":3,"byteOffset":5984},{"name":"polygon3_1_0_positions","componentType":5126,"count":710,"min":[-23.123416900634766,-9.999999974752427e-7,-14.296627044677734],"max":[21.403207778930664,16.308534622192383,7.123250961303711],"type":"VEC3","bufferView":0,"byteOffset":9624},{"name":"polygon3_1_0_normals","componentType":5126,"count":710,"min":[-1,-1,-1],"max":[1,1,0.9999809861183167],"type":"VEC3","bufferView":1,"byteOffset":9624},{"name":"polygon3_1_0_texcoords","componentType":5126,"count":710,"min":[0.009277000091969967,0.005431999918073416],"max":[0.9941099882125854,0.9923400282859802],"type":"VEC2","bufferView":2,"byteOffset":6416},{"name":"polygon3_1_0_indices","componentType":5123,"count":2493,"min":[0],"max":[709],"type":"SCALAR","bufferView":3,"byteOffset":6560},{"name":"polygon4_1_0_positions","componentType":5126,"count":18,"min":[-3.630439043045044,12.217802047729492,2.079746961593628],"max":[3.630439043045044,14.554422378540039,4.034663200378418],"type":"VEC3","bufferView":0,"byteOffset":18144},{"name":"polygon4_1_0_normals","componentType":5126,"count":18,"min":[-0.6307969689369202,0.5079939365386963,0.49321115016937256],"max":[0.6307969689369202,0.731028139591217,0.7614617943763733],"type":"VEC3","bufferView":1,"byteOffset":18144},{"name":"polygon4_1_0_texcoords","componentType":5126,"count":18,"min":[0.109375,0.0039059999398887157],"max":[0.3867189884185791,0.2421869933605194],"type":"VEC2","bufferView":2,"byteOffset":12096},{"name":"polygon4_1_0_indices","componentType":5123,"count":48,"min":[0],"max":[17],"type":"SCALAR","bufferView":3,"byteOffset":11548}],"asset":{"generator":"obj2gltf","version":"2.0"},"buffers":[{"name":"P2_Garbodor","byteLength":60604,"uri":"data:application/octet-stream;base64,"}],"bufferViews":[{"name":"bufferView_0","buffer":0,"byteLength":18360,"byteOffset":0,"byteStride":12,"target":34962},{"name":"bufferView_1","buffer":0,"byteLength":18360,"byteOffset":18360,"byteStride":12,"target":34962},{"name":"bufferView_2","buffer":0,"byteLength":12240,"byteOffset":36720,"byteStride":8,"target":34962},{"name":"bufferView_3","buffer":0,"byteLength":11644,"byteOffset":48960,"target":34963}],"materials":[{"name":"mat3","pbrMetallicRoughness":{"baseColorFactor":[0.5,0.5,0.5,1],"metallicFactor":0,"roughnessFactor":1},"emissiveFactor":[0,0,0],"alphaMode":"OPAQUE","doubleSided":false},{"name":"mat4","pbrMetallicRoughness":{"baseColorFactor":[0.5,0.5,0.5,1],"metallicFactor":0,"roughnessFactor":1},"emissiveFactor":[0,0,0],"alphaMode":"OPAQUE","doubleSided":false},{"name":"mat1","pbrMetallicRoughness":{"baseColorFactor":[0.5,0.5,0.5,1],"metallicFactor":0,"roughnessFactor":1},"emissiveFactor":[0,0,0],"alphaMode":"OPAQUE","doubleSided":false},{"name":"mat2","pbrMetallicRoughness":{"baseColorFactor":[0.5,0.5,0.5,1],"metallicFactor":0,"roughnessFactor":1},"emissiveFactor":[0,0,0],"alphaMode":"OPAQUE","doubleSided":false}],"meshes":[{"name":"polygon0_1","primitives":[{"attributes":{"POSITION":0,"NORMAL":1,"TEXCOORD_0":2},"indices":3,"material":0,"mode":4}]},{"name":"polygon1_1","primitives":[{"attributes":{"POSITION":4,"NORMAL":5,"TEXCOORD_0":6},"indices":7,"material":1,"mode":4}]},{"name":"polygon3_1","primitives":[{"attributes":{"POSITION":8,"NORMAL":9,"TEXCOORD_0":10},"indices":11,"material":2,"mode":4}]},{"name":"polygon4_1","primitives":[{"attributes":{"POSITION":12,"NORMAL":13,"TEXCOORD_0":14},"indices":15,"material":3,"mode":4}]}],"nodes":[{"name":"polygon0","mesh":0},{"name":"polygon1","mesh":1},{"name":"polygon3","mesh":2},{"name":"polygon4","mesh":3}],"scene":0,"scenes":[{"nodes":[0,1,2,3]}]}