{"accessors":[{"name":"polygon0_1_0_positions","componentType":5126,"count":34,"min":[-1.1992180347442627,2.7362430095672607,2.955043077468872],"max":[1.1992180347442627,3.9627089500427246,3.4144949913024902],"type":"VEC3","bufferView":0,"byteOffset":0},{"name":"polygon0_1_0_normals","componentType":5126,"count":34,"min":[-0.7632904052734375,-0.25014108419418335,0.6434463262557983],"max":[0.7632904052734375,0.2284339815378189,0.9080779552459717],"type":"VEC3","bufferView":1,"byteOffset":0},{"name":"polygon0_1_0_texcoords","componentType":5126,"count":34,"min":[1.0248719453811646,0.025604000315070152],"max":[1.47393798828125,0.23159800469875336],"type":"VEC2","bufferView":2,"byteOffset":0},{"name":"polygon0_1_0_indices","componentType":5123,"count":96,"min":[0],"max":[33],"type":"SCALAR","bufferView":3,"byteOffset":0},{"name":"polygon1_1_0_positions","componentType":5126,"count":958,"min":[-2.6121408939361572,0.012635000050067902,-3.082956075668335],"max":[2.6121408939361572,7.052738189697266,4.203689098358154],"type":"VEC3","bufferView":0,"byteOffset":408},{"name":"polygon1_1_0_normals","componentType":5126,"count":958,"min":[-0.9901856780052185,-0.999976396560669,-0.9981816411018372],"max":[0.9901856780052185,0.9901584386825562,0.996565580368042],"type":"VEC3","bufferView":1,"byteOffset":408},{"name":"polygon1_1_0_texcoords","componentType":5126,"count":958,"min":[0.023621000349521637,0.01574699953198433],"max":[1.98968505859375,0.9788820147514343],"type":"VEC2","bufferView":2,"byteOffset":272},{"name":"polygon1_1_0_indices","componentType":5123,"count":4320,"min":[0],"max":[957],"type":"SCALAR","bufferView":3,"byteOffset":192},{"name":"polygon2_1_0_positions","componentType":5126,"count":21,"min":[-1.1261169910430908,1.9752850532531738,2.3645029067993164],"max":[1.1261169910430908,2.7672269344329834,3.473684072494507],"type":"VEC3","bufferView":0,"byteOffset":11904},{"name":"polygon2_1_0_normals","componentType":5126,"count":21,"min":[-0.7694690823554993,-0.9860210418701172,0.1457020491361618],"max":[0.7694690823554993,0.15917901694774628,0.6431660056114197],"type":"VEC3","bufferView":1,"byteOffset":11904},{"name":"polygon2_1_0_texcoords","componentType":5126,"count":21,"min":[0.029479999095201492,0.03070100024342537],"max":[0.9654240012168884,0.21643100678920746],"type":"VEC2","bufferView":2,"byteOffset":7936},{"name":"polygon2_1_0_indices","componentType":5123,"count":66,"min":[0],"max":[20],"type":"SCALAR","bufferView":3,"byteOffset":8832}],"asset":{"generator":"obj2gltf","version":"2.0"},"buffers":[{"name":"P2_Zorua","byteLength":41380,"uri":"data:application/octet-stream;base64,"}],"bufferViews":[{"name":"bufferView_0","buffer":0,"byteLength":12156,"byteOffset":0,"byteStride":12,"target":34962},{"name":"bufferView_1","buffer":0,"byteLength":12156,"byteOffset":12156,"byteStride":12,"target":34962},{"name":"bufferView_2","buffer":0,"byteLength":8104,"byteOffset":24312,"byteStride":8,"target":34962},{"name":"bufferView_3","buffer":0,"byteLength":8964,"byteOffset":32416,"target":34963}],"materials":[{"name":"mat2","pbrMetallicRoughness":{"baseColorFactor":[0.5,0.5,0.5,1],"metallicFactor":0,"roughnessFactor":1},"emissiveFactor":[0,0,0],"alphaMode":"OPAQUE","doubleSided":false},{"name":"mat1","pbrMetallicRoughness":{"baseColorFactor":[0.5,0.5,0.5,1],"metallicFactor":0,"roughnessFactor":1},"emissiveFactor":[0,0,0],"alphaMode":"OPAQUE","doubleSided":false},{"name":"mat3","pbrMetallicRoughness":{"baseColorFactor":[0.5,0.5,0.5,1],"metallicFactor":0,"roughnessFactor":1},"emissiveFactor":[0,0,0],"alphaMode":"OPAQUE","doubleSided":false}],"meshes":[{"name":"polygon0_1","primitives":[{"attributes":{"POSITION":0,"NORMAL":1,"TEXCOORD_0":2},"indices":3,"material":0,"mode":4}]},{"name":"polygon1_1","primitives":[{"attributes":{"POSITION":4,"NORMAL":5,"TEXCOORD_0":6},"indices":7,"material":1,"mode":4}]},{"name":"polygon2_1","primitives":[{"attributes":{"POSITION":8,"NORMAL":9,"TEXCOORD_0":10},"indices":11,"material":2,"mode":4}]}],"nodes":[{"name":"polygon0","mesh":0},{"name":"polygon1","mesh":1},{"name":"polygon2","mesh":2}],"scene":0,"scenes":[{"nodes":[0,1,2]}]}