{"accessors":[{"name":"polygon0_1_0_positions","componentType":5126,"count":1421,"min":[-7.037993907928467,-0.023065999150276184,-21.37181854248047],"max":[7.03799295425415,16.480792999267578,2.4488580226898193],"type":"VEC3","bufferView":0,"byteOffset":0},{"name":"polygon0_1_0_normals","componentType":5126,"count":1421,"min":[-0.9980605840682983,-0.9999921321868896,-0.9999718070030212],"max":[0.9980605840682983,0.9965843558311462,0.999998927116394],"type":"VEC3","bufferView":1,"byteOffset":0},{"name":"polygon0_1_0_texcoords","componentType":5126,"count":1421,"min":[0.007720999885350466,0.01278700027614832],"max":[0.9915770292282104,0.9856870174407959],"type":"VEC2","bufferView":2,"byteOffset":0},{"name":"polygon0_1_0_indices","componentType":5123,"count":5946,"min":[0],"max":[1420],"type":"SCALAR","bufferView":3,"byteOffset":0},{"name":"polygon1_1_0_positions","componentType":5126,"count":18,"min":[-0.9905850291252136,12.263541221618652,0.058097999542951584],"max":[0.9905850291252136,13.233858108520508,1.954725980758667],"type":"VEC3","bufferView":0,"byteOffset":17052},{"name":"polygon1_1_0_normals","componentType":5126,"count":18,"min":[-0.9616951942443848,-0.2189939320087433,0.10096903145313263],"max":[0.9616951942443848,0.7821442484855652,0.5560072660446167],"type":"VEC3","bufferView":1,"byteOffset":17052},{"name":"polygon1_1_0_texcoords","componentType":5126,"count":18,"min":[0.015625,0.019531000405550003],"max":[0.4804689884185791,0.2226559966802597],"type":"VEC2","bufferView":2,"byteOffset":11368},{"name":"polygon1_1_0_indices","componentType":5123,"count":42,"min":[0],"max":[17],"type":"SCALAR","bufferView":3,"byteOffset":11892},{"name":"polygon2_1_0_positions","componentType":5126,"count":32,"min":[-0.655007004737854,11.775580406188965,-12.923921585083008],"max":[0.655007004737854,13.152764320373535,-11.760205268859863],"type":"VEC3","bufferView":0,"byteOffset":17268},{"name":"polygon2_1_0_normals","componentType":5126,"count":32,"min":[-0.9999753832817078,-0.9999926090240479,-0.8402669429779053],"max":[0.9999749660491943,1,0.8437921404838562],"type":"VEC3","bufferView":1,"byteOffset":17268},{"name":"polygon2_1_0_texcoords","componentType":5126,"count":32,"min":[0.14529399573802948,0.6066889762878418],"max":[0.209990993142128,0.6859440207481384],"type":"VEC2","bufferView":2,"byteOffset":11512},{"name":"polygon2_1_0_indices","componentType":5123,"count":168,"min":[0],"max":[31],"type":"SCALAR","bufferView":3,"byteOffset":11976}],"asset":{"generator":"obj2gltf","version":"2.0"},"buffers":[{"name":"P2_Zoroark","byteLength":59384,"uri":"data:application/octet-stream;base64,"}],"bufferViews":[{"name":"bufferView_0","buffer":0,"byteLength":17652,"byteOffset":0,"byteStride":12,"target":34962},{"name":"bufferView_1","buffer":0,"byteLength":17652,"byteOffset":17652,"byteStride":12,"target":34962},{"name":"bufferView_2","buffer":0,"byteLength":11768,"byteOffset":35304,"byteStride":8,"target":34962},{"name":"bufferView_3","buffer":0,"byteLength":12312,"byteOffset":47072,"target":34963}],"materials":[{"name":"mat1","pbrMetallicRoughness":{"baseColorFactor":[0.5,0.5,0.5,1],"metallicFactor":0,"roughnessFactor":1},"emissiveFactor":[0,0,0],"alphaMode":"OPAQUE","doubleSided":false},{"name":"mat2","pbrMetallicRoughness":{"baseColorFactor":[0.5,0.5,0.5,1],"metallicFactor":0,"roughnessFactor":1},"emissiveFactor":[0,0,0],"alphaMode":"OPAQUE","doubleSided":false}],"meshes":[{"name":"polygon0_1","primitives":[{"attributes":{"POSITION":0,"NORMAL":1,"TEXCOORD_0":2},"indices":3,"material":0,"mode":4}]},{"name":"polygon1_1","primitives":[{"attributes":{"POSITION":4,"NORMAL":5,"TEXCOORD_0":6},"indices":7,"material":1,"mode":4}]},{"name":"polygon2_1","primitives":[{"attributes":{"POSITION":8,"NORMAL":9,"TEXCOORD_0":10},"indices":11,"material":0,"mode":4}]}],"nodes":[{"name":"polygon0","mesh":0},{"name":"polygon1","mesh":1},{"name":"polygon2","mesh":2}],"scene":0,"scenes":[{"nodes":[0,1,2]}]}