{"accessors":[{"name":"polygon0_1_0_positions","componentType":5126,"count":490,"min":[-4.501923084259033,0.14393199980258942,-5.497010231018066],"max":[4.790316104888916,4.4902729988098145,1.207406997680664],"type":"VEC3","bufferView":0,"byteOffset":0},{"name":"polygon0_1_0_normals","componentType":5126,"count":490,"min":[-0.9982067346572876,-0.9999997615814209,-0.9997624158859253],"max":[0.9988980889320374,0.9999291896820068,0.9993968605995178],"type":"VEC3","bufferView":1,"byteOffset":0},{"name":"polygon0_1_0_texcoords","componentType":5126,"count":490,"min":[0.23721300065517426,0.6257320046424866],"max":[0.9768980145454407,0.9956049919128418],"type":"VEC2","bufferView":2,"byteOffset":0},{"name":"polygon0_1_0_indices","componentType":5123,"count":2385,"min":[0],"max":[489],"type":"SCALAR","bufferView":3,"byteOffset":0},{"name":"polygon1_1_0_positions","componentType":5126,"count":12,"min":[-0.3235729932785034,1.8884379863739014,0.6138989925384521],"max":[0.3235729932785034,2.2642219066619873,0.989080011844635],"type":"VEC3","bufferView":0,"byteOffset":5880},{"name":"polygon1_1_0_normals","componentType":5126,"count":12,"min":[-0.31155097484588623,-0.8965545296669006,0.4246837794780731],"max":[0.31155097484588623,-0.09334101527929306,0.9956341981887817],"type":"VEC3","bufferView":1,"byteOffset":5880},{"name":"polygon1_1_0_texcoords","componentType":5126,"count":12,"min":[-0.9891970157623291,0.03308099880814552],"max":[-0.6381840109825134,0.22198499739170074],"type":"VEC2","bufferView":2,"byteOffset":3920},{"name":"polygon1_1_0_indices","componentType":5123,"count":36,"min":[0],"max":[11],"type":"SCALAR","bufferView":3,"byteOffset":4772},{"name":"polygon2_1_0_positions","componentType":5126,"count":648,"min":[-2.348813056945801,-0.004954000003635883,-1.0424269437789917],"max":[2.3488121032714844,4.483521938323975,0.989080011844635],"type":"VEC3","bufferView":0,"byteOffset":6024},{"name":"polygon2_1_0_normals","componentType":5126,"count":648,"min":[-0.9985854029655457,-0.996654748916626,-0.9884376525878906],"max":[0.9985854029655457,0.9960797429084778,0.9993530511856079],"type":"VEC3","bufferView":1,"byteOffset":6024},{"name":"polygon2_1_0_texcoords","componentType":5126,"count":648,"min":[0.006378000136464834,0.0025019999593496323],"max":[0.9943850040435791,0.9624019861221313],"type":"VEC2","bufferView":2,"byteOffset":4016},{"name":"polygon2_1_0_indices","componentType":5123,"count":2940,"min":[0],"max":[647],"type":"SCALAR","bufferView":3,"byteOffset":4844},{"name":"polygon3_1_0_positions","componentType":5126,"count":24,"min":[-0.8205580115318298,2.239720106124878,0.525933027267456],"max":[0.8205580115318298,2.928471088409424,0.9476869702339172],"type":"VEC3","bufferView":0,"byteOffset":13800},{"name":"polygon3_1_0_normals","componentType":5126,"count":24,"min":[-0.8001697063446045,-0.19372493028640747,0.5361303687095642],"max":[0.8001697063446045,0.5760019421577454,0.9469678401947021],"type":"VEC3","bufferView":1,"byteOffset":13800},{"name":"polygon3_1_0_texcoords","componentType":5126,"count":24,"min":[1.089447021484375,0.010254000313580036],"max":[1.406646966934204,0.21249400079250336],"type":"VEC2","bufferView":2,"byteOffset":9200},{"name":"polygon3_1_0_indices","componentType":5123,"count":72,"min":[0],"max":[23],"type":"SCALAR","bufferView":3,"byteOffset":10724}],"asset":{"generator":"obj2gltf","version":"2.0"},"buffers":[{"name":"P2_CinccinoFR","byteLength":48436,"uri":"data:application/octet-stream;base64,"}],"bufferViews":[{"name":"bufferView_0","buffer":0,"byteLength":14088,"byteOffset":0,"byteStride":12,"target":34962},{"name":"bufferView_1","buffer":0,"byteLength":14088,"byteOffset":14088,"byteStride":12,"target":34962},{"name":"bufferView_2","buffer":0,"byteLength":9392,"byteOffset":28176,"byteStride":8,"target":34962},{"name":"bufferView_3","buffer":0,"byteLength":10868,"byteOffset":37568,"target":34963}],"materials":[{"name":"mat2","pbrMetallicRoughness":{"baseColorFactor":[0.5,0.5,0.5,1],"metallicFactor":0,"roughnessFactor":1},"emissiveFactor":[0,0,0],"alphaMode":"OPAQUE","doubleSided":false},{"name":"mat4","pbrMetallicRoughness":{"baseColorFactor":[0.5,0.5,0.5,1],"metallicFactor":0,"roughnessFactor":1},"emissiveFactor":[0,0,0],"alphaMode":"OPAQUE","doubleSided":false},{"name":"mat1","pbrMetallicRoughness":{"baseColorFactor":[0.5,0.5,0.5,1],"metallicFactor":0,"roughnessFactor":1},"emissiveFactor":[0,0,0],"alphaMode":"OPAQUE","doubleSided":false},{"name":"mat3","pbrMetallicRoughness":{"baseColorFactor":[0.5,0.5,0.5,1],"metallicFactor":0,"roughnessFactor":1},"emissiveFactor":[0,0,0],"alphaMode":"OPAQUE","doubleSided":false}],"meshes":[{"name":"polygon0_1","primitives":[{"attributes":{"POSITION":0,"NORMAL":1,"TEXCOORD_0":2},"indices":3,"material":0,"mode":4}]},{"name":"polygon1_1","primitives":[{"attributes":{"POSITION":4,"NORMAL":5,"TEXCOORD_0":6},"indices":7,"material":1,"mode":4}]},{"name":"polygon2_1","primitives":[{"attributes":{"POSITION":8,"NORMAL":9,"TEXCOORD_0":10},"indices":11,"material":2,"mode":4}]},{"name":"polygon3_1","primitives":[{"attributes":{"POSITION":12,"NORMAL":13,"TEXCOORD_0":14},"indices":15,"material":3,"mode":4}]}],"nodes":[{"name":"polygon0","mesh":0},{"name":"polygon1","mesh":1},{"name":"polygon2","mesh":2},{"name":"polygon3","mesh":3}],"scene":0,"scenes":[{"nodes":[0,1,2,3]}]}