{"accessors":[{"name":"polygon0_1_0_positions","componentType":5126,"count":22,"min":[-1.1341869831085205,4.158875942230225,0.44145500659942627],"max":[1.1341869831085205,5.005550861358643,1.2710590362548828],"type":"VEC3","bufferView":0,"byteOffset":0},{"name":"polygon0_1_0_normals","componentType":5126,"count":22,"min":[-0.8787511587142944,-0.6310387253761292,0.290525883436203],"max":[0.8787511587142944,-0.05352796986699104,0.9761582016944885],"type":"VEC3","bufferView":1,"byteOffset":0},{"name":"polygon0_1_0_texcoords","componentType":5126,"count":22,"min":[0.04296899959445,0.03515600040555],"max":[0.4765630066394806,0.2070309966802597],"type":"VEC2","bufferView":2,"byteOffset":0},{"name":"polygon0_1_0_indices","componentType":5123,"count":66,"min":[0],"max":[21],"type":"SCALAR","bufferView":3,"byteOffset":0},{"name":"polygon1_1_0_positions","componentType":5126,"count":965,"min":[-3.150207996368408,0.015639999881386757,-1.3914239406585693],"max":[3.1502089500427246,6.951869964599609,1.289891004562378],"type":"VEC3","bufferView":0,"byteOffset":264},{"name":"polygon1_1_0_normals","componentType":5126,"count":965,"min":[-0.9998660683631897,-0.9999718070030212,-0.9997205138206482],"max":[0.9998660683631897,0.9998032450675964,0.9999909400939941],"type":"VEC3","bufferView":1,"byteOffset":264},{"name":"polygon1_1_0_texcoords","componentType":5126,"count":965,"min":[0.005950999911874533,0.0057680001482367516],"max":[0.9954220056533813,0.9949949979782104],"type":"VEC2","bufferView":2,"byteOffset":176},{"name":"polygon1_1_0_indices","componentType":5123,"count":4428,"min":[0],"max":[964],"type":"SCALAR","bufferView":3,"byteOffset":132}],"asset":{"generator":"obj2gltf","version":"2.0"},"buffers":[{"name":"P2_Gothorita","byteLength":40572,"uri":"data:application/octet-stream;base64,"}],"bufferViews":[{"name":"bufferView_0","buffer":0,"byteLength":11844,"byteOffset":0,"byteStride":12,"target":34962},{"name":"bufferView_1","buffer":0,"byteLength":11844,"byteOffset":11844,"byteStride":12,"target":34962},{"name":"bufferView_2","buffer":0,"byteLength":7896,"byteOffset":23688,"byteStride":8,"target":34962},{"name":"bufferView_3","buffer":0,"byteLength":8988,"byteOffset":31584,"target":34963}],"materials":[{"name":"mat2","pbrMetallicRoughness":{"baseColorFactor":[0.5,0.5,0.5,1],"metallicFactor":0,"roughnessFactor":1},"emissiveFactor":[0,0,0],"alphaMode":"OPAQUE","doubleSided":false},{"name":"mat1","pbrMetallicRoughness":{"baseColorFactor":[0.5,0.5,0.5,1],"metallicFactor":0,"roughnessFactor":1},"emissiveFactor":[0,0,0],"alphaMode":"OPAQUE","doubleSided":false}],"meshes":[{"name":"polygon0_1","primitives":[{"attributes":{"POSITION":0,"NORMAL":1,"TEXCOORD_0":2},"indices":3,"material":0,"mode":4}]},{"name":"polygon1_1","primitives":[{"attributes":{"POSITION":4,"NORMAL":5,"TEXCOORD_0":6},"indices":7,"material":1,"mode":4}]}],"nodes":[{"name":"polygon0","mesh":0},{"name":"polygon1","mesh":1}],"scene":0,"scenes":[{"nodes":[0,1]}]}