{"accessors":[{"name":"polygon0_1_0_positions","componentType":5126,"count":24,"min":[-1.5060640573501587,10.995211601257324,0.9137549996376038],"max":[1.5060640573501587,11.834127426147461,1.8355849981307983],"type":"VEC3","bufferView":0,"byteOffset":0},{"name":"polygon0_1_0_normals","componentType":5126,"count":24,"min":[-0.8477308750152588,-0.6054677963256836,0.456175833940506],"max":[0.8477308750152588,0.029296988621354103,0.9784086346626282],"type":"VEC3","bufferView":1,"byteOffset":0},{"name":"polygon0_1_0_texcoords","componentType":5126,"count":24,"min":[0.008117999881505966,0.06448400020599365],"max":[0.5022580027580261,0.23013299703598022],"type":"VEC2","bufferView":2,"byteOffset":0},{"name":"polygon0_1_0_indices","componentType":5123,"count":72,"min":[0],"max":[23],"type":"SCALAR","bufferView":3,"byteOffset":0},{"name":"polygon1_1_0_positions","componentType":5126,"count":1360,"min":[-6.145503044128418,-0.0036239998880773783,-5.188488006591797],"max":[6.145502090454102,14.93017864227295,2.3738698959350586],"type":"VEC3","bufferView":0,"byteOffset":288},{"name":"polygon1_1_0_normals","componentType":5126,"count":1360,"min":[-1,-1,-1],"max":[1,1,1],"type":"VEC3","bufferView":1,"byteOffset":288},{"name":"polygon1_1_0_texcoords","componentType":5126,"count":1360,"min":[0.006347999908030033,0.00534099992364645],"max":[0.9952390193939209,0.9950870275497437],"type":"VEC2","bufferView":2,"byteOffset":192},{"name":"polygon1_1_0_indices","componentType":5123,"count":5028,"min":[0],"max":[1359],"type":"SCALAR","bufferView":3,"byteOffset":144}],"asset":{"generator":"obj2gltf","version":"2.0"},"buffers":[{"name":"P2_Gothitelle","byteLength":54488,"uri":"data:application/octet-stream;base64,"}],"bufferViews":[{"name":"bufferView_0","buffer":0,"byteLength":16608,"byteOffset":0,"byteStride":12,"target":34962},{"name":"bufferView_1","buffer":0,"byteLength":16608,"byteOffset":16608,"byteStride":12,"target":34962},{"name":"bufferView_2","buffer":0,"byteLength":11072,"byteOffset":33216,"byteStride":8,"target":34962},{"name":"bufferView_3","buffer":0,"byteLength":10200,"byteOffset":44288,"target":34963}],"materials":[{"name":"mat2","pbrMetallicRoughness":{"baseColorFactor":[0.5,0.5,0.5,1],"metallicFactor":0,"roughnessFactor":1},"emissiveFactor":[0,0,0],"alphaMode":"OPAQUE","doubleSided":false},{"name":"mat1","pbrMetallicRoughness":{"baseColorFactor":[0.5,0.5,0.5,1],"metallicFactor":0,"roughnessFactor":1},"emissiveFactor":[0,0,0],"alphaMode":"OPAQUE","doubleSided":false}],"meshes":[{"name":"polygon0_1","primitives":[{"attributes":{"POSITION":0,"NORMAL":1,"TEXCOORD_0":2},"indices":3,"material":0,"mode":4}]},{"name":"polygon1_1","primitives":[{"attributes":{"POSITION":4,"NORMAL":5,"TEXCOORD_0":6},"indices":7,"material":1,"mode":4}]}],"nodes":[{"name":"polygon0","mesh":0},{"name":"polygon1","mesh":1}],"scene":0,"scenes":[{"nodes":[0,1]}]}