{"accessors":[{"name":"polygon0_1_0_positions","componentType":5126,"count":1245,"min":[-14.82790756225586,-0.006909000221639872,-4.6280059814453125],"max":[14.827909469604492,10.603636741638184,9.892074584960938],"type":"VEC3","bufferView":0,"byteOffset":0},{"name":"polygon0_1_0_normals","componentType":5126,"count":1245,"min":[-0.9999909400939941,-0.999985933303833,-0.9987471699714661],"max":[0.9999909400939941,0.9999988675117493,0.9999903440475464],"type":"VEC3","bufferView":1,"byteOffset":0},{"name":"polygon0_1_0_texcoords","componentType":5126,"count":1245,"min":[0.02059900015592575,0.016112999990582466],"max":[0.9827269911766052,0.9983519911766052],"type":"VEC2","bufferView":2,"byteOffset":0},{"name":"polygon0_1_0_indices","componentType":5123,"count":4794,"min":[0],"max":[1244],"type":"SCALAR","bufferView":3,"byteOffset":0},{"name":"polygon1_1_0_positions","componentType":5126,"count":19,"min":[-0.7443879842758179,7.782995223999023,8.126154899597168],"max":[0.7443879842758179,8.994502067565918,9.072794914245605],"type":"VEC3","bufferView":0,"byteOffset":14940},{"name":"polygon1_1_0_normals","componentType":5126,"count":19,"min":[-0.9900709986686707,-0.742475152015686,-0.4310030937194824],"max":[0.9900709986686707,0.2955910861492157,0.8209661245346069],"type":"VEC3","bufferView":1,"byteOffset":14940},{"name":"polygon1_1_0_texcoords","componentType":5126,"count":19,"min":[0.046875,0.05859399959445],"max":[0.4609380066394806,0.2109369933605194],"type":"VEC2","bufferView":2,"byteOffset":9960},{"name":"polygon1_1_0_indices","componentType":5123,"count":48,"min":[0],"max":[18],"type":"SCALAR","bufferView":3,"byteOffset":9588}],"asset":{"generator":"obj2gltf","version":"2.0"},"buffers":[{"name":"P2_Swanna","byteLength":50132,"uri":"data:application/octet-stream;base64,"}],"bufferViews":[{"name":"bufferView_0","buffer":0,"byteLength":15168,"byteOffset":0,"byteStride":12,"target":34962},{"name":"bufferView_1","buffer":0,"byteLength":15168,"byteOffset":15168,"byteStride":12,"target":34962},{"name":"bufferView_2","buffer":0,"byteLength":10112,"byteOffset":30336,"byteStride":8,"target":34962},{"name":"bufferView_3","buffer":0,"byteLength":9684,"byteOffset":40448,"target":34963}],"materials":[{"name":"mat1","pbrMetallicRoughness":{"baseColorFactor":[0.5,0.5,0.5,1],"metallicFactor":0,"roughnessFactor":1},"emissiveFactor":[0,0,0],"alphaMode":"OPAQUE","doubleSided":false},{"name":"mat2","pbrMetallicRoughness":{"baseColorFactor":[0.5,0.5,0.5,1],"metallicFactor":0,"roughnessFactor":1},"emissiveFactor":[0,0,0],"alphaMode":"OPAQUE","doubleSided":false}],"meshes":[{"name":"polygon0_1","primitives":[{"attributes":{"POSITION":0,"NORMAL":1,"TEXCOORD_0":2},"indices":3,"material":0,"mode":4}]},{"name":"polygon1_1","primitives":[{"attributes":{"POSITION":4,"NORMAL":5,"TEXCOORD_0":6},"indices":7,"material":1,"mode":4}]}],"nodes":[{"name":"polygon0","mesh":0},{"name":"polygon1","mesh":1}],"scene":0,"scenes":[{"nodes":[0,1]}]}