{"accessors":[{"name":"Escavalier_1_0_positions","componentType":5126,"count":10152,"min":[-37.919002532958984,11.22580337524414,-39.35430145263672],"max":[37.91889953613281,101.9900131225586,62.886009216308594],"type":"VEC3","bufferView":0,"byteOffset":0},{"name":"Escavalier_1_0_normals","componentType":5126,"count":10152,"min":[-0.9990766644477844,-0.9999593496322632,-0.9997137784957886],"max":[0.9990788102149963,0.9990785717964172,1],"type":"VEC3","bufferView":1,"byteOffset":0},{"name":"Escavalier_1_0_texcoords","componentType":5126,"count":10152,"min":[0.0039059999398887157,-0.4747300148010254],"max":[0.9960939884185791,0.9960939884185791],"type":"VEC2","bufferView":2,"byteOffset":0},{"name":"Escavalier_1_0_indices","componentType":5123,"count":10152,"min":[0],"max":[10151],"type":"SCALAR","bufferView":3,"byteOffset":0},{"name":"Escavalier_1_1_positions","componentType":5126,"count":5328,"min":[-42.895503997802734,-0.0847420021891594,-21.884706497192383],"max":[42.89550018310547,66.10810089111328,20.87639808654785],"type":"VEC3","bufferView":0,"byteOffset":121824},{"name":"Escavalier_1_1_normals","componentType":5126,"count":5328,"min":[-0.9990767240524292,-0.9990787506103516,-1],"max":[0.999076783657074,0.9990785717964172,1],"type":"VEC3","bufferView":1,"byteOffset":121824},{"name":"Escavalier_1_1_texcoords","componentType":5126,"count":5328,"min":[0.009012999944388866,-0.9933000206947327],"max":[0.9909859895706177,-0.007170000113546848],"type":"VEC2","bufferView":2,"byteOffset":81216},{"name":"Escavalier_1_1_indices","componentType":5123,"count":5328,"min":[0],"max":[5327],"type":"SCALAR","bufferView":3,"byteOffset":20304},{"name":"Escavalier_1_2_positions","componentType":5126,"count":96,"min":[-10.017900466918945,48.91129684448242,0.433102011680603],"max":[10.017900466918945,58.8307991027832,18.135700225830078],"type":"VEC3","bufferView":0,"byteOffset":185760},{"name":"Escavalier_1_2_normals","componentType":5126,"count":96,"min":[-0.43688926100730896,-0.9605817794799805,-0.6021870970726013],"max":[0.929315984249115,0.958378255367279,0.08026199042797089],"type":"VEC3","bufferView":1,"byteOffset":185760},{"name":"Escavalier_1_2_texcoords","componentType":5126,"count":96,"min":[0.010405000299215317,-1.9617999792099],"max":[0.4896000027656555,-1.7894099950790405],"type":"VEC2","bufferView":2,"byteOffset":123840},{"name":"Escavalier_1_2_indices","componentType":5123,"count":96,"min":[0],"max":[95],"type":"SCALAR","bufferView":3,"byteOffset":30960},{"name":"Escavalier_1_3_positions","componentType":5126,"count":96,"min":[-10.113200187683105,48.84199905395508,0.4147759974002838],"max":[10.113200187683105,58.80350112915039,18.16559600830078],"type":"VEC3","bufferView":0,"byteOffset":186912},{"name":"Escavalier_1_3_normals","componentType":5126,"count":96,"min":[0.20948196947574615,-0.15312297642230988,-0.5682579874992371],"max":[0.994468092918396,0.958378255367279,0.16906698048114777],"type":"VEC3","bufferView":1,"byteOffset":186912},{"name":"Escavalier_1_3_texcoords","componentType":5126,"count":96,"min":[0.041600000113248825,-1.8472000360488892],"max":[0.9634919762611389,-1.157639980316162],"type":"VEC2","bufferView":2,"byteOffset":124608},{"name":"Escavalier_1_3_indices","componentType":5123,"count":96,"min":[0],"max":[95],"type":"SCALAR","bufferView":3,"byteOffset":31152}],"asset":{"generator":"obj2gltf","version":"2.0"},"buffers":[{"name":"XY_Escavalier","byteLength":657740,"uri":"data:application/octet-stream;base64,"}],"bufferViews":[{"name":"bufferView_0","buffer":0,"byteLength":188064,"byteOffset":0,"byteStride":12,"target":34962},{"name":"bufferView_1","buffer":0,"byteLength":188064,"byteOffset":188064,"byteStride":12,"target":34962},{"name":"bufferView_2","buffer":0,"byteLength":125376,"byteOffset":376128,"byteStride":8,"target":34962},{"name":"bufferView_3","buffer":0,"byteLength":31344,"byteOffset":501504,"target":34963},{"buffer":0,"byteOffset":532848,"byteLength":60189},{"buffer":0,"byteOffset":593037,"byteLength":44257},{"buffer":0,"byteOffset":637294,"byteLength":18937},{"buffer":0,"byteOffset":656231,"byteLength":1509}],"images":[{"name":"pm0589_00_BodyA1","mimeType":"image/png","bufferView":4},{"name":"pm0589_00_BodyB1","mimeType":"image/png","bufferView":5},{"name":"pm0589_00_Eye1","mimeType":"image/png","bufferView":6},{"name":"pm0589_00_Iris1","mimeType":"image/png","bufferView":7}],"materials":[{"name":"Material__72","pbrMetallicRoughness":{"baseColorTexture":{"index":0},"baseColorFactor":[1,1,1,1],"metallicFactor":0,"roughnessFactor":0.998},"emissiveFactor":[0,0,0],"alphaMode":"OPAQUE","doubleSided":false},{"name":"Material__73","pbrMetallicRoughness":{"baseColorTexture":{"index":1},"baseColorFactor":[1,1,1,1],"metallicFactor":0,"roughnessFactor":0.998},"emissiveFactor":[0,0,0],"alphaMode":"OPAQUE","doubleSided":false},{"name":"Material__74","pbrMetallicRoughness":{"baseColorTexture":{"index":2},"baseColorFactor":[1,1,1,1],"metallicFactor":0,"roughnessFactor":0.998},"emissiveFactor":[0,0,0],"alphaMode":"OPAQUE","doubleSided":false},{"name":"Material__75","pbrMetallicRoughness":{"baseColorTexture":{"index":3},"baseColorFactor":[1,1,1,1],"metallicFactor":0,"roughnessFactor":0.998},"emissiveFactor":[0,0,0],"alphaMode":"OPAQUE","doubleSided":false}],"meshes":[{"name":"Escavalier_1","primitives":[{"attributes":{"POSITION":0,"NORMAL":1,"TEXCOORD_0":2},"indices":3,"material":0,"mode":4},{"attributes":{"POSITION":4,"NORMAL":5,"TEXCOORD_0":6},"indices":7,"material":1,"mode":4},{"attributes":{"POSITION":8,"NORMAL":9,"TEXCOORD_0":10},"indices":11,"material":2,"mode":4},{"attributes":{"POSITION":12,"NORMAL":13,"TEXCOORD_0":14},"indices":15,"material":3,"mode":4}]}],"nodes":[{"name":"Escavalier","mesh":0}],"samplers":[{"wrapS":10497,"wrapT":10497}],"scene":0,"scenes":[{"nodes":[0]}],"textures":[{"name":"pm0589_00_BodyA1","sampler":0,"source":0},{"name":"pm0589_00_BodyB1","sampler":0,"source":1},{"name":"pm0589_00_Eye1","sampler":0,"source":2},{"name":"pm0589_00_Iris1","sampler":0,"source":3}]}