{"accessors":[{"name":"polygon0_1_0_positions","componentType":5126,"count":506,"min":[-8.362415313720703,-0.8995310068130493,-8.793343544006348],"max":[8.362808227539062,8.703634262084961,8.632355690002441],"type":"VEC3","bufferView":0,"byteOffset":0},{"name":"polygon0_1_0_normals","componentType":5126,"count":506,"min":[-0.9681618809700012,-1,-0.996451735496521],"max":[0.9681620597839355,1,0.9667776226997375],"type":"VEC3","bufferView":1,"byteOffset":0},{"name":"polygon0_1_0_texcoords","componentType":5126,"count":506,"min":[0.009398999623954296,0.07479900121688843],"max":[0.9935610294342041,0.9932249784469604],"type":"VEC2","bufferView":2,"byteOffset":0},{"name":"polygon0_1_0_indices","componentType":5123,"count":1608,"min":[0],"max":[505],"type":"SCALAR","bufferView":3,"byteOffset":0},{"name":"polygon1_1_0_positions","componentType":5126,"count":14,"min":[-4.076466083526611,5.741519927978516,4.916565895080566],"max":[4.076858997344971,6.857577800750732,7.024023056030273],"type":"VEC3","bufferView":0,"byteOffset":6072},{"name":"polygon1_1_0_normals","componentType":5126,"count":14,"min":[-0.313900887966156,0.7643342018127441,0.5101267695426941],"max":[0.313899964094162,0.8007729053497314,0.6196380853652954],"type":"VEC3","bufferView":1,"byteOffset":6072},{"name":"polygon1_1_0_texcoords","componentType":5126,"count":14,"min":[-0.9779049754142761,0.012085000053048134],"max":[-0.5168460011482239,0.23449699580669403],"type":"VEC2","bufferView":2,"byteOffset":4048},{"name":"polygon1_1_0_indices","componentType":5123,"count":30,"min":[0],"max":[13],"type":"SCALAR","bufferView":3,"byteOffset":3216},{"name":"polygon2_1_0_positions","componentType":5126,"count":13,"min":[-1.0260599851608276,8.422460556030273,-1.0262579917907715],"max":[1.026455044746399,10.782530784606934,1.026257038116455],"type":"VEC3","bufferView":0,"byteOffset":6240},{"name":"polygon2_1_0_normals","componentType":5126,"count":13,"min":[-0.9150862693786621,0.4032581150531769,-0.9150859117507935],"max":[0.9150862693786621,1,0.9150862693786621],"type":"VEC3","bufferView":1,"byteOffset":6240},{"name":"polygon2_1_0_texcoords","componentType":5126,"count":13,"min":[0.203125,0.0742190033197403],"max":[0.3359380066394806,0.140625],"type":"VEC2","bufferView":2,"byteOffset":4160},{"name":"polygon2_1_0_indices","componentType":5123,"count":36,"min":[0],"max":[12],"type":"SCALAR","bufferView":3,"byteOffset":3276},{"name":"polygon3_1_0_positions","componentType":5126,"count":97,"min":[-6.554626941680908,25.019956588745117,-1.7158139944076538],"max":[0.4193660020828247,27.75477409362793,5.258180141448975],"type":"VEC3","bufferView":0,"byteOffset":6396},{"name":"polygon3_1_0_normals","componentType":5126,"count":97,"min":[-0.8872519731521606,0.39530080556869507,-0.887259304523468],"max":[0.8872379660606384,1,0.8872469067573547],"type":"VEC3","bufferView":1,"byteOffset":6396},{"name":"polygon3_1_0_texcoords","componentType":5126,"count":97,"min":[0.011718999594449997,0.015625],"max":[0.3710939884185791,0.2929689884185791],"type":"VEC2","bufferView":2,"byteOffset":4264},{"name":"polygon3_1_0_indices","componentType":5123,"count":336,"min":[0],"max":[96],"type":"SCALAR","bufferView":3,"byteOffset":3348},{"name":"polygon4_1_0_positions","componentType":5126,"count":881,"min":[-6.755414009094238,7.867218971252441,-7.059319019317627],"max":[6.755414009094238,25.019960403442383,5.46140193939209],"type":"VEC3","bufferView":0,"byteOffset":7560},{"name":"polygon4_1_0_normals","componentType":5126,"count":881,"min":[-0.9980818033218384,-1,-0.9999783039093018],"max":[0.999879777431488,0.37842196226119995,0.9997665286064148],"type":"VEC3","bufferView":1,"byteOffset":7560},{"name":"polygon4_1_0_texcoords","componentType":5126,"count":881,"min":[0.17767299711704254,0.006194999907165766],"max":[0.983489990234375,0.2842099964618683],"type":"VEC2","bufferView":2,"byteOffset":5040},{"name":"polygon4_1_0_indices","componentType":5123,"count":2664,"min":[0],"max":[880],"type":"SCALAR","bufferView":3,"byteOffset":4020},{"name":"polygon5_1_0_positions","componentType":5126,"count":97,"min":[-3.51419997215271,25.019954681396484,-7.059319019317627],"max":[3.519972085952759,27.75477409362793,-0.0251460000872612],"type":"VEC3","bufferView":0,"byteOffset":18132},{"name":"polygon5_1_0_normals","componentType":5126,"count":97,"min":[-0.8872603178024292,0.3953009843826294,-0.8872566223144531],"max":[0.8872461915016174,1,0.8872500061988831],"type":"VEC3","bufferView":1,"byteOffset":18132},{"name":"polygon5_1_0_texcoords","componentType":5126,"count":97,"min":[0.011718999594449997,0.015625],"max":[0.3710939884185791,0.2929689884185791],"type":"VEC2","bufferView":2,"byteOffset":12088},{"name":"polygon5_1_0_indices","componentType":5123,"count":336,"min":[0],"max":[96],"type":"SCALAR","bufferView":3,"byteOffset":9348},{"name":"polygon7_1_0_positions","componentType":5126,"count":97,"min":[-0.4193679988384247,25.019954681396484,-1.7158130407333374],"max":[6.554625988006592,27.75477409362793,5.258180141448975],"type":"VEC3","bufferView":0,"byteOffset":19296},{"name":"polygon7_1_0_normals","componentType":5126,"count":97,"min":[-0.8872554898262024,0.3953007757663727,-0.8872476816177368],"max":[0.887248158454895,1,0.8872398734092712],"type":"VEC3","bufferView":1,"byteOffset":19296},{"name":"polygon7_1_0_texcoords","componentType":5126,"count":97,"min":[0.011718999594449997,0.015625],"max":[0.3710939884185791,0.2929689884185791],"type":"VEC2","bufferView":2,"byteOffset":12864},{"name":"polygon7_1_0_indices","componentType":5123,"count":336,"min":[0],"max":[96],"type":"SCALAR","bufferView":3,"byteOffset":10020}],"asset":{"generator":"obj2gltf","version":"2.0"},"buffers":[{"name":"P2_Ferrothorn","byteLength":65252,"uri":"data:application/octet-stream;base64,"}],"bufferViews":[{"name":"bufferView_0","buffer":0,"byteLength":20460,"byteOffset":0,"byteStride":12,"target":34962},{"name":"bufferView_1","buffer":0,"byteLength":20460,"byteOffset":20460,"byteStride":12,"target":34962},{"name":"bufferView_2","buffer":0,"byteLength":13640,"byteOffset":40920,"byteStride":8,"target":34962},{"name":"bufferView_3","buffer":0,"byteLength":10692,"byteOffset":54560,"target":34963}],"materials":[{"name":"mat1","pbrMetallicRoughness":{"baseColorFactor":[0.5,0.5,0.5,1],"metallicFactor":0,"roughnessFactor":1},"emissiveFactor":[0,0,0],"alphaMode":"OPAQUE","doubleSided":false},{"name":"mat2","pbrMetallicRoughness":{"baseColorFactor":[0.5,0.5,0.5,1],"metallicFactor":0,"roughnessFactor":1},"emissiveFactor":[0,0,0],"alphaMode":"OPAQUE","doubleSided":false},{"name":"mat3","pbrMetallicRoughness":{"baseColorFactor":[0.5,0.5,0.5,1],"metallicFactor":0,"roughnessFactor":1},"emissiveFactor":[0,0,0],"alphaMode":"OPAQUE","doubleSided":false}],"meshes":[{"name":"polygon0_1","primitives":[{"attributes":{"POSITION":0,"NORMAL":1,"TEXCOORD_0":2},"indices":3,"material":0,"mode":4}]},{"name":"polygon1_1","primitives":[{"attributes":{"POSITION":4,"NORMAL":5,"TEXCOORD_0":6},"indices":7,"material":1,"mode":4}]},{"name":"polygon2_1","primitives":[{"attributes":{"POSITION":8,"NORMAL":9,"TEXCOORD_0":10},"indices":11,"material":2,"mode":4}]},{"name":"polygon3_1","primitives":[{"attributes":{"POSITION":12,"NORMAL":13,"TEXCOORD_0":14},"indices":15,"material":0,"mode":4}]},{"name":"polygon4_1","primitives":[{"attributes":{"POSITION":16,"NORMAL":17,"TEXCOORD_0":18},"indices":19,"material":2,"mode":4}]},{"name":"polygon5_1","primitives":[{"attributes":{"POSITION":20,"NORMAL":21,"TEXCOORD_0":22},"indices":23,"material":0,"mode":4}]},{"name":"polygon7_1","primitives":[{"attributes":{"POSITION":24,"NORMAL":25,"TEXCOORD_0":26},"indices":27,"material":0,"mode":4}]}],"nodes":[{"name":"polygon0","mesh":0},{"name":"polygon1","mesh":1},{"name":"polygon2","mesh":2},{"name":"polygon3","mesh":3},{"name":"polygon4","mesh":4},{"name":"polygon5","mesh":5},{"name":"polygon7","mesh":6}],"scene":0,"scenes":[{"nodes":[0,1,2,3,4,5,6]}]}