{"accessors":[{"name":"polygon0_1_0_positions","componentType":5126,"count":380,"min":[-15.856002807617188,0.727994978427887,-3.506762981414795],"max":[15.856000900268555,7.013648986816406,3.506762981414795],"type":"VEC3","bufferView":0,"byteOffset":0},{"name":"polygon0_1_0_normals","componentType":5126,"count":380,"min":[-0.9999989867210388,-0.99994295835495,-0.9998366236686707],"max":[0.9999982118606567,0.9997794032096863,0.9999522566795349],"type":"VEC3","bufferView":1,"byteOffset":0},{"name":"polygon0_1_0_texcoords","componentType":5126,"count":380,"min":[0.3328549861907959,0.020111000165343285],"max":[0.98956298828125,0.9866030216217041],"type":"VEC2","bufferView":2,"byteOffset":0},{"name":"polygon0_1_0_indices","componentType":5123,"count":1752,"min":[0],"max":[379],"type":"SCALAR","bufferView":3,"byteOffset":0},{"name":"polygon1_1_0_positions","componentType":5126,"count":262,"min":[-20.355297088623047,0.727994978427887,-3.506762981414795],"max":[20.35529327392578,22.87464141845703,3.506762981414795],"type":"VEC3","bufferView":0,"byteOffset":4560},{"name":"polygon1_1_0_normals","componentType":5126,"count":262,"min":[-0.999995231628418,-1,-0.9994942545890808],"max":[0.999995231628418,0.9999985098838806,0.9993645548820496],"type":"VEC3","bufferView":1,"byteOffset":4560},{"name":"polygon1_1_0_texcoords","componentType":5126,"count":262,"min":[0.011657999828457832,0.010192999616265297],"max":[0.29440298676490784,0.9822080135345459],"type":"VEC2","bufferView":2,"byteOffset":3040},{"name":"polygon1_1_0_indices","componentType":5123,"count":1374,"min":[0],"max":[261],"type":"SCALAR","bufferView":3,"byteOffset":3504},{"name":"polygon2_1_0_positions","componentType":5126,"count":283,"min":[-3.998208999633789,0.008809000253677368,-3.9827020168304443],"max":[3.998208999633789,9.97242546081543,3.9759950637817383],"type":"VEC3","bufferView":0,"byteOffset":7704},{"name":"polygon2_1_0_normals","componentType":5126,"count":283,"min":[-0.9944559931755066,-1,-0.9944029450416565],"max":[0.9944559931755066,1,0.9970007538795471],"type":"VEC3","bufferView":1,"byteOffset":7704},{"name":"polygon2_1_0_texcoords","componentType":5126,"count":283,"min":[0.5398250222206116,0.016510000452399254],"max":[0.9906619787216187,0.9768980145454407],"type":"VEC2","bufferView":2,"byteOffset":5136},{"name":"polygon2_1_0_indices","componentType":5123,"count":816,"min":[0],"max":[282],"type":"SCALAR","bufferView":3,"byteOffset":6252},{"name":"polygon3_1_0_positions","componentType":5126,"count":70,"min":[-3.3341550827026367,5.089358806610107,2.0592830181121826],"max":[3.3341550827026367,6.747727870941162,3.3453478813171387],"type":"VEC3","bufferView":0,"byteOffset":11100},{"name":"polygon3_1_0_normals","componentType":5126,"count":70,"min":[-0.8445546627044678,-0.9975522756576538,-0.8472990989685059],"max":[0.8445546627044678,0.9879569411277771,0.7366771697998047],"type":"VEC3","bufferView":1,"byteOffset":11100},{"name":"polygon3_1_0_texcoords","componentType":5126,"count":70,"min":[-0.9754639863967896,0.00891099963337183],"max":[-0.5244749784469604,0.24273699522018433],"type":"VEC2","bufferView":2,"byteOffset":7400},{"name":"polygon3_1_0_indices","componentType":5123,"count":204,"min":[0],"max":[69],"type":"SCALAR","bufferView":3,"byteOffset":7884},{"name":"polygon4_1_0_positions","componentType":5126,"count":192,"min":[-3.9068350791931152,3.3737239837646484,-3.8929989337921143],"max":[3.9068350791931152,8.534984588623047,3.877408981323242],"type":"VEC3","bufferView":0,"byteOffset":11940},{"name":"polygon4_1_0_normals","componentType":5126,"count":192,"min":[-0.9947161078453064,-0.9057459831237793,-0.9946973919868469],"max":[0.9947161078453064,0.8842700123786926,0.9946973919868469],"type":"VEC3","bufferView":1,"byteOffset":11940},{"name":"polygon4_1_0_texcoords","componentType":5126,"count":192,"min":[0.043334998190402985,1.0189820528030396],"max":[0.9561160206794739,1.9757080078125],"type":"VEC2","bufferView":2,"byteOffset":7960},{"name":"polygon4_1_0_indices","componentType":5123,"count":1056,"min":[0],"max":[191],"type":"SCALAR","bufferView":3,"byteOffset":8292}],"asset":{"generator":"obj2gltf","version":"2.0"},"buffers":[{"name":"P2_Chandelure","byteLength":48388,"uri":"data:application/octet-stream;base64,"}],"bufferViews":[{"name":"bufferView_0","buffer":0,"byteLength":14244,"byteOffset":0,"byteStride":12,"target":34962},{"name":"bufferView_1","buffer":0,"byteLength":14244,"byteOffset":14244,"byteStride":12,"target":34962},{"name":"bufferView_2","buffer":0,"byteLength":9496,"byteOffset":28488,"byteStride":8,"target":34962},{"name":"bufferView_3","buffer":0,"byteLength":10404,"byteOffset":37984,"target":34963}],"materials":[{"name":"mat1","pbrMetallicRoughness":{"baseColorFactor":[0.5,0.5,0.5,1],"metallicFactor":0,"roughnessFactor":1},"emissiveFactor":[0,0,0],"alphaMode":"OPAQUE","doubleSided":false},{"name":"mat3","pbrMetallicRoughness":{"baseColorFactor":[0.5,0.5,0.5,1],"metallicFactor":0,"roughnessFactor":1},"emissiveFactor":[0,0,0],"alphaMode":"OPAQUE","doubleSided":false},{"name":"mat2","pbrMetallicRoughness":{"baseColorFactor":[0.5,0.5,0.5,1],"metallicFactor":0,"roughnessFactor":1},"emissiveFactor":[0,0,0],"alphaMode":"OPAQUE","doubleSided":false},{"name":"mat4","pbrMetallicRoughness":{"baseColorFactor":[0.5,0.5,0.5,1],"metallicFactor":0,"roughnessFactor":1},"emissiveFactor":[0,0,0],"alphaMode":"OPAQUE","doubleSided":false}],"meshes":[{"name":"polygon0_1","primitives":[{"attributes":{"POSITION":0,"NORMAL":1,"TEXCOORD_0":2},"indices":3,"material":0,"mode":4}]},{"name":"polygon1_1","primitives":[{"attributes":{"POSITION":4,"NORMAL":5,"TEXCOORD_0":6},"indices":7,"material":1,"mode":4}]},{"name":"polygon2_1","primitives":[{"attributes":{"POSITION":8,"NORMAL":9,"TEXCOORD_0":10},"indices":11,"material":0,"mode":4}]},{"name":"polygon3_1","primitives":[{"attributes":{"POSITION":12,"NORMAL":13,"TEXCOORD_0":14},"indices":15,"material":2,"mode":4}]},{"name":"polygon4_1","primitives":[{"attributes":{"POSITION":16,"NORMAL":17,"TEXCOORD_0":18},"indices":19,"material":3,"mode":4}]}],"nodes":[{"name":"polygon0","mesh":0},{"name":"polygon1","mesh":1},{"name":"polygon2","mesh":2},{"name":"polygon3","mesh":3},{"name":"polygon4","mesh":4}],"scene":0,"scenes":[{"nodes":[0,1,2,3,4]}]}