{"accessors":[{"name":"polygon0_1_0_positions","componentType":5126,"count":948,"min":[-1.7484829425811768,0,-1.8913029432296753],"max":[1.7484829425811768,5.781949996948242,3.579364061355591],"type":"VEC3","bufferView":0,"byteOffset":0},{"name":"polygon0_1_0_normals","componentType":5126,"count":948,"min":[-0.9985690712928772,-0.9999494552612305,-0.999889075756073],"max":[0.9985664486885071,0.9999774098396301,0.9968075752258301],"type":"VEC3","bufferView":1,"byteOffset":0},{"name":"polygon0_1_0_texcoords","componentType":5126,"count":948,"min":[1.0032960176467896,0.0044559999369084835],"max":[1.995116949081421,0.9967039823532104],"type":"VEC2","bufferView":2,"byteOffset":0},{"name":"polygon0_1_0_indices","componentType":5123,"count":4416,"min":[0],"max":[947],"type":"SCALAR","bufferView":3,"byteOffset":0},{"name":"polygon1_1_0_positions","componentType":5126,"count":22,"min":[-1.2176549434661865,2.3578550815582275,1.9942619800567627],"max":[1.2176549434661865,3.5874040126800537,2.9163200855255127],"type":"VEC3","bufferView":0,"byteOffset":11376},{"name":"polygon1_1_0_normals","componentType":5126,"count":22,"min":[-0.9932570457458496,0.03051799163222313,0.05182800069451332],"max":[0.9932570457458496,0.4608058035373688,0.617525041103363],"type":"VEC3","bufferView":1,"byteOffset":11376},{"name":"polygon1_1_0_texcoords","componentType":5126,"count":22,"min":[0.078125,0.011718999594449997],"max":[0.453125,0.2382809966802597],"type":"VEC2","bufferView":2,"byteOffset":7584},{"name":"polygon1_1_0_indices","componentType":5123,"count":66,"min":[0],"max":[21],"type":"SCALAR","bufferView":3,"byteOffset":8832}],"asset":{"generator":"obj2gltf","version":"2.0"},"buffers":[{"name":"P2_AxewFR","byteLength":40004,"uri":"data:application/octet-stream;base64,"}],"bufferViews":[{"name":"bufferView_0","buffer":0,"byteLength":11640,"byteOffset":0,"byteStride":12,"target":34962},{"name":"bufferView_1","buffer":0,"byteLength":11640,"byteOffset":11640,"byteStride":12,"target":34962},{"name":"bufferView_2","buffer":0,"byteLength":7760,"byteOffset":23280,"byteStride":8,"target":34962},{"name":"bufferView_3","buffer":0,"byteLength":8964,"byteOffset":31040,"target":34963}],"materials":[{"name":"mat1","pbrMetallicRoughness":{"baseColorFactor":[0.5,0.5,0.5,1],"metallicFactor":0,"roughnessFactor":1},"emissiveFactor":[0,0,0],"alphaMode":"OPAQUE","doubleSided":false},{"name":"mat2","pbrMetallicRoughness":{"baseColorFactor":[0.5,0.5,0.5,1],"metallicFactor":0,"roughnessFactor":1},"emissiveFactor":[0,0,0],"alphaMode":"OPAQUE","doubleSided":false}],"meshes":[{"name":"polygon0_1","primitives":[{"attributes":{"POSITION":0,"NORMAL":1,"TEXCOORD_0":2},"indices":3,"material":0,"mode":4}]},{"name":"polygon1_1","primitives":[{"attributes":{"POSITION":4,"NORMAL":5,"TEXCOORD_0":6},"indices":7,"material":1,"mode":4}]}],"nodes":[{"name":"polygon0","mesh":0},{"name":"polygon1","mesh":1}],"scene":0,"scenes":[{"nodes":[0,1]}]}