{"accessors":[{"name":"polygon0_1_0_positions","componentType":5126,"count":16,"min":[-0.6406360268592834,16.435016632080078,2.2957448959350586],"max":[0.6406360268592834,17.118741989135742,2.9292640686035156],"type":"VEC3","bufferView":0,"byteOffset":0},{"name":"polygon0_1_0_normals","componentType":5126,"count":16,"min":[-0.8413958549499512,0.10235604643821716,0.47197526693344116],"max":[0.8414134383201599,0.31585803627967834,0.5774490237236023],"type":"VEC3","bufferView":1,"byteOffset":0},{"name":"polygon0_1_0_texcoords","componentType":5126,"count":16,"min":[1.0292049646377563,0.012877999804913998],"max":[1.4718929529190063,0.23681600391864777],"type":"VEC2","bufferView":2,"byteOffset":0},{"name":"polygon0_1_0_indices","componentType":5123,"count":36,"min":[0],"max":[15],"type":"SCALAR","bufferView":3,"byteOffset":0},{"name":"polygon1_1_0_positions","componentType":5126,"count":662,"min":[-3.9513909816741943,-0.029652999714016914,-16.889310836791992],"max":[3.9513919353485107,17.859174728393555,3.660862922668457],"type":"VEC3","bufferView":0,"byteOffset":192},{"name":"polygon1_1_0_normals","componentType":5126,"count":662,"min":[-0.9989060163497925,-0.9978275895118713,-0.9993898272514343],"max":[0.9989060163497925,0.9989247918128967,0.9998345375061035],"type":"VEC3","bufferView":1,"byteOffset":192},{"name":"polygon1_1_0_texcoords","componentType":5126,"count":662,"min":[0.0009459999855607748,0.20214800536632538],"max":[0.5940859913825989,0.9990839958190918],"type":"VEC2","bufferView":2,"byteOffset":128},{"name":"polygon1_1_0_indices","componentType":5123,"count":2358,"min":[0],"max":[661],"type":"SCALAR","bufferView":3,"byteOffset":72},{"name":"polygon2_1_0_positions","componentType":5126,"count":1350,"min":[-8.267788887023926,0.034053001552820206,-13.262825012207031],"max":[8.267783164978027,18.295873641967773,3.6088240146636963],"type":"VEC3","bufferView":0,"byteOffset":8136},{"name":"polygon2_1_0_normals","componentType":5126,"count":1350,"min":[-0.9999915361404419,-0.9999972581863403,-0.9999972581863403],"max":[0.9999912977218628,0.9994038343429565,0.9995653629302979],"type":"VEC3","bufferView":1,"byteOffset":8136},{"name":"polygon2_1_0_texcoords","componentType":5126,"count":1350,"min":[0.0019529999699443579,0.0009459999855607748],"max":[0.9992070198059082,0.9987789988517761],"type":"VEC2","bufferView":2,"byteOffset":5424},{"name":"polygon2_1_0_indices","componentType":5123,"count":4998,"min":[0],"max":[1349],"type":"SCALAR","bufferView":3,"byteOffset":4788},{"name":"polygon3_1_0_positions","componentType":5126,"count":84,"min":[-2.627087116241455,15.209380149841309,-0.7560589909553528],"max":[2.627087116241455,18.358299255371094,4.079637050628662],"type":"VEC3","bufferView":0,"byteOffset":24336},{"name":"polygon3_1_0_normals","componentType":5126,"count":84,"min":[-0.9938868284225464,-0.8724403381347656,-0.5911179780960083],"max":[0.9938911199569702,0.8611832857131958,0.5987640619277954],"type":"VEC3","bufferView":1,"byteOffset":24336},{"name":"polygon3_1_0_texcoords","componentType":5126,"count":84,"min":[0.24298100173473358,0.5829160213470459],"max":[0.35046398639678955,0.9318240284919739],"type":"VEC2","bufferView":2,"byteOffset":16224},{"name":"polygon3_1_0_indices","componentType":5123,"count":204,"min":[0],"max":[83],"type":"SCALAR","bufferView":3,"byteOffset":14784}],"asset":{"generator":"obj2gltf","version":"2.0"},"buffers":[{"name":"P2_Haxorus","byteLength":82776,"uri":"data:application/octet-stream;base64,"}],"bufferViews":[{"name":"bufferView_0","buffer":0,"byteLength":25344,"byteOffset":0,"byteStride":12,"target":34962},{"name":"bufferView_1","buffer":0,"byteLength":25344,"byteOffset":25344,"byteStride":12,"target":34962},{"name":"bufferView_2","buffer":0,"byteLength":16896,"byteOffset":50688,"byteStride":8,"target":34962},{"name":"bufferView_3","buffer":0,"byteLength":15192,"byteOffset":67584,"target":34963}],"materials":[{"name":"mat3","pbrMetallicRoughness":{"baseColorFactor":[0.5,0.5,0.5,1],"metallicFactor":0,"roughnessFactor":1},"emissiveFactor":[0,0,0],"alphaMode":"OPAQUE","doubleSided":false},{"name":"mat1","pbrMetallicRoughness":{"baseColorFactor":[0.5,0.5,0.5,1],"metallicFactor":0,"roughnessFactor":1},"emissiveFactor":[0,0,0],"alphaMode":"OPAQUE","doubleSided":false},{"name":"mat4","pbrMetallicRoughness":{"baseColorFactor":[0.5,0.5,0.5,1],"metallicFactor":0,"roughnessFactor":1},"emissiveFactor":[0,0,0],"alphaMode":"OPAQUE","doubleSided":false},{"name":"mat2","pbrMetallicRoughness":{"baseColorFactor":[0.5,0.5,0.5,1],"metallicFactor":0,"roughnessFactor":1},"emissiveFactor":[0,0,0],"alphaMode":"OPAQUE","doubleSided":false}],"meshes":[{"name":"polygon0_1","primitives":[{"attributes":{"POSITION":0,"NORMAL":1,"TEXCOORD_0":2},"indices":3,"material":0,"mode":4}]},{"name":"polygon1_1","primitives":[{"attributes":{"POSITION":4,"NORMAL":5,"TEXCOORD_0":6},"indices":7,"material":1,"mode":4}]},{"name":"polygon2_1","primitives":[{"attributes":{"POSITION":8,"NORMAL":9,"TEXCOORD_0":10},"indices":11,"material":2,"mode":4}]},{"name":"polygon3_1","primitives":[{"attributes":{"POSITION":12,"NORMAL":13,"TEXCOORD_0":14},"indices":15,"material":3,"mode":4}]}],"nodes":[{"name":"polygon0","mesh":0},{"name":"polygon1","mesh":1},{"name":"polygon2","mesh":2},{"name":"polygon3","mesh":3}],"scene":0,"scenes":[{"nodes":[0,1,2,3]}]}