{"accessors":[{"name":"polygon0_1_0_positions","componentType":5126,"count":1167,"min":[-17.987171173095703,-0.20900100469589233,-10.942033767700195],"max":[17.987171173095703,26.154874801635742,6.665981769561768],"type":"VEC3","bufferView":0,"byteOffset":0},{"name":"polygon0_1_0_normals","componentType":5126,"count":1167,"min":[-0.9936621189117432,-0.9999549388885498,-0.9999943375587463],"max":[0.9923322796821594,0.9997946619987488,0.999117910861969],"type":"VEC3","bufferView":1,"byteOffset":0},{"name":"polygon0_1_0_texcoords","componentType":5126,"count":1167,"min":[0.011536000296473503,0.011474999599158764],"max":[0.9917600154876709,0.9849240183830261],"type":"VEC2","bufferView":2,"byteOffset":0},{"name":"polygon0_1_0_indices","componentType":5123,"count":5070,"min":[0],"max":[1166],"type":"SCALAR","bufferView":3,"byteOffset":0},{"name":"polygon1_1_0_positions","componentType":5126,"count":30,"min":[-1.6940209865570068,23.02596092224121,0.2957240045070648],"max":[1.6940209865570068,25.066633224487305,3.0117239952087402],"type":"VEC3","bufferView":0,"byteOffset":14004},{"name":"polygon1_1_0_normals","componentType":5126,"count":30,"min":[-0.94516521692276,-0.7077539563179016,0.0034360007848590612],"max":[0.94516521692276,0.8516857624053955,0.425646036863327],"type":"VEC3","bufferView":1,"byteOffset":14004},{"name":"polygon1_1_0_texcoords","componentType":5126,"count":30,"min":[0.03125,0.011718999594449997],"max":[0.46875,0.2382809966802597],"type":"VEC2","bufferView":2,"byteOffset":9336},{"name":"polygon1_1_0_indices","componentType":5123,"count":102,"min":[0],"max":[29],"type":"SCALAR","bufferView":3,"byteOffset":10140},{"name":"polygon2_1_0_positions","componentType":5126,"count":217,"min":[-19.156532287597656,15.694351196289062,-1.8906439542770386],"max":[19.156532287597656,24.3284854888916,5.681271076202393],"type":"VEC3","bufferView":0,"byteOffset":14364},{"name":"polygon2_1_0_normals","componentType":5126,"count":217,"min":[-0.9976481795310974,-0.9975358843803406,-0.7285782098770142],"max":[0.9976481795310974,0.9745640754699707,0.9995092749595642],"type":"VEC3","bufferView":1,"byteOffset":14364},{"name":"polygon2_1_0_texcoords","componentType":5126,"count":217,"min":[0.16644300520420074,0.004883000161498785],"max":[0.9790340065956116,0.97747802734375],"type":"VEC2","bufferView":2,"byteOffset":9576},{"name":"polygon2_1_0_indices","componentType":5123,"count":822,"min":[0],"max":[216],"type":"SCALAR","bufferView":3,"byteOffset":10344}],"asset":{"generator":"obj2gltf","version":"2.0"},"buffers":[{"name":"P2_Beartic","byteLength":57236,"uri":"data:application/octet-stream;base64,"}],"bufferViews":[{"name":"bufferView_0","buffer":0,"byteLength":16968,"byteOffset":0,"byteStride":12,"target":34962},{"name":"bufferView_1","buffer":0,"byteLength":16968,"byteOffset":16968,"byteStride":12,"target":34962},{"name":"bufferView_2","buffer":0,"byteLength":11312,"byteOffset":33936,"byteStride":8,"target":34962},{"name":"bufferView_3","buffer":0,"byteLength":11988,"byteOffset":45248,"target":34963}],"materials":[{"name":"mat1","pbrMetallicRoughness":{"baseColorFactor":[0.5,0.5,0.5,1],"metallicFactor":0,"roughnessFactor":1},"emissiveFactor":[0,0,0],"alphaMode":"OPAQUE","doubleSided":false},{"name":"mat2","pbrMetallicRoughness":{"baseColorFactor":[0.5,0.5,0.5,1],"metallicFactor":0,"roughnessFactor":1},"emissiveFactor":[0,0,0],"alphaMode":"OPAQUE","doubleSided":false},{"name":"mat3","pbrMetallicRoughness":{"baseColorFactor":[0.5,0.5,0.5,1],"metallicFactor":0,"roughnessFactor":1},"emissiveFactor":[0,0,0],"alphaMode":"OPAQUE","doubleSided":false}],"meshes":[{"name":"polygon0_1","primitives":[{"attributes":{"POSITION":0,"NORMAL":1,"TEXCOORD_0":2},"indices":3,"material":0,"mode":4}]},{"name":"polygon1_1","primitives":[{"attributes":{"POSITION":4,"NORMAL":5,"TEXCOORD_0":6},"indices":7,"material":1,"mode":4}]},{"name":"polygon2_1","primitives":[{"attributes":{"POSITION":8,"NORMAL":9,"TEXCOORD_0":10},"indices":11,"material":2,"mode":4}]}],"nodes":[{"name":"polygon0","mesh":0},{"name":"polygon1","mesh":1},{"name":"polygon2","mesh":2}],"scene":0,"scenes":[{"nodes":[0,1,2]}]}