{"accessors":[{"name":"polygon0_1_0_positions","componentType":5126,"count":869,"min":[-6.149881839752197,-1.6511670351028442,-10.592867851257324],"max":[6.149881839752197,13.642766952514648,7.603997230529785],"type":"VEC3","bufferView":0,"byteOffset":0},{"name":"polygon0_1_0_normals","componentType":5126,"count":869,"min":[-0.9954167604446411,-0.9984152913093567,-0.9786216020584106],"max":[0.9954167604446411,0.9952676892280579,0.9970786571502686],"type":"VEC3","bufferView":1,"byteOffset":0},{"name":"polygon0_1_0_texcoords","componentType":5126,"count":869,"min":[0.015350000001490116,0.016631999984383583],"max":[0.9811400175094604,0.9854429960250854],"type":"VEC2","bufferView":2,"byteOffset":0},{"name":"polygon0_1_0_indices","componentType":5123,"count":3432,"min":[0],"max":[868],"type":"SCALAR","bufferView":3,"byteOffset":0},{"name":"polygon1_1_0_positions","componentType":5126,"count":12,"min":[-1.3826500177383423,9.219231605529785,5.676351070404053],"max":[1.3826500177383423,10.327484130859375,6.8668341636657715],"type":"VEC3","bufferView":0,"byteOffset":10428},{"name":"polygon1_1_0_normals","componentType":5126,"count":12,"min":[-0.9686356782913208,-0.44232603907585144,0.22418206930160522],"max":[0.9686356782913208,0.13934199512004852,0.5820269584655762],"type":"VEC3","bufferView":1,"byteOffset":10428},{"name":"polygon1_1_0_texcoords","componentType":5126,"count":12,"min":[1.013396978378296,0.027892999351024628],"max":[1.482970952987671,0.2278749942779541],"type":"VEC2","bufferView":2,"byteOffset":6952},{"name":"polygon1_1_0_indices","componentType":5123,"count":24,"min":[0],"max":[11],"type":"SCALAR","bufferView":3,"byteOffset":6864},{"name":"polygon2_1_0_positions","componentType":5126,"count":665,"min":[-6.250216007232666,-2.191390037536621,-8.484139442443848],"max":[6.250216007232666,11.53593921661377,7.926487922668457],"type":"VEC3","bufferView":0,"byteOffset":10572},{"name":"polygon2_1_0_normals","componentType":5126,"count":665,"min":[-0.999025821685791,-0.9999744296073914,-0.9999916553497314],"max":[0.999103844165802,0.9955450892448425,0.9984515309333801],"type":"VEC3","bufferView":1,"byteOffset":10572},{"name":"polygon2_1_0_texcoords","componentType":5126,"count":665,"min":[0.0167239997535944,0.007842999882996082],"max":[0.9752200245857239,0.9807429909706116],"type":"VEC2","bufferView":2,"byteOffset":7048},{"name":"polygon2_1_0_indices","componentType":5123,"count":1944,"min":[0],"max":[664],"type":"SCALAR","bufferView":3,"byteOffset":6912}],"asset":{"generator":"obj2gltf","version":"2.0"},"buffers":[{"name":"P2_Druddigon","byteLength":60272,"uri":"data:application/octet-stream;base64,"}],"bufferViews":[{"name":"bufferView_0","buffer":0,"byteLength":18552,"byteOffset":0,"byteStride":12,"target":34962},{"name":"bufferView_1","buffer":0,"byteLength":18552,"byteOffset":18552,"byteStride":12,"target":34962},{"name":"bufferView_2","buffer":0,"byteLength":12368,"byteOffset":37104,"byteStride":8,"target":34962},{"name":"bufferView_3","buffer":0,"byteLength":10800,"byteOffset":49472,"target":34963}],"materials":[{"name":"mat1","pbrMetallicRoughness":{"baseColorFactor":[0.5,0.5,0.5,1],"metallicFactor":0,"roughnessFactor":1},"emissiveFactor":[0,0,0],"alphaMode":"OPAQUE","doubleSided":false},{"name":"mat2","pbrMetallicRoughness":{"baseColorFactor":[0.5,0.5,0.5,1],"metallicFactor":0,"roughnessFactor":1},"emissiveFactor":[0,0,0],"alphaMode":"OPAQUE","doubleSided":false},{"name":"mat3","pbrMetallicRoughness":{"baseColorFactor":[0.5,0.5,0.5,1],"metallicFactor":0,"roughnessFactor":1},"emissiveFactor":[0,0,0],"alphaMode":"OPAQUE","doubleSided":false}],"meshes":[{"name":"polygon0_1","primitives":[{"attributes":{"POSITION":0,"NORMAL":1,"TEXCOORD_0":2},"indices":3,"material":0,"mode":4}]},{"name":"polygon1_1","primitives":[{"attributes":{"POSITION":4,"NORMAL":5,"TEXCOORD_0":6},"indices":7,"material":1,"mode":4}]},{"name":"polygon2_1","primitives":[{"attributes":{"POSITION":8,"NORMAL":9,"TEXCOORD_0":10},"indices":11,"material":2,"mode":4}]}],"nodes":[{"name":"polygon0","mesh":0},{"name":"polygon1","mesh":1},{"name":"polygon2","mesh":2}],"scene":0,"scenes":[{"nodes":[0,1,2]}]}