{"accessors":[{"name":"polygon0_1_0_positions","componentType":5126,"count":68,"min":[-10.415692329406738,9.297950744628906,-2.319179058074951],"max":[10.415693283081055,22.844972610473633,2.391000986099243],"type":"VEC3","bufferView":0,"byteOffset":0},{"name":"polygon0_1_0_normals","componentType":5126,"count":68,"min":[-0.9998759627342224,-1,-0.12359197437763214],"max":[0.9998759627342224,0.01574699953198433,1],"type":"VEC3","bufferView":1,"byteOffset":0},{"name":"polygon0_1_0_texcoords","componentType":5126,"count":68,"min":[0.9356989860534668,0.4874570071697235],"max":[0.9946590065956116,0.5380250215530396],"type":"VEC2","bufferView":2,"byteOffset":0},{"name":"polygon0_1_0_indices","componentType":5123,"count":168,"min":[0],"max":[67],"type":"SCALAR","bufferView":3,"byteOffset":0},{"name":"polygon1_1_0_positions","componentType":5126,"count":1732,"min":[-12.70700740814209,-0.000011000000085914508,-2.871328115463257],"max":[12.707008361816406,25.624422073364258,4.654571056365967],"type":"VEC3","bufferView":0,"byteOffset":816},{"name":"polygon1_1_0_normals","componentType":5126,"count":1732,"min":[-1,-1,-1],"max":[1,1,1],"type":"VEC3","bufferView":1,"byteOffset":816},{"name":"polygon1_1_0_texcoords","componentType":5126,"count":1732,"min":[0.01644900068640709,0.35141000151634216],"max":[0.9865720272064209,0.9905400276184082],"type":"VEC2","bufferView":2,"byteOffset":544},{"name":"polygon1_1_0_indices","componentType":5123,"count":4656,"min":[0],"max":[1731],"type":"SCALAR","bufferView":3,"byteOffset":336},{"name":"polygon2_1_0_positions","componentType":5126,"count":282,"min":[-6.2971038818359375,10.640000343322754,-6.4984660148620605],"max":[6.297107219696045,24.560895919799805,6.744119167327881],"type":"VEC3","bufferView":0,"byteOffset":21600},{"name":"polygon2_1_0_normals","componentType":5126,"count":282,"min":[-0.9999799132347107,-1,-0.9998989701271057],"max":[0.9998428821563721,0.9999974966049194,0.9925001263618469],"type":"VEC3","bufferView":1,"byteOffset":21600},{"name":"polygon2_1_0_texcoords","componentType":5126,"count":282,"min":[0.0033259999472647905,0.01116899959743023],"max":[0.9954530000686646,0.6704099774360657],"type":"VEC2","bufferView":2,"byteOffset":14400},{"name":"polygon2_1_0_indices","componentType":5123,"count":972,"min":[0],"max":[281],"type":"SCALAR","bufferView":3,"byteOffset":9648},{"name":"polygon4_1_0_positions","componentType":5126,"count":35,"min":[-5.232396125793457,10.64000129699707,-5.232396125793457],"max":[5.232396125793457,22.65266227722168,6.224699020385742],"type":"VEC3","bufferView":0,"byteOffset":24984},{"name":"polygon4_1_0_normals","componentType":5126,"count":35,"min":[-0.7675638794898987,-1,0],"max":[0.6409099698066711,0.6437933444976807,0.9658938646316528],"type":"VEC3","bufferView":1,"byteOffset":24984},{"name":"polygon4_1_0_texcoords","componentType":5126,"count":35,"min":[0.933197021484375,0.47808799147605896],"max":[0.9949340224266052,0.49066200852394104],"type":"VEC2","bufferView":2,"byteOffset":16656},{"name":"polygon4_1_0_indices","componentType":5123,"count":87,"min":[0],"max":[34],"type":"SCALAR","bufferView":3,"byteOffset":11592},{"name":"polygon9_1_0_positions","componentType":5126,"count":86,"min":[-1.9590929746627808,24.061599731445312,-1.9590929746627808],"max":[1.9590929746627808,27.699478149414062,1.9590929746627808],"type":"VEC3","bufferView":0,"byteOffset":25404},{"name":"polygon9_1_0_normals","componentType":5126,"count":86,"min":[-0.9748550057411194,-0.6346629858016968,-0.9998821020126343],"max":[0.9748550057411194,0.9966646432876587,0.9998821020126343],"type":"VEC3","bufferView":1,"byteOffset":25404},{"name":"polygon9_1_0_texcoords","componentType":5126,"count":86,"min":[0.4575810134410858,0.3468630015850067],"max":[0.8979799747467041,0.5375670194625854],"type":"VEC2","bufferView":2,"byteOffset":16936},{"name":"polygon9_1_0_indices","componentType":5123,"count":246,"min":[0],"max":[85],"type":"SCALAR","bufferView":3,"byteOffset":11768},{"name":"polygon10_1_0_positions","componentType":5126,"count":49,"min":[-0.8531910181045532,24.5301513671875,1.2238670587539673],"max":[1.1405420303344727,25.701339721679688,1.7791249752044678],"type":"VEC3","bufferView":0,"byteOffset":26436},{"name":"polygon10_1_0_normals","componentType":5126,"count":49,"min":[-1,-1,0],"max":[1,1,1],"type":"VEC3","bufferView":1,"byteOffset":26436},{"name":"polygon10_1_0_texcoords","componentType":5126,"count":49,"min":[0.9700319766998291,0.5044860243797302],"max":[0.9942629933357239,0.5322269797325134],"type":"VEC2","bufferView":2,"byteOffset":17624},{"name":"polygon10_1_0_indices","componentType":5123,"count":78,"min":[0],"max":[48],"type":"SCALAR","bufferView":3,"byteOffset":12260}],"asset":{"generator":"obj2gltf","version":"2.0"},"buffers":[{"name":"P2_Golurk","byteLength":84480,"uri":"data:application/octet-stream;base64,"}],"bufferViews":[{"name":"bufferView_0","buffer":0,"byteLength":27024,"byteOffset":0,"byteStride":12,"target":34962},{"name":"bufferView_1","buffer":0,"byteLength":27024,"byteOffset":27024,"byteStride":12,"target":34962},{"name":"bufferView_2","buffer":0,"byteLength":18016,"byteOffset":54048,"byteStride":8,"target":34962},{"name":"bufferView_3","buffer":0,"byteLength":12416,"byteOffset":72064,"target":34963}],"materials":[{"name":"mat2","pbrMetallicRoughness":{"baseColorFactor":[0.5,0.5,0.5,1],"metallicFactor":0,"roughnessFactor":1},"emissiveFactor":[0,0,0],"alphaMode":"OPAQUE","doubleSided":false},{"name":"mat1","pbrMetallicRoughness":{"baseColorFactor":[0.5,0.5,0.5,1],"metallicFactor":0,"roughnessFactor":1},"emissiveFactor":[0,0,0],"alphaMode":"OPAQUE","doubleSided":false}],"meshes":[{"name":"polygon0_1","primitives":[{"attributes":{"POSITION":0,"NORMAL":1,"TEXCOORD_0":2},"indices":3,"material":0,"mode":4}]},{"name":"polygon1_1","primitives":[{"attributes":{"POSITION":4,"NORMAL":5,"TEXCOORD_0":6},"indices":7,"material":1,"mode":4}]},{"name":"polygon2_1","primitives":[{"attributes":{"POSITION":8,"NORMAL":9,"TEXCOORD_0":10},"indices":11,"material":1,"mode":4}]},{"name":"polygon4_1","primitives":[{"attributes":{"POSITION":12,"NORMAL":13,"TEXCOORD_0":14},"indices":15,"material":0,"mode":4}]},{"name":"polygon9_1","primitives":[{"attributes":{"POSITION":16,"NORMAL":17,"TEXCOORD_0":18},"indices":19,"material":1,"mode":4}]},{"name":"polygon10_1","primitives":[{"attributes":{"POSITION":20,"NORMAL":21,"TEXCOORD_0":22},"indices":23,"material":0,"mode":4}]}],"nodes":[{"name":"polygon0","mesh":0},{"name":"polygon1","mesh":1},{"name":"polygon2","mesh":2},{"name":"polygon4","mesh":3},{"name":"polygon9","mesh":4},{"name":"polygon10","mesh":5}],"scene":0,"scenes":[{"nodes":[0,1,2,3,4,5]}]}