{"accessors":[{"name":"polygon0_1_0_positions","componentType":5126,"count":695,"min":[-8.415013313293457,0.008666999638080597,-1.8723089694976807],"max":[8.41501522064209,13.550414085388184,2.025028944015503],"type":"VEC3","bufferView":0,"byteOffset":0},{"name":"polygon0_1_0_normals","componentType":5126,"count":695,"min":[-1,-0.9999983310699463,-0.9999558329582214],"max":[1,0.999877393245697,0.9999991059303284],"type":"VEC3","bufferView":1,"byteOffset":0},{"name":"polygon0_1_0_texcoords","componentType":5126,"count":695,"min":[0.008330999873578548,0.00976600032299757],"max":[0.9914249777793884,0.9883120059967041],"type":"VEC2","bufferView":2,"byteOffset":0},{"name":"polygon0_1_0_indices","componentType":5123,"count":3216,"min":[0],"max":[694],"type":"SCALAR","bufferView":3,"byteOffset":0},{"name":"polygon1_1_0_positions","componentType":5126,"count":314,"min":[-6.158240795135498,7.897210121154785,-0.8456140160560608],"max":[6.158242225646973,12.685173988342285,3.492643117904663],"type":"VEC3","bufferView":0,"byteOffset":8340},{"name":"polygon1_1_0_normals","componentType":5126,"count":314,"min":[-0.8943105340003967,-0.9999992251396179,-0.9997979998588562],"max":[0.8943086862564087,0.9994785785675049,0.9998217225074768],"type":"VEC3","bufferView":1,"byteOffset":8340},{"name":"polygon1_1_0_texcoords","componentType":5126,"count":314,"min":[0.2365719974040985,0.022614000365138054],"max":[0.9852910041809082,0.3450320065021515],"type":"VEC2","bufferView":2,"byteOffset":5560},{"name":"polygon1_1_0_indices","componentType":5123,"count":834,"min":[0],"max":[313],"type":"SCALAR","bufferView":3,"byteOffset":6432},{"name":"polygon3_1_0_positions","componentType":5126,"count":10,"min":[-1.1477090120315552,12.082908630371094,0.9635540246963501],"max":[1.1477090120315552,13.032095909118652,1.797307014465332],"type":"VEC3","bufferView":0,"byteOffset":12108},{"name":"polygon3_1_0_normals","componentType":5126,"count":10,"min":[-0.5971009731292725,-0.1854819357395172,0.795546293258667],"max":[0.5971009731292725,-0.02545100636780262,0.9923322200775146],"type":"VEC3","bufferView":1,"byteOffset":12108},{"name":"polygon3_1_0_texcoords","componentType":5126,"count":10,"min":[-0.9746699929237366,0.015320000238716602],"max":[-0.5429080128669739,0.23773199319839478],"type":"VEC2","bufferView":2,"byteOffset":8072},{"name":"polygon3_1_0_indices","componentType":5123,"count":24,"min":[0],"max":[9],"type":"SCALAR","bufferView":3,"byteOffset":8100},{"name":"polygon5_1_0_positions","componentType":5126,"count":124,"min":[-1.7033350467681885,12.256546974182129,-2.0056049823760986],"max":[1.7033350467681885,15.017134666442871,1.9688169956207275],"type":"VEC3","bufferView":0,"byteOffset":12228},{"name":"polygon5_1_0_normals","componentType":5126,"count":124,"min":[-0.9985468983650208,-0.9966998100280762,-0.975822389125824],"max":[0.9985468983650208,0.9999992251396179,0.9953212141990662],"type":"VEC3","bufferView":1,"byteOffset":12228},{"name":"polygon5_1_0_texcoords","componentType":5126,"count":124,"min":[0.5509949922561646,0.6964719891548157],"max":[0.9830319881439209,0.9900209903717041],"type":"VEC2","bufferView":2,"byteOffset":8152},{"name":"polygon5_1_0_indices","componentType":5123,"count":510,"min":[0],"max":[123],"type":"SCALAR","bufferView":3,"byteOffset":8148},{"name":"polygon6_1_0_positions","componentType":5126,"count":87,"min":[-0.19648699462413788,12.283808708190918,-0.5802059769630432],"max":[0.19648699462413788,15.889002799987793,3.4954419136047363],"type":"VEC3","bufferView":0,"byteOffset":13716},{"name":"polygon6_1_0_normals","componentType":5126,"count":87,"min":[-0.9996808171272278,-0.2211320549249649,-0.9770495891571045],"max":[0.9996808171272278,0.9986659288406372,0.9973941445350647],"type":"VEC3","bufferView":1,"byteOffset":13716},{"name":"polygon6_1_0_texcoords","componentType":5126,"count":87,"min":[0.6208800077438354,0.2170100063085556],"max":[0.8006590008735657,0.47277799248695374],"type":"VEC2","bufferView":2,"byteOffset":9144},{"name":"polygon6_1_0_indices","componentType":5123,"count":219,"min":[0],"max":[86],"type":"SCALAR","bufferView":3,"byteOffset":9168}],"asset":{"generator":"obj2gltf","version":"2.0"},"buffers":[{"name":"P2_Bisharp","byteLength":48968,"uri":"data:application/octet-stream;base64,"}],"bufferViews":[{"name":"bufferView_0","buffer":0,"byteLength":14760,"byteOffset":0,"byteStride":12,"target":34962},{"name":"bufferView_1","buffer":0,"byteLength":14760,"byteOffset":14760,"byteStride":12,"target":34962},{"name":"bufferView_2","buffer":0,"byteLength":9840,"byteOffset":29520,"byteStride":8,"target":34962},{"name":"bufferView_3","buffer":0,"byteLength":9608,"byteOffset":39360,"target":34963}],"materials":[{"name":"mat1","pbrMetallicRoughness":{"baseColorFactor":[0.5,0.5,0.5,1],"metallicFactor":0,"roughnessFactor":1},"emissiveFactor":[0,0,0],"alphaMode":"OPAQUE","doubleSided":false},{"name":"mat2","pbrMetallicRoughness":{"baseColorFactor":[0.5,0.5,0.5,1],"metallicFactor":0,"roughnessFactor":1},"emissiveFactor":[0,0,0],"alphaMode":"OPAQUE","doubleSided":false},{"name":"mat3","pbrMetallicRoughness":{"baseColorFactor":[0.5,0.5,0.5,1],"metallicFactor":0,"roughnessFactor":1},"emissiveFactor":[0,0,0],"alphaMode":"OPAQUE","doubleSided":false}],"meshes":[{"name":"polygon0_1","primitives":[{"attributes":{"POSITION":0,"NORMAL":1,"TEXCOORD_0":2},"indices":3,"material":0,"mode":4}]},{"name":"polygon1_1","primitives":[{"attributes":{"POSITION":4,"NORMAL":5,"TEXCOORD_0":6},"indices":7,"material":1,"mode":4}]},{"name":"polygon3_1","primitives":[{"attributes":{"POSITION":8,"NORMAL":9,"TEXCOORD_0":10},"indices":11,"material":2,"mode":4}]},{"name":"polygon5_1","primitives":[{"attributes":{"POSITION":12,"NORMAL":13,"TEXCOORD_0":14},"indices":15,"material":0,"mode":4}]},{"name":"polygon6_1","primitives":[{"attributes":{"POSITION":16,"NORMAL":17,"TEXCOORD_0":18},"indices":19,"material":1,"mode":4}]}],"nodes":[{"name":"polygon0","mesh":0},{"name":"polygon1","mesh":1},{"name":"polygon3","mesh":2},{"name":"polygon5","mesh":3},{"name":"polygon6","mesh":4}],"scene":0,"scenes":[{"nodes":[0,1,2,3,4]}]}