{"accessors":[{"name":"polygon0_1_0_positions","componentType":5126,"count":603,"min":[-4.2754621505737305,0.5457770228385925,-6.9914422035217285],"max":[4.2754621505737305,15.909873962402344,12.884153366088867],"type":"VEC3","bufferView":0,"byteOffset":0},{"name":"polygon0_1_0_normals","componentType":5126,"count":603,"min":[-0.997617244720459,-0.9999982714653015,-0.9996505975723267],"max":[0.997617244720459,0.9940073490142822,0.999622642993927],"type":"VEC3","bufferView":1,"byteOffset":0},{"name":"polygon0_1_0_texcoords","componentType":5126,"count":603,"min":[0.006560999900102615,0.003967000171542168],"max":[0.9944760203361511,0.9905700087547302],"type":"VEC2","bufferView":2,"byteOffset":0},{"name":"polygon0_1_0_indices","componentType":5123,"count":2724,"min":[0],"max":[602],"type":"SCALAR","bufferView":3,"byteOffset":0},{"name":"polygon1_1_0_positions","componentType":5126,"count":24,"min":[-1.681557059288025,7.050631046295166,10.453766822814941],"max":[1.681557059288025,7.757543087005615,11.740674018859863],"type":"VEC3","bufferView":0,"byteOffset":7236},{"name":"polygon1_1_0_normals","componentType":5126,"count":24,"min":[-0.9398140907287598,-0.1306680142879486,0.315714031457901],"max":[0.9398140907287598,-0.06708000600337982,0.6880080699920654],"type":"VEC3","bufferView":1,"byteOffset":7236},{"name":"polygon1_1_0_texcoords","componentType":5126,"count":24,"min":[0.008605999872088432,-0.9398800134658813],"max":[0.4912720024585724,-0.8098139762878418],"type":"VEC2","bufferView":2,"byteOffset":4824},{"name":"polygon1_1_0_indices","componentType":5123,"count":72,"min":[0],"max":[23],"type":"SCALAR","bufferView":3,"byteOffset":5448},{"name":"polygon2_1_0_positions","componentType":5126,"count":362,"min":[-11.884660720825195,-0.0000019999999949504854,-5.12439489364624],"max":[11.884660720825195,11.475335121154785,11.884045600891113],"type":"VEC3","bufferView":0,"byteOffset":7524},{"name":"polygon2_1_0_normals","componentType":5126,"count":362,"min":[-0.9816670417785645,-1,-0.9999675154685974],"max":[0.9816670417785645,0.9986233115196228,0.9991572499275208],"type":"VEC3","bufferView":1,"byteOffset":7524},{"name":"polygon2_1_0_texcoords","componentType":5126,"count":362,"min":[0.006316999904811382,0.0031739999540150166],"max":[0.9949650168418884,0.9948430061340332],"type":"VEC2","bufferView":2,"byteOffset":5016},{"name":"polygon2_1_0_indices","componentType":5123,"count":1320,"min":[0],"max":[361],"type":"SCALAR","bufferView":3,"byteOffset":5592},{"name":"polygon3_1_0_positions","componentType":5126,"count":280,"min":[-6.243681907653809,5.9770121574401855,2.5206611156463623],"max":[6.243681907653809,16.498693466186523,15.260269165039062],"type":"VEC3","bufferView":0,"byteOffset":11868},{"name":"polygon3_1_0_normals","componentType":5126,"count":280,"min":[-0.9969235062599182,-0.9993255734443665,-0.9998309016227722],"max":[0.9969235062599182,0.9999809265136719,0.9914863109588623],"type":"VEC3","bufferView":1,"byteOffset":11868},{"name":"polygon3_1_0_texcoords","componentType":5126,"count":280,"min":[0.2878420054912567,0.4340519905090332],"max":[0.8392030000686646,0.9923710227012634],"type":"VEC2","bufferView":2,"byteOffset":7912},{"name":"polygon3_1_0_indices","componentType":5123,"count":1578,"min":[0],"max":[279],"type":"SCALAR","bufferView":3,"byteOffset":8232}],"asset":{"generator":"obj2gltf","version":"2.0"},"buffers":[{"name":"P2_Bouffalant","byteLength":51996,"uri":"data:application/octet-stream;base64,"}],"bufferViews":[{"name":"bufferView_0","buffer":0,"byteLength":15228,"byteOffset":0,"byteStride":12,"target":34962},{"name":"bufferView_1","buffer":0,"byteLength":15228,"byteOffset":15228,"byteStride":12,"target":34962},{"name":"bufferView_2","buffer":0,"byteLength":10152,"byteOffset":30456,"byteStride":8,"target":34962},{"name":"bufferView_3","buffer":0,"byteLength":11388,"byteOffset":40608,"target":34963}],"materials":[{"name":"mat2","pbrMetallicRoughness":{"baseColorFactor":[0.5,0.5,0.5,1],"metallicFactor":0,"roughnessFactor":1},"emissiveFactor":[0,0,0],"alphaMode":"OPAQUE","doubleSided":false},{"name":"mat4","pbrMetallicRoughness":{"baseColorFactor":[0.5,0.5,0.5,1],"metallicFactor":0,"roughnessFactor":1},"emissiveFactor":[0,0,0],"alphaMode":"OPAQUE","doubleSided":false},{"name":"mat3","pbrMetallicRoughness":{"baseColorFactor":[0.5,0.5,0.5,1],"metallicFactor":0,"roughnessFactor":1},"emissiveFactor":[0,0,0],"alphaMode":"OPAQUE","doubleSided":false},{"name":"mat1","pbrMetallicRoughness":{"baseColorFactor":[0.5,0.5,0.5,1],"metallicFactor":0,"roughnessFactor":1},"emissiveFactor":[0,0,0],"alphaMode":"OPAQUE","doubleSided":false}],"meshes":[{"name":"polygon0_1","primitives":[{"attributes":{"POSITION":0,"NORMAL":1,"TEXCOORD_0":2},"indices":3,"material":0,"mode":4}]},{"name":"polygon1_1","primitives":[{"attributes":{"POSITION":4,"NORMAL":5,"TEXCOORD_0":6},"indices":7,"material":1,"mode":4}]},{"name":"polygon2_1","primitives":[{"attributes":{"POSITION":8,"NORMAL":9,"TEXCOORD_0":10},"indices":11,"material":2,"mode":4}]},{"name":"polygon3_1","primitives":[{"attributes":{"POSITION":12,"NORMAL":13,"TEXCOORD_0":14},"indices":15,"material":3,"mode":4}]}],"nodes":[{"name":"polygon0","mesh":0},{"name":"polygon1","mesh":1},{"name":"polygon2","mesh":2},{"name":"polygon3","mesh":3}],"scene":0,"scenes":[{"nodes":[0,1,2,3]}]}