{"accessors":[{"name":"polygon0_1_0_positions","componentType":5126,"count":1531,"min":[-25.861297607421875,-1.0412590503692627,-10.653141975402832],"max":[25.861295700073242,14.712038040161133,14.017184257507324],"type":"VEC3","bufferView":0,"byteOffset":0},{"name":"polygon0_1_0_normals","componentType":5126,"count":1531,"min":[-0.9999576807022095,-0.9999674558639526,-0.9983178377151489],"max":[0.9999576807022095,0.9996360540390015,0.9994553327560425],"type":"VEC3","bufferView":1,"byteOffset":0},{"name":"polygon0_1_0_texcoords","componentType":5126,"count":1531,"min":[0.015381000004708767,0.008849999867379665],"max":[0.9885249733924866,0.9928280115127563],"type":"VEC2","bufferView":2,"byteOffset":0},{"name":"polygon0_1_0_indices","componentType":5123,"count":5610,"min":[0],"max":[1530],"type":"SCALAR","bufferView":3,"byteOffset":0},{"name":"polygon1_1_0_positions","componentType":5126,"count":10,"min":[-1.4820539951324463,9.447104454040527,11.70173454284668],"max":[1.4820539951324463,10.79226303100586,12.763229370117188],"type":"VEC3","bufferView":0,"byteOffset":18372},{"name":"polygon1_1_0_normals","componentType":5126,"count":10,"min":[-0.9653649926185608,-0.21344389021396637,0.18378299474716187],"max":[0.9653649926185608,-0.10925301164388657,0.7716060876846313],"type":"VEC3","bufferView":1,"byteOffset":18372},{"name":"polygon1_1_0_texcoords","componentType":5126,"count":10,"min":[0.0859379991889,0.023437000811100006],"max":[0.3984380066394806,0.2070309966802597],"type":"VEC2","bufferView":2,"byteOffset":12248},{"name":"polygon1_1_0_indices","componentType":5123,"count":18,"min":[0],"max":[9],"type":"SCALAR","bufferView":3,"byteOffset":11220}],"asset":{"generator":"obj2gltf","version":"2.0"},"buffers":[{"name":"P2_Braviary","byteLength":60568,"uri":"data:application/octet-stream;base64,"}],"bufferViews":[{"name":"bufferView_0","buffer":0,"byteLength":18492,"byteOffset":0,"byteStride":12,"target":34962},{"name":"bufferView_1","buffer":0,"byteLength":18492,"byteOffset":18492,"byteStride":12,"target":34962},{"name":"bufferView_2","buffer":0,"byteLength":12328,"byteOffset":36984,"byteStride":8,"target":34962},{"name":"bufferView_3","buffer":0,"byteLength":11256,"byteOffset":49312,"target":34963}],"materials":[{"name":"mat1","pbrMetallicRoughness":{"baseColorFactor":[0.5,0.5,0.5,1],"metallicFactor":0,"roughnessFactor":1},"emissiveFactor":[0,0,0],"alphaMode":"OPAQUE","doubleSided":false},{"name":"mat2","pbrMetallicRoughness":{"baseColorFactor":[0.5,0.5,0.5,1],"metallicFactor":0,"roughnessFactor":1},"emissiveFactor":[0,0,0],"alphaMode":"OPAQUE","doubleSided":false}],"meshes":[{"name":"polygon0_1","primitives":[{"attributes":{"POSITION":0,"NORMAL":1,"TEXCOORD_0":2},"indices":3,"material":0,"mode":4}]},{"name":"polygon1_1","primitives":[{"attributes":{"POSITION":4,"NORMAL":5,"TEXCOORD_0":6},"indices":7,"material":1,"mode":4}]}],"nodes":[{"name":"polygon0","mesh":0},{"name":"polygon1","mesh":1}],"scene":0,"scenes":[{"nodes":[0,1]}]}