{"accessors":[{"name":"Hydreigon_1_0_positions","componentType":5126,"count":11868,"min":[-110.77700805664062,89.57389831542969,-29.50649642944336],"max":[110.77599334716797,217.98602294921875,113.93199157714844],"type":"VEC3","bufferView":0,"byteOffset":0},{"name":"Hydreigon_1_0_normals","componentType":5126,"count":11868,"min":[-0.9962002635002136,-0.9921835660934448,-0.9362125992774963],"max":[0.9888572096824646,0.9997178912162781,0.997905433177948],"type":"VEC3","bufferView":1,"byteOffset":0},{"name":"Hydreigon_1_0_texcoords","componentType":5126,"count":11868,"min":[0.0064500002190470695,0.0030720001086592674],"max":[0.995415985584259,0.9959959983825684],"type":"VEC2","bufferView":2,"byteOffset":0},{"name":"Hydreigon_1_0_indices","componentType":5123,"count":11868,"min":[0],"max":[11867],"type":"SCALAR","bufferView":3,"byteOffset":0},{"name":"Hydreigon_1_1_positions","componentType":5126,"count":1260,"min":[-14.71679973602295,119.97896575927734,83.52421569824219],"max":[14.71679973602295,142.30796813964844,108.39201354980469],"type":"VEC3","bufferView":0,"byteOffset":142416},{"name":"Hydreigon_1_1_normals","componentType":5126,"count":1260,"min":[-0.9621149301528931,-0.6580750346183777,0.21309508383274078],"max":[0.9621505737304688,0.8887140154838562,0.997905433177948],"type":"VEC3","bufferView":1,"byteOffset":142416},{"name":"Hydreigon_1_1_texcoords","componentType":5126,"count":1260,"min":[0.007149999961256981,-1.9932899475097656],"max":[0.49285000562667847,-1.7571200132369995],"type":"VEC2","bufferView":2,"byteOffset":94944},{"name":"Hydreigon_1_1_indices","componentType":5123,"count":1260,"min":[0],"max":[1259],"type":"SCALAR","bufferView":3,"byteOffset":23736},{"name":"Hydreigon_1_2_positions","componentType":5126,"count":5466,"min":[-109.79199981689453,-0.05296500027179718,-53.35589599609375],"max":[109.79199981689453,131.91400146484375,114.54501342773438],"type":"VEC3","bufferView":0,"byteOffset":157536},{"name":"Hydreigon_1_2_normals","componentType":5126,"count":5466,"min":[-0.9996005296707153,-0.9870424270629883,-0.9743616580963135],"max":[0.9996004104614258,0.9598848819732666,0.997905433177948],"type":"VEC3","bufferView":1,"byteOffset":157536},{"name":"Hydreigon_1_2_texcoords","componentType":5126,"count":5466,"min":[0.010216999799013138,-0.9878100156784058],"max":[0.9897239804267883,-0.005900000222027302],"type":"VEC2","bufferView":2,"byteOffset":105024},{"name":"Hydreigon_1_2_indices","componentType":5123,"count":5466,"min":[0],"max":[5465],"type":"SCALAR","bufferView":3,"byteOffset":26256}],"asset":{"generator":"obj2gltf","version":"2.0"},"buffers":[{"name":"XY_Hydreigon","byteLength":734544,"uri":"data:application/octet-stream;base64,"}],"bufferViews":[{"name":"bufferView_0","buffer":0,"byteLength":223128,"byteOffset":0,"byteStride":12,"target":34962},{"name":"bufferView_1","buffer":0,"byteLength":223128,"byteOffset":223128,"byteStride":12,"target":34962},{"name":"bufferView_2","buffer":0,"byteLength":148752,"byteOffset":446256,"byteStride":8,"target":34962},{"name":"bufferView_3","buffer":0,"byteLength":37188,"byteOffset":595008,"target":34963},{"buffer":0,"byteOffset":632196,"byteLength":31763},{"buffer":0,"byteOffset":663959,"byteLength":34077},{"buffer":0,"byteOffset":698036,"byteLength":36508}],"images":[{"name":"pm0635_00_BodyA1","mimeType":"image/png","bufferView":4},{"name":"pm0635_00_Eye1","mimeType":"image/png","bufferView":5},{"name":"pm0635_00_BodyB1","mimeType":"image/png","bufferView":6}],"materials":[{"name":"Material__35","pbrMetallicRoughness":{"baseColorTexture":{"index":0},"baseColorFactor":[1,1,1,1],"metallicFactor":0,"roughnessFactor":0.998},"emissiveFactor":[0,0,0],"alphaMode":"OPAQUE","doubleSided":false},{"name":"Material__36","pbrMetallicRoughness":{"baseColorTexture":{"index":1},"baseColorFactor":[1,1,1,1],"metallicFactor":0,"roughnessFactor":0.998},"emissiveFactor":[0,0,0],"alphaMode":"OPAQUE","doubleSided":false},{"name":"Material__37","pbrMetallicRoughness":{"baseColorTexture":{"index":2},"baseColorFactor":[1,1,1,1],"metallicFactor":0,"roughnessFactor":0.998},"emissiveFactor":[0,0,0],"alphaMode":"OPAQUE","doubleSided":false}],"meshes":[{"name":"Hydreigon_1","primitives":[{"attributes":{"POSITION":0,"NORMAL":1,"TEXCOORD_0":2},"indices":3,"material":0,"mode":4},{"attributes":{"POSITION":4,"NORMAL":5,"TEXCOORD_0":6},"indices":7,"material":1,"mode":4},{"attributes":{"POSITION":8,"NORMAL":9,"TEXCOORD_0":10},"indices":11,"material":2,"mode":4}]}],"nodes":[{"name":"Hydreigon","mesh":0}],"samplers":[{"wrapS":10497,"wrapT":10497}],"scene":0,"scenes":[{"nodes":[0]}],"textures":[{"name":"pm0635_00_BodyA1","sampler":0,"source":0},{"name":"pm0635_00_Eye1","sampler":0,"source":1},{"name":"pm0635_00_BodyB1","sampler":0,"source":2}]}