{"accessors":[{"name":"polygon0_1_0_positions","componentType":5126,"count":62,"min":[-1.4292409420013428,12.037020683288574,8.352424621582031],"max":[1.4292409420013428,14.152959823608398,10.852092742919922],"type":"VEC3","bufferView":0,"byteOffset":0},{"name":"polygon0_1_0_normals","componentType":5126,"count":62,"min":[-0.9864939451217651,-0.6358551383018494,-0.1378810852766037],"max":[0.9864939451217651,0.9599559307098389,0.9294460415840149],"type":"VEC3","bufferView":1,"byteOffset":0},{"name":"polygon0_1_0_texcoords","componentType":5126,"count":62,"min":[0.011718999594449997,0.0078119998797774315],"max":[0.4921880066394806,0.2421869933605194],"type":"VEC2","bufferView":2,"byteOffset":0},{"name":"polygon0_1_0_indices","componentType":5123,"count":294,"min":[0],"max":[61],"type":"SCALAR","bufferView":3,"byteOffset":0},{"name":"polygon1_1_0_positions","componentType":5126,"count":1532,"min":[-11.077651023864746,-0.005295999813824892,-5.289109230041504],"max":[11.077649116516113,21.798572540283203,11.484573364257812],"type":"VEC3","bufferView":0,"byteOffset":744},{"name":"polygon1_1_0_normals","componentType":5126,"count":1532,"min":[-0.999621570110321,-0.9983981251716614,-0.9969577789306641],"max":[0.999621570110321,0.9999232292175293,0.9999670386314392],"type":"VEC3","bufferView":1,"byteOffset":744},{"name":"polygon1_1_0_texcoords","componentType":5126,"count":1532,"min":[0.0026549999602138996,0.005615000147372484],"max":[0.9960629940032959,0.9961240291595459],"type":"VEC2","bufferView":2,"byteOffset":496},{"name":"polygon1_1_0_indices","componentType":5123,"count":5952,"min":[0],"max":[1531],"type":"SCALAR","bufferView":3,"byteOffset":588}],"asset":{"generator":"obj2gltf","version":"2.0"},"buffers":[{"name":"P2_Hydreigon","byteLength":63500,"uri":"data:application/octet-stream;base64,"}],"bufferViews":[{"name":"bufferView_0","buffer":0,"byteLength":19128,"byteOffset":0,"byteStride":12,"target":34962},{"name":"bufferView_1","buffer":0,"byteLength":19128,"byteOffset":19128,"byteStride":12,"target":34962},{"name":"bufferView_2","buffer":0,"byteLength":12752,"byteOffset":38256,"byteStride":8,"target":34962},{"name":"bufferView_3","buffer":0,"byteLength":12492,"byteOffset":51008,"target":34963}],"materials":[{"name":"mat2","pbrMetallicRoughness":{"baseColorFactor":[0.5,0.5,0.5,1],"metallicFactor":0,"roughnessFactor":1},"emissiveFactor":[0,0,0],"alphaMode":"OPAQUE","doubleSided":false},{"name":"mat1","pbrMetallicRoughness":{"baseColorFactor":[0.5,0.5,0.5,1],"metallicFactor":0,"roughnessFactor":1},"emissiveFactor":[0,0,0],"alphaMode":"OPAQUE","doubleSided":false}],"meshes":[{"name":"polygon0_1","primitives":[{"attributes":{"POSITION":0,"NORMAL":1,"TEXCOORD_0":2},"indices":3,"material":0,"mode":4}]},{"name":"polygon1_1","primitives":[{"attributes":{"POSITION":4,"NORMAL":5,"TEXCOORD_0":6},"indices":7,"material":1,"mode":4}]}],"nodes":[{"name":"polygon0","mesh":0},{"name":"polygon1","mesh":1}],"scene":0,"scenes":[{"nodes":[0,1]}]}