{"accessors":[{"name":"Cobalion_1_0_positions","componentType":5126,"count":396,"min":[-11.00979995727539,156.94700622558594,119.27500915527344],"max":[11.00979995727539,166.76400756835938,148.989013671875],"type":"VEC3","bufferView":0,"byteOffset":0},{"name":"Cobalion_1_0_normals","componentType":5126,"count":396,"min":[-0.80252605676651,-0.9993698000907898,-0.1462489664554596],"max":[0.80252605676651,-0.5463350415229797,0.25328806042671204],"type":"VEC3","bufferView":1,"byteOffset":0},{"name":"Cobalion_1_0_texcoords","componentType":5126,"count":396,"min":[0.036097001284360886,-2.9920899868011475],"max":[0.46389999985694885,-2.7579100131988525],"type":"VEC2","bufferView":2,"byteOffset":0},{"name":"Cobalion_1_0_indices","componentType":5123,"count":396,"min":[0],"max":[395],"type":"SCALAR","bufferView":3,"byteOffset":0},{"name":"Cobalion_1_1_positions","componentType":5126,"count":9843,"min":[-34.96540069580078,69.3899917602539,-47.38819885253906],"max":[34.96540069580078,253.06201171875,148.99603271484375],"type":"VEC3","bufferView":0,"byteOffset":4752},{"name":"Cobalion_1_1_normals","componentType":5126,"count":9843,"min":[-0.997165858745575,-0.9994615912437439,-0.9988353848457336],"max":[0.997165858745575,0.8427505493164062,0.9930649399757385],"type":"VEC3","bufferView":1,"byteOffset":4752},{"name":"Cobalion_1_1_texcoords","componentType":5126,"count":9843,"min":[0,0.0078119998797774315],"max":[1,0.9921879768371582],"type":"VEC2","bufferView":2,"byteOffset":3168},{"name":"Cobalion_1_1_indices","componentType":5123,"count":9843,"min":[0],"max":[9842],"type":"SCALAR","bufferView":3,"byteOffset":792},{"name":"Cobalion_1_2_positions","componentType":5126,"count":9408,"min":[-35.492313385009766,-0.00011100000119768083,-90.24990844726562],"max":[35.49210739135742,161.78900146484375,93.16242980957031],"type":"VEC3","bufferView":0,"byteOffset":122868},{"name":"Cobalion_1_2_normals","componentType":5126,"count":9408,"min":[-0.9972348809242249,-0.9998132586479187,-0.9988353848457336],"max":[0.9972349405288696,0.999915361404419,0.9814680814743042],"type":"VEC3","bufferView":1,"byteOffset":122868},{"name":"Cobalion_1_2_texcoords","componentType":5126,"count":9408,"min":[0.0073449998162686825,-0.9921900033950806],"max":[0.9926549792289734,-0.007809999864548445],"type":"VEC2","bufferView":2,"byteOffset":81912},{"name":"Cobalion_1_2_indices","componentType":5123,"count":9408,"min":[0],"max":[9407],"type":"SCALAR","bufferView":3,"byteOffset":20480},{"name":"Cobalion_1_3_positions","componentType":5126,"count":492,"min":[-15.118200302124023,160.8800048828125,119.31502532958984],"max":[15.118200302124023,181.30001831054688,141.8500213623047],"type":"VEC3","bufferView":0,"byteOffset":235764},{"name":"Cobalion_1_3_normals","componentType":5126,"count":492,"min":[-0.9948865175247192,-0.9993698000907898,-0.9972108006477356],"max":[0.9842575788497925,0.6401858925819397,0.9389678239822388],"type":"VEC3","bufferView":1,"byteOffset":235764},{"name":"Cobalion_1_3_texcoords","componentType":5126,"count":492,"min":[0.01603499986231327,-1.9671399593353271],"max":[0.4839699864387512,-1.789929986000061],"type":"VEC2","bufferView":2,"byteOffset":157176},{"name":"Cobalion_1_3_indices","componentType":5123,"count":492,"min":[0],"max":[491],"type":"SCALAR","bufferView":3,"byteOffset":39296}],"asset":{"generator":"obj2gltf","version":"2.0"},"buffers":[{"name":"XY_Cobalion","byteLength":844324,"uri":"data:application/octet-stream;base64,"}],"bufferViews":[{"name":"bufferView_0","buffer":0,"byteLength":241668,"byteOffset":0,"byteStride":12,"target":34962},{"name":"bufferView_1","buffer":0,"byteLength":241668,"byteOffset":241668,"byteStride":12,"target":34962},{"name":"bufferView_2","buffer":0,"byteLength":161112,"byteOffset":483336,"byteStride":8,"target":34962},{"name":"bufferView_3","buffer":0,"byteLength":40280,"byteOffset":644448,"target":34963},{"buffer":0,"byteOffset":684728,"byteLength":12356},{"buffer":0,"byteOffset":697084,"byteLength":53058},{"buffer":0,"byteOffset":750142,"byteLength":53856},{"buffer":0,"byteOffset":803998,"byteLength":40326}],"images":[{"name":"pm0638_00_Mouth1","mimeType":"image/png","bufferView":4},{"name":"pm0638_00_BodyA1","mimeType":"image/png","bufferView":5},{"name":"pm0638_00_BodyB1","mimeType":"image/png","bufferView":6},{"name":"pm0638_00_Eye1","mimeType":"image/png","bufferView":7}],"materials":[{"name":"Material__10","pbrMetallicRoughness":{"baseColorTexture":{"index":0},"baseColorFactor":[1,1,1,1],"metallicFactor":0,"roughnessFactor":0.998},"emissiveFactor":[0,0,0],"alphaMode":"OPAQUE","doubleSided":false},{"name":"Material__11","pbrMetallicRoughness":{"baseColorTexture":{"index":1},"baseColorFactor":[1,1,1,1],"metallicFactor":0,"roughnessFactor":0.998},"emissiveFactor":[0,0,0],"alphaMode":"OPAQUE","doubleSided":false},{"name":"Material__12","pbrMetallicRoughness":{"baseColorTexture":{"index":2},"baseColorFactor":[1,1,1,1],"metallicFactor":0,"roughnessFactor":0.998},"emissiveFactor":[0,0,0],"alphaMode":"OPAQUE","doubleSided":false},{"name":"Material__13","pbrMetallicRoughness":{"baseColorTexture":{"index":3},"baseColorFactor":[1,1,1,1],"metallicFactor":0,"roughnessFactor":0.998},"emissiveFactor":[0,0,0],"alphaMode":"OPAQUE","doubleSided":false}],"meshes":[{"name":"Cobalion_1","primitives":[{"attributes":{"POSITION":0,"NORMAL":1,"TEXCOORD_0":2},"indices":3,"material":0,"mode":4},{"attributes":{"POSITION":4,"NORMAL":5,"TEXCOORD_0":6},"indices":7,"material":1,"mode":4},{"attributes":{"POSITION":8,"NORMAL":9,"TEXCOORD_0":10},"indices":11,"material":2,"mode":4},{"attributes":{"POSITION":12,"NORMAL":13,"TEXCOORD_0":14},"indices":15,"material":3,"mode":4}]}],"nodes":[{"name":"Cobalion","mesh":0}],"samplers":[{"wrapS":10497,"wrapT":10497}],"scene":0,"scenes":[{"nodes":[0]}],"textures":[{"name":"pm0638_00_Mouth1","sampler":0,"source":0},{"name":"pm0638_00_BodyA1","sampler":0,"source":1},{"name":"pm0638_00_BodyB1","sampler":0,"source":2},{"name":"pm0638_00_Eye1","sampler":0,"source":3}]}