{"accessors":[{"name":"Terrakion_1_0_positions","componentType":5126,"count":174,"min":[-22.811721801757812,81.02313995361328,147.56309509277344],"max":[22.811874389648438,101.52806091308594,164.1450958251953],"type":"VEC3","bufferView":0,"byteOffset":0},{"name":"Terrakion_1_0_normals","componentType":5126,"count":174,"min":[-0.9094519019126892,-0.7447639107704163,0.31275704503059387],"max":[-0.15460596978664398,-0.01789199374616146,0.9682610034942627],"type":"VEC3","bufferView":1,"byteOffset":0},{"name":"Terrakion_1_0_texcoords","componentType":5126,"count":174,"min":[0.10842400044202805,-2.984380006790161],"max":[0.3915799856185913,-2.85044002532959],"type":"VEC2","bufferView":2,"byteOffset":0},{"name":"Terrakion_1_0_indices","componentType":5123,"count":174,"min":[0],"max":[173],"type":"SCALAR","bufferView":3,"byteOffset":0},{"name":"Terrakion_1_1_positions","componentType":5126,"count":5544,"min":[-76.48677825927734,16.51528549194336,-97.86360168457031],"max":[76.48680877685547,170.6859893798828,164.59605407714844],"type":"VEC3","bufferView":0,"byteOffset":2088},{"name":"Terrakion_1_1_normals","componentType":5126,"count":5544,"min":[-0.993676483631134,-0.9895188212394714,-0.9955178499221802],"max":[0.9936763644218445,0.999978244304657,0.9817461371421814],"type":"VEC3","bufferView":1,"byteOffset":2088},{"name":"Terrakion_1_1_texcoords","componentType":5126,"count":5544,"min":[0.0078119998797774315,0.013647000305354595],"max":[0.9921879768371582,0.9921870231628418],"type":"VEC2","bufferView":2,"byteOffset":1392},{"name":"Terrakion_1_1_indices","componentType":5123,"count":5544,"min":[0],"max":[5543],"type":"SCALAR","bufferView":3,"byteOffset":348},{"name":"Terrakion_1_2_positions","componentType":5126,"count":240,"min":[-25.256074905395508,96.25674438476562,126.05802154541016],"max":[25.256120681762695,127.15702819824219,164.99305725097656],"type":"VEC3","bufferView":0,"byteOffset":68616},{"name":"Terrakion_1_2_normals","componentType":5126,"count":240,"min":[-0.7362117171287537,-0.979947566986084,-0.9955178499221802],"max":[0.9626302123069763,0.999978244304657,0.89958256483078],"type":"VEC3","bufferView":1,"byteOffset":68616},{"name":"Terrakion_1_2_texcoords","componentType":5126,"count":240,"min":[0.01167600043118,-1.98062002658844],"max":[0.488319993019104,-1.8408000469207764],"type":"VEC2","bufferView":2,"byteOffset":45744},{"name":"Terrakion_1_2_indices","componentType":5123,"count":240,"min":[0],"max":[239],"type":"SCALAR","bufferView":3,"byteOffset":11436},{"name":"Terrakion_1_3_positions","componentType":5126,"count":9000,"min":[-87.9262924194336,-0.00019099999917671084,-101.82810974121094],"max":[87.9262924194336,182.6830291748047,166.73207092285156],"type":"VEC3","bufferView":0,"byteOffset":71496},{"name":"Terrakion_1_3_normals","componentType":5126,"count":9000,"min":[-1,-0.9223408102989197,-0.9999989867210388],"max":[1,0.9999783039093018,0.9999600052833557],"type":"VEC3","bufferView":1,"byteOffset":71496},{"name":"Terrakion_1_3_texcoords","componentType":5126,"count":9000,"min":[0.007978999987244606,-0.9921900033950806],"max":[0.9920210242271423,-0.007809999864548445],"type":"VEC2","bufferView":2,"byteOffset":47664},{"name":"Terrakion_1_3_indices","componentType":5123,"count":9000,"min":[0],"max":[8999],"type":"SCALAR","bufferView":3,"byteOffset":11916}],"asset":{"generator":"obj2gltf","version":"2.0"},"buffers":[{"name":"XY_Terrakion","byteLength":650368,"uri":"data:application/octet-stream;base64,"}],"bufferViews":[{"name":"bufferView_0","buffer":0,"byteLength":179496,"byteOffset":0,"byteStride":12,"target":34962},{"name":"bufferView_1","buffer":0,"byteLength":179496,"byteOffset":179496,"byteStride":12,"target":34962},{"name":"bufferView_2","buffer":0,"byteLength":119664,"byteOffset":358992,"byteStride":8,"target":34962},{"name":"bufferView_3","buffer":0,"byteLength":29916,"byteOffset":478656,"target":34963},{"buffer":0,"byteOffset":508572,"byteLength":17845},{"buffer":0,"byteOffset":526417,"byteLength":41031},{"buffer":0,"byteOffset":567448,"byteLength":30412},{"buffer":0,"byteOffset":597860,"byteLength":52507}],"images":[{"name":"pm0639_00_Mouth1","mimeType":"image/png","bufferView":4},{"name":"pm0639_00_BodyA1","mimeType":"image/png","bufferView":5},{"name":"pm0639_00_Eye1","mimeType":"image/png","bufferView":6},{"name":"pm0639_00_BodyB1","mimeType":"image/png","bufferView":7}],"materials":[{"name":"Material__24","pbrMetallicRoughness":{"baseColorTexture":{"index":0},"baseColorFactor":[1,1,1,1],"metallicFactor":0,"roughnessFactor":0.998},"emissiveFactor":[0,0,0],"alphaMode":"OPAQUE","doubleSided":false},{"name":"Material__25","pbrMetallicRoughness":{"baseColorTexture":{"index":1},"baseColorFactor":[1,1,1,1],"metallicFactor":0,"roughnessFactor":0.998},"emissiveFactor":[0,0,0],"alphaMode":"OPAQUE","doubleSided":false},{"name":"Material__26","pbrMetallicRoughness":{"baseColorTexture":{"index":2},"baseColorFactor":[1,1,1,1],"metallicFactor":0,"roughnessFactor":0.998},"emissiveFactor":[0,0,0],"alphaMode":"OPAQUE","doubleSided":false},{"name":"Material__27","pbrMetallicRoughness":{"baseColorTexture":{"index":3},"baseColorFactor":[1,1,1,1],"metallicFactor":0,"roughnessFactor":0.998},"emissiveFactor":[0,0,0],"alphaMode":"OPAQUE","doubleSided":false}],"meshes":[{"name":"Terrakion_1","primitives":[{"attributes":{"POSITION":0,"NORMAL":1,"TEXCOORD_0":2},"indices":3,"material":0,"mode":4},{"attributes":{"POSITION":4,"NORMAL":5,"TEXCOORD_0":6},"indices":7,"material":1,"mode":4},{"attributes":{"POSITION":8,"NORMAL":9,"TEXCOORD_0":10},"indices":11,"material":2,"mode":4},{"attributes":{"POSITION":12,"NORMAL":13,"TEXCOORD_0":14},"indices":15,"material":3,"mode":4}]}],"nodes":[{"name":"Terrakion","mesh":0}],"samplers":[{"wrapS":10497,"wrapT":10497}],"scene":0,"scenes":[{"nodes":[0]}],"textures":[{"name":"pm0639_00_Mouth1","sampler":0,"source":0},{"name":"pm0639_00_BodyA1","sampler":0,"source":1},{"name":"pm0639_00_Eye1","sampler":0,"source":2},{"name":"pm0639_00_BodyB1","sampler":0,"source":3}]}