{"accessors":[{"name":"Virizion_1_0_positions","componentType":5126,"count":240,"min":[-20.742170333862305,155.7040557861328,42.17696762084961],"max":[20.742231369018555,174.51107788085938,79.0993881225586],"type":"VEC3","bufferView":0,"byteOffset":0},{"name":"Virizion_1_0_normals","componentType":5126,"count":240,"min":[-0.877526044845581,-0.8336769342422485,-0.1159379631280899],"max":[-0.3311139643192291,-0.3039110004901886,0.4617501497268677],"type":"VEC3","bufferView":1,"byteOffset":0},{"name":"Virizion_1_0_texcoords","componentType":5126,"count":240,"min":[0.00827100034803152,-1.9726200103759766],"max":[0.4917300045490265,-1.8036999702453613],"type":"VEC2","bufferView":2,"byteOffset":0},{"name":"Virizion_1_0_indices","componentType":5123,"count":240,"min":[0],"max":[239],"type":"SCALAR","bufferView":3,"byteOffset":0},{"name":"Virizion_1_1_positions","componentType":5126,"count":16278,"min":[-73.684814453125,-0.00010299999848939478,-72.17990112304688],"max":[73.68497467041016,199.8059539794922,79.14417266845703],"type":"VEC3","bufferView":0,"byteOffset":2880},{"name":"Virizion_1_1_normals","componentType":5126,"count":16278,"min":[-0.9994093775749207,-0.9940029382705688,-0.9995459318161011],"max":[0.9994093775749207,0.9918756484985352,0.997410774230957],"type":"VEC3","bufferView":1,"byteOffset":2880},{"name":"Virizion_1_1_texcoords","componentType":5126,"count":16278,"min":[0.005065999925136566,0.0078119998797774315],"max":[0.9949340224266052,0.9921870231628418],"type":"VEC2","bufferView":2,"byteOffset":1920},{"name":"Virizion_1_1_indices","componentType":5123,"count":16278,"min":[0],"max":[16277],"type":"SCALAR","bufferView":3,"byteOffset":480},{"name":"Virizion_1_2_positions","componentType":5126,"count":48,"min":[-24.79656219482422,164.0701141357422,52.073917388916016],"max":[24.79663848876953,178.09909057617188,73.76346588134766],"type":"VEC3","bufferView":0,"byteOffset":198216},{"name":"Virizion_1_2_normals","componentType":5126,"count":48,"min":[-0.8557317852973938,-0.785103976726532,-0.6939011216163635],"max":[0.691007137298584,0.4865080416202545,0.7822250723838806],"type":"VEC3","bufferView":1,"byteOffset":198216},{"name":"Virizion_1_2_texcoords","componentType":5126,"count":48,"min":[0.007557000033557415,-0.9108899831771851],"max":[0.49243998527526855,-0.8316900134086609],"type":"VEC2","bufferView":2,"byteOffset":132144},{"name":"Virizion_1_2_indices","componentType":5123,"count":48,"min":[0],"max":[47],"type":"SCALAR","bufferView":3,"byteOffset":33036}],"asset":{"generator":"obj2gltf","version":"2.0"},"buffers":[{"name":"XY_Virizion","byteLength":661016,"uri":"data:application/octet-stream;base64,"}],"bufferViews":[{"name":"bufferView_0","buffer":0,"byteLength":198792,"byteOffset":0,"byteStride":12,"target":34962},{"name":"bufferView_1","buffer":0,"byteLength":198792,"byteOffset":198792,"byteStride":12,"target":34962},{"name":"bufferView_2","buffer":0,"byteLength":132528,"byteOffset":397584,"byteStride":8,"target":34962},{"name":"bufferView_3","buffer":0,"byteLength":33132,"byteOffset":530112,"target":34963},{"buffer":0,"byteOffset":563244,"byteLength":25514},{"buffer":0,"byteOffset":588758,"byteLength":62738},{"buffer":0,"byteOffset":651496,"byteLength":9519}],"images":[{"name":"pm0640_00_Mouth1","mimeType":"image/png","bufferView":4},{"name":"pm0640_00_Body1","mimeType":"image/png","bufferView":5},{"name":"pm0640_00_Eye1","mimeType":"image/png","bufferView":6}],"materials":[{"name":"Material__38","pbrMetallicRoughness":{"baseColorTexture":{"index":0},"baseColorFactor":[1,1,1,1],"metallicFactor":0,"roughnessFactor":0.998},"emissiveFactor":[0,0,0],"alphaMode":"OPAQUE","doubleSided":false},{"name":"Material__39","pbrMetallicRoughness":{"baseColorTexture":{"index":1},"baseColorFactor":[1,1,1,1],"metallicFactor":0,"roughnessFactor":0.998},"emissiveFactor":[0,0,0],"alphaMode":"OPAQUE","doubleSided":false},{"name":"Material__40","pbrMetallicRoughness":{"baseColorTexture":{"index":2},"baseColorFactor":[1,1,1,1],"metallicFactor":0,"roughnessFactor":0.998},"emissiveFactor":[0,0,0],"alphaMode":"OPAQUE","doubleSided":false}],"meshes":[{"name":"Virizion_1","primitives":[{"attributes":{"POSITION":0,"NORMAL":1,"TEXCOORD_0":2},"indices":3,"material":0,"mode":4},{"attributes":{"POSITION":4,"NORMAL":5,"TEXCOORD_0":6},"indices":7,"material":1,"mode":4},{"attributes":{"POSITION":8,"NORMAL":9,"TEXCOORD_0":10},"indices":11,"material":2,"mode":4}]}],"nodes":[{"name":"Virizion","mesh":0}],"samplers":[{"wrapS":10497,"wrapT":10497}],"scene":0,"scenes":[{"nodes":[0]}],"textures":[{"name":"pm0640_00_Mouth1","sampler":0,"source":0},{"name":"pm0640_00_Body1","sampler":0,"source":1},{"name":"pm0640_00_Eye1","sampler":0,"source":2}]}