{"accessors":[{"name":"polygon0_1_0_positions","componentType":5126,"count":951,"min":[-5.597932815551758,0.5109570026397705,-4.436644077301025],"max":[5.597933769226074,15.552802085876465,4.549120903015137],"type":"VEC3","bufferView":0,"byteOffset":0},{"name":"polygon0_1_0_normals","componentType":5126,"count":951,"min":[-0.9948181509971619,-0.9983411431312561,-0.998971164226532],"max":[0.9948181509971619,0.9993686079978943,0.9999403357505798],"type":"VEC3","bufferView":1,"byteOffset":0},{"name":"polygon0_1_0_texcoords","componentType":5126,"count":951,"min":[0.0036319999489933252,0.0034179999493062496],"max":[0.8748170137405396,0.9978029727935791],"type":"VEC2","bufferView":2,"byteOffset":0},{"name":"polygon0_1_0_indices","componentType":5123,"count":4098,"min":[0],"max":[950],"type":"SCALAR","bufferView":3,"byteOffset":0},{"name":"polygon1_1_0_positions","componentType":5126,"count":13,"min":[-0.9796479940414429,12.050690650939941,0.40740999579429626],"max":[0.9796479940414429,13.262896537780762,1.306015968322754],"type":"VEC3","bufferView":0,"byteOffset":11412},{"name":"polygon1_1_0_normals","componentType":5126,"count":13,"min":[-0.65105801820755,0.4172299802303314,0.4642259478569031],"max":[0.65105801820755,0.7902061343193054,0.9088009595870972],"type":"VEC3","bufferView":1,"byteOffset":11412},{"name":"polygon1_1_0_texcoords","componentType":5126,"count":13,"min":[0.007813000120222569,0.0039059999398887157],"max":[0.4921880066394806,0.2460940033197403],"type":"VEC2","bufferView":2,"byteOffset":7608},{"name":"polygon1_1_0_indices","componentType":5123,"count":42,"min":[0],"max":[12],"type":"SCALAR","bufferView":3,"byteOffset":8196},{"name":"polygon4_1_0_positions","componentType":5126,"count":248,"min":[-0.7120959758758545,6.716094970703125,-25.10709571838379],"max":[0.7120959758758545,9.057160377502441,-5.2997260093688965],"type":"VEC3","bufferView":0,"byteOffset":11568},{"name":"polygon4_1_0_normals","componentType":5126,"count":248,"min":[-0.9997528195381165,-0.458554208278656,-0.9992127418518066],"max":[0.9997528195381165,0.9999731779098511,0.9989877343177795],"type":"VEC3","bufferView":1,"byteOffset":11568},{"name":"polygon4_1_0_texcoords","componentType":5126,"count":248,"min":[0.6788939833641052,0.01687600091099739],"max":[0.8197630047798157,0.4556579887866974],"type":"VEC2","bufferView":2,"byteOffset":7712},{"name":"polygon4_1_0_indices","componentType":5123,"count":1056,"min":[0],"max":[247],"type":"SCALAR","bufferView":3,"byteOffset":8280},{"name":"polygon5_1_0_positions","componentType":5126,"count":213,"min":[-1.166491985321045,5.296932220458984,-29.624292373657227],"max":[1.166491985321045,9.284902572631836,-3.2999980449676514],"type":"VEC3","bufferView":0,"byteOffset":14544},{"name":"polygon5_1_0_normals","componentType":5126,"count":213,"min":[-0.9987547397613525,-0.9996126294136047,-0.864207923412323],"max":[0.9987547397613525,0.9999778866767883,0.9535578489303589],"type":"VEC3","bufferView":1,"byteOffset":14544},{"name":"polygon5_1_0_texcoords","componentType":5126,"count":213,"min":[0.8295900225639343,0.002440999960526824],"max":[0.9962159991264343,0.9891359806060791],"type":"VEC2","bufferView":2,"byteOffset":9696},{"name":"polygon5_1_0_indices","componentType":5123,"count":1050,"min":[0],"max":[212],"type":"SCALAR","bufferView":3,"byteOffset":10392}],"asset":{"generator":"obj2gltf","version":"2.0"},"buffers":[{"name":"P2_Tornadus","byteLength":58092,"uri":"data:application/octet-stream;base64,"}],"bufferViews":[{"name":"bufferView_0","buffer":0,"byteLength":17100,"byteOffset":0,"byteStride":12,"target":34962},{"name":"bufferView_1","buffer":0,"byteLength":17100,"byteOffset":17100,"byteStride":12,"target":34962},{"name":"bufferView_2","buffer":0,"byteLength":11400,"byteOffset":34200,"byteStride":8,"target":34962},{"name":"bufferView_3","buffer":0,"byteLength":12492,"byteOffset":45600,"target":34963}],"materials":[{"name":"mat1","pbrMetallicRoughness":{"baseColorFactor":[0.5,0.5,0.5,1],"metallicFactor":0,"roughnessFactor":1},"emissiveFactor":[0,0,0],"alphaMode":"OPAQUE","doubleSided":false},{"name":"mat2","pbrMetallicRoughness":{"baseColorFactor":[0.5,0.5,0.5,1],"metallicFactor":0,"roughnessFactor":1},"emissiveFactor":[0,0,0],"alphaMode":"OPAQUE","doubleSided":false},{"name":"mat3","pbrMetallicRoughness":{"baseColorFactor":[0.5,0.5,0.5,1],"metallicFactor":0,"roughnessFactor":1},"emissiveFactor":[0,0,0],"alphaMode":"OPAQUE","doubleSided":false},{"name":"mat4","pbrMetallicRoughness":{"baseColorFactor":[0.5,0.5,0.5,1],"metallicFactor":0,"roughnessFactor":1},"emissiveFactor":[0,0,0],"alphaMode":"OPAQUE","doubleSided":false}],"meshes":[{"name":"polygon0_1","primitives":[{"attributes":{"POSITION":0,"NORMAL":1,"TEXCOORD_0":2},"indices":3,"material":0,"mode":4}]},{"name":"polygon1_1","primitives":[{"attributes":{"POSITION":4,"NORMAL":5,"TEXCOORD_0":6},"indices":7,"material":1,"mode":4}]},{"name":"polygon4_1","primitives":[{"attributes":{"POSITION":8,"NORMAL":9,"TEXCOORD_0":10},"indices":11,"material":2,"mode":4}]},{"name":"polygon5_1","primitives":[{"attributes":{"POSITION":12,"NORMAL":13,"TEXCOORD_0":14},"indices":15,"material":3,"mode":4}]}],"nodes":[{"name":"polygon0","mesh":0},{"name":"polygon1","mesh":1},{"name":"polygon4","mesh":2},{"name":"polygon5","mesh":3}],"scene":0,"scenes":[{"nodes":[0,1,2,3]}]}