{"accessors":[{"name":"polygon0_1_0_positions","componentType":5126,"count":979,"min":[-5.597932815551758,0.5109570026397705,-26.38718032836914],"max":[5.597933769226074,15.281255722045898,4.549120903015137],"type":"VEC3","bufferView":0,"byteOffset":0},{"name":"polygon0_1_0_normals","componentType":5126,"count":979,"min":[-1,-1,-0.999992311000824],"max":[1,1,0.9999403357505798],"type":"VEC3","bufferView":1,"byteOffset":0},{"name":"polygon0_1_0_texcoords","componentType":5126,"count":979,"min":[0.003722999943420291,0.003295999951660633],"max":[0.9981380105018616,0.9976810216903687],"type":"VEC2","bufferView":2,"byteOffset":0},{"name":"polygon0_1_0_indices","componentType":5123,"count":4128,"min":[0],"max":[978],"type":"SCALAR","bufferView":3,"byteOffset":0},{"name":"polygon1_1_0_positions","componentType":5126,"count":13,"min":[-0.9796479940414429,12.050690650939941,0.40740999579429626],"max":[0.9796479940414429,13.262896537780762,1.306015968322754],"type":"VEC3","bufferView":0,"byteOffset":11748},{"name":"polygon1_1_0_normals","componentType":5126,"count":13,"min":[-0.65105801820755,0.4172299802303314,0.4642259478569031],"max":[0.65105801820755,0.7902061343193054,0.9088009595870972],"type":"VEC3","bufferView":1,"byteOffset":11748},{"name":"polygon1_1_0_texcoords","componentType":5126,"count":13,"min":[0.007813000120222569,0.0039059999398887157],"max":[0.4921880066394806,0.2460940033197403],"type":"VEC2","bufferView":2,"byteOffset":7832},{"name":"polygon1_1_0_indices","componentType":5123,"count":42,"min":[0],"max":[12],"type":"SCALAR","bufferView":3,"byteOffset":8256},{"name":"polygon3_1_0_positions","componentType":5126,"count":350,"min":[-1.315101981163025,4.999244213104248,-29.008012771606445],"max":[1.315101981163025,9.386173248291016,-5.198753833770752],"type":"VEC3","bufferView":0,"byteOffset":11904},{"name":"polygon3_1_0_normals","componentType":5126,"count":350,"min":[-0.9510546326637268,-1,-1],"max":[0.9510546326637268,1,1],"type":"VEC3","bufferView":1,"byteOffset":11904},{"name":"polygon3_1_0_texcoords","componentType":5126,"count":350,"min":[0.6741639971733093,0.34173598885536194],"max":[0.9924929738044739,0.9888920187950134],"type":"VEC2","bufferView":2,"byteOffset":7936},{"name":"polygon3_1_0_indices","componentType":5123,"count":1764,"min":[0],"max":[349],"type":"SCALAR","bufferView":3,"byteOffset":8340}],"asset":{"generator":"obj2gltf","version":"2.0"},"buffers":[{"name":"P2_Thundurus","byteLength":54812,"uri":"data:application/octet-stream;base64,"}],"bufferViews":[{"name":"bufferView_0","buffer":0,"byteLength":16104,"byteOffset":0,"byteStride":12,"target":34962},{"name":"bufferView_1","buffer":0,"byteLength":16104,"byteOffset":16104,"byteStride":12,"target":34962},{"name":"bufferView_2","buffer":0,"byteLength":10736,"byteOffset":32208,"byteStride":8,"target":34962},{"name":"bufferView_3","buffer":0,"byteLength":11868,"byteOffset":42944,"target":34963}],"materials":[{"name":"mat1","pbrMetallicRoughness":{"baseColorFactor":[0.5,0.5,0.5,1],"metallicFactor":0,"roughnessFactor":1},"emissiveFactor":[0,0,0],"alphaMode":"OPAQUE","doubleSided":false},{"name":"mat2","pbrMetallicRoughness":{"baseColorFactor":[0.5,0.5,0.5,1],"metallicFactor":0,"roughnessFactor":1},"emissiveFactor":[0,0,0],"alphaMode":"OPAQUE","doubleSided":false},{"name":"mat3","pbrMetallicRoughness":{"baseColorFactor":[0.5,0.5,0.5,1],"metallicFactor":0,"roughnessFactor":1},"emissiveFactor":[0,0,0],"alphaMode":"OPAQUE","doubleSided":false}],"meshes":[{"name":"polygon0_1","primitives":[{"attributes":{"POSITION":0,"NORMAL":1,"TEXCOORD_0":2},"indices":3,"material":0,"mode":4}]},{"name":"polygon1_1","primitives":[{"attributes":{"POSITION":4,"NORMAL":5,"TEXCOORD_0":6},"indices":7,"material":1,"mode":4}]},{"name":"polygon3_1","primitives":[{"attributes":{"POSITION":8,"NORMAL":9,"TEXCOORD_0":10},"indices":11,"material":2,"mode":4}]}],"nodes":[{"name":"polygon0","mesh":0},{"name":"polygon1","mesh":1},{"name":"polygon3","mesh":2}],"scene":0,"scenes":[{"nodes":[0,1,2]}]}