{"accessors":[{"name":"polygon0_1_0_positions","componentType":5126,"count":18,"min":[-1.2530770301818848,26.962873458862305,8.821226119995117],"max":[1.2530759572982788,27.489055633544922,10.310247421264648],"type":"VEC3","bufferView":0,"byteOffset":0},{"name":"polygon0_1_0_normals","componentType":5126,"count":18,"min":[-0.9199209809303284,-0.5283219218254089,0.34369394183158875],"max":[0.9199209809303284,0.3049251139163971,0.44786715507507324],"type":"VEC3","bufferView":1,"byteOffset":0},{"name":"polygon0_1_0_texcoords","componentType":5126,"count":18,"min":[1.0354609489440918,0.08032199740409851],"max":[1.9863280057907104,0.1943970024585724],"type":"VEC2","bufferView":2,"byteOffset":0},{"name":"polygon0_1_0_indices","componentType":5123,"count":42,"min":[0],"max":[17],"type":"SCALAR","bufferView":3,"byteOffset":0},{"name":"polygon1_1_0_positions","componentType":5126,"count":3327,"min":[-28.731163024902344,0.04619399830698967,-34.25382614135742],"max":[28.73116683959961,31.97800064086914,12.714700698852539],"type":"VEC3","bufferView":0,"byteOffset":216},{"name":"polygon1_1_0_normals","componentType":5126,"count":3327,"min":[-0.9997195601463318,-0.99955815076828,-0.9999983310699463],"max":[0.9997195601463318,0.9996210336685181,0.9999048709869385],"type":"VEC3","bufferView":1,"byteOffset":216},{"name":"polygon1_1_0_texcoords","componentType":5126,"count":3327,"min":[0.005431999918073416,0.007598999887704849],"max":[0.9960330128669739,0.9983220100402832],"type":"VEC2","bufferView":2,"byteOffset":144},{"name":"polygon1_1_0_indices","componentType":5123,"count":14580,"min":[0],"max":[3326],"type":"SCALAR","bufferView":3,"byteOffset":84},{"name":"polygon2_1_0_positions","componentType":5126,"count":710,"min":[-19.560840606689453,0.04619399830698967,-14.366010665893555],"max":[19.560840606689453,26.585487365722656,10.21951961517334],"type":"VEC3","bufferView":0,"byteOffset":40140},{"name":"polygon2_1_0_normals","componentType":5126,"count":710,"min":[-0.9999655485153198,-0.9999811053276062,-0.9984802603721619],"max":[0.9999465346336365,0.9998452067375183,0.989315390586853],"type":"VEC3","bufferView":1,"byteOffset":40140},{"name":"polygon2_1_0_texcoords","componentType":5126,"count":710,"min":[0.6416929960250854,0.0038449999410659075],"max":[0.9936220049858093,0.12735000252723694],"type":"VEC2","bufferView":2,"byteOffset":26760},{"name":"polygon2_1_0_indices","componentType":5123,"count":3186,"min":[0],"max":[709],"type":"SCALAR","bufferView":3,"byteOffset":29244},{"name":"polygon3_1_0_positions","componentType":5126,"count":191,"min":[-4.0425310134887695,5.2813029289245605,-18.24721336364746],"max":[4.042530059814453,13.348267555236816,-5.944653034210205],"type":"VEC3","bufferView":0,"byteOffset":48660},{"name":"polygon3_1_0_normals","componentType":5126,"count":191,"min":[-0.9992184638977051,-0.9917540550231934,-0.8151578903198242],"max":[0.9998921751976013,0.9820056557655334,0.3810480237007141],"type":"VEC3","bufferView":1,"byteOffset":48660},{"name":"polygon3_1_0_texcoords","componentType":5126,"count":191,"min":[0.7378230094909668,0.04705800116062164],"max":[0.9912109971046448,0.30670198798179626],"type":"VEC2","bufferView":2,"byteOffset":32440},{"name":"polygon3_1_0_indices","componentType":5123,"count":813,"min":[0],"max":[190],"type":"SCALAR","bufferView":3,"byteOffset":35616}],"asset":{"generator":"obj2gltf","version":"2.0"},"buffers":[{"name":"P2_Reshiram","byteLength":173116,"uri":"data:application/octet-stream;base64,"}],"bufferViews":[{"name":"bufferView_0","buffer":0,"byteLength":50952,"byteOffset":0,"byteStride":12,"target":34962},{"name":"bufferView_1","buffer":0,"byteLength":50952,"byteOffset":50952,"byteStride":12,"target":34962},{"name":"bufferView_2","buffer":0,"byteLength":33968,"byteOffset":101904,"byteStride":8,"target":34962},{"name":"bufferView_3","buffer":0,"byteLength":37244,"byteOffset":135872,"target":34963}],"materials":[{"name":"mat2","pbrMetallicRoughness":{"baseColorFactor":[0.5,0.5,0.5,1],"metallicFactor":0,"roughnessFactor":1},"emissiveFactor":[0,0,0],"alphaMode":"OPAQUE","doubleSided":false},{"name":"mat1","pbrMetallicRoughness":{"baseColorFactor":[0.5,0.5,0.5,1],"metallicFactor":0,"roughnessFactor":1},"emissiveFactor":[0,0,0],"alphaMode":"OPAQUE","doubleSided":false},{"name":"mat3","pbrMetallicRoughness":{"baseColorFactor":[0.5,0.5,0.5,1],"metallicFactor":0,"roughnessFactor":1},"emissiveFactor":[0,0,0],"alphaMode":"OPAQUE","doubleSided":false},{"name":"mat4","pbrMetallicRoughness":{"baseColorFactor":[0.5,0.5,0.5,1],"metallicFactor":0,"roughnessFactor":1},"emissiveFactor":[0,0,0],"alphaMode":"OPAQUE","doubleSided":false}],"meshes":[{"name":"polygon0_1","primitives":[{"attributes":{"POSITION":0,"NORMAL":1,"TEXCOORD_0":2},"indices":3,"material":0,"mode":4}]},{"name":"polygon1_1","primitives":[{"attributes":{"POSITION":4,"NORMAL":5,"TEXCOORD_0":6},"indices":7,"material":1,"mode":4}]},{"name":"polygon2_1","primitives":[{"attributes":{"POSITION":8,"NORMAL":9,"TEXCOORD_0":10},"indices":11,"material":2,"mode":4}]},{"name":"polygon3_1","primitives":[{"attributes":{"POSITION":12,"NORMAL":13,"TEXCOORD_0":14},"indices":15,"material":3,"mode":4}]}],"nodes":[{"name":"polygon0","mesh":0},{"name":"polygon1","mesh":1},{"name":"polygon2","mesh":2},{"name":"polygon3","mesh":3}],"scene":0,"scenes":[{"nodes":[0,1,2,3]}]}