{"accessors":[{"name":"polygon0_1_0_positions","componentType":5126,"count":3161,"min":[-18.664167404174805,-0.009316000156104565,-23.549402236938477],"max":[18.664167404174805,32.5322380065918,7.303073883056641],"type":"VEC3","bufferView":0,"byteOffset":0},{"name":"polygon0_1_0_normals","componentType":5126,"count":3161,"min":[-0.9995530247688293,-0.9999971389770508,-0.9998614192008972],"max":[0.9995530247688293,0.9993885159492493,0.9978144764900208],"type":"VEC3","bufferView":1,"byteOffset":0},{"name":"polygon0_1_0_texcoords","componentType":5126,"count":3161,"min":[0.005493000149726868,0.002532999962568283],"max":[0.9963989853858948,0.9988710284233093],"type":"VEC2","bufferView":2,"byteOffset":0},{"name":"polygon0_1_0_indices","componentType":5123,"count":12708,"min":[0],"max":[3160],"type":"SCALAR","bufferView":3,"byteOffset":0},{"name":"polygon1_1_0_positions","componentType":5126,"count":12,"min":[-1.264402985572815,25.25810432434082,4.716433048248291],"max":[1.2644020318984985,25.83115577697754,5.933564186096191],"type":"VEC3","bufferView":0,"byteOffset":37932},{"name":"polygon1_1_0_normals","componentType":5126,"count":12,"min":[-0.8514967560768127,0.30468592047691345,0.4121091067790985],"max":[0.8514967560768127,0.33843910694122314,0.426754891872406],"type":"VEC3","bufferView":1,"byteOffset":37932},{"name":"polygon1_1_0_texcoords","componentType":5126,"count":12,"min":[0.030121000483632088,1.008178949356079],"max":[0.9698789715766907,1.2431340217590332],"type":"VEC2","bufferView":2,"byteOffset":25288},{"name":"polygon1_1_0_indices","componentType":5123,"count":24,"min":[0],"max":[11],"type":"SCALAR","bufferView":3,"byteOffset":25416},{"name":"polygon2_1_0_positions","componentType":5126,"count":875,"min":[-16.599960327148438,-0.01334800012409687,-4.959853172302246],"max":[16.599960327148438,29.98426628112793,7.47520112991333],"type":"VEC3","bufferView":0,"byteOffset":38076},{"name":"polygon2_1_0_normals","componentType":5126,"count":875,"min":[-0.9975686073303223,-0.9999971389770508,-0.9992223978042603],"max":[0.9979869723320007,0.9993775486946106,0.9999474287033081],"type":"VEC3","bufferView":1,"byteOffset":38076},{"name":"polygon2_1_0_texcoords","componentType":5126,"count":875,"min":[0.6140750050544739,0.002624999964609742],"max":[0.9983829855918884,0.9970700144767761],"type":"VEC2","bufferView":2,"byteOffset":25384},{"name":"polygon2_1_0_indices","componentType":5123,"count":3114,"min":[0],"max":[874],"type":"SCALAR","bufferView":3,"byteOffset":25464},{"name":"polygon3_1_0_positions","componentType":5126,"count":14,"min":[-1.4380680322647095,24.03085708618164,4.207559108734131],"max":[1.4380669593811035,24.716663360595703,6.857831001281738],"type":"VEC3","bufferView":0,"byteOffset":48576},{"name":"polygon3_1_0_normals","componentType":5126,"count":14,"min":[-0.9214216470718384,-0.9998740553855896,-0.7608568072319031],"max":[0.9214426279067993,-0.3759138584136963,0.126956045627594],"type":"VEC3","bufferView":1,"byteOffset":48576},{"name":"polygon3_1_0_texcoords","componentType":5126,"count":14,"min":[0.0625,0.1289059966802597],"max":[0.1015629991889,0.1914059966802597],"type":"VEC2","bufferView":2,"byteOffset":32384},{"name":"polygon3_1_0_indices","componentType":5123,"count":42,"min":[0],"max":[13],"type":"SCALAR","bufferView":3,"byteOffset":31692},{"name":"polygon4_1_0_positions","componentType":5126,"count":370,"min":[-4.870124816894531,5.991134166717529,-31.10602569580078],"max":[4.870123863220215,15.683652877807617,-4.507775783538818],"type":"VEC3","bufferView":0,"byteOffset":48744},{"name":"polygon4_1_0_normals","componentType":5126,"count":370,"min":[-1,-1,-0.9952742457389832],"max":[0.9999999403953552,1,1],"type":"VEC3","bufferView":1,"byteOffset":48744},{"name":"polygon4_1_0_texcoords","componentType":5126,"count":370,"min":[0.8161619901657104,0.003783999942243099],"max":[0.9969789981842041,0.24652099609375],"type":"VEC2","bufferView":2,"byteOffset":32496},{"name":"polygon4_1_0_indices","componentType":5123,"count":1116,"min":[0],"max":[369],"type":"SCALAR","bufferView":3,"byteOffset":31776},{"name":"polygon5_1_0_positions","componentType":5126,"count":112,"min":[-1.1085610389709473,24.327585220336914,5.098470211029053],"max":[1.1085610389709473,24.66448402404785,6.532375812530518],"type":"VEC3","bufferView":0,"byteOffset":53184},{"name":"polygon5_1_0_normals","componentType":5126,"count":112,"min":[-0.944087028503418,0.137332022190094,-0.9087640047073364],"max":[0.9440708756446838,0.9999374151229858,0.918390691280365],"type":"VEC3","bufferView":1,"byteOffset":53184},{"name":"polygon5_1_0_texcoords","componentType":5126,"count":112,"min":[0.007813000120222569,0.011718999594449997],"max":[0.05859399959445,0.04296899959445],"type":"VEC2","bufferView":2,"byteOffset":35456},{"name":"polygon5_1_0_indices","componentType":5123,"count":360,"min":[0],"max":[111],"type":"SCALAR","bufferView":3,"byteOffset":34008},{"name":"polygon7_1_0_positions","componentType":5126,"count":19,"min":[-1.3044309616088867,24.353239059448242,4.207560062408447],"max":[1.3044309616088867,24.76205062866211,6.970444202423096],"type":"VEC3","bufferView":0,"byteOffset":54528},{"name":"polygon7_1_0_normals","componentType":5126,"count":19,"min":[-0.49268898367881775,0.8170843124389648,-0.3275209665298462],"max":[0.49268898367881775,0.99338299036026,0.4640527665615082],"type":"VEC3","bufferView":1,"byteOffset":54528},{"name":"polygon7_1_0_texcoords","componentType":5126,"count":19,"min":[0.5365909934043884,0.007354999892413616],"max":[0.6159060001373291,0.17465199530124664],"type":"VEC2","bufferView":2,"byteOffset":36352},{"name":"polygon7_1_0_indices","componentType":5123,"count":84,"min":[0],"max":[18],"type":"SCALAR","bufferView":3,"byteOffset":34728},{"name":"polygon8_1_0_positions","componentType":5126,"count":110,"min":[-4.870122909545898,5.991134166717529,-31.34146499633789],"max":[4.870123863220215,15.6836519241333,-8.456671714782715],"type":"VEC3","bufferView":0,"byteOffset":54756},{"name":"polygon8_1_0_normals","componentType":5126,"count":110,"min":[-0.9756178855895996,-0.9753965139389038,-0.9953803420066833],"max":[0.9756178855895996,0.9753965139389038,1],"type":"VEC3","bufferView":1,"byteOffset":54756},{"name":"polygon8_1_0_texcoords","componentType":5126,"count":110,"min":[0.06451400369405746,0.9407039880752563],"max":[0.3103640079498291,0.9978029727935791],"type":"VEC2","bufferView":2,"byteOffset":36504},{"name":"polygon8_1_0_indices","componentType":5123,"count":468,"min":[0],"max":[109],"type":"SCALAR","bufferView":3,"byteOffset":34896}],"asset":{"generator":"obj2gltf","version":"2.0"},"buffers":[{"name":"P2_Zekrom","byteLength":185368,"uri":"data:application/octet-stream;base64,"}],"bufferViews":[{"name":"bufferView_0","buffer":0,"byteLength":56076,"byteOffset":0,"byteStride":12,"target":34962},{"name":"bufferView_1","buffer":0,"byteLength":56076,"byteOffset":56076,"byteStride":12,"target":34962},{"name":"bufferView_2","buffer":0,"byteLength":37384,"byteOffset":112152,"byteStride":8,"target":34962},{"name":"bufferView_3","buffer":0,"byteLength":35832,"byteOffset":149536,"target":34963}],"materials":[{"name":"mat2","pbrMetallicRoughness":{"baseColorFactor":[0.5,0.5,0.5,1],"metallicFactor":0,"roughnessFactor":1},"emissiveFactor":[0,0,0],"alphaMode":"OPAQUE","doubleSided":false},{"name":"mat4","pbrMetallicRoughness":{"baseColorFactor":[0.5,0.5,0.5,1],"metallicFactor":0,"roughnessFactor":1},"emissiveFactor":[0,0,0],"alphaMode":"OPAQUE","doubleSided":false},{"name":"mat1","pbrMetallicRoughness":{"baseColorFactor":[0.5,0.5,0.5,1],"metallicFactor":0,"roughnessFactor":1},"emissiveFactor":[0,0,0],"alphaMode":"OPAQUE","doubleSided":false},{"name":"mat5","pbrMetallicRoughness":{"baseColorFactor":[0.5,0.5,0.5,1],"metallicFactor":0,"roughnessFactor":1},"emissiveFactor":[0,0,0],"alphaMode":"OPAQUE","doubleSided":false},{"name":"mat3","pbrMetallicRoughness":{"baseColorFactor":[0.5,0.5,0.5,1],"metallicFactor":0,"roughnessFactor":1},"emissiveFactor":[0,0,0],"alphaMode":"OPAQUE","doubleSided":false},{"name":"mat6","pbrMetallicRoughness":{"baseColorFactor":[0.5,0.5,0.5,1],"metallicFactor":0,"roughnessFactor":1},"emissiveFactor":[0,0,0],"alphaMode":"OPAQUE","doubleSided":false}],"meshes":[{"name":"polygon0_1","primitives":[{"attributes":{"POSITION":0,"NORMAL":1,"TEXCOORD_0":2},"indices":3,"material":0,"mode":4}]},{"name":"polygon1_1","primitives":[{"attributes":{"POSITION":4,"NORMAL":5,"TEXCOORD_0":6},"indices":7,"material":1,"mode":4}]},{"name":"polygon2_1","primitives":[{"attributes":{"POSITION":8,"NORMAL":9,"TEXCOORD_0":10},"indices":11,"material":2,"mode":4}]},{"name":"polygon3_1","primitives":[{"attributes":{"POSITION":12,"NORMAL":13,"TEXCOORD_0":14},"indices":15,"material":3,"mode":4}]},{"name":"polygon4_1","primitives":[{"attributes":{"POSITION":16,"NORMAL":17,"TEXCOORD_0":18},"indices":19,"material":4,"mode":4}]},{"name":"polygon5_1","primitives":[{"attributes":{"POSITION":20,"NORMAL":21,"TEXCOORD_0":22},"indices":23,"material":0,"mode":4}]},{"name":"polygon7_1","primitives":[{"attributes":{"POSITION":24,"NORMAL":25,"TEXCOORD_0":26},"indices":27,"material":3,"mode":4}]},{"name":"polygon8_1","primitives":[{"attributes":{"POSITION":28,"NORMAL":29,"TEXCOORD_0":30},"indices":31,"material":5,"mode":4}]}],"nodes":[{"name":"polygon0","mesh":0},{"name":"polygon1","mesh":1},{"name":"polygon2","mesh":2},{"name":"polygon3","mesh":3},{"name":"polygon4","mesh":4},{"name":"polygon5","mesh":5},{"name":"polygon7","mesh":6},{"name":"polygon8","mesh":7}],"scene":0,"scenes":[{"nodes":[0,1,2,3,4,5,6,7]}]}