{"accessors":[{"name":"polygon0_1_0_positions","componentType":5126,"count":740,"min":[-5.597932815551758,0.5109570026397705,-4.436644077301025],"max":[5.597933769226074,13.477429389953613,4.549120903015137],"type":"VEC3","bufferView":0,"byteOffset":0},{"name":"polygon0_1_0_normals","componentType":5126,"count":740,"min":[-0.9924154281616211,-0.9983411431312561,-0.9985334873199463],"max":[0.9928181767463684,0.9993686079978943,0.9999403357505798],"type":"VEC3","bufferView":1,"byteOffset":0},{"name":"polygon0_1_0_texcoords","componentType":5126,"count":740,"min":[0.003722999943420291,0.0034179999493062496],"max":[0.6646729707717896,0.9978029727935791],"type":"VEC2","bufferView":2,"byteOffset":0},{"name":"polygon0_1_0_indices","componentType":5123,"count":3096,"min":[0],"max":[739],"type":"SCALAR","bufferView":3,"byteOffset":0},{"name":"polygon1_1_0_positions","componentType":5126,"count":13,"min":[-0.9796479940414429,12.050690650939941,0.40740999579429626],"max":[0.9796479940414429,13.262896537780762,1.306015968322754],"type":"VEC3","bufferView":0,"byteOffset":8880},{"name":"polygon1_1_0_normals","componentType":5126,"count":13,"min":[-0.65105801820755,0.4172299802303314,0.4642259478569031],"max":[0.65105801820755,0.7902061343193054,0.9088009595870972],"type":"VEC3","bufferView":1,"byteOffset":8880},{"name":"polygon1_1_0_texcoords","componentType":5126,"count":13,"min":[0.007813000120222569,0.0039059999398887157],"max":[0.4921880066394806,0.2460940033197403],"type":"VEC2","bufferView":2,"byteOffset":5920},{"name":"polygon1_1_0_indices","componentType":5123,"count":42,"min":[0],"max":[12],"type":"SCALAR","bufferView":3,"byteOffset":6192},{"name":"polygon3_1_0_positions","componentType":5126,"count":179,"min":[-2.859220027923584,11.321637153625488,-2.348675012588501],"max":[2.8592190742492676,14.159629821777344,1.6457600593566895],"type":"VEC3","bufferView":0,"byteOffset":9036},{"name":"polygon3_1_0_normals","componentType":5126,"count":179,"min":[-0.9850140810012817,-0.9477912187576294,-0.9916329979896545],"max":[0.984807014465332,0.9973211884498596,0.9999794363975525],"type":"VEC3","bufferView":1,"byteOffset":9036},{"name":"polygon3_1_0_texcoords","componentType":5126,"count":179,"min":[0.6701970100402832,0.014618000015616417],"max":[0.9869999885559082,0.9967650175094604],"type":"VEC2","bufferView":2,"byteOffset":6024},{"name":"polygon3_1_0_indices","componentType":5123,"count":618,"min":[0],"max":[178],"type":"SCALAR","bufferView":3,"byteOffset":6276},{"name":"polygon4_1_0_positions","componentType":5126,"count":467,"min":[-2.1837899684906006,5.387726783752441,-30.129358291625977],"max":[2.0777809619903564,7.386932849884033,-3.379791021347046],"type":"VEC3","bufferView":0,"byteOffset":11184},{"name":"polygon4_1_0_normals","componentType":5126,"count":467,"min":[-0.9992929100990295,-0.9813976287841797,-0.7860473394393921],"max":[0.9996227622032166,0.9813989400863647,0.7006686925888062],"type":"VEC3","bufferView":1,"byteOffset":11184},{"name":"polygon4_1_0_texcoords","componentType":5126,"count":467,"min":[0.6784359812736511,0.00973500031977892],"max":[0.9993590116500854,0.8518980145454407],"type":"VEC2","bufferView":2,"byteOffset":7456},{"name":"polygon4_1_0_indices","componentType":5123,"count":1830,"min":[0],"max":[466],"type":"SCALAR","bufferView":3,"byteOffset":7512}],"asset":{"generator":"obj2gltf","version":"2.0"},"buffers":[{"name":"P2_Landorus","byteLength":55940,"uri":"data:application/octet-stream;base64,"}],"bufferViews":[{"name":"bufferView_0","buffer":0,"byteLength":16788,"byteOffset":0,"byteStride":12,"target":34962},{"name":"bufferView_1","buffer":0,"byteLength":16788,"byteOffset":16788,"byteStride":12,"target":34962},{"name":"bufferView_2","buffer":0,"byteLength":11192,"byteOffset":33576,"byteStride":8,"target":34962},{"name":"bufferView_3","buffer":0,"byteLength":11172,"byteOffset":44768,"target":34963}],"materials":[{"name":"mat1","pbrMetallicRoughness":{"baseColorFactor":[0.5,0.5,0.5,1],"metallicFactor":0,"roughnessFactor":1},"emissiveFactor":[0,0,0],"alphaMode":"OPAQUE","doubleSided":false},{"name":"mat2","pbrMetallicRoughness":{"baseColorFactor":[0.5,0.5,0.5,1],"metallicFactor":0,"roughnessFactor":1},"emissiveFactor":[0,0,0],"alphaMode":"OPAQUE","doubleSided":false},{"name":"mat3","pbrMetallicRoughness":{"baseColorFactor":[0.5,0.5,0.5,1],"metallicFactor":0,"roughnessFactor":1},"emissiveFactor":[0,0,0],"alphaMode":"OPAQUE","doubleSided":false}],"meshes":[{"name":"polygon0_1","primitives":[{"attributes":{"POSITION":0,"NORMAL":1,"TEXCOORD_0":2},"indices":3,"material":0,"mode":4}]},{"name":"polygon1_1","primitives":[{"attributes":{"POSITION":4,"NORMAL":5,"TEXCOORD_0":6},"indices":7,"material":1,"mode":4}]},{"name":"polygon3_1","primitives":[{"attributes":{"POSITION":8,"NORMAL":9,"TEXCOORD_0":10},"indices":11,"material":0,"mode":4}]},{"name":"polygon4_1","primitives":[{"attributes":{"POSITION":12,"NORMAL":13,"TEXCOORD_0":14},"indices":15,"material":2,"mode":4}]}],"nodes":[{"name":"polygon0","mesh":0},{"name":"polygon1","mesh":1},{"name":"polygon3","mesh":2},{"name":"polygon4","mesh":3}],"scene":0,"scenes":[{"nodes":[0,1,2,3]}]}