{"accessors":[{"name":"Keldeo_1_0_positions","componentType":5126,"count":144,"min":[-11.770708084106445,79.53532409667969,33.42814636230469],"max":[11.771692276000977,91.7027816772461,39.86726379394531],"type":"VEC3","bufferView":0,"byteOffset":0},{"name":"Keldeo_1_0_normals","componentType":5126,"count":144,"min":[-0.8089622259140015,-0.9565011858940125,-0.8931217789649963],"max":[0.8299321532249451,0.9262790083885193,0.8457658886909485],"type":"VEC3","bufferView":1,"byteOffset":0},{"name":"Keldeo_1_0_texcoords","componentType":5126,"count":144,"min":[0.03811100125312805,-0.974590003490448],"max":[0.46189001202583313,-0.759850025177002],"type":"VEC2","bufferView":2,"byteOffset":0},{"name":"Keldeo_1_0_indices","componentType":5123,"count":144,"min":[0],"max":[143],"type":"SCALAR","bufferView":3,"byteOffset":0},{"name":"Keldeo_1_1_positions","componentType":5126,"count":17004,"min":[-36.02349853515625,-0.006643000058829784,-94.5197982788086],"max":[36.023494720458984,139.4449920654297,60.7951774597168],"type":"VEC3","bufferView":0,"byteOffset":1728},{"name":"Keldeo_1_1_normals","componentType":5126,"count":17004,"min":[-0.9766637086868286,-0.9737390279769897,-0.9950380325317383],"max":[0.9950335025787354,0.9902620911598206,0.994724690914154],"type":"VEC3","bufferView":1,"byteOffset":1728},{"name":"Keldeo_1_1_texcoords","componentType":5126,"count":17004,"min":[0.004379000049084425,0.004759000148624182],"max":[0.9956210255622864,0.994297981262207],"type":"VEC2","bufferView":2,"byteOffset":1152},{"name":"Keldeo_1_1_indices","componentType":5123,"count":17004,"min":[0],"max":[17003],"type":"SCALAR","bufferView":3,"byteOffset":288},{"name":"Keldeo_1_2_positions","componentType":5126,"count":144,"min":[-11.945009231567383,79.46431732177734,33.515052795410156],"max":[11.945990562438965,91.71617889404297,40.04106140136719],"type":"VEC3","bufferView":0,"byteOffset":205776},{"name":"Keldeo_1_2_normals","componentType":5126,"count":144,"min":[0.59971684217453,-0.48498716950416565,-0.7962907552719116],"max":[0.9951827526092529,0.08420196920633316,0.43243998289108276],"type":"VEC3","bufferView":1,"byteOffset":205776},{"name":"Keldeo_1_2_texcoords","componentType":5126,"count":144,"min":[0.15243999660015106,-1.898360013961792],"max":[0.8987200260162354,-1.0393999814987183],"type":"VEC2","bufferView":2,"byteOffset":137184},{"name":"Keldeo_1_2_indices","componentType":5123,"count":144,"min":[0],"max":[143],"type":"SCALAR","bufferView":3,"byteOffset":34296}],"asset":{"generator":"obj2gltf","version":"2.0"},"buffers":[{"name":"XY_Keldeo","byteLength":695928,"uri":"data:application/octet-stream;base64,"}],"bufferViews":[{"name":"bufferView_0","buffer":0,"byteLength":207504,"byteOffset":0,"byteStride":12,"target":34962},{"name":"bufferView_1","buffer":0,"byteLength":207504,"byteOffset":207504,"byteStride":12,"target":34962},{"name":"bufferView_2","buffer":0,"byteLength":138336,"byteOffset":415008,"byteStride":8,"target":34962},{"name":"bufferView_3","buffer":0,"byteLength":34584,"byteOffset":553344,"target":34963},{"buffer":0,"byteOffset":587928,"byteLength":42198},{"buffer":0,"byteOffset":630126,"byteLength":62336},{"buffer":0,"byteOffset":692462,"byteLength":3464}],"images":[{"name":"pm0647_11_Eye1","mimeType":"image/png","bufferView":4},{"name":"pm0647_11_Body1","mimeType":"image/png","bufferView":5},{"name":"pm0647_11_Iris1","mimeType":"image/png","bufferView":6}],"materials":[{"name":"Material__288","pbrMetallicRoughness":{"baseColorTexture":{"index":0},"baseColorFactor":[1,1,1,1],"metallicFactor":0,"roughnessFactor":0.998},"emissiveFactor":[0,0,0],"alphaMode":"OPAQUE","doubleSided":false},{"name":"Material__289","pbrMetallicRoughness":{"baseColorTexture":{"index":1},"baseColorFactor":[1,1,1,1],"metallicFactor":0,"roughnessFactor":0.998},"emissiveFactor":[0,0,0],"alphaMode":"OPAQUE","doubleSided":false},{"name":"Material__290","pbrMetallicRoughness":{"baseColorTexture":{"index":2},"baseColorFactor":[1,1,1,1],"metallicFactor":0,"roughnessFactor":0.998},"emissiveFactor":[0,0,0],"alphaMode":"OPAQUE","doubleSided":false}],"meshes":[{"name":"Keldeo_1","primitives":[{"attributes":{"POSITION":0,"NORMAL":1,"TEXCOORD_0":2},"indices":3,"material":0,"mode":4},{"attributes":{"POSITION":4,"NORMAL":5,"TEXCOORD_0":6},"indices":7,"material":1,"mode":4},{"attributes":{"POSITION":8,"NORMAL":9,"TEXCOORD_0":10},"indices":11,"material":2,"mode":4}]}],"nodes":[{"name":"Keldeo","mesh":0}],"samplers":[{"wrapS":10497,"wrapT":10497}],"scene":0,"scenes":[{"nodes":[0]}],"textures":[{"name":"pm0647_11_Eye1","sampler":0,"source":0},{"name":"pm0647_11_Body1","sampler":0,"source":1},{"name":"pm0647_11_Iris1","sampler":0,"source":2}]}