{"accessors":[{"name":"Meloetta_1_0_positions","componentType":5126,"count":14688,"min":[-23.0177001953125,-0.7970770001411438,-9.784972190856934],"max":[23.0177001953125,59.99750518798828,10.298694610595703],"type":"VEC3","bufferView":0,"byteOffset":0},{"name":"Meloetta_1_0_normals","componentType":5126,"count":14688,"min":[-0.9998324513435364,-0.9966970682144165,-0.9981691241264343],"max":[0.9998324513435364,0.9999529123306274,0.9942464232444763],"type":"VEC3","bufferView":1,"byteOffset":0},{"name":"Meloetta_1_0_texcoords","componentType":5126,"count":14688,"min":[0.004918999969959259,0.0068870000541210175],"max":[0.9933620095252991,0.9945380091667175],"type":"VEC2","bufferView":2,"byteOffset":0},{"name":"Meloetta_1_0_indices","componentType":5123,"count":14688,"min":[0],"max":[14687],"type":"SCALAR","bufferView":3,"byteOffset":0},{"name":"Meloetta_1_1_positions","componentType":5126,"count":216,"min":[-8.66870403289795,37.9727783203125,3.5553689002990723],"max":[8.668635368347168,45.514434814453125,9.937966346740723],"type":"VEC3","bufferView":0,"byteOffset":176256},{"name":"Meloetta_1_1_normals","componentType":5126,"count":216,"min":[-0.515967071056366,-0.8488612771034241,-0.9396500587463379],"max":[0.9402367472648621,0.996475338935852,0.6777147650718689],"type":"VEC3","bufferView":1,"byteOffset":176256},{"name":"Meloetta_1_1_texcoords","componentType":5126,"count":216,"min":[0.00955200009047985,-0.9917100071907043],"max":[0.4908500015735626,-0.7596499919891357],"type":"VEC2","bufferView":2,"byteOffset":117504},{"name":"Meloetta_1_1_indices","componentType":5123,"count":216,"min":[0],"max":[215],"type":"SCALAR","bufferView":3,"byteOffset":29376},{"name":"Meloetta_1_2_positions","componentType":5126,"count":36,"min":[-1.9563050270080566,35.8140983581543,5.36221981048584],"max":[1.9562749862670898,38.970611572265625,8.512141227722168],"type":"VEC3","bufferView":0,"byteOffset":178848},{"name":"Meloetta_1_2_normals","componentType":5126,"count":36,"min":[-0.4469979405403137,-0.7123509049415588,-0.9584816694259644],"max":[0.5268909335136414,0.996475338935852,0.268653929233551],"type":"VEC3","bufferView":1,"byteOffset":178848},{"name":"Meloetta_1_2_texcoords","componentType":5126,"count":36,"min":[0.06318800151348114,-1.979099988937378],"max":[0.4368099868297577,-1.7702499628067017],"type":"VEC2","bufferView":2,"byteOffset":119232},{"name":"Meloetta_1_2_indices","componentType":5123,"count":36,"min":[0],"max":[35],"type":"SCALAR","bufferView":3,"byteOffset":29808}],"asset":{"generator":"obj2gltf","version":"2.0"},"buffers":[{"name":"XY_MeloettaAria","byteLength":567276,"uri":"data:application/octet-stream;base64,"}],"bufferViews":[{"name":"bufferView_0","buffer":0,"byteLength":179280,"byteOffset":0,"byteStride":12,"target":34962},{"name":"bufferView_1","buffer":0,"byteLength":179280,"byteOffset":179280,"byteStride":12,"target":34962},{"name":"bufferView_2","buffer":0,"byteLength":119520,"byteOffset":358560,"byteStride":8,"target":34962},{"name":"bufferView_3","buffer":0,"byteLength":29880,"byteOffset":478080,"target":34963},{"buffer":0,"byteOffset":507960,"byteLength":25062},{"buffer":0,"byteOffset":533022,"byteLength":24409},{"buffer":0,"byteOffset":557431,"byteLength":9842}],"images":[{"name":"pm0648_11_Body1","mimeType":"image/png","bufferView":4},{"name":"pm0648_11_Eye1","mimeType":"image/png","bufferView":5},{"name":"pm0648_11_Mouth1","mimeType":"image/png","bufferView":6}],"materials":[{"name":"Material__11","pbrMetallicRoughness":{"baseColorTexture":{"index":0},"baseColorFactor":[1,1,1,1],"metallicFactor":0,"roughnessFactor":0.998},"emissiveFactor":[0,0,0],"alphaMode":"OPAQUE","doubleSided":false},{"name":"Material__12","pbrMetallicRoughness":{"baseColorTexture":{"index":1},"baseColorFactor":[1,1,1,1],"metallicFactor":0,"roughnessFactor":0.998},"emissiveFactor":[0,0,0],"alphaMode":"OPAQUE","doubleSided":false},{"name":"Material__13","pbrMetallicRoughness":{"baseColorTexture":{"index":2},"baseColorFactor":[1,1,1,1],"metallicFactor":0,"roughnessFactor":0.998},"emissiveFactor":[0,0,0],"alphaMode":"OPAQUE","doubleSided":false}],"meshes":[{"name":"Meloetta_1","primitives":[{"attributes":{"POSITION":0,"NORMAL":1,"TEXCOORD_0":2},"indices":3,"material":0,"mode":4},{"attributes":{"POSITION":4,"NORMAL":5,"TEXCOORD_0":6},"indices":7,"material":1,"mode":4},{"attributes":{"POSITION":8,"NORMAL":9,"TEXCOORD_0":10},"indices":11,"material":2,"mode":4}]}],"nodes":[{"name":"Meloetta","mesh":0}],"samplers":[{"wrapS":10497,"wrapT":10497}],"scene":0,"scenes":[{"nodes":[0]}],"textures":[{"name":"pm0648_11_Body1","sampler":0,"source":0},{"name":"pm0648_11_Eye1","sampler":0,"source":1},{"name":"pm0648_11_Mouth1","sampler":0,"source":2}]}