{"accessors":[{"name":"Chespin_1_0_positions","componentType":5126,"count":10698,"min":[-17.181900024414062,-0.000006000000212225132,-20.66629981994629],"max":[17.181900024414062,39.90026092529297,14.33981990814209],"type":"VEC3","bufferView":0,"byteOffset":0},{"name":"Chespin_1_0_normals","componentType":5126,"count":10698,"min":[-0.995084822177887,-0.9999874830245972,-0.9995141625404358],"max":[0.9951872229576111,0.9999487400054932,0.9928681254386902],"type":"VEC3","bufferView":1,"byteOffset":0},{"name":"Chespin_1_0_texcoords","componentType":5126,"count":10698,"min":[0,0.010107999667525291],"max":[1,0.989920973777771],"type":"VEC2","bufferView":2,"byteOffset":0},{"name":"Chespin_1_0_indices","componentType":5123,"count":10698,"min":[0],"max":[10697],"type":"SCALAR","bufferView":3,"byteOffset":0},{"name":"Chespin_1_1_positions","componentType":5126,"count":156,"min":[-7.421122074127197,18.779050827026367,6.590622901916504],"max":[7.421069145202637,24.302196502685547,13.184187889099121],"type":"VEC3","bufferView":0,"byteOffset":128376},{"name":"Chespin_1_1_normals","componentType":5126,"count":156,"min":[-0.9005640149116516,-0.12525703012943268,-0.452983021736145],"max":[0.9660746455192566,0.9855550527572632,0.8602325320243835],"type":"VEC3","bufferView":1,"byteOffset":128376},{"name":"Chespin_1_1_texcoords","componentType":5126,"count":156,"min":[0.03451799973845482,-1.9925600290298462],"max":[0.4654799997806549,-1.7581299543380737],"type":"VEC2","bufferView":2,"byteOffset":85584},{"name":"Chespin_1_1_indices","componentType":5123,"count":156,"min":[0],"max":[155],"type":"SCALAR","bufferView":3,"byteOffset":21396},{"name":"Chespin_1_2_positions","componentType":5126,"count":162,"min":[-8.951966285705566,24.187522888183594,9.641939163208008],"max":[8.95189380645752,31.555017471313477,13.548909187316895],"type":"VEC3","bufferView":0,"byteOffset":130248},{"name":"Chespin_1_2_normals","componentType":5126,"count":162,"min":[-0.7278661727905273,-0.12525703012943268,-0.41118499636650085],"max":[0.8920831680297852,0.9968563914299011,0.9721345901489258],"type":"VEC3","bufferView":1,"byteOffset":130248},{"name":"Chespin_1_2_texcoords","componentType":5126,"count":162,"min":[0.009119000285863876,-0.980239987373352],"max":[0.49088001251220703,-0.7656300067901611],"type":"VEC2","bufferView":2,"byteOffset":86832},{"name":"Chespin_1_2_indices","componentType":5123,"count":162,"min":[0],"max":[161],"type":"SCALAR","bufferView":3,"byteOffset":21708},{"name":"Chespin_LowerQuills_1_0_positions","componentType":5126,"count":1608,"min":[-15.238801002502441,18.16269874572754,3.2355101108551025],"max":[15.238798141479492,22.066679000854492,4.312191009521484],"type":"VEC3","bufferView":0,"byteOffset":132192},{"name":"Chespin_LowerQuills_1_0_normals","componentType":5126,"count":1608,"min":[-0.8764740228652954,-0.9997670650482178,-0.0025250001344829798],"max":[0.8679380416870117,0.9789233803749084,0.9995443224906921],"type":"VEC3","bufferView":1,"byteOffset":132192},{"name":"Chespin_LowerQuills_1_0_texcoords","componentType":5126,"count":1608,"min":[0.01083299983292818,0.8776469826698303],"max":[0.9891669750213623,0.9778169989585876],"type":"VEC2","bufferView":2,"byteOffset":88128},{"name":"Chespin_LowerQuills_1_0_indices","componentType":5123,"count":1608,"min":[0],"max":[1607],"type":"SCALAR","bufferView":3,"byteOffset":22032},{"name":"Chespin_UpperQuills_1_0_positions","componentType":5126,"count":4284,"min":[-20.03689956665039,32.99015426635742,-11.92750072479248],"max":[20.03689956665039,51.781307220458984,6.78026008605957],"type":"VEC3","bufferView":0,"byteOffset":151488},{"name":"Chespin_UpperQuills_1_0_normals","componentType":5126,"count":4284,"min":[-0.8741360306739807,-0.8798732161521912,-0.8930773138999939],"max":[0.9983372092247009,0.9974596500396729,0.9919601082801819],"type":"VEC3","bufferView":1,"byteOffset":151488},{"name":"Chespin_UpperQuills_1_0_texcoords","componentType":5126,"count":4284,"min":[0.028483999893069267,0.18134699761867523],"max":[0.9715160131454468,0.8714420199394226],"type":"VEC2","bufferView":2,"byteOffset":100992},{"name":"Chespin_UpperQuills_1_0_indices","componentType":5123,"count":4284,"min":[0],"max":[4283],"type":"SCALAR","bufferView":3,"byteOffset":25248},{"name":"Chespin_LowerSpikes_1_0_positions","componentType":5126,"count":1512,"min":[-15.636503219604492,18.013225555419922,2.4515879154205322],"max":[15.636500358581543,23.955135345458984,5.09101676940918],"type":"VEC3","bufferView":0,"byteOffset":202896},{"name":"Chespin_LowerSpikes_1_0_normals","componentType":5126,"count":1512,"min":[-0.5840027332305908,-0.9943471550941467,-0.0012460002908483148],"max":[0.41840681433677673,0.823596715927124,0.9956163763999939],"type":"VEC3","bufferView":1,"byteOffset":202896},{"name":"Chespin_LowerSpikes_1_0_texcoords","componentType":5126,"count":1512,"min":[0.00976600032299757,0.36826199293136597],"max":[0.9902340173721313,0.49111199378967285],"type":"VEC2","bufferView":2,"byteOffset":135264},{"name":"Chespin_LowerSpikes_1_0_indices","componentType":5123,"count":1512,"min":[0],"max":[1511],"type":"SCALAR","bufferView":3,"byteOffset":33816},{"name":"Chespin_UpperSpikes_1_0_positions","componentType":5126,"count":3792,"min":[-20.866899490356445,29.206951141357422,-12.159900665283203],"max":[20.866901397705078,52.22560119628906,7.71590518951416],"type":"VEC3","bufferView":0,"byteOffset":221040},{"name":"Chespin_UpperSpikes_1_0_normals","componentType":5126,"count":3792,"min":[-0.7383776903152466,-0.4349600672721863,-0.9867185950279236],"max":[0.9977694749832153,0.960144579410553,0.8576647639274597],"type":"VEC3","bufferView":1,"byteOffset":221040},{"name":"Chespin_UpperSpikes_1_0_texcoords","componentType":5126,"count":3792,"min":[0.0078119998797774315,0.012683000415563583],"max":[0.9921879768371582,0.684844970703125],"type":"VEC2","bufferView":2,"byteOffset":147360},{"name":"Chespin_UpperSpikes_1_0_indices","componentType":5123,"count":3792,"min":[0],"max":[3791],"type":"SCALAR","bufferView":3,"byteOffset":36840}],"asset":{"generator":"obj2gltf","version":"2.0"},"buffers":[{"name":"XY_Chespin","byteLength":833544,"uri":"data:application/octet-stream;base64,"}],"bufferViews":[{"name":"bufferView_0","buffer":0,"byteLength":266544,"byteOffset":0,"byteStride":12,"target":34962},{"name":"bufferView_1","buffer":0,"byteLength":266544,"byteOffset":266544,"byteStride":12,"target":34962},{"name":"bufferView_2","buffer":0,"byteLength":177696,"byteOffset":533088,"byteStride":8,"target":34962},{"name":"bufferView_3","buffer":0,"byteLength":44424,"byteOffset":710784,"target":34963},{"buffer":0,"byteOffset":755208,"byteLength":48636},{"buffer":0,"byteOffset":803844,"byteLength":14350},{"buffer":0,"byteOffset":818194,"byteLength":15347}],"images":[{"name":"pm0720_00_Body1","mimeType":"image/png","bufferView":4},{"name":"pm0720_00_Mouth1","mimeType":"image/png","bufferView":5},{"name":"pm0720_00_Eye1","mimeType":"image/png","bufferView":6}],"materials":[{"name":"Material__10","pbrMetallicRoughness":{"baseColorTexture":{"index":0},"baseColorFactor":[1,1,1,1],"metallicFactor":0,"roughnessFactor":0.998},"emissiveFactor":[0,0,0],"alphaMode":"OPAQUE","doubleSided":false},{"name":"Material__11","pbrMetallicRoughness":{"baseColorTexture":{"index":1},"baseColorFactor":[1,1,1,1],"metallicFactor":0,"roughnessFactor":0.998},"emissiveFactor":[0,0,0],"alphaMode":"OPAQUE","doubleSided":false},{"name":"Material__12","pbrMetallicRoughness":{"baseColorTexture":{"index":2},"baseColorFactor":[1,1,1,1],"metallicFactor":0,"roughnessFactor":0.998},"emissiveFactor":[0,0,0],"alphaMode":"OPAQUE","doubleSided":false}],"meshes":[{"name":"Chespin_1","primitives":[{"attributes":{"POSITION":0,"NORMAL":1,"TEXCOORD_0":2},"indices":3,"material":0,"mode":4},{"attributes":{"POSITION":4,"NORMAL":5,"TEXCOORD_0":6},"indices":7,"material":1,"mode":4},{"attributes":{"POSITION":8,"NORMAL":9,"TEXCOORD_0":10},"indices":11,"material":2,"mode":4}]},{"name":"Chespin_LowerQuills_1","primitives":[{"attributes":{"POSITION":12,"NORMAL":13,"TEXCOORD_0":14},"indices":15,"material":0,"mode":4}]},{"name":"Chespin_UpperQuills_1","primitives":[{"attributes":{"POSITION":16,"NORMAL":17,"TEXCOORD_0":18},"indices":19,"material":0,"mode":4}]},{"name":"Chespin_LowerSpikes_1","primitives":[{"attributes":{"POSITION":20,"NORMAL":21,"TEXCOORD_0":22},"indices":23,"material":0,"mode":4}]},{"name":"Chespin_UpperSpikes_1","primitives":[{"attributes":{"POSITION":24,"NORMAL":25,"TEXCOORD_0":26},"indices":27,"material":0,"mode":4}]}],"nodes":[{"name":"Chespin","mesh":0},{"name":"Chespin_LowerQuills","mesh":1},{"name":"Chespin_UpperQuills","mesh":2},{"name":"Chespin_LowerSpikes","mesh":3},{"name":"Chespin_UpperSpikes","mesh":4}],"samplers":[{"wrapS":10497,"wrapT":10497}],"scene":0,"scenes":[{"nodes":[0,1,2,3,4]}],"textures":[{"name":"pm0720_00_Body1","sampler":0,"source":0},{"name":"pm0720_00_Mouth1","sampler":0,"source":1},{"name":"pm0720_00_Eye1","sampler":0,"source":2}]}