{"accessors":[{"name":"Fennekin_1_0_positions","componentType":5126,"count":14586,"min":[-19.703506469726562,-0.01779099926352501,-22.03999900817871],"max":[19.703500747680664,56.071807861328125,31.87089729309082],"type":"VEC3","bufferView":0,"byteOffset":0},{"name":"Fennekin_1_0_normals","componentType":5126,"count":14586,"min":[-0.9996738433837891,-0.9320053458213806,-0.9904859662055969],"max":[0.9724342226982117,0.9833638668060303,0.9869285225868225],"type":"VEC3","bufferView":1,"byteOffset":0},{"name":"Fennekin_1_0_texcoords","componentType":5126,"count":14586,"min":[0,0.009654000401496887],"max":[1,0.9921870231628418],"type":"VEC2","bufferView":2,"byteOffset":0},{"name":"Fennekin_1_0_indices","componentType":5123,"count":14586,"min":[0],"max":[14585],"type":"SCALAR","bufferView":3,"byteOffset":0},{"name":"Fennekin_1_1_positions","componentType":5126,"count":360,"min":[-10.19480037689209,14.4826021194458,18.098102569580078],"max":[10.19480037689209,26.1210994720459,28.311899185180664],"type":"VEC3","bufferView":0,"byteOffset":175032},{"name":"Fennekin_1_1_normals","componentType":5126,"count":360,"min":[-0.8552143573760986,-0.9320053458213806,-0.8456500172615051],"max":[0.5959278345108032,0.95527184009552,0.9451134204864502],"type":"VEC3","bufferView":1,"byteOffset":175032},{"name":"Fennekin_1_1_texcoords","componentType":5126,"count":360,"min":[0.024802999570965767,-0.9901000261306763],"max":[0.47519999742507935,-0.7604699730873108],"type":"VEC2","bufferView":2,"byteOffset":116688},{"name":"Fennekin_1_1_indices","componentType":5123,"count":360,"min":[0],"max":[359],"type":"SCALAR","bufferView":3,"byteOffset":29172},{"name":"Fennekin_1_2_positions","componentType":5126,"count":216,"min":[-7.051700115203857,12.963802337646484,16.27050018310547],"max":[7.051700115203857,16.357200622558594,26.885099411010742],"type":"VEC3","bufferView":0,"byteOffset":179352},{"name":"Fennekin_1_2_normals","componentType":5126,"count":216,"min":[-0.9256001710891724,-0.7490310072898865,-0.6704789996147156],"max":[0.5103811621665955,0.8462720513343811,0.994583249092102],"type":"VEC3","bufferView":1,"byteOffset":179352},{"name":"Fennekin_1_2_texcoords","componentType":5126,"count":216,"min":[0.09287899732589722,-1.9892799854278564],"max":[0.4071199893951416,-1.7607200145721436],"type":"VEC2","bufferView":2,"byteOffset":119568},{"name":"Fennekin_1_2_indices","componentType":5123,"count":216,"min":[0],"max":[215],"type":"SCALAR","bufferView":3,"byteOffset":29892},{"name":"Fennekin_1_3_positions","componentType":5126,"count":360,"min":[-10.366700172424316,14.40730094909668,18.105897903442383],"max":[10.366700172424316,26.11009979248047,28.49180030822754],"type":"VEC3","bufferView":0,"byteOffset":181944},{"name":"Fennekin_1_3_normals","componentType":5126,"count":360,"min":[-0.3644638657569885,-0.2826988995075226,-0.0685030147433281],"max":[0.5103811621665955,0.995863139629364,0.9983639717102051],"type":"VEC3","bufferView":1,"byteOffset":181944},{"name":"Fennekin_1_3_texcoords","componentType":5126,"count":360,"min":[0.09920000284910202,-1.9603999853134155],"max":[0.9222800135612488,-1.0418800115585327],"type":"VEC2","bufferView":2,"byteOffset":121296},{"name":"Fennekin_1_3_indices","componentType":5123,"count":360,"min":[0],"max":[359],"type":"SCALAR","bufferView":3,"byteOffset":30324},{"name":"Fennekin_EarsA_1_0_positions","componentType":5126,"count":3912,"min":[-28.603708267211914,27.220800399780273,10.345002174377441],"max":[28.603700637817383,44.741512298583984,24.481199264526367],"type":"VEC3","bufferView":0,"byteOffset":186264},{"name":"Fennekin_EarsA_1_0_normals","componentType":5126,"count":3912,"min":[-0.8899438977241516,-0.9287431836128235,-0.9993243217468262],"max":[0.9712551236152649,0.9950559735298157,0.49816691875457764],"type":"VEC3","bufferView":1,"byteOffset":186264},{"name":"Fennekin_EarsA_1_0_texcoords","componentType":5126,"count":3912,"min":[0.008988999761641026,0.0078119998797774315],"max":[0.9910110235214233,0.7634879946708679],"type":"VEC2","bufferView":2,"byteOffset":124176},{"name":"Fennekin_EarsA_1_0_indices","componentType":5123,"count":3912,"min":[0],"max":[3911],"type":"SCALAR","bufferView":3,"byteOffset":31044},{"name":"Fennekin_EarsB_1_0_positions","componentType":5126,"count":2940,"min":[-29.354406356811523,26.973602294921875,10.573100090026855],"max":[29.354406356811523,48.47980880737305,25.644100189208984],"type":"VEC3","bufferView":0,"byteOffset":233208},{"name":"Fennekin_EarsB_1_0_normals","componentType":5126,"count":2940,"min":[-0.9709053635597229,-0.9974555969238281,-0.48693200945854187],"max":[0.9666894674301147,0.9313266277313232,0.9965476989746094],"type":"VEC3","bufferView":1,"byteOffset":233208},{"name":"Fennekin_EarsB_1_0_texcoords","componentType":5126,"count":2940,"min":[0.012981999665498734,0.0078119998797774315],"max":[0.9870179891586304,0.4296869933605194],"type":"VEC2","bufferView":2,"byteOffset":155472},{"name":"Fennekin_EarsB_1_0_indices","componentType":5123,"count":2940,"min":[0],"max":[2939],"type":"SCALAR","bufferView":3,"byteOffset":38868},{"name":"Fennekin_Teeth_1_0_positions","componentType":5126,"count":294,"min":[-3.19392991065979,12.571100234985352,22.036800384521484],"max":[3.19392991065979,14.75000286102295,24.169801712036133],"type":"VEC3","bufferView":0,"byteOffset":268488},{"name":"Fennekin_Teeth_1_0_normals","componentType":5126,"count":294,"min":[-0.8787631988525391,-0.9124834537506104,-0.6780441403388977],"max":[0.30488014221191406,0.060341015458106995,0.7146089673042297],"type":"VEC3","bufferView":1,"byteOffset":268488},{"name":"Fennekin_Teeth_1_0_texcoords","componentType":5126,"count":294,"min":[0.008750000037252903,0.3828119933605194],"max":[0.9912499785423279,0.42481398582458496],"type":"VEC2","bufferView":2,"byteOffset":178992},{"name":"Fennekin_Teeth_1_0_indices","componentType":5123,"count":294,"min":[0],"max":[293],"type":"SCALAR","bufferView":3,"byteOffset":44748}],"asset":{"generator":"obj2gltf","version":"2.0"},"buffers":[{"name":"XY_Fennekin","byteLength":851956,"uri":"data:application/octet-stream;base64,"}],"bufferViews":[{"name":"bufferView_0","buffer":0,"byteLength":272016,"byteOffset":0,"byteStride":12,"target":34962},{"name":"bufferView_1","buffer":0,"byteLength":272016,"byteOffset":272016,"byteStride":12,"target":34962},{"name":"bufferView_2","buffer":0,"byteLength":181344,"byteOffset":544032,"byteStride":8,"target":34962},{"name":"bufferView_3","buffer":0,"byteLength":45336,"byteOffset":725376,"target":34963},{"buffer":0,"byteOffset":770712,"byteLength":50183},{"buffer":0,"byteOffset":820895,"byteLength":19166},{"buffer":0,"byteOffset":840061,"byteLength":9903},{"buffer":0,"byteOffset":849964,"byteLength":1989}],"images":[{"name":"pm0717_00_Body1","mimeType":"image/png","bufferView":4},{"name":"pm0717_00_Eye1","mimeType":"image/png","bufferView":5},{"name":"pm0717_00_Mouth1","mimeType":"image/png","bufferView":6},{"name":"pm0717_00_Iris1","mimeType":"image/png","bufferView":7}],"materials":[{"name":"Material__22","pbrMetallicRoughness":{"baseColorTexture":{"index":0},"baseColorFactor":[1,1,1,1],"metallicFactor":0,"roughnessFactor":0.998},"emissiveFactor":[0,0,0],"alphaMode":"OPAQUE","doubleSided":false},{"name":"Material__23","pbrMetallicRoughness":{"baseColorTexture":{"index":1},"baseColorFactor":[1,1,1,1],"metallicFactor":0,"roughnessFactor":0.998},"emissiveFactor":[0,0,0],"alphaMode":"OPAQUE","doubleSided":false},{"name":"Material__24","pbrMetallicRoughness":{"baseColorTexture":{"index":2},"baseColorFactor":[1,1,1,1],"metallicFactor":0,"roughnessFactor":0.998},"emissiveFactor":[0,0,0],"alphaMode":"OPAQUE","doubleSided":false},{"name":"Material__25","pbrMetallicRoughness":{"baseColorTexture":{"index":3},"baseColorFactor":[1,1,1,1],"metallicFactor":0,"roughnessFactor":0.998},"emissiveFactor":[0,0,0],"alphaMode":"OPAQUE","doubleSided":false}],"meshes":[{"name":"Fennekin_1","primitives":[{"attributes":{"POSITION":0,"NORMAL":1,"TEXCOORD_0":2},"indices":3,"material":0,"mode":4},{"attributes":{"POSITION":4,"NORMAL":5,"TEXCOORD_0":6},"indices":7,"material":1,"mode":4},{"attributes":{"POSITION":8,"NORMAL":9,"TEXCOORD_0":10},"indices":11,"material":2,"mode":4},{"attributes":{"POSITION":12,"NORMAL":13,"TEXCOORD_0":14},"indices":15,"material":3,"mode":4}]},{"name":"Fennekin_EarsA_1","primitives":[{"attributes":{"POSITION":16,"NORMAL":17,"TEXCOORD_0":18},"indices":19,"material":0,"mode":4}]},{"name":"Fennekin_EarsB_1","primitives":[{"attributes":{"POSITION":20,"NORMAL":21,"TEXCOORD_0":22},"indices":23,"material":0,"mode":4}]},{"name":"Fennekin_Teeth_1","primitives":[{"attributes":{"POSITION":24,"NORMAL":25,"TEXCOORD_0":26},"indices":27,"material":0,"mode":4}]}],"nodes":[{"name":"Fennekin","mesh":0},{"name":"Fennekin_EarsA","mesh":1},{"name":"Fennekin_EarsB","mesh":2},{"name":"Fennekin_Teeth","mesh":3}],"samplers":[{"wrapS":10497,"wrapT":10497}],"scene":0,"scenes":[{"nodes":[0,1,2,3]}],"textures":[{"name":"pm0717_00_Body1","sampler":0,"source":0},{"name":"pm0717_00_Eye1","sampler":0,"source":1},{"name":"pm0717_00_Mouth1","sampler":0,"source":2},{"name":"pm0717_00_Iris1","sampler":0,"source":3}]}