{"accessors":[{"name":"Froakie_1_0_positions","componentType":5126,"count":240,"min":[-10.815099716186523,26.464704513549805,5.675002098083496],"max":[10.815099716186523,32.686702728271484,14.02160358428955],"type":"VEC3","bufferView":0,"byteOffset":0},{"name":"Froakie_1_0_normals","componentType":5126,"count":240,"min":[0.12184101343154907,-0.8794741034507751,0.4525018632411957],"max":[0.5481659770011902,0.6243143081665039,0.9255443811416626],"type":"VEC3","bufferView":1,"byteOffset":0},{"name":"Froakie_1_0_texcoords","componentType":5126,"count":240,"min":[0.007813000120222569,-1.975350022315979],"max":[0.49219000339508057,-1.7734400033950806],"type":"VEC2","bufferView":2,"byteOffset":0},{"name":"Froakie_1_0_indices","componentType":5123,"count":240,"min":[0],"max":[239],"type":"SCALAR","bufferView":3,"byteOffset":0},{"name":"Froakie_1_1_positions","componentType":5126,"count":888,"min":[-14.451000213623047,34.59610366821289,3.3666610717773438],"max":[14.451000213623047,51.17991256713867,5.564570903778076],"type":"VEC3","bufferView":0,"byteOffset":2880},{"name":"Froakie_1_1_normals","componentType":5126,"count":888,"min":[-0.488558828830719,-0.9437849521636963,0.32445991039276123],"max":[0.48855921626091003,0.5968018770217896,0.9999822974205017],"type":"VEC3","bufferView":1,"byteOffset":2880},{"name":"Froakie_1_1_texcoords","componentType":5126,"count":888,"min":[0.03950599953532219,-0.9910699725151062],"max":[0.46048998832702637,-0.7589300274848938],"type":"VEC2","bufferView":2,"byteOffset":1920},{"name":"Froakie_1_1_indices","componentType":5123,"count":888,"min":[0],"max":[887],"type":"SCALAR","bufferView":3,"byteOffset":480},{"name":"Froakie_1_2_positions","componentType":5126,"count":11634,"min":[-25.852401733398438,0.0039450000040233135,-13.385104179382324],"max":[25.852399826049805,52.011512756347656,13.61730670928955],"type":"VEC3","bufferView":0,"byteOffset":13536},{"name":"Froakie_1_2_normals","componentType":5126,"count":11634,"min":[-0.93412846326828,-0.9999946355819702,-0.9990193843841553],"max":[0.999803900718689,0.9988933801651001,0.9999822974205017],"type":"VEC3","bufferView":1,"byteOffset":13536},{"name":"Froakie_1_2_texcoords","componentType":5126,"count":11634,"min":[0.004724999889731407,0.011718999594449997],"max":[0.9952750205993652,0.9921870231628418],"type":"VEC2","bufferView":2,"byteOffset":9024},{"name":"Froakie_1_2_indices","componentType":5123,"count":11634,"min":[0],"max":[11633],"type":"SCALAR","bufferView":3,"byteOffset":2256},{"name":"Froakie_1_3_positions","componentType":5126,"count":888,"min":[-14.503299713134766,34.640602111816406,3.3725318908691406],"max":[14.503299713134766,51.235107421875,5.614552974700928],"type":"VEC3","bufferView":0,"byteOffset":153144},{"name":"Froakie_1_3_normals","componentType":5126,"count":888,"min":[-0.9986672401428223,-0.2303420454263687,-0.9990193843841553],"max":[0.8603397011756897,0.9379600882530212,0.8458789587020874],"type":"VEC3","bufferView":1,"byteOffset":153144},{"name":"Froakie_1_3_texcoords","componentType":5126,"count":888,"min":[0.15810400247573853,-1.9642000198364258],"max":[0.841920018196106,-1.0362000465393066],"type":"VEC2","bufferView":2,"byteOffset":102096},{"name":"Froakie_1_3_indices","componentType":5123,"count":888,"min":[0],"max":[887],"type":"SCALAR","bufferView":3,"byteOffset":25524},{"name":"Froakie_FoamA_1_0_positions","componentType":5126,"count":6096,"min":[-14.969099998474121,16.04319953918457,-20.091503143310547],"max":[14.969099998474121,35.15639877319336,9.01754093170166],"type":"VEC3","bufferView":0,"byteOffset":163800},{"name":"Froakie_FoamA_1_0_normals","componentType":5126,"count":6096,"min":[-0.9954754710197449,-0.9662302732467651,-0.9938020706176758],"max":[0.24970996379852295,0.964703381061554,0.9960660934448242],"type":"VEC3","bufferView":1,"byteOffset":163800},{"name":"Froakie_FoamA_1_0_texcoords","componentType":5126,"count":6096,"min":[0.005437000188976526,0.0078119998797774315],"max":[0.9945629835128784,0.9921870231628418],"type":"VEC2","bufferView":2,"byteOffset":109200},{"name":"Froakie_FoamA_1_0_indices","componentType":5123,"count":6096,"min":[0],"max":[6095],"type":"SCALAR","bufferView":3,"byteOffset":27300},{"name":"Froakie_FoamB_1_0_positions","componentType":5126,"count":4902,"min":[-13.734399795532227,13.87347412109375,-28.270999908447266],"max":[13.734399795532227,42.347503662109375,-2.153269052505493],"type":"VEC3","bufferView":0,"byteOffset":236952},{"name":"Froakie_FoamB_1_0_normals","componentType":5126,"count":4902,"min":[-0.6250970959663391,-0.510516881942749,-0.974395751953125],"max":[0.9858212471008301,0.9865097403526306,0.9975009560585022],"type":"VEC3","bufferView":1,"byteOffset":236952},{"name":"Froakie_FoamB_1_0_texcoords","componentType":5126,"count":4902,"min":[0.0052269999869167805,0.2214300036430359],"max":[0.9947729706764221,0.712099015712738],"type":"VEC2","bufferView":2,"byteOffset":157968},{"name":"Froakie_FoamB_1_0_indices","componentType":5123,"count":4902,"min":[0],"max":[4901],"type":"SCALAR","bufferView":3,"byteOffset":39492}],"asset":{"generator":"obj2gltf","version":"2.0"},"buffers":[{"name":"XY_Froakie","byteLength":897568,"uri":"data:application/octet-stream;base64,"}],"bufferViews":[{"name":"bufferView_0","buffer":0,"byteLength":295776,"byteOffset":0,"byteStride":12,"target":34962},{"name":"bufferView_1","buffer":0,"byteLength":295776,"byteOffset":295776,"byteStride":12,"target":34962},{"name":"bufferView_2","buffer":0,"byteLength":197184,"byteOffset":591552,"byteStride":8,"target":34962},{"name":"bufferView_3","buffer":0,"byteLength":49296,"byteOffset":788736,"target":34963},{"buffer":0,"byteOffset":838032,"byteLength":18715},{"buffer":0,"byteOffset":856747,"byteLength":26979},{"buffer":0,"byteOffset":883726,"byteLength":11559},{"buffer":0,"byteOffset":895285,"byteLength":2283}],"images":[{"name":"pm0723_00_Mouth1","mimeType":"image/png","bufferView":4},{"name":"pm0723_00_EyeA1","mimeType":"image/png","bufferView":5},{"name":"pm0723_00_Body1","mimeType":"image/png","bufferView":6},{"name":"pm0723_00_Iris1","mimeType":"image/png","bufferView":7}],"materials":[{"name":"Material__10","pbrMetallicRoughness":{"baseColorTexture":{"index":0},"baseColorFactor":[1,1,1,1],"metallicFactor":0,"roughnessFactor":0.998},"emissiveFactor":[0,0,0],"alphaMode":"OPAQUE","doubleSided":false},{"name":"Material__11","pbrMetallicRoughness":{"baseColorTexture":{"index":1},"baseColorFactor":[1,1,1,1],"metallicFactor":0,"roughnessFactor":0.998},"emissiveFactor":[0,0,0],"alphaMode":"OPAQUE","doubleSided":false},{"name":"Material__12","pbrMetallicRoughness":{"baseColorTexture":{"index":2},"baseColorFactor":[1,1,1,1],"metallicFactor":0,"roughnessFactor":0.998},"emissiveFactor":[0,0,0],"alphaMode":"OPAQUE","doubleSided":false},{"name":"Material__13","pbrMetallicRoughness":{"baseColorTexture":{"index":3},"baseColorFactor":[1,1,1,1],"metallicFactor":0,"roughnessFactor":0.998},"emissiveFactor":[0,0,0],"alphaMode":"OPAQUE","doubleSided":false}],"meshes":[{"name":"Froakie_1","primitives":[{"attributes":{"POSITION":0,"NORMAL":1,"TEXCOORD_0":2},"indices":3,"material":0,"mode":4},{"attributes":{"POSITION":4,"NORMAL":5,"TEXCOORD_0":6},"indices":7,"material":1,"mode":4},{"attributes":{"POSITION":8,"NORMAL":9,"TEXCOORD_0":10},"indices":11,"material":2,"mode":4},{"attributes":{"POSITION":12,"NORMAL":13,"TEXCOORD_0":14},"indices":15,"material":3,"mode":4}]},{"name":"Froakie_FoamA_1","primitives":[{"attributes":{"POSITION":16,"NORMAL":17,"TEXCOORD_0":18},"indices":19,"material":2,"mode":4}]},{"name":"Froakie_FoamB_1","primitives":[{"attributes":{"POSITION":20,"NORMAL":21,"TEXCOORD_0":22},"indices":23,"material":2,"mode":4}]}],"nodes":[{"name":"Froakie","mesh":0},{"name":"Froakie_FoamA","mesh":1},{"name":"Froakie_FoamB","mesh":2}],"samplers":[{"wrapS":10497,"wrapT":10497}],"scene":0,"scenes":[{"nodes":[0,1,2]}],"textures":[{"name":"pm0723_00_Mouth1","sampler":0,"source":0},{"name":"pm0723_00_EyeA1","sampler":0,"source":1},{"name":"pm0723_00_Body1","sampler":0,"source":2},{"name":"pm0723_00_Iris1","sampler":0,"source":3}]}