{"accessors":[{"name":"Greninja_1_0_positions","componentType":5126,"count":1890,"min":[-58.40310287475586,44.51309585571289,-3.4383139610290527],"max":[58.40309143066406,140.75856018066406,38.19380569458008],"type":"VEC3","bufferView":0,"byteOffset":0},{"name":"Greninja_1_0_normals","componentType":5126,"count":1890,"min":[-0.9998438954353333,-0.9999435544013977,-0.9984025359153748],"max":[0.9458950161933899,0.9999486804008484,0.9225749373435974],"type":"VEC3","bufferView":1,"byteOffset":0},{"name":"Greninja_1_0_texcoords","componentType":5126,"count":1890,"min":[0.015413999557495117,-0.9919099807739258],"max":[0.9845860004425049,-0.42969000339508057],"type":"VEC2","bufferView":2,"byteOffset":0},{"name":"Greninja_1_0_indices","componentType":5123,"count":1890,"min":[0],"max":[1889],"type":"SCALAR","bufferView":3,"byteOffset":0},{"name":"Greninja_1_1_positions","componentType":5126,"count":22134,"min":[-92.68620300292969,2.5486900806427,-46.326026916503906],"max":[92.68618774414062,163.6312713623047,82.51480865478516],"type":"VEC3","bufferView":0,"byteOffset":22680},{"name":"Greninja_1_1_normals","componentType":5126,"count":22134,"min":[-0.9998897314071655,-0.9999814033508301,-0.9984025359153748],"max":[0.9996615648269653,0.9999486804008484,0.9998899102210999],"type":"VEC3","bufferView":1,"byteOffset":22680},{"name":"Greninja_1_1_texcoords","componentType":5126,"count":22134,"min":[0,0.011718999594449997],"max":[1,0.9934930205345154],"type":"VEC2","bufferView":2,"byteOffset":15120},{"name":"Greninja_1_1_indices","componentType":5123,"count":22134,"min":[0],"max":[22133],"type":"SCALAR","bufferView":3,"byteOffset":3780},{"name":"Greninja_1_2_positions","componentType":5126,"count":288,"min":[-15.722743034362793,137.4564208984375,10.478493690490723],"max":[15.722657203674316,152.7356719970703,21.59283447265625],"type":"VEC3","bufferView":0,"byteOffset":288288},{"name":"Greninja_1_2_normals","componentType":5126,"count":288,"min":[-0.9984044432640076,-0.06849497556686401,-0.891934335231781],"max":[0.6197209358215332,0.9997963309288025,0.6150386929512024],"type":"VEC3","bufferView":1,"byteOffset":288288},{"name":"Greninja_1_2_texcoords","componentType":5126,"count":288,"min":[0.02621700055897236,-1.9935599565505981],"max":[0.4737800061702728,-1.757140040397644],"type":"VEC2","bufferView":2,"byteOffset":192192},{"name":"Greninja_1_2_indices","componentType":5123,"count":288,"min":[0],"max":[287],"type":"SCALAR","bufferView":3,"byteOffset":48048},{"name":"Greninja_1_3_positions","componentType":5126,"count":288,"min":[-15.868742942810059,137.42330932617188,10.512297630310059],"max":[15.868657112121582,152.7805633544922,21.70533561706543],"type":"VEC3","bufferView":0,"byteOffset":291744},{"name":"Greninja_1_3_normals","componentType":5126,"count":288,"min":[-0.1374320536851883,-0.0012790004257112741,-0.5815180540084839],"max":[0.9895787239074707,0.9999411702156067,0.9905103445053101],"type":"VEC3","bufferView":1,"byteOffset":291744},{"name":"Greninja_1_3_texcoords","componentType":5126,"count":288,"min":[-3.8951199054718018,-10.97424030303955],"max":[3.8814001083374023,-10.028559684753418],"type":"VEC2","bufferView":2,"byteOffset":194496},{"name":"Greninja_1_3_indices","componentType":5123,"count":288,"min":[0],"max":[287],"type":"SCALAR","bufferView":3,"byteOffset":48624},{"name":"Greninja_Tongue_1_0_positions","componentType":5126,"count":4260,"min":[-82.56871795654297,117.77100372314453,-91.52061462402344],"max":[24.256999969482422,145.2119598388672,28.383102416992188],"type":"VEC3","bufferView":0,"byteOffset":295200},{"name":"Greninja_Tongue_1_0_normals","componentType":5126,"count":4260,"min":[-0.2824709713459015,-0.4726760983467102,-0.1449209451675415],"max":[0.9493585824966431,0.999980092048645,0.9151479005813599],"type":"VEC3","bufferView":1,"byteOffset":295200},{"name":"Greninja_Tongue_1_0_texcoords","componentType":5126,"count":4260,"min":[0.019670000299811363,-0.9865000247955322],"max":[0.9803299903869629,-0.009580000303685665],"type":"VEC2","bufferView":2,"byteOffset":196800},{"name":"Greninja_Tongue_1_0_indices","componentType":5123,"count":4260,"min":[0],"max":[4259],"type":"SCALAR","bufferView":3,"byteOffset":49200}],"asset":{"generator":"obj2gltf","version":"2.0"},"buffers":[{"name":"XY_Greninja","byteLength":1070456,"uri":"data:application/octet-stream;base64,"}],"bufferViews":[{"name":"bufferView_0","buffer":0,"byteLength":346320,"byteOffset":0,"byteStride":12,"target":34962},{"name":"bufferView_1","buffer":0,"byteLength":346320,"byteOffset":346320,"byteStride":12,"target":34962},{"name":"bufferView_2","buffer":0,"byteLength":230880,"byteOffset":692640,"byteStride":8,"target":34962},{"name":"bufferView_3","buffer":0,"byteLength":57720,"byteOffset":923520,"target":34963},{"buffer":0,"byteOffset":981240,"byteLength":18431},{"buffer":0,"byteOffset":999671,"byteLength":37483},{"buffer":0,"byteOffset":1037154,"byteLength":31535},{"buffer":0,"byteOffset":1068689,"byteLength":1766}],"images":[{"name":"pm0725_00_BodyB1","mimeType":"image/png","bufferView":4},{"name":"pm0725_00_BodyA1","mimeType":"image/png","bufferView":5},{"name":"pm0725_00_EyeA1","mimeType":"image/png","bufferView":6},{"name":"pm0725_00_Iris1","mimeType":"image/png","bufferView":7}],"materials":[{"name":"Material__10","pbrMetallicRoughness":{"baseColorTexture":{"index":0},"baseColorFactor":[1,1,1,1],"metallicFactor":0,"roughnessFactor":0.998},"emissiveFactor":[0,0,0],"alphaMode":"OPAQUE","doubleSided":false},{"name":"Material__11","pbrMetallicRoughness":{"baseColorTexture":{"index":1},"baseColorFactor":[1,1,1,1],"metallicFactor":0,"roughnessFactor":0.998},"emissiveFactor":[0,0,0],"alphaMode":"OPAQUE","doubleSided":false},{"name":"Material__12","pbrMetallicRoughness":{"baseColorTexture":{"index":2},"baseColorFactor":[1,1,1,1],"metallicFactor":0,"roughnessFactor":0.998},"emissiveFactor":[0,0,0],"alphaMode":"OPAQUE","doubleSided":false},{"name":"Material__13","pbrMetallicRoughness":{"baseColorTexture":{"index":3},"baseColorFactor":[1,1,1,1],"metallicFactor":0,"roughnessFactor":0.998},"emissiveFactor":[0,0,0],"alphaMode":"OPAQUE","doubleSided":false}],"meshes":[{"name":"Greninja_1","primitives":[{"attributes":{"POSITION":0,"NORMAL":1,"TEXCOORD_0":2},"indices":3,"material":0,"mode":4},{"attributes":{"POSITION":4,"NORMAL":5,"TEXCOORD_0":6},"indices":7,"material":1,"mode":4},{"attributes":{"POSITION":8,"NORMAL":9,"TEXCOORD_0":10},"indices":11,"material":2,"mode":4},{"attributes":{"POSITION":12,"NORMAL":13,"TEXCOORD_0":14},"indices":15,"material":3,"mode":4}]},{"name":"Greninja_Tongue_1","primitives":[{"attributes":{"POSITION":16,"NORMAL":17,"TEXCOORD_0":18},"indices":19,"material":0,"mode":4}]}],"nodes":[{"name":"Greninja","mesh":0},{"name":"Greninja_Tongue","mesh":1}],"samplers":[{"wrapS":10497,"wrapT":10497}],"scene":0,"scenes":[{"nodes":[0,1]}],"textures":[{"name":"pm0725_00_BodyB1","sampler":0,"source":0},{"name":"pm0725_00_BodyA1","sampler":0,"source":1},{"name":"pm0725_00_EyeA1","sampler":0,"source":2},{"name":"pm0725_00_Iris1","sampler":0,"source":3}]}