{"accessors":[{"name":"Diggersby_1_0_positions","componentType":5126,"count":16788,"min":[-51.650386810302734,46.98786163330078,-21.708099365234375],"max":[51.650394439697266,133.82101440429688,107.93402099609375],"type":"VEC3","bufferView":0,"byteOffset":0},{"name":"Diggersby_1_0_normals","componentType":5126,"count":16788,"min":[-0.9995798468589783,-0.9999999403953552,-0.9961515069007874],"max":[0.9995800256729126,0.999824047088623,0.9913313984870911],"type":"VEC3","bufferView":1,"byteOffset":0},{"name":"Diggersby_1_0_texcoords","componentType":5126,"count":16788,"min":[0.005814000032842159,0.004397999960929155],"max":[0.9941859841346741,0.9923670291900635],"type":"VEC2","bufferView":2,"byteOffset":0},{"name":"Diggersby_1_0_indices","componentType":5123,"count":16788,"min":[0],"max":[16787],"type":"SCALAR","bufferView":3,"byteOffset":0},{"name":"Diggersby_1_1_positions","componentType":5126,"count":14118,"min":[-32.363094329833984,0.1067729964852333,-43.47650146484375],"max":[32.36309814453125,58.935302734375,28.38719940185547],"type":"VEC3","bufferView":0,"byteOffset":201456},{"name":"Diggersby_1_1_normals","componentType":5126,"count":14118,"min":[-0.9983805418014526,-0.9999119639396667,-0.9961515069007874],"max":[0.9983806014060974,0.9995584487915039,0.9734311103820801],"type":"VEC3","bufferView":1,"byteOffset":201456},{"name":"Diggersby_1_1_texcoords","componentType":5126,"count":14118,"min":[0.007813000120222569,-0.9921900033950806],"max":[0.9921879768371582,-0.00686000008136034],"type":"VEC2","bufferView":2,"byteOffset":134304},{"name":"Diggersby_1_1_indices","componentType":5123,"count":14118,"min":[0],"max":[14117],"type":"SCALAR","bufferView":3,"byteOffset":33576},{"name":"Diggersby_1_2_positions","componentType":5126,"count":276,"min":[-11.313241958618164,78.76380920410156,9.479775428771973],"max":[11.31315803527832,89.82020568847656,15.753192901611328],"type":"VEC3","bufferView":0,"byteOffset":370872},{"name":"Diggersby_1_2_normals","componentType":5126,"count":276,"min":[-0.9430804252624512,-0.9800093770027161,-0.8355740904808044],"max":[0.2811829149723053,0.9373283982276917,0.8657342195510864],"type":"VEC3","bufferView":1,"byteOffset":370872},{"name":"Diggersby_1_2_texcoords","componentType":5126,"count":276,"min":[0.007441999856382608,-1.9819400310516357],"max":[0.4925599992275238,-1.765030026435852],"type":"VEC2","bufferView":2,"byteOffset":247248},{"name":"Diggersby_1_2_indices","componentType":5123,"count":276,"min":[0],"max":[275],"type":"SCALAR","bufferView":3,"byteOffset":61812},{"name":"Diggersby_1_3_positions","componentType":5126,"count":288,"min":[-12.997113227844238,68.45970916748047,12.744400024414062],"max":[12.997086524963379,79.56795501708984,19.143301010131836],"type":"VEC3","bufferView":0,"byteOffset":374184},{"name":"Diggersby_1_3_normals","componentType":5126,"count":288,"min":[-0.9719029664993286,-0.6456581354141235,-0.8706282377243042],"max":[0.5435428023338318,0.9995585680007935,0.8657342195510864],"type":"VEC3","bufferView":1,"byteOffset":374184},{"name":"Diggersby_1_3_texcoords","componentType":5126,"count":288,"min":[0.005779999773949385,-2.976480007171631],"max":[0.49421998858451843,-2.7679800987243652],"type":"VEC2","bufferView":2,"byteOffset":249456},{"name":"Diggersby_1_3_indices","componentType":5123,"count":288,"min":[0],"max":[287],"type":"SCALAR","bufferView":3,"byteOffset":62364}],"asset":{"generator":"obj2gltf","version":"2.0"},"buffers":[{"name":"XY_Diggersby","byteLength":1149512,"uri":"data:application/octet-stream;base64,"}],"bufferViews":[{"name":"bufferView_0","buffer":0,"byteLength":377640,"byteOffset":0,"byteStride":12,"target":34962},{"name":"bufferView_1","buffer":0,"byteLength":377640,"byteOffset":377640,"byteStride":12,"target":34962},{"name":"bufferView_2","buffer":0,"byteLength":251760,"byteOffset":755280,"byteStride":8,"target":34962},{"name":"bufferView_3","buffer":0,"byteLength":62940,"byteOffset":1007040,"target":34963},{"buffer":0,"byteOffset":1069980,"byteLength":19175},{"buffer":0,"byteOffset":1089155,"byteLength":12360},{"buffer":0,"byteOffset":1101515,"byteLength":34360},{"buffer":0,"byteOffset":1135875,"byteLength":13635}],"images":[{"name":"pm0712_00_BodyA1","mimeType":"image/png","bufferView":4},{"name":"pm0712_00_BodyB1","mimeType":"image/png","bufferView":5},{"name":"pm0712_00_Eye1","mimeType":"image/png","bufferView":6},{"name":"pm0712_00_Mouth1","mimeType":"image/png","bufferView":7}],"materials":[{"name":"Material__47","pbrMetallicRoughness":{"baseColorTexture":{"index":0},"baseColorFactor":[1,1,1,1],"metallicFactor":0,"roughnessFactor":0.998},"emissiveFactor":[0,0,0],"alphaMode":"OPAQUE","doubleSided":false},{"name":"Material__48","pbrMetallicRoughness":{"baseColorTexture":{"index":1},"baseColorFactor":[1,1,1,1],"metallicFactor":0,"roughnessFactor":0.998},"emissiveFactor":[0,0,0],"alphaMode":"OPAQUE","doubleSided":false},{"name":"Material__49","pbrMetallicRoughness":{"baseColorTexture":{"index":2},"baseColorFactor":[1,1,1,1],"metallicFactor":0,"roughnessFactor":0.998},"emissiveFactor":[0,0,0],"alphaMode":"OPAQUE","doubleSided":false},{"name":"Material__50","pbrMetallicRoughness":{"baseColorTexture":{"index":3},"baseColorFactor":[1,1,1,1],"metallicFactor":0,"roughnessFactor":0.998},"emissiveFactor":[0,0,0],"alphaMode":"OPAQUE","doubleSided":false}],"meshes":[{"name":"Diggersby_1","primitives":[{"attributes":{"POSITION":0,"NORMAL":1,"TEXCOORD_0":2},"indices":3,"material":0,"mode":4},{"attributes":{"POSITION":4,"NORMAL":5,"TEXCOORD_0":6},"indices":7,"material":1,"mode":4},{"attributes":{"POSITION":8,"NORMAL":9,"TEXCOORD_0":10},"indices":11,"material":2,"mode":4},{"attributes":{"POSITION":12,"NORMAL":13,"TEXCOORD_0":14},"indices":15,"material":3,"mode":4}]}],"nodes":[{"name":"Diggersby","mesh":0}],"samplers":[{"wrapS":10497,"wrapT":10497}],"scene":0,"scenes":[{"nodes":[0]}],"textures":[{"name":"pm0712_00_BodyA1","sampler":0,"source":0},{"name":"pm0712_00_BodyB1","sampler":0,"source":1},{"name":"pm0712_00_Eye1","sampler":0,"source":2},{"name":"pm0712_00_Mouth1","sampler":0,"source":3}]}