{"accessors":[{"name":"Vivillon_1_0_positions","componentType":5126,"count":4020,"min":[-66.53028869628906,-0.3973430097103119,-3.252413034439087],"max":[66.5302963256836,120.15000915527344,-3.252401113510132],"type":"VEC3","bufferView":0,"byteOffset":0},{"name":"Vivillon_1_0_normals","componentType":5126,"count":4020,"min":[0,0,-1],"max":[9.999999974752427e-7,0,-1],"type":"VEC3","bufferView":1,"byteOffset":0},{"name":"Vivillon_1_0_texcoords","componentType":5126,"count":4020,"min":[0.014248000457882881,-0.9400799870491028],"max":[0.9857519865036011,-0.020409999415278435],"type":"VEC2","bufferView":2,"byteOffset":0},{"name":"Vivillon_1_0_indices","componentType":5123,"count":4020,"min":[0],"max":[4019],"type":"SCALAR","bufferView":3,"byteOffset":0},{"name":"Vivillon_1_1_positions","componentType":5126,"count":8412,"min":[-9.070159912109375,22.95170021057129,-6.503509998321533],"max":[9.070159912109375,90.2997055053711,24.8883056640625],"type":"VEC3","bufferView":0,"byteOffset":48240},{"name":"Vivillon_1_1_normals","componentType":5126,"count":8412,"min":[0,0,-1],"max":[0,0,-1],"type":"VEC3","bufferView":1,"byteOffset":48240},{"name":"Vivillon_1_1_texcoords","componentType":5126,"count":8412,"min":[0.019474999979138374,0.014368000440299511],"max":[0.980525016784668,0.9832779765129089],"type":"VEC2","bufferView":2,"byteOffset":32160},{"name":"Vivillon_1_1_indices","componentType":5123,"count":8412,"min":[0],"max":[8411],"type":"SCALAR","bufferView":3,"byteOffset":8040},{"name":"Vivillon_1_2_positions","componentType":5126,"count":540,"min":[-9.070159912109375,49.627899169921875,0.869907021522522],"max":[9.070159912109375,60.57310104370117,12.358802795410156],"type":"VEC3","bufferView":0,"byteOffset":149184},{"name":"Vivillon_1_2_normals","componentType":5126,"count":540,"min":[0,0,-1],"max":[0,0,-1],"type":"VEC3","bufferView":1,"byteOffset":149184},{"name":"Vivillon_1_2_texcoords","componentType":5126,"count":540,"min":[0.010428999550640583,-1.9797199964523315],"max":[0.4895699918270111,-1.7578099966049194],"type":"VEC2","bufferView":2,"byteOffset":99456},{"name":"Vivillon_1_2_indices","componentType":5123,"count":540,"min":[0],"max":[539],"type":"SCALAR","bufferView":3,"byteOffset":24864},{"name":"Vivillon_1_3_positions","componentType":5126,"count":96,"min":[-4.253079891204834,45.997196197509766,6.5320210456848145],"max":[4.253079891204834,49.78300094604492,12.358802795410156],"type":"VEC3","bufferView":0,"byteOffset":155664},{"name":"Vivillon_1_3_normals","componentType":5126,"count":96,"min":[0,0,-1],"max":[0,0,-1],"type":"VEC3","bufferView":1,"byteOffset":155664},{"name":"Vivillon_1_3_texcoords","componentType":5126,"count":96,"min":[0.09494999796152115,-2.9872100353240967],"max":[0.40505000948905945,-2.757810115814209],"type":"VEC2","bufferView":2,"byteOffset":103776},{"name":"Vivillon_1_3_indices","componentType":5123,"count":96,"min":[0],"max":[95],"type":"SCALAR","bufferView":3,"byteOffset":25944},{"name":"VivillonParticles_1_0_positions","componentType":5126,"count":240,"min":[-49.51539993286133,30.27199363708496,19.99999237060547],"max":[49.515403747558594,43.910804748535156,20.000009536743164],"type":"VEC3","bufferView":0,"byteOffset":156816},{"name":"VivillonParticles_1_0_normals","componentType":5126,"count":240,"min":[-0.0000019999999949504854,-9.999999974752427e-7,-1],"max":[0.0000019999999949504854,9.999999974752427e-7,1],"type":"VEC3","bufferView":1,"byteOffset":156816},{"name":"VivillonParticles_1_0_texcoords","componentType":5126,"count":240,"min":[0.00976600032299757,-0.9882799983024597],"max":[0.9902340173721313,-0.9609400033950806],"type":"VEC2","bufferView":2,"byteOffset":104544},{"name":"VivillonParticles_1_0_indices","componentType":5123,"count":240,"min":[0],"max":[239],"type":"SCALAR","bufferView":3,"byteOffset":26136}],"asset":{"generator":"obj2gltf","version":"2.0"},"buffers":[{"name":"XY_Vivillon","byteLength":523500,"uri":"data:application/octet-stream;base64,"}],"bufferViews":[{"name":"bufferView_0","buffer":0,"byteLength":159696,"byteOffset":0,"byteStride":12,"target":34962},{"name":"bufferView_1","buffer":0,"byteLength":159696,"byteOffset":159696,"byteStride":12,"target":34962},{"name":"bufferView_2","buffer":0,"byteLength":106464,"byteOffset":319392,"byteStride":8,"target":34962},{"name":"bufferView_3","buffer":0,"byteLength":26616,"byteOffset":425856,"target":34963},{"buffer":0,"byteOffset":452472,"byteLength":39872},{"buffer":0,"byteOffset":492344,"byteLength":8684},{"buffer":0,"byteOffset":501028,"byteLength":11538},{"buffer":0,"byteOffset":512566,"byteLength":10931}],"images":[{"name":"pm0708_11_BodyB1","mimeType":"image/png","bufferView":4},{"name":"pm0708_11_BodyA1","mimeType":"image/png","bufferView":5},{"name":"pm0708_11_Eye1","mimeType":"image/png","bufferView":6},{"name":"pm0708_11_Mouth1","mimeType":"image/png","bufferView":7}],"materials":[{"name":"Material__10","pbrMetallicRoughness":{"baseColorTexture":{"index":0},"baseColorFactor":[1,1,1,1],"metallicFactor":0,"roughnessFactor":0.998},"emissiveFactor":[0,0,0],"alphaMode":"OPAQUE","doubleSided":false},{"name":"Material__11","pbrMetallicRoughness":{"baseColorTexture":{"index":1},"baseColorFactor":[1,1,1,1],"metallicFactor":0,"roughnessFactor":0.998},"emissiveFactor":[0,0,0],"alphaMode":"OPAQUE","doubleSided":false},{"name":"Material__12","pbrMetallicRoughness":{"baseColorTexture":{"index":2},"baseColorFactor":[1,1,1,1],"metallicFactor":0,"roughnessFactor":0.998},"emissiveFactor":[0,0,0],"alphaMode":"OPAQUE","doubleSided":false},{"name":"Material__13","pbrMetallicRoughness":{"baseColorTexture":{"index":3},"baseColorFactor":[1,1,1,1],"metallicFactor":0,"roughnessFactor":0.998},"emissiveFactor":[0,0,0],"alphaMode":"OPAQUE","doubleSided":false}],"meshes":[{"name":"Vivillon_1","primitives":[{"attributes":{"POSITION":0,"NORMAL":1,"TEXCOORD_0":2},"indices":3,"material":0,"mode":4},{"attributes":{"POSITION":4,"NORMAL":5,"TEXCOORD_0":6},"indices":7,"material":1,"mode":4},{"attributes":{"POSITION":8,"NORMAL":9,"TEXCOORD_0":10},"indices":11,"material":2,"mode":4},{"attributes":{"POSITION":12,"NORMAL":13,"TEXCOORD_0":14},"indices":15,"material":3,"mode":4}]},{"name":"VivillonParticles_1","primitives":[{"attributes":{"POSITION":16,"NORMAL":17,"TEXCOORD_0":18},"indices":19,"material":0,"mode":4}]}],"nodes":[{"name":"Vivillon","mesh":0},{"name":"VivillonParticles","mesh":1}],"samplers":[{"wrapS":10497,"wrapT":10497}],"scene":0,"scenes":[{"nodes":[0,1]}],"textures":[{"name":"pm0708_11_BodyB1","sampler":0,"source":0},{"name":"pm0708_11_BodyA1","sampler":0,"source":1},{"name":"pm0708_11_Eye1","sampler":0,"source":2},{"name":"pm0708_11_Mouth1","sampler":0,"source":3}]}