{"accessors":[{"name":"Litleo_1_0_positions","componentType":5126,"count":13386,"min":[-25.995996475219727,0.02781599946320057,-48.552696228027344],"max":[25.996000289916992,61.522804260253906,41.922603607177734],"type":"VEC3","bufferView":0,"byteOffset":0},{"name":"Litleo_1_0_normals","componentType":5126,"count":13386,"min":[-0.9999951720237732,-0.9994736909866333,-0.9999592304229736],"max":[0.9999951720237732,0.9998354315757751,0.9997698664665222],"type":"VEC3","bufferView":1,"byteOffset":0},{"name":"Litleo_1_0_texcoords","componentType":5126,"count":13386,"min":[0.005570000037550926,0.005654999986290932],"max":[0.9944300055503845,0.9977570176124573],"type":"VEC2","bufferView":2,"byteOffset":0},{"name":"Litleo_1_0_indices","componentType":5123,"count":13386,"min":[0],"max":[13385],"type":"SCALAR","bufferView":3,"byteOffset":0},{"name":"Litleo_1_1_positions","componentType":5126,"count":396,"min":[-14.612900733947754,28.916303634643555,31.537498474121094],"max":[14.612898826599121,42.79480743408203,41.58110046386719],"type":"VEC3","bufferView":0,"byteOffset":160632},{"name":"Litleo_1_1_normals","componentType":5126,"count":396,"min":[-0.9995643496513367,-0.6411669850349426,-0.9924662709236145],"max":[0.999634861946106,0.7692281007766724,0.9946750402450562],"type":"VEC3","bufferView":1,"byteOffset":160632},{"name":"Litleo_1_1_texcoords","componentType":5126,"count":396,"min":[0.006634000223129988,-1.9780399799346924],"max":[0.493369996547699,-1.7724299430847168],"type":"VEC2","bufferView":2,"byteOffset":107088},{"name":"Litleo_1_1_indices","componentType":5123,"count":396,"min":[0],"max":[395],"type":"SCALAR","bufferView":3,"byteOffset":26772},{"name":"Litleo_1_2_positions","componentType":5126,"count":192,"min":[-8.519810676574707,23.9220027923584,25.897201538085938],"max":[8.519808769226074,26.226301193237305,35.37739562988281],"type":"VEC3","bufferView":0,"byteOffset":165384},{"name":"Litleo_1_2_normals","componentType":5126,"count":192,"min":[-0.8547002077102661,-0.7367721199989319,-0.9999134540557861],"max":[0.9999951720237732,0.8499742746353149,0.9993394017219543],"type":"VEC3","bufferView":1,"byteOffset":165384},{"name":"Litleo_1_2_texcoords","componentType":5126,"count":192,"min":[0.0439159981906414,-2.992269992828369],"max":[0.45607998967170715,-2.7559399604797363],"type":"VEC2","bufferView":2,"byteOffset":110256},{"name":"Litleo_1_2_indices","componentType":5123,"count":192,"min":[0],"max":[191],"type":"SCALAR","bufferView":3,"byteOffset":27564},{"name":"Litleo_1_3_positions","componentType":5126,"count":720,"min":[-3.8783910274505615,40.27410888671875,17.90230369567871],"max":[3.8783888816833496,63.22998809814453,41.922603607177734],"type":"VEC3","bufferView":0,"byteOffset":167688},{"name":"Litleo_1_3_normals","componentType":5126,"count":720,"min":[-0.9995643496513367,-0.9970020651817322,-0.9999438524246216],"max":[0.9999951720237732,0.7026399374008179,0.9210805892944336],"type":"VEC3","bufferView":1,"byteOffset":167688},{"name":"Litleo_1_3_texcoords","componentType":5126,"count":720,"min":[0.08450599759817123,-0.9770100116729736],"max":[0.9154940247535706,-0.024150000885128975],"type":"VEC2","bufferView":2,"byteOffset":111792},{"name":"Litleo_1_3_indices","componentType":5123,"count":720,"min":[0],"max":[719],"type":"SCALAR","bufferView":3,"byteOffset":27948},{"name":"Litleo_1_4_positions","componentType":5126,"count":396,"min":[-14.766000747680664,28.812408447265625,31.636302947998047],"max":[14.765998840332031,42.810707092285156,41.77459716796875],"type":"VEC3","bufferView":0,"byteOffset":176328},{"name":"Litleo_1_4_normals","componentType":5126,"count":396,"min":[-0.9971241354942322,-0.9994736909866333,-0.6421972513198853],"max":[0.6032100319862366,0.3590151369571686,0.9801725745201111],"type":"VEC3","bufferView":1,"byteOffset":176328},{"name":"Litleo_1_4_texcoords","componentType":5126,"count":396,"min":[0.02653600089251995,-1.912160038948059],"max":[0.9722890257835388,-1.0897200107574463],"type":"VEC2","bufferView":2,"byteOffset":117552},{"name":"Litleo_1_4_indices","componentType":5123,"count":396,"min":[0],"max":[395],"type":"SCALAR","bufferView":3,"byteOffset":29388}],"asset":{"generator":"obj2gltf","version":"2.0"},"buffers":[{"name":"XY_Litleo","byteLength":596660,"uri":"data:application/octet-stream;base64,"}],"bufferViews":[{"name":"bufferView_0","buffer":0,"byteLength":181080,"byteOffset":0,"byteStride":12,"target":34962},{"name":"bufferView_1","buffer":0,"byteLength":181080,"byteOffset":181080,"byteStride":12,"target":34962},{"name":"bufferView_2","buffer":0,"byteLength":120720,"byteOffset":362160,"byteStride":8,"target":34962},{"name":"bufferView_3","buffer":0,"byteLength":30180,"byteOffset":482880,"target":34963},{"buffer":0,"byteOffset":513060,"byteLength":38090},{"buffer":0,"byteOffset":551150,"byteLength":33244},{"buffer":0,"byteOffset":584394,"byteLength":10696},{"buffer":0,"byteOffset":595090,"byteLength":416},{"buffer":0,"byteOffset":595506,"byteLength":1153}],"images":[{"name":"pm0704_00_BodyA1","mimeType":"image/png","bufferView":4},{"name":"pm0704_00_Eye1","mimeType":"image/png","bufferView":5},{"name":"pm0704_00_Mouth1","mimeType":"image/png","bufferView":6},{"name":"pm0704_00_BodyB1","mimeType":"image/png","bufferView":7},{"name":"pm0704_00_Iris1","mimeType":"image/png","bufferView":8}],"materials":[{"name":"Material__10","pbrMetallicRoughness":{"baseColorTexture":{"index":0},"baseColorFactor":[1,1,1,1],"metallicFactor":0,"roughnessFactor":0.998},"emissiveFactor":[0,0,0],"alphaMode":"OPAQUE","doubleSided":false},{"name":"Material__11","pbrMetallicRoughness":{"baseColorTexture":{"index":1},"baseColorFactor":[1,1,1,1],"metallicFactor":0,"roughnessFactor":0.998},"emissiveFactor":[0,0,0],"alphaMode":"OPAQUE","doubleSided":false},{"name":"Material__12","pbrMetallicRoughness":{"baseColorTexture":{"index":2},"baseColorFactor":[1,1,1,1],"metallicFactor":0,"roughnessFactor":0.998},"emissiveFactor":[0,0,0],"alphaMode":"OPAQUE","doubleSided":false},{"name":"Material__13","pbrMetallicRoughness":{"baseColorTexture":{"index":3},"baseColorFactor":[1,1,1,1],"metallicFactor":0,"roughnessFactor":0.998},"emissiveFactor":[0,0,0],"alphaMode":"OPAQUE","doubleSided":false},{"name":"Material__14","pbrMetallicRoughness":{"baseColorTexture":{"index":4},"baseColorFactor":[1,1,1,1],"metallicFactor":0,"roughnessFactor":0.998},"emissiveFactor":[0,0,0],"alphaMode":"OPAQUE","doubleSided":false}],"meshes":[{"name":"Litleo_1","primitives":[{"attributes":{"POSITION":0,"NORMAL":1,"TEXCOORD_0":2},"indices":3,"material":0,"mode":4},{"attributes":{"POSITION":4,"NORMAL":5,"TEXCOORD_0":6},"indices":7,"material":1,"mode":4},{"attributes":{"POSITION":8,"NORMAL":9,"TEXCOORD_0":10},"indices":11,"material":2,"mode":4},{"attributes":{"POSITION":12,"NORMAL":13,"TEXCOORD_0":14},"indices":15,"material":3,"mode":4},{"attributes":{"POSITION":16,"NORMAL":17,"TEXCOORD_0":18},"indices":19,"material":4,"mode":4}]}],"nodes":[{"name":"Litleo","mesh":0}],"samplers":[{"wrapS":10497,"wrapT":10497}],"scene":0,"scenes":[{"nodes":[0]}],"textures":[{"name":"pm0704_00_BodyA1","sampler":0,"source":0},{"name":"pm0704_00_Eye1","sampler":0,"source":1},{"name":"pm0704_00_Mouth1","sampler":0,"source":2},{"name":"pm0704_00_BodyB1","sampler":0,"source":3},{"name":"pm0704_00_Iris1","sampler":0,"source":4}]}