{"accessors":[{"name":"Flab__b___1_0_positions","componentType":5126,"count":10698,"min":[-7.879990100860596,23.247499465942383,-2.855210065841675],"max":[7.879990100860596,33.4474983215332,3.2914299964904785],"type":"VEC3","bufferView":0,"byteOffset":0},{"name":"Flab__b___1_0_normals","componentType":5126,"count":10698,"min":[-1,-0.945656955242157,-1],"max":[0.9995764493942261,0.9503467679023743,1],"type":"VEC3","bufferView":1,"byteOffset":0},{"name":"Flab__b___1_0_texcoords","componentType":5126,"count":10698,"min":[0.023437999188899994,0.011718999594449997],"max":[0.9765629768371582,0.9894729852676392],"type":"VEC2","bufferView":2,"byteOffset":0},{"name":"Flab__b___1_0_indices","componentType":5123,"count":10698,"min":[0],"max":[10697],"type":"SCALAR","bufferView":3,"byteOffset":0},{"name":"Flab__b___1_1_positions","componentType":5126,"count":360,"min":[-2.1709489822387695,29.225200653076172,1.5189499855041504],"max":[2.170931100845337,31.53350830078125,2.9234700202941895],"type":"VEC3","bufferView":0,"byteOffset":128376},{"name":"Flab__b___1_1_normals","componentType":5126,"count":360,"min":[-0.7574657797813416,-0.945656955242157,-0.9018799066543579],"max":[0.9991794228553772,0.5924510359764099,0.9838213324546814],"type":"VEC3","bufferView":1,"byteOffset":128376},{"name":"Flab__b___1_1_texcoords","componentType":5126,"count":360,"min":[0.023089999333024025,-1.992210030555725],"max":[0.4769099950790405,-1.759529948234558],"type":"VEC2","bufferView":2,"byteOffset":85584},{"name":"Flab__b___1_1_indices","componentType":5123,"count":360,"min":[0],"max":[359],"type":"SCALAR","bufferView":3,"byteOffset":21396},{"name":"Flab__b__Flower_1_0_positions","componentType":5126,"count":9318,"min":[-9.646289825439453,-0.23148900270462036,-8.956459999084473],"max":[9.646289825439453,16.90740203857422,9.91190242767334],"type":"VEC3","bufferView":0,"byteOffset":132696},{"name":"Flab__b__Flower_1_0_normals","componentType":5126,"count":9318,"min":[-0.9945237040519714,-1,-1],"max":[0.9945224523544312,1,1],"type":"VEC3","bufferView":1,"byteOffset":132696},{"name":"Flab__b__Flower_1_0_texcoords","componentType":5126,"count":9318,"min":[0,-0.9921900033950806],"max":[1,-0.015610000118613243],"type":"VEC2","bufferView":2,"byteOffset":88464},{"name":"Flab__b__Flower_1_0_indices","componentType":5123,"count":9318,"min":[0],"max":[9317],"type":"SCALAR","bufferView":3,"byteOffset":22116},{"name":"Flab__b__Flower_LeavesClosed_1_0_positions","componentType":5126,"count":1440,"min":[-2.722320079803467,0.8993620276451111,-1.7832599878311157],"max":[2.722320079803467,6.212591171264648,3.0886099338531494],"type":"VEC3","bufferView":0,"byteOffset":244512},{"name":"Flab__b__Flower_LeavesClosed_1_0_normals","componentType":5126,"count":1440,"min":[-0.9110610485076904,-0.9156246185302734,-0.890172004699707],"max":[0.9900171756744385,0.9188059568405151,0.9138503670692444],"type":"VEC3","bufferView":1,"byteOffset":244512},{"name":"Flab__b__Flower_LeavesClosed_1_0_texcoords","componentType":5126,"count":1440,"min":[0.33226901292800903,-0.7425500154495239],"max":[0.667730987071991,-0.443450003862381],"type":"VEC2","bufferView":2,"byteOffset":163008},{"name":"Flab__b__Flower_LeavesClosed_1_0_indices","componentType":5123,"count":1440,"min":[0],"max":[1439],"type":"SCALAR","bufferView":3,"byteOffset":40752},{"name":"Flab__b__Flower_LeavesOpen_1_0_positions","componentType":5126,"count":3096,"min":[-10.783398628234863,-2.7085399627685547,-6.312359809875488],"max":[10.783398628234863,1.1327040195465088,12.45159912109375],"type":"VEC3","bufferView":0,"byteOffset":261792},{"name":"Flab__b__Flower_LeavesOpen_1_0_normals","componentType":5126,"count":3096,"min":[-0.996803879737854,-0.9988529086112976,-0.914520800113678],"max":[0.8440829515457153,0.9991970062255859,0.9863677620887756],"type":"VEC3","bufferView":1,"byteOffset":261792},{"name":"Flab__b__Flower_LeavesOpen_1_0_texcoords","componentType":5126,"count":3096,"min":[0.011799000203609467,-0.4973500072956085],"max":[0.9882010221481323,-0.0779699981212616],"type":"VEC2","bufferView":2,"byteOffset":174528},{"name":"Flab__b__Flower_LeavesOpen_1_0_indices","componentType":5123,"count":3096,"min":[0],"max":[3095],"type":"SCALAR","bufferView":3,"byteOffset":43632}],"asset":{"generator":"obj2gltf","version":"2.0"},"buffers":[{"name":"XY_Flab‚b‚","byteLength":847008,"uri":"data:application/octet-stream;base64,"}],"bufferViews":[{"name":"bufferView_0","buffer":0,"byteLength":298944,"byteOffset":0,"byteStride":12,"target":34962},{"name":"bufferView_1","buffer":0,"byteLength":298944,"byteOffset":298944,"byteStride":12,"target":34962},{"name":"bufferView_2","buffer":0,"byteLength":199296,"byteOffset":597888,"byteStride":8,"target":34962},{"name":"bufferView_3","buffer":0,"byteLength":49824,"byteOffset":797184,"target":34963}],"materials":[{"name":"Material__11","pbrMetallicRoughness":{"baseColorFactor":[0.5,0.5,0.5,1],"metallicFactor":0,"roughnessFactor":1},"emissiveFactor":[0,0,0],"alphaMode":"OPAQUE","doubleSided":false},{"name":"Material__12","pbrMetallicRoughness":{"baseColorFactor":[0.5,0.5,0.5,1],"metallicFactor":0,"roughnessFactor":1},"emissiveFactor":[0,0,0],"alphaMode":"OPAQUE","doubleSided":false},{"name":"Material__10","pbrMetallicRoughness":{"baseColorFactor":[0.5,0.5,0.5,1],"metallicFactor":0,"roughnessFactor":1},"emissiveFactor":[0,0,0],"alphaMode":"OPAQUE","doubleSided":false}],"meshes":[{"name":"Flab__b___1","primitives":[{"attributes":{"POSITION":0,"NORMAL":1,"TEXCOORD_0":2},"indices":3,"material":0,"mode":4},{"attributes":{"POSITION":4,"NORMAL":5,"TEXCOORD_0":6},"indices":7,"material":1,"mode":4}]},{"name":"Flab__b__Flower_1","primitives":[{"attributes":{"POSITION":8,"NORMAL":9,"TEXCOORD_0":10},"indices":11,"material":2,"mode":4}]},{"name":"Flab__b__Flower_LeavesClosed_1","primitives":[{"attributes":{"POSITION":12,"NORMAL":13,"TEXCOORD_0":14},"indices":15,"material":2,"mode":4}]},{"name":"Flab__b__Flower_LeavesOpen_1","primitives":[{"attributes":{"POSITION":16,"NORMAL":17,"TEXCOORD_0":18},"indices":19,"material":2,"mode":4}]}],"nodes":[{"name":"Flab__b__","mesh":0},{"name":"Flab__b__Flower","mesh":1},{"name":"Flab__b__Flower_LeavesClosed","mesh":2},{"name":"Flab__b__Flower_LeavesOpen","mesh":3}],"scene":0,"scenes":[{"nodes":[0,1,2,3]}]}