{"accessors":[{"name":"Gogoat_1_0_positions","componentType":5126,"count":15876,"min":[-30.858600616455078,0.000007000000096013537,-50.22979736328125],"max":[30.858600616455078,169.906005859375,125.67401885986328],"type":"VEC3","bufferView":0,"byteOffset":0},{"name":"Gogoat_1_0_normals","componentType":5126,"count":15876,"min":[-0.9997696876525879,-0.9995685815811157,-0.9902274012565613],"max":[0.9997696876525879,0.998190701007843,0.9986963272094727],"type":"VEC3","bufferView":1,"byteOffset":0},{"name":"Gogoat_1_0_texcoords","componentType":5126,"count":15876,"min":[0,0.0078119998797774315],"max":[1,0.9921870231628418],"type":"VEC2","bufferView":2,"byteOffset":0},{"name":"Gogoat_1_0_indices","componentType":5123,"count":15876,"min":[0],"max":[15875],"type":"SCALAR","bufferView":3,"byteOffset":0},{"name":"Gogoat_1_1_positions","componentType":5126,"count":72,"min":[-6.427410125732422,99.62781524658203,103.5820083618164],"max":[6.427411079406738,105.75801849365234,116.08700561523438],"type":"VEC3","bufferView":0,"byteOffset":190512},{"name":"Gogoat_1_1_normals","componentType":5126,"count":72,"min":[-0.9816802144050598,-0.6942412853240967,-0.32842186093330383],"max":[0.9971761703491211,0.9723241329193115,0.14217394590377808],"type":"VEC3","bufferView":1,"byteOffset":190512},{"name":"Gogoat_1_1_texcoords","componentType":5126,"count":72,"min":[0.12606200575828552,-2.9904699325561523],"max":[0.37393999099731445,-2.755620002746582],"type":"VEC2","bufferView":2,"byteOffset":127008},{"name":"Gogoat_1_1_indices","componentType":5123,"count":72,"min":[0],"max":[71],"type":"SCALAR","bufferView":3,"byteOffset":31752},{"name":"Gogoat_1_2_positions","componentType":5126,"count":552,"min":[-16.57979965209961,113.28701782226562,88.472900390625],"max":[16.57979965209961,134.31900024414062,120.66800689697266],"type":"VEC3","bufferView":0,"byteOffset":191376},{"name":"Gogoat_1_2_normals","componentType":5126,"count":552,"min":[-0.9647085070610046,-0.9484893679618835,-0.825507640838623],"max":[0.9214802980422974,0.7145829200744629,0.8244118690490723],"type":"VEC3","bufferView":1,"byteOffset":191376},{"name":"Gogoat_1_2_texcoords","componentType":5126,"count":552,"min":[0.006587000098079443,-1.9367799758911133],"max":[0.49340999126434326,-1.8031799793243408],"type":"VEC2","bufferView":2,"byteOffset":127584},{"name":"Gogoat_1_2_indices","componentType":5123,"count":552,"min":[0],"max":[551],"type":"SCALAR","bufferView":3,"byteOffset":31896},{"name":"Gogoat_1_3_positions","componentType":5126,"count":11124,"min":[-39.80910110473633,48.66412353515625,-83.91010284423828],"max":[39.80910110473633,139.30198669433594,99.33489227294922],"type":"VEC3","bufferView":0,"byteOffset":198000},{"name":"Gogoat_1_3_normals","componentType":5126,"count":11124,"min":[-0.9999997615814209,-0.995694100856781,-0.9998031258583069],"max":[0.9999997615814209,0.9479372501373291,0.999780535697937],"type":"VEC3","bufferView":1,"byteOffset":198000},{"name":"Gogoat_1_3_texcoords","componentType":5126,"count":11124,"min":[0.005758000072091818,-0.9854400157928467],"max":[0.9942420125007629,-0.007019999902695417],"type":"VEC2","bufferView":2,"byteOffset":132000},{"name":"Gogoat_1_3_indices","componentType":5123,"count":11124,"min":[0],"max":[11123],"type":"SCALAR","bufferView":3,"byteOffset":33000},{"name":"Gogoat_Vines_1_0_positions","componentType":5126,"count":2376,"min":[-236.59100341796875,105.15799713134766,66.1094970703125],"max":[236.5909881591797,117.65201568603516,77.4613037109375],"type":"VEC3","bufferView":0,"byteOffset":331488},{"name":"Gogoat_Vines_1_0_normals","componentType":5126,"count":2376,"min":[-9.999999974752427e-7,-1,-0.8659816384315491],"max":[0.0000019999999949504854,1,0.8659809827804565],"type":"VEC3","bufferView":1,"byteOffset":331488},{"name":"Gogoat_Vines_1_0_texcoords","componentType":5126,"count":2376,"min":[0.008500000461935997,-0.9921900033950806],"max":[0.9915000200271606,-0.835919976234436],"type":"VEC2","bufferView":2,"byteOffset":220992},{"name":"Gogoat_Vines_1_0_indices","componentType":5123,"count":2376,"min":[0],"max":[2375],"type":"SCALAR","bufferView":3,"byteOffset":55248}],"asset":{"generator":"obj2gltf","version":"2.0"},"buffers":[{"name":"XY_Gogoat","byteLength":1163780,"uri":"data:application/octet-stream;base64,"}],"bufferViews":[{"name":"bufferView_0","buffer":0,"byteLength":360000,"byteOffset":0,"byteStride":12,"target":34962},{"name":"bufferView_1","buffer":0,"byteLength":360000,"byteOffset":360000,"byteStride":12,"target":34962},{"name":"bufferView_2","buffer":0,"byteLength":240000,"byteOffset":720000,"byteStride":8,"target":34962},{"name":"bufferView_3","buffer":0,"byteLength":60000,"byteOffset":960000,"target":34963},{"buffer":0,"byteOffset":1020000,"byteLength":37829},{"buffer":0,"byteOffset":1057829,"byteLength":7876},{"buffer":0,"byteOffset":1065705,"byteLength":17747},{"buffer":0,"byteOffset":1083452,"byteLength":80326}],"images":[{"name":"pm0729_00_BodyA1","mimeType":"image/png","bufferView":4},{"name":"pm0729_00_Mouth1","mimeType":"image/png","bufferView":5},{"name":"pm0729_00_Eye1","mimeType":"image/png","bufferView":6},{"name":"pm0729_00_BodyB1","mimeType":"image/png","bufferView":7}],"materials":[{"name":"Material__48","pbrMetallicRoughness":{"baseColorTexture":{"index":0},"baseColorFactor":[1,1,1,1],"metallicFactor":0,"roughnessFactor":0.998},"emissiveFactor":[0,0,0],"alphaMode":"OPAQUE","doubleSided":false},{"name":"Material__49","pbrMetallicRoughness":{"baseColorTexture":{"index":1},"baseColorFactor":[1,1,1,1],"metallicFactor":0,"roughnessFactor":0.998},"emissiveFactor":[0,0,0],"alphaMode":"OPAQUE","doubleSided":false},{"name":"Material__50","pbrMetallicRoughness":{"baseColorTexture":{"index":2},"baseColorFactor":[1,1,1,1],"metallicFactor":0,"roughnessFactor":0.998},"emissiveFactor":[0,0,0],"alphaMode":"OPAQUE","doubleSided":false},{"name":"Material__51","pbrMetallicRoughness":{"baseColorTexture":{"index":3},"baseColorFactor":[1,1,1,1],"metallicFactor":0,"roughnessFactor":0.998},"emissiveFactor":[0,0,0],"alphaMode":"OPAQUE","doubleSided":false}],"meshes":[{"name":"Gogoat_1","primitives":[{"attributes":{"POSITION":0,"NORMAL":1,"TEXCOORD_0":2},"indices":3,"material":0,"mode":4},{"attributes":{"POSITION":4,"NORMAL":5,"TEXCOORD_0":6},"indices":7,"material":1,"mode":4},{"attributes":{"POSITION":8,"NORMAL":9,"TEXCOORD_0":10},"indices":11,"material":2,"mode":4},{"attributes":{"POSITION":12,"NORMAL":13,"TEXCOORD_0":14},"indices":15,"material":3,"mode":4}]},{"name":"Gogoat_Vines_1","primitives":[{"attributes":{"POSITION":16,"NORMAL":17,"TEXCOORD_0":18},"indices":19,"material":3,"mode":4}]}],"nodes":[{"name":"Gogoat","mesh":0},{"name":"Gogoat_Vines","mesh":1}],"samplers":[{"wrapS":10497,"wrapT":10497}],"scene":0,"scenes":[{"nodes":[0,1]}],"textures":[{"name":"pm0729_00_BodyA1","sampler":0,"source":0},{"name":"pm0729_00_Mouth1","sampler":0,"source":1},{"name":"pm0729_00_Eye1","sampler":0,"source":2},{"name":"pm0729_00_BodyB1","sampler":0,"source":3}]}