{"accessors":[{"name":"Pancham_1_0_positions","componentType":5126,"count":19200,"min":[-25.071102142333984,0.00880999956279993,-18.437000274658203],"max":[25.071102142333984,67.91490173339844,21.520099639892578],"type":"VEC3","bufferView":0,"byteOffset":0},{"name":"Pancham_1_0_normals","componentType":5126,"count":19200,"min":[-0.9992510080337524,-0.9993786215782166,-0.9988498091697693],"max":[0.9992510080337524,0.5734209418296814,0.99827641248703],"type":"VEC3","bufferView":1,"byteOffset":0},{"name":"Pancham_1_0_texcoords","componentType":5126,"count":19200,"min":[0,0.014101999811828136],"max":[1,0.9882810115814209],"type":"VEC2","bufferView":2,"byteOffset":0},{"name":"Pancham_1_0_indices","componentType":5123,"count":19200,"min":[0],"max":[19199],"type":"SCALAR","bufferView":3,"byteOffset":0},{"name":"Pancham_1_1_positions","componentType":5126,"count":270,"min":[-11.872900009155273,25.731998443603516,-0.15835599601268768],"max":[11.872900009155273,35.63240051269531,19.366600036621094],"type":"VEC3","bufferView":0,"byteOffset":230400},{"name":"Pancham_1_1_normals","componentType":5126,"count":270,"min":[-0.9934993982315063,-0.6413359642028809,-0.9910086989402771],"max":[0,0.1128680408000946,0.014825006015598774],"type":"VEC3","bufferView":1,"byteOffset":230400},{"name":"Pancham_1_1_texcoords","componentType":5126,"count":270,"min":[0.12187200039625168,-1.9883699417114258],"max":[0.3781299889087677,-1.7600500583648682],"type":"VEC2","bufferView":2,"byteOffset":153600},{"name":"Pancham_1_1_indices","componentType":5123,"count":270,"min":[0],"max":[269],"type":"SCALAR","bufferView":3,"byteOffset":38400},{"name":"Pancham_1_2_positions","componentType":5126,"count":402,"min":[-16.53510093688965,33.487396240234375,8.14434814453125],"max":[16.53510093688965,51.485496520996094,19.742198944091797],"type":"VEC3","bufferView":0,"byteOffset":233640},{"name":"Pancham_1_2_normals","componentType":5126,"count":402,"min":[-0.8505688309669495,-0.8709127306938171,-0.9910083413124084],"max":[0.9684978723526001,0.35547390580177307,0.9351547360420227],"type":"VEC3","bufferView":1,"byteOffset":233640},{"name":"Pancham_1_2_texcoords","componentType":5126,"count":402,"min":[0.02876799926161766,-0.9897699952125549],"max":[0.47123000025749207,-0.7609999775886536],"type":"VEC2","bufferView":2,"byteOffset":155760},{"name":"Pancham_1_2_indices","componentType":5123,"count":402,"min":[0],"max":[401],"type":"SCALAR","bufferView":3,"byteOffset":38940},{"name":"Pancham_1_3_positions","componentType":5126,"count":402,"min":[-16.618200302124023,33.43699645996094,8.192001342773438],"max":[16.618200302124023,51.539695739746094,19.837799072265625],"type":"VEC3","bufferView":0,"byteOffset":238464},{"name":"Pancham_1_3_normals","componentType":5126,"count":402,"min":[-0.5107618570327759,-0.9951183199882507,-0.9815290570259094],"max":[0.9289432168006897,0.03501899167895317,-0.09868903458118439],"type":"VEC3","bufferView":1,"byteOffset":238464},{"name":"Pancham_1_3_texcoords","componentType":5126,"count":402,"min":[0.11507199704647064,-1.9590799808502197],"max":[0.8966000080108643,-1.0440000295639038],"type":"VEC2","bufferView":2,"byteOffset":158976},{"name":"Pancham_1_3_indices","componentType":5123,"count":402,"min":[0],"max":[401],"type":"SCALAR","bufferView":3,"byteOffset":39744}],"asset":{"generator":"obj2gltf","version":"2.0"},"buffers":[{"name":"XY_Pancham","byteLength":764632,"uri":"data:application/octet-stream;base64,"}],"bufferViews":[{"name":"bufferView_0","buffer":0,"byteLength":243288,"byteOffset":0,"byteStride":12,"target":34962},{"name":"bufferView_1","buffer":0,"byteLength":243288,"byteOffset":243288,"byteStride":12,"target":34962},{"name":"bufferView_2","buffer":0,"byteLength":162192,"byteOffset":486576,"byteStride":8,"target":34962},{"name":"bufferView_3","buffer":0,"byteLength":40548,"byteOffset":648768,"target":34963},{"buffer":0,"byteOffset":689316,"byteLength":34967},{"buffer":0,"byteOffset":724283,"byteLength":16215},{"buffer":0,"byteOffset":740498,"byteLength":22899},{"buffer":0,"byteOffset":763397,"byteLength":1235}],"images":[{"name":"pm0752_00_Body1","mimeType":"image/png","bufferView":4},{"name":"pm0752_00_Mouth1","mimeType":"image/png","bufferView":5},{"name":"pm0752_00_Eye1","mimeType":"image/png","bufferView":6},{"name":"pm0752_00_Iris1","mimeType":"image/png","bufferView":7}],"materials":[{"name":"Material__34","pbrMetallicRoughness":{"baseColorTexture":{"index":0},"baseColorFactor":[1,1,1,1],"metallicFactor":0,"roughnessFactor":0.998},"emissiveFactor":[0,0,0],"alphaMode":"OPAQUE","doubleSided":false},{"name":"Material__35","pbrMetallicRoughness":{"baseColorTexture":{"index":1},"baseColorFactor":[1,1,1,1],"metallicFactor":0,"roughnessFactor":0.998},"emissiveFactor":[0,0,0],"alphaMode":"OPAQUE","doubleSided":false},{"name":"Material__36","pbrMetallicRoughness":{"baseColorTexture":{"index":2},"baseColorFactor":[1,1,1,1],"metallicFactor":0,"roughnessFactor":0.998},"emissiveFactor":[0,0,0],"alphaMode":"OPAQUE","doubleSided":false},{"name":"Material__37","pbrMetallicRoughness":{"baseColorTexture":{"index":3},"baseColorFactor":[1,1,1,1],"metallicFactor":0,"roughnessFactor":0.998},"emissiveFactor":[0,0,0],"alphaMode":"OPAQUE","doubleSided":false}],"meshes":[{"name":"Pancham_1","primitives":[{"attributes":{"POSITION":0,"NORMAL":1,"TEXCOORD_0":2},"indices":3,"material":0,"mode":4},{"attributes":{"POSITION":4,"NORMAL":5,"TEXCOORD_0":6},"indices":7,"material":1,"mode":4},{"attributes":{"POSITION":8,"NORMAL":9,"TEXCOORD_0":10},"indices":11,"material":2,"mode":4},{"attributes":{"POSITION":12,"NORMAL":13,"TEXCOORD_0":14},"indices":15,"material":3,"mode":4}]}],"nodes":[{"name":"Pancham","mesh":0}],"samplers":[{"wrapS":10497,"wrapT":10497}],"scene":0,"scenes":[{"nodes":[0]}],"textures":[{"name":"pm0752_00_Body1","sampler":0,"source":0},{"name":"pm0752_00_Mouth1","sampler":0,"source":1},{"name":"pm0752_00_Eye1","sampler":0,"source":2},{"name":"pm0752_00_Iris1","sampler":0,"source":3}]}