{"accessors":[{"name":"Pangoro_1_0_positions","componentType":5126,"count":8676,"min":[-153.50999450683594,1.4859139919281006,-37.86540603637695],"max":[153.5099639892578,221.66802978515625,82.78082275390625],"type":"VEC3","bufferView":0,"byteOffset":0},{"name":"Pangoro_1_0_normals","componentType":5126,"count":8676,"min":[-0.9848933219909668,-0.9937546253204346,-0.964107871055603],"max":[0.9848933219909668,0.9834176898002625,0.9946591854095459],"type":"VEC3","bufferView":1,"byteOffset":0},{"name":"Pangoro_1_0_texcoords","componentType":5126,"count":8676,"min":[0,-0.9882799983024597],"max":[1,-0.011719999834895134],"type":"VEC2","bufferView":2,"byteOffset":0},{"name":"Pangoro_1_0_indices","componentType":5123,"count":8676,"min":[0],"max":[8675],"type":"SCALAR","bufferView":3,"byteOffset":0},{"name":"Pangoro_1_1_positions","componentType":5126,"count":16200,"min":[-146.7340087890625,-1.532310962677002,-96.94820404052734],"max":[146.7339630126953,181.60899353027344,61.621402740478516],"type":"VEC3","bufferView":0,"byteOffset":104112},{"name":"Pangoro_1_1_normals","componentType":5126,"count":16200,"min":[-0.9848933219909668,-0.9937546253204346,-0.9580464363098145],"max":[0.9777730703353882,0.9834176898002625,0.9946592450141907],"type":"VEC3","bufferView":1,"byteOffset":104112},{"name":"Pangoro_1_1_texcoords","componentType":5126,"count":16200,"min":[0,0.009289000183343887],"max":[1,0.9921870231628418],"type":"VEC2","bufferView":2,"byteOffset":69408},{"name":"Pangoro_1_1_indices","componentType":5123,"count":16200,"min":[0],"max":[16199],"type":"SCALAR","bufferView":3,"byteOffset":17352},{"name":"Pangoro_1_2_positions","componentType":5126,"count":774,"min":[-18.108299255371094,167.41200256347656,27.69251251220703],"max":[18.108299255371094,186.15602111816406,48.29661560058594],"type":"VEC3","bufferView":0,"byteOffset":298512},{"name":"Pangoro_1_2_normals","componentType":5126,"count":774,"min":[-0.8276674151420593,-0.9937546253204346,-0.08935597538948059],"max":[0.966925859451294,0.25086095929145813,0.5638598203659058],"type":"VEC3","bufferView":1,"byteOffset":298512},{"name":"Pangoro_1_2_texcoords","componentType":5126,"count":774,"min":[0.0407009981572628,-2.9887399673461914],"max":[0.4592989981174469,-2.7596800327301025],"type":"VEC2","bufferView":2,"byteOffset":199008},{"name":"Pangoro_1_2_indices","componentType":5123,"count":774,"min":[0],"max":[773],"type":"SCALAR","bufferView":3,"byteOffset":49752},{"name":"Pangoro_1_3_positions","componentType":5126,"count":234,"min":[-20.98189926147461,189.5880126953125,22.567607879638672],"max":[20.98189926147461,204.94102478027344,40.54171371459961],"type":"VEC3","bufferView":0,"byteOffset":307800},{"name":"Pangoro_1_3_normals","componentType":5126,"count":234,"min":[-0.3758990466594696,-0.9421879649162292,-0.5088290572166443],"max":[0.6471697688102722,0.4873538613319397,0.9693230390548706],"type":"VEC3","bufferView":1,"byteOffset":307800},{"name":"Pangoro_1_3_texcoords","componentType":5126,"count":234,"min":[0.011718999594449997,-1.9472099542617798],"max":[0.4882799983024597,-1.7818200588226318],"type":"VEC2","bufferView":2,"byteOffset":205200},{"name":"Pangoro_1_3_indices","componentType":5123,"count":234,"min":[0],"max":[233],"type":"SCALAR","bufferView":3,"byteOffset":51300}],"asset":{"generator":"obj2gltf","version":"2.0"},"buffers":[{"name":"XY_Pangoro","byteLength":941004,"uri":"data:application/octet-stream;base64,"}],"bufferViews":[{"name":"bufferView_0","buffer":0,"byteLength":310608,"byteOffset":0,"byteStride":12,"target":34962},{"name":"bufferView_1","buffer":0,"byteLength":310608,"byteOffset":310608,"byteStride":12,"target":34962},{"name":"bufferView_2","buffer":0,"byteLength":207072,"byteOffset":621216,"byteStride":8,"target":34962},{"name":"bufferView_3","buffer":0,"byteLength":51768,"byteOffset":828288,"target":34963},{"buffer":0,"byteOffset":880056,"byteLength":5821},{"buffer":0,"byteOffset":885877,"byteLength":22793},{"buffer":0,"byteOffset":908670,"byteLength":16358},{"buffer":0,"byteOffset":925028,"byteLength":15973}],"images":[{"name":"pm0730_00_BodyB1","mimeType":"image/png","bufferView":4},{"name":"pm0730_00_BodyA1","mimeType":"image/png","bufferView":5},{"name":"pm0730_00_Mouth1","mimeType":"image/png","bufferView":6},{"name":"pm0730_00_Eye1","mimeType":"image/png","bufferView":7}],"materials":[{"name":"Material__24","pbrMetallicRoughness":{"baseColorTexture":{"index":0},"baseColorFactor":[1,1,1,1],"metallicFactor":0,"roughnessFactor":0.998},"emissiveFactor":[0,0,0],"alphaMode":"OPAQUE","doubleSided":false},{"name":"Material__25","pbrMetallicRoughness":{"baseColorTexture":{"index":1},"baseColorFactor":[1,1,1,1],"metallicFactor":0,"roughnessFactor":0.998},"emissiveFactor":[0,0,0],"alphaMode":"OPAQUE","doubleSided":false},{"name":"Material__26","pbrMetallicRoughness":{"baseColorTexture":{"index":2},"baseColorFactor":[1,1,1,1],"metallicFactor":0,"roughnessFactor":0.998},"emissiveFactor":[0,0,0],"alphaMode":"OPAQUE","doubleSided":false},{"name":"Material__27","pbrMetallicRoughness":{"baseColorTexture":{"index":3},"baseColorFactor":[1,1,1,1],"metallicFactor":0,"roughnessFactor":0.998},"emissiveFactor":[0,0,0],"alphaMode":"OPAQUE","doubleSided":false}],"meshes":[{"name":"Pangoro_1","primitives":[{"attributes":{"POSITION":0,"NORMAL":1,"TEXCOORD_0":2},"indices":3,"material":0,"mode":4},{"attributes":{"POSITION":4,"NORMAL":5,"TEXCOORD_0":6},"indices":7,"material":1,"mode":4},{"attributes":{"POSITION":8,"NORMAL":9,"TEXCOORD_0":10},"indices":11,"material":2,"mode":4},{"attributes":{"POSITION":12,"NORMAL":13,"TEXCOORD_0":14},"indices":15,"material":3,"mode":4}]}],"nodes":[{"name":"Pangoro","mesh":0}],"samplers":[{"wrapS":10497,"wrapT":10497}],"scene":0,"scenes":[{"nodes":[0]}],"textures":[{"name":"pm0730_00_BodyB1","sampler":0,"source":0},{"name":"pm0730_00_BodyA1","sampler":0,"source":1},{"name":"pm0730_00_Mouth1","sampler":0,"source":2},{"name":"pm0730_00_Eye1","sampler":0,"source":3}]}