{"accessors":[{"name":"Espurr_1_0_positions","componentType":5126,"count":15708,"min":[-13.970702171325684,-0.0591219998896122,-10.595898628234863],"max":[13.970699310302734,33.885902404785156,8.981797218322754],"type":"VEC3","bufferView":0,"byteOffset":0},{"name":"Espurr_1_0_normals","componentType":5126,"count":15708,"min":[-0.9990955591201782,-0.991797149181366,-0.9984021186828613],"max":[0.9761613607406616,0.9999603629112244,0.9984045028686523],"type":"VEC3","bufferView":1,"byteOffset":0},{"name":"Espurr_1_0_texcoords","componentType":5126,"count":15708,"min":[0,0.005898000206798315],"max":[1,0.9943050146102905],"type":"VEC2","bufferView":2,"byteOffset":0},{"name":"Espurr_1_0_indices","componentType":5123,"count":15708,"min":[0],"max":[15707],"type":"SCALAR","bufferView":3,"byteOffset":0},{"name":"Espurr_1_1_positions","componentType":5126,"count":186,"min":[-7.774107933044434,15.529293060302734,3.3171889781951904],"max":[7.774048805236816,21.596418380737305,7.828266143798828],"type":"VEC3","bufferView":0,"byteOffset":188496},{"name":"Espurr_1_1_normals","componentType":5126,"count":186,"min":[-0.87166827917099,-0.9407913088798523,-0.9900593757629395],"max":[0.700249433517456,0.9307847619056702,0.5180041790008545],"type":"VEC3","bufferView":1,"byteOffset":188496},{"name":"Espurr_1_1_texcoords","componentType":5126,"count":186,"min":[0.005716999992728233,-0.9925199747085571],"max":[0.494282990694046,-0.7599999904632568],"type":"VEC2","bufferView":2,"byteOffset":125664},{"name":"Espurr_1_1_indices","componentType":5123,"count":186,"min":[0],"max":[185],"type":"SCALAR","bufferView":3,"byteOffset":31416},{"name":"Espurr_1_2_positions","componentType":5126,"count":54,"min":[-2.6570770740509033,14.739997863769531,4.308410167694092],"max":[2.6570630073547363,18.253408432006836,7.544288158416748],"type":"VEC3","bufferView":0,"byteOffset":190728},{"name":"Espurr_1_2_normals","componentType":5126,"count":54,"min":[-0.8604190349578857,-0.860975980758667,-0.9661320447921753],"max":[0.8829637169837952,0.9307847619056702,0.4364889860153198],"type":"VEC3","bufferView":1,"byteOffset":190728},{"name":"Espurr_1_2_texcoords","componentType":5126,"count":54,"min":[0.11949700117111206,-1.9921900033950806],"max":[0.3804999887943268,-1.7574700117111206],"type":"VEC2","bufferView":2,"byteOffset":127152},{"name":"Espurr_1_2_indices","componentType":5123,"count":54,"min":[0],"max":[53],"type":"SCALAR","bufferView":3,"byteOffset":31788},{"name":"Espurr_1_3_positions","componentType":5126,"count":186,"min":[-7.839179039001465,15.46499252319336,3.371428966522217],"max":[7.839118957519531,21.592220306396484,7.9253058433532715],"type":"VEC3","bufferView":0,"byteOffset":191376},{"name":"Espurr_1_3_normals","componentType":5126,"count":186,"min":[-0.4754442274570465,-0.9750539660453796,-0.012483998201787472],"max":[0.9149040579795837,0.8438624143600464,0.7416423559188843],"type":"VEC3","bufferView":1,"byteOffset":191376},{"name":"Espurr_1_3_texcoords","componentType":5126,"count":186,"min":[0.022866999730467796,-1.970080018043518],"max":[0.9611960053443909,-1.0399999618530273],"type":"VEC2","bufferView":2,"byteOffset":127584},{"name":"Espurr_1_3_indices","componentType":5123,"count":186,"min":[0],"max":[185],"type":"SCALAR","bufferView":3,"byteOffset":31896}],"asset":{"generator":"obj2gltf","version":"2.0"},"buffers":[{"name":"XY_Espurr","byteLength":595224,"uri":"data:application/octet-stream;base64,"}],"bufferViews":[{"name":"bufferView_0","buffer":0,"byteLength":193608,"byteOffset":0,"byteStride":12,"target":34962},{"name":"bufferView_1","buffer":0,"byteLength":193608,"byteOffset":193608,"byteStride":12,"target":34962},{"name":"bufferView_2","buffer":0,"byteLength":129072,"byteOffset":387216,"byteStride":8,"target":34962},{"name":"bufferView_3","buffer":0,"byteLength":32268,"byteOffset":516288,"target":34963},{"buffer":0,"byteOffset":548556,"byteLength":20370},{"buffer":0,"byteOffset":568926,"byteLength":15297},{"buffer":0,"byteOffset":584223,"byteLength":10106},{"buffer":0,"byteOffset":594329,"byteLength":895}],"images":[{"name":"pm0733_00_Body1","mimeType":"image/png","bufferView":4},{"name":"pm0733_00_Eye1","mimeType":"image/png","bufferView":5},{"name":"pm0733_00_Mouth1","mimeType":"image/png","bufferView":6},{"name":"pm0733_00_Iris1","mimeType":"image/png","bufferView":7}],"materials":[{"name":"Material__10","pbrMetallicRoughness":{"baseColorTexture":{"index":0},"baseColorFactor":[1,1,1,1],"metallicFactor":0,"roughnessFactor":0.998},"emissiveFactor":[0,0,0],"alphaMode":"OPAQUE","doubleSided":false},{"name":"Material__11","pbrMetallicRoughness":{"baseColorTexture":{"index":1},"baseColorFactor":[1,1,1,1],"metallicFactor":0,"roughnessFactor":0.998},"emissiveFactor":[0,0,0],"alphaMode":"OPAQUE","doubleSided":false},{"name":"Material__12","pbrMetallicRoughness":{"baseColorTexture":{"index":2},"baseColorFactor":[1,1,1,1],"metallicFactor":0,"roughnessFactor":0.998},"emissiveFactor":[0,0,0],"alphaMode":"OPAQUE","doubleSided":false},{"name":"Material__13","pbrMetallicRoughness":{"baseColorTexture":{"index":3},"baseColorFactor":[1,1,1,1],"metallicFactor":0,"roughnessFactor":0.998},"emissiveFactor":[0,0,0],"alphaMode":"OPAQUE","doubleSided":false}],"meshes":[{"name":"Espurr_1","primitives":[{"attributes":{"POSITION":0,"NORMAL":1,"TEXCOORD_0":2},"indices":3,"material":0,"mode":4},{"attributes":{"POSITION":4,"NORMAL":5,"TEXCOORD_0":6},"indices":7,"material":1,"mode":4},{"attributes":{"POSITION":8,"NORMAL":9,"TEXCOORD_0":10},"indices":11,"material":2,"mode":4},{"attributes":{"POSITION":12,"NORMAL":13,"TEXCOORD_0":14},"indices":15,"material":3,"mode":4}]}],"nodes":[{"name":"Espurr","mesh":0}],"samplers":[{"wrapS":10497,"wrapT":10497}],"scene":0,"scenes":[{"nodes":[0]}],"textures":[{"name":"pm0733_00_Body1","sampler":0,"source":0},{"name":"pm0733_00_Eye1","sampler":0,"source":1},{"name":"pm0733_00_Mouth1","sampler":0,"source":2},{"name":"pm0733_00_Iris1","sampler":0,"source":3}]}