{"accessors":[{"name":"MeowsticFA_1_0_positions","componentType":5126,"count":7932,"min":[-21.559001922607422,-0.00024199999461416155,-54.12300491333008],"max":[21.55900001525879,36.63180160522461,6.17841100692749],"type":"VEC3","bufferView":0,"byteOffset":0},{"name":"MeowsticFA_1_0_normals","componentType":5126,"count":7932,"min":[-0.9732702970504761,-0.9992281198501587,-0.9985583424568176],"max":[0.9732701182365417,0.9999327659606934,0.9999584555625916],"type":"VEC3","bufferView":1,"byteOffset":0},{"name":"MeowsticFA_1_0_texcoords","componentType":5126,"count":7932,"min":[0,-0.9918299913406372],"max":[1,-0.003909999970346689],"type":"VEC2","bufferView":2,"byteOffset":0},{"name":"MeowsticFA_1_0_indices","componentType":5123,"count":7932,"min":[0],"max":[7931],"type":"SCALAR","bufferView":3,"byteOffset":0},{"name":"MeowsticFA_1_1_positions","componentType":5126,"count":8148,"min":[-25.074796676635742,27.50529670715332,-13.677102088928223],"max":[25.07480239868164,75.84870147705078,16.389097213745117],"type":"VEC3","bufferView":0,"byteOffset":95184},{"name":"MeowsticFA_1_1_normals","componentType":5126,"count":8148,"min":[-0.9907214641571045,-0.9997723698616028,-0.9984390139579773],"max":[0.9573607444763184,0.9999327659606934,0.9999584555625916],"type":"VEC3","bufferView":1,"byteOffset":95184},{"name":"MeowsticFA_1_1_texcoords","componentType":5126,"count":8148,"min":[0,0.007052000146359205],"max":[1,0.9916419982910156],"type":"VEC2","bufferView":2,"byteOffset":63456},{"name":"MeowsticFA_1_1_indices","componentType":5123,"count":8148,"min":[0],"max":[8147],"type":"SCALAR","bufferView":3,"byteOffset":15864},{"name":"MeowsticFA_1_2_positions","componentType":5126,"count":120,"min":[-11.860532760620117,37.08408737182617,6.001948833465576],"max":[11.860466957092285,46.74861145019531,13.093897819519043],"type":"VEC3","bufferView":0,"byteOffset":192960},{"name":"MeowsticFA_1_2_normals","componentType":5126,"count":120,"min":[-0.9981041550636292,-0.724035382270813,-0.9919636845588684],"max":[-0.06472603231668472,0.9973203539848328,0.9952779412269592],"type":"VEC3","bufferView":1,"byteOffset":192960},{"name":"MeowsticFA_1_2_texcoords","componentType":5126,"count":120,"min":[0.12165100127458572,-1.9400999546051025],"max":[0.3783490061759949,-1.7935899496078491],"type":"VEC2","bufferView":2,"byteOffset":128640},{"name":"MeowsticFA_1_2_indices","componentType":5123,"count":120,"min":[0],"max":[119],"type":"SCALAR","bufferView":3,"byteOffset":32160},{"name":"MeowsticFA_1_3_positions","componentType":5126,"count":36,"min":[-3.750138998031616,35.77280044555664,7.662022113800049],"max":[3.7501020431518555,40.75951385498047,12.845599174499512],"type":"VEC3","bufferView":0,"byteOffset":194400},{"name":"MeowsticFA_1_3_normals","componentType":5126,"count":36,"min":[-0.9759249091148376,-0.6816281080245972,-0.3337821662425995],"max":[-0.06472603231668472,0.9851015210151672,0.9952779412269592],"type":"VEC3","bufferView":1,"byteOffset":194400},{"name":"MeowsticFA_1_3_texcoords","componentType":5126,"count":36,"min":[0.12696099281311035,-2.9936299324035645],"max":[0.37303999066352844,-2.756459951400757],"type":"VEC2","bufferView":2,"byteOffset":129600},{"name":"MeowsticFA_1_3_indices","componentType":5123,"count":36,"min":[0],"max":[35],"type":"SCALAR","bufferView":3,"byteOffset":32400},{"name":"MeowsticFA_1_4_positions","componentType":5126,"count":120,"min":[-11.989334106445312,36.94218826293945,6.104321002960205],"max":[11.989266395568848,46.7545166015625,13.278197288513184],"type":"VEC3","bufferView":0,"byteOffset":194832},{"name":"MeowsticFA_1_4_normals","componentType":5126,"count":120,"min":[-0.9981041550636292,-0.256264865398407,-0.4967680275440216],"max":[-0.0000029999994239915395,0.9866647124290466,0.6285141110420227],"type":"VEC3","bufferView":1,"byteOffset":194832},{"name":"MeowsticFA_1_4_texcoords","componentType":5126,"count":120,"min":[0.4866040050983429,-1.7604000568389893],"max":[0.9714720249176025,-1.1743600368499756],"type":"VEC2","bufferView":2,"byteOffset":129888},{"name":"MeowsticFA_1_4_indices","componentType":5123,"count":120,"min":[0],"max":[119],"type":"SCALAR","bufferView":3,"byteOffset":32472},{"name":"MeowsticFB_1_0_positions","componentType":5126,"count":120,"min":[-11.989334106445312,36.94218826293945,6.104321002960205],"max":[11.989266395568848,46.7545166015625,13.278197288513184],"type":"VEC3","bufferView":0,"byteOffset":196272},{"name":"MeowsticFB_1_0_normals","componentType":5126,"count":120,"min":[-0.9801967144012451,-0.15969794988632202,0.021799996495246887],"max":[-0.000003000000106112566,0.9711638689041138,0.43702802062034607],"type":"VEC3","bufferView":1,"byteOffset":196272},{"name":"MeowsticFB_1_0_texcoords","componentType":5126,"count":120,"min":[0.4866040050983429,-1.7604000568389893],"max":[0.9714720249176025,-1.1743600368499756],"type":"VEC2","bufferView":2,"byteOffset":130848},{"name":"MeowsticFB_1_0_indices","componentType":5123,"count":120,"min":[0],"max":[119],"type":"SCALAR","bufferView":3,"byteOffset":32712},{"name":"MeowsticFB_1_1_positions","componentType":5126,"count":7932,"min":[-21.559001922607422,-0.00024199999461416155,-54.12300491333008],"max":[21.55900001525879,36.63180160522461,6.17841100692749],"type":"VEC3","bufferView":0,"byteOffset":197712},{"name":"MeowsticFB_1_1_normals","componentType":5126,"count":7932,"min":[-0.9732702970504761,-0.9992281198501587,-0.9985583424568176],"max":[0.9732701182365417,0.9999327659606934,0.9999584555625916],"type":"VEC3","bufferView":1,"byteOffset":197712},{"name":"MeowsticFB_1_1_texcoords","componentType":5126,"count":7932,"min":[0,-0.9918299913406372],"max":[1,-0.003909999970346689],"type":"VEC2","bufferView":2,"byteOffset":131808},{"name":"MeowsticFB_1_1_indices","componentType":5123,"count":7932,"min":[0],"max":[7931],"type":"SCALAR","bufferView":3,"byteOffset":32952},{"name":"MeowsticFB_1_2_positions","componentType":5126,"count":7008,"min":[-28.29630470275879,27.50529670715332,-13.677102088928223],"max":[28.296300888061523,92.8967056274414,16.389097213745117],"type":"VEC3","bufferView":0,"byteOffset":292896},{"name":"MeowsticFB_1_2_normals","componentType":5126,"count":7008,"min":[-0.9907214045524597,-0.9997723698616028,-0.9984390735626221],"max":[0.9573607444763184,0.9999327659606934,0.9999584555625916],"type":"VEC3","bufferView":1,"byteOffset":292896},{"name":"MeowsticFB_1_2_texcoords","componentType":5126,"count":7008,"min":[0,0.007052000146359205],"max":[1,0.9916419982910156],"type":"VEC2","bufferView":2,"byteOffset":195264},{"name":"MeowsticFB_1_2_indices","componentType":5123,"count":7008,"min":[0],"max":[7007],"type":"SCALAR","bufferView":3,"byteOffset":48816},{"name":"MeowsticFB_1_3_positions","componentType":5126,"count":360,"min":[-25.6538028717041,37.08408737182617,1.1041979789733887],"max":[25.653799057006836,88.48381042480469,13.093897819519043],"type":"VEC3","bufferView":0,"byteOffset":376992},{"name":"MeowsticFB_1_3_normals","componentType":5126,"count":360,"min":[-0.9801971912384033,-0.9992282390594482,-0.9946861863136292],"max":[-0.018891995772719383,0.9990954995155334,0.9989862442016602],"type":"VEC3","bufferView":1,"byteOffset":376992},{"name":"MeowsticFB_1_3_texcoords","componentType":5126,"count":360,"min":[0.005735999904572964,-1.9949400424957275],"max":[0.49426400661468506,-1.7549400329589844],"type":"VEC2","bufferView":2,"byteOffset":251328},{"name":"MeowsticFB_1_3_indices","componentType":5123,"count":360,"min":[0],"max":[359],"type":"SCALAR","bufferView":3,"byteOffset":62832},{"name":"MeowsticFB_1_4_positions","componentType":5126,"count":36,"min":[-3.7501399517059326,35.77280044555664,7.662022113800049],"max":[3.7500998973846436,40.75951385498047,12.845599174499512],"type":"VEC3","bufferView":0,"byteOffset":381312},{"name":"MeowsticFB_1_4_normals","componentType":5126,"count":36,"min":[-0.7359323501586914,-0.7311809062957764,-0.6782631874084473],"max":[-0.08452298492193222,0.8589472770690918,0.9963178038597107],"type":"VEC3","bufferView":1,"byteOffset":381312},{"name":"MeowsticFB_1_4_texcoords","componentType":5126,"count":36,"min":[0.12696099281311035,-2.9936299324035645],"max":[0.37303999066352844,-2.756459951400757],"type":"VEC2","bufferView":2,"byteOffset":254208},{"name":"MeowsticFB_1_4_indices","componentType":5123,"count":36,"min":[0],"max":[35],"type":"SCALAR","bufferView":3,"byteOffset":63552},{"name":"MeowsticFC_1_0_positions","componentType":5126,"count":120,"min":[-11.989334106445312,36.94218826293945,6.104321002960205],"max":[11.989266395568848,46.7545166015625,13.278197288513184],"type":"VEC3","bufferView":0,"byteOffset":381744},{"name":"MeowsticFC_1_0_normals","componentType":5126,"count":120,"min":[-0.9801967144012451,-0.15969794988632202,0.021799996495246887],"max":[-0.000003000000106112566,0.9711638689041138,0.43702802062034607],"type":"VEC3","bufferView":1,"byteOffset":381744},{"name":"MeowsticFC_1_0_texcoords","componentType":5126,"count":120,"min":[0.4866040050983429,-1.7604000568389893],"max":[0.9714720249176025,-1.1743600368499756],"type":"VEC2","bufferView":2,"byteOffset":254496},{"name":"MeowsticFC_1_0_indices","componentType":5123,"count":120,"min":[0],"max":[119],"type":"SCALAR","bufferView":3,"byteOffset":63624},{"name":"MeowsticFC_1_1_positions","componentType":5126,"count":7932,"min":[-21.559001922607422,-0.00024199999461416155,-54.12300491333008],"max":[21.55900001525879,36.63180160522461,6.17841100692749],"type":"VEC3","bufferView":0,"byteOffset":383184},{"name":"MeowsticFC_1_1_normals","componentType":5126,"count":7932,"min":[-0.9732702970504761,-0.9992281198501587,-0.9985583424568176],"max":[0.9732701182365417,0.9999327659606934,0.9999584555625916],"type":"VEC3","bufferView":1,"byteOffset":383184},{"name":"MeowsticFC_1_1_texcoords","componentType":5126,"count":7932,"min":[0,-0.9918299913406372],"max":[1,-0.003909999970346689],"type":"VEC2","bufferView":2,"byteOffset":255456},{"name":"MeowsticFC_1_1_indices","componentType":5123,"count":7932,"min":[0],"max":[7931],"type":"SCALAR","bufferView":3,"byteOffset":63864},{"name":"MeowsticFC_1_2_positions","componentType":5126,"count":7008,"min":[-28.29630470275879,27.50529670715332,-13.677102088928223],"max":[28.296300888061523,92.8967056274414,16.389097213745117],"type":"VEC3","bufferView":0,"byteOffset":478368},{"name":"MeowsticFC_1_2_normals","componentType":5126,"count":7008,"min":[-0.9907214045524597,-0.9997723698616028,-0.9984390735626221],"max":[0.9573607444763184,0.9999327659606934,0.9999584555625916],"type":"VEC3","bufferView":1,"byteOffset":478368},{"name":"MeowsticFC_1_2_texcoords","componentType":5126,"count":7008,"min":[0,0.007052000146359205],"max":[1,0.9916419982910156],"type":"VEC2","bufferView":2,"byteOffset":318912},{"name":"MeowsticFC_1_2_indices","componentType":5123,"count":7008,"min":[0],"max":[7007],"type":"SCALAR","bufferView":3,"byteOffset":79728},{"name":"MeowsticFC_1_3_positions","componentType":5126,"count":240,"min":[-25.6538028717041,67.33618927001953,1.1041979789733887],"max":[25.653799057006836,88.48381042480469,2.085900068283081],"type":"VEC3","bufferView":0,"byteOffset":562464},{"name":"MeowsticFC_1_3_normals","componentType":5126,"count":240,"min":[-0.9801971912384033,-0.7240350842475891,-0.9725736379623413],"max":[-0.018891995772719383,0.9990954995155334,0.9952779412269592],"type":"VEC3","bufferView":1,"byteOffset":562464},{"name":"MeowsticFC_1_3_texcoords","componentType":5126,"count":240,"min":[0.011471999809145927,-1.9797600507736206],"max":[0.9885280132293701,-1.019760012626648],"type":"VEC2","bufferView":2,"byteOffset":374976},{"name":"MeowsticFC_1_3_indices","componentType":5123,"count":240,"min":[0],"max":[239],"type":"SCALAR","bufferView":3,"byteOffset":93744},{"name":"MeowsticFC_1_4_positions","componentType":5126,"count":120,"min":[-11.860533714294434,37.08408737182617,6.001948833465576],"max":[11.860466003417969,46.74861526489258,13.093897819519043],"type":"VEC3","bufferView":0,"byteOffset":565344},{"name":"MeowsticFC_1_4_normals","componentType":5126,"count":120,"min":[-0.7359323501586914,-0.9992282390594482,-0.9946861863136292],"max":[-0.032815009355545044,0.8912969827651978,0.9989862442016602],"type":"VEC3","bufferView":1,"byteOffset":565344},{"name":"MeowsticFC_1_4_texcoords","componentType":5126,"count":120,"min":[0.12165100127458572,-1.9400999546051025],"max":[0.3783490061759949,-1.7935899496078491],"type":"VEC2","bufferView":2,"byteOffset":376896},{"name":"MeowsticFC_1_4_indices","componentType":5123,"count":120,"min":[0],"max":[119],"type":"SCALAR","bufferView":3,"byteOffset":94224},{"name":"MeowsticFC_1_5_positions","componentType":5126,"count":36,"min":[-3.7501399517059326,35.77280044555664,7.662022113800049],"max":[3.7500998973846436,40.75951385498047,12.845599174499512],"type":"VEC3","bufferView":0,"byteOffset":566784},{"name":"MeowsticFC_1_5_normals","componentType":5126,"count":36,"min":[-0.7359323501586914,-0.7311809062957764,-0.6782631874084473],"max":[-0.08452298492193222,0.8589472770690918,0.9963178038597107],"type":"VEC3","bufferView":1,"byteOffset":566784},{"name":"MeowsticFC_1_5_texcoords","componentType":5126,"count":36,"min":[0.12696099281311035,-2.9936299324035645],"max":[0.37303999066352844,-2.756459951400757],"type":"VEC2","bufferView":2,"byteOffset":377856},{"name":"MeowsticFC_1_5_indices","componentType":5123,"count":36,"min":[0],"max":[35],"type":"SCALAR","bufferView":3,"byteOffset":94464}],"asset":{"generator":"obj2gltf","version":"2.0"},"buffers":[{"name":"XY_MeowsticF","byteLength":1673204,"uri":"data:application/octet-stream;base64,"}],"bufferViews":[{"name":"bufferView_0","buffer":0,"byteLength":567216,"byteOffset":0,"byteStride":12,"target":34962},{"name":"bufferView_1","buffer":0,"byteLength":567216,"byteOffset":567216,"byteStride":12,"target":34962},{"name":"bufferView_2","buffer":0,"byteLength":378144,"byteOffset":1134432,"byteStride":8,"target":34962},{"name":"bufferView_3","buffer":0,"byteLength":94536,"byteOffset":1512576,"target":34963},{"buffer":0,"byteOffset":1607112,"byteLength":15142},{"buffer":0,"byteOffset":1622254,"byteLength":12773},{"buffer":0,"byteOffset":1635027,"byteLength":26334},{"buffer":0,"byteOffset":1661361,"byteLength":2788},{"buffer":0,"byteOffset":1664149,"byteLength":793},{"buffer":0,"byteOffset":1664942,"byteLength":8260}],"images":[{"name":"pm0734_01_BodyB1","mimeType":"image/png","bufferView":4},{"name":"pm0734_01_BodyA1","mimeType":"image/png","bufferView":5},{"name":"pm0734_01_EyeA1","mimeType":"image/png","bufferView":6},{"name":"pm0734_01_Mouth1","mimeType":"image/png","bufferView":7},{"name":"pm0734_01_Iris1","mimeType":"image/png","bufferView":8},{"name":"pm0734_01_EyeB1","mimeType":"image/png","bufferView":9}],"materials":[{"name":"Material__130","pbrMetallicRoughness":{"baseColorTexture":{"index":0},"baseColorFactor":[1,1,1,1],"metallicFactor":0,"roughnessFactor":0.998},"emissiveFactor":[0,0,0],"alphaMode":"OPAQUE","doubleSided":false},{"name":"Material__131","pbrMetallicRoughness":{"baseColorTexture":{"index":1},"baseColorFactor":[1,1,1,1],"metallicFactor":0,"roughnessFactor":0.998},"emissiveFactor":[0,0,0],"alphaMode":"OPAQUE","doubleSided":false},{"name":"Material__132","pbrMetallicRoughness":{"baseColorTexture":{"index":2},"baseColorFactor":[1,1,1,1],"metallicFactor":0,"roughnessFactor":0.998},"emissiveFactor":[0,0,0],"alphaMode":"OPAQUE","doubleSided":false},{"name":"Material__133","pbrMetallicRoughness":{"baseColorTexture":{"index":3},"baseColorFactor":[1,1,1,1],"metallicFactor":0,"roughnessFactor":0.998},"emissiveFactor":[0,0,0],"alphaMode":"OPAQUE","doubleSided":false},{"name":"Material__134","pbrMetallicRoughness":{"baseColorTexture":{"index":4},"baseColorFactor":[1,1,1,1],"metallicFactor":0,"roughnessFactor":0.998},"emissiveFactor":[0,0,0],"alphaMode":"OPAQUE","doubleSided":false},{"name":"Material__135","pbrMetallicRoughness":{"baseColorTexture":{"index":5},"baseColorFactor":[1,1,1,1],"metallicFactor":0,"roughnessFactor":0.998},"emissiveFactor":[0,0,0],"alphaMode":"OPAQUE","doubleSided":false}],"meshes":[{"name":"MeowsticFA_1","primitives":[{"attributes":{"POSITION":0,"NORMAL":1,"TEXCOORD_0":2},"indices":3,"material":0,"mode":4},{"attributes":{"POSITION":4,"NORMAL":5,"TEXCOORD_0":6},"indices":7,"material":1,"mode":4},{"attributes":{"POSITION":8,"NORMAL":9,"TEXCOORD_0":10},"indices":11,"material":2,"mode":4},{"attributes":{"POSITION":12,"NORMAL":13,"TEXCOORD_0":14},"indices":15,"material":3,"mode":4},{"attributes":{"POSITION":16,"NORMAL":17,"TEXCOORD_0":18},"indices":19,"material":4,"mode":4}]},{"name":"MeowsticFB_1","primitives":[{"attributes":{"POSITION":20,"NORMAL":21,"TEXCOORD_0":22},"indices":23,"material":4,"mode":4},{"attributes":{"POSITION":24,"NORMAL":25,"TEXCOORD_0":26},"indices":27,"material":0,"mode":4},{"attributes":{"POSITION":28,"NORMAL":29,"TEXCOORD_0":30},"indices":31,"material":1,"mode":4},{"attributes":{"POSITION":32,"NORMAL":33,"TEXCOORD_0":34},"indices":35,"material":2,"mode":4},{"attributes":{"POSITION":36,"NORMAL":37,"TEXCOORD_0":38},"indices":39,"material":3,"mode":4}]},{"name":"MeowsticFC_1","primitives":[{"attributes":{"POSITION":40,"NORMAL":41,"TEXCOORD_0":42},"indices":43,"material":4,"mode":4},{"attributes":{"POSITION":44,"NORMAL":45,"TEXCOORD_0":46},"indices":47,"material":0,"mode":4},{"attributes":{"POSITION":48,"NORMAL":49,"TEXCOORD_0":50},"indices":51,"material":1,"mode":4},{"attributes":{"POSITION":52,"NORMAL":53,"TEXCOORD_0":54},"indices":55,"material":5,"mode":4},{"attributes":{"POSITION":56,"NORMAL":57,"TEXCOORD_0":58},"indices":59,"material":2,"mode":4},{"attributes":{"POSITION":60,"NORMAL":61,"TEXCOORD_0":62},"indices":63,"material":3,"mode":4}]}],"nodes":[{"name":"MeowsticFA","mesh":0},{"name":"MeowsticFB","mesh":1},{"name":"MeowsticFC","mesh":2}],"samplers":[{"wrapS":10497,"wrapT":10497}],"scene":0,"scenes":[{"nodes":[0,1,2]}],"textures":[{"name":"pm0734_01_BodyB1","sampler":0,"source":0},{"name":"pm0734_01_BodyA1","sampler":0,"source":1},{"name":"pm0734_01_EyeA1","sampler":0,"source":2},{"name":"pm0734_01_Mouth1","sampler":0,"source":3},{"name":"pm0734_01_Iris1","sampler":0,"source":4},{"name":"pm0734_01_EyeB1","sampler":0,"source":5}]}