{"accessors":[{"name":"Honedge_1_0_positions","componentType":5126,"count":11472,"min":[-17.672237396240234,-9.999999974752427e-7,-3.871903896331787],"max":[17.67236328125,184.25599670410156,5.330226898193359],"type":"VEC3","bufferView":0,"byteOffset":0},{"name":"Honedge_1_0_normals","componentType":5126,"count":11472,"min":[-0.9999985694885254,-1,-1],"max":[0.9999985694885254,1,1],"type":"VEC3","bufferView":1,"byteOffset":0},{"name":"Honedge_1_0_texcoords","componentType":5126,"count":11472,"min":[0,0.006624000146985054],"max":[1,0.9921870231628418],"type":"VEC2","bufferView":2,"byteOffset":0},{"name":"Honedge_1_0_indices","componentType":5123,"count":11472,"min":[0],"max":[11471],"type":"SCALAR","bufferView":3,"byteOffset":0},{"name":"Honedge_1_1_positions","componentType":5126,"count":192,"min":[-2.6309518814086914,56.71620178222656,4.211513996124268],"max":[2.630798101425171,61.97800064086914,4.952622890472412],"type":"VEC3","bufferView":0,"byteOffset":137664},{"name":"Honedge_1_1_normals","componentType":5126,"count":192,"min":[-0.998625636100769,-0.18166103959083557,-0.7068119049072266],"max":[0.0000010000002248489182,1,0.9833611845970154],"type":"VEC3","bufferView":1,"byteOffset":137664},{"name":"Honedge_1_1_texcoords","componentType":5126,"count":192,"min":[0.011439000256359577,-0.9942600131034851],"max":[0.1760610044002533,-0.9119899868965149],"type":"VEC2","bufferView":2,"byteOffset":91776},{"name":"Honedge_1_1_indices","componentType":5123,"count":192,"min":[0],"max":[191],"type":"SCALAR","bufferView":3,"byteOffset":22944},{"name":"HonedgeSword_1_0_positions","componentType":5126,"count":5232,"min":[-17.672237396240234,-2.8376500606536865,-3.871903896331787],"max":[17.67236328125,184.25599670410156,3.8719000816345215],"type":"VEC3","bufferView":0,"byteOffset":139968},{"name":"HonedgeSword_1_0_normals","componentType":5126,"count":5232,"min":[-1,-1,-1],"max":[0.9999985694885254,1,0.9999992251396179],"type":"VEC3","bufferView":1,"byteOffset":139968},{"name":"HonedgeSword_1_0_texcoords","componentType":5126,"count":5232,"min":[0,0.007187000010162592],"max":[1,0.9921870231628418],"type":"VEC2","bufferView":2,"byteOffset":93312},{"name":"HonedgeSword_1_0_indices","componentType":5123,"count":5232,"min":[0],"max":[5231],"type":"SCALAR","bufferView":3,"byteOffset":23328},{"name":"HonedgeSword_1_1_positions","componentType":5126,"count":288,"min":[-5.361999034881592,50.827701568603516,3.1343109607696533],"max":[5.362101078033447,61.54330062866211,5.146194934844971],"type":"VEC3","bufferView":0,"byteOffset":202752},{"name":"HonedgeSword_1_1_normals","componentType":5126,"count":288,"min":[-0.9465309381484985,-1,-1],"max":[1,0.000003999999989900971,0],"type":"VEC3","bufferView":1,"byteOffset":202752},{"name":"HonedgeSword_1_1_texcoords","componentType":5126,"count":288,"min":[0.12384700030088425,-0.937969982624054],"max":[0.4855250120162964,-0.7573400139808655],"type":"VEC2","bufferView":2,"byteOffset":135168},{"name":"HonedgeSword_1_1_indices","componentType":5123,"count":288,"min":[0],"max":[287],"type":"SCALAR","bufferView":3,"byteOffset":33792},{"name":"HonedgeSheath_1_0_positions","componentType":5126,"count":6510,"min":[-12.666936874389648,-9.999999974752427e-7,-3.734002113342285],"max":[12.666861534118652,66.31069946289062,5.330226898193359],"type":"VEC3","bufferView":0,"byteOffset":206208},{"name":"HonedgeSheath_1_0_normals","componentType":5126,"count":6510,"min":[-0.9982184767723083,-0.9305073618888855,-0.7537757158279419],"max":[0.9982180595397949,0.9999995827674866,1],"type":"VEC3","bufferView":1,"byteOffset":206208},{"name":"HonedgeSheath_1_0_texcoords","componentType":5126,"count":6510,"min":[0.008256999775767326,0.0078119998797774315],"max":[0.9911010265350342,0.9921870231628418],"type":"VEC2","bufferView":2,"byteOffset":137472},{"name":"HonedgeSheath_1_0_indices","componentType":5123,"count":6510,"min":[0],"max":[6509],"type":"SCALAR","bufferView":3,"byteOffset":34368}],"asset":{"generator":"obj2gltf","version":"2.0"},"buffers":[{"name":"XY_Honedge","byteLength":891972,"uri":"data:application/octet-stream;base64,"}],"bufferViews":[{"name":"bufferView_0","buffer":0,"byteLength":284328,"byteOffset":0,"byteStride":12,"target":34962},{"name":"bufferView_1","buffer":0,"byteLength":284328,"byteOffset":284328,"byteStride":12,"target":34962},{"name":"bufferView_2","buffer":0,"byteLength":189552,"byteOffset":568656,"byteStride":8,"target":34962},{"name":"bufferView_3","buffer":0,"byteLength":47388,"byteOffset":758208,"target":34963},{"buffer":0,"byteOffset":805596,"byteLength":68584},{"buffer":0,"byteOffset":874180,"byteLength":17791}],"images":[{"name":"pm0744_00_Body1","mimeType":"image/png","bufferView":4},{"name":"pm0744_00_Eye1","mimeType":"image/png","bufferView":5}],"materials":[{"name":"Material__59","pbrMetallicRoughness":{"baseColorTexture":{"index":0},"baseColorFactor":[1,1,1,1],"metallicFactor":0,"roughnessFactor":0.998},"emissiveFactor":[0,0,0],"alphaMode":"OPAQUE","doubleSided":false},{"name":"Material__60","pbrMetallicRoughness":{"baseColorTexture":{"index":1},"baseColorFactor":[1,1,1,1],"metallicFactor":0,"roughnessFactor":0.998},"emissiveFactor":[0,0,0],"alphaMode":"OPAQUE","doubleSided":false}],"meshes":[{"name":"Honedge_1","primitives":[{"attributes":{"POSITION":0,"NORMAL":1,"TEXCOORD_0":2},"indices":3,"material":0,"mode":4},{"attributes":{"POSITION":4,"NORMAL":5,"TEXCOORD_0":6},"indices":7,"material":1,"mode":4}]},{"name":"HonedgeSword_1","primitives":[{"attributes":{"POSITION":8,"NORMAL":9,"TEXCOORD_0":10},"indices":11,"material":0,"mode":4},{"attributes":{"POSITION":12,"NORMAL":13,"TEXCOORD_0":14},"indices":15,"material":1,"mode":4}]},{"name":"HonedgeSheath_1","primitives":[{"attributes":{"POSITION":16,"NORMAL":17,"TEXCOORD_0":18},"indices":19,"material":0,"mode":4}]}],"nodes":[{"name":"Honedge","mesh":0},{"name":"HonedgeSword","mesh":1},{"name":"HonedgeSheath","mesh":2}],"samplers":[{"wrapS":10497,"wrapT":10497}],"scene":0,"scenes":[{"nodes":[0,1,2]}],"textures":[{"name":"pm0744_00_Body1","sampler":0,"source":0},{"name":"pm0744_00_Eye1","sampler":0,"source":1}]}