{"accessors":[{"name":"Doublade_1_0_positions","componentType":5126,"count":1176,"min":[-10.791175842285156,0.03158299997448921,-6.498475074768066],"max":[10.79122257232666,47.9203987121582,-3.7295010089874268],"type":"VEC3","bufferView":0,"byteOffset":0},{"name":"Doublade_1_0_normals","componentType":5126,"count":1176,"min":[-0.8366760611534119,-1,-0.697048008441925],"max":[1,1,0.6970480680465698],"type":"VEC3","bufferView":1,"byteOffset":0},{"name":"Doublade_1_0_texcoords","componentType":5126,"count":1176,"min":[0.012140999548137188,-0.9921900033950806],"max":[0.9878590106964111,-0.009229999966919422],"type":"VEC2","bufferView":2,"byteOffset":0},{"name":"Doublade_1_0_indices","componentType":5123,"count":1176,"min":[0],"max":[1175],"type":"SCALAR","bufferView":3,"byteOffset":0},{"name":"DoubladeLeft_1_0_positions","componentType":5126,"count":8970,"min":[-20.836139678955078,9.42953872680664,3.588097095489502],"max":[36.38069534301758,66.64749145507812,12.789996147155762],"type":"VEC3","bufferView":0,"byteOffset":14112},{"name":"DoubladeLeft_1_0_normals","componentType":5126,"count":8970,"min":[-0.9999410510063171,-0.999940812587738,-1],"max":[0.9298459887504578,0.929874062538147,1],"type":"VEC3","bufferView":1,"byteOffset":14112},{"name":"DoubladeLeft_1_0_texcoords","componentType":5126,"count":8970,"min":[0.006988999899476767,-0.9937599897384644],"max":[0.4908500015735626,-0.011719999834895134],"type":"VEC2","bufferView":2,"byteOffset":9408},{"name":"DoubladeLeft_1_0_indices","componentType":5123,"count":8970,"min":[0],"max":[8969],"type":"SCALAR","bufferView":3,"byteOffset":2352},{"name":"DoubladeLeft_1_1_positions","componentType":5126,"count":3150,"min":[5.454619884490967,35.721553802490234,4.367607116699219],"max":[118.39998626708984,148.66600036621094,11.687799453735352],"type":"VEC3","bufferView":0,"byteOffset":121752},{"name":"DoubladeLeft_1_1_normals","componentType":5126,"count":3150,"min":[-0.9996278285980225,-0.9997559785842896,-0.9999992251396179],"max":[0.9988621473312378,0.9995925426483154,0.9999992251396179],"type":"VEC3","bufferView":1,"byteOffset":121752},{"name":"DoubladeLeft_1_1_texcoords","componentType":5126,"count":3150,"min":[0.014344999566674232,0.007584000006318092],"max":[0.4882810115814209,0.9660339951515198],"type":"VEC2","bufferView":2,"byteOffset":81168},{"name":"DoubladeLeft_1_1_indices","componentType":5123,"count":3150,"min":[0],"max":[3149],"type":"SCALAR","bufferView":3,"byteOffset":20292},{"name":"DoubladeLeft_1_2_positions","componentType":5126,"count":192,"min":[18.748220443725586,49.01528549194336,11.671292304992676],"max":[24.010019302368164,54.27708435058594,12.412396430969238],"type":"VEC3","bufferView":0,"byteOffset":159552},{"name":"DoubladeLeft_1_2_normals","componentType":5126,"count":192,"min":[-0.8205950856208801,-0.6690970659255981,-0.7068150043487549],"max":[0.9820098280906677,0.9551088809967041,0.9986777305603027],"type":"VEC3","bufferView":1,"byteOffset":159552},{"name":"DoubladeLeft_1_2_texcoords","componentType":5126,"count":192,"min":[0.00571999978274107,-1.9942599534988403],"max":[0.08803000301122665,-1.9119900465011597],"type":"VEC2","bufferView":2,"byteOffset":106368},{"name":"DoubladeLeft_1_2_indices","componentType":5123,"count":192,"min":[0],"max":[191],"type":"SCALAR","bufferView":3,"byteOffset":26592},{"name":"DoubladeLeftSword_1_0_positions","componentType":5126,"count":2412,"min":[3.939729928970337,25.42709732055664,3.588097095489502],"max":[36.38069534301758,66.64749145507812,11.331901550292969],"type":"VEC3","bufferView":0,"byteOffset":161856},{"name":"DoubladeLeftSword_1_0_normals","componentType":5126,"count":2412,"min":[-0.9988651871681213,-0.9988650679588318,-1],"max":[0.9298459887504578,0.929874062538147,1],"type":"VEC3","bufferView":1,"byteOffset":161856},{"name":"DoubladeLeftSword_1_0_texcoords","componentType":5126,"count":2412,"min":[0.2607179880142212,-0.9937599897384644],"max":[0.4908500015735626,-0.011719999834895134],"type":"VEC2","bufferView":2,"byteOffset":107904},{"name":"DoubladeLeftSword_1_0_indices","componentType":5123,"count":2412,"min":[0],"max":[2411],"type":"SCALAR","bufferView":3,"byteOffset":26976},{"name":"DoubladeLeftSword_1_1_positions","componentType":5126,"count":3420,"min":[-22.591997146606445,7.6748270988464355,4.367607116699219],"max":[118.39998626708984,148.66600036621094,10.551902770996094],"type":"VEC3","bufferView":0,"byteOffset":190800},{"name":"DoubladeLeftSword_1_1_normals","componentType":5126,"count":3420,"min":[-0.9999410510063171,-0.999940812587738,-1],"max":[0.9298459887504578,0.929874062538147,1],"type":"VEC3","bufferView":1,"byteOffset":190800},{"name":"DoubladeLeftSword_1_1_texcoords","componentType":5126,"count":3420,"min":[0.011281000450253487,0.007584000006318092],"max":[0.4907110035419464,0.9912930130958557],"type":"VEC2","bufferView":2,"byteOffset":127200},{"name":"DoubladeLeftSword_1_1_indices","componentType":5123,"count":3420,"min":[0],"max":[3419],"type":"SCALAR","bufferView":3,"byteOffset":31800},{"name":"DoubladeLeftSword_1_2_positions","componentType":5126,"count":288,"min":[13.776000022888184,44.04289627075195,10.594097137451172],"max":[24.511198043823242,54.77809524536133,12.605899810791016],"type":"VEC3","bufferView":0,"byteOffset":231840},{"name":"DoubladeLeftSword_1_2_normals","componentType":5126,"count":288,"min":[-0.709816038608551,-0.7678607702255249,-0.9999992251396179],"max":[0.8184384107589722,0.7059152722358704,0.9999992251396179],"type":"VEC3","bufferView":1,"byteOffset":231840},{"name":"DoubladeLeftSword_1_2_texcoords","componentType":5126,"count":288,"min":[0.06192399933934212,-1.9379700422286987],"max":[0.2427629977464676,-1.7573399543762207],"type":"VEC2","bufferView":2,"byteOffset":154560},{"name":"DoubladeLeftSword_1_2_indices","componentType":5123,"count":288,"min":[0],"max":[287],"type":"SCALAR","bufferView":3,"byteOffset":38640},{"name":"DoubladeLeftSheath_1_0_positions","componentType":5126,"count":6558,"min":[-20.836139678955078,9.42953872680664,3.7303431034088135],"max":[28.12091827392578,58.38798522949219,12.789996147155762],"type":"VEC3","bufferView":0,"byteOffset":235296},{"name":"DoubladeLeftSheath_1_0_normals","componentType":5126,"count":6558,"min":[-0.9305699467658997,-0.9305670857429504,-0.753791868686676],"max":[0.930407702922821,0.9304052591323853,0.9068540334701538],"type":"VEC3","bufferView":1,"byteOffset":235296},{"name":"DoubladeLeftSheath_1_0_texcoords","componentType":5126,"count":6558,"min":[0.006988999899476767,-0.8073899745941162],"max":[0.4453130066394806,-0.011719999834895134],"type":"VEC2","bufferView":2,"byteOffset":156864},{"name":"DoubladeLeftSheath_1_0_indices","componentType":5123,"count":6558,"min":[0],"max":[6557],"type":"SCALAR","bufferView":3,"byteOffset":39216},{"name":"DoubladeRight_1_0_positions","componentType":5126,"count":8970,"min":[-36.380699157714844,9.429659843444824,-3.871898889541626],"max":[20.836261749267578,66.64749908447266,5.330225944519043],"type":"VEC3","bufferView":0,"byteOffset":313992},{"name":"DoubladeRight_1_0_normals","componentType":5126,"count":8970,"min":[-0.9820113182067871,-0.9999407529830933,-0.9999992251396179],"max":[0.9999411106109619,0.9820159673690796,1],"type":"VEC3","bufferView":1,"byteOffset":313992},{"name":"DoubladeRight_1_0_texcoords","componentType":5126,"count":8970,"min":[0.012164000421762466,-0.9937599897384644],"max":[0.9930109977722168,-0.011719999834895134],"type":"VEC2","bufferView":2,"byteOffset":209328},{"name":"DoubladeRight_1_0_indices","componentType":5123,"count":8970,"min":[0],"max":[8969],"type":"SCALAR","bufferView":3,"byteOffset":52332},{"name":"DoubladeRight_1_1_positions","componentType":5126,"count":3150,"min":[-118.40000915527344,35.72145080566406,-3.092139959335327],"max":[-5.4547200202941895,148.66598510742188,4.228059768676758],"type":"VEC3","bufferView":0,"byteOffset":421632},{"name":"DoubladeRight_1_1_normals","componentType":5126,"count":3150,"min":[-0.9159429669380188,-0.994504988193512,-1],"max":[0.9759902954101562,0.9263659119606018,1],"type":"VEC3","bufferView":1,"byteOffset":421632},{"name":"DoubladeRight_1_1_texcoords","componentType":5126,"count":3150,"min":[0.5117189884185791,0.007584000006318092],"max":[0.9856550097465515,0.9660339951515198],"type":"VEC2","bufferView":2,"byteOffset":281088},{"name":"DoubladeRight_1_1_indices","componentType":5123,"count":3150,"min":[0],"max":[3149],"type":"SCALAR","bufferView":3,"byteOffset":70272},{"name":"DoubladeRight_1_2_positions","componentType":5126,"count":192,"min":[-24.01017951965332,49.01512145996094,4.211513996124268],"max":[-18.74847984313965,54.276920318603516,4.952621936798096],"type":"VEC3","bufferView":0,"byteOffset":459432},{"name":"DoubladeRight_1_2_normals","componentType":5126,"count":192,"min":[-0.8456229567527771,-0.9007048606872559,-1],"max":[0.36040401458740234,0.5202026963233948,-0.37578079104423523],"type":"VEC3","bufferView":1,"byteOffset":459432},{"name":"DoubladeRight_1_2_texcoords","componentType":5126,"count":192,"min":[0.41196998953819275,-1.9942599534988403],"max":[0.49428001046180725,-1.9119900465011597],"type":"VEC2","bufferView":2,"byteOffset":306288},{"name":"DoubladeRight_1_2_indices","componentType":5123,"count":192,"min":[0],"max":[191],"type":"SCALAR","bufferView":3,"byteOffset":76572},{"name":"DoubladeRightSword_1_0_positions","componentType":5126,"count":2412,"min":[-36.380699157714844,25.427101135253906,-3.871898889541626],"max":[-3.939728021621704,66.64749908447266,3.8719019889831543],"type":"VEC3","bufferView":0,"byteOffset":461736},{"name":"DoubladeRightSword_1_0_normals","componentType":5126,"count":2412,"min":[-0.707109272480011,-0.9988650679588318,-1],"max":[0.9988651871681213,0.9263659119606018,1],"type":"VEC3","bufferView":1,"byteOffset":461736},{"name":"DoubladeRightSword_1_0_texcoords","componentType":5126,"count":2412,"min":[0.5091500282287598,-0.9937599897384644],"max":[0.7392820119857788,-0.011719999834895134],"type":"VEC2","bufferView":2,"byteOffset":307824},{"name":"DoubladeRightSword_1_0_indices","componentType":5123,"count":2412,"min":[0],"max":[2411],"type":"SCALAR","bufferView":3,"byteOffset":76956},{"name":"DoubladeRightSword_1_1_positions","componentType":5126,"count":3420,"min":[-118.40000915527344,7.674830913543701,-3.092139959335327],"max":[22.591999053955078,148.66598510742188,3.092139959335327],"type":"VEC3","bufferView":0,"byteOffset":490680},{"name":"DoubladeRightSword_1_1_normals","componentType":5126,"count":3420,"min":[-0.9159139394760132,-0.9988650679588318,-1],"max":[0.9988651871681213,0.9089462161064148,1],"type":"VEC3","bufferView":1,"byteOffset":490680},{"name":"DoubladeRightSword_1_1_texcoords","componentType":5126,"count":3420,"min":[0.509289026260376,0.007584000006318092],"max":[0.9887179732322693,0.9912930130958557],"type":"VEC2","bufferView":2,"byteOffset":327120},{"name":"DoubladeRightSword_1_1_indices","componentType":5123,"count":3420,"min":[0],"max":[3419],"type":"SCALAR","bufferView":3,"byteOffset":81780},{"name":"DoubladeRightSword_1_2_positions","componentType":5126,"count":288,"min":[-24.511198043823242,44.04290008544922,3.1343119144439697],"max":[-13.77599811553955,54.778099060058594,5.146191120147705],"type":"VEC3","bufferView":0,"byteOffset":531720},{"name":"DoubladeRightSword_1_2_normals","componentType":5126,"count":288,"min":[-0.8703891634941101,-0.6176469922065735,0.34504905343055725],"max":[0.9286591410636902,-0.13613702356815338,0.9777445793151855],"type":"VEC3","bufferView":1,"byteOffset":531720},{"name":"DoubladeRightSword_1_2_texcoords","componentType":5126,"count":288,"min":[0.2572399973869324,-1.9379700422286987],"max":[0.4380800127983093,-1.7573399543762207],"type":"VEC2","bufferView":2,"byteOffset":354480},{"name":"DoubladeRightSword_1_2_indices","componentType":5123,"count":288,"min":[0],"max":[287],"type":"SCALAR","bufferView":3,"byteOffset":88620},{"name":"DoubladeRightSheath_1_0_positions","componentType":5126,"count":6558,"min":[-28.121082305908203,9.429659843444824,-3.729414939880371],"max":[20.836261749267578,58.387821197509766,5.330225944519043],"type":"VEC3","bufferView":0,"byteOffset":535176},{"name":"DoubladeRightSheath_1_0_normals","componentType":5126,"count":6558,"min":[-0.9304119944572449,-0.9305707216262817,-0.7537920475006104],"max":[0.9305722117424011,0.9304091930389404,0.9068495631217957],"type":"VEC3","bufferView":1,"byteOffset":535176},{"name":"DoubladeRightSheath_1_0_texcoords","componentType":5126,"count":6558,"min":[0.012164000421762466,-0.9558299779891968],"max":[0.9930109977722168,-0.011719999834895134],"type":"VEC2","bufferView":2,"byteOffset":356784},{"name":"DoubladeRightSheath_1_0_indices","componentType":5123,"count":6558,"min":[0],"max":[6557],"type":"SCALAR","bufferView":3,"byteOffset":89196}],"asset":{"generator":"obj2gltf","version":"2.0"},"buffers":[{"name":"XY_Doublade","byteLength":1859952,"uri":"data:application/octet-stream;base64,"}],"bufferViews":[{"name":"bufferView_0","buffer":0,"byteLength":613872,"byteOffset":0,"byteStride":12,"target":34962},{"name":"bufferView_1","buffer":0,"byteLength":613872,"byteOffset":613872,"byteStride":12,"target":34962},{"name":"bufferView_2","buffer":0,"byteLength":409248,"byteOffset":1227744,"byteStride":8,"target":34962},{"name":"bufferView_3","buffer":0,"byteLength":102312,"byteOffset":1636992,"target":34963},{"buffer":0,"byteOffset":1739304,"byteLength":51544},{"buffer":0,"byteOffset":1790848,"byteLength":30845},{"buffer":0,"byteOffset":1821693,"byteLength":38256}],"images":[{"name":"pm0745_00_BodyB1","mimeType":"image/png","bufferView":4},{"name":"pm0745_00_BodyA1","mimeType":"image/png","bufferView":5},{"name":"pm0745_00_Eye1","mimeType":"image/png","bufferView":6}],"materials":[{"name":"Material__72","pbrMetallicRoughness":{"baseColorTexture":{"index":0},"baseColorFactor":[1,1,1,1],"metallicFactor":0,"roughnessFactor":0.998},"emissiveFactor":[0,0,0],"alphaMode":"OPAQUE","doubleSided":false},{"name":"Material__71","pbrMetallicRoughness":{"baseColorTexture":{"index":1},"baseColorFactor":[1,1,1,1],"metallicFactor":0,"roughnessFactor":0.998},"emissiveFactor":[0,0,0],"alphaMode":"OPAQUE","doubleSided":false},{"name":"Material__73","pbrMetallicRoughness":{"baseColorTexture":{"index":2},"baseColorFactor":[1,1,1,1],"metallicFactor":0,"roughnessFactor":0.998},"emissiveFactor":[0,0,0],"alphaMode":"OPAQUE","doubleSided":false}],"meshes":[{"name":"Doublade_1","primitives":[{"attributes":{"POSITION":0,"NORMAL":1,"TEXCOORD_0":2},"indices":3,"material":0,"mode":4}]},{"name":"DoubladeLeft_1","primitives":[{"attributes":{"POSITION":4,"NORMAL":5,"TEXCOORD_0":6},"indices":7,"material":0,"mode":4},{"attributes":{"POSITION":8,"NORMAL":9,"TEXCOORD_0":10},"indices":11,"material":1,"mode":4},{"attributes":{"POSITION":12,"NORMAL":13,"TEXCOORD_0":14},"indices":15,"material":2,"mode":4}]},{"name":"DoubladeLeftSword_1","primitives":[{"attributes":{"POSITION":16,"NORMAL":17,"TEXCOORD_0":18},"indices":19,"material":0,"mode":4},{"attributes":{"POSITION":20,"NORMAL":21,"TEXCOORD_0":22},"indices":23,"material":1,"mode":4},{"attributes":{"POSITION":24,"NORMAL":25,"TEXCOORD_0":26},"indices":27,"material":2,"mode":4}]},{"name":"DoubladeLeftSheath_1","primitives":[{"attributes":{"POSITION":28,"NORMAL":29,"TEXCOORD_0":30},"indices":31,"material":0,"mode":4}]},{"name":"DoubladeRight_1","primitives":[{"attributes":{"POSITION":32,"NORMAL":33,"TEXCOORD_0":34},"indices":35,"material":0,"mode":4},{"attributes":{"POSITION":36,"NORMAL":37,"TEXCOORD_0":38},"indices":39,"material":1,"mode":4},{"attributes":{"POSITION":40,"NORMAL":41,"TEXCOORD_0":42},"indices":43,"material":2,"mode":4}]},{"name":"DoubladeRightSword_1","primitives":[{"attributes":{"POSITION":44,"NORMAL":45,"TEXCOORD_0":46},"indices":47,"material":0,"mode":4},{"attributes":{"POSITION":48,"NORMAL":49,"TEXCOORD_0":50},"indices":51,"material":1,"mode":4},{"attributes":{"POSITION":52,"NORMAL":53,"TEXCOORD_0":54},"indices":55,"material":2,"mode":4}]},{"name":"DoubladeRightSheath_1","primitives":[{"attributes":{"POSITION":56,"NORMAL":57,"TEXCOORD_0":58},"indices":59,"material":0,"mode":4}]}],"nodes":[{"name":"Doublade","mesh":0},{"name":"DoubladeLeft","mesh":1},{"name":"DoubladeLeftSword","mesh":2},{"name":"DoubladeLeftSheath","mesh":3},{"name":"DoubladeRight","mesh":4},{"name":"DoubladeRightSword","mesh":5},{"name":"DoubladeRightSheath","mesh":6}],"samplers":[{"wrapS":10497,"wrapT":10497}],"scene":0,"scenes":[{"nodes":[0,1,2,3,4,5,6]}],"textures":[{"name":"pm0745_00_BodyB1","sampler":0,"source":0},{"name":"pm0745_00_BodyA1","sampler":0,"source":1},{"name":"pm0745_00_Eye1","sampler":0,"source":2}]}