{"accessors":[{"name":"Aegislash_1_0_positions","componentType":5126,"count":10518,"min":[-184.843017578125,0,-15.330195426940918],"max":[184.843017578125,169.9969940185547,15.330205917358398],"type":"VEC3","bufferView":0,"byteOffset":0},{"name":"Aegislash_1_0_normals","componentType":5126,"count":10518,"min":[-0.9884973764419556,-0.9790931344032288,-0.9884968996047974],"max":[0.9884967803955078,1,0.9884967803955078],"type":"VEC3","bufferView":1,"byteOffset":0},{"name":"Aegislash_1_0_texcoords","componentType":5126,"count":10518,"min":[0.005859000142663717,0.005648000165820122],"max":[0.9941409826278687,0.9921879768371582],"type":"VEC2","bufferView":2,"byteOffset":0},{"name":"Aegislash_1_0_indices","componentType":5123,"count":10518,"min":[0],"max":[10517],"type":"SCALAR","bufferView":3,"byteOffset":0},{"name":"Aegislash_1_1_positions","componentType":5126,"count":132,"min":[-16.682897567749023,99.77780151367188,2.9800119400024414],"max":[16.683103561401367,111.70005798339844,11.446808815002441],"type":"VEC3","bufferView":0,"byteOffset":126216},{"name":"Aegislash_1_1_normals","componentType":5126,"count":132,"min":[-0.9884973764419556,0.15082994103431702,-0.9851220846176147],"max":[-9.999996564147295e-7,0.2636861503124237,0.9884967803955078],"type":"VEC3","bufferView":1,"byteOffset":126216},{"name":"Aegislash_1_1_texcoords","componentType":5126,"count":132,"min":[0.04069399833679199,-1.9579800367355347],"max":[0.45930999517440796,-1.7918100357055664],"type":"VEC2","bufferView":2,"byteOffset":84144},{"name":"Aegislash_1_1_indices","componentType":5123,"count":132,"min":[0],"max":[131],"type":"SCALAR","bufferView":3,"byteOffset":21036},{"name":"AegislashShieldGuard_1_0_positions","componentType":5126,"count":4548,"min":[-35.63690185546875,28.56850242614746,-7.989069938659668],"max":[35.63690185546875,99.78949737548828,20.516895294189453],"type":"VEC3","bufferView":0,"byteOffset":127800},{"name":"AegislashShieldGuard_1_0_normals","componentType":5126,"count":4548,"min":[-0.9409048557281494,-0.9286950826644897,-1],"max":[0.9196562170982361,0.8452684283256531,1],"type":"VEC3","bufferView":1,"byteOffset":127800},{"name":"AegislashShieldGuard_1_0_texcoords","componentType":5126,"count":4548,"min":[0,-0.9921900033950806],"max":[1,-0.00535999983549118],"type":"VEC2","bufferView":2,"byteOffset":85200},{"name":"AegislashShieldGuard_1_0_indices","componentType":5123,"count":4548,"min":[0],"max":[4547],"type":"SCALAR","bufferView":3,"byteOffset":21300},{"name":"AegislashShieldBlade_1_0_positions","componentType":5126,"count":4476,"min":[-35.63690185546875,28.56850242614746,-7.989069938659668],"max":[35.63690185546875,99.78949737548828,20.516895294189453],"type":"VEC3","bufferView":0,"byteOffset":182376},{"name":"AegislashShieldBlade_1_0_normals","componentType":5126,"count":4476,"min":[-0.9409048557281494,-0.9286950826644897,-1],"max":[0.9409072995185852,0.8452684283256531,1],"type":"VEC3","bufferView":1,"byteOffset":182376},{"name":"AegislashShieldBlade_1_0_texcoords","componentType":5126,"count":4476,"min":[0,-0.9921900033950806],"max":[1,-0.00535999983549118],"type":"VEC2","bufferView":2,"byteOffset":121584},{"name":"AegislashShieldBlade_1_0_indices","componentType":5123,"count":4476,"min":[0],"max":[4475],"type":"SCALAR","bufferView":3,"byteOffset":30396}],"asset":{"generator":"obj2gltf","version":"2.0"},"buffers":[{"name":"XY_Aegislash","byteLength":765004,"uri":"data:application/octet-stream;base64,"}],"bufferViews":[{"name":"bufferView_0","buffer":0,"byteLength":236088,"byteOffset":0,"byteStride":12,"target":34962},{"name":"bufferView_1","buffer":0,"byteLength":236088,"byteOffset":236088,"byteStride":12,"target":34962},{"name":"bufferView_2","buffer":0,"byteLength":157392,"byteOffset":472176,"byteStride":8,"target":34962},{"name":"bufferView_3","buffer":0,"byteLength":39348,"byteOffset":629568,"target":34963},{"buffer":0,"byteOffset":668916,"byteLength":34524},{"buffer":0,"byteOffset":703440,"byteLength":39074},{"buffer":0,"byteOffset":742514,"byteLength":22490}],"images":[{"name":"pm0746_11_BodyA1","mimeType":"image/png","bufferView":4},{"name":"pm0746_11_Eye1","mimeType":"image/png","bufferView":5},{"name":"pm0746_11_BodyB1","mimeType":"image/png","bufferView":6}],"materials":[{"name":"Material__10","pbrMetallicRoughness":{"baseColorTexture":{"index":0},"baseColorFactor":[1,1,1,1],"metallicFactor":0,"roughnessFactor":0.998},"emissiveFactor":[0,0,0],"alphaMode":"OPAQUE","doubleSided":false},{"name":"Material__11","pbrMetallicRoughness":{"baseColorTexture":{"index":1},"baseColorFactor":[1,1,1,1],"metallicFactor":0,"roughnessFactor":0.998},"emissiveFactor":[0,0,0],"alphaMode":"OPAQUE","doubleSided":false},{"name":"Material__12","pbrMetallicRoughness":{"baseColorTexture":{"index":2},"baseColorFactor":[1,1,1,1],"metallicFactor":0,"roughnessFactor":0.998},"emissiveFactor":[0,0,0],"alphaMode":"OPAQUE","doubleSided":false}],"meshes":[{"name":"Aegislash_1","primitives":[{"attributes":{"POSITION":0,"NORMAL":1,"TEXCOORD_0":2},"indices":3,"material":0,"mode":4},{"attributes":{"POSITION":4,"NORMAL":5,"TEXCOORD_0":6},"indices":7,"material":1,"mode":4}]},{"name":"AegislashShieldGuard_1","primitives":[{"attributes":{"POSITION":8,"NORMAL":9,"TEXCOORD_0":10},"indices":11,"material":2,"mode":4}]},{"name":"AegislashShieldBlade_1","primitives":[{"attributes":{"POSITION":12,"NORMAL":13,"TEXCOORD_0":14},"indices":15,"material":2,"mode":4}]}],"nodes":[{"name":"Aegislash","mesh":0},{"name":"AegislashShieldGuard","mesh":1},{"name":"AegislashShieldBlade","mesh":2}],"samplers":[{"wrapS":10497,"wrapT":10497}],"scene":0,"scenes":[{"nodes":[0,1,2]}],"textures":[{"name":"pm0746_11_BodyA1","sampler":0,"source":0},{"name":"pm0746_11_Eye1","sampler":0,"source":1},{"name":"pm0746_11_BodyB1","sampler":0,"source":2}]}