{"accessors":[{"name":"Swirlix_1_0_positions","componentType":5126,"count":14190,"min":[-18.369497299194336,0.23311099410057068,-37.86729431152344],"max":[18.36949920654297,40.481998443603516,17.430700302124023],"type":"VEC3","bufferView":0,"byteOffset":0},{"name":"Swirlix_1_0_normals","componentType":5126,"count":14190,"min":[-0.9984389543533325,-0.6246020197868347,-0.9936090707778931],"max":[0.9984385967254639,0.9965077638626099,0.97992342710495],"type":"VEC3","bufferView":1,"byteOffset":0},{"name":"Swirlix_1_0_texcoords","componentType":5126,"count":14190,"min":[0,0.005295000039041042],"max":[1,0.9936079978942871],"type":"VEC2","bufferView":2,"byteOffset":0},{"name":"Swirlix_1_0_indices","componentType":5123,"count":14190,"min":[0],"max":[14189],"type":"SCALAR","bufferView":3,"byteOffset":0},{"name":"Swirlix_1_1_positions","componentType":5126,"count":66,"min":[-8.905763626098633,20.984691619873047,10.63969612121582],"max":[8.905738830566406,27.591835021972656,15.501898765563965],"type":"VEC3","bufferView":0,"byteOffset":170280},{"name":"Swirlix_1_1_normals","componentType":5126,"count":66,"min":[-0.5923160314559937,-0.15786796808242798,-0.8668212294578552],"max":[0.9670583605766296,0.9253820180892944,-0.019638007506728172],"type":"VEC3","bufferView":1,"byteOffset":170280},{"name":"Swirlix_1_1_texcoords","componentType":5126,"count":66,"min":[0.013016999699175358,-0.9913700222969055],"max":[0.48697999119758606,-0.7586299777030945],"type":"VEC2","bufferView":2,"byteOffset":113520},{"name":"Swirlix_1_1_indices","componentType":5123,"count":66,"min":[0],"max":[65],"type":"SCALAR","bufferView":3,"byteOffset":28380},{"name":"Swirlix_1_2_positions","componentType":5126,"count":174,"min":[-10.528305053710938,14.71919059753418,11.211899757385254],"max":[10.52829647064209,23.23323631286621,16.0237979888916],"type":"VEC3","bufferView":0,"byteOffset":171072},{"name":"Swirlix_1_2_normals","componentType":5126,"count":174,"min":[-0.9385124444961548,-0.5392828583717346,-0.9026838541030884],"max":[0.9895561337471008,0.9253820180892944,0.17342998087406158],"type":"VEC3","bufferView":1,"byteOffset":171072},{"name":"Swirlix_1_2_texcoords","componentType":5126,"count":174,"min":[0.011052999645471573,-1.957319974899292],"max":[0.4889500141143799,-1.7966699600219727],"type":"VEC2","bufferView":2,"byteOffset":114048},{"name":"Swirlix_1_2_indices","componentType":5123,"count":174,"min":[0],"max":[173],"type":"SCALAR","bufferView":3,"byteOffset":28512},{"name":"SwirlixFeet_1_0_positions","componentType":5126,"count":2904,"min":[-12.237299919128418,0.02276499941945076,-7.091248035430908],"max":[12.237299919128418,5.185132026672363,5.231665134429932],"type":"VEC3","bufferView":0,"byteOffset":173160},{"name":"SwirlixFeet_1_0_normals","componentType":5126,"count":2904,"min":[-0.9719186425209045,-0.9995899796485901,-0.9681750535964966],"max":[0.9719228148460388,-0.17839601635932922,0.9742738008499146],"type":"VEC3","bufferView":1,"byteOffset":173160},{"name":"SwirlixFeet_1_0_texcoords","componentType":5126,"count":2904,"min":[0.00851999968290329,0.3424760103225708],"max":[0.9914799928665161,0.7629929780960083],"type":"VEC2","bufferView":2,"byteOffset":115440},{"name":"SwirlixFeet_1_0_indices","componentType":5123,"count":2904,"min":[0],"max":[2903],"type":"SCALAR","bufferView":3,"byteOffset":28860}],"asset":{"generator":"obj2gltf","version":"2.0"},"buffers":[{"name":"XY_Swirlix","byteLength":633840,"uri":"data:application/octet-stream;base64,"}],"bufferViews":[{"name":"bufferView_0","buffer":0,"byteLength":208008,"byteOffset":0,"byteStride":12,"target":34962},{"name":"bufferView_1","buffer":0,"byteLength":208008,"byteOffset":208008,"byteStride":12,"target":34962},{"name":"bufferView_2","buffer":0,"byteLength":138672,"byteOffset":416016,"byteStride":8,"target":34962},{"name":"bufferView_3","buffer":0,"byteLength":34668,"byteOffset":554688,"target":34963},{"buffer":0,"byteOffset":589356,"byteLength":12724},{"buffer":0,"byteOffset":602080,"byteLength":18018},{"buffer":0,"byteOffset":620098,"byteLength":13740}],"images":[{"name":"pm0742_00_Body1","mimeType":"image/png","bufferView":4},{"name":"pm0742_00_Eye1","mimeType":"image/png","bufferView":5},{"name":"pm0742_00_Mouth1","mimeType":"image/png","bufferView":6}],"materials":[{"name":"Material__10","pbrMetallicRoughness":{"baseColorTexture":{"index":0},"baseColorFactor":[1,1,1,1],"metallicFactor":0,"roughnessFactor":0.998},"emissiveFactor":[0,0,0],"alphaMode":"OPAQUE","doubleSided":false},{"name":"Material__11","pbrMetallicRoughness":{"baseColorTexture":{"index":1},"baseColorFactor":[1,1,1,1],"metallicFactor":0,"roughnessFactor":0.998},"emissiveFactor":[0,0,0],"alphaMode":"OPAQUE","doubleSided":false},{"name":"Material__12","pbrMetallicRoughness":{"baseColorTexture":{"index":2},"baseColorFactor":[1,1,1,1],"metallicFactor":0,"roughnessFactor":0.998},"emissiveFactor":[0,0,0],"alphaMode":"OPAQUE","doubleSided":false}],"meshes":[{"name":"Swirlix_1","primitives":[{"attributes":{"POSITION":0,"NORMAL":1,"TEXCOORD_0":2},"indices":3,"material":0,"mode":4},{"attributes":{"POSITION":4,"NORMAL":5,"TEXCOORD_0":6},"indices":7,"material":1,"mode":4},{"attributes":{"POSITION":8,"NORMAL":9,"TEXCOORD_0":10},"indices":11,"material":2,"mode":4}]},{"name":"SwirlixFeet_1","primitives":[{"attributes":{"POSITION":12,"NORMAL":13,"TEXCOORD_0":14},"indices":15,"material":0,"mode":4}]}],"nodes":[{"name":"Swirlix","mesh":0},{"name":"SwirlixFeet","mesh":1}],"samplers":[{"wrapS":10497,"wrapT":10497}],"scene":0,"scenes":[{"nodes":[0,1]}],"textures":[{"name":"pm0742_00_Body1","sampler":0,"source":0},{"name":"pm0742_00_Eye1","sampler":0,"source":1},{"name":"pm0742_00_Mouth1","sampler":0,"source":2}]}