{"accessors":[{"name":"Inkay_1_0_positions","componentType":5126,"count":13416,"min":[-17.818403244018555,-0.4076330065727234,-13.117499351501465],"max":[17.818397521972656,39.99749755859375,11.64159870147705],"type":"VEC3","bufferView":0,"byteOffset":0},{"name":"Inkay_1_0_normals","componentType":5126,"count":13416,"min":[-0.9972341656684875,-0.9635195732116699,-0.9999845623970032],"max":[0.9972339272499084,0.9848086833953857,0.9999845623970032],"type":"VEC3","bufferView":1,"byteOffset":0},{"name":"Inkay_1_0_texcoords","componentType":5126,"count":13416,"min":[0,0.00559900002554059],"max":[1,0.9921870231628418],"type":"VEC2","bufferView":2,"byteOffset":0},{"name":"Inkay_1_0_indices","componentType":5123,"count":13416,"min":[0],"max":[13415],"type":"SCALAR","bufferView":3,"byteOffset":0},{"name":"Inkay_1_1_positions","componentType":5126,"count":348,"min":[-8.808589935302734,12.385499954223633,3.7733399868011475],"max":[8.80858039855957,19.99410057067871,9.7798490524292],"type":"VEC3","bufferView":0,"byteOffset":160992},{"name":"Inkay_1_1_normals","componentType":5126,"count":348,"min":[-0.9233471751213074,-0.8298710584640503,-0.9998841881752014],"max":[0.9938080310821533,0.3839660882949829,0.9684671759605408],"type":"VEC3","bufferView":1,"byteOffset":160992},{"name":"Inkay_1_1_texcoords","componentType":5126,"count":348,"min":[0.004896999802440405,-1.977560043334961],"max":[0.4950999915599823,-1.7813400030136108],"type":"VEC2","bufferView":2,"byteOffset":107328},{"name":"Inkay_1_1_indices","componentType":5123,"count":348,"min":[0],"max":[347],"type":"SCALAR","bufferView":3,"byteOffset":26832},{"name":"Inkay_1_2_positions","componentType":5126,"count":288,"min":[-1.2542999982833862,14.375699996948242,7.902120113372803],"max":[1.2542999982833862,18.37030029296875,9.98084831237793],"type":"VEC3","bufferView":0,"byteOffset":165168},{"name":"Inkay_1_2_normals","componentType":5126,"count":288,"min":[-0.6879990696907043,-0.7418219447135925,-0.6255282163619995],"max":[0.9938080310821533,0.25303488969802856,0.9418383836746216],"type":"VEC3","bufferView":1,"byteOffset":165168},{"name":"Inkay_1_2_texcoords","componentType":5126,"count":288,"min":[0.14717799425125122,-2.993690013885498],"max":[0.3528200089931488,-2.7551798820495605],"type":"VEC2","bufferView":2,"byteOffset":110112},{"name":"Inkay_1_2_indices","componentType":5123,"count":288,"min":[0],"max":[287],"type":"SCALAR","bufferView":3,"byteOffset":27528},{"name":"Inkay_1_3_positions","componentType":5126,"count":2112,"min":[-12.069000244140625,16.050199508666992,-11.092497825622559],"max":[12.069000244140625,32.50149917602539,9.877219200134277],"type":"VEC3","bufferView":0,"byteOffset":168624},{"name":"Inkay_1_3_normals","componentType":5126,"count":2112,"min":[-0.9994012117385864,-0.9883487224578857,-0.7986558675765991],"max":[0.9830659031867981,0.2505599856376648,0.8935205340385437],"type":"VEC3","bufferView":1,"byteOffset":168624},{"name":"Inkay_1_3_texcoords","componentType":5126,"count":2112,"min":[0,-0.9906700253486633],"max":[1,-0.01075000036507845],"type":"VEC2","bufferView":2,"byteOffset":112416},{"name":"Inkay_1_3_indices","componentType":5123,"count":2112,"min":[0],"max":[2111],"type":"SCALAR","bufferView":3,"byteOffset":28104},{"name":"Inkay_1_4_positions","componentType":5126,"count":348,"min":[-8.888669967651367,12.388400077819824,3.822580099105835],"max":[8.888669967651367,20.028799057006836,9.878469467163086],"type":"VEC3","bufferView":0,"byteOffset":193968},{"name":"Inkay_1_4_normals","componentType":5126,"count":348,"min":[-0.9994012117385864,-0.7024121880531311,-0.5297397971153259],"max":[-0.6070379018783569,0.39972904324531555,0.46999630331993103],"type":"VEC3","bufferView":1,"byteOffset":193968},{"name":"Inkay_1_4_texcoords","componentType":5126,"count":348,"min":[0.01958799920976162,-1.9102400541305542],"max":[1,-1.1253600120544434],"type":"VEC2","bufferView":2,"byteOffset":129312},{"name":"Inkay_1_4_indices","componentType":5123,"count":348,"min":[0],"max":[347],"type":"SCALAR","bufferView":3,"byteOffset":32328},{"name":"Inkay_1_5_positions","componentType":5126,"count":4608,"min":[-17.818403244018555,-0.40761899948120117,-13.117499351501465],"max":[17.818397521972656,39.99749755859375,11.64159870147705],"type":"VEC3","bufferView":0,"byteOffset":198144},{"name":"Inkay_1_5_normals","componentType":5126,"count":4608,"min":[-0.9994012117385864,-0.9635195732116699,-0.9998841881752014],"max":[0.9830659031867981,0.543333888053894,0.9998852014541626],"type":"VEC3","bufferView":1,"byteOffset":198144},{"name":"Inkay_1_5_texcoords","componentType":5126,"count":4608,"min":[0,0.14612500369548798],"max":[1,0.6094819903373718],"type":"VEC2","bufferView":2,"byteOffset":132096},{"name":"Inkay_1_5_indices","componentType":5123,"count":4608,"min":[0],"max":[4607],"type":"SCALAR","bufferView":3,"byteOffset":33024}],"asset":{"generator":"obj2gltf","version":"2.0"},"buffers":[{"name":"XY_Inkay","byteLength":775560,"uri":"data:application/octet-stream;base64,"}],"bufferViews":[{"name":"bufferView_0","buffer":0,"byteLength":253440,"byteOffset":0,"byteStride":12,"target":34962},{"name":"bufferView_1","buffer":0,"byteLength":253440,"byteOffset":253440,"byteStride":12,"target":34962},{"name":"bufferView_2","buffer":0,"byteLength":168960,"byteOffset":506880,"byteStride":8,"target":34962},{"name":"bufferView_3","buffer":0,"byteLength":42240,"byteOffset":675840,"target":34963},{"buffer":0,"byteOffset":718080,"byteLength":7080},{"buffer":0,"byteOffset":725160,"byteLength":36460},{"buffer":0,"byteOffset":761620,"byteLength":7038},{"buffer":0,"byteOffset":768658,"byteLength":480},{"buffer":0,"byteOffset":769138,"byteLength":1757},{"buffer":0,"byteOffset":770895,"byteLength":4662}],"images":[{"name":"pm0726_00_BodyA1","mimeType":"image/png","bufferView":4},{"name":"pm0726_00_Eye1","mimeType":"image/png","bufferView":5},{"name":"pm0726_00_Mouth1","mimeType":"image/png","bufferView":6},{"name":"pm0726_00_BodyB1","mimeType":"image/png","bufferView":7},{"name":"pm0726_00_Iris1","mimeType":"image/png","bufferView":8},{"name":"pm0726_00_BodyA1_NoAlpha","mimeType":"image/png","bufferView":9}],"materials":[{"name":"Material__10","pbrMetallicRoughness":{"baseColorTexture":{"index":0},"baseColorFactor":[1,1,1,1],"metallicFactor":0,"roughnessFactor":0.998},"emissiveFactor":[0,0,0],"alphaMode":"OPAQUE","doubleSided":false},{"name":"Material__11","pbrMetallicRoughness":{"baseColorTexture":{"index":1},"baseColorFactor":[1,1,1,1],"metallicFactor":0,"roughnessFactor":0.998},"emissiveFactor":[0,0,0],"alphaMode":"OPAQUE","doubleSided":false},{"name":"Material__12","pbrMetallicRoughness":{"baseColorTexture":{"index":2},"baseColorFactor":[1,1,1,1],"metallicFactor":0,"roughnessFactor":0.998},"emissiveFactor":[0,0,0],"alphaMode":"OPAQUE","doubleSided":false},{"name":"Material__13","pbrMetallicRoughness":{"baseColorTexture":{"index":3},"baseColorFactor":[1,1,1,1],"metallicFactor":0,"roughnessFactor":0.998},"emissiveFactor":[0,0,0],"alphaMode":"OPAQUE","doubleSided":false},{"name":"Material__14","pbrMetallicRoughness":{"baseColorTexture":{"index":4},"baseColorFactor":[1,1,1,1],"metallicFactor":0,"roughnessFactor":0.998},"emissiveFactor":[0,0,0],"alphaMode":"OPAQUE","doubleSided":false},{"name":"Material__15","pbrMetallicRoughness":{"baseColorTexture":{"index":5},"baseColorFactor":[1,1,1,1],"metallicFactor":0,"roughnessFactor":0.998},"emissiveFactor":[0,0,0],"alphaMode":"OPAQUE","doubleSided":false}],"meshes":[{"name":"Inkay_1","primitives":[{"attributes":{"POSITION":0,"NORMAL":1,"TEXCOORD_0":2},"indices":3,"material":0,"mode":4},{"attributes":{"POSITION":4,"NORMAL":5,"TEXCOORD_0":6},"indices":7,"material":1,"mode":4},{"attributes":{"POSITION":8,"NORMAL":9,"TEXCOORD_0":10},"indices":11,"material":2,"mode":4},{"attributes":{"POSITION":12,"NORMAL":13,"TEXCOORD_0":14},"indices":15,"material":3,"mode":4},{"attributes":{"POSITION":16,"NORMAL":17,"TEXCOORD_0":18},"indices":19,"material":4,"mode":4},{"attributes":{"POSITION":20,"NORMAL":21,"TEXCOORD_0":22},"indices":23,"material":5,"mode":4}]}],"nodes":[{"name":"Inkay","mesh":0}],"samplers":[{"wrapS":10497,"wrapT":10497}],"scene":0,"scenes":[{"nodes":[0]}],"textures":[{"name":"pm0726_00_BodyA1","sampler":0,"source":0},{"name":"pm0726_00_Eye1","sampler":0,"source":1},{"name":"pm0726_00_Mouth1","sampler":0,"source":2},{"name":"pm0726_00_BodyB1","sampler":0,"source":3},{"name":"pm0726_00_Iris1","sampler":0,"source":4},{"name":"pm0726_00_BodyA1_NoAlpha","sampler":0,"source":5}]}