{"accessors":[{"name":"Barbaracle_1_0_positions","componentType":5126,"count":4020,"min":[-51.38610076904297,31.5398006439209,-37.16200637817383],"max":[51.385902404785156,105.7239990234375,39.853492736816406],"type":"VEC3","bufferView":0,"byteOffset":0},{"name":"Barbaracle_1_0_normals","componentType":5126,"count":4020,"min":[-0.7659969329833984,-0.9997583031654358,-0.8327448964118958],"max":[0.9837602972984314,0.5801490545272827,0.9785389304161072],"type":"VEC3","bufferView":1,"byteOffset":0},{"name":"Barbaracle_1_0_texcoords","componentType":5126,"count":4020,"min":[0.005355000030249357,-0.9948800206184387],"max":[0.9951599836349487,-0.005160000175237656],"type":"VEC2","bufferView":2,"byteOffset":0},{"name":"Barbaracle_1_0_indices","componentType":5123,"count":4020,"min":[0],"max":[4019],"type":"SCALAR","bufferView":3,"byteOffset":0},{"name":"Barbaracle_1_1_positions","componentType":5126,"count":21942,"min":[-85.1436996459961,2.4546120166778564,-11.809603691101074],"max":[85.1436996459961,158.1210174560547,36.738399505615234],"type":"VEC3","bufferView":0,"byteOffset":48240},{"name":"Barbaracle_1_1_normals","componentType":5126,"count":21942,"min":[-0.9902338981628418,-0.999975323677063,-0.9960043430328369],"max":[0.9902344346046448,1,0.9996522665023804],"type":"VEC3","bufferView":1,"byteOffset":48240},{"name":"Barbaracle_1_1_texcoords","componentType":5126,"count":21942,"min":[0.004031000193208456,0.0043669999577105045],"max":[0.9959689974784851,0.9957749843597412],"type":"VEC2","bufferView":2,"byteOffset":32160},{"name":"Barbaracle_1_1_indices","componentType":5123,"count":21942,"min":[0],"max":[21941],"type":"SCALAR","bufferView":3,"byteOffset":8040},{"name":"Barbaracle_1_2_positions","componentType":5126,"count":720,"min":[-68.46578979492188,35.030696868896484,6.5878119468688965],"max":[68.46581268310547,133.197998046875,27.134702682495117],"type":"VEC3","bufferView":0,"byteOffset":311544},{"name":"Barbaracle_1_2_normals","componentType":5126,"count":720,"min":[-0.793461799621582,-0.9651886820793152,-0.905052125453949],"max":[0.9837610125541687,1,0.9996522665023804],"type":"VEC3","bufferView":1,"byteOffset":311544},{"name":"Barbaracle_1_2_texcoords","componentType":5126,"count":720,"min":[0.0032110000029206276,-1.9955400228500366],"max":[0.49678999185562134,-1.7532000541687012],"type":"VEC2","bufferView":2,"byteOffset":207696},{"name":"Barbaracle_1_2_indices","componentType":5123,"count":720,"min":[0],"max":[719],"type":"SCALAR","bufferView":3,"byteOffset":51924},{"name":"Barbaracle_1_3_positions","componentType":5126,"count":144,"min":[-4.103768825531006,100.92498779296875,8.596653938293457],"max":[4.103692054748535,105.60900115966797,10.326295852661133],"type":"VEC3","bufferView":0,"byteOffset":320184},{"name":"Barbaracle_1_3_normals","componentType":5126,"count":144,"min":[-0.2679899334907532,-0.999975323677063,-0.637428879737854],"max":[0.75715571641922,1,0.9905681610107422],"type":"VEC3","bufferView":1,"byteOffset":320184},{"name":"Barbaracle_1_3_texcoords","componentType":5126,"count":144,"min":[0.011636000126600266,-2.994580030441284],"max":[0.4883599877357483,-2.7554900646209717],"type":"VEC2","bufferView":2,"byteOffset":213456},{"name":"Barbaracle_1_3_indices","componentType":5123,"count":144,"min":[0],"max":[143],"type":"SCALAR","bufferView":3,"byteOffset":53364}],"asset":{"generator":"obj2gltf","version":"2.0"},"buffers":[{"name":"XY_Barbaracle","byteLength":1069544,"uri":"data:application/octet-stream;base64,"}],"bufferViews":[{"name":"bufferView_0","buffer":0,"byteLength":321912,"byteOffset":0,"byteStride":12,"target":34962},{"name":"bufferView_1","buffer":0,"byteLength":321912,"byteOffset":321912,"byteStride":12,"target":34962},{"name":"bufferView_2","buffer":0,"byteLength":214608,"byteOffset":643824,"byteStride":8,"target":34962},{"name":"bufferView_3","buffer":0,"byteLength":53652,"byteOffset":858432,"target":34963},{"buffer":0,"byteOffset":912084,"byteLength":49171},{"buffer":0,"byteOffset":961255,"byteLength":45088},{"buffer":0,"byteOffset":1006343,"byteLength":54284},{"buffer":0,"byteOffset":1060627,"byteLength":8916}],"images":[{"name":"pm0748_00_BodyB1","mimeType":"image/png","bufferView":4},{"name":"pm0748_00_BodyA1","mimeType":"image/png","bufferView":5},{"name":"pm0748_00_Eye1","mimeType":"image/png","bufferView":6},{"name":"pm0748_00_Mouth1","mimeType":"image/png","bufferView":7}],"materials":[{"name":"Material__96","pbrMetallicRoughness":{"baseColorTexture":{"index":0},"baseColorFactor":[1,1,1,1],"metallicFactor":0,"roughnessFactor":0.998},"emissiveFactor":[0,0,0],"alphaMode":"OPAQUE","doubleSided":false},{"name":"Material__97","pbrMetallicRoughness":{"baseColorTexture":{"index":1},"baseColorFactor":[1,1,1,1],"metallicFactor":0,"roughnessFactor":0.998},"emissiveFactor":[0,0,0],"alphaMode":"OPAQUE","doubleSided":false},{"name":"Material__98","pbrMetallicRoughness":{"baseColorTexture":{"index":2},"baseColorFactor":[1,1,1,1],"metallicFactor":0,"roughnessFactor":0.998},"emissiveFactor":[0,0,0],"alphaMode":"OPAQUE","doubleSided":false},{"name":"Material__99","pbrMetallicRoughness":{"baseColorTexture":{"index":3},"baseColorFactor":[1,1,1,1],"metallicFactor":0,"roughnessFactor":0.998},"emissiveFactor":[0,0,0],"alphaMode":"OPAQUE","doubleSided":false}],"meshes":[{"name":"Barbaracle_1","primitives":[{"attributes":{"POSITION":0,"NORMAL":1,"TEXCOORD_0":2},"indices":3,"material":0,"mode":4},{"attributes":{"POSITION":4,"NORMAL":5,"TEXCOORD_0":6},"indices":7,"material":1,"mode":4},{"attributes":{"POSITION":8,"NORMAL":9,"TEXCOORD_0":10},"indices":11,"material":2,"mode":4},{"attributes":{"POSITION":12,"NORMAL":13,"TEXCOORD_0":14},"indices":15,"material":3,"mode":4}]}],"nodes":[{"name":"Barbaracle","mesh":0}],"samplers":[{"wrapS":10497,"wrapT":10497}],"scene":0,"scenes":[{"nodes":[0]}],"textures":[{"name":"pm0748_00_BodyB1","sampler":0,"source":0},{"name":"pm0748_00_BodyA1","sampler":0,"source":1},{"name":"pm0748_00_Eye1","sampler":0,"source":2},{"name":"pm0748_00_Mouth1","sampler":0,"source":3}]}