{"accessors":[{"name":"Clauncher_1_0_positions","componentType":5126,"count":14526,"min":[-22.695398330688477,-11.256196975708008,-14.635507583618164],"max":[23.268495559692383,33.7986946105957,29.762697219848633],"type":"VEC3","bufferView":0,"byteOffset":0},{"name":"Clauncher_1_0_normals","componentType":5126,"count":14526,"min":[-0.9995483160018921,-0.9946414232254028,-0.999976634979248],"max":[0.9995483160018921,0.9999940991401672,0.9844958186149597],"type":"VEC3","bufferView":1,"byteOffset":0},{"name":"Clauncher_1_0_texcoords","componentType":5126,"count":14526,"min":[0.004865000024437904,0.006806999910622835],"max":[0.9951350092887878,0.9921870231628418],"type":"VEC2","bufferView":2,"byteOffset":0},{"name":"Clauncher_1_0_indices","componentType":5123,"count":14526,"min":[0],"max":[14525],"type":"SCALAR","bufferView":3,"byteOffset":0},{"name":"Clauncher_1_1_positions","componentType":5126,"count":300,"min":[-8.254878997802734,3.8186750411987305,10.758703231811523],"max":[8.254878997802734,14.27120304107666,19.7611026763916],"type":"VEC3","bufferView":0,"byteOffset":174312},{"name":"Clauncher_1_1_normals","componentType":5126,"count":300,"min":[-0.9983580112457275,-0.9287105798721313,-0.9526398181915283],"max":[0.9955853819847107,0.8336000442504883,0.28961795568466187],"type":"VEC3","bufferView":1,"byteOffset":174312},{"name":"Clauncher_1_1_texcoords","componentType":5126,"count":300,"min":[0.02155500091612339,-0.9914100170135498],"max":[0.4784500002861023,-0.7578099966049194],"type":"VEC2","bufferView":2,"byteOffset":116208},{"name":"Clauncher_1_1_indices","componentType":5123,"count":300,"min":[0],"max":[299],"type":"SCALAR","bufferView":3,"byteOffset":29052}],"asset":{"generator":"obj2gltf","version":"2.0"},"buffers":[{"name":"XY_Clauncher","byteLength":574412,"uri":"data:application/octet-stream;base64,"}],"bufferViews":[{"name":"bufferView_0","buffer":0,"byteLength":177912,"byteOffset":0,"byteStride":12,"target":34962},{"name":"bufferView_1","buffer":0,"byteLength":177912,"byteOffset":177912,"byteStride":12,"target":34962},{"name":"bufferView_2","buffer":0,"byteLength":118608,"byteOffset":355824,"byteStride":8,"target":34962},{"name":"bufferView_3","buffer":0,"byteLength":29652,"byteOffset":474432,"target":34963},{"buffer":0,"byteOffset":504084,"byteLength":43435},{"buffer":0,"byteOffset":547519,"byteLength":26893}],"images":[{"name":"pm0756_00_Body1","mimeType":"image/png","bufferView":4},{"name":"pm0756_00_Eye1","mimeType":"image/png","bufferView":5}],"materials":[{"name":"Material__10","pbrMetallicRoughness":{"baseColorTexture":{"index":0},"baseColorFactor":[1,1,1,1],"metallicFactor":0,"roughnessFactor":0.998},"emissiveFactor":[0,0,0],"alphaMode":"OPAQUE","doubleSided":false},{"name":"Material__11","pbrMetallicRoughness":{"baseColorTexture":{"index":1},"baseColorFactor":[1,1,1,1],"metallicFactor":0,"roughnessFactor":0.998},"emissiveFactor":[0,0,0],"alphaMode":"OPAQUE","doubleSided":false}],"meshes":[{"name":"Clauncher_1","primitives":[{"attributes":{"POSITION":0,"NORMAL":1,"TEXCOORD_0":2},"indices":3,"material":0,"mode":4},{"attributes":{"POSITION":4,"NORMAL":5,"TEXCOORD_0":6},"indices":7,"material":1,"mode":4}]}],"nodes":[{"name":"Clauncher","mesh":0}],"samplers":[{"wrapS":10497,"wrapT":10497}],"scene":0,"scenes":[{"nodes":[0]}],"textures":[{"name":"pm0756_00_Body1","sampler":0,"source":0},{"name":"pm0756_00_Eye1","sampler":0,"source":1}]}