{"accessors":[{"name":"Helioptile_1_0_positions","componentType":5126,"count":390,"min":[-11.680803298950195,-4.626237869262695,24.920902252197266],"max":[11.680793762207031,2.2389330863952637,38.58720016479492],"type":"VEC3","bufferView":0,"byteOffset":0},{"name":"Helioptile_1_0_normals","componentType":5126,"count":390,"min":[-0.7722571492195129,-0.9864059686660767,-0.007745999842882156],"max":[0,-0.42627301812171936,0.625436007976532],"type":"VEC3","bufferView":1,"byteOffset":0},{"name":"Helioptile_1_0_texcoords","componentType":5126,"count":390,"min":[0.043928999453783035,-1.992400050163269],"max":[0.4560700058937073,-1.7572300434112549],"type":"VEC2","bufferView":2,"byteOffset":0},{"name":"Helioptile_1_0_indices","componentType":5123,"count":390,"min":[0],"max":[389],"type":"SCALAR","bufferView":3,"byteOffset":0},{"name":"Helioptile_1_1_positions","componentType":5126,"count":2688,"min":[-14.070901870727539,-2.476356029510498,20.301298141479492],"max":[14.070893287658691,22.72579574584961,44.619998931884766],"type":"VEC3","bufferView":0,"byteOffset":4680},{"name":"Helioptile_1_1_normals","componentType":5126,"count":2688,"min":[-0.9645639061927795,-0.9999955296516418,-0.975324273109436],"max":[0.821988046169281,0.18956105411052704,0.625436007976532],"type":"VEC3","bufferView":1,"byteOffset":4680},{"name":"Helioptile_1_1_texcoords","componentType":5126,"count":2688,"min":[0.007428999990224838,0.00712500000372529],"max":[0.9925709962844849,0.43056198954582214],"type":"VEC2","bufferView":2,"byteOffset":3120},{"name":"Helioptile_1_1_indices","componentType":5123,"count":2688,"min":[0],"max":[2687],"type":"SCALAR","bufferView":3,"byteOffset":780},{"name":"Helioptile_1_2_positions","componentType":5126,"count":11304,"min":[-18.425703048706055,-2.3158819675445557,-36.20320129394531],"max":[18.419687271118164,14.602800369262695,20.335899353027344],"type":"VEC3","bufferView":0,"byteOffset":36936},{"name":"Helioptile_1_2_normals","componentType":5126,"count":11304,"min":[-0.9998530149459839,-0.9864059686660767,-0.9872614741325378],"max":[0.9998526573181152,0.999822199344635,0.9999896287918091],"type":"VEC3","bufferView":1,"byteOffset":36936},{"name":"Helioptile_1_2_texcoords","componentType":5126,"count":11304,"min":[0.015456000342965126,-0.9739300012588501],"max":[0.9845439791679382,-0.031929999589920044],"type":"VEC2","bufferView":2,"byteOffset":24624},{"name":"Helioptile_1_2_indices","componentType":5123,"count":11304,"min":[0],"max":[11303],"type":"SCALAR","bufferView":3,"byteOffset":6156},{"name":"Helioptile_1_3_positions","componentType":5126,"count":174,"min":[-6.91044282913208,-4.0839409828186035,21.362802505493164],"max":[6.910433769226074,2.4556078910827637,27.03360366821289],"type":"VEC3","bufferView":0,"byteOffset":172584},{"name":"Helioptile_1_3_normals","componentType":5126,"count":174,"min":[-0.6343181729316711,-0.9999955296516418,-0.4563990831375122],"max":[0.821988046169281,0.999822199344635,0.6257797479629517],"type":"VEC3","bufferView":1,"byteOffset":172584},{"name":"Helioptile_1_3_texcoords","componentType":5126,"count":174,"min":[0.0460439994931221,-2.993769884109497],"max":[0.45396000146865845,-2.756850004196167],"type":"VEC2","bufferView":2,"byteOffset":115056},{"name":"Helioptile_1_3_indices","componentType":5123,"count":174,"min":[0],"max":[173],"type":"SCALAR","bufferView":3,"byteOffset":28764},{"name":"Helioptile_EarsDroop_1_0_positions","componentType":5126,"count":1032,"min":[-46.66830062866211,9.098039627075195,28.650493621826172],"max":[46.66828155517578,9.388484001159668,40.7866096496582],"type":"VEC3","bufferView":0,"byteOffset":174672},{"name":"Helioptile_EarsDroop_1_0_normals","componentType":5126,"count":1032,"min":[-0.8153223991394043,-1,-0.7372111678123474],"max":[0.1352810561656952,1,0.7372111082077026],"type":"VEC3","bufferView":1,"byteOffset":174672},{"name":"Helioptile_EarsDroop_1_0_texcoords","componentType":5126,"count":1032,"min":[0.31070899963378906,0.36289098858833313],"max":[0.6892910003662109,0.9886900186538696],"type":"VEC2","bufferView":2,"byteOffset":116448},{"name":"Helioptile_EarsDroop_1_0_indices","componentType":5123,"count":1032,"min":[0],"max":[1031],"type":"SCALAR","bufferView":3,"byteOffset":29112},{"name":"Helioptile_EarsClose_1_0_positions","componentType":5126,"count":1308,"min":[-26.27899742126465,7.130276203155518,5.002569198608398],"max":[26.278980255126953,10.270395278930664,37.22460174560547],"type":"VEC3","bufferView":0,"byteOffset":187056},{"name":"Helioptile_EarsClose_1_0_normals","componentType":5126,"count":1308,"min":[-0.9062299132347107,-0.9813228249549866,-0.838274359703064],"max":[0.9646539092063904,0.9995958805084229,0.4857170283794403],"type":"VEC3","bufferView":1,"byteOffset":187056},{"name":"Helioptile_EarsClose_1_0_texcoords","componentType":5126,"count":1308,"min":[0.31679999828338623,0.00824000034481287],"max":[0.6832000017166138,0.49283498525619507],"type":"VEC2","bufferView":2,"byteOffset":124704},{"name":"Helioptile_EarsClose_1_0_indices","componentType":5123,"count":1308,"min":[0],"max":[1307],"type":"SCALAR","bufferView":3,"byteOffset":31176},{"name":"Helioptile_EarsOpen_1_0_positions","componentType":5126,"count":2808,"min":[-42.725399017333984,8.856796264648438,17.54819107055664],"max":[42.725379943847656,9.13219165802002,51.929500579833984],"type":"VEC3","bufferView":0,"byteOffset":202752},{"name":"Helioptile_EarsOpen_1_0_normals","componentType":5126,"count":2808,"min":[-0.674884021282196,-0.7970782518386841,-0.7044259905815125],"max":[0.5002581477165222,1,0.725456714630127],"type":"VEC3","bufferView":1,"byteOffset":202752},{"name":"Helioptile_EarsOpen_1_0_texcoords","componentType":5126,"count":2808,"min":[0.006856000050902367,0.4389039874076843],"max":[0.9931439757347107,0.991237998008728],"type":"VEC2","bufferView":2,"byteOffset":135168},{"name":"Helioptile_EarsOpen_1_0_indices","componentType":5123,"count":2808,"min":[0],"max":[2807],"type":"SCALAR","bufferView":3,"byteOffset":33792}],"asset":{"generator":"obj2gltf","version":"2.0"},"buffers":[{"name":"XY_Helioptile","byteLength":722544,"uri":"data:application/octet-stream;base64,"}],"bufferViews":[{"name":"bufferView_0","buffer":0,"byteLength":236448,"byteOffset":0,"byteStride":12,"target":34962},{"name":"bufferView_1","buffer":0,"byteLength":236448,"byteOffset":236448,"byteStride":12,"target":34962},{"name":"bufferView_2","buffer":0,"byteLength":157632,"byteOffset":472896,"byteStride":8,"target":34962},{"name":"bufferView_3","buffer":0,"byteLength":39408,"byteOffset":630528,"target":34963},{"buffer":0,"byteOffset":669936,"byteLength":31839},{"buffer":0,"byteOffset":701775,"byteLength":12377},{"buffer":0,"byteOffset":714152,"byteLength":4310},{"buffer":0,"byteOffset":718462,"byteLength":4079}],"images":[{"name":"pm0731_00_Eye1","mimeType":"image/png","bufferView":4},{"name":"pm0731_00_BodyA1","mimeType":"image/png","bufferView":5},{"name":"pm0731_00_BodyB1","mimeType":"image/png","bufferView":6},{"name":"pm0731_00_Mouth1","mimeType":"image/png","bufferView":7}],"materials":[{"name":"Material__35","pbrMetallicRoughness":{"baseColorTexture":{"index":0},"baseColorFactor":[1,1,1,1],"metallicFactor":0,"roughnessFactor":0.998},"emissiveFactor":[0,0,0],"alphaMode":"OPAQUE","doubleSided":false},{"name":"Material__36","pbrMetallicRoughness":{"baseColorTexture":{"index":1},"baseColorFactor":[1,1,1,1],"metallicFactor":0,"roughnessFactor":0.998},"emissiveFactor":[0,0,0],"alphaMode":"OPAQUE","doubleSided":false},{"name":"Material__37","pbrMetallicRoughness":{"baseColorTexture":{"index":2},"baseColorFactor":[1,1,1,1],"metallicFactor":0,"roughnessFactor":0.998},"emissiveFactor":[0,0,0],"alphaMode":"OPAQUE","doubleSided":false},{"name":"Material__38","pbrMetallicRoughness":{"baseColorTexture":{"index":3},"baseColorFactor":[1,1,1,1],"metallicFactor":0,"roughnessFactor":0.998},"emissiveFactor":[0,0,0],"alphaMode":"OPAQUE","doubleSided":false}],"meshes":[{"name":"Helioptile_1","primitives":[{"attributes":{"POSITION":0,"NORMAL":1,"TEXCOORD_0":2},"indices":3,"material":0,"mode":4},{"attributes":{"POSITION":4,"NORMAL":5,"TEXCOORD_0":6},"indices":7,"material":1,"mode":4},{"attributes":{"POSITION":8,"NORMAL":9,"TEXCOORD_0":10},"indices":11,"material":2,"mode":4},{"attributes":{"POSITION":12,"NORMAL":13,"TEXCOORD_0":14},"indices":15,"material":3,"mode":4}]},{"name":"Helioptile_EarsDroop_1","primitives":[{"attributes":{"POSITION":16,"NORMAL":17,"TEXCOORD_0":18},"indices":19,"material":1,"mode":4}]},{"name":"Helioptile_EarsClose_1","primitives":[{"attributes":{"POSITION":20,"NORMAL":21,"TEXCOORD_0":22},"indices":23,"material":1,"mode":4}]},{"name":"Helioptile_EarsOpen_1","primitives":[{"attributes":{"POSITION":24,"NORMAL":25,"TEXCOORD_0":26},"indices":27,"material":1,"mode":4}]}],"nodes":[{"name":"Helioptile","mesh":0},{"name":"Helioptile_EarsDroop","mesh":1},{"name":"Helioptile_EarsClose","mesh":2},{"name":"Helioptile_EarsOpen","mesh":3}],"samplers":[{"wrapS":10497,"wrapT":10497}],"scene":0,"scenes":[{"nodes":[0,1,2,3]}],"textures":[{"name":"pm0731_00_Eye1","sampler":0,"source":0},{"name":"pm0731_00_BodyA1","sampler":0,"source":1},{"name":"pm0731_00_BodyB1","sampler":0,"source":2},{"name":"pm0731_00_Mouth1","sampler":0,"source":3}]}