{"accessors":[{"name":"Tyrunt_1_0_positions","componentType":5126,"count":19962,"min":[-46.847084045410156,-0.7498469948768616,-71.46308898925781],"max":[46.847103118896484,92.07171630859375,81.60762023925781],"type":"VEC3","bufferView":0,"byteOffset":0},{"name":"Tyrunt_1_0_normals","componentType":5126,"count":19962,"min":[-0.992065966129303,-0.9999646544456482,-0.999910831451416],"max":[0.9970969557762146,0.9983638525009155,0.9994040131568909],"type":"VEC3","bufferView":1,"byteOffset":0},{"name":"Tyrunt_1_0_texcoords","componentType":5126,"count":19962,"min":[0,0.011718999594449997],"max":[1,0.9921870231628418],"type":"VEC2","bufferView":2,"byteOffset":0},{"name":"Tyrunt_1_0_indices","componentType":5123,"count":19962,"min":[0],"max":[19961],"type":"SCALAR","bufferView":3,"byteOffset":0},{"name":"Tyrunt_1_1_positions","componentType":5126,"count":894,"min":[-21.28561019897461,53.394683837890625,44.637184143066406],"max":[21.28558921813965,78.09588623046875,65.06549835205078],"type":"VEC3","bufferView":0,"byteOffset":239544},{"name":"Tyrunt_1_1_normals","componentType":5126,"count":894,"min":[-0.9567682147026062,-0.9589187502861023,-0.9736695289611816],"max":[0.9976468086242676,0.9933726787567139,0.8460293412208557],"type":"VEC3","bufferView":1,"byteOffset":239544},{"name":"Tyrunt_1_1_texcoords","componentType":5126,"count":894,"min":[0.009467000141739845,-0.9912400245666504],"max":[0.49053001403808594,-0.7594900131225586],"type":"VEC2","bufferView":2,"byteOffset":159696},{"name":"Tyrunt_1_1_indices","componentType":5123,"count":894,"min":[0],"max":[893],"type":"SCALAR","bufferView":3,"byteOffset":39924},{"name":"Tyrunt_1_2_positions","componentType":5126,"count":894,"min":[-21.43071174621582,53.51008224487305,44.771087646484375],"max":[21.43069076538086,78.1087875366211,65.06770324707031],"type":"VEC3","bufferView":0,"byteOffset":250272},{"name":"Tyrunt_1_2_normals","componentType":5126,"count":894,"min":[-0.9920657277107239,-0.9987671375274658,-0.8821537494659424],"max":[0.967623233795166,0.9223200082778931,0.9953907132148743],"type":"VEC3","bufferView":1,"byteOffset":250272},{"name":"Tyrunt_1_2_texcoords","componentType":5126,"count":894,"min":[0.03786800056695938,-1.964959979057312],"max":[0.9609599709510803,-1.0379600524902344],"type":"VEC2","bufferView":2,"byteOffset":166848},{"name":"Tyrunt_1_2_indices","componentType":5123,"count":894,"min":[0],"max":[893],"type":"SCALAR","bufferView":3,"byteOffset":41712}],"asset":{"generator":"obj2gltf","version":"2.0"},"buffers":[{"name":"XY_Tyrunt","byteLength":797476,"uri":"data:application/octet-stream;base64,"}],"bufferViews":[{"name":"bufferView_0","buffer":0,"byteLength":261000,"byteOffset":0,"byteStride":12,"target":34962},{"name":"bufferView_1","buffer":0,"byteLength":261000,"byteOffset":261000,"byteStride":12,"target":34962},{"name":"bufferView_2","buffer":0,"byteLength":174000,"byteOffset":522000,"byteStride":8,"target":34962},{"name":"bufferView_3","buffer":0,"byteLength":43500,"byteOffset":696000,"target":34963},{"buffer":0,"byteOffset":739500,"byteLength":25426},{"buffer":0,"byteOffset":764926,"byteLength":31788},{"buffer":0,"byteOffset":796714,"byteLength":762}],"images":[{"name":"pm0737_00_Body1","mimeType":"image/png","bufferView":4},{"name":"pm0737_00_Eye1","mimeType":"image/png","bufferView":5},{"name":"pm0737_00_Iris1","mimeType":"image/png","bufferView":6}],"materials":[{"name":"Material__10","pbrMetallicRoughness":{"baseColorTexture":{"index":0},"baseColorFactor":[1,1,1,1],"metallicFactor":0,"roughnessFactor":0.998},"emissiveFactor":[0,0,0],"alphaMode":"OPAQUE","doubleSided":false},{"name":"Material__11","pbrMetallicRoughness":{"baseColorTexture":{"index":1},"baseColorFactor":[1,1,1,1],"metallicFactor":0,"roughnessFactor":0.998},"emissiveFactor":[0,0,0],"alphaMode":"OPAQUE","doubleSided":false},{"name":"Material__12","pbrMetallicRoughness":{"baseColorTexture":{"index":2},"baseColorFactor":[1,1,1,1],"metallicFactor":0,"roughnessFactor":0.998},"emissiveFactor":[0,0,0],"alphaMode":"OPAQUE","doubleSided":false}],"meshes":[{"name":"Tyrunt_1","primitives":[{"attributes":{"POSITION":0,"NORMAL":1,"TEXCOORD_0":2},"indices":3,"material":0,"mode":4},{"attributes":{"POSITION":4,"NORMAL":5,"TEXCOORD_0":6},"indices":7,"material":1,"mode":4},{"attributes":{"POSITION":8,"NORMAL":9,"TEXCOORD_0":10},"indices":11,"material":2,"mode":4}]}],"nodes":[{"name":"Tyrunt","mesh":0}],"samplers":[{"wrapS":10497,"wrapT":10497}],"scene":0,"scenes":[{"nodes":[0]}],"textures":[{"name":"pm0737_00_Body1","sampler":0,"source":0},{"name":"pm0737_00_Eye1","sampler":0,"source":1},{"name":"pm0737_00_Iris1","sampler":0,"source":2}]}