{"accessors":[{"name":"Tyrantrum_1_0_positions","componentType":5126,"count":114,"min":[-31.77355194091797,201.42604064941406,160.0999755859375],"max":[31.77364730834961,223.32003784179688,183.91700744628906],"type":"VEC3","bufferView":0,"byteOffset":0},{"name":"Tyrantrum_1_0_normals","componentType":5126,"count":114,"min":[0.566736102104187,-0.4762660562992096,0.3520520329475403],"max":[0.8057481050491333,0.47798189520835876,0.8168151378631592],"type":"VEC3","bufferView":1,"byteOffset":0},{"name":"Tyrantrum_1_0_texcoords","componentType":5126,"count":114,"min":[0.009569000452756882,-1.9548300504684448],"max":[0.49042999744415283,-1.8029899597167969],"type":"VEC2","bufferView":2,"byteOffset":0},{"name":"Tyrantrum_1_0_indices","componentType":5123,"count":114,"min":[0],"max":[113],"type":"SCALAR","bufferView":3,"byteOffset":0},{"name":"Tyrantrum_1_1_positions","componentType":5126,"count":11292,"min":[-104.73500061035156,-1.6163029670715332,-262.46905517578125],"max":[104.73499298095703,213.4290008544922,132.60202026367188],"type":"VEC3","bufferView":0,"byteOffset":1368},{"name":"Tyrantrum_1_1_normals","componentType":5126,"count":11292,"min":[-0.9996560215950012,-0.9999886155128479,-0.9955551624298096],"max":[0.9996560215950012,0.998550534248352,0.9735183715820312],"type":"VEC3","bufferView":1,"byteOffset":1368},{"name":"Tyrantrum_1_1_texcoords","componentType":5126,"count":11292,"min":[0,0.0078119998797774315],"max":[1,0.9921870231628418],"type":"VEC2","bufferView":2,"byteOffset":912},{"name":"Tyrantrum_1_1_indices","componentType":5123,"count":11292,"min":[0],"max":[11291],"type":"SCALAR","bufferView":3,"byteOffset":228},{"name":"Tyrantrum_1_2_positions","componentType":5126,"count":9360,"min":[-86.05461120605469,107.80099487304688,-20.596601486206055],"max":[86.05460357666016,287.2829895019531,221.1800079345703],"type":"VEC3","bufferView":0,"byteOffset":136872},{"name":"Tyrantrum_1_2_normals","componentType":5126,"count":9360,"min":[-0.9996560215950012,-0.9999886155128479,-0.9955551028251648],"max":[0.9963122606277466,0.998550534248352,0.9881947040557861],"type":"VEC3","bufferView":1,"byteOffset":136872},{"name":"Tyrantrum_1_2_texcoords","componentType":5126,"count":9360,"min":[0,-0.9921900033950806],"max":[1,-0.011669999919831753],"type":"VEC2","bufferView":2,"byteOffset":91248},{"name":"Tyrantrum_1_2_indices","componentType":5123,"count":9360,"min":[0],"max":[9359],"type":"SCALAR","bufferView":3,"byteOffset":22812}],"asset":{"generator":"obj2gltf","version":"2.0"},"buffers":[{"name":"XY_Tyrantrum","byteLength":862276,"uri":"data:application/octet-stream;base64,"}],"bufferViews":[{"name":"bufferView_0","buffer":0,"byteLength":249192,"byteOffset":0,"byteStride":12,"target":34962},{"name":"bufferView_1","buffer":0,"byteLength":249192,"byteOffset":249192,"byteStride":12,"target":34962},{"name":"bufferView_2","buffer":0,"byteLength":166128,"byteOffset":498384,"byteStride":8,"target":34962},{"name":"bufferView_3","buffer":0,"byteLength":41532,"byteOffset":664512,"target":34963},{"buffer":0,"byteOffset":706044,"byteLength":23504},{"buffer":0,"byteOffset":729548,"byteLength":59693},{"buffer":0,"byteOffset":789241,"byteLength":73032}],"images":[{"name":"pm0738_00_Eye1","mimeType":"image/png","bufferView":4},{"name":"pm0738_00_BodyA1","mimeType":"image/png","bufferView":5},{"name":"pm0738_00_BodyB1","mimeType":"image/png","bufferView":6}],"materials":[{"name":"Material__163","pbrMetallicRoughness":{"baseColorTexture":{"index":0},"baseColorFactor":[1,1,1,1],"metallicFactor":0,"roughnessFactor":0.998},"emissiveFactor":[0,0,0],"alphaMode":"OPAQUE","doubleSided":false},{"name":"Material__164","pbrMetallicRoughness":{"baseColorTexture":{"index":1},"baseColorFactor":[1,1,1,1],"metallicFactor":0,"roughnessFactor":0.998},"emissiveFactor":[0,0,0],"alphaMode":"OPAQUE","doubleSided":false},{"name":"Material__165","pbrMetallicRoughness":{"baseColorTexture":{"index":2},"baseColorFactor":[1,1,1,1],"metallicFactor":0,"roughnessFactor":0.998},"emissiveFactor":[0,0,0],"alphaMode":"OPAQUE","doubleSided":false}],"meshes":[{"name":"Tyrantrum_1","primitives":[{"attributes":{"POSITION":0,"NORMAL":1,"TEXCOORD_0":2},"indices":3,"material":0,"mode":4},{"attributes":{"POSITION":4,"NORMAL":5,"TEXCOORD_0":6},"indices":7,"material":1,"mode":4},{"attributes":{"POSITION":8,"NORMAL":9,"TEXCOORD_0":10},"indices":11,"material":2,"mode":4}]}],"nodes":[{"name":"Tyrantrum","mesh":0}],"samplers":[{"wrapS":10497,"wrapT":10497}],"scene":0,"scenes":[{"nodes":[0]}],"textures":[{"name":"pm0738_00_Eye1","sampler":0,"source":0},{"name":"pm0738_00_BodyA1","sampler":0,"source":1},{"name":"pm0738_00_BodyB1","sampler":0,"source":2}]}