{"accessors":[{"name":"Aurorus_1_0_positions","componentType":5126,"count":13782,"min":[-55.335601806640625,0.1840440034866333,-359.45001220703125],"max":[55.33559799194336,322.4830017089844,211.1179656982422],"type":"VEC3","bufferView":0,"byteOffset":0},{"name":"Aurorus_1_0_normals","componentType":5126,"count":13782,"min":[-0.9448391199111938,-0.47954386472702026,-0.5492768883705139],"max":[0.94483882188797,0.5073328018188477,0.435016006231308],"type":"VEC3","bufferView":1,"byteOffset":0},{"name":"Aurorus_1_0_texcoords","componentType":5126,"count":13782,"min":[0.0039059999398887157,-0.9960899949073792],"max":[0.9960939884185791,-0.003909999970346689],"type":"VEC2","bufferView":2,"byteOffset":0},{"name":"Aurorus_1_0_indices","componentType":5123,"count":13782,"min":[0],"max":[13781],"type":"SCALAR","bufferView":3,"byteOffset":0},{"name":"Aurorus_1_1_positions","componentType":5126,"count":6828,"min":[-48.10810089111328,0.18401400744915009,-95.569580078125],"max":[48.10810089111328,256.4629821777344,211.90597534179688],"type":"VEC3","bufferView":0,"byteOffset":165384},{"name":"Aurorus_1_1_normals","componentType":5126,"count":6828,"min":[-0.9448392987251282,-0.43495115637779236,-0.46653392910957336],"max":[0.9374582171440125,0.3512919247150421,0.4271550178527832],"type":"VEC3","bufferView":1,"byteOffset":165384},{"name":"Aurorus_1_1_texcoords","componentType":5126,"count":6828,"min":[0.0039059999398887157,0.015636000782251358],"max":[0.9960939884185791,0.9960939884185791],"type":"VEC2","bufferView":2,"byteOffset":110256},{"name":"Aurorus_1_1_indices","componentType":5123,"count":6828,"min":[0],"max":[6827],"type":"SCALAR","bufferView":3,"byteOffset":27564},{"name":"Aurorus_1_2_positions","componentType":5126,"count":216,"min":[-18.108999252319336,223.4749755859375,185.47500610351562],"max":[18.108999252319336,247.98196411132812,209.2859649658203],"type":"VEC3","bufferView":0,"byteOffset":247320},{"name":"Aurorus_1_2_normals","componentType":5126,"count":216,"min":[-0.8380613327026367,-0.3400629758834839,0.42664816975593567],"max":[-0.8380417227745056,-0.33999890089035034,0.4266868531703949],"type":"VEC3","bufferView":1,"byteOffset":247320},{"name":"Aurorus_1_2_texcoords","componentType":5126,"count":216,"min":[0.005944000091403723,-1.9872599840164185],"max":[0.4940600097179413,-1.7627400159835815],"type":"VEC2","bufferView":2,"byteOffset":164880},{"name":"Aurorus_1_2_indices","componentType":5123,"count":216,"min":[0],"max":[215],"type":"SCALAR","bufferView":3,"byteOffset":41220},{"name":"Aurorus_1_3_positions","componentType":5126,"count":204,"min":[-12.851699829101562,218.24996948242188,182.333984375],"max":[12.851699829101562,225.29698181152344,204.60598754882812],"type":"VEC3","bufferView":0,"byteOffset":249912},{"name":"Aurorus_1_3_normals","componentType":5126,"count":204,"min":[-0.8380570411682129,-0.34008198976516724,0.4266259968280792],"max":[-0.8380416631698608,-0.3399999141693115,0.42668989300727844],"type":"VEC3","bufferView":1,"byteOffset":249912},{"name":"Aurorus_1_3_texcoords","componentType":5126,"count":204,"min":[0.10327800363302231,-2.994800090789795],"max":[0.3967199921607971,-2.755199909210205],"type":"VEC2","bufferView":2,"byteOffset":166608},{"name":"Aurorus_1_3_indices","componentType":5123,"count":204,"min":[0],"max":[203],"type":"SCALAR","bufferView":3,"byteOffset":41652}],"asset":{"generator":"obj2gltf","version":"2.0"},"buffers":[{"name":"XY_Aurorus","byteLength":811984,"uri":"data:application/octet-stream;base64,"}],"bufferViews":[{"name":"bufferView_0","buffer":0,"byteLength":252360,"byteOffset":0,"byteStride":12,"target":34962},{"name":"bufferView_1","buffer":0,"byteLength":252360,"byteOffset":252360,"byteStride":12,"target":34962},{"name":"bufferView_2","buffer":0,"byteLength":168240,"byteOffset":504720,"byteStride":8,"target":34962},{"name":"bufferView_3","buffer":0,"byteLength":42060,"byteOffset":672960,"target":34963},{"buffer":0,"byteOffset":715020,"byteLength":10243},{"buffer":0,"byteOffset":725263,"byteLength":45934},{"buffer":0,"byteOffset":771197,"byteLength":29001},{"buffer":0,"byteOffset":800198,"byteLength":11786}],"images":[{"name":"pm0740_00_BodyB1","mimeType":"image/png","bufferView":4},{"name":"pm0740_00_BodyA1","mimeType":"image/png","bufferView":5},{"name":"pm0740_00_Eye1","mimeType":"image/png","bufferView":6},{"name":"pm0740_00_Mouth1","mimeType":"image/png","bufferView":7}],"materials":[{"name":"Material__35","pbrMetallicRoughness":{"baseColorTexture":{"index":0},"baseColorFactor":[1,1,1,1],"metallicFactor":0,"roughnessFactor":0.998},"emissiveFactor":[0,0,0],"alphaMode":"OPAQUE","doubleSided":false},{"name":"Material__36","pbrMetallicRoughness":{"baseColorTexture":{"index":1},"baseColorFactor":[1,1,1,1],"metallicFactor":0,"roughnessFactor":0.998},"emissiveFactor":[0,0,0],"alphaMode":"OPAQUE","doubleSided":false},{"name":"Material__37","pbrMetallicRoughness":{"baseColorTexture":{"index":2},"baseColorFactor":[1,1,1,1],"metallicFactor":0,"roughnessFactor":0.998},"emissiveFactor":[0,0,0],"alphaMode":"OPAQUE","doubleSided":false},{"name":"Material__38","pbrMetallicRoughness":{"baseColorTexture":{"index":3},"baseColorFactor":[1,1,1,1],"metallicFactor":0,"roughnessFactor":0.998},"emissiveFactor":[0,0,0],"alphaMode":"OPAQUE","doubleSided":false}],"meshes":[{"name":"Aurorus_1","primitives":[{"attributes":{"POSITION":0,"NORMAL":1,"TEXCOORD_0":2},"indices":3,"material":0,"mode":4},{"attributes":{"POSITION":4,"NORMAL":5,"TEXCOORD_0":6},"indices":7,"material":1,"mode":4},{"attributes":{"POSITION":8,"NORMAL":9,"TEXCOORD_0":10},"indices":11,"material":2,"mode":4},{"attributes":{"POSITION":12,"NORMAL":13,"TEXCOORD_0":14},"indices":15,"material":3,"mode":4}]}],"nodes":[{"name":"Aurorus","mesh":0}],"samplers":[{"wrapS":10497,"wrapT":10497}],"scene":0,"scenes":[{"nodes":[0]}],"textures":[{"name":"pm0740_00_BodyB1","sampler":0,"source":0},{"name":"pm0740_00_BodyA1","sampler":0,"source":1},{"name":"pm0740_00_Eye1","sampler":0,"source":2},{"name":"pm0740_00_Mouth1","sampler":0,"source":3}]}