{"accessors":[{"name":"Sylveon_1_0_positions","componentType":5126,"count":294,"min":[-9.98192024230957,42.13779830932617,35.8893928527832],"max":[9.98192024230957,52.75859832763672,42.30900192260742],"type":"VEC3","bufferView":0,"byteOffset":0},{"name":"Sylveon_1_0_normals","componentType":5126,"count":294,"min":[-0.8379631638526917,-0.2946690618991852,0.5263800621032715],"max":[-0.15970005095005035,0.1422000229358673,0.9764820337295532],"type":"VEC3","bufferView":1,"byteOffset":0},{"name":"Sylveon_1_0_texcoords","componentType":5126,"count":294,"min":[0.012155000120401382,-1.9862099885940552],"max":[0.48785001039505005,-1.7586400508880615],"type":"VEC2","bufferView":2,"byteOffset":0},{"name":"Sylveon_1_0_indices","componentType":5123,"count":294,"min":[0],"max":[293],"type":"SCALAR","bufferView":3,"byteOffset":0},{"name":"Sylveon_1_1_positions","componentType":5126,"count":13668,"min":[-17.858400344848633,-0.07735099643468857,-43.016605377197266],"max":[17.858400344848633,92.75190734863281,50.37690353393555],"type":"VEC3","bufferView":0,"byteOffset":3528},{"name":"Sylveon_1_1_normals","componentType":5126,"count":13668,"min":[-0.9996097087860107,-0.9719113111495972,-0.9963005185127258],"max":[0.9897462129592896,0.9999996423721313,0.9991922974586487],"type":"VEC3","bufferView":1,"byteOffset":3528},{"name":"Sylveon_1_1_texcoords","componentType":5126,"count":13668,"min":[0,0.009573999792337418],"max":[1,0.984375],"type":"VEC2","bufferView":2,"byteOffset":2352},{"name":"Sylveon_1_1_indices","componentType":5123,"count":13668,"min":[0],"max":[13667],"type":"SCALAR","bufferView":3,"byteOffset":588},{"name":"Sylveon_1_2_positions","componentType":5126,"count":72,"min":[-3.9456899166107178,39.4213981628418,34.31199264526367],"max":[3.9456899166107178,42.25389862060547,41.62089538574219],"type":"VEC3","bufferView":0,"byteOffset":167544},{"name":"Sylveon_1_2_normals","componentType":5126,"count":72,"min":[-0.9958694577217102,-0.312450110912323,-0.9442051649093628],"max":[0.4815109670162201,0.7530803084373474,0.9437441229820251],"type":"VEC3","bufferView":1,"byteOffset":167544},{"name":"Sylveon_1_2_texcoords","componentType":5126,"count":72,"min":[0.14045099914073944,-2.9825100898742676],"max":[0.35954999923706055,-2.7674601078033447],"type":"VEC2","bufferView":2,"byteOffset":111696},{"name":"Sylveon_1_2_indices","componentType":5123,"count":72,"min":[0],"max":[71],"type":"SCALAR","bufferView":3,"byteOffset":27924},{"name":"Sylveon_1_3_positions","componentType":5126,"count":11016,"min":[-85.90739440917969,34.31520080566406,11.939899444580078],"max":[85.90740203857422,72.17719268798828,65.96839141845703],"type":"VEC3","bufferView":0,"byteOffset":168408},{"name":"Sylveon_1_3_normals","componentType":5126,"count":11016,"min":[-0.999609649181366,-0.999618649482727,-0.9963005185127258],"max":[0.999609649181366,0.9201333522796631,0.9992792010307312],"type":"VEC3","bufferView":1,"byteOffset":168408},{"name":"Sylveon_1_3_texcoords","componentType":5126,"count":11016,"min":[0.015625,-0.9843800067901611],"max":[0.984375,-0.016030000522732735],"type":"VEC2","bufferView":2,"byteOffset":112272},{"name":"Sylveon_1_3_indices","componentType":5123,"count":11016,"min":[0],"max":[11015],"type":"SCALAR","bufferView":3,"byteOffset":28068}],"asset":{"generator":"obj2gltf","version":"2.0"},"buffers":[{"name":"XY_Sylveon","byteLength":916700,"uri":"data:application/octet-stream;base64,"}],"bufferViews":[{"name":"bufferView_0","buffer":0,"byteLength":300600,"byteOffset":0,"byteStride":12,"target":34962},{"name":"bufferView_1","buffer":0,"byteLength":300600,"byteOffset":300600,"byteStride":12,"target":34962},{"name":"bufferView_2","buffer":0,"byteLength":200400,"byteOffset":601200,"byteStride":8,"target":34962},{"name":"bufferView_3","buffer":0,"byteLength":50100,"byteOffset":801600,"target":34963},{"buffer":0,"byteOffset":851700,"byteLength":26060},{"buffer":0,"byteOffset":877760,"byteLength":21519},{"buffer":0,"byteOffset":899279,"byteLength":9202},{"buffer":0,"byteOffset":908481,"byteLength":8218}],"images":[{"name":"pm0767_00_Eye1","mimeType":"image/png","bufferView":4},{"name":"pm0767_00_BodyA1","mimeType":"image/png","bufferView":5},{"name":"pm0767_00_Mouth1","mimeType":"image/png","bufferView":6},{"name":"pm0767_00_BodyB1","mimeType":"image/png","bufferView":7}],"materials":[{"name":"Material__10","pbrMetallicRoughness":{"baseColorTexture":{"index":0},"baseColorFactor":[1,1,1,1],"metallicFactor":0,"roughnessFactor":0.998},"emissiveFactor":[0,0,0],"alphaMode":"OPAQUE","doubleSided":false},{"name":"Material__11","pbrMetallicRoughness":{"baseColorTexture":{"index":1},"baseColorFactor":[1,1,1,1],"metallicFactor":0,"roughnessFactor":0.998},"emissiveFactor":[0,0,0],"alphaMode":"OPAQUE","doubleSided":false},{"name":"Material__12","pbrMetallicRoughness":{"baseColorTexture":{"index":2},"baseColorFactor":[1,1,1,1],"metallicFactor":0,"roughnessFactor":0.998},"emissiveFactor":[0,0,0],"alphaMode":"OPAQUE","doubleSided":false},{"name":"Material__13","pbrMetallicRoughness":{"baseColorTexture":{"index":3},"baseColorFactor":[1,1,1,1],"metallicFactor":0,"roughnessFactor":0.998},"emissiveFactor":[0,0,0],"alphaMode":"OPAQUE","doubleSided":false}],"meshes":[{"name":"Sylveon_1","primitives":[{"attributes":{"POSITION":0,"NORMAL":1,"TEXCOORD_0":2},"indices":3,"material":0,"mode":4},{"attributes":{"POSITION":4,"NORMAL":5,"TEXCOORD_0":6},"indices":7,"material":1,"mode":4},{"attributes":{"POSITION":8,"NORMAL":9,"TEXCOORD_0":10},"indices":11,"material":2,"mode":4},{"attributes":{"POSITION":12,"NORMAL":13,"TEXCOORD_0":14},"indices":15,"material":3,"mode":4}]}],"nodes":[{"name":"Sylveon","mesh":0}],"samplers":[{"wrapS":10497,"wrapT":10497}],"scene":0,"scenes":[{"nodes":[0]}],"textures":[{"name":"pm0767_00_Eye1","sampler":0,"source":0},{"name":"pm0767_00_BodyA1","sampler":0,"source":1},{"name":"pm0767_00_Mouth1","sampler":0,"source":2},{"name":"pm0767_00_BodyB1","sampler":0,"source":3}]}