{"accessors":[{"name":"Hawlucha_1_0_positions","componentType":5126,"count":14712,"min":[-73.6104965209961,0.39509299397468567,-37.1183967590332],"max":[73.61048889160156,103.77201080322266,28.591699600219727],"type":"VEC3","bufferView":0,"byteOffset":0},{"name":"Hawlucha_1_0_normals","componentType":5126,"count":14712,"min":[-0.9906514883041382,-0.9997003674507141,-0.985539436340332],"max":[0.9906520247459412,0.9975317716598511,0.9944269061088562],"type":"VEC3","bufferView":1,"byteOffset":0},{"name":"Hawlucha_1_0_texcoords","componentType":5126,"count":14712,"min":[0,0.0078119998797774315],"max":[1,0.9921870231628418],"type":"VEC2","bufferView":2,"byteOffset":0},{"name":"Hawlucha_1_0_indices","componentType":5123,"count":14712,"min":[0],"max":[14711],"type":"SCALAR","bufferView":3,"byteOffset":0},{"name":"Hawlucha_1_1_positions","componentType":5126,"count":432,"min":[-12.660499572753906,70.51321411132812,5.8667988777160645],"max":[12.660499572753906,82.84521484375,17.265703201293945],"type":"VEC3","bufferView":0,"byteOffset":176544},{"name":"Hawlucha_1_1_normals","componentType":5126,"count":432,"min":[-0.9804434776306152,-0.9995909333229065,-0.9855393767356873],"max":[0.9906518459320068,0.9037116169929504,0.9684997200965881],"type":"VEC3","bufferView":1,"byteOffset":176544},{"name":"Hawlucha_1_1_texcoords","componentType":5126,"count":432,"min":[0.008654999546706676,-0.9675999879837036],"max":[0.491349995136261,-0.7823600172996521],"type":"VEC2","bufferView":2,"byteOffset":117696},{"name":"Hawlucha_1_1_indices","componentType":5123,"count":432,"min":[0],"max":[431],"type":"SCALAR","bufferView":3,"byteOffset":29424},{"name":"Hawlucha_1_2_positions","componentType":5126,"count":96,"min":[-9.35536003112793,62.413902282714844,10.821399688720703],"max":[9.35536003112793,68.11621856689453,18.20200538635254],"type":"VEC3","bufferView":0,"byteOffset":181728},{"name":"Hawlucha_1_2_normals","componentType":5126,"count":96,"min":[-0.9144657850265503,-0.9997003674507141,-0.6287368535995483],"max":[0.9585243463516235,0.9913230538368225,0.9944269061088562],"type":"VEC3","bufferView":1,"byteOffset":181728},{"name":"Hawlucha_1_2_texcoords","componentType":5126,"count":96,"min":[0.03176200017333031,-1.9628900289535522],"max":[0.46823999285697937,-1.776229977607727],"type":"VEC2","bufferView":2,"byteOffset":121152},{"name":"Hawlucha_1_2_indices","componentType":5123,"count":96,"min":[0],"max":[95],"type":"SCALAR","bufferView":3,"byteOffset":30288},{"name":"Hawlucha_1_3_positions","componentType":5126,"count":432,"min":[-12.859999656677246,70.47871398925781,5.853806972503662],"max":[12.859999656677246,82.91911315917969,17.351404190063477],"type":"VEC3","bufferView":0,"byteOffset":182880},{"name":"Hawlucha_1_3_normals","componentType":5126,"count":432,"min":[0,-0.7008238434791565,-0.12996597588062286],"max":[0.8463873267173767,0.6995627284049988,0.9951899647712708],"type":"VEC3","bufferView":1,"byteOffset":182880},{"name":"Hawlucha_1_3_texcoords","componentType":5126,"count":432,"min":[0.03460000082850456,-1.8703999519348145],"max":[0.7968800067901611,-1.1294399499893188],"type":"VEC2","bufferView":2,"byteOffset":121920},{"name":"Hawlucha_1_3_indices","componentType":5123,"count":432,"min":[0],"max":[431],"type":"SCALAR","bufferView":3,"byteOffset":30480}],"asset":{"generator":"obj2gltf","version":"2.0"},"buffers":[{"name":"XY_Hawlucha","byteLength":658480,"uri":"data:application/octet-stream;base64,"}],"bufferViews":[{"name":"bufferView_0","buffer":0,"byteLength":188064,"byteOffset":0,"byteStride":12,"target":34962},{"name":"bufferView_1","buffer":0,"byteLength":188064,"byteOffset":188064,"byteStride":12,"target":34962},{"name":"bufferView_2","buffer":0,"byteLength":125376,"byteOffset":376128,"byteStride":8,"target":34962},{"name":"bufferView_3","buffer":0,"byteLength":31344,"byteOffset":501504,"target":34963},{"buffer":0,"byteOffset":532848,"byteLength":85704},{"buffer":0,"byteOffset":618552,"byteLength":19745},{"buffer":0,"byteOffset":638297,"byteLength":15471},{"buffer":0,"byteOffset":653768,"byteLength":4709}],"images":[{"name":"pm0761_00_Body1","mimeType":"image/png","bufferView":4},{"name":"pm0761_00_Eye1","mimeType":"image/png","bufferView":5},{"name":"pm0761_00_Mouth1","mimeType":"image/png","bufferView":6},{"name":"pm0761_00_Iris1","mimeType":"image/png","bufferView":7}],"materials":[{"name":"Material__10","pbrMetallicRoughness":{"baseColorTexture":{"index":0},"baseColorFactor":[1,1,1,1],"metallicFactor":0,"roughnessFactor":0.998},"emissiveFactor":[0,0,0],"alphaMode":"OPAQUE","doubleSided":false},{"name":"Material__11","pbrMetallicRoughness":{"baseColorTexture":{"index":1},"baseColorFactor":[1,1,1,1],"metallicFactor":0,"roughnessFactor":0.998},"emissiveFactor":[0,0,0],"alphaMode":"OPAQUE","doubleSided":false},{"name":"Material__12","pbrMetallicRoughness":{"baseColorTexture":{"index":2},"baseColorFactor":[1,1,1,1],"metallicFactor":0,"roughnessFactor":0.998},"emissiveFactor":[0,0,0],"alphaMode":"OPAQUE","doubleSided":false},{"name":"Material__13","pbrMetallicRoughness":{"baseColorTexture":{"index":3},"baseColorFactor":[1,1,1,1],"metallicFactor":0,"roughnessFactor":0.998},"emissiveFactor":[0,0,0],"alphaMode":"OPAQUE","doubleSided":false}],"meshes":[{"name":"Hawlucha_1","primitives":[{"attributes":{"POSITION":0,"NORMAL":1,"TEXCOORD_0":2},"indices":3,"material":0,"mode":4},{"attributes":{"POSITION":4,"NORMAL":5,"TEXCOORD_0":6},"indices":7,"material":1,"mode":4},{"attributes":{"POSITION":8,"NORMAL":9,"TEXCOORD_0":10},"indices":11,"material":2,"mode":4},{"attributes":{"POSITION":12,"NORMAL":13,"TEXCOORD_0":14},"indices":15,"material":3,"mode":4}]}],"nodes":[{"name":"Hawlucha","mesh":0}],"samplers":[{"wrapS":10497,"wrapT":10497}],"scene":0,"scenes":[{"nodes":[0]}],"textures":[{"name":"pm0761_00_Body1","sampler":0,"source":0},{"name":"pm0761_00_Eye1","sampler":0,"source":1},{"name":"pm0761_00_Mouth1","sampler":0,"source":2},{"name":"pm0761_00_Iris1","sampler":0,"source":3}]}