{"accessors":[{"name":"Dedenne_1_0_positions","componentType":5126,"count":60,"min":[-2.2593300342559814,13.25409984588623,8.424792289733887],"max":[2.2593300342559814,17.63260269165039,10.09640121459961],"type":"VEC3","bufferView":0,"byteOffset":0},{"name":"Dedenne_1_0_normals","componentType":5126,"count":60,"min":[0,-0.047158993780612946,0.8344862461090088],"max":[0.2730080783367157,0.47864314913749695,0.9990929365158081],"type":"VEC3","bufferView":1,"byteOffset":0},{"name":"Dedenne_1_0_texcoords","componentType":5126,"count":60,"min":[0.024145999923348427,-2.9882800579071045],"max":[0.475849986076355,-2.757810115814209],"type":"VEC2","bufferView":2,"byteOffset":0},{"name":"Dedenne_1_0_indices","componentType":5123,"count":60,"min":[0],"max":[59],"type":"SCALAR","bufferView":3,"byteOffset":0},{"name":"Dedenne_1_1_positions","componentType":5126,"count":14316,"min":[-14.02669906616211,-1.474200963973999,-65.40869903564453],"max":[14.02669906616211,25.417299270629883,10.09640121459961],"type":"VEC3","bufferView":0,"byteOffset":720},{"name":"Dedenne_1_1_normals","componentType":5126,"count":14316,"min":[-0.999620258808136,-0.9880212545394897,-0.8861669898033142],"max":[0.999620258808136,0.9981462359428406,0.9999976754188538],"type":"VEC3","bufferView":1,"byteOffset":720},{"name":"Dedenne_1_1_texcoords","componentType":5126,"count":14316,"min":[0,0.0078119998797774315],"max":[1,0.9921870231628418],"type":"VEC2","bufferView":2,"byteOffset":480},{"name":"Dedenne_1_1_indices","componentType":5123,"count":14316,"min":[0],"max":[14315],"type":"SCALAR","bufferView":3,"byteOffset":120},{"name":"Dedenne_1_2_positions","componentType":5126,"count":222,"min":[-7.501309871673584,10.845600128173828,4.22343111038208],"max":[7.501309871673584,17.000900268554688,9.170910835266113],"type":"VEC3","bufferView":0,"byteOffset":172512},{"name":"Dedenne_1_2_normals","componentType":5126,"count":222,"min":[-0.32216912508010864,-0.4968319833278656,0.1097480058670044],"max":[0.946947455406189,0.47864314913749695,0.9990929365158081],"type":"VEC3","bufferView":1,"byteOffset":172512},{"name":"Dedenne_1_2_texcoords","componentType":5126,"count":222,"min":[0.020507000386714935,-0.9821199774742126],"max":[0.9794930219650269,-0.017960000783205032],"type":"VEC2","bufferView":2,"byteOffset":115008},{"name":"Dedenne_1_2_indices","componentType":5123,"count":222,"min":[0],"max":[221],"type":"SCALAR","bufferView":3,"byteOffset":28752},{"name":"Dedenne_1_3_positions","componentType":5126,"count":102,"min":[-4.578649997711182,14.783000946044922,6.165259838104248],"max":[4.578649997711182,18.647899627685547,9.622852325439453],"type":"VEC3","bufferView":0,"byteOffset":175176},{"name":"Dedenne_1_3_normals","componentType":5126,"count":102,"min":[-0.32216912508010864,-0.1851329803466797,0.24054795503616333],"max":[0.8957998752593994,0.47864314913749695,0.9990929365158081],"type":"VEC3","bufferView":1,"byteOffset":175176},{"name":"Dedenne_1_3_texcoords","componentType":5126,"count":102,"min":[0.009158999659121037,-1.9837900400161743],"max":[0.49083998799324036,-1.760390043258667],"type":"VEC2","bufferView":2,"byteOffset":116784},{"name":"Dedenne_1_3_indices","componentType":5123,"count":102,"min":[0],"max":[101],"type":"SCALAR","bufferView":3,"byteOffset":29196}],"asset":{"generator":"obj2gltf","version":"2.0"},"buffers":[{"name":"XY_Dedenne","byteLength":548264,"uri":"data:application/octet-stream;base64,"}],"bufferViews":[{"name":"bufferView_0","buffer":0,"byteLength":176400,"byteOffset":0,"byteStride":12,"target":34962},{"name":"bufferView_1","buffer":0,"byteLength":176400,"byteOffset":176400,"byteStride":12,"target":34962},{"name":"bufferView_2","buffer":0,"byteLength":117600,"byteOffset":352800,"byteStride":8,"target":34962},{"name":"bufferView_3","buffer":0,"byteLength":29400,"byteOffset":470400,"target":34963},{"buffer":0,"byteOffset":499800,"byteLength":11406},{"buffer":0,"byteOffset":511206,"byteLength":15254},{"buffer":0,"byteOffset":526460,"byteLength":3087},{"buffer":0,"byteOffset":529547,"byteLength":18715}],"images":[{"name":"pm0741_00_Mouth1","mimeType":"image/png","bufferView":4},{"name":"pm0741_00_BodyA1","mimeType":"image/png","bufferView":5},{"name":"pm0741_00_BodyB1","mimeType":"image/png","bufferView":6},{"name":"pm0741_00_Eye1","mimeType":"image/png","bufferView":7}],"materials":[{"name":"Material__246","pbrMetallicRoughness":{"baseColorTexture":{"index":0},"baseColorFactor":[1,1,1,1],"metallicFactor":0,"roughnessFactor":0.998},"emissiveFactor":[0,0,0],"alphaMode":"OPAQUE","doubleSided":false},{"name":"Material__247","pbrMetallicRoughness":{"baseColorTexture":{"index":1},"baseColorFactor":[1,1,1,1],"metallicFactor":0,"roughnessFactor":0.998},"emissiveFactor":[0,0,0],"alphaMode":"OPAQUE","doubleSided":false},{"name":"Material__248","pbrMetallicRoughness":{"baseColorTexture":{"index":2},"baseColorFactor":[1,1,1,1],"metallicFactor":0,"roughnessFactor":0.998},"emissiveFactor":[0,0,0],"alphaMode":"OPAQUE","doubleSided":false},{"name":"Material__249","pbrMetallicRoughness":{"baseColorTexture":{"index":3},"baseColorFactor":[1,1,1,1],"metallicFactor":0,"roughnessFactor":0.998},"emissiveFactor":[0,0,0],"alphaMode":"OPAQUE","doubleSided":false}],"meshes":[{"name":"Dedenne_1","primitives":[{"attributes":{"POSITION":0,"NORMAL":1,"TEXCOORD_0":2},"indices":3,"material":0,"mode":4},{"attributes":{"POSITION":4,"NORMAL":5,"TEXCOORD_0":6},"indices":7,"material":1,"mode":4},{"attributes":{"POSITION":8,"NORMAL":9,"TEXCOORD_0":10},"indices":11,"material":2,"mode":4},{"attributes":{"POSITION":12,"NORMAL":13,"TEXCOORD_0":14},"indices":15,"material":3,"mode":4}]}],"nodes":[{"name":"Dedenne","mesh":0}],"samplers":[{"wrapS":10497,"wrapT":10497}],"scene":0,"scenes":[{"nodes":[0]}],"textures":[{"name":"pm0741_00_Mouth1","sampler":0,"source":0},{"name":"pm0741_00_BodyA1","sampler":0,"source":1},{"name":"pm0741_00_BodyB1","sampler":0,"source":2},{"name":"pm0741_00_Eye1","sampler":0,"source":3}]}