{"accessors":[{"name":"Carbink_1_0_positions","componentType":5126,"count":1221,"min":[-10.764776229858398,0.3132320046424866,-11.40649700164795],"max":[11.450922012329102,32.210697174072266,14.23080062866211],"type":"VEC3","bufferView":0,"byteOffset":0},{"name":"Carbink_1_0_normals","componentType":5126,"count":1221,"min":[-0.8540071249008179,-0.9983733892440796,-0.9022424221038818],"max":[0.7091712951660156,-0.25152790546417236,0.9596115946769714],"type":"VEC3","bufferView":1,"byteOffset":0},{"name":"Carbink_1_0_texcoords","componentType":5126,"count":1221,"min":[0.5096150040626526,-0.9143400192260742],"max":[0.9903849959373474,-0.01792999915778637],"type":"VEC2","bufferView":2,"byteOffset":0},{"name":"Carbink_1_0_indices","componentType":5123,"count":1221,"min":[0],"max":[1220],"type":"SCALAR","bufferView":3,"byteOffset":0},{"name":"Carbink_1_1_positions","componentType":5126,"count":12498,"min":[-18.099899291992188,5.078413963317871,-13.830199241638184],"max":[18.099899291992188,30.536500930786133,13.160201072692871],"type":"VEC3","bufferView":0,"byteOffset":14652},{"name":"Carbink_1_1_normals","componentType":5126,"count":12498,"min":[-0.9854688048362732,-0.9983733892440796,-0.9067094326019287],"max":[0.9992095828056335,0.9975141882896423,0.998653769493103],"type":"VEC3","bufferView":1,"byteOffset":14652},{"name":"Carbink_1_1_texcoords","componentType":5126,"count":12498,"min":[0,0.007734000217169523],"max":[1,0.9886119961738586],"type":"VEC2","bufferView":2,"byteOffset":9768},{"name":"Carbink_1_1_indices","componentType":5123,"count":12498,"min":[0],"max":[12497],"type":"SCALAR","bufferView":3,"byteOffset":2444},{"name":"Carbink_1_2_positions","componentType":5126,"count":384,"min":[-4.869650840759277,25.06838607788086,3.1803689002990723],"max":[4.869627952575684,27.695510864257812,6.006429195404053],"type":"VEC3","bufferView":0,"byteOffset":164628},{"name":"Carbink_1_2_normals","componentType":5126,"count":384,"min":[-0.9694531559944153,0.23504303395748138,-0.7598755359649658],"max":[0.9473832249641418,0.9857802987098694,0.6835081577301025],"type":"VEC3","bufferView":1,"byteOffset":164628},{"name":"Carbink_1_2_texcoords","componentType":5126,"count":384,"min":[0.010247999802231789,-1.9747999906539917],"max":[0.4897499978542328,-1.7694900035858154],"type":"VEC2","bufferView":2,"byteOffset":109752},{"name":"Carbink_1_2_indices","componentType":5123,"count":384,"min":[0],"max":[383],"type":"SCALAR","bufferView":3,"byteOffset":27440},{"name":"Carbink_1_3_positions","componentType":5126,"count":4950,"min":[-10.861776351928711,0.2134069949388504,-11.5046968460083],"max":[11.547821998596191,32.29399490356445,14.330598831176758],"type":"VEC3","bufferView":0,"byteOffset":169236},{"name":"Carbink_1_3_normals","componentType":5126,"count":4950,"min":[-0.9503609538078308,-0.9946910738945007,-0.9872374534606934],"max":[0.999209463596344,0.9364637136459351,0.9931693077087402],"type":"VEC3","bufferView":1,"byteOffset":169236},{"name":"Carbink_1_3_texcoords","componentType":5126,"count":4950,"min":[0.00961500033736229,-0.9143400192260742],"max":[0.4903849959373474,-0.01792999915778637],"type":"VEC2","bufferView":2,"byteOffset":112824},{"name":"Carbink_1_3_indices","componentType":5123,"count":4950,"min":[0],"max":[4949],"type":"SCALAR","bufferView":3,"byteOffset":28208}],"asset":{"generator":"obj2gltf","version":"2.0"},"buffers":[{"name":"XY_Carbink","byteLength":754768,"uri":"data:application/octet-stream;base64,"}],"bufferViews":[{"name":"bufferView_0","buffer":0,"byteLength":228636,"byteOffset":0,"byteStride":12,"target":34962},{"name":"bufferView_1","buffer":0,"byteLength":228636,"byteOffset":228636,"byteStride":12,"target":34962},{"name":"bufferView_2","buffer":0,"byteLength":152424,"byteOffset":457272,"byteStride":8,"target":34962},{"name":"bufferView_3","buffer":0,"byteLength":38108,"byteOffset":609696,"target":34963},{"buffer":0,"byteOffset":647804,"byteLength":8333},{"buffer":0,"byteOffset":656137,"byteLength":72421},{"buffer":0,"byteOffset":728558,"byteLength":23611},{"buffer":0,"byteOffset":752169,"byteLength":2598}],"images":[{"name":"pm0766_00_BodyEnv","mimeType":"image/png","bufferView":4},{"name":"pm0766_00_Body1","mimeType":"image/png","bufferView":5},{"name":"pm0766_00_Eye1","mimeType":"image/png","bufferView":6},{"name":"pm0766_00_DesukarnEnv","mimeType":"image/png","bufferView":7}],"materials":[{"name":"Material__149","pbrMetallicRoughness":{"baseColorTexture":{"index":0},"baseColorFactor":[1,1,1,1],"metallicFactor":0,"roughnessFactor":0.998},"emissiveFactor":[0,0,0],"alphaMode":"OPAQUE","doubleSided":false},{"name":"Material__150","pbrMetallicRoughness":{"baseColorTexture":{"index":1},"baseColorFactor":[1,1,1,1],"metallicFactor":0,"roughnessFactor":0.998},"emissiveFactor":[0,0,0],"alphaMode":"OPAQUE","doubleSided":false},{"name":"Material__151","pbrMetallicRoughness":{"baseColorTexture":{"index":2},"baseColorFactor":[1,1,1,1],"metallicFactor":0,"roughnessFactor":0.998},"emissiveFactor":[0,0,0],"alphaMode":"OPAQUE","doubleSided":false},{"name":"Material__152","pbrMetallicRoughness":{"baseColorTexture":{"index":3},"baseColorFactor":[1,1,1,1],"metallicFactor":0,"roughnessFactor":0.998},"emissiveFactor":[0,0,0],"alphaMode":"OPAQUE","doubleSided":false}],"meshes":[{"name":"Carbink_1","primitives":[{"attributes":{"POSITION":0,"NORMAL":1,"TEXCOORD_0":2},"indices":3,"material":0,"mode":4},{"attributes":{"POSITION":4,"NORMAL":5,"TEXCOORD_0":6},"indices":7,"material":1,"mode":4},{"attributes":{"POSITION":8,"NORMAL":9,"TEXCOORD_0":10},"indices":11,"material":2,"mode":4},{"attributes":{"POSITION":12,"NORMAL":13,"TEXCOORD_0":14},"indices":15,"material":3,"mode":4}]}],"nodes":[{"name":"Carbink","mesh":0}],"samplers":[{"wrapS":10497,"wrapT":10497}],"scene":0,"scenes":[{"nodes":[0]}],"textures":[{"name":"pm0766_00_BodyEnv","sampler":0,"source":0},{"name":"pm0766_00_Body1","sampler":0,"source":1},{"name":"pm0766_00_Eye1","sampler":0,"source":2},{"name":"pm0766_00_DesukarnEnv","sampler":0,"source":3}]}