{"accessors":[{"name":"Goomy_1_0_positions","componentType":5126,"count":384,"min":[-12.079903602600098,3.958617925643921,10.001399993896484],"max":[12.07989501953125,16.817047119140625,15.825299263000488],"type":"VEC3","bufferView":0,"byteOffset":0},{"name":"Goomy_1_0_normals","componentType":5126,"count":384,"min":[-0.731889009475708,-0.1260019838809967,0.6303746700286865],"max":[0.4751659035682678,0.4415910542011261,0.9993703961372375],"type":"VEC3","bufferView":1,"byteOffset":0},{"name":"Goomy_1_0_texcoords","componentType":5126,"count":384,"min":[0.011044999584555626,-1.9886599779129028],"max":[0.48895499110221863,-1.7660800218582153],"type":"VEC2","bufferView":2,"byteOffset":0},{"name":"Goomy_1_0_indices","componentType":5123,"count":384,"min":[0],"max":[383],"type":"SCALAR","bufferView":3,"byteOffset":0},{"name":"Goomy_1_1_positions","componentType":5126,"count":7872,"min":[-16.893800735473633,-0.25001999735832214,-33.01789855957031],"max":[16.893802642822266,46.947303771972656,18.5044002532959],"type":"VEC3","bufferView":0,"byteOffset":4608},{"name":"Goomy_1_1_normals","componentType":5126,"count":7872,"min":[-0.9999000430107117,-0.7567270994186401,-0.9909837245941162],"max":[0.9950793981552124,0.9634835720062256,0.9998757243156433],"type":"VEC3","bufferView":1,"byteOffset":4608},{"name":"Goomy_1_1_texcoords","componentType":5126,"count":7872,"min":[0,0.0078119998797774315],"max":[1,0.9894599914550781],"type":"VEC2","bufferView":2,"byteOffset":3072},{"name":"Goomy_1_1_indices","componentType":5123,"count":7872,"min":[0],"max":[7871],"type":"SCALAR","bufferView":3,"byteOffset":768},{"name":"Goomy_1_2_positions","componentType":5126,"count":48,"min":[-6.545364856719971,16.795106887817383,13.195296287536621],"max":[6.545314788818359,22.9536075592041,15.76729679107666],"type":"VEC3","bufferView":0,"byteOffset":99072},{"name":"Goomy_1_2_normals","componentType":5126,"count":48,"min":[-0.9848366379737854,-0.4650123119354248,-0.1583959460258484],"max":[0.9950793981552124,0.14411495625972748,0.9920867681503296],"type":"VEC3","bufferView":1,"byteOffset":99072},{"name":"Goomy_1_2_texcoords","componentType":5126,"count":48,"min":[0.06426800042390823,-0.9654300212860107],"max":[0.4357300102710724,-0.7767300009727478],"type":"VEC2","bufferView":2,"byteOffset":66048},{"name":"Goomy_1_2_indices","componentType":5123,"count":48,"min":[0],"max":[47],"type":"SCALAR","bufferView":3,"byteOffset":16512}],"asset":{"generator":"obj2gltf","version":"2.0"},"buffers":[{"name":"XY_Goomy","byteLength":326936,"uri":"data:application/octet-stream;base64,"}],"bufferViews":[{"name":"bufferView_0","buffer":0,"byteLength":99648,"byteOffset":0,"byteStride":12,"target":34962},{"name":"bufferView_1","buffer":0,"byteLength":99648,"byteOffset":99648,"byteStride":12,"target":34962},{"name":"bufferView_2","buffer":0,"byteLength":66432,"byteOffset":199296,"byteStride":8,"target":34962},{"name":"bufferView_3","buffer":0,"byteLength":16608,"byteOffset":265728,"target":34963},{"buffer":0,"byteOffset":282336,"byteLength":21062},{"buffer":0,"byteOffset":303398,"byteLength":14221},{"buffer":0,"byteOffset":317619,"byteLength":9316}],"images":[{"name":"pm0763_00_Mouth1","mimeType":"image/png","bufferView":4},{"name":"pm0763_00_Body1","mimeType":"image/png","bufferView":5},{"name":"pm0763_00_Eye1","mimeType":"image/png","bufferView":6}],"materials":[{"name":"Material__35","pbrMetallicRoughness":{"baseColorTexture":{"index":0},"baseColorFactor":[1,1,1,1],"metallicFactor":0,"roughnessFactor":0.998},"emissiveFactor":[0,0,0],"alphaMode":"OPAQUE","doubleSided":false},{"name":"Material__36","pbrMetallicRoughness":{"baseColorTexture":{"index":1},"baseColorFactor":[1,1,1,1],"metallicFactor":0,"roughnessFactor":0.998},"emissiveFactor":[0,0,0],"alphaMode":"OPAQUE","doubleSided":false},{"name":"Material__37","pbrMetallicRoughness":{"baseColorTexture":{"index":2},"baseColorFactor":[1,1,1,1],"metallicFactor":0,"roughnessFactor":0.998},"emissiveFactor":[0,0,0],"alphaMode":"OPAQUE","doubleSided":false}],"meshes":[{"name":"Goomy_1","primitives":[{"attributes":{"POSITION":0,"NORMAL":1,"TEXCOORD_0":2},"indices":3,"material":0,"mode":4},{"attributes":{"POSITION":4,"NORMAL":5,"TEXCOORD_0":6},"indices":7,"material":1,"mode":4},{"attributes":{"POSITION":8,"NORMAL":9,"TEXCOORD_0":10},"indices":11,"material":2,"mode":4}]}],"nodes":[{"name":"Goomy","mesh":0}],"samplers":[{"wrapS":10497,"wrapT":10497}],"scene":0,"scenes":[{"nodes":[0]}],"textures":[{"name":"pm0763_00_Mouth1","sampler":0,"source":0},{"name":"pm0763_00_Body1","sampler":0,"source":1},{"name":"pm0763_00_Eye1","sampler":0,"source":2}]}