{"accessors":[{"name":"Goodra_1_0_positions","componentType":5126,"count":19716,"min":[-80.71861267089844,0.4483889937400818,-114.88302612304688],"max":[80.71858978271484,308.4090576171875,66.55449676513672],"type":"VEC3","bufferView":0,"byteOffset":0},{"name":"Goodra_1_0_normals","componentType":5126,"count":19716,"min":[-0.9995911717414856,-0.999779224395752,-0.9939575791358948],"max":[0.9993070960044861,0.9951698780059814,0.9997636079788208],"type":"VEC3","bufferView":1,"byteOffset":0},{"name":"Goodra_1_0_texcoords","componentType":5126,"count":19716,"min":[0.00266700005158782,0.005830000154674053],"max":[0.9973329901695251,0.9947999715805054],"type":"VEC2","bufferView":2,"byteOffset":0},{"name":"Goodra_1_0_indices","componentType":5123,"count":19716,"min":[0],"max":[19715],"type":"SCALAR","bufferView":3,"byteOffset":0},{"name":"Goodra_1_1_positions","componentType":5126,"count":312,"min":[-15.422800064086914,169.5790252685547,47.13370132446289],"max":[15.422800064086914,191.59503173828125,65.0757064819336],"type":"VEC3","bufferView":0,"byteOffset":236592},{"name":"Goodra_1_1_normals","componentType":5126,"count":312,"min":[-0.9993070363998413,-0.7153587341308594,-0.9939575791358948],"max":[0.560857355594635,0.9080544114112854,0.9958260655403137],"type":"VEC3","bufferView":1,"byteOffset":236592},{"name":"Goodra_1_1_texcoords","componentType":5126,"count":312,"min":[0.04831499978899956,-0.9894499778747559],"max":[0.45170000195503235,-0.7610700130462646],"type":"VEC2","bufferView":2,"byteOffset":157728},{"name":"Goodra_1_1_indices","componentType":5123,"count":312,"min":[0],"max":[311],"type":"SCALAR","bufferView":3,"byteOffset":39432},{"name":"Goodra_1_2_positions","componentType":5126,"count":504,"min":[-12.934800148010254,163.0070343017578,54.83000564575195],"max":[12.934800148010254,177.08802795410156,67.9889144897461],"type":"VEC3","bufferView":0,"byteOffset":240336},{"name":"Goodra_1_2_normals","componentType":5126,"count":504,"min":[-0.9729188680648804,-0.999779224395752,-0.9616425037384033],"max":[0.6160901784896851,0.8990426659584045,0.958733320236206],"type":"VEC3","bufferView":1,"byteOffset":240336},{"name":"Goodra_1_2_texcoords","componentType":5126,"count":504,"min":[0.01822800002992153,-1.9930800199508667],"max":[0.48177000880241394,-1.7648500204086304],"type":"VEC2","bufferView":2,"byteOffset":160224},{"name":"Goodra_1_2_indices","componentType":5123,"count":504,"min":[0],"max":[503],"type":"SCALAR","bufferView":3,"byteOffset":40056},{"name":"Goodra_GooDrops_1_0_positions","componentType":5126,"count":1728,"min":[-13.771699905395508,-3.7717208862304688,-3.7717208862304688],"max":[13.771699905395508,3.7717208862304688,3.7717199325561523],"type":"VEC3","bufferView":0,"byteOffset":246384},{"name":"Goodra_GooDrops_1_0_normals","componentType":5126,"count":1728,"min":[-1,-0.7071147561073303,-0.35195913910865784],"max":[1,1,1],"type":"VEC3","bufferView":1,"byteOffset":246384},{"name":"Goodra_GooDrops_1_0_texcoords","componentType":5126,"count":1728,"min":[0.4559909999370575,0.6176819801330566],"max":[0.5440080165863037,0.9956049919128418],"type":"VEC2","bufferView":2,"byteOffset":164256},{"name":"Goodra_GooDrops_1_0_indices","componentType":5123,"count":1728,"min":[0],"max":[1727],"type":"SCALAR","bufferView":3,"byteOffset":41064}],"asset":{"generator":"obj2gltf","version":"2.0"},"buffers":[{"name":"XY_Goodra","byteLength":823596,"uri":"data:application/octet-stream;base64,"}],"bufferViews":[{"name":"bufferView_0","buffer":0,"byteLength":267120,"byteOffset":0,"byteStride":12,"target":34962},{"name":"bufferView_1","buffer":0,"byteLength":267120,"byteOffset":267120,"byteStride":12,"target":34962},{"name":"bufferView_2","buffer":0,"byteLength":178080,"byteOffset":534240,"byteStride":8,"target":34962},{"name":"bufferView_3","buffer":0,"byteLength":44520,"byteOffset":712320,"target":34963},{"buffer":0,"byteOffset":756840,"byteLength":20558},{"buffer":0,"byteOffset":777398,"byteLength":26861},{"buffer":0,"byteOffset":804259,"byteLength":19335}],"images":[{"name":"pm0765_00_Body1","mimeType":"image/png","bufferView":4},{"name":"pm0765_00_Eye1","mimeType":"image/png","bufferView":5},{"name":"pm0765_00_Mouth1","mimeType":"image/png","bufferView":6}],"materials":[{"name":"Material__10","pbrMetallicRoughness":{"baseColorTexture":{"index":0},"baseColorFactor":[1,1,1,1],"metallicFactor":0,"roughnessFactor":0.998},"emissiveFactor":[0,0,0],"alphaMode":"OPAQUE","doubleSided":false},{"name":"Material__11","pbrMetallicRoughness":{"baseColorTexture":{"index":1},"baseColorFactor":[1,1,1,1],"metallicFactor":0,"roughnessFactor":0.998},"emissiveFactor":[0,0,0],"alphaMode":"OPAQUE","doubleSided":false},{"name":"Material__12","pbrMetallicRoughness":{"baseColorTexture":{"index":2},"baseColorFactor":[1,1,1,1],"metallicFactor":0,"roughnessFactor":0.998},"emissiveFactor":[0,0,0],"alphaMode":"OPAQUE","doubleSided":false}],"meshes":[{"name":"Goodra_1","primitives":[{"attributes":{"POSITION":0,"NORMAL":1,"TEXCOORD_0":2},"indices":3,"material":0,"mode":4},{"attributes":{"POSITION":4,"NORMAL":5,"TEXCOORD_0":6},"indices":7,"material":1,"mode":4},{"attributes":{"POSITION":8,"NORMAL":9,"TEXCOORD_0":10},"indices":11,"material":2,"mode":4}]},{"name":"Goodra_GooDrops_1","primitives":[{"attributes":{"POSITION":12,"NORMAL":13,"TEXCOORD_0":14},"indices":15,"material":0,"mode":4}]}],"nodes":[{"name":"Goodra","mesh":0},{"name":"Goodra_GooDrops","mesh":1}],"samplers":[{"wrapS":10497,"wrapT":10497}],"scene":0,"scenes":[{"nodes":[0,1]}],"textures":[{"name":"pm0765_00_Body1","sampler":0,"source":0},{"name":"pm0765_00_Eye1","sampler":0,"source":1},{"name":"pm0765_00_Mouth1","sampler":0,"source":2}]}