{"accessors":[{"name":"Klefki_1_0_positions","componentType":5126,"count":9768,"min":[-12.158304214477539,-10.213500022888184,-3.306220054626465],"max":[10.401118278503418,4.3242998123168945,3.306220054626465],"type":"VEC3","bufferView":0,"byteOffset":0},{"name":"Klefki_1_0_normals","componentType":5126,"count":9768,"min":[-0.5698449611663818,-0.5711421966552734,-1],"max":[0.5699358582496643,0.5688928961753845,1],"type":"VEC3","bufferView":1,"byteOffset":0},{"name":"Klefki_1_0_texcoords","componentType":5126,"count":9768,"min":[0.0703129991889,0.0078119998797774315],"max":[0.9296879768371582,0.9807500243186951],"type":"VEC2","bufferView":2,"byteOffset":0},{"name":"Klefki_1_0_indices","componentType":5123,"count":9768,"min":[0],"max":[9767],"type":"SCALAR","bufferView":3,"byteOffset":0},{"name":"KlefkiA_1_0_positions","componentType":5126,"count":7968,"min":[-9.90463924407959,-5.074029922485352,-3.5880579948425293],"max":[9.904642105102539,20.017900466918945,3.549010992050171],"type":"VEC3","bufferView":0,"byteOffset":117216},{"name":"KlefkiA_1_0_normals","componentType":5126,"count":7968,"min":[-0.9564334750175476,-0.9558960795402527,-0.9999998807907104],"max":[0.957300066947937,0.9564149379730225,0.9999962449073792],"type":"VEC3","bufferView":1,"byteOffset":117216},{"name":"KlefkiA_1_0_texcoords","componentType":5126,"count":7968,"min":[0.004497000016272068,0.01246500015258789],"max":[0.9955030083656311,0.9921879768371582],"type":"VEC2","bufferView":2,"byteOffset":78144},{"name":"KlefkiA_1_0_indices","componentType":5123,"count":7968,"min":[0],"max":[7967],"type":"SCALAR","bufferView":3,"byteOffset":19536},{"name":"KlefkiA_1_1_positions","componentType":5126,"count":198,"min":[-2.1565439701080322,4.803970813751221,2.6484620571136475],"max":[2.156615972518921,7.878664016723633,3.6030819416046143],"type":"VEC3","bufferView":0,"byteOffset":212832},{"name":"KlefkiA_1_1_normals","componentType":5126,"count":198,"min":[-0.5505481958389282,-0.9490067362785339,-0.9999949932098389],"max":[0.9053469300270081,0.9492431879043579,0.9999962449073792],"type":"VEC3","bufferView":1,"byteOffset":212832},{"name":"KlefkiA_1_1_texcoords","componentType":5126,"count":198,"min":[0.08482900261878967,-1.9940299987792969],"max":[0.41517001390457153,-1.755139946937561],"type":"VEC2","bufferView":2,"byteOffset":141888},{"name":"KlefkiA_1_1_indices","componentType":5123,"count":198,"min":[0],"max":[197],"type":"SCALAR","bufferView":3,"byteOffset":35472},{"name":"KlefkiA_1_2_positions","componentType":5126,"count":162,"min":[-2.4255199432373047,5.958927154541016,2.6351399421691895],"max":[2.4255800247192383,8.386004447937012,3.5405609607696533],"type":"VEC3","bufferView":0,"byteOffset":215208},{"name":"KlefkiA_1_2_normals","componentType":5126,"count":162,"min":[-0.8548332452774048,-0.9551766514778137,-0.9999988079071045],"max":[0.9510800242424011,0.9492431879043579,0.9999483227729797],"type":"VEC3","bufferView":1,"byteOffset":215208},{"name":"KlefkiA_1_2_texcoords","componentType":5126,"count":162,"min":[0.031936001032590866,-0.9921900033950806],"max":[0.4680599868297577,-0.7576000094413757],"type":"VEC2","bufferView":2,"byteOffset":143472},{"name":"KlefkiA_1_2_indices","componentType":5123,"count":162,"min":[0],"max":[161],"type":"SCALAR","bufferView":3,"byteOffset":35868},{"name":"KlefkiB_1_0_positions","componentType":5126,"count":9348,"min":[-27.103300094604492,0.00761099997907877,-3.5880579948425293],"max":[27.103300094604492,20.446500778198242,3.549010992050171],"type":"VEC3","bufferView":0,"byteOffset":217152},{"name":"KlefkiB_1_0_normals","componentType":5126,"count":9348,"min":[-0.5109281539916992,-0.9012922048568726,-0.9999992847442627],"max":[0.98502516746521,0.9444333910942078,0.9999992847442627],"type":"VEC3","bufferView":1,"byteOffset":217152},{"name":"KlefkiB_1_0_texcoords","componentType":5126,"count":9348,"min":[0.004497000016272068,0.01246500015258789],"max":[0.9955030083656311,0.8710939884185791],"type":"VEC2","bufferView":2,"byteOffset":144768},{"name":"KlefkiB_1_0_indices","componentType":5123,"count":9348,"min":[0],"max":[9347],"type":"SCALAR","bufferView":3,"byteOffset":36192},{"name":"KlefkiB_1_1_positions","componentType":5126,"count":198,"min":[-2.1565439701080322,4.803970813751221,2.6484620571136475],"max":[2.156615972518921,7.878664016723633,3.6030819416046143],"type":"VEC3","bufferView":0,"byteOffset":329328},{"name":"KlefkiB_1_1_normals","componentType":5126,"count":198,"min":[-0.5109281539916992,-0.9012922048568726,-0.9999992251396179],"max":[0.26579615473747253,0.9035282135009766,0.8571341633796692],"type":"VEC3","bufferView":1,"byteOffset":329328},{"name":"KlefkiB_1_1_texcoords","componentType":5126,"count":198,"min":[0.08482900261878967,-1.9940299987792969],"max":[0.41517001390457153,-1.755139946937561],"type":"VEC2","bufferView":2,"byteOffset":219552},{"name":"KlefkiB_1_1_indices","componentType":5123,"count":198,"min":[0],"max":[197],"type":"SCALAR","bufferView":3,"byteOffset":54888},{"name":"KlefkiB_1_2_positions","componentType":5126,"count":162,"min":[-2.4255199432373047,5.958927154541016,2.6351399421691895],"max":[2.4255800247192383,8.386004447937012,3.5405609607696533],"type":"VEC3","bufferView":0,"byteOffset":331704},{"name":"KlefkiB_1_2_normals","componentType":5126,"count":162,"min":[-0.5109281539916992,-0.9008579850196838,-0.9999992251396179],"max":[0.26578009128570557,0.9035282135009766,0.9999992251396179],"type":"VEC3","bufferView":1,"byteOffset":331704},{"name":"KlefkiB_1_2_texcoords","componentType":5126,"count":162,"min":[0.031936001032590866,-0.9921900033950806],"max":[0.4680599868297577,-0.7576000094413757],"type":"VEC2","bufferView":2,"byteOffset":221136},{"name":"KlefkiB_1_2_indices","componentType":5123,"count":162,"min":[0],"max":[161],"type":"SCALAR","bufferView":3,"byteOffset":55284}],"asset":{"generator":"obj2gltf","version":"2.0"},"buffers":[{"name":"XY_Klefki","byteLength":983840,"uri":"data:application/octet-stream;base64,"}],"bufferViews":[{"name":"bufferView_0","buffer":0,"byteLength":333648,"byteOffset":0,"byteStride":12,"target":34962},{"name":"bufferView_1","buffer":0,"byteLength":333648,"byteOffset":333648,"byteStride":12,"target":34962},{"name":"bufferView_2","buffer":0,"byteLength":222432,"byteOffset":667296,"byteStride":8,"target":34962},{"name":"bufferView_3","buffer":0,"byteLength":55608,"byteOffset":889728,"target":34963},{"buffer":0,"byteOffset":945336,"byteLength":16672},{"buffer":0,"byteOffset":962008,"byteLength":9320},{"buffer":0,"byteOffset":971328,"byteLength":12510}],"images":[{"name":"pm0760_00_Body1","mimeType":"image/png","bufferView":4},{"name":"pm0760_00_Mouth1","mimeType":"image/png","bufferView":5},{"name":"pm0760_00_Eye1","mimeType":"image/png","bufferView":6}],"materials":[{"name":"Material__21","pbrMetallicRoughness":{"baseColorTexture":{"index":0},"baseColorFactor":[1,1,1,1],"metallicFactor":0,"roughnessFactor":0.998},"emissiveFactor":[0,0,0],"alphaMode":"OPAQUE","doubleSided":false},{"name":"Material__22","pbrMetallicRoughness":{"baseColorTexture":{"index":1},"baseColorFactor":[1,1,1,1],"metallicFactor":0,"roughnessFactor":0.998},"emissiveFactor":[0,0,0],"alphaMode":"OPAQUE","doubleSided":false},{"name":"Material__23","pbrMetallicRoughness":{"baseColorTexture":{"index":2},"baseColorFactor":[1,1,1,1],"metallicFactor":0,"roughnessFactor":0.998},"emissiveFactor":[0,0,0],"alphaMode":"OPAQUE","doubleSided":false}],"meshes":[{"name":"Klefki_1","primitives":[{"attributes":{"POSITION":0,"NORMAL":1,"TEXCOORD_0":2},"indices":3,"material":0,"mode":4}]},{"name":"KlefkiA_1","primitives":[{"attributes":{"POSITION":4,"NORMAL":5,"TEXCOORD_0":6},"indices":7,"material":0,"mode":4},{"attributes":{"POSITION":8,"NORMAL":9,"TEXCOORD_0":10},"indices":11,"material":1,"mode":4},{"attributes":{"POSITION":12,"NORMAL":13,"TEXCOORD_0":14},"indices":15,"material":2,"mode":4}]},{"name":"KlefkiB_1","primitives":[{"attributes":{"POSITION":16,"NORMAL":17,"TEXCOORD_0":18},"indices":19,"material":0,"mode":4},{"attributes":{"POSITION":20,"NORMAL":21,"TEXCOORD_0":22},"indices":23,"material":1,"mode":4},{"attributes":{"POSITION":24,"NORMAL":25,"TEXCOORD_0":26},"indices":27,"material":2,"mode":4}]}],"nodes":[{"name":"Klefki","mesh":0},{"name":"KlefkiA","mesh":1},{"name":"KlefkiB","mesh":2}],"samplers":[{"wrapS":10497,"wrapT":10497}],"scene":0,"scenes":[{"nodes":[0,1,2]}],"textures":[{"name":"pm0760_00_Body1","sampler":0,"source":0},{"name":"pm0760_00_Mouth1","sampler":0,"source":1},{"name":"pm0760_00_Eye1","sampler":0,"source":2}]}