{"accessors":[{"name":"Pumpkaboo_1_0_positions","componentType":5126,"count":15426,"min":[-29.04800033569336,0.04298499971628189,-19.044597625732422],"max":[29.04800033569336,53.896705627441406,19.061302185058594],"type":"VEC3","bufferView":0,"byteOffset":0},{"name":"Pumpkaboo_1_0_normals","componentType":5126,"count":15426,"min":[-0.9890904426574707,-0.9993153810501099,-0.9953159093856812],"max":[0.9890905022621155,0.9990807175636292,0.9997661709785461],"type":"VEC3","bufferView":1,"byteOffset":0},{"name":"Pumpkaboo_1_0_texcoords","componentType":5126,"count":15426,"min":[0.00674699991941452,0.009440000168979168],"max":[0.9932529926300049,0.9892740249633789],"type":"VEC2","bufferView":2,"byteOffset":0},{"name":"Pumpkaboo_1_0_indices","componentType":5123,"count":15426,"min":[0],"max":[15425],"type":"SCALAR","bufferView":3,"byteOffset":0},{"name":"Pumpkaboo_1_1_positions","componentType":5126,"count":72,"min":[-7.10839319229126,31.163188934326172,6.2214860916137695],"max":[7.108346939086914,35.91990661621094,9.891496658325195],"type":"VEC3","bufferView":0,"byteOffset":185112},{"name":"Pumpkaboo_1_1_normals","componentType":5126,"count":72,"min":[-0.23928409814834595,-0.7968960404396057,-0.9740413427352905],"max":[0.7456482648849487,0.5153799057006836,0.8931975960731506],"type":"VEC3","bufferView":1,"byteOffset":185112},{"name":"Pumpkaboo_1_1_texcoords","componentType":5126,"count":72,"min":[0.005714000202715397,-0.9804700016975403],"max":[0.49428999423980713,-0.7656199932098389],"type":"VEC2","bufferView":2,"byteOffset":123408},{"name":"Pumpkaboo_1_1_indices","componentType":5123,"count":72,"min":[0],"max":[71],"type":"SCALAR","bufferView":3,"byteOffset":30852},{"name":"Pumpkaboo_1_2_positions","componentType":5126,"count":60,"min":[-4.1834211349487305,28.476388931274414,8.92442798614502],"max":[4.183380126953125,33.6410026550293,12.077797889709473],"type":"VEC3","bufferView":0,"byteOffset":185976},{"name":"Pumpkaboo_1_2_normals","componentType":5126,"count":60,"min":[-0.20606596767902374,-0.9846041798591614,-0.9740413427352905],"max":[0.7456482648849487,0.8426660895347595,0.8983378410339355],"type":"VEC3","bufferView":1,"byteOffset":185976},{"name":"Pumpkaboo_1_2_texcoords","componentType":5126,"count":60,"min":[0.0898440033197403,-1.9921900033950806],"max":[0.41016000509262085,-1.7578099966049194],"type":"VEC2","bufferView":2,"byteOffset":123984},{"name":"Pumpkaboo_1_2_indices","componentType":5123,"count":60,"min":[0],"max":[59],"type":"SCALAR","bufferView":3,"byteOffset":30996},{"name":"Pumpkaboo_1_3_positions","componentType":5126,"count":144,"min":[-13.271895408630371,8.62586784362793,9.877209663391113],"max":[13.271904945373535,16.181842803955078,14.799501419067383],"type":"VEC3","bufferView":0,"byteOffset":186696},{"name":"Pumpkaboo_1_3_normals","componentType":5126,"count":144,"min":[-0.7815998792648315,0.11114499717950821,-0.8678839206695557],"max":[0.8208617568016052,0.9954091906547546,0.7928177118301392],"type":"VEC3","bufferView":1,"byteOffset":186696},{"name":"Pumpkaboo_1_3_texcoords","componentType":5126,"count":144,"min":[0.3003169894218445,0.012608000077307224],"max":[1.1996829509735107,0.14342699944972992],"type":"VEC2","bufferView":2,"byteOffset":124464},{"name":"Pumpkaboo_1_3_indices","componentType":5123,"count":144,"min":[0],"max":[143],"type":"SCALAR","bufferView":3,"byteOffset":31116}],"asset":{"generator":"obj2gltf","version":"2.0"},"buffers":[{"name":"XY_Pumpkaboo","byteLength":603220,"uri":"data:application/octet-stream;base64,"}],"bufferViews":[{"name":"bufferView_0","buffer":0,"byteLength":188424,"byteOffset":0,"byteStride":12,"target":34962},{"name":"bufferView_1","buffer":0,"byteLength":188424,"byteOffset":188424,"byteStride":12,"target":34962},{"name":"bufferView_2","buffer":0,"byteLength":125616,"byteOffset":376848,"byteStride":8,"target":34962},{"name":"bufferView_3","buffer":0,"byteLength":31404,"byteOffset":502464,"target":34963},{"buffer":0,"byteOffset":533868,"byteLength":39422},{"buffer":0,"byteOffset":573290,"byteLength":13473},{"buffer":0,"byteOffset":586763,"byteLength":11586},{"buffer":0,"byteOffset":598349,"byteLength":4869}],"images":[{"name":"pm0735_11_BodyA1","mimeType":"image/png","bufferView":4},{"name":"pm0735_11_Eye1","mimeType":"image/png","bufferView":5},{"name":"pm0735_11_Mouth1","mimeType":"image/png","bufferView":6},{"name":"pm0735_11_BodyB1","mimeType":"image/png","bufferView":7}],"materials":[{"name":"Material__38","pbrMetallicRoughness":{"baseColorTexture":{"index":0},"baseColorFactor":[1,1,1,1],"metallicFactor":0,"roughnessFactor":0.998},"emissiveFactor":[0,0,0],"alphaMode":"OPAQUE","doubleSided":false},{"name":"Material__39","pbrMetallicRoughness":{"baseColorTexture":{"index":1},"baseColorFactor":[1,1,1,1],"metallicFactor":0,"roughnessFactor":0.998},"emissiveFactor":[0,0,0],"alphaMode":"OPAQUE","doubleSided":false},{"name":"Material__40","pbrMetallicRoughness":{"baseColorTexture":{"index":2},"baseColorFactor":[1,1,1,1],"metallicFactor":0,"roughnessFactor":0.998},"emissiveFactor":[0,0,0],"alphaMode":"OPAQUE","doubleSided":false},{"name":"Material__41","pbrMetallicRoughness":{"baseColorTexture":{"index":3},"baseColorFactor":[1,1,1,1],"metallicFactor":0,"roughnessFactor":0.998},"emissiveFactor":[0,0,0],"alphaMode":"OPAQUE","doubleSided":false}],"meshes":[{"name":"Pumpkaboo_1","primitives":[{"attributes":{"POSITION":0,"NORMAL":1,"TEXCOORD_0":2},"indices":3,"material":0,"mode":4},{"attributes":{"POSITION":4,"NORMAL":5,"TEXCOORD_0":6},"indices":7,"material":1,"mode":4},{"attributes":{"POSITION":8,"NORMAL":9,"TEXCOORD_0":10},"indices":11,"material":2,"mode":4},{"attributes":{"POSITION":12,"NORMAL":13,"TEXCOORD_0":14},"indices":15,"material":3,"mode":4}]}],"nodes":[{"name":"Pumpkaboo","mesh":0}],"samplers":[{"wrapS":10497,"wrapT":10497}],"scene":0,"scenes":[{"nodes":[0]}],"textures":[{"name":"pm0735_11_BodyA1","sampler":0,"source":0},{"name":"pm0735_11_Eye1","sampler":0,"source":1},{"name":"pm0735_11_Mouth1","sampler":0,"source":2},{"name":"pm0735_11_BodyB1","sampler":0,"source":3}]}