{"accessors":[{"name":"Gourgeist_1_0_positions","componentType":5126,"count":17577,"min":[-42.160301208496094,-0.000003000000106112566,-22.90119171142578],"max":[42.160301208496094,104.0979995727539,22.47360610961914],"type":"VEC3","bufferView":0,"byteOffset":0},{"name":"Gourgeist_1_0_normals","componentType":5126,"count":17577,"min":[-0.9974939227104187,-0.9996107220649719,-0.9997398853302002],"max":[0.9059187173843384,0.9757691621780396,0.999860405921936],"type":"VEC3","bufferView":1,"byteOffset":0},{"name":"Gourgeist_1_0_texcoords","componentType":5126,"count":17577,"min":[0.005859000142663717,0.00760400015860796],"max":[0.9921879768371582,0.9921870231628418],"type":"VEC2","bufferView":2,"byteOffset":0},{"name":"Gourgeist_1_0_indices","componentType":5123,"count":17577,"min":[0],"max":[17576],"type":"SCALAR","bufferView":3,"byteOffset":0},{"name":"Gourgeist_1_1_positions","componentType":5126,"count":132,"min":[-5.721864223480225,71.82947540283203,3.232836961746216],"max":[5.721816062927246,79.10800170898438,6.638974189758301],"type":"VEC3","bufferView":0,"byteOffset":210924},{"name":"Gourgeist_1_1_normals","componentType":5126,"count":132,"min":[-0.6885190010070801,-0.27056100964546204,0.6733540296554565],"max":[0.5338470935821533,0.44662123918533325,0.9705710411071777],"type":"VEC3","bufferView":1,"byteOffset":210924},{"name":"Gourgeist_1_1_texcoords","componentType":5126,"count":132,"min":[0.011718999594449997,-0.9921900033950806],"max":[0.4882799983024597,-0.7578099966049194],"type":"VEC2","bufferView":2,"byteOffset":140616},{"name":"Gourgeist_1_1_indices","componentType":5123,"count":132,"min":[0],"max":[131],"type":"SCALAR","bufferView":3,"byteOffset":35156},{"name":"Gourgeist_1_2_positions","componentType":5126,"count":60,"min":[-3.389838933944702,66.73770141601562,5.820757865905762],"max":[3.389801025390625,74.35210418701172,6.921698093414307],"type":"VEC3","bufferView":0,"byteOffset":212508},{"name":"Gourgeist_1_2_normals","componentType":5126,"count":60,"min":[-0.6907121539115906,-0.4224468469619751,-0.03873100504279137],"max":[0.9056086540222168,0.5956401228904724,0.9615691304206848],"type":"VEC3","bufferView":1,"byteOffset":212508},{"name":"Gourgeist_1_2_texcoords","componentType":5126,"count":60,"min":[0.023437999188899994,-1.9922300577163696],"max":[0.47655999660491943,-1.7578099966049194],"type":"VEC2","bufferView":2,"byteOffset":141672},{"name":"Gourgeist_1_2_indices","componentType":5123,"count":60,"min":[0],"max":[59],"type":"SCALAR","bufferView":3,"byteOffset":35420},{"name":"Gourgeist_GlowOuter_1_0_positions","componentType":5126,"count":744,"min":[-15.363890647888184,10.183106422424316,16.375703811645508],"max":[15.364109992980957,38.12866973876953,22.51540756225586],"type":"VEC3","bufferView":0,"byteOffset":213228},{"name":"Gourgeist_GlowOuter_1_0_normals","componentType":5126,"count":744,"min":[-0.3047140836715698,0.20357394218444824,0.7532971501350403],"max":[0.5573301315307617,0.4979858696460724,0.9705806970596313],"type":"VEC3","bufferView":1,"byteOffset":213228},{"name":"Gourgeist_GlowOuter_1_0_texcoords","componentType":5126,"count":744,"min":[0.4204620122909546,0.828216016292572],"max":[0.5795379877090454,0.9921870231628418],"type":"VEC2","bufferView":2,"byteOffset":142152},{"name":"Gourgeist_GlowOuter_1_0_indices","componentType":5123,"count":744,"min":[0],"max":[743],"type":"SCALAR","bufferView":3,"byteOffset":35540},{"name":"Gourgeist_GlowInner_1_0_positions","componentType":5126,"count":744,"min":[-13.641185760498047,11.14200496673584,14.023900985717773],"max":[13.641413688659668,37.1474609375,19.626108169555664],"type":"VEC3","bufferView":0,"byteOffset":222156},{"name":"Gourgeist_GlowInner_1_0_normals","componentType":5126,"count":744,"min":[-0.5663632750511169,0.1817280501127243,0.7178899049758911],"max":[0.5825508832931519,0.5336508750915527,0.9780802726745605],"type":"VEC3","bufferView":1,"byteOffset":222156},{"name":"Gourgeist_GlowInner_1_0_texcoords","componentType":5126,"count":744,"min":[0.2004529982805252,0.8423910140991211],"max":[0.799547016620636,0.9921870231628418],"type":"VEC2","bufferView":2,"byteOffset":148104},{"name":"Gourgeist_GlowInner_1_0_indices","componentType":5123,"count":744,"min":[0],"max":[743],"type":"SCALAR","bufferView":3,"byteOffset":37028}],"asset":{"generator":"obj2gltf","version":"2.0"},"buffers":[{"name":"XY_Gourgeist","byteLength":724460,"uri":"data:application/octet-stream;base64,"}],"bufferViews":[{"name":"bufferView_0","buffer":0,"byteLength":231084,"byteOffset":0,"byteStride":12,"target":34962},{"name":"bufferView_1","buffer":0,"byteLength":231084,"byteOffset":231084,"byteStride":12,"target":34962},{"name":"bufferView_2","buffer":0,"byteLength":154056,"byteOffset":462168,"byteStride":8,"target":34962},{"name":"bufferView_3","buffer":0,"byteLength":38516,"byteOffset":616224,"target":34963},{"buffer":0,"byteOffset":654740,"byteLength":44905},{"buffer":0,"byteOffset":699645,"byteLength":16222},{"buffer":0,"byteOffset":715867,"byteLength":8591}],"images":[{"name":"pm0736_11_Body1","mimeType":"image/png","bufferView":4},{"name":"pm0736_11_Eye1","mimeType":"image/png","bufferView":5},{"name":"pm0736_11_Mouth1","mimeType":"image/png","bufferView":6}],"materials":[{"name":"Material__10","pbrMetallicRoughness":{"baseColorTexture":{"index":0},"baseColorFactor":[1,1,1,1],"metallicFactor":0,"roughnessFactor":0.998},"emissiveFactor":[0,0,0],"alphaMode":"OPAQUE","doubleSided":false},{"name":"Material__11","pbrMetallicRoughness":{"baseColorTexture":{"index":1},"baseColorFactor":[1,1,1,1],"metallicFactor":0,"roughnessFactor":0.998},"emissiveFactor":[0,0,0],"alphaMode":"OPAQUE","doubleSided":false},{"name":"Material__12","pbrMetallicRoughness":{"baseColorTexture":{"index":2},"baseColorFactor":[1,1,1,1],"metallicFactor":0,"roughnessFactor":0.998},"emissiveFactor":[0,0,0],"alphaMode":"OPAQUE","doubleSided":false}],"meshes":[{"name":"Gourgeist_1","primitives":[{"attributes":{"POSITION":0,"NORMAL":1,"TEXCOORD_0":2},"indices":3,"material":0,"mode":4},{"attributes":{"POSITION":4,"NORMAL":5,"TEXCOORD_0":6},"indices":7,"material":1,"mode":4},{"attributes":{"POSITION":8,"NORMAL":9,"TEXCOORD_0":10},"indices":11,"material":2,"mode":4}]},{"name":"Gourgeist_GlowOuter_1","primitives":[{"attributes":{"POSITION":12,"NORMAL":13,"TEXCOORD_0":14},"indices":15,"material":0,"mode":4}]},{"name":"Gourgeist_GlowInner_1","primitives":[{"attributes":{"POSITION":16,"NORMAL":17,"TEXCOORD_0":18},"indices":19,"material":0,"mode":4}]}],"nodes":[{"name":"Gourgeist","mesh":0},{"name":"Gourgeist_GlowOuter","mesh":1},{"name":"Gourgeist_GlowInner","mesh":2}],"samplers":[{"wrapS":10497,"wrapT":10497}],"scene":0,"scenes":[{"nodes":[0,1,2]}],"textures":[{"name":"pm0736_11_Body1","sampler":0,"source":0},{"name":"pm0736_11_Eye1","sampler":0,"source":1},{"name":"pm0736_11_Mouth1","sampler":0,"source":2}]}