{"accessors":[{"name":"Noibat_1_0_positions","componentType":5126,"count":17874,"min":[-54.941402435302734,0.23409199714660645,-23.036800384521484],"max":[54.94139862060547,83.8049087524414,16.10260009765625],"type":"VEC3","bufferView":0,"byteOffset":0},{"name":"Noibat_1_0_normals","componentType":5126,"count":17874,"min":[-0.9971104264259338,-0.9994295835494995,-0.9996988773345947],"max":[0.9971107244491577,0.9993093013763428,0.9901581406593323],"type":"VEC3","bufferView":1,"byteOffset":0},{"name":"Noibat_1_0_texcoords","componentType":5126,"count":17874,"min":[0,0.01191600039601326],"max":[1,0.9882810115814209],"type":"VEC2","bufferView":2,"byteOffset":0},{"name":"Noibat_1_0_indices","componentType":5123,"count":17874,"min":[0],"max":[17873],"type":"SCALAR","bufferView":3,"byteOffset":0},{"name":"Noibat_1_1_positions","componentType":5126,"count":594,"min":[-11.276636123657227,29.946269989013672,8.272271156311035],"max":[11.27656364440918,41.49763488769531,13.737201690673828],"type":"VEC3","bufferView":0,"byteOffset":214488},{"name":"Noibat_1_1_normals","componentType":5126,"count":594,"min":[-0.8577966094017029,-0.9856683611869812,-0.9712081551551819],"max":[0.9971104264259338,0.8026629090309143,0.9318878054618835],"type":"VEC3","bufferView":1,"byteOffset":214488},{"name":"Noibat_1_1_texcoords","componentType":5126,"count":594,"min":[0.06439799815416336,-0.987030029296875],"max":[0.43560001254081726,-0.76214998960495],"type":"VEC2","bufferView":2,"byteOffset":142992},{"name":"Noibat_1_1_indices","componentType":5123,"count":594,"min":[0],"max":[593],"type":"SCALAR","bufferView":3,"byteOffset":35748}],"asset":{"generator":"obj2gltf","version":"2.0"},"buffers":[{"name":"XY_Noibat","byteLength":736668,"uri":"data:application/octet-stream;base64,"}],"bufferViews":[{"name":"bufferView_0","buffer":0,"byteLength":221616,"byteOffset":0,"byteStride":12,"target":34962},{"name":"bufferView_1","buffer":0,"byteLength":221616,"byteOffset":221616,"byteStride":12,"target":34962},{"name":"bufferView_2","buffer":0,"byteLength":147744,"byteOffset":443232,"byteStride":8,"target":34962},{"name":"bufferView_3","buffer":0,"byteLength":36936,"byteOffset":590976,"target":34963},{"buffer":0,"byteOffset":627912,"byteLength":77571},{"buffer":0,"byteOffset":705483,"byteLength":31184}],"images":[{"name":"pm0716_00_Body1","mimeType":"image/png","bufferView":4},{"name":"pm0716_00_Eye1","mimeType":"image/png","bufferView":5}],"materials":[{"name":"Material__10","pbrMetallicRoughness":{"baseColorTexture":{"index":0},"baseColorFactor":[1,1,1,1],"metallicFactor":0,"roughnessFactor":0.998},"emissiveFactor":[0,0,0],"alphaMode":"OPAQUE","doubleSided":false},{"name":"Material__11","pbrMetallicRoughness":{"baseColorTexture":{"index":1},"baseColorFactor":[1,1,1,1],"metallicFactor":0,"roughnessFactor":0.998},"emissiveFactor":[0,0,0],"alphaMode":"OPAQUE","doubleSided":false}],"meshes":[{"name":"Noibat_1","primitives":[{"attributes":{"POSITION":0,"NORMAL":1,"TEXCOORD_0":2},"indices":3,"material":0,"mode":4},{"attributes":{"POSITION":4,"NORMAL":5,"TEXCOORD_0":6},"indices":7,"material":1,"mode":4}]}],"nodes":[{"name":"Noibat","mesh":0}],"samplers":[{"wrapS":10497,"wrapT":10497}],"scene":0,"scenes":[{"nodes":[0]}],"textures":[{"name":"pm0716_00_Body1","sampler":0,"source":0},{"name":"pm0716_00_Eye1","sampler":0,"source":1}]}