{"accessors":[{"name":"Noivern_1_0_positions","componentType":5126,"count":15990,"min":[-59.749290466308594,0.2692809998989105,-65.01860046386719],"max":[59.74930953979492,164.9119873046875,17.447099685668945],"type":"VEC3","bufferView":0,"byteOffset":0},{"name":"Noivern_1_0_normals","componentType":5126,"count":15990,"min":[-0.9996348023414612,-0.979558527469635,-0.9966230988502502],"max":[0.99959796667099,0.9883642792701721,0.9871339797973633],"type":"VEC3","bufferView":1,"byteOffset":0},{"name":"Noivern_1_0_texcoords","componentType":5126,"count":15990,"min":[0.0032309999223798513,0.004738999996334314],"max":[0.9967690110206604,0.9957860112190247],"type":"VEC2","bufferView":2,"byteOffset":0},{"name":"Noivern_1_0_indices","componentType":5123,"count":15990,"min":[0],"max":[15989],"type":"SCALAR","bufferView":3,"byteOffset":0},{"name":"Noivern_1_1_positions","componentType":5126,"count":10104,"min":[-153.50799560546875,-125.01399993896484,-63.78379440307617],"max":[153.50799560546875,168.3460235595703,11.745000839233398],"type":"VEC3","bufferView":0,"byteOffset":191880},{"name":"Noivern_1_1_normals","componentType":5126,"count":10104,"min":[-0.99959796667099,-0.9795584082603455,-0.9966232180595398],"max":[0.9996347427368164,0.9223853945732117,0.9871340990066528],"type":"VEC3","bufferView":1,"byteOffset":191880},{"name":"Noivern_1_1_texcoords","componentType":5126,"count":10104,"min":[0,-0.9957399964332581],"max":[1,-0.007269999943673611],"type":"VEC2","bufferView":2,"byteOffset":127920},{"name":"Noivern_1_1_indices","componentType":5123,"count":10104,"min":[0],"max":[10103],"type":"SCALAR","bufferView":3,"byteOffset":31980},{"name":"Noivern_1_2_positions","componentType":5126,"count":636,"min":[-10.718500137329102,154.49098205566406,3.2195279598236084],"max":[10.718500137329102,158.77598571777344,14.235901832580566],"type":"VEC3","bufferView":0,"byteOffset":313128},{"name":"Noivern_1_2_normals","componentType":5126,"count":636,"min":[-0.9412901997566223,-0.8977037072181702,-0.7219560742378235],"max":[0.9909275770187378,0.9883642792701721,0.9871339797973633],"type":"VEC3","bufferView":1,"byteOffset":313128},{"name":"Noivern_1_2_texcoords","componentType":5126,"count":636,"min":[0.006318999920040369,-1.971250057220459],"max":[0.4936800003051758,-1.778749942779541],"type":"VEC2","bufferView":2,"byteOffset":208752},{"name":"Noivern_1_2_indices","componentType":5123,"count":636,"min":[0],"max":[635],"type":"SCALAR","bufferView":3,"byteOffset":52188}],"asset":{"generator":"obj2gltf","version":"2.0"},"buffers":[{"name":"XY_Noivern","byteLength":1083404,"uri":"data:application/octet-stream;base64,"}],"bufferViews":[{"name":"bufferView_0","buffer":0,"byteLength":320760,"byteOffset":0,"byteStride":12,"target":34962},{"name":"bufferView_1","buffer":0,"byteLength":320760,"byteOffset":320760,"byteStride":12,"target":34962},{"name":"bufferView_2","buffer":0,"byteLength":213840,"byteOffset":641520,"byteStride":8,"target":34962},{"name":"bufferView_3","buffer":0,"byteLength":53460,"byteOffset":855360,"target":34963},{"buffer":0,"byteOffset":908820,"byteLength":86862},{"buffer":0,"byteOffset":995682,"byteLength":40111},{"buffer":0,"byteOffset":1035793,"byteLength":47608}],"images":[{"name":"pm0762_00_BodyA1","mimeType":"image/png","bufferView":4},{"name":"pm0762_00_BodyB1","mimeType":"image/png","bufferView":5},{"name":"pm0762_00_Eye1","mimeType":"image/png","bufferView":6}],"materials":[{"name":"Material__24","pbrMetallicRoughness":{"baseColorTexture":{"index":0},"baseColorFactor":[1,1,1,1],"metallicFactor":0,"roughnessFactor":0.998},"emissiveFactor":[0,0,0],"alphaMode":"OPAQUE","doubleSided":false},{"name":"Material__25","pbrMetallicRoughness":{"baseColorTexture":{"index":1},"baseColorFactor":[1,1,1,1],"metallicFactor":0,"roughnessFactor":0.998},"emissiveFactor":[0,0,0],"alphaMode":"OPAQUE","doubleSided":false},{"name":"Material__26","pbrMetallicRoughness":{"baseColorTexture":{"index":2},"baseColorFactor":[1,1,1,1],"metallicFactor":0,"roughnessFactor":0.998},"emissiveFactor":[0,0,0],"alphaMode":"OPAQUE","doubleSided":false}],"meshes":[{"name":"Noivern_1","primitives":[{"attributes":{"POSITION":0,"NORMAL":1,"TEXCOORD_0":2},"indices":3,"material":0,"mode":4},{"attributes":{"POSITION":4,"NORMAL":5,"TEXCOORD_0":6},"indices":7,"material":1,"mode":4},{"attributes":{"POSITION":8,"NORMAL":9,"TEXCOORD_0":10},"indices":11,"material":2,"mode":4}]}],"nodes":[{"name":"Noivern","mesh":0}],"samplers":[{"wrapS":10497,"wrapT":10497}],"scene":0,"scenes":[{"nodes":[0]}],"textures":[{"name":"pm0762_00_BodyA1","sampler":0,"source":0},{"name":"pm0762_00_BodyB1","sampler":0,"source":1},{"name":"pm0762_00_Eye1","sampler":0,"source":2}]}