{"accessors":[{"name":"Xerneas_1_0_positions","componentType":5126,"count":14466,"min":[-61.07830810546875,6.970283031463623,-188.45802307128906],"max":[61.07829284667969,329.07696533203125,138.2079620361328],"type":"VEC3","bufferView":0,"byteOffset":0},{"name":"Xerneas_1_0_normals","componentType":5126,"count":14466,"min":[-0.9908937215805054,-0.9937830567359924,-0.9999817609786987],"max":[0.9966251254081726,0.9925763607025146,0.99603670835495],"type":"VEC3","bufferView":1,"byteOffset":0},{"name":"Xerneas_1_0_texcoords","componentType":5126,"count":14466,"min":[0.004546999931335449,0.007000000216066837],"max":[0.9954530000686646,0.9912649989128113],"type":"VEC2","bufferView":2,"byteOffset":0},{"name":"Xerneas_1_0_indices","componentType":5123,"count":14466,"min":[0],"max":[14465],"type":"SCALAR","bufferView":3,"byteOffset":0},{"name":"Xerneas_1_1_positions","componentType":5126,"count":12228,"min":[-221.69900512695312,0.1423570066690445,-74.4179916381836],"max":[221.69900512695312,488.083984375,141.1029815673828],"type":"VEC3","bufferView":0,"byteOffset":173592},{"name":"Xerneas_1_1_normals","componentType":5126,"count":12228,"min":[-0.9966251254081726,-0.9999505281448364,-0.9999817609786987],"max":[0.9937869906425476,0.9925763607025146,0.99603670835495],"type":"VEC3","bufferView":1,"byteOffset":173592},{"name":"Xerneas_1_1_texcoords","componentType":5126,"count":12228,"min":[0.010468999855220318,-0.9909899830818176],"max":[0.9895309805870056,-0.010820000432431698],"type":"VEC2","bufferView":2,"byteOffset":115728},{"name":"Xerneas_1_1_indices","componentType":5123,"count":12228,"min":[0],"max":[12227],"type":"SCALAR","bufferView":3,"byteOffset":28932},{"name":"Xerneas_1_2_positions","componentType":5126,"count":72,"min":[-13.177200317382812,266.8929748535156,119.59696197509766],"max":[13.177200317382812,277.90997314453125,125.7299575805664],"type":"VEC3","bufferView":0,"byteOffset":320328},{"name":"Xerneas_1_2_normals","componentType":5126,"count":72,"min":[-0.9378247261047363,-0.37916406989097595,-0.763213038444519],"max":[0.9896581768989563,0.9747390151023865,0.9834319949150085],"type":"VEC3","bufferView":1,"byteOffset":320328},{"name":"Xerneas_1_2_texcoords","componentType":5126,"count":72,"min":[0.008047999814152718,-2.9101600646972656],"max":[0.49195000529289246,-2.828130006790161],"type":"VEC2","bufferView":2,"byteOffset":213552},{"name":"Xerneas_1_2_indices","componentType":5123,"count":72,"min":[0],"max":[71],"type":"SCALAR","bufferView":3,"byteOffset":53388},{"name":"Xerneas_1_3_positions","componentType":5126,"count":5796,"min":[-193.23802185058594,306.67095947265625,36.69397735595703],"max":[193.23802185058594,491.9190368652344,128.43199157714844],"type":"VEC3","bufferView":0,"byteOffset":321192},{"name":"Xerneas_1_3_normals","componentType":5126,"count":5796,"min":[-0.9854093790054321,-0.8980851769447327,-0.997431218624115],"max":[0.9866108298301697,0.9925763607025146,0.9999459385871887],"type":"VEC3","bufferView":1,"byteOffset":321192},{"name":"Xerneas_1_3_texcoords","componentType":5126,"count":5796,"min":[0.026517000049352646,-1.9576599597930908],"max":[0.9734839797019958,-1.0429600477218628],"type":"VEC2","bufferView":2,"byteOffset":214128},{"name":"Xerneas_1_3_indices","componentType":5123,"count":5796,"min":[0],"max":[5795],"type":"SCALAR","bufferView":3,"byteOffset":53532},{"name":"XerneasInactive_1_0_positions","componentType":5126,"count":15426,"min":[-61.07830810546875,6.970283031463623,-188.45802307128906],"max":[61.07829284667969,362.094970703125,138.2079620361328],"type":"VEC3","bufferView":0,"byteOffset":390744},{"name":"XerneasInactive_1_0_normals","componentType":5126,"count":15426,"min":[-0.9908937215805054,-0.9937830567359924,-0.9999817609786987],"max":[0.9966251254081726,0.9925763607025146,0.99603670835495],"type":"VEC3","bufferView":1,"byteOffset":390744},{"name":"XerneasInactive_1_0_texcoords","componentType":5126,"count":15426,"min":[0.004546999931335449,0.007000000216066837],"max":[0.9954530000686646,0.9912649989128113],"type":"VEC2","bufferView":2,"byteOffset":260496},{"name":"XerneasInactive_1_0_indices","componentType":5123,"count":15426,"min":[0],"max":[15425],"type":"SCALAR","bufferView":3,"byteOffset":65124},{"name":"XerneasInactive_1_1_positions","componentType":5126,"count":12228,"min":[-221.69900512695312,0.1423570066690445,-74.4179916381836],"max":[221.69900512695312,488.083984375,141.1029815673828],"type":"VEC3","bufferView":0,"byteOffset":575856},{"name":"XerneasInactive_1_1_normals","componentType":5126,"count":12228,"min":[-0.9966251254081726,-0.9999505281448364,-0.9999817609786987],"max":[0.9937869906425476,0.9925763607025146,0.99603670835495],"type":"VEC3","bufferView":1,"byteOffset":575856},{"name":"XerneasInactive_1_1_texcoords","componentType":5126,"count":12228,"min":[0.010468999855220318,-0.9909899830818176],"max":[0.9895309805870056,-0.010820000432431698],"type":"VEC2","bufferView":2,"byteOffset":383904},{"name":"XerneasInactive_1_1_indices","componentType":5123,"count":12228,"min":[0],"max":[12227],"type":"SCALAR","bufferView":3,"byteOffset":95976},{"name":"XerneasInactive_1_2_positions","componentType":5126,"count":72,"min":[-13.177200317382812,266.8929748535156,119.59696197509766],"max":[13.177200317382812,277.90997314453125,125.7299575805664],"type":"VEC3","bufferView":0,"byteOffset":722592},{"name":"XerneasInactive_1_2_normals","componentType":5126,"count":72,"min":[-0.9378247261047363,-0.37916406989097595,-0.763213038444519],"max":[0.9896581768989563,0.9747390151023865,0.9834319949150085],"type":"VEC3","bufferView":1,"byteOffset":722592},{"name":"XerneasInactive_1_2_texcoords","componentType":5126,"count":72,"min":[0.008047999814152718,-2.9101600646972656],"max":[0.49195000529289246,-2.828130006790161],"type":"VEC2","bufferView":2,"byteOffset":481728},{"name":"XerneasInactive_1_2_indices","componentType":5123,"count":72,"min":[0],"max":[71],"type":"SCALAR","bufferView":3,"byteOffset":120432},{"name":"Xerneas_Effect_1_0_positions","componentType":5126,"count":444,"min":[-22.135398864746094,175.94699096679688,-36.65184783935547],"max":[22.135398864746094,199.73501586914062,42.001304626464844],"type":"VEC3","bufferView":0,"byteOffset":723456},{"name":"Xerneas_Effect_1_0_normals","componentType":5126,"count":444,"min":[-0.9054632782936096,0.4066469371318817,-0.250406950712204],"max":[0.7324478030204773,0.8888158202171326,0.24646402895450592],"type":"VEC3","bufferView":1,"byteOffset":723456},{"name":"Xerneas_Effect_1_0_texcoords","componentType":5126,"count":444,"min":[0.054356999695301056,0.16898700594902039],"max":[0.45048099756240845,0.7041260004043579],"type":"VEC2","bufferView":2,"byteOffset":482304},{"name":"Xerneas_Effect_1_0_indices","componentType":5123,"count":444,"min":[0],"max":[443],"type":"SCALAR","bufferView":3,"byteOffset":120576},{"name":"Xerneas_Effect_Layer2_1_0_positions","componentType":5126,"count":444,"min":[-22.135398864746094,175.94699096679688,-36.65184783935547],"max":[22.135398864746094,199.73501586914062,42.001304626464844],"type":"VEC3","bufferView":0,"byteOffset":728784},{"name":"Xerneas_Effect_Layer2_1_0_normals","componentType":5126,"count":444,"min":[-0.9054632782936096,0.4066469371318817,-0.250406950712204],"max":[0.7324478030204773,0.8888158202171326,0.24646402895450592],"type":"VEC3","bufferView":1,"byteOffset":728784},{"name":"Xerneas_Effect_Layer2_1_0_texcoords","componentType":5126,"count":444,"min":[0.04024500027298927,0.04953499883413315],"max":[0.9591789841651917,0.9451950192451477],"type":"VEC2","bufferView":2,"byteOffset":485856},{"name":"Xerneas_Effect_Layer2_1_0_indices","componentType":5123,"count":444,"min":[0],"max":[443],"type":"SCALAR","bufferView":3,"byteOffset":121464}],"asset":{"generator":"obj2gltf","version":"2.0"},"buffers":[{"name":"XY_Xerneas","byteLength":2196488,"uri":"data:application/octet-stream;base64,"}],"bufferViews":[{"name":"bufferView_0","buffer":0,"byteLength":734112,"byteOffset":0,"byteStride":12,"target":34962},{"name":"bufferView_1","buffer":0,"byteLength":734112,"byteOffset":734112,"byteStride":12,"target":34962},{"name":"bufferView_2","buffer":0,"byteLength":489408,"byteOffset":1468224,"byteStride":8,"target":34962},{"name":"bufferView_3","buffer":0,"byteLength":122352,"byteOffset":1957632,"target":34963},{"buffer":0,"byteOffset":2079984,"byteLength":42784},{"buffer":0,"byteOffset":2122768,"byteLength":17658},{"buffer":0,"byteOffset":2140426,"byteLength":23489},{"buffer":0,"byteOffset":2163915,"byteLength":1568},{"buffer":0,"byteOffset":2165483,"byteLength":19074},{"buffer":0,"byteOffset":2184557,"byteLength":2147},{"buffer":0,"byteOffset":2186704,"byteLength":9781}],"images":[{"name":"pm0768_00_BodyA1","mimeType":"image/png","bufferView":4},{"name":"pm0768_00_BodyB1Active","mimeType":"image/png","bufferView":5},{"name":"pm0768_00_Eye1","mimeType":"image/png","bufferView":6},{"name":"pm0768_00_BodyC1","mimeType":"image/png","bufferView":7},{"name":"pm0768_00_BodyB1","mimeType":"image/png","bufferView":8},{"name":"pm0768_00_BodyC2","mimeType":"image/png","bufferView":9},{"name":"pm0768_00_BodyD2","mimeType":"image/png","bufferView":10}],"materials":[{"name":"Material__11","pbrMetallicRoughness":{"baseColorTexture":{"index":0},"baseColorFactor":[1,1,1,1],"metallicFactor":0,"roughnessFactor":0.998},"emissiveFactor":[0,0,0],"alphaMode":"OPAQUE","doubleSided":false},{"name":"Material__12","pbrMetallicRoughness":{"baseColorTexture":{"index":1},"baseColorFactor":[1,1,1,1],"metallicFactor":0,"roughnessFactor":0.998},"emissiveFactor":[0,0,0],"alphaMode":"OPAQUE","doubleSided":false},{"name":"Material__13","pbrMetallicRoughness":{"baseColorTexture":{"index":2},"baseColorFactor":[1,1,1,1],"metallicFactor":0,"roughnessFactor":0.998},"emissiveFactor":[0,0,0],"alphaMode":"OPAQUE","doubleSided":false},{"name":"Material__14","pbrMetallicRoughness":{"baseColorTexture":{"index":3},"baseColorFactor":[1,1,1,1],"metallicFactor":0,"roughnessFactor":0.998},"emissiveFactor":[0,0,0],"alphaMode":"OPAQUE","doubleSided":false},{"name":"Material__25","pbrMetallicRoughness":{"baseColorTexture":{"index":0},"baseColorFactor":[1,1,1,1],"metallicFactor":0,"roughnessFactor":0.998},"emissiveFactor":[0,0,0],"alphaMode":"OPAQUE","doubleSided":false},{"name":"Material__26","pbrMetallicRoughness":{"baseColorTexture":{"index":4},"baseColorFactor":[1,1,1,1],"metallicFactor":0,"roughnessFactor":0.998},"emissiveFactor":[0,0,0],"alphaMode":"OPAQUE","doubleSided":false},{"name":"Material__27","pbrMetallicRoughness":{"baseColorTexture":{"index":2},"baseColorFactor":[1,1,1,1],"metallicFactor":0,"roughnessFactor":0.998},"emissiveFactor":[0,0,0],"alphaMode":"OPAQUE","doubleSided":false},{"name":"Material__38","pbrMetallicRoughness":{"baseColorTexture":{"index":5},"baseColorFactor":[1,1,1,1],"metallicFactor":0,"roughnessFactor":0.998},"emissiveFactor":[0,0,0],"alphaMode":"OPAQUE","doubleSided":false},{"name":"Material__49","pbrMetallicRoughness":{"baseColorTexture":{"index":6},"baseColorFactor":[1,1,1,1],"metallicFactor":0,"roughnessFactor":0.998},"emissiveFactor":[0,0,0],"alphaMode":"OPAQUE","doubleSided":false}],"meshes":[{"name":"Xerneas_1","primitives":[{"attributes":{"POSITION":0,"NORMAL":1,"TEXCOORD_0":2},"indices":3,"material":0,"mode":4},{"attributes":{"POSITION":4,"NORMAL":5,"TEXCOORD_0":6},"indices":7,"material":1,"mode":4},{"attributes":{"POSITION":8,"NORMAL":9,"TEXCOORD_0":10},"indices":11,"material":2,"mode":4},{"attributes":{"POSITION":12,"NORMAL":13,"TEXCOORD_0":14},"indices":15,"material":3,"mode":4}]},{"name":"XerneasInactive_1","primitives":[{"attributes":{"POSITION":16,"NORMAL":17,"TEXCOORD_0":18},"indices":19,"material":4,"mode":4},{"attributes":{"POSITION":20,"NORMAL":21,"TEXCOORD_0":22},"indices":23,"material":5,"mode":4},{"attributes":{"POSITION":24,"NORMAL":25,"TEXCOORD_0":26},"indices":27,"material":6,"mode":4}]},{"name":"Xerneas_Effect_1","primitives":[{"attributes":{"POSITION":28,"NORMAL":29,"TEXCOORD_0":30},"indices":31,"material":7,"mode":4}]},{"name":"Xerneas_Effect_Layer2_1","primitives":[{"attributes":{"POSITION":32,"NORMAL":33,"TEXCOORD_0":34},"indices":35,"material":8,"mode":4}]}],"nodes":[{"name":"Xerneas","mesh":0},{"name":"XerneasInactive","mesh":1},{"name":"Xerneas_Effect","mesh":2},{"name":"Xerneas_Effect_Layer2","mesh":3}],"samplers":[{"wrapS":10497,"wrapT":10497}],"scene":0,"scenes":[{"nodes":[0,1,2,3]}],"textures":[{"name":"pm0768_00_BodyA1","sampler":0,"source":0},{"name":"pm0768_00_BodyB1Active","sampler":0,"source":1},{"name":"pm0768_00_Eye1","sampler":0,"source":2},{"name":"pm0768_00_BodyC1","sampler":0,"source":3},{"name":"pm0768_00_BodyB1","sampler":0,"source":4},{"name":"pm0768_00_BodyC2","sampler":0,"source":5},{"name":"pm0768_00_BodyD2","sampler":0,"source":6}]}