{"accessors":[{"name":"Yveltal_1_0_positions","componentType":5126,"count":11478,"min":[-411.8539733886719,-111.5770263671875,-330.1849670410156],"max":[411.85400390625,209.00698852539062,173.09597778320312],"type":"VEC3","bufferView":0,"byteOffset":0},{"name":"Yveltal_1_0_normals","componentType":5126,"count":11478,"min":[-0.9982382655143738,-0.999178946018219,-0.9797149896621704],"max":[0.9982382655143738,0.9950632452964783,0.9914901256561279],"type":"VEC3","bufferView":1,"byteOffset":0},{"name":"Yveltal_1_0_texcoords","componentType":5126,"count":11478,"min":[0,-0.9909499883651733],"max":[1.9185099601745605,-0.006289999932050705],"type":"VEC2","bufferView":2,"byteOffset":0},{"name":"Yveltal_1_0_indices","componentType":5123,"count":11478,"min":[0],"max":[11477],"type":"SCALAR","bufferView":3,"byteOffset":0},{"name":"Yveltal_1_1_positions","componentType":5126,"count":9300,"min":[-312.4580078125,-47.25109100341797,-252.82199096679688],"max":[312.4580383300781,288.35400390625,172.55899047851562],"type":"VEC3","bufferView":0,"byteOffset":137736},{"name":"Yveltal_1_1_normals","componentType":5126,"count":9300,"min":[-0.9968319535255432,-0.9993100762367249,-0.9797149896621704],"max":[0.9968319535255432,0.9931439757347107,0.9914901256561279],"type":"VEC3","bufferView":1,"byteOffset":137736},{"name":"Yveltal_1_1_texcoords","componentType":5126,"count":9300,"min":[0.11402499675750732,0.010870000347495079],"max":[2,0.9905059933662415],"type":"VEC2","bufferView":2,"byteOffset":91824},{"name":"Yveltal_1_1_indices","componentType":5123,"count":9300,"min":[0],"max":[9299],"type":"SCALAR","bufferView":3,"byteOffset":22956},{"name":"Yveltal_1_2_positions","componentType":5126,"count":132,"min":[-14.406399726867676,168.95999145507812,135.61798095703125],"max":[14.406399726867676,177.97499084472656,151.88499450683594],"type":"VEC3","bufferView":0,"byteOffset":249336},{"name":"Yveltal_1_2_normals","componentType":5126,"count":132,"min":[-0.9968319535255432,-0.9200979471206665,-0.6079959869384766],"max":[0.9968319535255432,0.9013617038726807,0.5179311633110046],"type":"VEC3","bufferView":1,"byteOffset":249336},{"name":"Yveltal_1_2_texcoords","componentType":5126,"count":132,"min":[0.0065910001285374165,-1.9215699434280396],"max":[0.49340999126434326,-1.7744300365447998],"type":"VEC2","bufferView":2,"byteOffset":166224},{"name":"Yveltal_1_2_indices","componentType":5123,"count":132,"min":[0],"max":[131],"type":"SCALAR","bufferView":3,"byteOffset":41556},{"name":"Yveltal_EffectA_1_0_positions","componentType":5126,"count":312,"min":[-273.4899597167969,-11.0040922164917,-245.7919921875],"max":[273.489990234375,167.75201416015625,67.22180938720703],"type":"VEC3","bufferView":0,"byteOffset":250920},{"name":"Yveltal_EffectA_1_0_normals","componentType":5126,"count":312,"min":[-0.22050592303276062,0.8022487759590149,-0.5969898700714111],"max":[0.25104913115501404,0.9806009531021118,-0.14786399900913239],"type":"VEC3","bufferView":1,"byteOffset":250920},{"name":"Yveltal_EffectA_1_0_texcoords","componentType":5126,"count":312,"min":[0.13830499351024628,0.008763999678194523],"max":[0.8616949915885925,0.9760550260543823],"type":"VEC2","bufferView":2,"byteOffset":167280},{"name":"Yveltal_EffectA_1_0_indices","componentType":5123,"count":312,"min":[0],"max":[311],"type":"SCALAR","bufferView":3,"byteOffset":41820},{"name":"Yveltal_EffectA_Layer2_1_0_positions","componentType":5126,"count":312,"min":[-273.4899597167969,-11.0040922164917,-245.7919921875],"max":[273.489990234375,167.75201416015625,67.22180938720703],"type":"VEC3","bufferView":0,"byteOffset":254664},{"name":"Yveltal_EffectA_Layer2_1_0_normals","componentType":5126,"count":312,"min":[-0.22050592303276062,0.8022487759590149,-0.5969898700714111],"max":[0.25104913115501404,0.9806009531021118,-0.14786399900913239],"type":"VEC3","bufferView":1,"byteOffset":254664},{"name":"Yveltal_EffectA_Layer2_1_0_texcoords","componentType":5126,"count":312,"min":[0.13830499351024628,0.684004008769989],"max":[0.8616949915885925,0.9361870288848877],"type":"VEC2","bufferView":2,"byteOffset":169776},{"name":"Yveltal_EffectA_Layer2_1_0_indices","componentType":5123,"count":312,"min":[0],"max":[311],"type":"SCALAR","bufferView":3,"byteOffset":42444},{"name":"Yveltal_EffectB_1_0_positions","componentType":5126,"count":2442,"min":[-312.4599914550781,-47.337493896484375,-252.78900146484375],"max":[312.46002197265625,166.43499755859375,96.27999114990234],"type":"VEC3","bufferView":0,"byteOffset":258408},{"name":"Yveltal_EffectB_1_0_normals","componentType":5126,"count":2442,"min":[-0.9015672206878662,-0.998988926410675,-0.8914486765861511],"max":[0.9933604001998901,0.5275651812553406,0.9654284715652466],"type":"VEC3","bufferView":1,"byteOffset":258408},{"name":"Yveltal_EffectB_1_0_texcoords","componentType":5126,"count":2442,"min":[-0.005512000061571598,0.02029399946331978],"max":[1.0185500383377075,0.9807919859886169],"type":"VEC2","bufferView":2,"byteOffset":172272},{"name":"Yveltal_EffectB_1_0_indices","componentType":5123,"count":2442,"min":[0],"max":[2441],"type":"SCALAR","bufferView":3,"byteOffset":43068},{"name":"Yveltal_EffectC_1_0_positions","componentType":5126,"count":1692,"min":[-94.55619049072266,56.37779235839844,-44.03579330444336],"max":[94.55619812011719,183.61199951171875,134.70599365234375],"type":"VEC3","bufferView":0,"byteOffset":287712},{"name":"Yveltal_EffectC_1_0_normals","componentType":5126,"count":1692,"min":[-0.952619731426239,-0.9888787269592285,-0.4024890661239624],"max":[0.9092767238616943,0.9422435760498047,0.9753789901733398],"type":"VEC3","bufferView":1,"byteOffset":287712},{"name":"Yveltal_EffectC_1_0_texcoords","componentType":5126,"count":1692,"min":[0.3274340033531189,0.16729000210762024],"max":[0.6725659966468811,0.9281669855117798],"type":"VEC2","bufferView":2,"byteOffset":191808},{"name":"Yveltal_EffectC_1_0_indices","componentType":5123,"count":1692,"min":[0],"max":[1691],"type":"SCALAR","bufferView":3,"byteOffset":47952}],"asset":{"generator":"obj2gltf","version":"2.0"},"buffers":[{"name":"XY_Yveltal","byteLength":1038068,"uri":"data:application/octet-stream;base64,"}],"bufferViews":[{"name":"bufferView_0","buffer":0,"byteLength":308016,"byteOffset":0,"byteStride":12,"target":34962},{"name":"bufferView_1","buffer":0,"byteLength":308016,"byteOffset":308016,"byteStride":12,"target":34962},{"name":"bufferView_2","buffer":0,"byteLength":205344,"byteOffset":616032,"byteStride":8,"target":34962},{"name":"bufferView_3","buffer":0,"byteLength":51336,"byteOffset":821376,"target":34963},{"buffer":0,"byteOffset":872712,"byteLength":38809},{"buffer":0,"byteOffset":911521,"byteLength":49019},{"buffer":0,"byteOffset":960540,"byteLength":15582},{"buffer":0,"byteOffset":976122,"byteLength":4747},{"buffer":0,"byteOffset":980869,"byteLength":260},{"buffer":0,"byteOffset":981129,"byteLength":56938}],"images":[{"name":"pm0769_00_BodyB1","mimeType":"image/png","bufferView":4},{"name":"pm0769_00_BodyA1","mimeType":"image/png","bufferView":5},{"name":"pm0769_00_Eye1","mimeType":"image/png","bufferView":6},{"name":"pm0769_00_BodyCMask1","mimeType":"image/png","bufferView":7},{"name":"pm0769_00_BodyCMask2","mimeType":"image/png","bufferView":8},{"name":"pm0769_00_BodyDMask1","mimeType":"image/png","bufferView":9}],"materials":[{"name":"Material__10","pbrMetallicRoughness":{"baseColorTexture":{"index":0},"baseColorFactor":[1,1,1,1],"metallicFactor":0,"roughnessFactor":0.998},"emissiveFactor":[0,0,0],"alphaMode":"OPAQUE","doubleSided":false},{"name":"Material__11","pbrMetallicRoughness":{"baseColorTexture":{"index":1},"baseColorFactor":[1,1,1,1],"metallicFactor":0,"roughnessFactor":0.998},"emissiveFactor":[0,0,0],"alphaMode":"OPAQUE","doubleSided":false},{"name":"Material__12","pbrMetallicRoughness":{"baseColorTexture":{"index":2},"baseColorFactor":[1,1,1,1],"metallicFactor":0,"roughnessFactor":0.998},"emissiveFactor":[0,0,0],"alphaMode":"OPAQUE","doubleSided":false},{"name":"Material__23","pbrMetallicRoughness":{"baseColorTexture":{"index":3},"baseColorFactor":[1,1,1,1],"metallicFactor":0,"roughnessFactor":0.998},"emissiveFactor":[0,0,0],"alphaMode":"OPAQUE","doubleSided":false},{"name":"Material__10_ncl1_1","pbrMetallicRoughness":{"baseColorTexture":{"index":4},"baseColorFactor":[1,1,1,1],"metallicFactor":0,"roughnessFactor":0.998},"emissiveFactor":[0,0,0],"alphaMode":"OPAQUE","doubleSided":false},{"name":"Material__34","pbrMetallicRoughness":{"baseColorTexture":{"index":5},"baseColorFactor":[1,1,1,1],"metallicFactor":0,"roughnessFactor":0.998},"emissiveFactor":[0,0,0],"alphaMode":"OPAQUE","doubleSided":false},{"name":"Material__45","pbrMetallicRoughness":{"baseColorTexture":{"index":5},"baseColorFactor":[1,1,1,1],"metallicFactor":0,"roughnessFactor":0.998},"emissiveFactor":[0,0,0],"alphaMode":"OPAQUE","doubleSided":false}],"meshes":[{"name":"Yveltal_1","primitives":[{"attributes":{"POSITION":0,"NORMAL":1,"TEXCOORD_0":2},"indices":3,"material":0,"mode":4},{"attributes":{"POSITION":4,"NORMAL":5,"TEXCOORD_0":6},"indices":7,"material":1,"mode":4},{"attributes":{"POSITION":8,"NORMAL":9,"TEXCOORD_0":10},"indices":11,"material":2,"mode":4}]},{"name":"Yveltal_EffectA_1","primitives":[{"attributes":{"POSITION":12,"NORMAL":13,"TEXCOORD_0":14},"indices":15,"material":3,"mode":4}]},{"name":"Yveltal_EffectA_Layer2_1","primitives":[{"attributes":{"POSITION":16,"NORMAL":17,"TEXCOORD_0":18},"indices":19,"material":4,"mode":4}]},{"name":"Yveltal_EffectB_1","primitives":[{"attributes":{"POSITION":20,"NORMAL":21,"TEXCOORD_0":22},"indices":23,"material":5,"mode":4}]},{"name":"Yveltal_EffectC_1","primitives":[{"attributes":{"POSITION":24,"NORMAL":25,"TEXCOORD_0":26},"indices":27,"material":6,"mode":4}]}],"nodes":[{"name":"Yveltal","mesh":0},{"name":"Yveltal_EffectA","mesh":1},{"name":"Yveltal_EffectA_Layer2","mesh":2},{"name":"Yveltal_EffectB","mesh":3},{"name":"Yveltal_EffectC","mesh":4}],"samplers":[{"wrapS":10497,"wrapT":10497}],"scene":0,"scenes":[{"nodes":[0,1,2,3,4]}],"textures":[{"name":"pm0769_00_BodyB1","sampler":0,"source":0},{"name":"pm0769_00_BodyA1","sampler":0,"source":1},{"name":"pm0769_00_Eye1","sampler":0,"source":2},{"name":"pm0769_00_BodyCMask1","sampler":0,"source":3},{"name":"pm0769_00_BodyCMask2","sampler":0,"source":4},{"name":"pm0769_00_BodyDMask1","sampler":0,"source":5}]}