{"accessors":[{"name":"Diancie_1_0_positions","componentType":5126,"count":10824,"min":[-19.81399917602539,30.36389923095703,-15.320599555969238],"max":[19.814001083374023,61.595001220703125,8.794242858886719],"type":"VEC3","bufferView":0,"byteOffset":0},{"name":"Diancie_1_0_normals","componentType":5126,"count":10824,"min":[-0.9962185025215149,-0.9741343259811401,-0.9775721430778503],"max":[0.9962179064750671,0.9370406270027161,0.9838854670524597],"type":"VEC3","bufferView":1,"byteOffset":0},{"name":"Diancie_1_0_texcoords","componentType":5126,"count":10824,"min":[0,0.0078119998797774315],"max":[1,0.9879080057144165],"type":"VEC2","bufferView":2,"byteOffset":0},{"name":"Diancie_1_0_indices","componentType":5123,"count":10824,"min":[0],"max":[10823],"type":"SCALAR","bufferView":3,"byteOffset":0},{"name":"Diancie_1_1_positions","componentType":5126,"count":3285,"min":[-21.365604400634766,16.087894439697266,-14.753299713134766],"max":[21.365602493286133,69.70276641845703,8.98765754699707],"type":"VEC3","bufferView":0,"byteOffset":129888},{"name":"Diancie_1_1_normals","componentType":5126,"count":3285,"min":[-0.9938758611679077,-0.9688178896903992,-0.41221100091934204],"max":[0.6718578338623047,0.883847177028656,0.9960336685180664],"type":"VEC3","bufferView":1,"byteOffset":129888},{"name":"Diancie_1_1_texcoords","componentType":5126,"count":3285,"min":[0.5110089778900146,-1.9841099977493286],"max":[0.991981029510498,-1.046820044517517],"type":"VEC2","bufferView":2,"byteOffset":86592},{"name":"Diancie_1_1_indices","componentType":5123,"count":3285,"min":[0],"max":[3284],"type":"SCALAR","bufferView":3,"byteOffset":21648},{"name":"Diancie_1_2_positions","componentType":5126,"count":36,"min":[-2.3466269969940186,48.290802001953125,5.003300189971924],"max":[2.3466129302978516,49.67891311645508,6.5796799659729],"type":"VEC3","bufferView":0,"byteOffset":169308},{"name":"Diancie_1_2_normals","componentType":5126,"count":36,"min":[-0.6626400947570801,0.4957450032234192,-0.8158241510391235],"max":[-0.0000019999999949504854,0.6679238080978394,-0.5273750424385071],"type":"VEC3","bufferView":1,"byteOffset":169308},{"name":"Diancie_1_2_texcoords","componentType":5126,"count":36,"min":[0.004792999941855669,-3.976560115814209],"max":[0.4952099919319153,-3.765630006790161],"type":"VEC2","bufferView":2,"byteOffset":112872},{"name":"Diancie_1_2_indices","componentType":5123,"count":36,"min":[0],"max":[35],"type":"SCALAR","bufferView":3,"byteOffset":28220},{"name":"Diancie_1_3_positions","componentType":5126,"count":426,"min":[-6.057803153991699,48.78919219970703,4.169916152954102],"max":[6.0577569007873535,54.8546257019043,7.310764789581299],"type":"VEC3","bufferView":0,"byteOffset":169740},{"name":"Diancie_1_3_normals","componentType":5126,"count":426,"min":[-0.9962185025215149,-0.8642418384552002,-0.9725528955459595],"max":[0.9568600058555603,0.8422091007232666,0.7296130657196045],"type":"VEC3","bufferView":1,"byteOffset":169740},{"name":"Diancie_1_3_texcoords","componentType":5126,"count":426,"min":[0.015842000022530556,-2.991640090942383],"max":[0.4841580092906952,-2.758359909057617],"type":"VEC2","bufferView":2,"byteOffset":113160},{"name":"Diancie_1_3_indices","componentType":5123,"count":426,"min":[0],"max":[425],"type":"SCALAR","bufferView":3,"byteOffset":28292},{"name":"Diancie_1_4_positions","componentType":5126,"count":2559,"min":[-13.455300331115723,0.22970199584960938,-12.973198890686035],"max":[11.954299926757812,40.93830108642578,11.54539966583252],"type":"VEC3","bufferView":0,"byteOffset":174852},{"name":"Diancie_1_4_normals","componentType":5126,"count":2559,"min":[-0.9568611979484558,-0.997923731803894,-0.9725526571273804],"max":[0.6718578338623047,0.7198463082313538,0.9960336089134216],"type":"VEC3","bufferView":1,"byteOffset":174852},{"name":"Diancie_1_4_texcoords","componentType":5126,"count":2559,"min":[0.032648999243974686,-0.9921900033950806],"max":[0.9747560024261475,-0.009139999747276306],"type":"VEC2","bufferView":2,"byteOffset":116568},{"name":"Diancie_1_4_indices","componentType":5123,"count":2559,"min":[0],"max":[2558],"type":"SCALAR","bufferView":3,"byteOffset":29144},{"name":"Diancie_1_5_positions","componentType":5126,"count":13950,"min":[-21.46210289001465,16.046794891357422,-14.850500106811523],"max":[21.462100982666016,69.8027114868164,9.08763313293457],"type":"VEC3","bufferView":0,"byteOffset":205560},{"name":"Diancie_1_5_normals","componentType":5126,"count":13950,"min":[-0.9807330965995789,-0.997923731803894,-0.9922179579734802],"max":[0.9867550730705261,0.9902827143669128,0.9932190179824829],"type":"VEC3","bufferView":1,"byteOffset":205560},{"name":"Diancie_1_5_texcoords","componentType":5126,"count":13950,"min":[0.006341000087559223,-1.9841699600219727],"max":[0.4869779944419861,-1.048949956893921],"type":"VEC2","bufferView":2,"byteOffset":137040},{"name":"Diancie_1_5_indices","componentType":5123,"count":13950,"min":[0],"max":[13949],"type":"SCALAR","bufferView":3,"byteOffset":34264}],"asset":{"generator":"obj2gltf","version":"2.0"},"buffers":[{"name":"XY_Diancie","byteLength":1154284,"uri":"data:application/octet-stream;base64,"}],"bufferViews":[{"name":"bufferView_0","buffer":0,"byteLength":372960,"byteOffset":0,"byteStride":12,"target":34962},{"name":"bufferView_1","buffer":0,"byteLength":372960,"byteOffset":372960,"byteStride":12,"target":34962},{"name":"bufferView_2","buffer":0,"byteLength":248640,"byteOffset":745920,"byteStride":8,"target":34962},{"name":"bufferView_3","buffer":0,"byteLength":62164,"byteOffset":994560,"target":34963},{"buffer":0,"byteOffset":1056724,"byteLength":25465},{"buffer":0,"byteOffset":1082189,"byteLength":8067},{"buffer":0,"byteOffset":1090256,"byteLength":4392},{"buffer":0,"byteOffset":1094648,"byteLength":28635},{"buffer":0,"byteOffset":1123283,"byteLength":28401},{"buffer":0,"byteOffset":1151684,"byteLength":2598}],"images":[{"name":"pm0772_00_BodyA1","mimeType":"image/png","bufferView":4},{"name":"pm0772_00_DiaEnv","mimeType":"image/png","bufferView":5},{"name":"pm0772_00_Mouth1","mimeType":"image/png","bufferView":6},{"name":"pm0772_00_Eye1","mimeType":"image/png","bufferView":7},{"name":"pm0772_00_BodyB1","mimeType":"image/png","bufferView":8},{"name":"pm0772_00_DesukarnEnv","mimeType":"image/png","bufferView":9}],"materials":[{"name":"Material__10","pbrMetallicRoughness":{"baseColorTexture":{"index":0},"baseColorFactor":[1,1,1,1],"metallicFactor":0,"roughnessFactor":0.998},"emissiveFactor":[0,0,0],"alphaMode":"OPAQUE","doubleSided":false},{"name":"Material__11","pbrMetallicRoughness":{"baseColorTexture":{"index":1},"baseColorFactor":[1,1,1,1],"metallicFactor":0,"roughnessFactor":0.998},"emissiveFactor":[0,0,0],"alphaMode":"OPAQUE","doubleSided":false},{"name":"Material__12","pbrMetallicRoughness":{"baseColorTexture":{"index":2},"baseColorFactor":[1,1,1,1],"metallicFactor":0,"roughnessFactor":0.998},"emissiveFactor":[0,0,0],"alphaMode":"OPAQUE","doubleSided":false},{"name":"Material__13","pbrMetallicRoughness":{"baseColorTexture":{"index":3},"baseColorFactor":[1,1,1,1],"metallicFactor":0,"roughnessFactor":0.998},"emissiveFactor":[0,0,0],"alphaMode":"OPAQUE","doubleSided":false},{"name":"Material__14","pbrMetallicRoughness":{"baseColorTexture":{"index":4},"baseColorFactor":[1,1,1,1],"metallicFactor":0,"roughnessFactor":0.998},"emissiveFactor":[0,0,0],"alphaMode":"OPAQUE","doubleSided":false},{"name":"Material__16","pbrMetallicRoughness":{"baseColorTexture":{"index":5},"baseColorFactor":[1,1,1,1],"metallicFactor":0,"roughnessFactor":0.998},"emissiveFactor":[0,0,0],"alphaMode":"OPAQUE","doubleSided":false}],"meshes":[{"name":"Diancie_1","primitives":[{"attributes":{"POSITION":0,"NORMAL":1,"TEXCOORD_0":2},"indices":3,"material":0,"mode":4},{"attributes":{"POSITION":4,"NORMAL":5,"TEXCOORD_0":6},"indices":7,"material":1,"mode":4},{"attributes":{"POSITION":8,"NORMAL":9,"TEXCOORD_0":10},"indices":11,"material":2,"mode":4},{"attributes":{"POSITION":12,"NORMAL":13,"TEXCOORD_0":14},"indices":15,"material":3,"mode":4},{"attributes":{"POSITION":16,"NORMAL":17,"TEXCOORD_0":18},"indices":19,"material":4,"mode":4},{"attributes":{"POSITION":20,"NORMAL":21,"TEXCOORD_0":22},"indices":23,"material":5,"mode":4}]}],"nodes":[{"name":"Diancie","mesh":0}],"samplers":[{"wrapS":10497,"wrapT":10497}],"scene":0,"scenes":[{"nodes":[0]}],"textures":[{"name":"pm0772_00_BodyA1","sampler":0,"source":0},{"name":"pm0772_00_DiaEnv","sampler":0,"source":1},{"name":"pm0772_00_Mouth1","sampler":0,"source":2},{"name":"pm0772_00_Eye1","sampler":0,"source":3},{"name":"pm0772_00_BodyB1","sampler":0,"source":4},{"name":"pm0772_00_DesukarnEnv","sampler":0,"source":5}]}