{"accessors" : [{"bufferView" : 0, "byteOffset" : 0, "componentType" : 5123, "count" : 126, "type" : "SCALAR", "max" : [102], "min" : [0]}, {"bufferView" : 1, "byteOffset" : 0, "componentType" : 5126, "count" : 103, "type" : "VEC3", "max" : [0.4155209958553314, 3.7219159603118896, 1.4033739566802979], "min" : [-0.4155209958553314, 3.192199945449829, 1.2279549837112427], "name" : "POSITION"}, {"bufferView" : 1, "byteOffset" : 12, "componentType" : 5126, "count" : 103, "type" : "VEC2", "max" : [0.2642819881439209, -0.7678220272064209], "min" : [-0.01431300025433302, -0.9943240284919739], "name" : "TEXCOORD_0"}, {"bufferView" : 1, "byteOffset" : 20, "componentType" : 5126, "count" : 103, "type" : "VEC3", "max" : [0.5023344159126282, 0.8219709396362305, 0.9987779259681702], "min" : [-0.5023344159126282, -0.2150348573923111, 0.46426522731781006], "name" : "NORMAL"}, {"bufferView" : 0, "byteOffset" : 252, "componentType" : 5123, "count" : 4014, "type" : "SCALAR", "max" : [3251], "min" : [0]}, {"bufferView" : 2, "byteOffset" : 0, "componentType" : 5126, "count" : 3252, "type" : "VEC3", "max" : [1.6637619733810425, 4.639324188232422, 1.6357840299606323], "min" : [-1.6637619733810425, 0.0038449999410659075, -1.0397980213165283], "name" : "POSITION"}, {"bufferView" : 2, "byteOffset" : 12, "componentType" : 5126, "count" : 3252, "type" : "VEC2", "max" : [0.9933170080184937, -0.0087890001013875], "min" : [0.0032649999484419823, -0.9964600205421448], "name" : "TEXCOORD_0"}, {"bufferView" : 2, "byteOffset" : 20, "componentType" : 5126, "count" : 3252, "type" : "VEC3", "max" : [0.9998583197593689, 0.9951767325401306, 0.9991629123687744], "min" : [-0.9998583197593689, -0.9922056794166565, -0.9975721836090088], "name" : "NORMAL"}, {"bufferView" : 0, "byteOffset" : 8280, "componentType" : 5123, "count" : 144, "type" : "SCALAR", "max" : [121], "min" : [0]}, {"bufferView" : 3, "byteOffset" : 0, "componentType" : 5126, "count" : 122, "type" : "VEC3", "max" : [0.9637479782104492, 3.6219489574432373, 1.1583729982376099], "min" : [-0.9637489914894104, 2.955488920211792, 0.5419600009918213], "name" : "POSITION"}, {"bufferView" : 3, "byteOffset" : 12, "componentType" : 5126, "count" : 122, "type" : "VEC2", "max" : [0.8610529899597168, -0.7762449979782104], "min" : [0.18075600266456604, -0.9600520133972168], "name" : "TEXCOORD_0"}, {"bufferView" : 3, "byteOffset" : 20, "componentType" : 5126, "count" : 122, "type" : "VEC3", "max" : [0.988700807094574, 0.45524492859840393, 0.8072314858436584], "min" : [-0.988700807094574, -0.33051052689552307, 0.13165950775146484], "name" : "NORMAL"}, {"bufferView" : 0, "byteOffset" : 8568, "componentType" : 5123, "count" : 84, "type" : "SCALAR", "max" : [68], "min" : [0]}, {"bufferView" : 4, "byteOffset" : 0, "componentType" : 5126, "count" : 69, "type" : "VEC3", "max" : [0.7908610105514526, 3.9939770698547363, 1.1718369722366333], "min" : [-0.7908610105514526, 3.60851788520813, 0.6945009827613831], "name" : "POSITION"}, {"bufferView" : 4, "byteOffset" : 12, "componentType" : 5126, "count" : 69, "type" : "VEC2", "max" : [0.25463899970054626, -0.7928469777107239], "min" : [-0.0036619999445974827, -0.9543150067329407], "name" : "TEXCOORD_0"}, {"bufferView" : 4, "byteOffset" : 20, "componentType" : 5126, "count" : 69, "type" : "VEC3", "max" : [0.8164064288139343, 0.7406007051467896, 0.7810297012329102], "min" : [-0.8164064288139343, 0.3771156072616577, 0.4373478591442108], "name" : "NORMAL"}, {"bufferView" : 0, "byteOffset" : 8736, "componentType" : 5123, "count" : 156, "type" : "SCALAR", "max" : [135], "min" : [0]}, {"bufferView" : 5, "byteOffset" : 0, "componentType" : 5126, "count" : 136, "type" : "VEC3", "max" : [0.05000000074505806, 4.907320022583008, -0.7170140147209167], "min" : [-0.05000000074505806, 0.9236289858818054, -3.028580904006958], "name" : "POSITION"}, {"bufferView" : 5, "byteOffset" : 12, "componentType" : 5126, "count" : 136, "type" : "VEC2", "max" : [0.31445300579071045, -0.27053800225257874], "min" : [0.00494399992749095, -0.5421450138092041], "name" : "TEXCOORD_0"}, {"bufferView" : 5, "byteOffset" : 20, "componentType" : 5126, "count" : 136, "type" : "VEC3", "max" : [0.9999966621398926, 0.9454718828201294, 0.9964978694915771], "min" : [-0.9999967813491821, -0.9549413919448853, -0.9998614192008972], "name" : "NORMAL"}], "asset" : {"generator" : "Aspose.3D 21.11", "version" : "2.0"}, "buffers" : [{"uri" : "data:application/octet-stream;base64,", "byteLength" : 153840}], "bufferViews" : [{"buffer" : 0, "byteOffset" : 0, "byteLength" : 9048, "target" : 34963}, {"buffer" : 0, "byteOffset" : 9052, "byteLength" : 4032, "byteStride" : 32, "target" : 34962}, {"buffer" : 0, "byteOffset" : 13088, "byteLength" : 128448, "byteStride" : 32, "target" : 34962}, {"buffer" : 0, "byteOffset" : 141540, "byteLength" : 4608, "byteStride" : 32, "target" : 34962}, {"buffer" : 0, "byteOffset" : 146152, "byteLength" : 2688, "byteStride" : 32, "target" : 34962}, {"buffer" : 0, "byteOffset" : 148844, "byteLength" : 4992, "byteStride" : 32, "target" : 34962}], "meshes" : [{"primitives" : [{"attributes" : {"POSITION" : 1, "TEXCOORD_0" : 2, "NORMAL" : 3}, "indices" : 0, "mode" : 4}], "name" : ""}, {"primitives" : [{"attributes" : {"POSITION" : 5, "TEXCOORD_0" : 6, "NORMAL" : 7}, "indices" : 4, "mode" : 4}], "name" : ""}, {"primitives" : [{"attributes" : {"POSITION" : 9, "TEXCOORD_0" : 10, "NORMAL" : 11}, "indices" : 8, "mode" : 4}], "name" : ""}, {"primitives" : [{"attributes" : {"POSITION" : 13, "TEXCOORD_0" : 14, "NORMAL" : 15}, "indices" : 12, "mode" : 4}], "name" : ""}, {"primitives" : [{"attributes" : {"POSITION" : 17, "TEXCOORD_0" : 18, "NORMAL" : 19}, "indices" : 16, "mode" : 4}], "name" : ""}], "nodes" : [{"mesh" : 0, "name" : "polygon0"}, {"mesh" : 1, "name" : "polygon1"}, {"mesh" : 2, "name" : "polygon2"}, {"mesh" : 3, "name" : "polygon3"}, {"mesh" : 4, "name" : "polygon4"}], "scene" : 0, "scenes" : [{"nodes" : [0, 1, 2, 3, 4]}]}